<svg width="843" height="698" fill="none" xmlns="http://www.w3.org/2000/svg"><g opacity=".1" fill="#000"><path d="M23.5 216a1.5 1.5 0 11-3 0 1.5 1.5 0 013 0zM43.5 216a1.5 1.5 0 11-3 0 1.5 1.5 0 013 0zM23.5 236a1.5 1.5 0 11-3 0 1.5 1.5 0 013 0zM43.5 236a1.5 1.5 0 11-3 0 1.5 1.5 0 013 0zM23.5 256a1.5 1.5 0 11-3 0 1.5 1.5 0 013 0zM43.5 256a1.5 1.5 0 11-3 0 1.5 1.5 0 013 0zM23.5 276a1.5 1.5 0 11-3 0 1.5 1.5 0 013 0zM43.5 276a1.5 1.5 0 11-3 0 1.5 1.5 0 013 0zM23.5 296a1.5 1.5 0 11-3 0 1.5 1.5 0 013 0zM43.5 296a1.5 1.5 0 11-3 0 1.5 1.5 0 013 0zM23.5 316a1.5 1.5 0 11-3 0 1.5 1.5 0 013 0zM43.5 316a1.5 1.5 0 11-3 0 1.5 1.5 0 013 0zM23.5 336a1.5 1.5 0 11-3 0 1.5 1.5 0 013 0zM43.5 336a1.5 1.5 0 11-3 0 1.5 1.5 0 013 0zM23.5 356a1.5 1.5 0 11-3 0 1.5 1.5 0 013 0zM43.5 356a1.5 1.5 0 11-3 0 1.5 1.5 0 013 0zM23.5 376a1.5 1.5 0 11-3 0 1.5 1.5 0 013 0zM43.5 376a1.5 1.5 0 11-3 0 1.5 1.5 0 013 0zM23.5 396a1.5 1.5 0 11-3 0 1.5 1.5 0 013 0zM43.5 396a1.5 1.5 0 11-3 0 1.5 1.5 0 013 0zM23.5 416a1.5 1.5 0 11-3 0 1.5 1.5 0 013 0zM43.5 416a1.5 1.5 0 11-3 0 1.5 1.5 0 013 0zM23.5 436a1.5 1.5 0 11-3 0 1.5 1.5 0 013 0zM43.5 436a1.5 1.5 0 11-3 0 1.5 1.5 0 013 0zM63.5 216a1.5 1.5 0 11-3 0 1.5 1.5 0 013 0zM83.5 216a1.5 1.5 0 11-3 0 1.5 1.5 0 013 0zM103.5 216a1.5 1.5 0 11-3.001-.001 1.5 1.5 0 013.001.001zM123.5 216a1.5 1.5 0 11-3.001-.001 1.5 1.5 0 013.001.001zM143.5 216a1.5 1.5 0 11-3.001-.001 1.5 1.5 0 013.001.001zM163.5 216a1.5 1.5 0 11-3.001-.001 1.5 1.5 0 013.001.001zM183.5 216a1.5 1.5 0 11-3.001-.001 1.5 1.5 0 013.001.001zM203.5 216a1.5 1.5 0 11-3.001-.001 1.5 1.5 0 013.001.001zM223.5 216a1.5 1.5 0 11-3.001-.001 1.5 1.5 0 013.001.001zM243.5 216a1.5 1.5 0 11-3.001-.001 1.5 1.5 0 013.001.001zM263.5 216a1.5 1.5 0 11-3.001-.001 1.5 1.5 0 013.001.001zM283.5 216a1.5 1.5 0 11-3.001-.001 1.5 1.5 0 013.001.001zM303.5 216a1.5 1.5 0 11-3.001-.001 1.5 1.5 0 013.001.001zM323.5 216a1.5 1.5 0 11-3.001-.001 1.5 1.5 0 013.001.001zM343.5 216a1.5 1.5 0 11-3.001-.001 1.5 1.5 0 013.001.001zM63.5 236a1.5 1.5 0 11-3 0 1.5 1.5 0 013 0zM83.5 236a1.5 1.5 0 11-3 0 1.5 1.5 0 013 0zM103.5 236a1.5 1.5 0 11-3.001-.001 1.5 1.5 0 013.001.001zM123.5 236a1.5 1.5 0 11-3.001-.001 1.5 1.5 0 013.001.001zM143.5 236a1.5 1.5 0 11-3.001-.001 1.5 1.5 0 013.001.001zM163.5 236a1.5 1.5 0 11-3.001-.001 1.5 1.5 0 013.001.001zM183.5 236a1.5 1.5 0 11-3.001-.001 1.5 1.5 0 013.001.001zM203.5 236a1.5 1.5 0 11-3.001-.001 1.5 1.5 0 013.001.001zM223.5 236a1.5 1.5 0 11-3.001-.001 1.5 1.5 0 013.001.001zM243.5 236a1.5 1.5 0 11-3.001-.001 1.5 1.5 0 013.001.001zM263.5 236a1.5 1.5 0 11-3.001-.001 1.5 1.5 0 013.001.001zM283.5 236a1.5 1.5 0 11-3.001-.001 1.5 1.5 0 013.001.001zM303.5 236a1.5 1.5 0 11-3.001-.001 1.5 1.5 0 013.001.001zM323.5 236a1.5 1.5 0 11-3.001-.001 1.5 1.5 0 013.001.001zM343.5 236a1.5 1.5 0 11-3.001-.001 1.5 1.5 0 013.001.001zM63.5 256a1.5 1.5 0 11-3 0 1.5 1.5 0 013 0zM83.5 256a1.5 1.5 0 11-3 0 1.5 1.5 0 013 0zM103.5 256a1.5 1.5 0 11-3.001-.001 1.5 1.5 0 013.001.001zM123.5 256a1.5 1.5 0 11-3.001-.001 1.5 1.5 0 013.001.001zM143.5 256a1.5 1.5 0 11-3.001-.001 1.5 1.5 0 013.001.001zM163.5 256a1.5 1.5 0 11-3.001-.001 1.5 1.5 0 013.001.001zM183.5 256a1.5 1.5 0 11-3.001-.001 1.5 1.5 0 013.001.001zM203.5 256a1.5 1.5 0 11-3.001-.001 1.5 1.5 0 013.001.001zM223.5 256a1.5 1.5 0 11-3.001-.001 1.5 1.5 0 013.001.001zM243.5 256a1.5 1.5 0 11-3.001-.001 1.5 1.5 0 013.001.001zM263.5 256a1.5 1.5 0 11-3.001-.001 1.5 1.5 0 013.001.001zM283.5 256a1.5 1.5 0 11-3.001-.001 1.5 1.5 0 013.001.001zM303.5 256a1.5 1.5 0 11-3.001-.001 1.5 1.5 0 013.001.001zM323.5 256a1.5 1.5 0 11-3.001-.001 1.5 1.5 0 013.001.001zM343.5 256a1.5 1.5 0 11-3.001-.001 1.5 1.5 0 013.001.001zM63.5 276a1.5 1.5 0 11-3 0 1.5 1.5 0 013 0zM83.5 276a1.5 1.5 0 11-3 0 1.5 1.5 0 013 0zM103.5 276a1.5 1.5 0 11-3.001-.001 1.5 1.5 0 013.001.001zM123.5 276a1.5 1.5 0 11-3.001-.001 1.5 1.5 0 013.001.001zM143.5 276a1.5 1.5 0 11-3.001-.001 1.5 1.5 0 013.001.001zM163.5 276a1.5 1.5 0 11-3.001-.001 1.5 1.5 0 013.001.001zM183.5 276a1.5 1.5 0 11-3.001-.001 1.5 1.5 0 013.001.001zM203.5 276a1.5 1.5 0 11-3.001-.001 1.5 1.5 0 013.001.001zM223.5 276a1.5 1.5 0 11-3.001-.001 1.5 1.5 0 013.001.001zM243.5 276a1.5 1.5 0 11-3.001-.001 1.5 1.5 0 013.001.001zM263.5 276a1.5 1.5 0 11-3.001-.001 1.5 1.5 0 013.001.001zM283.5 276a1.5 1.5 0 11-3.001-.001 1.5 1.5 0 013.001.001zM303.5 276a1.5 1.5 0 11-3.001-.001 1.5 1.5 0 013.001.001zM323.5 276a1.5 1.5 0 11-3.001-.001 1.5 1.5 0 013.001.001zM343.5 276a1.5 1.5 0 11-3.001-.001 1.5 1.5 0 013.001.001zM63.5 296a1.5 1.5 0 11-3 0 1.5 1.5 0 013 0zM83.5 296a1.5 1.5 0 11-3 0 1.5 1.5 0 013 0zM103.5 296a1.5 1.5 0 11-3.001-.001 1.5 1.5 0 013.001.001zM123.5 296a1.5 1.5 0 11-3.001-.001 1.5 1.5 0 013.001.001zM143.5 296a1.5 1.5 0 11-3.001-.001 1.5 1.5 0 013.001.001zM163.5 296a1.5 1.5 0 11-3.001-.001 1.5 1.5 0 013.001.001zM183.5 296a1.5 1.5 0 11-3.001-.001 1.5 1.5 0 013.001.001zM203.5 296a1.5 1.5 0 11-3.001-.001 1.5 1.5 0 013.001.001zM223.5 296a1.5 1.5 0 11-3.001-.001 1.5 1.5 0 013.001.001zM243.5 296a1.5 1.5 0 11-3.001-.001 1.5 1.5 0 013.001.001zM263.5 296a1.5 1.5 0 11-3.001-.001 1.5 1.5 0 013.001.001zM283.5 296a1.5 1.5 0 11-3.001-.001 1.5 1.5 0 013.001.001zM303.5 296a1.5 1.5 0 11-3.001-.001 1.5 1.5 0 013.001.001zM323.5 296a1.5 1.5 0 11-3.001-.001 1.5 1.5 0 013.001.001zM343.5 296a1.5 1.5 0 11-3.001-.001 1.5 1.5 0 013.001.001zM63.5 316a1.5 1.5 0 11-3 0 1.5 1.5 0 013 0zM83.5 316a1.5 1.5 0 11-3 0 1.5 1.5 0 013 0zM103.5 316a1.5 1.5 0 11-3.001-.001 1.5 1.5 0 013.001.001zM123.5 316a1.5 1.5 0 11-3.001-.001 1.5 1.5 0 013.001.001zM143.5 316a1.5 1.5 0 11-3.001-.001 1.5 1.5 0 013.001.001zM163.5 316a1.5 1.5 0 11-3.001-.001 1.5 1.5 0 013.001.001zM183.5 316a1.5 1.5 0 11-3.001-.001 1.5 1.5 0 013.001.001zM203.5 316a1.5 1.5 0 11-3.001-.001 1.5 1.5 0 013.001.001zM223.5 316a1.5 1.5 0 11-3.001-.001 1.5 1.5 0 013.001.001zM243.5 316a1.5 1.5 0 11-3.001-.001 1.5 1.5 0 013.001.001zM263.5 316a1.5 1.5 0 11-3.001-.001 1.5 1.5 0 013.001.001zM283.5 316a1.5 1.5 0 11-3.001-.001 1.5 1.5 0 013.001.001zM303.5 316a1.5 1.5 0 11-3.001-.001 1.5 1.5 0 013.001.001zM323.5 316a1.5 1.5 0 11-3.001-.001 1.5 1.5 0 013.001.001zM343.5 316a1.5 1.5 0 11-3.001-.001 1.5 1.5 0 013.001.001zM63.5 336a1.5 1.5 0 11-3 0 1.5 1.5 0 013 0zM83.5 336a1.5 1.5 0 11-3 0 1.5 1.5 0 013 0zM103.5 336a1.5 1.5 0 11-3.001-.001 1.5 1.5 0 013.001.001zM123.5 336a1.5 1.5 0 11-3.001-.001 1.5 1.5 0 013.001.001zM143.5 336a1.5 1.5 0 11-3.001-.001 1.5 1.5 0 013.001.001zM163.5 336a1.5 1.5 0 11-3.001-.001 1.5 1.5 0 013.001.001zM183.5 336a1.5 1.5 0 11-3.001-.001 1.5 1.5 0 013.001.001zM203.5 336a1.5 1.5 0 11-3.001-.001 1.5 1.5 0 013.001.001zM223.5 336a1.5 1.5 0 11-3.001-.001 1.5 1.5 0 013.001.001zM243.5 336a1.5 1.5 0 11-3.001-.001 1.5 1.5 0 013.001.001zM263.5 336a1.5 1.5 0 11-3.001-.001 1.5 1.5 0 013.001.001zM283.5 336a1.5 1.5 0 11-3.001-.001 1.5 1.5 0 013.001.001zM303.5 336a1.5 1.5 0 11-3.001-.001 1.5 1.5 0 013.001.001zM323.5 336a1.5 1.5 0 11-3.001-.001 1.5 1.5 0 013.001.001zM343.5 336a1.5 1.5 0 11-3.001-.001 1.5 1.5 0 013.001.001zM63.5 356a1.5 1.5 0 11-3 0 1.5 1.5 0 013 0zM83.5 356a1.5 1.5 0 11-3 0 1.5 1.5 0 013 0zM103.5 356a1.5 1.5 0 11-3.001-.001 1.5 1.5 0 013.001.001zM123.5 356a1.5 1.5 0 11-3.001-.001 1.5 1.5 0 013.001.001zM143.5 356a1.5 1.5 0 11-3.001-.001 1.5 1.5 0 013.001.001zM163.5 356a1.5 1.5 0 11-3.001-.001 1.5 1.5 0 013.001.001zM183.5 356a1.5 1.5 0 11-3.001-.001 1.5 1.5 0 013.001.001zM203.5 356a1.5 1.5 0 11-3.001-.001 1.5 1.5 0 013.001.001zM223.5 356a1.5 1.5 0 11-3.001-.001 1.5 1.5 0 013.001.001zM243.5 356a1.5 1.5 0 11-3.001-.001 1.5 1.5 0 013.001.001zM263.5 356a1.5 1.5 0 11-3.001-.001 1.5 1.5 0 013.001.001zM283.5 356a1.5 1.5 0 11-3.001-.001 1.5 1.5 0 013.001.001zM303.5 356a1.5 1.5 0 11-3.001-.001 1.5 1.5 0 013.001.001zM323.5 356a1.5 1.5 0 11-3.001-.001 1.5 1.5 0 013.001.001zM343.5 356a1.5 1.5 0 11-3.001-.001 1.5 1.5 0 013.001.001zM63.5 376a1.5 1.5 0 11-3 0 1.5 1.5 0 013 0zM83.5 376a1.5 1.5 0 11-3 0 1.5 1.5 0 013 0zM103.5 376a1.5 1.5 0 11-3.001-.001 1.5 1.5 0 013.001.001zM123.5 376a1.5 1.5 0 11-3.001-.001 1.5 1.5 0 013.001.001zM143.5 376a1.5 1.5 0 11-3.001-.001 1.5 1.5 0 013.001.001zM163.5 376a1.5 1.5 0 11-3.001-.001 1.5 1.5 0 013.001.001zM183.5 376a1.5 1.5 0 11-3.001-.001 1.5 1.5 0 013.001.001zM203.5 376a1.5 1.5 0 11-3.001-.001 1.5 1.5 0 013.001.001zM223.5 376a1.5 1.5 0 11-3.001-.001 1.5 1.5 0 013.001.001zM243.5 376a1.5 1.5 0 11-3.001-.001 1.5 1.5 0 013.001.001zM263.5 376a1.5 1.5 0 11-3.001-.001 1.5 1.5 0 013.001.001zM283.5 376a1.5 1.5 0 11-3.001-.001 1.5 1.5 0 013.001.001zM303.5 376a1.5 1.5 0 11-3.001-.001 1.5 1.5 0 013.001.001zM323.5 376a1.5 1.5 0 11-3.001-.001 1.5 1.5 0 013.001.001zM343.5 376a1.5 1.5 0 11-3.001-.001 1.5 1.5 0 013.001.001zM63.5 396a1.5 1.5 0 11-3 0 1.5 1.5 0 013 0zM83.5 396a1.5 1.5 0 11-3 0 1.5 1.5 0 013 0zM103.5 396a1.5 1.5 0 11-3.001-.001 1.5 1.5 0 013.001.001zM123.5 396a1.5 1.5 0 11-3.001-.001 1.5 1.5 0 013.001.001zM143.5 396a1.5 1.5 0 11-3.001-.001 1.5 1.5 0 013.001.001zM163.5 396a1.5 1.5 0 11-3.001-.001 1.5 1.5 0 013.001.001zM183.5 396a1.5 1.5 0 11-3.001-.001 1.5 1.5 0 013.001.001zM203.5 396a1.5 1.5 0 11-3.001-.001 1.5 1.5 0 013.001.001zM223.5 396a1.5 1.5 0 11-3.001-.001 1.5 1.5 0 013.001.001zM243.5 396a1.5 1.5 0 11-3.001-.001 1.5 1.5 0 013.001.001zM263.5 396a1.5 1.5 0 11-3.001-.001 1.5 1.5 0 013.001.001zM283.5 396a1.5 1.5 0 11-3.001-.001 1.5 1.5 0 013.001.001zM303.5 396a1.5 1.5 0 11-3.001-.001 1.5 1.5 0 013.001.001zM323.5 396a1.5 1.5 0 11-3.001-.001 1.5 1.5 0 013.001.001zM343.5 396a1.5 1.5 0 11-3.001-.001 1.5 1.5 0 013.001.001zM63.5 416a1.5 1.5 0 11-3 0 1.5 1.5 0 013 0zM83.5 416a1.5 1.5 0 11-3 0 1.5 1.5 0 013 0zM103.5 416a1.5 1.5 0 11-3.001-.001 1.5 1.5 0 013.001.001zM123.5 416a1.5 1.5 0 11-3.001-.001 1.5 1.5 0 013.001.001zM143.5 416a1.5 1.5 0 11-3.001-.001 1.5 1.5 0 013.001.001zM163.5 416a1.5 1.5 0 11-3.001-.001 1.5 1.5 0 013.001.001zM183.5 416a1.5 1.5 0 11-3.001-.001 1.5 1.5 0 013.001.001zM203.5 416a1.5 1.5 0 11-3.001-.001 1.5 1.5 0 013.001.001zM223.5 416a1.5 1.5 0 11-3.001-.001 1.5 1.5 0 013.001.001zM243.5 416a1.5 1.5 0 11-3.001-.001 1.5 1.5 0 013.001.001zM263.5 416a1.5 1.5 0 11-3.001-.001 1.5 1.5 0 013.001.001zM283.5 416a1.5 1.5 0 11-3.001-.001 1.5 1.5 0 013.001.001zM303.5 416a1.5 1.5 0 11-3.001-.001 1.5 1.5 0 013.001.001zM323.5 416a1.5 1.5 0 11-3.001-.001 1.5 1.5 0 013.001.001zM343.5 416a1.5 1.5 0 11-3.001-.001 1.5 1.5 0 013.001.001zM63.5 436a1.5 1.5 0 11-3 0 1.5 1.5 0 013 0zM83.5 436a1.5 1.5 0 11-3 0 1.5 1.5 0 013 0zM103.5 436a1.5 1.5 0 11-3.001-.001 1.5 1.5 0 013.001.001zM123.5 436a1.5 1.5 0 11-3.001-.001 1.5 1.5 0 013.001.001zM143.5 436a1.5 1.5 0 11-3.001-.001 1.5 1.5 0 013.001.001zM163.5 436a1.5 1.5 0 11-3.001-.001 1.5 1.5 0 013.001.001zM183.5 436a1.5 1.5 0 11-3.001-.001 1.5 1.5 0 013.001.001zM203.5 436a1.5 1.5 0 11-3.001-.001 1.5 1.5 0 013.001.001zM223.5 436a1.5 1.5 0 11-3.001-.001 1.5 1.5 0 013.001.001zM243.5 436a1.5 1.5 0 11-3.001-.001 1.5 1.5 0 013.001.001zM263.5 436a1.5 1.5 0 11-3.001-.001 1.5 1.5 0 013.001.001zM283.5 436a1.5 1.5 0 11-3.001-.001 1.5 1.5 0 013.001.001zM303.5 436a1.5 1.5 0 11-3.001-.001 1.5 1.5 0 013.001.001zM323.5 436a1.5 1.5 0 11-3.001-.001 1.5 1.5 0 013.001.001zM343.5 436a1.5 1.5 0 11-3.001-.001 1.5 1.5 0 013.001.001zM363.5 216a1.5 1.5 0 11-3.001-.001 1.5 1.5 0 013.001.001zM383.5 216a1.5 1.5 0 11-3.001-.001 1.5 1.5 0 013.001.001zM403.5 216a1.5 1.5 0 11-3.001-.001 1.5 1.5 0 013.001.001zM423.5 216a1.5 1.5 0 11-3.001-.001 1.5 1.5 0 013.001.001zM443.5 216a1.5 1.5 0 11-3.001-.001 1.5 1.5 0 013.001.001zM463.5 216a1.5 1.5 0 11-3.001-.001 1.5 1.5 0 013.001.001zM483.5 216a1.5 1.5 0 11-3.001-.001 1.5 1.5 0 013.001.001zM503.5 216a1.5 1.5 0 11-3.001-.001 1.5 1.5 0 013.001.001zM523.5 216a1.5 1.5 0 11-3.001-.001 1.5 1.5 0 013.001.001zM543.5 216a1.5 1.5 0 11-3.001-.001 1.5 1.5 0 013.001.001zM563.5 216a1.5 1.5 0 11-3.001-.001 1.5 1.5 0 013.001.001zM583.5 216a1.5 1.5 0 11-3.001-.001 1.5 1.5 0 013.001.001zM603.5 216a1.5 1.5 0 11-3.001-.001 1.5 1.5 0 013.001.001zM623.5 216a1.5 1.5 0 11-3.001-.001 1.5 1.5 0 013.001.001zM643.5 216a1.5 1.5 0 11-3.001-.001 1.5 1.5 0 013.001.001zM363.5 236a1.5 1.5 0 11-3.001-.001 1.5 1.5 0 013.001.001zM383.5 236a1.5 1.5 0 11-3.001-.001 1.5 1.5 0 013.001.001zM403.5 236a1.5 1.5 0 11-3.001-.001 1.5 1.5 0 013.001.001zM423.5 236a1.5 1.5 0 11-3.001-.001 1.5 1.5 0 013.001.001zM443.5 236a1.5 1.5 0 11-3.001-.001 1.5 1.5 0 013.001.001zM463.5 236a1.5 1.5 0 11-3.001-.001 1.5 1.5 0 013.001.001zM483.5 236a1.5 1.5 0 11-3.001-.001 1.5 1.5 0 013.001.001zM503.5 236a1.5 1.5 0 11-3.001-.001 1.5 1.5 0 013.001.001zM523.5 236a1.5 1.5 0 11-3.001-.001 1.5 1.5 0 013.001.001zM543.5 236a1.5 1.5 0 11-3.001-.001 1.5 1.5 0 013.001.001zM563.5 236a1.5 1.5 0 11-3.001-.001 1.5 1.5 0 013.001.001zM583.5 236a1.5 1.5 0 11-3.001-.001 1.5 1.5 0 013.001.001zM603.5 236a1.5 1.5 0 11-3.001-.001 1.5 1.5 0 013.001.001zM623.5 236a1.5 1.5 0 11-3.001-.001 1.5 1.5 0 013.001.001zM643.5 236a1.5 1.5 0 11-3.001-.001 1.5 1.5 0 013.001.001zM363.5 256a1.5 1.5 0 11-3.001-.001 1.5 1.5 0 013.001.001zM383.5 256a1.5 1.5 0 11-3.001-.001 1.5 1.5 0 013.001.001zM403.5 256a1.5 1.5 0 11-3.001-.001 1.5 1.5 0 013.001.001zM423.5 256a1.5 1.5 0 11-3.001-.001 1.5 1.5 0 013.001.001zM443.5 256a1.5 1.5 0 11-3.001-.001 1.5 1.5 0 013.001.001zM463.5 256a1.5 1.5 0 11-3.001-.001 1.5 1.5 0 013.001.001zM483.5 256a1.5 1.5 0 11-3.001-.001 1.5 1.5 0 013.001.001zM503.5 256a1.5 1.5 0 11-3.001-.001 1.5 1.5 0 013.001.001zM523.5 256a1.5 1.5 0 11-3.001-.001 1.5 1.5 0 013.001.001zM543.5 256a1.5 1.5 0 11-3.001-.001 1.5 1.5 0 013.001.001zM563.5 256a1.5 1.5 0 11-3.001-.001 1.5 1.5 0 013.001.001zM583.5 256a1.5 1.5 0 11-3.001-.001 1.5 1.5 0 013.001.001zM603.5 256a1.5 1.5 0 11-3.001-.001 1.5 1.5 0 013.001.001zM623.5 256a1.5 1.5 0 11-3.001-.001 1.5 1.5 0 013.001.001zM643.5 256a1.5 1.5 0 11-3.001-.001 1.5 1.5 0 013.001.001zM363.5 276a1.5 1.5 0 11-3.001-.001 1.5 1.5 0 013.001.001zM383.5 276a1.5 1.5 0 11-3.001-.001 1.5 1.5 0 013.001.001zM403.5 276a1.5 1.5 0 11-3.001-.001 1.5 1.5 0 013.001.001zM423.5 276a1.5 1.5 0 11-3.001-.001 1.5 1.5 0 013.001.001zM443.5 276a1.5 1.5 0 11-3.001-.001 1.5 1.5 0 013.001.001zM463.5 276a1.5 1.5 0 11-3.001-.001 1.5 1.5 0 013.001.001zM483.5 276a1.5 1.5 0 11-3.001-.001 1.5 1.5 0 013.001.001zM503.5 276a1.5 1.5 0 11-3.001-.001 1.5 1.5 0 013.001.001zM523.5 276a1.5 1.5 0 11-3.001-.001 1.5 1.5 0 013.001.001zM543.5 276a1.5 1.5 0 11-3.001-.001 1.5 1.5 0 013.001.001zM563.5 276a1.5 1.5 0 11-3.001-.001 1.5 1.5 0 013.001.001zM583.5 276a1.5 1.5 0 11-3.001-.001 1.5 1.5 0 013.001.001zM603.5 276a1.5 1.5 0 11-3.001-.001 1.5 1.5 0 013.001.001zM623.5 276a1.5 1.5 0 11-3.001-.001 1.5 1.5 0 013.001.001zM643.5 276a1.5 1.5 0 11-3.001-.001 1.5 1.5 0 013.001.001zM363.5 296a1.5 1.5 0 11-3.001-.001 1.5 1.5 0 013.001.001zM383.5 296a1.5 1.5 0 11-3.001-.001 1.5 1.5 0 013.001.001zM403.5 296a1.5 1.5 0 11-3.001-.001 1.5 1.5 0 013.001.001zM423.5 296a1.5 1.5 0 11-3.001-.001 1.5 1.5 0 013.001.001zM443.5 296a1.5 1.5 0 11-3.001-.001 1.5 1.5 0 013.001.001zM463.5 296a1.5 1.5 0 11-3.001-.001 1.5 1.5 0 013.001.001zM483.5 296a1.5 1.5 0 11-3.001-.001 1.5 1.5 0 013.001.001zM503.5 296a1.5 1.5 0 11-3.001-.001 1.5 1.5 0 013.001.001zM523.5 296a1.5 1.5 0 11-3.001-.001 1.5 1.5 0 013.001.001zM543.5 296a1.5 1.5 0 11-3.001-.001 1.5 1.5 0 013.001.001zM563.5 296a1.5 1.5 0 11-3.001-.001 1.5 1.5 0 013.001.001zM583.5 296a1.5 1.5 0 11-3.001-.001 1.5 1.5 0 013.001.001zM603.5 296a1.5 1.5 0 11-3.001-.001 1.5 1.5 0 013.001.001zM623.5 296a1.5 1.5 0 11-3.001-.001 1.5 1.5 0 013.001.001zM643.5 296a1.5 1.5 0 11-3.001-.001 1.5 1.5 0 013.001.001zM363.5 316a1.5 1.5 0 11-3.001-.001 1.5 1.5 0 013.001.001zM383.5 316a1.5 1.5 0 11-3.001-.001 1.5 1.5 0 013.001.001zM403.5 316a1.5 1.5 0 11-3.001-.001 1.5 1.5 0 013.001.001zM423.5 316a1.5 1.5 0 11-3.001-.001 1.5 1.5 0 013.001.001zM443.5 316a1.5 1.5 0 11-3.001-.001 1.5 1.5 0 013.001.001zM463.5 316a1.5 1.5 0 11-3.001-.001 1.5 1.5 0 013.001.001zM483.5 316a1.5 1.5 0 11-3.001-.001 1.5 1.5 0 013.001.001zM503.5 316a1.5 1.5 0 11-3.001-.001 1.5 1.5 0 013.001.001zM523.5 316a1.5 1.5 0 11-3.001-.001 1.5 1.5 0 013.001.001zM543.5 316a1.5 1.5 0 11-3.001-.001 1.5 1.5 0 013.001.001zM563.5 316a1.5 1.5 0 11-3.001-.001 1.5 1.5 0 013.001.001zM583.5 316a1.5 1.5 0 11-3.001-.001 1.5 1.5 0 013.001.001zM603.5 316a1.5 1.5 0 11-3.001-.001 1.5 1.5 0 013.001.001zM623.5 316a1.5 1.5 0 11-3.001-.001 1.5 1.5 0 013.001.001zM643.5 316a1.5 1.5 0 11-3.001-.001 1.5 1.5 0 013.001.001zM363.5 336a1.5 1.5 0 11-3.001-.001 1.5 1.5 0 013.001.001zM383.5 336a1.5 1.5 0 11-3.001-.001 1.5 1.5 0 013.001.001zM403.5 336a1.5 1.5 0 11-3.001-.001 1.5 1.5 0 013.001.001zM423.5 336a1.5 1.5 0 11-3.001-.001 1.5 1.5 0 013.001.001zM443.5 336a1.5 1.5 0 11-3.001-.001 1.5 1.5 0 013.001.001zM463.5 336a1.5 1.5 0 11-3.001-.001 1.5 1.5 0 013.001.001zM483.5 336a1.5 1.5 0 11-3.001-.001 1.5 1.5 0 013.001.001zM503.5 336a1.5 1.5 0 11-3.001-.001 1.5 1.5 0 013.001.001zM523.5 336a1.5 1.5 0 11-3.001-.001 1.5 1.5 0 013.001.001zM543.5 336a1.5 1.5 0 11-3.001-.001 1.5 1.5 0 013.001.001zM563.5 336a1.5 1.5 0 11-3.001-.001 1.5 1.5 0 013.001.001zM583.5 336a1.5 1.5 0 11-3.001-.001 1.5 1.5 0 013.001.001zM603.5 336a1.5 1.5 0 11-3.001-.001 1.5 1.5 0 013.001.001zM623.5 336a1.5 1.5 0 11-3.001-.001 1.5 1.5 0 013.001.001zM643.5 336a1.5 1.5 0 11-3.001-.001 1.5 1.5 0 013.001.001zM363.5 356a1.5 1.5 0 11-3.001-.001 1.5 1.5 0 013.001.001zM383.5 356a1.5 1.5 0 11-3.001-.001 1.5 1.5 0 013.001.001zM403.5 356a1.5 1.5 0 11-3.001-.001 1.5 1.5 0 013.001.001zM423.5 356a1.5 1.5 0 11-3.001-.001 1.5 1.5 0 013.001.001zM443.5 356a1.5 1.5 0 11-3.001-.001 1.5 1.5 0 013.001.001zM463.5 356a1.5 1.5 0 11-3.001-.001 1.5 1.5 0 013.001.001zM483.5 356a1.5 1.5 0 11-3.001-.001 1.5 1.5 0 013.001.001zM503.5 356a1.5 1.5 0 11-3.001-.001 1.5 1.5 0 013.001.001zM523.5 356a1.5 1.5 0 11-3.001-.001 1.5 1.5 0 013.001.001zM543.5 356a1.5 1.5 0 11-3.001-.001 1.5 1.5 0 013.001.001zM563.5 356a1.5 1.5 0 11-3.001-.001 1.5 1.5 0 013.001.001zM583.5 356a1.5 1.5 0 11-3.001-.001 1.5 1.5 0 013.001.001zM603.5 356a1.5 1.5 0 11-3.001-.001 1.5 1.5 0 013.001.001zM623.5 356a1.5 1.5 0 11-3.001-.001 1.5 1.5 0 013.001.001zM643.5 356a1.5 1.5 0 11-3.001-.001 1.5 1.5 0 013.001.001zM363.5 376a1.5 1.5 0 11-3.001-.001 1.5 1.5 0 013.001.001zM383.5 376a1.5 1.5 0 11-3.001-.001 1.5 1.5 0 013.001.001zM403.5 376a1.5 1.5 0 11-3.001-.001 1.5 1.5 0 013.001.001zM423.5 376a1.5 1.5 0 11-3.001-.001 1.5 1.5 0 013.001.001zM443.5 376a1.5 1.5 0 11-3.001-.001 1.5 1.5 0 013.001.001zM463.5 376a1.5 1.5 0 11-3.001-.001 1.5 1.5 0 013.001.001zM483.5 376a1.5 1.5 0 11-3.001-.001 1.5 1.5 0 013.001.001zM503.5 376a1.5 1.5 0 11-3.001-.001 1.5 1.5 0 013.001.001zM523.5 376a1.5 1.5 0 11-3.001-.001 1.5 1.5 0 013.001.001zM543.5 376a1.5 1.5 0 11-3.001-.001 1.5 1.5 0 013.001.001zM563.5 376a1.5 1.5 0 11-3.001-.001 1.5 1.5 0 013.001.001zM583.5 376a1.5 1.5 0 11-3.001-.001 1.5 1.5 0 013.001.001zM603.5 376a1.5 1.5 0 11-3.001-.001 1.5 1.5 0 013.001.001zM623.5 376a1.5 1.5 0 11-3.001-.001 1.5 1.5 0 013.001.001zM643.5 376a1.5 1.5 0 11-3.001-.001 1.5 1.5 0 013.001.001zM363.5 396a1.5 1.5 0 11-3.001-.001 1.5 1.5 0 013.001.001zM383.5 396a1.5 1.5 0 11-3.001-.001 1.5 1.5 0 013.001.001zM403.5 396a1.5 1.5 0 11-3.001-.001 1.5 1.5 0 013.001.001zM423.5 396a1.5 1.5 0 11-3.001-.001 1.5 1.5 0 013.001.001zM443.5 396a1.5 1.5 0 11-3.001-.001 1.5 1.5 0 013.001.001zM463.5 396a1.5 1.5 0 11-3.001-.001 1.5 1.5 0 013.001.001zM483.5 396a1.5 1.5 0 11-3.001-.001 1.5 1.5 0 013.001.001zM503.5 396a1.5 1.5 0 11-3.001-.001 1.5 1.5 0 013.001.001zM523.5 396a1.5 1.5 0 11-3.001-.001 1.5 1.5 0 013.001.001zM543.5 396a1.5 1.5 0 11-3.001-.001 1.5 1.5 0 013.001.001zM563.5 396a1.5 1.5 0 11-3.001-.001 1.5 1.5 0 013.001.001zM583.5 396a1.5 1.5 0 11-3.001-.001 1.5 1.5 0 013.001.001zM603.5 396a1.5 1.5 0 11-3.001-.001 1.5 1.5 0 013.001.001zM623.5 396a1.5 1.5 0 11-3.001-.001 1.5 1.5 0 013.001.001zM643.5 396a1.5 1.5 0 11-3.001-.001 1.5 1.5 0 013.001.001zM363.5 416a1.5 1.5 0 11-3.001-.001 1.5 1.5 0 013.001.001zM383.5 416a1.5 1.5 0 11-3.001-.001 1.5 1.5 0 013.001.001zM403.5 416a1.5 1.5 0 11-3.001-.001 1.5 1.5 0 013.001.001zM423.5 416a1.5 1.5 0 11-3.001-.001 1.5 1.5 0 013.001.001zM443.5 416a1.5 1.5 0 11-3.001-.001 1.5 1.5 0 013.001.001zM463.5 416a1.5 1.5 0 11-3.001-.001 1.5 1.5 0 013.001.001zM483.5 416a1.5 1.5 0 11-3.001-.001 1.5 1.5 0 013.001.001zM503.5 416a1.5 1.5 0 11-3.001-.001 1.5 1.5 0 013.001.001zM523.5 416a1.5 1.5 0 11-3.001-.001 1.5 1.5 0 013.001.001zM543.5 416a1.5 1.5 0 11-3.001-.001 1.5 1.5 0 013.001.001zM563.5 416a1.5 1.5 0 11-3.001-.001 1.5 1.5 0 013.001.001zM583.5 416a1.5 1.5 0 11-3.001-.001 1.5 1.5 0 013.001.001zM603.5 416a1.5 1.5 0 11-3.001-.001 1.5 1.5 0 013.001.001zM623.5 416a1.5 1.5 0 11-3.001-.001 1.5 1.5 0 013.001.001zM643.5 416a1.5 1.5 0 11-3.001-.001 1.5 1.5 0 013.001.001zM363.5 436a1.5 1.5 0 11-3.001-.001 1.5 1.5 0 013.001.001zM383.5 436a1.5 1.5 0 11-3.001-.001 1.5 1.5 0 013.001.001zM403.5 436a1.5 1.5 0 11-3.001-.001 1.5 1.5 0 013.001.001zM423.5 436a1.5 1.5 0 11-3.001-.001 1.5 1.5 0 013.001.001zM443.5 436a1.5 1.5 0 11-3.001-.001 1.5 1.5 0 013.001.001zM463.5 436a1.5 1.5 0 11-3.001-.001 1.5 1.5 0 013.001.001zM483.5 436a1.5 1.5 0 11-3.001-.001 1.5 1.5 0 013.001.001zM503.5 436a1.5 1.5 0 11-3.001-.001 1.5 1.5 0 013.001.001zM523.5 436a1.5 1.5 0 11-3.001-.001 1.5 1.5 0 013.001.001zM543.5 436a1.5 1.5 0 11-3.001-.001 1.5 1.5 0 013.001.001zM563.5 436a1.5 1.5 0 11-3.001-.001 1.5 1.5 0 013.001.001zM583.5 436a1.5 1.5 0 11-3.001-.001 1.5 1.5 0 013.001.001zM603.5 436a1.5 1.5 0 11-3.001-.001 1.5 1.5 0 013.001.001zM623.5 436a1.5 1.5 0 11-3.001-.001 1.5 1.5 0 013.001.001zM643.5 436a1.5 1.5 0 11-3.001-.001 1.5 1.5 0 013.001.001zM663.5 216a1.5 1.5 0 11-3.001-.001 1.5 1.5 0 013.001.001zM683.5 216a1.5 1.5 0 11-3.001-.001 1.5 1.5 0 013.001.001zM703.5 216a1.5 1.5 0 11-3.001-.001 1.5 1.5 0 013.001.001zM723.5 216a1.5 1.5 0 11-3.001-.001 1.5 1.5 0 013.001.001zM743.5 216a1.5 1.5 0 11-3.001-.001 1.5 1.5 0 013.001.001zM763.5 216a1.5 1.5 0 11-3.001-.001 1.5 1.5 0 013.001.001zM783.5 216a1.5 1.5 0 11-3.001-.001 1.5 1.5 0 013.001.001zM803.5 216a1.5 1.5 0 11-3.001-.001 1.5 1.5 0 013.001.001zM823.5 216a1.5 1.5 0 11-3.001-.001 1.5 1.5 0 013.001.001zM663.5 236a1.5 1.5 0 11-3.001-.001 1.5 1.5 0 013.001.001zM683.5 236a1.5 1.5 0 11-3.001-.001 1.5 1.5 0 013.001.001zM703.5 236a1.5 1.5 0 11-3.001-.001 1.5 1.5 0 013.001.001zM723.5 236a1.5 1.5 0 11-3.001-.001 1.5 1.5 0 013.001.001zM743.5 236a1.5 1.5 0 11-3.001-.001 1.5 1.5 0 013.001.001zM763.5 236a1.5 1.5 0 11-3.001-.001 1.5 1.5 0 013.001.001zM783.5 236a1.5 1.5 0 11-3.001-.001 1.5 1.5 0 013.001.001zM803.5 236a1.5 1.5 0 11-3.001-.001 1.5 1.5 0 013.001.001zM823.5 236a1.5 1.5 0 11-3.001-.001 1.5 1.5 0 013.001.001zM663.5 256a1.5 1.5 0 11-3.001-.001 1.5 1.5 0 013.001.001zM683.5 256a1.5 1.5 0 11-3.001-.001 1.5 1.5 0 013.001.001zM703.5 256a1.5 1.5 0 11-3.001-.001 1.5 1.5 0 013.001.001zM723.5 256a1.5 1.5 0 11-3.001-.001 1.5 1.5 0 013.001.001zM743.5 256a1.5 1.5 0 11-3.001-.001 1.5 1.5 0 013.001.001zM763.5 256a1.5 1.5 0 11-3.001-.001 1.5 1.5 0 013.001.001zM783.5 256a1.5 1.5 0 11-3.001-.001 1.5 1.5 0 013.001.001zM803.5 256a1.5 1.5 0 11-3.001-.001 1.5 1.5 0 013.001.001zM823.5 256a1.5 1.5 0 11-3.001-.001 1.5 1.5 0 013.001.001zM663.5 276a1.5 1.5 0 11-3.001-.001 1.5 1.5 0 013.001.001zM683.5 276a1.5 1.5 0 11-3.001-.001 1.5 1.5 0 013.001.001zM703.5 276a1.5 1.5 0 11-3.001-.001 1.5 1.5 0 013.001.001zM723.5 276a1.5 1.5 0 11-3.001-.001 1.5 1.5 0 013.001.001zM743.5 276a1.5 1.5 0 11-3.001-.001 1.5 1.5 0 013.001.001zM763.5 276a1.5 1.5 0 11-3.001-.001 1.5 1.5 0 013.001.001zM783.5 276a1.5 1.5 0 11-3.001-.001 1.5 1.5 0 013.001.001zM803.5 276a1.5 1.5 0 11-3.001-.001 1.5 1.5 0 013.001.001zM823.5 276a1.5 1.5 0 11-3.001-.001 1.5 1.5 0 013.001.001zM663.5 296a1.5 1.5 0 11-3.001-.001 1.5 1.5 0 013.001.001zM683.5 296a1.5 1.5 0 11-3.001-.001 1.5 1.5 0 013.001.001zM703.5 296a1.5 1.5 0 11-3.001-.001 1.5 1.5 0 013.001.001zM723.5 296a1.5 1.5 0 11-3.001-.001 1.5 1.5 0 013.001.001zM743.5 296a1.5 1.5 0 11-3.001-.001 1.5 1.5 0 013.001.001zM763.5 296a1.5 1.5 0 11-3.001-.001 1.5 1.5 0 013.001.001zM783.5 296a1.5 1.5 0 11-3.001-.001 1.5 1.5 0 013.001.001zM803.5 296a1.5 1.5 0 11-3.001-.001 1.5 1.5 0 013.001.001zM823.5 296a1.5 1.5 0 11-3.001-.001 1.5 1.5 0 013.001.001zM663.5 316a1.5 1.5 0 11-3.001-.001 1.5 1.5 0 013.001.001zM683.5 316a1.5 1.5 0 11-3.001-.001 1.5 1.5 0 013.001.001zM703.5 316a1.5 1.5 0 11-3.001-.001 1.5 1.5 0 013.001.001zM723.5 316a1.5 1.5 0 11-3.001-.001 1.5 1.5 0 013.001.001zM743.5 316a1.5 1.5 0 11-3.001-.001 1.5 1.5 0 013.001.001zM763.5 316a1.5 1.5 0 11-3.001-.001 1.5 1.5 0 013.001.001zM783.5 316a1.5 1.5 0 11-3.001-.001 1.5 1.5 0 013.001.001zM803.5 316a1.5 1.5 0 11-3.001-.001 1.5 1.5 0 013.001.001zM823.5 316a1.5 1.5 0 11-3.001-.001 1.5 1.5 0 013.001.001zM663.5 336a1.5 1.5 0 11-3.001-.001 1.5 1.5 0 013.001.001zM683.5 336a1.5 1.5 0 11-3.001-.001 1.5 1.5 0 013.001.001zM703.5 336a1.5 1.5 0 11-3.001-.001 1.5 1.5 0 013.001.001zM723.5 336a1.5 1.5 0 11-3.001-.001 1.5 1.5 0 013.001.001zM743.5 336a1.5 1.5 0 11-3.001-.001 1.5 1.5 0 013.001.001zM763.5 336a1.5 1.5 0 11-3.001-.001 1.5 1.5 0 013.001.001zM783.5 336a1.5 1.5 0 11-3.001-.001 1.5 1.5 0 013.001.001zM803.5 336a1.5 1.5 0 11-3.001-.001 1.5 1.5 0 013.001.001zM823.5 336a1.5 1.5 0 11-3.001-.001 1.5 1.5 0 013.001.001zM663.5 356a1.5 1.5 0 11-3.001-.001 1.5 1.5 0 013.001.001zM683.5 356a1.5 1.5 0 11-3.001-.001 1.5 1.5 0 013.001.001zM703.5 356a1.5 1.5 0 11-3.001-.001 1.5 1.5 0 013.001.001zM723.5 356a1.5 1.5 0 11-3.001-.001 1.5 1.5 0 013.001.001zM743.5 356a1.5 1.5 0 11-3.001-.001 1.5 1.5 0 013.001.001zM763.5 356a1.5 1.5 0 11-3.001-.001 1.5 1.5 0 013.001.001zM783.5 356a1.5 1.5 0 11-3.001-.001 1.5 1.5 0 013.001.001zM803.5 356a1.5 1.5 0 11-3.001-.001 1.5 1.5 0 013.001.001zM823.5 356a1.5 1.5 0 11-3.001-.001 1.5 1.5 0 013.001.001zM663.5 376a1.5 1.5 0 11-3.001-.001 1.5 1.5 0 013.001.001zM683.5 376a1.5 1.5 0 11-3.001-.001 1.5 1.5 0 013.001.001zM703.5 376a1.5 1.5 0 11-3.001-.001 1.5 1.5 0 013.001.001zM723.5 376a1.5 1.5 0 11-3.001-.001 1.5 1.5 0 013.001.001zM743.5 376a1.5 1.5 0 11-3.001-.001 1.5 1.5 0 013.001.001zM763.5 376a1.5 1.5 0 11-3.001-.001 1.5 1.5 0 013.001.001zM783.5 376a1.5 1.5 0 11-3.001-.001 1.5 1.5 0 013.001.001zM803.5 376a1.5 1.5 0 11-3.001-.001 1.5 1.5 0 013.001.001zM823.5 376a1.5 1.5 0 11-3.001-.001 1.5 1.5 0 013.001.001zM663.5 396a1.5 1.5 0 11-3.001-.001 1.5 1.5 0 013.001.001zM683.5 396a1.5 1.5 0 11-3.001-.001 1.5 1.5 0 013.001.001zM703.5 396a1.5 1.5 0 11-3.001-.001 1.5 1.5 0 013.001.001zM723.5 396a1.5 1.5 0 11-3.001-.001 1.5 1.5 0 013.001.001zM743.5 396a1.5 1.5 0 11-3.001-.001 1.5 1.5 0 013.001.001zM763.5 396a1.5 1.5 0 11-3.001-.001 1.5 1.5 0 013.001.001zM783.5 396a1.5 1.5 0 11-3.001-.001 1.5 1.5 0 013.001.001zM803.5 396a1.5 1.5 0 11-3.001-.001 1.5 1.5 0 013.001.001zM823.5 396a1.5 1.5 0 11-3.001-.001 1.5 1.5 0 013.001.001zM663.5 416a1.5 1.5 0 11-3.001-.001 1.5 1.5 0 013.001.001zM683.5 416a1.5 1.5 0 11-3.001-.001 1.5 1.5 0 013.001.001zM703.5 416a1.5 1.5 0 11-3.001-.001 1.5 1.5 0 013.001.001zM723.5 416a1.5 1.5 0 11-3.001-.001 1.5 1.5 0 013.001.001zM743.5 416a1.5 1.5 0 11-3.001-.001 1.5 1.5 0 013.001.001zM763.5 416a1.5 1.5 0 11-3.001-.001 1.5 1.5 0 013.001.001zM783.5 416a1.5 1.5 0 11-3.001-.001 1.5 1.5 0 013.001.001zM803.5 416a1.5 1.5 0 11-3.001-.001 1.5 1.5 0 013.001.001zM823.5 416a1.5 1.5 0 11-3.001-.001 1.5 1.5 0 013.001.001zM663.5 436a1.5 1.5 0 11-3.001-.001 1.5 1.5 0 013.001.001zM683.5 436a1.5 1.5 0 11-3.001-.001 1.5 1.5 0 013.001.001zM703.5 436a1.5 1.5 0 11-3.001-.001 1.5 1.5 0 013.001.001zM723.5 436a1.5 1.5 0 11-3.001-.001 1.5 1.5 0 013.001.001zM743.5 436a1.5 1.5 0 11-3.001-.001 1.5 1.5 0 013.001.001zM763.5 436a1.5 1.5 0 11-3.001-.001 1.5 1.5 0 013.001.001zM783.5 436a1.5 1.5 0 11-3.001-.001 1.5 1.5 0 013.001.001zM803.5 436a1.5 1.5 0 11-3.001-.001 1.5 1.5 0 013.001.001zM823.5 436a1.5 1.5 0 11-3.001-.001 1.5 1.5 0 013.001.001zM23.5 456a1.5 1.5 0 11-3 0 1.5 1.5 0 013 0zM43.5 456a1.5 1.5 0 11-3 0 1.5 1.5 0 013 0zM23.5 476a1.5 1.5 0 11-3 0 1.5 1.5 0 013 0zM43.5 476a1.5 1.5 0 11-3 0 1.5 1.5 0 013 0zM23.5 496a1.5 1.5 0 11-3 0 1.5 1.5 0 013 0zM43.5 496a1.5 1.5 0 11-3 0 1.5 1.5 0 013 0zM23.5 516a1.5 1.5 0 11-3 0 1.5 1.5 0 013 0zM43.5 516a1.5 1.5 0 11-3 0 1.5 1.5 0 013 0zM23.5 536a1.5 1.5 0 11-3 0 1.5 1.5 0 013 0zM43.5 536a1.5 1.5 0 11-3 0 1.5 1.5 0 013 0zM43.5 556a1.5 1.5 0 11-3 0 1.5 1.5 0 013 0zM63.5 456a1.5 1.5 0 11-3 0 1.5 1.5 0 013 0zM83.5 456a1.5 1.5 0 11-3 0 1.5 1.5 0 013 0zM103.5 456a1.5 1.5 0 11-3.001-.001 1.5 1.5 0 013.001.001zM123.5 456a1.5 1.5 0 11-3.001-.001 1.5 1.5 0 013.001.001zM143.5 456a1.5 1.5 0 11-3.001-.001 1.5 1.5 0 013.001.001zM163.5 456a1.5 1.5 0 11-3.001-.001 1.5 1.5 0 013.001.001zM183.5 456a1.5 1.5 0 11-3.001-.001 1.5 1.5 0 013.001.001zM203.5 456a1.5 1.5 0 11-3.001-.001 1.5 1.5 0 013.001.001zM223.5 456a1.5 1.5 0 11-3.001-.001 1.5 1.5 0 013.001.001zM243.5 456a1.5 1.5 0 11-3.001-.001 1.5 1.5 0 013.001.001zM263.5 456a1.5 1.5 0 11-3.001-.001 1.5 1.5 0 013.001.001zM283.5 456a1.5 1.5 0 11-3.001-.001 1.5 1.5 0 013.001.001zM303.5 456a1.5 1.5 0 11-3.001-.001 1.5 1.5 0 013.001.001zM323.5 456a1.5 1.5 0 11-3.001-.001 1.5 1.5 0 013.001.001zM343.5 456a1.5 1.5 0 11-3.001-.001 1.5 1.5 0 013.001.001zM63.5 476a1.5 1.5 0 11-3 0 1.5 1.5 0 013 0zM83.5 476a1.5 1.5 0 11-3 0 1.5 1.5 0 013 0zM103.5 476a1.5 1.5 0 11-3.001-.001 1.5 1.5 0 013.001.001zM123.5 476a1.5 1.5 0 11-3.001-.001 1.5 1.5 0 013.001.001zM143.5 476a1.5 1.5 0 11-3.001-.001 1.5 1.5 0 013.001.001zM163.5 476a1.5 1.5 0 11-3.001-.001 1.5 1.5 0 013.001.001zM183.5 476a1.5 1.5 0 11-3.001-.001 1.5 1.5 0 013.001.001zM203.5 476a1.5 1.5 0 11-3.001-.001 1.5 1.5 0 013.001.001zM223.5 476a1.5 1.5 0 11-3.001-.001 1.5 1.5 0 013.001.001zM243.5 476a1.5 1.5 0 11-3.001-.001 1.5 1.5 0 013.001.001zM263.5 476a1.5 1.5 0 11-3.001-.001 1.5 1.5 0 013.001.001zM283.5 476a1.5 1.5 0 11-3.001-.001 1.5 1.5 0 013.001.001zM303.5 476a1.5 1.5 0 11-3.001-.001 1.5 1.5 0 013.001.001zM323.5 476a1.5 1.5 0 11-3.001-.001 1.5 1.5 0 013.001.001zM343.5 476a1.5 1.5 0 11-3.001-.001 1.5 1.5 0 013.001.001zM63.5 496a1.5 1.5 0 11-3 0 1.5 1.5 0 013 0zM83.5 496a1.5 1.5 0 11-3 0 1.5 1.5 0 013 0zM103.5 496a1.5 1.5 0 11-3.001-.001 1.5 1.5 0 013.001.001zM123.5 496a1.5 1.5 0 11-3.001-.001 1.5 1.5 0 013.001.001zM143.5 496a1.5 1.5 0 11-3.001-.001 1.5 1.5 0 013.001.001zM163.5 496a1.5 1.5 0 11-3.001-.001 1.5 1.5 0 013.001.001zM183.5 496a1.5 1.5 0 11-3.001-.001 1.5 1.5 0 013.001.001zM203.5 496a1.5 1.5 0 11-3.001-.001 1.5 1.5 0 013.001.001zM223.5 496a1.5 1.5 0 11-3.001-.001 1.5 1.5 0 013.001.001zM243.5 496a1.5 1.5 0 11-3.001-.001 1.5 1.5 0 013.001.001zM263.5 496a1.5 1.5 0 11-3.001-.001 1.5 1.5 0 013.001.001zM283.5 496a1.5 1.5 0 11-3.001-.001 1.5 1.5 0 013.001.001zM303.5 496a1.5 1.5 0 11-3.001-.001 1.5 1.5 0 013.001.001zM323.5 496a1.5 1.5 0 11-3.001-.001 1.5 1.5 0 013.001.001zM343.5 496a1.5 1.5 0 11-3.001-.001 1.5 1.5 0 013.001.001zM63.5 516a1.5 1.5 0 11-3 0 1.5 1.5 0 013 0zM83.5 516a1.5 1.5 0 11-3 0 1.5 1.5 0 013 0zM103.5 516a1.5 1.5 0 11-3.001-.001 1.5 1.5 0 013.001.001zM123.5 516a1.5 1.5 0 11-3.001-.001 1.5 1.5 0 013.001.001zM143.5 516a1.5 1.5 0 11-3.001-.001 1.5 1.5 0 013.001.001zM163.5 516a1.5 1.5 0 11-3.001-.001 1.5 1.5 0 013.001.001zM183.5 516a1.5 1.5 0 11-3.001-.001 1.5 1.5 0 013.001.001zM203.5 516a1.5 1.5 0 11-3.001-.001 1.5 1.5 0 013.001.001zM223.5 516a1.5 1.5 0 11-3.001-.001 1.5 1.5 0 013.001.001zM243.5 516a1.5 1.5 0 11-3.001-.001 1.5 1.5 0 013.001.001zM263.5 516a1.5 1.5 0 11-3.001-.001 1.5 1.5 0 013.001.001zM283.5 516a1.5 1.5 0 11-3.001-.001 1.5 1.5 0 013.001.001zM303.5 516a1.5 1.5 0 11-3.001-.001 1.5 1.5 0 013.001.001zM323.5 516a1.5 1.5 0 11-3.001-.001 1.5 1.5 0 013.001.001zM343.5 516a1.5 1.5 0 11-3.001-.001 1.5 1.5 0 013.001.001zM63.5 536a1.5 1.5 0 11-3 0 1.5 1.5 0 013 0zM83.5 536a1.5 1.5 0 11-3 0 1.5 1.5 0 013 0zM103.5 536a1.5 1.5 0 11-3.001-.001 1.5 1.5 0 013.001.001zM123.5 536a1.5 1.5 0 11-3.001-.001 1.5 1.5 0 013.001.001zM143.5 536a1.5 1.5 0 11-3.001-.001 1.5 1.5 0 013.001.001zM163.5 536a1.5 1.5 0 11-3.001-.001 1.5 1.5 0 013.001.001zM183.5 536a1.5 1.5 0 11-3.001-.001 1.5 1.5 0 013.001.001zM203.5 536a1.5 1.5 0 11-3.001-.001 1.5 1.5 0 013.001.001zM223.5 536a1.5 1.5 0 11-3.001-.001 1.5 1.5 0 013.001.001zM243.5 536a1.5 1.5 0 11-3.001-.001 1.5 1.5 0 013.001.001zM263.5 536a1.5 1.5 0 11-3.001-.001 1.5 1.5 0 013.001.001zM283.5 536a1.5 1.5 0 11-3.001-.001 1.5 1.5 0 013.001.001zM303.5 536a1.5 1.5 0 11-3.001-.001 1.5 1.5 0 013.001.001zM323.5 536a1.5 1.5 0 11-3.001-.001 1.5 1.5 0 013.001.001zM343.5 536a1.5 1.5 0 11-3.001-.001 1.5 1.5 0 013.001.001zM63.5 556a1.5 1.5 0 11-3 0 1.5 1.5 0 013 0zM83.5 556a1.5 1.5 0 11-3 0 1.5 1.5 0 013 0zM103.5 556a1.5 1.5 0 11-3.001-.001 1.5 1.5 0 013.001.001zM123.5 556a1.5 1.5 0 11-3.001-.001 1.5 1.5 0 013.001.001zM143.5 556a1.5 1.5 0 11-3.001-.001 1.5 1.5 0 013.001.001zM163.5 556a1.5 1.5 0 11-3.001-.001 1.5 1.5 0 013.001.001zM183.5 556a1.5 1.5 0 11-3.001-.001 1.5 1.5 0 013.001.001zM203.5 556a1.5 1.5 0 11-3.001-.001 1.5 1.5 0 013.001.001zM223.5 556a1.5 1.5 0 11-3.001-.001 1.5 1.5 0 013.001.001zM243.5 556a1.5 1.5 0 11-3.001-.001 1.5 1.5 0 013.001.001zM263.5 556a1.5 1.5 0 11-3.001-.001 1.5 1.5 0 013.001.001zM283.5 556a1.5 1.5 0 11-3.001-.001 1.5 1.5 0 013.001.001zM303.5 556a1.5 1.5 0 11-3.001-.001 1.5 1.5 0 013.001.001zM323.5 556a1.5 1.5 0 11-3.001-.001 1.5 1.5 0 013.001.001zM343.5 556a1.5 1.5 0 11-3.001-.001 1.5 1.5 0 013.001.001zM63.5 576a1.5 1.5 0 11-3 0 1.5 1.5 0 013 0zM83.5 576a1.5 1.5 0 11-3 0 1.5 1.5 0 013 0zM103.5 576a1.5 1.5 0 11-3.001-.001 1.5 1.5 0 013.001.001zM123.5 576a1.5 1.5 0 11-3.001-.001 1.5 1.5 0 013.001.001zM143.5 576a1.5 1.5 0 11-3.001-.001 1.5 1.5 0 013.001.001zM163.5 576a1.5 1.5 0 11-3.001-.001 1.5 1.5 0 013.001.001zM183.5 576a1.5 1.5 0 11-3.001-.001 1.5 1.5 0 013.001.001zM203.5 576a1.5 1.5 0 11-3.001-.001 1.5 1.5 0 013.001.001zM223.5 576a1.5 1.5 0 11-3.001-.001 1.5 1.5 0 013.001.001zM243.5 576a1.5 1.5 0 11-3.001-.001 1.5 1.5 0 013.001.001zM263.5 576a1.5 1.5 0 11-3.001-.001 1.5 1.5 0 013.001.001zM283.5 576a1.5 1.5 0 11-3.001-.001 1.5 1.5 0 013.001.001zM303.5 576a1.5 1.5 0 11-3.001-.001 1.5 1.5 0 013.001.001zM323.5 576a1.5 1.5 0 11-3.001-.001 1.5 1.5 0 013.001.001zM343.5 576a1.5 1.5 0 11-3.001-.001 1.5 1.5 0 013.001.001zM83.5 596a1.5 1.5 0 11-3 0 1.5 1.5 0 013 0zM103.5 596a1.5 1.5 0 11-3.001-.001 1.5 1.5 0 013.001.001zM123.5 596a1.5 1.5 0 11-3.001-.001 1.5 1.5 0 013.001.001zM143.5 596a1.5 1.5 0 11-3.001-.001 1.5 1.5 0 013.001.001zM163.5 596a1.5 1.5 0 11-3.001-.001 1.5 1.5 0 013.001.001zM183.5 596a1.5 1.5 0 11-3.001-.001 1.5 1.5 0 013.001.001zM203.5 596a1.5 1.5 0 11-3.001-.001 1.5 1.5 0 013.001.001zM223.5 596a1.5 1.5 0 11-3.001-.001 1.5 1.5 0 013.001.001zM243.5 596a1.5 1.5 0 11-3.001-.001 1.5 1.5 0 013.001.001zM263.5 596a1.5 1.5 0 11-3.001-.001 1.5 1.5 0 013.001.001zM283.5 596a1.5 1.5 0 11-3.001-.001 1.5 1.5 0 013.001.001zM303.5 596a1.5 1.5 0 11-3.001-.001 1.5 1.5 0 013.001.001zM323.5 596a1.5 1.5 0 11-3.001-.001 1.5 1.5 0 013.001.001zM343.5 596a1.5 1.5 0 11-3.001-.001 1.5 1.5 0 013.001.001zM83.5 616a1.5 1.5 0 11-3 0 1.5 1.5 0 013 0zM103.5 616a1.5 1.5 0 11-3.001-.001 1.5 1.5 0 013.001.001zM123.5 616a1.5 1.5 0 11-3.001-.001 1.5 1.5 0 013.001.001zM143.5 616a1.5 1.5 0 11-3.001-.001 1.5 1.5 0 013.001.001zM163.5 616a1.5 1.5 0 11-3.001-.001 1.5 1.5 0 013.001.001zM183.5 616a1.5 1.5 0 11-3.001-.001 1.5 1.5 0 013.001.001zM203.5 616a1.5 1.5 0 11-3.001-.001 1.5 1.5 0 013.001.001zM223.5 616a1.5 1.5 0 11-3.001-.001 1.5 1.5 0 013.001.001zM243.5 616a1.5 1.5 0 11-3.001-.001 1.5 1.5 0 013.001.001zM263.5 616a1.5 1.5 0 11-3.001-.001 1.5 1.5 0 013.001.001zM283.5 616a1.5 1.5 0 11-3.001-.001 1.5 1.5 0 013.001.001zM303.5 616a1.5 1.5 0 11-3.001-.001 1.5 1.5 0 013.001.001zM323.5 616a1.5 1.5 0 11-3.001-.001 1.5 1.5 0 013.001.001zM343.5 616a1.5 1.5 0 11-3.001-.001 1.5 1.5 0 013.001.001zM83.5 636a1.5 1.5 0 11-3 0 1.5 1.5 0 013 0zM103.5 636a1.5 1.5 0 11-3.001-.001 1.5 1.5 0 013.001.001zM123.5 636a1.5 1.5 0 11-3.001-.001 1.5 1.5 0 013.001.001zM143.5 636a1.5 1.5 0 11-3.001-.001 1.5 1.5 0 013.001.001zM163.5 636a1.5 1.5 0 11-3.001-.001 1.5 1.5 0 013.001.001zM183.5 636a1.5 1.5 0 11-3.001-.001 1.5 1.5 0 013.001.001zM203.5 636a1.5 1.5 0 11-3.001-.001 1.5 1.5 0 013.001.001zM223.5 636a1.5 1.5 0 11-3.001-.001 1.5 1.5 0 013.001.001zM243.5 636a1.5 1.5 0 11-3.001-.001 1.5 1.5 0 013.001.001zM263.5 636a1.5 1.5 0 11-3.001-.001 1.5 1.5 0 013.001.001zM283.5 636a1.5 1.5 0 11-3.001-.001 1.5 1.5 0 013.001.001zM303.5 636a1.5 1.5 0 11-3.001-.001 1.5 1.5 0 013.001.001zM323.5 636a1.5 1.5 0 11-3.001-.001 1.5 1.5 0 013.001.001zM343.5 636a1.5 1.5 0 11-3.001-.001 1.5 1.5 0 013.001.001zM103.5 656a1.5 1.5 0 11-3.001-.001 1.5 1.5 0 013.001.001zM123.5 656a1.5 1.5 0 11-3.001-.001 1.5 1.5 0 013.001.001zM143.5 656a1.5 1.5 0 11-3.001-.001 1.5 1.5 0 013.001.001zM163.5 656a1.5 1.5 0 11-3.001-.001 1.5 1.5 0 013.001.001zM183.5 656a1.5 1.5 0 11-3.001-.001 1.5 1.5 0 013.001.001zM203.5 656a1.5 1.5 0 11-3.001-.001 1.5 1.5 0 013.001.001zM223.5 656a1.5 1.5 0 11-3.001-.001 1.5 1.5 0 013.001.001zM243.5 656a1.5 1.5 0 11-3.001-.001 1.5 1.5 0 013.001.001zM263.5 656a1.5 1.5 0 11-3.001-.001 1.5 1.5 0 013.001.001zM283.5 656a1.5 1.5 0 11-3.001-.001 1.5 1.5 0 013.001.001zM303.5 656a1.5 1.5 0 11-3.001-.001 1.5 1.5 0 013.001.001zM323.5 656a1.5 1.5 0 11-3.001-.001 1.5 1.5 0 013.001.001zM343.5 656a1.5 1.5 0 11-3.001-.001 1.5 1.5 0 013.001.001zM123.5 676a1.5 1.5 0 11-3.001-.001 1.5 1.5 0 013.001.001zM143.5 676a1.5 1.5 0 11-3.001-.001 1.5 1.5 0 013.001.001zM163.5 676a1.5 1.5 0 11-3.001-.001 1.5 1.5 0 013.001.001zM183.5 676a1.5 1.5 0 11-3.001-.001 1.5 1.5 0 013.001.001zM203.5 676a1.5 1.5 0 11-3.001-.001 1.5 1.5 0 013.001.001zM223.5 676a1.5 1.5 0 11-3.001-.001 1.5 1.5 0 013.001.001zM243.5 676a1.5 1.5 0 11-3.001-.001 1.5 1.5 0 013.001.001zM263.5 676a1.5 1.5 0 11-3.001-.001 1.5 1.5 0 013.001.001zM283.5 676a1.5 1.5 0 11-3.001-.001 1.5 1.5 0 013.001.001zM303.5 676a1.5 1.5 0 11-3.001-.001 1.5 1.5 0 013.001.001zM323.5 676a1.5 1.5 0 11-3.001-.001 1.5 1.5 0 013.001.001zM343.5 676a1.5 1.5 0 11-3.001-.001 1.5 1.5 0 013.001.001zM363.5 456a1.5 1.5 0 11-3.001-.001 1.5 1.5 0 013.001.001zM383.5 456a1.5 1.5 0 11-3.001-.001 1.5 1.5 0 013.001.001zM403.5 456a1.5 1.5 0 11-3.001-.001 1.5 1.5 0 013.001.001zM423.5 456a1.5 1.5 0 11-3.001-.001 1.5 1.5 0 013.001.001zM443.5 456a1.5 1.5 0 11-3.001-.001 1.5 1.5 0 013.001.001zM463.5 456a1.5 1.5 0 11-3.001-.001 1.5 1.5 0 013.001.001zM483.5 456a1.5 1.5 0 11-3.001-.001 1.5 1.5 0 013.001.001zM503.5 456a1.5 1.5 0 11-3.001-.001 1.5 1.5 0 013.001.001zM523.5 456a1.5 1.5 0 11-3.001-.001 1.5 1.5 0 013.001.001zM543.5 456a1.5 1.5 0 11-3.001-.001 1.5 1.5 0 013.001.001zM563.5 456a1.5 1.5 0 11-3.001-.001 1.5 1.5 0 013.001.001zM583.5 456a1.5 1.5 0 11-3.001-.001 1.5 1.5 0 013.001.001zM603.5 456a1.5 1.5 0 11-3.001-.001 1.5 1.5 0 013.001.001zM623.5 456a1.5 1.5 0 11-3.001-.001 1.5 1.5 0 013.001.001zM643.5 456a1.5 1.5 0 11-3.001-.001 1.5 1.5 0 013.001.001zM363.5 476a1.5 1.5 0 11-3.001-.001 1.5 1.5 0 013.001.001zM383.5 476a1.5 1.5 0 11-3.001-.001 1.5 1.5 0 013.001.001zM403.5 476a1.5 1.5 0 11-3.001-.001 1.5 1.5 0 013.001.001zM423.5 476a1.5 1.5 0 11-3.001-.001 1.5 1.5 0 013.001.001zM443.5 476a1.5 1.5 0 11-3.001-.001 1.5 1.5 0 013.001.001zM463.5 476a1.5 1.5 0 11-3.001-.001 1.5 1.5 0 013.001.001zM483.5 476a1.5 1.5 0 11-3.001-.001 1.5 1.5 0 013.001.001zM503.5 476a1.5 1.5 0 11-3.001-.001 1.5 1.5 0 013.001.001zM523.5 476a1.5 1.5 0 11-3.001-.001 1.5 1.5 0 013.001.001zM543.5 476a1.5 1.5 0 11-3.001-.001 1.5 1.5 0 013.001.001zM563.5 476a1.5 1.5 0 11-3.001-.001 1.5 1.5 0 013.001.001zM583.5 476a1.5 1.5 0 11-3.001-.001 1.5 1.5 0 013.001.001zM603.5 476a1.5 1.5 0 11-3.001-.001 1.5 1.5 0 013.001.001zM623.5 476a1.5 1.5 0 11-3.001-.001 1.5 1.5 0 013.001.001zM643.5 476a1.5 1.5 0 11-3.001-.001 1.5 1.5 0 013.001.001zM363.5 496a1.5 1.5 0 11-3.001-.001 1.5 1.5 0 013.001.001zM383.5 496a1.5 1.5 0 11-3.001-.001 1.5 1.5 0 013.001.001zM403.5 496a1.5 1.5 0 11-3.001-.001 1.5 1.5 0 013.001.001zM423.5 496a1.5 1.5 0 11-3.001-.001 1.5 1.5 0 013.001.001zM443.5 496a1.5 1.5 0 11-3.001-.001 1.5 1.5 0 013.001.001zM463.5 496a1.5 1.5 0 11-3.001-.001 1.5 1.5 0 013.001.001zM483.5 496a1.5 1.5 0 11-3.001-.001 1.5 1.5 0 013.001.001zM503.5 496a1.5 1.5 0 11-3.001-.001 1.5 1.5 0 013.001.001zM523.5 496a1.5 1.5 0 11-3.001-.001 1.5 1.5 0 013.001.001zM543.5 496a1.5 1.5 0 11-3.001-.001 1.5 1.5 0 013.001.001zM563.5 496a1.5 1.5 0 11-3.001-.001 1.5 1.5 0 013.001.001zM583.5 496a1.5 1.5 0 11-3.001-.001 1.5 1.5 0 013.001.001zM603.5 496a1.5 1.5 0 11-3.001-.001 1.5 1.5 0 013.001.001zM623.5 496a1.5 1.5 0 11-3.001-.001 1.5 1.5 0 013.001.001zM643.5 496a1.5 1.5 0 11-3.001-.001 1.5 1.5 0 013.001.001zM363.5 516a1.5 1.5 0 11-3.001-.001 1.5 1.5 0 013.001.001zM383.5 516a1.5 1.5 0 11-3.001-.001 1.5 1.5 0 013.001.001zM403.5 516a1.5 1.5 0 11-3.001-.001 1.5 1.5 0 013.001.001zM423.5 516a1.5 1.5 0 11-3.001-.001 1.5 1.5 0 013.001.001zM443.5 516a1.5 1.5 0 11-3.001-.001 1.5 1.5 0 013.001.001zM463.5 516a1.5 1.5 0 11-3.001-.001 1.5 1.5 0 013.001.001zM483.5 516a1.5 1.5 0 11-3.001-.001 1.5 1.5 0 013.001.001zM503.5 516a1.5 1.5 0 11-3.001-.001 1.5 1.5 0 013.001.001zM523.5 516a1.5 1.5 0 11-3.001-.001 1.5 1.5 0 013.001.001zM543.5 516a1.5 1.5 0 11-3.001-.001 1.5 1.5 0 013.001.001zM563.5 516a1.5 1.5 0 11-3.001-.001 1.5 1.5 0 013.001.001zM583.5 516a1.5 1.5 0 11-3.001-.001 1.5 1.5 0 013.001.001zM603.5 516a1.5 1.5 0 11-3.001-.001 1.5 1.5 0 013.001.001zM623.5 516a1.5 1.5 0 11-3.001-.001 1.5 1.5 0 013.001.001zM643.5 516a1.5 1.5 0 11-3.001-.001 1.5 1.5 0 013.001.001zM363.5 536a1.5 1.5 0 11-3.001-.001 1.5 1.5 0 013.001.001zM383.5 536a1.5 1.5 0 11-3.001-.001 1.5 1.5 0 013.001.001zM403.5 536a1.5 1.5 0 11-3.001-.001 1.5 1.5 0 013.001.001zM423.5 536a1.5 1.5 0 11-3.001-.001 1.5 1.5 0 013.001.001zM443.5 536a1.5 1.5 0 11-3.001-.001 1.5 1.5 0 013.001.001zM463.5 536a1.5 1.5 0 11-3.001-.001 1.5 1.5 0 013.001.001zM483.5 536a1.5 1.5 0 11-3.001-.001 1.5 1.5 0 013.001.001zM503.5 536a1.5 1.5 0 11-3.001-.001 1.5 1.5 0 013.001.001zM523.5 536a1.5 1.5 0 11-3.001-.001 1.5 1.5 0 013.001.001zM543.5 536a1.5 1.5 0 11-3.001-.001 1.5 1.5 0 013.001.001zM563.5 536a1.5 1.5 0 11-3.001-.001 1.5 1.5 0 013.001.001zM583.5 536a1.5 1.5 0 11-3.001-.001 1.5 1.5 0 013.001.001zM603.5 536a1.5 1.5 0 11-3.001-.001 1.5 1.5 0 013.001.001zM623.5 536a1.5 1.5 0 11-3.001-.001 1.5 1.5 0 013.001.001zM643.5 536a1.5 1.5 0 11-3.001-.001 1.5 1.5 0 013.001.001zM363.5 556a1.5 1.5 0 11-3.001-.001 1.5 1.5 0 013.001.001zM383.5 556a1.5 1.5 0 11-3.001-.001 1.5 1.5 0 013.001.001zM403.5 556a1.5 1.5 0 11-3.001-.001 1.5 1.5 0 013.001.001zM423.5 556a1.5 1.5 0 11-3.001-.001 1.5 1.5 0 013.001.001zM443.5 556a1.5 1.5 0 11-3.001-.001 1.5 1.5 0 013.001.001zM463.5 556a1.5 1.5 0 11-3.001-.001 1.5 1.5 0 013.001.001zM483.5 556a1.5 1.5 0 11-3.001-.001 1.5 1.5 0 013.001.001zM503.5 556a1.5 1.5 0 11-3.001-.001 1.5 1.5 0 013.001.001zM523.5 556a1.5 1.5 0 11-3.001-.001 1.5 1.5 0 013.001.001zM543.5 556a1.5 1.5 0 11-3.001-.001 1.5 1.5 0 013.001.001zM563.5 556a1.5 1.5 0 11-3.001-.001 1.5 1.5 0 013.001.001zM583.5 556a1.5 1.5 0 11-3.001-.001 1.5 1.5 0 013.001.001zM603.5 556a1.5 1.5 0 11-3.001-.001 1.5 1.5 0 013.001.001zM623.5 556a1.5 1.5 0 11-3.001-.001 1.5 1.5 0 013.001.001zM643.5 556a1.5 1.5 0 11-3.001-.001 1.5 1.5 0 013.001.001zM363.5 576a1.5 1.5 0 11-3.001-.001 1.5 1.5 0 013.001.001zM383.5 576a1.5 1.5 0 11-3.001-.001 1.5 1.5 0 013.001.001zM403.5 576a1.5 1.5 0 11-3.001-.001 1.5 1.5 0 013.001.001zM423.5 576a1.5 1.5 0 11-3.001-.001 1.5 1.5 0 013.001.001zM443.5 576a1.5 1.5 0 11-3.001-.001 1.5 1.5 0 013.001.001zM463.5 576a1.5 1.5 0 11-3.001-.001 1.5 1.5 0 013.001.001zM483.5 576a1.5 1.5 0 11-3.001-.001 1.5 1.5 0 013.001.001zM503.5 576a1.5 1.5 0 11-3.001-.001 1.5 1.5 0 013.001.001zM523.5 576a1.5 1.5 0 11-3.001-.001 1.5 1.5 0 013.001.001zM543.5 576a1.5 1.5 0 11-3.001-.001 1.5 1.5 0 013.001.001zM563.5 576a1.5 1.5 0 11-3.001-.001 1.5 1.5 0 013.001.001zM583.5 576a1.5 1.5 0 11-3.001-.001 1.5 1.5 0 013.001.001zM603.5 576a1.5 1.5 0 11-3.001-.001 1.5 1.5 0 013.001.001zM623.5 576a1.5 1.5 0 11-3.001-.001 1.5 1.5 0 013.001.001zM643.5 576a1.5 1.5 0 11-3.001-.001 1.5 1.5 0 013.001.001zM363.5 596a1.5 1.5 0 11-3.001-.001 1.5 1.5 0 013.001.001zM383.5 596a1.5 1.5 0 11-3.001-.001 1.5 1.5 0 013.001.001zM403.5 596a1.5 1.5 0 11-3.001-.001 1.5 1.5 0 013.001.001zM423.5 596a1.5 1.5 0 11-3.001-.001 1.5 1.5 0 013.001.001zM443.5 596a1.5 1.5 0 11-3.001-.001 1.5 1.5 0 013.001.001zM463.5 596a1.5 1.5 0 11-3.001-.001 1.5 1.5 0 013.001.001zM483.5 596a1.5 1.5 0 11-3.001-.001 1.5 1.5 0 013.001.001zM503.5 596a1.5 1.5 0 11-3.001-.001 1.5 1.5 0 013.001.001zM523.5 596a1.5 1.5 0 11-3.001-.001 1.5 1.5 0 013.001.001zM543.5 596a1.5 1.5 0 11-3.001-.001 1.5 1.5 0 013.001.001zM563.5 596a1.5 1.5 0 11-3.001-.001 1.5 1.5 0 013.001.001zM583.5 596a1.5 1.5 0 11-3.001-.001 1.5 1.5 0 013.001.001zM603.5 596a1.5 1.5 0 11-3.001-.001 1.5 1.5 0 013.001.001zM623.5 596a1.5 1.5 0 11-3.001-.001 1.5 1.5 0 013.001.001zM643.5 596a1.5 1.5 0 11-3.001-.001 1.5 1.5 0 013.001.001zM363.5 616a1.5 1.5 0 11-3.001-.001 1.5 1.5 0 013.001.001zM383.5 616a1.5 1.5 0 11-3.001-.001 1.5 1.5 0 013.001.001zM403.5 616a1.5 1.5 0 11-3.001-.001 1.5 1.5 0 013.001.001zM423.5 616a1.5 1.5 0 11-3.001-.001 1.5 1.5 0 013.001.001zM443.5 616a1.5 1.5 0 11-3.001-.001 1.5 1.5 0 013.001.001zM463.5 616a1.5 1.5 0 11-3.001-.001 1.5 1.5 0 013.001.001zM483.5 616a1.5 1.5 0 11-3.001-.001 1.5 1.5 0 013.001.001zM503.5 616a1.5 1.5 0 11-3.001-.001 1.5 1.5 0 013.001.001zM523.5 616a1.5 1.5 0 11-3.001-.001 1.5 1.5 0 013.001.001zM543.5 616a1.5 1.5 0 11-3.001-.001 1.5 1.5 0 013.001.001zM563.5 616a1.5 1.5 0 11-3.001-.001 1.5 1.5 0 013.001.001zM583.5 616a1.5 1.5 0 11-3.001-.001 1.5 1.5 0 013.001.001zM603.5 616a1.5 1.5 0 11-3.001-.001 1.5 1.5 0 013.001.001zM623.5 616a1.5 1.5 0 11-3.001-.001 1.5 1.5 0 013.001.001zM643.5 616a1.5 1.5 0 11-3.001-.001 1.5 1.5 0 013.001.001zM363.5 636a1.5 1.5 0 11-3.001-.001 1.5 1.5 0 013.001.001zM383.5 636a1.5 1.5 0 11-3.001-.001 1.5 1.5 0 013.001.001zM403.5 636a1.5 1.5 0 11-3.001-.001 1.5 1.5 0 013.001.001zM423.5 636a1.5 1.5 0 11-3.001-.001 1.5 1.5 0 013.001.001zM443.5 636a1.5 1.5 0 11-3.001-.001 1.5 1.5 0 013.001.001zM463.5 636a1.5 1.5 0 11-3.001-.001 1.5 1.5 0 013.001.001zM483.5 636a1.5 1.5 0 11-3.001-.001 1.5 1.5 0 013.001.001zM503.5 636a1.5 1.5 0 11-3.001-.001 1.5 1.5 0 013.001.001zM523.5 636a1.5 1.5 0 11-3.001-.001 1.5 1.5 0 013.001.001zM543.5 636a1.5 1.5 0 11-3.001-.001 1.5 1.5 0 013.001.001zM563.5 636a1.5 1.5 0 11-3.001-.001 1.5 1.5 0 013.001.001zM583.5 636a1.5 1.5 0 11-3.001-.001 1.5 1.5 0 013.001.001zM603.5 636a1.5 1.5 0 11-3.001-.001 1.5 1.5 0 013.001.001zM623.5 636a1.5 1.5 0 11-3.001-.001 1.5 1.5 0 013.001.001zM643.5 636a1.5 1.5 0 11-3.001-.001 1.5 1.5 0 013.001.001zM363.5 656a1.5 1.5 0 11-3.001-.001 1.5 1.5 0 013.001.001zM383.5 656a1.5 1.5 0 11-3.001-.001 1.5 1.5 0 013.001.001zM403.5 656a1.5 1.5 0 11-3.001-.001 1.5 1.5 0 013.001.001zM423.5 656a1.5 1.5 0 11-3.001-.001 1.5 1.5 0 013.001.001zM443.5 656a1.5 1.5 0 11-3.001-.001 1.5 1.5 0 013.001.001zM463.5 656a1.5 1.5 0 11-3.001-.001 1.5 1.5 0 013.001.001zM483.5 656a1.5 1.5 0 11-3.001-.001 1.5 1.5 0 013.001.001zM503.5 656a1.5 1.5 0 11-3.001-.001 1.5 1.5 0 013.001.001zM523.5 656a1.5 1.5 0 11-3.001-.001 1.5 1.5 0 013.001.001zM543.5 656a1.5 1.5 0 11-3.001-.001 1.5 1.5 0 013.001.001zM563.5 656a1.5 1.5 0 11-3.001-.001 1.5 1.5 0 013.001.001zM583.5 656a1.5 1.5 0 11-3.001-.001 1.5 1.5 0 013.001.001zM603.5 656a1.5 1.5 0 11-3.001-.001 1.5 1.5 0 013.001.001zM623.5 656a1.5 1.5 0 11-3.001-.001 1.5 1.5 0 013.001.001zM643.5 656a1.5 1.5 0 11-3.001-.001 1.5 1.5 0 013.001.001zM363.5 676a1.5 1.5 0 11-3.001-.001 1.5 1.5 0 013.001.001zM383.5 676a1.5 1.5 0 11-3.001-.001 1.5 1.5 0 013.001.001zM403.5 676a1.5 1.5 0 11-3.001-.001 1.5 1.5 0 013.001.001zM423.5 676a1.5 1.5 0 11-3.001-.001 1.5 1.5 0 013.001.001zM443.5 676a1.5 1.5 0 11-3.001-.001 1.5 1.5 0 013.001.001zM463.5 676a1.5 1.5 0 11-3.001-.001 1.5 1.5 0 013.001.001zM483.5 676a1.5 1.5 0 11-3.001-.001 1.5 1.5 0 013.001.001zM503.5 676a1.5 1.5 0 11-3.001-.001 1.5 1.5 0 013.001.001zM523.5 676a1.5 1.5 0 11-3.001-.001 1.5 1.5 0 013.001.001zM543.5 676a1.5 1.5 0 11-3.001-.001 1.5 1.5 0 013.001.001zM563.5 676a1.5 1.5 0 11-3.001-.001 1.5 1.5 0 013.001.001zM583.5 676a1.5 1.5 0 11-3.001-.001 1.5 1.5 0 013.001.001zM603.5 676a1.5 1.5 0 11-3.001-.001 1.5 1.5 0 013.001.001zM623.5 676a1.5 1.5 0 11-3.001-.001 1.5 1.5 0 013.001.001zM643.5 676a1.5 1.5 0 11-3.001-.001 1.5 1.5 0 013.001.001zM663.5 456a1.5 1.5 0 11-3.001-.001 1.5 1.5 0 013.001.001zM683.5 456a1.5 1.5 0 11-3.001-.001 1.5 1.5 0 013.001.001zM703.5 456a1.5 1.5 0 11-3.001-.001 1.5 1.5 0 013.001.001zM723.5 456a1.5 1.5 0 11-3.001-.001 1.5 1.5 0 013.001.001zM743.5 456a1.5 1.5 0 11-3.001-.001 1.5 1.5 0 013.001.001zM763.5 456a1.5 1.5 0 11-3.001-.001 1.5 1.5 0 013.001.001zM783.5 456a1.5 1.5 0 11-3.001-.001 1.5 1.5 0 013.001.001zM803.5 456a1.5 1.5 0 11-3.001-.001 1.5 1.5 0 013.001.001zM823.5 456a1.5 1.5 0 11-3.001-.001 1.5 1.5 0 013.001.001zM663.5 476a1.5 1.5 0 11-3.001-.001 1.5 1.5 0 013.001.001zM683.5 476a1.5 1.5 0 11-3.001-.001 1.5 1.5 0 013.001.001zM703.5 476a1.5 1.5 0 11-3.001-.001 1.5 1.5 0 013.001.001zM723.5 476a1.5 1.5 0 11-3.001-.001 1.5 1.5 0 013.001.001zM743.5 476a1.5 1.5 0 11-3.001-.001 1.5 1.5 0 013.001.001zM763.5 476a1.5 1.5 0 11-3.001-.001 1.5 1.5 0 013.001.001zM783.5 476a1.5 1.5 0 11-3.001-.001 1.5 1.5 0 013.001.001zM803.5 476a1.5 1.5 0 11-3.001-.001 1.5 1.5 0 013.001.001zM823.5 476a1.5 1.5 0 11-3.001-.001 1.5 1.5 0 013.001.001zM663.5 496a1.5 1.5 0 11-3.001-.001 1.5 1.5 0 013.001.001zM683.5 496a1.5 1.5 0 11-3.001-.001 1.5 1.5 0 013.001.001zM703.5 496a1.5 1.5 0 11-3.001-.001 1.5 1.5 0 013.001.001zM723.5 496a1.5 1.5 0 11-3.001-.001 1.5 1.5 0 013.001.001zM743.5 496a1.5 1.5 0 11-3.001-.001 1.5 1.5 0 013.001.001zM763.5 496a1.5 1.5 0 11-3.001-.001 1.5 1.5 0 013.001.001zM783.5 496a1.5 1.5 0 11-3.001-.001 1.5 1.5 0 013.001.001zM803.5 496a1.5 1.5 0 11-3.001-.001 1.5 1.5 0 013.001.001zM823.5 496a1.5 1.5 0 11-3.001-.001 1.5 1.5 0 013.001.001zM663.5 516a1.5 1.5 0 11-3.001-.001 1.5 1.5 0 013.001.001zM683.5 516a1.5 1.5 0 11-3.001-.001 1.5 1.5 0 013.001.001zM703.5 516a1.5 1.5 0 11-3.001-.001 1.5 1.5 0 013.001.001zM723.5 516a1.5 1.5 0 11-3.001-.001 1.5 1.5 0 013.001.001zM743.5 516a1.5 1.5 0 11-3.001-.001 1.5 1.5 0 013.001.001zM763.5 516a1.5 1.5 0 11-3.001-.001 1.5 1.5 0 013.001.001zM783.5 516a1.5 1.5 0 11-3.001-.001 1.5 1.5 0 013.001.001zM803.5 516a1.5 1.5 0 11-3.001-.001 1.5 1.5 0 013.001.001zM823.5 516a1.5 1.5 0 11-3.001-.001 1.5 1.5 0 013.001.001zM663.5 536a1.5 1.5 0 11-3.001-.001 1.5 1.5 0 013.001.001zM683.5 536a1.5 1.5 0 11-3.001-.001 1.5 1.5 0 013.001.001zM703.5 536a1.5 1.5 0 11-3.001-.001 1.5 1.5 0 013.001.001zM723.5 536a1.5 1.5 0 11-3.001-.001 1.5 1.5 0 013.001.001zM743.5 536a1.5 1.5 0 11-3.001-.001 1.5 1.5 0 013.001.001zM763.5 536a1.5 1.5 0 11-3.001-.001 1.5 1.5 0 013.001.001zM783.5 536a1.5 1.5 0 11-3.001-.001 1.5 1.5 0 013.001.001zM803.5 536a1.5 1.5 0 11-3.001-.001 1.5 1.5 0 013.001.001zM823.5 536a1.5 1.5 0 11-3.001-.001 1.5 1.5 0 013.001.001zM663.5 556a1.5 1.5 0 11-3.001-.001 1.5 1.5 0 013.001.001zM683.5 556a1.5 1.5 0 11-3.001-.001 1.5 1.5 0 013.001.001zM703.5 556a1.5 1.5 0 11-3.001-.001 1.5 1.5 0 013.001.001zM723.5 556a1.5 1.5 0 11-3.001-.001 1.5 1.5 0 013.001.001zM743.5 556a1.5 1.5 0 11-3.001-.001 1.5 1.5 0 013.001.001zM763.5 556a1.5 1.5 0 11-3.001-.001 1.5 1.5 0 013.001.001zM783.5 556a1.5 1.5 0 11-3.001-.001 1.5 1.5 0 013.001.001zM803.5 556a1.5 1.5 0 11-3.001-.001 1.5 1.5 0 013.001.001zM823.5 556a1.5 1.5 0 11-3.001-.001 1.5 1.5 0 013.001.001zM663.5 576a1.5 1.5 0 11-3.001-.001 1.5 1.5 0 013.001.001zM683.5 576a1.5 1.5 0 11-3.001-.001 1.5 1.5 0 013.001.001zM703.5 576a1.5 1.5 0 11-3.001-.001 1.5 1.5 0 013.001.001zM723.5 576a1.5 1.5 0 11-3.001-.001 1.5 1.5 0 013.001.001zM743.5 576a1.5 1.5 0 11-3.001-.001 1.5 1.5 0 013.001.001zM763.5 576a1.5 1.5 0 11-3.001-.001 1.5 1.5 0 013.001.001zM783.5 576a1.5 1.5 0 11-3.001-.001 1.5 1.5 0 013.001.001zM803.5 576a1.5 1.5 0 11-3.001-.001 1.5 1.5 0 013.001.001zM823.5 576a1.5 1.5 0 11-3.001-.001 1.5 1.5 0 013.001.001zM663.5 596a1.5 1.5 0 11-3.001-.001 1.5 1.5 0 013.001.001zM683.5 596a1.5 1.5 0 11-3.001-.001 1.5 1.5 0 013.001.001zM703.5 596a1.5 1.5 0 11-3.001-.001 1.5 1.5 0 013.001.001zM723.5 596a1.5 1.5 0 11-3.001-.001 1.5 1.5 0 013.001.001zM743.5 596a1.5 1.5 0 11-3.001-.001 1.5 1.5 0 013.001.001zM763.5 596a1.5 1.5 0 11-3.001-.001 1.5 1.5 0 013.001.001zM783.5 596a1.5 1.5 0 11-3.001-.001 1.5 1.5 0 013.001.001zM803.5 596a1.5 1.5 0 11-3.001-.001 1.5 1.5 0 013.001.001zM663.5 616a1.5 1.5 0 11-3.001-.001 1.5 1.5 0 013.001.001zM683.5 616a1.5 1.5 0 11-3.001-.001 1.5 1.5 0 013.001.001zM703.5 616a1.5 1.5 0 11-3.001-.001 1.5 1.5 0 013.001.001zM723.5 616a1.5 1.5 0 11-3.001-.001 1.5 1.5 0 013.001.001zM743.5 616a1.5 1.5 0 11-3.001-.001 1.5 1.5 0 013.001.001zM763.5 616a1.5 1.5 0 11-3.001-.001 1.5 1.5 0 013.001.001zM663.5 636a1.5 1.5 0 11-3.001-.001 1.5 1.5 0 013.001.001zM683.5 636a1.5 1.5 0 11-3.001-.001 1.5 1.5 0 013.001.001zM703.5 636a1.5 1.5 0 11-3.001-.001 1.5 1.5 0 013.001.001zM723.5 636a1.5 1.5 0 11-3.001-.001 1.5 1.5 0 013.001.001zM663.5 656a1.5 1.5 0 11-3.001-.001 1.5 1.5 0 013.001.001zM683.5 656a1.5 1.5 0 11-3.001-.001 1.5 1.5 0 013.001.001zM143.5 696a1.5 1.5 0 11-3.001-.001 1.5 1.5 0 013.001.001zM163.5 696a1.5 1.5 0 11-3.001-.001 1.5 1.5 0 013.001.001zM183.5 696a1.5 1.5 0 11-3.001-.001 1.5 1.5 0 013.001.001zM203.5 696a1.5 1.5 0 11-3.001-.001 1.5 1.5 0 013.001.001zM223.5 696a1.5 1.5 0 11-3.001-.001 1.5 1.5 0 013.001.001zM243.5 696a1.5 1.5 0 11-3.001-.001 1.5 1.5 0 013.001.001zM263.5 696a1.5 1.5 0 11-3.001-.001 1.5 1.5 0 013.001.001zM283.5 696a1.5 1.5 0 11-3.001-.001 1.5 1.5 0 013.001.001zM303.5 696a1.5 1.5 0 11-3.001-.001 1.5 1.5 0 013.001.001zM323.5 696a1.5 1.5 0 11-3.001-.001 1.5 1.5 0 013.001.001zM343.5 696a1.5 1.5 0 11-3.001-.001 1.5 1.5 0 013.001.001zM363.5 696a1.5 1.5 0 11-3.001-.001 1.5 1.5 0 013.001.001zM383.5 696a1.5 1.5 0 11-3.001-.001 1.5 1.5 0 013.001.001zM403.5 696a1.5 1.5 0 11-3.001-.001 1.5 1.5 0 013.001.001zM423.5 696a1.5 1.5 0 11-3.001-.001 1.5 1.5 0 013.001.001zM443.5 696a1.5 1.5 0 11-3.001-.001 1.5 1.5 0 013.001.001zM463.5 696a1.5 1.5 0 11-3.001-.001 1.5 1.5 0 013.001.001zM483.5 696a1.5 1.5 0 11-3.001-.001 1.5 1.5 0 013.001.001zM503.5 696a1.5 1.5 0 11-3.001-.001 1.5 1.5 0 013.001.001zM523.5 696a1.5 1.5 0 11-3.001-.001 1.5 1.5 0 013.001.001zM543.5 696a1.5 1.5 0 11-3.001-.001 1.5 1.5 0 013.001.001zM563.5 696a1.5 1.5 0 11-3.001-.001 1.5 1.5 0 013.001.001zM583.5 696a1.5 1.5 0 11-3.001-.001 1.5 1.5 0 013.001.001zM43.5 136a1.5 1.5 0 11-3 0 1.5 1.5 0 013 0zM23.5 156a1.5 1.5 0 11-3 0 1.5 1.5 0 013 0zM43.5 156a1.5 1.5 0 11-3 0 1.5 1.5 0 013 0zM23.5 176a1.5 1.5 0 11-3 0 1.5 1.5 0 013 0zM43.5 176a1.5 1.5 0 11-3 0 1.5 1.5 0 013 0zM23.5 196a1.5 1.5 0 11-3 0 1.5 1.5 0 013 0zM43.5 196a1.5 1.5 0 11-3 0 1.5 1.5 0 013 0zM243.5 16a1.5 1.5 0 11-3 0 1.5 1.5 0 013 0zM263.5 16a1.5 1.5 0 11-3 0 1.5 1.5 0 013 0zM283.5 16a1.5 1.5 0 11-3 0 1.5 1.5 0 013 0zM303.5 16a1.5 1.5 0 11-3 0 1.5 1.5 0 013 0zM323.5 16a1.5 1.5 0 11-3 0 1.5 1.5 0 013 0zM343.5 16a1.5 1.5 0 11-3 0 1.5 1.5 0 013 0zM123.5 36a1.5 1.5 0 11-3 0 1.5 1.5 0 013 0zM143.5 36a1.5 1.5 0 11-3 0 1.5 1.5 0 013 0zM163.5 36a1.5 1.5 0 11-3 0 1.5 1.5 0 013 0zM183.5 36a1.5 1.5 0 11-3 0 1.5 1.5 0 013 0zM203.5 36a1.5 1.5 0 11-3 0 1.5 1.5 0 013 0zM223.5 36a1.5 1.5 0 11-3 0 1.5 1.5 0 013 0zM243.5 36a1.5 1.5 0 11-3 0 1.5 1.5 0 013 0zM263.5 36a1.5 1.5 0 11-3 0 1.5 1.5 0 013 0zM283.5 36a1.5 1.5 0 11-3 0 1.5 1.5 0 013 0zM303.5 36a1.5 1.5 0 11-3 0 1.5 1.5 0 013 0zM323.5 36a1.5 1.5 0 11-3 0 1.5 1.5 0 013 0zM343.5 36a1.5 1.5 0 11-3 0 1.5 1.5 0 013 0zM103.5 56a1.5 1.5 0 11-3 0 1.5 1.5 0 013 0zM123.5 56a1.5 1.5 0 11-3 0 1.5 1.5 0 013 0zM143.5 56a1.5 1.5 0 11-3 0 1.5 1.5 0 013 0zM163.5 56a1.5 1.5 0 11-3 0 1.5 1.5 0 013 0zM183.5 56a1.5 1.5 0 11-3 0 1.5 1.5 0 013 0zM203.5 56a1.5 1.5 0 11-3 0 1.5 1.5 0 013 0zM223.5 56a1.5 1.5 0 11-3 0 1.5 1.5 0 013 0zM243.5 56a1.5 1.5 0 11-3 0 1.5 1.5 0 013 0zM263.5 56a1.5 1.5 0 11-3 0 1.5 1.5 0 013 0zM283.5 56a1.5 1.5 0 11-3 0 1.5 1.5 0 013 0zM303.5 56a1.5 1.5 0 11-3 0 1.5 1.5 0 013 0zM323.5 56a1.5 1.5 0 11-3 0 1.5 1.5 0 013 0zM343.5 56a1.5 1.5 0 11-3 0 1.5 1.5 0 013 0zM83.5 76a1.5 1.5 0 11-3 0 1.5 1.5 0 013 0zM103.5 76a1.5 1.5 0 11-3 0 1.5 1.5 0 013 0zM123.5 76a1.5 1.5 0 11-3 0 1.5 1.5 0 013 0zM143.5 76a1.5 1.5 0 11-3 0 1.5 1.5 0 013 0zM163.5 76a1.5 1.5 0 11-3 0 1.5 1.5 0 013 0zM183.5 76a1.5 1.5 0 11-3 0 1.5 1.5 0 013 0zM203.5 76a1.5 1.5 0 11-3 0 1.5 1.5 0 013 0zM223.5 76a1.5 1.5 0 11-3 0 1.5 1.5 0 013 0zM243.5 76a1.5 1.5 0 11-3 0 1.5 1.5 0 013 0zM263.5 76a1.5 1.5 0 11-3 0 1.5 1.5 0 013 0zM283.5 76a1.5 1.5 0 11-3 0 1.5 1.5 0 013 0zM303.5 76a1.5 1.5 0 11-3 0 1.5 1.5 0 013 0zM323.5 76a1.5 1.5 0 11-3 0 1.5 1.5 0 013 0zM343.5 76a1.5 1.5 0 11-3 0 1.5 1.5 0 013 0zM83.5 96a1.5 1.5 0 11-3 0 1.5 1.5 0 013 0zM103.5 96a1.5 1.5 0 11-3 0 1.5 1.5 0 013 0zM123.5 96a1.5 1.5 0 11-3 0 1.5 1.5 0 013 0zM143.5 96a1.5 1.5 0 11-3 0 1.5 1.5 0 013 0zM163.5 96a1.5 1.5 0 11-3 0 1.5 1.5 0 013 0zM183.5 96a1.5 1.5 0 11-3 0 1.5 1.5 0 013 0zM203.5 96a1.5 1.5 0 11-3 0 1.5 1.5 0 013 0zM223.5 96a1.5 1.5 0 11-3 0 1.5 1.5 0 013 0zM243.5 96a1.5 1.5 0 11-3 0 1.5 1.5 0 013 0zM263.5 96a1.5 1.5 0 11-3 0 1.5 1.5 0 013 0zM283.5 96a1.5 1.5 0 11-3 0 1.5 1.5 0 013 0zM303.5 96a1.5 1.5 0 11-3 0 1.5 1.5 0 013 0zM323.5 96a1.5 1.5 0 11-3 0 1.5 1.5 0 013 0zM343.5 96a1.5 1.5 0 11-3 0 1.5 1.5 0 013 0zM63.5 116a1.5 1.5 0 11-3 0 1.5 1.5 0 013 0zM83.5 116a1.5 1.5 0 11-3 0 1.5 1.5 0 013 0zM103.5 116a1.5 1.5 0 11-3.001-.001 1.5 1.5 0 013.001.001zM123.5 116a1.5 1.5 0 11-3.001-.001 1.5 1.5 0 013.001.001zM143.5 116a1.5 1.5 0 11-3.001-.001 1.5 1.5 0 013.001.001zM163.5 116a1.5 1.5 0 11-3.001-.001 1.5 1.5 0 013.001.001zM183.5 116a1.5 1.5 0 11-3.001-.001 1.5 1.5 0 013.001.001zM203.5 116a1.5 1.5 0 11-3.001-.001 1.5 1.5 0 013.001.001zM223.5 116a1.5 1.5 0 11-3.001-.001 1.5 1.5 0 013.001.001zM243.5 116a1.5 1.5 0 11-3.001-.001 1.5 1.5 0 013.001.001zM263.5 116a1.5 1.5 0 11-3.001-.001 1.5 1.5 0 013.001.001zM283.5 116a1.5 1.5 0 11-3.001-.001 1.5 1.5 0 013.001.001zM303.5 116a1.5 1.5 0 11-3.001-.001 1.5 1.5 0 013.001.001zM323.5 116a1.5 1.5 0 11-3.001-.001 1.5 1.5 0 013.001.001zM343.5 116a1.5 1.5 0 11-3.001-.001 1.5 1.5 0 013.001.001zM63.5 136a1.5 1.5 0 11-3 0 1.5 1.5 0 013 0zM83.5 136a1.5 1.5 0 11-3 0 1.5 1.5 0 013 0zM103.5 136a1.5 1.5 0 11-3.001-.001 1.5 1.5 0 013.001.001zM123.5 136a1.5 1.5 0 11-3.001-.001 1.5 1.5 0 013.001.001zM143.5 136a1.5 1.5 0 11-3.001-.001 1.5 1.5 0 013.001.001zM163.5 136a1.5 1.5 0 11-3.001-.001 1.5 1.5 0 013.001.001zM183.5 136a1.5 1.5 0 11-3.001-.001 1.5 1.5 0 013.001.001zM203.5 136a1.5 1.5 0 11-3.001-.001 1.5 1.5 0 013.001.001zM223.5 136a1.5 1.5 0 11-3.001-.001 1.5 1.5 0 013.001.001zM243.5 136a1.5 1.5 0 11-3.001-.001 1.5 1.5 0 013.001.001zM263.5 136a1.5 1.5 0 11-3.001-.001 1.5 1.5 0 013.001.001zM283.5 136a1.5 1.5 0 11-3.001-.001 1.5 1.5 0 013.001.001zM303.5 136a1.5 1.5 0 11-3.001-.001 1.5 1.5 0 013.001.001zM323.5 136a1.5 1.5 0 11-3.001-.001 1.5 1.5 0 013.001.001zM343.5 136a1.5 1.5 0 11-3.001-.001 1.5 1.5 0 013.001.001zM63.5 156a1.5 1.5 0 11-3 0 1.5 1.5 0 013 0zM83.5 156a1.5 1.5 0 11-3 0 1.5 1.5 0 013 0zM103.5 156a1.5 1.5 0 11-3.001-.001 1.5 1.5 0 013.001.001zM123.5 156a1.5 1.5 0 11-3.001-.001 1.5 1.5 0 013.001.001zM143.5 156a1.5 1.5 0 11-3.001-.001 1.5 1.5 0 013.001.001zM163.5 156a1.5 1.5 0 11-3.001-.001 1.5 1.5 0 013.001.001zM183.5 156a1.5 1.5 0 11-3.001-.001 1.5 1.5 0 013.001.001zM203.5 156a1.5 1.5 0 11-3.001-.001 1.5 1.5 0 013.001.001zM223.5 156a1.5 1.5 0 11-3.001-.001 1.5 1.5 0 013.001.001zM243.5 156a1.5 1.5 0 11-3.001-.001 1.5 1.5 0 013.001.001zM263.5 156a1.5 1.5 0 11-3.001-.001 1.5 1.5 0 013.001.001zM283.5 156a1.5 1.5 0 11-3.001-.001 1.5 1.5 0 013.001.001zM303.5 156a1.5 1.5 0 11-3.001-.001 1.5 1.5 0 013.001.001zM323.5 156a1.5 1.5 0 11-3.001-.001 1.5 1.5 0 013.001.001zM343.5 156a1.5 1.5 0 11-3.001-.001 1.5 1.5 0 013.001.001zM63.5 176a1.5 1.5 0 11-3 0 1.5 1.5 0 013 0zM83.5 176a1.5 1.5 0 11-3 0 1.5 1.5 0 013 0zM103.5 176a1.5 1.5 0 11-3.001-.001 1.5 1.5 0 013.001.001zM123.5 176a1.5 1.5 0 11-3.001-.001 1.5 1.5 0 013.001.001zM143.5 176a1.5 1.5 0 11-3.001-.001 1.5 1.5 0 013.001.001zM163.5 176a1.5 1.5 0 11-3.001-.001 1.5 1.5 0 013.001.001zM183.5 176a1.5 1.5 0 11-3.001-.001 1.5 1.5 0 013.001.001zM203.5 176a1.5 1.5 0 11-3.001-.001 1.5 1.5 0 013.001.001zM223.5 176a1.5 1.5 0 11-3.001-.001 1.5 1.5 0 013.001.001zM243.5 176a1.5 1.5 0 11-3.001-.001 1.5 1.5 0 013.001.001zM263.5 176a1.5 1.5 0 11-3.001-.001 1.5 1.5 0 013.001.001zM283.5 176a1.5 1.5 0 11-3.001-.001 1.5 1.5 0 013.001.001zM303.5 176a1.5 1.5 0 11-3.001-.001 1.5 1.5 0 013.001.001zM323.5 176a1.5 1.5 0 11-3.001-.001 1.5 1.5 0 013.001.001zM343.5 176a1.5 1.5 0 11-3.001-.001 1.5 1.5 0 013.001.001zM63.5 196a1.5 1.5 0 11-3 0 1.5 1.5 0 013 0zM83.5 196a1.5 1.5 0 11-3 0 1.5 1.5 0 013 0zM103.5 196a1.5 1.5 0 11-3.001-.001 1.5 1.5 0 013.001.001zM123.5 196a1.5 1.5 0 11-3.001-.001 1.5 1.5 0 013.001.001zM143.5 196a1.5 1.5 0 11-3.001-.001 1.5 1.5 0 013.001.001zM163.5 196a1.5 1.5 0 11-3.001-.001 1.5 1.5 0 013.001.001zM183.5 196a1.5 1.5 0 11-3.001-.001 1.5 1.5 0 013.001.001zM203.5 196a1.5 1.5 0 11-3.001-.001 1.5 1.5 0 013.001.001zM223.5 196a1.5 1.5 0 11-3.001-.001 1.5 1.5 0 013.001.001zM243.5 196a1.5 1.5 0 11-3.001-.001 1.5 1.5 0 013.001.001zM263.5 196a1.5 1.5 0 11-3.001-.001 1.5 1.5 0 013.001.001zM283.5 196a1.5 1.5 0 11-3.001-.001 1.5 1.5 0 013.001.001zM303.5 196a1.5 1.5 0 11-3.001-.001 1.5 1.5 0 013.001.001zM323.5 196a1.5 1.5 0 11-3.001-.001 1.5 1.5 0 013.001.001zM343.5 196a1.5 1.5 0 11-3.001-.001 1.5 1.5 0 013.001.001zM363.5 16a1.5 1.5 0 11-3 0 1.5 1.5 0 013 0zM383.5 16a1.5 1.5 0 11-3 0 1.5 1.5 0 013 0zM403.5 16a1.5 1.5 0 11-3 0 1.5 1.5 0 013 0zM423.5 16a1.5 1.5 0 11-3 0 1.5 1.5 0 013 0zM443.5 16a1.5 1.5 0 11-3 0 1.5 1.5 0 013 0zM463.5 16a1.5 1.5 0 11-3 0 1.5 1.5 0 013 0zM483.5 16a1.5 1.5 0 11-3 0 1.5 1.5 0 013 0zM503.5 16a1.5 1.5 0 11-3 0 1.5 1.5 0 013 0zM523.5 16a1.5 1.5 0 11-3 0 1.5 1.5 0 013 0zM543.5 16a1.5 1.5 0 11-3 0 1.5 1.5 0 013 0zM563.5 16a1.5 1.5 0 11-3 0 1.5 1.5 0 013 0zM583.5 16a1.5 1.5 0 11-3 0 1.5 1.5 0 013 0zM603.5 16a1.5 1.5 0 11-3 0 1.5 1.5 0 013 0zM623.5 16a1.5 1.5 0 11-3 0 1.5 1.5 0 013 0zM643.5 16a1.5 1.5 0 11-3 0 1.5 1.5 0 013 0zM363.5 36a1.5 1.5 0 11-3 0 1.5 1.5 0 013 0zM383.5 36a1.5 1.5 0 11-3 0 1.5 1.5 0 013 0zM403.5 36a1.5 1.5 0 11-3 0 1.5 1.5 0 013 0zM423.5 36a1.5 1.5 0 11-3 0 1.5 1.5 0 013 0zM443.5 36a1.5 1.5 0 11-3 0 1.5 1.5 0 013 0zM463.5 36a1.5 1.5 0 11-3 0 1.5 1.5 0 013 0zM483.5 36a1.5 1.5 0 11-3 0 1.5 1.5 0 013 0zM503.5 36a1.5 1.5 0 11-3 0 1.5 1.5 0 013 0zM523.5 36a1.5 1.5 0 11-3 0 1.5 1.5 0 013 0zM543.5 36a1.5 1.5 0 11-3 0 1.5 1.5 0 013 0zM563.5 36a1.5 1.5 0 11-3 0 1.5 1.5 0 013 0zM583.5 36a1.5 1.5 0 11-3 0 1.5 1.5 0 013 0zM603.5 36a1.5 1.5 0 11-3 0 1.5 1.5 0 013 0zM623.5 36a1.5 1.5 0 11-3 0 1.5 1.5 0 013 0zM643.5 36a1.5 1.5 0 11-3 0 1.5 1.5 0 013 0zM363.5 56a1.5 1.5 0 11-3 0 1.5 1.5 0 013 0zM383.5 56a1.5 1.5 0 11-3 0 1.5 1.5 0 013 0zM403.5 56a1.5 1.5 0 11-3 0 1.5 1.5 0 013 0zM423.5 56a1.5 1.5 0 11-3 0 1.5 1.5 0 013 0zM443.5 56a1.5 1.5 0 11-3 0 1.5 1.5 0 013 0zM463.5 56a1.5 1.5 0 11-3 0 1.5 1.5 0 013 0zM483.5 56a1.5 1.5 0 11-3 0 1.5 1.5 0 013 0zM503.5 56a1.5 1.5 0 11-3 0 1.5 1.5 0 013 0zM523.5 56a1.5 1.5 0 11-3 0 1.5 1.5 0 013 0zM543.5 56a1.5 1.5 0 11-3 0 1.5 1.5 0 013 0zM563.5 56a1.5 1.5 0 11-3 0 1.5 1.5 0 013 0zM583.5 56a1.5 1.5 0 11-3 0 1.5 1.5 0 013 0zM603.5 56a1.5 1.5 0 11-3 0 1.5 1.5 0 013 0zM623.5 56a1.5 1.5 0 11-3 0 1.5 1.5 0 013 0zM643.5 56a1.5 1.5 0 11-3 0 1.5 1.5 0 013 0zM363.5 76a1.5 1.5 0 11-3 0 1.5 1.5 0 013 0zM383.5 76a1.5 1.5 0 11-3 0 1.5 1.5 0 013 0zM403.5 76a1.5 1.5 0 11-3 0 1.5 1.5 0 013 0zM423.5 76a1.5 1.5 0 11-3 0 1.5 1.5 0 013 0zM443.5 76a1.5 1.5 0 11-3 0 1.5 1.5 0 013 0zM463.5 76a1.5 1.5 0 11-3 0 1.5 1.5 0 013 0zM483.5 76a1.5 1.5 0 11-3 0 1.5 1.5 0 013 0zM503.5 76a1.5 1.5 0 11-3 0 1.5 1.5 0 013 0zM523.5 76a1.5 1.5 0 11-3 0 1.5 1.5 0 013 0zM543.5 76a1.5 1.5 0 11-3 0 1.5 1.5 0 013 0zM563.5 76a1.5 1.5 0 11-3 0 1.5 1.5 0 013 0zM583.5 76a1.5 1.5 0 11-3 0 1.5 1.5 0 013 0zM603.5 76a1.5 1.5 0 11-3 0 1.5 1.5 0 013 0zM623.5 76a1.5 1.5 0 11-3 0 1.5 1.5 0 013 0zM643.5 76a1.5 1.5 0 11-3 0 1.5 1.5 0 013 0zM363.5 96a1.5 1.5 0 11-3 0 1.5 1.5 0 013 0zM383.5 96a1.5 1.5 0 11-3 0 1.5 1.5 0 013 0zM403.5 96a1.5 1.5 0 11-3 0 1.5 1.5 0 013 0zM423.5 96a1.5 1.5 0 11-3 0 1.5 1.5 0 013 0zM443.5 96a1.5 1.5 0 11-3 0 1.5 1.5 0 013 0zM463.5 96a1.5 1.5 0 11-3 0 1.5 1.5 0 013 0zM483.5 96a1.5 1.5 0 11-3 0 1.5 1.5 0 013 0zM503.5 96a1.5 1.5 0 11-3 0 1.5 1.5 0 013 0zM523.5 96a1.5 1.5 0 11-3 0 1.5 1.5 0 013 0zM543.5 96a1.5 1.5 0 11-3 0 1.5 1.5 0 013 0zM563.5 96a1.5 1.5 0 11-3 0 1.5 1.5 0 013 0zM583.5 96a1.5 1.5 0 11-3 0 1.5 1.5 0 013 0zM603.5 96a1.5 1.5 0 11-3 0 1.5 1.5 0 013 0zM623.5 96a1.5 1.5 0 11-3 0 1.5 1.5 0 013 0zM643.5 96a1.5 1.5 0 11-3 0 1.5 1.5 0 013 0zM363.5 116a1.5 1.5 0 11-3.001-.001 1.5 1.5 0 013.001.001zM383.5 116a1.5 1.5 0 11-3.001-.001 1.5 1.5 0 013.001.001zM403.5 116a1.5 1.5 0 11-3.001-.001 1.5 1.5 0 013.001.001zM423.5 116a1.5 1.5 0 11-3.001-.001 1.5 1.5 0 013.001.001zM443.5 116a1.5 1.5 0 11-3.001-.001 1.5 1.5 0 013.001.001zM463.5 116a1.5 1.5 0 11-3.001-.001 1.5 1.5 0 013.001.001zM483.5 116a1.5 1.5 0 11-3.001-.001 1.5 1.5 0 013.001.001zM503.5 116a1.5 1.5 0 11-3.001-.001 1.5 1.5 0 013.001.001zM523.5 116a1.5 1.5 0 11-3.001-.001 1.5 1.5 0 013.001.001zM543.5 116a1.5 1.5 0 11-3.001-.001 1.5 1.5 0 013.001.001zM563.5 116a1.5 1.5 0 11-3.001-.001 1.5 1.5 0 013.001.001zM583.5 116a1.5 1.5 0 11-3.001-.001 1.5 1.5 0 013.001.001zM603.5 116a1.5 1.5 0 11-3.001-.001 1.5 1.5 0 013.001.001zM623.5 116a1.5 1.5 0 11-3.001-.001 1.5 1.5 0 013.001.001zM643.5 116a1.5 1.5 0 11-3.001-.001 1.5 1.5 0 013.001.001zM363.5 136a1.5 1.5 0 11-3.001-.001 1.5 1.5 0 013.001.001zM383.5 136a1.5 1.5 0 11-3.001-.001 1.5 1.5 0 013.001.001zM403.5 136a1.5 1.5 0 11-3.001-.001 1.5 1.5 0 013.001.001zM423.5 136a1.5 1.5 0 11-3.001-.001 1.5 1.5 0 013.001.001zM443.5 136a1.5 1.5 0 11-3.001-.001 1.5 1.5 0 013.001.001zM463.5 136a1.5 1.5 0 11-3.001-.001 1.5 1.5 0 013.001.001zM483.5 136a1.5 1.5 0 11-3.001-.001 1.5 1.5 0 013.001.001zM503.5 136a1.5 1.5 0 11-3.001-.001 1.5 1.5 0 013.001.001zM523.5 136a1.5 1.5 0 11-3.001-.001 1.5 1.5 0 013.001.001zM543.5 136a1.5 1.5 0 11-3.001-.001 1.5 1.5 0 013.001.001zM563.5 136a1.5 1.5 0 11-3.001-.001 1.5 1.5 0 013.001.001zM583.5 136a1.5 1.5 0 11-3.001-.001 1.5 1.5 0 013.001.001zM603.5 136a1.5 1.5 0 11-3.001-.001 1.5 1.5 0 013.001.001zM623.5 136a1.5 1.5 0 11-3.001-.001 1.5 1.5 0 013.001.001zM643.5 136a1.5 1.5 0 11-3.001-.001 1.5 1.5 0 013.001.001zM363.5 156a1.5 1.5 0 11-3.001-.001 1.5 1.5 0 013.001.001zM383.5 156a1.5 1.5 0 11-3.001-.001 1.5 1.5 0 013.001.001zM403.5 156a1.5 1.5 0 11-3.001-.001 1.5 1.5 0 013.001.001zM423.5 156a1.5 1.5 0 11-3.001-.001 1.5 1.5 0 013.001.001zM443.5 156a1.5 1.5 0 11-3.001-.001 1.5 1.5 0 013.001.001zM463.5 156a1.5 1.5 0 11-3.001-.001 1.5 1.5 0 013.001.001zM483.5 156a1.5 1.5 0 11-3.001-.001 1.5 1.5 0 013.001.001zM503.5 156a1.5 1.5 0 11-3.001-.001 1.5 1.5 0 013.001.001zM523.5 156a1.5 1.5 0 11-3.001-.001 1.5 1.5 0 013.001.001zM543.5 156a1.5 1.5 0 11-3.001-.001 1.5 1.5 0 013.001.001zM563.5 156a1.5 1.5 0 11-3.001-.001 1.5 1.5 0 013.001.001zM583.5 156a1.5 1.5 0 11-3.001-.001 1.5 1.5 0 013.001.001zM603.5 156a1.5 1.5 0 11-3.001-.001 1.5 1.5 0 013.001.001zM623.5 156a1.5 1.5 0 11-3.001-.001 1.5 1.5 0 013.001.001zM643.5 156a1.5 1.5 0 11-3.001-.001 1.5 1.5 0 013.001.001zM363.5 176a1.5 1.5 0 11-3.001-.001 1.5 1.5 0 013.001.001zM383.5 176a1.5 1.5 0 11-3.001-.001 1.5 1.5 0 013.001.001zM403.5 176a1.5 1.5 0 11-3.001-.001 1.5 1.5 0 013.001.001zM423.5 176a1.5 1.5 0 11-3.001-.001 1.5 1.5 0 013.001.001zM443.5 176a1.5 1.5 0 11-3.001-.001 1.5 1.5 0 013.001.001zM463.5 176a1.5 1.5 0 11-3.001-.001 1.5 1.5 0 013.001.001zM483.5 176a1.5 1.5 0 11-3.001-.001 1.5 1.5 0 013.001.001zM503.5 176a1.5 1.5 0 11-3.001-.001 1.5 1.5 0 013.001.001zM523.5 176a1.5 1.5 0 11-3.001-.001 1.5 1.5 0 013.001.001zM543.5 176a1.5 1.5 0 11-3.001-.001 1.5 1.5 0 013.001.001zM563.5 176a1.5 1.5 0 11-3.001-.001 1.5 1.5 0 013.001.001zM583.5 176a1.5 1.5 0 11-3.001-.001 1.5 1.5 0 013.001.001zM603.5 176a1.5 1.5 0 11-3.001-.001 1.5 1.5 0 013.001.001zM623.5 176a1.5 1.5 0 11-3.001-.001 1.5 1.5 0 013.001.001zM643.5 176a1.5 1.5 0 11-3.001-.001 1.5 1.5 0 013.001.001zM363.5 196a1.5 1.5 0 11-3.001-.001 1.5 1.5 0 013.001.001zM383.5 196a1.5 1.5 0 11-3.001-.001 1.5 1.5 0 013.001.001zM403.5 196a1.5 1.5 0 11-3.001-.001 1.5 1.5 0 013.001.001zM423.5 196a1.5 1.5 0 11-3.001-.001 1.5 1.5 0 013.001.001zM443.5 196a1.5 1.5 0 11-3.001-.001 1.5 1.5 0 013.001.001zM463.5 196a1.5 1.5 0 11-3.001-.001 1.5 1.5 0 013.001.001zM483.5 196a1.5 1.5 0 11-3.001-.001 1.5 1.5 0 013.001.001zM503.5 196a1.5 1.5 0 11-3.001-.001 1.5 1.5 0 013.001.001zM523.5 196a1.5 1.5 0 11-3.001-.001 1.5 1.5 0 013.001.001zM543.5 196a1.5 1.5 0 11-3.001-.001 1.5 1.5 0 013.001.001zM563.5 196a1.5 1.5 0 11-3.001-.001 1.5 1.5 0 013.001.001zM583.5 196a1.5 1.5 0 11-3.001-.001 1.5 1.5 0 013.001.001zM603.5 196a1.5 1.5 0 11-3.001-.001 1.5 1.5 0 013.001.001zM623.5 196a1.5 1.5 0 11-3.001-.001 1.5 1.5 0 013.001.001zM643.5 196a1.5 1.5 0 11-3.001-.001 1.5 1.5 0 013.001.001zM663.5 16a1.5 1.5 0 11-3 0 1.5 1.5 0 013 0zM683.5 16a1.5 1.5 0 11-3 0 1.5 1.5 0 013 0zM703.5 16a1.5 1.5 0 11-3 0 1.5 1.5 0 013 0zM723.5 16a1.5 1.5 0 11-3 0 1.5 1.5 0 013 0zM743.5 16a1.5 1.5 0 11-3 0 1.5 1.5 0 013 0zM763.5 16a1.5 1.5 0 11-3 0 1.5 1.5 0 013 0zM783.5 16a1.5 1.5 0 11-3 0 1.5 1.5 0 013 0zM663.5 36a1.5 1.5 0 11-3 0 1.5 1.5 0 013 0zM683.5 36a1.5 1.5 0 11-3 0 1.5 1.5 0 013 0zM703.5 36a1.5 1.5 0 11-3 0 1.5 1.5 0 013 0zM723.5 36a1.5 1.5 0 11-3 0 1.5 1.5 0 013 0zM743.5 36a1.5 1.5 0 11-3 0 1.5 1.5 0 013 0zM763.5 36a1.5 1.5 0 11-3 0 1.5 1.5 0 013 0zM783.5 36a1.5 1.5 0 11-3 0 1.5 1.5 0 013 0zM803.5 36a1.5 1.5 0 11-3 0 1.5 1.5 0 013 0zM663.5 56a1.5 1.5 0 11-3 0 1.5 1.5 0 013 0zM683.5 56a1.5 1.5 0 11-3 0 1.5 1.5 0 013 0zM703.5 56a1.5 1.5 0 11-3 0 1.5 1.5 0 013 0zM723.5 56a1.5 1.5 0 11-3 0 1.5 1.5 0 013 0zM743.5 56a1.5 1.5 0 11-3 0 1.5 1.5 0 013 0zM763.5 56a1.5 1.5 0 11-3 0 1.5 1.5 0 013 0zM783.5 56a1.5 1.5 0 11-3 0 1.5 1.5 0 013 0zM803.5 56a1.5 1.5 0 11-3 0 1.5 1.5 0 013 0zM823.5 56a1.5 1.5 0 11-3 0 1.5 1.5 0 013 0zM663.5 76a1.5 1.5 0 11-3 0 1.5 1.5 0 013 0zM683.5 76a1.5 1.5 0 11-3 0 1.5 1.5 0 013 0zM703.5 76a1.5 1.5 0 11-3 0 1.5 1.5 0 013 0zM723.5 76a1.5 1.5 0 11-3 0 1.5 1.5 0 013 0zM743.5 76a1.5 1.5 0 11-3 0 1.5 1.5 0 013 0zM763.5 76a1.5 1.5 0 11-3 0 1.5 1.5 0 013 0zM783.5 76a1.5 1.5 0 11-3 0 1.5 1.5 0 013 0zM803.5 76a1.5 1.5 0 11-3 0 1.5 1.5 0 013 0zM823.5 76a1.5 1.5 0 11-3 0 1.5 1.5 0 013 0zM663.5 96a1.5 1.5 0 11-3 0 1.5 1.5 0 013 0zM683.5 96a1.5 1.5 0 11-3 0 1.5 1.5 0 013 0zM703.5 96a1.5 1.5 0 11-3 0 1.5 1.5 0 013 0zM723.5 96a1.5 1.5 0 11-3 0 1.5 1.5 0 013 0zM743.5 96a1.5 1.5 0 11-3 0 1.5 1.5 0 013 0zM763.5 96a1.5 1.5 0 11-3 0 1.5 1.5 0 013 0zM783.5 96a1.5 1.5 0 11-3 0 1.5 1.5 0 013 0zM803.5 96a1.5 1.5 0 11-3 0 1.5 1.5 0 013 0zM823.5 96a1.5 1.5 0 11-3 0 1.5 1.5 0 013 0zM663.5 116a1.5 1.5 0 11-3.001-.001 1.5 1.5 0 013.001.001zM683.5 116a1.5 1.5 0 11-3.001-.001 1.5 1.5 0 013.001.001zM703.5 116a1.5 1.5 0 11-3.001-.001 1.5 1.5 0 013.001.001zM723.5 116a1.5 1.5 0 11-3.001-.001 1.5 1.5 0 013.001.001zM743.5 116a1.5 1.5 0 11-3.001-.001 1.5 1.5 0 013.001.001zM763.5 116a1.5 1.5 0 11-3.001-.001 1.5 1.5 0 013.001.001zM783.5 116a1.5 1.5 0 11-3.001-.001 1.5 1.5 0 013.001.001zM803.5 116a1.5 1.5 0 11-3.001-.001 1.5 1.5 0 013.001.001zM823.5 116a1.5 1.5 0 11-3.001-.001 1.5 1.5 0 013.001.001zM663.5 136a1.5 1.5 0 11-3.001-.001 1.5 1.5 0 013.001.001zM683.5 136a1.5 1.5 0 11-3.001-.001 1.5 1.5 0 013.001.001zM703.5 136a1.5 1.5 0 11-3.001-.001 1.5 1.5 0 013.001.001zM723.5 136a1.5 1.5 0 11-3.001-.001 1.5 1.5 0 013.001.001zM743.5 136a1.5 1.5 0 11-3.001-.001 1.5 1.5 0 013.001.001zM763.5 136a1.5 1.5 0 11-3.001-.001 1.5 1.5 0 013.001.001zM783.5 136a1.5 1.5 0 11-3.001-.001 1.5 1.5 0 013.001.001zM803.5 136a1.5 1.5 0 11-3.001-.001 1.5 1.5 0 013.001.001zM823.5 136a1.5 1.5 0 11-3.001-.001 1.5 1.5 0 013.001.001zM663.5 156a1.5 1.5 0 11-3.001-.001 1.5 1.5 0 013.001.001zM683.5 156a1.5 1.5 0 11-3.001-.001 1.5 1.5 0 013.001.001zM703.5 156a1.5 1.5 0 11-3.001-.001 1.5 1.5 0 013.001.001zM723.5 156a1.5 1.5 0 11-3.001-.001 1.5 1.5 0 013.001.001zM743.5 156a1.5 1.5 0 11-3.001-.001 1.5 1.5 0 013.001.001zM763.5 156a1.5 1.5 0 11-3.001-.001 1.5 1.5 0 013.001.001zM783.5 156a1.5 1.5 0 11-3.001-.001 1.5 1.5 0 013.001.001zM803.5 156a1.5 1.5 0 11-3.001-.001 1.5 1.5 0 013.001.001zM823.5 156a1.5 1.5 0 11-3.001-.001 1.5 1.5 0 013.001.001zM663.5 176a1.5 1.5 0 11-3.001-.001 1.5 1.5 0 013.001.001zM683.5 176a1.5 1.5 0 11-3.001-.001 1.5 1.5 0 013.001.001zM703.5 176a1.5 1.5 0 11-3.001-.001 1.5 1.5 0 013.001.001zM723.5 176a1.5 1.5 0 11-3.001-.001 1.5 1.5 0 013.001.001zM743.5 176a1.5 1.5 0 11-3.001-.001 1.5 1.5 0 013.001.001zM763.5 176a1.5 1.5 0 11-3.001-.001 1.5 1.5 0 013.001.001zM783.5 176a1.5 1.5 0 11-3.001-.001 1.5 1.5 0 013.001.001zM803.5 176a1.5 1.5 0 11-3.001-.001 1.5 1.5 0 013.001.001zM823.5 176a1.5 1.5 0 11-3.001-.001 1.5 1.5 0 013.001.001zM663.5 196a1.5 1.5 0 11-3.001-.001 1.5 1.5 0 013.001.001zM683.5 196a1.5 1.5 0 11-3.001-.001 1.5 1.5 0 013.001.001zM703.5 196a1.5 1.5 0 11-3.001-.001 1.5 1.5 0 013.001.001zM723.5 196a1.5 1.5 0 11-3.001-.001 1.5 1.5 0 013.001.001zM743.5 196a1.5 1.5 0 11-3.001-.001 1.5 1.5 0 013.001.001zM763.5 196a1.5 1.5 0 11-3.001-.001 1.5 1.5 0 013.001.001zM783.5 196a1.5 1.5 0 11-3.001-.001 1.5 1.5 0 013.001.001zM803.5 196a1.5 1.5 0 11-3.001-.001 1.5 1.5 0 013.001.001zM823.5 196a1.5 1.5 0 11-3.001-.001 1.5 1.5 0 013.001.001zM3.5 216a1.5 1.5 0 11-3 0 1.5 1.5 0 013 0zM3.5 236a1.5 1.5 0 11-3 0 1.5 1.5 0 013 0zM3.5 256a1.5 1.5 0 11-3 0 1.5 1.5 0 013 0zM3.5 276a1.5 1.5 0 11-3 0 1.5 1.5 0 013 0zM3.5 296a1.5 1.5 0 11-3 0 1.5 1.5 0 013 0zM3.5 316a1.5 1.5 0 11-3 0 1.5 1.5 0 013 0zM3.5 336a1.5 1.5 0 11-3 0 1.5 1.5 0 013 0zM3.5 356a1.5 1.5 0 11-3 0 1.5 1.5 0 013 0zM3.5 376a1.5 1.5 0 11-3 0 1.5 1.5 0 013 0zM3.5 396a1.5 1.5 0 11-3 0 1.5 1.5 0 013 0zM3.5 416a1.5 1.5 0 11-3 0 1.5 1.5 0 013 0zM3.5 436a1.5 1.5 0 11-3 0 1.5 1.5 0 013 0zM3.5 456a1.5 1.5 0 11-3 0 1.5 1.5 0 013 0zM3.5 476a1.5 1.5 0 11-3 0 1.5 1.5 0 013 0zM3.5 496a1.5 1.5 0 11-3 0 1.5 1.5 0 013 0zM3.5 516a1.5 1.5 0 11-3 0 1.5 1.5 0 013 0zM3.5 176a1.5 1.5 0 11-3 0 1.5 1.5 0 013 0zM3.5 196a1.5 1.5 0 11-3 0 1.5 1.5 0 013 0z"/></g><g filter="url(#filter0_d)"><path d="M144.784 398.784c15.621-15.621 40.948-15.621 56.569 0l70.71 70.711c15.621 15.621 15.621 40.947 0 56.568-15.621 15.621-40.947 15.621-56.568 0l-70.711-70.71c-15.621-15.621-15.621-40.948 0-56.569z" fill="url(#paint0_linear)"/></g><g filter="url(#filter1_d)"><path d="M433.925 91.925c41.655-41.656 109.193-41.656 150.849 0l168.562 168.561c41.656 41.656 41.656 109.194 0 150.85-41.656 41.656-109.194 41.656-150.85 0L433.925 242.774c-41.656-41.656-41.656-109.194 0-150.85z" fill="url(#paint1_linear)"/></g><g filter="url(#filter2_d)"><path d="M140.496 66.496c48.598-48.599 127.392-48.599 175.991 0l219.989 219.989c48.598 48.598 48.598 127.392 0 175.991-48.599 48.598-127.393 48.598-175.991 0L140.496 242.487c-48.599-48.599-48.599-127.393 0-175.991z" fill="url(#paint2_linear)"/></g><g filter="url(#filter3_d)"><path d="M215.642 520.642c7.811-7.81 20.474-7.81 28.284 0l35.356 35.355c7.81 7.811 7.81 20.474 0 28.285-7.811 7.81-20.474 7.81-28.285 0l-35.355-35.356c-7.81-7.81-7.81-20.473 0-28.284z" fill="url(#paint3_linear)"/></g><g filter="url(#filter4_d)"><path d="M727.642 89.642c7.811-7.81 20.474-7.81 28.284 0l35.356 35.355c7.81 7.811 7.81 20.474 0 28.285-7.811 7.81-20.474 7.81-28.285 0l-35.355-35.356c-7.81-7.81-7.81-20.474 0-28.284z" fill="url(#paint4_linear)"/></g><g filter="url(#filter5_d)"><path d="M717.642 407.642c7.811-7.81 20.474-7.81 28.284 0l35.356 35.355c7.81 7.811 7.81 20.474 0 28.285-7.811 7.81-20.474 7.81-28.285 0l-35.355-35.356c-7.81-7.81-7.81-20.473 0-28.284z" fill="url(#paint5_linear)"/></g><g filter="url(#filter6_d)"><path d="M327.352 335.144c31.242-31.242 81.895-31.242 113.137 0l141.422 141.422c31.242 31.242 31.242 81.895 0 113.137-31.242 31.242-81.895 31.242-113.137 0L327.352 448.281c-31.242-31.242-31.242-81.895 0-113.137z" fill="url(#paint6_linear)"/></g><g filter="url(#filter7_d)"><path d="M640.166 435.285c15.621-15.621 40.947-15.621 56.568 0l70.711 70.711c15.621 15.621 15.621 40.947 0 56.568-15.621 15.621-40.947 15.621-56.568 0l-70.711-70.71c-15.621-15.621-15.621-40.948 0-56.569z" fill="url(#paint7_linear)"/></g><defs><linearGradient id="paint0_linear" x1="269.853" y1="523.348" x2="147.706" y2="400.494" gradientUnits="userSpaceOnUse"><stop stop-color="#4FD3A4"/><stop offset="1" stop-color="#68EEBE"/></linearGradient><linearGradient id="paint1_linear" x1="767.442" y1="424.095" x2="441.716" y2="96.485" gradientUnits="userSpaceOnUse"><stop stop-color="#4FD3A4"/><stop offset="1" stop-color="#68EEBE"/></linearGradient><linearGradient id="paint2_linear" x1="529.6" y1="454.027" x2="149.586" y2="71.817" gradientUnits="userSpaceOnUse"><stop stop-color="#4FD3A4"/><stop offset="1" stop-color="#68EEBE"/></linearGradient><linearGradient id="paint3_linear" x1="278.177" y1="582.924" x2="217.103" y2="521.497" gradientUnits="userSpaceOnUse"><stop stop-color="#4FD3A4"/><stop offset="1" stop-color="#68EEBE"/></linearGradient><linearGradient id="paint4_linear" x1="790.177" y1="151.924" x2="729.103" y2="90.497" gradientUnits="userSpaceOnUse"><stop stop-color="#4FD3A4"/><stop offset="1" stop-color="#68EEBE"/></linearGradient><linearGradient id="paint5_linear" x1="780.177" y1="469.924" x2="719.103" y2="408.497" gradientUnits="userSpaceOnUse"><stop stop-color="#4FD3A4"/><stop offset="1" stop-color="#68EEBE"/></linearGradient><linearGradient id="paint6_linear" x1="577.491" y1="584.272" x2="333.196" y2="338.565" gradientUnits="userSpaceOnUse"><stop stop-color="#4FD3A4"/><stop offset="1" stop-color="#68EEBE"/></linearGradient><linearGradient id="paint7_linear" x1="765.235" y1="559.849" x2="643.088" y2="436.995" gradientUnits="userSpaceOnUse"><stop stop-color="#4FD3A4"/><stop offset="1" stop-color="#68EEBE"/></linearGradient><filter id="filter0_d" x="88.068" y="357.068" width="240.711" height="240.711" filterUnits="userSpaceOnUse" color-interpolation-filters="sRGB"><feFlood flood-opacity="0" result="BackgroundImageFix"/><feColorMatrix in="SourceAlpha" values="0 0 0 0 0 0 0 0 0 0 0 0 0 0 0 0 0 0 127 0"/><feOffset dy="15"/><feGaussianBlur stdDeviation="22.5"/><feColorMatrix values="0 0 0 0 0.309804 0 0 0 0 0.831373 0 0 0 0 0.643137 0 0 0 0.5 0"/><feBlend in2="BackgroundImageFix" result="effect1_dropShadow"/><feBlend in="SourceGraphic" in2="effect1_dropShadow" result="shape"/></filter><filter id="filter1_d" x="357.683" y="30.683" width="471.895" height="471.895" filterUnits="userSpaceOnUse" color-interpolation-filters="sRGB"><feFlood flood-opacity="0" result="BackgroundImageFix"/><feColorMatrix in="SourceAlpha" values="0 0 0 0 0 0 0 0 0 0 0 0 0 0 0 0 0 0 127 0"/><feOffset dy="15"/><feGaussianBlur stdDeviation="22.5"/><feColorMatrix values="0 0 0 0 0.309804 0 0 0 0 0.831373 0 0 0 0 0.643137 0 0 0 0.5 0"/><feBlend in2="BackgroundImageFix" result="effect1_dropShadow"/><feBlend in="SourceGraphic" in2="effect1_dropShadow" result="shape"/></filter><filter id="filter2_d" x="59.047" y=".047" width="558.878" height="558.878" filterUnits="userSpaceOnUse" color-interpolation-filters="sRGB"><feFlood flood-opacity="0" result="BackgroundImageFix"/><feColorMatrix in="SourceAlpha" values="0 0 0 0 0 0 0 0 0 0 0 0 0 0 0 0 0 0 127 0"/><feOffset dy="15"/><feGaussianBlur stdDeviation="22.5"/><feColorMatrix values="0 0 0 0 0.309804 0 0 0 0 0.831373 0 0 0 0 0.643137 0 0 0 0.5 0"/><feBlend in2="BackgroundImageFix" result="effect1_dropShadow"/><feBlend in="SourceGraphic" in2="effect1_dropShadow" result="shape"/></filter><filter id="filter3_d" x="164.784" y="484.784" width="165.355" height="165.355" filterUnits="userSpaceOnUse" color-interpolation-filters="sRGB"><feFlood flood-opacity="0" result="BackgroundImageFix"/><feColorMatrix in="SourceAlpha" values="0 0 0 0 0 0 0 0 0 0 0 0 0 0 0 0 0 0 127 0"/><feOffset dy="15"/><feGaussianBlur stdDeviation="22.5"/><feColorMatrix values="0 0 0 0 0.309804 0 0 0 0 0.831373 0 0 0 0 0.643137 0 0 0 0.5 0"/><feBlend in2="BackgroundImageFix" result="effect1_dropShadow"/><feBlend in="SourceGraphic" in2="effect1_dropShadow" result="shape"/></filter><filter id="filter4_d" x="676.784" y="53.784" width="165.355" height="165.355" filterUnits="userSpaceOnUse" color-interpolation-filters="sRGB"><feFlood flood-opacity="0" result="BackgroundImageFix"/><feColorMatrix in="SourceAlpha" values="0 0 0 0 0 0 0 0 0 0 0 0 0 0 0 0 0 0 127 0"/><feOffset dy="15"/><feGaussianBlur stdDeviation="22.5"/><feColorMatrix values="0 0 0 0 0.309804 0 0 0 0 0.831373 0 0 0 0 0.643137 0 0 0 0.5 0"/><feBlend in2="BackgroundImageFix" result="effect1_dropShadow"/><feBlend in="SourceGraphic" in2="effect1_dropShadow" result="shape"/></filter><filter id="filter5_d" x="666.784" y="371.784" width="165.355" height="165.355" filterUnits="userSpaceOnUse" color-interpolation-filters="sRGB"><feFlood flood-opacity="0" result="BackgroundImageFix"/><feColorMatrix in="SourceAlpha" values="0 0 0 0 0 0 0 0 0 0 0 0 0 0 0 0 0 0 127 0"/><feOffset dy="15"/><feGaussianBlur stdDeviation="22.5"/><feColorMatrix values="0 0 0 0 0.309804 0 0 0 0 0.831373 0 0 0 0 0.643137 0 0 0 0.5 0"/><feBlend in2="BackgroundImageFix" result="effect1_dropShadow"/><feBlend in="SourceGraphic" in2="effect1_dropShadow" result="shape"/></filter><filter id="filter6_d" x="258.921" y="281.713" width="391.421" height="391.421" filterUnits="userSpaceOnUse" color-interpolation-filters="sRGB"><feFlood flood-opacity="0" result="BackgroundImageFix"/><feColorMatrix in="SourceAlpha" values="0 0 0 0 0 0 0 0 0 0 0 0 0 0 0 0 0 0 127 0"/><feOffset dy="15"/><feGaussianBlur stdDeviation="22.5"/><feColorMatrix values="0 0 0 0 0.309804 0 0 0 0 0.831373 0 0 0 0 0.643137 0 0 0 0.5 0"/><feBlend in2="BackgroundImageFix" result="effect1_dropShadow"/><feBlend in="SourceGraphic" in2="effect1_dropShadow" result="shape"/></filter><filter id="filter7_d" x="583.45" y="393.569" width="240.711" height="240.711" filterUnits="userSpaceOnUse" color-interpolation-filters="sRGB"><feFlood flood-opacity="0" result="BackgroundImageFix"/><feColorMatrix in="SourceAlpha" values="0 0 0 0 0 0 0 0 0 0 0 0 0 0 0 0 0 0 127 0"/><feOffset dy="15"/><feGaussianBlur stdDeviation="22.5"/><feColorMatrix values="0 0 0 0 0.309804 0 0 0 0 0.831373 0 0 0 0 0.643137 0 0 0 0.5 0"/><feBlend in2="BackgroundImageFix" result="effect1_dropShadow"/><feBlend in="SourceGraphic" in2="effect1_dropShadow" result="shape"/></filter></defs></svg>