<svg width="16" height="16" viewBox="0 0 16 16" fill="none" xmlns="http://www.w3.org/2000/svg">
<g opacity="0.6">
<path d="M9 10C9 9.44771 9.44772 9 10 9H11C11.5523 9 12 9.44772 12 10V11C12 11.5523 11.5523 12 11 12H10C9.44772 12 9 11.5523 9 11V10Z" fill="white"/>
<path fill-rule="evenodd" clip-rule="evenodd" d="M4 1C4 0.447715 4.44772 0 5 0C5.55228 0 6 0.447715 6 1L10 1C10 0.447715 10.4477 0 11 0C11.5523 0 12 0.447715 12 1L12.5 1C13.8807 1 15 2.11929 15 3.5L15 12C15 13.6569 13.6569 15 12 15L4 15C2.34315 15 1 13.6569 1 12V3.5C1 2.11929 2.11929 1 3.5 1L4 1ZM11 3L12.5 3C12.7761 3 13 3.22386 13 3.5V5H3L3 3.5C3 3.22386 3.22386 3 3.5 3L11 3ZM3 7V12C3 12.5523 3.44772 13 4 13H12C12.5523 13 13 12.5523 13 12V7H3Z" fill="white"/>
</g>
</svg>
