<svg width="30" height="31" viewBox="0 0 30 31" fill="none" xmlns="http://www.w3.org/2000/svg">
<path d="M0.9375 17.427C0.421875 17.427 0 17.8489 0 18.3645V20.2395C0 20.7551 0.421875 21.177 0.9375 21.177H7.5V17.427H0.9375ZM29.5898 6.70435L23.8535 0.962158C23.5898 0.698486 23.2324 0.552002 22.8574 0.552002H22.5V8.052H30V7.69458C30 7.32544 29.8535 6.96802 29.5898 6.70435ZM20.625 8.52075V0.552002H8.90625C8.12695 0.552002 7.5 1.17896 7.5 1.95825V17.427H15V13.6067C15 12.7688 16.0137 12.3528 16.6055 12.9446L22.207 18.5989C22.5938 18.9915 22.5938 19.6184 22.207 20.0051L16.5996 25.6536C16.0078 26.2454 14.9941 25.8293 14.9941 24.9915V21.177H7.5V29.1458C7.5 29.925 8.12695 30.552 8.90625 30.552H28.5938C29.373 30.552 30 29.925 30 29.1458V9.927H22.0312C21.2578 9.927 20.625 9.29419 20.625 8.52075Z" fill="#E9EBF0"/>
</svg>
