<svg width="875" height="696" fill="none" xmlns="http://www.w3.org/2000/svg"><g opacity=".1" fill="#000"><path d="M23 214.5a1.5 1.5 0 11-3 0 1.5 1.5 0 013 0zM43 214.5a1.5 1.5 0 11-3 0 1.5 1.5 0 013 0zM23 234.5a1.5 1.5 0 11-3 0 1.5 1.5 0 013 0zM43 234.5a1.5 1.5 0 11-3 0 1.5 1.5 0 013 0zM23 254.5a1.5 1.5 0 11-3 0 1.5 1.5 0 013 0zM43 254.5a1.5 1.5 0 11-3 0 1.5 1.5 0 013 0zM23 274.5a1.5 1.5 0 11-3 0 1.5 1.5 0 013 0zM43 274.5a1.5 1.5 0 11-3 0 1.5 1.5 0 013 0zM23 294.5a1.5 1.5 0 11-3 0 1.5 1.5 0 013 0zM43 294.5a1.5 1.5 0 11-3 0 1.5 1.5 0 013 0zM23 314.5a1.5 1.5 0 11-3 0 1.5 1.5 0 013 0zM43 314.5a1.5 1.5 0 11-3 0 1.5 1.5 0 013 0zM23 334.5a1.5 1.5 0 11-3 0 1.5 1.5 0 013 0zM43 334.5a1.5 1.5 0 11-3 0 1.5 1.5 0 013 0zM23 354.5a1.5 1.5 0 11-3 0 1.5 1.5 0 013 0zM43 354.5a1.5 1.5 0 11-3 0 1.5 1.5 0 013 0zM23 374.5a1.5 1.5 0 11-3 0 1.5 1.5 0 013 0zM43 374.5a1.5 1.5 0 11-3 0 1.5 1.5 0 013 0zM23 394.5a1.5 1.5 0 11-3 0 1.5 1.5 0 013 0zM43 394.5a1.5 1.5 0 11-3 0 1.5 1.5 0 013 0zM23 414.5a1.5 1.5 0 11-3 0 1.5 1.5 0 013 0zM43 414.5a1.5 1.5 0 11-3 0 1.5 1.5 0 013 0zM23 434.5a1.5 1.5 0 11-3 0 1.5 1.5 0 013 0zM43 434.5a1.5 1.5 0 11-3 0 1.5 1.5 0 013 0zM63 214.5a1.5 1.5 0 11-3 0 1.5 1.5 0 013 0zM83 214.5a1.5 1.5 0 11-3 0 1.5 1.5 0 013 0zM103 214.5a1.5 1.5 0 11-3.001-.001 1.5 1.5 0 013.001.001zM123 214.5a1.5 1.5 0 11-3.001-.001 1.5 1.5 0 013.001.001zM143 214.5a1.5 1.5 0 11-3.001-.001 1.5 1.5 0 013.001.001zM163 214.5a1.5 1.5 0 11-3.001-.001 1.5 1.5 0 013.001.001zM183 214.5a1.5 1.5 0 11-3.001-.001 1.5 1.5 0 013.001.001zM203 214.5a1.5 1.5 0 11-3.001-.001 1.5 1.5 0 013.001.001zM223 214.5a1.5 1.5 0 11-3.001-.001 1.5 1.5 0 013.001.001zM243 214.5a1.5 1.5 0 11-3.001-.001 1.5 1.5 0 013.001.001zM263 214.5a1.5 1.5 0 11-3.001-.001 1.5 1.5 0 013.001.001zM283 214.5a1.5 1.5 0 11-3.001-.001 1.5 1.5 0 013.001.001zM303 214.5a1.5 1.5 0 11-3.001-.001 1.5 1.5 0 013.001.001zM323 214.5a1.5 1.5 0 11-3.001-.001 1.5 1.5 0 013.001.001zM343 214.5a1.5 1.5 0 11-3.001-.001 1.5 1.5 0 013.001.001zM63 234.5a1.5 1.5 0 11-3 0 1.5 1.5 0 013 0zM83 234.5a1.5 1.5 0 11-3 0 1.5 1.5 0 013 0zM103 234.5a1.5 1.5 0 11-3.001-.001 1.5 1.5 0 013.001.001zM123 234.5a1.5 1.5 0 11-3.001-.001 1.5 1.5 0 013.001.001zM143 234.5a1.5 1.5 0 11-3.001-.001 1.5 1.5 0 013.001.001zM163 234.5a1.5 1.5 0 11-3.001-.001 1.5 1.5 0 013.001.001zM183 234.5a1.5 1.5 0 11-3.001-.001 1.5 1.5 0 013.001.001zM203 234.5a1.5 1.5 0 11-3.001-.001 1.5 1.5 0 013.001.001zM223 234.5a1.5 1.5 0 11-3.001-.001 1.5 1.5 0 013.001.001zM243 234.5a1.5 1.5 0 11-3.001-.001 1.5 1.5 0 013.001.001zM263 234.5a1.5 1.5 0 11-3.001-.001 1.5 1.5 0 013.001.001zM283 234.5a1.5 1.5 0 11-3.001-.001 1.5 1.5 0 013.001.001zM303 234.5a1.5 1.5 0 11-3.001-.001 1.5 1.5 0 013.001.001zM323 234.5a1.5 1.5 0 11-3.001-.001 1.5 1.5 0 013.001.001zM343 234.5a1.5 1.5 0 11-3.001-.001 1.5 1.5 0 013.001.001zM63 254.5a1.5 1.5 0 11-3 0 1.5 1.5 0 013 0zM83 254.5a1.5 1.5 0 11-3 0 1.5 1.5 0 013 0zM103 254.5a1.5 1.5 0 11-3.001-.001 1.5 1.5 0 013.001.001zM123 254.5a1.5 1.5 0 11-3.001-.001 1.5 1.5 0 013.001.001zM143 254.5a1.5 1.5 0 11-3.001-.001 1.5 1.5 0 013.001.001zM163 254.5a1.5 1.5 0 11-3.001-.001 1.5 1.5 0 013.001.001zM183 254.5a1.5 1.5 0 11-3.001-.001 1.5 1.5 0 013.001.001zM203 254.5a1.5 1.5 0 11-3.001-.001 1.5 1.5 0 013.001.001zM223 254.5a1.5 1.5 0 11-3.001-.001 1.5 1.5 0 013.001.001zM243 254.5a1.5 1.5 0 11-3.001-.001 1.5 1.5 0 013.001.001zM263 254.5a1.5 1.5 0 11-3.001-.001 1.5 1.5 0 013.001.001zM283 254.5a1.5 1.5 0 11-3.001-.001 1.5 1.5 0 013.001.001zM303 254.5a1.5 1.5 0 11-3.001-.001 1.5 1.5 0 013.001.001zM323 254.5a1.5 1.5 0 11-3.001-.001 1.5 1.5 0 013.001.001zM343 254.5a1.5 1.5 0 11-3.001-.001 1.5 1.5 0 013.001.001zM63 274.5a1.5 1.5 0 11-3 0 1.5 1.5 0 013 0zM83 274.5a1.5 1.5 0 11-3 0 1.5 1.5 0 013 0zM103 274.5a1.5 1.5 0 11-3.001-.001 1.5 1.5 0 013.001.001zM123 274.5a1.5 1.5 0 11-3.001-.001 1.5 1.5 0 013.001.001zM143 274.5a1.5 1.5 0 11-3.001-.001 1.5 1.5 0 013.001.001zM163 274.5a1.5 1.5 0 11-3.001-.001 1.5 1.5 0 013.001.001zM183 274.5a1.5 1.5 0 11-3.001-.001 1.5 1.5 0 013.001.001zM203 274.5a1.5 1.5 0 11-3.001-.001 1.5 1.5 0 013.001.001zM223 274.5a1.5 1.5 0 11-3.001-.001 1.5 1.5 0 013.001.001zM243 274.5a1.5 1.5 0 11-3.001-.001 1.5 1.5 0 013.001.001zM263 274.5a1.5 1.5 0 11-3.001-.001 1.5 1.5 0 013.001.001zM283 274.5a1.5 1.5 0 11-3.001-.001 1.5 1.5 0 013.001.001zM303 274.5a1.5 1.5 0 11-3.001-.001 1.5 1.5 0 013.001.001zM323 274.5a1.5 1.5 0 11-3.001-.001 1.5 1.5 0 013.001.001zM343 274.5a1.5 1.5 0 11-3.001-.001 1.5 1.5 0 013.001.001zM63 294.5a1.5 1.5 0 11-3 0 1.5 1.5 0 013 0zM83 294.5a1.5 1.5 0 11-3 0 1.5 1.5 0 013 0zM103 294.5a1.5 1.5 0 11-3.001-.001 1.5 1.5 0 013.001.001zM123 294.5a1.5 1.5 0 11-3.001-.001 1.5 1.5 0 013.001.001zM143 294.5a1.5 1.5 0 11-3.001-.001 1.5 1.5 0 013.001.001zM163 294.5a1.5 1.5 0 11-3.001-.001 1.5 1.5 0 013.001.001zM183 294.5a1.5 1.5 0 11-3.001-.001 1.5 1.5 0 013.001.001zM203 294.5a1.5 1.5 0 11-3.001-.001 1.5 1.5 0 013.001.001zM223 294.5a1.5 1.5 0 11-3.001-.001 1.5 1.5 0 013.001.001zM243 294.5a1.5 1.5 0 11-3.001-.001 1.5 1.5 0 013.001.001zM263 294.5a1.5 1.5 0 11-3.001-.001 1.5 1.5 0 013.001.001zM283 294.5a1.5 1.5 0 11-3.001-.001 1.5 1.5 0 013.001.001zM303 294.5a1.5 1.5 0 11-3.001-.001 1.5 1.5 0 013.001.001zM323 294.5a1.5 1.5 0 11-3.001-.001 1.5 1.5 0 013.001.001zM343 294.5a1.5 1.5 0 11-3.001-.001 1.5 1.5 0 013.001.001zM63 314.5a1.5 1.5 0 11-3 0 1.5 1.5 0 013 0zM83 314.5a1.5 1.5 0 11-3 0 1.5 1.5 0 013 0zM103 314.5a1.5 1.5 0 11-3.001-.001 1.5 1.5 0 013.001.001zM123 314.5a1.5 1.5 0 11-3.001-.001 1.5 1.5 0 013.001.001zM143 314.5a1.5 1.5 0 11-3.001-.001 1.5 1.5 0 013.001.001zM163 314.5a1.5 1.5 0 11-3.001-.001 1.5 1.5 0 013.001.001zM183 314.5a1.5 1.5 0 11-3.001-.001 1.5 1.5 0 013.001.001zM203 314.5a1.5 1.5 0 11-3.001-.001 1.5 1.5 0 013.001.001zM223 314.5a1.5 1.5 0 11-3.001-.001 1.5 1.5 0 013.001.001zM243 314.5a1.5 1.5 0 11-3.001-.001 1.5 1.5 0 013.001.001zM263 314.5a1.5 1.5 0 11-3.001-.001 1.5 1.5 0 013.001.001zM283 314.5a1.5 1.5 0 11-3.001-.001 1.5 1.5 0 013.001.001zM303 314.5a1.5 1.5 0 11-3.001-.001 1.5 1.5 0 013.001.001zM323 314.5a1.5 1.5 0 11-3.001-.001 1.5 1.5 0 013.001.001zM343 314.5a1.5 1.5 0 11-3.001-.001 1.5 1.5 0 013.001.001zM63 334.5a1.5 1.5 0 11-3 0 1.5 1.5 0 013 0zM83 334.5a1.5 1.5 0 11-3 0 1.5 1.5 0 013 0zM103 334.5a1.5 1.5 0 11-3.001-.001 1.5 1.5 0 013.001.001zM123 334.5a1.5 1.5 0 11-3.001-.001 1.5 1.5 0 013.001.001zM143 334.5a1.5 1.5 0 11-3.001-.001 1.5 1.5 0 013.001.001zM163 334.5a1.5 1.5 0 11-3.001-.001 1.5 1.5 0 013.001.001zM183 334.5a1.5 1.5 0 11-3.001-.001 1.5 1.5 0 013.001.001zM203 334.5a1.5 1.5 0 11-3.001-.001 1.5 1.5 0 013.001.001zM223 334.5a1.5 1.5 0 11-3.001-.001 1.5 1.5 0 013.001.001zM243 334.5a1.5 1.5 0 11-3.001-.001 1.5 1.5 0 013.001.001zM263 334.5a1.5 1.5 0 11-3.001-.001 1.5 1.5 0 013.001.001zM283 334.5a1.5 1.5 0 11-3.001-.001 1.5 1.5 0 013.001.001zM303 334.5a1.5 1.5 0 11-3.001-.001 1.5 1.5 0 013.001.001zM323 334.5a1.5 1.5 0 11-3.001-.001 1.5 1.5 0 013.001.001zM343 334.5a1.5 1.5 0 11-3.001-.001 1.5 1.5 0 013.001.001zM63 354.5a1.5 1.5 0 11-3 0 1.5 1.5 0 013 0zM83 354.5a1.5 1.5 0 11-3 0 1.5 1.5 0 013 0zM103 354.5a1.5 1.5 0 11-3.001-.001 1.5 1.5 0 013.001.001zM123 354.5a1.5 1.5 0 11-3.001-.001 1.5 1.5 0 013.001.001zM143 354.5a1.5 1.5 0 11-3.001-.001 1.5 1.5 0 013.001.001zM163 354.5a1.5 1.5 0 11-3.001-.001 1.5 1.5 0 013.001.001zM183 354.5a1.5 1.5 0 11-3.001-.001 1.5 1.5 0 013.001.001zM203 354.5a1.5 1.5 0 11-3.001-.001 1.5 1.5 0 013.001.001zM223 354.5a1.5 1.5 0 11-3.001-.001 1.5 1.5 0 013.001.001zM243 354.5a1.5 1.5 0 11-3.001-.001 1.5 1.5 0 013.001.001zM263 354.5a1.5 1.5 0 11-3.001-.001 1.5 1.5 0 013.001.001zM283 354.5a1.5 1.5 0 11-3.001-.001 1.5 1.5 0 013.001.001zM303 354.5a1.5 1.5 0 11-3.001-.001 1.5 1.5 0 013.001.001zM323 354.5a1.5 1.5 0 11-3.001-.001 1.5 1.5 0 013.001.001zM343 354.5a1.5 1.5 0 11-3.001-.001 1.5 1.5 0 013.001.001zM63 374.5a1.5 1.5 0 11-3 0 1.5 1.5 0 013 0zM83 374.5a1.5 1.5 0 11-3 0 1.5 1.5 0 013 0zM103 374.5a1.5 1.5 0 11-3.001-.001 1.5 1.5 0 013.001.001zM123 374.5a1.5 1.5 0 11-3.001-.001 1.5 1.5 0 013.001.001zM143 374.5a1.5 1.5 0 11-3.001-.001 1.5 1.5 0 013.001.001zM163 374.5a1.5 1.5 0 11-3.001-.001 1.5 1.5 0 013.001.001zM183 374.5a1.5 1.5 0 11-3.001-.001 1.5 1.5 0 013.001.001zM203 374.5a1.5 1.5 0 11-3.001-.001 1.5 1.5 0 013.001.001zM223 374.5a1.5 1.5 0 11-3.001-.001 1.5 1.5 0 013.001.001zM243 374.5a1.5 1.5 0 11-3.001-.001 1.5 1.5 0 013.001.001zM263 374.5a1.5 1.5 0 11-3.001-.001 1.5 1.5 0 013.001.001zM283 374.5a1.5 1.5 0 11-3.001-.001 1.5 1.5 0 013.001.001zM303 374.5a1.5 1.5 0 11-3.001-.001 1.5 1.5 0 013.001.001zM323 374.5a1.5 1.5 0 11-3.001-.001 1.5 1.5 0 013.001.001zM343 374.5a1.5 1.5 0 11-3.001-.001 1.5 1.5 0 013.001.001zM63 394.5a1.5 1.5 0 11-3 0 1.5 1.5 0 013 0zM83 394.5a1.5 1.5 0 11-3 0 1.5 1.5 0 013 0zM103 394.5a1.5 1.5 0 11-3.001-.001 1.5 1.5 0 013.001.001zM123 394.5a1.5 1.5 0 11-3.001-.001 1.5 1.5 0 013.001.001zM143 394.5a1.5 1.5 0 11-3.001-.001 1.5 1.5 0 013.001.001zM163 394.5a1.5 1.5 0 11-3.001-.001 1.5 1.5 0 013.001.001zM183 394.5a1.5 1.5 0 11-3.001-.001 1.5 1.5 0 013.001.001zM203 394.5a1.5 1.5 0 11-3.001-.001 1.5 1.5 0 013.001.001zM223 394.5a1.5 1.5 0 11-3.001-.001 1.5 1.5 0 013.001.001zM243 394.5a1.5 1.5 0 11-3.001-.001 1.5 1.5 0 013.001.001zM263 394.5a1.5 1.5 0 11-3.001-.001 1.5 1.5 0 013.001.001zM283 394.5a1.5 1.5 0 11-3.001-.001 1.5 1.5 0 013.001.001zM303 394.5a1.5 1.5 0 11-3.001-.001 1.5 1.5 0 013.001.001zM323 394.5a1.5 1.5 0 11-3.001-.001 1.5 1.5 0 013.001.001zM343 394.5a1.5 1.5 0 11-3.001-.001 1.5 1.5 0 013.001.001zM63 414.5a1.5 1.5 0 11-3 0 1.5 1.5 0 013 0zM83 414.5a1.5 1.5 0 11-3 0 1.5 1.5 0 013 0zM103 414.5a1.5 1.5 0 11-3.001-.001 1.5 1.5 0 013.001.001zM123 414.5a1.5 1.5 0 11-3.001-.001 1.5 1.5 0 013.001.001zM143 414.5a1.5 1.5 0 11-3.001-.001 1.5 1.5 0 013.001.001zM163 414.5a1.5 1.5 0 11-3.001-.001 1.5 1.5 0 013.001.001zM183 414.5a1.5 1.5 0 11-3.001-.001 1.5 1.5 0 013.001.001zM203 414.5a1.5 1.5 0 11-3.001-.001 1.5 1.5 0 013.001.001zM223 414.5a1.5 1.5 0 11-3.001-.001 1.5 1.5 0 013.001.001zM243 414.5a1.5 1.5 0 11-3.001-.001 1.5 1.5 0 013.001.001zM263 414.5a1.5 1.5 0 11-3.001-.001 1.5 1.5 0 013.001.001zM283 414.5a1.5 1.5 0 11-3.001-.001 1.5 1.5 0 013.001.001zM303 414.5a1.5 1.5 0 11-3.001-.001 1.5 1.5 0 013.001.001zM323 414.5a1.5 1.5 0 11-3.001-.001 1.5 1.5 0 013.001.001zM343 414.5a1.5 1.5 0 11-3.001-.001 1.5 1.5 0 013.001.001zM63 434.5a1.5 1.5 0 11-3 0 1.5 1.5 0 013 0zM83 434.5a1.5 1.5 0 11-3 0 1.5 1.5 0 013 0zM103 434.5a1.5 1.5 0 11-3.001-.001 1.5 1.5 0 013.001.001zM123 434.5a1.5 1.5 0 11-3.001-.001 1.5 1.5 0 013.001.001zM143 434.5a1.5 1.5 0 11-3.001-.001 1.5 1.5 0 013.001.001zM163 434.5a1.5 1.5 0 11-3.001-.001 1.5 1.5 0 013.001.001zM183 434.5a1.5 1.5 0 11-3.001-.001 1.5 1.5 0 013.001.001zM203 434.5a1.5 1.5 0 11-3.001-.001 1.5 1.5 0 013.001.001zM223 434.5a1.5 1.5 0 11-3.001-.001 1.5 1.5 0 013.001.001zM243 434.5a1.5 1.5 0 11-3.001-.001 1.5 1.5 0 013.001.001zM263 434.5a1.5 1.5 0 11-3.001-.001 1.5 1.5 0 013.001.001zM283 434.5a1.5 1.5 0 11-3.001-.001 1.5 1.5 0 013.001.001zM303 434.5a1.5 1.5 0 11-3.001-.001 1.5 1.5 0 013.001.001zM323 434.5a1.5 1.5 0 11-3.001-.001 1.5 1.5 0 013.001.001zM343 434.5a1.5 1.5 0 11-3.001-.001 1.5 1.5 0 013.001.001zM363 214.5a1.5 1.5 0 11-3.001-.001 1.5 1.5 0 013.001.001zM383 214.5a1.5 1.5 0 11-3.001-.001 1.5 1.5 0 013.001.001zM403 214.5a1.5 1.5 0 11-3.001-.001 1.5 1.5 0 013.001.001zM423 214.5a1.5 1.5 0 11-3.001-.001 1.5 1.5 0 013.001.001zM443 214.5a1.5 1.5 0 11-3.001-.001 1.5 1.5 0 013.001.001zM463 214.5a1.5 1.5 0 11-3.001-.001 1.5 1.5 0 013.001.001zM483 214.5a1.5 1.5 0 11-3.001-.001 1.5 1.5 0 013.001.001zM503 214.5a1.5 1.5 0 11-3.001-.001 1.5 1.5 0 013.001.001zM523 214.5a1.5 1.5 0 11-3.001-.001 1.5 1.5 0 013.001.001zM543 214.5a1.5 1.5 0 11-3.001-.001 1.5 1.5 0 013.001.001zM563 214.5a1.5 1.5 0 11-3.001-.001 1.5 1.5 0 013.001.001zM583 214.5a1.5 1.5 0 11-3.001-.001 1.5 1.5 0 013.001.001zM603 214.5a1.5 1.5 0 11-3.001-.001 1.5 1.5 0 013.001.001zM623 214.5a1.5 1.5 0 11-3.001-.001 1.5 1.5 0 013.001.001zM643 214.5a1.5 1.5 0 11-3.001-.001 1.5 1.5 0 013.001.001zM363 234.5a1.5 1.5 0 11-3.001-.001 1.5 1.5 0 013.001.001zM383 234.5a1.5 1.5 0 11-3.001-.001 1.5 1.5 0 013.001.001zM403 234.5a1.5 1.5 0 11-3.001-.001 1.5 1.5 0 013.001.001zM423 234.5a1.5 1.5 0 11-3.001-.001 1.5 1.5 0 013.001.001zM443 234.5a1.5 1.5 0 11-3.001-.001 1.5 1.5 0 013.001.001zM463 234.5a1.5 1.5 0 11-3.001-.001 1.5 1.5 0 013.001.001zM483 234.5a1.5 1.5 0 11-3.001-.001 1.5 1.5 0 013.001.001zM503 234.5a1.5 1.5 0 11-3.001-.001 1.5 1.5 0 013.001.001zM523 234.5a1.5 1.5 0 11-3.001-.001 1.5 1.5 0 013.001.001zM543 234.5a1.5 1.5 0 11-3.001-.001 1.5 1.5 0 013.001.001zM563 234.5a1.5 1.5 0 11-3.001-.001 1.5 1.5 0 013.001.001zM583 234.5a1.5 1.5 0 11-3.001-.001 1.5 1.5 0 013.001.001zM603 234.5a1.5 1.5 0 11-3.001-.001 1.5 1.5 0 013.001.001zM623 234.5a1.5 1.5 0 11-3.001-.001 1.5 1.5 0 013.001.001zM643 234.5a1.5 1.5 0 11-3.001-.001 1.5 1.5 0 013.001.001zM363 254.5a1.5 1.5 0 11-3.001-.001 1.5 1.5 0 013.001.001zM383 254.5a1.5 1.5 0 11-3.001-.001 1.5 1.5 0 013.001.001zM403 254.5a1.5 1.5 0 11-3.001-.001 1.5 1.5 0 013.001.001zM423 254.5a1.5 1.5 0 11-3.001-.001 1.5 1.5 0 013.001.001zM443 254.5a1.5 1.5 0 11-3.001-.001 1.5 1.5 0 013.001.001zM463 254.5a1.5 1.5 0 11-3.001-.001 1.5 1.5 0 013.001.001zM483 254.5a1.5 1.5 0 11-3.001-.001 1.5 1.5 0 013.001.001zM503 254.5a1.5 1.5 0 11-3.001-.001 1.5 1.5 0 013.001.001zM523 254.5a1.5 1.5 0 11-3.001-.001 1.5 1.5 0 013.001.001zM543 254.5a1.5 1.5 0 11-3.001-.001 1.5 1.5 0 013.001.001zM563 254.5a1.5 1.5 0 11-3.001-.001 1.5 1.5 0 013.001.001zM583 254.5a1.5 1.5 0 11-3.001-.001 1.5 1.5 0 013.001.001zM603 254.5a1.5 1.5 0 11-3.001-.001 1.5 1.5 0 013.001.001zM623 254.5a1.5 1.5 0 11-3.001-.001 1.5 1.5 0 013.001.001zM643 254.5a1.5 1.5 0 11-3.001-.001 1.5 1.5 0 013.001.001zM363 274.5a1.5 1.5 0 11-3.001-.001 1.5 1.5 0 013.001.001zM383 274.5a1.5 1.5 0 11-3.001-.001 1.5 1.5 0 013.001.001zM403 274.5a1.5 1.5 0 11-3.001-.001 1.5 1.5 0 013.001.001zM423 274.5a1.5 1.5 0 11-3.001-.001 1.5 1.5 0 013.001.001zM443 274.5a1.5 1.5 0 11-3.001-.001 1.5 1.5 0 013.001.001zM463 274.5a1.5 1.5 0 11-3.001-.001 1.5 1.5 0 013.001.001zM483 274.5a1.5 1.5 0 11-3.001-.001 1.5 1.5 0 013.001.001zM503 274.5a1.5 1.5 0 11-3.001-.001 1.5 1.5 0 013.001.001zM523 274.5a1.5 1.5 0 11-3.001-.001 1.5 1.5 0 013.001.001zM543 274.5a1.5 1.5 0 11-3.001-.001 1.5 1.5 0 013.001.001zM563 274.5a1.5 1.5 0 11-3.001-.001 1.5 1.5 0 013.001.001zM583 274.5a1.5 1.5 0 11-3.001-.001 1.5 1.5 0 013.001.001zM603 274.5a1.5 1.5 0 11-3.001-.001 1.5 1.5 0 013.001.001zM623 274.5a1.5 1.5 0 11-3.001-.001 1.5 1.5 0 013.001.001zM643 274.5a1.5 1.5 0 11-3.001-.001 1.5 1.5 0 013.001.001zM363 294.5a1.5 1.5 0 11-3.001-.001 1.5 1.5 0 013.001.001zM383 294.5a1.5 1.5 0 11-3.001-.001 1.5 1.5 0 013.001.001zM403 294.5a1.5 1.5 0 11-3.001-.001 1.5 1.5 0 013.001.001zM423 294.5a1.5 1.5 0 11-3.001-.001 1.5 1.5 0 013.001.001zM443 294.5a1.5 1.5 0 11-3.001-.001 1.5 1.5 0 013.001.001zM463 294.5a1.5 1.5 0 11-3.001-.001 1.5 1.5 0 013.001.001zM483 294.5a1.5 1.5 0 11-3.001-.001 1.5 1.5 0 013.001.001zM503 294.5a1.5 1.5 0 11-3.001-.001 1.5 1.5 0 013.001.001zM523 294.5a1.5 1.5 0 11-3.001-.001 1.5 1.5 0 013.001.001zM543 294.5a1.5 1.5 0 11-3.001-.001 1.5 1.5 0 013.001.001zM563 294.5a1.5 1.5 0 11-3.001-.001 1.5 1.5 0 013.001.001zM583 294.5a1.5 1.5 0 11-3.001-.001 1.5 1.5 0 013.001.001zM603 294.5a1.5 1.5 0 11-3.001-.001 1.5 1.5 0 013.001.001zM623 294.5a1.5 1.5 0 11-3.001-.001 1.5 1.5 0 013.001.001zM643 294.5a1.5 1.5 0 11-3.001-.001 1.5 1.5 0 013.001.001zM363 314.5a1.5 1.5 0 11-3.001-.001 1.5 1.5 0 013.001.001zM383 314.5a1.5 1.5 0 11-3.001-.001 1.5 1.5 0 013.001.001zM403 314.5a1.5 1.5 0 11-3.001-.001 1.5 1.5 0 013.001.001zM423 314.5a1.5 1.5 0 11-3.001-.001 1.5 1.5 0 013.001.001zM443 314.5a1.5 1.5 0 11-3.001-.001 1.5 1.5 0 013.001.001zM463 314.5a1.5 1.5 0 11-3.001-.001 1.5 1.5 0 013.001.001zM483 314.5a1.5 1.5 0 11-3.001-.001 1.5 1.5 0 013.001.001zM503 314.5a1.5 1.5 0 11-3.001-.001 1.5 1.5 0 013.001.001zM523 314.5a1.5 1.5 0 11-3.001-.001 1.5 1.5 0 013.001.001zM543 314.5a1.5 1.5 0 11-3.001-.001 1.5 1.5 0 013.001.001zM563 314.5a1.5 1.5 0 11-3.001-.001 1.5 1.5 0 013.001.001zM583 314.5a1.5 1.5 0 11-3.001-.001 1.5 1.5 0 013.001.001zM603 314.5a1.5 1.5 0 11-3.001-.001 1.5 1.5 0 013.001.001zM623 314.5a1.5 1.5 0 11-3.001-.001 1.5 1.5 0 013.001.001zM643 314.5a1.5 1.5 0 11-3.001-.001 1.5 1.5 0 013.001.001zM363 334.5a1.5 1.5 0 11-3.001-.001 1.5 1.5 0 013.001.001zM383 334.5a1.5 1.5 0 11-3.001-.001 1.5 1.5 0 013.001.001zM403 334.5a1.5 1.5 0 11-3.001-.001 1.5 1.5 0 013.001.001zM423 334.5a1.5 1.5 0 11-3.001-.001 1.5 1.5 0 013.001.001zM443 334.5a1.5 1.5 0 11-3.001-.001 1.5 1.5 0 013.001.001zM463 334.5a1.5 1.5 0 11-3.001-.001 1.5 1.5 0 013.001.001zM483 334.5a1.5 1.5 0 11-3.001-.001 1.5 1.5 0 013.001.001zM503 334.5a1.5 1.5 0 11-3.001-.001 1.5 1.5 0 013.001.001zM523 334.5a1.5 1.5 0 11-3.001-.001 1.5 1.5 0 013.001.001zM543 334.5a1.5 1.5 0 11-3.001-.001 1.5 1.5 0 013.001.001zM563 334.5a1.5 1.5 0 11-3.001-.001 1.5 1.5 0 013.001.001zM583 334.5a1.5 1.5 0 11-3.001-.001 1.5 1.5 0 013.001.001zM603 334.5a1.5 1.5 0 11-3.001-.001 1.5 1.5 0 013.001.001zM623 334.5a1.5 1.5 0 11-3.001-.001 1.5 1.5 0 013.001.001zM643 334.5a1.5 1.5 0 11-3.001-.001 1.5 1.5 0 013.001.001zM363 354.5a1.5 1.5 0 11-3.001-.001 1.5 1.5 0 013.001.001zM383 354.5a1.5 1.5 0 11-3.001-.001 1.5 1.5 0 013.001.001zM403 354.5a1.5 1.5 0 11-3.001-.001 1.5 1.5 0 013.001.001zM423 354.5a1.5 1.5 0 11-3.001-.001 1.5 1.5 0 013.001.001zM443 354.5a1.5 1.5 0 11-3.001-.001 1.5 1.5 0 013.001.001zM463 354.5a1.5 1.5 0 11-3.001-.001 1.5 1.5 0 013.001.001zM483 354.5a1.5 1.5 0 11-3.001-.001 1.5 1.5 0 013.001.001zM503 354.5a1.5 1.5 0 11-3.001-.001 1.5 1.5 0 013.001.001zM523 354.5a1.5 1.5 0 11-3.001-.001 1.5 1.5 0 013.001.001zM543 354.5a1.5 1.5 0 11-3.001-.001 1.5 1.5 0 013.001.001zM563 354.5a1.5 1.5 0 11-3.001-.001 1.5 1.5 0 013.001.001zM583 354.5a1.5 1.5 0 11-3.001-.001 1.5 1.5 0 013.001.001zM603 354.5a1.5 1.5 0 11-3.001-.001 1.5 1.5 0 013.001.001zM623 354.5a1.5 1.5 0 11-3.001-.001 1.5 1.5 0 013.001.001zM643 354.5a1.5 1.5 0 11-3.001-.001 1.5 1.5 0 013.001.001zM363 374.5a1.5 1.5 0 11-3.001-.001 1.5 1.5 0 013.001.001zM383 374.5a1.5 1.5 0 11-3.001-.001 1.5 1.5 0 013.001.001zM403 374.5a1.5 1.5 0 11-3.001-.001 1.5 1.5 0 013.001.001zM423 374.5a1.5 1.5 0 11-3.001-.001 1.5 1.5 0 013.001.001zM443 374.5a1.5 1.5 0 11-3.001-.001 1.5 1.5 0 013.001.001zM463 374.5a1.5 1.5 0 11-3.001-.001 1.5 1.5 0 013.001.001zM483 374.5a1.5 1.5 0 11-3.001-.001 1.5 1.5 0 013.001.001zM503 374.5a1.5 1.5 0 11-3.001-.001 1.5 1.5 0 013.001.001zM523 374.5a1.5 1.5 0 11-3.001-.001 1.5 1.5 0 013.001.001zM543 374.5a1.5 1.5 0 11-3.001-.001 1.5 1.5 0 013.001.001zM563 374.5a1.5 1.5 0 11-3.001-.001 1.5 1.5 0 013.001.001zM583 374.5a1.5 1.5 0 11-3.001-.001 1.5 1.5 0 013.001.001zM603 374.5a1.5 1.5 0 11-3.001-.001 1.5 1.5 0 013.001.001zM623 374.5a1.5 1.5 0 11-3.001-.001 1.5 1.5 0 013.001.001zM643 374.5a1.5 1.5 0 11-3.001-.001 1.5 1.5 0 013.001.001zM363 394.5a1.5 1.5 0 11-3.001-.001 1.5 1.5 0 013.001.001zM383 394.5a1.5 1.5 0 11-3.001-.001 1.5 1.5 0 013.001.001zM403 394.5a1.5 1.5 0 11-3.001-.001 1.5 1.5 0 013.001.001zM423 394.5a1.5 1.5 0 11-3.001-.001 1.5 1.5 0 013.001.001zM443 394.5a1.5 1.5 0 11-3.001-.001 1.5 1.5 0 013.001.001zM463 394.5a1.5 1.5 0 11-3.001-.001 1.5 1.5 0 013.001.001zM483 394.5a1.5 1.5 0 11-3.001-.001 1.5 1.5 0 013.001.001zM503 394.5a1.5 1.5 0 11-3.001-.001 1.5 1.5 0 013.001.001zM523 394.5a1.5 1.5 0 11-3.001-.001 1.5 1.5 0 013.001.001zM543 394.5a1.5 1.5 0 11-3.001-.001 1.5 1.5 0 013.001.001zM563 394.5a1.5 1.5 0 11-3.001-.001 1.5 1.5 0 013.001.001zM583 394.5a1.5 1.5 0 11-3.001-.001 1.5 1.5 0 013.001.001zM603 394.5a1.5 1.5 0 11-3.001-.001 1.5 1.5 0 013.001.001zM623 394.5a1.5 1.5 0 11-3.001-.001 1.5 1.5 0 013.001.001zM643 394.5a1.5 1.5 0 11-3.001-.001 1.5 1.5 0 013.001.001zM363 414.5a1.5 1.5 0 11-3.001-.001 1.5 1.5 0 013.001.001zM383 414.5a1.5 1.5 0 11-3.001-.001 1.5 1.5 0 013.001.001zM403 414.5a1.5 1.5 0 11-3.001-.001 1.5 1.5 0 013.001.001zM423 414.5a1.5 1.5 0 11-3.001-.001 1.5 1.5 0 013.001.001zM443 414.5a1.5 1.5 0 11-3.001-.001 1.5 1.5 0 013.001.001zM463 414.5a1.5 1.5 0 11-3.001-.001 1.5 1.5 0 013.001.001zM483 414.5a1.5 1.5 0 11-3.001-.001 1.5 1.5 0 013.001.001zM503 414.5a1.5 1.5 0 11-3.001-.001 1.5 1.5 0 013.001.001zM523 414.5a1.5 1.5 0 11-3.001-.001 1.5 1.5 0 013.001.001zM543 414.5a1.5 1.5 0 11-3.001-.001 1.5 1.5 0 013.001.001zM563 414.5a1.5 1.5 0 11-3.001-.001 1.5 1.5 0 013.001.001zM583 414.5a1.5 1.5 0 11-3.001-.001 1.5 1.5 0 013.001.001zM603 414.5a1.5 1.5 0 11-3.001-.001 1.5 1.5 0 013.001.001zM623 414.5a1.5 1.5 0 11-3.001-.001 1.5 1.5 0 013.001.001zM643 414.5a1.5 1.5 0 11-3.001-.001 1.5 1.5 0 013.001.001zM363 434.5a1.5 1.5 0 11-3.001-.001 1.5 1.5 0 013.001.001zM383 434.5a1.5 1.5 0 11-3.001-.001 1.5 1.5 0 013.001.001zM403 434.5a1.5 1.5 0 11-3.001-.001 1.5 1.5 0 013.001.001zM423 434.5a1.5 1.5 0 11-3.001-.001 1.5 1.5 0 013.001.001zM443 434.5a1.5 1.5 0 11-3.001-.001 1.5 1.5 0 013.001.001zM463 434.5a1.5 1.5 0 11-3.001-.001 1.5 1.5 0 013.001.001zM483 434.5a1.5 1.5 0 11-3.001-.001 1.5 1.5 0 013.001.001zM503 434.5a1.5 1.5 0 11-3.001-.001 1.5 1.5 0 013.001.001zM523 434.5a1.5 1.5 0 11-3.001-.001 1.5 1.5 0 013.001.001zM543 434.5a1.5 1.5 0 11-3.001-.001 1.5 1.5 0 013.001.001zM563 434.5a1.5 1.5 0 11-3.001-.001 1.5 1.5 0 013.001.001zM583 434.5a1.5 1.5 0 11-3.001-.001 1.5 1.5 0 013.001.001zM603 434.5a1.5 1.5 0 11-3.001-.001 1.5 1.5 0 013.001.001zM623 434.5a1.5 1.5 0 11-3.001-.001 1.5 1.5 0 013.001.001zM643 434.5a1.5 1.5 0 11-3.001-.001 1.5 1.5 0 013.001.001zM663 214.5a1.5 1.5 0 11-3.001-.001 1.5 1.5 0 013.001.001zM683 214.5a1.5 1.5 0 11-3.001-.001 1.5 1.5 0 013.001.001zM703 214.5a1.5 1.5 0 11-3.001-.001 1.5 1.5 0 013.001.001zM723 214.5a1.5 1.5 0 11-3.001-.001 1.5 1.5 0 013.001.001zM743 214.5a1.5 1.5 0 11-3.001-.001 1.5 1.5 0 013.001.001zM763 214.5a1.5 1.5 0 11-3.001-.001 1.5 1.5 0 013.001.001zM783 214.5a1.5 1.5 0 11-3.001-.001 1.5 1.5 0 013.001.001zM803 214.5a1.5 1.5 0 11-3.001-.001 1.5 1.5 0 013.001.001zM823 214.5a1.5 1.5 0 11-3.001-.001 1.5 1.5 0 013.001.001zM663 234.5a1.5 1.5 0 11-3.001-.001 1.5 1.5 0 013.001.001zM683 234.5a1.5 1.5 0 11-3.001-.001 1.5 1.5 0 013.001.001zM703 234.5a1.5 1.5 0 11-3.001-.001 1.5 1.5 0 013.001.001zM723 234.5a1.5 1.5 0 11-3.001-.001 1.5 1.5 0 013.001.001zM743 234.5a1.5 1.5 0 11-3.001-.001 1.5 1.5 0 013.001.001zM763 234.5a1.5 1.5 0 11-3.001-.001 1.5 1.5 0 013.001.001zM783 234.5a1.5 1.5 0 11-3.001-.001 1.5 1.5 0 013.001.001zM803 234.5a1.5 1.5 0 11-3.001-.001 1.5 1.5 0 013.001.001zM823 234.5a1.5 1.5 0 11-3.001-.001 1.5 1.5 0 013.001.001zM663 254.5a1.5 1.5 0 11-3.001-.001 1.5 1.5 0 013.001.001zM683 254.5a1.5 1.5 0 11-3.001-.001 1.5 1.5 0 013.001.001zM703 254.5a1.5 1.5 0 11-3.001-.001 1.5 1.5 0 013.001.001zM723 254.5a1.5 1.5 0 11-3.001-.001 1.5 1.5 0 013.001.001zM743 254.5a1.5 1.5 0 11-3.001-.001 1.5 1.5 0 013.001.001zM763 254.5a1.5 1.5 0 11-3.001-.001 1.5 1.5 0 013.001.001zM783 254.5a1.5 1.5 0 11-3.001-.001 1.5 1.5 0 013.001.001zM803 254.5a1.5 1.5 0 11-3.001-.001 1.5 1.5 0 013.001.001zM823 254.5a1.5 1.5 0 11-3.001-.001 1.5 1.5 0 013.001.001zM663 274.5a1.5 1.5 0 11-3.001-.001 1.5 1.5 0 013.001.001zM683 274.5a1.5 1.5 0 11-3.001-.001 1.5 1.5 0 013.001.001zM703 274.5a1.5 1.5 0 11-3.001-.001 1.5 1.5 0 013.001.001zM723 274.5a1.5 1.5 0 11-3.001-.001 1.5 1.5 0 013.001.001zM743 274.5a1.5 1.5 0 11-3.001-.001 1.5 1.5 0 013.001.001zM763 274.5a1.5 1.5 0 11-3.001-.001 1.5 1.5 0 013.001.001zM783 274.5a1.5 1.5 0 11-3.001-.001 1.5 1.5 0 013.001.001zM803 274.5a1.5 1.5 0 11-3.001-.001 1.5 1.5 0 013.001.001zM823 274.5a1.5 1.5 0 11-3.001-.001 1.5 1.5 0 013.001.001zM663 294.5a1.5 1.5 0 11-3.001-.001 1.5 1.5 0 013.001.001zM683 294.5a1.5 1.5 0 11-3.001-.001 1.5 1.5 0 013.001.001zM703 294.5a1.5 1.5 0 11-3.001-.001 1.5 1.5 0 013.001.001zM723 294.5a1.5 1.5 0 11-3.001-.001 1.5 1.5 0 013.001.001zM743 294.5a1.5 1.5 0 11-3.001-.001 1.5 1.5 0 013.001.001zM763 294.5a1.5 1.5 0 11-3.001-.001 1.5 1.5 0 013.001.001zM783 294.5a1.5 1.5 0 11-3.001-.001 1.5 1.5 0 013.001.001zM803 294.5a1.5 1.5 0 11-3.001-.001 1.5 1.5 0 013.001.001zM823 294.5a1.5 1.5 0 11-3.001-.001 1.5 1.5 0 013.001.001zM663 314.5a1.5 1.5 0 11-3.001-.001 1.5 1.5 0 013.001.001zM683 314.5a1.5 1.5 0 11-3.001-.001 1.5 1.5 0 013.001.001zM703 314.5a1.5 1.5 0 11-3.001-.001 1.5 1.5 0 013.001.001zM723 314.5a1.5 1.5 0 11-3.001-.001 1.5 1.5 0 013.001.001zM743 314.5a1.5 1.5 0 11-3.001-.001 1.5 1.5 0 013.001.001zM763 314.5a1.5 1.5 0 11-3.001-.001 1.5 1.5 0 013.001.001zM783 314.5a1.5 1.5 0 11-3.001-.001 1.5 1.5 0 013.001.001zM803 314.5a1.5 1.5 0 11-3.001-.001 1.5 1.5 0 013.001.001zM823 314.5a1.5 1.5 0 11-3.001-.001 1.5 1.5 0 013.001.001zM663 334.5a1.5 1.5 0 11-3.001-.001 1.5 1.5 0 013.001.001zM683 334.5a1.5 1.5 0 11-3.001-.001 1.5 1.5 0 013.001.001zM703 334.5a1.5 1.5 0 11-3.001-.001 1.5 1.5 0 013.001.001zM723 334.5a1.5 1.5 0 11-3.001-.001 1.5 1.5 0 013.001.001zM743 334.5a1.5 1.5 0 11-3.001-.001 1.5 1.5 0 013.001.001zM763 334.5a1.5 1.5 0 11-3.001-.001 1.5 1.5 0 013.001.001zM783 334.5a1.5 1.5 0 11-3.001-.001 1.5 1.5 0 013.001.001zM803 334.5a1.5 1.5 0 11-3.001-.001 1.5 1.5 0 013.001.001zM823 334.5a1.5 1.5 0 11-3.001-.001 1.5 1.5 0 013.001.001zM663 354.5a1.5 1.5 0 11-3.001-.001 1.5 1.5 0 013.001.001zM683 354.5a1.5 1.5 0 11-3.001-.001 1.5 1.5 0 013.001.001zM703 354.5a1.5 1.5 0 11-3.001-.001 1.5 1.5 0 013.001.001zM723 354.5a1.5 1.5 0 11-3.001-.001 1.5 1.5 0 013.001.001zM743 354.5a1.5 1.5 0 11-3.001-.001 1.5 1.5 0 013.001.001zM763 354.5a1.5 1.5 0 11-3.001-.001 1.5 1.5 0 013.001.001zM783 354.5a1.5 1.5 0 11-3.001-.001 1.5 1.5 0 013.001.001zM803 354.5a1.5 1.5 0 11-3.001-.001 1.5 1.5 0 013.001.001zM823 354.5a1.5 1.5 0 11-3.001-.001 1.5 1.5 0 013.001.001zM663 374.5a1.5 1.5 0 11-3.001-.001 1.5 1.5 0 013.001.001zM683 374.5a1.5 1.5 0 11-3.001-.001 1.5 1.5 0 013.001.001zM703 374.5a1.5 1.5 0 11-3.001-.001 1.5 1.5 0 013.001.001zM723 374.5a1.5 1.5 0 11-3.001-.001 1.5 1.5 0 013.001.001zM743 374.5a1.5 1.5 0 11-3.001-.001 1.5 1.5 0 013.001.001zM763 374.5a1.5 1.5 0 11-3.001-.001 1.5 1.5 0 013.001.001zM783 374.5a1.5 1.5 0 11-3.001-.001 1.5 1.5 0 013.001.001zM803 374.5a1.5 1.5 0 11-3.001-.001 1.5 1.5 0 013.001.001zM823 374.5a1.5 1.5 0 11-3.001-.001 1.5 1.5 0 013.001.001zM663 394.5a1.5 1.5 0 11-3.001-.001 1.5 1.5 0 013.001.001zM683 394.5a1.5 1.5 0 11-3.001-.001 1.5 1.5 0 013.001.001zM703 394.5a1.5 1.5 0 11-3.001-.001 1.5 1.5 0 013.001.001zM723 394.5a1.5 1.5 0 11-3.001-.001 1.5 1.5 0 013.001.001zM743 394.5a1.5 1.5 0 11-3.001-.001 1.5 1.5 0 013.001.001zM763 394.5a1.5 1.5 0 11-3.001-.001 1.5 1.5 0 013.001.001zM783 394.5a1.5 1.5 0 11-3.001-.001 1.5 1.5 0 013.001.001zM803 394.5a1.5 1.5 0 11-3.001-.001 1.5 1.5 0 013.001.001zM823 394.5a1.5 1.5 0 11-3.001-.001 1.5 1.5 0 013.001.001zM663 414.5a1.5 1.5 0 11-3.001-.001 1.5 1.5 0 013.001.001zM683 414.5a1.5 1.5 0 11-3.001-.001 1.5 1.5 0 013.001.001zM703 414.5a1.5 1.5 0 11-3.001-.001 1.5 1.5 0 013.001.001zM723 414.5a1.5 1.5 0 11-3.001-.001 1.5 1.5 0 013.001.001zM743 414.5a1.5 1.5 0 11-3.001-.001 1.5 1.5 0 013.001.001zM763 414.5a1.5 1.5 0 11-3.001-.001 1.5 1.5 0 013.001.001zM783 414.5a1.5 1.5 0 11-3.001-.001 1.5 1.5 0 013.001.001zM803 414.5a1.5 1.5 0 11-3.001-.001 1.5 1.5 0 013.001.001zM823 414.5a1.5 1.5 0 11-3.001-.001 1.5 1.5 0 013.001.001zM663 434.5a1.5 1.5 0 11-3.001-.001 1.5 1.5 0 013.001.001zM683 434.5a1.5 1.5 0 11-3.001-.001 1.5 1.5 0 013.001.001zM703 434.5a1.5 1.5 0 11-3.001-.001 1.5 1.5 0 013.001.001zM723 434.5a1.5 1.5 0 11-3.001-.001 1.5 1.5 0 013.001.001zM743 434.5a1.5 1.5 0 11-3.001-.001 1.5 1.5 0 013.001.001zM763 434.5a1.5 1.5 0 11-3.001-.001 1.5 1.5 0 013.001.001zM783 434.5a1.5 1.5 0 11-3.001-.001 1.5 1.5 0 013.001.001zM803 434.5a1.5 1.5 0 11-3.001-.001 1.5 1.5 0 013.001.001zM823 434.5a1.5 1.5 0 11-3.001-.001 1.5 1.5 0 013.001.001zM23 454.5a1.5 1.5 0 11-3 0 1.5 1.5 0 013 0zM43 454.5a1.5 1.5 0 11-3 0 1.5 1.5 0 013 0zM23 474.5a1.5 1.5 0 11-3 0 1.5 1.5 0 013 0zM43 474.5a1.5 1.5 0 11-3 0 1.5 1.5 0 013 0zM23 494.5a1.5 1.5 0 11-3 0 1.5 1.5 0 013 0zM43 494.5a1.5 1.5 0 11-3 0 1.5 1.5 0 013 0zM23 514.5a1.5 1.5 0 11-3 0 1.5 1.5 0 013 0zM43 514.5a1.5 1.5 0 11-3 0 1.5 1.5 0 013 0zM23 534.5a1.5 1.5 0 11-3 0 1.5 1.5 0 013 0zM43 534.5a1.5 1.5 0 11-3 0 1.5 1.5 0 013 0zM43 554.5a1.5 1.5 0 11-3 0 1.5 1.5 0 013 0zM63 454.5a1.5 1.5 0 11-3 0 1.5 1.5 0 013 0zM83 454.5a1.5 1.5 0 11-3 0 1.5 1.5 0 013 0zM103 454.5a1.5 1.5 0 11-3.001-.001 1.5 1.5 0 013.001.001zM123 454.5a1.5 1.5 0 11-3.001-.001 1.5 1.5 0 013.001.001zM143 454.5a1.5 1.5 0 11-3.001-.001 1.5 1.5 0 013.001.001zM163 454.5a1.5 1.5 0 11-3.001-.001 1.5 1.5 0 013.001.001zM183 454.5a1.5 1.5 0 11-3.001-.001 1.5 1.5 0 013.001.001zM203 454.5a1.5 1.5 0 11-3.001-.001 1.5 1.5 0 013.001.001zM223 454.5a1.5 1.5 0 11-3.001-.001 1.5 1.5 0 013.001.001zM243 454.5a1.5 1.5 0 11-3.001-.001 1.5 1.5 0 013.001.001zM263 454.5a1.5 1.5 0 11-3.001-.001 1.5 1.5 0 013.001.001zM283 454.5a1.5 1.5 0 11-3.001-.001 1.5 1.5 0 013.001.001zM303 454.5a1.5 1.5 0 11-3.001-.001 1.5 1.5 0 013.001.001zM323 454.5a1.5 1.5 0 11-3.001-.001 1.5 1.5 0 013.001.001zM343 454.5a1.5 1.5 0 11-3.001-.001 1.5 1.5 0 013.001.001zM63 474.5a1.5 1.5 0 11-3 0 1.5 1.5 0 013 0zM83 474.5a1.5 1.5 0 11-3 0 1.5 1.5 0 013 0zM103 474.5a1.5 1.5 0 11-3.001-.001 1.5 1.5 0 013.001.001zM123 474.5a1.5 1.5 0 11-3.001-.001 1.5 1.5 0 013.001.001zM143 474.5a1.5 1.5 0 11-3.001-.001 1.5 1.5 0 013.001.001zM163 474.5a1.5 1.5 0 11-3.001-.001 1.5 1.5 0 013.001.001zM183 474.5a1.5 1.5 0 11-3.001-.001 1.5 1.5 0 013.001.001zM203 474.5a1.5 1.5 0 11-3.001-.001 1.5 1.5 0 013.001.001zM223 474.5a1.5 1.5 0 11-3.001-.001 1.5 1.5 0 013.001.001zM243 474.5a1.5 1.5 0 11-3.001-.001 1.5 1.5 0 013.001.001zM263 474.5a1.5 1.5 0 11-3.001-.001 1.5 1.5 0 013.001.001zM283 474.5a1.5 1.5 0 11-3.001-.001 1.5 1.5 0 013.001.001zM303 474.5a1.5 1.5 0 11-3.001-.001 1.5 1.5 0 013.001.001zM323 474.5a1.5 1.5 0 11-3.001-.001 1.5 1.5 0 013.001.001zM343 474.5a1.5 1.5 0 11-3.001-.001 1.5 1.5 0 013.001.001zM63 494.5a1.5 1.5 0 11-3 0 1.5 1.5 0 013 0zM83 494.5a1.5 1.5 0 11-3 0 1.5 1.5 0 013 0zM103 494.5a1.5 1.5 0 11-3.001-.001 1.5 1.5 0 013.001.001zM123 494.5a1.5 1.5 0 11-3.001-.001 1.5 1.5 0 013.001.001zM143 494.5a1.5 1.5 0 11-3.001-.001 1.5 1.5 0 013.001.001zM163 494.5a1.5 1.5 0 11-3.001-.001 1.5 1.5 0 013.001.001zM183 494.5a1.5 1.5 0 11-3.001-.001 1.5 1.5 0 013.001.001zM203 494.5a1.5 1.5 0 11-3.001-.001 1.5 1.5 0 013.001.001zM223 494.5a1.5 1.5 0 11-3.001-.001 1.5 1.5 0 013.001.001zM243 494.5a1.5 1.5 0 11-3.001-.001 1.5 1.5 0 013.001.001zM263 494.5a1.5 1.5 0 11-3.001-.001 1.5 1.5 0 013.001.001zM283 494.5a1.5 1.5 0 11-3.001-.001 1.5 1.5 0 013.001.001zM303 494.5a1.5 1.5 0 11-3.001-.001 1.5 1.5 0 013.001.001zM323 494.5a1.5 1.5 0 11-3.001-.001 1.5 1.5 0 013.001.001zM343 494.5a1.5 1.5 0 11-3.001-.001 1.5 1.5 0 013.001.001zM63 514.5a1.5 1.5 0 11-3 0 1.5 1.5 0 013 0zM83 514.5a1.5 1.5 0 11-3 0 1.5 1.5 0 013 0zM103 514.5a1.5 1.5 0 11-3.001-.001 1.5 1.5 0 013.001.001zM123 514.5a1.5 1.5 0 11-3.001-.001 1.5 1.5 0 013.001.001zM143 514.5a1.5 1.5 0 11-3.001-.001 1.5 1.5 0 013.001.001zM163 514.5a1.5 1.5 0 11-3.001-.001 1.5 1.5 0 013.001.001zM183 514.5a1.5 1.5 0 11-3.001-.001 1.5 1.5 0 013.001.001zM203 514.5a1.5 1.5 0 11-3.001-.001 1.5 1.5 0 013.001.001zM223 514.5a1.5 1.5 0 11-3.001-.001 1.5 1.5 0 013.001.001zM243 514.5a1.5 1.5 0 11-3.001-.001 1.5 1.5 0 013.001.001zM263 514.5a1.5 1.5 0 11-3.001-.001 1.5 1.5 0 013.001.001zM283 514.5a1.5 1.5 0 11-3.001-.001 1.5 1.5 0 013.001.001zM303 514.5a1.5 1.5 0 11-3.001-.001 1.5 1.5 0 013.001.001zM323 514.5a1.5 1.5 0 11-3.001-.001 1.5 1.5 0 013.001.001zM343 514.5a1.5 1.5 0 11-3.001-.001 1.5 1.5 0 013.001.001zM63 534.5a1.5 1.5 0 11-3 0 1.5 1.5 0 013 0zM83 534.5a1.5 1.5 0 11-3 0 1.5 1.5 0 013 0zM103 534.5a1.5 1.5 0 11-3.001-.001 1.5 1.5 0 013.001.001zM123 534.5a1.5 1.5 0 11-3.001-.001 1.5 1.5 0 013.001.001zM143 534.5a1.5 1.5 0 11-3.001-.001 1.5 1.5 0 013.001.001zM163 534.5a1.5 1.5 0 11-3.001-.001 1.5 1.5 0 013.001.001zM183 534.5a1.5 1.5 0 11-3.001-.001 1.5 1.5 0 013.001.001zM203 534.5a1.5 1.5 0 11-3.001-.001 1.5 1.5 0 013.001.001zM223 534.5a1.5 1.5 0 11-3.001-.001 1.5 1.5 0 013.001.001zM243 534.5a1.5 1.5 0 11-3.001-.001 1.5 1.5 0 013.001.001zM263 534.5a1.5 1.5 0 11-3.001-.001 1.5 1.5 0 013.001.001zM283 534.5a1.5 1.5 0 11-3.001-.001 1.5 1.5 0 013.001.001zM303 534.5a1.5 1.5 0 11-3.001-.001 1.5 1.5 0 013.001.001zM323 534.5a1.5 1.5 0 11-3.001-.001 1.5 1.5 0 013.001.001zM343 534.5a1.5 1.5 0 11-3.001-.001 1.5 1.5 0 013.001.001zM63 554.5a1.5 1.5 0 11-3 0 1.5 1.5 0 013 0zM83 554.5a1.5 1.5 0 11-3 0 1.5 1.5 0 013 0zM103 554.5a1.5 1.5 0 11-3.001-.001 1.5 1.5 0 013.001.001zM123 554.5a1.5 1.5 0 11-3.001-.001 1.5 1.5 0 013.001.001zM143 554.5a1.5 1.5 0 11-3.001-.001 1.5 1.5 0 013.001.001zM163 554.5a1.5 1.5 0 11-3.001-.001 1.5 1.5 0 013.001.001zM183 554.5a1.5 1.5 0 11-3.001-.001 1.5 1.5 0 013.001.001zM203 554.5a1.5 1.5 0 11-3.001-.001 1.5 1.5 0 013.001.001zM223 554.5a1.5 1.5 0 11-3.001-.001 1.5 1.5 0 013.001.001zM243 554.5a1.5 1.5 0 11-3.001-.001 1.5 1.5 0 013.001.001zM263 554.5a1.5 1.5 0 11-3.001-.001 1.5 1.5 0 013.001.001zM283 554.5a1.5 1.5 0 11-3.001-.001 1.5 1.5 0 013.001.001zM303 554.5a1.5 1.5 0 11-3.001-.001 1.5 1.5 0 013.001.001zM323 554.5a1.5 1.5 0 11-3.001-.001 1.5 1.5 0 013.001.001zM343 554.5a1.5 1.5 0 11-3.001-.001 1.5 1.5 0 013.001.001zM63 574.5a1.5 1.5 0 11-3 0 1.5 1.5 0 013 0zM83 574.5a1.5 1.5 0 11-3 0 1.5 1.5 0 013 0zM103 574.5a1.5 1.5 0 11-3.001-.001 1.5 1.5 0 013.001.001zM123 574.5a1.5 1.5 0 11-3.001-.001 1.5 1.5 0 013.001.001zM143 574.5a1.5 1.5 0 11-3.001-.001 1.5 1.5 0 013.001.001zM163 574.5a1.5 1.5 0 11-3.001-.001 1.5 1.5 0 013.001.001zM183 574.5a1.5 1.5 0 11-3.001-.001 1.5 1.5 0 013.001.001zM203 574.5a1.5 1.5 0 11-3.001-.001 1.5 1.5 0 013.001.001zM223 574.5a1.5 1.5 0 11-3.001-.001 1.5 1.5 0 013.001.001zM243 574.5a1.5 1.5 0 11-3.001-.001 1.5 1.5 0 013.001.001zM263 574.5a1.5 1.5 0 11-3.001-.001 1.5 1.5 0 013.001.001zM283 574.5a1.5 1.5 0 11-3.001-.001 1.5 1.5 0 013.001.001zM303 574.5a1.5 1.5 0 11-3.001-.001 1.5 1.5 0 013.001.001zM323 574.5a1.5 1.5 0 11-3.001-.001 1.5 1.5 0 013.001.001zM343 574.5a1.5 1.5 0 11-3.001-.001 1.5 1.5 0 013.001.001zM83 594.5a1.5 1.5 0 11-3 0 1.5 1.5 0 013 0zM103 594.5a1.5 1.5 0 11-3.001-.001 1.5 1.5 0 013.001.001zM123 594.5a1.5 1.5 0 11-3.001-.001 1.5 1.5 0 013.001.001zM143 594.5a1.5 1.5 0 11-3.001-.001 1.5 1.5 0 013.001.001zM163 594.5a1.5 1.5 0 11-3.001-.001 1.5 1.5 0 013.001.001zM183 594.5a1.5 1.5 0 11-3.001-.001 1.5 1.5 0 013.001.001zM203 594.5a1.5 1.5 0 11-3.001-.001 1.5 1.5 0 013.001.001zM223 594.5a1.5 1.5 0 11-3.001-.001 1.5 1.5 0 013.001.001zM243 594.5a1.5 1.5 0 11-3.001-.001 1.5 1.5 0 013.001.001zM263 594.5a1.5 1.5 0 11-3.001-.001 1.5 1.5 0 013.001.001zM283 594.5a1.5 1.5 0 11-3.001-.001 1.5 1.5 0 013.001.001zM303 594.5a1.5 1.5 0 11-3.001-.001 1.5 1.5 0 013.001.001zM323 594.5a1.5 1.5 0 11-3.001-.001 1.5 1.5 0 013.001.001zM343 594.5a1.5 1.5 0 11-3.001-.001 1.5 1.5 0 013.001.001zM83 614.5a1.5 1.5 0 11-3 0 1.5 1.5 0 013 0zM103 614.5a1.5 1.5 0 11-3.001-.001 1.5 1.5 0 013.001.001zM123 614.5a1.5 1.5 0 11-3.001-.001 1.5 1.5 0 013.001.001zM143 614.5a1.5 1.5 0 11-3.001-.001 1.5 1.5 0 013.001.001zM163 614.5a1.5 1.5 0 11-3.001-.001 1.5 1.5 0 013.001.001zM183 614.5a1.5 1.5 0 11-3.001-.001 1.5 1.5 0 013.001.001zM203 614.5a1.5 1.5 0 11-3.001-.001 1.5 1.5 0 013.001.001zM223 614.5a1.5 1.5 0 11-3.001-.001 1.5 1.5 0 013.001.001zM243 614.5a1.5 1.5 0 11-3.001-.001 1.5 1.5 0 013.001.001zM263 614.5a1.5 1.5 0 11-3.001-.001 1.5 1.5 0 013.001.001zM283 614.5a1.5 1.5 0 11-3.001-.001 1.5 1.5 0 013.001.001zM303 614.5a1.5 1.5 0 11-3.001-.001 1.5 1.5 0 013.001.001zM323 614.5a1.5 1.5 0 11-3.001-.001 1.5 1.5 0 013.001.001zM343 614.5a1.5 1.5 0 11-3.001-.001 1.5 1.5 0 013.001.001zM83 634.5a1.5 1.5 0 11-3 0 1.5 1.5 0 013 0zM103 634.5a1.5 1.5 0 11-3.001-.001 1.5 1.5 0 013.001.001zM123 634.5a1.5 1.5 0 11-3.001-.001 1.5 1.5 0 013.001.001zM143 634.5a1.5 1.5 0 11-3.001-.001 1.5 1.5 0 013.001.001zM163 634.5a1.5 1.5 0 11-3.001-.001 1.5 1.5 0 013.001.001zM183 634.5a1.5 1.5 0 11-3.001-.001 1.5 1.5 0 013.001.001zM203 634.5a1.5 1.5 0 11-3.001-.001 1.5 1.5 0 013.001.001zM223 634.5a1.5 1.5 0 11-3.001-.001 1.5 1.5 0 013.001.001zM243 634.5a1.5 1.5 0 11-3.001-.001 1.5 1.5 0 013.001.001zM263 634.5a1.5 1.5 0 11-3.001-.001 1.5 1.5 0 013.001.001zM283 634.5a1.5 1.5 0 11-3.001-.001 1.5 1.5 0 013.001.001zM303 634.5a1.5 1.5 0 11-3.001-.001 1.5 1.5 0 013.001.001zM323 634.5a1.5 1.5 0 11-3.001-.001 1.5 1.5 0 013.001.001zM343 634.5a1.5 1.5 0 11-3.001-.001 1.5 1.5 0 013.001.001zM103 654.5a1.5 1.5 0 11-3.001-.001 1.5 1.5 0 013.001.001zM123 654.5a1.5 1.5 0 11-3.001-.001 1.5 1.5 0 013.001.001zM143 654.5a1.5 1.5 0 11-3.001-.001 1.5 1.5 0 013.001.001zM163 654.5a1.5 1.5 0 11-3.001-.001 1.5 1.5 0 013.001.001zM183 654.5a1.5 1.5 0 11-3.001-.001 1.5 1.5 0 013.001.001zM203 654.5a1.5 1.5 0 11-3.001-.001 1.5 1.5 0 013.001.001zM223 654.5a1.5 1.5 0 11-3.001-.001 1.5 1.5 0 013.001.001zM243 654.5a1.5 1.5 0 11-3.001-.001 1.5 1.5 0 013.001.001zM263 654.5a1.5 1.5 0 11-3.001-.001 1.5 1.5 0 013.001.001zM283 654.5a1.5 1.5 0 11-3.001-.001 1.5 1.5 0 013.001.001zM303 654.5a1.5 1.5 0 11-3.001-.001 1.5 1.5 0 013.001.001zM323 654.5a1.5 1.5 0 11-3.001-.001 1.5 1.5 0 013.001.001zM343 654.5a1.5 1.5 0 11-3.001-.001 1.5 1.5 0 013.001.001zM123 674.5a1.5 1.5 0 11-3.001-.001 1.5 1.5 0 013.001.001zM143 674.5a1.5 1.5 0 11-3.001-.001 1.5 1.5 0 013.001.001zM163 674.5a1.5 1.5 0 11-3.001-.001 1.5 1.5 0 013.001.001zM183 674.5a1.5 1.5 0 11-3.001-.001 1.5 1.5 0 013.001.001zM203 674.5a1.5 1.5 0 11-3.001-.001 1.5 1.5 0 013.001.001zM223 674.5a1.5 1.5 0 11-3.001-.001 1.5 1.5 0 013.001.001zM243 674.5a1.5 1.5 0 11-3.001-.001 1.5 1.5 0 013.001.001zM263 674.5a1.5 1.5 0 11-3.001-.001 1.5 1.5 0 013.001.001zM283 674.5a1.5 1.5 0 11-3.001-.001 1.5 1.5 0 013.001.001zM303 674.5a1.5 1.5 0 11-3.001-.001 1.5 1.5 0 013.001.001zM323 674.5a1.5 1.5 0 11-3.001-.001 1.5 1.5 0 013.001.001zM343 674.5a1.5 1.5 0 11-3.001-.001 1.5 1.5 0 013.001.001zM363 454.5a1.5 1.5 0 11-3.001-.001 1.5 1.5 0 013.001.001zM383 454.5a1.5 1.5 0 11-3.001-.001 1.5 1.5 0 013.001.001zM403 454.5a1.5 1.5 0 11-3.001-.001 1.5 1.5 0 013.001.001zM423 454.5a1.5 1.5 0 11-3.001-.001 1.5 1.5 0 013.001.001zM443 454.5a1.5 1.5 0 11-3.001-.001 1.5 1.5 0 013.001.001zM463 454.5a1.5 1.5 0 11-3.001-.001 1.5 1.5 0 013.001.001zM483 454.5a1.5 1.5 0 11-3.001-.001 1.5 1.5 0 013.001.001zM503 454.5a1.5 1.5 0 11-3.001-.001 1.5 1.5 0 013.001.001zM523 454.5a1.5 1.5 0 11-3.001-.001 1.5 1.5 0 013.001.001zM543 454.5a1.5 1.5 0 11-3.001-.001 1.5 1.5 0 013.001.001zM563 454.5a1.5 1.5 0 11-3.001-.001 1.5 1.5 0 013.001.001zM583 454.5a1.5 1.5 0 11-3.001-.001 1.5 1.5 0 013.001.001zM603 454.5a1.5 1.5 0 11-3.001-.001 1.5 1.5 0 013.001.001zM623 454.5a1.5 1.5 0 11-3.001-.001 1.5 1.5 0 013.001.001zM643 454.5a1.5 1.5 0 11-3.001-.001 1.5 1.5 0 013.001.001zM363 474.5a1.5 1.5 0 11-3.001-.001 1.5 1.5 0 013.001.001zM383 474.5a1.5 1.5 0 11-3.001-.001 1.5 1.5 0 013.001.001zM403 474.5a1.5 1.5 0 11-3.001-.001 1.5 1.5 0 013.001.001zM423 474.5a1.5 1.5 0 11-3.001-.001 1.5 1.5 0 013.001.001zM443 474.5a1.5 1.5 0 11-3.001-.001 1.5 1.5 0 013.001.001zM463 474.5a1.5 1.5 0 11-3.001-.001 1.5 1.5 0 013.001.001zM483 474.5a1.5 1.5 0 11-3.001-.001 1.5 1.5 0 013.001.001zM503 474.5a1.5 1.5 0 11-3.001-.001 1.5 1.5 0 013.001.001zM523 474.5a1.5 1.5 0 11-3.001-.001 1.5 1.5 0 013.001.001zM543 474.5a1.5 1.5 0 11-3.001-.001 1.5 1.5 0 013.001.001zM563 474.5a1.5 1.5 0 11-3.001-.001 1.5 1.5 0 013.001.001zM583 474.5a1.5 1.5 0 11-3.001-.001 1.5 1.5 0 013.001.001zM603 474.5a1.5 1.5 0 11-3.001-.001 1.5 1.5 0 013.001.001zM623 474.5a1.5 1.5 0 11-3.001-.001 1.5 1.5 0 013.001.001zM643 474.5a1.5 1.5 0 11-3.001-.001 1.5 1.5 0 013.001.001zM363 494.5a1.5 1.5 0 11-3.001-.001 1.5 1.5 0 013.001.001zM383 494.5a1.5 1.5 0 11-3.001-.001 1.5 1.5 0 013.001.001zM403 494.5a1.5 1.5 0 11-3.001-.001 1.5 1.5 0 013.001.001zM423 494.5a1.5 1.5 0 11-3.001-.001 1.5 1.5 0 013.001.001zM443 494.5a1.5 1.5 0 11-3.001-.001 1.5 1.5 0 013.001.001zM463 494.5a1.5 1.5 0 11-3.001-.001 1.5 1.5 0 013.001.001zM483 494.5a1.5 1.5 0 11-3.001-.001 1.5 1.5 0 013.001.001zM503 494.5a1.5 1.5 0 11-3.001-.001 1.5 1.5 0 013.001.001zM523 494.5a1.5 1.5 0 11-3.001-.001 1.5 1.5 0 013.001.001zM543 494.5a1.5 1.5 0 11-3.001-.001 1.5 1.5 0 013.001.001zM563 494.5a1.5 1.5 0 11-3.001-.001 1.5 1.5 0 013.001.001zM583 494.5a1.5 1.5 0 11-3.001-.001 1.5 1.5 0 013.001.001zM603 494.5a1.5 1.5 0 11-3.001-.001 1.5 1.5 0 013.001.001zM623 494.5a1.5 1.5 0 11-3.001-.001 1.5 1.5 0 013.001.001zM643 494.5a1.5 1.5 0 11-3.001-.001 1.5 1.5 0 013.001.001zM363 514.5a1.5 1.5 0 11-3.001-.001 1.5 1.5 0 013.001.001zM383 514.5a1.5 1.5 0 11-3.001-.001 1.5 1.5 0 013.001.001zM403 514.5a1.5 1.5 0 11-3.001-.001 1.5 1.5 0 013.001.001zM423 514.5a1.5 1.5 0 11-3.001-.001 1.5 1.5 0 013.001.001zM443 514.5a1.5 1.5 0 11-3.001-.001 1.5 1.5 0 013.001.001zM463 514.5a1.5 1.5 0 11-3.001-.001 1.5 1.5 0 013.001.001zM483 514.5a1.5 1.5 0 11-3.001-.001 1.5 1.5 0 013.001.001zM503 514.5a1.5 1.5 0 11-3.001-.001 1.5 1.5 0 013.001.001zM523 514.5a1.5 1.5 0 11-3.001-.001 1.5 1.5 0 013.001.001zM543 514.5a1.5 1.5 0 11-3.001-.001 1.5 1.5 0 013.001.001zM563 514.5a1.5 1.5 0 11-3.001-.001 1.5 1.5 0 013.001.001zM583 514.5a1.5 1.5 0 11-3.001-.001 1.5 1.5 0 013.001.001zM603 514.5a1.5 1.5 0 11-3.001-.001 1.5 1.5 0 013.001.001zM623 514.5a1.5 1.5 0 11-3.001-.001 1.5 1.5 0 013.001.001zM643 514.5a1.5 1.5 0 11-3.001-.001 1.5 1.5 0 013.001.001zM363 534.5a1.5 1.5 0 11-3.001-.001 1.5 1.5 0 013.001.001zM383 534.5a1.5 1.5 0 11-3.001-.001 1.5 1.5 0 013.001.001zM403 534.5a1.5 1.5 0 11-3.001-.001 1.5 1.5 0 013.001.001zM423 534.5a1.5 1.5 0 11-3.001-.001 1.5 1.5 0 013.001.001zM443 534.5a1.5 1.5 0 11-3.001-.001 1.5 1.5 0 013.001.001zM463 534.5a1.5 1.5 0 11-3.001-.001 1.5 1.5 0 013.001.001zM483 534.5a1.5 1.5 0 11-3.001-.001 1.5 1.5 0 013.001.001zM503 534.5a1.5 1.5 0 11-3.001-.001 1.5 1.5 0 013.001.001zM523 534.5a1.5 1.5 0 11-3.001-.001 1.5 1.5 0 013.001.001zM543 534.5a1.5 1.5 0 11-3.001-.001 1.5 1.5 0 013.001.001zM563 534.5a1.5 1.5 0 11-3.001-.001 1.5 1.5 0 013.001.001zM583 534.5a1.5 1.5 0 11-3.001-.001 1.5 1.5 0 013.001.001zM603 534.5a1.5 1.5 0 11-3.001-.001 1.5 1.5 0 013.001.001zM623 534.5a1.5 1.5 0 11-3.001-.001 1.5 1.5 0 013.001.001zM643 534.5a1.5 1.5 0 11-3.001-.001 1.5 1.5 0 013.001.001zM363 554.5a1.5 1.5 0 11-3.001-.001 1.5 1.5 0 013.001.001zM383 554.5a1.5 1.5 0 11-3.001-.001 1.5 1.5 0 013.001.001zM403 554.5a1.5 1.5 0 11-3.001-.001 1.5 1.5 0 013.001.001zM423 554.5a1.5 1.5 0 11-3.001-.001 1.5 1.5 0 013.001.001zM443 554.5a1.5 1.5 0 11-3.001-.001 1.5 1.5 0 013.001.001zM463 554.5a1.5 1.5 0 11-3.001-.001 1.5 1.5 0 013.001.001zM483 554.5a1.5 1.5 0 11-3.001-.001 1.5 1.5 0 013.001.001zM503 554.5a1.5 1.5 0 11-3.001-.001 1.5 1.5 0 013.001.001zM523 554.5a1.5 1.5 0 11-3.001-.001 1.5 1.5 0 013.001.001zM543 554.5a1.5 1.5 0 11-3.001-.001 1.5 1.5 0 013.001.001zM563 554.5a1.5 1.5 0 11-3.001-.001 1.5 1.5 0 013.001.001zM583 554.5a1.5 1.5 0 11-3.001-.001 1.5 1.5 0 013.001.001zM603 554.5a1.5 1.5 0 11-3.001-.001 1.5 1.5 0 013.001.001zM623 554.5a1.5 1.5 0 11-3.001-.001 1.5 1.5 0 013.001.001zM643 554.5a1.5 1.5 0 11-3.001-.001 1.5 1.5 0 013.001.001zM363 574.5a1.5 1.5 0 11-3.001-.001 1.5 1.5 0 013.001.001zM383 574.5a1.5 1.5 0 11-3.001-.001 1.5 1.5 0 013.001.001zM403 574.5a1.5 1.5 0 11-3.001-.001 1.5 1.5 0 013.001.001zM423 574.5a1.5 1.5 0 11-3.001-.001 1.5 1.5 0 013.001.001zM443 574.5a1.5 1.5 0 11-3.001-.001 1.5 1.5 0 013.001.001zM463 574.5a1.5 1.5 0 11-3.001-.001 1.5 1.5 0 013.001.001zM483 574.5a1.5 1.5 0 11-3.001-.001 1.5 1.5 0 013.001.001zM503 574.5a1.5 1.5 0 11-3.001-.001 1.5 1.5 0 013.001.001zM523 574.5a1.5 1.5 0 11-3.001-.001 1.5 1.5 0 013.001.001zM543 574.5a1.5 1.5 0 11-3.001-.001 1.5 1.5 0 013.001.001zM563 574.5a1.5 1.5 0 11-3.001-.001 1.5 1.5 0 013.001.001zM583 574.5a1.5 1.5 0 11-3.001-.001 1.5 1.5 0 013.001.001zM603 574.5a1.5 1.5 0 11-3.001-.001 1.5 1.5 0 013.001.001zM623 574.5a1.5 1.5 0 11-3.001-.001 1.5 1.5 0 013.001.001zM643 574.5a1.5 1.5 0 11-3.001-.001 1.5 1.5 0 013.001.001zM363 594.5a1.5 1.5 0 11-3.001-.001 1.5 1.5 0 013.001.001zM383 594.5a1.5 1.5 0 11-3.001-.001 1.5 1.5 0 013.001.001zM403 594.5a1.5 1.5 0 11-3.001-.001 1.5 1.5 0 013.001.001zM423 594.5a1.5 1.5 0 11-3.001-.001 1.5 1.5 0 013.001.001zM443 594.5a1.5 1.5 0 11-3.001-.001 1.5 1.5 0 013.001.001zM463 594.5a1.5 1.5 0 11-3.001-.001 1.5 1.5 0 013.001.001zM483 594.5a1.5 1.5 0 11-3.001-.001 1.5 1.5 0 013.001.001zM503 594.5a1.5 1.5 0 11-3.001-.001 1.5 1.5 0 013.001.001zM523 594.5a1.5 1.5 0 11-3.001-.001 1.5 1.5 0 013.001.001zM543 594.5a1.5 1.5 0 11-3.001-.001 1.5 1.5 0 013.001.001zM563 594.5a1.5 1.5 0 11-3.001-.001 1.5 1.5 0 013.001.001zM583 594.5a1.5 1.5 0 11-3.001-.001 1.5 1.5 0 013.001.001zM603 594.5a1.5 1.5 0 11-3.001-.001 1.5 1.5 0 013.001.001zM623 594.5a1.5 1.5 0 11-3.001-.001 1.5 1.5 0 013.001.001zM643 594.5a1.5 1.5 0 11-3.001-.001 1.5 1.5 0 013.001.001zM363 614.5a1.5 1.5 0 11-3.001-.001 1.5 1.5 0 013.001.001zM383 614.5a1.5 1.5 0 11-3.001-.001 1.5 1.5 0 013.001.001zM403 614.5a1.5 1.5 0 11-3.001-.001 1.5 1.5 0 013.001.001zM423 614.5a1.5 1.5 0 11-3.001-.001 1.5 1.5 0 013.001.001zM443 614.5a1.5 1.5 0 11-3.001-.001 1.5 1.5 0 013.001.001zM463 614.5a1.5 1.5 0 11-3.001-.001 1.5 1.5 0 013.001.001zM483 614.5a1.5 1.5 0 11-3.001-.001 1.5 1.5 0 013.001.001zM503 614.5a1.5 1.5 0 11-3.001-.001 1.5 1.5 0 013.001.001zM523 614.5a1.5 1.5 0 11-3.001-.001 1.5 1.5 0 013.001.001zM543 614.5a1.5 1.5 0 11-3.001-.001 1.5 1.5 0 013.001.001zM563 614.5a1.5 1.5 0 11-3.001-.001 1.5 1.5 0 013.001.001zM583 614.5a1.5 1.5 0 11-3.001-.001 1.5 1.5 0 013.001.001zM603 614.5a1.5 1.5 0 11-3.001-.001 1.5 1.5 0 013.001.001zM623 614.5a1.5 1.5 0 11-3.001-.001 1.5 1.5 0 013.001.001zM643 614.5a1.5 1.5 0 11-3.001-.001 1.5 1.5 0 013.001.001zM363 634.5a1.5 1.5 0 11-3.001-.001 1.5 1.5 0 013.001.001zM383 634.5a1.5 1.5 0 11-3.001-.001 1.5 1.5 0 013.001.001zM403 634.5a1.5 1.5 0 11-3.001-.001 1.5 1.5 0 013.001.001zM423 634.5a1.5 1.5 0 11-3.001-.001 1.5 1.5 0 013.001.001zM443 634.5a1.5 1.5 0 11-3.001-.001 1.5 1.5 0 013.001.001zM463 634.5a1.5 1.5 0 11-3.001-.001 1.5 1.5 0 013.001.001zM483 634.5a1.5 1.5 0 11-3.001-.001 1.5 1.5 0 013.001.001zM503 634.5a1.5 1.5 0 11-3.001-.001 1.5 1.5 0 013.001.001zM523 634.5a1.5 1.5 0 11-3.001-.001 1.5 1.5 0 013.001.001zM543 634.5a1.5 1.5 0 11-3.001-.001 1.5 1.5 0 013.001.001zM563 634.5a1.5 1.5 0 11-3.001-.001 1.5 1.5 0 013.001.001zM583 634.5a1.5 1.5 0 11-3.001-.001 1.5 1.5 0 013.001.001zM603 634.5a1.5 1.5 0 11-3.001-.001 1.5 1.5 0 013.001.001zM623 634.5a1.5 1.5 0 11-3.001-.001 1.5 1.5 0 013.001.001zM643 634.5a1.5 1.5 0 11-3.001-.001 1.5 1.5 0 013.001.001zM363 654.5a1.5 1.5 0 11-3.001-.001 1.5 1.5 0 013.001.001zM383 654.5a1.5 1.5 0 11-3.001-.001 1.5 1.5 0 013.001.001zM403 654.5a1.5 1.5 0 11-3.001-.001 1.5 1.5 0 013.001.001zM423 654.5a1.5 1.5 0 11-3.001-.001 1.5 1.5 0 013.001.001zM443 654.5a1.5 1.5 0 11-3.001-.001 1.5 1.5 0 013.001.001zM463 654.5a1.5 1.5 0 11-3.001-.001 1.5 1.5 0 013.001.001zM483 654.5a1.5 1.5 0 11-3.001-.001 1.5 1.5 0 013.001.001zM503 654.5a1.5 1.5 0 11-3.001-.001 1.5 1.5 0 013.001.001zM523 654.5a1.5 1.5 0 11-3.001-.001 1.5 1.5 0 013.001.001zM543 654.5a1.5 1.5 0 11-3.001-.001 1.5 1.5 0 013.001.001zM563 654.5a1.5 1.5 0 11-3.001-.001 1.5 1.5 0 013.001.001zM583 654.5a1.5 1.5 0 11-3.001-.001 1.5 1.5 0 013.001.001zM603 654.5a1.5 1.5 0 11-3.001-.001 1.5 1.5 0 013.001.001zM623 654.5a1.5 1.5 0 11-3.001-.001 1.5 1.5 0 013.001.001zM643 654.5a1.5 1.5 0 11-3.001-.001 1.5 1.5 0 013.001.001zM363 674.5a1.5 1.5 0 11-3.001-.001 1.5 1.5 0 013.001.001zM383 674.5a1.5 1.5 0 11-3.001-.001 1.5 1.5 0 013.001.001zM403 674.5a1.5 1.5 0 11-3.001-.001 1.5 1.5 0 013.001.001zM423 674.5a1.5 1.5 0 11-3.001-.001 1.5 1.5 0 013.001.001zM443 674.5a1.5 1.5 0 11-3.001-.001 1.5 1.5 0 013.001.001zM463 674.5a1.5 1.5 0 11-3.001-.001 1.5 1.5 0 013.001.001zM483 674.5a1.5 1.5 0 11-3.001-.001 1.5 1.5 0 013.001.001zM503 674.5a1.5 1.5 0 11-3.001-.001 1.5 1.5 0 013.001.001zM523 674.5a1.5 1.5 0 11-3.001-.001 1.5 1.5 0 013.001.001zM543 674.5a1.5 1.5 0 11-3.001-.001 1.5 1.5 0 013.001.001zM563 674.5a1.5 1.5 0 11-3.001-.001 1.5 1.5 0 013.001.001zM583 674.5a1.5 1.5 0 11-3.001-.001 1.5 1.5 0 013.001.001zM603 674.5a1.5 1.5 0 11-3.001-.001 1.5 1.5 0 013.001.001zM623 674.5a1.5 1.5 0 11-3.001-.001 1.5 1.5 0 013.001.001zM643 674.5a1.5 1.5 0 11-3.001-.001 1.5 1.5 0 013.001.001zM663 454.5a1.5 1.5 0 11-3.001-.001 1.5 1.5 0 013.001.001zM683 454.5a1.5 1.5 0 11-3.001-.001 1.5 1.5 0 013.001.001zM703 454.5a1.5 1.5 0 11-3.001-.001 1.5 1.5 0 013.001.001zM723 454.5a1.5 1.5 0 11-3.001-.001 1.5 1.5 0 013.001.001zM743 454.5a1.5 1.5 0 11-3.001-.001 1.5 1.5 0 013.001.001zM763 454.5a1.5 1.5 0 11-3.001-.001 1.5 1.5 0 013.001.001zM783 454.5a1.5 1.5 0 11-3.001-.001 1.5 1.5 0 013.001.001zM803 454.5a1.5 1.5 0 11-3.001-.001 1.5 1.5 0 013.001.001zM823 454.5a1.5 1.5 0 11-3.001-.001 1.5 1.5 0 013.001.001zM663 474.5a1.5 1.5 0 11-3.001-.001 1.5 1.5 0 013.001.001zM683 474.5a1.5 1.5 0 11-3.001-.001 1.5 1.5 0 013.001.001zM703 474.5a1.5 1.5 0 11-3.001-.001 1.5 1.5 0 013.001.001zM723 474.5a1.5 1.5 0 11-3.001-.001 1.5 1.5 0 013.001.001zM743 474.5a1.5 1.5 0 11-3.001-.001 1.5 1.5 0 013.001.001zM763 474.5a1.5 1.5 0 11-3.001-.001 1.5 1.5 0 013.001.001zM783 474.5a1.5 1.5 0 11-3.001-.001 1.5 1.5 0 013.001.001zM803 474.5a1.5 1.5 0 11-3.001-.001 1.5 1.5 0 013.001.001zM823 474.5a1.5 1.5 0 11-3.001-.001 1.5 1.5 0 013.001.001zM663 494.5a1.5 1.5 0 11-3.001-.001 1.5 1.5 0 013.001.001zM683 494.5a1.5 1.5 0 11-3.001-.001 1.5 1.5 0 013.001.001zM703 494.5a1.5 1.5 0 11-3.001-.001 1.5 1.5 0 013.001.001zM723 494.5a1.5 1.5 0 11-3.001-.001 1.5 1.5 0 013.001.001zM743 494.5a1.5 1.5 0 11-3.001-.001 1.5 1.5 0 013.001.001zM763 494.5a1.5 1.5 0 11-3.001-.001 1.5 1.5 0 013.001.001zM783 494.5a1.5 1.5 0 11-3.001-.001 1.5 1.5 0 013.001.001zM803 494.5a1.5 1.5 0 11-3.001-.001 1.5 1.5 0 013.001.001zM823 494.5a1.5 1.5 0 11-3.001-.001 1.5 1.5 0 013.001.001zM663 514.5a1.5 1.5 0 11-3.001-.001 1.5 1.5 0 013.001.001zM683 514.5a1.5 1.5 0 11-3.001-.001 1.5 1.5 0 013.001.001zM703 514.5a1.5 1.5 0 11-3.001-.001 1.5 1.5 0 013.001.001zM723 514.5a1.5 1.5 0 11-3.001-.001 1.5 1.5 0 013.001.001zM743 514.5a1.5 1.5 0 11-3.001-.001 1.5 1.5 0 013.001.001zM763 514.5a1.5 1.5 0 11-3.001-.001 1.5 1.5 0 013.001.001zM783 514.5a1.5 1.5 0 11-3.001-.001 1.5 1.5 0 013.001.001zM803 514.5a1.5 1.5 0 11-3.001-.001 1.5 1.5 0 013.001.001zM823 514.5a1.5 1.5 0 11-3.001-.001 1.5 1.5 0 013.001.001zM663 534.5a1.5 1.5 0 11-3.001-.001 1.5 1.5 0 013.001.001zM683 534.5a1.5 1.5 0 11-3.001-.001 1.5 1.5 0 013.001.001zM703 534.5a1.5 1.5 0 11-3.001-.001 1.5 1.5 0 013.001.001zM723 534.5a1.5 1.5 0 11-3.001-.001 1.5 1.5 0 013.001.001zM743 534.5a1.5 1.5 0 11-3.001-.001 1.5 1.5 0 013.001.001zM763 534.5a1.5 1.5 0 11-3.001-.001 1.5 1.5 0 013.001.001zM783 534.5a1.5 1.5 0 11-3.001-.001 1.5 1.5 0 013.001.001zM803 534.5a1.5 1.5 0 11-3.001-.001 1.5 1.5 0 013.001.001zM823 534.5a1.5 1.5 0 11-3.001-.001 1.5 1.5 0 013.001.001zM663 554.5a1.5 1.5 0 11-3.001-.001 1.5 1.5 0 013.001.001zM683 554.5a1.5 1.5 0 11-3.001-.001 1.5 1.5 0 013.001.001zM703 554.5a1.5 1.5 0 11-3.001-.001 1.5 1.5 0 013.001.001zM723 554.5a1.5 1.5 0 11-3.001-.001 1.5 1.5 0 013.001.001zM743 554.5a1.5 1.5 0 11-3.001-.001 1.5 1.5 0 013.001.001zM763 554.5a1.5 1.5 0 11-3.001-.001 1.5 1.5 0 013.001.001zM783 554.5a1.5 1.5 0 11-3.001-.001 1.5 1.5 0 013.001.001zM803 554.5a1.5 1.5 0 11-3.001-.001 1.5 1.5 0 013.001.001zM823 554.5a1.5 1.5 0 11-3.001-.001 1.5 1.5 0 013.001.001zM663 574.5a1.5 1.5 0 11-3.001-.001 1.5 1.5 0 013.001.001zM683 574.5a1.5 1.5 0 11-3.001-.001 1.5 1.5 0 013.001.001zM703 574.5a1.5 1.5 0 11-3.001-.001 1.5 1.5 0 013.001.001zM723 574.5a1.5 1.5 0 11-3.001-.001 1.5 1.5 0 013.001.001zM743 574.5a1.5 1.5 0 11-3.001-.001 1.5 1.5 0 013.001.001zM763 574.5a1.5 1.5 0 11-3.001-.001 1.5 1.5 0 013.001.001zM783 574.5a1.5 1.5 0 11-3.001-.001 1.5 1.5 0 013.001.001zM803 574.5a1.5 1.5 0 11-3.001-.001 1.5 1.5 0 013.001.001zM823 574.5a1.5 1.5 0 11-3.001-.001 1.5 1.5 0 013.001.001zM663 594.5a1.5 1.5 0 11-3.001-.001 1.5 1.5 0 013.001.001zM683 594.5a1.5 1.5 0 11-3.001-.001 1.5 1.5 0 013.001.001zM703 594.5a1.5 1.5 0 11-3.001-.001 1.5 1.5 0 013.001.001zM723 594.5a1.5 1.5 0 11-3.001-.001 1.5 1.5 0 013.001.001zM743 594.5a1.5 1.5 0 11-3.001-.001 1.5 1.5 0 013.001.001zM763 594.5a1.5 1.5 0 11-3.001-.001 1.5 1.5 0 013.001.001zM783 594.5a1.5 1.5 0 11-3.001-.001 1.5 1.5 0 013.001.001zM803 594.5a1.5 1.5 0 11-3.001-.001 1.5 1.5 0 013.001.001zM663 614.5a1.5 1.5 0 11-3.001-.001 1.5 1.5 0 013.001.001zM683 614.5a1.5 1.5 0 11-3.001-.001 1.5 1.5 0 013.001.001zM703 614.5a1.5 1.5 0 11-3.001-.001 1.5 1.5 0 013.001.001zM723 614.5a1.5 1.5 0 11-3.001-.001 1.5 1.5 0 013.001.001zM743 614.5a1.5 1.5 0 11-3.001-.001 1.5 1.5 0 013.001.001zM763 614.5a1.5 1.5 0 11-3.001-.001 1.5 1.5 0 013.001.001zM663 634.5a1.5 1.5 0 11-3.001-.001 1.5 1.5 0 013.001.001zM683 634.5a1.5 1.5 0 11-3.001-.001 1.5 1.5 0 013.001.001zM703 634.5a1.5 1.5 0 11-3.001-.001 1.5 1.5 0 013.001.001zM723 634.5a1.5 1.5 0 11-3.001-.001 1.5 1.5 0 013.001.001zM663 654.5a1.5 1.5 0 11-3.001-.001 1.5 1.5 0 013.001.001zM683 654.5a1.5 1.5 0 11-3.001-.001 1.5 1.5 0 013.001.001zM143 694.5a1.5 1.5 0 11-3.001-.001 1.5 1.5 0 013.001.001zM163 694.5a1.5 1.5 0 11-3.001-.001 1.5 1.5 0 013.001.001zM183 694.5a1.5 1.5 0 11-3.001-.001 1.5 1.5 0 013.001.001zM203 694.5a1.5 1.5 0 11-3.001-.001 1.5 1.5 0 013.001.001zM223 694.5a1.5 1.5 0 11-3.001-.001 1.5 1.5 0 013.001.001zM243 694.5a1.5 1.5 0 11-3.001-.001 1.5 1.5 0 013.001.001zM263 694.5a1.5 1.5 0 11-3.001-.001 1.5 1.5 0 013.001.001zM283 694.5a1.5 1.5 0 11-3.001-.001 1.5 1.5 0 013.001.001zM303 694.5a1.5 1.5 0 11-3.001-.001 1.5 1.5 0 013.001.001zM323 694.5a1.5 1.5 0 11-3.001-.001 1.5 1.5 0 013.001.001zM343 694.5a1.5 1.5 0 11-3.001-.001 1.5 1.5 0 013.001.001zM363 694.5a1.5 1.5 0 11-3.001-.001 1.5 1.5 0 013.001.001zM383 694.5a1.5 1.5 0 11-3.001-.001 1.5 1.5 0 013.001.001zM403 694.5a1.5 1.5 0 11-3.001-.001 1.5 1.5 0 013.001.001zM423 694.5a1.5 1.5 0 11-3.001-.001 1.5 1.5 0 013.001.001zM443 694.5a1.5 1.5 0 11-3.001-.001 1.5 1.5 0 013.001.001zM463 694.5a1.5 1.5 0 11-3.001-.001 1.5 1.5 0 013.001.001zM483 694.5a1.5 1.5 0 11-3.001-.001 1.5 1.5 0 013.001.001zM503 694.5a1.5 1.5 0 11-3.001-.001 1.5 1.5 0 013.001.001zM523 694.5a1.5 1.5 0 11-3.001-.001 1.5 1.5 0 013.001.001zM543 694.5a1.5 1.5 0 11-3.001-.001 1.5 1.5 0 013.001.001zM563 694.5a1.5 1.5 0 11-3.001-.001 1.5 1.5 0 013.001.001zM583 694.5a1.5 1.5 0 11-3.001-.001 1.5 1.5 0 013.001.001zM43 134.5a1.5 1.5 0 11-3 0 1.5 1.5 0 013 0zM23 154.5a1.5 1.5 0 11-3 0 1.5 1.5 0 013 0zM43 154.5a1.5 1.5 0 11-3 0 1.5 1.5 0 013 0zM23 174.5a1.5 1.5 0 11-3 0 1.5 1.5 0 013 0zM43 174.5a1.5 1.5 0 11-3 0 1.5 1.5 0 013 0zM23 194.5a1.5 1.5 0 11-3 0 1.5 1.5 0 013 0zM43 194.5a1.5 1.5 0 11-3 0 1.5 1.5 0 013 0zM243 14.5a1.5 1.5 0 11-3 0 1.5 1.5 0 013 0zM263 14.5a1.5 1.5 0 11-3 0 1.5 1.5 0 013 0zM283 14.5a1.5 1.5 0 11-3 0 1.5 1.5 0 013 0zM303 14.5a1.5 1.5 0 11-3 0 1.5 1.5 0 013 0zM323 14.5a1.5 1.5 0 11-3 0 1.5 1.5 0 013 0zM343 14.5a1.5 1.5 0 11-3 0 1.5 1.5 0 013 0zM123 34.5a1.5 1.5 0 11-3 0 1.5 1.5 0 013 0zM143 34.5a1.5 1.5 0 11-3 0 1.5 1.5 0 013 0zM163 34.5a1.5 1.5 0 11-3 0 1.5 1.5 0 013 0zM183 34.5a1.5 1.5 0 11-3 0 1.5 1.5 0 013 0zM203 34.5a1.5 1.5 0 11-3 0 1.5 1.5 0 013 0zM223 34.5a1.5 1.5 0 11-3 0 1.5 1.5 0 013 0zM243 34.5a1.5 1.5 0 11-3 0 1.5 1.5 0 013 0zM263 34.5a1.5 1.5 0 11-3 0 1.5 1.5 0 013 0zM283 34.5a1.5 1.5 0 11-3 0 1.5 1.5 0 013 0zM303 34.5a1.5 1.5 0 11-3 0 1.5 1.5 0 013 0zM323 34.5a1.5 1.5 0 11-3 0 1.5 1.5 0 013 0zM343 34.5a1.5 1.5 0 11-3 0 1.5 1.5 0 013 0zM103 54.5a1.5 1.5 0 11-3 0 1.5 1.5 0 013 0zM123 54.5a1.5 1.5 0 11-3 0 1.5 1.5 0 013 0zM143 54.5a1.5 1.5 0 11-3 0 1.5 1.5 0 013 0zM163 54.5a1.5 1.5 0 11-3 0 1.5 1.5 0 013 0zM183 54.5a1.5 1.5 0 11-3 0 1.5 1.5 0 013 0zM203 54.5a1.5 1.5 0 11-3 0 1.5 1.5 0 013 0zM223 54.5a1.5 1.5 0 11-3 0 1.5 1.5 0 013 0zM243 54.5a1.5 1.5 0 11-3 0 1.5 1.5 0 013 0zM263 54.5a1.5 1.5 0 11-3 0 1.5 1.5 0 013 0zM283 54.5a1.5 1.5 0 11-3 0 1.5 1.5 0 013 0zM303 54.5a1.5 1.5 0 11-3 0 1.5 1.5 0 013 0zM323 54.5a1.5 1.5 0 11-3 0 1.5 1.5 0 013 0zM343 54.5a1.5 1.5 0 11-3 0 1.5 1.5 0 013 0zM83 74.5a1.5 1.5 0 11-3 0 1.5 1.5 0 013 0zM103 74.5a1.5 1.5 0 11-3 0 1.5 1.5 0 013 0zM123 74.5a1.5 1.5 0 11-3 0 1.5 1.5 0 013 0zM143 74.5a1.5 1.5 0 11-3 0 1.5 1.5 0 013 0zM163 74.5a1.5 1.5 0 11-3 0 1.5 1.5 0 013 0zM183 74.5a1.5 1.5 0 11-3 0 1.5 1.5 0 013 0zM203 74.5a1.5 1.5 0 11-3 0 1.5 1.5 0 013 0zM223 74.5a1.5 1.5 0 11-3 0 1.5 1.5 0 013 0zM243 74.5a1.5 1.5 0 11-3 0 1.5 1.5 0 013 0zM263 74.5a1.5 1.5 0 11-3 0 1.5 1.5 0 013 0zM283 74.5a1.5 1.5 0 11-3 0 1.5 1.5 0 013 0zM303 74.5a1.5 1.5 0 11-3 0 1.5 1.5 0 013 0zM323 74.5a1.5 1.5 0 11-3 0 1.5 1.5 0 013 0zM343 74.5a1.5 1.5 0 11-3 0 1.5 1.5 0 013 0zM83 94.5a1.5 1.5 0 11-3 0 1.5 1.5 0 013 0zM103 94.5a1.5 1.5 0 11-3 0 1.5 1.5 0 013 0zM123 94.5a1.5 1.5 0 11-3 0 1.5 1.5 0 013 0zM143 94.5a1.5 1.5 0 11-3 0 1.5 1.5 0 013 0zM163 94.5a1.5 1.5 0 11-3 0 1.5 1.5 0 013 0zM183 94.5a1.5 1.5 0 11-3 0 1.5 1.5 0 013 0zM203 94.5a1.5 1.5 0 11-3 0 1.5 1.5 0 013 0zM223 94.5a1.5 1.5 0 11-3 0 1.5 1.5 0 013 0zM243 94.5a1.5 1.5 0 11-3 0 1.5 1.5 0 013 0zM263 94.5a1.5 1.5 0 11-3 0 1.5 1.5 0 013 0zM283 94.5a1.5 1.5 0 11-3 0 1.5 1.5 0 013 0zM303 94.5a1.5 1.5 0 11-3 0 1.5 1.5 0 013 0zM323 94.5a1.5 1.5 0 11-3 0 1.5 1.5 0 013 0zM343 94.5a1.5 1.5 0 11-3 0 1.5 1.5 0 013 0zM63 114.5a1.5 1.5 0 11-3 0 1.5 1.5 0 013 0zM83 114.5a1.5 1.5 0 11-3 0 1.5 1.5 0 013 0zM103 114.5a1.5 1.5 0 11-3.001-.001 1.5 1.5 0 013.001.001zM123 114.5a1.5 1.5 0 11-3.001-.001 1.5 1.5 0 013.001.001zM143 114.5a1.5 1.5 0 11-3.001-.001 1.5 1.5 0 013.001.001zM163 114.5a1.5 1.5 0 11-3.001-.001 1.5 1.5 0 013.001.001zM183 114.5a1.5 1.5 0 11-3.001-.001 1.5 1.5 0 013.001.001zM203 114.5a1.5 1.5 0 11-3.001-.001 1.5 1.5 0 013.001.001zM223 114.5a1.5 1.5 0 11-3.001-.001 1.5 1.5 0 013.001.001zM243 114.5a1.5 1.5 0 11-3.001-.001 1.5 1.5 0 013.001.001zM263 114.5a1.5 1.5 0 11-3.001-.001 1.5 1.5 0 013.001.001zM283 114.5a1.5 1.5 0 11-3.001-.001 1.5 1.5 0 013.001.001zM303 114.5a1.5 1.5 0 11-3.001-.001 1.5 1.5 0 013.001.001zM323 114.5a1.5 1.5 0 11-3.001-.001 1.5 1.5 0 013.001.001zM343 114.5a1.5 1.5 0 11-3.001-.001 1.5 1.5 0 013.001.001zM63 134.5a1.5 1.5 0 11-3 0 1.5 1.5 0 013 0zM83 134.5a1.5 1.5 0 11-3 0 1.5 1.5 0 013 0zM103 134.5a1.5 1.5 0 11-3.001-.001 1.5 1.5 0 013.001.001zM123 134.5a1.5 1.5 0 11-3.001-.001 1.5 1.5 0 013.001.001zM143 134.5a1.5 1.5 0 11-3.001-.001 1.5 1.5 0 013.001.001zM163 134.5a1.5 1.5 0 11-3.001-.001 1.5 1.5 0 013.001.001zM183 134.5a1.5 1.5 0 11-3.001-.001 1.5 1.5 0 013.001.001zM203 134.5a1.5 1.5 0 11-3.001-.001 1.5 1.5 0 013.001.001zM223 134.5a1.5 1.5 0 11-3.001-.001 1.5 1.5 0 013.001.001zM243 134.5a1.5 1.5 0 11-3.001-.001 1.5 1.5 0 013.001.001zM263 134.5a1.5 1.5 0 11-3.001-.001 1.5 1.5 0 013.001.001zM283 134.5a1.5 1.5 0 11-3.001-.001 1.5 1.5 0 013.001.001zM303 134.5a1.5 1.5 0 11-3.001-.001 1.5 1.5 0 013.001.001zM323 134.5a1.5 1.5 0 11-3.001-.001 1.5 1.5 0 013.001.001zM343 134.5a1.5 1.5 0 11-3.001-.001 1.5 1.5 0 013.001.001zM63 154.5a1.5 1.5 0 11-3 0 1.5 1.5 0 013 0zM83 154.5a1.5 1.5 0 11-3 0 1.5 1.5 0 013 0zM103 154.5a1.5 1.5 0 11-3.001-.001 1.5 1.5 0 013.001.001zM123 154.5a1.5 1.5 0 11-3.001-.001 1.5 1.5 0 013.001.001zM143 154.5a1.5 1.5 0 11-3.001-.001 1.5 1.5 0 013.001.001zM163 154.5a1.5 1.5 0 11-3.001-.001 1.5 1.5 0 013.001.001zM183 154.5a1.5 1.5 0 11-3.001-.001 1.5 1.5 0 013.001.001zM203 154.5a1.5 1.5 0 11-3.001-.001 1.5 1.5 0 013.001.001zM223 154.5a1.5 1.5 0 11-3.001-.001 1.5 1.5 0 013.001.001zM243 154.5a1.5 1.5 0 11-3.001-.001 1.5 1.5 0 013.001.001zM263 154.5a1.5 1.5 0 11-3.001-.001 1.5 1.5 0 013.001.001zM283 154.5a1.5 1.5 0 11-3.001-.001 1.5 1.5 0 013.001.001zM303 154.5a1.5 1.5 0 11-3.001-.001 1.5 1.5 0 013.001.001zM323 154.5a1.5 1.5 0 11-3.001-.001 1.5 1.5 0 013.001.001zM343 154.5a1.5 1.5 0 11-3.001-.001 1.5 1.5 0 013.001.001zM63 174.5a1.5 1.5 0 11-3 0 1.5 1.5 0 013 0zM83 174.5a1.5 1.5 0 11-3 0 1.5 1.5 0 013 0zM103 174.5a1.5 1.5 0 11-3.001-.001 1.5 1.5 0 013.001.001zM123 174.5a1.5 1.5 0 11-3.001-.001 1.5 1.5 0 013.001.001zM143 174.5a1.5 1.5 0 11-3.001-.001 1.5 1.5 0 013.001.001zM163 174.5a1.5 1.5 0 11-3.001-.001 1.5 1.5 0 013.001.001zM183 174.5a1.5 1.5 0 11-3.001-.001 1.5 1.5 0 013.001.001zM203 174.5a1.5 1.5 0 11-3.001-.001 1.5 1.5 0 013.001.001zM223 174.5a1.5 1.5 0 11-3.001-.001 1.5 1.5 0 013.001.001zM243 174.5a1.5 1.5 0 11-3.001-.001 1.5 1.5 0 013.001.001zM263 174.5a1.5 1.5 0 11-3.001-.001 1.5 1.5 0 013.001.001zM283 174.5a1.5 1.5 0 11-3.001-.001 1.5 1.5 0 013.001.001zM303 174.5a1.5 1.5 0 11-3.001-.001 1.5 1.5 0 013.001.001zM323 174.5a1.5 1.5 0 11-3.001-.001 1.5 1.5 0 013.001.001zM343 174.5a1.5 1.5 0 11-3.001-.001 1.5 1.5 0 013.001.001zM63 194.5a1.5 1.5 0 11-3 0 1.5 1.5 0 013 0zM83 194.5a1.5 1.5 0 11-3 0 1.5 1.5 0 013 0zM103 194.5a1.5 1.5 0 11-3.001-.001 1.5 1.5 0 013.001.001zM123 194.5a1.5 1.5 0 11-3.001-.001 1.5 1.5 0 013.001.001zM143 194.5a1.5 1.5 0 11-3.001-.001 1.5 1.5 0 013.001.001zM163 194.5a1.5 1.5 0 11-3.001-.001 1.5 1.5 0 013.001.001zM183 194.5a1.5 1.5 0 11-3.001-.001 1.5 1.5 0 013.001.001zM203 194.5a1.5 1.5 0 11-3.001-.001 1.5 1.5 0 013.001.001zM223 194.5a1.5 1.5 0 11-3.001-.001 1.5 1.5 0 013.001.001zM243 194.5a1.5 1.5 0 11-3.001-.001 1.5 1.5 0 013.001.001zM263 194.5a1.5 1.5 0 11-3.001-.001 1.5 1.5 0 013.001.001zM283 194.5a1.5 1.5 0 11-3.001-.001 1.5 1.5 0 013.001.001zM303 194.5a1.5 1.5 0 11-3.001-.001 1.5 1.5 0 013.001.001zM323 194.5a1.5 1.5 0 11-3.001-.001 1.5 1.5 0 013.001.001zM343 194.5a1.5 1.5 0 11-3.001-.001 1.5 1.5 0 013.001.001zM363 14.5a1.5 1.5 0 11-3 0 1.5 1.5 0 013 0zM383 14.5a1.5 1.5 0 11-3 0 1.5 1.5 0 013 0zM403 14.5a1.5 1.5 0 11-3 0 1.5 1.5 0 013 0zM423 14.5a1.5 1.5 0 11-3 0 1.5 1.5 0 013 0zM443 14.5a1.5 1.5 0 11-3 0 1.5 1.5 0 013 0zM463 14.5a1.5 1.5 0 11-3 0 1.5 1.5 0 013 0zM483 14.5a1.5 1.5 0 11-3 0 1.5 1.5 0 013 0zM503 14.5a1.5 1.5 0 11-3 0 1.5 1.5 0 013 0zM523 14.5a1.5 1.5 0 11-3 0 1.5 1.5 0 013 0zM543 14.5a1.5 1.5 0 11-3 0 1.5 1.5 0 013 0zM563 14.5a1.5 1.5 0 11-3 0 1.5 1.5 0 013 0zM583 14.5a1.5 1.5 0 11-3 0 1.5 1.5 0 013 0zM603 14.5a1.5 1.5 0 11-3 0 1.5 1.5 0 013 0zM623 14.5a1.5 1.5 0 11-3 0 1.5 1.5 0 013 0zM643 14.5a1.5 1.5 0 11-3 0 1.5 1.5 0 013 0zM363 34.5a1.5 1.5 0 11-3 0 1.5 1.5 0 013 0zM383 34.5a1.5 1.5 0 11-3 0 1.5 1.5 0 013 0zM403 34.5a1.5 1.5 0 11-3 0 1.5 1.5 0 013 0zM423 34.5a1.5 1.5 0 11-3 0 1.5 1.5 0 013 0zM443 34.5a1.5 1.5 0 11-3 0 1.5 1.5 0 013 0zM463 34.5a1.5 1.5 0 11-3 0 1.5 1.5 0 013 0zM483 34.5a1.5 1.5 0 11-3 0 1.5 1.5 0 013 0zM503 34.5a1.5 1.5 0 11-3 0 1.5 1.5 0 013 0zM523 34.5a1.5 1.5 0 11-3 0 1.5 1.5 0 013 0zM543 34.5a1.5 1.5 0 11-3 0 1.5 1.5 0 013 0zM563 34.5a1.5 1.5 0 11-3 0 1.5 1.5 0 013 0zM583 34.5a1.5 1.5 0 11-3 0 1.5 1.5 0 013 0zM603 34.5a1.5 1.5 0 11-3 0 1.5 1.5 0 013 0zM623 34.5a1.5 1.5 0 11-3 0 1.5 1.5 0 013 0zM643 34.5a1.5 1.5 0 11-3 0 1.5 1.5 0 013 0zM363 54.5a1.5 1.5 0 11-3 0 1.5 1.5 0 013 0zM383 54.5a1.5 1.5 0 11-3 0 1.5 1.5 0 013 0zM403 54.5a1.5 1.5 0 11-3 0 1.5 1.5 0 013 0zM423 54.5a1.5 1.5 0 11-3 0 1.5 1.5 0 013 0zM443 54.5a1.5 1.5 0 11-3 0 1.5 1.5 0 013 0zM463 54.5a1.5 1.5 0 11-3 0 1.5 1.5 0 013 0zM483 54.5a1.5 1.5 0 11-3 0 1.5 1.5 0 013 0zM503 54.5a1.5 1.5 0 11-3 0 1.5 1.5 0 013 0zM523 54.5a1.5 1.5 0 11-3 0 1.5 1.5 0 013 0zM543 54.5a1.5 1.5 0 11-3 0 1.5 1.5 0 013 0zM563 54.5a1.5 1.5 0 11-3 0 1.5 1.5 0 013 0zM583 54.5a1.5 1.5 0 11-3 0 1.5 1.5 0 013 0zM603 54.5a1.5 1.5 0 11-3 0 1.5 1.5 0 013 0zM623 54.5a1.5 1.5 0 11-3 0 1.5 1.5 0 013 0zM643 54.5a1.5 1.5 0 11-3 0 1.5 1.5 0 013 0zM363 74.5a1.5 1.5 0 11-3 0 1.5 1.5 0 013 0zM383 74.5a1.5 1.5 0 11-3 0 1.5 1.5 0 013 0zM403 74.5a1.5 1.5 0 11-3 0 1.5 1.5 0 013 0zM423 74.5a1.5 1.5 0 11-3 0 1.5 1.5 0 013 0zM443 74.5a1.5 1.5 0 11-3 0 1.5 1.5 0 013 0zM463 74.5a1.5 1.5 0 11-3 0 1.5 1.5 0 013 0zM483 74.5a1.5 1.5 0 11-3 0 1.5 1.5 0 013 0zM503 74.5a1.5 1.5 0 11-3 0 1.5 1.5 0 013 0zM523 74.5a1.5 1.5 0 11-3 0 1.5 1.5 0 013 0zM543 74.5a1.5 1.5 0 11-3 0 1.5 1.5 0 013 0zM563 74.5a1.5 1.5 0 11-3 0 1.5 1.5 0 013 0zM583 74.5a1.5 1.5 0 11-3 0 1.5 1.5 0 013 0zM603 74.5a1.5 1.5 0 11-3 0 1.5 1.5 0 013 0zM623 74.5a1.5 1.5 0 11-3 0 1.5 1.5 0 013 0zM643 74.5a1.5 1.5 0 11-3 0 1.5 1.5 0 013 0zM363 94.5a1.5 1.5 0 11-3 0 1.5 1.5 0 013 0zM383 94.5a1.5 1.5 0 11-3 0 1.5 1.5 0 013 0zM403 94.5a1.5 1.5 0 11-3 0 1.5 1.5 0 013 0zM423 94.5a1.5 1.5 0 11-3 0 1.5 1.5 0 013 0zM443 94.5a1.5 1.5 0 11-3 0 1.5 1.5 0 013 0zM463 94.5a1.5 1.5 0 11-3 0 1.5 1.5 0 013 0zM483 94.5a1.5 1.5 0 11-3 0 1.5 1.5 0 013 0zM503 94.5a1.5 1.5 0 11-3 0 1.5 1.5 0 013 0zM523 94.5a1.5 1.5 0 11-3 0 1.5 1.5 0 013 0zM543 94.5a1.5 1.5 0 11-3 0 1.5 1.5 0 013 0zM563 94.5a1.5 1.5 0 11-3 0 1.5 1.5 0 013 0zM583 94.5a1.5 1.5 0 11-3 0 1.5 1.5 0 013 0zM603 94.5a1.5 1.5 0 11-3 0 1.5 1.5 0 013 0zM623 94.5a1.5 1.5 0 11-3 0 1.5 1.5 0 013 0zM643 94.5a1.5 1.5 0 11-3 0 1.5 1.5 0 013 0zM363 114.5a1.5 1.5 0 11-3.001-.001 1.5 1.5 0 013.001.001zM383 114.5a1.5 1.5 0 11-3.001-.001 1.5 1.5 0 013.001.001zM403 114.5a1.5 1.5 0 11-3.001-.001 1.5 1.5 0 013.001.001zM423 114.5a1.5 1.5 0 11-3.001-.001 1.5 1.5 0 013.001.001zM443 114.5a1.5 1.5 0 11-3.001-.001 1.5 1.5 0 013.001.001zM463 114.5a1.5 1.5 0 11-3.001-.001 1.5 1.5 0 013.001.001zM483 114.5a1.5 1.5 0 11-3.001-.001 1.5 1.5 0 013.001.001zM503 114.5a1.5 1.5 0 11-3.001-.001 1.5 1.5 0 013.001.001zM523 114.5a1.5 1.5 0 11-3.001-.001 1.5 1.5 0 013.001.001zM543 114.5a1.5 1.5 0 11-3.001-.001 1.5 1.5 0 013.001.001zM563 114.5a1.5 1.5 0 11-3.001-.001 1.5 1.5 0 013.001.001zM583 114.5a1.5 1.5 0 11-3.001-.001 1.5 1.5 0 013.001.001zM603 114.5a1.5 1.5 0 11-3.001-.001 1.5 1.5 0 013.001.001zM623 114.5a1.5 1.5 0 11-3.001-.001 1.5 1.5 0 013.001.001zM643 114.5a1.5 1.5 0 11-3.001-.001 1.5 1.5 0 013.001.001zM363 134.5a1.5 1.5 0 11-3.001-.001 1.5 1.5 0 013.001.001zM383 134.5a1.5 1.5 0 11-3.001-.001 1.5 1.5 0 013.001.001zM403 134.5a1.5 1.5 0 11-3.001-.001 1.5 1.5 0 013.001.001zM423 134.5a1.5 1.5 0 11-3.001-.001 1.5 1.5 0 013.001.001zM443 134.5a1.5 1.5 0 11-3.001-.001 1.5 1.5 0 013.001.001zM463 134.5a1.5 1.5 0 11-3.001-.001 1.5 1.5 0 013.001.001zM483 134.5a1.5 1.5 0 11-3.001-.001 1.5 1.5 0 013.001.001zM503 134.5a1.5 1.5 0 11-3.001-.001 1.5 1.5 0 013.001.001zM523 134.5a1.5 1.5 0 11-3.001-.001 1.5 1.5 0 013.001.001zM543 134.5a1.5 1.5 0 11-3.001-.001 1.5 1.5 0 013.001.001zM563 134.5a1.5 1.5 0 11-3.001-.001 1.5 1.5 0 013.001.001zM583 134.5a1.5 1.5 0 11-3.001-.001 1.5 1.5 0 013.001.001zM603 134.5a1.5 1.5 0 11-3.001-.001 1.5 1.5 0 013.001.001zM623 134.5a1.5 1.5 0 11-3.001-.001 1.5 1.5 0 013.001.001zM643 134.5a1.5 1.5 0 11-3.001-.001 1.5 1.5 0 013.001.001zM363 154.5a1.5 1.5 0 11-3.001-.001 1.5 1.5 0 013.001.001zM383 154.5a1.5 1.5 0 11-3.001-.001 1.5 1.5 0 013.001.001zM403 154.5a1.5 1.5 0 11-3.001-.001 1.5 1.5 0 013.001.001zM423 154.5a1.5 1.5 0 11-3.001-.001 1.5 1.5 0 013.001.001zM443 154.5a1.5 1.5 0 11-3.001-.001 1.5 1.5 0 013.001.001zM463 154.5a1.5 1.5 0 11-3.001-.001 1.5 1.5 0 013.001.001zM483 154.5a1.5 1.5 0 11-3.001-.001 1.5 1.5 0 013.001.001zM503 154.5a1.5 1.5 0 11-3.001-.001 1.5 1.5 0 013.001.001zM523 154.5a1.5 1.5 0 11-3.001-.001 1.5 1.5 0 013.001.001zM543 154.5a1.5 1.5 0 11-3.001-.001 1.5 1.5 0 013.001.001zM563 154.5a1.5 1.5 0 11-3.001-.001 1.5 1.5 0 013.001.001zM583 154.5a1.5 1.5 0 11-3.001-.001 1.5 1.5 0 013.001.001zM603 154.5a1.5 1.5 0 11-3.001-.001 1.5 1.5 0 013.001.001zM623 154.5a1.5 1.5 0 11-3.001-.001 1.5 1.5 0 013.001.001zM643 154.5a1.5 1.5 0 11-3.001-.001 1.5 1.5 0 013.001.001zM363 174.5a1.5 1.5 0 11-3.001-.001 1.5 1.5 0 013.001.001zM383 174.5a1.5 1.5 0 11-3.001-.001 1.5 1.5 0 013.001.001zM403 174.5a1.5 1.5 0 11-3.001-.001 1.5 1.5 0 013.001.001zM423 174.5a1.5 1.5 0 11-3.001-.001 1.5 1.5 0 013.001.001zM443 174.5a1.5 1.5 0 11-3.001-.001 1.5 1.5 0 013.001.001zM463 174.5a1.5 1.5 0 11-3.001-.001 1.5 1.5 0 013.001.001zM483 174.5a1.5 1.5 0 11-3.001-.001 1.5 1.5 0 013.001.001zM503 174.5a1.5 1.5 0 11-3.001-.001 1.5 1.5 0 013.001.001zM523 174.5a1.5 1.5 0 11-3.001-.001 1.5 1.5 0 013.001.001zM543 174.5a1.5 1.5 0 11-3.001-.001 1.5 1.5 0 013.001.001zM563 174.5a1.5 1.5 0 11-3.001-.001 1.5 1.5 0 013.001.001zM583 174.5a1.5 1.5 0 11-3.001-.001 1.5 1.5 0 013.001.001zM603 174.5a1.5 1.5 0 11-3.001-.001 1.5 1.5 0 013.001.001zM623 174.5a1.5 1.5 0 11-3.001-.001 1.5 1.5 0 013.001.001zM643 174.5a1.5 1.5 0 11-3.001-.001 1.5 1.5 0 013.001.001zM363 194.5a1.5 1.5 0 11-3.001-.001 1.5 1.5 0 013.001.001zM383 194.5a1.5 1.5 0 11-3.001-.001 1.5 1.5 0 013.001.001zM403 194.5a1.5 1.5 0 11-3.001-.001 1.5 1.5 0 013.001.001zM423 194.5a1.5 1.5 0 11-3.001-.001 1.5 1.5 0 013.001.001zM443 194.5a1.5 1.5 0 11-3.001-.001 1.5 1.5 0 013.001.001zM463 194.5a1.5 1.5 0 11-3.001-.001 1.5 1.5 0 013.001.001zM483 194.5a1.5 1.5 0 11-3.001-.001 1.5 1.5 0 013.001.001zM503 194.5a1.5 1.5 0 11-3.001-.001 1.5 1.5 0 013.001.001zM523 194.5a1.5 1.5 0 11-3.001-.001 1.5 1.5 0 013.001.001zM543 194.5a1.5 1.5 0 11-3.001-.001 1.5 1.5 0 013.001.001zM563 194.5a1.5 1.5 0 11-3.001-.001 1.5 1.5 0 013.001.001zM583 194.5a1.5 1.5 0 11-3.001-.001 1.5 1.5 0 013.001.001zM603 194.5a1.5 1.5 0 11-3.001-.001 1.5 1.5 0 013.001.001zM623 194.5a1.5 1.5 0 11-3.001-.001 1.5 1.5 0 013.001.001zM643 194.5a1.5 1.5 0 11-3.001-.001 1.5 1.5 0 013.001.001zM663 14.5a1.5 1.5 0 11-3 0 1.5 1.5 0 013 0zM683 14.5a1.5 1.5 0 11-3 0 1.5 1.5 0 013 0zM703 14.5a1.5 1.5 0 11-3 0 1.5 1.5 0 013 0zM723 14.5a1.5 1.5 0 11-3 0 1.5 1.5 0 013 0zM743 14.5a1.5 1.5 0 11-3 0 1.5 1.5 0 013 0zM763 14.5a1.5 1.5 0 11-3 0 1.5 1.5 0 013 0zM783 14.5a1.5 1.5 0 11-3 0 1.5 1.5 0 013 0zM663 34.5a1.5 1.5 0 11-3 0 1.5 1.5 0 013 0zM683 34.5a1.5 1.5 0 11-3 0 1.5 1.5 0 013 0zM703 34.5a1.5 1.5 0 11-3 0 1.5 1.5 0 013 0zM723 34.5a1.5 1.5 0 11-3 0 1.5 1.5 0 013 0zM743 34.5a1.5 1.5 0 11-3 0 1.5 1.5 0 013 0zM763 34.5a1.5 1.5 0 11-3 0 1.5 1.5 0 013 0zM783 34.5a1.5 1.5 0 11-3 0 1.5 1.5 0 013 0zM803 34.5a1.5 1.5 0 11-3 0 1.5 1.5 0 013 0zM663 54.5a1.5 1.5 0 11-3 0 1.5 1.5 0 013 0zM683 54.5a1.5 1.5 0 11-3 0 1.5 1.5 0 013 0zM703 54.5a1.5 1.5 0 11-3 0 1.5 1.5 0 013 0zM723 54.5a1.5 1.5 0 11-3 0 1.5 1.5 0 013 0zM743 54.5a1.5 1.5 0 11-3 0 1.5 1.5 0 013 0zM763 54.5a1.5 1.5 0 11-3 0 1.5 1.5 0 013 0zM783 54.5a1.5 1.5 0 11-3 0 1.5 1.5 0 013 0zM803 54.5a1.5 1.5 0 11-3 0 1.5 1.5 0 013 0zM823 54.5a1.5 1.5 0 11-3 0 1.5 1.5 0 013 0zM663 74.5a1.5 1.5 0 11-3 0 1.5 1.5 0 013 0zM683 74.5a1.5 1.5 0 11-3 0 1.5 1.5 0 013 0zM703 74.5a1.5 1.5 0 11-3 0 1.5 1.5 0 013 0zM723 74.5a1.5 1.5 0 11-3 0 1.5 1.5 0 013 0zM743 74.5a1.5 1.5 0 11-3 0 1.5 1.5 0 013 0zM763 74.5a1.5 1.5 0 11-3 0 1.5 1.5 0 013 0zM783 74.5a1.5 1.5 0 11-3 0 1.5 1.5 0 013 0zM803 74.5a1.5 1.5 0 11-3 0 1.5 1.5 0 013 0zM823 74.5a1.5 1.5 0 11-3 0 1.5 1.5 0 013 0zM663 94.5a1.5 1.5 0 11-3 0 1.5 1.5 0 013 0zM683 94.5a1.5 1.5 0 11-3 0 1.5 1.5 0 013 0zM703 94.5a1.5 1.5 0 11-3 0 1.5 1.5 0 013 0zM723 94.5a1.5 1.5 0 11-3 0 1.5 1.5 0 013 0zM743 94.5a1.5 1.5 0 11-3 0 1.5 1.5 0 013 0zM763 94.5a1.5 1.5 0 11-3 0 1.5 1.5 0 013 0zM783 94.5a1.5 1.5 0 11-3 0 1.5 1.5 0 013 0zM803 94.5a1.5 1.5 0 11-3 0 1.5 1.5 0 013 0zM823 94.5a1.5 1.5 0 11-3 0 1.5 1.5 0 013 0zM663 114.5a1.5 1.5 0 11-3.001-.001 1.5 1.5 0 013.001.001zM683 114.5a1.5 1.5 0 11-3.001-.001 1.5 1.5 0 013.001.001zM703 114.5a1.5 1.5 0 11-3.001-.001 1.5 1.5 0 013.001.001zM723 114.5a1.5 1.5 0 11-3.001-.001 1.5 1.5 0 013.001.001zM743 114.5a1.5 1.5 0 11-3.001-.001 1.5 1.5 0 013.001.001zM763 114.5a1.5 1.5 0 11-3.001-.001 1.5 1.5 0 013.001.001zM783 114.5a1.5 1.5 0 11-3.001-.001 1.5 1.5 0 013.001.001zM803 114.5a1.5 1.5 0 11-3.001-.001 1.5 1.5 0 013.001.001zM823 114.5a1.5 1.5 0 11-3.001-.001 1.5 1.5 0 013.001.001zM663 134.5a1.5 1.5 0 11-3.001-.001 1.5 1.5 0 013.001.001zM683 134.5a1.5 1.5 0 11-3.001-.001 1.5 1.5 0 013.001.001zM703 134.5a1.5 1.5 0 11-3.001-.001 1.5 1.5 0 013.001.001zM723 134.5a1.5 1.5 0 11-3.001-.001 1.5 1.5 0 013.001.001zM743 134.5a1.5 1.5 0 11-3.001-.001 1.5 1.5 0 013.001.001zM763 134.5a1.5 1.5 0 11-3.001-.001 1.5 1.5 0 013.001.001zM783 134.5a1.5 1.5 0 11-3.001-.001 1.5 1.5 0 013.001.001zM803 134.5a1.5 1.5 0 11-3.001-.001 1.5 1.5 0 013.001.001zM823 134.5a1.5 1.5 0 11-3.001-.001 1.5 1.5 0 013.001.001zM663 154.5a1.5 1.5 0 11-3.001-.001 1.5 1.5 0 013.001.001zM683 154.5a1.5 1.5 0 11-3.001-.001 1.5 1.5 0 013.001.001zM703 154.5a1.5 1.5 0 11-3.001-.001 1.5 1.5 0 013.001.001zM723 154.5a1.5 1.5 0 11-3.001-.001 1.5 1.5 0 013.001.001zM743 154.5a1.5 1.5 0 11-3.001-.001 1.5 1.5 0 013.001.001zM763 154.5a1.5 1.5 0 11-3.001-.001 1.5 1.5 0 013.001.001zM783 154.5a1.5 1.5 0 11-3.001-.001 1.5 1.5 0 013.001.001zM803 154.5a1.5 1.5 0 11-3.001-.001 1.5 1.5 0 013.001.001zM823 154.5a1.5 1.5 0 11-3.001-.001 1.5 1.5 0 013.001.001zM663 174.5a1.5 1.5 0 11-3.001-.001 1.5 1.5 0 013.001.001zM683 174.5a1.5 1.5 0 11-3.001-.001 1.5 1.5 0 013.001.001zM703 174.5a1.5 1.5 0 11-3.001-.001 1.5 1.5 0 013.001.001zM723 174.5a1.5 1.5 0 11-3.001-.001 1.5 1.5 0 013.001.001zM743 174.5a1.5 1.5 0 11-3.001-.001 1.5 1.5 0 013.001.001zM763 174.5a1.5 1.5 0 11-3.001-.001 1.5 1.5 0 013.001.001zM783 174.5a1.5 1.5 0 11-3.001-.001 1.5 1.5 0 013.001.001zM803 174.5a1.5 1.5 0 11-3.001-.001 1.5 1.5 0 013.001.001zM823 174.5a1.5 1.5 0 11-3.001-.001 1.5 1.5 0 013.001.001zM663 194.5a1.5 1.5 0 11-3.001-.001 1.5 1.5 0 013.001.001zM683 194.5a1.5 1.5 0 11-3.001-.001 1.5 1.5 0 013.001.001zM703 194.5a1.5 1.5 0 11-3.001-.001 1.5 1.5 0 013.001.001zM723 194.5a1.5 1.5 0 11-3.001-.001 1.5 1.5 0 013.001.001zM743 194.5a1.5 1.5 0 11-3.001-.001 1.5 1.5 0 013.001.001zM763 194.5a1.5 1.5 0 11-3.001-.001 1.5 1.5 0 013.001.001zM783 194.5a1.5 1.5 0 11-3.001-.001 1.5 1.5 0 013.001.001zM803 194.5a1.5 1.5 0 11-3.001-.001 1.5 1.5 0 013.001.001zM823 194.5a1.5 1.5 0 11-3.001-.001 1.5 1.5 0 013.001.001zM3 214.5a1.5 1.5 0 11-3 0 1.5 1.5 0 013 0zM3 234.5a1.5 1.5 0 11-3 0 1.5 1.5 0 013 0zM3 254.5a1.5 1.5 0 11-3 0 1.5 1.5 0 013 0zM3 274.5a1.5 1.5 0 11-3 0 1.5 1.5 0 013 0zM3 294.5a1.5 1.5 0 11-3 0 1.5 1.5 0 013 0zM3 314.5a1.5 1.5 0 11-3 0 1.5 1.5 0 013 0zM3 334.5a1.5 1.5 0 11-3 0 1.5 1.5 0 013 0zM3 354.5a1.5 1.5 0 11-3 0 1.5 1.5 0 013 0zM3 374.5a1.5 1.5 0 11-3 0 1.5 1.5 0 013 0zM3 394.5a1.5 1.5 0 11-3 0 1.5 1.5 0 013 0zM3 414.5a1.5 1.5 0 11-3 0 1.5 1.5 0 013 0zM3 434.5a1.5 1.5 0 11-3 0 1.5 1.5 0 013 0zM3 454.5a1.5 1.5 0 11-3 0 1.5 1.5 0 013 0zM3 474.5a1.5 1.5 0 11-3 0 1.5 1.5 0 013 0zM3 494.5a1.5 1.5 0 11-3 0 1.5 1.5 0 013 0zM3 514.5a1.5 1.5 0 11-3 0 1.5 1.5 0 013 0zM3 174.5a1.5 1.5 0 11-3 0 1.5 1.5 0 013 0zM3 194.5a1.5 1.5 0 11-3 0 1.5 1.5 0 013 0z"/></g><g filter="url(#filter0_di)"><path d="M476.093 412.546c-25.723-96 31.248-194.677 127.248-220.4 96-25.723 194.676 31.248 220.399 127.248 25.724 96-31.247 194.676-127.247 220.399-96 25.723-194.676-31.247-220.4-127.247z" fill="url(#paint0_linear)"/></g><g filter="url(#filter1_di)"><path d="M154.764 467.713c-28.588-106.693 34.728-216.361 141.421-244.949 106.693-28.588 216.361 34.728 244.949 141.421 28.589 106.693-34.728 216.361-141.421 244.949-106.693 28.589-216.361-34.728-244.949-141.421z" fill="url(#paint1_linear)"/></g><g filter="url(#filter2_di)"><path d="M539.058 217.028c-17.153-64.016 20.837-129.817 84.853-146.97 64.016-17.153 129.816 20.837 146.969 84.853 17.153 64.016-20.837 129.816-84.852 146.969-64.016 17.153-129.817-20.837-146.97-84.852z" fill="url(#paint2_linear)"/></g><g filter="url(#filter3_di)"><path d="M91.53 207.014c-8.577-32.008 10.418-64.908 42.425-73.485 32.008-8.576 64.909 10.419 73.485 42.426 8.577 32.008-10.418 64.909-42.426 73.485-32.008 8.577-64.908-10.418-73.485-42.426z" fill="url(#paint3_linear)"/></g><g filter="url(#filter4_di)"><path d="M448.412 125.267c-10.721-40.01 13.023-81.135 53.033-91.856 40.01-10.72 81.135 13.023 91.855 53.033 10.721 40.01-13.023 81.135-53.033 91.856-40.01 10.721-81.135-13.023-91.855-53.033z" fill="url(#paint4_linear)"/></g><g filter="url(#filter5_di)"><path d="M64.764 96.506c-4.288-16.004 5.21-32.454 21.214-36.742 16.004-4.288 32.454 5.21 36.742 21.213 4.288 16.004-5.209 32.454-21.213 36.743-16.004 4.288-32.454-5.21-36.743-21.214z" fill="url(#paint5_linear)"/></g><g filter="url(#filter6_di)"><path d="M725.765 265.506c-4.289-16.004 5.209-32.454 21.213-36.742 16.004-4.288 32.454 5.209 36.742 21.213 4.288 16.004-5.209 32.454-21.213 36.743-16.004 4.288-32.454-5.21-36.742-21.214z" fill="url(#paint6_linear)"/></g><defs><linearGradient id="paint0_linear" x1="589.978" y1="202.555" x2="741.144" y2="508.818" gradientUnits="userSpaceOnUse"><stop stop-color="#FF9EC9"/><stop offset="1" stop-color="#FD71AF"/></linearGradient><linearGradient id="paint1_linear" x1="281.333" y1="234.333" x2="449.337" y2="574.709" gradientUnits="userSpaceOnUse"><stop stop-color="#FF9EC9"/><stop offset="1" stop-color="#FD71AF"/></linearGradient><linearGradient id="paint2_linear" x1="615" y1="76.999" x2="715.802" y2="281.225" gradientUnits="userSpaceOnUse"><stop stop-color="#FF9EC9"/><stop offset="1" stop-color="#FD71AF"/></linearGradient><linearGradient id="paint3_linear" x1="129.5" y1="137" x2="179.901" y2="239.113" gradientUnits="userSpaceOnUse"><stop stop-color="#FF9EC9"/><stop offset="1" stop-color="#FD71AF"/></linearGradient><linearGradient id="paint4_linear" x1="495.875" y1="37.749" x2="558.876" y2="165.391" gradientUnits="userSpaceOnUse"><stop stop-color="#FF9EC9"/><stop offset="1" stop-color="#FD71AF"/></linearGradient><linearGradient id="paint5_linear" x1="83.75" y1="61.499" x2="108.951" y2="112.556" gradientUnits="userSpaceOnUse"><stop stop-color="#FF9EC9"/><stop offset="1" stop-color="#FD71AF"/></linearGradient><linearGradient id="paint6_linear" x1="744.75" y1="230.5" x2="769.951" y2="281.556" gradientUnits="userSpaceOnUse"><stop stop-color="#FF9EC9"/><stop offset="1" stop-color="#FD71AF"/></linearGradient><filter id="filter0_di" x="424.917" y="155.97" width="450" height="450" filterUnits="userSpaceOnUse" color-interpolation-filters="sRGB"><feFlood flood-opacity="0" result="BackgroundImageFix"/><feColorMatrix in="SourceAlpha" values="0 0 0 0 0 0 0 0 0 0 0 0 0 0 0 0 0 0 127 0"/><feOffset dy="15"/><feGaussianBlur stdDeviation="22.5"/><feColorMatrix values="0 0 0 0 0.992157 0 0 0 0 0.443137 0 0 0 0 0.686275 0 0 0 0.5 0"/><feBlend in2="BackgroundImageFix" result="effect1_dropShadow"/><feBlend in="SourceGraphic" in2="effect1_dropShadow" result="shape"/><feColorMatrix in="SourceAlpha" values="0 0 0 0 0 0 0 0 0 0 0 0 0 0 0 0 0 0 127 0" result="hardAlpha"/><feOffset/><feGaussianBlur stdDeviation="5"/><feComposite in2="hardAlpha" operator="arithmetic" k2="-1" k3="1"/><feColorMatrix values="0 0 0 0 1 0 0 0 0 1 0 0 0 0 1 0 0 0 0.25 0"/><feBlend in2="shape" result="effect2_innerShadow"/></filter><filter id="filter1_di" x="102.899" y="185.899" width="490.099" height="490.099" filterUnits="userSpaceOnUse" color-interpolation-filters="sRGB"><feFlood flood-opacity="0" result="BackgroundImageFix"/><feColorMatrix in="SourceAlpha" values="0 0 0 0 0 0 0 0 0 0 0 0 0 0 0 0 0 0 127 0"/><feOffset dy="15"/><feGaussianBlur stdDeviation="22.5"/><feColorMatrix values="0 0 0 0 0.992157 0 0 0 0 0.443137 0 0 0 0 0.686275 0 0 0 0.5 0"/><feBlend in2="BackgroundImageFix" result="effect1_dropShadow"/><feBlend in="SourceGraphic" in2="effect1_dropShadow" result="shape"/><feColorMatrix in="SourceAlpha" values="0 0 0 0 0 0 0 0 0 0 0 0 0 0 0 0 0 0 127 0" result="hardAlpha"/><feOffset/><feGaussianBlur stdDeviation="5"/><feComposite in2="hardAlpha" operator="arithmetic" k2="-1" k3="1"/><feColorMatrix values="0 0 0 0 1 0 0 0 0 1 0 0 0 0 1 0 0 0 0.25 0"/><feBlend in2="shape" result="effect2_innerShadow"/></filter><filter id="filter2_di" x="489.939" y="35.94" width="330.06" height="330.06" filterUnits="userSpaceOnUse" color-interpolation-filters="sRGB"><feFlood flood-opacity="0" result="BackgroundImageFix"/><feColorMatrix in="SourceAlpha" values="0 0 0 0 0 0 0 0 0 0 0 0 0 0 0 0 0 0 127 0"/><feOffset dy="15"/><feGaussianBlur stdDeviation="22.5"/><feColorMatrix values="0 0 0 0 0.992157 0 0 0 0 0.443137 0 0 0 0 0.686275 0 0 0 0.5 0"/><feBlend in2="BackgroundImageFix" result="effect1_dropShadow"/><feBlend in="SourceGraphic" in2="effect1_dropShadow" result="shape"/><feColorMatrix in="SourceAlpha" values="0 0 0 0 0 0 0 0 0 0 0 0 0 0 0 0 0 0 127 0" result="hardAlpha"/><feOffset/><feGaussianBlur stdDeviation="5"/><feComposite in2="hardAlpha" operator="arithmetic" k2="-1" k3="1"/><feColorMatrix values="0 0 0 0 1 0 0 0 0 1 0 0 0 0 1 0 0 0 0.25 0"/><feBlend in2="shape" result="effect2_innerShadow"/></filter><filter id="filter3_di" x="44.47" y="101.47" width="210.03" height="210.03" filterUnits="userSpaceOnUse" color-interpolation-filters="sRGB"><feFlood flood-opacity="0" result="BackgroundImageFix"/><feColorMatrix in="SourceAlpha" values="0 0 0 0 0 0 0 0 0 0 0 0 0 0 0 0 0 0 127 0"/><feOffset dy="15"/><feGaussianBlur stdDeviation="22.5"/><feColorMatrix values="0 0 0 0 0.992157 0 0 0 0 0.443137 0 0 0 0 0.686275 0 0 0 0.5 0"/><feBlend in2="BackgroundImageFix" result="effect1_dropShadow"/><feBlend in="SourceGraphic" in2="effect1_dropShadow" result="shape"/><feColorMatrix in="SourceAlpha" values="0 0 0 0 0 0 0 0 0 0 0 0 0 0 0 0 0 0 127 0" result="hardAlpha"/><feOffset/><feGaussianBlur stdDeviation="5"/><feComposite in2="hardAlpha" operator="arithmetic" k2="-1" k3="1"/><feColorMatrix values="0 0 0 0 1 0 0 0 0 1 0 0 0 0 1 0 0 0 0.25 0"/><feBlend in2="shape" result="effect2_innerShadow"/></filter><filter id="filter4_di" x="400.837" y=".837" width="240.037" height="240.037" filterUnits="userSpaceOnUse" color-interpolation-filters="sRGB"><feFlood flood-opacity="0" result="BackgroundImageFix"/><feColorMatrix in="SourceAlpha" values="0 0 0 0 0 0 0 0 0 0 0 0 0 0 0 0 0 0 127 0"/><feOffset dy="15"/><feGaussianBlur stdDeviation="22.5"/><feColorMatrix values="0 0 0 0 0.992157 0 0 0 0 0.443137 0 0 0 0 0.686275 0 0 0 0.5 0"/><feBlend in2="BackgroundImageFix" result="effect1_dropShadow"/><feBlend in="SourceGraphic" in2="effect1_dropShadow" result="shape"/><feColorMatrix in="SourceAlpha" values="0 0 0 0 0 0 0 0 0 0 0 0 0 0 0 0 0 0 127 0" result="hardAlpha"/><feOffset/><feGaussianBlur stdDeviation="5"/><feComposite in2="hardAlpha" operator="arithmetic" k2="-1" k3="1"/><feColorMatrix values="0 0 0 0 1 0 0 0 0 1 0 0 0 0 1 0 0 0 0.25 0"/><feBlend in2="shape" result="effect2_innerShadow"/></filter><filter id="filter5_di" x="18.735" y="28.734" width="150.015" height="150.015" filterUnits="userSpaceOnUse" color-interpolation-filters="sRGB"><feFlood flood-opacity="0" result="BackgroundImageFix"/><feColorMatrix in="SourceAlpha" values="0 0 0 0 0 0 0 0 0 0 0 0 0 0 0 0 0 0 127 0"/><feOffset dy="15"/><feGaussianBlur stdDeviation="22.5"/><feColorMatrix values="0 0 0 0 0.992157 0 0 0 0 0.443137 0 0 0 0 0.686275 0 0 0 0.5 0"/><feBlend in2="BackgroundImageFix" result="effect1_dropShadow"/><feBlend in="SourceGraphic" in2="effect1_dropShadow" result="shape"/><feColorMatrix in="SourceAlpha" values="0 0 0 0 0 0 0 0 0 0 0 0 0 0 0 0 0 0 127 0" result="hardAlpha"/><feOffset/><feGaussianBlur stdDeviation="5"/><feComposite in2="hardAlpha" operator="arithmetic" k2="-1" k3="1"/><feColorMatrix values="0 0 0 0 1 0 0 0 0 1 0 0 0 0 1 0 0 0 0.25 0"/><feBlend in2="shape" result="effect2_innerShadow"/></filter><filter id="filter6_di" x="679.735" y="197.734" width="150.015" height="150.015" filterUnits="userSpaceOnUse" color-interpolation-filters="sRGB"><feFlood flood-opacity="0" result="BackgroundImageFix"/><feColorMatrix in="SourceAlpha" values="0 0 0 0 0 0 0 0 0 0 0 0 0 0 0 0 0 0 127 0"/><feOffset dy="15"/><feGaussianBlur stdDeviation="22.5"/><feColorMatrix values="0 0 0 0 0.992157 0 0 0 0 0.443137 0 0 0 0 0.686275 0 0 0 0.5 0"/><feBlend in2="BackgroundImageFix" result="effect1_dropShadow"/><feBlend in="SourceGraphic" in2="effect1_dropShadow" result="shape"/><feColorMatrix in="SourceAlpha" values="0 0 0 0 0 0 0 0 0 0 0 0 0 0 0 0 0 0 127 0" result="hardAlpha"/><feOffset/><feGaussianBlur stdDeviation="5"/><feComposite in2="hardAlpha" operator="arithmetic" k2="-1" k3="1"/><feColorMatrix values="0 0 0 0 1 0 0 0 0 1 0 0 0 0 1 0 0 0 0.25 0"/><feBlend in2="shape" result="effect2_innerShadow"/></filter></defs></svg>