<svg width="10" height="8" viewBox="0 0 10 8" fill="none" xmlns="http://www.w3.org/2000/svg">
<path fill-rule="evenodd" clip-rule="evenodd" d="M7.58786 3.99411L5.29329 6.28869C4.90276 6.67921 4.90276 7.31237 5.29329 7.7029C5.68381 8.09342 6.31698 8.09342 6.7075 7.7029L9.70747 4.70293C9.90316 4.50724 10.0008 4.25062 10.0004 3.99413C10.0008 3.73763 9.90318 3.481 9.70747 3.2853L6.71507 0.292893C6.32455 -0.0976314 5.69138 -0.0976307 5.30086 0.292894C4.91033 0.683418 4.91033 1.31658 5.30086 1.70711L7.58786 3.99411Z" fill="#ef4136"/>
<path fill-rule="evenodd" clip-rule="evenodd" d="M2.58798 3.99411L0.29341 6.28869C-0.0971141 6.67921 -0.0971141 7.31237 0.29341 7.7029C0.683935 8.09342 1.3171 8.09342 1.70762 7.7029L4.7076 4.70293C4.90329 4.50724 5.00092 4.25062 5.00049 3.99413C5.00093 3.73763 4.9033 3.481 4.7076 3.2853L1.71519 0.292893C1.32467 -0.0976314 0.691503 -0.0976307 0.300979 0.292894C-0.0895452 0.683418 -0.0895452 1.31658 0.300979 1.70711L2.58798 3.99411Z" fill="#ef4136"/>
</svg>
