<svg width="500" height="162" viewBox="0 0 500 162" fill="none" xmlns="http://www.w3.org/2000/svg">
<path d="M68.4412 133.524H0V43.0447H25.7114V109.282H68.4412V133.524Z" fill="white"/>
<path d="M144.634 97.6508C144.634 100.508 144.389 103.65 143.9 107.078H96.7622C99.2926 112.792 104.231 115.649 111.577 115.649C118.76 115.649 125.33 113.69 131.289 109.772L140.594 125.688C131.86 131.892 121.78 134.993 110.353 134.993C98.2723 134.993 88.9264 131.606 82.3149 124.831C75.7034 117.975 72.3977 109.527 72.3977 99.4873C72.3977 89.2027 75.785 80.6731 82.5598 73.8984C89.4978 67.1236 98.3947 63.7363 109.251 63.7363C119.454 63.7363 127.902 66.7971 134.595 72.9189C141.288 78.8774 144.634 87.1214 144.634 97.6508ZM109.251 82.5913C102.884 82.5913 98.5988 85.4073 96.3949 91.0393H121.739C119.698 85.4073 115.536 82.5913 109.251 82.5913Z" fill="white"/>
<path d="M182.221 101.446L194.342 65.4503H220.666L191.526 133.402H171.937L143.042 65.4503H169.488L182.221 101.446Z" fill="white"/>
<path d="M291.333 97.6508C291.333 100.508 291.088 103.65 290.599 107.078H243.461C245.991 112.792 250.93 115.649 258.276 115.649C265.459 115.649 272.029 113.69 277.988 109.772L287.293 125.688C278.559 131.892 268.479 134.993 257.051 134.993C244.971 134.993 235.625 131.606 229.014 124.831C222.402 117.975 219.097 109.527 219.097 99.4873C219.097 89.2027 222.484 80.6731 229.259 73.8984C236.197 67.1236 245.094 63.7363 255.949 63.7363C266.152 63.7363 274.6 66.7971 281.294 72.9189C287.987 78.8774 291.333 87.1214 291.333 97.6508ZM255.949 82.5913C249.583 82.5913 245.298 85.4073 243.094 91.0393H268.438C266.397 85.4073 262.234 82.5913 255.949 82.5913Z" fill="white"/>
<path d="M323.803 40.0288V133.524H299.805V40.0288H323.803Z" fill="white"/>
<path d="M374.878 135.115C365.083 135.115 356.349 132.381 348.677 126.912C340.514 120.627 336.433 110.751 336.433 97.2828V52.7309C336.433 45.6309 342.189 39.8753 349.289 39.8753C356.389 39.8753 362.144 45.6309 362.144 52.7309V97.2828C362.144 101.609 363.287 104.915 365.573 107.2C367.94 109.486 371.041 110.628 374.878 110.628C378.632 110.628 381.693 109.486 384.06 107.2C386.427 104.915 387.611 101.609 387.611 97.2828V12.8559C387.611 5.75595 393.367 0.000264826 400.467 0.000264826C407.567 0.000264826 413.322 5.75594 413.322 12.8559V97.2828C413.322 104.058 412.22 109.975 410.017 115.036C407.813 120.097 404.833 124.055 401.079 126.912C397.324 129.687 393.243 131.769 388.835 133.156C384.509 134.462 379.857 135.115 374.878 135.115Z" fill="url(#paint0_linear)"/>
<path d="M466.942 63.7356C476.574 63.7356 484.492 67.1638 490.695 74.0202C496.898 80.7949 500 89.2429 500 99.3642C500 109.404 496.898 117.893 490.695 124.831C484.492 131.769 476.615 135.238 467.065 135.238C459.882 135.238 453.801 133.115 448.822 128.871V149.501C448.822 156.162 443.423 161.561 436.762 161.561C430.102 161.561 424.702 156.162 424.702 149.501V70.3211C424.702 63.7621 430.02 58.4449 436.579 58.4449C443.138 58.4449 448.455 63.7621 448.455 70.3211V70.4695C453.679 65.9803 459.841 63.7356 466.942 63.7356ZM462.045 113.199C465.963 113.199 469.187 111.934 471.717 109.404C474.248 106.792 475.513 103.527 475.513 99.6091C475.513 95.6912 474.248 92.467 471.717 89.9367C469.187 87.3248 465.963 86.0188 462.045 86.0188C458.209 86.0188 454.985 87.3248 452.373 89.9367C449.842 92.5487 448.577 95.7728 448.577 99.6091C448.577 103.445 449.842 106.67 452.373 109.281C454.985 111.893 458.209 113.199 462.045 113.199Z" fill="url(#paint1_linear)"/>
<path d="M391.38 3.76534L368.718 26.4274C363.698 31.4479 363.698 39.5876 368.718 44.6081C373.738 49.6285 381.878 49.6285 386.899 44.6081L409.561 21.946C414.581 16.9256 414.581 8.78579 409.561 3.76534C404.54 -1.25511 396.401 -1.25511 391.38 3.76534Z" fill="url(#paint2_linear)"/>
<path d="M409.556 3.76599L432.218 26.4281C437.239 31.4485 437.239 39.5883 432.218 44.6087C427.198 49.6292 419.058 49.6292 414.038 44.6087L391.375 21.9467C386.355 16.9262 386.355 8.78644 391.375 3.76599C396.396 -1.25446 404.536 -1.25446 409.556 3.76599Z" fill="url(#paint3_linear)"/>
<path opacity="0.1" d="M400.465 31.0404L413.32 43.8959V13.1782C413.241 16.36 411.987 19.5179 409.559 21.9462L400.465 31.0404Z" fill="black"/>
<path opacity="0.1" d="M400.469 31.0276L391.377 21.9351C388.899 19.4579 387.644 16.2212 387.612 12.9746V43.8849L400.469 31.0276Z" fill="black"/>
<path opacity="0.2" d="M391.172 3.97488L391.382 3.76534C393.891 1.2557 397.181 0.000588789 400.47 0C403.759 0.000588729 407.048 1.2557 409.558 3.76534L409.767 3.97485C414.582 9.00975 414.514 16.9948 409.562 21.946L400.47 31.0387L391.377 21.946C386.426 16.9948 386.358 9.00977 391.172 3.97488Z" fill="black"/>
<defs>
<linearGradient id="paint0_linear" x1="336.433" y1="29.081" x2="498.821" y2="134.3" gradientUnits="userSpaceOnUse">
<stop stop-color="#C54AFF"/>
<stop offset="1" stop-color="#635AE3"/>
</linearGradient>
<linearGradient id="paint1_linear" x1="336.433" y1="29.081" x2="498.821" y2="134.3" gradientUnits="userSpaceOnUse">
<stop stop-color="#C54AFF"/>
<stop offset="1" stop-color="#635AE3"/>
</linearGradient>
<linearGradient id="paint2_linear" x1="336.433" y1="29.081" x2="498.821" y2="134.3" gradientUnits="userSpaceOnUse">
<stop stop-color="#C54AFF"/>
<stop offset="1" stop-color="#635AE3"/>
</linearGradient>
<linearGradient id="paint3_linear" x1="336.433" y1="29.081" x2="498.821" y2="134.3" gradientUnits="userSpaceOnUse">
<stop stop-color="#C54AFF"/>
<stop offset="1" stop-color="#635AE3"/>
</linearGradient>
</defs>
</svg>
