<svg width="280" height="67" xmlns="http://www.w3.org/2000/svg"><path d="M3.528 58.372C1.953 57.247.902 55.221.902 53.045c0-3.676 2.926-6.527 6.603-6.527 1.8 0 3.151.675 4.051 1.275 4.877 3.601 10.204 5.777 16.432 5.777 5.777 0 9.228-2.326 9.228-6.077v-.15c0-3.601-2.176-5.402-12.905-8.178-12.905-3.301-21.308-6.903-21.308-19.658v-.15C3.003 7.727 12.382 0 25.437 0c7.803 0 14.555 2.026 20.332 5.702 1.576.9 3.152 2.851 3.152 5.627 0 3.677-2.927 6.528-6.603 6.528-1.35 0-2.476-.375-3.601-.976-4.652-2.776-9.079-4.276-13.505-4.276-5.402 0-8.254 2.476-8.254 5.627v.15c0 4.202 2.777 5.627 13.88 8.403 13.056 3.376 20.333 8.103 20.333 19.282v.15c0 12.755-9.753 19.883-23.559 19.883-8.403 0-16.88-2.626-24.084-7.728zm52.07-7.353v-.15c0-10.729 8.178-15.68 19.808-15.68 4.951 0 8.553.825 12.004 2.025v-.825c0-5.777-3.601-9.004-10.579-9.004-3.826 0-6.978.526-9.604 1.35-.825.301-1.35.376-2.025.376-3.227 0-5.777-2.476-5.777-5.702 0-2.476 1.575-4.577 3.75-5.402 4.428-1.65 9.154-2.551 15.682-2.551 7.578 0 13.13 2.026 16.581 5.477 3.677 3.676 5.327 9.078 5.327 15.68v22.36c0 3.75-3.001 6.677-6.752 6.677-4.052 0-6.678-2.851-6.678-5.777v-.075c-3.376 3.751-8.103 6.227-14.856 6.227-9.228.075-16.88-5.252-16.88-15.006zm32.037-3.226v-2.476c-2.4-1.125-5.477-1.8-8.928-1.8-5.927 0-9.604 2.4-9.604 6.752v.15c0 3.751 3.151 5.927 7.578 5.927 6.528.075 10.954-3.451 10.954-8.553zm18.757 3.226v-.15c0-10.729 8.178-15.68 19.808-15.68 4.952 0 8.553.825 12.004 2.025v-.825c0-5.777-3.601-9.004-10.579-9.004-3.826 0-6.977.526-9.603 1.35-.826.301-1.35.376-2.026.376-3.226 0-5.777-2.476-5.777-5.702 0-2.476 1.575-4.577 3.751-5.402 4.427-1.65 9.154-2.551 15.681-2.551 7.578 0 13.13 2.026 16.581 5.477 3.677 3.676 5.327 9.078 5.327 15.68v22.36c0 3.75-3 6.677-6.752 6.677-4.052 0-6.678-2.851-6.678-5.777v-.075c-3.376 3.751-8.103 6.227-14.855 6.227-9.229.075-16.882-5.252-16.882-15.006zm32.037-3.226v-2.476c-2.4-1.125-5.477-1.8-8.928-1.8-5.927 0-9.604 2.4-9.604 6.752v.15c0 3.751 3.152 5.927 7.578 5.927 6.528.075 10.954-3.451 10.954-8.553zm21.909 10.58c-1.576-1.126-2.626-3.152-2.626-5.328 0-3.676 2.926-6.527 6.602-6.527 1.8 0 3.151.675 4.052 1.275 4.877 3.601 10.204 5.777 16.43 5.777 5.778 0 9.23-2.326 9.23-6.077v-.15c0-3.601-2.176-5.402-12.905-8.178-12.905-3.301-21.309-6.903-21.309-19.658v-.15C159.812 7.727 169.191 0 182.246 0c7.803 0 14.555 2.026 20.333 5.702 1.575.9 3.15 2.851 3.15 5.627 0 3.677-2.925 6.528-6.602 6.528-1.35 0-2.476-.375-3.601-.976-4.652-2.776-9.078-4.276-13.505-4.276-5.402 0-8.253 2.476-8.253 5.627v.15c0 4.202 2.776 5.627 13.88 8.403 13.055 3.376 20.333 8.103 20.333 19.282v.15c0 12.755-9.754 19.883-23.56 19.883-8.402 0-16.956-2.626-24.083-7.728zm56.871-7.129V27.986h-.45a5.892 5.892 0 0 1-5.927-5.928 5.892 5.892 0 0 1 5.927-5.927h.45V9.98c0-3.827 3.151-6.978 6.978-6.978 3.826 0 6.977 3.151 6.977 6.978v6.152h6.153a5.892 5.892 0 0 1 5.927 5.927 5.892 5.892 0 0 1-5.927 5.928h-6.153v21.008c0 3.226 1.351 4.801 4.502 4.801.45 0 1.35-.075 1.65-.075 3.152 0 5.778 2.551 5.778 5.778 0 2.475-1.65 4.501-3.601 5.251-2.551.976-4.952 1.351-7.953 1.351-8.554-.15-14.33-3.526-14.33-14.856zm32.262-28.81c0-3.827 3.152-6.978 6.978-6.978 3.826 0 6.978 3.151 6.978 6.977v2.176c2.025-4.802 5.327-9.153 9.453-9.153 4.277 0 6.753 2.85 6.753 6.752 0 3.677-2.401 5.853-5.252 6.528-7.053 1.65-11.03 7.053-11.03 16.956v13.055c0 3.827-3.15 6.978-6.977 6.978-3.826 0-6.978-3.151-6.978-6.978V22.433h.075z" fill="#FFF" fill-rule="evenodd"/></svg>