<svg width="903" height="697" fill="none" xmlns="http://www.w3.org/2000/svg"><g opacity=".1" fill="#000"><path d="M102.168 215.242a1.5 1.5 0 11-3 0 1.5 1.5 0 013 0zM122.168 215.242a1.5 1.5 0 11-3 0 1.5 1.5 0 013 0zM102.168 235.242a1.5 1.5 0 11-3 0 1.5 1.5 0 013 0zM122.168 235.242a1.5 1.5 0 11-3 0 1.5 1.5 0 013 0zM102.168 255.242a1.5 1.5 0 11-3 0 1.5 1.5 0 013 0zM122.168 255.242a1.5 1.5 0 11-3 0 1.5 1.5 0 013 0zM102.168 275.242a1.5 1.5 0 11-3 0 1.5 1.5 0 013 0zM122.168 275.242a1.5 1.5 0 11-3 0 1.5 1.5 0 013 0zM102.168 295.242a1.5 1.5 0 11-3 0 1.5 1.5 0 013 0zM122.168 295.242a1.5 1.5 0 11-3 0 1.5 1.5 0 013 0zM102.168 315.242a1.5 1.5 0 11-3 0 1.5 1.5 0 013 0zM122.168 315.242a1.5 1.5 0 11-3 0 1.5 1.5 0 013 0zM102.168 335.242a1.5 1.5 0 11-3 0 1.5 1.5 0 013 0zM122.168 335.242a1.5 1.5 0 11-3 0 1.5 1.5 0 013 0zM102.168 355.242a1.5 1.5 0 11-3 0 1.5 1.5 0 013 0zM122.168 355.242a1.5 1.5 0 11-3 0 1.5 1.5 0 013 0zM102.168 375.242a1.5 1.5 0 11-3 0 1.5 1.5 0 013 0zM122.168 375.242a1.5 1.5 0 11-3 0 1.5 1.5 0 013 0zM102.168 395.242a1.5 1.5 0 11-3 0 1.5 1.5 0 013 0zM122.168 395.242a1.5 1.5 0 11-3 0 1.5 1.5 0 013 0zM102.168 415.242a1.5 1.5 0 11-3 0 1.5 1.5 0 013 0zM122.168 415.242a1.5 1.5 0 11-3 0 1.5 1.5 0 013 0zM102.168 435.242a1.5 1.5 0 11-3 0 1.5 1.5 0 013 0zM122.168 435.242a1.5 1.5 0 11-3 0 1.5 1.5 0 013 0zM142.168 215.242a1.5 1.5 0 11-3 0 1.5 1.5 0 013 0zM162.168 215.242a1.5 1.5 0 11-3 0 1.5 1.5 0 013 0zM182.168 215.242a1.5 1.5 0 11-3 0 1.5 1.5 0 013 0zM202.168 215.242a1.5 1.5 0 11-3 0 1.5 1.5 0 013 0zM222.168 215.242a1.5 1.5 0 11-3 0 1.5 1.5 0 013 0zM242.168 215.242a1.5 1.5 0 11-3 0 1.5 1.5 0 013 0zM262.168 215.242a1.5 1.5 0 11-3 0 1.5 1.5 0 013 0zM282.168 215.242a1.5 1.5 0 11-3 0 1.5 1.5 0 013 0zM302.168 215.242a1.5 1.5 0 11-3 0 1.5 1.5 0 013 0zM322.168 215.242a1.5 1.5 0 11-3 0 1.5 1.5 0 013 0zM342.168 215.242a1.5 1.5 0 11-3 0 1.5 1.5 0 013 0zM362.168 215.242a1.5 1.5 0 11-3 0 1.5 1.5 0 013 0zM382.168 215.242a1.5 1.5 0 11-3 0 1.5 1.5 0 013 0zM402.168 215.242a1.5 1.5 0 11-3 0 1.5 1.5 0 013 0zM422.168 215.242a1.5 1.5 0 11-3 0 1.5 1.5 0 013 0zM142.168 235.242a1.5 1.5 0 11-3 0 1.5 1.5 0 013 0zM162.168 235.242a1.5 1.5 0 11-3 0 1.5 1.5 0 013 0zM182.168 235.242a1.5 1.5 0 11-3 0 1.5 1.5 0 013 0zM202.168 235.242a1.5 1.5 0 11-3 0 1.5 1.5 0 013 0zM222.168 235.242a1.5 1.5 0 11-3 0 1.5 1.5 0 013 0zM242.168 235.242a1.5 1.5 0 11-3 0 1.5 1.5 0 013 0zM262.168 235.242a1.5 1.5 0 11-3 0 1.5 1.5 0 013 0zM282.168 235.242a1.5 1.5 0 11-3 0 1.5 1.5 0 013 0zM302.168 235.242a1.5 1.5 0 11-3 0 1.5 1.5 0 013 0zM322.168 235.242a1.5 1.5 0 11-3 0 1.5 1.5 0 013 0zM342.168 235.242a1.5 1.5 0 11-3 0 1.5 1.5 0 013 0zM362.168 235.242a1.5 1.5 0 11-3 0 1.5 1.5 0 013 0zM382.168 235.242a1.5 1.5 0 11-3 0 1.5 1.5 0 013 0zM402.168 235.242a1.5 1.5 0 11-3 0 1.5 1.5 0 013 0zM422.168 235.242a1.5 1.5 0 11-3 0 1.5 1.5 0 013 0zM142.168 255.242a1.5 1.5 0 11-3 0 1.5 1.5 0 013 0zM162.168 255.242a1.5 1.5 0 11-3 0 1.5 1.5 0 013 0zM182.168 255.242a1.5 1.5 0 11-3 0 1.5 1.5 0 013 0zM202.168 255.242a1.5 1.5 0 11-3 0 1.5 1.5 0 013 0zM222.168 255.242a1.5 1.5 0 11-3 0 1.5 1.5 0 013 0zM242.168 255.242a1.5 1.5 0 11-3 0 1.5 1.5 0 013 0zM262.168 255.242a1.5 1.5 0 11-3 0 1.5 1.5 0 013 0zM282.168 255.242a1.5 1.5 0 11-3 0 1.5 1.5 0 013 0zM302.168 255.242a1.5 1.5 0 11-3 0 1.5 1.5 0 013 0zM322.168 255.242a1.5 1.5 0 11-3 0 1.5 1.5 0 013 0zM342.168 255.242a1.5 1.5 0 11-3 0 1.5 1.5 0 013 0zM362.168 255.242a1.5 1.5 0 11-3 0 1.5 1.5 0 013 0zM382.168 255.242a1.5 1.5 0 11-3 0 1.5 1.5 0 013 0zM402.168 255.242a1.5 1.5 0 11-3 0 1.5 1.5 0 013 0zM422.168 255.242a1.5 1.5 0 11-3 0 1.5 1.5 0 013 0zM142.168 275.242a1.5 1.5 0 11-3 0 1.5 1.5 0 013 0zM162.168 275.242a1.5 1.5 0 11-3 0 1.5 1.5 0 013 0zM182.168 275.242a1.5 1.5 0 11-3 0 1.5 1.5 0 013 0zM202.168 275.242a1.5 1.5 0 11-3 0 1.5 1.5 0 013 0zM222.168 275.242a1.5 1.5 0 11-3 0 1.5 1.5 0 013 0zM242.168 275.242a1.5 1.5 0 11-3 0 1.5 1.5 0 013 0zM262.168 275.242a1.5 1.5 0 11-3 0 1.5 1.5 0 013 0zM282.168 275.242a1.5 1.5 0 11-3 0 1.5 1.5 0 013 0zM302.168 275.242a1.5 1.5 0 11-3 0 1.5 1.5 0 013 0zM322.168 275.242a1.5 1.5 0 11-3 0 1.5 1.5 0 013 0zM342.168 275.242a1.5 1.5 0 11-3 0 1.5 1.5 0 013 0zM362.168 275.242a1.5 1.5 0 11-3 0 1.5 1.5 0 013 0zM382.168 275.242a1.5 1.5 0 11-3 0 1.5 1.5 0 013 0zM402.168 275.242a1.5 1.5 0 11-3 0 1.5 1.5 0 013 0zM422.168 275.242a1.5 1.5 0 11-3 0 1.5 1.5 0 013 0zM142.168 295.242a1.5 1.5 0 11-3 0 1.5 1.5 0 013 0zM162.168 295.242a1.5 1.5 0 11-3 0 1.5 1.5 0 013 0zM182.168 295.242a1.5 1.5 0 11-3 0 1.5 1.5 0 013 0zM202.168 295.242a1.5 1.5 0 11-3 0 1.5 1.5 0 013 0zM222.168 295.242a1.5 1.5 0 11-3 0 1.5 1.5 0 013 0zM242.168 295.242a1.5 1.5 0 11-3 0 1.5 1.5 0 013 0zM262.168 295.242a1.5 1.5 0 11-3 0 1.5 1.5 0 013 0zM282.168 295.242a1.5 1.5 0 11-3 0 1.5 1.5 0 013 0zM302.168 295.242a1.5 1.5 0 11-3 0 1.5 1.5 0 013 0zM322.168 295.242a1.5 1.5 0 11-3 0 1.5 1.5 0 013 0zM342.168 295.242a1.5 1.5 0 11-3 0 1.5 1.5 0 013 0zM362.168 295.242a1.5 1.5 0 11-3 0 1.5 1.5 0 013 0zM382.168 295.242a1.5 1.5 0 11-3 0 1.5 1.5 0 013 0zM402.168 295.242a1.5 1.5 0 11-3 0 1.5 1.5 0 013 0zM422.168 295.242a1.5 1.5 0 11-3 0 1.5 1.5 0 013 0zM142.168 315.242a1.5 1.5 0 11-3 0 1.5 1.5 0 013 0zM162.168 315.242a1.5 1.5 0 11-3 0 1.5 1.5 0 013 0zM182.168 315.242a1.5 1.5 0 11-3 0 1.5 1.5 0 013 0zM202.168 315.242a1.5 1.5 0 11-3 0 1.5 1.5 0 013 0zM222.168 315.242a1.5 1.5 0 11-3 0 1.5 1.5 0 013 0zM242.168 315.242a1.5 1.5 0 11-3 0 1.5 1.5 0 013 0zM262.168 315.242a1.5 1.5 0 11-3 0 1.5 1.5 0 013 0zM282.168 315.242a1.5 1.5 0 11-3 0 1.5 1.5 0 013 0zM302.168 315.242a1.5 1.5 0 11-3 0 1.5 1.5 0 013 0zM322.168 315.242a1.5 1.5 0 11-3 0 1.5 1.5 0 013 0zM342.168 315.242a1.5 1.5 0 11-3 0 1.5 1.5 0 013 0zM362.168 315.242a1.5 1.5 0 11-3 0 1.5 1.5 0 013 0zM382.168 315.242a1.5 1.5 0 11-3 0 1.5 1.5 0 013 0zM402.168 315.242a1.5 1.5 0 11-3 0 1.5 1.5 0 013 0zM422.168 315.242a1.5 1.5 0 11-3 0 1.5 1.5 0 013 0zM142.168 335.242a1.5 1.5 0 11-3 0 1.5 1.5 0 013 0zM162.168 335.242a1.5 1.5 0 11-3 0 1.5 1.5 0 013 0zM182.168 335.242a1.5 1.5 0 11-3 0 1.5 1.5 0 013 0zM202.168 335.242a1.5 1.5 0 11-3 0 1.5 1.5 0 013 0zM222.168 335.242a1.5 1.5 0 11-3 0 1.5 1.5 0 013 0zM242.168 335.242a1.5 1.5 0 11-3 0 1.5 1.5 0 013 0zM262.168 335.242a1.5 1.5 0 11-3 0 1.5 1.5 0 013 0zM282.168 335.242a1.5 1.5 0 11-3 0 1.5 1.5 0 013 0zM302.168 335.242a1.5 1.5 0 11-3 0 1.5 1.5 0 013 0zM322.168 335.242a1.5 1.5 0 11-3 0 1.5 1.5 0 013 0zM342.168 335.242a1.5 1.5 0 11-3 0 1.5 1.5 0 013 0zM362.168 335.242a1.5 1.5 0 11-3 0 1.5 1.5 0 013 0zM382.168 335.242a1.5 1.5 0 11-3 0 1.5 1.5 0 013 0zM402.168 335.242a1.5 1.5 0 11-3 0 1.5 1.5 0 013 0zM422.168 335.242a1.5 1.5 0 11-3 0 1.5 1.5 0 013 0zM142.168 355.242a1.5 1.5 0 11-3 0 1.5 1.5 0 013 0zM162.168 355.242a1.5 1.5 0 11-3 0 1.5 1.5 0 013 0zM182.168 355.242a1.5 1.5 0 11-3 0 1.5 1.5 0 013 0zM202.168 355.242a1.5 1.5 0 11-3 0 1.5 1.5 0 013 0zM222.168 355.242a1.5 1.5 0 11-3 0 1.5 1.5 0 013 0zM242.168 355.242a1.5 1.5 0 11-3 0 1.5 1.5 0 013 0zM262.168 355.242a1.5 1.5 0 11-3 0 1.5 1.5 0 013 0zM282.168 355.242a1.5 1.5 0 11-3 0 1.5 1.5 0 013 0zM302.168 355.242a1.5 1.5 0 11-3 0 1.5 1.5 0 013 0zM322.168 355.242a1.5 1.5 0 11-3 0 1.5 1.5 0 013 0zM342.168 355.242a1.5 1.5 0 11-3 0 1.5 1.5 0 013 0zM362.168 355.242a1.5 1.5 0 11-3 0 1.5 1.5 0 013 0zM382.168 355.242a1.5 1.5 0 11-3 0 1.5 1.5 0 013 0zM402.168 355.242a1.5 1.5 0 11-3 0 1.5 1.5 0 013 0zM422.168 355.242a1.5 1.5 0 11-3 0 1.5 1.5 0 013 0zM142.168 375.242a1.5 1.5 0 11-3 0 1.5 1.5 0 013 0zM162.168 375.242a1.5 1.5 0 11-3 0 1.5 1.5 0 013 0zM182.168 375.242a1.5 1.5 0 11-3 0 1.5 1.5 0 013 0zM202.168 375.242a1.5 1.5 0 11-3 0 1.5 1.5 0 013 0zM222.168 375.242a1.5 1.5 0 11-3 0 1.5 1.5 0 013 0zM242.168 375.242a1.5 1.5 0 11-3 0 1.5 1.5 0 013 0zM262.168 375.242a1.5 1.5 0 11-3 0 1.5 1.5 0 013 0zM282.168 375.242a1.5 1.5 0 11-3 0 1.5 1.5 0 013 0zM302.168 375.242a1.5 1.5 0 11-3 0 1.5 1.5 0 013 0zM322.168 375.242a1.5 1.5 0 11-3 0 1.5 1.5 0 013 0zM342.168 375.242a1.5 1.5 0 11-3 0 1.5 1.5 0 013 0zM362.168 375.242a1.5 1.5 0 11-3 0 1.5 1.5 0 013 0zM382.168 375.242a1.5 1.5 0 11-3 0 1.5 1.5 0 013 0zM402.168 375.242a1.5 1.5 0 11-3 0 1.5 1.5 0 013 0zM422.168 375.242a1.5 1.5 0 11-3 0 1.5 1.5 0 013 0zM142.168 395.242a1.5 1.5 0 11-3 0 1.5 1.5 0 013 0zM162.168 395.242a1.5 1.5 0 11-3 0 1.5 1.5 0 013 0zM182.168 395.242a1.5 1.5 0 11-3 0 1.5 1.5 0 013 0zM202.168 395.242a1.5 1.5 0 11-3 0 1.5 1.5 0 013 0zM222.168 395.242a1.5 1.5 0 11-3 0 1.5 1.5 0 013 0zM242.168 395.242a1.5 1.5 0 11-3 0 1.5 1.5 0 013 0zM262.168 395.242a1.5 1.5 0 11-3 0 1.5 1.5 0 013 0zM282.168 395.242a1.5 1.5 0 11-3 0 1.5 1.5 0 013 0zM302.168 395.242a1.5 1.5 0 11-3 0 1.5 1.5 0 013 0zM322.168 395.242a1.5 1.5 0 11-3 0 1.5 1.5 0 013 0zM342.168 395.242a1.5 1.5 0 11-3 0 1.5 1.5 0 013 0zM362.168 395.242a1.5 1.5 0 11-3 0 1.5 1.5 0 013 0zM382.168 395.242a1.5 1.5 0 11-3 0 1.5 1.5 0 013 0zM402.168 395.242a1.5 1.5 0 11-3 0 1.5 1.5 0 013 0zM422.168 395.242a1.5 1.5 0 11-3 0 1.5 1.5 0 013 0zM142.168 415.242a1.5 1.5 0 11-3 0 1.5 1.5 0 013 0zM162.168 415.242a1.5 1.5 0 11-3 0 1.5 1.5 0 013 0zM182.168 415.242a1.5 1.5 0 11-3 0 1.5 1.5 0 013 0zM202.168 415.242a1.5 1.5 0 11-3 0 1.5 1.5 0 013 0zM222.168 415.242a1.5 1.5 0 11-3 0 1.5 1.5 0 013 0zM242.168 415.242a1.5 1.5 0 11-3 0 1.5 1.5 0 013 0zM262.168 415.242a1.5 1.5 0 11-3 0 1.5 1.5 0 013 0zM282.168 415.242a1.5 1.5 0 11-3 0 1.5 1.5 0 013 0zM302.168 415.242a1.5 1.5 0 11-3 0 1.5 1.5 0 013 0zM322.168 415.242a1.5 1.5 0 11-3 0 1.5 1.5 0 013 0zM342.168 415.242a1.5 1.5 0 11-3 0 1.5 1.5 0 013 0zM362.168 415.242a1.5 1.5 0 11-3 0 1.5 1.5 0 013 0zM382.168 415.242a1.5 1.5 0 11-3 0 1.5 1.5 0 013 0zM402.168 415.242a1.5 1.5 0 11-3 0 1.5 1.5 0 013 0zM422.168 415.242a1.5 1.5 0 11-3 0 1.5 1.5 0 013 0zM142.168 435.242a1.5 1.5 0 11-3 0 1.5 1.5 0 013 0zM162.168 435.242a1.5 1.5 0 11-3 0 1.5 1.5 0 013 0zM182.168 435.242a1.5 1.5 0 11-3 0 1.5 1.5 0 013 0zM202.168 435.242a1.5 1.5 0 11-3 0 1.5 1.5 0 013 0zM222.168 435.242a1.5 1.5 0 11-3 0 1.5 1.5 0 013 0zM242.168 435.242a1.5 1.5 0 11-3 0 1.5 1.5 0 013 0zM262.168 435.242a1.5 1.5 0 11-3 0 1.5 1.5 0 013 0zM282.168 435.242a1.5 1.5 0 11-3 0 1.5 1.5 0 013 0zM302.168 435.242a1.5 1.5 0 11-3 0 1.5 1.5 0 013 0zM322.168 435.242a1.5 1.5 0 11-3 0 1.5 1.5 0 013 0zM342.168 435.242a1.5 1.5 0 11-3 0 1.5 1.5 0 013 0zM362.168 435.242a1.5 1.5 0 11-3 0 1.5 1.5 0 013 0zM382.168 435.242a1.5 1.5 0 11-3 0 1.5 1.5 0 013 0zM402.168 435.242a1.5 1.5 0 11-3 0 1.5 1.5 0 013 0zM422.168 435.242a1.5 1.5 0 11-3 0 1.5 1.5 0 013 0zM442.168 215.242a1.5 1.5 0 11-3 0 1.5 1.5 0 013 0zM462.168 215.242a1.5 1.5 0 11-3 0 1.5 1.5 0 013 0zM482.168 215.242a1.5 1.5 0 11-3 0 1.5 1.5 0 013 0zM502.168 215.242a1.5 1.5 0 11-3 0 1.5 1.5 0 013 0zM522.168 215.242a1.5 1.5 0 11-3 0 1.5 1.5 0 013 0zM542.168 215.242a1.5 1.5 0 11-3 0 1.5 1.5 0 013 0zM562.168 215.242a1.5 1.5 0 11-3 0 1.5 1.5 0 013 0zM582.168 215.242a1.5 1.5 0 11-3 0 1.5 1.5 0 013 0zM602.168 215.242a1.5 1.5 0 11-3 0 1.5 1.5 0 013 0zM622.168 215.242a1.5 1.5 0 11-3 0 1.5 1.5 0 013 0zM642.168 215.242a1.5 1.5 0 11-3 0 1.5 1.5 0 013 0zM662.168 215.242a1.5 1.5 0 11-3 0 1.5 1.5 0 013 0zM682.168 215.242a1.5 1.5 0 11-3 0 1.5 1.5 0 013 0zM702.168 215.242a1.5 1.5 0 11-3 0 1.5 1.5 0 013 0zM722.168 215.242a1.5 1.5 0 11-3 0 1.5 1.5 0 013 0zM442.168 235.242a1.5 1.5 0 11-3 0 1.5 1.5 0 013 0zM462.168 235.242a1.5 1.5 0 11-3 0 1.5 1.5 0 013 0zM482.168 235.242a1.5 1.5 0 11-3 0 1.5 1.5 0 013 0zM502.168 235.242a1.5 1.5 0 11-3 0 1.5 1.5 0 013 0zM522.168 235.242a1.5 1.5 0 11-3 0 1.5 1.5 0 013 0zM542.168 235.242a1.5 1.5 0 11-3 0 1.5 1.5 0 013 0zM562.168 235.242a1.5 1.5 0 11-3 0 1.5 1.5 0 013 0zM582.168 235.242a1.5 1.5 0 11-3 0 1.5 1.5 0 013 0zM602.168 235.242a1.5 1.5 0 11-3 0 1.5 1.5 0 013 0zM622.168 235.242a1.5 1.5 0 11-3 0 1.5 1.5 0 013 0zM642.168 235.242a1.5 1.5 0 11-3 0 1.5 1.5 0 013 0zM662.168 235.242a1.5 1.5 0 11-3 0 1.5 1.5 0 013 0zM682.168 235.242a1.5 1.5 0 11-3 0 1.5 1.5 0 013 0zM702.168 235.242a1.5 1.5 0 11-3 0 1.5 1.5 0 013 0zM722.168 235.242a1.5 1.5 0 11-3 0 1.5 1.5 0 013 0zM442.168 255.242a1.5 1.5 0 11-3 0 1.5 1.5 0 013 0zM462.168 255.242a1.5 1.5 0 11-3 0 1.5 1.5 0 013 0zM482.168 255.242a1.5 1.5 0 11-3 0 1.5 1.5 0 013 0zM502.168 255.242a1.5 1.5 0 11-3 0 1.5 1.5 0 013 0zM522.168 255.242a1.5 1.5 0 11-3 0 1.5 1.5 0 013 0zM542.168 255.242a1.5 1.5 0 11-3 0 1.5 1.5 0 013 0zM562.168 255.242a1.5 1.5 0 11-3 0 1.5 1.5 0 013 0zM582.168 255.242a1.5 1.5 0 11-3 0 1.5 1.5 0 013 0zM602.168 255.242a1.5 1.5 0 11-3 0 1.5 1.5 0 013 0zM622.168 255.242a1.5 1.5 0 11-3 0 1.5 1.5 0 013 0zM642.168 255.242a1.5 1.5 0 11-3 0 1.5 1.5 0 013 0zM662.168 255.242a1.5 1.5 0 11-3 0 1.5 1.5 0 013 0zM682.168 255.242a1.5 1.5 0 11-3 0 1.5 1.5 0 013 0zM702.168 255.242a1.5 1.5 0 11-3 0 1.5 1.5 0 013 0zM722.168 255.242a1.5 1.5 0 11-3 0 1.5 1.5 0 013 0zM442.168 275.242a1.5 1.5 0 11-3 0 1.5 1.5 0 013 0zM462.168 275.242a1.5 1.5 0 11-3 0 1.5 1.5 0 013 0zM482.168 275.242a1.5 1.5 0 11-3 0 1.5 1.5 0 013 0zM502.168 275.242a1.5 1.5 0 11-3 0 1.5 1.5 0 013 0zM522.168 275.242a1.5 1.5 0 11-3 0 1.5 1.5 0 013 0zM542.168 275.242a1.5 1.5 0 11-3 0 1.5 1.5 0 013 0zM562.168 275.242a1.5 1.5 0 11-3 0 1.5 1.5 0 013 0zM582.168 275.242a1.5 1.5 0 11-3 0 1.5 1.5 0 013 0zM602.168 275.242a1.5 1.5 0 11-3 0 1.5 1.5 0 013 0zM622.168 275.242a1.5 1.5 0 11-3 0 1.5 1.5 0 013 0zM642.168 275.242a1.5 1.5 0 11-3 0 1.5 1.5 0 013 0zM662.168 275.242a1.5 1.5 0 11-3 0 1.5 1.5 0 013 0zM682.168 275.242a1.5 1.5 0 11-3 0 1.5 1.5 0 013 0zM702.168 275.242a1.5 1.5 0 11-3 0 1.5 1.5 0 013 0zM722.168 275.242a1.5 1.5 0 11-3 0 1.5 1.5 0 013 0zM442.168 295.242a1.5 1.5 0 11-3 0 1.5 1.5 0 013 0zM462.168 295.242a1.5 1.5 0 11-3 0 1.5 1.5 0 013 0zM482.168 295.242a1.5 1.5 0 11-3 0 1.5 1.5 0 013 0zM502.168 295.242a1.5 1.5 0 11-3 0 1.5 1.5 0 013 0zM522.168 295.242a1.5 1.5 0 11-3 0 1.5 1.5 0 013 0zM542.168 295.242a1.5 1.5 0 11-3 0 1.5 1.5 0 013 0zM562.168 295.242a1.5 1.5 0 11-3 0 1.5 1.5 0 013 0zM582.168 295.242a1.5 1.5 0 11-3 0 1.5 1.5 0 013 0zM602.168 295.242a1.5 1.5 0 11-3 0 1.5 1.5 0 013 0zM622.168 295.242a1.5 1.5 0 11-3 0 1.5 1.5 0 013 0zM642.168 295.242a1.5 1.5 0 11-3 0 1.5 1.5 0 013 0zM662.168 295.242a1.5 1.5 0 11-3 0 1.5 1.5 0 013 0zM682.168 295.242a1.5 1.5 0 11-3 0 1.5 1.5 0 013 0zM702.168 295.242a1.5 1.5 0 11-3 0 1.5 1.5 0 013 0zM722.168 295.242a1.5 1.5 0 11-3 0 1.5 1.5 0 013 0zM442.168 315.242a1.5 1.5 0 11-3 0 1.5 1.5 0 013 0zM462.168 315.242a1.5 1.5 0 11-3 0 1.5 1.5 0 013 0zM482.168 315.242a1.5 1.5 0 11-3 0 1.5 1.5 0 013 0zM502.168 315.242a1.5 1.5 0 11-3 0 1.5 1.5 0 013 0zM522.168 315.242a1.5 1.5 0 11-3 0 1.5 1.5 0 013 0zM542.168 315.242a1.5 1.5 0 11-3 0 1.5 1.5 0 013 0zM562.168 315.242a1.5 1.5 0 11-3 0 1.5 1.5 0 013 0zM582.168 315.242a1.5 1.5 0 11-3 0 1.5 1.5 0 013 0zM602.168 315.242a1.5 1.5 0 11-3 0 1.5 1.5 0 013 0zM622.168 315.242a1.5 1.5 0 11-3 0 1.5 1.5 0 013 0zM642.168 315.242a1.5 1.5 0 11-3 0 1.5 1.5 0 013 0zM662.168 315.242a1.5 1.5 0 11-3 0 1.5 1.5 0 013 0zM682.168 315.242a1.5 1.5 0 11-3 0 1.5 1.5 0 013 0zM702.168 315.242a1.5 1.5 0 11-3 0 1.5 1.5 0 013 0zM722.168 315.242a1.5 1.5 0 11-3 0 1.5 1.5 0 013 0zM442.168 335.242a1.5 1.5 0 11-3 0 1.5 1.5 0 013 0zM462.168 335.242a1.5 1.5 0 11-3 0 1.5 1.5 0 013 0zM482.168 335.242a1.5 1.5 0 11-3 0 1.5 1.5 0 013 0zM502.168 335.242a1.5 1.5 0 11-3 0 1.5 1.5 0 013 0zM522.168 335.242a1.5 1.5 0 11-3 0 1.5 1.5 0 013 0zM542.168 335.242a1.5 1.5 0 11-3 0 1.5 1.5 0 013 0zM562.168 335.242a1.5 1.5 0 11-3 0 1.5 1.5 0 013 0zM582.168 335.242a1.5 1.5 0 11-3 0 1.5 1.5 0 013 0zM602.168 335.242a1.5 1.5 0 11-3 0 1.5 1.5 0 013 0zM622.168 335.242a1.5 1.5 0 11-3 0 1.5 1.5 0 013 0zM642.168 335.242a1.5 1.5 0 11-3 0 1.5 1.5 0 013 0zM662.168 335.242a1.5 1.5 0 11-3 0 1.5 1.5 0 013 0zM682.168 335.242a1.5 1.5 0 11-3 0 1.5 1.5 0 013 0zM702.168 335.242a1.5 1.5 0 11-3 0 1.5 1.5 0 013 0zM722.168 335.242a1.5 1.5 0 11-3 0 1.5 1.5 0 013 0zM442.168 355.242a1.5 1.5 0 11-3 0 1.5 1.5 0 013 0zM462.168 355.242a1.5 1.5 0 11-3 0 1.5 1.5 0 013 0zM482.168 355.242a1.5 1.5 0 11-3 0 1.5 1.5 0 013 0zM502.168 355.242a1.5 1.5 0 11-3 0 1.5 1.5 0 013 0zM522.168 355.242a1.5 1.5 0 11-3 0 1.5 1.5 0 013 0zM542.168 355.242a1.5 1.5 0 11-3 0 1.5 1.5 0 013 0zM562.168 355.242a1.5 1.5 0 11-3 0 1.5 1.5 0 013 0zM582.168 355.242a1.5 1.5 0 11-3 0 1.5 1.5 0 013 0zM602.168 355.242a1.5 1.5 0 11-3 0 1.5 1.5 0 013 0zM622.168 355.242a1.5 1.5 0 11-3 0 1.5 1.5 0 013 0zM642.168 355.242a1.5 1.5 0 11-3 0 1.5 1.5 0 013 0zM662.168 355.242a1.5 1.5 0 11-3 0 1.5 1.5 0 013 0zM682.168 355.242a1.5 1.5 0 11-3 0 1.5 1.5 0 013 0zM702.168 355.242a1.5 1.5 0 11-3 0 1.5 1.5 0 013 0zM722.168 355.242a1.5 1.5 0 11-3 0 1.5 1.5 0 013 0zM442.168 375.242a1.5 1.5 0 11-3 0 1.5 1.5 0 013 0zM462.168 375.242a1.5 1.5 0 11-3 0 1.5 1.5 0 013 0zM482.168 375.242a1.5 1.5 0 11-3 0 1.5 1.5 0 013 0zM502.168 375.242a1.5 1.5 0 11-3 0 1.5 1.5 0 013 0zM522.168 375.242a1.5 1.5 0 11-3 0 1.5 1.5 0 013 0zM542.168 375.242a1.5 1.5 0 11-3 0 1.5 1.5 0 013 0zM562.168 375.242a1.5 1.5 0 11-3 0 1.5 1.5 0 013 0zM582.168 375.242a1.5 1.5 0 11-3 0 1.5 1.5 0 013 0zM602.168 375.242a1.5 1.5 0 11-3 0 1.5 1.5 0 013 0zM622.168 375.242a1.5 1.5 0 11-3 0 1.5 1.5 0 013 0zM642.168 375.242a1.5 1.5 0 11-3 0 1.5 1.5 0 013 0zM662.168 375.242a1.5 1.5 0 11-3 0 1.5 1.5 0 013 0zM682.168 375.242a1.5 1.5 0 11-3 0 1.5 1.5 0 013 0zM702.168 375.242a1.5 1.5 0 11-3 0 1.5 1.5 0 013 0zM722.168 375.242a1.5 1.5 0 11-3 0 1.5 1.5 0 013 0zM442.168 395.242a1.5 1.5 0 11-3 0 1.5 1.5 0 013 0zM462.168 395.242a1.5 1.5 0 11-3 0 1.5 1.5 0 013 0zM482.168 395.242a1.5 1.5 0 11-3 0 1.5 1.5 0 013 0zM502.168 395.242a1.5 1.5 0 11-3 0 1.5 1.5 0 013 0zM522.168 395.242a1.5 1.5 0 11-3 0 1.5 1.5 0 013 0zM542.168 395.242a1.5 1.5 0 11-3 0 1.5 1.5 0 013 0zM562.168 395.242a1.5 1.5 0 11-3 0 1.5 1.5 0 013 0zM582.168 395.242a1.5 1.5 0 11-3 0 1.5 1.5 0 013 0zM602.168 395.242a1.5 1.5 0 11-3 0 1.5 1.5 0 013 0zM622.168 395.242a1.5 1.5 0 11-3 0 1.5 1.5 0 013 0zM642.168 395.242a1.5 1.5 0 11-3 0 1.5 1.5 0 013 0zM662.168 395.242a1.5 1.5 0 11-3 0 1.5 1.5 0 013 0zM682.168 395.242a1.5 1.5 0 11-3 0 1.5 1.5 0 013 0zM702.168 395.242a1.5 1.5 0 11-3 0 1.5 1.5 0 013 0zM722.168 395.242a1.5 1.5 0 11-3 0 1.5 1.5 0 013 0zM442.168 415.242a1.5 1.5 0 11-3 0 1.5 1.5 0 013 0zM462.168 415.242a1.5 1.5 0 11-3 0 1.5 1.5 0 013 0zM482.168 415.242a1.5 1.5 0 11-3 0 1.5 1.5 0 013 0zM502.168 415.242a1.5 1.5 0 11-3 0 1.5 1.5 0 013 0zM522.168 415.242a1.5 1.5 0 11-3 0 1.5 1.5 0 013 0zM542.168 415.242a1.5 1.5 0 11-3 0 1.5 1.5 0 013 0zM562.168 415.242a1.5 1.5 0 11-3 0 1.5 1.5 0 013 0zM582.168 415.242a1.5 1.5 0 11-3 0 1.5 1.5 0 013 0zM602.168 415.242a1.5 1.5 0 11-3 0 1.5 1.5 0 013 0zM622.168 415.242a1.5 1.5 0 11-3 0 1.5 1.5 0 013 0zM642.168 415.242a1.5 1.5 0 11-3 0 1.5 1.5 0 013 0zM662.168 415.242a1.5 1.5 0 11-3 0 1.5 1.5 0 013 0zM682.168 415.242a1.5 1.5 0 11-3 0 1.5 1.5 0 013 0zM702.168 415.242a1.5 1.5 0 11-3 0 1.5 1.5 0 013 0zM722.168 415.242a1.5 1.5 0 11-3 0 1.5 1.5 0 013 0zM442.168 435.242a1.5 1.5 0 11-3 0 1.5 1.5 0 013 0zM462.168 435.242a1.5 1.5 0 11-3 0 1.5 1.5 0 013 0zM482.168 435.242a1.5 1.5 0 11-3 0 1.5 1.5 0 013 0zM502.168 435.242a1.5 1.5 0 11-3 0 1.5 1.5 0 013 0zM522.168 435.242a1.5 1.5 0 11-3 0 1.5 1.5 0 013 0zM542.168 435.242a1.5 1.5 0 11-3 0 1.5 1.5 0 013 0zM562.168 435.242a1.5 1.5 0 11-3 0 1.5 1.5 0 013 0zM582.168 435.242a1.5 1.5 0 11-3 0 1.5 1.5 0 013 0zM602.168 435.242a1.5 1.5 0 11-3 0 1.5 1.5 0 013 0zM622.168 435.242a1.5 1.5 0 11-3 0 1.5 1.5 0 013 0zM642.168 435.242a1.5 1.5 0 11-3 0 1.5 1.5 0 013 0zM662.168 435.242a1.5 1.5 0 11-3 0 1.5 1.5 0 013 0zM682.168 435.242a1.5 1.5 0 11-3 0 1.5 1.5 0 013 0zM702.168 435.242a1.5 1.5 0 11-3 0 1.5 1.5 0 013 0zM722.168 435.242a1.5 1.5 0 11-3 0 1.5 1.5 0 013 0zM742.168 215.242a1.5 1.5 0 11-3 0 1.5 1.5 0 013 0zM762.168 215.242a1.5 1.5 0 11-3 0 1.5 1.5 0 013 0zM782.168 215.242a1.5 1.5 0 11-3 0 1.5 1.5 0 013 0zM802.168 215.242a1.5 1.5 0 11-3 0 1.5 1.5 0 013 0zM822.168 215.242a1.5 1.5 0 11-3 0 1.5 1.5 0 013 0zM842.168 215.242a1.5 1.5 0 11-3 0 1.5 1.5 0 013 0zM862.168 215.242a1.5 1.5 0 11-3 0 1.5 1.5 0 013 0zM882.168 215.242a1.5 1.5 0 11-3 0 1.5 1.5 0 013 0zM902.168 215.242a1.5 1.5 0 11-3 0 1.5 1.5 0 013 0zM742.168 235.242a1.5 1.5 0 11-3 0 1.5 1.5 0 013 0zM762.168 235.242a1.5 1.5 0 11-3 0 1.5 1.5 0 013 0zM782.168 235.242a1.5 1.5 0 11-3 0 1.5 1.5 0 013 0zM802.168 235.242a1.5 1.5 0 11-3 0 1.5 1.5 0 013 0zM822.168 235.242a1.5 1.5 0 11-3 0 1.5 1.5 0 013 0zM842.168 235.242a1.5 1.5 0 11-3 0 1.5 1.5 0 013 0zM862.168 235.242a1.5 1.5 0 11-3 0 1.5 1.5 0 013 0zM882.168 235.242a1.5 1.5 0 11-3 0 1.5 1.5 0 013 0zM902.168 235.242a1.5 1.5 0 11-3 0 1.5 1.5 0 013 0zM742.168 255.242a1.5 1.5 0 11-3 0 1.5 1.5 0 013 0zM762.168 255.242a1.5 1.5 0 11-3 0 1.5 1.5 0 013 0zM782.168 255.242a1.5 1.5 0 11-3 0 1.5 1.5 0 013 0zM802.168 255.242a1.5 1.5 0 11-3 0 1.5 1.5 0 013 0zM822.168 255.242a1.5 1.5 0 11-3 0 1.5 1.5 0 013 0zM842.168 255.242a1.5 1.5 0 11-3 0 1.5 1.5 0 013 0zM862.168 255.242a1.5 1.5 0 11-3 0 1.5 1.5 0 013 0zM882.168 255.242a1.5 1.5 0 11-3 0 1.5 1.5 0 013 0zM902.168 255.242a1.5 1.5 0 11-3 0 1.5 1.5 0 013 0zM742.168 275.242a1.5 1.5 0 11-3 0 1.5 1.5 0 013 0zM762.168 275.242a1.5 1.5 0 11-3 0 1.5 1.5 0 013 0zM782.168 275.242a1.5 1.5 0 11-3 0 1.5 1.5 0 013 0zM802.168 275.242a1.5 1.5 0 11-3 0 1.5 1.5 0 013 0zM822.168 275.242a1.5 1.5 0 11-3 0 1.5 1.5 0 013 0zM842.168 275.242a1.5 1.5 0 11-3 0 1.5 1.5 0 013 0zM862.168 275.242a1.5 1.5 0 11-3 0 1.5 1.5 0 013 0zM882.168 275.242a1.5 1.5 0 11-3 0 1.5 1.5 0 013 0zM902.168 275.242a1.5 1.5 0 11-3 0 1.5 1.5 0 013 0zM742.168 295.242a1.5 1.5 0 11-3 0 1.5 1.5 0 013 0zM762.168 295.242a1.5 1.5 0 11-3 0 1.5 1.5 0 013 0zM782.168 295.242a1.5 1.5 0 11-3 0 1.5 1.5 0 013 0zM802.168 295.242a1.5 1.5 0 11-3 0 1.5 1.5 0 013 0zM822.168 295.242a1.5 1.5 0 11-3 0 1.5 1.5 0 013 0zM842.168 295.242a1.5 1.5 0 11-3 0 1.5 1.5 0 013 0zM862.168 295.242a1.5 1.5 0 11-3 0 1.5 1.5 0 013 0zM882.168 295.242a1.5 1.5 0 11-3 0 1.5 1.5 0 013 0zM902.168 295.242a1.5 1.5 0 11-3 0 1.5 1.5 0 013 0zM742.168 315.242a1.5 1.5 0 11-3 0 1.5 1.5 0 013 0zM762.168 315.242a1.5 1.5 0 11-3 0 1.5 1.5 0 013 0zM782.168 315.242a1.5 1.5 0 11-3 0 1.5 1.5 0 013 0zM802.168 315.242a1.5 1.5 0 11-3 0 1.5 1.5 0 013 0zM822.168 315.242a1.5 1.5 0 11-3 0 1.5 1.5 0 013 0zM842.168 315.242a1.5 1.5 0 11-3 0 1.5 1.5 0 013 0zM862.168 315.242a1.5 1.5 0 11-3 0 1.5 1.5 0 013 0zM882.168 315.242a1.5 1.5 0 11-3 0 1.5 1.5 0 013 0zM902.168 315.242a1.5 1.5 0 11-3 0 1.5 1.5 0 013 0zM742.168 335.242a1.5 1.5 0 11-3 0 1.5 1.5 0 013 0zM762.168 335.242a1.5 1.5 0 11-3 0 1.5 1.5 0 013 0zM782.168 335.242a1.5 1.5 0 11-3 0 1.5 1.5 0 013 0zM802.168 335.242a1.5 1.5 0 11-3 0 1.5 1.5 0 013 0zM822.168 335.242a1.5 1.5 0 11-3 0 1.5 1.5 0 013 0zM842.168 335.242a1.5 1.5 0 11-3 0 1.5 1.5 0 013 0zM862.168 335.242a1.5 1.5 0 11-3 0 1.5 1.5 0 013 0zM882.168 335.242a1.5 1.5 0 11-3 0 1.5 1.5 0 013 0zM902.168 335.242a1.5 1.5 0 11-3 0 1.5 1.5 0 013 0zM742.168 355.242a1.5 1.5 0 11-3 0 1.5 1.5 0 013 0zM762.168 355.242a1.5 1.5 0 11-3 0 1.5 1.5 0 013 0zM782.168 355.242a1.5 1.5 0 11-3 0 1.5 1.5 0 013 0zM802.168 355.242a1.5 1.5 0 11-3 0 1.5 1.5 0 013 0zM822.168 355.242a1.5 1.5 0 11-3 0 1.5 1.5 0 013 0zM842.168 355.242a1.5 1.5 0 11-3 0 1.5 1.5 0 013 0zM862.168 355.242a1.5 1.5 0 11-3 0 1.5 1.5 0 013 0zM882.168 355.242a1.5 1.5 0 11-3 0 1.5 1.5 0 013 0zM902.168 355.242a1.5 1.5 0 11-3 0 1.5 1.5 0 013 0zM742.168 375.242a1.5 1.5 0 11-3 0 1.5 1.5 0 013 0zM762.168 375.242a1.5 1.5 0 11-3 0 1.5 1.5 0 013 0zM782.168 375.242a1.5 1.5 0 11-3 0 1.5 1.5 0 013 0zM802.168 375.242a1.5 1.5 0 11-3 0 1.5 1.5 0 013 0zM822.168 375.242a1.5 1.5 0 11-3 0 1.5 1.5 0 013 0zM842.168 375.242a1.5 1.5 0 11-3 0 1.5 1.5 0 013 0zM862.168 375.242a1.5 1.5 0 11-3 0 1.5 1.5 0 013 0zM882.168 375.242a1.5 1.5 0 11-3 0 1.5 1.5 0 013 0zM902.168 375.242a1.5 1.5 0 11-3 0 1.5 1.5 0 013 0zM742.168 395.242a1.5 1.5 0 11-3 0 1.5 1.5 0 013 0zM762.168 395.242a1.5 1.5 0 11-3 0 1.5 1.5 0 013 0zM782.168 395.242a1.5 1.5 0 11-3 0 1.5 1.5 0 013 0zM802.168 395.242a1.5 1.5 0 11-3 0 1.5 1.5 0 013 0zM822.168 395.242a1.5 1.5 0 11-3 0 1.5 1.5 0 013 0zM842.168 395.242a1.5 1.5 0 11-3 0 1.5 1.5 0 013 0zM862.168 395.242a1.5 1.5 0 11-3 0 1.5 1.5 0 013 0zM882.168 395.242a1.5 1.5 0 11-3 0 1.5 1.5 0 013 0zM902.168 395.242a1.5 1.5 0 11-3 0 1.5 1.5 0 013 0zM742.168 415.242a1.5 1.5 0 11-3 0 1.5 1.5 0 013 0zM762.168 415.242a1.5 1.5 0 11-3 0 1.5 1.5 0 013 0zM782.168 415.242a1.5 1.5 0 11-3 0 1.5 1.5 0 013 0zM802.168 415.242a1.5 1.5 0 11-3 0 1.5 1.5 0 013 0zM822.168 415.242a1.5 1.5 0 11-3 0 1.5 1.5 0 013 0zM842.168 415.242a1.5 1.5 0 11-3 0 1.5 1.5 0 013 0zM862.168 415.242a1.5 1.5 0 11-3 0 1.5 1.5 0 013 0zM882.168 415.242a1.5 1.5 0 11-3 0 1.5 1.5 0 013 0zM902.168 415.242a1.5 1.5 0 11-3 0 1.5 1.5 0 013 0zM742.168 435.242a1.5 1.5 0 11-3 0 1.5 1.5 0 013 0zM762.168 435.242a1.5 1.5 0 11-3 0 1.5 1.5 0 013 0zM782.168 435.242a1.5 1.5 0 11-3 0 1.5 1.5 0 013 0zM802.168 435.242a1.5 1.5 0 11-3 0 1.5 1.5 0 013 0zM822.168 435.242a1.5 1.5 0 11-3 0 1.5 1.5 0 013 0zM842.168 435.242a1.5 1.5 0 11-3 0 1.5 1.5 0 013 0zM862.168 435.242a1.5 1.5 0 11-3 0 1.5 1.5 0 013 0zM882.168 435.242a1.5 1.5 0 11-3 0 1.5 1.5 0 013 0zM902.168 435.242a1.5 1.5 0 11-3 0 1.5 1.5 0 013 0zM102.168 455.242a1.5 1.5 0 11-3 0 1.5 1.5 0 013 0zM122.168 455.242a1.5 1.5 0 11-3 0 1.5 1.5 0 013 0zM102.168 475.242a1.5 1.5 0 11-3 0 1.5 1.5 0 013 0zM122.168 475.242a1.5 1.5 0 11-3 0 1.5 1.5 0 013 0zM102.168 495.242a1.5 1.5 0 11-3 0 1.5 1.5 0 013 0zM122.168 495.242a1.5 1.5 0 11-3 0 1.5 1.5 0 013 0zM102.168 515.242a1.5 1.5 0 11-3 0 1.5 1.5 0 013 0zM122.168 515.242a1.5 1.5 0 11-3 0 1.5 1.5 0 013 0zM102.168 535.242a1.5 1.5 0 11-3 0 1.5 1.5 0 013 0zM122.168 535.242a1.5 1.5 0 11-3 0 1.5 1.5 0 013 0zM122.168 555.242a1.5 1.5 0 11-3 0 1.5 1.5 0 013 0zM142.168 455.242a1.5 1.5 0 11-3 0 1.5 1.5 0 013 0zM162.168 455.242a1.5 1.5 0 11-3 0 1.5 1.5 0 013 0zM182.168 455.242a1.5 1.5 0 11-3 0 1.5 1.5 0 013 0zM202.168 455.242a1.5 1.5 0 11-3 0 1.5 1.5 0 013 0zM222.168 455.242a1.5 1.5 0 11-3 0 1.5 1.5 0 013 0zM242.168 455.242a1.5 1.5 0 11-3 0 1.5 1.5 0 013 0zM262.168 455.242a1.5 1.5 0 11-3 0 1.5 1.5 0 013 0zM282.168 455.242a1.5 1.5 0 11-3 0 1.5 1.5 0 013 0zM302.168 455.242a1.5 1.5 0 11-3 0 1.5 1.5 0 013 0zM322.168 455.242a1.5 1.5 0 11-3 0 1.5 1.5 0 013 0zM342.168 455.242a1.5 1.5 0 11-3 0 1.5 1.5 0 013 0zM362.168 455.242a1.5 1.5 0 11-3 0 1.5 1.5 0 013 0zM382.168 455.242a1.5 1.5 0 11-3 0 1.5 1.5 0 013 0zM402.168 455.242a1.5 1.5 0 11-3 0 1.5 1.5 0 013 0zM422.168 455.242a1.5 1.5 0 11-3 0 1.5 1.5 0 013 0zM142.168 475.242a1.5 1.5 0 11-3 0 1.5 1.5 0 013 0zM162.168 475.242a1.5 1.5 0 11-3 0 1.5 1.5 0 013 0zM182.168 475.242a1.5 1.5 0 11-3 0 1.5 1.5 0 013 0zM202.168 475.242a1.5 1.5 0 11-3 0 1.5 1.5 0 013 0zM222.168 475.242a1.5 1.5 0 11-3 0 1.5 1.5 0 013 0zM242.168 475.242a1.5 1.5 0 11-3 0 1.5 1.5 0 013 0zM262.168 475.242a1.5 1.5 0 11-3 0 1.5 1.5 0 013 0zM282.168 475.242a1.5 1.5 0 11-3 0 1.5 1.5 0 013 0zM302.168 475.242a1.5 1.5 0 11-3 0 1.5 1.5 0 013 0zM322.168 475.242a1.5 1.5 0 11-3 0 1.5 1.5 0 013 0zM342.168 475.242a1.5 1.5 0 11-3 0 1.5 1.5 0 013 0zM362.168 475.242a1.5 1.5 0 11-3 0 1.5 1.5 0 013 0zM382.168 475.242a1.5 1.5 0 11-3 0 1.5 1.5 0 013 0zM402.168 475.242a1.5 1.5 0 11-3 0 1.5 1.5 0 013 0zM422.168 475.242a1.5 1.5 0 11-3 0 1.5 1.5 0 013 0zM142.168 495.242a1.5 1.5 0 11-3 0 1.5 1.5 0 013 0zM162.168 495.242a1.5 1.5 0 11-3 0 1.5 1.5 0 013 0zM182.168 495.242a1.5 1.5 0 11-3 0 1.5 1.5 0 013 0zM202.168 495.242a1.5 1.5 0 11-3 0 1.5 1.5 0 013 0zM222.168 495.242a1.5 1.5 0 11-3 0 1.5 1.5 0 013 0zM242.168 495.242a1.5 1.5 0 11-3 0 1.5 1.5 0 013 0zM262.168 495.242a1.5 1.5 0 11-3 0 1.5 1.5 0 013 0zM282.168 495.242a1.5 1.5 0 11-3 0 1.5 1.5 0 013 0zM302.168 495.242a1.5 1.5 0 11-3 0 1.5 1.5 0 013 0zM322.168 495.242a1.5 1.5 0 11-3 0 1.5 1.5 0 013 0zM342.168 495.242a1.5 1.5 0 11-3 0 1.5 1.5 0 013 0zM362.168 495.242a1.5 1.5 0 11-3 0 1.5 1.5 0 013 0zM382.168 495.242a1.5 1.5 0 11-3 0 1.5 1.5 0 013 0zM402.168 495.242a1.5 1.5 0 11-3 0 1.5 1.5 0 013 0zM422.168 495.242a1.5 1.5 0 11-3 0 1.5 1.5 0 013 0zM142.168 515.242a1.5 1.5 0 11-3 0 1.5 1.5 0 013 0zM162.168 515.242a1.5 1.5 0 11-3 0 1.5 1.5 0 013 0zM182.168 515.242a1.5 1.5 0 11-3 0 1.5 1.5 0 013 0zM202.168 515.242a1.5 1.5 0 11-3 0 1.5 1.5 0 013 0zM222.168 515.242a1.5 1.5 0 11-3 0 1.5 1.5 0 013 0zM242.168 515.242a1.5 1.5 0 11-3 0 1.5 1.5 0 013 0zM262.168 515.242a1.5 1.5 0 11-3 0 1.5 1.5 0 013 0zM282.168 515.242a1.5 1.5 0 11-3 0 1.5 1.5 0 013 0zM302.168 515.242a1.5 1.5 0 11-3 0 1.5 1.5 0 013 0zM322.168 515.242a1.5 1.5 0 11-3 0 1.5 1.5 0 013 0zM342.168 515.242a1.5 1.5 0 11-3 0 1.5 1.5 0 013 0zM362.168 515.242a1.5 1.5 0 11-3 0 1.5 1.5 0 013 0zM382.168 515.242a1.5 1.5 0 11-3 0 1.5 1.5 0 013 0zM402.168 515.242a1.5 1.5 0 11-3 0 1.5 1.5 0 013 0zM422.168 515.242a1.5 1.5 0 11-3 0 1.5 1.5 0 013 0zM142.168 535.242a1.5 1.5 0 11-3 0 1.5 1.5 0 013 0zM162.168 535.242a1.5 1.5 0 11-3 0 1.5 1.5 0 013 0zM182.168 535.242a1.5 1.5 0 11-3 0 1.5 1.5 0 013 0zM202.168 535.242a1.5 1.5 0 11-3 0 1.5 1.5 0 013 0zM222.168 535.242a1.5 1.5 0 11-3 0 1.5 1.5 0 013 0zM242.168 535.242a1.5 1.5 0 11-3 0 1.5 1.5 0 013 0zM262.168 535.242a1.5 1.5 0 11-3 0 1.5 1.5 0 013 0zM282.168 535.242a1.5 1.5 0 11-3 0 1.5 1.5 0 013 0zM302.168 535.242a1.5 1.5 0 11-3 0 1.5 1.5 0 013 0zM322.168 535.242a1.5 1.5 0 11-3 0 1.5 1.5 0 013 0zM342.168 535.242a1.5 1.5 0 11-3 0 1.5 1.5 0 013 0zM362.168 535.242a1.5 1.5 0 11-3 0 1.5 1.5 0 013 0zM382.168 535.242a1.5 1.5 0 11-3 0 1.5 1.5 0 013 0zM402.168 535.242a1.5 1.5 0 11-3 0 1.5 1.5 0 013 0zM422.168 535.242a1.5 1.5 0 11-3 0 1.5 1.5 0 013 0zM142.168 555.242a1.5 1.5 0 11-3 0 1.5 1.5 0 013 0zM162.168 555.242a1.5 1.5 0 11-3 0 1.5 1.5 0 013 0zM182.168 555.242a1.5 1.5 0 11-3 0 1.5 1.5 0 013 0zM202.168 555.242a1.5 1.5 0 11-3 0 1.5 1.5 0 013 0zM222.168 555.242a1.5 1.5 0 11-3 0 1.5 1.5 0 013 0zM242.168 555.242a1.5 1.5 0 11-3 0 1.5 1.5 0 013 0zM262.168 555.242a1.5 1.5 0 11-3 0 1.5 1.5 0 013 0zM282.168 555.242a1.5 1.5 0 11-3 0 1.5 1.5 0 013 0zM302.168 555.242a1.5 1.5 0 11-3 0 1.5 1.5 0 013 0zM322.168 555.242a1.5 1.5 0 11-3 0 1.5 1.5 0 013 0zM342.168 555.242a1.5 1.5 0 11-3 0 1.5 1.5 0 013 0zM362.168 555.242a1.5 1.5 0 11-3 0 1.5 1.5 0 013 0zM382.168 555.242a1.5 1.5 0 11-3 0 1.5 1.5 0 013 0zM402.168 555.242a1.5 1.5 0 11-3 0 1.5 1.5 0 013 0zM422.168 555.242a1.5 1.5 0 11-3 0 1.5 1.5 0 013 0zM142.168 575.242a1.5 1.5 0 11-3 0 1.5 1.5 0 013 0zM162.168 575.242a1.5 1.5 0 11-3 0 1.5 1.5 0 013 0zM182.168 575.242a1.5 1.5 0 11-3 0 1.5 1.5 0 013 0zM202.168 575.242a1.5 1.5 0 11-3 0 1.5 1.5 0 013 0zM222.168 575.242a1.5 1.5 0 11-3 0 1.5 1.5 0 013 0zM242.168 575.242a1.5 1.5 0 11-3 0 1.5 1.5 0 013 0zM262.168 575.242a1.5 1.5 0 11-3 0 1.5 1.5 0 013 0zM282.168 575.242a1.5 1.5 0 11-3 0 1.5 1.5 0 013 0zM302.168 575.242a1.5 1.5 0 11-3 0 1.5 1.5 0 013 0zM322.168 575.242a1.5 1.5 0 11-3 0 1.5 1.5 0 013 0zM342.168 575.242a1.5 1.5 0 11-3 0 1.5 1.5 0 013 0zM362.168 575.242a1.5 1.5 0 11-3 0 1.5 1.5 0 013 0zM382.168 575.242a1.5 1.5 0 11-3 0 1.5 1.5 0 013 0zM402.168 575.242a1.5 1.5 0 11-3 0 1.5 1.5 0 013 0zM422.168 575.242a1.5 1.5 0 11-3 0 1.5 1.5 0 013 0zM162.168 595.242a1.5 1.5 0 11-3 0 1.5 1.5 0 013 0zM182.168 595.242a1.5 1.5 0 11-3 0 1.5 1.5 0 013 0zM202.168 595.242a1.5 1.5 0 11-3 0 1.5 1.5 0 013 0zM222.168 595.242a1.5 1.5 0 11-3 0 1.5 1.5 0 013 0zM242.168 595.242a1.5 1.5 0 11-3 0 1.5 1.5 0 013 0zM262.168 595.242a1.5 1.5 0 11-3 0 1.5 1.5 0 013 0zM282.168 595.242a1.5 1.5 0 11-3 0 1.5 1.5 0 013 0zM302.168 595.242a1.5 1.5 0 11-3 0 1.5 1.5 0 013 0zM322.168 595.242a1.5 1.5 0 11-3 0 1.5 1.5 0 013 0zM342.168 595.242a1.5 1.5 0 11-3 0 1.5 1.5 0 013 0zM362.168 595.242a1.5 1.5 0 11-3 0 1.5 1.5 0 013 0zM382.168 595.242a1.5 1.5 0 11-3 0 1.5 1.5 0 013 0zM402.168 595.242a1.5 1.5 0 11-3 0 1.5 1.5 0 013 0zM422.168 595.242a1.5 1.5 0 11-3 0 1.5 1.5 0 013 0zM162.168 615.242a1.5 1.5 0 11-3 0 1.5 1.5 0 013 0zM182.168 615.242a1.5 1.5 0 11-3 0 1.5 1.5 0 013 0zM202.168 615.242a1.5 1.5 0 11-3 0 1.5 1.5 0 013 0zM222.168 615.242a1.5 1.5 0 11-3 0 1.5 1.5 0 013 0zM242.168 615.242a1.5 1.5 0 11-3 0 1.5 1.5 0 013 0zM262.168 615.242a1.5 1.5 0 11-3 0 1.5 1.5 0 013 0zM282.168 615.242a1.5 1.5 0 11-3 0 1.5 1.5 0 013 0zM302.168 615.242a1.5 1.5 0 11-3 0 1.5 1.5 0 013 0zM322.168 615.242a1.5 1.5 0 11-3 0 1.5 1.5 0 013 0zM342.168 615.242a1.5 1.5 0 11-3 0 1.5 1.5 0 013 0zM362.168 615.242a1.5 1.5 0 11-3 0 1.5 1.5 0 013 0zM382.168 615.242a1.5 1.5 0 11-3 0 1.5 1.5 0 013 0zM402.168 615.242a1.5 1.5 0 11-3 0 1.5 1.5 0 013 0zM422.168 615.242a1.5 1.5 0 11-3 0 1.5 1.5 0 013 0zM162.168 635.242a1.5 1.5 0 11-3 0 1.5 1.5 0 013 0zM182.168 635.242a1.5 1.5 0 11-3 0 1.5 1.5 0 013 0zM202.168 635.242a1.5 1.5 0 11-3 0 1.5 1.5 0 013 0zM222.168 635.242a1.5 1.5 0 11-3 0 1.5 1.5 0 013 0zM242.168 635.242a1.5 1.5 0 11-3 0 1.5 1.5 0 013 0zM262.168 635.242a1.5 1.5 0 11-3 0 1.5 1.5 0 013 0zM282.168 635.242a1.5 1.5 0 11-3 0 1.5 1.5 0 013 0zM302.168 635.242a1.5 1.5 0 11-3 0 1.5 1.5 0 013 0zM322.168 635.242a1.5 1.5 0 11-3 0 1.5 1.5 0 013 0zM342.168 635.242a1.5 1.5 0 11-3 0 1.5 1.5 0 013 0zM362.168 635.242a1.5 1.5 0 11-3 0 1.5 1.5 0 013 0zM382.168 635.242a1.5 1.5 0 11-3 0 1.5 1.5 0 013 0zM402.168 635.242a1.5 1.5 0 11-3 0 1.5 1.5 0 013 0zM422.168 635.242a1.5 1.5 0 11-3 0 1.5 1.5 0 013 0zM182.168 655.242a1.5 1.5 0 11-3 0 1.5 1.5 0 013 0zM202.168 655.242a1.5 1.5 0 11-3 0 1.5 1.5 0 013 0zM222.168 655.242a1.5 1.5 0 11-3 0 1.5 1.5 0 013 0zM242.168 655.242a1.5 1.5 0 11-3 0 1.5 1.5 0 013 0zM262.168 655.242a1.5 1.5 0 11-3 0 1.5 1.5 0 013 0zM282.168 655.242a1.5 1.5 0 11-3 0 1.5 1.5 0 013 0zM302.168 655.242a1.5 1.5 0 11-3 0 1.5 1.5 0 013 0zM322.168 655.242a1.5 1.5 0 11-3 0 1.5 1.5 0 013 0zM342.168 655.242a1.5 1.5 0 11-3 0 1.5 1.5 0 013 0zM362.168 655.242a1.5 1.5 0 11-3 0 1.5 1.5 0 013 0zM382.168 655.242a1.5 1.5 0 11-3 0 1.5 1.5 0 013 0zM402.168 655.242a1.5 1.5 0 11-3 0 1.5 1.5 0 013 0zM422.168 655.242a1.5 1.5 0 11-3 0 1.5 1.5 0 013 0zM202.168 675.242a1.5 1.5 0 11-3 0 1.5 1.5 0 013 0zM222.168 675.242a1.5 1.5 0 11-3 0 1.5 1.5 0 013 0zM242.168 675.242a1.5 1.5 0 11-3 0 1.5 1.5 0 013 0zM262.168 675.242a1.5 1.5 0 11-3 0 1.5 1.5 0 013 0zM282.168 675.242a1.5 1.5 0 11-3 0 1.5 1.5 0 013 0zM302.168 675.242a1.5 1.5 0 11-3 0 1.5 1.5 0 013 0zM322.168 675.242a1.5 1.5 0 11-3 0 1.5 1.5 0 013 0zM342.168 675.242a1.5 1.5 0 11-3 0 1.5 1.5 0 013 0zM362.168 675.242a1.5 1.5 0 11-3 0 1.5 1.5 0 013 0zM382.168 675.242a1.5 1.5 0 11-3 0 1.5 1.5 0 013 0zM402.168 675.242a1.5 1.5 0 11-3 0 1.5 1.5 0 013 0zM422.168 675.242a1.5 1.5 0 11-3 0 1.5 1.5 0 013 0zM442.168 455.242a1.5 1.5 0 11-3 0 1.5 1.5 0 013 0zM462.168 455.242a1.5 1.5 0 11-3 0 1.5 1.5 0 013 0zM482.168 455.242a1.5 1.5 0 11-3 0 1.5 1.5 0 013 0zM502.168 455.242a1.5 1.5 0 11-3 0 1.5 1.5 0 013 0zM522.168 455.242a1.5 1.5 0 11-3 0 1.5 1.5 0 013 0zM542.168 455.242a1.5 1.5 0 11-3 0 1.5 1.5 0 013 0zM562.168 455.242a1.5 1.5 0 11-3 0 1.5 1.5 0 013 0zM582.168 455.242a1.5 1.5 0 11-3 0 1.5 1.5 0 013 0zM602.168 455.242a1.5 1.5 0 11-3 0 1.5 1.5 0 013 0zM622.168 455.242a1.5 1.5 0 11-3 0 1.5 1.5 0 013 0zM642.168 455.242a1.5 1.5 0 11-3 0 1.5 1.5 0 013 0zM662.168 455.242a1.5 1.5 0 11-3 0 1.5 1.5 0 013 0zM682.168 455.242a1.5 1.5 0 11-3 0 1.5 1.5 0 013 0zM702.168 455.242a1.5 1.5 0 11-3 0 1.5 1.5 0 013 0zM722.168 455.242a1.5 1.5 0 11-3 0 1.5 1.5 0 013 0zM442.168 475.242a1.5 1.5 0 11-3 0 1.5 1.5 0 013 0zM462.168 475.242a1.5 1.5 0 11-3 0 1.5 1.5 0 013 0zM482.168 475.242a1.5 1.5 0 11-3 0 1.5 1.5 0 013 0zM502.168 475.242a1.5 1.5 0 11-3 0 1.5 1.5 0 013 0zM522.168 475.242a1.5 1.5 0 11-3 0 1.5 1.5 0 013 0zM542.168 475.242a1.5 1.5 0 11-3 0 1.5 1.5 0 013 0zM562.168 475.242a1.5 1.5 0 11-3 0 1.5 1.5 0 013 0zM582.168 475.242a1.5 1.5 0 11-3 0 1.5 1.5 0 013 0zM602.168 475.242a1.5 1.5 0 11-3 0 1.5 1.5 0 013 0zM622.168 475.242a1.5 1.5 0 11-3 0 1.5 1.5 0 013 0zM642.168 475.242a1.5 1.5 0 11-3 0 1.5 1.5 0 013 0zM662.168 475.242a1.5 1.5 0 11-3 0 1.5 1.5 0 013 0zM682.168 475.242a1.5 1.5 0 11-3 0 1.5 1.5 0 013 0zM702.168 475.242a1.5 1.5 0 11-3 0 1.5 1.5 0 013 0zM722.168 475.242a1.5 1.5 0 11-3 0 1.5 1.5 0 013 0zM442.168 495.242a1.5 1.5 0 11-3 0 1.5 1.5 0 013 0zM462.168 495.242a1.5 1.5 0 11-3 0 1.5 1.5 0 013 0zM482.168 495.242a1.5 1.5 0 11-3 0 1.5 1.5 0 013 0zM502.168 495.242a1.5 1.5 0 11-3 0 1.5 1.5 0 013 0zM522.168 495.242a1.5 1.5 0 11-3 0 1.5 1.5 0 013 0zM542.168 495.242a1.5 1.5 0 11-3 0 1.5 1.5 0 013 0zM562.168 495.242a1.5 1.5 0 11-3 0 1.5 1.5 0 013 0zM582.168 495.242a1.5 1.5 0 11-3 0 1.5 1.5 0 013 0zM602.168 495.242a1.5 1.5 0 11-3 0 1.5 1.5 0 013 0zM622.168 495.242a1.5 1.5 0 11-3 0 1.5 1.5 0 013 0zM642.168 495.242a1.5 1.5 0 11-3 0 1.5 1.5 0 013 0zM662.168 495.242a1.5 1.5 0 11-3 0 1.5 1.5 0 013 0zM682.168 495.242a1.5 1.5 0 11-3 0 1.5 1.5 0 013 0zM702.168 495.242a1.5 1.5 0 11-3 0 1.5 1.5 0 013 0zM722.168 495.242a1.5 1.5 0 11-3 0 1.5 1.5 0 013 0zM442.168 515.242a1.5 1.5 0 11-3 0 1.5 1.5 0 013 0zM462.168 515.242a1.5 1.5 0 11-3 0 1.5 1.5 0 013 0zM482.168 515.242a1.5 1.5 0 11-3 0 1.5 1.5 0 013 0zM502.168 515.242a1.5 1.5 0 11-3 0 1.5 1.5 0 013 0zM522.168 515.242a1.5 1.5 0 11-3 0 1.5 1.5 0 013 0zM542.168 515.242a1.5 1.5 0 11-3 0 1.5 1.5 0 013 0zM562.168 515.242a1.5 1.5 0 11-3 0 1.5 1.5 0 013 0zM582.168 515.242a1.5 1.5 0 11-3 0 1.5 1.5 0 013 0zM602.168 515.242a1.5 1.5 0 11-3 0 1.5 1.5 0 013 0zM622.168 515.242a1.5 1.5 0 11-3 0 1.5 1.5 0 013 0zM642.168 515.242a1.5 1.5 0 11-3 0 1.5 1.5 0 013 0zM662.168 515.242a1.5 1.5 0 11-3 0 1.5 1.5 0 013 0zM682.168 515.242a1.5 1.5 0 11-3 0 1.5 1.5 0 013 0zM702.168 515.242a1.5 1.5 0 11-3 0 1.5 1.5 0 013 0zM722.168 515.242a1.5 1.5 0 11-3 0 1.5 1.5 0 013 0zM442.168 535.242a1.5 1.5 0 11-3 0 1.5 1.5 0 013 0zM462.168 535.242a1.5 1.5 0 11-3 0 1.5 1.5 0 013 0zM482.168 535.242a1.5 1.5 0 11-3 0 1.5 1.5 0 013 0zM502.168 535.242a1.5 1.5 0 11-3 0 1.5 1.5 0 013 0zM522.168 535.242a1.5 1.5 0 11-3 0 1.5 1.5 0 013 0zM542.168 535.242a1.5 1.5 0 11-3 0 1.5 1.5 0 013 0zM562.168 535.242a1.5 1.5 0 11-3 0 1.5 1.5 0 013 0zM582.168 535.242a1.5 1.5 0 11-3 0 1.5 1.5 0 013 0zM602.168 535.242a1.5 1.5 0 11-3 0 1.5 1.5 0 013 0zM622.168 535.242a1.5 1.5 0 11-3 0 1.5 1.5 0 013 0zM642.168 535.242a1.5 1.5 0 11-3 0 1.5 1.5 0 013 0zM662.168 535.242a1.5 1.5 0 11-3 0 1.5 1.5 0 013 0zM682.168 535.242a1.5 1.5 0 11-3 0 1.5 1.5 0 013 0zM702.168 535.242a1.5 1.5 0 11-3 0 1.5 1.5 0 013 0zM722.168 535.242a1.5 1.5 0 11-3 0 1.5 1.5 0 013 0zM442.168 555.242a1.5 1.5 0 11-3 0 1.5 1.5 0 013 0zM462.168 555.242a1.5 1.5 0 11-3 0 1.5 1.5 0 013 0zM482.168 555.242a1.5 1.5 0 11-3 0 1.5 1.5 0 013 0zM502.168 555.242a1.5 1.5 0 11-3 0 1.5 1.5 0 013 0zM522.168 555.242a1.5 1.5 0 11-3 0 1.5 1.5 0 013 0zM542.168 555.242a1.5 1.5 0 11-3 0 1.5 1.5 0 013 0zM562.168 555.242a1.5 1.5 0 11-3 0 1.5 1.5 0 013 0zM582.168 555.242a1.5 1.5 0 11-3 0 1.5 1.5 0 013 0zM602.168 555.242a1.5 1.5 0 11-3 0 1.5 1.5 0 013 0zM622.168 555.242a1.5 1.5 0 11-3 0 1.5 1.5 0 013 0zM642.168 555.242a1.5 1.5 0 11-3 0 1.5 1.5 0 013 0zM662.168 555.242a1.5 1.5 0 11-3 0 1.5 1.5 0 013 0zM682.168 555.242a1.5 1.5 0 11-3 0 1.5 1.5 0 013 0zM702.168 555.242a1.5 1.5 0 11-3 0 1.5 1.5 0 013 0zM722.168 555.242a1.5 1.5 0 11-3 0 1.5 1.5 0 013 0zM442.168 575.242a1.5 1.5 0 11-3 0 1.5 1.5 0 013 0zM462.168 575.242a1.5 1.5 0 11-3 0 1.5 1.5 0 013 0zM482.168 575.242a1.5 1.5 0 11-3 0 1.5 1.5 0 013 0zM502.168 575.242a1.5 1.5 0 11-3 0 1.5 1.5 0 013 0zM522.168 575.242a1.5 1.5 0 11-3 0 1.5 1.5 0 013 0zM542.168 575.242a1.5 1.5 0 11-3 0 1.5 1.5 0 013 0zM562.168 575.242a1.5 1.5 0 11-3 0 1.5 1.5 0 013 0zM582.168 575.242a1.5 1.5 0 11-3 0 1.5 1.5 0 013 0zM602.168 575.242a1.5 1.5 0 11-3 0 1.5 1.5 0 013 0zM622.168 575.242a1.5 1.5 0 11-3 0 1.5 1.5 0 013 0zM642.168 575.242a1.5 1.5 0 11-3 0 1.5 1.5 0 013 0zM662.168 575.242a1.5 1.5 0 11-3 0 1.5 1.5 0 013 0zM682.168 575.242a1.5 1.5 0 11-3 0 1.5 1.5 0 013 0zM702.168 575.242a1.5 1.5 0 11-3 0 1.5 1.5 0 013 0zM722.168 575.242a1.5 1.5 0 11-3 0 1.5 1.5 0 013 0zM442.168 595.242a1.5 1.5 0 11-3 0 1.5 1.5 0 013 0zM462.168 595.242a1.5 1.5 0 11-3 0 1.5 1.5 0 013 0zM482.168 595.242a1.5 1.5 0 11-3 0 1.5 1.5 0 013 0zM502.168 595.242a1.5 1.5 0 11-3 0 1.5 1.5 0 013 0zM522.168 595.242a1.5 1.5 0 11-3 0 1.5 1.5 0 013 0zM542.168 595.242a1.5 1.5 0 11-3 0 1.5 1.5 0 013 0zM562.168 595.242a1.5 1.5 0 11-3 0 1.5 1.5 0 013 0zM582.168 595.242a1.5 1.5 0 11-3 0 1.5 1.5 0 013 0zM602.168 595.242a1.5 1.5 0 11-3 0 1.5 1.5 0 013 0zM622.168 595.242a1.5 1.5 0 11-3 0 1.5 1.5 0 013 0zM642.168 595.242a1.5 1.5 0 11-3 0 1.5 1.5 0 013 0zM662.168 595.242a1.5 1.5 0 11-3 0 1.5 1.5 0 013 0zM682.168 595.242a1.5 1.5 0 11-3 0 1.5 1.5 0 013 0zM702.168 595.242a1.5 1.5 0 11-3 0 1.5 1.5 0 013 0zM722.168 595.242a1.5 1.5 0 11-3 0 1.5 1.5 0 013 0zM442.168 615.242a1.5 1.5 0 11-3 0 1.5 1.5 0 013 0zM462.168 615.242a1.5 1.5 0 11-3 0 1.5 1.5 0 013 0zM482.168 615.242a1.5 1.5 0 11-3 0 1.5 1.5 0 013 0zM502.168 615.242a1.5 1.5 0 11-3 0 1.5 1.5 0 013 0zM522.168 615.242a1.5 1.5 0 11-3 0 1.5 1.5 0 013 0zM542.168 615.242a1.5 1.5 0 11-3 0 1.5 1.5 0 013 0zM562.168 615.242a1.5 1.5 0 11-3 0 1.5 1.5 0 013 0zM582.168 615.242a1.5 1.5 0 11-3 0 1.5 1.5 0 013 0zM602.168 615.242a1.5 1.5 0 11-3 0 1.5 1.5 0 013 0zM622.168 615.242a1.5 1.5 0 11-3 0 1.5 1.5 0 013 0zM642.168 615.242a1.5 1.5 0 11-3 0 1.5 1.5 0 013 0zM662.168 615.242a1.5 1.5 0 11-3 0 1.5 1.5 0 013 0zM682.168 615.242a1.5 1.5 0 11-3 0 1.5 1.5 0 013 0zM702.168 615.242a1.5 1.5 0 11-3 0 1.5 1.5 0 013 0zM722.168 615.242a1.5 1.5 0 11-3 0 1.5 1.5 0 013 0zM442.168 635.242a1.5 1.5 0 11-3 0 1.5 1.5 0 013 0zM462.168 635.242a1.5 1.5 0 11-3 0 1.5 1.5 0 013 0zM482.168 635.242a1.5 1.5 0 11-3 0 1.5 1.5 0 013 0zM502.168 635.242a1.5 1.5 0 11-3 0 1.5 1.5 0 013 0zM522.168 635.242a1.5 1.5 0 11-3 0 1.5 1.5 0 013 0zM542.168 635.242a1.5 1.5 0 11-3 0 1.5 1.5 0 013 0zM562.168 635.242a1.5 1.5 0 11-3 0 1.5 1.5 0 013 0zM582.168 635.242a1.5 1.5 0 11-3 0 1.5 1.5 0 013 0zM602.168 635.242a1.5 1.5 0 11-3 0 1.5 1.5 0 013 0zM622.168 635.242a1.5 1.5 0 11-3 0 1.5 1.5 0 013 0zM642.168 635.242a1.5 1.5 0 11-3 0 1.5 1.5 0 013 0zM662.168 635.242a1.5 1.5 0 11-3 0 1.5 1.5 0 013 0zM682.168 635.242a1.5 1.5 0 11-3 0 1.5 1.5 0 013 0zM702.168 635.242a1.5 1.5 0 11-3 0 1.5 1.5 0 013 0zM722.168 635.242a1.5 1.5 0 11-3 0 1.5 1.5 0 013 0zM442.168 655.242a1.5 1.5 0 11-3 0 1.5 1.5 0 013 0zM462.168 655.242a1.5 1.5 0 11-3 0 1.5 1.5 0 013 0zM482.168 655.242a1.5 1.5 0 11-3 0 1.5 1.5 0 013 0zM502.168 655.242a1.5 1.5 0 11-3 0 1.5 1.5 0 013 0zM522.168 655.242a1.5 1.5 0 11-3 0 1.5 1.5 0 013 0zM542.168 655.242a1.5 1.5 0 11-3 0 1.5 1.5 0 013 0zM562.168 655.242a1.5 1.5 0 11-3 0 1.5 1.5 0 013 0zM582.168 655.242a1.5 1.5 0 11-3 0 1.5 1.5 0 013 0zM602.168 655.242a1.5 1.5 0 11-3 0 1.5 1.5 0 013 0zM622.168 655.242a1.5 1.5 0 11-3 0 1.5 1.5 0 013 0zM642.168 655.242a1.5 1.5 0 11-3 0 1.5 1.5 0 013 0zM662.168 655.242a1.5 1.5 0 11-3 0 1.5 1.5 0 013 0zM682.168 655.242a1.5 1.5 0 11-3 0 1.5 1.5 0 013 0zM702.168 655.242a1.5 1.5 0 11-3 0 1.5 1.5 0 013 0zM722.168 655.242a1.5 1.5 0 11-3 0 1.5 1.5 0 013 0zM442.168 675.242a1.5 1.5 0 11-3 0 1.5 1.5 0 013 0zM462.168 675.242a1.5 1.5 0 11-3 0 1.5 1.5 0 013 0zM482.168 675.242a1.5 1.5 0 11-3 0 1.5 1.5 0 013 0zM502.168 675.242a1.5 1.5 0 11-3 0 1.5 1.5 0 013 0zM522.168 675.242a1.5 1.5 0 11-3 0 1.5 1.5 0 013 0zM542.168 675.242a1.5 1.5 0 11-3 0 1.5 1.5 0 013 0zM562.168 675.242a1.5 1.5 0 11-3 0 1.5 1.5 0 013 0zM582.168 675.242a1.5 1.5 0 11-3 0 1.5 1.5 0 013 0zM602.168 675.242a1.5 1.5 0 11-3 0 1.5 1.5 0 013 0zM622.168 675.242a1.5 1.5 0 11-3 0 1.5 1.5 0 013 0zM642.168 675.242a1.5 1.5 0 11-3 0 1.5 1.5 0 013 0zM662.168 675.242a1.5 1.5 0 11-3 0 1.5 1.5 0 013 0zM682.168 675.242a1.5 1.5 0 11-3 0 1.5 1.5 0 013 0zM702.168 675.242a1.5 1.5 0 11-3 0 1.5 1.5 0 013 0zM722.168 675.242a1.5 1.5 0 11-3 0 1.5 1.5 0 013 0zM742.168 455.242a1.5 1.5 0 11-3 0 1.5 1.5 0 013 0zM762.168 455.242a1.5 1.5 0 11-3 0 1.5 1.5 0 013 0zM782.168 455.242a1.5 1.5 0 11-3 0 1.5 1.5 0 013 0zM802.168 455.242a1.5 1.5 0 11-3 0 1.5 1.5 0 013 0zM822.168 455.242a1.5 1.5 0 11-3 0 1.5 1.5 0 013 0zM842.168 455.242a1.5 1.5 0 11-3 0 1.5 1.5 0 013 0zM862.168 455.242a1.5 1.5 0 11-3 0 1.5 1.5 0 013 0zM882.168 455.242a1.5 1.5 0 11-3 0 1.5 1.5 0 013 0zM902.168 455.242a1.5 1.5 0 11-3 0 1.5 1.5 0 013 0zM742.168 475.242a1.5 1.5 0 11-3 0 1.5 1.5 0 013 0zM762.168 475.242a1.5 1.5 0 11-3 0 1.5 1.5 0 013 0zM782.168 475.242a1.5 1.5 0 11-3 0 1.5 1.5 0 013 0zM802.168 475.242a1.5 1.5 0 11-3 0 1.5 1.5 0 013 0zM822.168 475.242a1.5 1.5 0 11-3 0 1.5 1.5 0 013 0zM842.168 475.242a1.5 1.5 0 11-3 0 1.5 1.5 0 013 0zM862.168 475.242a1.5 1.5 0 11-3 0 1.5 1.5 0 013 0zM882.168 475.242a1.5 1.5 0 11-3 0 1.5 1.5 0 013 0zM902.168 475.242a1.5 1.5 0 11-3 0 1.5 1.5 0 013 0zM742.168 495.242a1.5 1.5 0 11-3 0 1.5 1.5 0 013 0zM762.168 495.242a1.5 1.5 0 11-3 0 1.5 1.5 0 013 0zM782.168 495.242a1.5 1.5 0 11-3 0 1.5 1.5 0 013 0zM802.168 495.242a1.5 1.5 0 11-3 0 1.5 1.5 0 013 0zM822.168 495.242a1.5 1.5 0 11-3 0 1.5 1.5 0 013 0zM842.168 495.242a1.5 1.5 0 11-3 0 1.5 1.5 0 013 0zM862.168 495.242a1.5 1.5 0 11-3 0 1.5 1.5 0 013 0zM882.168 495.242a1.5 1.5 0 11-3 0 1.5 1.5 0 013 0zM902.168 495.242a1.5 1.5 0 11-3 0 1.5 1.5 0 013 0zM742.168 515.242a1.5 1.5 0 11-3 0 1.5 1.5 0 013 0zM762.168 515.242a1.5 1.5 0 11-3 0 1.5 1.5 0 013 0zM782.168 515.242a1.5 1.5 0 11-3 0 1.5 1.5 0 013 0zM802.168 515.242a1.5 1.5 0 11-3 0 1.5 1.5 0 013 0zM822.168 515.242a1.5 1.5 0 11-3 0 1.5 1.5 0 013 0zM842.168 515.242a1.5 1.5 0 11-3 0 1.5 1.5 0 013 0zM862.168 515.242a1.5 1.5 0 11-3 0 1.5 1.5 0 013 0zM882.168 515.242a1.5 1.5 0 11-3 0 1.5 1.5 0 013 0zM902.168 515.242a1.5 1.5 0 11-3 0 1.5 1.5 0 013 0zM742.168 535.242a1.5 1.5 0 11-3 0 1.5 1.5 0 013 0zM762.168 535.242a1.5 1.5 0 11-3 0 1.5 1.5 0 013 0zM782.168 535.242a1.5 1.5 0 11-3 0 1.5 1.5 0 013 0zM802.168 535.242a1.5 1.5 0 11-3 0 1.5 1.5 0 013 0zM822.168 535.242a1.5 1.5 0 11-3 0 1.5 1.5 0 013 0zM842.168 535.242a1.5 1.5 0 11-3 0 1.5 1.5 0 013 0zM862.168 535.242a1.5 1.5 0 11-3 0 1.5 1.5 0 013 0zM882.168 535.242a1.5 1.5 0 11-3 0 1.5 1.5 0 013 0zM902.168 535.242a1.5 1.5 0 11-3 0 1.5 1.5 0 013 0zM742.168 555.242a1.5 1.5 0 11-3 0 1.5 1.5 0 013 0zM762.168 555.242a1.5 1.5 0 11-3 0 1.5 1.5 0 013 0zM782.168 555.242a1.5 1.5 0 11-3 0 1.5 1.5 0 013 0zM802.168 555.242a1.5 1.5 0 11-3 0 1.5 1.5 0 013 0zM822.168 555.242a1.5 1.5 0 11-3 0 1.5 1.5 0 013 0zM842.168 555.242a1.5 1.5 0 11-3 0 1.5 1.5 0 013 0zM862.168 555.242a1.5 1.5 0 11-3 0 1.5 1.5 0 013 0zM882.168 555.242a1.5 1.5 0 11-3 0 1.5 1.5 0 013 0zM902.168 555.242a1.5 1.5 0 11-3 0 1.5 1.5 0 013 0zM742.168 575.242a1.5 1.5 0 11-3 0 1.5 1.5 0 013 0zM762.168 575.242a1.5 1.5 0 11-3 0 1.5 1.5 0 013 0zM782.168 575.242a1.5 1.5 0 11-3 0 1.5 1.5 0 013 0zM802.168 575.242a1.5 1.5 0 11-3 0 1.5 1.5 0 013 0zM822.168 575.242a1.5 1.5 0 11-3 0 1.5 1.5 0 013 0zM842.168 575.242a1.5 1.5 0 11-3 0 1.5 1.5 0 013 0zM862.168 575.242a1.5 1.5 0 11-3 0 1.5 1.5 0 013 0zM882.168 575.242a1.5 1.5 0 11-3 0 1.5 1.5 0 013 0zM902.168 575.242a1.5 1.5 0 11-3 0 1.5 1.5 0 013 0zM742.168 595.242a1.5 1.5 0 11-3 0 1.5 1.5 0 013 0zM762.168 595.242a1.5 1.5 0 11-3 0 1.5 1.5 0 013 0zM782.168 595.242a1.5 1.5 0 11-3 0 1.5 1.5 0 013 0zM802.168 595.242a1.5 1.5 0 11-3 0 1.5 1.5 0 013 0zM822.168 595.242a1.5 1.5 0 11-3 0 1.5 1.5 0 013 0zM842.168 595.242a1.5 1.5 0 11-3 0 1.5 1.5 0 013 0zM862.168 595.242a1.5 1.5 0 11-3 0 1.5 1.5 0 013 0zM882.168 595.242a1.5 1.5 0 11-3 0 1.5 1.5 0 013 0zM742.168 615.242a1.5 1.5 0 11-3 0 1.5 1.5 0 013 0zM762.168 615.242a1.5 1.5 0 11-3 0 1.5 1.5 0 013 0zM782.168 615.242a1.5 1.5 0 11-3 0 1.5 1.5 0 013 0zM802.168 615.242a1.5 1.5 0 11-3 0 1.5 1.5 0 013 0zM822.168 615.242a1.5 1.5 0 11-3 0 1.5 1.5 0 013 0zM842.168 615.242a1.5 1.5 0 11-3 0 1.5 1.5 0 013 0zM742.168 635.242a1.5 1.5 0 11-3 0 1.5 1.5 0 013 0zM762.168 635.242a1.5 1.5 0 11-3 0 1.5 1.5 0 013 0zM782.168 635.242a1.5 1.5 0 11-3 0 1.5 1.5 0 013 0zM802.168 635.242a1.5 1.5 0 11-3 0 1.5 1.5 0 013 0zM742.168 655.242a1.5 1.5 0 11-3 0 1.5 1.5 0 013 0zM762.168 655.242a1.5 1.5 0 11-3 0 1.5 1.5 0 013 0zM222.168 695.242a1.5 1.5 0 11-3 0 1.5 1.5 0 013 0zM242.168 695.242a1.5 1.5 0 11-3 0 1.5 1.5 0 013 0zM262.168 695.242a1.5 1.5 0 11-3 0 1.5 1.5 0 013 0zM282.168 695.242a1.5 1.5 0 11-3 0 1.5 1.5 0 013 0zM302.168 695.242a1.5 1.5 0 11-3 0 1.5 1.5 0 013 0zM322.168 695.242a1.5 1.5 0 11-3 0 1.5 1.5 0 013 0zM342.168 695.242a1.5 1.5 0 11-3 0 1.5 1.5 0 013 0zM362.168 695.242a1.5 1.5 0 11-3 0 1.5 1.5 0 013 0zM382.168 695.242a1.5 1.5 0 11-3 0 1.5 1.5 0 013 0zM402.168 695.242a1.5 1.5 0 11-3 0 1.5 1.5 0 013 0zM422.168 695.242a1.5 1.5 0 11-3 0 1.5 1.5 0 013 0zM442.168 695.242a1.5 1.5 0 11-3 0 1.5 1.5 0 013 0zM462.168 695.242a1.5 1.5 0 11-3 0 1.5 1.5 0 013 0zM482.168 695.242a1.5 1.5 0 11-3 0 1.5 1.5 0 013 0zM502.168 695.242a1.5 1.5 0 11-3 0 1.5 1.5 0 013 0zM522.168 695.242a1.5 1.5 0 11-3 0 1.5 1.5 0 013 0zM542.168 695.242a1.5 1.5 0 11-3 0 1.5 1.5 0 013 0zM562.168 695.242a1.5 1.5 0 11-3 0 1.5 1.5 0 013 0zM582.168 695.242a1.5 1.5 0 11-3 0 1.5 1.5 0 013 0zM602.168 695.242a1.5 1.5 0 11-3 0 1.5 1.5 0 013 0zM622.168 695.242a1.5 1.5 0 11-3 0 1.5 1.5 0 013 0zM642.168 695.242a1.5 1.5 0 11-3 0 1.5 1.5 0 013 0zM662.168 695.242a1.5 1.5 0 11-3 0 1.5 1.5 0 013 0zM122.168 135.242a1.5 1.5 0 11-3 0 1.5 1.5 0 013 0zM102.168 155.242a1.5 1.5 0 11-3 0 1.5 1.5 0 013 0zM122.168 155.242a1.5 1.5 0 11-3 0 1.5 1.5 0 013 0zM102.168 175.242a1.5 1.5 0 11-3 0 1.5 1.5 0 013 0zM122.168 175.242a1.5 1.5 0 11-3 0 1.5 1.5 0 013 0zM102.168 195.242a1.5 1.5 0 11-3 0 1.5 1.5 0 013 0zM122.168 195.242a1.5 1.5 0 11-3 0 1.5 1.5 0 013 0zM322.168 15.242a1.5 1.5 0 11-3 0 1.5 1.5 0 013 0zM342.168 15.242a1.5 1.5 0 11-3 0 1.5 1.5 0 013 0zM362.168 15.242a1.5 1.5 0 11-3 0 1.5 1.5 0 013 0zM382.168 15.242a1.5 1.5 0 11-3 0 1.5 1.5 0 013 0zM402.168 15.242a1.5 1.5 0 11-3 0 1.5 1.5 0 013 0zM422.168 15.242a1.5 1.5 0 11-3 0 1.5 1.5 0 013 0zM202.168 35.242a1.5 1.5 0 11-3 0 1.5 1.5 0 013 0zM222.168 35.242a1.5 1.5 0 11-3 0 1.5 1.5 0 013 0zM242.168 35.242a1.5 1.5 0 11-3 0 1.5 1.5 0 013 0zM262.168 35.242a1.5 1.5 0 11-3 0 1.5 1.5 0 013 0zM282.168 35.242a1.5 1.5 0 11-3 0 1.5 1.5 0 013 0zM302.168 35.242a1.5 1.5 0 11-3 0 1.5 1.5 0 013 0zM322.168 35.242a1.5 1.5 0 11-3 0 1.5 1.5 0 013 0zM342.168 35.242a1.5 1.5 0 11-3 0 1.5 1.5 0 013 0zM362.168 35.242a1.5 1.5 0 11-3 0 1.5 1.5 0 013 0zM382.168 35.242a1.5 1.5 0 11-3 0 1.5 1.5 0 013 0zM402.168 35.242a1.5 1.5 0 11-3 0 1.5 1.5 0 013 0zM422.168 35.242a1.5 1.5 0 11-3 0 1.5 1.5 0 013 0zM182.168 55.242a1.5 1.5 0 11-3 0 1.5 1.5 0 013 0zM202.168 55.242a1.5 1.5 0 11-3 0 1.5 1.5 0 013 0zM222.168 55.242a1.5 1.5 0 11-3 0 1.5 1.5 0 013 0zM242.168 55.242a1.5 1.5 0 11-3 0 1.5 1.5 0 013 0zM262.168 55.242a1.5 1.5 0 11-3 0 1.5 1.5 0 013 0zM282.168 55.242a1.5 1.5 0 11-3 0 1.5 1.5 0 013 0zM302.168 55.242a1.5 1.5 0 11-3 0 1.5 1.5 0 013 0zM322.168 55.242a1.5 1.5 0 11-3 0 1.5 1.5 0 013 0zM342.168 55.242a1.5 1.5 0 11-3 0 1.5 1.5 0 013 0zM362.168 55.242a1.5 1.5 0 11-3 0 1.5 1.5 0 013 0zM382.168 55.242a1.5 1.5 0 11-3 0 1.5 1.5 0 013 0zM402.168 55.242a1.5 1.5 0 11-3 0 1.5 1.5 0 013 0zM422.168 55.242a1.5 1.5 0 11-3 0 1.5 1.5 0 013 0zM162.168 75.242a1.5 1.5 0 11-3 0 1.5 1.5 0 013 0zM182.168 75.242a1.5 1.5 0 11-3 0 1.5 1.5 0 013 0zM202.168 75.242a1.5 1.5 0 11-3 0 1.5 1.5 0 013 0zM222.168 75.242a1.5 1.5 0 11-3 0 1.5 1.5 0 013 0zM242.168 75.242a1.5 1.5 0 11-3 0 1.5 1.5 0 013 0zM262.168 75.242a1.5 1.5 0 11-3 0 1.5 1.5 0 013 0zM282.168 75.242a1.5 1.5 0 11-3 0 1.5 1.5 0 013 0zM302.168 75.242a1.5 1.5 0 11-3 0 1.5 1.5 0 013 0zM322.168 75.242a1.5 1.5 0 11-3 0 1.5 1.5 0 013 0zM342.168 75.242a1.5 1.5 0 11-3 0 1.5 1.5 0 013 0zM362.168 75.242a1.5 1.5 0 11-3 0 1.5 1.5 0 013 0zM382.168 75.242a1.5 1.5 0 11-3 0 1.5 1.5 0 013 0zM402.168 75.242a1.5 1.5 0 11-3 0 1.5 1.5 0 013 0zM422.168 75.242a1.5 1.5 0 11-3 0 1.5 1.5 0 013 0zM162.168 95.242a1.5 1.5 0 11-3 0 1.5 1.5 0 013 0zM182.168 95.242a1.5 1.5 0 11-3 0 1.5 1.5 0 013 0zM202.168 95.242a1.5 1.5 0 11-3 0 1.5 1.5 0 013 0zM222.168 95.242a1.5 1.5 0 11-3 0 1.5 1.5 0 013 0zM242.168 95.242a1.5 1.5 0 11-3 0 1.5 1.5 0 013 0zM262.168 95.242a1.5 1.5 0 11-3 0 1.5 1.5 0 013 0zM282.168 95.242a1.5 1.5 0 11-3 0 1.5 1.5 0 013 0zM302.168 95.242a1.5 1.5 0 11-3 0 1.5 1.5 0 013 0zM322.168 95.242a1.5 1.5 0 11-3 0 1.5 1.5 0 013 0zM342.168 95.242a1.5 1.5 0 11-3 0 1.5 1.5 0 013 0zM362.168 95.242a1.5 1.5 0 11-3 0 1.5 1.5 0 013 0zM382.168 95.242a1.5 1.5 0 11-3 0 1.5 1.5 0 013 0zM402.168 95.242a1.5 1.5 0 11-3 0 1.5 1.5 0 013 0zM422.168 95.242a1.5 1.5 0 11-3 0 1.5 1.5 0 013 0zM142.168 115.242a1.5 1.5 0 11-3 0 1.5 1.5 0 013 0zM162.168 115.242a1.5 1.5 0 11-3 0 1.5 1.5 0 013 0zM182.168 115.242a1.5 1.5 0 11-3 0 1.5 1.5 0 013 0zM202.168 115.242a1.5 1.5 0 11-3 0 1.5 1.5 0 013 0zM222.168 115.242a1.5 1.5 0 11-3 0 1.5 1.5 0 013 0zM242.168 115.242a1.5 1.5 0 11-3 0 1.5 1.5 0 013 0zM262.168 115.242a1.5 1.5 0 11-3 0 1.5 1.5 0 013 0zM282.168 115.242a1.5 1.5 0 11-3 0 1.5 1.5 0 013 0zM302.168 115.242a1.5 1.5 0 11-3 0 1.5 1.5 0 013 0zM322.168 115.242a1.5 1.5 0 11-3 0 1.5 1.5 0 013 0zM342.168 115.242a1.5 1.5 0 11-3 0 1.5 1.5 0 013 0zM362.168 115.242a1.5 1.5 0 11-3 0 1.5 1.5 0 013 0zM382.168 115.242a1.5 1.5 0 11-3 0 1.5 1.5 0 013 0zM402.168 115.242a1.5 1.5 0 11-3 0 1.5 1.5 0 013 0zM422.168 115.242a1.5 1.5 0 11-3 0 1.5 1.5 0 013 0zM142.168 135.242a1.5 1.5 0 11-3 0 1.5 1.5 0 013 0zM162.168 135.242a1.5 1.5 0 11-3 0 1.5 1.5 0 013 0zM182.168 135.242a1.5 1.5 0 11-3 0 1.5 1.5 0 013 0zM202.168 135.242a1.5 1.5 0 11-3 0 1.5 1.5 0 013 0zM222.168 135.242a1.5 1.5 0 11-3 0 1.5 1.5 0 013 0zM242.168 135.242a1.5 1.5 0 11-3 0 1.5 1.5 0 013 0zM262.168 135.242a1.5 1.5 0 11-3 0 1.5 1.5 0 013 0zM282.168 135.242a1.5 1.5 0 11-3 0 1.5 1.5 0 013 0zM302.168 135.242a1.5 1.5 0 11-3 0 1.5 1.5 0 013 0zM322.168 135.242a1.5 1.5 0 11-3 0 1.5 1.5 0 013 0zM342.168 135.242a1.5 1.5 0 11-3 0 1.5 1.5 0 013 0zM362.168 135.242a1.5 1.5 0 11-3 0 1.5 1.5 0 013 0zM382.168 135.242a1.5 1.5 0 11-3 0 1.5 1.5 0 013 0zM402.168 135.242a1.5 1.5 0 11-3 0 1.5 1.5 0 013 0zM422.168 135.242a1.5 1.5 0 11-3 0 1.5 1.5 0 013 0zM142.168 155.242a1.5 1.5 0 11-3 0 1.5 1.5 0 013 0zM162.168 155.242a1.5 1.5 0 11-3 0 1.5 1.5 0 013 0zM182.168 155.242a1.5 1.5 0 11-3 0 1.5 1.5 0 013 0zM202.168 155.242a1.5 1.5 0 11-3 0 1.5 1.5 0 013 0zM222.168 155.242a1.5 1.5 0 11-3 0 1.5 1.5 0 013 0zM242.168 155.242a1.5 1.5 0 11-3 0 1.5 1.5 0 013 0zM262.168 155.242a1.5 1.5 0 11-3 0 1.5 1.5 0 013 0zM282.168 155.242a1.5 1.5 0 11-3 0 1.5 1.5 0 013 0zM302.168 155.242a1.5 1.5 0 11-3 0 1.5 1.5 0 013 0zM322.168 155.242a1.5 1.5 0 11-3 0 1.5 1.5 0 013 0zM342.168 155.242a1.5 1.5 0 11-3 0 1.5 1.5 0 013 0zM362.168 155.242a1.5 1.5 0 11-3 0 1.5 1.5 0 013 0zM382.168 155.242a1.5 1.5 0 11-3 0 1.5 1.5 0 013 0zM402.168 155.242a1.5 1.5 0 11-3 0 1.5 1.5 0 013 0zM422.168 155.242a1.5 1.5 0 11-3 0 1.5 1.5 0 013 0zM142.168 175.242a1.5 1.5 0 11-3 0 1.5 1.5 0 013 0zM162.168 175.242a1.5 1.5 0 11-3 0 1.5 1.5 0 013 0zM182.168 175.242a1.5 1.5 0 11-3 0 1.5 1.5 0 013 0zM202.168 175.242a1.5 1.5 0 11-3 0 1.5 1.5 0 013 0zM222.168 175.242a1.5 1.5 0 11-3 0 1.5 1.5 0 013 0zM242.168 175.242a1.5 1.5 0 11-3 0 1.5 1.5 0 013 0zM262.168 175.242a1.5 1.5 0 11-3 0 1.5 1.5 0 013 0zM282.168 175.242a1.5 1.5 0 11-3 0 1.5 1.5 0 013 0zM302.168 175.242a1.5 1.5 0 11-3 0 1.5 1.5 0 013 0zM322.168 175.242a1.5 1.5 0 11-3 0 1.5 1.5 0 013 0zM342.168 175.242a1.5 1.5 0 11-3 0 1.5 1.5 0 013 0zM362.168 175.242a1.5 1.5 0 11-3 0 1.5 1.5 0 013 0zM382.168 175.242a1.5 1.5 0 11-3 0 1.5 1.5 0 013 0zM402.168 175.242a1.5 1.5 0 11-3 0 1.5 1.5 0 013 0zM422.168 175.242a1.5 1.5 0 11-3 0 1.5 1.5 0 013 0zM142.168 195.242a1.5 1.5 0 11-3 0 1.5 1.5 0 013 0zM162.168 195.242a1.5 1.5 0 11-3 0 1.5 1.5 0 013 0zM182.168 195.242a1.5 1.5 0 11-3 0 1.5 1.5 0 013 0zM202.168 195.242a1.5 1.5 0 11-3 0 1.5 1.5 0 013 0zM222.168 195.242a1.5 1.5 0 11-3 0 1.5 1.5 0 013 0zM242.168 195.242a1.5 1.5 0 11-3 0 1.5 1.5 0 013 0zM262.168 195.242a1.5 1.5 0 11-3 0 1.5 1.5 0 013 0zM282.168 195.242a1.5 1.5 0 11-3 0 1.5 1.5 0 013 0zM302.168 195.242a1.5 1.5 0 11-3 0 1.5 1.5 0 013 0zM322.168 195.242a1.5 1.5 0 11-3 0 1.5 1.5 0 013 0zM342.168 195.242a1.5 1.5 0 11-3 0 1.5 1.5 0 013 0zM362.168 195.242a1.5 1.5 0 11-3 0 1.5 1.5 0 013 0zM382.168 195.242a1.5 1.5 0 11-3 0 1.5 1.5 0 013 0zM402.168 195.242a1.5 1.5 0 11-3 0 1.5 1.5 0 013 0zM422.168 195.242a1.5 1.5 0 11-3 0 1.5 1.5 0 013 0zM442.168 15.242a1.5 1.5 0 11-3 0 1.5 1.5 0 013 0zM462.168 15.242a1.5 1.5 0 11-3 0 1.5 1.5 0 013 0zM482.168 15.242a1.5 1.5 0 11-3 0 1.5 1.5 0 013 0zM502.168 15.242a1.5 1.5 0 11-3 0 1.5 1.5 0 013 0zM522.168 15.242a1.5 1.5 0 11-3 0 1.5 1.5 0 013 0zM542.168 15.242a1.5 1.5 0 11-3 0 1.5 1.5 0 013 0zM562.168 15.242a1.5 1.5 0 11-3 0 1.5 1.5 0 013 0zM582.168 15.242a1.5 1.5 0 11-3 0 1.5 1.5 0 013 0zM602.168 15.242a1.5 1.5 0 11-3 0 1.5 1.5 0 013 0zM622.168 15.242a1.5 1.5 0 11-3 0 1.5 1.5 0 013 0zM642.168 15.242a1.5 1.5 0 11-3 0 1.5 1.5 0 013 0zM662.168 15.242a1.5 1.5 0 11-3 0 1.5 1.5 0 013 0zM682.168 15.242a1.5 1.5 0 11-3 0 1.5 1.5 0 013 0zM702.168 15.242a1.5 1.5 0 11-3 0 1.5 1.5 0 013 0zM722.168 15.242a1.5 1.5 0 11-3 0 1.5 1.5 0 013 0zM442.168 35.242a1.5 1.5 0 11-3 0 1.5 1.5 0 013 0zM462.168 35.242a1.5 1.5 0 11-3 0 1.5 1.5 0 013 0zM482.168 35.242a1.5 1.5 0 11-3 0 1.5 1.5 0 013 0zM502.168 35.242a1.5 1.5 0 11-3 0 1.5 1.5 0 013 0zM522.168 35.242a1.5 1.5 0 11-3 0 1.5 1.5 0 013 0zM542.168 35.242a1.5 1.5 0 11-3 0 1.5 1.5 0 013 0zM562.168 35.242a1.5 1.5 0 11-3 0 1.5 1.5 0 013 0zM582.168 35.242a1.5 1.5 0 11-3 0 1.5 1.5 0 013 0zM602.168 35.242a1.5 1.5 0 11-3 0 1.5 1.5 0 013 0zM622.168 35.242a1.5 1.5 0 11-3 0 1.5 1.5 0 013 0zM642.168 35.242a1.5 1.5 0 11-3 0 1.5 1.5 0 013 0zM662.168 35.242a1.5 1.5 0 11-3 0 1.5 1.5 0 013 0zM682.168 35.242a1.5 1.5 0 11-3 0 1.5 1.5 0 013 0zM702.168 35.242a1.5 1.5 0 11-3 0 1.5 1.5 0 013 0zM722.168 35.242a1.5 1.5 0 11-3 0 1.5 1.5 0 013 0zM442.168 55.242a1.5 1.5 0 11-3 0 1.5 1.5 0 013 0zM462.168 55.242a1.5 1.5 0 11-3 0 1.5 1.5 0 013 0zM482.168 55.242a1.5 1.5 0 11-3 0 1.5 1.5 0 013 0zM502.168 55.242a1.5 1.5 0 11-3 0 1.5 1.5 0 013 0zM522.168 55.242a1.5 1.5 0 11-3 0 1.5 1.5 0 013 0zM542.168 55.242a1.5 1.5 0 11-3 0 1.5 1.5 0 013 0zM562.168 55.242a1.5 1.5 0 11-3 0 1.5 1.5 0 013 0zM582.168 55.242a1.5 1.5 0 11-3 0 1.5 1.5 0 013 0zM602.168 55.242a1.5 1.5 0 11-3 0 1.5 1.5 0 013 0zM622.168 55.242a1.5 1.5 0 11-3 0 1.5 1.5 0 013 0zM642.168 55.242a1.5 1.5 0 11-3 0 1.5 1.5 0 013 0zM662.168 55.242a1.5 1.5 0 11-3 0 1.5 1.5 0 013 0zM682.168 55.242a1.5 1.5 0 11-3 0 1.5 1.5 0 013 0zM702.168 55.242a1.5 1.5 0 11-3 0 1.5 1.5 0 013 0zM722.168 55.242a1.5 1.5 0 11-3 0 1.5 1.5 0 013 0zM442.168 75.242a1.5 1.5 0 11-3 0 1.5 1.5 0 013 0zM462.168 75.242a1.5 1.5 0 11-3 0 1.5 1.5 0 013 0zM482.168 75.242a1.5 1.5 0 11-3 0 1.5 1.5 0 013 0zM502.168 75.242a1.5 1.5 0 11-3 0 1.5 1.5 0 013 0zM522.168 75.242a1.5 1.5 0 11-3 0 1.5 1.5 0 013 0zM542.168 75.242a1.5 1.5 0 11-3 0 1.5 1.5 0 013 0zM562.168 75.242a1.5 1.5 0 11-3 0 1.5 1.5 0 013 0zM582.168 75.242a1.5 1.5 0 11-3 0 1.5 1.5 0 013 0zM602.168 75.242a1.5 1.5 0 11-3 0 1.5 1.5 0 013 0zM622.168 75.242a1.5 1.5 0 11-3 0 1.5 1.5 0 013 0zM642.168 75.242a1.5 1.5 0 11-3 0 1.5 1.5 0 013 0zM662.168 75.242a1.5 1.5 0 11-3 0 1.5 1.5 0 013 0zM682.168 75.242a1.5 1.5 0 11-3 0 1.5 1.5 0 013 0zM702.168 75.242a1.5 1.5 0 11-3 0 1.5 1.5 0 013 0zM722.168 75.242a1.5 1.5 0 11-3 0 1.5 1.5 0 013 0zM442.168 95.242a1.5 1.5 0 11-3 0 1.5 1.5 0 013 0zM462.168 95.242a1.5 1.5 0 11-3 0 1.5 1.5 0 013 0zM482.168 95.242a1.5 1.5 0 11-3 0 1.5 1.5 0 013 0zM502.168 95.242a1.5 1.5 0 11-3 0 1.5 1.5 0 013 0zM522.168 95.242a1.5 1.5 0 11-3 0 1.5 1.5 0 013 0zM542.168 95.242a1.5 1.5 0 11-3 0 1.5 1.5 0 013 0zM562.168 95.242a1.5 1.5 0 11-3 0 1.5 1.5 0 013 0zM582.168 95.242a1.5 1.5 0 11-3 0 1.5 1.5 0 013 0zM602.168 95.242a1.5 1.5 0 11-3 0 1.5 1.5 0 013 0zM622.168 95.242a1.5 1.5 0 11-3 0 1.5 1.5 0 013 0zM642.168 95.242a1.5 1.5 0 11-3 0 1.5 1.5 0 013 0zM662.168 95.242a1.5 1.5 0 11-3 0 1.5 1.5 0 013 0zM682.168 95.242a1.5 1.5 0 11-3 0 1.5 1.5 0 013 0zM702.168 95.242a1.5 1.5 0 11-3 0 1.5 1.5 0 013 0zM722.168 95.242a1.5 1.5 0 11-3 0 1.5 1.5 0 013 0zM442.168 115.242a1.5 1.5 0 11-3 0 1.5 1.5 0 013 0zM462.168 115.242a1.5 1.5 0 11-3 0 1.5 1.5 0 013 0zM482.168 115.242a1.5 1.5 0 11-3 0 1.5 1.5 0 013 0zM502.168 115.242a1.5 1.5 0 11-3 0 1.5 1.5 0 013 0zM522.168 115.242a1.5 1.5 0 11-3 0 1.5 1.5 0 013 0zM542.168 115.242a1.5 1.5 0 11-3 0 1.5 1.5 0 013 0zM562.168 115.242a1.5 1.5 0 11-3 0 1.5 1.5 0 013 0zM582.168 115.242a1.5 1.5 0 11-3 0 1.5 1.5 0 013 0zM602.168 115.242a1.5 1.5 0 11-3 0 1.5 1.5 0 013 0zM622.168 115.242a1.5 1.5 0 11-3 0 1.5 1.5 0 013 0zM642.168 115.242a1.5 1.5 0 11-3 0 1.5 1.5 0 013 0zM662.168 115.242a1.5 1.5 0 11-3 0 1.5 1.5 0 013 0zM682.168 115.242a1.5 1.5 0 11-3 0 1.5 1.5 0 013 0zM702.168 115.242a1.5 1.5 0 11-3 0 1.5 1.5 0 013 0zM722.168 115.242a1.5 1.5 0 11-3 0 1.5 1.5 0 013 0zM442.168 135.242a1.5 1.5 0 11-3 0 1.5 1.5 0 013 0zM462.168 135.242a1.5 1.5 0 11-3 0 1.5 1.5 0 013 0zM482.168 135.242a1.5 1.5 0 11-3 0 1.5 1.5 0 013 0zM502.168 135.242a1.5 1.5 0 11-3 0 1.5 1.5 0 013 0zM522.168 135.242a1.5 1.5 0 11-3 0 1.5 1.5 0 013 0zM542.168 135.242a1.5 1.5 0 11-3 0 1.5 1.5 0 013 0zM562.168 135.242a1.5 1.5 0 11-3 0 1.5 1.5 0 013 0zM582.168 135.242a1.5 1.5 0 11-3 0 1.5 1.5 0 013 0zM602.168 135.242a1.5 1.5 0 11-3 0 1.5 1.5 0 013 0zM622.168 135.242a1.5 1.5 0 11-3 0 1.5 1.5 0 013 0zM642.168 135.242a1.5 1.5 0 11-3 0 1.5 1.5 0 013 0zM662.168 135.242a1.5 1.5 0 11-3 0 1.5 1.5 0 013 0zM682.168 135.242a1.5 1.5 0 11-3 0 1.5 1.5 0 013 0zM702.168 135.242a1.5 1.5 0 11-3 0 1.5 1.5 0 013 0zM722.168 135.242a1.5 1.5 0 11-3 0 1.5 1.5 0 013 0zM442.168 155.242a1.5 1.5 0 11-3 0 1.5 1.5 0 013 0zM462.168 155.242a1.5 1.5 0 11-3 0 1.5 1.5 0 013 0zM482.168 155.242a1.5 1.5 0 11-3 0 1.5 1.5 0 013 0zM502.168 155.242a1.5 1.5 0 11-3 0 1.5 1.5 0 013 0zM522.168 155.242a1.5 1.5 0 11-3 0 1.5 1.5 0 013 0zM542.168 155.242a1.5 1.5 0 11-3 0 1.5 1.5 0 013 0zM562.168 155.242a1.5 1.5 0 11-3 0 1.5 1.5 0 013 0zM582.168 155.242a1.5 1.5 0 11-3 0 1.5 1.5 0 013 0zM602.168 155.242a1.5 1.5 0 11-3 0 1.5 1.5 0 013 0zM622.168 155.242a1.5 1.5 0 11-3 0 1.5 1.5 0 013 0zM642.168 155.242a1.5 1.5 0 11-3 0 1.5 1.5 0 013 0zM662.168 155.242a1.5 1.5 0 11-3 0 1.5 1.5 0 013 0zM682.168 155.242a1.5 1.5 0 11-3 0 1.5 1.5 0 013 0zM702.168 155.242a1.5 1.5 0 11-3 0 1.5 1.5 0 013 0zM722.168 155.242a1.5 1.5 0 11-3 0 1.5 1.5 0 013 0zM442.168 175.242a1.5 1.5 0 11-3 0 1.5 1.5 0 013 0zM462.168 175.242a1.5 1.5 0 11-3 0 1.5 1.5 0 013 0zM482.168 175.242a1.5 1.5 0 11-3 0 1.5 1.5 0 013 0zM502.168 175.242a1.5 1.5 0 11-3 0 1.5 1.5 0 013 0zM522.168 175.242a1.5 1.5 0 11-3 0 1.5 1.5 0 013 0zM542.168 175.242a1.5 1.5 0 11-3 0 1.5 1.5 0 013 0zM562.168 175.242a1.5 1.5 0 11-3 0 1.5 1.5 0 013 0zM582.168 175.242a1.5 1.5 0 11-3 0 1.5 1.5 0 013 0zM602.168 175.242a1.5 1.5 0 11-3 0 1.5 1.5 0 013 0zM622.168 175.242a1.5 1.5 0 11-3 0 1.5 1.5 0 013 0zM642.168 175.242a1.5 1.5 0 11-3 0 1.5 1.5 0 013 0zM662.168 175.242a1.5 1.5 0 11-3 0 1.5 1.5 0 013 0zM682.168 175.242a1.5 1.5 0 11-3 0 1.5 1.5 0 013 0zM702.168 175.242a1.5 1.5 0 11-3 0 1.5 1.5 0 013 0zM722.168 175.242a1.5 1.5 0 11-3 0 1.5 1.5 0 013 0zM442.168 195.242a1.5 1.5 0 11-3 0 1.5 1.5 0 013 0zM462.168 195.242a1.5 1.5 0 11-3 0 1.5 1.5 0 013 0zM482.168 195.242a1.5 1.5 0 11-3 0 1.5 1.5 0 013 0zM502.168 195.242a1.5 1.5 0 11-3 0 1.5 1.5 0 013 0zM522.168 195.242a1.5 1.5 0 11-3 0 1.5 1.5 0 013 0zM542.168 195.242a1.5 1.5 0 11-3 0 1.5 1.5 0 013 0zM562.168 195.242a1.5 1.5 0 11-3 0 1.5 1.5 0 013 0zM582.168 195.242a1.5 1.5 0 11-3 0 1.5 1.5 0 013 0zM602.168 195.242a1.5 1.5 0 11-3 0 1.5 1.5 0 013 0zM622.168 195.242a1.5 1.5 0 11-3 0 1.5 1.5 0 013 0zM642.168 195.242a1.5 1.5 0 11-3 0 1.5 1.5 0 013 0zM662.168 195.242a1.5 1.5 0 11-3 0 1.5 1.5 0 013 0zM682.168 195.242a1.5 1.5 0 11-3 0 1.5 1.5 0 013 0zM702.168 195.242a1.5 1.5 0 11-3 0 1.5 1.5 0 013 0zM722.168 195.242a1.5 1.5 0 11-3 0 1.5 1.5 0 013 0zM742.168 15.242a1.5 1.5 0 11-3 0 1.5 1.5 0 013 0zM762.168 15.242a1.5 1.5 0 11-3 0 1.5 1.5 0 013 0zM782.168 15.242a1.5 1.5 0 11-3 0 1.5 1.5 0 013 0zM802.168 15.242a1.5 1.5 0 11-3 0 1.5 1.5 0 013 0zM822.168 15.242a1.5 1.5 0 11-3 0 1.5 1.5 0 013 0zM842.168 15.242a1.5 1.5 0 11-3 0 1.5 1.5 0 013 0zM862.168 15.242a1.5 1.5 0 11-3 0 1.5 1.5 0 013 0zM742.168 35.242a1.5 1.5 0 11-3 0 1.5 1.5 0 013 0zM762.168 35.242a1.5 1.5 0 11-3 0 1.5 1.5 0 013 0zM782.168 35.242a1.5 1.5 0 11-3 0 1.5 1.5 0 013 0zM802.168 35.242a1.5 1.5 0 11-3 0 1.5 1.5 0 013 0zM822.168 35.242a1.5 1.5 0 11-3 0 1.5 1.5 0 013 0zM842.168 35.242a1.5 1.5 0 11-3 0 1.5 1.5 0 013 0zM862.168 35.242a1.5 1.5 0 11-3 0 1.5 1.5 0 013 0zM882.168 35.242a1.5 1.5 0 11-3 0 1.5 1.5 0 013 0zM742.168 55.242a1.5 1.5 0 11-3 0 1.5 1.5 0 013 0zM762.168 55.242a1.5 1.5 0 11-3 0 1.5 1.5 0 013 0zM782.168 55.242a1.5 1.5 0 11-3 0 1.5 1.5 0 013 0zM802.168 55.242a1.5 1.5 0 11-3 0 1.5 1.5 0 013 0zM822.168 55.242a1.5 1.5 0 11-3 0 1.5 1.5 0 013 0zM842.168 55.242a1.5 1.5 0 11-3 0 1.5 1.5 0 013 0zM862.168 55.242a1.5 1.5 0 11-3 0 1.5 1.5 0 013 0zM882.168 55.242a1.5 1.5 0 11-3 0 1.5 1.5 0 013 0zM902.168 55.242a1.5 1.5 0 11-3 0 1.5 1.5 0 013 0zM742.168 75.242a1.5 1.5 0 11-3 0 1.5 1.5 0 013 0zM762.168 75.242a1.5 1.5 0 11-3 0 1.5 1.5 0 013 0zM782.168 75.242a1.5 1.5 0 11-3 0 1.5 1.5 0 013 0zM802.168 75.242a1.5 1.5 0 11-3 0 1.5 1.5 0 013 0zM822.168 75.242a1.5 1.5 0 11-3 0 1.5 1.5 0 013 0zM842.168 75.242a1.5 1.5 0 11-3 0 1.5 1.5 0 013 0zM862.168 75.242a1.5 1.5 0 11-3 0 1.5 1.5 0 013 0zM882.168 75.242a1.5 1.5 0 11-3 0 1.5 1.5 0 013 0zM902.168 75.242a1.5 1.5 0 11-3 0 1.5 1.5 0 013 0zM742.168 95.242a1.5 1.5 0 11-3 0 1.5 1.5 0 013 0zM762.168 95.242a1.5 1.5 0 11-3 0 1.5 1.5 0 013 0zM782.168 95.242a1.5 1.5 0 11-3 0 1.5 1.5 0 013 0zM802.168 95.242a1.5 1.5 0 11-3 0 1.5 1.5 0 013 0zM822.168 95.242a1.5 1.5 0 11-3 0 1.5 1.5 0 013 0zM842.168 95.242a1.5 1.5 0 11-3 0 1.5 1.5 0 013 0zM862.168 95.242a1.5 1.5 0 11-3 0 1.5 1.5 0 013 0zM882.168 95.242a1.5 1.5 0 11-3 0 1.5 1.5 0 013 0zM902.168 95.242a1.5 1.5 0 11-3 0 1.5 1.5 0 013 0zM742.168 115.242a1.5 1.5 0 11-3 0 1.5 1.5 0 013 0zM762.168 115.242a1.5 1.5 0 11-3 0 1.5 1.5 0 013 0zM782.168 115.242a1.5 1.5 0 11-3 0 1.5 1.5 0 013 0zM802.168 115.242a1.5 1.5 0 11-3 0 1.5 1.5 0 013 0zM822.168 115.242a1.5 1.5 0 11-3 0 1.5 1.5 0 013 0zM842.168 115.242a1.5 1.5 0 11-3 0 1.5 1.5 0 013 0zM862.168 115.242a1.5 1.5 0 11-3 0 1.5 1.5 0 013 0zM882.168 115.242a1.5 1.5 0 11-3 0 1.5 1.5 0 013 0zM902.168 115.242a1.5 1.5 0 11-3 0 1.5 1.5 0 013 0zM742.168 135.242a1.5 1.5 0 11-3 0 1.5 1.5 0 013 0zM762.168 135.242a1.5 1.5 0 11-3 0 1.5 1.5 0 013 0zM782.168 135.242a1.5 1.5 0 11-3 0 1.5 1.5 0 013 0zM802.168 135.242a1.5 1.5 0 11-3 0 1.5 1.5 0 013 0zM822.168 135.242a1.5 1.5 0 11-3 0 1.5 1.5 0 013 0zM842.168 135.242a1.5 1.5 0 11-3 0 1.5 1.5 0 013 0zM862.168 135.242a1.5 1.5 0 11-3 0 1.5 1.5 0 013 0zM882.168 135.242a1.5 1.5 0 11-3 0 1.5 1.5 0 013 0zM902.168 135.242a1.5 1.5 0 11-3 0 1.5 1.5 0 013 0zM742.168 155.242a1.5 1.5 0 11-3 0 1.5 1.5 0 013 0zM762.168 155.242a1.5 1.5 0 11-3 0 1.5 1.5 0 013 0zM782.168 155.242a1.5 1.5 0 11-3 0 1.5 1.5 0 013 0zM802.168 155.242a1.5 1.5 0 11-3 0 1.5 1.5 0 013 0zM822.168 155.242a1.5 1.5 0 11-3 0 1.5 1.5 0 013 0zM842.168 155.242a1.5 1.5 0 11-3 0 1.5 1.5 0 013 0zM862.168 155.242a1.5 1.5 0 11-3 0 1.5 1.5 0 013 0zM882.168 155.242a1.5 1.5 0 11-3 0 1.5 1.5 0 013 0zM902.168 155.242a1.5 1.5 0 11-3 0 1.5 1.5 0 013 0zM742.168 175.242a1.5 1.5 0 11-3 0 1.5 1.5 0 013 0zM762.168 175.242a1.5 1.5 0 11-3 0 1.5 1.5 0 013 0zM782.168 175.242a1.5 1.5 0 11-3 0 1.5 1.5 0 013 0zM802.168 175.242a1.5 1.5 0 11-3 0 1.5 1.5 0 013 0zM822.168 175.242a1.5 1.5 0 11-3 0 1.5 1.5 0 013 0zM842.168 175.242a1.5 1.5 0 11-3 0 1.5 1.5 0 013 0zM862.168 175.242a1.5 1.5 0 11-3 0 1.5 1.5 0 013 0zM882.168 175.242a1.5 1.5 0 11-3 0 1.5 1.5 0 013 0zM902.168 175.242a1.5 1.5 0 11-3 0 1.5 1.5 0 013 0zM742.168 195.242a1.5 1.5 0 11-3 0 1.5 1.5 0 013 0zM762.168 195.242a1.5 1.5 0 11-3 0 1.5 1.5 0 013 0zM782.168 195.242a1.5 1.5 0 11-3 0 1.5 1.5 0 013 0zM802.168 195.242a1.5 1.5 0 11-3 0 1.5 1.5 0 013 0zM822.168 195.242a1.5 1.5 0 11-3 0 1.5 1.5 0 013 0zM842.168 195.242a1.5 1.5 0 11-3 0 1.5 1.5 0 013 0zM862.168 195.242a1.5 1.5 0 11-3 0 1.5 1.5 0 013 0zM882.168 195.242a1.5 1.5 0 11-3 0 1.5 1.5 0 013 0zM902.168 195.242a1.5 1.5 0 11-3 0 1.5 1.5 0 013 0zM82.168 215.242a1.5 1.5 0 11-3 0 1.5 1.5 0 013 0zM82.168 235.242a1.5 1.5 0 11-3 0 1.5 1.5 0 013 0zM82.168 255.242a1.5 1.5 0 11-3 0 1.5 1.5 0 013 0zM82.168 275.242a1.5 1.5 0 11-3 0 1.5 1.5 0 013 0zM82.168 295.242a1.5 1.5 0 11-3 0 1.5 1.5 0 013 0zM82.168 315.242a1.5 1.5 0 11-3 0 1.5 1.5 0 013 0zM82.168 335.242a1.5 1.5 0 11-3 0 1.5 1.5 0 013 0zM82.168 355.242a1.5 1.5 0 11-3 0 1.5 1.5 0 013 0zM82.168 375.242a1.5 1.5 0 11-3 0 1.5 1.5 0 013 0zM82.168 395.242a1.5 1.5 0 11-3 0 1.5 1.5 0 013 0zM82.168 415.242a1.5 1.5 0 11-3 0 1.5 1.5 0 013 0zM82.168 435.242a1.5 1.5 0 11-3 0 1.5 1.5 0 013 0zM82.168 455.242a1.5 1.5 0 11-3 0 1.5 1.5 0 013 0zM82.168 475.242a1.5 1.5 0 11-3 0 1.5 1.5 0 013 0zM82.168 495.242a1.5 1.5 0 11-3 0 1.5 1.5 0 013 0zM82.168 515.242a1.5 1.5 0 11-3 0 1.5 1.5 0 013 0zM82.168 175.242a1.5 1.5 0 11-3 0 1.5 1.5 0 013 0zM82.168 195.242a1.5 1.5 0 11-3 0 1.5 1.5 0 013 0z"/></g><g filter="url(#filter0_d)"><path fill-rule="evenodd" clip-rule="evenodd" d="M446.012 421.188c98.397 6.039 183.06-68.832 189.099-167.23 6.04-98.398-68.832-183.06-167.229-189.1-98.398-6.039-183.061 68.832-189.1 167.23-6.039 98.398 68.832 183.061 167.23 189.1zm6.663-108.551c38.447 2.359 71.527-26.895 73.887-65.341 2.359-38.447-26.895-71.527-65.342-73.887-38.446-2.359-71.526 26.895-73.886 65.341-2.359 38.447 26.895 71.527 65.341 73.887z" fill="url(#paint0_linear)"/></g><g filter="url(#filter1_d)"><path fill-rule="evenodd" clip-rule="evenodd" d="M166.723 507.004c66.732 4.096 124.149-46.681 128.245-113.413 4.096-66.731-46.681-124.148-113.413-128.244-66.732-4.096-124.149 46.681-128.244 113.413-4.096 66.731 46.68 124.149 113.412 128.244zm4.52-73.617c26.074 1.6 48.508-18.24 50.109-44.314 1.6-26.074-18.24-48.508-44.314-50.108-26.074-1.601-48.508 18.239-50.108 44.313-1.601 26.074 18.239 48.508 44.313 50.109z" fill="url(#paint1_linear)"/></g><g filter="url(#filter2_d)"><path fill-rule="evenodd" clip-rule="evenodd" d="M325.329 378.058c73.045 4.483 135.895-51.098 140.378-124.144 4.484-73.045-51.097-135.895-124.143-140.378-73.046-4.483-135.896 51.098-140.379 124.143-4.483 73.046 51.098 135.896 124.144 140.379zm4.947-80.583c28.541 1.751 53.098-19.965 54.85-48.506 1.751-28.541-19.966-53.098-48.507-54.85-28.54-1.752-53.097 19.965-54.849 48.506-1.752 28.541 19.965 53.098 48.506 54.85z" fill="url(#paint2_linear)"/></g><g filter="url(#filter3_d)"><path fill-rule="evenodd" clip-rule="evenodd" d="M641.267 612.006c30.514 1.872 56.768-21.346 58.641-51.859 1.873-30.514-21.345-56.769-51.859-58.642-30.514-1.872-56.768 21.346-58.641 51.86-1.873 30.513 21.345 56.768 51.859 58.641zm2.067-33.663c11.923.732 22.181-8.34 22.913-20.263.732-11.922-8.34-22.18-20.263-22.912-11.923-.732-22.181 8.34-22.913 20.263-.731 11.922 8.341 22.18 20.263 22.912z" fill="url(#paint3_linear)"/></g><g filter="url(#filter4_d)"><path fill-rule="evenodd" clip-rule="evenodd" d="M203.139 223.117c51.682 3.172 96.15-36.153 99.322-87.835 3.172-51.682-36.153-96.15-87.835-99.322-51.682-3.172-96.151 36.153-99.323 87.835-3.172 51.682 36.154 96.15 87.836 99.322zm3.503-57.015c20.194 1.24 37.569-14.126 38.808-34.319 1.239-20.194-14.126-37.569-34.32-38.808-20.193-1.24-37.568 14.126-38.808 34.319-1.239 20.194 14.126 37.569 34.32 38.808z" fill="url(#paint4_linear)"/></g><g filter="url(#filter5_d)"><path fill-rule="evenodd" clip-rule="evenodd" d="M721.878 566.389c53.32 3.273 99.197-37.299 102.47-90.619 3.273-53.32-37.299-99.198-90.619-102.47-53.321-3.273-99.198 37.299-102.471 90.619-3.272 53.32 37.299 99.198 90.62 102.47zm3.615-58.822c20.834 1.279 38.759-14.574 40.038-35.407 1.279-20.834-14.574-38.76-35.407-40.038-20.834-1.279-38.76 14.574-40.038 35.407-1.279 20.834 14.574 38.759 35.407 40.038z" fill="url(#paint5_linear)"/></g><g filter="url(#filter6_d)"><path fill-rule="evenodd" clip-rule="evenodd" d="M119.774 120.381c11.459.703 21.318-8.016 22.021-19.475.704-11.459-8.016-21.318-19.475-22.022-11.458-.703-21.318 8.016-22.021 19.475-.704 11.459 8.016 21.318 19.475 22.022zm.776-12.642a8.122 8.122 0 00.995-16.213 8.123 8.123 0 00-.995 16.213z" fill="url(#paint6_linear)"/></g><g filter="url(#filter7_d)"><path fill-rule="evenodd" clip-rule="evenodd" d="M798.658 411.957c8.328.511 15.493-5.826 16.004-14.153.512-8.328-5.825-15.494-14.153-16.005-8.328-.511-15.494 5.826-16.005 14.154-.511 8.328 5.826 15.493 14.154 16.004zm.564-9.187a5.903 5.903 0 10.722-11.784 5.903 5.903 0 00-.722 11.784z" fill="url(#paint7_linear)"/></g><g filter="url(#filter8_d)"><path fill-rule="evenodd" clip-rule="evenodd" d="M272.449 550.089c22.719 1.395 42.267-15.893 43.661-38.612 1.395-22.719-15.893-42.267-38.612-43.661-22.719-1.395-42.267 15.892-43.661 38.612-1.395 22.719 15.892 42.267 38.612 43.661zm1.537-25.063c8.877.544 16.515-6.21 17.06-15.087.545-8.877-6.21-16.515-15.087-17.06-8.877-.545-16.514 6.21-17.059 15.087-.545 8.877 6.209 16.515 15.086 17.06z" fill="url(#paint8_linear)"/></g><defs><linearGradient id="paint0_linear" x1="593.346" y1="395.982" x2="322.377" y2="87.791" gradientUnits="userSpaceOnUse"><stop stop-color="#9CABFF"/><stop offset="1" stop-color="#687DEE"/></linearGradient><linearGradient id="paint1_linear" x1="266.643" y1="489.91" x2="82.876" y2="280.899" gradientUnits="userSpaceOnUse"><stop stop-color="#9CABFF"/><stop offset="1" stop-color="#687DEE"/></linearGradient><linearGradient id="paint2_linear" x1="434.702" y1="359.346" x2="233.548" y2="130.56" gradientUnits="userSpaceOnUse"><stop stop-color="#9CABFF"/><stop offset="1" stop-color="#687DEE"/></linearGradient><linearGradient id="paint3_linear" x1="686.956" y1="604.189" x2="602.927" y2="508.617" gradientUnits="userSpaceOnUse"><stop stop-color="#9CABFF"/><stop offset="1" stop-color="#687DEE"/></linearGradient><linearGradient id="paint4_linear" x1="280.524" y1="209.878" x2="138.201" y2="48.005" gradientUnits="userSpaceOnUse"><stop stop-color="#9CABFF"/><stop offset="1" stop-color="#687DEE"/></linearGradient><linearGradient id="paint5_linear" x1="801.716" y1="552.731" x2="654.881" y2="385.726" gradientUnits="userSpaceOnUse"><stop stop-color="#9CABFF"/><stop offset="1" stop-color="#687DEE"/></linearGradient><linearGradient id="paint6_linear" x1="136.931" y1="117.445" x2="105.376" y2="81.555" gradientUnits="userSpaceOnUse"><stop stop-color="#9CABFF"/><stop offset="1" stop-color="#687DEE"/></linearGradient><linearGradient id="paint7_linear" x1="811.128" y1="409.824" x2="788.194" y2="383.74" gradientUnits="userSpaceOnUse"><stop stop-color="#9CABFF"/><stop offset="1" stop-color="#687DEE"/></linearGradient><linearGradient id="paint8_linear" x1="306.467" y1="544.269" x2="243.902" y2="473.111" gradientUnits="userSpaceOnUse"><stop stop-color="#9CABFF"/><stop offset="1" stop-color="#687DEE"/></linearGradient><filter id="filter0_d" x="222.848" y="23.923" width="468.199" height="468.199" filterUnits="userSpaceOnUse" color-interpolation-filters="sRGB"><feFlood flood-opacity="0" result="BackgroundImageFix"/><feColorMatrix in="SourceAlpha" values="0 0 0 0 0 0 0 0 0 0 0 0 0 0 0 0 0 0 127 0"/><feOffset dy="15"/><feGaussianBlur stdDeviation="22.5"/><feColorMatrix values="0 0 0 0 0.470588 0 0 0 0 0.54902 0 0 0 0 0.956863 0 0 0 1 0"/><feBlend in2="BackgroundImageFix" result="effect1_dropShadow"/><feBlend in="SourceGraphic" in2="effect1_dropShadow" result="shape"/></filter><filter id="filter1_d" x=".895" y="227.931" width="346.489" height="346.489" filterUnits="userSpaceOnUse" color-interpolation-filters="sRGB"><feFlood flood-opacity="0" result="BackgroundImageFix"/><feColorMatrix in="SourceAlpha" values="0 0 0 0 0 0 0 0 0 0 0 0 0 0 0 0 0 0 127 0"/><feOffset dy="15"/><feGaussianBlur stdDeviation="22.5"/><feColorMatrix values="0 0 0 0 0.470588 0 0 0 0 0.54902 0 0 0 0 0.956863 0 0 0 1 0"/><feBlend in2="BackgroundImageFix" result="effect1_dropShadow"/><feBlend in="SourceGraphic" in2="effect1_dropShadow" result="shape"/></filter><filter id="filter2_d" x="148.068" y="75.418" width="370.757" height="370.757" filterUnits="userSpaceOnUse" color-interpolation-filters="sRGB"><feFlood flood-opacity="0" result="BackgroundImageFix"/><feColorMatrix in="SourceAlpha" values="0 0 0 0 0 0 0 0 0 0 0 0 0 0 0 0 0 0 127 0"/><feOffset dy="15"/><feGaussianBlur stdDeviation="22.5"/><feColorMatrix values="0 0 0 0 0.470588 0 0 0 0 0.54902 0 0 0 0 0.956863 0 0 0 1 0"/><feBlend in2="BackgroundImageFix" result="effect1_dropShadow"/><feBlend in="SourceGraphic" in2="effect1_dropShadow" result="shape"/></filter><filter id="filter3_d" x="541.018" y="468.114" width="207.282" height="207.282" filterUnits="userSpaceOnUse" color-interpolation-filters="sRGB"><feFlood flood-opacity="0" result="BackgroundImageFix"/><feColorMatrix in="SourceAlpha" values="0 0 0 0 0 0 0 0 0 0 0 0 0 0 0 0 0 0 127 0"/><feOffset dy="15"/><feGaussianBlur stdDeviation="22.5"/><feColorMatrix values="0 0 0 0 0.470588 0 0 0 0 0.54902 0 0 0 0 0.956863 0 0 0 1 0"/><feBlend in2="BackgroundImageFix" result="effect1_dropShadow"/><feBlend in="SourceGraphic" in2="effect1_dropShadow" result="shape"/></filter><filter id="filter4_d" x="64.561" y=".216" width="288.645" height="288.645" filterUnits="userSpaceOnUse" color-interpolation-filters="sRGB"><feFlood flood-opacity="0" result="BackgroundImageFix"/><feColorMatrix in="SourceAlpha" values="0 0 0 0 0 0 0 0 0 0 0 0 0 0 0 0 0 0 127 0"/><feOffset dy="15"/><feGaussianBlur stdDeviation="22.5"/><feColorMatrix values="0 0 0 0 0.470588 0 0 0 0 0.54902 0 0 0 0 0.956863 0 0 0 1 0"/><feBlend in2="BackgroundImageFix" result="effect1_dropShadow"/><feBlend in="SourceGraphic" in2="effect1_dropShadow" result="shape"/></filter><filter id="filter5_d" x="580.332" y="337.374" width="294.941" height="294.941" filterUnits="userSpaceOnUse" color-interpolation-filters="sRGB"><feFlood flood-opacity="0" result="BackgroundImageFix"/><feColorMatrix in="SourceAlpha" values="0 0 0 0 0 0 0 0 0 0 0 0 0 0 0 0 0 0 127 0"/><feOffset dy="15"/><feGaussianBlur stdDeviation="22.5"/><feColorMatrix values="0 0 0 0 0.470588 0 0 0 0 0.54902 0 0 0 0 0.956863 0 0 0 1 0"/><feBlend in2="BackgroundImageFix" result="effect1_dropShadow"/><feBlend in="SourceGraphic" in2="effect1_dropShadow" result="shape"/></filter><filter id="filter6_d" x="54.025" y="47.611" width="134.043" height="134.043" filterUnits="userSpaceOnUse" color-interpolation-filters="sRGB"><feFlood flood-opacity="0" result="BackgroundImageFix"/><feColorMatrix in="SourceAlpha" values="0 0 0 0 0 0 0 0 0 0 0 0 0 0 0 0 0 0 127 0"/><feOffset dy="15"/><feGaussianBlur stdDeviation="22.5"/><feColorMatrix values="0 0 0 0 0.470588 0 0 0 0 0.54902 0 0 0 0 0.956863 0 0 0 1 0"/><feBlend in2="BackgroundImageFix" result="effect1_dropShadow"/><feBlend in="SourceGraphic" in2="effect1_dropShadow" result="shape"/></filter><filter id="filter7_d" x="738.578" y="350.873" width="122.009" height="122.009" filterUnits="userSpaceOnUse" color-interpolation-filters="sRGB"><feFlood flood-opacity="0" result="BackgroundImageFix"/><feColorMatrix in="SourceAlpha" values="0 0 0 0 0 0 0 0 0 0 0 0 0 0 0 0 0 0 127 0"/><feOffset dy="15"/><feGaussianBlur stdDeviation="22.5"/><feColorMatrix values="0 0 0 0 0.470588 0 0 0 0 0.54902 0 0 0 0 0.956863 0 0 0 1 0"/><feBlend in2="BackgroundImageFix" result="effect1_dropShadow"/><feBlend in="SourceGraphic" in2="effect1_dropShadow" result="shape"/></filter><filter id="filter8_d" x="186.312" y="435.291" width="177.323" height="177.323" filterUnits="userSpaceOnUse" color-interpolation-filters="sRGB"><feFlood flood-opacity="0" result="BackgroundImageFix"/><feColorMatrix in="SourceAlpha" values="0 0 0 0 0 0 0 0 0 0 0 0 0 0 0 0 0 0 127 0"/><feOffset dy="15"/><feGaussianBlur stdDeviation="22.5"/><feColorMatrix values="0 0 0 0 0.470588 0 0 0 0 0.54902 0 0 0 0 0.956863 0 0 0 1 0"/><feBlend in2="BackgroundImageFix" result="effect1_dropShadow"/><feBlend in="SourceGraphic" in2="effect1_dropShadow" result="shape"/></filter></defs></svg>