<svg width="205" height="205" xmlns="http://www.w3.org/2000/svg" xmlns:xlink="http://www.w3.org/1999/xlink"><defs><circle id="a" cx="102.5" cy="102.5" r="102.5"/></defs><g fill="none" fill-rule="evenodd"><mask id="b" fill="#fff"><use xlink:href="#a"/></mask><use fill="#FFF" xlink:href="#a"/><g fill-rule="nonzero" mask="url(#b)"><path d="M165 207H28v-36.68l20.147-19.546H165zM81.725 30h18.804v16.065H81.725z" fill="#08446D"/><path fill="#00233F" d="M81 30h19v16"/><path fill="#08446D" d="M65 35h51v53H65z"/><g fill="#00233F"><path d="M65.815 35h51.37v53.667"/><path d="M55 53.783h73V211H55z"/></g><path fill="#0DD396" d="M85 67h14v14H85z"/><path fill="#0DD396" d="M99 67v14H85m0 5h14v14H85z"/><path fill="#0DD396" d="M99 86v14H85m0 5h14v14H85z"/><path fill="#0DD396" d="M99 105v14H85m0 5h14v14H85z"/><path fill="#0DD396" d="M99 124v14H85m0 5h14v14H85z"/><path fill="#0DD396" d="M99 143v14H85M65 86h14v14H65z"/><path fill="#0DD396" d="M79 86v14H65m0 5h14v14H65z"/><path fill="#0DD396" d="M79 105v14H65m0 5h14v14H65z"/><path fill="#0DD396" d="M79 124v14H65m0 5h14v14H65z"/><path fill="#0DD396" d="M79 143v14H65m0-90h14v14H65z"/><path fill="#0DD396" d="M79 67v14H65m38-14h14v14h-14z"/><path fill="#0DD396" d="M117 67v14h-14m0 5h14v14h-14z"/><path fill="#0DD396" d="M117 86v14h-14m0 5h14v14h-14z"/><path fill="#0DD396" d="M117 105v14h-14m0 5h14v14h-14z"/><path fill="#0DD396" d="M117 124v14h-14m0 5h14v14h-14z"/><path fill="#0DD396" d="M117 143v14h-14"/><path d="M100 206v-21.067c0-1.866-1.9-2.933-3.8-2.933H84.529c-1.9 0-3.529 1.333-3.529 2.933V206h19z" fill="#C6640C"/><g fill="#08446D"><path d="M135 96.724h51V196h-51z"/><path d="M143.053 80.626h34.895v37.564h-34.895z"/><path d="M151.105 61.844h18.789v34.881h-18.789z"/><path d="M149.763 98.602L160.5 33.134l10.737 65.468-10.737 10.733z"/></g><path d="M145 108h2.7v78H145zm13.5 0h2.7v78h-2.7zm10.8 0h2.7v78h-2.7z" fill="#5A8CA8"/></g></g></svg>