<svg xmlns="http://www.w3.org/2000/svg" width="27" height="35"><path fill="#FFF" fill-rule="evenodd" stroke="#FFF" stroke-width=".5" d="M23.892 12.176l-4.328 3.053a6.667 6.667 0 0 1 .451 2.381 6.511 6.511 0 0 1-1.893 4.594 6.486 6.486 0 0 1-4.58 1.925l-.692.005a.375.375 0 0 1-.378-.373v-3.53L9.41 22.388c-.01.01-.027.016-.037.021L4.635 25.75l-1.311.923 9.148 6.44V29.72c0-.21.168-.378.378-.378h.682a11.701 11.701 0 0 0 8.267-3.45 11.675 11.675 0 0 0 3.425-8.281 11.671 11.671 0 0 0-1.332-5.434zM3.088 23.043a12.004 12.004 0 0 1-.944-2.428 11.742 11.742 0 0 1-.383-3.005c0-3.23 1.306-6.157 3.42-8.281a11.688 11.688 0 0 1 8.267-3.451h.687a.383.383 0 0 0 .378-.378V2.107l9.143 6.44-1.312.923-4.736 3.336c-.01.01-.021.016-.032.026l-3.063 2.155-.006-3.529a.38.38 0 0 0-.377-.378l-.693.01a6.474 6.474 0 0 0-4.574 1.926 6.494 6.494 0 0 0-1.752 5.963c.074.34.178.681.304 1.012l-4.327 3.052zm5.01-2.612l-4.921 3.472c-.01.005-.021.01-.032.021a.384.384 0 0 1-.514-.142A12.445 12.445 0 0 1 1 17.61a12.46 12.46 0 0 1 3.646-8.816 12.476 12.476 0 0 1 8.802-3.671h.31V1.378c0-.073.02-.152.068-.215a.373.373 0 0 1 .524-.094l10.177 7.169c.036.026.063.058.094.09a.38.38 0 0 1-.094.529l-1.747 1.232-4.753 3.346c-.02.016-.036.026-.052.037l-3.61 2.538a.356.356 0 0 1-.23.084.38.38 0 0 1-.378-.378v-3.875h-.314a5.768 5.768 0 0 0-5.592 6.98c.084.388.204.766.367 1.133a.372.372 0 0 1-.12.477zm10.784-5.648l4.92-3.467c.011-.01.022-.015.032-.02a.38.38 0 0 1 .514.146 12.371 12.371 0 0 1 1.632 6.168c0 3.44-1.39 6.555-3.646 8.816a12.45 12.45 0 0 1-8.802 3.665l-.304.006v3.744a.379.379 0 0 1-.593.31L2.453 26.98a.512.512 0 0 1-.09-.094.377.377 0 0 1 .09-.524L4.2 25.13l4.758-3.351c.015-.01.031-.026.052-.037l3.604-2.533a.37.37 0 0 1 .236-.084.38.38 0 0 1 .378.378v3.876h.309a5.763 5.763 0 0 0 4.05-1.71 5.74 5.74 0 0 0 1.673-4.06 5.79 5.79 0 0 0-.126-1.21 5.845 5.845 0 0 0-.372-1.134.382.382 0 0 1 .12-.482z"/></svg>