<svg xmlns="http://www.w3.org/2000/svg" width="30" height="35"><path fill="#FFF" fill-rule="evenodd" stroke="#FFF" stroke-width=".5" d="M1.701 19.648c0 3.76 1.553 7.178 4.063 9.655a13.89 13.89 0 0 0 9.785 4.01h6.99l-4.242-6.363a3.016 3.016 0 0 1-.155-.243l-.03-.048-.057-.1-.078-.148-.101-.2-.024-.053-.02-.048-.024-.052-.02-.048v-.005l-.024-.047-.019-.053-.02-.052-.019-.053-.019-.052-.02-.053-.014-.048-.02-.052-.018-.053-.015-.052-.014-.053-.015-.052-.02-.053-.009-.052-.015-.053-.014-.052-.01-.053-.014-.052-.01-.053-.01-.052-.01-.057-.014-.053-.005-.052-.01-.053-.009-.052-.01-.058-.004-.052-.005-.053-.005-.052-.01-.053v-.057l-.005-.052-.004-.053-.005-.053v-.052l-.005-.057v-.373l.005-.052.005-.057v-.053l.004-.052.005-.053.005-.052.005-.053.01-.052.004-.058.005-.052.01-.053.014-.105.02-.105.01-.052.014-.053.01-.052.014-.053.01-.052.014-.057.015-.048.014-.053.015-.052.014-.053.02-.052.014-.053.015-.047.02-.053.014-.052.019-.053.02-.052.023-.048.02-.053.02-.047.018-.053.025-.052.019-.048.024-.048.024-.052.025-.048.024-.048.024-.052.024-.048h.005l.024-.048.024-.047.03-.053.024-.048h.004l.025-.047.029-.048.029-.048.029-.048.033-.047.03-.048.029-.048.033-.043.034-.048.03-.047.033-.043.034-.048h.005l.029-.043.039-.048.033-.043.04-.047.033-.043.039-.043.725-.86V10.79l-1.204.005-1.683.005H16.4l-.096-.005h-.005a4.17 4.17 0 0 1-2.157-.73 4.09 4.09 0 0 1-.44-.368 8.719 8.719 0 0 1-.484-.506l-.01-.014a6.513 6.513 0 0 0-5.025-2.348c-1.79 0-3.41.716-4.586 1.876a6.332 6.332 0 0 0-1.896 4.52v6.424zm21.834.386v11.818l2.084-5.217c.368-.916.533-1.957.494-2.978-.034-1.021-.266-2.019-.697-2.859l-.387-.764h-1.494zm-.053 13.808l-.005.005-.005.005-.005.005v.005l-.005.004h-.005v.01h-.004l-.005.005v.004l-.005.005h-.005l-.01.015c-.01.01-.019.014-.024.019l-.005.004.083-.086zm-.092.096l-.01.005h-.005l-.005.005-.004.004h-.005l-.005.005-.005.005h-.01v.005h-.009v.004h-.005l-.01.005-.005.005h-.01l-.004.005-.03.004-.004.005h-.01l.136-.057zm-.557-2.086l-2.084-5.217c-.368-.916-.532-1.957-.494-2.978.034-1.021.266-2.019.697-2.859l.387-.764h1.494v11.818zM6.785 10.035a3.911 3.911 0 0 1 2.936.368 3.785 3.785 0 0 1 1.809 2.305 3.74 3.74 0 0 1-.368 2.892 3.832 3.832 0 0 1-2.312 1.785l-.029.005a3.868 3.868 0 0 1-2.926-.367 3.764 3.764 0 0 1-1.804-2.277l-.01-.029a3.74 3.74 0 0 1 .373-2.892 3.865 3.865 0 0 1 2.33-1.79zm-2.94 1.451a4.55 4.55 0 0 1 2.76-2.11 4.592 4.592 0 0 1 3.46.43 4.484 4.484 0 0 1 2.137 2.72 4.441 4.441 0 0 1-.435 3.418 4.563 4.563 0 0 1-2.728 2.1l-.024.005H9.01a4.57 4.57 0 0 1-3.459-.43 4.488 4.488 0 0 1-2.133-2.687l-.004-.028h-.005.005l-.005-.005a4.45 4.45 0 0 1 .435-3.413zm9.426 15.12a2.045 2.045 0 0 1 1.533.192c.44.253.789.663.944 1.183v.02l.004.004c.145.53.058 1.07-.193 1.518a2.028 2.028 0 0 1-1.2.926l-.014.005h-.01a2.046 2.046 0 0 1-1.533-.191 1.98 1.98 0 0 1-.755-2.72 2.012 2.012 0 0 1 1.224-.936zm-1.828.597a2.694 2.694 0 0 1 1.644-1.255 2.76 2.76 0 0 1 2.06.253 2.71 2.71 0 0 1 1.268 1.594c.005.015.005.024.01.034v.004a2.636 2.636 0 0 1-.262 2.024 2.72 2.72 0 0 1-1.649 1.26h-.005a2.712 2.712 0 0 1-2.05-.258 2.676 2.676 0 0 1-1.277-1.622 2.64 2.64 0 0 1 .26-2.034zm-3.995-6.925a2.802 2.802 0 0 1 2.104.267 2.703 2.703 0 0 1 1.3 1.652c.204.73.088 1.47-.265 2.08a2.765 2.765 0 0 1-1.655 1.28l-.029.004a2.814 2.814 0 0 1-2.099-.262 2.755 2.755 0 0 1-1.296-1.632l-.005-.029v-.005a2.673 2.673 0 0 1 .266-2.071 2.774 2.774 0 0 1 1.679-1.284zm-2.283.95a3.445 3.445 0 0 1 2.099-1.609 3.495 3.495 0 0 1 2.63.33 3.4 3.4 0 0 1 1.631 2.071 3.372 3.372 0 0 1-.334 2.596 3.45 3.45 0 0 1-2.07 1.6l-.02.004h-.004l-.005.005a3.495 3.495 0 0 1-2.631-.33 3.42 3.42 0 0 1-1.62-2.042l-.005-.02v-.009a3.347 3.347 0 0 1 .329-2.596zm20.643-1.194h.643l.707.83a4.77 4.77 0 0 1 1.141 2.798 4.75 4.75 0 0 1-.808 2.916l-2.747 4.114 1.524-3.804c.401-1.002.58-2.138.541-3.255-.038-1.117-.3-2.214-.769-3.145l-.232-.454zm-2.418 13.9v.004-.005zm-.14.061l-.015.005h-7.686a14.598 14.598 0 0 1-10.278-4.21C2.635 27.19 1 23.6 1 19.648v-6.425c0-1.952.808-3.727 2.104-5.006a7.21 7.21 0 0 1 5.079-2.081 7.29 7.29 0 0 1 3.08.682 7.242 7.242 0 0 1 2.482 1.924l.005.004c.111.13.27.301.435.454.126.124.252.234.353.3a3.435 3.435 0 0 0 1.794.606l.093.006h1.77l1.21-.005V3.062c0-.563.236-1.079.613-1.451v-.005l.005-.005c.378-.372.9-.601 1.476-.601h3.37c.576 0 1.099.23 1.48.601.378.377.615.893.615 1.46v16.506l.726.859a5.422 5.422 0 0 1 1.3 3.198 5.403 5.403 0 0 1-.918 3.326l-4.58 6.869v.004h-.006v.01l-.004.005v.004l-.233.153zm-1.63-3.303l-2.743-4.114c-.03-.043-.053-.086-.082-.129l-.024-.043-.03-.043-.024-.043-.072-.129-.049-.09-.019-.043-.024-.043-.044-.086-.019-.048-.02-.043-.019-.043-.019-.047-.02-.043-.019-.048-.02-.043-.014-.048-.014-.043-.02-.043-.014-.047-.014-.043-.015-.048-.014-.048-.015-.043-.015-.047-.01-.048-.014-.043-.01-.048-.014-.048-.01-.047-.01-.043-.009-.048-.01-.048-.01-.043-.009-.047-.005-.048-.01-.048-.004-.043-.01-.048-.005-.047-.005-.048-.004-.043v-.005l-.005-.048-.005-.042-.005-.048v-.048l-.005-.048v-.047l-.005-.043v-.33l.005-.047v-.048l.005-.043.005-.048v-.048l.005-.047.005-.043.004-.048.01-.048.005-.047.005-.043.01-.048.004-.048.01-.043.01-.048.01-.047.009-.043.01-.048.01-.048.009-.043.014-.047.01-.043.015-.048.01-.043.028-.09.015-.048.014-.043.015-.048.014-.043.02-.043.014-.043.02-.048.014-.043.02-.043.038-.09.02-.043.019-.043.02-.043.023-.043.02-.043.024-.048.02-.038h.004l.02-.043.024-.043.024-.043.024-.043.024-.043.024-.043.025-.038.029-.043.024-.043.029-.043.024-.038h.005l.024-.043.029-.038.029-.038.029-.043.03-.038.033-.043.058-.082.034-.038.034-.038.029-.038.706-.83h.643l-.232.453c-.474.93-.73 2.028-.77 3.145-.038 1.117.141 2.253.543 3.255l1.518 3.804zm-1.514-11.345h6.162v-7.164h-6.162v7.164zm0-7.851V3.062a1.378 1.378 0 0 1 1.393-1.375h3.37a1.378 1.378 0 0 1 1.393 1.375v8.434h-6.156z"/></svg>