<svg width="32" height="28" viewBox="0 0 32 28" fill="none" xmlns="http://www.w3.org/2000/svg">
<path d="M27.709 0.70697C27.6336 0.6315 27.5365 0.588385 27.4287 0.588385H18.621C18.5348 0.588385 18.4378 0.620723 18.3731 0.685413L16.3895 2.09766C16.2493 2.22703 16.0337 2.22703 15.8935 2.09766L13.8991 0.68541C13.8345 0.62072 13.7374 0.588379 13.6512 0.588379H4.84349C4.73568 0.588379 4.63866 0.631499 4.56319 0.706966C1.92196 3.53147 0.304876 7.31544 0.283315 11.4875C0.250977 20.1443 7.25833 27.281 15.9151 27.4104C24.7767 27.529 31.9997 20.3922 31.9997 11.5522C31.9997 7.35856 30.3718 3.54225 27.709 0.706966V0.70697ZM23.9897 4.83592C25.596 6.67939 26.5447 9.08345 26.5447 11.7139C26.5447 17.6755 21.5318 22.5484 15.4947 22.2249C10.1152 21.9446 5.97544 17.4815 5.79217 12.0912C5.69514 9.32063 6.60071 6.75486 8.28248 4.83592C8.41185 4.68499 8.40107 4.46938 8.26092 4.32923L5.15612 1.27834L15.6995 8.82472C15.9798 9.05111 16.3679 9.05111 16.6374 8.82472L27.17 1.27834L24.0005 4.32923C23.8711 4.46938 23.8604 4.68499 23.9898 4.83592H23.9897Z" fill="#DF696A"/>
</svg>
