<svg width="205" height="205" xmlns="http://www.w3.org/2000/svg" xmlns:xlink="http://www.w3.org/1999/xlink"><defs><circle id="a" cx="102.5" cy="102.5" r="102.5"/></defs><g fill="none" fill-rule="evenodd"><mask id="b" fill="#fff"><use xlink:href="#a"/></mask><use fill="#FFF" xlink:href="#a"/><g mask="url(#b)"><path d="M82 191c.331-.34.666-.668 1-1-.334.332-.669.66-1 1m-2 1" fill="#202323"/><path d="M73 217c-.682-4.5-1.966-8.926-3.95-13a53.07 53.07 0 0 0-1.197 1.733c-.298.446-.59.898-.876 1.352-.055.09-.113.178-.168.267-.284.457-.561.917-.83 1.383-.043.072-.087.145-.13.22a56.926 56.926 0 0 0-2.57 4.994c-.041.086-.079.175-.12.262-.208.462-.407.927-.604 1.393-.058.14-.115.281-.17.42-.133.324-.258.65-.385.976h11" fill="#F8CB93"/><path d="M74 198c.33-.338.67-.669 1-1-.33.331-.67.662-1 1m9-7.5c.331-.163.663-.333 1-.5-.337.167-.669.337-1 .5m-2 1.5c.33-.333.665-.673 1-1-.335.327-.67.667-1 1m-2 3l1-1c-.332.333-.668.66-1 1m-2 0c.33-.34.665-.667 1-1-.335.333-.67.66-1 1m-3 4.025l.02-.025-.02.025M79 193c.33-.331.66-.669 1-1-.34.331-.67.669-1 1m-11 12c.323-.335.66-.665 1-.994l-.003-.006c-.342.33-.674.664-.997 1" fill="#202323"/><path d="M89.392 217c.094-.421.188-.803.268-1.128.94-3.835 3.132-7.24 6.427-9.354a8.81 8.81 0 0 1 1.91-.775 8.296 8.296 0 0 1 2.09-.289 8.321 8.321 0 0 1 1.676-.107c.611.025 3.059.025 3.67 0a8.321 8.321 0 0 1 1.677.107 8.319 8.319 0 0 1 2.092.289 8.928 8.928 0 0 1 1.91.775c3.292 2.115 5.486 5.52 6.425 9.354.08.325.173.707.267 1.128h16.316c.67-4.564 1.93-9.052 3.88-13.18a60.667 60.667 0 0 0-3.485-4.547 54.384 54.384 0 0 0-1.512-1.714l-.031-.036a59.166 59.166 0 0 0-3.198-3.227 54.516 54.516 0 0 0-1.634-1.47c-.083-.07-.166-.144-.248-.215a57.32 57.32 0 0 0-3.388-2.69l-.432-.31a62.113 62.113 0 0 0-3.602-2.392 41.464 41.464 0 0 0-6.083-2.828c-2.34-.775-4.676-.348-6.714.842v5.192l-.893-5.192c-2.035-1.19-11.828-1.617-14.167-.842a41.464 41.464 0 0 0-6.083 2.828 53.22 53.22 0 0 0-1.816 1.159c-.069.045-.134.09-.202.136-.492.328-.98.667-1.464 1.012-.16.116-.316.232-.472.348-.321.237-.642.472-.96.715-.183.139-.365.283-.544.424-.287.224-.574.45-.855.682-.19.152-.376.308-.56.46-.273.23-.543.459-.813.69-.182.162-.367.323-.549.484-.264.235-.529.475-.79.716-.176.164-.353.325-.526.492a50.39 50.39 0 0 0-.793.763c-.162.158-.324.317-.483.475-.285.286-.563.577-.842.868-.13.136-.264.272-.395.41a56.92 56.92 0 0 0-1.18 1.293l-.014.014A59.971 59.971 0 0 0 69 203.817c1.95 4.129 3.21 8.62 3.88 13.183h16.512" fill="#202323"/><path d="M138.004 204l-.004.022c.167.326.338.647.5.978-.167-.331-.325-.669-.496-1" fill="#F8CB93"/><path d="M145 217c-.064-.162-.124-.32-.188-.48a59.276 59.276 0 0 0-.48-1.177 42.095 42.095 0 0 0-.359-.825 49.28 49.28 0 0 0-.508-1.122c-.128-.273-.258-.546-.388-.82a60.822 60.822 0 0 0-.578-1.143c-.128-.251-.255-.502-.385-.75a60.345 60.345 0 0 0-.844-1.52c-.15-.265-.307-.528-.463-.792a49.6 49.6 0 0 0-.78-1.289c-.166-.262-.336-.522-.507-.784-.217-.332-.434-.666-.656-.995a83.367 83.367 0 0 0-.57-.818c-.113-.164-.231-.323-.347-.485-1.984 4.072-3.265 8.498-3.947 13h11m-41.999-83C96.95 134 92 139.168 92 145.485v41.027C92 192.829 96.95 198 103.001 198c6.05 0 10.999-5.171 10.999-11.488v-41.027c0-6.317-4.95-11.485-10.999-11.485" fill="#F8CB93"/><path d="M103.001 198C96.95 198 92 192.854 92 186.568v-13.525a50.043 50.043 0 0 0 10.906 1.197c3.819 0 7.534-.43 11.094-1.24v13.568c0 6.286-4.95 11.432-10.999 11.432" fill="#E7A47B"/><path d="M67 103.499C67 109.85 61.85 115 55.501 115 49.15 115 44 109.85 44 103.499 44 97.147 49.15 92 55.501 92 61.851 92 67 97.147 67 103.499m74 0c0 6.351 5.15 11.501 11.5 11.501s11.5-5.15 11.5-11.501C164 97.147 158.85 92 152.5 92S141 97.147 141 103.499" fill="#F8CB93"/><path d="M55 110c-3.383-.31-6-2.432-6-5 0-2.57 2.617-4.69 6-5v10m97 1v-11c3.866 0 7 2.46 7 5.5 0 3.036-3.134 5.5-7 5.5" fill="#E7A47B"/><path d="M104 33c-26.951 0-49 19.745-49 43.876v54.245C55 155.255 77.049 175 104 175s49-19.745 49-43.879V76.876C153 52.745 130.951 33 104 33m-1.094 149.236c-3.751 0-7.401-.421-10.906-1.197v5.664C92 192.915 96.95 198 103.001 198c6.05 0 10.999-5.085 10.999-11.297V181a50.543 50.543 0 0 1-11.094 1.236" fill="#F8CB93"/><path d="M78 129h-6c-1.65 0-3-1.35-3-2.999A3.01 3.01 0 0 1 72 123h6c1.65 0 3 1.35 3 3.001A3.009 3.009 0 0 1 78 129m58 0h-6c-1.65 0-3-1.35-3-2.999a3.01 3.01 0 0 1 3-3.001h6c1.65 0 3 1.35 3 3.001a3.009 3.009 0 0 1-3 2.999" fill="#F2B987"/><path d="M91.25 139c-.162.482-.25.984-.25 1.498 0 4.145 5.597 7.502 12.5 7.502s12.5-3.357 12.5-7.502c0-.514-.088-1.016-.25-1.498h-24.5" fill="#FFFFFE"/><path d="M80.254 100h-2.508c-2.06 0-3.746 1.576-3.746 3.5s1.686 3.5 3.746 3.5h2.508c2.06 0 3.746-1.576 3.746-3.5s-1.686-3.5-3.746-3.5" fill="#202323"/><path d="M78.5 105a1.5 1.5 0 1 1 0-3 1.5 1.5 0 0 1 0 3" fill="#8A8D89"/><path d="M79.5 105a.5.5 0 1 1 0-1 .5.5 0 0 1 0 1" fill="#8A8D89"/><path d="M128.254 100h-2.508c-2.06 0-3.746 1.576-3.746 3.5s1.686 3.5 3.746 3.5h2.508c2.062 0 3.746-1.576 3.746-3.5s-1.684-3.5-3.746-3.5" fill="#202323"/><path d="M126.499 105a1.5 1.5 0 1 1 .001-2.999 1.5 1.5 0 0 1 0 2.999" fill="#8A8D89"/><path d="M127.5 105a.5.5 0 1 1 0-.999.5.5 0 0 1 0 .999" fill="#8A8D89"/><path d="M107.542 9.792L102 8l-5.545 1.714L92 10.803v34.056c.9 1.16 2.93 1.598 4.257 1.992 1.89.557 3.716 1.221 5.706 1.143 2.042-.082 4.023-.46 5.986-1.022.728-.208 4.051-1.044 4.051-2.113V10.803l-4.458-1.01" fill="#202323"/><path d="M53.66 119.998l-2.348-.234c-.194-.02-.333-.163-.31-.32l.94-6.191c.024-.157.204-.27.394-.25l2.352.233c.194.02.333.163.31.32l-.943 6.191c-.024.157-.2.27-.395.25m-6.863-2.028l-1.649-.889a.294.294 0 0 1-.117-.386l2.795-5.54a.275.275 0 0 1 .377-.12l1.649.885a.298.298 0 0 1 .117.389l-2.795 5.536a.278.278 0 0 1-.377.125m107.543 2.029l2.348-.234c.194-.02.333-.163.31-.32l-.94-6.191c-.024-.157-.204-.27-.394-.25l-2.352.233c-.194.02-.333.163-.31.32l.943 6.191c.024.157.2.27.395.25m5.863-2.028l1.649-.889a.294.294 0 0 0 .117-.386l-2.795-5.54a.275.275 0 0 0-.377-.12l-1.649.885a.298.298 0 0 0-.117.389l2.795 5.536c.072.141.24.196.377.125" fill="#9685FF"/><path d="M88.418 92.967a76.37 76.37 0 0 0-17.076-1.158c-1.221.053-2.283-.93-2.34-2.233-.057-1.302.968-2.448 2.26-2.501a80.218 80.218 0 0 1 17.904 1.233c1.239.228 2.033 1.487 1.79 2.76-.238 1.275-1.371 2.111-2.538 1.9m29.875-.329a78.692 78.692 0 0 1 17.081 1.322 2.214 2.214 0 0 0 2.593-1.814c.217-1.244-.66-2.497-1.935-2.733a82.676 82.676 0 0 0-17.913-1.369c-1.256.04-2.197 1.138-2.114 2.4.083 1.26 1.103 2.23 2.288 2.194M116 167.16c-9.212.871-11.183-6.817-11.183-6.817-.437-.424-1.492-.35-1.817-.315-.328-.035-1.382-.109-1.82.315 0 0-1.968 7.688-11.18 6.817 0 0 3.999 10.974 12.9 11.818V179c.033-.003.066-.008.1-.01.034.002.064.007.1.01v-.022c8.901-.844 12.9-11.818 12.9-11.818" fill="#202323"/><path d="M96.499 25C95.75 25 95 24.48 95 23.444v-7.888c0-1.035.748-1.556 1.499-1.556.75 0 1.501.52 1.501 1.556v7.888C98 24.482 97.25 25 96.499 25m-.055 7C95.66 32 95 31.27 95 30.507v-2.014c0-.835.688-1.455 1.499-1.49.019-.003.038-.003.057-.003.785 0 1.444.73 1.444 1.493v2.014c0 .835-.688 1.455-1.501 1.493h-.055" fill="#8E918D"/></g></g></svg>