<svg fill="none" height="44" viewBox="0 0 44 44" width="44" xmlns="http://www.w3.org/2000/svg"><g fill="#ffc800"><circle cx="22" cy="21.9995" opacity=".1" r="22"/><path d="m22 44c2.8891 0 5.7499-.569 8.419-1.6746 2.6692-1.1057 5.0945-2.7262 7.1373-4.7691 2.0429-2.0428 3.6634-4.4681 4.769-7.1373 1.1057-2.6691 1.6747-5.5299 1.6747-8.419s-.569-5.7499-1.6747-8.419c-1.1056-2.6692-2.7261-5.09446-4.769-7.13735-2.0428-2.04289-4.4681-3.66339-7.1373-4.769-2.6691-1.105603-5.5299-1.67464833-8.419-1.67464808v8.36072808c1.7911 0 3.5647.3528 5.2195 1.03823 1.6548.68544 3.1584 1.69014 4.4249 2.95664s2.2712 2.7701 2.9566 4.4249c.6855 1.6548 1.0383 3.4284 1.0383 5.2195s-.3528 3.5647-1.0383 5.2195c-.6854 1.6548-1.6901 3.1584-2.9566 4.4249s-2.7701 2.2712-4.4249 2.9566c-1.6548.6855-3.4284 1.0383-5.2195 1.0383z"/></g></svg>