<svg xmlns="http://www.w3.org/2000/svg" xmlns:xlink="http://www.w3.org/1999/xlink" width="100" height="100" viewBox="0 0 100 100"><g><g transform="translate(50 50) scale(0.69 0.69) rotate(0) translate(-50 -50)" style="fill:#ef4136;"><svg fill="#ef4136" xmlns="http://www.w3.org/2000/svg" xmlns:xlink="http://www.w3.org/1999/xlink" version="1.1" x="0px" y="0px" viewBox="0 0 32 32" enable-background="new 0 0 32 32" xml:space="preserve"><g><g><path fill="#ef4136" d="M23.3,31.2c-0.1,0-0.1,0-0.2,0L16,29.4l-7.1,1.8c-0.2,0.1-0.5,0-0.6-0.1C8.1,30.9,8,30.7,8,30.5v-1.6    c0-0.3,0.2-0.6,0.4-0.7l5-2.4l-0.3-7.3L2.5,21.2c-0.2,0.1-0.5,0-0.6-0.1c-0.2-0.1-0.3-0.4-0.3-0.6v-3.1c0-0.3,0.2-0.6,0.4-0.7    l10.9-5.2l-0.3-7.2c0-0.9,0.3-1.8,1-2.5c1.3-1.4,3.6-1.4,4.9,0c0.7,0.7,1,1.6,1,2.5l-0.3,7.2l10.9,5.2c0.3,0.1,0.4,0.4,0.4,0.7    v3.1c0,0.2-0.1,0.5-0.3,0.6c-0.2,0.1-0.4,0.2-0.6,0.1l-10.7-2.7l-0.3,7.3l5,2.4c0.3,0.1,0.4,0.4,0.4,0.7v1.6    c0,0.2-0.1,0.5-0.3,0.6C23.6,31.2,23.4,31.2,23.3,31.2z M9.5,29.3v0.2l6.3-1.6c0.1,0,0.2,0,0.4,0l6.3,1.6v-0.2l-5-2.4    c-0.3-0.1-0.5-0.5-0.4-0.8l0-0.1l0.3-8.5c0-0.2,0.1-0.4,0.3-0.6c0.2-0.1,0.4-0.2,0.6-0.1L29,19.5v-1.6l-10.9-5.2    c-0.3-0.1-0.4-0.4-0.4-0.7l0.3-7.7c0-0.5-0.2-1-0.5-1.4c-0.7-0.8-2.1-0.8-2.8,0c-0.4,0.4-0.6,0.9-0.5,1.4l0.3,7.7    c0,0.3-0.2,0.6-0.4,0.7L3,17.9v1.6l10.6-2.7c0.2-0.1,0.5,0,0.6,0.1c0.2,0.1,0.3,0.3,0.3,0.6l0.3,8.5c0,0,0,0.1,0,0.1    c0.1,0.3-0.1,0.7-0.4,0.8L9.5,29.3z"></path></g></g></svg></g></g></svg>