<svg width="14" height="20" viewBox="0 0 14 20" fill="none" xmlns="http://www.w3.org/2000/svg">
<path d="M10.0938 16.2578C10.0938 16.1465 10.0195 16.0352 9.94531 15.9609C9.87109 15.8867 9.75977 15.8125 9.64844 15.8125H4.60156C4.45312 15.8125 4.3418 15.8867 4.26758 15.9609C4.19336 16.0352 4.15625 16.1465 4.15625 16.2578V17.2969C4.15625 17.5195 4.19336 17.668 4.30469 17.8164C4.41602 17.9648 4.56445 18.0762 4.75 18.1504V18.4844C4.75 18.7441 4.82422 18.9668 5.00977 19.1152C5.1582 19.3008 5.38086 19.375 5.64062 19.375H8.60938C8.83203 19.375 9.05469 19.3008 9.24023 19.1152C9.38867 18.9668 9.5 18.7441 9.5 18.4844V18.1504C9.64844 18.0762 9.79688 17.9648 9.9082 17.8164C10.0195 17.668 10.0938 17.5195 10.0938 17.2969V16.2578ZM4.75 6.90625C4.75 7.0918 4.67578 7.24023 4.56445 7.35156C4.45312 7.46289 4.30469 7.5 4.15625 7.5C3.9707 7.5 3.82227 7.46289 3.71094 7.35156C3.59961 7.24023 3.5625 7.0918 3.5625 6.90625C3.5625 5.94141 3.89648 5.08789 4.60156 4.38281C5.26953 3.71484 6.12305 3.34375 7.125 3.34375C7.27344 3.34375 7.42188 3.41797 7.5332 3.5293C7.64453 3.64062 7.71875 3.78906 7.71875 3.9375C7.71875 4.12305 7.64453 4.27148 7.5332 4.38281C7.42188 4.49414 7.27344 4.53125 7.125 4.53125C6.45703 4.53125 5.90039 4.79102 5.45508 5.23633C4.97266 5.71875 4.75 6.27539 4.75 6.90625ZM7.125 2.15625C6.23438 2.15625 5.45508 2.37891 4.71289 2.78711C3.9707 3.23242 3.41406 3.78906 3.00586 4.53125C2.56055 5.27344 2.375 6.05273 2.375 6.90625C2.375 7.64844 2.44922 8.24219 2.67188 8.6875C2.7832 8.98438 3.04297 9.35547 3.45117 9.80078C3.82227 10.2461 4.11914 10.6543 4.3418 10.9512C4.71289 11.5078 5.04688 12.1387 5.38086 12.8438H8.86914C9.16602 12.1387 9.53711 11.5078 9.9082 10.9512C10.0938 10.6543 10.3906 10.2461 10.7988 9.80078C11.1699 9.35547 11.4297 8.98438 11.5781 8.6875C11.7637 8.24219 11.875 7.64844 11.875 6.90625C11.875 6.05273 11.6523 5.27344 11.2441 4.53125C10.7988 3.78906 10.2422 3.23242 9.5 2.78711C8.75781 2.37891 7.97852 2.15625 7.125 2.15625ZM7.125 0.375C8.3125 0.375 9.38867 0.671875 10.3906 1.26562C11.3926 1.85938 12.1719 2.63867 12.7656 3.64062C13.3594 4.64258 13.6562 5.71875 13.6562 6.90625C13.6562 7.9082 13.5078 8.72461 13.248 9.35547C13.0254 9.76367 12.6914 10.2832 12.1719 10.9141C11.7637 11.4336 11.4668 11.8418 11.2441 12.1758C10.873 12.7695 10.5391 13.4004 10.2793 14.0684C10.2051 14.2539 10.1309 14.4023 9.98242 14.4766C9.83398 14.5879 9.64844 14.625 9.46289 14.625H4.78711C4.56445 14.625 4.41602 14.5879 4.26758 14.4766C4.11914 14.4023 4.00781 14.2539 3.9707 14.0684C3.67383 13.4004 3.37695 12.7695 3.00586 12.1758C2.7832 11.8418 2.44922 11.4336 2.07812 10.9141C1.55859 10.2832 1.1875 9.76367 1.00195 9.35547C0.705078 8.72461 0.59375 7.9082 0.59375 6.90625C0.59375 5.71875 0.853516 4.64258 1.44727 3.64062C2.04102 2.63867 2.82031 1.85938 3.82227 1.26562C4.82422 0.671875 5.9375 0.375 7.125 0.375Z" fill="#ef4136"/>
</svg>
