<svg xmlns="http://www.w3.org/2000/svg" xmlns:xlink="http://www.w3.org/1999/xlink" width="100" height="100" viewBox="0 0 100 100"><g><g transform="translate(50 50) scale(0.69 0.69) rotate(0) translate(-50 -50)" style="fill:#ef4136;"><svg fill="#ef4136" xmlns="http://www.w3.org/2000/svg" xmlns:xlink="http://www.w3.org/1999/xlink" version="1.1" x="0px" y="0px" viewBox="0 0 32 32" enable-background="new 0 0 32 32" xml:space="preserve"><g><g><path fill="#ef4136" d="M16,31.2c-3.4,0-6.6-0.6-9.5-1.7l-0.3-0.1l-0.1-0.3c-0.7-1.6-1-3.4-1-5.2c0-5.5,3.3-10.4,8-11.9l0.4-0.1    l0.3,0.3c0.5,0.5,1.2,1.1,2.2,1.1c0.9,0,1.7-0.6,2.2-1.1l0.3-0.3l0.4,0.1c4.7,1.5,8,6.4,8,11.9c0,1.8-0.3,3.5-1,5.2l-0.1,0.3    l-0.3,0.1C22.6,30.7,19.4,31.2,16,31.2z M7.4,28.3c2.6,0.9,5.6,1.4,8.6,1.4c3.1,0,6-0.5,8.6-1.4c0.5-1.4,0.8-2.8,0.8-4.3    c0-4.7-2.7-8.9-6.5-10.3c-1.8,1.5-4,1.5-5.7,0C9.3,15.1,6.6,19.3,6.6,24C6.6,25.5,6.9,26.9,7.4,28.3z"></path></g><g><path fill="#ef4136" d="M16,14.9c-1.1,0-2.2-0.5-3.2-1.5c-1.6-1.6-2.6-4.2-2.6-6.7c0-3.6,2.3-6,5.8-6s5.8,2.4,5.8,6    c0,2.5-1,5.1-2.6,6.7C18.2,14.4,17.1,14.9,16,14.9z M16,2.2c-2.1,0-4.3,1.2-4.3,4.5c0,2,0.9,4.3,2.2,5.6c0.5,0.5,1.2,1.1,2.2,1.1    c0.9,0,1.7-0.6,2.2-1.1c1.3-1.3,2.2-3.5,2.2-5.6C20.3,3.4,18.1,2.2,16,2.2z"></path></g><g><rect x="15.3" y="17.1" fill="#ef4136" width="1.5" height="1.7"></rect></g><g><rect x="15.3" y="20.8" fill="#ef4136" width="1.5" height="1.7"></rect></g><g><rect x="15.3" y="24.6" fill="#ef4136" width="1.5" height="1.7"></rect></g></g></svg></g></g></svg>