<svg width="205" height="205" xmlns="http://www.w3.org/2000/svg" xmlns:xlink="http://www.w3.org/1999/xlink"><defs><circle id="a" cx="102.5" cy="102.5" r="102.5"/></defs><g fill="none" fill-rule="evenodd"><mask id="b" fill="#fff"><use xlink:href="#a"/></mask><use fill="#FFF" xlink:href="#a"/><g mask="url(#b)" fill-rule="nonzero"><path fill="#05365B" d="M-1 6v98.667L13.584 114 58 43.667z"/><path fill="#008C61" d="M205 7.667V6l-59 37.667L190.416 114 205 104.667z"/><path d="M167.837 127.994c12.668-7.998 16.002-25.326 7.334-38.655l-10.667-16.662c-8.668-13.33-25.67-17.662-38.338-9.664L88.163 87.006c-12.668 7.998-16.002 25.326-7.334 38.655l10.667 16.662c8.668 13.33 25.67 17.662 38.338 9.664l38.003-23.993z" fill="#E29D81"/><path d="M162.409 131.735c4.656-3.021 5.986-9.4 2.993-14.1-2.993-4.7-9.313-6.043-13.969-3.022l-69.842 44.652c-4.656 3.021-5.986 9.4-2.993 14.1 2.993 4.7 9.313 6.043 13.969 3.022l69.842-44.652z" fill="#E29D81"/><path d="M81 125.78l10.65 16.596c8.652 13.278 25.624 17.594 38.27 9.627l37.938-23.9c12.646-7.967 15.974-25.228 7.322-38.506L164.53 73" fill="#D3856A"/><path d="M119.409 114.639c4.656-3.006 5.986-9.352 2.993-14.028s-9.313-6.012-13.969-3.006l-69.842 44.756c-4.656 3.006-5.986 9.352-2.993 14.028s9.313 6.012 13.969 3.006l69.842-44.756z" fill="#E29D81"/><path d="M133.409 128.639c4.656-3.006 5.986-9.352 2.993-14.028s-9.313-6.012-13.969-3.006l-69.842 44.756c-4.656 3.006-5.986 9.352-2.993 14.028s9.313 6.012 13.969 3.006l69.842-44.756zm-15-37c4.656-3.006 5.986-9.352 2.993-14.028s-9.313-6.012-13.969-3.006l-69.842 44.756c-4.656 3.006-5.986 9.352-2.993 14.028s9.313 6.012 13.969 3.006l69.842-44.756z" fill="#E29D81"/><path d="M133 60s-39.084 5.61-42.396 6.6c-2.98.989-12.255 23.426-1.656 26.066 10.93 2.64 28.154-11.219 28.154-11.219L133 60z" fill="#E29D81"/><path fill="#FFF" d="M142.62 53.841l10.127-6.439 38.633 60.758-10.126 6.439z"/><path fill="#DFE2E5" d="M153.422 48L143 54.634 182 115"/><path fill="#006D49" d="M205 6l-59 37.667L190.416 114"/><path d="M166.068 142.284l-6.33-4.012c3.665.334 7.663-1.338 9.661-4.682 2.998-4.681 1.666-11.035-2.998-14.045l-46.636-29.76c3.332-7.023-3.33-22.071-5.662-23.074-2.999-1.003-38.975-6.02-42.306-6.688-11.326-3.344-24.317 1.672-31.312 12.707l-10.66 16.72c-8.66 13.376-5.33 30.764 7.329 38.79l2.998 2.006c.333.335.999 1.003 1.665 1.338l69.954 44.809c4.663 3.01 10.992 1.672 13.99-3.01 1.666-2.675 2-5.684 1-8.36l13.324 8.695c4.664 3.01 10.993 1.672 13.991-3.01 2.332-3.344 1.999-7.69 0-10.7l.666.334c4.664 3.01 10.993 1.672 13.991-3.01 3.664-5.684 2.332-12.038-2.665-15.048z" fill="#F9BDA0"/><path d="M115.085 172.288c-2.057-1.368-2.743-3.762-1.371-5.814l1.371-2.394c1.372-2.052 3.772-2.736 5.83-1.368 2.057 1.368 2.743 3.762 1.371 5.814l-1.371 2.394c-1.029 2.052-3.772 2.736-5.83 1.368zm43-16c-2.057-1.368-2.743-3.762-1.371-5.814l1.371-2.394c1.372-2.052 3.772-2.736 5.83-1.368 2.057 1.368 2.743 3.762 1.371 5.814l-1.371 2.394c-1.029 2.052-3.772 2.736-5.83 1.368zm-14 13c-2.057-1.368-2.743-3.762-1.371-5.814l1.371-2.394c1.372-2.052 3.772-2.736 5.83-1.368 2.057 1.368 2.743 3.762 1.371 5.814l-1.371 2.394c-1.372 2.052-3.772 2.736-5.83 1.368zm15-35.856c-2.057-1.387-2.743-3.815-1.371-5.896l1.371-2.427c1.372-2.08 3.772-2.774 5.83-1.387 2.057 1.387 2.743 3.814 1.371 5.895l-1.028 2.428c-1.372 2.08-4.115 2.427-6.173 1.387z" fill="#FFE4C7"/><path fill="#FFF" d="M22.75 114.599l-10.127-6.439L51.25 47.4l10.127 6.438z"/><path fill="#DFE2E5" d="M51.578 48L62 54.634 23 115"/><path fill="#00263D" d="M-1 6l59 37.667L13.584 114"/><path d="M21.998 70.78c-1.926 3.435-6.1 4.122-8.988 2.06-3.21-2.06-3.853-6.527-1.927-9.62 1.927-3.435 6.1-4.122 8.989-2.06 2.889 2.06 3.852 6.527 1.926 9.62z" fill="#FFC114"/><path d="M166.65 118.696L119.806 89.19c3.346-6.962-3.346-21.88-5.688-22.875-1.339-.663-10.707-1.989-20.41-3.315L83 96.152 171 124c-.67-1.99-2.008-3.978-4.35-5.304z" fill="#E8AB92"/><path d="M122.185 69.325c2.986 5.016 4.313 18.058.332 20.4l-33.506 7.357c-3.981 2.34-9.29 0-12.275-4.682-2.986-5.017-1.99-10.702 1.99-13.043l23.886-14.045c3.981-2.341 16.256-1.672 19.242 3.01l.331 1.003z" fill="#E29D81"/></g></g></svg>