<svg width="115" height="101" fill="none" xmlns="http://www.w3.org/2000/svg"><path fill-rule="evenodd" clip-rule="evenodd" d="M60.708 58.698c-.16.074-.317.148-.474.225-.458.226-.956.391-1.429.585-.488.201-1.01.338-1.511.505.299-.1.599-.2.898-.298l-1.596.424c-.192.05-.386.095-.582.135-.073-.196-.145-.39-.214-.588-.273-1.004-.5-2.003-.607-3.034.006-.486.052-.963.131-1.441.126-.512.282-1.011.482-1.499a12.04 12.04 0 0 1 1.096-1.586 15.15 15.15 0 0 1 2.111-1.863 14.967 14.967 0 0 1 2.476-1.202c.71-.2 1.428-.339 2.159-.413a11.17 11.17 0 0 1 1.553.098c.321.089.636.197.946.324.16.097.315.202.466.312.178.183.345.373.503.572.065.12.125.242.18.368.087.344.158.692.206 1.043a7.519 7.519 0 0 1-.055.724c-.112.405-.252.8-.417 1.187a12.961 12.961 0 0 1-1.27 1.822 16.597 16.597 0 0 1-2.322 2.054l-.064.042-.098.067a7.024 7.024 0 0 0-.367.235l-1.278.738c-.297.172-.611.318-.923.464zm1.782-.915l-.218.146-.036.023.263-.174-.01.005zm36.68 5.748c.609-.495 1.153-1.076 1.702-1.632.617-.627 1.187-1.301 1.755-1.973a48.29 48.29 0 0 0 1.657-2.114c.561-.745 1.049-1.527 1.53-2.324.455-.754.837-1.566 1.201-2.367.291-.647.58-1.29.829-1.956.216-.574.344-1.179.451-1.783.086-.49.063-1 .037-1.496-.018-.356-.065-.65-.312-.93a1.264 1.264 0 0 0-.85-.423c-.631-.048-1.377.475-1.355 1.164.016.476.008.949-.064 1.422-.29 1.2-.845 2.301-1.387 3.404-.518.918-1.023 1.846-1.65 2.695a57.149 57.149 0 0 1-2.15 2.724c-.952 1.065-1.931 2.091-3.005 3.04-1.081.954-2.283 1.767-3.478 2.572a78.647 78.647 0 0 1-5.697 3.348c-.91.482-1.845.934-2.794 1.341-.917.392-1.85.727-2.791 1.048-1.576.473-3.157.904-4.775 1.214a40.564 40.564 0 0 1-4.591.616 29.67 29.67 0 0 1-2.837-.06 38.11 38.11 0 0 1-3.029-.35l-.605-.133c-.387-.084-.768-.222-1.149-.332-.64-.185-1.255-.462-1.864-.733a32.094 32.094 0 0 1-1.521-.868c-.54-.328-1.035-.742-1.523-1.145a17.87 17.87 0 0 1-.983-.999c.272-.088.543-.18.813-.27.404-.136.824-.251 1.22-.414l1.306-.54c.386-.158.756-.37 1.131-.556a20.357 20.357 0 0 0 2.118-1.24h.002a3.5 3.5 0 0 0 .647-.41c.128-.072.252-.15.37-.238a3.63 3.63 0 0 0 .488-.357l.07-.047c.885-.59 1.673-1.358 2.39-2.137.867-.94 1.692-1.92 2.345-3.023.386-.649.708-1.347.994-2.047.294-.722.458-1.514.593-2.277.21-1.185.137-2.422-.105-3.599a13.081 13.081 0 0 0-.652-2.114c-.103-.263-.26-.507-.408-.746-.299-.482-.62-.957-.979-1.397-.44-.543-1.008-.99-1.537-1.436-.547-.465-1.224-.787-1.87-1.081-1.175-.536-2.449-.818-3.733-.932-.742-.066-1.49-.011-2.23.032-.543.031-1.076.095-1.609.192a11.84 11.84 0 0 0-1.532.405c-.811.262-1.6.537-2.375.891-1.172.537-2.27 1.262-3.295 2.037-1.051.797-1.916 1.76-2.776 2.755-.341.397-.648.82-.94 1.253-.407.602-.71 1.264-1.026 1.917-.205.424-.345.872-.47 1.324-.212.76-.36 1.541-.485 2.32a8.054 8.054 0 0 0-.085 1.457c.01.604.037 1.23.136 1.83.064.39.114.784.207 1.168.14.575.297 1.145.474 1.709a77.044 77.044 0 0 1-3.019-.11c-1.05-.052-2.101-.205-3.141-.356a54.488 54.488 0 0 1-2.555-.448 93.612 93.612 0 0 1-2.82-.685c-1.157-.304-2.306-.63-3.455-.962a32.985 32.985 0 0 1-2.919-.997c-.456-.178-.918-.344-1.364-.55l-1.47-.678c-2.149-1.112-4.274-2.28-6.3-3.607-.356-.233-.71-.47-1.064-.708.37.015.74.029 1.11.03.292 0 .582-.004.873-.012.335-.01.658-.035.988-.066.306-.064.605-.154.897-.272.302-.16.598-.333.844-.571.604-.58.92-1.373.764-2.212a2.398 2.398 0 0 0-2.152-1.928c-.304-.026-.6-.079-.903-.096-.193-.01-.388-.014-.581-.022-.42-.015-.838-.035-1.256-.057-.801-.044-1.602-.082-2.401-.152-1.613-.139-3.208-.381-4.802-.664-1.01-.224-2.01-.49-2.976-.868a53.48 53.48 0 0 1-3.411-1.49c-.537-.28-1.073-.56-1.609-.842-.278-.146-.542-.324-.81-.487a33.534 33.534 0 0 1-1.072-.668 1.635 1.635 0 0 0-1.6-.097c-.244.118-.46.3-.62.542-.444.665-.302 1.535.26 2.063.039.072.084.14.145.201 2.238 2.224 4.257 4.664 6.094 7.229.236.368.465.738.685 1.12.262.453.477.937.7 1.412.465 1.003.86 2.043 1.282 3.065.395.957.83 1.899 1.204 2.864.181.462.343.929.504 1.396.079.226.161.454.294.656.167.251.299.521.524.721.281.317.622.544 1.021.684.05.025.097.045.15.064.902.335 2.053-.035 2.561-.865.126-.204.22-.427.325-.643.109-.223.118-.479.162-.722.061-.323-.005-.73-.066-1.069-.063-.349-.213-.685-.334-1.02-.067-.192-.15-.379-.23-.566a7.057 7.057 0 0 0-.342-.667c.664.447 1.339.88 2.022 1.295 1.35.82 2.708 1.635 4.114 2.357 1.728.888 3.46 1.771 5.27 2.481 3.104 1.215 6.358 2.027 9.6 2.775 3.293.761 6.676 1.229 10.057 1.246.862.004 1.715.003 2.575-.034a70.867 70.867 0 0 0 1.868-.106c.36.46.74.903 1.126 1.345a20.597 20.597 0 0 0 3.024 2.84c.728.555 1.532.994 2.331 1.436.53.291 1.1.524 1.649.775.337.152.707.287 1.06.4.941.3 1.878.561 2.85.747.782.15 1.57.32 2.365.372a47.99 47.99 0 0 0 4.975.053c1.718-.063 3.445-.382 5.113-.792a49.116 49.116 0 0 0 4.93-1.498c.754-.27 1.505-.548 2.246-.851.727-.297 1.467-.589 2.166-.95 2.965-1.53 5.81-3.29 8.56-5.175a60.102 60.102 0 0 0 4.036-3.005z" fill="#4A4A4A"/><path d="M60.708 58.698l.21.453h.002l-.212-.453zm-.474.225l-.22-.45-.001.001.221.449zm-1.429.585l-.19-.463.19.463zm-1.511.505l-.16-.474.318.948-.158-.474zm.898-.298l.157.475-.286-.958.128.483zm-1.596.424l.127.484h.002l-.13-.484zm-.582.135l-.468.175.15.4.419-.085-.1-.49zm-.214-.588l-.482.131.004.017.006.017.472-.165zm-.607-3.034l-.5-.006v.029l.003.028.497-.051zm.131-1.441l-.485-.12-.005.019-.003.02.493.08zm.482-1.499l-.434-.247-.016.028-.012.03.462.19zm1.096-1.586l-.364-.342-.013.014-.012.015.389.313zm2.111-1.863l-.259-.427-.018.01-.017.013.294.404zm2.476-1.202l-.136-.48-.02.005-.02.008.176.467zm2.159-.413l-.002-.5h-.024l-.024.003.05.497zm1.553.098l.133-.482-.032-.01-.034-.004-.067.496zm.946.324l.26-.428-.034-.02-.037-.015-.189.463zm.466.312l.359-.348-.03-.03-.033-.025-.296.403zm.503.572l.44-.237-.021-.039-.027-.034-.392.31zm.18.368l.485-.122-.01-.04-.017-.039-.458.2zm.206 1.043l.5.014.002-.041-.006-.041-.496.068zm-.055.724l.482.134.01-.036.005-.036-.497-.062zm-.417 1.187l.435.247.014-.025.011-.026-.46-.196zm-1.27 1.822l.366.342.01-.012.011-.012-.386-.318zm-2.322 2.054l.276.417.01-.006.01-.007-.296-.404zm-.064.042l-.275-.417-.005.004.28.413zm-.098.067l.254.43.014-.007.013-.01-.28-.413zm-.367.235l.25.433.015-.008.015-.01-.28-.415zm-1.278.738l-.25-.433.25.433zm.858-.45l-.219-.45-.031.015-.03.02.28.414zm-.216.145l-.28-.415-.006.004.285.41zm-.037.023l-.285-.41.563.826-.278-.416zm.263-.174l.279.415-.498-.865.219.45zm38.373 4.12l.356.352-.356-.351zm1.755-1.972l-.382-.323.382.323zm1.657-2.114l-.4-.301.4.301zm1.53-2.324l.428.258-.428-.258zm1.201-2.367l.455.207.001-.001-.456-.206zm.829-1.956l-.468-.176-.001.002.469.174zm.451-1.783l.492.087-.492-.087zm.037-1.496l.5-.026-.5.026zm-.312-.93l-.375.33.375-.33zm-.85-.423l-.038.499.038-.499zm-1.355 1.164l-.5.016.5-.016zm-.064 1.422l.486.117.005-.02.003-.022-.494-.075zm-1.387 3.404l.435.246.007-.013.007-.013-.449-.22zm-1.65 2.695l-.403-.297.403.297zm-2.15 2.724l.373.334.006-.007.005-.006-.384-.32zm-3.005 3.04l-.33-.376h-.001l.331.375zm-3.478 2.572l.27.421.01-.006-.28-.415zm-5.697 3.348l-.234-.442.234.442zm-2.794 1.341l.196.46h.001l-.197-.46zm-2.791 1.048l.144.478.008-.002.009-.003-.161-.473zm-4.775 1.214l-.094-.49.094.49zm-4.591.616l.01.5h.014l.014-.001-.038-.499zm-2.837-.06l-.038.499.038-.499zm-3.029-.35l-.106.489.014.003.015.002.077-.494zm-.605-.133l-.107.489.107-.489zm-1.149-.332l.14-.48h-.001l-.139.48zm-1.864-.733l-.236.44.016.01.017.007.203-.457zm-1.521-.868l-.26.427.26-.427zM60.905 67.5l-.342.365.012.01.012.01.318-.385zm-.983-.999l-.154-.475-.738.24.523.572.37-.337zm.813-.27l-.16-.474.16.474zm1.22-.414l-.19-.463h-.001l.19.463zm1.306-.54l-.19-.462.19.463zm1.131-.556l-.221-.448h-.001l.222.448zm2.118-1.24l-.22-.449-.028.014-.026.017.274.419zm.65-.41l-.247-.435-.034.02-.031.024.311.391zm.369-.238l-.26-.427-.02.012-.017.013.297.402zm.488-.357l-.287-.41-.02.015-.02.017.327.378zm.07-.047l-.278-.417-.01.007.287.41zm2.39-2.137l.369.339-.368-.34zm2.345-3.023l-.43-.255.43.255zm.994-2.047l-.463-.19.463.19zm.593-2.277l-.493-.087.493.087zm-.105-3.599l-.49.1v.001l.49-.1zm-.652-2.114l.466-.182v-.002l-.466.184zm-.408-.746l-.424.264.424-.264zm-.979-1.397l-.388.315.388-.316zm-1.537-1.436l-.323.38v.001l.323-.381zm-1.87-1.081l-.208.455.207-.455zm-3.733-.932l-.044.498.044-.498zm-2.23.032l-.03-.5.03.5zm-1.609.192l.089.492h.001l-.09-.492zm-1.532.405l-.154-.476.154.476zm-2.375.891l-.208-.455.208.455zm-3.295 2.037l-.301-.398.301.398zm-2.776 2.755l-.378-.327.378.327zm-.94 1.253l-.415-.28.414.28zm-1.026 1.917l.45.218-.45-.218zm-.47 1.324l-.482-.134.481.134zm-.485 2.32l.494.082v-.002l-.494-.08zm-.085 1.457l.5-.009-.5.009zm.136 1.83l.493-.081v-.001l-.493.082zm.207 1.168l-.486.117v.001l.486-.118zm.474 1.709l-.006.5.69.008-.207-.657-.477.149zm-3.019-.11l.026-.5-.026.5zm-3.141-.356l.071-.495-.071.495zm-2.555-.448l-.112.487.008.002.01.001.094-.49zm-2.82-.685l.128-.483-.128.483zm-3.455-.962l.139-.48-.14.48zm-2.919-.997l.183-.465-.183.465zm-1.364-.55l-.21.454.21-.454zm-1.47-.678l-.229.445.01.005.01.005.21-.455zm-6.3-3.607l-.274.419.274-.419zm-1.064-.708l.021-.5-1.767-.074 1.467.989.28-.415zm1.11.03l-.002.5h.001v-.5zm.873-.012l.014.5-.014-.5zm.988-.066l.047.498.027-.003.027-.006-.1-.49zm.897-.272l.187.464.025-.01.023-.013-.235-.44zm.844-.571l-.346-.361-.001.001.347.36zm.764-2.212l.491-.092-.491.092zm-2.152-1.928l.041-.498-.041.498zm-.903-.096l.029-.5h-.002l-.027.5zm-.581-.022l.02-.5h-.002l-.018.5zm-1.256-.057l-.028.5.027-.5zm-2.401-.152l.043-.498-.043.498zm-4.802-.664l-.108.488.01.002.01.002.088-.492zm-2.976-.868l.182-.465-.182.465zm-3.411-1.49l-.232.444.01.004.008.005.214-.452zm-1.609-.842l-.232.443.232-.443zm-.81-.487l.26-.427-.002-.001-.257.428zm-1.072-.668l.274-.419h-.001l-.273.419zm-2.22.445l.416.277v-.001l-.416-.276zm.26 2.063l.44-.237-.039-.072-.06-.056-.341.365zm.145.201l-.355.353.002.002.353-.355zm6.094 7.229l.421-.27-.007-.011-.007-.01-.407.29zm.685 1.12l.433-.25v-.001l-.433.25zm.7 1.412l.453-.21v-.002l-.454.212zm1.282 3.065l.463-.19v-.001l-.463.19zm1.204 2.864l-.466.181v.002l.466-.183zm.504 1.396l-.472.164.472-.164zm.294.656l-.417.275v.002l.417-.277zm.524.721l.374-.332-.02-.022-.022-.02-.332.374zm1.021.684l.221-.449-.027-.013-.028-.01-.166.472zm.15.064l.174-.469-.005-.002-.17.47zm2.561-.865l-.426-.262v.001l.426.261zm.325-.643l-.45-.22v.002l.45.218zm.162-.722l-.49-.093-.001.002.491.09zm-.066-1.069l.493-.088-.493.088zm-.334-1.02l-.471.167v.002l.471-.169zm-.23-.566l.46-.197-.002-.002-.458.199zm-.342-.667l.28-.415-.715.661.435-.246zm2.022 1.295l-.26.427.26-.427zm4.114 2.357l.229-.444-.229.444zm5.27 2.481l-.183.465.183-.465zm9.6 2.775l.113-.487-.113.487zm10.057 1.246l-.002.5.002-.5zm2.575-.034l.021.5-.021-.5zm1.868-.106l.394-.308-.164-.21-.265.02.035.498zm1.126 1.345l.377-.329-.377.329zm3.024 2.84l.303-.398-.303.398zm2.331 1.436l-.242.437h.001l.241-.437zm1.649.775l-.208.454.002.001.206-.455zm1.06.4l.152-.477-.152.477zm2.85.747l.094-.49v-.001l-.094.491zm2.365.372l.034-.5-.034.5zm4.975.053l-.018-.5.018.5zm5.113-.792l-.12-.486.12.486zm4.93-1.498l-.168-.47.169.47zm2.246-.851l-.189-.463.19.463zm2.166-.95l.23.444-.23-.444zm8.56-5.175l-.282-.412.282.412zm-34.637-8.292c-.162.075-.322.151-.483.23l.438.898c.153-.075.308-.148.466-.22l-.421-.908zm-.485.23c-.44.217-.88.359-1.398.571l.38.926c.427-.175.984-.365 1.46-.6l-.442-.897zm-1.398.572c-.47.193-.934.31-1.48.492l.317.949c.456-.152 1.036-.308 1.544-.517l-.382-.924zm-1.162 1.44c.298-.1.595-.197.896-.296l-.315-.95-.9.298.319.949zm.61-1.254c-.53.14-1.064.281-1.597.424l.259.966 1.595-.424-.257-.966zm-1.595.424c-.18.047-.365.09-.554.128l.2.98a11.3 11.3 0 0 0 .609-.141l-.255-.967zm.015.443a29.2 29.2 0 0 1-.211-.579l-.944.331c.071.202.144.401.218.598l.937-.35zm-.2-.544c-.27-.993-.49-1.962-.592-2.955l-.995.103c.11 1.07.345 2.098.622 3.114l.965-.262zm-.59-2.898c.005-.457.05-.908.125-1.365l-.987-.163a9.956 9.956 0 0 0-.138 1.517l1 .011zm.117-1.327c.12-.492.27-.967.459-1.428l-.925-.38a11.08 11.08 0 0 0-.505 1.57l.97.238zm.43-1.37c.303-.53.659-1.033 1.051-1.52l-.778-.627a12.54 12.54 0 0 0-1.141 1.652l.868.495zm1.026-1.49a14.656 14.656 0 0 1 2.042-1.803l-.59-.808a15.652 15.652 0 0 0-2.18 1.925l.728.685zm2.007-1.78c.759-.46 1.56-.846 2.393-1.16l-.353-.936c-.889.335-1.745.748-2.559 1.242l.519.855zm2.353-1.148a12.029 12.029 0 0 1 2.072-.396l-.1-.995c-.762.077-1.509.221-2.245.43l.273.961zm2.024-.394c.5-.002.993.026 1.483.093l.135-.99a11.673 11.673 0 0 0-1.622-.103l.004 1zm1.417.08c.302.083.598.185.891.305l.378-.926a9.037 9.037 0 0 0-1.002-.343l-.267.963zm.82.27c.147.088.29.184.43.288l.592-.807a6.917 6.917 0 0 0-.503-.337l-.518.855zm.368.233c.166.171.322.348.468.533l.785-.62a7.932 7.932 0 0 0-.536-.61l-.717.697zm.42.46c.06.111.115.22.163.332l.916-.402a5.62 5.62 0 0 0-.198-.404l-.88.474zm.136.253c.083.33.15.66.196.99l.99-.137a10.22 10.22 0 0 0-.216-1.097l-.97.244zm.192.907a7.064 7.064 0 0 1-.052.676l.993.124c.032-.257.051-.513.058-.772l-1-.028zm-.037.605a9.033 9.033 0 0 1-.396 1.125l.92.391c.173-.407.32-.821.44-1.25l-.964-.266zm-.37 1.074a12.46 12.46 0 0 1-1.222 1.751l.773.635c.485-.591.933-1.214 1.318-1.893l-.87-.493zm-1.2 1.727a16.099 16.099 0 0 1-2.253 1.992l.59.807a17.115 17.115 0 0 0 2.393-2.116l-.73-.683zm-2.233 1.978l-.032.021-.032.021.55.835.033-.021.032-.022-.551-.834zm-.07.046l-.048.032-.05.034.562.828.048-.033.05-.034-.561-.827zm-.07.049c-.137.08-.268.167-.394.252l.56.829c.124-.084.233-.156.34-.22l-.506-.861zm-.364.233l-1.278.738.5.866 1.278-.738-.5-.866zm-1.279.738c-.274.16-.567.296-.884.444l.424.906c.307-.144.643-.3.961-.484l-.5-.866zm.83-.432l-.106.07-.111.075.56.829a21.443 21.443 0 0 1 .216-.145l-.56-.829zm-.223.149c.004-.002.005-.004-.002.001l-.034.023.57.821c-.003.002-.005.004.003-.001l.033-.023-.57-.821zm.527.85l.264-.175-.558-.83-.262.174.556.831zm-.234-1.04a.53.53 0 0 0-.068.04l-.002.001a.377.377 0 0 1 .06-.035l.439.899a.538.538 0 0 0 .07-.042h0l-.01.007a.484.484 0 0 1-.05.029l-.44-.899zm37.207 6.591c.635-.518 1.205-1.126 1.741-1.67l-.712-.701c-.562.57-1.08 1.122-1.661 1.596l.632.775zm1.741-1.67c.633-.642 1.215-1.33 1.78-2l-.763-.646c-.57.674-1.128 1.334-1.729 1.945l.712.701zm1.78-2a47.673 47.673 0 0 0 1.675-2.136l-.799-.602c-.54.717-1.071 1.42-1.639 2.092l.763.646zm1.675-2.136c.578-.767 1.077-1.568 1.559-2.367l-.856-.517c-.48.795-.957 1.559-1.502 2.282l.799.602zm1.559-2.367c.471-.781.864-1.615 1.228-2.418l-.911-.413c-.362.799-.735 1.587-1.173 2.315l.856.516zm1.229-2.42c.29-.645.586-1.302.841-1.986l-.937-.35c-.241.648-.524 1.276-.816 1.926l.912.41zm.84-1.984c.234-.62.368-1.261.476-1.873l-.985-.174c-.105.596-.226 1.164-.426 1.694l.935.353zm.476-1.873c.098-.556.07-1.12.045-1.61l-.999.053c.026.503.044.957-.031 1.383l.985.174zm.045-1.61c-.021-.385-.074-.823-.437-1.234l-.75.662c.132.149.171.298.188.625l.999-.053zm-.436-1.233a1.765 1.765 0 0 0-1.189-.591l-.075.997a.767.767 0 0 1 .513.254l.751-.66zm-1.189-.591a1.86 1.86 0 0 0-1.273.414c-.351.282-.636.724-.619 1.264l1-.032c-.005-.149.072-.313.245-.452a.863.863 0 0 1 .572-.197l.075-.997zm-1.892 1.679c.016.46.007.9-.058 1.33l.988.15a8.178 8.178 0 0 0 .07-1.514l-1 .034zm-.05 1.287c-.275 1.137-.802 2.185-1.35 3.302l.898.44c.535-1.09 1.118-2.242 1.424-3.507l-.972-.235zm-1.336 3.276c-.525.93-1.013 1.825-1.618 2.644l.805.594c.65-.88 1.172-1.84 1.683-2.746l-.87-.492zm-1.618 2.645a56.83 56.83 0 0 1-2.13 2.7l.767.64a56.853 56.853 0 0 0 2.168-2.748l-.805-.592zm-2.119 2.687c-.946 1.058-1.91 2.068-2.964 2.997l.662.75c1.094-.966 2.088-2.008 3.047-3.08l-.745-.667zm-2.964 2.997c-1.053.93-2.228 1.726-3.427 2.534l.56.829c1.19-.803 2.42-1.633 3.53-2.613l-.663-.75zm-3.417 2.527a78.13 78.13 0 0 1-5.66 3.327l.467.884a79.109 79.109 0 0 0 5.733-3.369l-.54-.842zm-5.66 3.327c-.9.476-1.823.922-2.758 1.324l.394.918c.962-.413 1.91-.87 2.831-1.358l-.468-.884zm-2.758 1.323c-.9.385-1.818.715-2.755 1.034l.322.947a39.675 39.675 0 0 0 2.826-1.061l-.393-.92zm-2.738 1.029c-1.568.47-3.132.896-4.725 1.202l.189.982c1.64-.315 3.24-.75 4.824-1.227l-.288-.957zm-4.725 1.202c-1.503.29-3.01.492-4.535.609l.076.997a41.084 41.084 0 0 0 4.648-.624l-.19-.982zm-4.507.607c-.94.019-1.865.012-2.789-.058l-.076.997c.969.073 1.929.08 2.885.061l-.02-1zm-2.789-.058a37.718 37.718 0 0 1-2.99-.346l-.154.988c1.02.16 2.038.276 3.068.355l.076-.997zm-2.96-.34l-.302-.067-.304-.066-.213.977a139.166 139.166 0 0 1 .606.133l.213-.978zm-.606-.133c-.367-.08-.69-.201-1.116-.324l-.278.96c.336.098.775.252 1.181.34l.213-.976zm-1.116-.325c-.6-.173-1.183-.434-1.8-.709l-.406.914c.602.267 1.25.56 1.928.756l.278-.96zm-1.767-.693a31.486 31.486 0 0 1-1.498-.854l-.519.855c.511.31 1.022.6 1.545.88l.472-.88zm-1.497-.854c-.503-.306-.97-.695-1.465-1.103l-.636.77c.48.398 1.005.836 1.58 1.187l.521-.854zm-1.441-1.083c-.331-.31-.648-.634-.955-.97l-.739.673c.322.354.658.697 1.01 1.027l.684-.73zm-1.17-.158c.275-.09.548-.181.818-.273l-.32-.947c-.27.091-.539.182-.807.269l.309.951zm.817-.272c.367-.124.837-.255 1.251-.426l-.381-.925c-.376.156-.746.254-1.188.403l.318.948zm1.25-.426a664.827 664.827 0 0 0 1.307-.539l-.38-.925-.654.27-.653.27.38.924zm1.307-.539c.407-.167.825-.402 1.164-.571l-.445-.896c-.41.205-.734.392-1.1.542l.381.925zm1.163-.57c.76-.376 1.478-.817 2.17-1.27l-.548-.837c-.677.444-1.358.86-2.065 1.21l.443.896zm2.115-1.239h.001l.002-.001-.439-.9-.001.002h-.002l.439.9zm.003-.001c.265-.13.511-.287.739-.467l-.623-.783a2.999 2.999 0 0 1-.555.35l.439.9zm.673-.423c.144-.081.285-.171.421-.271l-.594-.805a3.093 3.093 0 0 1-.319.205l.492.87zm.384-.247c.198-.12.383-.257.555-.406l-.654-.756a3.142 3.142 0 0 1-.421.308l.52.854zm.516-.375a2.86 2.86 0 0 1 .069-.047l-.575-.819-.027.019-.042.029.575.818zm.059-.04c.934-.623 1.754-1.424 2.482-2.214l-.736-.678c-.708.769-1.465 1.502-2.3 2.06l.554.831zm2.482-2.214c.874-.95 1.727-1.96 2.406-3.107l-.86-.51c-.626 1.057-1.424 2.008-2.282 2.94l.736.677zm2.406-3.106c.403-.678.736-1.401 1.027-2.114l-.926-.378a14.95 14.95 0 0 1-.96 1.981l.86.51zm1.027-2.114c.316-.775.487-1.612.622-2.379l-.985-.174c-.134.76-.29 1.506-.563 2.175l.926.378zm.622-2.379c.224-1.262.144-2.564-.108-3.786l-.979.201c.233 1.131.299 2.302.102 3.411l.985.175zm-.107-3.786c-.156-.76-.404-1.499-.676-2.196l-.931.364c.26.668.487 1.35.627 2.033l.98-.2zm-.677-2.198c-.123-.314-.307-.6-.448-.826l-.85.528c.157.251.285.453.368.665l.93-.367zm-.448-.825c-.305-.493-.64-.988-1.016-1.45l-.776.631c.34.418.65.874.943 1.346l.85-.527zm-1.016-1.45c-.478-.589-1.096-1.074-1.601-1.502l-.647.763c.55.466 1.069.873 1.472 1.37l.776-.63zm-1.601-1.502c-.608-.515-1.346-.862-1.988-1.154l-.414.91c.651.297 1.267.593 1.755 1.007l.647-.763zm-1.987-1.154c-1.237-.565-2.57-.857-3.895-.975l-.089.996c1.242.11 2.458.382 3.569.889l.415-.91zm-3.895-.975c-.787-.07-1.58-.011-2.305.03l.058.999c.755-.044 1.461-.095 2.158-.033l.089-.996zm-2.305.03c-.562.033-1.116.1-1.669.2l.18.984a12.685 12.685 0 0 1 1.547-.185l-.058-.998zm-1.668.2c-.553.1-1.087.256-1.597.42l.308.952c.493-.16.978-.3 1.467-.388l-.178-.984zm-1.597.42c-.816.265-1.628.547-2.43.913l.417.91c.747-.342 1.515-.61 2.321-.87l-.308-.952zm-2.43.913c-1.217.559-2.347 1.306-3.387 2.094l.603.797c1.01-.763 2.075-1.465 3.201-1.981l-.416-.91zM53.783 44.8c-1.097.832-1.992 1.83-2.852 2.826l.757.654c.86-.995 1.694-1.921 2.7-2.683l-.605-.797zm-2.853 2.827c-.359.417-.678.858-.976 1.3l.829.56c.287-.426.581-.832.905-1.208l-.758-.652zm-.976 1.3c-.431.638-.753 1.34-1.061 1.978l.9.436c.324-.669.609-1.29.99-1.855l-.829-.56zm-1.06 1.978c-.227.466-.376.95-.503 1.408l.963.268c.124-.446.254-.858.439-1.24l-.9-.436zm-.503 1.408c-.219.786-.37 1.589-.496 2.375l.987.16c.124-.772.268-1.533.472-2.267l-.963-.268zm-.496 2.374a8.556 8.556 0 0 0-.092 1.546l1-.018a7.564 7.564 0 0 1 .079-1.366l-.987-.162zm-.092 1.545c.01.61.037 1.266.143 1.903l.986-.163c-.093-.562-.12-1.158-.13-1.757l-1 .017zm.142 1.902c.06.368.116.797.215 1.205l.972-.234c-.087-.36-.132-.718-.2-1.132l-.987.161zm.215 1.206c.143.585.303 1.165.483 1.74l.954-.298a26.985 26.985 0 0 1-.465-1.679l-.972.237zm.966 1.091a76.389 76.389 0 0 1-2.999-.11l-.05.999c1.008.051 2.017.099 3.037.111l.012-1zm-3-.11c-1.023-.05-2.05-.2-3.095-.35l-.143.99c1.036.15 2.11.306 3.189.359l.05-.999zm-3.095-.35c-.844-.123-1.68-.28-2.53-.445l-.19.981c.85.165 1.707.327 2.577.453l.143-.99zm-2.513-.442a92.977 92.977 0 0 1-2.805-.68l-.256.967c.946.25 1.894.47 2.836.688l.225-.975zm-2.806-.68c-1.15-.303-2.295-.628-3.444-.96l-.277.961c1.15.333 2.304.66 3.467.966l.254-.967zm-3.444-.96a32.47 32.47 0 0 1-2.874-.981l-.366.93c.97.381 1.958.722 2.963 1.012l.277-.96zm-2.875-.981c-.473-.186-.908-.341-1.336-.539l-.42.908c.465.214.954.39 1.392.562l.364-.931zm-1.336-.538l-1.47-.679-.418.909 1.468.677.42-.908zm-1.45-.669c-2.143-1.109-4.25-2.267-6.256-3.58l-.548.836c2.047 1.34 4.189 2.517 6.345 3.633l.46-.889zm-6.256-3.58a98.137 98.137 0 0 1-1.058-.706l-.56.83c.355.239.711.477 1.07.712l.548-.837zm-1.359.209c.37.015.75.029 1.13.03l.001-1c-.358-.001-.72-.014-1.089-.03l-.042 1zm1.13.03c.297 0 .591-.004.888-.012l-.028-1c-.286.008-.571.012-.86.012v1zm.888-.012c.351-.01.687-.037 1.02-.069l-.092-.995c-.327.03-.638.055-.956.064l.028 1zm1.075-.077c.336-.069.664-.168.983-.297l-.374-.928a4.716 4.716 0 0 1-.81.246l.201.98zm1.031-.32c.308-.163.657-.363.957-.653l-.695-.719c-.193.187-.436.332-.732.49l.47.883zm.956-.652c.706-.678 1.1-1.635.908-2.664l-.983.183c.12.65-.117 1.279-.618 1.76l.692.721zm.908-2.665a2.898 2.898 0 0 0-2.602-2.334l-.083.997c.839.07 1.547.698 1.702 1.522l.983-.185zM24.377 46.3c-.139-.011-.276-.03-.431-.048a7.26 7.26 0 0 0-.484-.048l-.057.998c.133.008.268.023.417.042.145.018.308.04.473.053l.082-.996zm-.917-.096c-.194-.01-.414-.015-.588-.022l-.04.999c.212.008.382.01.575.021l.053-.998zm-.59-.022a74.038 74.038 0 0 1-1.248-.057l-.053.998c.42.023.842.042 1.265.058l.037-1zm-1.247-.057c-.806-.044-1.596-.082-2.385-.151l-.087.996c.81.07 1.621.11 2.417.153l.055-.998zm-2.386-.151c-1.59-.137-3.17-.377-4.756-.658l-.175.984c1.601.284 3.213.53 4.846.67l.085-.996zm-4.736-.654c-.998-.222-1.97-.48-2.902-.845l-.364.93c.999.392 2.027.664 3.05.891l.216-.976zm-2.902-.846a53.045 53.045 0 0 1-3.38-1.475l-.427.904c1.13.534 2.27 1.044 3.443 1.503l.364-.931zm-3.361-1.466l-1.608-.842-.465.885 1.61.843.463-.886zm-1.608-.842c-.26-.137-.486-.292-.783-.472l-.519.855c.239.145.541.347.837.502l.465-.885zm-.785-.473c-.358-.215-.71-.432-1.056-.659l-.547.837c.36.236.723.46 1.089.679l.514-.857zm-1.057-.66a2.134 2.134 0 0 0-2.093-.127l.439.899c.344-.168.77-.153 1.11.067l.544-.839zm-2.093-.127a2.06 2.06 0 0 0-.817.715l.834.553a1.06 1.06 0 0 1 .422-.37l-.438-.898zm-.816.714c-.59.884-.393 2.024.334 2.706l.684-.73c-.398-.373-.484-.974-.186-1.42l-.832-.556zm.236 2.578c.053.1.126.212.23.317l.709-.706a.361.361 0 0 1-.059-.085l-.88.474zm.232.319c2.215 2.2 4.217 4.619 6.04 7.165l.814-.583c-1.851-2.583-3.888-5.045-6.149-7.291l-.705.709zm6.026 7.144c.233.363.458.727.673 1.1l.866-.501a28.948 28.948 0 0 0-.697-1.14l-.842.54zm.673 1.099c.248.43.451.887.679 1.374l.906-.423c-.216-.462-.443-.973-.719-1.45l-.866.499zm.679 1.373c.46.99.845 2.006 1.274 3.046l.924-.382c-.414-1.004-.82-2.07-1.291-3.085l-.907.422zm1.274 3.045c.408.99.825 1.888 1.2 2.855l.933-.362c-.375-.964-.828-1.95-1.208-2.874l-.925.381zm1.2 2.857c.177.45.336.908.498 1.377l.945-.327c-.161-.466-.326-.943-.511-1.415l-.931.365zm.498 1.377c.077.223.177.506.349.767l.835-.55c-.094-.143-.16-.315-.24-.544l-.944.327zm.35.769c.036.054.071.111.111.176.039.062.082.133.128.203.093.14.21.298.37.44l.663-.749a1.21 1.21 0 0 1-.199-.243 6.71 6.71 0 0 1-.11-.176c-.04-.063-.083-.134-.13-.205l-.833.554zm.566.776c.338.381.751.656 1.23.824l.33-.944a1.909 1.909 0 0 1-.812-.544l-.748.664zm1.174.8c.065.032.129.06.2.086l.34-.94a.89.89 0 0 1-.098-.043l-.442.898zm.196.084c1.117.416 2.524-.03 3.162-1.072l-.852-.522c-.378.617-1.273.913-1.961.657l-.349.937zm3.162-1.07c.143-.233.26-.503.348-.687l-.899-.437c-.12.248-.193.423-.3.599l.85.524zm.348-.686c.084-.173.124-.346.149-.487.012-.07.022-.14.03-.2.01-.063.017-.115.026-.164l-.983-.182a5.375 5.375 0 0 0-.032.204l-.026.17a.83.83 0 0 1-.063.22l.899.439zm.205-.85c.08-.428-.008-.93-.065-1.249l-.985.176c.064.357.108.672.067.888l.983.185zm-.066-1.25c-.073-.403-.253-.815-.355-1.1l-.941.338c.138.385.259.646.313.94l.983-.178zm-.354-1.097c-.075-.212-.166-.418-.243-.597l-.919.394c.084.195.158.363.219.536l.943-.333zm-.244-.6a7.545 7.545 0 0 0-.365-.714l-.87.493c.12.213.23.416.318.62l.917-.398zm-1.08-.053c.67.452 1.352.89 2.042 1.308l.52-.855c-.677-.41-1.345-.839-2.002-1.282l-.56.83zm2.042 1.308c1.35.82 2.722 1.644 4.146 2.375l.457-.89c-1.389-.712-2.733-1.52-4.084-2.34l-.519.855zm4.146 2.375c1.726.886 3.479 1.781 5.315 2.501l.366-.93c-1.783-.7-3.494-1.572-5.224-2.46l-.457.89zm5.316 2.502c3.14 1.23 6.425 2.048 9.67 2.796l.224-.974c-3.24-.747-6.463-1.553-9.53-2.754l-.364.932zm9.67 2.796c3.322.768 6.742 1.242 10.167 1.26l.005-1c-3.338-.018-6.683-.48-9.947-1.234l-.225.974zm10.167 1.26a54.42 54.42 0 0 0 2.598-.036l-.043-.999c-.847.037-1.69.038-2.55.034l-.005 1zm2.599-.036a72.16 72.16 0 0 0 1.881-.106l-.07-.998a70.36 70.36 0 0 1-1.855.105l.044 1zm1.452-.297c.369.472.757.923 1.143 1.365l.754-.657a32.177 32.177 0 0 1-1.11-1.324l-.787.616zm1.143 1.365a21.093 21.093 0 0 0 3.098 2.91l.606-.796a20.091 20.091 0 0 1-2.95-2.77l-.754.656zm3.098 2.91c.763.58 1.6 1.038 2.392 1.475l.484-.875c-.807-.445-1.576-.867-2.27-1.396l-.606.796zm2.393 1.476c.551.303 1.158.552 1.682.791l.415-.909c-.574-.263-1.107-.479-1.615-.758l-.482.876zm1.684.792c.36.163.748.305 1.114.421l.304-.953a9.481 9.481 0 0 1-1.007-.379l-.412.911zm1.114.421c.952.304 1.91.571 2.908.762l.188-.982a23.994 23.994 0 0 1-2.792-.733l-.304.953zm2.908.762c.765.147 1.592.325 2.427.38l.065-.998c-.756-.05-1.505-.21-2.303-.364l-.19.982zm2.426.38c1.682.112 3.351.114 5.026.053l-.036-1c-1.65.061-3.284.058-4.923-.051l-.067.997zm5.026.053c1.766-.064 3.53-.392 5.215-.806l-.24-.971c-1.65.406-3.34.717-5.011.778l.036 1zm5.214-.806a49.602 49.602 0 0 0 4.981-1.512l-.339-.941a48.627 48.627 0 0 1-4.88 1.482l.238.971zm4.98-1.512a54.62 54.62 0 0 0 2.267-.86l-.38-.925c-.73.3-1.473.574-2.224.844l.337.941zm2.266-.86c.718-.293 1.483-.594 2.207-.968l-.459-.888c-.675.348-1.39.63-2.126.93l.378.927zm2.207-.968c2.987-1.54 5.85-3.313 8.613-5.206l-.565-.825c-2.738 1.876-5.565 3.625-8.507 5.143l.459.888zm8.613-5.206a60.564 60.564 0 0 0 4.069-3.03l-.632-.775a59.548 59.548 0 0 1-4.002 2.98l.565.825z" fill="#fff"/></svg>