<svg fill="none" height="15" viewBox="0 0 16 15" width="16" xmlns="http://www.w3.org/2000/svg"><path d="m15.8263 12.2503-6.67252-11.593436c-.50043-.861863-1.80713-.889665-2.30756 0l-6.672491 11.593436c-.500437.8619.13901 1.974 1.167681 1.974h13.31719c1.0287 0 1.6681-1.0843 1.1677-1.974zm-7.8124-2.41877c.69505 0 1.27889.58387 1.27889 1.27887 0 .7229-.58384 1.2789-1.27889 1.2789-.72285 0-1.27889-.556-1.27889-1.2789 0-.695.55604-1.27887 1.27889-1.27887zm-1.22329-4.58733c-.0278-.19462.13901-.36143.33363-.36143h1.75152c.19462 0 .36143.16681.33363.36143l-.19462 3.78108c-.0278.19461-.16681.30582-.33362.30582h-1.3623c-.16681 0-.30582-.11121-.33362-.30582z" fill="#e04f44"/></svg>