<svg width="60" height="60" xmlns="http://www.w3.org/2000/svg"><g fill="none" fill-rule="evenodd"><path d="M59.411 29.8c0 16.457-13.3 29.798-29.705 29.798C13.3 59.598 0 46.257 0 29.8 0 13.342 13.3 0 29.706 0 46.11 0 59.41 13.34 59.41 29.797c0 11.396-9.207 20.632-20.565 20.632S18.28 41.193 18.28 29.8c0-11.394 9.208-20.63 20.566-20.63 11.357 0 20.564 9.235 20.565 20.628z" fill="#2296E1"/><path d="M38.846 50.43c11.358 0 20.565-9.237 20.565-20.63 0-11.395-9.207-20.631-20.565-20.631S18.28 18.405 18.28 29.799c0 11.394 9.208 20.63 20.566 20.63zm-9.14-9.17c6.31 0 11.425-5.131 11.425-11.46 0-6.33-5.115-11.462-11.425-11.462-6.31 0-11.426 5.131-11.426 11.461S23.396 41.26 29.706 41.26z" fill="#00D069"/></g></svg>