<svg width="17" height="10" viewBox="0 0 17 10" fill="none" xmlns="http://www.w3.org/2000/svg">
<path fill-rule="evenodd" clip-rule="evenodd" d="M1.00381 3.99582H12.5931L10.3044 1.70711C9.91387 1.31658 9.91387 0.683417 10.3044 0.292893C10.6949 -0.0976314 11.3281 -0.0976307 11.7186 0.292894L15.711 4.2853C15.9067 4.481 16.0043 4.73763 16.0039 4.99413C16.0043 5.25061 15.9067 5.50723 15.711 5.70293L11.711 9.7029C11.3205 10.0934 10.6874 10.0934 10.2968 9.7029C9.9063 9.31237 9.9063 8.67921 10.2968 8.28868L12.5897 5.99582H1.00381C0.451529 5.99582 0.00381279 5.5481 0.00381279 4.99582C0.00381279 4.44354 0.451529 3.99582 1.00381 3.99582Z" fill="#FFC800"/>
</svg>
