<svg width="24" height="15" viewBox="0 0 24 15" fill="none" xmlns="http://www.w3.org/2000/svg">
<path d="M11.875 0.75C11.1328 0.75 10.502 0.935547 9.9082 1.26953C9.31445 1.64062 8.83203 2.08594 8.49805 2.67969C8.12695 3.27344 7.97852 3.94141 7.97852 4.64648C7.97852 5.38867 8.12695 6.01953 8.49805 6.61328C8.83203 7.20703 9.31445 7.68945 9.9082 8.02344C10.502 8.39453 11.1328 8.54297 11.875 8.54297C12.5801 8.54297 13.248 8.39453 13.8418 8.02344C14.4355 7.68945 14.8809 7.20703 15.252 6.61328C15.5859 6.01953 15.7715 5.38867 15.7715 4.64648C15.7715 3.94141 15.5859 3.27344 15.252 2.67969C14.8809 2.08594 14.4355 1.64062 13.8418 1.26953C13.248 0.935547 12.5801 0.75 11.875 0.75ZM16.0684 8.80273C16.6621 8.95117 17.1816 9.28516 17.5527 9.76758C17.9238 10.25 18.1094 10.8066 18.1094 11.4004V13.6641C18.1094 14.0352 17.9609 14.3691 17.7012 14.6289C17.4414 14.8887 17.1445 15 16.7734 15H6.97656C6.60547 15 6.27148 14.8887 6.01172 14.6289C5.75195 14.3691 5.64062 14.0352 5.64062 13.6641V11.4004C5.64062 10.8066 5.82617 10.25 6.19727 9.76758C6.56836 9.28516 7.05078 8.95117 7.68164 8.80273L9.16602 8.43164C9.9082 8.98828 10.7617 9.28516 11.7266 9.32227C12.7656 9.39648 13.6934 9.09961 14.584 8.43164L16.0684 8.80273ZM19.5938 9.50781C18.8516 9.50781 18.2578 9.28516 17.7383 8.76562C17.2188 8.24609 16.9961 7.65234 16.9961 6.91016C16.9961 6.20508 17.2188 5.61133 17.7383 5.0918C18.2578 4.57227 18.8516 4.3125 19.5938 4.3125C20.2988 4.3125 20.8926 4.57227 21.4121 5.0918C21.9316 5.61133 22.1914 6.20508 22.1914 6.91016C22.1914 7.65234 21.9316 8.24609 21.4121 8.76562C20.8926 9.28516 20.2988 9.50781 19.5938 9.50781ZM4.15625 9.50781C3.41406 9.50781 2.82031 9.28516 2.30078 8.76562C1.78125 8.24609 1.55859 7.65234 1.55859 6.91016C1.55859 6.20508 1.78125 5.61133 2.30078 5.0918C2.82031 4.57227 3.41406 4.3125 4.15625 4.3125C4.86133 4.3125 5.45508 4.57227 5.97461 5.0918C6.49414 5.61133 6.75391 6.20508 6.75391 6.91016C6.75391 7.65234 6.49414 8.24609 5.97461 8.76562C5.45508 9.28516 4.86133 9.50781 4.15625 9.50781ZM5.04688 13.6641V13.8125H0.890625C0.630859 13.8125 0.408203 13.7383 0.259766 13.5527C0.0742188 13.4043 0 13.1816 0 12.9219V11.4004C0 11.0293 0.111328 10.6582 0.371094 10.3242C0.59375 10.0273 0.927734 9.80469 1.33594 9.69336L2.33789 9.43359C2.7832 9.76758 3.26562 9.95312 3.85938 10.0273C4.41602 10.1016 4.97266 9.99023 5.5293 9.73047C5.19531 10.25 5.04688 10.8066 5.04688 11.4004V13.6641ZM22.4141 9.69336C22.7852 9.80469 23.1191 10.0273 23.3789 10.3242C23.6016 10.6582 23.75 11.0293 23.75 11.4004V12.9219C23.75 13.1816 23.6387 13.4043 23.4902 13.5527C23.3047 13.7383 23.082 13.8125 22.8594 13.8125H18.7031V11.4004C18.7031 10.8066 18.5176 10.25 18.2207 9.69336C18.7031 9.95312 19.2227 10.0645 19.7793 10.0273C20.373 10.0273 20.8926 9.80469 21.4121 9.43359L22.4141 9.69336Z" fill="#ef4136"/>
</svg>
