<svg width="37" height="37" viewBox="0 0 37 37" version="1.1" xmlns="http://www.w3.org/2000/svg" xmlns:xlink="http://www.w3.org/1999/xlink">
<g id="Canvas" fill="#fff">
<g id="path8">
<path d="M 4.63209 0.00149859C 2.08604 0.00149859 0.00581944 2.08029 0.00581944 4.62369L 0.00581944 10.5858L 6.32219 14.2428C 6.79966 14.5185 7.39214 14.5155 7.86962 14.2428C 8.26994 14.0179 20.233 7.13561 20.4121 7.0337C 20.843 6.7849 21.3074 6.86884 21.565 7.01871C 21.8183 7.16859 22.4996 7.55527 22.8606 7.7591C 23.2173 7.96443 23.2012 8.53246 22.881 8.71831L 7.90747 17.3362C 7.37467 17.6435 6.84479 17.651 6.29162 17.3392C 5.36433 16.8146 1.54161 14.5875 0.00291386 13.6912L 0.00291386 16.8191L 6.32073 20.4746C 6.79821 20.7519 7.39068 20.7489 7.86816 20.4746C 8.26848 20.2498 20.2316 13.3675 20.4106 13.2656C 20.8415 13.0183 21.3059 13.1007 21.5636 13.2506C 21.8169 13.4005 22.4981 13.7871 22.8592 13.9925C 23.2158 14.1963 23.1998 14.7643 22.8795 14.9517L 7.90601 23.5696C 7.37322 23.8768 6.84333 23.8843 6.29016 23.5726C 5.36287 23.048 1.54015 20.8208 0.00145693 19.9261L 0.00145693 23.054C 0.0131013 23.0465 5.9437 26.4937 6.31927 26.7095C 6.79675 26.9853 7.38923 26.9823 7.8667 26.7095C 8.26702 26.4847 20.2301 19.6023 20.4092 19.5004C 20.8401 19.2516 21.3044 19.3356 21.5621 19.4854C 21.8154 19.6353 22.4967 20.022 22.8577 20.2258C 23.2143 20.4297 23.1983 20.9977 22.8781 21.185L 7.90455 29.8029C 7.37176 30.1102 6.84188 30.1177 6.2887 29.8059C 5.36141 29.2814 1.53869 27.0557 0 26.1594L 0 32.3733C 0 34.9182 2.08168 37 4.62482 37L 32.3737 37C 34.9169 37 37 34.9167 37 32.3733L 37 4.62519C 37 2.08178 34.9183 0 32.3737 0L 4.63209 0.00149859Z" fill="#E44332"/>
</g>
</g>
</svg>

