<svg xmlns="http://www.w3.org/2000/svg" xmlns:xlink="http://www.w3.org/1999/xlink" width="100" height="100" viewBox="0 0 100 100"><g><g transform="translate(50 50) scale(0.69 0.69) rotate(0) translate(-50 -50)" style="fill:#ef4136;"><svg fill="#ef4136" xmlns="http://www.w3.org/2000/svg" xmlns:xlink="http://www.w3.org/1999/xlink" version="1.1" x="0px" y="0px" viewBox="0 0 32 32" enable-background="new 0 0 32 32" xml:space="preserve"><g><g><path fill="#ef4136" d="M24.1,29.9H7.9l2-6.5h12.2L24.1,29.9z M9.9,28.4h12.2L21,24.9H11L9.9,28.4z"></path></g><g><rect x="5.8" y="28.4" fill="#ef4136" width="20.3" height="1.5"></rect></g><g><path fill="#ef4136" d="M29.1,24.9H2.9c-1.2,0-2.2-1-2.2-2.2v-4.2h30.5v4.2C31.3,23.9,30.3,24.9,29.1,24.9z M2.3,20v2.7    c0,0.4,0.3,0.7,0.7,0.7h26.2c0.4,0,0.7-0.3,0.7-0.7V20H2.3z"></path></g><g><path fill="#ef4136" d="M31.3,20H0.8V4.2C0.8,3,1.8,2,3,2h26.2c1.2,0,2.2,1,2.2,2.2V20H31.3z M2.3,18.5h27.5V4.2    c0-0.4-0.3-0.7-0.7-0.7H2.9c-0.4,0-0.7,0.3-0.7,0.7L2.3,18.5L2.3,18.5z"></path></g><g><rect x="15.3" y="21" fill="#ef4136" width="1.5" height="1.5"></rect></g></g></svg></g></g></svg>