<svg width="834" height="697" fill="none" xmlns="http://www.w3.org/2000/svg"><g opacity=".1" fill="#000"><path d="M23.383 215.5a1.5 1.5 0 11-3 0 1.5 1.5 0 013 0zM43.383 215.5a1.5 1.5 0 11-3 0 1.5 1.5 0 013 0zM23.383 235.5a1.5 1.5 0 11-3 0 1.5 1.5 0 013 0zM43.383 235.5a1.5 1.5 0 11-3 0 1.5 1.5 0 013 0zM23.383 255.5a1.5 1.5 0 11-3 0 1.5 1.5 0 013 0zM43.383 255.5a1.5 1.5 0 11-3 0 1.5 1.5 0 013 0zM23.383 275.5a1.5 1.5 0 11-3 0 1.5 1.5 0 013 0zM43.383 275.5a1.5 1.5 0 11-3 0 1.5 1.5 0 013 0zM23.383 295.5a1.5 1.5 0 11-3 0 1.5 1.5 0 013 0zM43.383 295.5a1.5 1.5 0 11-3 0 1.5 1.5 0 013 0zM23.383 315.5a1.5 1.5 0 11-3 0 1.5 1.5 0 013 0zM43.383 315.5a1.5 1.5 0 11-3 0 1.5 1.5 0 013 0zM23.383 335.5a1.5 1.5 0 11-3 0 1.5 1.5 0 013 0zM43.383 335.5a1.5 1.5 0 11-3 0 1.5 1.5 0 013 0zM23.383 355.5a1.5 1.5 0 11-3 0 1.5 1.5 0 013 0zM43.383 355.5a1.5 1.5 0 11-3 0 1.5 1.5 0 013 0zM23.383 375.5a1.5 1.5 0 11-3 0 1.5 1.5 0 013 0zM43.383 375.5a1.5 1.5 0 11-3 0 1.5 1.5 0 013 0zM23.383 395.5a1.5 1.5 0 11-3 0 1.5 1.5 0 013 0zM43.383 395.5a1.5 1.5 0 11-3 0 1.5 1.5 0 013 0zM23.383 415.5a1.5 1.5 0 11-3 0 1.5 1.5 0 013 0zM43.383 415.5a1.5 1.5 0 11-3 0 1.5 1.5 0 013 0zM23.383 435.5a1.5 1.5 0 11-3 0 1.5 1.5 0 013 0zM43.383 435.5a1.5 1.5 0 11-3 0 1.5 1.5 0 013 0zM63.383 215.5a1.5 1.5 0 11-3 0 1.5 1.5 0 013 0zM83.383 215.5a1.5 1.5 0 11-3 0 1.5 1.5 0 013 0zM103.383 215.5a1.5 1.5 0 11-3.001-.001 1.5 1.5 0 013.001.001zM123.383 215.5a1.5 1.5 0 11-3.001-.001 1.5 1.5 0 013.001.001zM143.383 215.5a1.5 1.5 0 11-3.001-.001 1.5 1.5 0 013.001.001zM163.383 215.5a1.5 1.5 0 11-3.001-.001 1.5 1.5 0 013.001.001zM183.383 215.5a1.5 1.5 0 11-3.001-.001 1.5 1.5 0 013.001.001zM203.383 215.5a1.5 1.5 0 11-3.001-.001 1.5 1.5 0 013.001.001zM223.383 215.5a1.5 1.5 0 11-3.001-.001 1.5 1.5 0 013.001.001zM243.383 215.5a1.5 1.5 0 11-3.001-.001 1.5 1.5 0 013.001.001zM263.383 215.5a1.5 1.5 0 11-3.001-.001 1.5 1.5 0 013.001.001zM283.383 215.5a1.5 1.5 0 11-3.001-.001 1.5 1.5 0 013.001.001zM303.383 215.5a1.5 1.5 0 11-3.001-.001 1.5 1.5 0 013.001.001zM323.383 215.5a1.5 1.5 0 11-3.001-.001 1.5 1.5 0 013.001.001zM343.383 215.5a1.5 1.5 0 11-3.001-.001 1.5 1.5 0 013.001.001zM63.383 235.5a1.5 1.5 0 11-3 0 1.5 1.5 0 013 0zM83.383 235.5a1.5 1.5 0 11-3 0 1.5 1.5 0 013 0zM103.383 235.5a1.5 1.5 0 11-3.001-.001 1.5 1.5 0 013.001.001zM123.383 235.5a1.5 1.5 0 11-3.001-.001 1.5 1.5 0 013.001.001zM143.383 235.5a1.5 1.5 0 11-3.001-.001 1.5 1.5 0 013.001.001zM163.383 235.5a1.5 1.5 0 11-3.001-.001 1.5 1.5 0 013.001.001zM183.383 235.5a1.5 1.5 0 11-3.001-.001 1.5 1.5 0 013.001.001zM203.383 235.5a1.5 1.5 0 11-3.001-.001 1.5 1.5 0 013.001.001zM223.383 235.5a1.5 1.5 0 11-3.001-.001 1.5 1.5 0 013.001.001zM243.383 235.5a1.5 1.5 0 11-3.001-.001 1.5 1.5 0 013.001.001zM263.383 235.5a1.5 1.5 0 11-3.001-.001 1.5 1.5 0 013.001.001zM283.383 235.5a1.5 1.5 0 11-3.001-.001 1.5 1.5 0 013.001.001zM303.383 235.5a1.5 1.5 0 11-3.001-.001 1.5 1.5 0 013.001.001zM323.383 235.5a1.5 1.5 0 11-3.001-.001 1.5 1.5 0 013.001.001zM343.383 235.5a1.5 1.5 0 11-3.001-.001 1.5 1.5 0 013.001.001zM63.383 255.5a1.5 1.5 0 11-3 0 1.5 1.5 0 013 0zM83.383 255.5a1.5 1.5 0 11-3 0 1.5 1.5 0 013 0zM103.383 255.5a1.5 1.5 0 11-3.001-.001 1.5 1.5 0 013.001.001zM123.383 255.5a1.5 1.5 0 11-3.001-.001 1.5 1.5 0 013.001.001zM143.383 255.5a1.5 1.5 0 11-3.001-.001 1.5 1.5 0 013.001.001zM163.383 255.5a1.5 1.5 0 11-3.001-.001 1.5 1.5 0 013.001.001zM183.383 255.5a1.5 1.5 0 11-3.001-.001 1.5 1.5 0 013.001.001zM203.383 255.5a1.5 1.5 0 11-3.001-.001 1.5 1.5 0 013.001.001zM223.383 255.5a1.5 1.5 0 11-3.001-.001 1.5 1.5 0 013.001.001zM243.383 255.5a1.5 1.5 0 11-3.001-.001 1.5 1.5 0 013.001.001zM263.383 255.5a1.5 1.5 0 11-3.001-.001 1.5 1.5 0 013.001.001zM283.383 255.5a1.5 1.5 0 11-3.001-.001 1.5 1.5 0 013.001.001zM303.383 255.5a1.5 1.5 0 11-3.001-.001 1.5 1.5 0 013.001.001zM323.383 255.5a1.5 1.5 0 11-3.001-.001 1.5 1.5 0 013.001.001zM343.383 255.5a1.5 1.5 0 11-3.001-.001 1.5 1.5 0 013.001.001zM63.383 275.5a1.5 1.5 0 11-3 0 1.5 1.5 0 013 0zM83.383 275.5a1.5 1.5 0 11-3 0 1.5 1.5 0 013 0zM103.383 275.5a1.5 1.5 0 11-3.001-.001 1.5 1.5 0 013.001.001zM123.383 275.5a1.5 1.5 0 11-3.001-.001 1.5 1.5 0 013.001.001zM143.383 275.5a1.5 1.5 0 11-3.001-.001 1.5 1.5 0 013.001.001zM163.383 275.5a1.5 1.5 0 11-3.001-.001 1.5 1.5 0 013.001.001zM183.383 275.5a1.5 1.5 0 11-3.001-.001 1.5 1.5 0 013.001.001zM203.383 275.5a1.5 1.5 0 11-3.001-.001 1.5 1.5 0 013.001.001zM223.383 275.5a1.5 1.5 0 11-3.001-.001 1.5 1.5 0 013.001.001zM243.383 275.5a1.5 1.5 0 11-3.001-.001 1.5 1.5 0 013.001.001zM263.383 275.5a1.5 1.5 0 11-3.001-.001 1.5 1.5 0 013.001.001zM283.383 275.5a1.5 1.5 0 11-3.001-.001 1.5 1.5 0 013.001.001zM303.383 275.5a1.5 1.5 0 11-3.001-.001 1.5 1.5 0 013.001.001zM323.383 275.5a1.5 1.5 0 11-3.001-.001 1.5 1.5 0 013.001.001zM343.383 275.5a1.5 1.5 0 11-3.001-.001 1.5 1.5 0 013.001.001zM63.383 295.5a1.5 1.5 0 11-3 0 1.5 1.5 0 013 0zM83.383 295.5a1.5 1.5 0 11-3 0 1.5 1.5 0 013 0zM103.383 295.5a1.5 1.5 0 11-3.001-.001 1.5 1.5 0 013.001.001zM123.383 295.5a1.5 1.5 0 11-3.001-.001 1.5 1.5 0 013.001.001zM143.383 295.5a1.5 1.5 0 11-3.001-.001 1.5 1.5 0 013.001.001zM163.383 295.5a1.5 1.5 0 11-3.001-.001 1.5 1.5 0 013.001.001zM183.383 295.5a1.5 1.5 0 11-3.001-.001 1.5 1.5 0 013.001.001zM203.383 295.5a1.5 1.5 0 11-3.001-.001 1.5 1.5 0 013.001.001zM223.383 295.5a1.5 1.5 0 11-3.001-.001 1.5 1.5 0 013.001.001zM243.383 295.5a1.5 1.5 0 11-3.001-.001 1.5 1.5 0 013.001.001zM263.383 295.5a1.5 1.5 0 11-3.001-.001 1.5 1.5 0 013.001.001zM283.383 295.5a1.5 1.5 0 11-3.001-.001 1.5 1.5 0 013.001.001zM303.383 295.5a1.5 1.5 0 11-3.001-.001 1.5 1.5 0 013.001.001zM323.383 295.5a1.5 1.5 0 11-3.001-.001 1.5 1.5 0 013.001.001zM343.383 295.5a1.5 1.5 0 11-3.001-.001 1.5 1.5 0 013.001.001zM63.383 315.5a1.5 1.5 0 11-3 0 1.5 1.5 0 013 0zM83.383 315.5a1.5 1.5 0 11-3 0 1.5 1.5 0 013 0zM103.383 315.5a1.5 1.5 0 11-3.001-.001 1.5 1.5 0 013.001.001zM123.383 315.5a1.5 1.5 0 11-3.001-.001 1.5 1.5 0 013.001.001zM143.383 315.5a1.5 1.5 0 11-3.001-.001 1.5 1.5 0 013.001.001zM163.383 315.5a1.5 1.5 0 11-3.001-.001 1.5 1.5 0 013.001.001zM183.383 315.5a1.5 1.5 0 11-3.001-.001 1.5 1.5 0 013.001.001zM203.383 315.5a1.5 1.5 0 11-3.001-.001 1.5 1.5 0 013.001.001zM223.383 315.5a1.5 1.5 0 11-3.001-.001 1.5 1.5 0 013.001.001zM243.383 315.5a1.5 1.5 0 11-3.001-.001 1.5 1.5 0 013.001.001zM263.383 315.5a1.5 1.5 0 11-3.001-.001 1.5 1.5 0 013.001.001zM283.383 315.5a1.5 1.5 0 11-3.001-.001 1.5 1.5 0 013.001.001zM303.383 315.5a1.5 1.5 0 11-3.001-.001 1.5 1.5 0 013.001.001zM323.383 315.5a1.5 1.5 0 11-3.001-.001 1.5 1.5 0 013.001.001zM343.383 315.5a1.5 1.5 0 11-3.001-.001 1.5 1.5 0 013.001.001zM63.383 335.5a1.5 1.5 0 11-3 0 1.5 1.5 0 013 0zM83.383 335.5a1.5 1.5 0 11-3 0 1.5 1.5 0 013 0zM103.383 335.5a1.5 1.5 0 11-3.001-.001 1.5 1.5 0 013.001.001zM123.383 335.5a1.5 1.5 0 11-3.001-.001 1.5 1.5 0 013.001.001zM143.383 335.5a1.5 1.5 0 11-3.001-.001 1.5 1.5 0 013.001.001zM163.383 335.5a1.5 1.5 0 11-3.001-.001 1.5 1.5 0 013.001.001zM183.383 335.5a1.5 1.5 0 11-3.001-.001 1.5 1.5 0 013.001.001zM203.383 335.5a1.5 1.5 0 11-3.001-.001 1.5 1.5 0 013.001.001zM223.383 335.5a1.5 1.5 0 11-3.001-.001 1.5 1.5 0 013.001.001zM243.383 335.5a1.5 1.5 0 11-3.001-.001 1.5 1.5 0 013.001.001zM263.383 335.5a1.5 1.5 0 11-3.001-.001 1.5 1.5 0 013.001.001zM283.383 335.5a1.5 1.5 0 11-3.001-.001 1.5 1.5 0 013.001.001zM303.383 335.5a1.5 1.5 0 11-3.001-.001 1.5 1.5 0 013.001.001zM323.383 335.5a1.5 1.5 0 11-3.001-.001 1.5 1.5 0 013.001.001zM343.383 335.5a1.5 1.5 0 11-3.001-.001 1.5 1.5 0 013.001.001zM63.383 355.5a1.5 1.5 0 11-3 0 1.5 1.5 0 013 0zM83.383 355.5a1.5 1.5 0 11-3 0 1.5 1.5 0 013 0zM103.383 355.5a1.5 1.5 0 11-3.001-.001 1.5 1.5 0 013.001.001zM123.383 355.5a1.5 1.5 0 11-3.001-.001 1.5 1.5 0 013.001.001zM143.383 355.5a1.5 1.5 0 11-3.001-.001 1.5 1.5 0 013.001.001zM163.383 355.5a1.5 1.5 0 11-3.001-.001 1.5 1.5 0 013.001.001zM183.383 355.5a1.5 1.5 0 11-3.001-.001 1.5 1.5 0 013.001.001zM203.383 355.5a1.5 1.5 0 11-3.001-.001 1.5 1.5 0 013.001.001zM223.383 355.5a1.5 1.5 0 11-3.001-.001 1.5 1.5 0 013.001.001zM243.383 355.5a1.5 1.5 0 11-3.001-.001 1.5 1.5 0 013.001.001zM263.383 355.5a1.5 1.5 0 11-3.001-.001 1.5 1.5 0 013.001.001zM283.383 355.5a1.5 1.5 0 11-3.001-.001 1.5 1.5 0 013.001.001zM303.383 355.5a1.5 1.5 0 11-3.001-.001 1.5 1.5 0 013.001.001zM323.383 355.5a1.5 1.5 0 11-3.001-.001 1.5 1.5 0 013.001.001zM343.383 355.5a1.5 1.5 0 11-3.001-.001 1.5 1.5 0 013.001.001zM63.383 375.5a1.5 1.5 0 11-3 0 1.5 1.5 0 013 0zM83.383 375.5a1.5 1.5 0 11-3 0 1.5 1.5 0 013 0zM103.383 375.5a1.5 1.5 0 11-3.001-.001 1.5 1.5 0 013.001.001zM123.383 375.5a1.5 1.5 0 11-3.001-.001 1.5 1.5 0 013.001.001zM143.383 375.5a1.5 1.5 0 11-3.001-.001 1.5 1.5 0 013.001.001zM163.383 375.5a1.5 1.5 0 11-3.001-.001 1.5 1.5 0 013.001.001zM183.383 375.5a1.5 1.5 0 11-3.001-.001 1.5 1.5 0 013.001.001zM203.383 375.5a1.5 1.5 0 11-3.001-.001 1.5 1.5 0 013.001.001zM223.383 375.5a1.5 1.5 0 11-3.001-.001 1.5 1.5 0 013.001.001zM243.383 375.5a1.5 1.5 0 11-3.001-.001 1.5 1.5 0 013.001.001zM263.383 375.5a1.5 1.5 0 11-3.001-.001 1.5 1.5 0 013.001.001zM283.383 375.5a1.5 1.5 0 11-3.001-.001 1.5 1.5 0 013.001.001zM303.383 375.5a1.5 1.5 0 11-3.001-.001 1.5 1.5 0 013.001.001zM323.383 375.5a1.5 1.5 0 11-3.001-.001 1.5 1.5 0 013.001.001zM343.383 375.5a1.5 1.5 0 11-3.001-.001 1.5 1.5 0 013.001.001zM63.383 395.5a1.5 1.5 0 11-3 0 1.5 1.5 0 013 0zM83.383 395.5a1.5 1.5 0 11-3 0 1.5 1.5 0 013 0zM103.383 395.5a1.5 1.5 0 11-3.001-.001 1.5 1.5 0 013.001.001zM123.383 395.5a1.5 1.5 0 11-3.001-.001 1.5 1.5 0 013.001.001zM143.383 395.5a1.5 1.5 0 11-3.001-.001 1.5 1.5 0 013.001.001zM163.383 395.5a1.5 1.5 0 11-3.001-.001 1.5 1.5 0 013.001.001zM183.383 395.5a1.5 1.5 0 11-3.001-.001 1.5 1.5 0 013.001.001zM203.383 395.5a1.5 1.5 0 11-3.001-.001 1.5 1.5 0 013.001.001zM223.383 395.5a1.5 1.5 0 11-3.001-.001 1.5 1.5 0 013.001.001zM243.383 395.5a1.5 1.5 0 11-3.001-.001 1.5 1.5 0 013.001.001zM263.383 395.5a1.5 1.5 0 11-3.001-.001 1.5 1.5 0 013.001.001zM283.383 395.5a1.5 1.5 0 11-3.001-.001 1.5 1.5 0 013.001.001zM303.383 395.5a1.5 1.5 0 11-3.001-.001 1.5 1.5 0 013.001.001zM323.383 395.5a1.5 1.5 0 11-3.001-.001 1.5 1.5 0 013.001.001zM343.383 395.5a1.5 1.5 0 11-3.001-.001 1.5 1.5 0 013.001.001zM63.383 415.5a1.5 1.5 0 11-3 0 1.5 1.5 0 013 0zM83.383 415.5a1.5 1.5 0 11-3 0 1.5 1.5 0 013 0zM103.383 415.5a1.5 1.5 0 11-3.001-.001 1.5 1.5 0 013.001.001zM123.383 415.5a1.5 1.5 0 11-3.001-.001 1.5 1.5 0 013.001.001zM143.383 415.5a1.5 1.5 0 11-3.001-.001 1.5 1.5 0 013.001.001zM163.383 415.5a1.5 1.5 0 11-3.001-.001 1.5 1.5 0 013.001.001zM183.383 415.5a1.5 1.5 0 11-3.001-.001 1.5 1.5 0 013.001.001zM203.383 415.5a1.5 1.5 0 11-3.001-.001 1.5 1.5 0 013.001.001zM223.383 415.5a1.5 1.5 0 11-3.001-.001 1.5 1.5 0 013.001.001zM243.383 415.5a1.5 1.5 0 11-3.001-.001 1.5 1.5 0 013.001.001zM263.383 415.5a1.5 1.5 0 11-3.001-.001 1.5 1.5 0 013.001.001zM283.383 415.5a1.5 1.5 0 11-3.001-.001 1.5 1.5 0 013.001.001zM303.383 415.5a1.5 1.5 0 11-3.001-.001 1.5 1.5 0 013.001.001zM323.383 415.5a1.5 1.5 0 11-3.001-.001 1.5 1.5 0 013.001.001zM343.383 415.5a1.5 1.5 0 11-3.001-.001 1.5 1.5 0 013.001.001zM63.383 435.5a1.5 1.5 0 11-3 0 1.5 1.5 0 013 0zM83.383 435.5a1.5 1.5 0 11-3 0 1.5 1.5 0 013 0zM103.383 435.5a1.5 1.5 0 11-3.001-.001 1.5 1.5 0 013.001.001zM123.383 435.5a1.5 1.5 0 11-3.001-.001 1.5 1.5 0 013.001.001zM143.383 435.5a1.5 1.5 0 11-3.001-.001 1.5 1.5 0 013.001.001zM163.383 435.5a1.5 1.5 0 11-3.001-.001 1.5 1.5 0 013.001.001zM183.383 435.5a1.5 1.5 0 11-3.001-.001 1.5 1.5 0 013.001.001zM203.383 435.5a1.5 1.5 0 11-3.001-.001 1.5 1.5 0 013.001.001zM223.383 435.5a1.5 1.5 0 11-3.001-.001 1.5 1.5 0 013.001.001zM243.383 435.5a1.5 1.5 0 11-3.001-.001 1.5 1.5 0 013.001.001zM263.383 435.5a1.5 1.5 0 11-3.001-.001 1.5 1.5 0 013.001.001zM283.383 435.5a1.5 1.5 0 11-3.001-.001 1.5 1.5 0 013.001.001zM303.383 435.5a1.5 1.5 0 11-3.001-.001 1.5 1.5 0 013.001.001zM323.383 435.5a1.5 1.5 0 11-3.001-.001 1.5 1.5 0 013.001.001zM343.383 435.5a1.5 1.5 0 11-3.001-.001 1.5 1.5 0 013.001.001zM363.383 215.5a1.5 1.5 0 11-3.001-.001 1.5 1.5 0 013.001.001zM383.383 215.5a1.5 1.5 0 11-3.001-.001 1.5 1.5 0 013.001.001zM403.383 215.5a1.5 1.5 0 11-3.001-.001 1.5 1.5 0 013.001.001zM423.383 215.5a1.5 1.5 0 11-3.001-.001 1.5 1.5 0 013.001.001zM443.383 215.5a1.5 1.5 0 11-3.001-.001 1.5 1.5 0 013.001.001zM463.383 215.5a1.5 1.5 0 11-3.001-.001 1.5 1.5 0 013.001.001zM483.383 215.5a1.5 1.5 0 11-3.001-.001 1.5 1.5 0 013.001.001zM503.383 215.5a1.5 1.5 0 11-3.001-.001 1.5 1.5 0 013.001.001zM523.383 215.5a1.5 1.5 0 11-3.001-.001 1.5 1.5 0 013.001.001zM543.383 215.5a1.5 1.5 0 11-3.001-.001 1.5 1.5 0 013.001.001zM563.383 215.5a1.5 1.5 0 11-3.001-.001 1.5 1.5 0 013.001.001zM583.383 215.5a1.5 1.5 0 11-3.001-.001 1.5 1.5 0 013.001.001zM603.383 215.5a1.5 1.5 0 11-3.001-.001 1.5 1.5 0 013.001.001zM623.383 215.5a1.5 1.5 0 11-3.001-.001 1.5 1.5 0 013.001.001zM643.383 215.5a1.5 1.5 0 11-3.001-.001 1.5 1.5 0 013.001.001zM363.383 235.5a1.5 1.5 0 11-3.001-.001 1.5 1.5 0 013.001.001zM383.383 235.5a1.5 1.5 0 11-3.001-.001 1.5 1.5 0 013.001.001zM403.383 235.5a1.5 1.5 0 11-3.001-.001 1.5 1.5 0 013.001.001zM423.383 235.5a1.5 1.5 0 11-3.001-.001 1.5 1.5 0 013.001.001zM443.383 235.5a1.5 1.5 0 11-3.001-.001 1.5 1.5 0 013.001.001zM463.383 235.5a1.5 1.5 0 11-3.001-.001 1.5 1.5 0 013.001.001zM483.383 235.5a1.5 1.5 0 11-3.001-.001 1.5 1.5 0 013.001.001zM503.383 235.5a1.5 1.5 0 11-3.001-.001 1.5 1.5 0 013.001.001zM523.383 235.5a1.5 1.5 0 11-3.001-.001 1.5 1.5 0 013.001.001zM543.383 235.5a1.5 1.5 0 11-3.001-.001 1.5 1.5 0 013.001.001zM563.383 235.5a1.5 1.5 0 11-3.001-.001 1.5 1.5 0 013.001.001zM583.383 235.5a1.5 1.5 0 11-3.001-.001 1.5 1.5 0 013.001.001zM603.383 235.5a1.5 1.5 0 11-3.001-.001 1.5 1.5 0 013.001.001zM623.383 235.5a1.5 1.5 0 11-3.001-.001 1.5 1.5 0 013.001.001zM643.383 235.5a1.5 1.5 0 11-3.001-.001 1.5 1.5 0 013.001.001zM363.383 255.5a1.5 1.5 0 11-3.001-.001 1.5 1.5 0 013.001.001zM383.383 255.5a1.5 1.5 0 11-3.001-.001 1.5 1.5 0 013.001.001zM403.383 255.5a1.5 1.5 0 11-3.001-.001 1.5 1.5 0 013.001.001zM423.383 255.5a1.5 1.5 0 11-3.001-.001 1.5 1.5 0 013.001.001zM443.383 255.5a1.5 1.5 0 11-3.001-.001 1.5 1.5 0 013.001.001zM463.383 255.5a1.5 1.5 0 11-3.001-.001 1.5 1.5 0 013.001.001zM483.383 255.5a1.5 1.5 0 11-3.001-.001 1.5 1.5 0 013.001.001zM503.383 255.5a1.5 1.5 0 11-3.001-.001 1.5 1.5 0 013.001.001zM523.383 255.5a1.5 1.5 0 11-3.001-.001 1.5 1.5 0 013.001.001zM543.383 255.5a1.5 1.5 0 11-3.001-.001 1.5 1.5 0 013.001.001zM563.383 255.5a1.5 1.5 0 11-3.001-.001 1.5 1.5 0 013.001.001zM583.383 255.5a1.5 1.5 0 11-3.001-.001 1.5 1.5 0 013.001.001zM603.383 255.5a1.5 1.5 0 11-3.001-.001 1.5 1.5 0 013.001.001zM623.383 255.5a1.5 1.5 0 11-3.001-.001 1.5 1.5 0 013.001.001zM643.383 255.5a1.5 1.5 0 11-3.001-.001 1.5 1.5 0 013.001.001zM363.383 275.5a1.5 1.5 0 11-3.001-.001 1.5 1.5 0 013.001.001zM383.383 275.5a1.5 1.5 0 11-3.001-.001 1.5 1.5 0 013.001.001zM403.383 275.5a1.5 1.5 0 11-3.001-.001 1.5 1.5 0 013.001.001zM423.383 275.5a1.5 1.5 0 11-3.001-.001 1.5 1.5 0 013.001.001zM443.383 275.5a1.5 1.5 0 11-3.001-.001 1.5 1.5 0 013.001.001zM463.383 275.5a1.5 1.5 0 11-3.001-.001 1.5 1.5 0 013.001.001zM483.383 275.5a1.5 1.5 0 11-3.001-.001 1.5 1.5 0 013.001.001zM503.383 275.5a1.5 1.5 0 11-3.001-.001 1.5 1.5 0 013.001.001zM523.383 275.5a1.5 1.5 0 11-3.001-.001 1.5 1.5 0 013.001.001zM543.383 275.5a1.5 1.5 0 11-3.001-.001 1.5 1.5 0 013.001.001zM563.383 275.5a1.5 1.5 0 11-3.001-.001 1.5 1.5 0 013.001.001zM583.383 275.5a1.5 1.5 0 11-3.001-.001 1.5 1.5 0 013.001.001zM603.383 275.5a1.5 1.5 0 11-3.001-.001 1.5 1.5 0 013.001.001zM623.383 275.5a1.5 1.5 0 11-3.001-.001 1.5 1.5 0 013.001.001zM643.383 275.5a1.5 1.5 0 11-3.001-.001 1.5 1.5 0 013.001.001zM363.383 295.5a1.5 1.5 0 11-3.001-.001 1.5 1.5 0 013.001.001zM383.383 295.5a1.5 1.5 0 11-3.001-.001 1.5 1.5 0 013.001.001zM403.383 295.5a1.5 1.5 0 11-3.001-.001 1.5 1.5 0 013.001.001zM423.383 295.5a1.5 1.5 0 11-3.001-.001 1.5 1.5 0 013.001.001zM443.383 295.5a1.5 1.5 0 11-3.001-.001 1.5 1.5 0 013.001.001zM463.383 295.5a1.5 1.5 0 11-3.001-.001 1.5 1.5 0 013.001.001zM483.383 295.5a1.5 1.5 0 11-3.001-.001 1.5 1.5 0 013.001.001zM503.383 295.5a1.5 1.5 0 11-3.001-.001 1.5 1.5 0 013.001.001zM523.383 295.5a1.5 1.5 0 11-3.001-.001 1.5 1.5 0 013.001.001zM543.383 295.5a1.5 1.5 0 11-3.001-.001 1.5 1.5 0 013.001.001zM563.383 295.5a1.5 1.5 0 11-3.001-.001 1.5 1.5 0 013.001.001zM583.383 295.5a1.5 1.5 0 11-3.001-.001 1.5 1.5 0 013.001.001zM603.383 295.5a1.5 1.5 0 11-3.001-.001 1.5 1.5 0 013.001.001zM623.383 295.5a1.5 1.5 0 11-3.001-.001 1.5 1.5 0 013.001.001zM643.383 295.5a1.5 1.5 0 11-3.001-.001 1.5 1.5 0 013.001.001zM363.383 315.5a1.5 1.5 0 11-3.001-.001 1.5 1.5 0 013.001.001zM383.383 315.5a1.5 1.5 0 11-3.001-.001 1.5 1.5 0 013.001.001zM403.383 315.5a1.5 1.5 0 11-3.001-.001 1.5 1.5 0 013.001.001zM423.383 315.5a1.5 1.5 0 11-3.001-.001 1.5 1.5 0 013.001.001zM443.383 315.5a1.5 1.5 0 11-3.001-.001 1.5 1.5 0 013.001.001zM463.383 315.5a1.5 1.5 0 11-3.001-.001 1.5 1.5 0 013.001.001zM483.383 315.5a1.5 1.5 0 11-3.001-.001 1.5 1.5 0 013.001.001zM503.383 315.5a1.5 1.5 0 11-3.001-.001 1.5 1.5 0 013.001.001zM523.383 315.5a1.5 1.5 0 11-3.001-.001 1.5 1.5 0 013.001.001zM543.383 315.5a1.5 1.5 0 11-3.001-.001 1.5 1.5 0 013.001.001zM563.383 315.5a1.5 1.5 0 11-3.001-.001 1.5 1.5 0 013.001.001zM583.383 315.5a1.5 1.5 0 11-3.001-.001 1.5 1.5 0 013.001.001zM603.383 315.5a1.5 1.5 0 11-3.001-.001 1.5 1.5 0 013.001.001zM623.383 315.5a1.5 1.5 0 11-3.001-.001 1.5 1.5 0 013.001.001zM643.383 315.5a1.5 1.5 0 11-3.001-.001 1.5 1.5 0 013.001.001zM363.383 335.5a1.5 1.5 0 11-3.001-.001 1.5 1.5 0 013.001.001zM383.383 335.5a1.5 1.5 0 11-3.001-.001 1.5 1.5 0 013.001.001zM403.383 335.5a1.5 1.5 0 11-3.001-.001 1.5 1.5 0 013.001.001zM423.383 335.5a1.5 1.5 0 11-3.001-.001 1.5 1.5 0 013.001.001zM443.383 335.5a1.5 1.5 0 11-3.001-.001 1.5 1.5 0 013.001.001zM463.383 335.5a1.5 1.5 0 11-3.001-.001 1.5 1.5 0 013.001.001zM483.383 335.5a1.5 1.5 0 11-3.001-.001 1.5 1.5 0 013.001.001zM503.383 335.5a1.5 1.5 0 11-3.001-.001 1.5 1.5 0 013.001.001zM523.383 335.5a1.5 1.5 0 11-3.001-.001 1.5 1.5 0 013.001.001zM543.383 335.5a1.5 1.5 0 11-3.001-.001 1.5 1.5 0 013.001.001zM563.383 335.5a1.5 1.5 0 11-3.001-.001 1.5 1.5 0 013.001.001zM583.383 335.5a1.5 1.5 0 11-3.001-.001 1.5 1.5 0 013.001.001zM603.383 335.5a1.5 1.5 0 11-3.001-.001 1.5 1.5 0 013.001.001zM623.383 335.5a1.5 1.5 0 11-3.001-.001 1.5 1.5 0 013.001.001zM643.383 335.5a1.5 1.5 0 11-3.001-.001 1.5 1.5 0 013.001.001zM363.383 355.5a1.5 1.5 0 11-3.001-.001 1.5 1.5 0 013.001.001zM383.383 355.5a1.5 1.5 0 11-3.001-.001 1.5 1.5 0 013.001.001zM403.383 355.5a1.5 1.5 0 11-3.001-.001 1.5 1.5 0 013.001.001zM423.383 355.5a1.5 1.5 0 11-3.001-.001 1.5 1.5 0 013.001.001zM443.383 355.5a1.5 1.5 0 11-3.001-.001 1.5 1.5 0 013.001.001zM463.383 355.5a1.5 1.5 0 11-3.001-.001 1.5 1.5 0 013.001.001zM483.383 355.5a1.5 1.5 0 11-3.001-.001 1.5 1.5 0 013.001.001zM503.383 355.5a1.5 1.5 0 11-3.001-.001 1.5 1.5 0 013.001.001zM523.383 355.5a1.5 1.5 0 11-3.001-.001 1.5 1.5 0 013.001.001zM543.383 355.5a1.5 1.5 0 11-3.001-.001 1.5 1.5 0 013.001.001zM563.383 355.5a1.5 1.5 0 11-3.001-.001 1.5 1.5 0 013.001.001zM583.383 355.5a1.5 1.5 0 11-3.001-.001 1.5 1.5 0 013.001.001zM603.383 355.5a1.5 1.5 0 11-3.001-.001 1.5 1.5 0 013.001.001zM623.383 355.5a1.5 1.5 0 11-3.001-.001 1.5 1.5 0 013.001.001zM643.383 355.5a1.5 1.5 0 11-3.001-.001 1.5 1.5 0 013.001.001zM363.383 375.5a1.5 1.5 0 11-3.001-.001 1.5 1.5 0 013.001.001zM383.383 375.5a1.5 1.5 0 11-3.001-.001 1.5 1.5 0 013.001.001zM403.383 375.5a1.5 1.5 0 11-3.001-.001 1.5 1.5 0 013.001.001zM423.383 375.5a1.5 1.5 0 11-3.001-.001 1.5 1.5 0 013.001.001zM443.383 375.5a1.5 1.5 0 11-3.001-.001 1.5 1.5 0 013.001.001zM463.383 375.5a1.5 1.5 0 11-3.001-.001 1.5 1.5 0 013.001.001zM483.383 375.5a1.5 1.5 0 11-3.001-.001 1.5 1.5 0 013.001.001zM503.383 375.5a1.5 1.5 0 11-3.001-.001 1.5 1.5 0 013.001.001zM523.383 375.5a1.5 1.5 0 11-3.001-.001 1.5 1.5 0 013.001.001zM543.383 375.5a1.5 1.5 0 11-3.001-.001 1.5 1.5 0 013.001.001zM563.383 375.5a1.5 1.5 0 11-3.001-.001 1.5 1.5 0 013.001.001zM583.383 375.5a1.5 1.5 0 11-3.001-.001 1.5 1.5 0 013.001.001zM603.383 375.5a1.5 1.5 0 11-3.001-.001 1.5 1.5 0 013.001.001zM623.383 375.5a1.5 1.5 0 11-3.001-.001 1.5 1.5 0 013.001.001zM643.383 375.5a1.5 1.5 0 11-3.001-.001 1.5 1.5 0 013.001.001zM363.383 395.5a1.5 1.5 0 11-3.001-.001 1.5 1.5 0 013.001.001zM383.383 395.5a1.5 1.5 0 11-3.001-.001 1.5 1.5 0 013.001.001zM403.383 395.5a1.5 1.5 0 11-3.001-.001 1.5 1.5 0 013.001.001zM423.383 395.5a1.5 1.5 0 11-3.001-.001 1.5 1.5 0 013.001.001zM443.383 395.5a1.5 1.5 0 11-3.001-.001 1.5 1.5 0 013.001.001zM463.383 395.5a1.5 1.5 0 11-3.001-.001 1.5 1.5 0 013.001.001zM483.383 395.5a1.5 1.5 0 11-3.001-.001 1.5 1.5 0 013.001.001zM503.383 395.5a1.5 1.5 0 11-3.001-.001 1.5 1.5 0 013.001.001zM523.383 395.5a1.5 1.5 0 11-3.001-.001 1.5 1.5 0 013.001.001zM543.383 395.5a1.5 1.5 0 11-3.001-.001 1.5 1.5 0 013.001.001zM563.383 395.5a1.5 1.5 0 11-3.001-.001 1.5 1.5 0 013.001.001zM583.383 395.5a1.5 1.5 0 11-3.001-.001 1.5 1.5 0 013.001.001zM603.383 395.5a1.5 1.5 0 11-3.001-.001 1.5 1.5 0 013.001.001zM623.383 395.5a1.5 1.5 0 11-3.001-.001 1.5 1.5 0 013.001.001zM643.383 395.5a1.5 1.5 0 11-3.001-.001 1.5 1.5 0 013.001.001zM363.383 415.5a1.5 1.5 0 11-3.001-.001 1.5 1.5 0 013.001.001zM383.383 415.5a1.5 1.5 0 11-3.001-.001 1.5 1.5 0 013.001.001zM403.383 415.5a1.5 1.5 0 11-3.001-.001 1.5 1.5 0 013.001.001zM423.383 415.5a1.5 1.5 0 11-3.001-.001 1.5 1.5 0 013.001.001zM443.383 415.5a1.5 1.5 0 11-3.001-.001 1.5 1.5 0 013.001.001zM463.383 415.5a1.5 1.5 0 11-3.001-.001 1.5 1.5 0 013.001.001zM483.383 415.5a1.5 1.5 0 11-3.001-.001 1.5 1.5 0 013.001.001zM503.383 415.5a1.5 1.5 0 11-3.001-.001 1.5 1.5 0 013.001.001zM523.383 415.5a1.5 1.5 0 11-3.001-.001 1.5 1.5 0 013.001.001zM543.383 415.5a1.5 1.5 0 11-3.001-.001 1.5 1.5 0 013.001.001zM563.383 415.5a1.5 1.5 0 11-3.001-.001 1.5 1.5 0 013.001.001zM583.383 415.5a1.5 1.5 0 11-3.001-.001 1.5 1.5 0 013.001.001zM603.383 415.5a1.5 1.5 0 11-3.001-.001 1.5 1.5 0 013.001.001zM623.383 415.5a1.5 1.5 0 11-3.001-.001 1.5 1.5 0 013.001.001zM643.383 415.5a1.5 1.5 0 11-3.001-.001 1.5 1.5 0 013.001.001zM363.383 435.5a1.5 1.5 0 11-3.001-.001 1.5 1.5 0 013.001.001zM383.383 435.5a1.5 1.5 0 11-3.001-.001 1.5 1.5 0 013.001.001zM403.383 435.5a1.5 1.5 0 11-3.001-.001 1.5 1.5 0 013.001.001zM423.383 435.5a1.5 1.5 0 11-3.001-.001 1.5 1.5 0 013.001.001zM443.383 435.5a1.5 1.5 0 11-3.001-.001 1.5 1.5 0 013.001.001zM463.383 435.5a1.5 1.5 0 11-3.001-.001 1.5 1.5 0 013.001.001zM483.383 435.5a1.5 1.5 0 11-3.001-.001 1.5 1.5 0 013.001.001zM503.383 435.5a1.5 1.5 0 11-3.001-.001 1.5 1.5 0 013.001.001zM523.383 435.5a1.5 1.5 0 11-3.001-.001 1.5 1.5 0 013.001.001zM543.383 435.5a1.5 1.5 0 11-3.001-.001 1.5 1.5 0 013.001.001zM563.383 435.5a1.5 1.5 0 11-3.001-.001 1.5 1.5 0 013.001.001zM583.383 435.5a1.5 1.5 0 11-3.001-.001 1.5 1.5 0 013.001.001zM603.383 435.5a1.5 1.5 0 11-3.001-.001 1.5 1.5 0 013.001.001zM623.383 435.5a1.5 1.5 0 11-3.001-.001 1.5 1.5 0 013.001.001zM643.383 435.5a1.5 1.5 0 11-3.001-.001 1.5 1.5 0 013.001.001zM663.383 215.5a1.5 1.5 0 11-3.001-.001 1.5 1.5 0 013.001.001zM683.383 215.5a1.5 1.5 0 11-3.001-.001 1.5 1.5 0 013.001.001zM703.383 215.5a1.5 1.5 0 11-3.001-.001 1.5 1.5 0 013.001.001zM723.383 215.5a1.5 1.5 0 11-3.001-.001 1.5 1.5 0 013.001.001zM743.383 215.5a1.5 1.5 0 11-3.001-.001 1.5 1.5 0 013.001.001zM763.383 215.5a1.5 1.5 0 11-3.001-.001 1.5 1.5 0 013.001.001zM783.383 215.5a1.5 1.5 0 11-3.001-.001 1.5 1.5 0 013.001.001zM803.383 215.5a1.5 1.5 0 11-3.001-.001 1.5 1.5 0 013.001.001zM823.383 215.5a1.5 1.5 0 11-3.001-.001 1.5 1.5 0 013.001.001zM663.383 235.5a1.5 1.5 0 11-3.001-.001 1.5 1.5 0 013.001.001zM683.383 235.5a1.5 1.5 0 11-3.001-.001 1.5 1.5 0 013.001.001zM703.383 235.5a1.5 1.5 0 11-3.001-.001 1.5 1.5 0 013.001.001zM723.383 235.5a1.5 1.5 0 11-3.001-.001 1.5 1.5 0 013.001.001zM743.383 235.5a1.5 1.5 0 11-3.001-.001 1.5 1.5 0 013.001.001zM763.383 235.5a1.5 1.5 0 11-3.001-.001 1.5 1.5 0 013.001.001zM783.383 235.5a1.5 1.5 0 11-3.001-.001 1.5 1.5 0 013.001.001zM803.383 235.5a1.5 1.5 0 11-3.001-.001 1.5 1.5 0 013.001.001zM823.383 235.5a1.5 1.5 0 11-3.001-.001 1.5 1.5 0 013.001.001zM663.383 255.5a1.5 1.5 0 11-3.001-.001 1.5 1.5 0 013.001.001zM683.383 255.5a1.5 1.5 0 11-3.001-.001 1.5 1.5 0 013.001.001zM703.383 255.5a1.5 1.5 0 11-3.001-.001 1.5 1.5 0 013.001.001zM723.383 255.5a1.5 1.5 0 11-3.001-.001 1.5 1.5 0 013.001.001zM743.383 255.5a1.5 1.5 0 11-3.001-.001 1.5 1.5 0 013.001.001zM763.383 255.5a1.5 1.5 0 11-3.001-.001 1.5 1.5 0 013.001.001zM783.383 255.5a1.5 1.5 0 11-3.001-.001 1.5 1.5 0 013.001.001zM803.383 255.5a1.5 1.5 0 11-3.001-.001 1.5 1.5 0 013.001.001zM823.383 255.5a1.5 1.5 0 11-3.001-.001 1.5 1.5 0 013.001.001zM663.383 275.5a1.5 1.5 0 11-3.001-.001 1.5 1.5 0 013.001.001zM683.383 275.5a1.5 1.5 0 11-3.001-.001 1.5 1.5 0 013.001.001zM703.383 275.5a1.5 1.5 0 11-3.001-.001 1.5 1.5 0 013.001.001zM723.383 275.5a1.5 1.5 0 11-3.001-.001 1.5 1.5 0 013.001.001zM743.383 275.5a1.5 1.5 0 11-3.001-.001 1.5 1.5 0 013.001.001zM763.383 275.5a1.5 1.5 0 11-3.001-.001 1.5 1.5 0 013.001.001zM783.383 275.5a1.5 1.5 0 11-3.001-.001 1.5 1.5 0 013.001.001zM803.383 275.5a1.5 1.5 0 11-3.001-.001 1.5 1.5 0 013.001.001zM823.383 275.5a1.5 1.5 0 11-3.001-.001 1.5 1.5 0 013.001.001zM663.383 295.5a1.5 1.5 0 11-3.001-.001 1.5 1.5 0 013.001.001zM683.383 295.5a1.5 1.5 0 11-3.001-.001 1.5 1.5 0 013.001.001zM703.383 295.5a1.5 1.5 0 11-3.001-.001 1.5 1.5 0 013.001.001zM723.383 295.5a1.5 1.5 0 11-3.001-.001 1.5 1.5 0 013.001.001zM743.383 295.5a1.5 1.5 0 11-3.001-.001 1.5 1.5 0 013.001.001zM763.383 295.5a1.5 1.5 0 11-3.001-.001 1.5 1.5 0 013.001.001zM783.383 295.5a1.5 1.5 0 11-3.001-.001 1.5 1.5 0 013.001.001zM803.383 295.5a1.5 1.5 0 11-3.001-.001 1.5 1.5 0 013.001.001zM823.383 295.5a1.5 1.5 0 11-3.001-.001 1.5 1.5 0 013.001.001zM663.383 315.5a1.5 1.5 0 11-3.001-.001 1.5 1.5 0 013.001.001zM683.383 315.5a1.5 1.5 0 11-3.001-.001 1.5 1.5 0 013.001.001zM703.383 315.5a1.5 1.5 0 11-3.001-.001 1.5 1.5 0 013.001.001zM723.383 315.5a1.5 1.5 0 11-3.001-.001 1.5 1.5 0 013.001.001zM743.383 315.5a1.5 1.5 0 11-3.001-.001 1.5 1.5 0 013.001.001zM763.383 315.5a1.5 1.5 0 11-3.001-.001 1.5 1.5 0 013.001.001zM783.383 315.5a1.5 1.5 0 11-3.001-.001 1.5 1.5 0 013.001.001zM803.383 315.5a1.5 1.5 0 11-3.001-.001 1.5 1.5 0 013.001.001zM823.383 315.5a1.5 1.5 0 11-3.001-.001 1.5 1.5 0 013.001.001zM663.383 335.5a1.5 1.5 0 11-3.001-.001 1.5 1.5 0 013.001.001zM683.383 335.5a1.5 1.5 0 11-3.001-.001 1.5 1.5 0 013.001.001zM703.383 335.5a1.5 1.5 0 11-3.001-.001 1.5 1.5 0 013.001.001zM723.383 335.5a1.5 1.5 0 11-3.001-.001 1.5 1.5 0 013.001.001zM743.383 335.5a1.5 1.5 0 11-3.001-.001 1.5 1.5 0 013.001.001zM763.383 335.5a1.5 1.5 0 11-3.001-.001 1.5 1.5 0 013.001.001zM783.383 335.5a1.5 1.5 0 11-3.001-.001 1.5 1.5 0 013.001.001zM803.383 335.5a1.5 1.5 0 11-3.001-.001 1.5 1.5 0 013.001.001zM823.383 335.5a1.5 1.5 0 11-3.001-.001 1.5 1.5 0 013.001.001zM663.383 355.5a1.5 1.5 0 11-3.001-.001 1.5 1.5 0 013.001.001zM683.383 355.5a1.5 1.5 0 11-3.001-.001 1.5 1.5 0 013.001.001zM703.383 355.5a1.5 1.5 0 11-3.001-.001 1.5 1.5 0 013.001.001zM723.383 355.5a1.5 1.5 0 11-3.001-.001 1.5 1.5 0 013.001.001zM743.383 355.5a1.5 1.5 0 11-3.001-.001 1.5 1.5 0 013.001.001zM763.383 355.5a1.5 1.5 0 11-3.001-.001 1.5 1.5 0 013.001.001zM783.383 355.5a1.5 1.5 0 11-3.001-.001 1.5 1.5 0 013.001.001zM803.383 355.5a1.5 1.5 0 11-3.001-.001 1.5 1.5 0 013.001.001zM823.383 355.5a1.5 1.5 0 11-3.001-.001 1.5 1.5 0 013.001.001zM663.383 375.5a1.5 1.5 0 11-3.001-.001 1.5 1.5 0 013.001.001zM683.383 375.5a1.5 1.5 0 11-3.001-.001 1.5 1.5 0 013.001.001zM703.383 375.5a1.5 1.5 0 11-3.001-.001 1.5 1.5 0 013.001.001zM723.383 375.5a1.5 1.5 0 11-3.001-.001 1.5 1.5 0 013.001.001zM743.383 375.5a1.5 1.5 0 11-3.001-.001 1.5 1.5 0 013.001.001zM763.383 375.5a1.5 1.5 0 11-3.001-.001 1.5 1.5 0 013.001.001zM783.383 375.5a1.5 1.5 0 11-3.001-.001 1.5 1.5 0 013.001.001zM803.383 375.5a1.5 1.5 0 11-3.001-.001 1.5 1.5 0 013.001.001zM823.383 375.5a1.5 1.5 0 11-3.001-.001 1.5 1.5 0 013.001.001zM663.383 395.5a1.5 1.5 0 11-3.001-.001 1.5 1.5 0 013.001.001zM683.383 395.5a1.5 1.5 0 11-3.001-.001 1.5 1.5 0 013.001.001zM703.383 395.5a1.5 1.5 0 11-3.001-.001 1.5 1.5 0 013.001.001zM723.383 395.5a1.5 1.5 0 11-3.001-.001 1.5 1.5 0 013.001.001zM743.383 395.5a1.5 1.5 0 11-3.001-.001 1.5 1.5 0 013.001.001zM763.383 395.5a1.5 1.5 0 11-3.001-.001 1.5 1.5 0 013.001.001zM783.383 395.5a1.5 1.5 0 11-3.001-.001 1.5 1.5 0 013.001.001zM803.383 395.5a1.5 1.5 0 11-3.001-.001 1.5 1.5 0 013.001.001zM823.383 395.5a1.5 1.5 0 11-3.001-.001 1.5 1.5 0 013.001.001zM663.383 415.5a1.5 1.5 0 11-3.001-.001 1.5 1.5 0 013.001.001zM683.383 415.5a1.5 1.5 0 11-3.001-.001 1.5 1.5 0 013.001.001zM703.383 415.5a1.5 1.5 0 11-3.001-.001 1.5 1.5 0 013.001.001zM723.383 415.5a1.5 1.5 0 11-3.001-.001 1.5 1.5 0 013.001.001zM743.383 415.5a1.5 1.5 0 11-3.001-.001 1.5 1.5 0 013.001.001zM763.383 415.5a1.5 1.5 0 11-3.001-.001 1.5 1.5 0 013.001.001zM783.383 415.5a1.5 1.5 0 11-3.001-.001 1.5 1.5 0 013.001.001zM803.383 415.5a1.5 1.5 0 11-3.001-.001 1.5 1.5 0 013.001.001zM823.383 415.5a1.5 1.5 0 11-3.001-.001 1.5 1.5 0 013.001.001zM663.383 435.5a1.5 1.5 0 11-3.001-.001 1.5 1.5 0 013.001.001zM683.383 435.5a1.5 1.5 0 11-3.001-.001 1.5 1.5 0 013.001.001zM703.383 435.5a1.5 1.5 0 11-3.001-.001 1.5 1.5 0 013.001.001zM723.383 435.5a1.5 1.5 0 11-3.001-.001 1.5 1.5 0 013.001.001zM743.383 435.5a1.5 1.5 0 11-3.001-.001 1.5 1.5 0 013.001.001zM763.383 435.5a1.5 1.5 0 11-3.001-.001 1.5 1.5 0 013.001.001zM783.383 435.5a1.5 1.5 0 11-3.001-.001 1.5 1.5 0 013.001.001zM803.383 435.5a1.5 1.5 0 11-3.001-.001 1.5 1.5 0 013.001.001zM823.383 435.5a1.5 1.5 0 11-3.001-.001 1.5 1.5 0 013.001.001zM23.383 455.5a1.5 1.5 0 11-3 0 1.5 1.5 0 013 0zM43.383 455.5a1.5 1.5 0 11-3 0 1.5 1.5 0 013 0zM23.383 475.5a1.5 1.5 0 11-3 0 1.5 1.5 0 013 0zM43.383 475.5a1.5 1.5 0 11-3 0 1.5 1.5 0 013 0zM23.383 495.5a1.5 1.5 0 11-3 0 1.5 1.5 0 013 0zM43.383 495.5a1.5 1.5 0 11-3 0 1.5 1.5 0 013 0zM23.383 515.5a1.5 1.5 0 11-3 0 1.5 1.5 0 013 0zM43.383 515.5a1.5 1.5 0 11-3 0 1.5 1.5 0 013 0zM23.383 535.5a1.5 1.5 0 11-3 0 1.5 1.5 0 013 0zM43.383 535.5a1.5 1.5 0 11-3 0 1.5 1.5 0 013 0zM43.383 555.5a1.5 1.5 0 11-3 0 1.5 1.5 0 013 0zM63.383 455.5a1.5 1.5 0 11-3 0 1.5 1.5 0 013 0zM83.383 455.5a1.5 1.5 0 11-3 0 1.5 1.5 0 013 0zM103.383 455.5a1.5 1.5 0 11-3.001-.001 1.5 1.5 0 013.001.001zM123.383 455.5a1.5 1.5 0 11-3.001-.001 1.5 1.5 0 013.001.001zM143.383 455.5a1.5 1.5 0 11-3.001-.001 1.5 1.5 0 013.001.001zM163.383 455.5a1.5 1.5 0 11-3.001-.001 1.5 1.5 0 013.001.001zM183.383 455.5a1.5 1.5 0 11-3.001-.001 1.5 1.5 0 013.001.001zM203.383 455.5a1.5 1.5 0 11-3.001-.001 1.5 1.5 0 013.001.001zM223.383 455.5a1.5 1.5 0 11-3.001-.001 1.5 1.5 0 013.001.001zM243.383 455.5a1.5 1.5 0 11-3.001-.001 1.5 1.5 0 013.001.001zM263.383 455.5a1.5 1.5 0 11-3.001-.001 1.5 1.5 0 013.001.001zM283.383 455.5a1.5 1.5 0 11-3.001-.001 1.5 1.5 0 013.001.001zM303.383 455.5a1.5 1.5 0 11-3.001-.001 1.5 1.5 0 013.001.001zM323.383 455.5a1.5 1.5 0 11-3.001-.001 1.5 1.5 0 013.001.001zM343.383 455.5a1.5 1.5 0 11-3.001-.001 1.5 1.5 0 013.001.001zM63.383 475.5a1.5 1.5 0 11-3 0 1.5 1.5 0 013 0zM83.383 475.5a1.5 1.5 0 11-3 0 1.5 1.5 0 013 0zM103.383 475.5a1.5 1.5 0 11-3.001-.001 1.5 1.5 0 013.001.001zM123.383 475.5a1.5 1.5 0 11-3.001-.001 1.5 1.5 0 013.001.001zM143.383 475.5a1.5 1.5 0 11-3.001-.001 1.5 1.5 0 013.001.001zM163.383 475.5a1.5 1.5 0 11-3.001-.001 1.5 1.5 0 013.001.001zM183.383 475.5a1.5 1.5 0 11-3.001-.001 1.5 1.5 0 013.001.001zM203.383 475.5a1.5 1.5 0 11-3.001-.001 1.5 1.5 0 013.001.001zM223.383 475.5a1.5 1.5 0 11-3.001-.001 1.5 1.5 0 013.001.001zM243.383 475.5a1.5 1.5 0 11-3.001-.001 1.5 1.5 0 013.001.001zM263.383 475.5a1.5 1.5 0 11-3.001-.001 1.5 1.5 0 013.001.001zM283.383 475.5a1.5 1.5 0 11-3.001-.001 1.5 1.5 0 013.001.001zM303.383 475.5a1.5 1.5 0 11-3.001-.001 1.5 1.5 0 013.001.001zM323.383 475.5a1.5 1.5 0 11-3.001-.001 1.5 1.5 0 013.001.001zM343.383 475.5a1.5 1.5 0 11-3.001-.001 1.5 1.5 0 013.001.001zM63.383 495.5a1.5 1.5 0 11-3 0 1.5 1.5 0 013 0zM83.383 495.5a1.5 1.5 0 11-3 0 1.5 1.5 0 013 0zM103.383 495.5a1.5 1.5 0 11-3.001-.001 1.5 1.5 0 013.001.001zM123.383 495.5a1.5 1.5 0 11-3.001-.001 1.5 1.5 0 013.001.001zM143.383 495.5a1.5 1.5 0 11-3.001-.001 1.5 1.5 0 013.001.001zM163.383 495.5a1.5 1.5 0 11-3.001-.001 1.5 1.5 0 013.001.001zM183.383 495.5a1.5 1.5 0 11-3.001-.001 1.5 1.5 0 013.001.001zM203.383 495.5a1.5 1.5 0 11-3.001-.001 1.5 1.5 0 013.001.001zM223.383 495.5a1.5 1.5 0 11-3.001-.001 1.5 1.5 0 013.001.001zM243.383 495.5a1.5 1.5 0 11-3.001-.001 1.5 1.5 0 013.001.001zM263.383 495.5a1.5 1.5 0 11-3.001-.001 1.5 1.5 0 013.001.001zM283.383 495.5a1.5 1.5 0 11-3.001-.001 1.5 1.5 0 013.001.001zM303.383 495.5a1.5 1.5 0 11-3.001-.001 1.5 1.5 0 013.001.001zM323.383 495.5a1.5 1.5 0 11-3.001-.001 1.5 1.5 0 013.001.001zM343.383 495.5a1.5 1.5 0 11-3.001-.001 1.5 1.5 0 013.001.001zM63.383 515.5a1.5 1.5 0 11-3 0 1.5 1.5 0 013 0zM83.383 515.5a1.5 1.5 0 11-3 0 1.5 1.5 0 013 0zM103.383 515.5a1.5 1.5 0 11-3.001-.001 1.5 1.5 0 013.001.001zM123.383 515.5a1.5 1.5 0 11-3.001-.001 1.5 1.5 0 013.001.001zM143.383 515.5a1.5 1.5 0 11-3.001-.001 1.5 1.5 0 013.001.001zM163.383 515.5a1.5 1.5 0 11-3.001-.001 1.5 1.5 0 013.001.001zM183.383 515.5a1.5 1.5 0 11-3.001-.001 1.5 1.5 0 013.001.001zM203.383 515.5a1.5 1.5 0 11-3.001-.001 1.5 1.5 0 013.001.001zM223.383 515.5a1.5 1.5 0 11-3.001-.001 1.5 1.5 0 013.001.001zM243.383 515.5a1.5 1.5 0 11-3.001-.001 1.5 1.5 0 013.001.001zM263.383 515.5a1.5 1.5 0 11-3.001-.001 1.5 1.5 0 013.001.001zM283.383 515.5a1.5 1.5 0 11-3.001-.001 1.5 1.5 0 013.001.001zM303.383 515.5a1.5 1.5 0 11-3.001-.001 1.5 1.5 0 013.001.001zM323.383 515.5a1.5 1.5 0 11-3.001-.001 1.5 1.5 0 013.001.001zM343.383 515.5a1.5 1.5 0 11-3.001-.001 1.5 1.5 0 013.001.001zM63.383 535.5a1.5 1.5 0 11-3 0 1.5 1.5 0 013 0zM83.383 535.5a1.5 1.5 0 11-3 0 1.5 1.5 0 013 0zM103.383 535.5a1.5 1.5 0 11-3.001-.001 1.5 1.5 0 013.001.001zM123.383 535.5a1.5 1.5 0 11-3.001-.001 1.5 1.5 0 013.001.001zM143.383 535.5a1.5 1.5 0 11-3.001-.001 1.5 1.5 0 013.001.001zM163.383 535.5a1.5 1.5 0 11-3.001-.001 1.5 1.5 0 013.001.001zM183.383 535.5a1.5 1.5 0 11-3.001-.001 1.5 1.5 0 013.001.001zM203.383 535.5a1.5 1.5 0 11-3.001-.001 1.5 1.5 0 013.001.001zM223.383 535.5a1.5 1.5 0 11-3.001-.001 1.5 1.5 0 013.001.001zM243.383 535.5a1.5 1.5 0 11-3.001-.001 1.5 1.5 0 013.001.001zM263.383 535.5a1.5 1.5 0 11-3.001-.001 1.5 1.5 0 013.001.001zM283.383 535.5a1.5 1.5 0 11-3.001-.001 1.5 1.5 0 013.001.001zM303.383 535.5a1.5 1.5 0 11-3.001-.001 1.5 1.5 0 013.001.001zM323.383 535.5a1.5 1.5 0 11-3.001-.001 1.5 1.5 0 013.001.001zM343.383 535.5a1.5 1.5 0 11-3.001-.001 1.5 1.5 0 013.001.001zM63.383 555.5a1.5 1.5 0 11-3 0 1.5 1.5 0 013 0zM83.383 555.5a1.5 1.5 0 11-3 0 1.5 1.5 0 013 0zM103.383 555.5a1.5 1.5 0 11-3.001-.001 1.5 1.5 0 013.001.001zM123.383 555.5a1.5 1.5 0 11-3.001-.001 1.5 1.5 0 013.001.001zM143.383 555.5a1.5 1.5 0 11-3.001-.001 1.5 1.5 0 013.001.001zM163.383 555.5a1.5 1.5 0 11-3.001-.001 1.5 1.5 0 013.001.001zM183.383 555.5a1.5 1.5 0 11-3.001-.001 1.5 1.5 0 013.001.001zM203.383 555.5a1.5 1.5 0 11-3.001-.001 1.5 1.5 0 013.001.001zM223.383 555.5a1.5 1.5 0 11-3.001-.001 1.5 1.5 0 013.001.001zM243.383 555.5a1.5 1.5 0 11-3.001-.001 1.5 1.5 0 013.001.001zM263.383 555.5a1.5 1.5 0 11-3.001-.001 1.5 1.5 0 013.001.001zM283.383 555.5a1.5 1.5 0 11-3.001-.001 1.5 1.5 0 013.001.001zM303.383 555.5a1.5 1.5 0 11-3.001-.001 1.5 1.5 0 013.001.001zM323.383 555.5a1.5 1.5 0 11-3.001-.001 1.5 1.5 0 013.001.001zM343.383 555.5a1.5 1.5 0 11-3.001-.001 1.5 1.5 0 013.001.001zM63.383 575.5a1.5 1.5 0 11-3 0 1.5 1.5 0 013 0zM83.383 575.5a1.5 1.5 0 11-3 0 1.5 1.5 0 013 0zM103.383 575.5a1.5 1.5 0 11-3.001-.001 1.5 1.5 0 013.001.001zM123.383 575.5a1.5 1.5 0 11-3.001-.001 1.5 1.5 0 013.001.001zM143.383 575.5a1.5 1.5 0 11-3.001-.001 1.5 1.5 0 013.001.001zM163.383 575.5a1.5 1.5 0 11-3.001-.001 1.5 1.5 0 013.001.001zM183.383 575.5a1.5 1.5 0 11-3.001-.001 1.5 1.5 0 013.001.001zM203.383 575.5a1.5 1.5 0 11-3.001-.001 1.5 1.5 0 013.001.001zM223.383 575.5a1.5 1.5 0 11-3.001-.001 1.5 1.5 0 013.001.001zM243.383 575.5a1.5 1.5 0 11-3.001-.001 1.5 1.5 0 013.001.001zM263.383 575.5a1.5 1.5 0 11-3.001-.001 1.5 1.5 0 013.001.001zM283.383 575.5a1.5 1.5 0 11-3.001-.001 1.5 1.5 0 013.001.001zM303.383 575.5a1.5 1.5 0 11-3.001-.001 1.5 1.5 0 013.001.001zM323.383 575.5a1.5 1.5 0 11-3.001-.001 1.5 1.5 0 013.001.001zM343.383 575.5a1.5 1.5 0 11-3.001-.001 1.5 1.5 0 013.001.001zM83.383 595.5a1.5 1.5 0 11-3 0 1.5 1.5 0 013 0zM103.383 595.5a1.5 1.5 0 11-3.001-.001 1.5 1.5 0 013.001.001zM123.383 595.5a1.5 1.5 0 11-3.001-.001 1.5 1.5 0 013.001.001zM143.383 595.5a1.5 1.5 0 11-3.001-.001 1.5 1.5 0 013.001.001zM163.383 595.5a1.5 1.5 0 11-3.001-.001 1.5 1.5 0 013.001.001zM183.383 595.5a1.5 1.5 0 11-3.001-.001 1.5 1.5 0 013.001.001zM203.383 595.5a1.5 1.5 0 11-3.001-.001 1.5 1.5 0 013.001.001zM223.383 595.5a1.5 1.5 0 11-3.001-.001 1.5 1.5 0 013.001.001zM243.383 595.5a1.5 1.5 0 11-3.001-.001 1.5 1.5 0 013.001.001zM263.383 595.5a1.5 1.5 0 11-3.001-.001 1.5 1.5 0 013.001.001zM283.383 595.5a1.5 1.5 0 11-3.001-.001 1.5 1.5 0 013.001.001zM303.383 595.5a1.5 1.5 0 11-3.001-.001 1.5 1.5 0 013.001.001zM323.383 595.5a1.5 1.5 0 11-3.001-.001 1.5 1.5 0 013.001.001zM343.383 595.5a1.5 1.5 0 11-3.001-.001 1.5 1.5 0 013.001.001zM83.383 615.5a1.5 1.5 0 11-3 0 1.5 1.5 0 013 0zM103.383 615.5a1.5 1.5 0 11-3.001-.001 1.5 1.5 0 013.001.001zM123.383 615.5a1.5 1.5 0 11-3.001-.001 1.5 1.5 0 013.001.001zM143.383 615.5a1.5 1.5 0 11-3.001-.001 1.5 1.5 0 013.001.001zM163.383 615.5a1.5 1.5 0 11-3.001-.001 1.5 1.5 0 013.001.001zM183.383 615.5a1.5 1.5 0 11-3.001-.001 1.5 1.5 0 013.001.001zM203.383 615.5a1.5 1.5 0 11-3.001-.001 1.5 1.5 0 013.001.001zM223.383 615.5a1.5 1.5 0 11-3.001-.001 1.5 1.5 0 013.001.001zM243.383 615.5a1.5 1.5 0 11-3.001-.001 1.5 1.5 0 013.001.001zM263.383 615.5a1.5 1.5 0 11-3.001-.001 1.5 1.5 0 013.001.001zM283.383 615.5a1.5 1.5 0 11-3.001-.001 1.5 1.5 0 013.001.001zM303.383 615.5a1.5 1.5 0 11-3.001-.001 1.5 1.5 0 013.001.001zM323.383 615.5a1.5 1.5 0 11-3.001-.001 1.5 1.5 0 013.001.001zM343.383 615.5a1.5 1.5 0 11-3.001-.001 1.5 1.5 0 013.001.001zM83.383 635.5a1.5 1.5 0 11-3 0 1.5 1.5 0 013 0zM103.383 635.5a1.5 1.5 0 11-3.001-.001 1.5 1.5 0 013.001.001zM123.383 635.5a1.5 1.5 0 11-3.001-.001 1.5 1.5 0 013.001.001zM143.383 635.5a1.5 1.5 0 11-3.001-.001 1.5 1.5 0 013.001.001zM163.383 635.5a1.5 1.5 0 11-3.001-.001 1.5 1.5 0 013.001.001zM183.383 635.5a1.5 1.5 0 11-3.001-.001 1.5 1.5 0 013.001.001zM203.383 635.5a1.5 1.5 0 11-3.001-.001 1.5 1.5 0 013.001.001zM223.383 635.5a1.5 1.5 0 11-3.001-.001 1.5 1.5 0 013.001.001zM243.383 635.5a1.5 1.5 0 11-3.001-.001 1.5 1.5 0 013.001.001zM263.383 635.5a1.5 1.5 0 11-3.001-.001 1.5 1.5 0 013.001.001zM283.383 635.5a1.5 1.5 0 11-3.001-.001 1.5 1.5 0 013.001.001zM303.383 635.5a1.5 1.5 0 11-3.001-.001 1.5 1.5 0 013.001.001zM323.383 635.5a1.5 1.5 0 11-3.001-.001 1.5 1.5 0 013.001.001zM343.383 635.5a1.5 1.5 0 11-3.001-.001 1.5 1.5 0 013.001.001zM103.383 655.5a1.5 1.5 0 11-3.001-.001 1.5 1.5 0 013.001.001zM123.383 655.5a1.5 1.5 0 11-3.001-.001 1.5 1.5 0 013.001.001zM143.383 655.5a1.5 1.5 0 11-3.001-.001 1.5 1.5 0 013.001.001zM163.383 655.5a1.5 1.5 0 11-3.001-.001 1.5 1.5 0 013.001.001zM183.383 655.5a1.5 1.5 0 11-3.001-.001 1.5 1.5 0 013.001.001zM203.383 655.5a1.5 1.5 0 11-3.001-.001 1.5 1.5 0 013.001.001zM223.383 655.5a1.5 1.5 0 11-3.001-.001 1.5 1.5 0 013.001.001zM243.383 655.5a1.5 1.5 0 11-3.001-.001 1.5 1.5 0 013.001.001zM263.383 655.5a1.5 1.5 0 11-3.001-.001 1.5 1.5 0 013.001.001zM283.383 655.5a1.5 1.5 0 11-3.001-.001 1.5 1.5 0 013.001.001zM303.383 655.5a1.5 1.5 0 11-3.001-.001 1.5 1.5 0 013.001.001zM323.383 655.5a1.5 1.5 0 11-3.001-.001 1.5 1.5 0 013.001.001zM343.383 655.5a1.5 1.5 0 11-3.001-.001 1.5 1.5 0 013.001.001zM123.383 675.5a1.5 1.5 0 11-3.001-.001 1.5 1.5 0 013.001.001zM143.383 675.5a1.5 1.5 0 11-3.001-.001 1.5 1.5 0 013.001.001zM163.383 675.5a1.5 1.5 0 11-3.001-.001 1.5 1.5 0 013.001.001zM183.383 675.5a1.5 1.5 0 11-3.001-.001 1.5 1.5 0 013.001.001zM203.383 675.5a1.5 1.5 0 11-3.001-.001 1.5 1.5 0 013.001.001zM223.383 675.5a1.5 1.5 0 11-3.001-.001 1.5 1.5 0 013.001.001zM243.383 675.5a1.5 1.5 0 11-3.001-.001 1.5 1.5 0 013.001.001zM263.383 675.5a1.5 1.5 0 11-3.001-.001 1.5 1.5 0 013.001.001zM283.383 675.5a1.5 1.5 0 11-3.001-.001 1.5 1.5 0 013.001.001zM303.383 675.5a1.5 1.5 0 11-3.001-.001 1.5 1.5 0 013.001.001zM323.383 675.5a1.5 1.5 0 11-3.001-.001 1.5 1.5 0 013.001.001zM343.383 675.5a1.5 1.5 0 11-3.001-.001 1.5 1.5 0 013.001.001zM363.383 455.5a1.5 1.5 0 11-3.001-.001 1.5 1.5 0 013.001.001zM383.383 455.5a1.5 1.5 0 11-3.001-.001 1.5 1.5 0 013.001.001zM403.383 455.5a1.5 1.5 0 11-3.001-.001 1.5 1.5 0 013.001.001zM423.383 455.5a1.5 1.5 0 11-3.001-.001 1.5 1.5 0 013.001.001zM443.383 455.5a1.5 1.5 0 11-3.001-.001 1.5 1.5 0 013.001.001zM463.383 455.5a1.5 1.5 0 11-3.001-.001 1.5 1.5 0 013.001.001zM483.383 455.5a1.5 1.5 0 11-3.001-.001 1.5 1.5 0 013.001.001zM503.383 455.5a1.5 1.5 0 11-3.001-.001 1.5 1.5 0 013.001.001zM523.383 455.5a1.5 1.5 0 11-3.001-.001 1.5 1.5 0 013.001.001zM543.383 455.5a1.5 1.5 0 11-3.001-.001 1.5 1.5 0 013.001.001zM563.383 455.5a1.5 1.5 0 11-3.001-.001 1.5 1.5 0 013.001.001zM583.383 455.5a1.5 1.5 0 11-3.001-.001 1.5 1.5 0 013.001.001zM603.383 455.5a1.5 1.5 0 11-3.001-.001 1.5 1.5 0 013.001.001zM623.383 455.5a1.5 1.5 0 11-3.001-.001 1.5 1.5 0 013.001.001zM643.383 455.5a1.5 1.5 0 11-3.001-.001 1.5 1.5 0 013.001.001zM363.383 475.5a1.5 1.5 0 11-3.001-.001 1.5 1.5 0 013.001.001zM383.383 475.5a1.5 1.5 0 11-3.001-.001 1.5 1.5 0 013.001.001zM403.383 475.5a1.5 1.5 0 11-3.001-.001 1.5 1.5 0 013.001.001zM423.383 475.5a1.5 1.5 0 11-3.001-.001 1.5 1.5 0 013.001.001zM443.383 475.5a1.5 1.5 0 11-3.001-.001 1.5 1.5 0 013.001.001zM463.383 475.5a1.5 1.5 0 11-3.001-.001 1.5 1.5 0 013.001.001zM483.383 475.5a1.5 1.5 0 11-3.001-.001 1.5 1.5 0 013.001.001zM503.383 475.5a1.5 1.5 0 11-3.001-.001 1.5 1.5 0 013.001.001zM523.383 475.5a1.5 1.5 0 11-3.001-.001 1.5 1.5 0 013.001.001zM543.383 475.5a1.5 1.5 0 11-3.001-.001 1.5 1.5 0 013.001.001zM563.383 475.5a1.5 1.5 0 11-3.001-.001 1.5 1.5 0 013.001.001zM583.383 475.5a1.5 1.5 0 11-3.001-.001 1.5 1.5 0 013.001.001zM603.383 475.5a1.5 1.5 0 11-3.001-.001 1.5 1.5 0 013.001.001zM623.383 475.5a1.5 1.5 0 11-3.001-.001 1.5 1.5 0 013.001.001zM643.383 475.5a1.5 1.5 0 11-3.001-.001 1.5 1.5 0 013.001.001zM363.383 495.5a1.5 1.5 0 11-3.001-.001 1.5 1.5 0 013.001.001zM383.383 495.5a1.5 1.5 0 11-3.001-.001 1.5 1.5 0 013.001.001zM403.383 495.5a1.5 1.5 0 11-3.001-.001 1.5 1.5 0 013.001.001zM423.383 495.5a1.5 1.5 0 11-3.001-.001 1.5 1.5 0 013.001.001zM443.383 495.5a1.5 1.5 0 11-3.001-.001 1.5 1.5 0 013.001.001zM463.383 495.5a1.5 1.5 0 11-3.001-.001 1.5 1.5 0 013.001.001zM483.383 495.5a1.5 1.5 0 11-3.001-.001 1.5 1.5 0 013.001.001zM503.383 495.5a1.5 1.5 0 11-3.001-.001 1.5 1.5 0 013.001.001zM523.383 495.5a1.5 1.5 0 11-3.001-.001 1.5 1.5 0 013.001.001zM543.383 495.5a1.5 1.5 0 11-3.001-.001 1.5 1.5 0 013.001.001zM563.383 495.5a1.5 1.5 0 11-3.001-.001 1.5 1.5 0 013.001.001zM583.383 495.5a1.5 1.5 0 11-3.001-.001 1.5 1.5 0 013.001.001zM603.383 495.5a1.5 1.5 0 11-3.001-.001 1.5 1.5 0 013.001.001zM623.383 495.5a1.5 1.5 0 11-3.001-.001 1.5 1.5 0 013.001.001zM643.383 495.5a1.5 1.5 0 11-3.001-.001 1.5 1.5 0 013.001.001zM363.383 515.5a1.5 1.5 0 11-3.001-.001 1.5 1.5 0 013.001.001zM383.383 515.5a1.5 1.5 0 11-3.001-.001 1.5 1.5 0 013.001.001zM403.383 515.5a1.5 1.5 0 11-3.001-.001 1.5 1.5 0 013.001.001zM423.383 515.5a1.5 1.5 0 11-3.001-.001 1.5 1.5 0 013.001.001zM443.383 515.5a1.5 1.5 0 11-3.001-.001 1.5 1.5 0 013.001.001zM463.383 515.5a1.5 1.5 0 11-3.001-.001 1.5 1.5 0 013.001.001zM483.383 515.5a1.5 1.5 0 11-3.001-.001 1.5 1.5 0 013.001.001zM503.383 515.5a1.5 1.5 0 11-3.001-.001 1.5 1.5 0 013.001.001zM523.383 515.5a1.5 1.5 0 11-3.001-.001 1.5 1.5 0 013.001.001zM543.383 515.5a1.5 1.5 0 11-3.001-.001 1.5 1.5 0 013.001.001zM563.383 515.5a1.5 1.5 0 11-3.001-.001 1.5 1.5 0 013.001.001zM583.383 515.5a1.5 1.5 0 11-3.001-.001 1.5 1.5 0 013.001.001zM603.383 515.5a1.5 1.5 0 11-3.001-.001 1.5 1.5 0 013.001.001zM623.383 515.5a1.5 1.5 0 11-3.001-.001 1.5 1.5 0 013.001.001zM643.383 515.5a1.5 1.5 0 11-3.001-.001 1.5 1.5 0 013.001.001zM363.383 535.5a1.5 1.5 0 11-3.001-.001 1.5 1.5 0 013.001.001zM383.383 535.5a1.5 1.5 0 11-3.001-.001 1.5 1.5 0 013.001.001zM403.383 535.5a1.5 1.5 0 11-3.001-.001 1.5 1.5 0 013.001.001zM423.383 535.5a1.5 1.5 0 11-3.001-.001 1.5 1.5 0 013.001.001zM443.383 535.5a1.5 1.5 0 11-3.001-.001 1.5 1.5 0 013.001.001zM463.383 535.5a1.5 1.5 0 11-3.001-.001 1.5 1.5 0 013.001.001zM483.383 535.5a1.5 1.5 0 11-3.001-.001 1.5 1.5 0 013.001.001zM503.383 535.5a1.5 1.5 0 11-3.001-.001 1.5 1.5 0 013.001.001zM523.383 535.5a1.5 1.5 0 11-3.001-.001 1.5 1.5 0 013.001.001zM543.383 535.5a1.5 1.5 0 11-3.001-.001 1.5 1.5 0 013.001.001zM563.383 535.5a1.5 1.5 0 11-3.001-.001 1.5 1.5 0 013.001.001zM583.383 535.5a1.5 1.5 0 11-3.001-.001 1.5 1.5 0 013.001.001zM603.383 535.5a1.5 1.5 0 11-3.001-.001 1.5 1.5 0 013.001.001zM623.383 535.5a1.5 1.5 0 11-3.001-.001 1.5 1.5 0 013.001.001zM643.383 535.5a1.5 1.5 0 11-3.001-.001 1.5 1.5 0 013.001.001zM363.383 555.5a1.5 1.5 0 11-3.001-.001 1.5 1.5 0 013.001.001zM383.383 555.5a1.5 1.5 0 11-3.001-.001 1.5 1.5 0 013.001.001zM403.383 555.5a1.5 1.5 0 11-3.001-.001 1.5 1.5 0 013.001.001zM423.383 555.5a1.5 1.5 0 11-3.001-.001 1.5 1.5 0 013.001.001zM443.383 555.5a1.5 1.5 0 11-3.001-.001 1.5 1.5 0 013.001.001zM463.383 555.5a1.5 1.5 0 11-3.001-.001 1.5 1.5 0 013.001.001zM483.383 555.5a1.5 1.5 0 11-3.001-.001 1.5 1.5 0 013.001.001zM503.383 555.5a1.5 1.5 0 11-3.001-.001 1.5 1.5 0 013.001.001zM523.383 555.5a1.5 1.5 0 11-3.001-.001 1.5 1.5 0 013.001.001zM543.383 555.5a1.5 1.5 0 11-3.001-.001 1.5 1.5 0 013.001.001zM563.383 555.5a1.5 1.5 0 11-3.001-.001 1.5 1.5 0 013.001.001zM583.383 555.5a1.5 1.5 0 11-3.001-.001 1.5 1.5 0 013.001.001zM603.383 555.5a1.5 1.5 0 11-3.001-.001 1.5 1.5 0 013.001.001zM623.383 555.5a1.5 1.5 0 11-3.001-.001 1.5 1.5 0 013.001.001zM643.383 555.5a1.5 1.5 0 11-3.001-.001 1.5 1.5 0 013.001.001zM363.383 575.5a1.5 1.5 0 11-3.001-.001 1.5 1.5 0 013.001.001zM383.383 575.5a1.5 1.5 0 11-3.001-.001 1.5 1.5 0 013.001.001zM403.383 575.5a1.5 1.5 0 11-3.001-.001 1.5 1.5 0 013.001.001zM423.383 575.5a1.5 1.5 0 11-3.001-.001 1.5 1.5 0 013.001.001zM443.383 575.5a1.5 1.5 0 11-3.001-.001 1.5 1.5 0 013.001.001zM463.383 575.5a1.5 1.5 0 11-3.001-.001 1.5 1.5 0 013.001.001zM483.383 575.5a1.5 1.5 0 11-3.001-.001 1.5 1.5 0 013.001.001zM503.383 575.5a1.5 1.5 0 11-3.001-.001 1.5 1.5 0 013.001.001zM523.383 575.5a1.5 1.5 0 11-3.001-.001 1.5 1.5 0 013.001.001zM543.383 575.5a1.5 1.5 0 11-3.001-.001 1.5 1.5 0 013.001.001zM563.383 575.5a1.5 1.5 0 11-3.001-.001 1.5 1.5 0 013.001.001zM583.383 575.5a1.5 1.5 0 11-3.001-.001 1.5 1.5 0 013.001.001zM603.383 575.5a1.5 1.5 0 11-3.001-.001 1.5 1.5 0 013.001.001zM623.383 575.5a1.5 1.5 0 11-3.001-.001 1.5 1.5 0 013.001.001zM643.383 575.5a1.5 1.5 0 11-3.001-.001 1.5 1.5 0 013.001.001zM363.383 595.5a1.5 1.5 0 11-3.001-.001 1.5 1.5 0 013.001.001zM383.383 595.5a1.5 1.5 0 11-3.001-.001 1.5 1.5 0 013.001.001zM403.383 595.5a1.5 1.5 0 11-3.001-.001 1.5 1.5 0 013.001.001zM423.383 595.5a1.5 1.5 0 11-3.001-.001 1.5 1.5 0 013.001.001zM443.383 595.5a1.5 1.5 0 11-3.001-.001 1.5 1.5 0 013.001.001zM463.383 595.5a1.5 1.5 0 11-3.001-.001 1.5 1.5 0 013.001.001zM483.383 595.5a1.5 1.5 0 11-3.001-.001 1.5 1.5 0 013.001.001zM503.383 595.5a1.5 1.5 0 11-3.001-.001 1.5 1.5 0 013.001.001zM523.383 595.5a1.5 1.5 0 11-3.001-.001 1.5 1.5 0 013.001.001zM543.383 595.5a1.5 1.5 0 11-3.001-.001 1.5 1.5 0 013.001.001zM563.383 595.5a1.5 1.5 0 11-3.001-.001 1.5 1.5 0 013.001.001zM583.383 595.5a1.5 1.5 0 11-3.001-.001 1.5 1.5 0 013.001.001zM603.383 595.5a1.5 1.5 0 11-3.001-.001 1.5 1.5 0 013.001.001zM623.383 595.5a1.5 1.5 0 11-3.001-.001 1.5 1.5 0 013.001.001zM643.383 595.5a1.5 1.5 0 11-3.001-.001 1.5 1.5 0 013.001.001zM363.383 615.5a1.5 1.5 0 11-3.001-.001 1.5 1.5 0 013.001.001zM383.383 615.5a1.5 1.5 0 11-3.001-.001 1.5 1.5 0 013.001.001zM403.383 615.5a1.5 1.5 0 11-3.001-.001 1.5 1.5 0 013.001.001zM423.383 615.5a1.5 1.5 0 11-3.001-.001 1.5 1.5 0 013.001.001zM443.383 615.5a1.5 1.5 0 11-3.001-.001 1.5 1.5 0 013.001.001zM463.383 615.5a1.5 1.5 0 11-3.001-.001 1.5 1.5 0 013.001.001zM483.383 615.5a1.5 1.5 0 11-3.001-.001 1.5 1.5 0 013.001.001zM503.383 615.5a1.5 1.5 0 11-3.001-.001 1.5 1.5 0 013.001.001zM523.383 615.5a1.5 1.5 0 11-3.001-.001 1.5 1.5 0 013.001.001zM543.383 615.5a1.5 1.5 0 11-3.001-.001 1.5 1.5 0 013.001.001zM563.383 615.5a1.5 1.5 0 11-3.001-.001 1.5 1.5 0 013.001.001zM583.383 615.5a1.5 1.5 0 11-3.001-.001 1.5 1.5 0 013.001.001zM603.383 615.5a1.5 1.5 0 11-3.001-.001 1.5 1.5 0 013.001.001zM623.383 615.5a1.5 1.5 0 11-3.001-.001 1.5 1.5 0 013.001.001zM643.383 615.5a1.5 1.5 0 11-3.001-.001 1.5 1.5 0 013.001.001zM363.383 635.5a1.5 1.5 0 11-3.001-.001 1.5 1.5 0 013.001.001zM383.383 635.5a1.5 1.5 0 11-3.001-.001 1.5 1.5 0 013.001.001zM403.383 635.5a1.5 1.5 0 11-3.001-.001 1.5 1.5 0 013.001.001zM423.383 635.5a1.5 1.5 0 11-3.001-.001 1.5 1.5 0 013.001.001zM443.383 635.5a1.5 1.5 0 11-3.001-.001 1.5 1.5 0 013.001.001zM463.383 635.5a1.5 1.5 0 11-3.001-.001 1.5 1.5 0 013.001.001zM483.383 635.5a1.5 1.5 0 11-3.001-.001 1.5 1.5 0 013.001.001zM503.383 635.5a1.5 1.5 0 11-3.001-.001 1.5 1.5 0 013.001.001zM523.383 635.5a1.5 1.5 0 11-3.001-.001 1.5 1.5 0 013.001.001zM543.383 635.5a1.5 1.5 0 11-3.001-.001 1.5 1.5 0 013.001.001zM563.383 635.5a1.5 1.5 0 11-3.001-.001 1.5 1.5 0 013.001.001zM583.383 635.5a1.5 1.5 0 11-3.001-.001 1.5 1.5 0 013.001.001zM603.383 635.5a1.5 1.5 0 11-3.001-.001 1.5 1.5 0 013.001.001zM623.383 635.5a1.5 1.5 0 11-3.001-.001 1.5 1.5 0 013.001.001zM643.383 635.5a1.5 1.5 0 11-3.001-.001 1.5 1.5 0 013.001.001zM363.383 655.5a1.5 1.5 0 11-3.001-.001 1.5 1.5 0 013.001.001zM383.383 655.5a1.5 1.5 0 11-3.001-.001 1.5 1.5 0 013.001.001zM403.383 655.5a1.5 1.5 0 11-3.001-.001 1.5 1.5 0 013.001.001zM423.383 655.5a1.5 1.5 0 11-3.001-.001 1.5 1.5 0 013.001.001zM443.383 655.5a1.5 1.5 0 11-3.001-.001 1.5 1.5 0 013.001.001zM463.383 655.5a1.5 1.5 0 11-3.001-.001 1.5 1.5 0 013.001.001zM483.383 655.5a1.5 1.5 0 11-3.001-.001 1.5 1.5 0 013.001.001zM503.383 655.5a1.5 1.5 0 11-3.001-.001 1.5 1.5 0 013.001.001zM523.383 655.5a1.5 1.5 0 11-3.001-.001 1.5 1.5 0 013.001.001zM543.383 655.5a1.5 1.5 0 11-3.001-.001 1.5 1.5 0 013.001.001zM563.383 655.5a1.5 1.5 0 11-3.001-.001 1.5 1.5 0 013.001.001zM583.383 655.5a1.5 1.5 0 11-3.001-.001 1.5 1.5 0 013.001.001zM603.383 655.5a1.5 1.5 0 11-3.001-.001 1.5 1.5 0 013.001.001zM623.383 655.5a1.5 1.5 0 11-3.001-.001 1.5 1.5 0 013.001.001zM643.383 655.5a1.5 1.5 0 11-3.001-.001 1.5 1.5 0 013.001.001zM363.383 675.5a1.5 1.5 0 11-3.001-.001 1.5 1.5 0 013.001.001zM383.383 675.5a1.5 1.5 0 11-3.001-.001 1.5 1.5 0 013.001.001zM403.383 675.5a1.5 1.5 0 11-3.001-.001 1.5 1.5 0 013.001.001zM423.383 675.5a1.5 1.5 0 11-3.001-.001 1.5 1.5 0 013.001.001zM443.383 675.5a1.5 1.5 0 11-3.001-.001 1.5 1.5 0 013.001.001zM463.383 675.5a1.5 1.5 0 11-3.001-.001 1.5 1.5 0 013.001.001zM483.383 675.5a1.5 1.5 0 11-3.001-.001 1.5 1.5 0 013.001.001zM503.383 675.5a1.5 1.5 0 11-3.001-.001 1.5 1.5 0 013.001.001zM523.383 675.5a1.5 1.5 0 11-3.001-.001 1.5 1.5 0 013.001.001zM543.383 675.5a1.5 1.5 0 11-3.001-.001 1.5 1.5 0 013.001.001zM563.383 675.5a1.5 1.5 0 11-3.001-.001 1.5 1.5 0 013.001.001zM583.383 675.5a1.5 1.5 0 11-3.001-.001 1.5 1.5 0 013.001.001zM603.383 675.5a1.5 1.5 0 11-3.001-.001 1.5 1.5 0 013.001.001zM623.383 675.5a1.5 1.5 0 11-3.001-.001 1.5 1.5 0 013.001.001zM643.383 675.5a1.5 1.5 0 11-3.001-.001 1.5 1.5 0 013.001.001zM663.383 455.5a1.5 1.5 0 11-3.001-.001 1.5 1.5 0 013.001.001zM683.383 455.5a1.5 1.5 0 11-3.001-.001 1.5 1.5 0 013.001.001zM703.383 455.5a1.5 1.5 0 11-3.001-.001 1.5 1.5 0 013.001.001zM723.383 455.5a1.5 1.5 0 11-3.001-.001 1.5 1.5 0 013.001.001zM743.383 455.5a1.5 1.5 0 11-3.001-.001 1.5 1.5 0 013.001.001zM763.383 455.5a1.5 1.5 0 11-3.001-.001 1.5 1.5 0 013.001.001zM783.383 455.5a1.5 1.5 0 11-3.001-.001 1.5 1.5 0 013.001.001zM803.383 455.5a1.5 1.5 0 11-3.001-.001 1.5 1.5 0 013.001.001zM823.383 455.5a1.5 1.5 0 11-3.001-.001 1.5 1.5 0 013.001.001zM663.383 475.5a1.5 1.5 0 11-3.001-.001 1.5 1.5 0 013.001.001zM683.383 475.5a1.5 1.5 0 11-3.001-.001 1.5 1.5 0 013.001.001zM703.383 475.5a1.5 1.5 0 11-3.001-.001 1.5 1.5 0 013.001.001zM723.383 475.5a1.5 1.5 0 11-3.001-.001 1.5 1.5 0 013.001.001zM743.383 475.5a1.5 1.5 0 11-3.001-.001 1.5 1.5 0 013.001.001zM763.383 475.5a1.5 1.5 0 11-3.001-.001 1.5 1.5 0 013.001.001zM783.383 475.5a1.5 1.5 0 11-3.001-.001 1.5 1.5 0 013.001.001zM803.383 475.5a1.5 1.5 0 11-3.001-.001 1.5 1.5 0 013.001.001zM823.383 475.5a1.5 1.5 0 11-3.001-.001 1.5 1.5 0 013.001.001zM663.383 495.5a1.5 1.5 0 11-3.001-.001 1.5 1.5 0 013.001.001zM683.383 495.5a1.5 1.5 0 11-3.001-.001 1.5 1.5 0 013.001.001zM703.383 495.5a1.5 1.5 0 11-3.001-.001 1.5 1.5 0 013.001.001zM723.383 495.5a1.5 1.5 0 11-3.001-.001 1.5 1.5 0 013.001.001zM743.383 495.5a1.5 1.5 0 11-3.001-.001 1.5 1.5 0 013.001.001zM763.383 495.5a1.5 1.5 0 11-3.001-.001 1.5 1.5 0 013.001.001zM783.383 495.5a1.5 1.5 0 11-3.001-.001 1.5 1.5 0 013.001.001zM803.383 495.5a1.5 1.5 0 11-3.001-.001 1.5 1.5 0 013.001.001zM823.383 495.5a1.5 1.5 0 11-3.001-.001 1.5 1.5 0 013.001.001zM663.383 515.5a1.5 1.5 0 11-3.001-.001 1.5 1.5 0 013.001.001zM683.383 515.5a1.5 1.5 0 11-3.001-.001 1.5 1.5 0 013.001.001zM703.383 515.5a1.5 1.5 0 11-3.001-.001 1.5 1.5 0 013.001.001zM723.383 515.5a1.5 1.5 0 11-3.001-.001 1.5 1.5 0 013.001.001zM743.383 515.5a1.5 1.5 0 11-3.001-.001 1.5 1.5 0 013.001.001zM763.383 515.5a1.5 1.5 0 11-3.001-.001 1.5 1.5 0 013.001.001zM783.383 515.5a1.5 1.5 0 11-3.001-.001 1.5 1.5 0 013.001.001zM803.383 515.5a1.5 1.5 0 11-3.001-.001 1.5 1.5 0 013.001.001zM823.383 515.5a1.5 1.5 0 11-3.001-.001 1.5 1.5 0 013.001.001zM663.383 535.5a1.5 1.5 0 11-3.001-.001 1.5 1.5 0 013.001.001zM683.383 535.5a1.5 1.5 0 11-3.001-.001 1.5 1.5 0 013.001.001zM703.383 535.5a1.5 1.5 0 11-3.001-.001 1.5 1.5 0 013.001.001zM723.383 535.5a1.5 1.5 0 11-3.001-.001 1.5 1.5 0 013.001.001zM743.383 535.5a1.5 1.5 0 11-3.001-.001 1.5 1.5 0 013.001.001zM763.383 535.5a1.5 1.5 0 11-3.001-.001 1.5 1.5 0 013.001.001zM783.383 535.5a1.5 1.5 0 11-3.001-.001 1.5 1.5 0 013.001.001zM803.383 535.5a1.5 1.5 0 11-3.001-.001 1.5 1.5 0 013.001.001zM823.383 535.5a1.5 1.5 0 11-3.001-.001 1.5 1.5 0 013.001.001zM663.383 555.5a1.5 1.5 0 11-3.001-.001 1.5 1.5 0 013.001.001zM683.383 555.5a1.5 1.5 0 11-3.001-.001 1.5 1.5 0 013.001.001zM703.383 555.5a1.5 1.5 0 11-3.001-.001 1.5 1.5 0 013.001.001zM723.383 555.5a1.5 1.5 0 11-3.001-.001 1.5 1.5 0 013.001.001zM743.383 555.5a1.5 1.5 0 11-3.001-.001 1.5 1.5 0 013.001.001zM763.383 555.5a1.5 1.5 0 11-3.001-.001 1.5 1.5 0 013.001.001zM783.383 555.5a1.5 1.5 0 11-3.001-.001 1.5 1.5 0 013.001.001zM803.383 555.5a1.5 1.5 0 11-3.001-.001 1.5 1.5 0 013.001.001zM823.383 555.5a1.5 1.5 0 11-3.001-.001 1.5 1.5 0 013.001.001zM663.383 575.5a1.5 1.5 0 11-3.001-.001 1.5 1.5 0 013.001.001zM683.383 575.5a1.5 1.5 0 11-3.001-.001 1.5 1.5 0 013.001.001zM703.383 575.5a1.5 1.5 0 11-3.001-.001 1.5 1.5 0 013.001.001zM723.383 575.5a1.5 1.5 0 11-3.001-.001 1.5 1.5 0 013.001.001zM743.383 575.5a1.5 1.5 0 11-3.001-.001 1.5 1.5 0 013.001.001zM763.383 575.5a1.5 1.5 0 11-3.001-.001 1.5 1.5 0 013.001.001zM783.383 575.5a1.5 1.5 0 11-3.001-.001 1.5 1.5 0 013.001.001zM803.383 575.5a1.5 1.5 0 11-3.001-.001 1.5 1.5 0 013.001.001zM823.383 575.5a1.5 1.5 0 11-3.001-.001 1.5 1.5 0 013.001.001zM663.383 595.5a1.5 1.5 0 11-3.001-.001 1.5 1.5 0 013.001.001zM683.383 595.5a1.5 1.5 0 11-3.001-.001 1.5 1.5 0 013.001.001zM703.383 595.5a1.5 1.5 0 11-3.001-.001 1.5 1.5 0 013.001.001zM723.383 595.5a1.5 1.5 0 11-3.001-.001 1.5 1.5 0 013.001.001zM743.383 595.5a1.5 1.5 0 11-3.001-.001 1.5 1.5 0 013.001.001zM763.383 595.5a1.5 1.5 0 11-3.001-.001 1.5 1.5 0 013.001.001zM783.383 595.5a1.5 1.5 0 11-3.001-.001 1.5 1.5 0 013.001.001zM803.383 595.5a1.5 1.5 0 11-3.001-.001 1.5 1.5 0 013.001.001zM663.383 615.5a1.5 1.5 0 11-3.001-.001 1.5 1.5 0 013.001.001zM683.383 615.5a1.5 1.5 0 11-3.001-.001 1.5 1.5 0 013.001.001zM703.383 615.5a1.5 1.5 0 11-3.001-.001 1.5 1.5 0 013.001.001zM723.383 615.5a1.5 1.5 0 11-3.001-.001 1.5 1.5 0 013.001.001zM743.383 615.5a1.5 1.5 0 11-3.001-.001 1.5 1.5 0 013.001.001zM763.383 615.5a1.5 1.5 0 11-3.001-.001 1.5 1.5 0 013.001.001zM663.383 635.5a1.5 1.5 0 11-3.001-.001 1.5 1.5 0 013.001.001zM683.383 635.5a1.5 1.5 0 11-3.001-.001 1.5 1.5 0 013.001.001zM703.383 635.5a1.5 1.5 0 11-3.001-.001 1.5 1.5 0 013.001.001zM723.383 635.5a1.5 1.5 0 11-3.001-.001 1.5 1.5 0 013.001.001zM663.383 655.5a1.5 1.5 0 11-3.001-.001 1.5 1.5 0 013.001.001zM683.383 655.5a1.5 1.5 0 11-3.001-.001 1.5 1.5 0 013.001.001zM143.383 695.5a1.5 1.5 0 11-3.001-.001 1.5 1.5 0 013.001.001zM163.383 695.5a1.5 1.5 0 11-3.001-.001 1.5 1.5 0 013.001.001zM183.383 695.5a1.5 1.5 0 11-3.001-.001 1.5 1.5 0 013.001.001zM203.383 695.5a1.5 1.5 0 11-3.001-.001 1.5 1.5 0 013.001.001zM223.383 695.5a1.5 1.5 0 11-3.001-.001 1.5 1.5 0 013.001.001zM243.383 695.5a1.5 1.5 0 11-3.001-.001 1.5 1.5 0 013.001.001zM263.383 695.5a1.5 1.5 0 11-3.001-.001 1.5 1.5 0 013.001.001zM283.383 695.5a1.5 1.5 0 11-3.001-.001 1.5 1.5 0 013.001.001zM303.383 695.5a1.5 1.5 0 11-3.001-.001 1.5 1.5 0 013.001.001zM323.383 695.5a1.5 1.5 0 11-3.001-.001 1.5 1.5 0 013.001.001zM343.383 695.5a1.5 1.5 0 11-3.001-.001 1.5 1.5 0 013.001.001zM363.383 695.5a1.5 1.5 0 11-3.001-.001 1.5 1.5 0 013.001.001zM383.383 695.5a1.5 1.5 0 11-3.001-.001 1.5 1.5 0 013.001.001zM403.383 695.5a1.5 1.5 0 11-3.001-.001 1.5 1.5 0 013.001.001zM423.383 695.5a1.5 1.5 0 11-3.001-.001 1.5 1.5 0 013.001.001zM443.383 695.5a1.5 1.5 0 11-3.001-.001 1.5 1.5 0 013.001.001zM463.383 695.5a1.5 1.5 0 11-3.001-.001 1.5 1.5 0 013.001.001zM483.383 695.5a1.5 1.5 0 11-3.001-.001 1.5 1.5 0 013.001.001zM503.383 695.5a1.5 1.5 0 11-3.001-.001 1.5 1.5 0 013.001.001zM523.383 695.5a1.5 1.5 0 11-3.001-.001 1.5 1.5 0 013.001.001zM543.383 695.5a1.5 1.5 0 11-3.001-.001 1.5 1.5 0 013.001.001zM563.383 695.5a1.5 1.5 0 11-3.001-.001 1.5 1.5 0 013.001.001zM583.383 695.5a1.5 1.5 0 11-3.001-.001 1.5 1.5 0 013.001.001zM43.383 135.5a1.5 1.5 0 11-3 0 1.5 1.5 0 013 0zM23.383 155.5a1.5 1.5 0 11-3 0 1.5 1.5 0 013 0zM43.383 155.5a1.5 1.5 0 11-3 0 1.5 1.5 0 013 0zM23.383 175.5a1.5 1.5 0 11-3 0 1.5 1.5 0 013 0zM43.383 175.5a1.5 1.5 0 11-3 0 1.5 1.5 0 013 0zM23.383 195.5a1.5 1.5 0 11-3 0 1.5 1.5 0 013 0zM43.383 195.5a1.5 1.5 0 11-3 0 1.5 1.5 0 013 0zM243.383 15.5a1.5 1.5 0 11-3 0 1.5 1.5 0 013 0zM263.383 15.5a1.5 1.5 0 11-3 0 1.5 1.5 0 013 0zM283.383 15.5a1.5 1.5 0 11-3 0 1.5 1.5 0 013 0zM303.383 15.5a1.5 1.5 0 11-3 0 1.5 1.5 0 013 0zM323.383 15.5a1.5 1.5 0 11-3 0 1.5 1.5 0 013 0zM343.383 15.5a1.5 1.5 0 11-3 0 1.5 1.5 0 013 0zM123.383 35.5a1.5 1.5 0 11-3 0 1.5 1.5 0 013 0zM143.383 35.5a1.5 1.5 0 11-3 0 1.5 1.5 0 013 0zM163.383 35.5a1.5 1.5 0 11-3 0 1.5 1.5 0 013 0zM183.383 35.5a1.5 1.5 0 11-3 0 1.5 1.5 0 013 0zM203.383 35.5a1.5 1.5 0 11-3 0 1.5 1.5 0 013 0zM223.383 35.5a1.5 1.5 0 11-3 0 1.5 1.5 0 013 0zM243.383 35.5a1.5 1.5 0 11-3 0 1.5 1.5 0 013 0zM263.383 35.5a1.5 1.5 0 11-3 0 1.5 1.5 0 013 0zM283.383 35.5a1.5 1.5 0 11-3 0 1.5 1.5 0 013 0zM303.383 35.5a1.5 1.5 0 11-3 0 1.5 1.5 0 013 0zM323.383 35.5a1.5 1.5 0 11-3 0 1.5 1.5 0 013 0zM343.383 35.5a1.5 1.5 0 11-3 0 1.5 1.5 0 013 0zM103.383 55.5a1.5 1.5 0 11-3 0 1.5 1.5 0 013 0zM123.383 55.5a1.5 1.5 0 11-3 0 1.5 1.5 0 013 0zM143.383 55.5a1.5 1.5 0 11-3 0 1.5 1.5 0 013 0zM163.383 55.5a1.5 1.5 0 11-3 0 1.5 1.5 0 013 0zM183.383 55.5a1.5 1.5 0 11-3 0 1.5 1.5 0 013 0zM203.383 55.5a1.5 1.5 0 11-3 0 1.5 1.5 0 013 0zM223.383 55.5a1.5 1.5 0 11-3 0 1.5 1.5 0 013 0zM243.383 55.5a1.5 1.5 0 11-3 0 1.5 1.5 0 013 0zM263.383 55.5a1.5 1.5 0 11-3 0 1.5 1.5 0 013 0zM283.383 55.5a1.5 1.5 0 11-3 0 1.5 1.5 0 013 0zM303.383 55.5a1.5 1.5 0 11-3 0 1.5 1.5 0 013 0zM323.383 55.5a1.5 1.5 0 11-3 0 1.5 1.5 0 013 0zM343.383 55.5a1.5 1.5 0 11-3 0 1.5 1.5 0 013 0zM83.383 75.5a1.5 1.5 0 11-3 0 1.5 1.5 0 013 0zM103.383 75.5a1.5 1.5 0 11-3 0 1.5 1.5 0 013 0zM123.383 75.5a1.5 1.5 0 11-3 0 1.5 1.5 0 013 0zM143.383 75.5a1.5 1.5 0 11-3 0 1.5 1.5 0 013 0zM163.383 75.5a1.5 1.5 0 11-3 0 1.5 1.5 0 013 0zM183.383 75.5a1.5 1.5 0 11-3 0 1.5 1.5 0 013 0zM203.383 75.5a1.5 1.5 0 11-3 0 1.5 1.5 0 013 0zM223.383 75.5a1.5 1.5 0 11-3 0 1.5 1.5 0 013 0zM243.383 75.5a1.5 1.5 0 11-3 0 1.5 1.5 0 013 0zM263.383 75.5a1.5 1.5 0 11-3 0 1.5 1.5 0 013 0zM283.383 75.5a1.5 1.5 0 11-3 0 1.5 1.5 0 013 0zM303.383 75.5a1.5 1.5 0 11-3 0 1.5 1.5 0 013 0zM323.383 75.5a1.5 1.5 0 11-3 0 1.5 1.5 0 013 0zM343.383 75.5a1.5 1.5 0 11-3 0 1.5 1.5 0 013 0zM83.383 95.5a1.5 1.5 0 11-3 0 1.5 1.5 0 013 0zM103.383 95.5a1.5 1.5 0 11-3 0 1.5 1.5 0 013 0zM123.383 95.5a1.5 1.5 0 11-3 0 1.5 1.5 0 013 0zM143.383 95.5a1.5 1.5 0 11-3 0 1.5 1.5 0 013 0zM163.383 95.5a1.5 1.5 0 11-3 0 1.5 1.5 0 013 0zM183.383 95.5a1.5 1.5 0 11-3 0 1.5 1.5 0 013 0zM203.383 95.5a1.5 1.5 0 11-3 0 1.5 1.5 0 013 0zM223.383 95.5a1.5 1.5 0 11-3 0 1.5 1.5 0 013 0zM243.383 95.5a1.5 1.5 0 11-3 0 1.5 1.5 0 013 0zM263.383 95.5a1.5 1.5 0 11-3 0 1.5 1.5 0 013 0zM283.383 95.5a1.5 1.5 0 11-3 0 1.5 1.5 0 013 0zM303.383 95.5a1.5 1.5 0 11-3 0 1.5 1.5 0 013 0zM323.383 95.5a1.5 1.5 0 11-3 0 1.5 1.5 0 013 0zM343.383 95.5a1.5 1.5 0 11-3 0 1.5 1.5 0 013 0zM63.383 115.5a1.5 1.5 0 11-3 0 1.5 1.5 0 013 0zM83.383 115.5a1.5 1.5 0 11-3 0 1.5 1.5 0 013 0zM103.383 115.5a1.5 1.5 0 11-3.001-.001 1.5 1.5 0 013.001.001zM123.383 115.5a1.5 1.5 0 11-3.001-.001 1.5 1.5 0 013.001.001zM143.383 115.5a1.5 1.5 0 11-3.001-.001 1.5 1.5 0 013.001.001zM163.383 115.5a1.5 1.5 0 11-3.001-.001 1.5 1.5 0 013.001.001zM183.383 115.5a1.5 1.5 0 11-3.001-.001 1.5 1.5 0 013.001.001zM203.383 115.5a1.5 1.5 0 11-3.001-.001 1.5 1.5 0 013.001.001zM223.383 115.5a1.5 1.5 0 11-3.001-.001 1.5 1.5 0 013.001.001zM243.383 115.5a1.5 1.5 0 11-3.001-.001 1.5 1.5 0 013.001.001zM263.383 115.5a1.5 1.5 0 11-3.001-.001 1.5 1.5 0 013.001.001zM283.383 115.5a1.5 1.5 0 11-3.001-.001 1.5 1.5 0 013.001.001zM303.383 115.5a1.5 1.5 0 11-3.001-.001 1.5 1.5 0 013.001.001zM323.383 115.5a1.5 1.5 0 11-3.001-.001 1.5 1.5 0 013.001.001zM343.383 115.5a1.5 1.5 0 11-3.001-.001 1.5 1.5 0 013.001.001zM63.383 135.5a1.5 1.5 0 11-3 0 1.5 1.5 0 013 0zM83.383 135.5a1.5 1.5 0 11-3 0 1.5 1.5 0 013 0zM103.383 135.5a1.5 1.5 0 11-3.001-.001 1.5 1.5 0 013.001.001zM123.383 135.5a1.5 1.5 0 11-3.001-.001 1.5 1.5 0 013.001.001zM143.383 135.5a1.5 1.5 0 11-3.001-.001 1.5 1.5 0 013.001.001zM163.383 135.5a1.5 1.5 0 11-3.001-.001 1.5 1.5 0 013.001.001zM183.383 135.5a1.5 1.5 0 11-3.001-.001 1.5 1.5 0 013.001.001zM203.383 135.5a1.5 1.5 0 11-3.001-.001 1.5 1.5 0 013.001.001zM223.383 135.5a1.5 1.5 0 11-3.001-.001 1.5 1.5 0 013.001.001zM243.383 135.5a1.5 1.5 0 11-3.001-.001 1.5 1.5 0 013.001.001zM263.383 135.5a1.5 1.5 0 11-3.001-.001 1.5 1.5 0 013.001.001zM283.383 135.5a1.5 1.5 0 11-3.001-.001 1.5 1.5 0 013.001.001zM303.383 135.5a1.5 1.5 0 11-3.001-.001 1.5 1.5 0 013.001.001zM323.383 135.5a1.5 1.5 0 11-3.001-.001 1.5 1.5 0 013.001.001zM343.383 135.5a1.5 1.5 0 11-3.001-.001 1.5 1.5 0 013.001.001zM63.383 155.5a1.5 1.5 0 11-3 0 1.5 1.5 0 013 0zM83.383 155.5a1.5 1.5 0 11-3 0 1.5 1.5 0 013 0zM103.383 155.5a1.5 1.5 0 11-3.001-.001 1.5 1.5 0 013.001.001zM123.383 155.5a1.5 1.5 0 11-3.001-.001 1.5 1.5 0 013.001.001zM143.383 155.5a1.5 1.5 0 11-3.001-.001 1.5 1.5 0 013.001.001zM163.383 155.5a1.5 1.5 0 11-3.001-.001 1.5 1.5 0 013.001.001zM183.383 155.5a1.5 1.5 0 11-3.001-.001 1.5 1.5 0 013.001.001zM203.383 155.5a1.5 1.5 0 11-3.001-.001 1.5 1.5 0 013.001.001zM223.383 155.5a1.5 1.5 0 11-3.001-.001 1.5 1.5 0 013.001.001zM243.383 155.5a1.5 1.5 0 11-3.001-.001 1.5 1.5 0 013.001.001zM263.383 155.5a1.5 1.5 0 11-3.001-.001 1.5 1.5 0 013.001.001zM283.383 155.5a1.5 1.5 0 11-3.001-.001 1.5 1.5 0 013.001.001zM303.383 155.5a1.5 1.5 0 11-3.001-.001 1.5 1.5 0 013.001.001zM323.383 155.5a1.5 1.5 0 11-3.001-.001 1.5 1.5 0 013.001.001zM343.383 155.5a1.5 1.5 0 11-3.001-.001 1.5 1.5 0 013.001.001zM63.383 175.5a1.5 1.5 0 11-3 0 1.5 1.5 0 013 0zM83.383 175.5a1.5 1.5 0 11-3 0 1.5 1.5 0 013 0zM103.383 175.5a1.5 1.5 0 11-3.001-.001 1.5 1.5 0 013.001.001zM123.383 175.5a1.5 1.5 0 11-3.001-.001 1.5 1.5 0 013.001.001zM143.383 175.5a1.5 1.5 0 11-3.001-.001 1.5 1.5 0 013.001.001zM163.383 175.5a1.5 1.5 0 11-3.001-.001 1.5 1.5 0 013.001.001zM183.383 175.5a1.5 1.5 0 11-3.001-.001 1.5 1.5 0 013.001.001zM203.383 175.5a1.5 1.5 0 11-3.001-.001 1.5 1.5 0 013.001.001zM223.383 175.5a1.5 1.5 0 11-3.001-.001 1.5 1.5 0 013.001.001zM243.383 175.5a1.5 1.5 0 11-3.001-.001 1.5 1.5 0 013.001.001zM263.383 175.5a1.5 1.5 0 11-3.001-.001 1.5 1.5 0 013.001.001zM283.383 175.5a1.5 1.5 0 11-3.001-.001 1.5 1.5 0 013.001.001zM303.383 175.5a1.5 1.5 0 11-3.001-.001 1.5 1.5 0 013.001.001zM323.383 175.5a1.5 1.5 0 11-3.001-.001 1.5 1.5 0 013.001.001zM343.383 175.5a1.5 1.5 0 11-3.001-.001 1.5 1.5 0 013.001.001zM63.383 195.5a1.5 1.5 0 11-3 0 1.5 1.5 0 013 0zM83.383 195.5a1.5 1.5 0 11-3 0 1.5 1.5 0 013 0zM103.383 195.5a1.5 1.5 0 11-3.001-.001 1.5 1.5 0 013.001.001zM123.383 195.5a1.5 1.5 0 11-3.001-.001 1.5 1.5 0 013.001.001zM143.383 195.5a1.5 1.5 0 11-3.001-.001 1.5 1.5 0 013.001.001zM163.383 195.5a1.5 1.5 0 11-3.001-.001 1.5 1.5 0 013.001.001zM183.383 195.5a1.5 1.5 0 11-3.001-.001 1.5 1.5 0 013.001.001zM203.383 195.5a1.5 1.5 0 11-3.001-.001 1.5 1.5 0 013.001.001zM223.383 195.5a1.5 1.5 0 11-3.001-.001 1.5 1.5 0 013.001.001zM243.383 195.5a1.5 1.5 0 11-3.001-.001 1.5 1.5 0 013.001.001zM263.383 195.5a1.5 1.5 0 11-3.001-.001 1.5 1.5 0 013.001.001zM283.383 195.5a1.5 1.5 0 11-3.001-.001 1.5 1.5 0 013.001.001zM303.383 195.5a1.5 1.5 0 11-3.001-.001 1.5 1.5 0 013.001.001zM323.383 195.5a1.5 1.5 0 11-3.001-.001 1.5 1.5 0 013.001.001zM343.383 195.5a1.5 1.5 0 11-3.001-.001 1.5 1.5 0 013.001.001zM363.383 15.5a1.5 1.5 0 11-3 0 1.5 1.5 0 013 0zM383.383 15.5a1.5 1.5 0 11-3 0 1.5 1.5 0 013 0zM403.383 15.5a1.5 1.5 0 11-3 0 1.5 1.5 0 013 0zM423.383 15.5a1.5 1.5 0 11-3 0 1.5 1.5 0 013 0zM443.383 15.5a1.5 1.5 0 11-3 0 1.5 1.5 0 013 0zM463.383 15.5a1.5 1.5 0 11-3 0 1.5 1.5 0 013 0zM483.383 15.5a1.5 1.5 0 11-3 0 1.5 1.5 0 013 0zM503.383 15.5a1.5 1.5 0 11-3 0 1.5 1.5 0 013 0zM523.383 15.5a1.5 1.5 0 11-3 0 1.5 1.5 0 013 0zM543.383 15.5a1.5 1.5 0 11-3 0 1.5 1.5 0 013 0zM563.383 15.5a1.5 1.5 0 11-3 0 1.5 1.5 0 013 0zM583.383 15.5a1.5 1.5 0 11-3 0 1.5 1.5 0 013 0zM603.383 15.5a1.5 1.5 0 11-3 0 1.5 1.5 0 013 0zM623.383 15.5a1.5 1.5 0 11-3 0 1.5 1.5 0 013 0zM643.383 15.5a1.5 1.5 0 11-3 0 1.5 1.5 0 013 0zM363.383 35.5a1.5 1.5 0 11-3 0 1.5 1.5 0 013 0zM383.383 35.5a1.5 1.5 0 11-3 0 1.5 1.5 0 013 0zM403.383 35.5a1.5 1.5 0 11-3 0 1.5 1.5 0 013 0zM423.383 35.5a1.5 1.5 0 11-3 0 1.5 1.5 0 013 0zM443.383 35.5a1.5 1.5 0 11-3 0 1.5 1.5 0 013 0zM463.383 35.5a1.5 1.5 0 11-3 0 1.5 1.5 0 013 0zM483.383 35.5a1.5 1.5 0 11-3 0 1.5 1.5 0 013 0zM503.383 35.5a1.5 1.5 0 11-3 0 1.5 1.5 0 013 0zM523.383 35.5a1.5 1.5 0 11-3 0 1.5 1.5 0 013 0zM543.383 35.5a1.5 1.5 0 11-3 0 1.5 1.5 0 013 0zM563.383 35.5a1.5 1.5 0 11-3 0 1.5 1.5 0 013 0zM583.383 35.5a1.5 1.5 0 11-3 0 1.5 1.5 0 013 0zM603.383 35.5a1.5 1.5 0 11-3 0 1.5 1.5 0 013 0zM623.383 35.5a1.5 1.5 0 11-3 0 1.5 1.5 0 013 0zM643.383 35.5a1.5 1.5 0 11-3 0 1.5 1.5 0 013 0zM363.383 55.5a1.5 1.5 0 11-3 0 1.5 1.5 0 013 0zM383.383 55.5a1.5 1.5 0 11-3 0 1.5 1.5 0 013 0zM403.383 55.5a1.5 1.5 0 11-3 0 1.5 1.5 0 013 0zM423.383 55.5a1.5 1.5 0 11-3 0 1.5 1.5 0 013 0zM443.383 55.5a1.5 1.5 0 11-3 0 1.5 1.5 0 013 0zM463.383 55.5a1.5 1.5 0 11-3 0 1.5 1.5 0 013 0zM483.383 55.5a1.5 1.5 0 11-3 0 1.5 1.5 0 013 0zM503.383 55.5a1.5 1.5 0 11-3 0 1.5 1.5 0 013 0zM523.383 55.5a1.5 1.5 0 11-3 0 1.5 1.5 0 013 0zM543.383 55.5a1.5 1.5 0 11-3 0 1.5 1.5 0 013 0zM563.383 55.5a1.5 1.5 0 11-3 0 1.5 1.5 0 013 0zM583.383 55.5a1.5 1.5 0 11-3 0 1.5 1.5 0 013 0zM603.383 55.5a1.5 1.5 0 11-3 0 1.5 1.5 0 013 0zM623.383 55.5a1.5 1.5 0 11-3 0 1.5 1.5 0 013 0zM643.383 55.5a1.5 1.5 0 11-3 0 1.5 1.5 0 013 0zM363.383 75.5a1.5 1.5 0 11-3 0 1.5 1.5 0 013 0zM383.383 75.5a1.5 1.5 0 11-3 0 1.5 1.5 0 013 0zM403.383 75.5a1.5 1.5 0 11-3 0 1.5 1.5 0 013 0zM423.383 75.5a1.5 1.5 0 11-3 0 1.5 1.5 0 013 0zM443.383 75.5a1.5 1.5 0 11-3 0 1.5 1.5 0 013 0zM463.383 75.5a1.5 1.5 0 11-3 0 1.5 1.5 0 013 0zM483.383 75.5a1.5 1.5 0 11-3 0 1.5 1.5 0 013 0zM503.383 75.5a1.5 1.5 0 11-3 0 1.5 1.5 0 013 0zM523.383 75.5a1.5 1.5 0 11-3 0 1.5 1.5 0 013 0zM543.383 75.5a1.5 1.5 0 11-3 0 1.5 1.5 0 013 0zM563.383 75.5a1.5 1.5 0 11-3 0 1.5 1.5 0 013 0zM583.383 75.5a1.5 1.5 0 11-3 0 1.5 1.5 0 013 0zM603.383 75.5a1.5 1.5 0 11-3 0 1.5 1.5 0 013 0zM623.383 75.5a1.5 1.5 0 11-3 0 1.5 1.5 0 013 0zM643.383 75.5a1.5 1.5 0 11-3 0 1.5 1.5 0 013 0zM363.383 95.5a1.5 1.5 0 11-3 0 1.5 1.5 0 013 0zM383.383 95.5a1.5 1.5 0 11-3 0 1.5 1.5 0 013 0zM403.383 95.5a1.5 1.5 0 11-3 0 1.5 1.5 0 013 0zM423.383 95.5a1.5 1.5 0 11-3 0 1.5 1.5 0 013 0zM443.383 95.5a1.5 1.5 0 11-3 0 1.5 1.5 0 013 0zM463.383 95.5a1.5 1.5 0 11-3 0 1.5 1.5 0 013 0zM483.383 95.5a1.5 1.5 0 11-3 0 1.5 1.5 0 013 0zM503.383 95.5a1.5 1.5 0 11-3 0 1.5 1.5 0 013 0zM523.383 95.5a1.5 1.5 0 11-3 0 1.5 1.5 0 013 0zM543.383 95.5a1.5 1.5 0 11-3 0 1.5 1.5 0 013 0zM563.383 95.5a1.5 1.5 0 11-3 0 1.5 1.5 0 013 0zM583.383 95.5a1.5 1.5 0 11-3 0 1.5 1.5 0 013 0zM603.383 95.5a1.5 1.5 0 11-3 0 1.5 1.5 0 013 0zM623.383 95.5a1.5 1.5 0 11-3 0 1.5 1.5 0 013 0zM643.383 95.5a1.5 1.5 0 11-3 0 1.5 1.5 0 013 0zM363.383 115.5a1.5 1.5 0 11-3.001-.001 1.5 1.5 0 013.001.001zM383.383 115.5a1.5 1.5 0 11-3.001-.001 1.5 1.5 0 013.001.001zM403.383 115.5a1.5 1.5 0 11-3.001-.001 1.5 1.5 0 013.001.001zM423.383 115.5a1.5 1.5 0 11-3.001-.001 1.5 1.5 0 013.001.001zM443.383 115.5a1.5 1.5 0 11-3.001-.001 1.5 1.5 0 013.001.001zM463.383 115.5a1.5 1.5 0 11-3.001-.001 1.5 1.5 0 013.001.001zM483.383 115.5a1.5 1.5 0 11-3.001-.001 1.5 1.5 0 013.001.001zM503.383 115.5a1.5 1.5 0 11-3.001-.001 1.5 1.5 0 013.001.001zM523.383 115.5a1.5 1.5 0 11-3.001-.001 1.5 1.5 0 013.001.001zM543.383 115.5a1.5 1.5 0 11-3.001-.001 1.5 1.5 0 013.001.001zM563.383 115.5a1.5 1.5 0 11-3.001-.001 1.5 1.5 0 013.001.001zM583.383 115.5a1.5 1.5 0 11-3.001-.001 1.5 1.5 0 013.001.001zM603.383 115.5a1.5 1.5 0 11-3.001-.001 1.5 1.5 0 013.001.001zM623.383 115.5a1.5 1.5 0 11-3.001-.001 1.5 1.5 0 013.001.001zM643.383 115.5a1.5 1.5 0 11-3.001-.001 1.5 1.5 0 013.001.001zM363.383 135.5a1.5 1.5 0 11-3.001-.001 1.5 1.5 0 013.001.001zM383.383 135.5a1.5 1.5 0 11-3.001-.001 1.5 1.5 0 013.001.001zM403.383 135.5a1.5 1.5 0 11-3.001-.001 1.5 1.5 0 013.001.001zM423.383 135.5a1.5 1.5 0 11-3.001-.001 1.5 1.5 0 013.001.001zM443.383 135.5a1.5 1.5 0 11-3.001-.001 1.5 1.5 0 013.001.001zM463.383 135.5a1.5 1.5 0 11-3.001-.001 1.5 1.5 0 013.001.001zM483.383 135.5a1.5 1.5 0 11-3.001-.001 1.5 1.5 0 013.001.001zM503.383 135.5a1.5 1.5 0 11-3.001-.001 1.5 1.5 0 013.001.001zM523.383 135.5a1.5 1.5 0 11-3.001-.001 1.5 1.5 0 013.001.001zM543.383 135.5a1.5 1.5 0 11-3.001-.001 1.5 1.5 0 013.001.001zM563.383 135.5a1.5 1.5 0 11-3.001-.001 1.5 1.5 0 013.001.001zM583.383 135.5a1.5 1.5 0 11-3.001-.001 1.5 1.5 0 013.001.001zM603.383 135.5a1.5 1.5 0 11-3.001-.001 1.5 1.5 0 013.001.001zM623.383 135.5a1.5 1.5 0 11-3.001-.001 1.5 1.5 0 013.001.001zM643.383 135.5a1.5 1.5 0 11-3.001-.001 1.5 1.5 0 013.001.001zM363.383 155.5a1.5 1.5 0 11-3.001-.001 1.5 1.5 0 013.001.001zM383.383 155.5a1.5 1.5 0 11-3.001-.001 1.5 1.5 0 013.001.001zM403.383 155.5a1.5 1.5 0 11-3.001-.001 1.5 1.5 0 013.001.001zM423.383 155.5a1.5 1.5 0 11-3.001-.001 1.5 1.5 0 013.001.001zM443.383 155.5a1.5 1.5 0 11-3.001-.001 1.5 1.5 0 013.001.001zM463.383 155.5a1.5 1.5 0 11-3.001-.001 1.5 1.5 0 013.001.001zM483.383 155.5a1.5 1.5 0 11-3.001-.001 1.5 1.5 0 013.001.001zM503.383 155.5a1.5 1.5 0 11-3.001-.001 1.5 1.5 0 013.001.001zM523.383 155.5a1.5 1.5 0 11-3.001-.001 1.5 1.5 0 013.001.001zM543.383 155.5a1.5 1.5 0 11-3.001-.001 1.5 1.5 0 013.001.001zM563.383 155.5a1.5 1.5 0 11-3.001-.001 1.5 1.5 0 013.001.001zM583.383 155.5a1.5 1.5 0 11-3.001-.001 1.5 1.5 0 013.001.001zM603.383 155.5a1.5 1.5 0 11-3.001-.001 1.5 1.5 0 013.001.001zM623.383 155.5a1.5 1.5 0 11-3.001-.001 1.5 1.5 0 013.001.001zM643.383 155.5a1.5 1.5 0 11-3.001-.001 1.5 1.5 0 013.001.001zM363.383 175.5a1.5 1.5 0 11-3.001-.001 1.5 1.5 0 013.001.001zM383.383 175.5a1.5 1.5 0 11-3.001-.001 1.5 1.5 0 013.001.001zM403.383 175.5a1.5 1.5 0 11-3.001-.001 1.5 1.5 0 013.001.001zM423.383 175.5a1.5 1.5 0 11-3.001-.001 1.5 1.5 0 013.001.001zM443.383 175.5a1.5 1.5 0 11-3.001-.001 1.5 1.5 0 013.001.001zM463.383 175.5a1.5 1.5 0 11-3.001-.001 1.5 1.5 0 013.001.001zM483.383 175.5a1.5 1.5 0 11-3.001-.001 1.5 1.5 0 013.001.001zM503.383 175.5a1.5 1.5 0 11-3.001-.001 1.5 1.5 0 013.001.001zM523.383 175.5a1.5 1.5 0 11-3.001-.001 1.5 1.5 0 013.001.001zM543.383 175.5a1.5 1.5 0 11-3.001-.001 1.5 1.5 0 013.001.001zM563.383 175.5a1.5 1.5 0 11-3.001-.001 1.5 1.5 0 013.001.001zM583.383 175.5a1.5 1.5 0 11-3.001-.001 1.5 1.5 0 013.001.001zM603.383 175.5a1.5 1.5 0 11-3.001-.001 1.5 1.5 0 013.001.001zM623.383 175.5a1.5 1.5 0 11-3.001-.001 1.5 1.5 0 013.001.001zM643.383 175.5a1.5 1.5 0 11-3.001-.001 1.5 1.5 0 013.001.001zM363.383 195.5a1.5 1.5 0 11-3.001-.001 1.5 1.5 0 013.001.001zM383.383 195.5a1.5 1.5 0 11-3.001-.001 1.5 1.5 0 013.001.001zM403.383 195.5a1.5 1.5 0 11-3.001-.001 1.5 1.5 0 013.001.001zM423.383 195.5a1.5 1.5 0 11-3.001-.001 1.5 1.5 0 013.001.001zM443.383 195.5a1.5 1.5 0 11-3.001-.001 1.5 1.5 0 013.001.001zM463.383 195.5a1.5 1.5 0 11-3.001-.001 1.5 1.5 0 013.001.001zM483.383 195.5a1.5 1.5 0 11-3.001-.001 1.5 1.5 0 013.001.001zM503.383 195.5a1.5 1.5 0 11-3.001-.001 1.5 1.5 0 013.001.001zM523.383 195.5a1.5 1.5 0 11-3.001-.001 1.5 1.5 0 013.001.001zM543.383 195.5a1.5 1.5 0 11-3.001-.001 1.5 1.5 0 013.001.001zM563.383 195.5a1.5 1.5 0 11-3.001-.001 1.5 1.5 0 013.001.001zM583.383 195.5a1.5 1.5 0 11-3.001-.001 1.5 1.5 0 013.001.001zM603.383 195.5a1.5 1.5 0 11-3.001-.001 1.5 1.5 0 013.001.001zM623.383 195.5a1.5 1.5 0 11-3.001-.001 1.5 1.5 0 013.001.001zM643.383 195.5a1.5 1.5 0 11-3.001-.001 1.5 1.5 0 013.001.001zM663.383 15.5a1.5 1.5 0 11-3 0 1.5 1.5 0 013 0zM683.383 15.5a1.5 1.5 0 11-3 0 1.5 1.5 0 013 0zM703.383 15.5a1.5 1.5 0 11-3 0 1.5 1.5 0 013 0zM723.383 15.5a1.5 1.5 0 11-3 0 1.5 1.5 0 013 0zM743.383 15.5a1.5 1.5 0 11-3 0 1.5 1.5 0 013 0zM763.383 15.5a1.5 1.5 0 11-3 0 1.5 1.5 0 013 0zM783.383 15.5a1.5 1.5 0 11-3 0 1.5 1.5 0 013 0zM663.383 35.5a1.5 1.5 0 11-3 0 1.5 1.5 0 013 0zM683.383 35.5a1.5 1.5 0 11-3 0 1.5 1.5 0 013 0zM703.383 35.5a1.5 1.5 0 11-3 0 1.5 1.5 0 013 0zM723.383 35.5a1.5 1.5 0 11-3 0 1.5 1.5 0 013 0zM743.383 35.5a1.5 1.5 0 11-3 0 1.5 1.5 0 013 0zM763.383 35.5a1.5 1.5 0 11-3 0 1.5 1.5 0 013 0zM783.383 35.5a1.5 1.5 0 11-3 0 1.5 1.5 0 013 0zM803.383 35.5a1.5 1.5 0 11-3 0 1.5 1.5 0 013 0zM663.383 55.5a1.5 1.5 0 11-3 0 1.5 1.5 0 013 0zM683.383 55.5a1.5 1.5 0 11-3 0 1.5 1.5 0 013 0zM703.383 55.5a1.5 1.5 0 11-3 0 1.5 1.5 0 013 0zM723.383 55.5a1.5 1.5 0 11-3 0 1.5 1.5 0 013 0zM743.383 55.5a1.5 1.5 0 11-3 0 1.5 1.5 0 013 0zM763.383 55.5a1.5 1.5 0 11-3 0 1.5 1.5 0 013 0zM783.383 55.5a1.5 1.5 0 11-3 0 1.5 1.5 0 013 0zM803.383 55.5a1.5 1.5 0 11-3 0 1.5 1.5 0 013 0zM823.383 55.5a1.5 1.5 0 11-3 0 1.5 1.5 0 013 0zM663.383 75.5a1.5 1.5 0 11-3 0 1.5 1.5 0 013 0zM683.383 75.5a1.5 1.5 0 11-3 0 1.5 1.5 0 013 0zM703.383 75.5a1.5 1.5 0 11-3 0 1.5 1.5 0 013 0zM723.383 75.5a1.5 1.5 0 11-3 0 1.5 1.5 0 013 0zM743.383 75.5a1.5 1.5 0 11-3 0 1.5 1.5 0 013 0zM763.383 75.5a1.5 1.5 0 11-3 0 1.5 1.5 0 013 0zM783.383 75.5a1.5 1.5 0 11-3 0 1.5 1.5 0 013 0zM803.383 75.5a1.5 1.5 0 11-3 0 1.5 1.5 0 013 0zM823.383 75.5a1.5 1.5 0 11-3 0 1.5 1.5 0 013 0zM663.383 95.5a1.5 1.5 0 11-3 0 1.5 1.5 0 013 0zM683.383 95.5a1.5 1.5 0 11-3 0 1.5 1.5 0 013 0zM703.383 95.5a1.5 1.5 0 11-3 0 1.5 1.5 0 013 0zM723.383 95.5a1.5 1.5 0 11-3 0 1.5 1.5 0 013 0zM743.383 95.5a1.5 1.5 0 11-3 0 1.5 1.5 0 013 0zM763.383 95.5a1.5 1.5 0 11-3 0 1.5 1.5 0 013 0zM783.383 95.5a1.5 1.5 0 11-3 0 1.5 1.5 0 013 0zM803.383 95.5a1.5 1.5 0 11-3 0 1.5 1.5 0 013 0zM823.383 95.5a1.5 1.5 0 11-3 0 1.5 1.5 0 013 0zM663.383 115.5a1.5 1.5 0 11-3.001-.001 1.5 1.5 0 013.001.001zM683.383 115.5a1.5 1.5 0 11-3.001-.001 1.5 1.5 0 013.001.001zM703.383 115.5a1.5 1.5 0 11-3.001-.001 1.5 1.5 0 013.001.001zM723.383 115.5a1.5 1.5 0 11-3.001-.001 1.5 1.5 0 013.001.001zM743.383 115.5a1.5 1.5 0 11-3.001-.001 1.5 1.5 0 013.001.001zM763.383 115.5a1.5 1.5 0 11-3.001-.001 1.5 1.5 0 013.001.001zM783.383 115.5a1.5 1.5 0 11-3.001-.001 1.5 1.5 0 013.001.001zM803.383 115.5a1.5 1.5 0 11-3.001-.001 1.5 1.5 0 013.001.001zM823.383 115.5a1.5 1.5 0 11-3.001-.001 1.5 1.5 0 013.001.001zM663.383 135.5a1.5 1.5 0 11-3.001-.001 1.5 1.5 0 013.001.001zM683.383 135.5a1.5 1.5 0 11-3.001-.001 1.5 1.5 0 013.001.001zM703.383 135.5a1.5 1.5 0 11-3.001-.001 1.5 1.5 0 013.001.001zM723.383 135.5a1.5 1.5 0 11-3.001-.001 1.5 1.5 0 013.001.001zM743.383 135.5a1.5 1.5 0 11-3.001-.001 1.5 1.5 0 013.001.001zM763.383 135.5a1.5 1.5 0 11-3.001-.001 1.5 1.5 0 013.001.001zM783.383 135.5a1.5 1.5 0 11-3.001-.001 1.5 1.5 0 013.001.001zM803.383 135.5a1.5 1.5 0 11-3.001-.001 1.5 1.5 0 013.001.001zM823.383 135.5a1.5 1.5 0 11-3.001-.001 1.5 1.5 0 013.001.001zM663.383 155.5a1.5 1.5 0 11-3.001-.001 1.5 1.5 0 013.001.001zM683.383 155.5a1.5 1.5 0 11-3.001-.001 1.5 1.5 0 013.001.001zM703.383 155.5a1.5 1.5 0 11-3.001-.001 1.5 1.5 0 013.001.001zM723.383 155.5a1.5 1.5 0 11-3.001-.001 1.5 1.5 0 013.001.001zM743.383 155.5a1.5 1.5 0 11-3.001-.001 1.5 1.5 0 013.001.001zM763.383 155.5a1.5 1.5 0 11-3.001-.001 1.5 1.5 0 013.001.001zM783.383 155.5a1.5 1.5 0 11-3.001-.001 1.5 1.5 0 013.001.001zM803.383 155.5a1.5 1.5 0 11-3.001-.001 1.5 1.5 0 013.001.001zM823.383 155.5a1.5 1.5 0 11-3.001-.001 1.5 1.5 0 013.001.001zM663.383 175.5a1.5 1.5 0 11-3.001-.001 1.5 1.5 0 013.001.001zM683.383 175.5a1.5 1.5 0 11-3.001-.001 1.5 1.5 0 013.001.001zM703.383 175.5a1.5 1.5 0 11-3.001-.001 1.5 1.5 0 013.001.001zM723.383 175.5a1.5 1.5 0 11-3.001-.001 1.5 1.5 0 013.001.001zM743.383 175.5a1.5 1.5 0 11-3.001-.001 1.5 1.5 0 013.001.001zM763.383 175.5a1.5 1.5 0 11-3.001-.001 1.5 1.5 0 013.001.001zM783.383 175.5a1.5 1.5 0 11-3.001-.001 1.5 1.5 0 013.001.001zM803.383 175.5a1.5 1.5 0 11-3.001-.001 1.5 1.5 0 013.001.001zM823.383 175.5a1.5 1.5 0 11-3.001-.001 1.5 1.5 0 013.001.001zM663.383 195.5a1.5 1.5 0 11-3.001-.001 1.5 1.5 0 013.001.001zM683.383 195.5a1.5 1.5 0 11-3.001-.001 1.5 1.5 0 013.001.001zM703.383 195.5a1.5 1.5 0 11-3.001-.001 1.5 1.5 0 013.001.001zM723.383 195.5a1.5 1.5 0 11-3.001-.001 1.5 1.5 0 013.001.001zM743.383 195.5a1.5 1.5 0 11-3.001-.001 1.5 1.5 0 013.001.001zM763.383 195.5a1.5 1.5 0 11-3.001-.001 1.5 1.5 0 013.001.001zM783.383 195.5a1.5 1.5 0 11-3.001-.001 1.5 1.5 0 013.001.001zM803.383 195.5a1.5 1.5 0 11-3.001-.001 1.5 1.5 0 013.001.001zM823.383 195.5a1.5 1.5 0 11-3.001-.001 1.5 1.5 0 013.001.001zM3.383 215.5a1.5 1.5 0 11-3 0 1.5 1.5 0 013 0zM3.383 235.5a1.5 1.5 0 11-3 0 1.5 1.5 0 013 0zM3.383 255.5a1.5 1.5 0 11-3 0 1.5 1.5 0 013 0zM3.383 275.5a1.5 1.5 0 11-3 0 1.5 1.5 0 013 0zM3.383 295.5a1.5 1.5 0 11-3 0 1.5 1.5 0 013 0zM3.383 315.5a1.5 1.5 0 11-3 0 1.5 1.5 0 013 0zM3.383 335.5a1.5 1.5 0 11-3 0 1.5 1.5 0 013 0zM3.383 355.5a1.5 1.5 0 11-3 0 1.5 1.5 0 013 0zM3.383 375.5a1.5 1.5 0 11-3 0 1.5 1.5 0 013 0zM3.383 395.5a1.5 1.5 0 11-3 0 1.5 1.5 0 013 0zM3.383 415.5a1.5 1.5 0 11-3 0 1.5 1.5 0 013 0zM3.383 435.5a1.5 1.5 0 11-3 0 1.5 1.5 0 013 0zM3.383 455.5a1.5 1.5 0 11-3 0 1.5 1.5 0 013 0zM3.383 475.5a1.5 1.5 0 11-3 0 1.5 1.5 0 013 0zM3.383 495.5a1.5 1.5 0 11-3 0 1.5 1.5 0 013 0zM3.383 515.5a1.5 1.5 0 11-3 0 1.5 1.5 0 013 0zM3.383 175.5a1.5 1.5 0 11-3 0 1.5 1.5 0 013 0zM3.383 195.5a1.5 1.5 0 11-3 0 1.5 1.5 0 013 0z"/></g><g filter="url(#filter0_d)"><path d="M430.057 150.487l-48.253 121.116c-4.795 12.036-17.221 19.21-30.042 17.345l-129.016-18.77c-14.455-2.103-24.864-14.964-23.909-29.539l12.049-183.823c1.305-19.913 22.427-32.107 40.324-23.281l165.22 81.477c13.1 6.46 19.033 21.906 13.627 35.475z" fill="url(#paint0_linear)"/></g><g filter="url(#filter1_d)"><path d="M577.984 476.557l-48.253 121.116c-4.795 12.036-17.221 19.21-30.043 17.345l-129.015-18.769c-14.455-2.103-24.864-14.964-23.909-29.54l12.049-183.823c1.305-19.912 22.427-32.107 40.324-23.281l165.219 81.477c13.101 6.46 19.034 21.906 13.628 35.475z" fill="url(#paint1_linear)"/></g><g filter="url(#filter2_d)"><path d="M243.22 414.744l-24.127 60.558a13.999 13.999 0 01-15.021 8.672l-64.508-9.384c-7.227-1.052-12.432-7.482-11.955-14.77l6.025-91.912c.652-9.956 11.213-16.053 20.162-11.64l82.61 40.738c6.55 3.23 9.517 10.953 6.814 17.738z" fill="url(#paint2_linear)"/></g><g filter="url(#filter3_d)"><path d="M616.738 365.245l-167.363-66.678c-16.633-6.627-26.546-23.798-23.969-41.515l25.937-178.28c2.906-19.974 20.678-34.359 40.819-33.039l254.016 16.65c27.515 1.804 44.367 30.99 32.171 55.722L665.76 346.413c-8.927 18.103-30.271 26.302-49.022 18.832z" fill="url(#paint3_linear)"/></g><g filter="url(#filter4_d)"><path d="M244.802 481.373l-12.064 30.278a7 7 0 01-7.51 4.337l-32.254-4.693a6.999 6.999 0 01-5.977-7.385l3.012-45.955c.326-4.978 5.607-8.027 10.081-5.821l41.305 20.37a7 7 0 013.407 8.869z" fill="url(#paint4_linear)"/></g><g filter="url(#filter5_d)"><path d="M788.203 499.967l-12.063 30.279a7 7 0 01-7.511 4.336l-32.254-4.692a7 7 0 01-5.977-7.385l3.012-45.956c.327-4.978 5.607-8.026 10.081-5.82l41.305 20.369a7 7 0 013.407 8.869z" fill="url(#paint5_linear)"/></g><g filter="url(#filter6_d)"><path d="M758.203 587.967l-12.063 30.279a7 7 0 01-7.511 4.336l-32.254-4.692a7 7 0 01-5.977-7.385l3.012-45.956c.327-4.978 5.607-8.026 10.081-5.82l41.305 20.369a7 7 0 013.407 8.869z" fill="url(#paint6_linear)"/></g><defs><linearGradient id="paint0_linear" x1="367.626" y1="281.735" x2="225.513" y2="35.851" gradientUnits="userSpaceOnUse"><stop stop-color="#FFC800"/><stop offset="1" stop-color="#FFDB58"/></linearGradient><linearGradient id="paint1_linear" x1="515.552" y1="607.806" x2="373.44" y2="361.921" gradientUnits="userSpaceOnUse"><stop stop-color="#FFC800"/><stop offset="1" stop-color="#FFDB58"/></linearGradient><linearGradient id="paint2_linear" x1="212.004" y1="480.368" x2="140.948" y2="357.426" gradientUnits="userSpaceOnUse"><stop stop-color="#FFC800"/><stop offset="1" stop-color="#FFDB58"/></linearGradient><linearGradient id="paint3_linear" x1="435.372" y1="278.974" x2="775.148" y2="82.596" gradientUnits="userSpaceOnUse"><stop stop-color="#FFC800"/><stop offset="1" stop-color="#FFDB58"/></linearGradient><linearGradient id="paint4_linear" x1="229.194" y1="514.185" x2="193.666" y2="452.713" gradientUnits="userSpaceOnUse"><stop stop-color="#FFC800"/><stop offset="1" stop-color="#FFDB58"/></linearGradient><linearGradient id="paint5_linear" x1="772.595" y1="532.779" x2="737.067" y2="471.308" gradientUnits="userSpaceOnUse"><stop stop-color="#FFC800"/><stop offset="1" stop-color="#FFDB58"/></linearGradient><linearGradient id="paint6_linear" x1="742.595" y1="620.779" x2="707.067" y2="559.308" gradientUnits="userSpaceOnUse"><stop stop-color="#FFC800"/><stop offset="1" stop-color="#FFDB58"/></linearGradient><filter id="filter0_d" x="153.776" y=".618" width="323.275" height="348.623" filterUnits="userSpaceOnUse" color-interpolation-filters="sRGB"><feFlood flood-opacity="0" result="BackgroundImageFix"/><feColorMatrix in="SourceAlpha" values="0 0 0 0 0 0 0 0 0 0 0 0 0 0 0 0 0 0 127 0"/><feOffset dy="15"/><feGaussianBlur stdDeviation="22.5"/><feColorMatrix values="0 0 0 0 1 0 0 0 0 0.784314 0 0 0 0 0 0 0 0 0.5 0"/><feBlend in2="BackgroundImageFix" result="effect1_dropShadow"/><feBlend in="SourceGraphic" in2="effect1_dropShadow" result="shape"/></filter><filter id="filter1_d" x="301.703" y="326.688" width="323.275" height="348.623" filterUnits="userSpaceOnUse" color-interpolation-filters="sRGB"><feFlood flood-opacity="0" result="BackgroundImageFix"/><feColorMatrix in="SourceAlpha" values="0 0 0 0 0 0 0 0 0 0 0 0 0 0 0 0 0 0 127 0"/><feOffset dy="15"/><feGaussianBlur stdDeviation="22.5"/><feColorMatrix values="0 0 0 0 1 0 0 0 0 0.784314 0 0 0 0 0 0 0 0 0.5 0"/><feBlend in2="BackgroundImageFix" result="effect1_dropShadow"/><feBlend in="SourceGraphic" in2="effect1_dropShadow" result="shape"/></filter><filter id="filter2_d" x="82.579" y="324.81" width="206.637" height="219.312" filterUnits="userSpaceOnUse" color-interpolation-filters="sRGB"><feFlood flood-opacity="0" result="BackgroundImageFix"/><feColorMatrix in="SourceAlpha" values="0 0 0 0 0 0 0 0 0 0 0 0 0 0 0 0 0 0 127 0"/><feOffset dy="15"/><feGaussianBlur stdDeviation="22.5"/><feColorMatrix values="0 0 0 0 1 0 0 0 0 0.784314 0 0 0 0 0 0 0 0 0.5 0"/><feBlend in2="BackgroundImageFix" result="effect1_dropShadow"/><feBlend in="SourceGraphic" in2="effect1_dropShadow" result="shape"/></filter><filter id="filter3_d" x="380.001" y="15.649" width="447.378" height="412.35" filterUnits="userSpaceOnUse" color-interpolation-filters="sRGB"><feFlood flood-opacity="0" result="BackgroundImageFix"/><feColorMatrix in="SourceAlpha" values="0 0 0 0 0 0 0 0 0 0 0 0 0 0 0 0 0 0 127 0"/><feOffset dy="15"/><feGaussianBlur stdDeviation="22.5"/><feColorMatrix values="0 0 0 0 1 0 0 0 0 0.784314 0 0 0 0 0 0 0 0 0.5 0"/><feBlend in2="BackgroundImageFix" result="effect1_dropShadow"/><feBlend in="SourceGraphic" in2="effect1_dropShadow" result="shape"/></filter><filter id="filter4_d" x="141.981" y="421.405" width="148.319" height="154.656" filterUnits="userSpaceOnUse" color-interpolation-filters="sRGB"><feFlood flood-opacity="0" result="BackgroundImageFix"/><feColorMatrix in="SourceAlpha" values="0 0 0 0 0 0 0 0 0 0 0 0 0 0 0 0 0 0 127 0"/><feOffset dy="15"/><feGaussianBlur stdDeviation="22.5"/><feColorMatrix values="0 0 0 0 1 0 0 0 0 0.784314 0 0 0 0 0 0 0 0 0.5 0"/><feBlend in2="BackgroundImageFix" result="effect1_dropShadow"/><feBlend in="SourceGraphic" in2="effect1_dropShadow" result="shape"/></filter><filter id="filter5_d" x="685.383" y="440" width="148.319" height="154.656" filterUnits="userSpaceOnUse" color-interpolation-filters="sRGB"><feFlood flood-opacity="0" result="BackgroundImageFix"/><feColorMatrix in="SourceAlpha" values="0 0 0 0 0 0 0 0 0 0 0 0 0 0 0 0 0 0 127 0"/><feOffset dy="15"/><feGaussianBlur stdDeviation="22.5"/><feColorMatrix values="0 0 0 0 1 0 0 0 0 0.784314 0 0 0 0 0 0 0 0 0.5 0"/><feBlend in2="BackgroundImageFix" result="effect1_dropShadow"/><feBlend in="SourceGraphic" in2="effect1_dropShadow" result="shape"/></filter><filter id="filter6_d" x="655.383" y="528" width="148.319" height="154.656" filterUnits="userSpaceOnUse" color-interpolation-filters="sRGB"><feFlood flood-opacity="0" result="BackgroundImageFix"/><feColorMatrix in="SourceAlpha" values="0 0 0 0 0 0 0 0 0 0 0 0 0 0 0 0 0 0 127 0"/><feOffset dy="15"/><feGaussianBlur stdDeviation="22.5"/><feColorMatrix values="0 0 0 0 1 0 0 0 0 0.784314 0 0 0 0 0 0 0 0 0.5 0"/><feBlend in2="BackgroundImageFix" result="effect1_dropShadow"/><feBlend in="SourceGraphic" in2="effect1_dropShadow" result="shape"/></filter></defs></svg>