<svg width="241" height="241" viewBox="0 0 241 241" fill="none" xmlns="http://www.w3.org/2000/svg">
<circle opacity="0.15" cx="120.466" cy="120.272" r="119.5" stroke="#FFC800"/>
<circle opacity="0.25" cx="120.466" cy="120.272" r="79.5" stroke="#FFC800"/>
<circle opacity="0.5" cx="120.466" cy="120.272" r="49.5" stroke="#FFC800"/>
<g filter="url(#filter0_d)">
<circle cx="120.466" cy="120.272" r="30" fill="#FFC800"/>
</g>
<path d="M115.666 115.156C115.666 113.239 117.802 112.096 119.397 113.159L127.071 118.275C128.496 119.225 128.496 121.319 127.071 122.269L119.397 127.384C117.802 128.448 115.666 127.304 115.666 125.387V115.156Z" fill="white"/>
<path d="M165.996 116.272H163.91L160.522 105.926H163.07L165.002 112.66L167.228 105.926H168.782L171.036 112.66L172.94 105.926H175.488L172.114 116.272H170.028L168.012 109.832L165.996 116.272ZM185.689 116.272H183.281L182.595 114.186H179.123L178.409 116.272H176.001L179.879 105.926H181.895L185.689 116.272ZM181.979 112.156L180.873 108.88L179.753 112.156H181.979ZM188.967 116.272V108.152H186.041V105.926H194.203V108.152H191.291V116.272H188.967ZM200.914 116.426C199.402 116.426 198.137 115.936 197.12 114.956C196.102 113.967 195.594 112.693 195.594 111.134C195.594 109.566 196.112 108.278 197.148 107.27C198.193 106.253 199.458 105.744 200.942 105.744C201.856 105.744 202.706 105.935 203.49 106.318C204.274 106.691 204.904 107.2 205.38 107.844L203.868 109.384C203.084 108.441 202.15 107.97 201.068 107.97C200.209 107.97 199.481 108.269 198.884 108.866C198.286 109.463 197.988 110.215 197.988 111.12C197.988 112.007 198.282 112.744 198.87 113.332C199.458 113.92 200.186 114.214 201.054 114.214C202.174 114.214 203.13 113.738 203.924 112.786L205.478 114.242C204.992 114.905 204.344 115.437 203.532 115.838C202.72 116.23 201.847 116.426 200.914 116.426ZM210.114 116.272H207.804V105.926H210.114V109.972H214.146V105.926H216.47V116.272H214.146V112.198H210.114V116.272ZM165.716 132.8L168.236 125.926H170.882L166.696 136.272H164.736L160.494 125.926H163.168L165.716 132.8ZM173.03 136.272V125.926H175.354V136.272H173.03ZM182.602 136.272H178.542V125.926H182.672C184.259 125.926 185.491 126.393 186.368 127.326C187.264 128.25 187.712 129.51 187.712 131.106C187.712 132.711 187.26 133.971 186.354 134.886C185.44 135.81 184.189 136.272 182.602 136.272ZM180.852 128.152V134.046H182.7C183.54 134.046 184.184 133.766 184.632 133.206C185.09 132.637 185.318 131.932 185.318 131.092C185.318 130.243 185.09 129.543 184.632 128.992C184.184 128.432 183.54 128.152 182.7 128.152H180.852ZM197.594 136.272H190.384V125.926H197.608V128.082H192.708V130H197.244V132.142H192.708V134.116H197.594V136.272ZM199.724 131.12C199.724 129.617 200.242 128.348 201.278 127.312C202.323 126.267 203.607 125.744 205.128 125.744C206.649 125.744 207.928 126.267 208.964 127.312C210.009 128.348 210.532 129.613 210.532 131.106C210.532 132.599 210.014 133.864 208.978 134.9C207.933 135.927 206.645 136.44 205.114 136.44C203.574 136.44 202.291 135.927 201.264 134.9C200.237 133.873 199.724 132.613 199.724 131.12ZM205.128 134.158C205.977 134.158 206.691 133.869 207.27 133.29C207.849 132.693 208.133 131.965 208.124 131.106C208.105 130.21 207.811 129.477 207.242 128.908C206.663 128.32 205.959 128.026 205.128 128.026C204.279 128.026 203.569 128.32 203 128.908C202.421 129.505 202.132 130.238 202.132 131.106C202.132 131.965 202.421 132.693 203 133.29C203.579 133.869 204.288 134.158 205.128 134.158Z" fill="white"/>
<defs>
<filter id="filter0_d" x="75.4658" y="75.272" width="90" height="90" filterUnits="userSpaceOnUse" color-interpolation-filters="sRGB">
<feFlood flood-opacity="0" result="BackgroundImageFix"/>
<feColorMatrix in="SourceAlpha" type="matrix" values="0 0 0 0 0 0 0 0 0 0 0 0 0 0 0 0 0 0 127 0"/>
<feOffset/>
<feGaussianBlur stdDeviation="7.5"/>
<feColorMatrix type="matrix" values="0 0 0 0 0 0 0 0 0 0 0 0 0 0 0 0 0 0 0.1 0"/>
<feBlend mode="normal" in2="BackgroundImageFix" result="effect1_dropShadow"/>
<feBlend mode="normal" in="SourceGraphic" in2="effect1_dropShadow" result="shape"/>
</filter>
</defs>
</svg>
