<svg width="19" height="20" viewBox="0 0 19 20" fill="none" xmlns="http://www.w3.org/2000/svg">
<path d="M9.21875 0.671875C10.8516 0.671875 12.4102 1.11719 13.8203 1.93359C15.2305 2.75 16.3438 3.86328 17.1602 5.27344C17.9766 6.68359 18.4219 8.24219 18.4219 9.875C18.4219 11.5449 17.9766 13.0664 17.1602 14.4766C16.3438 15.8867 15.2305 17.0371 13.8203 17.8535C12.4102 18.6699 10.8516 19.0781 9.21875 19.0781C7.54883 19.0781 6.02734 18.6699 4.61719 17.8535C3.20703 17.0371 2.05664 15.8867 1.24023 14.4766C0.423828 13.0664 0.015625 11.5449 0.015625 9.875C0.015625 8.24219 0.423828 6.68359 1.24023 5.27344C2.05664 3.86328 3.20703 2.75 4.61719 1.93359C6.02734 1.11719 7.54883 0.671875 9.21875 0.671875ZM11.334 13.6602C11.4082 13.7344 11.5195 13.7715 11.668 13.7344C11.7793 13.7344 11.8906 13.6602 11.9648 13.5488L13.0039 12.1387C13.0781 12.0645 13.0781 11.9531 13.0781 11.8047C13.0781 11.6934 13.0039 11.582 12.9297 11.5078L10.5547 9.80078V4.67969C10.5547 4.56836 10.4805 4.45703 10.4062 4.38281C10.332 4.30859 10.2207 4.23438 10.1094 4.23438H8.32812C8.17969 4.23438 8.06836 4.30859 7.99414 4.38281C7.91992 4.45703 7.88281 4.56836 7.88281 4.67969V10.9141C7.88281 11.0625 7.91992 11.2109 8.06836 11.2852L11.334 13.6602Z" fill="#ef4136"/>
</svg>
