<?xml version="1.0" encoding="UTF-8" standalone="no"?>
<svg width="222px" height="84px" viewBox="0 0 222 84" version="1.1" xmlns="http://www.w3.org/2000/svg" xmlns:xlink="http://www.w3.org/1999/xlink">
    <!-- Generator: Sketch 3.8.3 (29802) - http://www.bohemiancoding.com/sketch -->
    <title>Artboard</title>
    <desc>Created with Sketch.</desc>
    <defs>
        <polygon id="path-1" points="83.907 83.94 0 83.94 0 42.015 0 0.09 83.907 0.09 83.907 83.94"></polygon>
    </defs>
    <g id="Page-1" stroke="none" stroke-width="1" fill="none" fill-rule="evenodd">
        <g id="Artboard">
            <g id="Tracker_Half_Stacked">
                <path d="M30.843,19.319 L40.21,35.543 C41.697,35.145 43.321,35.262 44.797,35.953 L49.721,27.422 L41.49,13.169 L30.746,19.374 L30.747,19.374 L30.843,19.319" id="Fill-1" fill="#DE752C"></path>
                <path d="M16.721,40.307 L35.46,40.307 C35.609,39.748 35.825,39.2 36.127,38.678 C36.636,37.795 37.319,37.078 38.103,36.531 L33.179,28.004 L16.716,28.004 L16.716,40.413 L16.721,40.413 L16.721,40.307" id="Fill-2" fill="#DE752C"></path>
                <path d="M47.778,45.405 C47.268,46.288 46.588,47.002 45.806,47.55 L50.734,56.083 L67.192,56.083 L67.192,43.781 L48.446,43.781 C48.295,44.338 48.078,44.883 47.778,45.405" id="Fill-3" fill="#DE752C"></path>
                <path d="M46.703,37.288 C47.839,38.419 48.515,39.905 48.651,41.463 L58.497,41.463 L66.728,27.209 L56.076,21.057 L46.703,37.288" id="Fill-4" fill="#DE752C"></path>
                <path d="M27.831,63.03 L37.204,46.794 C36.072,45.66 35.396,44.179 35.257,42.625 L25.407,42.625 L17.175,56.873 L27.917,63.081 L27.831,63.03" id="Fill-5" fill="#DE752C"></path>
                <g id="Group-9">
                    <mask id="mask-2" fill="white">
                        <use xlink:href="#path-1"></use>
                    </mask>
                    <g id="Clip-7"></g>
                    <path d="M53.067,64.765 L43.701,48.54 C42.214,48.941 40.589,48.828 39.111,48.133 L34.185,56.666 L42.412,70.915 L53.157,64.711 L53.067,64.765" id="Fill-6" fill="#DE752C" mask="url(#mask-2)"></path>
                    <path d="M41.956,0.09 C18.823,0.09 0,18.908 0,42.038 C0,65.176 18.823,84 41.956,84 C65.089,84 83.907,65.176 83.907,42.038 C83.907,18.908 65.089,0.09 41.956,0.09 L41.956,0.09 Z M41.956,8.583 C60.434,8.583 75.412,23.56 75.412,42.038 C75.412,60.521 60.434,75.505 41.956,75.505 C23.477,75.505 8.496,60.521 8.496,42.038 C8.496,23.56 23.477,8.583 41.956,8.583 L41.956,8.583 Z" id="Fill-8" fill="#517A9E" mask="url(#mask-2)"></path>
                </g>
                <path d="M101.989,25.181 C103.172,25.181 104.252,25.146 105.193,24.346 C106.098,23.58 106.553,22.464 106.553,21.314 C106.553,20.094 105.959,18.945 104.984,18.284 C103.974,17.551 102.928,17.518 101.779,17.518 L99.165,17.518 L99.165,25.181 L101.989,25.181 L101.989,25.181 Z M101.64,13.197 C103.868,13.197 106.412,13.477 108.258,14.834 C110.348,16.367 111.324,18.735 111.324,21.314 C111.324,23.51 110.488,25.635 108.92,27.166 C107.109,29.014 105.088,29.467 102.58,29.467 L99.165,29.467 L99.165,34.1 L101.882,34.1 L101.882,38.072 L91.746,38.072 L91.746,34.1 L94.429,34.1 L94.429,17.168 L91.746,17.168 L91.746,13.197 L101.64,13.197 L101.64,13.197 Z" id="Fill-10" fill="#DE752C"></path>
                <path d="M115.51,17.691 L119.76,17.691 L119.76,13.197 L115.51,13.197 L115.51,17.691 Z M119.76,34.1 L122.164,34.1 L122.164,38.072 L113.072,38.072 L113.072,34.1 L115.51,34.1 L115.51,23.439 L113.105,23.439 L113.105,19.469 L119.76,19.469 L119.76,34.1 L119.76,34.1 Z" id="Fill-11" fill="#DE752C"></path>
                <polyline id="Fill-12" fill="#DE752C" points="134.941 38.072 130.482 38.072 124.77 23.439 122.506 23.439 122.506 19.469 131.18 19.469 131.18 23.439 129.299 23.439 132.713 32.845 132.748 32.845 136.404 23.439 134.42 23.439 134.42 19.469 142.99 19.469 142.99 23.439 140.795 23.439 134.941 38.072"></polyline>
                <polyline id="Fill-13" fill="#DE752C" points="170.166 34.1 173.545 34.1 173.545 38.072 165.916 38.072 165.916 23.439 162.99 23.439 162.99 19.469 165.916 19.469 165.916 13.197 170.166 13.197 170.166 19.469 173.336 19.469 173.336 23.439 170.166 23.439 170.166 34.1"></polyline>
                <path d="M190.344,28.665 C190.344,25.6 187.801,23.127 184.734,23.127 C181.564,23.127 179.127,25.738 179.127,28.873 C179.127,31.904 181.67,34.413 184.664,34.413 C187.869,34.413 190.344,31.834 190.344,28.665 L190.344,28.665 Z M190.273,35.562 C188.916,37.617 186.721,38.559 184.283,38.559 C178.951,38.559 174.736,34.135 174.736,28.873 C174.736,23.474 179.057,18.98 184.492,18.98 C186.895,18.98 188.986,20.094 190.273,22.115 L190.273,19.469 L196.928,19.469 L196.928,23.439 L194.594,23.439 L194.594,34.1 L196.928,34.1 L196.928,38.072 L190.273,38.072 L190.273,35.562 L190.273,35.562 Z" id="Fill-14" fill="#DE752C"></path>
                <polyline id="Fill-15" fill="#DE752C" points="206.164 34.1 208.568 34.1 208.568 38.072 199.336 38.072 199.336 34.1 201.914 34.1 201.914 17.168 199.51 17.168 199.51 13.197 206.164 13.197 206.164 34.1"></polyline>
                <path d="M152.924,18.947 C147.51,18.947 143.123,23.336 143.123,28.748 C143.123,34.162 147.51,38.55 152.924,38.55 C158.338,38.55 162.727,34.162 162.727,28.748 C162.727,23.336 158.338,18.947 152.924,18.947 L152.924,18.947 Z M152.924,23.123 C156.027,23.123 158.551,25.646 158.551,28.748 C158.551,31.85 156.027,34.373 152.924,34.373 C149.822,34.373 147.297,31.85 147.297,28.748 C147.297,25.646 149.822,23.123 152.924,23.123 L152.924,23.123 Z" id="Fill-16" fill="#DE752C"></path>
                <polyline id="Fill-17" fill="#517A9E" points="103.903 66.435 106.619 66.435 106.619 70.406 96.448 70.406 96.448 66.435 99.165 66.435 99.165 49.747 95.507 49.747 95.507 53.369 91.746 53.369 91.746 45.531 111.322 45.531 111.322 53.369 107.563 53.369 107.563 49.747 103.903 49.747 103.903 66.435"></polyline>
                <path d="M119.471,54.973 C120.549,52.778 122.639,51.698 125.043,51.592 L125.043,55.947 C123.684,56.017 122.432,56.365 121.385,57.307 C119.99,58.49 119.781,59.989 119.781,61.73 L119.781,66.435 L122.186,66.435 L122.186,70.406 L113.141,70.406 L113.141,66.435 L115.543,66.435 L115.543,55.773 L113.141,55.773 L113.141,51.803 L119.471,51.803 L119.471,54.973" id="Fill-18" fill="#517A9E"></path>
                <path d="M141.525,60.999 C141.525,57.934 138.984,55.461 135.918,55.461 C132.748,55.461 130.309,58.072 130.309,61.207 C130.309,64.238 132.852,66.747 135.848,66.747 C139.053,66.747 141.525,64.168 141.525,60.999 L141.525,60.999 Z M141.457,67.896 C140.1,69.951 137.904,70.892 135.465,70.892 C130.135,70.892 125.92,66.469 125.92,61.207 C125.92,55.808 130.24,51.314 135.674,51.314 C138.078,51.314 140.168,52.428 141.457,54.449 L141.457,51.803 L148.111,51.803 L148.111,55.773 L145.777,55.773 L145.777,66.435 L148.111,66.435 L148.111,70.406 L141.457,70.406 L141.457,67.896 L141.457,67.896 Z" id="Fill-19" fill="#517A9E"></path>
                <path d="M168.342,64.135 C167.195,68.071 163.188,70.892 159.109,70.892 C153.711,70.892 149.287,66.537 149.287,61.103 C149.287,55.947 153.363,51.246 158.658,51.246 C160.75,51.246 162.594,52.081 163.988,53.578 L163.988,51.803 L167.646,51.803 L167.646,58.004 L163.674,58.004 C163.152,57.236 162.457,56.609 161.689,56.156 C160.887,55.703 159.982,55.461 159.043,55.461 C155.873,55.461 153.537,58.004 153.537,61.103 C153.537,64.273 156.045,66.713 159.146,66.713 C160.957,66.713 162.803,65.771 163.604,64.135 L168.342,64.135" id="Fill-20" fill="#517A9E"></path>
                <path d="M204.711,59.432 C203.98,56.75 201.611,55.043 198.859,55.043 C196.35,55.043 193.947,56.994 193.424,59.432 L204.711,59.432 L204.711,59.432 Z M207.951,64.936 C206.488,68.488 203.041,70.892 199.174,70.892 C193.738,70.892 189.383,66.642 189.383,61.174 C189.383,55.67 193.529,51.246 199.068,51.246 C201.646,51.246 204.225,52.393 206.035,54.24 C207.883,56.192 208.648,58.56 208.648,61.207 L208.508,62.706 L193.459,62.706 C194.016,65.285 196.385,67.164 199.033,67.164 C200.879,67.164 202.482,66.469 203.527,64.936 L207.951,64.936 L207.951,64.936 Z" id="Fill-21" fill="#517A9E"></path>
                <path d="M216.256,54.973 C217.334,52.778 219.426,51.698 221.828,51.592 L221.828,55.947 C220.471,56.017 219.215,56.365 218.172,57.307 C216.777,58.49 216.568,59.989 216.568,61.73 L216.568,66.435 L218.971,66.435 L218.971,70.406 L209.914,70.406 L209.914,66.435 L212.32,66.435 L212.32,55.773 L209.914,55.773 L209.914,51.803 L216.256,51.803 L216.256,54.973" id="Fill-22" fill="#517A9E"></path>
                <polyline id="Fill-23" fill="#517A9E" points="186.199 66.435 180.764 60.721 185.885 55.773 188.15 55.773 188.15 51.803 178.988 51.803 178.988 55.355 180.904 55.355 176.133 60.127 176.133 45.531 169.441 45.531 169.441 49.502 171.881 49.502 171.881 66.435 169.441 66.435 169.441 70.406 176.133 70.406 176.133 61.557 180.557 66.435 178.988 66.435 178.988 70.406 189.127 70.406 189.127 66.435 186.199 66.435"></polyline>
            </g>
        </g>
    </g>
</svg>