<svg width="16" height="16" viewBox="0 0 16 16" fill="none" xmlns="http://www.w3.org/2000/svg">
<path fill-rule="evenodd" clip-rule="evenodd" d="M10.1214 0.878192C8.94978 -0.293381 7.05029 -0.293382 5.87871 0.878191L0.876725 4.88018C0.29132 5.46558 0.000380993 6.23273 0 7V14C0 15.1046 0.895431 16 2 16H14C15.1046 16 16 15.1046 16 14V7C16.0001 6.23208 15.7073 5.46413 15.1214 4.87822L10.1214 0.878192ZM13.163 5.86377L7.99993 8.84464L2.83602 5.86325L7.29293 2.29897C7.68345 1.90845 8.31662 1.90845 8.70714 2.29897L13.163 5.86377ZM14.0008 7.68946L8.51146 10.8587C8.48844 10.8724 8.46492 10.8851 8.44097 10.8968C8.31088 10.9609 8.17268 10.9941 8.03525 10.9988C7.85391 11.0054 7.66858 10.9627 7.49984 10.8653L2 7.68997V14H14L14.0008 7.68946Z" fill="#FD71AF"/>
</svg>
