<svg width="205" height="92" viewBox="0 0 205 92" fill="none" xmlns="http://www.w3.org/2000/svg">
<g style="mix-blend-mode:screen">
<path fill-rule="evenodd" clip-rule="evenodd" d="M169.005 0.0378416C168.972 0.0325847 168.939 0.0285905 168.905 0.0256757C168.549 -0.00885484 168.191 -0.00855599 167.836 0.0265722L167.934 1.0217L167.798 0.0310133L167.63 0.0540458C167.471 0.0650707 167.325 0.10006 167.288 0.109459C167.194 0.127488 167.1 0.149653 167.008 0.175888L166.827 0.221274L166.775 0.234058L166.726 0.252146L166.518 0.327976L166.323 0.395656L166.274 0.412693L166.227 0.43473L166.033 0.525782L166.021 0.531259L166.009 0.537036C165.998 0.542926 165.989 0.547075 165.971 0.555351L165.971 0.555363L165.93 0.574421C165.891 0.592841 165.83 0.621988 165.763 0.659217C165.69 0.700327 165.629 0.73769 165.57 0.775085C165.486 0.820623 165.405 0.870158 165.327 0.923511C165.263 0.964255 165.211 1.0034 165.176 1.03003C165.152 1.04833 165.139 1.05875 165.129 1.06628L165.129 1.06638C165.118 1.07504 165.111 1.07989 165.1 1.0886C165.087 1.09748 165.081 1.10225 165.068 1.11082L165.068 1.11084L165.027 1.13931C164.991 1.1649 164.936 1.20447 164.875 1.25578C164.814 1.30789 164.664 1.43961 164.546 1.55563L164.536 1.56451L164.511 1.58664L164.487 1.61042L156.557 9.54857L156.547 9.55878L156.537 9.56928C155.555 10.6108 155.017 11.994 155.038 13.4253C155.059 14.8566 155.637 16.2234 156.649 17.2356C157.662 18.2479 159.028 18.8258 160.46 18.8468C161.303 18.8592 162.129 18.678 162.878 18.3263V35.0672C162.878 36.3879 162.522 37.2517 161.946 37.8165C161.614 38.1257 161.224 38.3665 160.799 38.5251C160.371 38.6849 159.916 38.7581 159.459 38.7406L159.418 38.739L159.378 38.7408C158.914 38.7608 158.451 38.6886 158.015 38.5282C157.586 38.3703 157.192 38.13 156.855 37.8208C156.307 37.2605 155.962 36.3945 155.959 35.0664V19.4785C155.979 18.7474 155.853 18.0197 155.589 17.3378C155.322 16.651 154.921 16.0246 154.408 15.4958C153.895 14.967 153.281 14.5466 152.603 14.2596C151.924 13.9725 151.195 13.8246 150.458 13.8246C149.721 13.8246 148.992 13.9725 148.314 14.2596C147.635 14.5467 147.021 14.967 146.508 15.4958C145.995 16.0246 145.594 16.6509 145.328 17.3378C145.063 18.0197 144.937 18.7474 144.957 19.4785V35.0672C144.957 39.9893 146.459 43.7878 149.635 46.2315L149.649 46.2422L149.663 46.2524C152.508 48.2863 155.928 49.358 159.424 49.3113C161.169 49.3227 162.907 49.0791 164.582 48.5879L164.592 48.585L164.601 48.5819C166.248 48.0619 167.797 47.2711 169.184 46.242L169.195 46.2335L169.207 46.2247C170.723 45.0307 171.906 43.4658 172.642 41.6811L172.642 41.6793C173.499 39.5874 173.918 37.3418 173.872 35.0817V18.3244C174.622 18.6773 175.45 18.8592 176.294 18.8468C177.725 18.8258 179.092 18.2479 180.104 17.2356C181.117 16.2234 181.695 14.8566 181.716 13.4253C181.737 11.994 181.199 10.6108 180.217 9.56928L179.921 9.25531H179.9L172.568 1.92364V1.90294L172.275 1.61005C172.164 1.49905 172.051 1.40152 171.966 1.32777C171.936 1.30045 171.905 1.27412 171.873 1.24889C171.785 1.17531 171.691 1.10562 171.629 1.06007L171.629 1.06004L171.593 1.03292L171.553 1.00341L171.52 0.9832L171.489 0.958104L171.448 0.930514C171.332 0.853239 171.22 0.788958 171.137 0.741995L171.133 0.739771L171.018 0.672251L171.006 0.66532L170.994 0.658716C170.878 0.594514 170.768 0.544791 170.676 0.505364L170.552 0.445023L170.52 0.429375L170.487 0.416072C170.395 0.37924 170.294 0.341463 170.182 0.306984L170.149 0.293254L170.145 0.29145C170.105 0.274937 169.986 0.225305 169.823 0.204688L169.793 0.195461C169.779 0.191185 169.762 0.186047 169.744 0.180744C169.725 0.175449 169.703 0.169383 169.679 0.163316L169.674 0.162079L169.488 0.116553L169.371 0.0879454H169.292L169.274 0.0843154L169.231 0.0760409C169.199 0.0699359 169.154 0.0617173 169.102 0.0549572C169.091 0.0535066 169.086 0.0526768 169.086 0.0525608L169.075 0.0504553L169.073 0.0500881C169.063 0.0481622 169.036 0.0427222 169.005 0.0378416ZM167.859 2.04141L168.05 2.01518L166.751 2.39866C166.758 2.39543 166.766 2.3912 166.78 2.38473L166.803 2.37411L166.831 2.36094C166.848 2.35303 166.869 2.34332 166.891 2.33236L167.028 2.26813L167.182 2.21481L167.189 2.21213L167.197 2.20932L167.363 2.14877L167.51 2.11189L167.529 2.10718L167.548 2.10175C167.59 2.08955 167.632 2.07953 167.675 2.07171L167.694 2.06828L167.712 2.06413L167.746 2.05655L167.771 2.05086L167.772 2.0507H167.791L167.859 2.04141ZM168.05 2.01518L166.617 2.47958L166.58 2.50323L166.541 2.52358C166.508 2.54111 166.475 2.56063 166.444 2.58204L166.426 2.59464L166.41 2.60483C166.408 2.60608 166.402 2.6105 166.389 2.6203L166.347 2.65253C166.33 2.66574 166.307 2.68303 166.282 2.70141C166.258 2.71919 166.236 2.73465 166.219 2.74676L166.178 2.77487L166.164 2.78527C166.146 2.80043 166.107 2.8344 166.061 2.87627C166.011 2.92138 165.965 2.96464 165.934 2.99529L165.911 3.01888L165.886 3.04083L165.878 3.04767L157.983 10.9512C157.363 11.613 157.025 12.4893 157.038 13.3959C157.051 14.3071 157.419 15.1771 158.064 15.8214C158.708 16.4658 159.578 16.8337 160.489 16.8471C161.396 16.8604 162.272 16.5217 162.934 15.9026L163.171 15.6653L164.878 13.9581V16.3724V35.0672C164.878 36.7599 164.409 38.2095 163.334 39.2562L163.327 39.2629L163.32 39.2694C162.794 39.7627 162.175 40.1466 161.499 40.3989C160.835 40.6464 160.13 40.7624 159.423 40.7405C158.708 40.7661 157.996 40.6522 157.324 40.4052C156.64 40.1534 156.013 39.7684 155.479 39.2724L155.464 39.2586L155.45 39.2443C154.411 38.1984 153.962 36.7532 153.959 35.069L153.959 35.0672V19.4641V19.4489L153.96 19.4337C153.974 18.965 153.894 18.4982 153.724 18.061C153.555 17.6237 153.299 17.225 152.972 16.8884C152.646 16.5518 152.255 16.2842 151.823 16.1015C151.391 15.9187 150.927 15.8246 150.458 15.8246C149.989 15.8246 149.525 15.9187 149.093 16.1015C148.661 16.2842 148.27 16.5518 147.944 16.8884C147.617 17.225 147.362 17.6237 147.192 18.061C147.023 18.4982 146.943 18.965 146.957 19.4337L146.957 19.4489V19.4641V35.0672C146.957 39.5678 148.309 42.6807 150.841 44.6357C153.338 46.4168 156.339 47.3543 159.407 47.3113L159.417 47.3112L159.428 47.3113C160.978 47.3223 162.521 47.1069 164.009 46.6717C165.436 46.2199 166.778 45.5349 167.981 44.6444C169.221 43.6645 170.19 42.382 170.792 40.9199C171.546 39.0788 171.914 37.1022 171.872 35.1131L171.872 35.1026V35.092V16.3683V13.954L173.579 15.6612L173.82 15.9026C174.482 16.5217 175.358 16.8604 176.265 16.8471C177.176 16.8337 178.046 16.4658 178.69 15.8214C179.335 15.1771 179.702 14.3071 179.716 13.3959C179.729 12.5121 179.407 11.6571 178.817 11.0015L178.778 10.9624L170.861 3.04496L170.648 2.8322L170.645 2.82979L170.628 2.81453L170.626 2.81321L170.62 2.80851L170.597 2.78938C170.559 2.75706 170.525 2.73143 170.467 2.68852L170.425 2.65725C170.386 2.63158 170.347 2.60442 170.31 2.57584C170.264 2.54649 170.211 2.51638 170.136 2.47353L170.127 2.46803L170.127 2.46797L170.021 2.40582C169.984 2.38593 169.938 2.36491 169.866 2.33405L169.844 2.32475L169.823 2.31443L169.713 2.26066C169.661 2.24064 169.621 2.22659 169.584 2.21546C169.539 2.20217 169.501 2.18839 169.47 2.17635C169.448 2.17243 169.429 2.16856 169.415 2.16549C169.361 2.15348 169.312 2.13955 169.283 2.13073C169.264 2.12525 169.236 2.11643 169.22 2.11155L169.209 2.10834L169.192 2.10326L169.097 2.07994C169.022 2.07231 168.961 2.061 168.926 2.05415L168.883 2.0459L168.856 2.04048L168.842 2.03794C168.806 2.03325 168.775 2.02846 168.746 2.02348C168.728 2.02049 168.713 2.01764 168.702 2.01536C168.485 1.99494 168.267 1.99488 168.05 2.01518ZM181.012 20.4548C179.644 20.4548 178.331 20.9984 177.364 21.966C176.396 22.9336 175.853 24.2459 175.853 25.6143V53.344V53.3597L175.853 53.3753C175.896 54.7323 176.465 56.0194 177.439 56.9643C178.414 57.9091 179.719 58.4375 181.076 58.4375C182.434 58.4375 183.738 57.9091 184.713 56.9643C185.688 56.0194 186.257 54.7323 186.299 53.3753L186.3 53.3597V53.344V48.0328C187.932 48.9494 189.79 49.4201 191.686 49.3778C193.388 49.417 195.077 49.0816 196.636 48.3952C198.199 47.7065 199.591 46.6814 200.713 45.393C203.062 42.7672 204.224 39.5536 204.221 35.8156C204.218 32.0772 203.056 28.868 200.71 26.2523C199.573 24.9727 198.171 23.9574 196.6 23.2777C195.036 22.6006 193.343 22.2728 191.639 22.3171C189.596 22.2864 187.599 22.8465 185.883 23.9124C185.629 23.1867 185.214 22.5199 184.66 21.966C183.693 20.9984 182.38 20.4548 181.012 20.4548ZM178.778 23.3802C179.371 22.7877 180.174 22.4548 181.012 22.4548C181.85 22.4548 182.654 22.7877 183.246 23.3802C183.839 23.9727 184.172 24.7763 184.172 25.6143V25.6764V27.8722L185.828 26.4307C187.434 25.0337 189.5 24.2807 191.627 24.3171L191.65 24.3175L191.672 24.3169C193.092 24.2773 194.503 24.5491 195.806 25.1131C197.109 25.6772 198.273 26.5198 199.216 27.5818L199.219 27.5858C201.209 29.8038 202.218 32.5261 202.221 35.8171C202.223 39.1069 201.215 41.8348 199.219 44.0641L199.214 44.0696L199.209 44.075C198.28 45.1437 197.126 45.994 195.829 46.5649C194.533 47.1358 193.127 47.4134 191.711 47.3778L191.686 47.3772L191.661 47.3778C189.574 47.4293 187.54 46.7123 185.946 45.3628L184.3 43.969V46.126V53.3273C184.27 54.1595 183.919 54.9482 183.321 55.5281C182.719 56.1113 181.914 56.4375 181.076 56.4375C180.238 56.4375 179.433 56.1113 178.831 55.5281C178.233 54.9482 177.882 54.1595 177.853 53.3273V25.6143C177.853 24.7763 178.186 23.9727 178.778 23.3802ZM189.963 32.1184C190.452 32.103 190.939 32.1902 191.393 32.3744C191.847 32.5586 192.257 32.8357 192.598 33.1878L192.597 33.1879L192.607 33.1974C192.951 33.5445 193.221 33.9584 193.4 34.4136C193.579 34.8689 193.662 35.3559 193.646 35.8446L193.645 35.8763L193.646 35.908C193.66 36.4062 193.575 36.9024 193.395 37.3672C193.218 37.8241 192.953 38.2417 192.615 38.5962C191.884 39.2711 190.923 39.6434 189.927 39.6373C188.932 39.6312 187.977 39.2479 187.254 38.5653C186.581 37.8335 186.207 36.8753 186.207 35.8805C186.207 34.8807 186.584 33.918 187.264 33.1849C187.607 32.8384 188.017 32.5651 188.47 32.3818C188.926 32.1968 189.416 32.1072 189.908 32.1186L189.935 32.1192L189.963 32.1184ZM193.999 40.0401L193.317 39.3095L194.036 40.0045C194.568 39.4542 194.984 38.8031 195.26 38.0894C195.533 37.3855 195.664 36.6348 195.646 35.8805C195.667 35.1297 195.536 34.3824 195.262 33.683C194.984 32.9759 194.566 32.3329 194.031 31.7932C193.498 31.2427 192.856 30.8095 192.145 30.5212C191.441 30.2355 190.686 30.0985 189.927 30.1186C189.171 30.1047 188.42 30.2441 187.718 30.5283C187.009 30.8159 186.366 31.2458 185.829 31.7915L185.819 31.801L185.81 31.8108C184.78 32.9155 184.207 34.3699 184.207 35.8805C184.207 37.3911 184.78 38.8455 185.81 39.9502L185.829 39.9708L185.85 39.9903C186.944 41.0387 188.399 41.628 189.915 41.6373C191.43 41.6465 192.892 41.075 193.999 40.0401Z" fill="url(#paint0_angular_24_4384)"/>
</g>
<g filter="url(#filter0_d_24_4384)">
<path d="M51.9664 47.3418H28V15.6582H37.0035V38.8528H51.9664V47.3418Z" fill="white"/>
<path d="M78.6473 34.7798C78.6473 35.7802 78.5616 36.8806 78.3901 38.0811H61.8837C62.7698 40.0819 64.499 41.0823 67.0714 41.0823C69.5867 41.0823 71.8876 40.3963 73.9741 39.0243L77.2325 44.5979C74.1742 46.7702 70.6442 47.8563 66.6427 47.8563C62.4125 47.8563 59.1398 46.6701 56.8246 44.2978C54.5094 41.8969 53.3518 38.9386 53.3518 35.4229C53.3518 31.8215 54.538 28.8347 56.9104 26.4623C59.3399 24.09 62.4554 22.9038 66.2568 22.9038C69.8296 22.9038 72.7879 23.9757 75.1317 26.1193C77.4754 28.2059 78.6473 31.0927 78.6473 34.7798ZM66.2568 29.5064C64.0274 29.5064 62.5268 30.4925 61.7551 32.4647H70.6299C69.9154 30.4925 68.4577 29.5064 66.2568 29.5064Z" fill="white"/>
<path d="M91.8093 36.1089L96.0538 23.504H105.272L95.0677 47.299H88.2079L78.0897 23.504H87.3504L91.8093 36.1089Z" fill="white"/>
<path d="M130.018 34.7798C130.018 35.7802 129.932 36.8806 129.76 38.0811H113.254C114.14 40.0819 115.869 41.0823 118.442 41.0823C120.957 41.0823 123.258 40.3963 125.344 39.0243L128.603 44.5979C125.544 46.7702 122.014 47.8563 118.013 47.8563C113.783 47.8563 110.51 46.6701 108.195 44.2978C105.88 41.8969 104.722 38.9386 104.722 35.4229C104.722 31.8215 105.908 28.8347 108.281 26.4623C110.71 24.09 113.826 22.9038 117.627 22.9038C121.2 22.9038 124.158 23.9757 126.502 26.1193C128.846 28.2059 130.018 31.0927 130.018 34.7798ZM117.627 29.5064C115.398 29.5064 113.897 30.4925 113.125 32.4647H122C121.286 30.4925 119.828 29.5064 117.627 29.5064Z" fill="white"/>
<path d="M141.388 14.6021V47.3418H132.984V14.6021H141.388Z" fill="white"/>
</g>
<path d="M106.183 60.059C106.766 59.8455 107.164 59.234 107.164 58.603C107.164 57.7294 106.475 56.8267 105.067 56.8267H101.709V64H105.232C106.63 64 107.542 63.0876 107.542 61.8839C107.542 61.0394 107.106 60.2823 106.183 60.059ZM104.727 58.3603C105.155 58.3603 105.387 58.6515 105.387 58.9622C105.387 59.2534 105.193 59.5737 104.65 59.5737H103.485V58.3603H104.727ZM104.844 62.4469H103.485V61.02H104.883C105.436 61.02 105.679 61.3792 105.679 61.7383C105.679 62.0683 105.455 62.4469 104.844 62.4469ZM111.991 58.6418L110.933 61.7189L109.749 58.6418H107.779L110.108 63.9126L110.079 63.9806C109.817 64.5048 109.506 64.7571 109.05 64.7571C108.798 64.7571 108.565 64.6795 108.351 64.5727L108.021 65.9802C108.332 66.1743 108.74 66.2811 109.176 66.2811C110.487 66.2811 111.225 65.3978 111.768 64.0097L113.845 58.6418H111.991Z" fill="white"/>
<path d="M117.064 63.6599L118.988 62.1788C120.01 63.5195 121.096 64.1374 122.305 64.1374C123.507 64.1374 124.562 63.5268 125.538 62.1967L127.489 63.6421C126.081 65.5601 124.331 66.5735 122.305 66.5735C120.285 66.5735 118.518 65.5666 117.064 63.6599Z" fill="url(#paint1_linear_24_4384)"/>
<path d="M122.299 57.2223L118.874 60.1878L117.292 58.3429L122.306 54.0002L127.281 58.3461L125.691 60.1845L122.299 57.2223Z" fill="url(#paint2_linear_24_4384)"/>
<path d="M134.867 64.744C133.698 64.744 132.723 64.3631 131.933 63.6015C131.143 62.8292 130.753 61.8394 130.753 60.6311C130.753 59.4131 131.153 58.4119 131.944 57.6283C132.745 56.8341 133.72 56.4427 134.878 56.4427C136.307 56.4427 137.574 57.0623 138.31 58.031L137.021 59.3912C136.404 58.7269 135.732 58.39 135.007 58.39C134.39 58.39 133.881 58.5962 133.459 59.0209C133.047 59.4456 132.842 59.9791 132.842 60.6206C132.842 61.2409 133.047 61.7631 133.459 62.1877C133.881 62.6011 134.39 62.8073 134.996 62.8073C135.786 62.8073 136.48 62.459 137.053 61.7736L138.396 63.0688C138.028 63.5584 137.53 63.9612 136.913 64.2762C136.295 64.5921 135.613 64.744 134.866 64.744H134.867ZM140.668 56.3226V64.6246H138.763V56.3226H140.668ZM142.474 58.0846C141.836 58.0846 141.37 57.6169 141.37 56.9754C141.37 56.355 141.857 55.8873 142.474 55.8873C143.091 55.8873 143.568 56.355 143.568 56.9754C143.568 57.6169 143.091 58.0855 142.474 58.0855V58.0846ZM143.438 58.6181V64.6246H141.521V58.6181H143.438ZM147.106 64.7553C146.164 64.7553 145.406 64.4614 144.811 63.8735C144.226 63.2864 143.934 62.5353 143.934 61.6104C143.934 60.6855 144.226 59.9352 144.822 59.3473C145.417 58.7594 146.186 58.4663 147.138 58.4663C148.384 58.4663 149.478 59.0753 149.986 60.2178L148.46 61.0233C148.157 60.5118 147.734 60.2503 147.182 60.2503C146.781 60.2503 146.457 60.381 146.196 60.6425C146.073 60.7708 145.976 60.9224 145.911 61.0885C145.846 61.2546 145.814 61.4319 145.817 61.6104C145.817 62.4046 146.391 62.9925 147.16 62.9925C147.712 62.9925 148.221 62.688 148.438 62.2202L149.965 63.1337C149.444 64.135 148.373 64.7553 147.106 64.7553ZM156.61 64.6246H154.336L152.571 62.2413L152.289 62.5028V64.6246H150.385V56.3226H152.29V60.3591L154.087 58.6181H156.415L153.85 61.0339L156.61 64.6246ZM156.738 61.5016V56.5832H158.773V61.4691C158.773 62.3721 159.293 62.8073 160.04 62.8073C160.776 62.8073 161.296 62.3502 161.296 61.4691V56.5832H163.342V61.5016C163.342 63.8735 161.707 64.7659 160.04 64.7659C158.384 64.7659 156.738 63.8735 156.738 61.5016ZM167.866 58.4663C168.721 58.4663 169.414 58.7708 169.966 59.3798C170.518 59.9783 170.789 60.7294 170.789 61.6104C170.789 62.4923 170.508 63.2426 169.956 63.8629C169.403 64.4719 168.711 64.7773 167.877 64.7773C167.216 64.7773 166.642 64.5596 166.177 64.1244V67.0948H164.26V58.6181H166.145V59.1736C166.61 58.705 167.184 58.4663 167.866 58.4663ZM168.84 61.6323C168.84 60.8487 168.278 60.2503 167.498 60.2503C166.718 60.2503 166.145 60.8487 166.145 61.6323C166.145 62.0132 166.274 62.3396 166.524 62.6116C166.783 62.8836 167.108 63.0144 167.498 63.0144C167.887 63.0144 168.212 62.8836 168.461 62.6116C168.709 62.3471 168.845 61.9959 168.841 61.6323H168.84Z" fill="white"/>
<defs>
<filter id="filter0_d_24_4384" x="0.236956" y="3.16546" width="168.914" height="88.7804" filterUnits="userSpaceOnUse" color-interpolation-filters="sRGB">
<feFlood flood-opacity="0" result="BackgroundImageFix"/>
<feColorMatrix in="SourceAlpha" type="matrix" values="0 0 0 0 0 0 0 0 0 0 0 0 0 0 0 0 0 0 127 0" result="hardAlpha"/>
<feOffset dy="16.3265"/>
<feGaussianBlur stdDeviation="13.8815"/>
<feColorMatrix type="matrix" values="0 0 0 0 1 0 0 0 0 1 0 0 0 0 1 0 0 0 0.3 0"/>
<feBlend mode="normal" in2="BackgroundImageFix" result="effect1_dropShadow_24_4384"/>
<feBlend mode="normal" in="SourceGraphic" in2="effect1_dropShadow_24_4384" result="shape"/>
</filter>
<radialGradient id="paint0_angular_24_4384" cx="0" cy="0" r="1" gradientUnits="userSpaceOnUse" gradientTransform="translate(168.358 30.5124) rotate(-105.056) scale(40.0445 38.4232)">
<stop offset="0.128568" stop-color="#45C4F9"/>
<stop offset="0.420591" stop-color="#fbb040"/>
<stop offset="0.726715" stop-color="#ef4136"/>
<stop offset="1" stop-color="#FFC800"/>
</radialGradient>
<linearGradient id="paint1_linear_24_4384" x1="117.064" y1="65.1676" x2="127.489" y2="65.1676" gradientUnits="userSpaceOnUse">
<stop stop-color="#8930FD"/>
<stop offset="1" stop-color="#49CCF9"/>
</linearGradient>
<linearGradient id="paint2_linear_24_4384" x1="117.292" y1="58.2084" x2="127.281" y2="58.2084" gradientUnits="userSpaceOnUse">
<stop stop-color="#FF02F0"/>
<stop offset="1" stop-color="#FFC800"/>
</linearGradient>
</defs>
</svg>
