<svg xmlns="http://www.w3.org/2000/svg" width="38" height="40"><path fill="#7462E1" fill-rule="evenodd" d="M2.836 38.157h24.215a1.91 1.91 0 0 0 1.336-.557c.34-.34.55-.812.55-1.336V19.566H.943v16.698a1.9 1.9 0 0 0 1.893 1.893zM37.046 8.86v16.704c0 .524-.217.996-.557 1.336a1.86 1.86 0 0 1-1.336.557h-5.266V13.548c0-.785-.321-1.493-.832-2.003a2.85 2.85 0 0 0-2.004-.832H9.058V8.86h27.987zM9.057 7.917h27.987V2.835c0-.523-.216-.995-.556-1.335a1.886 1.886 0 0 0-1.336-.557H10.945a1.886 1.886 0 0 0-1.887 1.892v5.082zm-.95 2.796V2.835c0-.779.322-1.486.832-2.003h.007l.007-.007A2.801 2.801 0 0 1 10.944 0h24.209c.786 0 1.493.32 2.004.832.51.51.832 1.218.832 2.003v22.73c0 .779-.321 1.486-.832 2.003a2.85 2.85 0 0 1-2.004.832h-5.266v7.864c0 .78-.321 1.487-.832 1.998l-.007.006c-.51.51-1.218.832-1.997.832H2.836A2.838 2.838 0 0 1 0 36.264V13.548c0-.779.32-1.486.825-1.997l.007-.006a2.85 2.85 0 0 1 2.004-.832h5.273zm20.829 7.91v-5.075c0-.524-.21-.995-.55-1.335a1.91 1.91 0 0 0-1.336-.557H2.836c-.524 0-.996.216-1.336.557-.34.34-.557.811-.557 1.335v5.075h27.994z"/></svg>