<svg width="24" height="24" fill="none" xmlns="http://www.w3.org/2000/svg"><mask id="a" maskUnits="userSpaceOnUse" x="1" y="1" width="22" height="22"><path d="M12 23c6.075 0 11-4.925 11-11S18.075 1 12 1 1 5.925 1 12s4.925 11 11 11z" fill="#fff"/></mask><g mask="url(#a)"><path d="M2.746 1v13.5H7.67L12 7h11V1H2.746z" fill="#DB4437"/><path d="M2.746 1v13.5H7.67L12 7h11V1H2.746z" fill="url(#paint0_linear)"/><path d="M7.789 14.456L2.81 5.917l-.072.125 4.942 8.476.109-.062z" fill="#3E2723" fill-opacity=".15"/><path d="M1 23h10.471l4.86-4.86V14.5H7.67L1 3.06V23z" fill="#0F9D58"/><path d="M1 23h10.471l4.86-4.86V14.5H7.67L1 3.06V23z" fill="url(#paint1_linear)"/><path d="M16.23 14.666l-.104-.06L11.328 23h.143l4.763-8.33-.004-.004z" fill="#263238" fill-opacity=".15"/><path d="M12 7l4.331 7.5-4.86 8.5H23V7H12z" fill="#FFCD40"/><path d="M12 7l4.331 7.5-4.86 8.5H23V7H12z" fill="url(#paint2_linear)"/><path d="M2.746 1v13.5H7.67L12 7h11V1H2.746z" fill="#DB4437"/><path d="M2.746 1v13.5H7.67L12 7h11V1H2.746z" fill="url(#paint3_linear)"/><path d="M1 23h10.471l4.86-4.86V14.5H7.67L1 3.06V23z" fill="#0F9D58"/><path d="M1 23h10.471l4.86-4.86V14.5H7.67L1 3.06V23z" fill="url(#paint4_linear)"/><path d="M2.746 6.056l7.156 7.155L7.67 14.5 2.746 6.056z" fill="url(#paint5_radial)"/><path d="M11.479 22.986l2.62-9.775 2.232 1.289-4.852 8.486z" fill="url(#paint6_radial)"/><path d="M12 7l4.331 7.5-4.86 8.5H23V7H12z" fill="#FFCD40"/><path d="M12 7l4.331 7.5-4.86 8.5H23V7H12z" fill="url(#paint7_linear)"/><path d="M12 7v2.619L21.8 7H12z" fill="url(#paint8_radial)"/><path d="M12 6.875a5 5 0 0 0-5 5V12a5 5 0 0 1 5-5h11v-.125H12z" fill="#3E2723" fill-opacity=".2"/><path d="M16.325 14.5A4.995 4.995 0 0 1 12 17a4.996 4.996 0 0 1-4.326-2.5h-.005L1 3.06v.125l6.67 11.44h.005a4.993 4.993 0 1 0 8.651 0h.006V14.5h-.007z" fill="#fff" fill-opacity=".1"/><path opacity=".1" d="M12.125 7c-.021 0-.041.003-.063.004a4.998 4.998 0 0 1 0 9.992c.022 0 .042.004.063.004a5 5 0 0 0 0-10z" fill="#3E2723"/><path d="M16.375 14.666a4.965 4.965 0 0 0 .437-4.006c.12.428.188.876.188 1.341 0 .91-.246 1.76-.671 2.495l.002.005-4.86 8.5h.145l4.761-8.33-.002-.005z" fill="#fff" fill-opacity=".2"/><path d="M12 1.125c6.054 0 10.965 4.891 10.999 10.938L23 12c0-6.075-4.925-11-11-11S1 5.925 1 12l.001.063C1.035 6.016 5.946 1.124 12 1.124z" fill="#fff" fill-opacity=".2"/><path d="M12 22.875c6.054 0 10.965-4.891 10.999-10.938L23 12c0 6.075-4.925 11-11 11S1 18.075 1 12l.001-.063C1.035 17.985 5.946 22.876 12 22.876z" fill="#3E2723" fill-opacity=".15"/><path d="M12 17a5 5 0 1 0 0-10 5 5 0 0 0 0 10z" fill="#F1F1F1"/><path d="M12 16a4 4 0 1 0 0-8 4 4 0 0 0 0 8z" fill="#4285F4"/><path d="M12 23c6.075 0 11-4.925 11-11S18.075 1 12 1 1 5.925 1 12s4.925 11 11 11z" fill="url(#paint9_radial)"/></g><defs><linearGradient id="paint0_linear" x1="3.667" y1="9.378" x2="10.229" y2="5.544" gradientUnits="userSpaceOnUse"><stop stop-color="#A52714" stop-opacity=".6"/><stop offset=".66" stop-color="#A52714" stop-opacity="0"/></linearGradient><linearGradient id="paint1_linear" x1="13.859" y1="20.562" x2="6.567" y2="16.291" gradientUnits="userSpaceOnUse"><stop stop-color="#055524" stop-opacity=".4"/><stop offset=".33" stop-color="#055524" stop-opacity="0"/></linearGradient><linearGradient id="paint2_linear" x1="15.232" y1="6.226" x2="17.068" y2="14.266" gradientUnits="userSpaceOnUse"><stop stop-color="#EA6100" stop-opacity=".3"/><stop offset=".66" stop-color="#EA6100" stop-opacity="0"/></linearGradient><linearGradient id="paint3_linear" x1="3.667" y1="9.378" x2="10.229" y2="5.544" gradientUnits="userSpaceOnUse"><stop stop-color="#A52714" stop-opacity=".6"/><stop offset=".66" stop-color="#A52714" stop-opacity="0"/></linearGradient><linearGradient id="paint4_linear" x1="13.859" y1="20.562" x2="6.567" y2="16.291" gradientUnits="userSpaceOnUse"><stop stop-color="#055524" stop-opacity=".4"/><stop offset=".33" stop-color="#055524" stop-opacity="0"/></linearGradient><radialGradient id="paint5_radial" cx="0" cy="0" r="1" gradientUnits="userSpaceOnUse" gradientTransform="translate(2.734 6.065) scale(9.7555)"><stop stop-color="#3E2723" stop-opacity=".2"/><stop offset="1" stop-color="#3E2723" stop-opacity="0"/></radialGradient><radialGradient id="paint6_radial" cx="0" cy="0" r="1" gradientUnits="userSpaceOnUse" gradientTransform="translate(11.98 12.017) scale(10.9837)"><stop stop-color="#263238" stop-opacity=".2"/><stop offset="1" stop-color="#263238" stop-opacity="0"/></radialGradient><linearGradient id="paint7_linear" x1="15.232" y1="6.226" x2="17.068" y2="14.266" gradientUnits="userSpaceOnUse"><stop stop-color="#EA6100" stop-opacity=".3"/><stop offset=".66" stop-color="#EA6100" stop-opacity="0"/></linearGradient><radialGradient id="paint8_radial" cx="0" cy="0" r="1" gradientUnits="userSpaceOnUse" gradientTransform="translate(11.522 6.994) scale(10.5098)"><stop stop-color="#3E2723" stop-opacity=".2"/><stop offset="1" stop-color="#3E2723" stop-opacity="0"/></radialGradient><radialGradient id="paint9_radial" cx="0" cy="0" r="1" gradientUnits="userSpaceOnUse" gradientTransform="translate(4.286 4.002) scale(22.0932)"><stop stop-color="#fff" stop-opacity=".1"/><stop offset="1" stop-color="#fff" stop-opacity="0"/></radialGradient></defs></svg>