<svg width="29" height="30" xmlns="http://www.w3.org/2000/svg"><g fill="#FFF" fill-rule="evenodd"><path d="M17.483 5.581l-2.033-.308-.909-1.922A.602.602 0 0 0 14 3c-.23 0-.44.136-.541.351l-.91 1.922-2.032.308a.612.612 0 0 0-.488.429.65.65 0 0 0 .153.645l1.471 1.496-.347 2.113a.643.643 0 0 0 .24.616c.186.14.432.159.636.048L14 9.93l1.818.998a.584.584 0 0 0 .636-.048.642.642 0 0 0 .24-.616l-.347-2.113 1.47-1.496a.65.65 0 0 0 .154-.645.612.612 0 0 0-.488-.429zm-2.206 1.9a.647.647 0 0 0-.174.557l.195 1.181-1.017-.558a.583.583 0 0 0-.562 0l-1.017.558.195-1.18a.648.648 0 0 0-.174-.558l-.823-.837 1.137-.172a.606.606 0 0 0 .455-.345L14 5.052l.508 1.075a.605.605 0 0 0 .455.345l1.136.172-.822.837zM17.319 26H11.68c-.376 0-.681.224-.681.5s.305.5.681.5h5.638c.376 0 .681-.224.681-.5s-.305-.5-.681-.5"/><path d="M27.387 1.914c-.998-.752-2.28-.877-3.61-.38v-.89A.637.637 0 0 0 23.146 0H5.771a.637.637 0 0 0-.63.643v.86c-1.302-.461-2.55-.326-3.528.41C.3 2.902-.281 4.794.13 6.735.76 9.723 3.466 12.05 7.394 13.01l.01.007c.345.207.166.595.103.709-.029.052-.294.506-.682.293a.626.626 0 0 0-.856.261.65.65 0 0 0 .257.872c.275.15.549.217.81.217.667 0 1.253-.436 1.571-1.012.024-.043.045-.087.065-.13 2.003 2.22 1.981 3.418 1.96 4.481-.002.125-.004.246-.003.364-.135 1.905-.86 1.905-1.1 1.905-.288 0-.54.2-.61.485l-.647 2.597H7.74c-.29 0-.542.2-.612.486l-1.03 4.17h-1.23a.637.637 0 0 0-.631.643c0 .355.282.643.631.643H24.05a.637.637 0 0 0 .631-.643.637.637 0 0 0-.631-.643h-1.23l-1.03-4.17a.634.634 0 0 0-.612-.486h-.532L20 21.46a.634.634 0 0 0-.612-.485c-.24 0-.964 0-1.099-1.905 0-.118-.002-.24-.004-.364-.02-1.072-.043-2.282 2.014-4.541.028.063.059.127.093.19.319.576.904 1.012 1.572 1.012.261 0 .535-.066.81-.217a.65.65 0 0 0 .257-.872.626.626 0 0 0-.856-.261c-.388.214-.653-.24-.682-.293-.063-.114-.242-.503.103-.709l.01-.007c3.928-.959 6.633-3.286 7.264-6.275.41-1.94-.172-3.833-1.483-4.82zM1.364 6.464c-.306-1.449.086-2.828.999-3.516.733-.552 1.71-.568 2.777-.057v3.786c0 1.689.409 3.266 1.195 4.673-2.702-.981-4.517-2.737-4.971-4.887zm20.154 22.25H7.4l.833-3.37h12.454l.832 3.37zm-1.78-15.811l-.03.029c-2.742 2.864-2.71 4.561-2.685 5.8.002.122.005.24.004.354l.001.05c.071 1.054.413 2.753 1.855 3.074l.46 1.848H9.574l.46-1.848c1.442-.32 1.785-2.02 1.856-3.075a.648.648 0 0 0 .001-.05c0-.114.002-.231.004-.352.024-1.24.057-2.937-2.686-5.801a.646.646 0 0 0-.03-.03C7.363 11.24 6.403 9.089 6.403 6.678v-5.39h16.112v5.39c0 2.41-.96 4.563-2.776 6.226zm7.898-6.44c-.46 2.177-2.315 3.95-5.073 4.924.8-1.416 1.214-3.006 1.214-4.71V2.931c1.1-.553 2.108-.55 2.86.017.913.688 1.305 2.068 1 3.515z"/></g></svg>