<svg width="16" height="16" viewBox="0 0 16 16" fill="none" xmlns="http://www.w3.org/2000/svg">
<path fill-rule="evenodd" clip-rule="evenodd" d="M3.41421 0.585786C2.63316 -0.195262 1.36683 -0.195262 0.585786 0.585786C-0.195262 1.36683 -0.195262 2.63316 0.585786 3.41421L5.17157 8L0.585787 12.5858C-0.195261 13.3668 -0.195261 14.6332 0.585787 15.4142C1.36684 16.1953 2.63317 16.1953 3.41421 15.4142L8 10.8284L12.5858 15.4142C13.3668 16.1953 14.6332 16.1953 15.4142 15.4142C16.1953 14.6332 16.1953 13.3668 15.4142 12.5858L10.8284 8L15.4142 3.41421C16.1953 2.63316 16.1953 1.36683 15.4142 0.585786C14.6332 -0.195262 13.3668 -0.195262 12.5858 0.585786L8 5.17157L3.41421 0.585786Z" fill="white"/>
</svg>
