<svg xmlns="http://www.w3.org/2000/svg" width="51" height="40"><path fill="#7462E1" fill-rule="evenodd" d="M32.27 31.685H12.601l-9.858 7.478a.506.506 0 0 1-.71-.098c-.092-.12-.12-.26-.092-.394l1.295-6.986H3.04a3.06 3.06 0 0 1-2.146-.893l-.007-.007A3.025 3.025 0 0 1 0 28.639V8.062c0-.837.345-1.597.894-2.153a3.026 3.026 0 0 1 2.146-.886h12.574V3.039c0-.837.338-1.597.894-2.153A3.026 3.026 0 0 1 18.654 0h29.23c.837 0 1.597.338 2.152.886v.007c.55.55.887 1.309.887 2.146v20.577c0 .837-.338 1.597-.887 2.153a3.061 3.061 0 0 1-2.153.893h-.19l1.295 6.986a.509.509 0 0 1-.802.492l-9.858-7.478h-3.012v1.977a3.048 3.048 0 0 1-3.047 3.046zM20.933 22.8H6.248a.504.504 0 0 0-.506.507c0 .28.225.506.506.506h14.686a.51.51 0 0 0 .513-.506.51.51 0 0 0-.513-.507zm8.127-5.565H6.248a.509.509 0 0 0-.506.507c0 .281.232.506.506.506h22.813a.51.51 0 0 0 .513-.506.51.51 0 0 0-.513-.507zm-2.653-5.24H6.248a.509.509 0 0 0-.506.506c0 .281.232.506.506.506h20.16a.504.504 0 0 0 .507-.506.504.504 0 0 0-.507-.507zm18.119 5.958a.509.509 0 0 1 0 1.02h-9.21v6.676h3.173c.133 0 .253.05.344.134l8.923 6.76-1.168-6.296a.5.5 0 0 1 .408-.59c.028-.008.056-.008.084-.008h.802a2.038 2.038 0 0 0 2.034-2.033V3.04a2.05 2.05 0 0 0-.598-1.435 2.033 2.033 0 0 0-1.436-.591h-29.23c-.555 0-1.062.225-1.428.591a2.02 2.02 0 0 0-.598 1.435v1.984H32.27c.838 0 1.598.338 2.153.886v.007c.338.338.599.76.746 1.224h9.366a.51.51 0 0 1 0 1.02h-9.218v4.221h7.487c.281 0 .514.233.514.514a.515.515 0 0 1-.514.506h-7.487v4.552h9.21zm-32.094 12.72H32.27c.563 0 1.07-.233 1.436-.599.366-.366.598-.872.598-1.435V8.062a2.02 2.02 0 0 0-.598-1.428v-.007a2.02 2.02 0 0 0-1.436-.591H3.04c-.555 0-1.062.225-1.428.598a2.021 2.021 0 0 0-.598 1.428v20.577c0 .563.225 1.07.598 1.435.366.373.873.598 1.429.598h.802c.035 0 .063.007.091.007a.51.51 0 0 1 .409.591l-1.169 6.296 8.916-6.76a.503.503 0 0 1 .344-.134z"/></svg>