<svg width="205" height="205" xmlns="http://www.w3.org/2000/svg" xmlns:xlink="http://www.w3.org/1999/xlink"><defs><circle id="a" cx="102.5" cy="102.5" r="102.5"/></defs><g fill="none" fill-rule="evenodd"><mask id="b" fill="#fff"><use xlink:href="#a"/></mask><use fill="#FFF" xlink:href="#a"/><g mask="url(#b)"><path d="M75.92 41.673V45.9H60.53V35C48.075 48.99 47.402 76.592 46.392 93.545c-1.707 28.561-4.13 52.676 8.458 79.226 1.404 2.967 3.023 5.77 4.875 8.34 5.564 7.702 13.263 13.282 23.835 14.746 16.528 1.953 22.36-16.588 22.36-29.274a84.126 84.126 0 0 0-.85-7.664 127.861 127.861 0 0 0-1.416-7.468c-7.457-21.952-8.43-46.348-.436-68.288 1.386-2.292 3.191-4.347 5.456-6.177 2.266-1.826 4.994-3.434 8.226-4.843a330.495 330.495 0 0 0 6.4-3.96c6.459-4.09 13.094-8.556 19.952-13.245 1.82-1.163 3.724-2.37 5.704-3.616 1.633-1.68 2.92-3.674 3.84-5.822.527-1.234.92-2.52 1.203-3.827H75.92" fill="#D0B036"/><path d="M71 203c.33-.335.66-.67 1-1-.34.33-.67.665-1 1" fill="#247E75"/><path d="M108.23 83.96c7.986 21.98 7.014 46.42-.437 68.41a128.39 128.39 0 0 0-1.414 7.482 83.467 83.467 0 0 0-.846 7.678c0 12.71 5.827 31.283 22.338 29.327 10.564-1.467 18.257-7.057 23.816-14.773 1.85-2.574 3.468-5.382 4.874-8.354 12.574-26.598 9.546-60.71 7.84-89.322-1.338-22.48-5.911-46.615-25.183-60.624C123.14 12.1 99.99 10.832 81.242 15.602c-2.488.562-4.946 1.294-7.303 2.234-7.067 2.814-13.188 7.464-16.202 14.809-.629 2.17-.85 4.489-.684 6.802a21.209 21.209 0 0 0 1.638 6.782c.92 2.152 2.205 4.15 3.838 5.833a835.317 835.317 0 0 1 5.7 3.622c6.85 4.697 13.481 9.172 19.934 13.268a330.082 330.082 0 0 0 6.395 3.968c3.23 1.412 5.956 3.022 8.22 4.852 2.263 1.834 4.067 3.892 5.452 6.188" fill="#E4BC25"/><path d="M76 196.46c.155-.155.31-.305.465-.46-.155.155-.31.305-.465.46m2.005-1.46H78h.005M75 198c.325-.333.667-.667 1-1-.333.333-.675.667-1 1m-2 2.435c.125-.145.245-.295.37-.435-.125.14-.245.29-.37.435M71 203c.14-.34.285-.67.425-1-.14.33-.285.66-.425 1m3-3c.333-.33.667-.67 1-1-.333.33-.667.67-1 1m-4 4c.325-.334.667-.667 1-1-.333.333-.675.666-1 1m0 1" fill="#32B3A8"/><path d="M147 220c-.102-.304-.2-.607-.305-.908a61.488 61.488 0 0 0-3.119-7.333l-.005-.012a52.417 52.417 0 0 0-.938-1.784 54.59 54.59 0 0 0-.909-1.612l-.06-.1a54.787 54.787 0 0 0-.965-1.585l-.043-.076a59.108 59.108 0 0 0-1.054-1.615l-.02.012a63.416 63.416 0 0 0-3.915-5.202l.018-.011c-.285-.339-.581-.669-.874-1.002-.169-.193-.334-.391-.506-.581a58.584 58.584 0 0 0-2.026-2.147c-.186-.19-.38-.373-.57-.56-.56-.55-1.13-1.09-1.707-1.615-.215-.196-.427-.391-.645-.584a59.62 59.62 0 0 0-2.282-1.925c-.14-.11-.281-.216-.424-.324a55.921 55.921 0 0 0-2.064-1.545c-.23-.16-.459-.324-.688-.485a55.312 55.312 0 0 0-2.561-1.682 42.777 42.777 0 0 0-3.035-1.582c-.888-.418-1.8-.8-2.726-1.157-.151-.058-.302-.123-.453-.181a7.637 7.637 0 0 0-2.672-.4 8.1 8.1 0 0 0-2.572.502 9.925 9.925 0 0 0-1.614.768v5.362l-.912-5.362c-.262-.154-.645-.295-1.121-.423-.717-.193-1.644-.356-2.677-.485a49.455 49.455 0 0 0-1.066-.12 53.775 53.775 0 0 0-2.256-.169 50.884 50.884 0 0 0-3.357-.073c-1.408.017-2.642.102-3.464.266a4.015 4.015 0 0 0-.531.134 41.486 41.486 0 0 0-6.214 2.92c-.703.43-1.39.88-2.07 1.34-.357.243-.706.494-1.057.745-.227.161-.459.319-.685.482l.006.01a58.515 58.515 0 0 0-4.96 4.044H77.9a66.643 66.643 0 0 0-1.855 1.772l-.27.27c-.25.25-.497.507-.74.761-.123.129-.248.257-.367.386a57.37 57.37 0 0 0-.705.76c-.12.13-.238.265-.357.396-.235.263-.47.526-.7.792-.073.084-.142.172-.215.257a62.393 62.393 0 0 0-1.426 1.728c-.08.103-.165.205-.246.307-.21.269-.413.537-.616.806-.12.158-.241.315-.357.473-.195.26-.386.523-.575.789-.122.17-.244.338-.363.51-.186.264-.372.526-.552.792-.113.17-.223.339-.337.508a63.384 63.384 0 0 0-.975 1.507c-.11.175-.22.35-.328.526-.157.254-.305.51-.456.765-.125.21-.25.418-.372.628l-.427.756c-.125.222-.244.444-.366.666-.133.248-.267.494-.397.742a34.85 34.85 0 0 0-.38.745c-.117.227-.236.455-.35.683-.22.447-.435.896-.644 1.35-.098.215-.194.434-.293.653-.125.278-.247.552-.369.83l-.287.686c-.116.277-.23.558-.343.835l-.264.669c-.12.312-.235.628-.351.94-.07.19-.143.38-.21.57A44.65 44.65 0 0 0 61 220h86" fill="#9685FF"/><path d="M68.558 209.145c8.136.82 16.324 1.008 24.495.743 7.369-.24 15.24-.827 21.574-5.06 4.704-3.147 10.257-8.624 12.373-14.517-.317-.238-.631-.485-.954-.72-.232-.163-.464-.33-.695-.493a55.869 55.869 0 0 0-2.589-1.713 43.08 43.08 0 0 0-3.067-1.612 41.356 41.356 0 0 0-2.756-1.177c-.152-.06-.305-.125-.457-.185a7.667 7.667 0 0 0-2.7-.407 8.139 8.139 0 0 0-2.6.511 10.007 10.007 0 0 0-1.632.782v5.46l-.922-5.46c-.264-.157-.652-.3-1.133-.43-.725-.197-1.661-.363-2.706-.494a44.15 44.15 0 0 0-1.077-.122 53.963 53.963 0 0 0-2.28-.173 51.056 51.056 0 0 0-3.393-.074c-1.423.018-2.67.104-3.501.27a4.034 4.034 0 0 0-.537.137 41.765 41.765 0 0 0-6.281 2.974c-.71.437-1.406.895-2.093 1.365-.36.246-.713.502-1.068.758-.229.163-.464.324-.692.49l.005.01a59.232 59.232 0 0 0-5.012 4.118h-.003a67.575 67.575 0 0 0-1.876 1.805c-.09.092-.182.18-.273.273a61.61 61.61 0 0 0-.748.776c-.123.131-.25.262-.37.393-.24.255-.478.514-.713.773l-.36.404c-.239.267-.476.535-.708.806-.074.086-.144.175-.217.262a63.43 63.43 0 0 0-1.441 1.76c-.083.104-.168.208-.25.312-.211.274-.417.547-.622.82-.12.161-.244.322-.361.483-.197.264-.39.532-.581.802-.123.173-.247.345-.367.52-.188.268-.376.536-.558.807l-.34.517a63.4 63.4 0 0 0-1.318 2.069c-.158.26-.308.52-.46.78-.1.166-.197.335-.294.502.522.05 1.042.104 1.558.155" fill="#F8CB93"/><path d="M105.001 132C98.4 132 93 137.252 93 143.668v41.667C93 191.751 98.4 197 105.001 197c6.6 0 11.999-5.25 11.999-11.665v-41.667c0-6.416-5.4-11.668-11.999-11.668" fill="#F8CB93"/><path d="M105.001 198C98.4 198 93 192.65 93 186.112v-14.068a57.15 57.15 0 0 0 11.897 1.242A57.24 57.24 0 0 0 117 172v14.112c0 6.538-5.4 11.888-11.999 11.888" fill="#E7A47B"/><path d="M67 106c0 6.627-5.37 12-11.999 12C48.374 118 43 112.627 43 106s5.374-12 12.001-12C61.63 94 67 99.373 67 106" fill="#F8CB93"/><path d="M54 114c-3.383-.342-6-2.673-6-5.499 0-2.828 2.617-5.159 6-5.501v11" fill="#E7A47B"/><path d="M143 106c0 6.627 5.374 12 12.001 12 6.628 0 11.999-5.373 11.999-12s-5.37-12-11.999-12C148.374 94 143 99.373 143 106" fill="#F8CB93"/><path d="M155 114v-11c3.866 0 7 2.463 7 5.501 0 3.036-3.134 5.499-7 5.499" fill="#E7A47B"/><path d="M104.5 27C76.724 27 54 47.44 54 72.42v56.16C54 153.56 76.724 174 104.5 174s50.5-20.44 50.5-45.42V72.42C155 47.44 132.276 27 104.5 27m.397 155.306c-4.092 0-8.074-.446-11.897-1.264v5.998c0 6.578 5.4 11.96 12.001 11.96 6.6 0 11.999-5.382 11.999-11.96V181a56.92 56.92 0 0 1-12.103 1.306" fill="#F8CB93"/><path d="M78 126h-6c-1.65 0-3-1.35-3-3s1.35-3 3-3h6c1.65 0 3 1.35 3 3s-1.35 3-3 3m60 0h-6c-1.65 0-3-1.35-3-3s1.35-3 3-3h6c1.65 0 3 1.35 3 3s-1.35 3-3 3" fill="#E29A75"/><path d="M81.254 101h-2.508c-2.06 0-3.746 1.8-3.746 4.002C75 107.2 76.686 109 78.746 109h2.508c2.06 0 3.746-1.8 3.746-3.998C85 102.8 83.314 101 81.254 101" fill="#202323"/><path d="M78.5 106a1.5 1.5 0 1 1-.001-2.999A1.5 1.5 0 0 1 78.5 106m2.498 2a.999.999 0 1 1 .001-1.998.999.999 0 0 1 0 1.998" fill="#8A8D89"/><path d="M130.254 101h-2.508c-2.06 0-3.746 1.8-3.746 4.002 0 2.198 1.686 3.998 3.746 3.998h2.508c2.062 0 3.746-1.8 3.746-3.998 0-2.202-1.684-4.002-3.746-4.002" fill="#202323"/><path d="M128.499 106a1.499 1.499 0 1 1 0-2.998 1.499 1.499 0 0 1 0 2.998m1.499 2a.999.999 0 0 1 0-2 1 1 0 1 1 0 2" fill="#8A8D89"/><path d="M110.432 135h-2.38c-1.291 0-2.425.721-3.052 1.79-.627-1.069-1.76-1.79-3.053-1.79h-2.379c-1.963 0-3.568 1.653-3.568 3.675 0 2.018 1.605 3.671 3.568 3.671h.76c.008 2.013 1.608 3.654 3.565 3.654h2.378c1.955 0 3.554-1.641 3.566-3.654h.595c1.963 0 3.568-1.653 3.568-3.671 0-2.022-1.605-3.675-3.568-3.675" fill="#DF4E3E"/><path d="M86.058 94H71.942C70.875 94 70 93.324 70 92.5c0-.827.875-1.5 1.942-1.5h14.116c1.067 0 1.942.673 1.942 1.5 0 .824-.875 1.5-1.942 1.5m50 0h-14.116c-1.067 0-1.942-.676-1.942-1.5 0-.827.875-1.5 1.942-1.5h14.116c1.067 0 1.942.673 1.942 1.5 0 .824-.875 1.5-1.942 1.5" fill="#202323"/><path d="M61 49.99S83.248 86.292 154.943 89L159 80.337l-5.502-39.725-19.226-14.063L96.064 18 65.47 34.685 61 49.99" fill="#E4BC25"/><path d="M99.772 68c-.13 0-.27-.02-.416-.065-8.35-2.494-15.588-6.99-21.942-12.745-.98-.89-.05-2.19 1.003-2.19.3 0 .612.104.892.358 6.024 5.46 12.836 9.713 20.758 12.08 1.495.446 1.043 2.562-.295 2.562M72.73 50c-.314 0-.624-.116-.828-.376a50.328 50.328 0 0 1-2.688-3.73c-.624-.97.23-1.894 1.107-1.894.377 0 .758.172 1.025.585a42.962 42.962 0 0 0 2.303 3.205c.425.543.509 1.3 0 1.834a1.29 1.29 0 0 1-.919.376" fill="#FFF" opacity=".465"/><path d="M73.325 87.412a31.924 31.924 0 0 0-3.889.642c-6.913 1.644-10.968 8.208-10.639 15.389-.05 1.335-.095 2.7-.018 4.051.076 1.348.276 2.684.71 3.96.693 2.04 1.314 4.165 2.782 5.793 2.236 2.487 4.988 5.155 8.48 5.206.58.01 1.16.007 1.744.003.799-.003 1.597-.006 2.4.02 3.012-.338 6.29-1.25 9.437-2.65a32.89 32.89 0 0 0 4.57-2.467c6.8-4.417 14.642-16.864 7.783-24.458-5.464-6.049-15.995-6.287-23.36-5.49" fill="#202323"/><path d="M73.237 85.33c-8.453.998-15.365 5.585-16.385 14.644-.984 8.716 1.576 20.078 11.268 22.872 8.547 2.465 20.047-2.216 26.065-8.325 5.21-5.288 9.936-14.369 5.422-21.487-5.29-8.34-17.708-8.55-26.37-7.703-2.192.215-2.214 3.675 0 3.459 7.342-.719 18.763-1.11 23.386 5.99 4.857 7.457-3.536 17.51-9.78 21.016-4.629 2.6-9.851 4.18-15.173 3.975-5.685-.216-9.487-4.844-10.973-10.019-1.21-4.215-1.039-10.168.987-14.13 2.35-4.595 6.705-6.26 11.553-6.832 2.182-.256 2.207-3.719 0-3.46m62.52 2.082a31.96 31.96 0 0 1 3.889.642c6.913 1.644 10.968 8.208 10.639 15.389.05 1.335.095 2.7.018 4.051-.08 1.348-.276 2.684-.71 3.96-.693 2.04-1.314 4.165-2.782 5.793-2.236 2.487-4.988 5.155-8.48 5.206-.58.01-1.164.007-1.744.003-.799-.003-1.597-.006-2.4.02-3.012-.338-6.29-1.25-9.437-2.65a33.099 33.099 0 0 1-4.574-2.467c-6.797-4.417-14.638-16.864-7.78-24.458 5.465-6.049 15.996-6.287 23.361-5.49" fill="#202323"/><path d="M135.175 88.725c4.745.56 9.017 2.198 11.324 6.693 1.924 3.757 2.099 9.34 1.107 13.381-1.279 5.22-5.223 10.114-10.895 10.282-5.238.156-10.311-1.332-14.873-3.895-6.061-3.402-14.044-12.894-9.803-20.218 4.25-7.343 15.904-6.95 23.14-6.243 2.166.211 2.15-3.179 0-3.39-7.863-.768-17.719-.649-23.844 5.16-6.19 5.866-3.629 14.7.951 20.695 5.682 7.438 15.18 11.443 24.429 11.28 9.834-.17 14.71-9.978 14.674-18.708-.021-4.596-.676-8.923-3.656-12.603-3.207-3.962-7.683-5.248-12.554-5.824-2.16-.254-2.142 3.139 0 3.39m-75.574 5.644H45.26c-1.678 0-1.682 3.123 0 3.123H59.6c1.677 0 1.68-3.123 0-3.123" fill="#202323"/><path d="M162.591 94.369H146.55c-1.878 0-1.881 3.123 0 3.123h16.042c1.876 0 1.879-3.123 0-3.123M97.144 95.8c4.515-4.521 10.71-3.427 15.307.285 1.784 1.443 3.53-1.751 1.765-3.177-5.878-4.75-13.936-5.328-19.55.289-1.635 1.635.846 4.234 2.478 2.602" fill="#202323"/><path d="M66.815 96.45c-.47 0-.946-.19-1.311-.544-.724-.695-.662-1.969 0-2.677.59-.634 1.249-1.254 1.966-1.723a1.56 1.56 0 0 1 .868-.26c.629 0 1.249.366 1.6.938.539.88.154 2.068-.645 2.596-.108.068-.352.277-.355.277l.003-.003c-.303.274-.6.551-.884.852-.346.37-.792.545-1.242.545m-3.341 9.369c-.628 0-1.332-.465-1.428-1.208-.258-2.003-.271-3.946.117-5.93.162-.83.701-1.19 1.264-1.19.852 0 1.761.821 1.516 2.074a13.111 13.111 0 0 0-.117 4.161c.114.89-.18 1.78-1.006 2.042a1.11 1.11 0 0 1-.346.05m79.889-9.369c-.485 0-.97-.188-1.304-.547a16.443 16.443 0 0 0-.891-.853c-.004 0-.24-.202-.35-.274-.863-.561-1.121-1.664-.653-2.595.302-.596.953-.935 1.592-.935a1.6 1.6 0 0 1 .888.257c.724.469 1.383 1.089 1.976 1.722.71.757.671 1.918 0 2.678-.325.37-.79.548-1.258.548m-2.412-1.596c.046.045.086.079.115.106l-.115-.106m4.655 10.965c-.118 0-.235-.015-.342-.051-.815-.258-1.122-1.155-1.008-2.043a13.124 13.124 0 0 0-.117-4.162c-.245-1.257.664-2.072 1.516-2.072.565 0 1.102.357 1.266 1.187.386 1.983.373 3.929.115 5.932-.094.75-.803 1.209-1.43 1.209" fill="#8A8D89"/></g></g></svg>