<svg width="28" height="28" viewBox="0 0 28 28" fill="none" xmlns="http://www.w3.org/2000/svg">
<path d="M0 2C0 0.895431 0.89543 0 2 0H3C3.55228 0 4 0.447716 4 1V24H27C27.5523 24 28 24.4477 28 25V26C28 27.1046 27.1046 28 26 28H2.00001C1 28 0 27 0 26C0 26 0 3.10457 0 2Z" fill="#00B884"/>
<path d="M8 3C7.44772 3 7 3.44772 7 4V6C7 6.55228 7.44771 7 8 7H18C18.5523 7 19 6.55228 19 6V4C19 3.44772 18.5523 3 18 3H8Z" fill="#00B884"/>
<path d="M7 11C7 10.4477 7.44772 10 8 10H14C14.5523 10 15 10.4477 15 11V13C15 13.5523 14.5523 14 14 14H8C7.44772 14 7 13.5523 7 13V11Z" fill="#00B884"/>
<path d="M8 17C7.44772 17 7 17.4477 7 18V20C7 20.5523 7.44772 21 8 21H22C22.5523 21 23 20.5523 23 20V18C23 17.4477 22.5523 17 22 17H8Z" fill="#00B884"/>
</svg>
