<svg xmlns="http://www.w3.org/2000/svg" width="45" height="41"><path fill="#7462E1" fill-rule="evenodd" d="M31.538 37.812a1.58 1.58 0 0 1-1.576 1.58H2.91a1.58 1.58 0 0 1-1.576-1.58v-27.52c0-.57 0-1.053.098-1.456h6.24a2.37 2.37 0 0 0 2.364-2.37V.803c.183-.01.38-.012.605-.012h19.322a1.58 1.58 0 0 1 1.576 1.58v1.78a10.17 10.17 0 0 0-4.888-1.24 10.163 10.163 0 0 0-7.242 3.007 10.21 10.21 0 0 0-3 7.26c0 1.069.162 2.113.475 3.105h-9.71a.394.394 0 0 0 0 .79h9.994c.386.945.916 1.831 1.576 2.632H7.174a.395.395 0 0 0 0 .79h12.293a10.199 10.199 0 0 0 3.73 2.353H7.173a.394.394 0 0 0 0 .79h18.523a.393.393 0 0 0 .348-.212 10.167 10.167 0 0 0 5.493-1.222v15.61zM8.416 1.486c.301-.268.563-.432.83-.534v5.515a1.58 1.58 0 0 1-1.575 1.58H1.869l.035-.035 6.512-6.526zm24.92 18.391a9.38 9.38 0 0 1-6.685 2.776h-.001c-2.526 0-4.9-.986-6.685-2.776a9.426 9.426 0 0 1-2.77-6.7c0-2.532.984-4.912 2.77-6.702A9.381 9.381 0 0 1 26.65 3.7c2.525 0 4.9.985 6.685 2.775 3.686 3.695 3.686 9.707 0 13.402zm7.039 9.975l-7.32-8.578 1.786-1.79 8.443 7.448c.384.388.595.903.595 1.45 0 .551-.214 1.07-.603 1.46-.39.39-.906.604-1.456.604a2.041 2.041 0 0 1-1.445-.594zm3.458-3.488l-8.6-7.586c2.586-3.978 2.14-9.373-1.34-12.861a10.35 10.35 0 0 0-1.567-1.29V2.37A2.37 2.37 0 0 0 29.962 0H10.64c-.937 0-1.746 0-2.756.904L1.373 7.43c-.828.742-.828 1.725-.828 2.869v27.514a2.37 2.37 0 0 0 2.364 2.37h27.053a2.37 2.37 0 0 0 2.364-2.37V21.726l.05-.034 7.41 8.685.021.023a2.825 2.825 0 0 0 2.013.836c.76 0 1.475-.297 2.013-.836a2.838 2.838 0 0 0 .834-2.018c0-.762-.296-1.479-.834-2.018z"/></svg>