<?xml version="1.0" encoding="UTF-8"?>
<svg width="291px" height="343px" viewBox="0 0 291 343" version="1.1" xmlns="http://www.w3.org/2000/svg" xmlns:xlink="http://www.w3.org/1999/xlink">
    <!-- Generator: Sketch 42 (36781) - http://www.bohemiancoding.com/sketch -->
    <title>podio</title>
    <desc>Created with Sketch.</desc>
    <defs>
        <polygon id="path-1" points="290.130793 0.306 0.06 0.306 0.06 342.94 290.130793 342.94"></polygon>
    </defs>
    <g id="Page-1" stroke="none" stroke-width="1" fill="none" fill-rule="evenodd">
        <g id="podio">
            <mask id="mask-2" fill="white">
                <use xlink:href="#path-1"></use>
            </mask>
            <g id="Clip-2"></g>
            <path d="M249.074,42.982 C192.393,-13.696 100.291,-13.924 43.318,42.329 L42.651,42.995 C-14.232,99.908 -14.213,192.492 42.684,249.383 L130.568,337.251 C134.406,341.089 139.431,343 144.456,343 C149.48,343 154.518,341.089 158.353,337.251 C166.015,329.579 166.015,317.136 158.353,309.467 L70.455,221.592 C29.003,180.146 28.87,112.763 70.069,71.143 L70.471,70.75 C112.062,29.185 179.722,29.198 221.287,70.763 C255.418,104.897 260.317,163.309 232.659,206.653 C226.826,215.792 229.513,227.939 238.652,233.774 C247.813,239.626 259.944,236.927 265.773,227.791 C303.726,168.321 296.7,90.605 249.074,42.982 M213.904,253.889 C221.57,261.562 221.58,274.004 213.904,281.667 C210.08,285.511 205.048,287.432 200.027,287.432 C194.992,287.432 189.958,285.511 186.117,281.677 L98.236,193.811 C71.983,167.549 71.983,124.81 98.236,98.544 C110.958,85.834 127.87,78.828 145.858,78.828 L145.878,78.828 C163.863,78.828 180.777,85.844 193.49,98.573 C211.006,116.089 217.491,141.73 210.395,165.506 C207.271,175.903 196.347,181.822 185.947,178.711 C175.55,175.61 169.631,164.663 172.729,154.26 C175.698,144.352 173.005,133.65 165.703,126.351 C160.402,121.043 153.366,118.122 145.868,118.119 L145.858,118.119 C138.36,118.119 131.324,121.036 126.02,126.331 C115.079,137.272 115.079,155.08 126.02,166.024 L213.904,253.889" id="Fill-1" fill="#5188AC" mask="url(#mask-2)"></path>
        </g>
    </g>
</svg>