<svg width="20" height="21" viewBox="0 0 20 21" fill="none" xmlns="http://www.w3.org/2000/svg">
<path d="M17.455 13.016L4.77077 19.9715C4.72996 19.9938 4.68884 20.0153 4.64745 20.0357C4.20788 20.254 3.70787 20.3774 3.17752 20.3774C1.42262 20.3774 0 19.0262 0 17.3594V3.27574C0 2.69038 0.175461 2.14395 0.479155 1.6813C1.37826 0.298197 3.27863 -0.163615 4.77073 0.654586L17.4544 7.60975C17.9937 7.86494 18.4627 8.26839 18.7865 8.80107C19.0783 9.28107 19.2154 9.80555 19.2127 10.3225C19.212 10.8333 19.0747 11.3508 18.7864 11.825C18.4627 12.3575 17.994 12.7608 17.455 13.016Z" fill="white"/>
</svg>
