<svg xmlns="http://www.w3.org/2000/svg" width="32" height="45"><path fill="#7462E1" fill-rule="evenodd" d="M10.676 27.4l1.465.602c.273.111.503.266.69.459.186.186.335.41.447.658l2.41 5.278 2.415-5.539c.112-.254.267-.465.46-.64.198-.18.434-.316.701-.415l1.348-.51a2.14 2.14 0 0 1-.161-.173 2.143 2.143 0 0 1-.454-1.223v-.007l-.056-1.223-.111.106-.031.025c-.609.527-1.261.95-1.95 1.235a5.58 5.58 0 0 1-2.15.435c-1.036 0-2.036-.292-2.955-.838a7.795 7.795 0 0 1-1.286-.963l-.056 1.199v.03a2.143 2.143 0 0 1-.453 1.224 1.944 1.944 0 0 1-.273.28zm13.302-12.388a7.742 7.742 0 0 1-.037.435c0 .031 0 .062-.006.093-.044.36-.1.727-.168 1.093a25.574 25.574 0 0 1-.515 2.291 25.27 25.27 0 0 1-.336 1.087l-.018.043a16.272 16.272 0 0 1-.74 1.658c-.117.211-.23.416-.347.615l.068-.013c.267-.05.516-.105.745-.168 3.335-5.16 3.72-9.99 2.652-13.746-.534-1.875-1.428-3.483-2.496-4.725-1.056-1.23-2.273-2.099-3.466-2.508-1.23-.429-2.44-.36-3.39.304-.075.056-.144.118-.193.161-.118.112-.199.186-.348.224-.397.112-.578-.056-.751-.677-.031-.13-.33-.174-.79-.137-.788.069-1.906.447-3.073 1.143a11.53 11.53 0 0 0-3.391 3.123C4.93 8.723 3.956 14.236 8.732 22.072c.223.062.466.124.739.18l.087.019a14.33 14.33 0 0 1-1.261-2.788 18.228 18.228 0 0 1-.87-4.384v-.03c-.012-.18-.012-.36-.012-.547a12.49 12.49 0 0 1 .05-1.049c.012-.15.03-.317.056-.503.478-3.688 2.776-5.675 4.012-6.743l.012-.006.006-.007a.447.447 0 0 1 .708.137c.54 1.118 1.497 1.8 2.633 2.254 1.193.472 2.609.708 3.975.931 1.205.199 2.372.398 3.28.751 1.011.398 1.707.994 1.844 1.981 0 .025.006.044.006.068.05.888.05 1.789-.019 2.676zm-1.82 4.446l-.08.248-.006.007c-.205.552-.448 1.08-.708 1.583-.261.49-.547.956-.851 1.378-.155.211-.31.416-.472.609a.356.356 0 0 0-.069.068l-.074.093c-.199.224-.41.435-.634.627-.012.013-.018.025-.03.031a6.21 6.21 0 0 1-1.727 1.105 4.654 4.654 0 0 1-1.807.367c-.876 0-1.72-.255-2.503-.714-.826-.49-1.584-1.205-2.248-2.111-.019-.019-.031-.044-.05-.062l-.03-.038-.007-.012c-.696-.969-1.28-2.136-1.714-3.44a17.275 17.275 0 0 1-.832-4.16v-.05c-.007-.155-.007-.31-.007-.459 0-.161.007-.323.013-.497.006-.142.018-.304.03-.484.02-.186.038-.335.05-.466.392-2.998 2.143-4.787 3.336-5.842.664 1.062 1.67 1.732 2.831 2.198 1.28.509 2.745.751 4.155.98 1.155.193 2.267.38 3.093.709.72.28 1.217.676 1.292 1.285.018.403.03.782.03 1.192-.055 2.018-.52 3.893-1.595 5.197-.888 1.068-2.199 1.763-4.068 1.856v-.732a.444.444 0 0 0-.441-.447h-2.236a.444.444 0 0 0-.44.447v2.39c0 .248.198.447.44.447h2.236c.242 0 .44-.199.44-.447v-.757c2.119-.1 3.634-.882 4.684-2.099zM11.8 28.828c.161.061.292.148.397.26.112.112.199.248.273.404l2.826 6.19a.44.44 0 0 0 .59.217.426.426 0 0 0 .224-.23v.007l2.813-6.458a.88.88 0 0 1 .242-.335c.112-.105.249-.186.41-.248l2.186-.82.13.025c.615.112 1.243.217 1.851.366.13.317.174.665.23 1.112.074.602.174 1.366.503 2.471l-3.95-2.198a.447.447 0 0 0-.608.174c-.007.012-.02.03-.025.043l-4.298 10.344-4.297-10.344a.446.446 0 0 0-.652-.205L6.72 31.79c.323-1.105.422-1.869.496-2.471.056-.422.1-.751.205-1.056a28.17 28.17 0 0 1 2.013-.41l2.366.975zm9.893-1.932a.438.438 0 0 1 .316.056l.038.006c.658.118 1.323.236 1.98.392.088 0 .175.018.25.068a10.13 10.13 0 0 1 1.77.615c2.533 1.173 3.88 3.154 4.589 5.5.689 2.286.77 4.9.757 7.439v.534a2.67 2.67 0 0 1-.782 1.894c-.49.49-1.162.788-1.9.788H2.688A2.65 2.65 0 0 1 .795 43.4H.789A2.697 2.697 0 0 1 0 41.506l.006-.578c-.012-2.52.069-5.122.758-7.394.708-2.347 2.055-4.328 4.59-5.501.496-.23 1.018-.41 1.54-.56a.423.423 0 0 1 .192-.049c.751-.199 1.515-.329 2.267-.466l.36-.062.025-.006a.915.915 0 0 0 .51-.323c.148-.192.247-.44.266-.726v-.013l.087-2.067a14.91 14.91 0 0 1-.354-.453 25.05 25.05 0 0 1-.969-.18 10.91 10.91 0 0 1-.969-.255.415.415 0 0 1-.26-.205C2.944 14.373 4.012 8.468 6.65 4.786a12.276 12.276 0 0 1 3.664-3.365C11.601.645 12.862.23 13.775.148c.8-.068 1.397.137 1.645.59 1.199-.844 2.683-.937 4.186-.416 1.341.466 2.695 1.422 3.85 2.77 1.15 1.334 2.112 3.06 2.683 5.066 1.137 4.005.727 9.158-2.863 14.622a.419.419 0 0 1-.254.186c-.292.08-.615.155-.97.224a20.38 20.38 0 0 1-.93.161c-.106.143-.212.28-.324.416l.087 2.074c.019.285.118.534.267.726a.873.873 0 0 0 .535.33h.006zm3.98 1.95c2.261 1.05 3.466 2.831 4.112 4.948.658 2.167.726 4.707.72 7.172v.54c0 .49-.205.937-.528 1.26a1.77 1.77 0 0 1-1.267.528H2.69c-.498 0-.945-.199-1.268-.521v-.007a1.779 1.779 0 0 1-.521-1.26v-.534c0-.019 0-.031-.007-.044-.006-2.452.069-4.98.72-7.134.647-2.117 1.851-3.899 4.112-4.948.23-.112.46-.199.702-.286-.038.199-.069.41-.093.646-.1.739-.224 1.732-.814 3.36a.449.449 0 0 0 .633.559l4.51-2.51 4.514 10.872a.47.47 0 0 0 .248.242.45.45 0 0 0 .584-.242l4.515-10.872 4.509 2.509a.456.456 0 0 0 .373.03.452.452 0 0 0 .267-.57c-.59-1.64-.72-2.64-.82-3.378a9.043 9.043 0 0 0-.106-.72c.317.1.627.217.926.36zm-15.159-3.018a.439.439 0 0 1 .472-.403l-.472.403zM7.428 15.1v-.012.012zm9.16 6.085v.683H15.24v-1.496h1.348v.812z"/></svg>