<svg fill="#B7AFED" xmlns="http://www.w3.org/2000/svg" viewBox="0 0 100 100"><path d="M84.717 5h-69.43c-3.278 0-5.7 1.166-6.82 3.283-1.118 2.118-.717 4.776 1.131 7.485l26.229 38.438c.12.177.273.674.272.888l-.032 18.992c-.002 1.577.918 3.518 2.142 4.516l18.346 14.944C57.932 94.669 59.113 95 60.031 95c.65 0 1.167-.167 1.523-.337.855-.406 2.293-1.543 2.293-4.583V55.098c0-.219.15-.709.273-.89l26.275-38.443c1.852-2.707 2.254-5.364 1.138-7.481C90.417 6.166 87.996 5 84.717 5zm2.974 8.916L61.416 52.357c-.499.729-.848 1.855-.848 2.738V90.08c0 1.074-.283 1.559-.422 1.623-.138.066-.688-.018-1.523-.699L40.278 76.059c-.464-.377-.936-1.371-.934-1.967l.034-18.992c.001-.869-.354-2.021-.843-2.74L12.307 13.922c-1.114-1.633-1.457-3.13-.941-4.106.517-.977 1.946-1.537 3.922-1.537h69.43c1.976 0 3.404.56 3.921 1.535.511.975.168 2.47-.948 4.102z"/></svg>