<svg width="22" height="18" viewBox="0 0 22 18" fill="none" xmlns="http://www.w3.org/2000/svg">
<path d="M21.375 2.34375C21.375 2.23242 21.3008 2.12109 21.2266 2.04688C21.1523 1.97266 21.041 1.89844 20.9297 1.89844H5.9375V1.60156C5.9375 1.37891 5.82617 1.15625 5.67773 0.970703C5.49219 0.822266 5.26953 0.710938 5.04688 0.710938H4.45312C4.19336 0.710938 3.9707 0.822266 3.82227 0.970703C3.63672 1.15625 3.5625 1.37891 3.5625 1.60156V1.89844H0.445312C0.296875 1.89844 0.185547 1.97266 0.111328 2.04688C0.0371094 2.12109 0 2.23242 0 2.34375V3.82812C0 3.97656 0.0371094 4.08789 0.111328 4.16211C0.185547 4.23633 0.296875 4.27344 0.445312 4.27344H3.5625V4.57031C3.5625 4.83008 3.63672 5.05273 3.82227 5.20117C3.9707 5.38672 4.19336 5.46094 4.45312 5.46094H5.04688C5.26953 5.46094 5.49219 5.38672 5.67773 5.20117C5.82617 5.05273 5.9375 4.83008 5.9375 4.57031V4.27344H20.9297C21.041 4.27344 21.1523 4.23633 21.2266 4.16211C21.3008 4.08789 21.375 3.97656 21.375 3.82812V2.34375ZM20.9297 7.83594C21.041 7.83594 21.1523 7.91016 21.2266 7.98438C21.3008 8.05859 21.375 8.16992 21.375 8.28125V9.76562C21.375 9.91406 21.3008 10.0254 21.2266 10.0996C21.1523 10.1738 21.041 10.2109 20.9297 10.2109H17.8125V10.5078C17.8125 10.7676 17.7012 10.9902 17.5527 11.1387C17.3672 11.3242 17.1445 11.3984 16.9219 11.3984H16.3281C16.0684 11.3984 15.8457 11.3242 15.6973 11.1387C15.5117 10.9902 15.4375 10.7676 15.4375 10.5078V10.2109H0.445312C0.296875 10.2109 0.185547 10.1738 0.111328 10.0996C0.0371094 10.0254 0 9.91406 0 9.76562V8.28125C0 8.16992 0.0371094 8.05859 0.111328 7.98438C0.185547 7.91016 0.296875 7.83594 0.445312 7.83594H15.4375V7.53906C15.4375 7.31641 15.5117 7.09375 15.6973 6.9082C15.8457 6.75977 16.0684 6.64844 16.3281 6.64844H16.9219C17.1445 6.64844 17.3672 6.75977 17.5527 6.9082C17.7012 7.09375 17.8125 7.31641 17.8125 7.53906V7.83594H20.9297ZM20.9297 13.7734C21.041 13.7734 21.1523 13.8477 21.2266 13.9219C21.3008 13.9961 21.375 14.1074 21.375 14.2188V15.7031C21.375 15.8516 21.3008 15.9629 21.2266 16.0371C21.1523 16.1113 21.041 16.1484 20.9297 16.1484H10.6875V16.4453C10.6875 16.7051 10.5762 16.9277 10.4277 17.0762C10.2422 17.2617 10.0195 17.3359 9.79688 17.3359H9.20312C8.94336 17.3359 8.7207 17.2617 8.57227 17.0762C8.38672 16.9277 8.3125 16.7051 8.3125 16.4453V16.1484H0.445312C0.296875 16.1484 0.185547 16.1113 0.111328 16.0371C0.0371094 15.9629 0 15.8516 0 15.7031V14.2188C0 14.1074 0.0371094 13.9961 0.111328 13.9219C0.185547 13.8477 0.296875 13.7734 0.445312 13.7734H8.3125V13.4766C8.3125 13.2539 8.38672 13.0312 8.57227 12.8457C8.7207 12.6973 8.94336 12.5859 9.20312 12.5859H9.79688C10.0195 12.5859 10.2422 12.6973 10.4277 12.8457C10.5762 13.0312 10.6875 13.2539 10.6875 13.4766V13.7734H20.9297Z" fill="#ef4136"/>
</svg>
