<svg width="375" height="320" viewBox="0 0 375 320" fill="none" xmlns="http://www.w3.org/2000/svg">
<path d="M-31 2.37042e-06C-31 45.9344 6.25506 83.1717 52.2115 83.1717H85.072C108.012 82.9116 129.101 98.1249 135.312 121.294C142.564 148.346 126.825 176.142 100.067 183.956C99.474 184.123 98.8802 184.287 98.2849 184.447C61.6471 194.431 39.9422 232.152 49.7809 268.853C59.6463 305.654 97.4908 327.493 134.309 317.632C223.029 293.871 311.748 270.108 400.468 246.347C469.564 227.841 510.569 156.853 492.055 87.7905C480.793 45.7823 450.105 14.1625 412.24 0L-31 2.37042e-06Z" fill="url(#paint0_linear)"/>
<mask id="mask0" mask-type="alpha" maskUnits="userSpaceOnUse" x="-31" y="0" width="528" height="320">
<path d="M-31 2.37042e-06C-31 45.9344 6.25506 83.1717 52.2115 83.1717H85.072C108.012 82.9116 129.101 98.1249 135.312 121.294C142.564 148.346 126.825 176.142 100.067 183.956C99.474 184.123 98.8802 184.287 98.2849 184.447C61.6471 194.431 39.9422 232.152 49.7809 268.853C59.6463 305.654 97.4908 327.493 134.309 317.632C223.029 293.871 311.748 270.108 400.468 246.347C469.564 227.841 510.569 156.853 492.055 87.7905C480.793 45.7823 450.105 14.1625 412.24 0L-31 2.37042e-06Z" fill="url(#paint1_linear)"/>
</mask>
<g mask="url(#mask0)">
<g opacity="0.1">
<path d="M-24 5.5C-24 6.32843 -24.6716 7 -25.5 7C-26.3284 7 -27 6.32843 -27 5.5C-27 4.67157 -26.3284 4 -25.5 4C-24.6716 4 -24 4.67157 -24 5.5Z" fill="black"/>
<path d="M-4 5.5C-4 6.32843 -4.67157 7 -5.5 7C-6.32843 7 -7 6.32843 -7 5.5C-7 4.67157 -6.32843 4 -5.5 4C-4.67157 4 -4 4.67157 -4 5.5Z" fill="black"/>
<path d="M16 5.5C16 6.32843 15.3284 7 14.5 7C13.6716 7 13 6.32843 13 5.5C13 4.67157 13.6716 4 14.5 4C15.3284 4 16 4.67157 16 5.5Z" fill="black"/>
<path d="M36 5.5C36 6.32843 35.3284 7 34.5 7C33.6716 7 33 6.32843 33 5.5C33 4.67157 33.6716 4 34.5 4C35.3284 4 36 4.67157 36 5.5Z" fill="black"/>
<path d="M56 5.5C56 6.32843 55.3284 7 54.5 7C53.6716 7 53 6.32843 53 5.5C53 4.67157 53.6716 4 54.5 4C55.3284 4 56 4.67157 56 5.5Z" fill="black"/>
<path d="M76 5.5C76 6.32843 75.3284 7 74.5 7C73.6716 7 73 6.32843 73 5.5C73 4.67157 73.6716 4 74.5 4C75.3284 4 76 4.67157 76 5.5Z" fill="black"/>
<path d="M96 5.5C96 6.32843 95.3284 7 94.5 7C93.6716 7 93 6.32843 93 5.5C93 4.67157 93.6716 4 94.5 4C95.3284 4 96 4.67157 96 5.5Z" fill="black"/>
<path d="M116 5.5C116 6.32843 115.328 7 114.5 7C113.672 7 113 6.32843 113 5.5C113 4.67157 113.672 4 114.5 4C115.328 4 116 4.67157 116 5.5Z" fill="black"/>
<path d="M136 5.5C136 6.32843 135.328 7 134.5 7C133.672 7 133 6.32843 133 5.5C133 4.67157 133.672 4 134.5 4C135.328 4 136 4.67157 136 5.5Z" fill="black"/>
<path d="M156 5.5C156 6.32843 155.328 7 154.5 7C153.672 7 153 6.32843 153 5.5C153 4.67157 153.672 4 154.5 4C155.328 4 156 4.67157 156 5.5Z" fill="black"/>
<path d="M176 5.5C176 6.32843 175.328 7 174.5 7C173.672 7 173 6.32843 173 5.5C173 4.67157 173.672 4 174.5 4C175.328 4 176 4.67157 176 5.5Z" fill="black"/>
<path d="M196 5.5C196 6.32843 195.328 7 194.5 7C193.672 7 193 6.32843 193 5.5C193 4.67157 193.672 4 194.5 4C195.328 4 196 4.67157 196 5.5Z" fill="black"/>
<path d="M216 5.5C216 6.32843 215.328 7 214.5 7C213.672 7 213 6.32843 213 5.5C213 4.67157 213.672 4 214.5 4C215.328 4 216 4.67157 216 5.5Z" fill="black"/>
<path d="M236 5.5C236 6.32843 235.328 7 234.5 7C233.672 7 233 6.32843 233 5.5C233 4.67157 233.672 4 234.5 4C235.328 4 236 4.67157 236 5.5Z" fill="black"/>
<path d="M256 5.5C256 6.32843 255.328 7 254.5 7C253.672 7 253 6.32843 253 5.5C253 4.67157 253.672 4 254.5 4C255.328 4 256 4.67157 256 5.5Z" fill="black"/>
<path d="M-24 25.5C-24 26.3284 -24.6716 27 -25.5 27C-26.3284 27 -27 26.3284 -27 25.5C-27 24.6716 -26.3284 24 -25.5 24C-24.6716 24 -24 24.6716 -24 25.5Z" fill="black"/>
<path d="M-4 25.5C-4 26.3284 -4.67157 27 -5.5 27C-6.32843 27 -7 26.3284 -7 25.5C-7 24.6716 -6.32843 24 -5.5 24C-4.67157 24 -4 24.6716 -4 25.5Z" fill="black"/>
<path d="M16 25.5C16 26.3284 15.3284 27 14.5 27C13.6716 27 13 26.3284 13 25.5C13 24.6716 13.6716 24 14.5 24C15.3284 24 16 24.6716 16 25.5Z" fill="black"/>
<path d="M36 25.5C36 26.3284 35.3284 27 34.5 27C33.6716 27 33 26.3284 33 25.5C33 24.6716 33.6716 24 34.5 24C35.3284 24 36 24.6716 36 25.5Z" fill="black"/>
<path d="M56 25.5C56 26.3284 55.3284 27 54.5 27C53.6716 27 53 26.3284 53 25.5C53 24.6716 53.6716 24 54.5 24C55.3284 24 56 24.6716 56 25.5Z" fill="black"/>
<path d="M76 25.5C76 26.3284 75.3284 27 74.5 27C73.6716 27 73 26.3284 73 25.5C73 24.6716 73.6716 24 74.5 24C75.3284 24 76 24.6716 76 25.5Z" fill="black"/>
<path d="M96 25.5C96 26.3284 95.3284 27 94.5 27C93.6716 27 93 26.3284 93 25.5C93 24.6716 93.6716 24 94.5 24C95.3284 24 96 24.6716 96 25.5Z" fill="black"/>
<path d="M116 25.5C116 26.3284 115.328 27 114.5 27C113.672 27 113 26.3284 113 25.5C113 24.6716 113.672 24 114.5 24C115.328 24 116 24.6716 116 25.5Z" fill="black"/>
<path d="M136 25.5C136 26.3284 135.328 27 134.5 27C133.672 27 133 26.3284 133 25.5C133 24.6716 133.672 24 134.5 24C135.328 24 136 24.6716 136 25.5Z" fill="black"/>
<path d="M156 25.5C156 26.3284 155.328 27 154.5 27C153.672 27 153 26.3284 153 25.5C153 24.6716 153.672 24 154.5 24C155.328 24 156 24.6716 156 25.5Z" fill="black"/>
<path d="M176 25.5C176 26.3284 175.328 27 174.5 27C173.672 27 173 26.3284 173 25.5C173 24.6716 173.672 24 174.5 24C175.328 24 176 24.6716 176 25.5Z" fill="black"/>
<path d="M196 25.5C196 26.3284 195.328 27 194.5 27C193.672 27 193 26.3284 193 25.5C193 24.6716 193.672 24 194.5 24C195.328 24 196 24.6716 196 25.5Z" fill="black"/>
<path d="M216 25.5C216 26.3284 215.328 27 214.5 27C213.672 27 213 26.3284 213 25.5C213 24.6716 213.672 24 214.5 24C215.328 24 216 24.6716 216 25.5Z" fill="black"/>
<path d="M236 25.5C236 26.3284 235.328 27 234.5 27C233.672 27 233 26.3284 233 25.5C233 24.6716 233.672 24 234.5 24C235.328 24 236 24.6716 236 25.5Z" fill="black"/>
<path d="M256 25.5C256 26.3284 255.328 27 254.5 27C253.672 27 253 26.3284 253 25.5C253 24.6716 253.672 24 254.5 24C255.328 24 256 24.6716 256 25.5Z" fill="black"/>
<path d="M-24 45.5C-24 46.3284 -24.6716 47 -25.5 47C-26.3284 47 -27 46.3284 -27 45.5C-27 44.6716 -26.3284 44 -25.5 44C-24.6716 44 -24 44.6716 -24 45.5Z" fill="black"/>
<path d="M-4 45.5C-4 46.3284 -4.67157 47 -5.5 47C-6.32843 47 -7 46.3284 -7 45.5C-7 44.6716 -6.32843 44 -5.5 44C-4.67157 44 -4 44.6716 -4 45.5Z" fill="black"/>
<path d="M16 45.5C16 46.3284 15.3284 47 14.5 47C13.6716 47 13 46.3284 13 45.5C13 44.6716 13.6716 44 14.5 44C15.3284 44 16 44.6716 16 45.5Z" fill="black"/>
<path d="M36 45.5C36 46.3284 35.3284 47 34.5 47C33.6716 47 33 46.3284 33 45.5C33 44.6716 33.6716 44 34.5 44C35.3284 44 36 44.6716 36 45.5Z" fill="black"/>
<path d="M56 45.5C56 46.3284 55.3284 47 54.5 47C53.6716 47 53 46.3284 53 45.5C53 44.6716 53.6716 44 54.5 44C55.3284 44 56 44.6716 56 45.5Z" fill="black"/>
<path d="M76 45.5C76 46.3284 75.3284 47 74.5 47C73.6716 47 73 46.3284 73 45.5C73 44.6716 73.6716 44 74.5 44C75.3284 44 76 44.6716 76 45.5Z" fill="black"/>
<path d="M96 45.5C96 46.3284 95.3284 47 94.5 47C93.6716 47 93 46.3284 93 45.5C93 44.6716 93.6716 44 94.5 44C95.3284 44 96 44.6716 96 45.5Z" fill="black"/>
<path d="M116 45.5C116 46.3284 115.328 47 114.5 47C113.672 47 113 46.3284 113 45.5C113 44.6716 113.672 44 114.5 44C115.328 44 116 44.6716 116 45.5Z" fill="black"/>
<path d="M136 45.5C136 46.3284 135.328 47 134.5 47C133.672 47 133 46.3284 133 45.5C133 44.6716 133.672 44 134.5 44C135.328 44 136 44.6716 136 45.5Z" fill="black"/>
<path d="M156 45.5C156 46.3284 155.328 47 154.5 47C153.672 47 153 46.3284 153 45.5C153 44.6716 153.672 44 154.5 44C155.328 44 156 44.6716 156 45.5Z" fill="black"/>
<path d="M176 45.5C176 46.3284 175.328 47 174.5 47C173.672 47 173 46.3284 173 45.5C173 44.6716 173.672 44 174.5 44C175.328 44 176 44.6716 176 45.5Z" fill="black"/>
<path d="M196 45.5C196 46.3284 195.328 47 194.5 47C193.672 47 193 46.3284 193 45.5C193 44.6716 193.672 44 194.5 44C195.328 44 196 44.6716 196 45.5Z" fill="black"/>
<path d="M216 45.5C216 46.3284 215.328 47 214.5 47C213.672 47 213 46.3284 213 45.5C213 44.6716 213.672 44 214.5 44C215.328 44 216 44.6716 216 45.5Z" fill="black"/>
<path d="M236 45.5C236 46.3284 235.328 47 234.5 47C233.672 47 233 46.3284 233 45.5C233 44.6716 233.672 44 234.5 44C235.328 44 236 44.6716 236 45.5Z" fill="black"/>
<path d="M256 45.5C256 46.3284 255.328 47 254.5 47C253.672 47 253 46.3284 253 45.5C253 44.6716 253.672 44 254.5 44C255.328 44 256 44.6716 256 45.5Z" fill="black"/>
<path d="M-24 65.5C-24 66.3284 -24.6716 67 -25.5 67C-26.3284 67 -27 66.3284 -27 65.5C-27 64.6716 -26.3284 64 -25.5 64C-24.6716 64 -24 64.6716 -24 65.5Z" fill="black"/>
<path d="M-4 65.5C-4 66.3284 -4.67157 67 -5.5 67C-6.32843 67 -7 66.3284 -7 65.5C-7 64.6716 -6.32843 64 -5.5 64C-4.67157 64 -4 64.6716 -4 65.5Z" fill="black"/>
<path d="M16 65.5C16 66.3284 15.3284 67 14.5 67C13.6716 67 13 66.3284 13 65.5C13 64.6716 13.6716 64 14.5 64C15.3284 64 16 64.6716 16 65.5Z" fill="black"/>
<path d="M36 65.5C36 66.3284 35.3284 67 34.5 67C33.6716 67 33 66.3284 33 65.5C33 64.6716 33.6716 64 34.5 64C35.3284 64 36 64.6716 36 65.5Z" fill="black"/>
<path d="M56 65.5C56 66.3284 55.3284 67 54.5 67C53.6716 67 53 66.3284 53 65.5C53 64.6716 53.6716 64 54.5 64C55.3284 64 56 64.6716 56 65.5Z" fill="black"/>
<path d="M76 65.5C76 66.3284 75.3284 67 74.5 67C73.6716 67 73 66.3284 73 65.5C73 64.6716 73.6716 64 74.5 64C75.3284 64 76 64.6716 76 65.5Z" fill="black"/>
<path d="M96 65.5C96 66.3284 95.3284 67 94.5 67C93.6716 67 93 66.3284 93 65.5C93 64.6716 93.6716 64 94.5 64C95.3284 64 96 64.6716 96 65.5Z" fill="black"/>
<path d="M116 65.5C116 66.3284 115.328 67 114.5 67C113.672 67 113 66.3284 113 65.5C113 64.6716 113.672 64 114.5 64C115.328 64 116 64.6716 116 65.5Z" fill="black"/>
<path d="M136 65.5C136 66.3284 135.328 67 134.5 67C133.672 67 133 66.3284 133 65.5C133 64.6716 133.672 64 134.5 64C135.328 64 136 64.6716 136 65.5Z" fill="black"/>
<path d="M156 65.5C156 66.3284 155.328 67 154.5 67C153.672 67 153 66.3284 153 65.5C153 64.6716 153.672 64 154.5 64C155.328 64 156 64.6716 156 65.5Z" fill="black"/>
<path d="M176 65.5C176 66.3284 175.328 67 174.5 67C173.672 67 173 66.3284 173 65.5C173 64.6716 173.672 64 174.5 64C175.328 64 176 64.6716 176 65.5Z" fill="black"/>
<path d="M196 65.5C196 66.3284 195.328 67 194.5 67C193.672 67 193 66.3284 193 65.5C193 64.6716 193.672 64 194.5 64C195.328 64 196 64.6716 196 65.5Z" fill="black"/>
<path d="M216 65.5C216 66.3284 215.328 67 214.5 67C213.672 67 213 66.3284 213 65.5C213 64.6716 213.672 64 214.5 64C215.328 64 216 64.6716 216 65.5Z" fill="black"/>
<path d="M236 65.5C236 66.3284 235.328 67 234.5 67C233.672 67 233 66.3284 233 65.5C233 64.6716 233.672 64 234.5 64C235.328 64 236 64.6716 236 65.5Z" fill="black"/>
<path d="M256 65.5C256 66.3284 255.328 67 254.5 67C253.672 67 253 66.3284 253 65.5C253 64.6716 253.672 64 254.5 64C255.328 64 256 64.6716 256 65.5Z" fill="black"/>
<path d="M-24 85.5C-24 86.3284 -24.6716 87 -25.5 87C-26.3284 87 -27 86.3284 -27 85.5C-27 84.6716 -26.3284 84 -25.5 84C-24.6716 84 -24 84.6716 -24 85.5Z" fill="black"/>
<path d="M-4 85.5C-4 86.3284 -4.67157 87 -5.5 87C-6.32843 87 -7 86.3284 -7 85.5C-7 84.6716 -6.32843 84 -5.5 84C-4.67157 84 -4 84.6716 -4 85.5Z" fill="black"/>
<path d="M16 85.5C16 86.3284 15.3284 87 14.5 87C13.6716 87 13 86.3284 13 85.5C13 84.6716 13.6716 84 14.5 84C15.3284 84 16 84.6716 16 85.5Z" fill="black"/>
<path d="M36 85.5C36 86.3284 35.3284 87 34.5 87C33.6716 87 33 86.3284 33 85.5C33 84.6716 33.6716 84 34.5 84C35.3284 84 36 84.6716 36 85.5Z" fill="black"/>
<path d="M56 85.5C56 86.3284 55.3284 87 54.5 87C53.6716 87 53 86.3284 53 85.5C53 84.6716 53.6716 84 54.5 84C55.3284 84 56 84.6716 56 85.5Z" fill="black"/>
<path d="M76 85.5C76 86.3284 75.3284 87 74.5 87C73.6716 87 73 86.3284 73 85.5C73 84.6716 73.6716 84 74.5 84C75.3284 84 76 84.6716 76 85.5Z" fill="black"/>
<path d="M96 85.5C96 86.3284 95.3284 87 94.5 87C93.6716 87 93 86.3284 93 85.5C93 84.6716 93.6716 84 94.5 84C95.3284 84 96 84.6716 96 85.5Z" fill="black"/>
<path d="M116 85.5C116 86.3284 115.328 87 114.5 87C113.672 87 113 86.3284 113 85.5C113 84.6716 113.672 84 114.5 84C115.328 84 116 84.6716 116 85.5Z" fill="black"/>
<path d="M136 85.5C136 86.3284 135.328 87 134.5 87C133.672 87 133 86.3284 133 85.5C133 84.6716 133.672 84 134.5 84C135.328 84 136 84.6716 136 85.5Z" fill="black"/>
<path d="M156 85.5C156 86.3284 155.328 87 154.5 87C153.672 87 153 86.3284 153 85.5C153 84.6716 153.672 84 154.5 84C155.328 84 156 84.6716 156 85.5Z" fill="black"/>
<path d="M176 85.5C176 86.3284 175.328 87 174.5 87C173.672 87 173 86.3284 173 85.5C173 84.6716 173.672 84 174.5 84C175.328 84 176 84.6716 176 85.5Z" fill="black"/>
<path d="M196 85.5C196 86.3284 195.328 87 194.5 87C193.672 87 193 86.3284 193 85.5C193 84.6716 193.672 84 194.5 84C195.328 84 196 84.6716 196 85.5Z" fill="black"/>
<path d="M216 85.5C216 86.3284 215.328 87 214.5 87C213.672 87 213 86.3284 213 85.5C213 84.6716 213.672 84 214.5 84C215.328 84 216 84.6716 216 85.5Z" fill="black"/>
<path d="M236 85.5C236 86.3284 235.328 87 234.5 87C233.672 87 233 86.3284 233 85.5C233 84.6716 233.672 84 234.5 84C235.328 84 236 84.6716 236 85.5Z" fill="black"/>
<path d="M256 85.5C256 86.3284 255.328 87 254.5 87C253.672 87 253 86.3284 253 85.5C253 84.6716 253.672 84 254.5 84C255.328 84 256 84.6716 256 85.5Z" fill="black"/>
<path d="M-24 105.5C-24 106.328 -24.6716 107 -25.5 107C-26.3284 107 -27 106.328 -27 105.5C-27 104.672 -26.3284 104 -25.5 104C-24.6716 104 -24 104.672 -24 105.5Z" fill="black"/>
<path d="M-4 105.5C-4 106.328 -4.67157 107 -5.5 107C-6.32843 107 -7 106.328 -7 105.5C-7 104.672 -6.32843 104 -5.5 104C-4.67157 104 -4 104.672 -4 105.5Z" fill="black"/>
<path d="M16 105.5C16 106.328 15.3284 107 14.5 107C13.6716 107 13 106.328 13 105.5C13 104.672 13.6716 104 14.5 104C15.3284 104 16 104.672 16 105.5Z" fill="black"/>
<path d="M36 105.5C36 106.328 35.3284 107 34.5 107C33.6716 107 33 106.328 33 105.5C33 104.672 33.6716 104 34.5 104C35.3284 104 36 104.672 36 105.5Z" fill="black"/>
<path d="M56 105.5C56 106.328 55.3284 107 54.5 107C53.6716 107 53 106.328 53 105.5C53 104.672 53.6716 104 54.5 104C55.3284 104 56 104.672 56 105.5Z" fill="black"/>
<path d="M76 105.5C76 106.328 75.3284 107 74.5 107C73.6716 107 73 106.328 73 105.5C73 104.672 73.6716 104 74.5 104C75.3284 104 76 104.672 76 105.5Z" fill="black"/>
<path d="M96 105.5C96 106.328 95.3284 107 94.5 107C93.6716 107 93 106.328 93 105.5C93 104.672 93.6716 104 94.5 104C95.3284 104 96 104.672 96 105.5Z" fill="black"/>
<path d="M116 105.5C116 106.328 115.328 107 114.5 107C113.672 107 113 106.328 113 105.5C113 104.672 113.672 104 114.5 104C115.328 104 116 104.672 116 105.5Z" fill="black"/>
<path d="M136 105.5C136 106.328 135.328 107 134.5 107C133.672 107 133 106.328 133 105.5C133 104.672 133.672 104 134.5 104C135.328 104 136 104.672 136 105.5Z" fill="black"/>
<path d="M156 105.5C156 106.328 155.328 107 154.5 107C153.672 107 153 106.328 153 105.5C153 104.672 153.672 104 154.5 104C155.328 104 156 104.672 156 105.5Z" fill="black"/>
<path d="M176 105.5C176 106.328 175.328 107 174.5 107C173.672 107 173 106.328 173 105.5C173 104.672 173.672 104 174.5 104C175.328 104 176 104.672 176 105.5Z" fill="black"/>
<path d="M196 105.5C196 106.328 195.328 107 194.5 107C193.672 107 193 106.328 193 105.5C193 104.672 193.672 104 194.5 104C195.328 104 196 104.672 196 105.5Z" fill="black"/>
<path d="M216 105.5C216 106.328 215.328 107 214.5 107C213.672 107 213 106.328 213 105.5C213 104.672 213.672 104 214.5 104C215.328 104 216 104.672 216 105.5Z" fill="black"/>
<path d="M236 105.5C236 106.328 235.328 107 234.5 107C233.672 107 233 106.328 233 105.5C233 104.672 233.672 104 234.5 104C235.328 104 236 104.672 236 105.5Z" fill="black"/>
<path d="M256 105.5C256 106.328 255.328 107 254.5 107C253.672 107 253 106.328 253 105.5C253 104.672 253.672 104 254.5 104C255.328 104 256 104.672 256 105.5Z" fill="black"/>
<path d="M-24 125.5C-24 126.328 -24.6716 127 -25.5 127C-26.3284 127 -27 126.328 -27 125.5C-27 124.672 -26.3284 124 -25.5 124C-24.6716 124 -24 124.672 -24 125.5Z" fill="black"/>
<path d="M-4 125.5C-4 126.328 -4.67157 127 -5.5 127C-6.32843 127 -7 126.328 -7 125.5C-7 124.672 -6.32843 124 -5.5 124C-4.67157 124 -4 124.672 -4 125.5Z" fill="black"/>
<path d="M16 125.5C16 126.328 15.3284 127 14.5 127C13.6716 127 13 126.328 13 125.5C13 124.672 13.6716 124 14.5 124C15.3284 124 16 124.672 16 125.5Z" fill="black"/>
<path d="M36 125.5C36 126.328 35.3284 127 34.5 127C33.6716 127 33 126.328 33 125.5C33 124.672 33.6716 124 34.5 124C35.3284 124 36 124.672 36 125.5Z" fill="black"/>
<path d="M56 125.5C56 126.328 55.3284 127 54.5 127C53.6716 127 53 126.328 53 125.5C53 124.672 53.6716 124 54.5 124C55.3284 124 56 124.672 56 125.5Z" fill="black"/>
<path d="M76 125.5C76 126.328 75.3284 127 74.5 127C73.6716 127 73 126.328 73 125.5C73 124.672 73.6716 124 74.5 124C75.3284 124 76 124.672 76 125.5Z" fill="black"/>
<path d="M96 125.5C96 126.328 95.3284 127 94.5 127C93.6716 127 93 126.328 93 125.5C93 124.672 93.6716 124 94.5 124C95.3284 124 96 124.672 96 125.5Z" fill="black"/>
<path d="M116 125.5C116 126.328 115.328 127 114.5 127C113.672 127 113 126.328 113 125.5C113 124.672 113.672 124 114.5 124C115.328 124 116 124.672 116 125.5Z" fill="black"/>
<path d="M136 125.5C136 126.328 135.328 127 134.5 127C133.672 127 133 126.328 133 125.5C133 124.672 133.672 124 134.5 124C135.328 124 136 124.672 136 125.5Z" fill="black"/>
<path d="M156 125.5C156 126.328 155.328 127 154.5 127C153.672 127 153 126.328 153 125.5C153 124.672 153.672 124 154.5 124C155.328 124 156 124.672 156 125.5Z" fill="black"/>
<path d="M176 125.5C176 126.328 175.328 127 174.5 127C173.672 127 173 126.328 173 125.5C173 124.672 173.672 124 174.5 124C175.328 124 176 124.672 176 125.5Z" fill="black"/>
<path d="M196 125.5C196 126.328 195.328 127 194.5 127C193.672 127 193 126.328 193 125.5C193 124.672 193.672 124 194.5 124C195.328 124 196 124.672 196 125.5Z" fill="black"/>
<path d="M216 125.5C216 126.328 215.328 127 214.5 127C213.672 127 213 126.328 213 125.5C213 124.672 213.672 124 214.5 124C215.328 124 216 124.672 216 125.5Z" fill="black"/>
<path d="M236 125.5C236 126.328 235.328 127 234.5 127C233.672 127 233 126.328 233 125.5C233 124.672 233.672 124 234.5 124C235.328 124 236 124.672 236 125.5Z" fill="black"/>
<path d="M256 125.5C256 126.328 255.328 127 254.5 127C253.672 127 253 126.328 253 125.5C253 124.672 253.672 124 254.5 124C255.328 124 256 124.672 256 125.5Z" fill="black"/>
<path d="M-24 145.5C-24 146.328 -24.6716 147 -25.5 147C-26.3284 147 -27 146.328 -27 145.5C-27 144.672 -26.3284 144 -25.5 144C-24.6716 144 -24 144.672 -24 145.5Z" fill="black"/>
<path d="M-4 145.5C-4 146.328 -4.67157 147 -5.5 147C-6.32843 147 -7 146.328 -7 145.5C-7 144.672 -6.32843 144 -5.5 144C-4.67157 144 -4 144.672 -4 145.5Z" fill="black"/>
<path d="M16 145.5C16 146.328 15.3284 147 14.5 147C13.6716 147 13 146.328 13 145.5C13 144.672 13.6716 144 14.5 144C15.3284 144 16 144.672 16 145.5Z" fill="black"/>
<path d="M36 145.5C36 146.328 35.3284 147 34.5 147C33.6716 147 33 146.328 33 145.5C33 144.672 33.6716 144 34.5 144C35.3284 144 36 144.672 36 145.5Z" fill="black"/>
<path d="M56 145.5C56 146.328 55.3284 147 54.5 147C53.6716 147 53 146.328 53 145.5C53 144.672 53.6716 144 54.5 144C55.3284 144 56 144.672 56 145.5Z" fill="black"/>
<path d="M76 145.5C76 146.328 75.3284 147 74.5 147C73.6716 147 73 146.328 73 145.5C73 144.672 73.6716 144 74.5 144C75.3284 144 76 144.672 76 145.5Z" fill="black"/>
<path d="M96 145.5C96 146.328 95.3284 147 94.5 147C93.6716 147 93 146.328 93 145.5C93 144.672 93.6716 144 94.5 144C95.3284 144 96 144.672 96 145.5Z" fill="black"/>
<path d="M116 145.5C116 146.328 115.328 147 114.5 147C113.672 147 113 146.328 113 145.5C113 144.672 113.672 144 114.5 144C115.328 144 116 144.672 116 145.5Z" fill="black"/>
<path d="M136 145.5C136 146.328 135.328 147 134.5 147C133.672 147 133 146.328 133 145.5C133 144.672 133.672 144 134.5 144C135.328 144 136 144.672 136 145.5Z" fill="black"/>
<path d="M156 145.5C156 146.328 155.328 147 154.5 147C153.672 147 153 146.328 153 145.5C153 144.672 153.672 144 154.5 144C155.328 144 156 144.672 156 145.5Z" fill="black"/>
<path d="M176 145.5C176 146.328 175.328 147 174.5 147C173.672 147 173 146.328 173 145.5C173 144.672 173.672 144 174.5 144C175.328 144 176 144.672 176 145.5Z" fill="black"/>
<path d="M196 145.5C196 146.328 195.328 147 194.5 147C193.672 147 193 146.328 193 145.5C193 144.672 193.672 144 194.5 144C195.328 144 196 144.672 196 145.5Z" fill="black"/>
<path d="M216 145.5C216 146.328 215.328 147 214.5 147C213.672 147 213 146.328 213 145.5C213 144.672 213.672 144 214.5 144C215.328 144 216 144.672 216 145.5Z" fill="black"/>
<path d="M236 145.5C236 146.328 235.328 147 234.5 147C233.672 147 233 146.328 233 145.5C233 144.672 233.672 144 234.5 144C235.328 144 236 144.672 236 145.5Z" fill="black"/>
<path d="M256 145.5C256 146.328 255.328 147 254.5 147C253.672 147 253 146.328 253 145.5C253 144.672 253.672 144 254.5 144C255.328 144 256 144.672 256 145.5Z" fill="black"/>
<path d="M-24 165.5C-24 166.328 -24.6716 167 -25.5 167C-26.3284 167 -27 166.328 -27 165.5C-27 164.672 -26.3284 164 -25.5 164C-24.6716 164 -24 164.672 -24 165.5Z" fill="black"/>
<path d="M-4 165.5C-4 166.328 -4.67157 167 -5.5 167C-6.32843 167 -7 166.328 -7 165.5C-7 164.672 -6.32843 164 -5.5 164C-4.67157 164 -4 164.672 -4 165.5Z" fill="black"/>
<path d="M16 165.5C16 166.328 15.3284 167 14.5 167C13.6716 167 13 166.328 13 165.5C13 164.672 13.6716 164 14.5 164C15.3284 164 16 164.672 16 165.5Z" fill="black"/>
<path d="M36 165.5C36 166.328 35.3284 167 34.5 167C33.6716 167 33 166.328 33 165.5C33 164.672 33.6716 164 34.5 164C35.3284 164 36 164.672 36 165.5Z" fill="black"/>
<path d="M56 165.5C56 166.328 55.3284 167 54.5 167C53.6716 167 53 166.328 53 165.5C53 164.672 53.6716 164 54.5 164C55.3284 164 56 164.672 56 165.5Z" fill="black"/>
<path d="M76 165.5C76 166.328 75.3284 167 74.5 167C73.6716 167 73 166.328 73 165.5C73 164.672 73.6716 164 74.5 164C75.3284 164 76 164.672 76 165.5Z" fill="black"/>
<path d="M96 165.5C96 166.328 95.3284 167 94.5 167C93.6716 167 93 166.328 93 165.5C93 164.672 93.6716 164 94.5 164C95.3284 164 96 164.672 96 165.5Z" fill="black"/>
<path d="M116 165.5C116 166.328 115.328 167 114.5 167C113.672 167 113 166.328 113 165.5C113 164.672 113.672 164 114.5 164C115.328 164 116 164.672 116 165.5Z" fill="black"/>
<path d="M136 165.5C136 166.328 135.328 167 134.5 167C133.672 167 133 166.328 133 165.5C133 164.672 133.672 164 134.5 164C135.328 164 136 164.672 136 165.5Z" fill="black"/>
<path d="M156 165.5C156 166.328 155.328 167 154.5 167C153.672 167 153 166.328 153 165.5C153 164.672 153.672 164 154.5 164C155.328 164 156 164.672 156 165.5Z" fill="black"/>
<path d="M176 165.5C176 166.328 175.328 167 174.5 167C173.672 167 173 166.328 173 165.5C173 164.672 173.672 164 174.5 164C175.328 164 176 164.672 176 165.5Z" fill="black"/>
<path d="M196 165.5C196 166.328 195.328 167 194.5 167C193.672 167 193 166.328 193 165.5C193 164.672 193.672 164 194.5 164C195.328 164 196 164.672 196 165.5Z" fill="black"/>
<path d="M216 165.5C216 166.328 215.328 167 214.5 167C213.672 167 213 166.328 213 165.5C213 164.672 213.672 164 214.5 164C215.328 164 216 164.672 216 165.5Z" fill="black"/>
<path d="M236 165.5C236 166.328 235.328 167 234.5 167C233.672 167 233 166.328 233 165.5C233 164.672 233.672 164 234.5 164C235.328 164 236 164.672 236 165.5Z" fill="black"/>
<path d="M256 165.5C256 166.328 255.328 167 254.5 167C253.672 167 253 166.328 253 165.5C253 164.672 253.672 164 254.5 164C255.328 164 256 164.672 256 165.5Z" fill="black"/>
<path d="M-24 185.5C-24 186.328 -24.6716 187 -25.5 187C-26.3284 187 -27 186.328 -27 185.5C-27 184.672 -26.3284 184 -25.5 184C-24.6716 184 -24 184.672 -24 185.5Z" fill="black"/>
<path d="M-4 185.5C-4 186.328 -4.67157 187 -5.5 187C-6.32843 187 -7 186.328 -7 185.5C-7 184.672 -6.32843 184 -5.5 184C-4.67157 184 -4 184.672 -4 185.5Z" fill="black"/>
<path d="M16 185.5C16 186.328 15.3284 187 14.5 187C13.6716 187 13 186.328 13 185.5C13 184.672 13.6716 184 14.5 184C15.3284 184 16 184.672 16 185.5Z" fill="black"/>
<path d="M36 185.5C36 186.328 35.3284 187 34.5 187C33.6716 187 33 186.328 33 185.5C33 184.672 33.6716 184 34.5 184C35.3284 184 36 184.672 36 185.5Z" fill="black"/>
<path d="M56 185.5C56 186.328 55.3284 187 54.5 187C53.6716 187 53 186.328 53 185.5C53 184.672 53.6716 184 54.5 184C55.3284 184 56 184.672 56 185.5Z" fill="black"/>
<path d="M76 185.5C76 186.328 75.3284 187 74.5 187C73.6716 187 73 186.328 73 185.5C73 184.672 73.6716 184 74.5 184C75.3284 184 76 184.672 76 185.5Z" fill="black"/>
<path d="M96 185.5C96 186.328 95.3284 187 94.5 187C93.6716 187 93 186.328 93 185.5C93 184.672 93.6716 184 94.5 184C95.3284 184 96 184.672 96 185.5Z" fill="black"/>
<path d="M116 185.5C116 186.328 115.328 187 114.5 187C113.672 187 113 186.328 113 185.5C113 184.672 113.672 184 114.5 184C115.328 184 116 184.672 116 185.5Z" fill="black"/>
<path d="M136 185.5C136 186.328 135.328 187 134.5 187C133.672 187 133 186.328 133 185.5C133 184.672 133.672 184 134.5 184C135.328 184 136 184.672 136 185.5Z" fill="black"/>
<path d="M156 185.5C156 186.328 155.328 187 154.5 187C153.672 187 153 186.328 153 185.5C153 184.672 153.672 184 154.5 184C155.328 184 156 184.672 156 185.5Z" fill="black"/>
<path d="M176 185.5C176 186.328 175.328 187 174.5 187C173.672 187 173 186.328 173 185.5C173 184.672 173.672 184 174.5 184C175.328 184 176 184.672 176 185.5Z" fill="black"/>
<path d="M196 185.5C196 186.328 195.328 187 194.5 187C193.672 187 193 186.328 193 185.5C193 184.672 193.672 184 194.5 184C195.328 184 196 184.672 196 185.5Z" fill="black"/>
<path d="M216 185.5C216 186.328 215.328 187 214.5 187C213.672 187 213 186.328 213 185.5C213 184.672 213.672 184 214.5 184C215.328 184 216 184.672 216 185.5Z" fill="black"/>
<path d="M236 185.5C236 186.328 235.328 187 234.5 187C233.672 187 233 186.328 233 185.5C233 184.672 233.672 184 234.5 184C235.328 184 236 184.672 236 185.5Z" fill="black"/>
<path d="M256 185.5C256 186.328 255.328 187 254.5 187C253.672 187 253 186.328 253 185.5C253 184.672 253.672 184 254.5 184C255.328 184 256 184.672 256 185.5Z" fill="black"/>
<path d="M-24 205.5C-24 206.328 -24.6716 207 -25.5 207C-26.3284 207 -27 206.328 -27 205.5C-27 204.672 -26.3284 204 -25.5 204C-24.6716 204 -24 204.672 -24 205.5Z" fill="black"/>
<path d="M-4 205.5C-4 206.328 -4.67157 207 -5.5 207C-6.32843 207 -7 206.328 -7 205.5C-7 204.672 -6.32843 204 -5.5 204C-4.67157 204 -4 204.672 -4 205.5Z" fill="black"/>
<path d="M16 205.5C16 206.328 15.3284 207 14.5 207C13.6716 207 13 206.328 13 205.5C13 204.672 13.6716 204 14.5 204C15.3284 204 16 204.672 16 205.5Z" fill="black"/>
<path d="M36 205.5C36 206.328 35.3284 207 34.5 207C33.6716 207 33 206.328 33 205.5C33 204.672 33.6716 204 34.5 204C35.3284 204 36 204.672 36 205.5Z" fill="black"/>
<path d="M56 205.5C56 206.328 55.3284 207 54.5 207C53.6716 207 53 206.328 53 205.5C53 204.672 53.6716 204 54.5 204C55.3284 204 56 204.672 56 205.5Z" fill="black"/>
<path d="M76 205.5C76 206.328 75.3284 207 74.5 207C73.6716 207 73 206.328 73 205.5C73 204.672 73.6716 204 74.5 204C75.3284 204 76 204.672 76 205.5Z" fill="black"/>
<path d="M96 205.5C96 206.328 95.3284 207 94.5 207C93.6716 207 93 206.328 93 205.5C93 204.672 93.6716 204 94.5 204C95.3284 204 96 204.672 96 205.5Z" fill="black"/>
<path d="M116 205.5C116 206.328 115.328 207 114.5 207C113.672 207 113 206.328 113 205.5C113 204.672 113.672 204 114.5 204C115.328 204 116 204.672 116 205.5Z" fill="black"/>
<path d="M136 205.5C136 206.328 135.328 207 134.5 207C133.672 207 133 206.328 133 205.5C133 204.672 133.672 204 134.5 204C135.328 204 136 204.672 136 205.5Z" fill="black"/>
<path d="M156 205.5C156 206.328 155.328 207 154.5 207C153.672 207 153 206.328 153 205.5C153 204.672 153.672 204 154.5 204C155.328 204 156 204.672 156 205.5Z" fill="black"/>
<path d="M176 205.5C176 206.328 175.328 207 174.5 207C173.672 207 173 206.328 173 205.5C173 204.672 173.672 204 174.5 204C175.328 204 176 204.672 176 205.5Z" fill="black"/>
<path d="M196 205.5C196 206.328 195.328 207 194.5 207C193.672 207 193 206.328 193 205.5C193 204.672 193.672 204 194.5 204C195.328 204 196 204.672 196 205.5Z" fill="black"/>
<path d="M216 205.5C216 206.328 215.328 207 214.5 207C213.672 207 213 206.328 213 205.5C213 204.672 213.672 204 214.5 204C215.328 204 216 204.672 216 205.5Z" fill="black"/>
<path d="M236 205.5C236 206.328 235.328 207 234.5 207C233.672 207 233 206.328 233 205.5C233 204.672 233.672 204 234.5 204C235.328 204 236 204.672 236 205.5Z" fill="black"/>
<path d="M256 205.5C256 206.328 255.328 207 254.5 207C253.672 207 253 206.328 253 205.5C253 204.672 253.672 204 254.5 204C255.328 204 256 204.672 256 205.5Z" fill="black"/>
<path d="M-24 225.5C-24 226.328 -24.6716 227 -25.5 227C-26.3284 227 -27 226.328 -27 225.5C-27 224.672 -26.3284 224 -25.5 224C-24.6716 224 -24 224.672 -24 225.5Z" fill="black"/>
<path d="M-4 225.5C-4 226.328 -4.67157 227 -5.5 227C-6.32843 227 -7 226.328 -7 225.5C-7 224.672 -6.32843 224 -5.5 224C-4.67157 224 -4 224.672 -4 225.5Z" fill="black"/>
<path d="M16 225.5C16 226.328 15.3284 227 14.5 227C13.6716 227 13 226.328 13 225.5C13 224.672 13.6716 224 14.5 224C15.3284 224 16 224.672 16 225.5Z" fill="black"/>
<path d="M36 225.5C36 226.328 35.3284 227 34.5 227C33.6716 227 33 226.328 33 225.5C33 224.672 33.6716 224 34.5 224C35.3284 224 36 224.672 36 225.5Z" fill="black"/>
<path d="M56 225.5C56 226.328 55.3284 227 54.5 227C53.6716 227 53 226.328 53 225.5C53 224.672 53.6716 224 54.5 224C55.3284 224 56 224.672 56 225.5Z" fill="black"/>
<path d="M76 225.5C76 226.328 75.3284 227 74.5 227C73.6716 227 73 226.328 73 225.5C73 224.672 73.6716 224 74.5 224C75.3284 224 76 224.672 76 225.5Z" fill="black"/>
<path d="M96 225.5C96 226.328 95.3284 227 94.5 227C93.6716 227 93 226.328 93 225.5C93 224.672 93.6716 224 94.5 224C95.3284 224 96 224.672 96 225.5Z" fill="black"/>
<path d="M116 225.5C116 226.328 115.328 227 114.5 227C113.672 227 113 226.328 113 225.5C113 224.672 113.672 224 114.5 224C115.328 224 116 224.672 116 225.5Z" fill="black"/>
<path d="M136 225.5C136 226.328 135.328 227 134.5 227C133.672 227 133 226.328 133 225.5C133 224.672 133.672 224 134.5 224C135.328 224 136 224.672 136 225.5Z" fill="black"/>
<path d="M156 225.5C156 226.328 155.328 227 154.5 227C153.672 227 153 226.328 153 225.5C153 224.672 153.672 224 154.5 224C155.328 224 156 224.672 156 225.5Z" fill="black"/>
<path d="M176 225.5C176 226.328 175.328 227 174.5 227C173.672 227 173 226.328 173 225.5C173 224.672 173.672 224 174.5 224C175.328 224 176 224.672 176 225.5Z" fill="black"/>
<path d="M196 225.5C196 226.328 195.328 227 194.5 227C193.672 227 193 226.328 193 225.5C193 224.672 193.672 224 194.5 224C195.328 224 196 224.672 196 225.5Z" fill="black"/>
<path d="M216 225.5C216 226.328 215.328 227 214.5 227C213.672 227 213 226.328 213 225.5C213 224.672 213.672 224 214.5 224C215.328 224 216 224.672 216 225.5Z" fill="black"/>
<path d="M236 225.5C236 226.328 235.328 227 234.5 227C233.672 227 233 226.328 233 225.5C233 224.672 233.672 224 234.5 224C235.328 224 236 224.672 236 225.5Z" fill="black"/>
<path d="M256 225.5C256 226.328 255.328 227 254.5 227C253.672 227 253 226.328 253 225.5C253 224.672 253.672 224 254.5 224C255.328 224 256 224.672 256 225.5Z" fill="black"/>
<path d="M276 5.5C276 6.32843 275.328 7 274.5 7C273.672 7 273 6.32843 273 5.5C273 4.67157 273.672 4 274.5 4C275.328 4 276 4.67157 276 5.5Z" fill="black"/>
<path d="M296 5.5C296 6.32843 295.328 7 294.5 7C293.672 7 293 6.32843 293 5.5C293 4.67157 293.672 4 294.5 4C295.328 4 296 4.67157 296 5.5Z" fill="black"/>
<path d="M316 5.5C316 6.32843 315.328 7 314.5 7C313.672 7 313 6.32843 313 5.5C313 4.67157 313.672 4 314.5 4C315.328 4 316 4.67157 316 5.5Z" fill="black"/>
<path d="M336 5.5C336 6.32843 335.328 7 334.5 7C333.672 7 333 6.32843 333 5.5C333 4.67157 333.672 4 334.5 4C335.328 4 336 4.67157 336 5.5Z" fill="black"/>
<path d="M356 5.5C356 6.32843 355.328 7 354.5 7C353.672 7 353 6.32843 353 5.5C353 4.67157 353.672 4 354.5 4C355.328 4 356 4.67157 356 5.5Z" fill="black"/>
<path d="M376 5.5C376 6.32843 375.328 7 374.5 7C373.672 7 373 6.32843 373 5.5C373 4.67157 373.672 4 374.5 4C375.328 4 376 4.67157 376 5.5Z" fill="black"/>
<path d="M396 5.5C396 6.32843 395.328 7 394.5 7C393.672 7 393 6.32843 393 5.5C393 4.67157 393.672 4 394.5 4C395.328 4 396 4.67157 396 5.5Z" fill="black"/>
<path d="M416 5.5C416 6.32843 415.328 7 414.5 7C413.672 7 413 6.32843 413 5.5C413 4.67157 413.672 4 414.5 4C415.328 4 416 4.67157 416 5.5Z" fill="black"/>
<path d="M276 25.5C276 26.3284 275.328 27 274.5 27C273.672 27 273 26.3284 273 25.5C273 24.6716 273.672 24 274.5 24C275.328 24 276 24.6716 276 25.5Z" fill="black"/>
<path d="M296 25.5C296 26.3284 295.328 27 294.5 27C293.672 27 293 26.3284 293 25.5C293 24.6716 293.672 24 294.5 24C295.328 24 296 24.6716 296 25.5Z" fill="black"/>
<path d="M316 25.5C316 26.3284 315.328 27 314.5 27C313.672 27 313 26.3284 313 25.5C313 24.6716 313.672 24 314.5 24C315.328 24 316 24.6716 316 25.5Z" fill="black"/>
<path d="M336 25.5C336 26.3284 335.328 27 334.5 27C333.672 27 333 26.3284 333 25.5C333 24.6716 333.672 24 334.5 24C335.328 24 336 24.6716 336 25.5Z" fill="black"/>
<path d="M356 25.5C356 26.3284 355.328 27 354.5 27C353.672 27 353 26.3284 353 25.5C353 24.6716 353.672 24 354.5 24C355.328 24 356 24.6716 356 25.5Z" fill="black"/>
<path d="M376 25.5C376 26.3284 375.328 27 374.5 27C373.672 27 373 26.3284 373 25.5C373 24.6716 373.672 24 374.5 24C375.328 24 376 24.6716 376 25.5Z" fill="black"/>
<path d="M396 25.5C396 26.3284 395.328 27 394.5 27C393.672 27 393 26.3284 393 25.5C393 24.6716 393.672 24 394.5 24C395.328 24 396 24.6716 396 25.5Z" fill="black"/>
<path d="M416 25.5C416 26.3284 415.328 27 414.5 27C413.672 27 413 26.3284 413 25.5C413 24.6716 413.672 24 414.5 24C415.328 24 416 24.6716 416 25.5Z" fill="black"/>
<path d="M276 45.5C276 46.3284 275.328 47 274.5 47C273.672 47 273 46.3284 273 45.5C273 44.6716 273.672 44 274.5 44C275.328 44 276 44.6716 276 45.5Z" fill="black"/>
<path d="M296 45.5C296 46.3284 295.328 47 294.5 47C293.672 47 293 46.3284 293 45.5C293 44.6716 293.672 44 294.5 44C295.328 44 296 44.6716 296 45.5Z" fill="black"/>
<path d="M316 45.5C316 46.3284 315.328 47 314.5 47C313.672 47 313 46.3284 313 45.5C313 44.6716 313.672 44 314.5 44C315.328 44 316 44.6716 316 45.5Z" fill="black"/>
<path d="M336 45.5C336 46.3284 335.328 47 334.5 47C333.672 47 333 46.3284 333 45.5C333 44.6716 333.672 44 334.5 44C335.328 44 336 44.6716 336 45.5Z" fill="black"/>
<path d="M356 45.5C356 46.3284 355.328 47 354.5 47C353.672 47 353 46.3284 353 45.5C353 44.6716 353.672 44 354.5 44C355.328 44 356 44.6716 356 45.5Z" fill="black"/>
<path d="M376 45.5C376 46.3284 375.328 47 374.5 47C373.672 47 373 46.3284 373 45.5C373 44.6716 373.672 44 374.5 44C375.328 44 376 44.6716 376 45.5Z" fill="black"/>
<path d="M396 45.5C396 46.3284 395.328 47 394.5 47C393.672 47 393 46.3284 393 45.5C393 44.6716 393.672 44 394.5 44C395.328 44 396 44.6716 396 45.5Z" fill="black"/>
<path d="M416 45.5C416 46.3284 415.328 47 414.5 47C413.672 47 413 46.3284 413 45.5C413 44.6716 413.672 44 414.5 44C415.328 44 416 44.6716 416 45.5Z" fill="black"/>
<path d="M276 65.5C276 66.3284 275.328 67 274.5 67C273.672 67 273 66.3284 273 65.5C273 64.6716 273.672 64 274.5 64C275.328 64 276 64.6716 276 65.5Z" fill="black"/>
<path d="M296 65.5C296 66.3284 295.328 67 294.5 67C293.672 67 293 66.3284 293 65.5C293 64.6716 293.672 64 294.5 64C295.328 64 296 64.6716 296 65.5Z" fill="black"/>
<path d="M316 65.5C316 66.3284 315.328 67 314.5 67C313.672 67 313 66.3284 313 65.5C313 64.6716 313.672 64 314.5 64C315.328 64 316 64.6716 316 65.5Z" fill="black"/>
<path d="M336 65.5C336 66.3284 335.328 67 334.5 67C333.672 67 333 66.3284 333 65.5C333 64.6716 333.672 64 334.5 64C335.328 64 336 64.6716 336 65.5Z" fill="black"/>
<path d="M356 65.5C356 66.3284 355.328 67 354.5 67C353.672 67 353 66.3284 353 65.5C353 64.6716 353.672 64 354.5 64C355.328 64 356 64.6716 356 65.5Z" fill="black"/>
<path d="M376 65.5C376 66.3284 375.328 67 374.5 67C373.672 67 373 66.3284 373 65.5C373 64.6716 373.672 64 374.5 64C375.328 64 376 64.6716 376 65.5Z" fill="black"/>
<path d="M396 65.5C396 66.3284 395.328 67 394.5 67C393.672 67 393 66.3284 393 65.5C393 64.6716 393.672 64 394.5 64C395.328 64 396 64.6716 396 65.5Z" fill="black"/>
<path d="M416 65.5C416 66.3284 415.328 67 414.5 67C413.672 67 413 66.3284 413 65.5C413 64.6716 413.672 64 414.5 64C415.328 64 416 64.6716 416 65.5Z" fill="black"/>
<path d="M276 85.5C276 86.3284 275.328 87 274.5 87C273.672 87 273 86.3284 273 85.5C273 84.6716 273.672 84 274.5 84C275.328 84 276 84.6716 276 85.5Z" fill="black"/>
<path d="M296 85.5C296 86.3284 295.328 87 294.5 87C293.672 87 293 86.3284 293 85.5C293 84.6716 293.672 84 294.5 84C295.328 84 296 84.6716 296 85.5Z" fill="black"/>
<path d="M316 85.5C316 86.3284 315.328 87 314.5 87C313.672 87 313 86.3284 313 85.5C313 84.6716 313.672 84 314.5 84C315.328 84 316 84.6716 316 85.5Z" fill="black"/>
<path d="M336 85.5C336 86.3284 335.328 87 334.5 87C333.672 87 333 86.3284 333 85.5C333 84.6716 333.672 84 334.5 84C335.328 84 336 84.6716 336 85.5Z" fill="black"/>
<path d="M356 85.5C356 86.3284 355.328 87 354.5 87C353.672 87 353 86.3284 353 85.5C353 84.6716 353.672 84 354.5 84C355.328 84 356 84.6716 356 85.5Z" fill="black"/>
<path d="M376 85.5C376 86.3284 375.328 87 374.5 87C373.672 87 373 86.3284 373 85.5C373 84.6716 373.672 84 374.5 84C375.328 84 376 84.6716 376 85.5Z" fill="black"/>
<path d="M396 85.5C396 86.3284 395.328 87 394.5 87C393.672 87 393 86.3284 393 85.5C393 84.6716 393.672 84 394.5 84C395.328 84 396 84.6716 396 85.5Z" fill="black"/>
<path d="M416 85.5C416 86.3284 415.328 87 414.5 87C413.672 87 413 86.3284 413 85.5C413 84.6716 413.672 84 414.5 84C415.328 84 416 84.6716 416 85.5Z" fill="black"/>
<path d="M276 105.5C276 106.328 275.328 107 274.5 107C273.672 107 273 106.328 273 105.5C273 104.672 273.672 104 274.5 104C275.328 104 276 104.672 276 105.5Z" fill="black"/>
<path d="M296 105.5C296 106.328 295.328 107 294.5 107C293.672 107 293 106.328 293 105.5C293 104.672 293.672 104 294.5 104C295.328 104 296 104.672 296 105.5Z" fill="black"/>
<path d="M316 105.5C316 106.328 315.328 107 314.5 107C313.672 107 313 106.328 313 105.5C313 104.672 313.672 104 314.5 104C315.328 104 316 104.672 316 105.5Z" fill="black"/>
<path d="M336 105.5C336 106.328 335.328 107 334.5 107C333.672 107 333 106.328 333 105.5C333 104.672 333.672 104 334.5 104C335.328 104 336 104.672 336 105.5Z" fill="black"/>
<path d="M356 105.5C356 106.328 355.328 107 354.5 107C353.672 107 353 106.328 353 105.5C353 104.672 353.672 104 354.5 104C355.328 104 356 104.672 356 105.5Z" fill="black"/>
<path d="M376 105.5C376 106.328 375.328 107 374.5 107C373.672 107 373 106.328 373 105.5C373 104.672 373.672 104 374.5 104C375.328 104 376 104.672 376 105.5Z" fill="black"/>
<path d="M396 105.5C396 106.328 395.328 107 394.5 107C393.672 107 393 106.328 393 105.5C393 104.672 393.672 104 394.5 104C395.328 104 396 104.672 396 105.5Z" fill="black"/>
<path d="M416 105.5C416 106.328 415.328 107 414.5 107C413.672 107 413 106.328 413 105.5C413 104.672 413.672 104 414.5 104C415.328 104 416 104.672 416 105.5Z" fill="black"/>
<path d="M276 125.5C276 126.328 275.328 127 274.5 127C273.672 127 273 126.328 273 125.5C273 124.672 273.672 124 274.5 124C275.328 124 276 124.672 276 125.5Z" fill="black"/>
<path d="M296 125.5C296 126.328 295.328 127 294.5 127C293.672 127 293 126.328 293 125.5C293 124.672 293.672 124 294.5 124C295.328 124 296 124.672 296 125.5Z" fill="black"/>
<path d="M316 125.5C316 126.328 315.328 127 314.5 127C313.672 127 313 126.328 313 125.5C313 124.672 313.672 124 314.5 124C315.328 124 316 124.672 316 125.5Z" fill="black"/>
<path d="M336 125.5C336 126.328 335.328 127 334.5 127C333.672 127 333 126.328 333 125.5C333 124.672 333.672 124 334.5 124C335.328 124 336 124.672 336 125.5Z" fill="black"/>
<path d="M356 125.5C356 126.328 355.328 127 354.5 127C353.672 127 353 126.328 353 125.5C353 124.672 353.672 124 354.5 124C355.328 124 356 124.672 356 125.5Z" fill="black"/>
<path d="M376 125.5C376 126.328 375.328 127 374.5 127C373.672 127 373 126.328 373 125.5C373 124.672 373.672 124 374.5 124C375.328 124 376 124.672 376 125.5Z" fill="black"/>
<path d="M396 125.5C396 126.328 395.328 127 394.5 127C393.672 127 393 126.328 393 125.5C393 124.672 393.672 124 394.5 124C395.328 124 396 124.672 396 125.5Z" fill="black"/>
<path d="M416 125.5C416 126.328 415.328 127 414.5 127C413.672 127 413 126.328 413 125.5C413 124.672 413.672 124 414.5 124C415.328 124 416 124.672 416 125.5Z" fill="black"/>
<path d="M276 145.5C276 146.328 275.328 147 274.5 147C273.672 147 273 146.328 273 145.5C273 144.672 273.672 144 274.5 144C275.328 144 276 144.672 276 145.5Z" fill="black"/>
<path d="M296 145.5C296 146.328 295.328 147 294.5 147C293.672 147 293 146.328 293 145.5C293 144.672 293.672 144 294.5 144C295.328 144 296 144.672 296 145.5Z" fill="black"/>
<path d="M316 145.5C316 146.328 315.328 147 314.5 147C313.672 147 313 146.328 313 145.5C313 144.672 313.672 144 314.5 144C315.328 144 316 144.672 316 145.5Z" fill="black"/>
<path d="M336 145.5C336 146.328 335.328 147 334.5 147C333.672 147 333 146.328 333 145.5C333 144.672 333.672 144 334.5 144C335.328 144 336 144.672 336 145.5Z" fill="black"/>
<path d="M356 145.5C356 146.328 355.328 147 354.5 147C353.672 147 353 146.328 353 145.5C353 144.672 353.672 144 354.5 144C355.328 144 356 144.672 356 145.5Z" fill="black"/>
<path d="M376 145.5C376 146.328 375.328 147 374.5 147C373.672 147 373 146.328 373 145.5C373 144.672 373.672 144 374.5 144C375.328 144 376 144.672 376 145.5Z" fill="black"/>
<path d="M396 145.5C396 146.328 395.328 147 394.5 147C393.672 147 393 146.328 393 145.5C393 144.672 393.672 144 394.5 144C395.328 144 396 144.672 396 145.5Z" fill="black"/>
<path d="M416 145.5C416 146.328 415.328 147 414.5 147C413.672 147 413 146.328 413 145.5C413 144.672 413.672 144 414.5 144C415.328 144 416 144.672 416 145.5Z" fill="black"/>
<path d="M276 165.5C276 166.328 275.328 167 274.5 167C273.672 167 273 166.328 273 165.5C273 164.672 273.672 164 274.5 164C275.328 164 276 164.672 276 165.5Z" fill="black"/>
<path d="M296 165.5C296 166.328 295.328 167 294.5 167C293.672 167 293 166.328 293 165.5C293 164.672 293.672 164 294.5 164C295.328 164 296 164.672 296 165.5Z" fill="black"/>
<path d="M316 165.5C316 166.328 315.328 167 314.5 167C313.672 167 313 166.328 313 165.5C313 164.672 313.672 164 314.5 164C315.328 164 316 164.672 316 165.5Z" fill="black"/>
<path d="M336 165.5C336 166.328 335.328 167 334.5 167C333.672 167 333 166.328 333 165.5C333 164.672 333.672 164 334.5 164C335.328 164 336 164.672 336 165.5Z" fill="black"/>
<path d="M356 165.5C356 166.328 355.328 167 354.5 167C353.672 167 353 166.328 353 165.5C353 164.672 353.672 164 354.5 164C355.328 164 356 164.672 356 165.5Z" fill="black"/>
<path d="M376 165.5C376 166.328 375.328 167 374.5 167C373.672 167 373 166.328 373 165.5C373 164.672 373.672 164 374.5 164C375.328 164 376 164.672 376 165.5Z" fill="black"/>
<path d="M396 165.5C396 166.328 395.328 167 394.5 167C393.672 167 393 166.328 393 165.5C393 164.672 393.672 164 394.5 164C395.328 164 396 164.672 396 165.5Z" fill="black"/>
<path d="M416 165.5C416 166.328 415.328 167 414.5 167C413.672 167 413 166.328 413 165.5C413 164.672 413.672 164 414.5 164C415.328 164 416 164.672 416 165.5Z" fill="black"/>
<path d="M276 185.5C276 186.328 275.328 187 274.5 187C273.672 187 273 186.328 273 185.5C273 184.672 273.672 184 274.5 184C275.328 184 276 184.672 276 185.5Z" fill="black"/>
<path d="M296 185.5C296 186.328 295.328 187 294.5 187C293.672 187 293 186.328 293 185.5C293 184.672 293.672 184 294.5 184C295.328 184 296 184.672 296 185.5Z" fill="black"/>
<path d="M316 185.5C316 186.328 315.328 187 314.5 187C313.672 187 313 186.328 313 185.5C313 184.672 313.672 184 314.5 184C315.328 184 316 184.672 316 185.5Z" fill="black"/>
<path d="M336 185.5C336 186.328 335.328 187 334.5 187C333.672 187 333 186.328 333 185.5C333 184.672 333.672 184 334.5 184C335.328 184 336 184.672 336 185.5Z" fill="black"/>
<path d="M356 185.5C356 186.328 355.328 187 354.5 187C353.672 187 353 186.328 353 185.5C353 184.672 353.672 184 354.5 184C355.328 184 356 184.672 356 185.5Z" fill="black"/>
<path d="M376 185.5C376 186.328 375.328 187 374.5 187C373.672 187 373 186.328 373 185.5C373 184.672 373.672 184 374.5 184C375.328 184 376 184.672 376 185.5Z" fill="black"/>
<path d="M396 185.5C396 186.328 395.328 187 394.5 187C393.672 187 393 186.328 393 185.5C393 184.672 393.672 184 394.5 184C395.328 184 396 184.672 396 185.5Z" fill="black"/>
<path d="M416 185.5C416 186.328 415.328 187 414.5 187C413.672 187 413 186.328 413 185.5C413 184.672 413.672 184 414.5 184C415.328 184 416 184.672 416 185.5Z" fill="black"/>
<path d="M276 205.5C276 206.328 275.328 207 274.5 207C273.672 207 273 206.328 273 205.5C273 204.672 273.672 204 274.5 204C275.328 204 276 204.672 276 205.5Z" fill="black"/>
<path d="M296 205.5C296 206.328 295.328 207 294.5 207C293.672 207 293 206.328 293 205.5C293 204.672 293.672 204 294.5 204C295.328 204 296 204.672 296 205.5Z" fill="black"/>
<path d="M316 205.5C316 206.328 315.328 207 314.5 207C313.672 207 313 206.328 313 205.5C313 204.672 313.672 204 314.5 204C315.328 204 316 204.672 316 205.5Z" fill="black"/>
<path d="M336 205.5C336 206.328 335.328 207 334.5 207C333.672 207 333 206.328 333 205.5C333 204.672 333.672 204 334.5 204C335.328 204 336 204.672 336 205.5Z" fill="black"/>
<path d="M356 205.5C356 206.328 355.328 207 354.5 207C353.672 207 353 206.328 353 205.5C353 204.672 353.672 204 354.5 204C355.328 204 356 204.672 356 205.5Z" fill="black"/>
<path d="M376 205.5C376 206.328 375.328 207 374.5 207C373.672 207 373 206.328 373 205.5C373 204.672 373.672 204 374.5 204C375.328 204 376 204.672 376 205.5Z" fill="black"/>
<path d="M396 205.5C396 206.328 395.328 207 394.5 207C393.672 207 393 206.328 393 205.5C393 204.672 393.672 204 394.5 204C395.328 204 396 204.672 396 205.5Z" fill="black"/>
<path d="M416 205.5C416 206.328 415.328 207 414.5 207C413.672 207 413 206.328 413 205.5C413 204.672 413.672 204 414.5 204C415.328 204 416 204.672 416 205.5Z" fill="black"/>
<path d="M276 225.5C276 226.328 275.328 227 274.5 227C273.672 227 273 226.328 273 225.5C273 224.672 273.672 224 274.5 224C275.328 224 276 224.672 276 225.5Z" fill="black"/>
<path d="M296 225.5C296 226.328 295.328 227 294.5 227C293.672 227 293 226.328 293 225.5C293 224.672 293.672 224 294.5 224C295.328 224 296 224.672 296 225.5Z" fill="black"/>
<path d="M316 225.5C316 226.328 315.328 227 314.5 227C313.672 227 313 226.328 313 225.5C313 224.672 313.672 224 314.5 224C315.328 224 316 224.672 316 225.5Z" fill="black"/>
<path d="M336 225.5C336 226.328 335.328 227 334.5 227C333.672 227 333 226.328 333 225.5C333 224.672 333.672 224 334.5 224C335.328 224 336 224.672 336 225.5Z" fill="black"/>
<path d="M356 225.5C356 226.328 355.328 227 354.5 227C353.672 227 353 226.328 353 225.5C353 224.672 353.672 224 354.5 224C355.328 224 356 224.672 356 225.5Z" fill="black"/>
<path d="M376 225.5C376 226.328 375.328 227 374.5 227C373.672 227 373 226.328 373 225.5C373 224.672 373.672 224 374.5 224C375.328 224 376 224.672 376 225.5Z" fill="black"/>
<path d="M396 225.5C396 226.328 395.328 227 394.5 227C393.672 227 393 226.328 393 225.5C393 224.672 393.672 224 394.5 224C395.328 224 396 224.672 396 225.5Z" fill="black"/>
<path d="M416 225.5C416 226.328 415.328 227 414.5 227C413.672 227 413 226.328 413 225.5C413 224.672 413.672 224 414.5 224C415.328 224 416 224.672 416 225.5Z" fill="black"/>
<path d="M-24 245.5C-24 246.328 -24.6716 247 -25.5 247C-26.3284 247 -27 246.328 -27 245.5C-27 244.672 -26.3284 244 -25.5 244C-24.6716 244 -24 244.672 -24 245.5Z" fill="black"/>
<path d="M-4 245.5C-4 246.328 -4.67157 247 -5.5 247C-6.32843 247 -7 246.328 -7 245.5C-7 244.672 -6.32843 244 -5.5 244C-4.67157 244 -4 244.672 -4 245.5Z" fill="black"/>
<path d="M16 245.5C16 246.328 15.3284 247 14.5 247C13.6716 247 13 246.328 13 245.5C13 244.672 13.6716 244 14.5 244C15.3284 244 16 244.672 16 245.5Z" fill="black"/>
<path d="M36 245.5C36 246.328 35.3284 247 34.5 247C33.6716 247 33 246.328 33 245.5C33 244.672 33.6716 244 34.5 244C35.3284 244 36 244.672 36 245.5Z" fill="black"/>
<path d="M56 245.5C56 246.328 55.3284 247 54.5 247C53.6716 247 53 246.328 53 245.5C53 244.672 53.6716 244 54.5 244C55.3284 244 56 244.672 56 245.5Z" fill="black"/>
<path d="M76 245.5C76 246.328 75.3284 247 74.5 247C73.6716 247 73 246.328 73 245.5C73 244.672 73.6716 244 74.5 244C75.3284 244 76 244.672 76 245.5Z" fill="black"/>
<path d="M96 245.5C96 246.328 95.3284 247 94.5 247C93.6716 247 93 246.328 93 245.5C93 244.672 93.6716 244 94.5 244C95.3284 244 96 244.672 96 245.5Z" fill="black"/>
<path d="M116 245.5C116 246.328 115.328 247 114.5 247C113.672 247 113 246.328 113 245.5C113 244.672 113.672 244 114.5 244C115.328 244 116 244.672 116 245.5Z" fill="black"/>
<path d="M136 245.5C136 246.328 135.328 247 134.5 247C133.672 247 133 246.328 133 245.5C133 244.672 133.672 244 134.5 244C135.328 244 136 244.672 136 245.5Z" fill="black"/>
<path d="M156 245.5C156 246.328 155.328 247 154.5 247C153.672 247 153 246.328 153 245.5C153 244.672 153.672 244 154.5 244C155.328 244 156 244.672 156 245.5Z" fill="black"/>
<path d="M176 245.5C176 246.328 175.328 247 174.5 247C173.672 247 173 246.328 173 245.5C173 244.672 173.672 244 174.5 244C175.328 244 176 244.672 176 245.5Z" fill="black"/>
<path d="M196 245.5C196 246.328 195.328 247 194.5 247C193.672 247 193 246.328 193 245.5C193 244.672 193.672 244 194.5 244C195.328 244 196 244.672 196 245.5Z" fill="black"/>
<path d="M216 245.5C216 246.328 215.328 247 214.5 247C213.672 247 213 246.328 213 245.5C213 244.672 213.672 244 214.5 244C215.328 244 216 244.672 216 245.5Z" fill="black"/>
<path d="M236 245.5C236 246.328 235.328 247 234.5 247C233.672 247 233 246.328 233 245.5C233 244.672 233.672 244 234.5 244C235.328 244 236 244.672 236 245.5Z" fill="black"/>
<path d="M256 245.5C256 246.328 255.328 247 254.5 247C253.672 247 253 246.328 253 245.5C253 244.672 253.672 244 254.5 244C255.328 244 256 244.672 256 245.5Z" fill="black"/>
<path d="M-24 265.5C-24 266.328 -24.6716 267 -25.5 267C-26.3284 267 -27 266.328 -27 265.5C-27 264.672 -26.3284 264 -25.5 264C-24.6716 264 -24 264.672 -24 265.5Z" fill="black"/>
<path d="M-4 265.5C-4 266.328 -4.67157 267 -5.5 267C-6.32843 267 -7 266.328 -7 265.5C-7 264.672 -6.32843 264 -5.5 264C-4.67157 264 -4 264.672 -4 265.5Z" fill="black"/>
<path d="M16 265.5C16 266.328 15.3284 267 14.5 267C13.6716 267 13 266.328 13 265.5C13 264.672 13.6716 264 14.5 264C15.3284 264 16 264.672 16 265.5Z" fill="black"/>
<path d="M36 265.5C36 266.328 35.3284 267 34.5 267C33.6716 267 33 266.328 33 265.5C33 264.672 33.6716 264 34.5 264C35.3284 264 36 264.672 36 265.5Z" fill="black"/>
<path d="M56 265.5C56 266.328 55.3284 267 54.5 267C53.6716 267 53 266.328 53 265.5C53 264.672 53.6716 264 54.5 264C55.3284 264 56 264.672 56 265.5Z" fill="black"/>
<path d="M76 265.5C76 266.328 75.3284 267 74.5 267C73.6716 267 73 266.328 73 265.5C73 264.672 73.6716 264 74.5 264C75.3284 264 76 264.672 76 265.5Z" fill="black"/>
<path d="M96 265.5C96 266.328 95.3284 267 94.5 267C93.6716 267 93 266.328 93 265.5C93 264.672 93.6716 264 94.5 264C95.3284 264 96 264.672 96 265.5Z" fill="black"/>
<path d="M116 265.5C116 266.328 115.328 267 114.5 267C113.672 267 113 266.328 113 265.5C113 264.672 113.672 264 114.5 264C115.328 264 116 264.672 116 265.5Z" fill="black"/>
<path d="M136 265.5C136 266.328 135.328 267 134.5 267C133.672 267 133 266.328 133 265.5C133 264.672 133.672 264 134.5 264C135.328 264 136 264.672 136 265.5Z" fill="black"/>
<path d="M156 265.5C156 266.328 155.328 267 154.5 267C153.672 267 153 266.328 153 265.5C153 264.672 153.672 264 154.5 264C155.328 264 156 264.672 156 265.5Z" fill="black"/>
<path d="M176 265.5C176 266.328 175.328 267 174.5 267C173.672 267 173 266.328 173 265.5C173 264.672 173.672 264 174.5 264C175.328 264 176 264.672 176 265.5Z" fill="black"/>
<path d="M196 265.5C196 266.328 195.328 267 194.5 267C193.672 267 193 266.328 193 265.5C193 264.672 193.672 264 194.5 264C195.328 264 196 264.672 196 265.5Z" fill="black"/>
<path d="M216 265.5C216 266.328 215.328 267 214.5 267C213.672 267 213 266.328 213 265.5C213 264.672 213.672 264 214.5 264C215.328 264 216 264.672 216 265.5Z" fill="black"/>
<path d="M236 265.5C236 266.328 235.328 267 234.5 267C233.672 267 233 266.328 233 265.5C233 264.672 233.672 264 234.5 264C235.328 264 236 264.672 236 265.5Z" fill="black"/>
<path d="M256 265.5C256 266.328 255.328 267 254.5 267C253.672 267 253 266.328 253 265.5C253 264.672 253.672 264 254.5 264C255.328 264 256 264.672 256 265.5Z" fill="black"/>
<path d="M-24 285.5C-24 286.328 -24.6716 287 -25.5 287C-26.3284 287 -27 286.328 -27 285.5C-27 284.672 -26.3284 284 -25.5 284C-24.6716 284 -24 284.672 -24 285.5Z" fill="black"/>
<path d="M-4 285.5C-4 286.328 -4.67157 287 -5.5 287C-6.32843 287 -7 286.328 -7 285.5C-7 284.672 -6.32843 284 -5.5 284C-4.67157 284 -4 284.672 -4 285.5Z" fill="black"/>
<path d="M16 285.5C16 286.328 15.3284 287 14.5 287C13.6716 287 13 286.328 13 285.5C13 284.672 13.6716 284 14.5 284C15.3284 284 16 284.672 16 285.5Z" fill="black"/>
<path d="M36 285.5C36 286.328 35.3284 287 34.5 287C33.6716 287 33 286.328 33 285.5C33 284.672 33.6716 284 34.5 284C35.3284 284 36 284.672 36 285.5Z" fill="black"/>
<path d="M56 285.5C56 286.328 55.3284 287 54.5 287C53.6716 287 53 286.328 53 285.5C53 284.672 53.6716 284 54.5 284C55.3284 284 56 284.672 56 285.5Z" fill="black"/>
<path d="M76 285.5C76 286.328 75.3284 287 74.5 287C73.6716 287 73 286.328 73 285.5C73 284.672 73.6716 284 74.5 284C75.3284 284 76 284.672 76 285.5Z" fill="black"/>
<path d="M96 285.5C96 286.328 95.3284 287 94.5 287C93.6716 287 93 286.328 93 285.5C93 284.672 93.6716 284 94.5 284C95.3284 284 96 284.672 96 285.5Z" fill="black"/>
<path d="M116 285.5C116 286.328 115.328 287 114.5 287C113.672 287 113 286.328 113 285.5C113 284.672 113.672 284 114.5 284C115.328 284 116 284.672 116 285.5Z" fill="black"/>
<path d="M136 285.5C136 286.328 135.328 287 134.5 287C133.672 287 133 286.328 133 285.5C133 284.672 133.672 284 134.5 284C135.328 284 136 284.672 136 285.5Z" fill="black"/>
<path d="M156 285.5C156 286.328 155.328 287 154.5 287C153.672 287 153 286.328 153 285.5C153 284.672 153.672 284 154.5 284C155.328 284 156 284.672 156 285.5Z" fill="black"/>
<path d="M176 285.5C176 286.328 175.328 287 174.5 287C173.672 287 173 286.328 173 285.5C173 284.672 173.672 284 174.5 284C175.328 284 176 284.672 176 285.5Z" fill="black"/>
<path d="M196 285.5C196 286.328 195.328 287 194.5 287C193.672 287 193 286.328 193 285.5C193 284.672 193.672 284 194.5 284C195.328 284 196 284.672 196 285.5Z" fill="black"/>
<path d="M216 285.5C216 286.328 215.328 287 214.5 287C213.672 287 213 286.328 213 285.5C213 284.672 213.672 284 214.5 284C215.328 284 216 284.672 216 285.5Z" fill="black"/>
<path d="M236 285.5C236 286.328 235.328 287 234.5 287C233.672 287 233 286.328 233 285.5C233 284.672 233.672 284 234.5 284C235.328 284 236 284.672 236 285.5Z" fill="black"/>
<path d="M256 285.5C256 286.328 255.328 287 254.5 287C253.672 287 253 286.328 253 285.5C253 284.672 253.672 284 254.5 284C255.328 284 256 284.672 256 285.5Z" fill="black"/>
<path d="M276 245.5C276 246.328 275.328 247 274.5 247C273.672 247 273 246.328 273 245.5C273 244.672 273.672 244 274.5 244C275.328 244 276 244.672 276 245.5Z" fill="black"/>
<path d="M296 245.5C296 246.328 295.328 247 294.5 247C293.672 247 293 246.328 293 245.5C293 244.672 293.672 244 294.5 244C295.328 244 296 244.672 296 245.5Z" fill="black"/>
<path d="M316 245.5C316 246.328 315.328 247 314.5 247C313.672 247 313 246.328 313 245.5C313 244.672 313.672 244 314.5 244C315.328 244 316 244.672 316 245.5Z" fill="black"/>
<path d="M336 245.5C336 246.328 335.328 247 334.5 247C333.672 247 333 246.328 333 245.5C333 244.672 333.672 244 334.5 244C335.328 244 336 244.672 336 245.5Z" fill="black"/>
<path d="M356 245.5C356 246.328 355.328 247 354.5 247C353.672 247 353 246.328 353 245.5C353 244.672 353.672 244 354.5 244C355.328 244 356 244.672 356 245.5Z" fill="black"/>
<path d="M376 245.5C376 246.328 375.328 247 374.5 247C373.672 247 373 246.328 373 245.5C373 244.672 373.672 244 374.5 244C375.328 244 376 244.672 376 245.5Z" fill="black"/>
<path d="M396 245.5C396 246.328 395.328 247 394.5 247C393.672 247 393 246.328 393 245.5C393 244.672 393.672 244 394.5 244C395.328 244 396 244.672 396 245.5Z" fill="black"/>
<path d="M416 245.5C416 246.328 415.328 247 414.5 247C413.672 247 413 246.328 413 245.5C413 244.672 413.672 244 414.5 244C415.328 244 416 244.672 416 245.5Z" fill="black"/>
<path d="M276 265.5C276 266.328 275.328 267 274.5 267C273.672 267 273 266.328 273 265.5C273 264.672 273.672 264 274.5 264C275.328 264 276 264.672 276 265.5Z" fill="black"/>
<path d="M296 265.5C296 266.328 295.328 267 294.5 267C293.672 267 293 266.328 293 265.5C293 264.672 293.672 264 294.5 264C295.328 264 296 264.672 296 265.5Z" fill="black"/>
<path d="M316 265.5C316 266.328 315.328 267 314.5 267C313.672 267 313 266.328 313 265.5C313 264.672 313.672 264 314.5 264C315.328 264 316 264.672 316 265.5Z" fill="black"/>
<path d="M336 265.5C336 266.328 335.328 267 334.5 267C333.672 267 333 266.328 333 265.5C333 264.672 333.672 264 334.5 264C335.328 264 336 264.672 336 265.5Z" fill="black"/>
<path d="M356 265.5C356 266.328 355.328 267 354.5 267C353.672 267 353 266.328 353 265.5C353 264.672 353.672 264 354.5 264C355.328 264 356 264.672 356 265.5Z" fill="black"/>
<path d="M376 265.5C376 266.328 375.328 267 374.5 267C373.672 267 373 266.328 373 265.5C373 264.672 373.672 264 374.5 264C375.328 264 376 264.672 376 265.5Z" fill="black"/>
<path d="M396 265.5C396 266.328 395.328 267 394.5 267C393.672 267 393 266.328 393 265.5C393 264.672 393.672 264 394.5 264C395.328 264 396 264.672 396 265.5Z" fill="black"/>
<path d="M416 265.5C416 266.328 415.328 267 414.5 267C413.672 267 413 266.328 413 265.5C413 264.672 413.672 264 414.5 264C415.328 264 416 264.672 416 265.5Z" fill="black"/>
<path d="M276 285.5C276 286.328 275.328 287 274.5 287C273.672 287 273 286.328 273 285.5C273 284.672 273.672 284 274.5 284C275.328 284 276 284.672 276 285.5Z" fill="black"/>
<path d="M296 285.5C296 286.328 295.328 287 294.5 287C293.672 287 293 286.328 293 285.5C293 284.672 293.672 284 294.5 284C295.328 284 296 284.672 296 285.5Z" fill="black"/>
<path d="M316 285.5C316 286.328 315.328 287 314.5 287C313.672 287 313 286.328 313 285.5C313 284.672 313.672 284 314.5 284C315.328 284 316 284.672 316 285.5Z" fill="black"/>
<path d="M336 285.5C336 286.328 335.328 287 334.5 287C333.672 287 333 286.328 333 285.5C333 284.672 333.672 284 334.5 284C335.328 284 336 284.672 336 285.5Z" fill="black"/>
<path d="M356 285.5C356 286.328 355.328 287 354.5 287C353.672 287 353 286.328 353 285.5C353 284.672 353.672 284 354.5 284C355.328 284 356 284.672 356 285.5Z" fill="black"/>
<path d="M376 285.5C376 286.328 375.328 287 374.5 287C373.672 287 373 286.328 373 285.5C373 284.672 373.672 284 374.5 284C375.328 284 376 284.672 376 285.5Z" fill="black"/>
<path d="M396 285.5C396 286.328 395.328 287 394.5 287C393.672 287 393 286.328 393 285.5C393 284.672 393.672 284 394.5 284C395.328 284 396 284.672 396 285.5Z" fill="black"/>
<path d="M416 285.5C416 286.328 415.328 287 414.5 287C413.672 287 413 286.328 413 285.5C413 284.672 413.672 284 414.5 284C415.328 284 416 284.672 416 285.5Z" fill="black"/>
<path d="M-24 305.5C-24 306.328 -24.6716 307 -25.5 307C-26.3284 307 -27 306.328 -27 305.5C-27 304.672 -26.3284 304 -25.5 304C-24.6716 304 -24 304.672 -24 305.5Z" fill="black"/>
<path d="M-4 305.5C-4 306.328 -4.67157 307 -5.5 307C-6.32843 307 -7 306.328 -7 305.5C-7 304.672 -6.32843 304 -5.5 304C-4.67157 304 -4 304.672 -4 305.5Z" fill="black"/>
<path d="M16 305.5C16 306.328 15.3284 307 14.5 307C13.6716 307 13 306.328 13 305.5C13 304.672 13.6716 304 14.5 304C15.3284 304 16 304.672 16 305.5Z" fill="black"/>
<path d="M36 305.5C36 306.328 35.3284 307 34.5 307C33.6716 307 33 306.328 33 305.5C33 304.672 33.6716 304 34.5 304C35.3284 304 36 304.672 36 305.5Z" fill="black"/>
<path d="M56 305.5C56 306.328 55.3284 307 54.5 307C53.6716 307 53 306.328 53 305.5C53 304.672 53.6716 304 54.5 304C55.3284 304 56 304.672 56 305.5Z" fill="black"/>
<path d="M76 305.5C76 306.328 75.3284 307 74.5 307C73.6716 307 73 306.328 73 305.5C73 304.672 73.6716 304 74.5 304C75.3284 304 76 304.672 76 305.5Z" fill="black"/>
<path d="M96 305.5C96 306.328 95.3284 307 94.5 307C93.6716 307 93 306.328 93 305.5C93 304.672 93.6716 304 94.5 304C95.3284 304 96 304.672 96 305.5Z" fill="black"/>
<path d="M116 305.5C116 306.328 115.328 307 114.5 307C113.672 307 113 306.328 113 305.5C113 304.672 113.672 304 114.5 304C115.328 304 116 304.672 116 305.5Z" fill="black"/>
<path d="M136 305.5C136 306.328 135.328 307 134.5 307C133.672 307 133 306.328 133 305.5C133 304.672 133.672 304 134.5 304C135.328 304 136 304.672 136 305.5Z" fill="black"/>
<path d="M156 305.5C156 306.328 155.328 307 154.5 307C153.672 307 153 306.328 153 305.5C153 304.672 153.672 304 154.5 304C155.328 304 156 304.672 156 305.5Z" fill="black"/>
<path d="M176 305.5C176 306.328 175.328 307 174.5 307C173.672 307 173 306.328 173 305.5C173 304.672 173.672 304 174.5 304C175.328 304 176 304.672 176 305.5Z" fill="black"/>
<path d="M196 305.5C196 306.328 195.328 307 194.5 307C193.672 307 193 306.328 193 305.5C193 304.672 193.672 304 194.5 304C195.328 304 196 304.672 196 305.5Z" fill="black"/>
<path d="M216 305.5C216 306.328 215.328 307 214.5 307C213.672 307 213 306.328 213 305.5C213 304.672 213.672 304 214.5 304C215.328 304 216 304.672 216 305.5Z" fill="black"/>
<path d="M236 305.5C236 306.328 235.328 307 234.5 307C233.672 307 233 306.328 233 305.5C233 304.672 233.672 304 234.5 304C235.328 304 236 304.672 236 305.5Z" fill="black"/>
<path d="M256 305.5C256 306.328 255.328 307 254.5 307C253.672 307 253 306.328 253 305.5C253 304.672 253.672 304 254.5 304C255.328 304 256 304.672 256 305.5Z" fill="black"/>
<path d="M276 305.5C276 306.328 275.328 307 274.5 307C273.672 307 273 306.328 273 305.5C273 304.672 273.672 304 274.5 304C275.328 304 276 304.672 276 305.5Z" fill="black"/>
<path d="M296 305.5C296 306.328 295.328 307 294.5 307C293.672 307 293 306.328 293 305.5C293 304.672 293.672 304 294.5 304C295.328 304 296 304.672 296 305.5Z" fill="black"/>
<path d="M316 305.5C316 306.328 315.328 307 314.5 307C313.672 307 313 306.328 313 305.5C313 304.672 313.672 304 314.5 304C315.328 304 316 304.672 316 305.5Z" fill="black"/>
<path d="M336 305.5C336 306.328 335.328 307 334.5 307C333.672 307 333 306.328 333 305.5C333 304.672 333.672 304 334.5 304C335.328 304 336 304.672 336 305.5Z" fill="black"/>
<path d="M356 305.5C356 306.328 355.328 307 354.5 307C353.672 307 353 306.328 353 305.5C353 304.672 353.672 304 354.5 304C355.328 304 356 304.672 356 305.5Z" fill="black"/>
<path d="M376 305.5C376 306.328 375.328 307 374.5 307C373.672 307 373 306.328 373 305.5C373 304.672 373.672 304 374.5 304C375.328 304 376 304.672 376 305.5Z" fill="black"/>
<path d="M396 305.5C396 306.328 395.328 307 394.5 307C393.672 307 393 306.328 393 305.5C393 304.672 393.672 304 394.5 304C395.328 304 396 304.672 396 305.5Z" fill="black"/>
<path d="M416 305.5C416 306.328 415.328 307 414.5 307C413.672 307 413 306.328 413 305.5C413 304.672 413.672 304 414.5 304C415.328 304 416 304.672 416 305.5Z" fill="black"/>
<path d="M436 5.5C436 6.32843 435.328 7 434.5 7C433.672 7 433 6.32843 433 5.5C433 4.67157 433.672 4 434.5 4C435.328 4 436 4.67157 436 5.5Z" fill="black"/>
<path d="M456 5.5C456 6.32843 455.328 7 454.5 7C453.672 7 453 6.32843 453 5.5C453 4.67157 453.672 4 454.5 4C455.328 4 456 4.67157 456 5.5Z" fill="black"/>
<path d="M476 5.5C476 6.32843 475.328 7 474.5 7C473.672 7 473 6.32843 473 5.5C473 4.67157 473.672 4 474.5 4C475.328 4 476 4.67157 476 5.5Z" fill="black"/>
<path d="M436 25.5C436 26.3284 435.328 27 434.5 27C433.672 27 433 26.3284 433 25.5C433 24.6716 433.672 24 434.5 24C435.328 24 436 24.6716 436 25.5Z" fill="black"/>
<path d="M456 25.5C456 26.3284 455.328 27 454.5 27C453.672 27 453 26.3284 453 25.5C453 24.6716 453.672 24 454.5 24C455.328 24 456 24.6716 456 25.5Z" fill="black"/>
<path d="M476 25.5C476 26.3284 475.328 27 474.5 27C473.672 27 473 26.3284 473 25.5C473 24.6716 473.672 24 474.5 24C475.328 24 476 24.6716 476 25.5Z" fill="black"/>
<path d="M436 45.5C436 46.3284 435.328 47 434.5 47C433.672 47 433 46.3284 433 45.5C433 44.6716 433.672 44 434.5 44C435.328 44 436 44.6716 436 45.5Z" fill="black"/>
<path d="M456 45.5C456 46.3284 455.328 47 454.5 47C453.672 47 453 46.3284 453 45.5C453 44.6716 453.672 44 454.5 44C455.328 44 456 44.6716 456 45.5Z" fill="black"/>
<path d="M476 45.5C476 46.3284 475.328 47 474.5 47C473.672 47 473 46.3284 473 45.5C473 44.6716 473.672 44 474.5 44C475.328 44 476 44.6716 476 45.5Z" fill="black"/>
<path d="M436 65.5C436 66.3284 435.328 67 434.5 67C433.672 67 433 66.3284 433 65.5C433 64.6716 433.672 64 434.5 64C435.328 64 436 64.6716 436 65.5Z" fill="black"/>
<path d="M456 65.5C456 66.3284 455.328 67 454.5 67C453.672 67 453 66.3284 453 65.5C453 64.6716 453.672 64 454.5 64C455.328 64 456 64.6716 456 65.5Z" fill="black"/>
<path d="M476 65.5C476 66.3284 475.328 67 474.5 67C473.672 67 473 66.3284 473 65.5C473 64.6716 473.672 64 474.5 64C475.328 64 476 64.6716 476 65.5Z" fill="black"/>
<path d="M436 85.5C436 86.3284 435.328 87 434.5 87C433.672 87 433 86.3284 433 85.5C433 84.6716 433.672 84 434.5 84C435.328 84 436 84.6716 436 85.5Z" fill="black"/>
<path d="M456 85.5C456 86.3284 455.328 87 454.5 87C453.672 87 453 86.3284 453 85.5C453 84.6716 453.672 84 454.5 84C455.328 84 456 84.6716 456 85.5Z" fill="black"/>
<path d="M476 85.5C476 86.3284 475.328 87 474.5 87C473.672 87 473 86.3284 473 85.5C473 84.6716 473.672 84 474.5 84C475.328 84 476 84.6716 476 85.5Z" fill="black"/>
<path d="M436 105.5C436 106.328 435.328 107 434.5 107C433.672 107 433 106.328 433 105.5C433 104.672 433.672 104 434.5 104C435.328 104 436 104.672 436 105.5Z" fill="black"/>
<path d="M456 105.5C456 106.328 455.328 107 454.5 107C453.672 107 453 106.328 453 105.5C453 104.672 453.672 104 454.5 104C455.328 104 456 104.672 456 105.5Z" fill="black"/>
<path d="M476 105.5C476 106.328 475.328 107 474.5 107C473.672 107 473 106.328 473 105.5C473 104.672 473.672 104 474.5 104C475.328 104 476 104.672 476 105.5Z" fill="black"/>
<path d="M436 125.5C436 126.328 435.328 127 434.5 127C433.672 127 433 126.328 433 125.5C433 124.672 433.672 124 434.5 124C435.328 124 436 124.672 436 125.5Z" fill="black"/>
<path d="M456 125.5C456 126.328 455.328 127 454.5 127C453.672 127 453 126.328 453 125.5C453 124.672 453.672 124 454.5 124C455.328 124 456 124.672 456 125.5Z" fill="black"/>
<path d="M476 125.5C476 126.328 475.328 127 474.5 127C473.672 127 473 126.328 473 125.5C473 124.672 473.672 124 474.5 124C475.328 124 476 124.672 476 125.5Z" fill="black"/>
<path d="M436 145.5C436 146.328 435.328 147 434.5 147C433.672 147 433 146.328 433 145.5C433 144.672 433.672 144 434.5 144C435.328 144 436 144.672 436 145.5Z" fill="black"/>
<path d="M456 145.5C456 146.328 455.328 147 454.5 147C453.672 147 453 146.328 453 145.5C453 144.672 453.672 144 454.5 144C455.328 144 456 144.672 456 145.5Z" fill="black"/>
<path d="M476 145.5C476 146.328 475.328 147 474.5 147C473.672 147 473 146.328 473 145.5C473 144.672 473.672 144 474.5 144C475.328 144 476 144.672 476 145.5Z" fill="black"/>
<path d="M436 165.5C436 166.328 435.328 167 434.5 167C433.672 167 433 166.328 433 165.5C433 164.672 433.672 164 434.5 164C435.328 164 436 164.672 436 165.5Z" fill="black"/>
<path d="M456 165.5C456 166.328 455.328 167 454.5 167C453.672 167 453 166.328 453 165.5C453 164.672 453.672 164 454.5 164C455.328 164 456 164.672 456 165.5Z" fill="black"/>
<path d="M476 165.5C476 166.328 475.328 167 474.5 167C473.672 167 473 166.328 473 165.5C473 164.672 473.672 164 474.5 164C475.328 164 476 164.672 476 165.5Z" fill="black"/>
<path d="M436 185.5C436 186.328 435.328 187 434.5 187C433.672 187 433 186.328 433 185.5C433 184.672 433.672 184 434.5 184C435.328 184 436 184.672 436 185.5Z" fill="black"/>
<path d="M456 185.5C456 186.328 455.328 187 454.5 187C453.672 187 453 186.328 453 185.5C453 184.672 453.672 184 454.5 184C455.328 184 456 184.672 456 185.5Z" fill="black"/>
<path d="M476 185.5C476 186.328 475.328 187 474.5 187C473.672 187 473 186.328 473 185.5C473 184.672 473.672 184 474.5 184C475.328 184 476 184.672 476 185.5Z" fill="black"/>
<path d="M436 205.5C436 206.328 435.328 207 434.5 207C433.672 207 433 206.328 433 205.5C433 204.672 433.672 204 434.5 204C435.328 204 436 204.672 436 205.5Z" fill="black"/>
<path d="M456 205.5C456 206.328 455.328 207 454.5 207C453.672 207 453 206.328 453 205.5C453 204.672 453.672 204 454.5 204C455.328 204 456 204.672 456 205.5Z" fill="black"/>
<path d="M476 205.5C476 206.328 475.328 207 474.5 207C473.672 207 473 206.328 473 205.5C473 204.672 473.672 204 474.5 204C475.328 204 476 204.672 476 205.5Z" fill="black"/>
<path d="M436 225.5C436 226.328 435.328 227 434.5 227C433.672 227 433 226.328 433 225.5C433 224.672 433.672 224 434.5 224C435.328 224 436 224.672 436 225.5Z" fill="black"/>
<path d="M456 225.5C456 226.328 455.328 227 454.5 227C453.672 227 453 226.328 453 225.5C453 224.672 453.672 224 454.5 224C455.328 224 456 224.672 456 225.5Z" fill="black"/>
<path d="M476 225.5C476 226.328 475.328 227 474.5 227C473.672 227 473 226.328 473 225.5C473 224.672 473.672 224 474.5 224C475.328 224 476 224.672 476 225.5Z" fill="black"/>
<path d="M436 245.5C436 246.328 435.328 247 434.5 247C433.672 247 433 246.328 433 245.5C433 244.672 433.672 244 434.5 244C435.328 244 436 244.672 436 245.5Z" fill="black"/>
<path d="M456 245.5C456 246.328 455.328 247 454.5 247C453.672 247 453 246.328 453 245.5C453 244.672 453.672 244 454.5 244C455.328 244 456 244.672 456 245.5Z" fill="black"/>
<path d="M476 245.5C476 246.328 475.328 247 474.5 247C473.672 247 473 246.328 473 245.5C473 244.672 473.672 244 474.5 244C475.328 244 476 244.672 476 245.5Z" fill="black"/>
<path d="M436 265.5C436 266.328 435.328 267 434.5 267C433.672 267 433 266.328 433 265.5C433 264.672 433.672 264 434.5 264C435.328 264 436 264.672 436 265.5Z" fill="black"/>
<path d="M456 265.5C456 266.328 455.328 267 454.5 267C453.672 267 453 266.328 453 265.5C453 264.672 453.672 264 454.5 264C455.328 264 456 264.672 456 265.5Z" fill="black"/>
<path d="M476 265.5C476 266.328 475.328 267 474.5 267C473.672 267 473 266.328 473 265.5C473 264.672 473.672 264 474.5 264C475.328 264 476 264.672 476 265.5Z" fill="black"/>
<path d="M436 285.5C436 286.328 435.328 287 434.5 287C433.672 287 433 286.328 433 285.5C433 284.672 433.672 284 434.5 284C435.328 284 436 284.672 436 285.5Z" fill="black"/>
<path d="M456 285.5C456 286.328 455.328 287 454.5 287C453.672 287 453 286.328 453 285.5C453 284.672 453.672 284 454.5 284C455.328 284 456 284.672 456 285.5Z" fill="black"/>
<path d="M476 285.5C476 286.328 475.328 287 474.5 287C473.672 287 473 286.328 473 285.5C473 284.672 473.672 284 474.5 284C475.328 284 476 284.672 476 285.5Z" fill="black"/>
<path d="M436 305.5C436 306.328 435.328 307 434.5 307C433.672 307 433 306.328 433 305.5C433 304.672 433.672 304 434.5 304C435.328 304 436 304.672 436 305.5Z" fill="black"/>
<path d="M456 305.5C456 306.328 455.328 307 454.5 307C453.672 307 453 306.328 453 305.5C453 304.672 453.672 304 454.5 304C455.328 304 456 304.672 456 305.5Z" fill="black"/>
<path d="M476 305.5C476 306.328 475.328 307 474.5 307C473.672 307 473 306.328 473 305.5C473 304.672 473.672 304 474.5 304C475.328 304 476 304.672 476 305.5Z" fill="black"/>
</g>
</g>
<defs>
<linearGradient id="paint0_linear" x1="496.5" y1="3.01749e-05" x2="-56.0897" y2="35.9866" gradientUnits="userSpaceOnUse">
<stop stop-color="#49CCF9"/>
<stop offset="1" stop-color="#8930FD"/>
</linearGradient>
<linearGradient id="paint1_linear" x1="496.5" y1="3.01749e-05" x2="-56.0897" y2="35.9866" gradientUnits="userSpaceOnUse">
<stop stop-color="#49CCF9"/>
<stop offset="1" stop-color="#8930FD"/>
</linearGradient>
</defs>
</svg>
