<svg width="21" height="21" viewBox="0 0 21 21" fill="none" xmlns="http://www.w3.org/2000/svg">
<g clip-path="url(#clip0)">
<path d="M17.3744 11.7588C17.7341 11.1497 17.9375 10.5 17.9375 9.71455C17.9375 7.90925 16.411 6.20443 14.4175 6.20443H12.9213C13.1231 5.67902 13.2843 5.05066 13.2843 4.29557C13.2843 1.30988 11.7384 0 9.37672 0C6.84987 0 6.994 3.89374 6.43344 4.4543C5.50046 5.38728 4.39845 7.17966 3.6132 7.875H-0.4375C-1.16237 7.875 -1.75 8.46263 -1.75 9.1875V19.0312C-1.75 19.7561 -1.16237 20.3438 -0.4375 20.3438H2.1875C2.79835 20.3438 3.31166 19.9265 3.45808 19.3614C5.28365 19.4025 6.53672 20.9996 10.7507 20.9996C11.0469 20.9996 11.375 21 11.6621 21C14.8251 21 16.2553 19.383 16.2944 17.09C16.8407 16.3343 17.127 15.3213 17.0056 14.3423C17.4098 13.5855 17.5661 12.6877 17.3744 11.7588ZM14.8416 13.9666C15.3568 14.8333 14.8933 15.9932 14.2699 16.3279C14.5857 18.3287 13.5477 19.0308 12.0911 19.0308H10.5399C7.60161 19.0308 5.69889 17.4796 3.5 17.4796V9.84375H3.94789C5.11109 9.84375 6.73613 6.93615 7.82551 5.84637C8.98871 4.68316 8.60111 2.74436 9.37672 1.96875C11.3155 1.96875 11.3155 3.32145 11.3155 4.29557C11.3155 5.90215 10.1523 6.62197 10.1523 8.17318H14.4175C15.2834 8.17318 15.9651 8.94879 15.9688 9.72439C15.9724 10.4996 15.4429 11.2752 15.0553 11.2752C15.6086 11.8722 15.7268 13.1306 14.8416 13.9666ZM1.85938 17.7188C1.85938 18.2624 1.41866 18.7031 0.875 18.7031C0.331338 18.7031 -0.109375 18.2624 -0.109375 17.7188C-0.109375 17.1751 0.331338 16.7344 0.875 16.7344C1.41866 16.7344 1.85938 17.1751 1.85938 17.7188Z" fill="white"/>
</g>
<defs>
<clipPath id="clip0">
<rect width="21" height="21" fill="white"/>
</clipPath>
</defs>
</svg>
