<svg width="21" height="23" viewBox="0 0 21 23" fill="none" xmlns="http://www.w3.org/2000/svg">
<path d="M19.4375 10.9495C18.9474 10.113 18.2481 9.41831 17.4083 8.93378C16.7672 8.56118 16.1043 8.32454 15.3557 8.22216V5.54181C15.7187 5.39138 16.0283 5.13551 16.2443 4.80728C16.4603 4.47904 16.5729 4.09355 16.5675 3.70064C16.5688 3.43531 16.5177 3.17233 16.4171 2.92681C16.3165 2.68129 16.1683 2.45808 15.9812 2.26999C15.794 2.0819 15.5715 1.93264 15.3265 1.8308C15.0815 1.72896 14.8188 1.67653 14.5535 1.67653C14.016 1.67653 13.5005 1.88957 13.1198 2.26897C12.7392 2.64837 12.5244 3.1632 12.5226 3.70064C12.5226 4.52304 12.959 5.2246 13.7092 5.54181V8.20705C13.0878 8.29698 12.4848 8.48625 11.9235 8.76762L4.74845 3.33476C4.7988 3.1451 4.84244 2.94873 4.84244 2.74229C4.84244 1.50366 3.83878 0.5 2.60014 0.5C1.36151 0.5 0.359528 1.50366 0.359528 2.74229C0.359528 3.98093 1.36319 4.98459 2.60182 4.98459C3.02477 4.98459 3.41583 4.86039 3.75318 4.65731L4.22312 5.01312L10.6596 9.6538C10.3189 9.96597 10.0017 10.3218 9.7483 10.7212C9.23472 11.5352 8.92086 12.4298 8.92086 13.4066V13.608C8.92313 14.2705 9.04245 14.9273 9.27332 15.5482C9.46801 16.0786 9.75333 16.5619 10.1075 16.9983L7.96923 19.1416C7.33649 18.9066 6.62654 19.0627 6.14821 19.541C5.8226 19.865 5.63966 20.3064 5.64134 20.7663C5.64302 21.2261 5.8226 21.6642 6.14988 21.9915C6.47716 22.3187 6.91522 22.5 7.37509 22.5C7.83496 22.5 8.27637 22.3187 8.6003 21.9915C8.92422 21.6642 9.10884 21.2261 9.10716 20.7663C9.10703 20.5897 9.07986 20.4143 9.0266 20.246L11.2353 18.0372C11.5374 18.247 11.8647 18.4233 12.2172 18.5743C12.9416 18.892 13.7238 19.0566 14.5148 19.0577H14.6659C15.5924 19.0577 16.4668 18.8395 17.2875 18.3947C18.1311 17.9424 18.8399 17.2747 19.3418 16.4596C19.8571 15.6372 20.139 14.7258 20.139 13.7238V13.6735C20.139 12.6883 19.9108 11.7803 19.4341 10.9478L19.4375 10.9495ZM16.7404 15.5851C16.1412 16.2514 15.4514 16.6626 14.6726 16.6626H14.5249C14.0802 16.6626 13.6438 16.5401 13.2192 16.3152C12.7536 16.0731 12.3591 15.7139 12.0745 15.273C11.7657 14.8366 11.5979 14.3599 11.5979 13.8547V13.7037C11.5979 13.2069 11.6935 12.7353 11.9335 12.2905C12.1903 11.787 12.5377 11.4262 12.9993 11.1257C13.4608 10.8253 13.9358 10.681 14.4762 10.681H14.5266C15.0133 10.681 15.4782 10.7766 15.9146 10.9998C16.3567 11.2323 16.7322 11.5737 17.0055 11.9918C17.2762 12.411 17.4436 12.8884 17.4939 13.3848L17.5057 13.6987C17.5057 14.3818 17.2439 15.0145 16.7219 15.5885L16.7404 15.5851Z" fill="#F8761F"/>
</svg>
