<svg xmlns="http://www.w3.org/2000/svg" width="59" height="38"><path fill="#7462E1" fill-rule="evenodd" d="M1.808 36.18h54.419a.806.806 0 0 0 .552-.23h-.007a.775.775 0 0 0 .23-.552v-1.105a.775.775 0 0 0-.23-.552.776.776 0 0 0-.545-.23H1.808a.803.803 0 0 0-.545.23l-.022.022a.767.767 0 0 0-.208.53v1.105a.789.789 0 0 0 .775.782zM5.868 0h46.305c.495 0 .947.2 1.277.53.323.324.53.783.53 1.278v30.67h2.247a1.81 1.81 0 0 1 1.807 1.815v1.105c0 .502-.2.954-.53 1.284a1.83 1.83 0 0 1-1.277.53H1.808a1.83 1.83 0 0 1-1.277-.53v-.007A1.805 1.805 0 0 1 0 35.398v-1.105a1.8 1.8 0 0 1 .502-1.248c.007-.014.022-.021.029-.036.33-.322.782-.53 1.277-.53h2.253V1.808c0-.495.2-.947.53-1.277A1.78 1.78 0 0 1 5.87 0zm46.305 1.033H5.869a.77.77 0 0 0-.775.775v30.67h47.854V1.809a.746.746 0 0 0-.23-.546.759.759 0 0 0-.545-.23zM20.31 35.276a.514.514 0 0 1-.517-.516c0-.287.23-.517.517-.517h17.068a.52.52 0 0 1 .524.517.52.52 0 0 1-.524.516H20.311zM7.196 2.49a.516.516 0 0 0-.524.516v27.508c0 .28.23.517.524.517h43.65a.519.519 0 0 0 .516-.517V3.005a.514.514 0 0 0-.516-.516H7.196zm.517 27.5h42.623V3.516H7.713V29.99z"/></svg>