<svg xmlns="http://www.w3.org/2000/svg" width="32" height="42"><path fill="#7462E1" fill-rule="evenodd" d="M3.036 0h17.627c.155 0 .295.07.387.176l10.676 10.687a.494.494 0 0 1 .182.38l-.007.049-.007 27.622a3.045 3.045 0 0 1-3.043 3.043H3.036v-.008a3.058 3.058 0 0 1-2.15-.892A3.021 3.021 0 0 1 0 38.914V3.036C0 2.199.337 1.44.886.892A3.028 3.028 0 0 1 3.036 0zM5.82 26.779h15.09a.513.513 0 0 0 .506-.506.508.508 0 0 0-.506-.506H5.82a.508.508 0 0 0-.506.506c0 .274.232.506.506.506zm0-5.594h19.16a.508.508 0 0 0 .506-.506.508.508 0 0 0-.507-.505H5.82a.508.508 0 0 0-.506.505c0 .282.232.506.506.506zm0-5.263h17.712a.508.508 0 0 0 .506-.506.504.504 0 0 0-.506-.505H5.819a.508.508 0 0 0-.506.505c0 .275.232.506.506.506zm18.337 12.641c-.836 0-1.595.338-2.143.886l-.029.02a3.056 3.056 0 0 0-.864 2.123c0 .836.344 1.595.893 2.143a3 3 0 0 0 2.143.892c.844 0 1.603-.337 2.144-.885v-.007a2.998 2.998 0 0 0 .892-2.143c0-.836-.337-1.595-.885-2.143H26.3a2.998 2.998 0 0 0-2.144-.886zm-2.86.169l-.028.028a4.036 4.036 0 0 0-1.153 2.832c0 1.117.45 2.129 1.18 2.86a4.009 4.009 0 0 0 2.861 1.187c1.118 0 2.13-.457 2.86-1.187h.008a4.03 4.03 0 0 0 1.18-2.86 4.03 4.03 0 0 0-1.18-2.853l-.007-.007a4.038 4.038 0 0 0-5.721 0zm9.6-16.983H23.2a3.028 3.028 0 0 1-2.15-.893 3.052 3.052 0 0 1-.893-2.143V1.005H3.037a2.05 2.05 0 0 0-1.435.597 2.03 2.03 0 0 0-.59 1.434v35.878c0 .555.225 1.06.59 1.433a2.05 2.05 0 0 0 1.434.597v-.007h25.815c.562 0 1.068-.225 1.434-.597a1.99 1.99 0 0 0 .597-1.426l.014-27.165zM21.17 1.722v6.991a2.032 2.032 0 0 0 2.031 2.023h6.98l-9.01-9.014z"/></svg>