<svg width="224" height="63" xmlns="http://www.w3.org/2000/svg"><g fill="#FFF" fill-rule="evenodd"><path d="M198.662 27.733c0 .193-.025.361-.067.508v6.573c0 4.041-1.059 6.706-3.222 7.994-2.163 1.2-4.556 1.822-7.18 1.822-2.531 0-4.786-.667-6.903-2-2.117-1.287-3.176-3.864-3.176-7.816V20.689h3.54c1.458.076 2.564.926 2.581 2.08v13.244c0 2.62 1.381 3.908 4.143 3.908 2.76 0 4.142-1.288 4.142-3.908v-10.91l.033-.386c.153-1.574.888-3.353 2.699-4.387 2.27-1.294 9.376-.822 9.376-.822-3.603 1.544-5.966 5.085-5.966 8.225zm13.832-2.292c-3.498 0-5.155 2.354-5.109 7.107.184 4.53 1.887 6.796 5.201 6.796 3.314 0 5.017-2.265 5.155-6.796 0-4.753-1.75-7.107-5.247-7.107zm1.795 19.189c-3.038 0-5.339-1.2-6.904-3.642v9.46c0 1.954-1.013 2.932-3.038 2.932h-3.083V30.904c.322-7.017 4.096-10.482 11.414-10.482 7.548 0 11.322 3.953 11.322 11.86 0 7.995-3.222 12.126-9.711 12.348zM90.136 38.75c1.404 0 2.626-.581 3.622-1.7.588-.583 1.267-.852 2.037-.852h4.527c-1.086 4.837-4.618 7.927-10.186 7.793-7.243 0-10.955-4.12-11.136-12.271 0-8.106 3.667-12.182 11.046-12.316 5.794 0 9.235 2.553 10.276 7.703h-6.564c-.724-1.612-1.992-2.463-3.893-2.463-3.17 0-4.754 2.374-4.754 7.076s1.675 7.076 5.025 7.03zM104.622 13h3.124c1.584 0 2.897 1.344 2.897 2.91v27.544h-6.021V13zm11.452 0h3.124c1.992 0 2.942.985 2.897 2.91v1.748h-6.021V13zm0 26.98V19.762h3.124c1.946 0 2.897.94 2.897 2.867v14.43c0 5.315 4.123 7.222 4.123 7.222l-6.724-.554c-1.88-.191-3.388-1.849-3.42-3.747zm21.503-1.23c1.403 0 2.625-.581 3.621-1.7.589-.583 1.268-.852 2.038-.852h4.526c-1.086 4.837-4.617 7.927-10.185 7.793-7.243 0-10.955-4.12-11.137-12.271 0-8.106 3.667-12.182 11.046-12.316 5.795 0 9.236 2.553 10.276 7.703h-6.564c-.724-1.612-1.991-2.463-3.893-2.463-3.169 0-4.753 2.374-4.753 7.076s1.675 7.076 5.025 7.03zm33.577 1.653c1.23 2.2 3.956 4.392 7.878 6.366 0 0-9.797 1.501-13.414-4.008-.454-.693-.805-1.053-1.117-1.66l-.254-.406-2.904-5.034c-.77-1.343-1.54-2.015-2.31-2.015-.633.134-.95.537-.95 1.164v8.644h-6.02V13h3.123c1.584 0 2.897 1.344 2.897 2.91v13.123l7.424-8.42h7.244l-8.285 8.778 6.688 11.012zM29.086 62.576c12.207 0 22.71-6.898 27.452-16.814.416-1.086.598-2.02.674-2.674-.1-5.342-3.13-8.013-4.336-8.865l-.489-.253C52.354 46.156 41.914 56.06 29.086 56.06h-.066c-12.828 0-23.268-9.905-23.301-22.091l-.49.253c-1.205.852-4.234 3.523-4.335 8.865.077.655.258 1.588.674 2.674 4.743 9.916 15.245 16.814 27.452 16.814h.066m.438-53.422l29.464 19.452c.092-1.344-.126-7.011-8.88-14.294L32.712 1.028A5.851 5.851 0 0 0 29.56 0h-.12a5.85 5.85 0 0 0-3.15 1.028L8.89 14.312C.138 21.595-.08 27.262.012 28.606L29.476 9.154h.048"/></g></svg>