<svg width="83" height="60" viewBox="0 0 83 60" fill="none" xmlns="http://www.w3.org/2000/svg">
<path d="M45.6237 48L53.871 60C73.1734 47.1045 83 33.6716 83 19.5224C83 8.23881 75.63 7.26667e-06 65.277 6.36158e-06C56.1522 5.56387e-06 48.0803 7.16419 48.0803 17.0149C48.0803 25.0746 54.5729 32.0597 62.4693 32.2388C58.7844 37.791 52.4672 42.6269 45.6237 48ZM16.8457 32.2388C13.1607 37.791 6.84354 42.6269 -9.76951e-06 48L8.24736 60C27.5497 47.1045 37.3763 33.6716 37.3763 19.5224C37.3763 8.23881 30.0063 3.27812e-06 19.6533 2.37303e-06C10.5285 1.57532e-06 2.45665 7.16419 2.45665 17.0149C2.45665 25.0746 8.94925 32.0597 16.8457 32.2388Z" fill="white"/>
<path d="M45.6237 48L53.871 60C73.1734 47.1045 83 33.6716 83 19.5224C83 8.23881 75.63 7.26667e-06 65.277 6.36158e-06C56.1522 5.56387e-06 48.0803 7.16419 48.0803 17.0149C48.0803 25.0746 54.5729 32.0597 62.4693 32.2388C58.7844 37.791 52.4672 42.6269 45.6237 48ZM16.8457 32.2388C13.1607 37.791 6.84354 42.6269 -9.76951e-06 48L8.24736 60C27.5497 47.1045 37.3763 33.6716 37.3763 19.5224C37.3763 8.23881 30.0063 3.27812e-06 19.6533 2.37303e-06C10.5285 1.57532e-06 2.45665 7.16419 2.45665 17.0149C2.45665 25.0746 8.94925 32.0597 16.8457 32.2388Z" fill="white"/>
</svg>
