<svg fill="#A59AE5" xmlns="http://www.w3.org/2000/svg" viewBox="0 0 100 100"><path d="M84.4 14.2H15.6c-6.1 0-11 4.9-11 11v49.6c0 6.1 4.9 11 11 11h68.8c6.1 0 11-4.9 11-11V25.2c0-6-4.9-11-11-11zm7 60.6c0 3.9-3.1 7-7 7H15.6c-3.9 0-7-3.1-7-7V33.6h82.8v41.2zm0-45.2H8.6v-4.4c0-3.9 3.1-7 7-7h68.8c3.9 0 7 3.1 7 7v4.4z"/><circle cx="14.7" cy="24" r="3.4"/><circle cx="25" cy="24" r="3.4"/><circle cx="35.4" cy="24" r="3.4"/><path d="M63.2 71.6c.4.4.9.6 1.4.6.5 0 1-.2 1.4-.6l12.8-12.8c.8-.8.8-2 0-2.8L66 43.1c-.8-.8-2-.8-2.8 0-.8.8-.8 2 0 2.8l11.4 11.4-11.4 11.4c-.8.8-.8 2.1 0 2.9zM34 71.6c.4.4.9.6 1.4.6s1-.2 1.4-.6c.8-.8.8-2 0-2.8L25.4 57.3 36.8 46c.8-.8.8-2 0-2.8-.8-.8-2-.8-2.8 0L21.2 55.9c-.8.8-.8 2 0 2.8L34 71.6zM42.2 71.9c.3.2.6.2.9.2.7 0 1.4-.4 1.8-1.1l13.8-25.6c.5-1 .2-2.2-.8-2.7s-2.2-.2-2.7.8L41.4 69.2c-.6 1-.2 2.2.8 2.7z"/></svg>