<svg width="205" height="205" xmlns="http://www.w3.org/2000/svg" xmlns:xlink="http://www.w3.org/1999/xlink"><defs><circle id="a" cx="102.5" cy="102.5" r="102.5"/></defs><g fill="none" fill-rule="evenodd"><mask id="b" fill="#fff"><use xlink:href="#a"/></mask><use fill="#FFF" xlink:href="#a"/><g mask="url(#b)"><g transform="translate(48 16)" fill-rule="nonzero"><path d="M62.559 108.705C73.553 97.68 91.64 89.5 102.28 92.7c3.192 10.67-4.61 28.807-15.96 39.831-10.994 11.025-21.988 12.092-32.982 8.891-2.838-10.313-1.774-21.338 9.22-32.718z" fill="#239B02"/><path d="M53.567 141c-3.181-10.852-2.12-21.704 8.838-32.557C73.365 97.591 91.395 89.54 102 92.69" fill="#34B515"/><path d="M44.441 108.705C33.447 97.68 15.36 89.5 4.72 92.7c-3.192 10.67 4.61 28.807 15.96 39.831 10.994 11.025 21.988 12.092 32.982 8.891 2.838-10.313 1.774-21.338-9.22-32.718z" fill="#239B02"/><path d="M53.433 141c3.181-10.852 2.12-21.704-8.838-32.557C33.635 97.591 15.605 89.54 5 92.69" fill="#34B515"/><path fill="#683100" d="M49 88h7v64h-7z"/><path d="M4.357 147.355c-.357 0-.357 4.613-.357 7.097C4 187.097 26.5 213 54 213s50-25.903 50-58.548c0-2.84-.357-7.452-.357-7.452H4.357v.355z" fill="#894400"/><path d="M53.765 214C81.395 214 104 187.742 104 155.452c0-2.84-.359-7.452-.718-7.452H43" fill="#683100"/><path fill="#C67812" d="M0 138h106v14H0z"/><ellipse fill="#04AF76" cx="53.5" cy="46" rx="46.5" ry="46"/><path d="M21 13.645c18.194-18.193 47.804-18.193 66.355 0 18.193 18.194 18.193 47.804 0 66.355" fill="#008C61"/><path d="M48.688 84v-9.867c-6.972-.352-12.202-1.762-15.688-3.876l2.44-10.219c3.835 2.114 8.716 3.876 14.294 3.876 4.88 0 8.367-2.114 8.367-5.638s-2.79-5.638-9.413-7.752c-9.413-3.172-15.34-7.753-15.34-16.21 0-7.752 4.881-14.095 15.34-15.857V10h6.973v7.752c6.972.353 10.458 1.41 13.247 2.82l-2.44 9.866c-2.44-1.057-6.275-3.171-12.55-3.171-5.579 0-7.67 2.466-7.67 4.933 0 2.819 3.137 4.933 10.458 7.752C67.166 43.83 71 48.41 71 56.514c0 7.753-5.23 14.8-15.688 16.562v10.572h-6.624V84z" fill="#FFF6E1"/><path d="M53.133 10.266v18.107h1.778c6.4 0 10.667 2.13 12.8 3.195l2.133-9.94C67 19.851 63.8 18.431 56.69 18.076v-7.81h-3.556zM58.111 40.8c-1.778-.71-3.911-1.42-4.978-2.13v13.49c3.556 1.776 6.4 3.906 6.4 6.391 0 2.84-2.489 4.97-6.4 5.326v20.946h3.556v-10.65c10.667-1.776 16-8.521 16-16.687 0-7.81-3.911-12.78-14.578-16.686z" fill="#FFEEBD"/></g></g></g></svg>