<svg width="679" height="227" fill="none" xmlns="http://www.w3.org/2000/svg"><path d="M10.993 189.028h90.372v-32.01H44.943V69.556h-33.95v119.472zm190.98-47.368c0-28.454-20.532-44.782-46.722-44.782-29.262 0-48.662 20.37-48.662 47.207 0 24.896 16.652 46.883 50.117 46.883 17.137 0 30.717-5.82 39.932-12.287l-12.287-21.016c-6.628 4.365-16.975 7.76-26.028 7.76-10.024 0-16.49-4.365-19.562-11.317h62.242c.646-4.527.97-8.892.97-12.448zm-46.722-19.885c8.407 0 14.065 4.365 16.49 11.155h-33.465c2.91-7.437 9.215-11.155 16.975-11.155zm112.357-22.634l-16.005 47.53-16.813-47.53h-34.92l38.153 89.725h25.867l38.477-89.725h-34.759zm128.07 42.519c0-28.454-20.532-44.782-46.722-44.782-29.261 0-48.661 20.37-48.661 47.207 0 24.896 16.651 46.883 50.116 46.883 17.137 0 30.717-5.82 39.932-12.287l-12.287-21.016c-6.628 4.365-16.975 7.76-26.028 7.76-10.023 0-16.49-4.365-19.562-11.317h62.242c.647-4.527.97-8.892.97-12.448zm-46.722-19.885c8.407 0 14.065 4.365 16.49 11.155h-33.465c2.91-7.437 9.215-11.155 16.975-11.155zm89.596 67.253V65.515h-31.687v123.513h31.687z" fill="#292D34"/><path d="M505.889 191.13c24.735 0 50.763-12.61 50.763-49.955V69.556h-33.95v71.619c0 12.771-8.245 17.621-16.813 17.621-8.73 0-16.814-4.85-16.814-17.621V69.556h-33.95v71.619c0 37.345 26.19 49.955 50.764 49.955zm121.565-94.252c-10.347 0-18.43 3.718-24.412 8.892v-6.629h-31.363V226.05h31.848v-43.165c5.982 5.011 13.903 8.406 24.088 8.406 25.544 0 43.489-21.34 43.489-47.368 0-26.028-17.784-47.045-43.65-47.045zm-6.467 65.313c-10.185 0-17.783-7.921-17.783-17.945 0-10.023 7.598-17.945 17.783-17.945 10.347 0 17.783 7.922 17.783 17.945 0 10.024-7.436 17.945-17.783 17.945z" fill="#FD71AF"/><path d="M532.338 10.105l-28.181 46.7c-3.51 5.817.679 13.238 7.474 13.238h56.362c6.794 0 10.984-7.42 7.473-13.238l-28.181-46.7c-3.394-5.625-11.552-5.625-14.947 0z" fill="#FD71AF"/></svg>