<svg width="819" height="683" fill="none" xmlns="http://www.w3.org/2000/svg"><g opacity=".1" fill="#000"><path d="M0 201.5a1.5 1.5 0 11-3 0 1.5 1.5 0 013 0zM20 201.5a1.5 1.5 0 11-3 0 1.5 1.5 0 013 0zM0 221.5a1.5 1.5 0 11-3 0 1.5 1.5 0 013 0zM20 221.5a1.5 1.5 0 11-3 0 1.5 1.5 0 013 0zM0 241.5a1.5 1.5 0 11-3 0 1.5 1.5 0 013 0zM20 241.5a1.5 1.5 0 11-3 0 1.5 1.5 0 013 0zM0 261.5a1.5 1.5 0 11-3 0 1.5 1.5 0 013 0zM20 261.5a1.5 1.5 0 11-3 0 1.5 1.5 0 013 0zM0 281.5a1.5 1.5 0 11-3 0 1.5 1.5 0 013 0zM20 281.5a1.5 1.5 0 11-3 0 1.5 1.5 0 013 0zM0 301.5a1.5 1.5 0 11-3 0 1.5 1.5 0 013 0zM20 301.5a1.5 1.5 0 11-3 0 1.5 1.5 0 013 0zM0 321.5a1.5 1.5 0 11-3 0 1.5 1.5 0 013 0zM20 321.5a1.5 1.5 0 11-3 0 1.5 1.5 0 013 0zM0 341.5a1.5 1.5 0 11-3 0 1.5 1.5 0 013 0zM20 341.5a1.5 1.5 0 11-3 0 1.5 1.5 0 013 0zM0 361.5a1.5 1.5 0 11-3 0 1.5 1.5 0 013 0zM20 361.5a1.5 1.5 0 11-3 0 1.5 1.5 0 013 0zM0 381.5a1.5 1.5 0 11-3 0 1.5 1.5 0 013 0zM20 381.5a1.5 1.5 0 11-3 0 1.5 1.5 0 013 0zM0 401.5a1.5 1.5 0 11-3 0 1.5 1.5 0 013 0zM20 401.5a1.5 1.5 0 11-3 0 1.5 1.5 0 013 0zM0 421.5a1.5 1.5 0 11-3 0 1.5 1.5 0 013 0zM20 421.5a1.5 1.5 0 11-3 0 1.5 1.5 0 013 0zM40 201.5a1.5 1.5 0 11-3 0 1.5 1.5 0 013 0zM60 201.5a1.5 1.5 0 11-3 0 1.5 1.5 0 013 0zM80 201.5a1.5 1.5 0 11-3 0 1.5 1.5 0 013 0zM100 201.5a1.5 1.5 0 11-3 0 1.5 1.5 0 013 0zM120 201.5a1.5 1.5 0 11-3.001-.001 1.5 1.5 0 013.001.001zM140 201.5a1.5 1.5 0 11-3.001-.001 1.5 1.5 0 013.001.001zM160 201.5a1.5 1.5 0 11-3.001-.001 1.5 1.5 0 013.001.001zM180 201.5a1.5 1.5 0 11-3.001-.001 1.5 1.5 0 013.001.001zM200 201.5a1.5 1.5 0 11-3.001-.001 1.5 1.5 0 013.001.001zM220 201.5a1.5 1.5 0 11-3.001-.001 1.5 1.5 0 013.001.001zM240 201.5a1.5 1.5 0 11-3.001-.001 1.5 1.5 0 013.001.001zM260 201.5a1.5 1.5 0 11-3.001-.001 1.5 1.5 0 013.001.001zM280 201.5a1.5 1.5 0 11-3.001-.001 1.5 1.5 0 013.001.001zM300 201.5a1.5 1.5 0 11-3.001-.001 1.5 1.5 0 013.001.001zM320 201.5a1.5 1.5 0 11-3.001-.001 1.5 1.5 0 013.001.001zM40 221.5a1.5 1.5 0 11-3 0 1.5 1.5 0 013 0zM60 221.5a1.5 1.5 0 11-3 0 1.5 1.5 0 013 0zM80 221.5a1.5 1.5 0 11-3 0 1.5 1.5 0 013 0zM100 221.5a1.5 1.5 0 11-3 0 1.5 1.5 0 013 0zM120 221.5a1.5 1.5 0 11-3.001-.001 1.5 1.5 0 013.001.001zM140 221.5a1.5 1.5 0 11-3.001-.001 1.5 1.5 0 013.001.001zM160 221.5a1.5 1.5 0 11-3.001-.001 1.5 1.5 0 013.001.001zM180 221.5a1.5 1.5 0 11-3.001-.001 1.5 1.5 0 013.001.001zM200 221.5a1.5 1.5 0 11-3.001-.001 1.5 1.5 0 013.001.001zM220 221.5a1.5 1.5 0 11-3.001-.001 1.5 1.5 0 013.001.001zM240 221.5a1.5 1.5 0 11-3.001-.001 1.5 1.5 0 013.001.001zM260 221.5a1.5 1.5 0 11-3.001-.001 1.5 1.5 0 013.001.001zM280 221.5a1.5 1.5 0 11-3.001-.001 1.5 1.5 0 013.001.001zM300 221.5a1.5 1.5 0 11-3.001-.001 1.5 1.5 0 013.001.001zM320 221.5a1.5 1.5 0 11-3.001-.001 1.5 1.5 0 013.001.001zM40 241.5a1.5 1.5 0 11-3 0 1.5 1.5 0 013 0zM60 241.5a1.5 1.5 0 11-3 0 1.5 1.5 0 013 0zM80 241.5a1.5 1.5 0 11-3 0 1.5 1.5 0 013 0zM100 241.5a1.5 1.5 0 11-3 0 1.5 1.5 0 013 0zM120 241.5a1.5 1.5 0 11-3.001-.001 1.5 1.5 0 013.001.001zM140 241.5a1.5 1.5 0 11-3.001-.001 1.5 1.5 0 013.001.001zM160 241.5a1.5 1.5 0 11-3.001-.001 1.5 1.5 0 013.001.001zM180 241.5a1.5 1.5 0 11-3.001-.001 1.5 1.5 0 013.001.001zM200 241.5a1.5 1.5 0 11-3.001-.001 1.5 1.5 0 013.001.001zM220 241.5a1.5 1.5 0 11-3.001-.001 1.5 1.5 0 013.001.001zM240 241.5a1.5 1.5 0 11-3.001-.001 1.5 1.5 0 013.001.001zM260 241.5a1.5 1.5 0 11-3.001-.001 1.5 1.5 0 013.001.001zM280 241.5a1.5 1.5 0 11-3.001-.001 1.5 1.5 0 013.001.001zM300 241.5a1.5 1.5 0 11-3.001-.001 1.5 1.5 0 013.001.001zM320 241.5a1.5 1.5 0 11-3.001-.001 1.5 1.5 0 013.001.001zM40 261.5a1.5 1.5 0 11-3 0 1.5 1.5 0 013 0zM60 261.5a1.5 1.5 0 11-3 0 1.5 1.5 0 013 0zM80 261.5a1.5 1.5 0 11-3 0 1.5 1.5 0 013 0zM100 261.5a1.5 1.5 0 11-3 0 1.5 1.5 0 013 0zM120 261.5a1.5 1.5 0 11-3.001-.001 1.5 1.5 0 013.001.001zM140 261.5a1.5 1.5 0 11-3.001-.001 1.5 1.5 0 013.001.001zM160 261.5a1.5 1.5 0 11-3.001-.001 1.5 1.5 0 013.001.001zM180 261.5a1.5 1.5 0 11-3.001-.001 1.5 1.5 0 013.001.001zM200 261.5a1.5 1.5 0 11-3.001-.001 1.5 1.5 0 013.001.001zM220 261.5a1.5 1.5 0 11-3.001-.001 1.5 1.5 0 013.001.001zM240 261.5a1.5 1.5 0 11-3.001-.001 1.5 1.5 0 013.001.001zM260 261.5a1.5 1.5 0 11-3.001-.001 1.5 1.5 0 013.001.001zM280 261.5a1.5 1.5 0 11-3.001-.001 1.5 1.5 0 013.001.001zM300 261.5a1.5 1.5 0 11-3.001-.001 1.5 1.5 0 013.001.001zM320 261.5a1.5 1.5 0 11-3.001-.001 1.5 1.5 0 013.001.001zM40 281.5a1.5 1.5 0 11-3 0 1.5 1.5 0 013 0zM60 281.5a1.5 1.5 0 11-3 0 1.5 1.5 0 013 0zM80 281.5a1.5 1.5 0 11-3 0 1.5 1.5 0 013 0zM100 281.5a1.5 1.5 0 11-3 0 1.5 1.5 0 013 0zM120 281.5a1.5 1.5 0 11-3.001-.001 1.5 1.5 0 013.001.001zM140 281.5a1.5 1.5 0 11-3.001-.001 1.5 1.5 0 013.001.001zM160 281.5a1.5 1.5 0 11-3.001-.001 1.5 1.5 0 013.001.001zM180 281.5a1.5 1.5 0 11-3.001-.001 1.5 1.5 0 013.001.001zM200 281.5a1.5 1.5 0 11-3.001-.001 1.5 1.5 0 013.001.001zM220 281.5a1.5 1.5 0 11-3.001-.001 1.5 1.5 0 013.001.001zM240 281.5a1.5 1.5 0 11-3.001-.001 1.5 1.5 0 013.001.001zM260 281.5a1.5 1.5 0 11-3.001-.001 1.5 1.5 0 013.001.001zM280 281.5a1.5 1.5 0 11-3.001-.001 1.5 1.5 0 013.001.001zM300 281.5a1.5 1.5 0 11-3.001-.001 1.5 1.5 0 013.001.001zM320 281.5a1.5 1.5 0 11-3.001-.001 1.5 1.5 0 013.001.001zM40 301.5a1.5 1.5 0 11-3 0 1.5 1.5 0 013 0zM60 301.5a1.5 1.5 0 11-3 0 1.5 1.5 0 013 0zM80 301.5a1.5 1.5 0 11-3 0 1.5 1.5 0 013 0zM100 301.5a1.5 1.5 0 11-3 0 1.5 1.5 0 013 0zM120 301.5a1.5 1.5 0 11-3.001-.001 1.5 1.5 0 013.001.001zM140 301.5a1.5 1.5 0 11-3.001-.001 1.5 1.5 0 013.001.001zM160 301.5a1.5 1.5 0 11-3.001-.001 1.5 1.5 0 013.001.001zM180 301.5a1.5 1.5 0 11-3.001-.001 1.5 1.5 0 013.001.001zM200 301.5a1.5 1.5 0 11-3.001-.001 1.5 1.5 0 013.001.001zM220 301.5a1.5 1.5 0 11-3.001-.001 1.5 1.5 0 013.001.001zM240 301.5a1.5 1.5 0 11-3.001-.001 1.5 1.5 0 013.001.001zM260 301.5a1.5 1.5 0 11-3.001-.001 1.5 1.5 0 013.001.001zM280 301.5a1.5 1.5 0 11-3.001-.001 1.5 1.5 0 013.001.001zM300 301.5a1.5 1.5 0 11-3.001-.001 1.5 1.5 0 013.001.001zM320 301.5a1.5 1.5 0 11-3.001-.001 1.5 1.5 0 013.001.001zM40 321.5a1.5 1.5 0 11-3 0 1.5 1.5 0 013 0zM60 321.5a1.5 1.5 0 11-3 0 1.5 1.5 0 013 0zM80 321.5a1.5 1.5 0 11-3 0 1.5 1.5 0 013 0zM100 321.5a1.5 1.5 0 11-3 0 1.5 1.5 0 013 0zM120 321.5a1.5 1.5 0 11-3.001-.001 1.5 1.5 0 013.001.001zM140 321.5a1.5 1.5 0 11-3.001-.001 1.5 1.5 0 013.001.001zM160 321.5a1.5 1.5 0 11-3.001-.001 1.5 1.5 0 013.001.001zM180 321.5a1.5 1.5 0 11-3.001-.001 1.5 1.5 0 013.001.001zM200 321.5a1.5 1.5 0 11-3.001-.001 1.5 1.5 0 013.001.001zM220 321.5a1.5 1.5 0 11-3.001-.001 1.5 1.5 0 013.001.001zM240 321.5a1.5 1.5 0 11-3.001-.001 1.5 1.5 0 013.001.001zM260 321.5a1.5 1.5 0 11-3.001-.001 1.5 1.5 0 013.001.001zM280 321.5a1.5 1.5 0 11-3.001-.001 1.5 1.5 0 013.001.001zM300 321.5a1.5 1.5 0 11-3.001-.001 1.5 1.5 0 013.001.001zM320 321.5a1.5 1.5 0 11-3.001-.001 1.5 1.5 0 013.001.001zM40 341.5a1.5 1.5 0 11-3 0 1.5 1.5 0 013 0zM60 341.5a1.5 1.5 0 11-3 0 1.5 1.5 0 013 0zM80 341.5a1.5 1.5 0 11-3 0 1.5 1.5 0 013 0zM100 341.5a1.5 1.5 0 11-3 0 1.5 1.5 0 013 0zM120 341.5a1.5 1.5 0 11-3.001-.001 1.5 1.5 0 013.001.001zM140 341.5a1.5 1.5 0 11-3.001-.001 1.5 1.5 0 013.001.001zM160 341.5a1.5 1.5 0 11-3.001-.001 1.5 1.5 0 013.001.001zM180 341.5a1.5 1.5 0 11-3.001-.001 1.5 1.5 0 013.001.001zM200 341.5a1.5 1.5 0 11-3.001-.001 1.5 1.5 0 013.001.001zM220 341.5a1.5 1.5 0 11-3.001-.001 1.5 1.5 0 013.001.001zM240 341.5a1.5 1.5 0 11-3.001-.001 1.5 1.5 0 013.001.001zM260 341.5a1.5 1.5 0 11-3.001-.001 1.5 1.5 0 013.001.001zM280 341.5a1.5 1.5 0 11-3.001-.001 1.5 1.5 0 013.001.001zM300 341.5a1.5 1.5 0 11-3.001-.001 1.5 1.5 0 013.001.001zM320 341.5a1.5 1.5 0 11-3.001-.001 1.5 1.5 0 013.001.001zM40 361.5a1.5 1.5 0 11-3 0 1.5 1.5 0 013 0zM60 361.5a1.5 1.5 0 11-3 0 1.5 1.5 0 013 0zM80 361.5a1.5 1.5 0 11-3 0 1.5 1.5 0 013 0zM100 361.5a1.5 1.5 0 11-3 0 1.5 1.5 0 013 0zM120 361.5a1.5 1.5 0 11-3.001-.001 1.5 1.5 0 013.001.001zM140 361.5a1.5 1.5 0 11-3.001-.001 1.5 1.5 0 013.001.001zM160 361.5a1.5 1.5 0 11-3.001-.001 1.5 1.5 0 013.001.001zM180 361.5a1.5 1.5 0 11-3.001-.001 1.5 1.5 0 013.001.001zM200 361.5a1.5 1.5 0 11-3.001-.001 1.5 1.5 0 013.001.001zM220 361.5a1.5 1.5 0 11-3.001-.001 1.5 1.5 0 013.001.001zM240 361.5a1.5 1.5 0 11-3.001-.001 1.5 1.5 0 013.001.001zM260 361.5a1.5 1.5 0 11-3.001-.001 1.5 1.5 0 013.001.001zM280 361.5a1.5 1.5 0 11-3.001-.001 1.5 1.5 0 013.001.001zM300 361.5a1.5 1.5 0 11-3.001-.001 1.5 1.5 0 013.001.001zM320 361.5a1.5 1.5 0 11-3.001-.001 1.5 1.5 0 013.001.001zM40 381.5a1.5 1.5 0 11-3 0 1.5 1.5 0 013 0zM60 381.5a1.5 1.5 0 11-3 0 1.5 1.5 0 013 0zM80 381.5a1.5 1.5 0 11-3 0 1.5 1.5 0 013 0zM100 381.5a1.5 1.5 0 11-3 0 1.5 1.5 0 013 0zM120 381.5a1.5 1.5 0 11-3.001-.001 1.5 1.5 0 013.001.001zM140 381.5a1.5 1.5 0 11-3.001-.001 1.5 1.5 0 013.001.001zM160 381.5a1.5 1.5 0 11-3.001-.001 1.5 1.5 0 013.001.001zM180 381.5a1.5 1.5 0 11-3.001-.001 1.5 1.5 0 013.001.001zM200 381.5a1.5 1.5 0 11-3.001-.001 1.5 1.5 0 013.001.001zM220 381.5a1.5 1.5 0 11-3.001-.001 1.5 1.5 0 013.001.001zM240 381.5a1.5 1.5 0 11-3.001-.001 1.5 1.5 0 013.001.001zM260 381.5a1.5 1.5 0 11-3.001-.001 1.5 1.5 0 013.001.001zM280 381.5a1.5 1.5 0 11-3.001-.001 1.5 1.5 0 013.001.001zM300 381.5a1.5 1.5 0 11-3.001-.001 1.5 1.5 0 013.001.001zM320 381.5a1.5 1.5 0 11-3.001-.001 1.5 1.5 0 013.001.001zM40 401.5a1.5 1.5 0 11-3 0 1.5 1.5 0 013 0zM60 401.5a1.5 1.5 0 11-3 0 1.5 1.5 0 013 0zM80 401.5a1.5 1.5 0 11-3 0 1.5 1.5 0 013 0zM100 401.5a1.5 1.5 0 11-3 0 1.5 1.5 0 013 0zM120 401.5a1.5 1.5 0 11-3.001-.001 1.5 1.5 0 013.001.001zM140 401.5a1.5 1.5 0 11-3.001-.001 1.5 1.5 0 013.001.001zM160 401.5a1.5 1.5 0 11-3.001-.001 1.5 1.5 0 013.001.001zM180 401.5a1.5 1.5 0 11-3.001-.001 1.5 1.5 0 013.001.001zM200 401.5a1.5 1.5 0 11-3.001-.001 1.5 1.5 0 013.001.001zM220 401.5a1.5 1.5 0 11-3.001-.001 1.5 1.5 0 013.001.001zM240 401.5a1.5 1.5 0 11-3.001-.001 1.5 1.5 0 013.001.001zM260 401.5a1.5 1.5 0 11-3.001-.001 1.5 1.5 0 013.001.001zM280 401.5a1.5 1.5 0 11-3.001-.001 1.5 1.5 0 013.001.001zM300 401.5a1.5 1.5 0 11-3.001-.001 1.5 1.5 0 013.001.001zM320 401.5a1.5 1.5 0 11-3.001-.001 1.5 1.5 0 013.001.001zM40 421.5a1.5 1.5 0 11-3 0 1.5 1.5 0 013 0zM60 421.5a1.5 1.5 0 11-3 0 1.5 1.5 0 013 0zM80 421.5a1.5 1.5 0 11-3 0 1.5 1.5 0 013 0zM100 421.5a1.5 1.5 0 11-3 0 1.5 1.5 0 013 0zM120 421.5a1.5 1.5 0 11-3.001-.001 1.5 1.5 0 013.001.001zM140 421.5a1.5 1.5 0 11-3.001-.001 1.5 1.5 0 013.001.001zM160 421.5a1.5 1.5 0 11-3.001-.001 1.5 1.5 0 013.001.001zM180 421.5a1.5 1.5 0 11-3.001-.001 1.5 1.5 0 013.001.001zM200 421.5a1.5 1.5 0 11-3.001-.001 1.5 1.5 0 013.001.001zM220 421.5a1.5 1.5 0 11-3.001-.001 1.5 1.5 0 013.001.001zM240 421.5a1.5 1.5 0 11-3.001-.001 1.5 1.5 0 013.001.001zM260 421.5a1.5 1.5 0 11-3.001-.001 1.5 1.5 0 013.001.001zM280 421.5a1.5 1.5 0 11-3.001-.001 1.5 1.5 0 013.001.001zM300 421.5a1.5 1.5 0 11-3.001-.001 1.5 1.5 0 013.001.001zM320 421.5a1.5 1.5 0 11-3.001-.001 1.5 1.5 0 013.001.001zM340 201.5a1.5 1.5 0 11-3.001-.001 1.5 1.5 0 013.001.001zM360 201.5a1.5 1.5 0 11-3.001-.001 1.5 1.5 0 013.001.001zM380 201.5a1.5 1.5 0 11-3.001-.001 1.5 1.5 0 013.001.001zM400 201.5a1.5 1.5 0 11-3.001-.001 1.5 1.5 0 013.001.001zM420 201.5a1.5 1.5 0 11-3.001-.001 1.5 1.5 0 013.001.001zM440 201.5a1.5 1.5 0 11-3.001-.001 1.5 1.5 0 013.001.001zM460 201.5a1.5 1.5 0 11-3.001-.001 1.5 1.5 0 013.001.001zM480 201.5a1.5 1.5 0 11-3.001-.001 1.5 1.5 0 013.001.001zM500 201.5a1.5 1.5 0 11-3.001-.001 1.5 1.5 0 013.001.001zM520 201.5a1.5 1.5 0 11-3.001-.001 1.5 1.5 0 013.001.001zM540 201.5a1.5 1.5 0 11-3.001-.001 1.5 1.5 0 013.001.001zM560 201.5a1.5 1.5 0 11-3.001-.001 1.5 1.5 0 013.001.001zM580 201.5a1.5 1.5 0 11-3.001-.001 1.5 1.5 0 013.001.001zM600 201.5a1.5 1.5 0 11-3.001-.001 1.5 1.5 0 013.001.001zM620 201.5a1.5 1.5 0 11-3.001-.001 1.5 1.5 0 013.001.001zM340 221.5a1.5 1.5 0 11-3.001-.001 1.5 1.5 0 013.001.001zM360 221.5a1.5 1.5 0 11-3.001-.001 1.5 1.5 0 013.001.001zM380 221.5a1.5 1.5 0 11-3.001-.001 1.5 1.5 0 013.001.001zM400 221.5a1.5 1.5 0 11-3.001-.001 1.5 1.5 0 013.001.001zM420 221.5a1.5 1.5 0 11-3.001-.001 1.5 1.5 0 013.001.001zM440 221.5a1.5 1.5 0 11-3.001-.001 1.5 1.5 0 013.001.001zM460 221.5a1.5 1.5 0 11-3.001-.001 1.5 1.5 0 013.001.001zM480 221.5a1.5 1.5 0 11-3.001-.001 1.5 1.5 0 013.001.001zM500 221.5a1.5 1.5 0 11-3.001-.001 1.5 1.5 0 013.001.001zM520 221.5a1.5 1.5 0 11-3.001-.001 1.5 1.5 0 013.001.001zM540 221.5a1.5 1.5 0 11-3.001-.001 1.5 1.5 0 013.001.001zM560 221.5a1.5 1.5 0 11-3.001-.001 1.5 1.5 0 013.001.001zM580 221.5a1.5 1.5 0 11-3.001-.001 1.5 1.5 0 013.001.001zM600 221.5a1.5 1.5 0 11-3.001-.001 1.5 1.5 0 013.001.001zM620 221.5a1.5 1.5 0 11-3.001-.001 1.5 1.5 0 013.001.001zM340 241.5a1.5 1.5 0 11-3.001-.001 1.5 1.5 0 013.001.001zM360 241.5a1.5 1.5 0 11-3.001-.001 1.5 1.5 0 013.001.001zM380 241.5a1.5 1.5 0 11-3.001-.001 1.5 1.5 0 013.001.001zM400 241.5a1.5 1.5 0 11-3.001-.001 1.5 1.5 0 013.001.001zM420 241.5a1.5 1.5 0 11-3.001-.001 1.5 1.5 0 013.001.001zM440 241.5a1.5 1.5 0 11-3.001-.001 1.5 1.5 0 013.001.001zM460 241.5a1.5 1.5 0 11-3.001-.001 1.5 1.5 0 013.001.001zM480 241.5a1.5 1.5 0 11-3.001-.001 1.5 1.5 0 013.001.001zM500 241.5a1.5 1.5 0 11-3.001-.001 1.5 1.5 0 013.001.001zM520 241.5a1.5 1.5 0 11-3.001-.001 1.5 1.5 0 013.001.001zM540 241.5a1.5 1.5 0 11-3.001-.001 1.5 1.5 0 013.001.001zM560 241.5a1.5 1.5 0 11-3.001-.001 1.5 1.5 0 013.001.001zM580 241.5a1.5 1.5 0 11-3.001-.001 1.5 1.5 0 013.001.001zM600 241.5a1.5 1.5 0 11-3.001-.001 1.5 1.5 0 013.001.001zM620 241.5a1.5 1.5 0 11-3.001-.001 1.5 1.5 0 013.001.001zM340 261.5a1.5 1.5 0 11-3.001-.001 1.5 1.5 0 013.001.001zM360 261.5a1.5 1.5 0 11-3.001-.001 1.5 1.5 0 013.001.001zM380 261.5a1.5 1.5 0 11-3.001-.001 1.5 1.5 0 013.001.001zM400 261.5a1.5 1.5 0 11-3.001-.001 1.5 1.5 0 013.001.001zM420 261.5a1.5 1.5 0 11-3.001-.001 1.5 1.5 0 013.001.001zM440 261.5a1.5 1.5 0 11-3.001-.001 1.5 1.5 0 013.001.001zM460 261.5a1.5 1.5 0 11-3.001-.001 1.5 1.5 0 013.001.001zM480 261.5a1.5 1.5 0 11-3.001-.001 1.5 1.5 0 013.001.001zM500 261.5a1.5 1.5 0 11-3.001-.001 1.5 1.5 0 013.001.001zM520 261.5a1.5 1.5 0 11-3.001-.001 1.5 1.5 0 013.001.001zM540 261.5a1.5 1.5 0 11-3.001-.001 1.5 1.5 0 013.001.001zM560 261.5a1.5 1.5 0 11-3.001-.001 1.5 1.5 0 013.001.001zM580 261.5a1.5 1.5 0 11-3.001-.001 1.5 1.5 0 013.001.001zM600 261.5a1.5 1.5 0 11-3.001-.001 1.5 1.5 0 013.001.001zM620 261.5a1.5 1.5 0 11-3.001-.001 1.5 1.5 0 013.001.001zM340 281.5a1.5 1.5 0 11-3.001-.001 1.5 1.5 0 013.001.001zM360 281.5a1.5 1.5 0 11-3.001-.001 1.5 1.5 0 013.001.001zM380 281.5a1.5 1.5 0 11-3.001-.001 1.5 1.5 0 013.001.001zM400 281.5a1.5 1.5 0 11-3.001-.001 1.5 1.5 0 013.001.001zM420 281.5a1.5 1.5 0 11-3.001-.001 1.5 1.5 0 013.001.001zM440 281.5a1.5 1.5 0 11-3.001-.001 1.5 1.5 0 013.001.001zM460 281.5a1.5 1.5 0 11-3.001-.001 1.5 1.5 0 013.001.001zM480 281.5a1.5 1.5 0 11-3.001-.001 1.5 1.5 0 013.001.001zM500 281.5a1.5 1.5 0 11-3.001-.001 1.5 1.5 0 013.001.001zM520 281.5a1.5 1.5 0 11-3.001-.001 1.5 1.5 0 013.001.001zM540 281.5a1.5 1.5 0 11-3.001-.001 1.5 1.5 0 013.001.001zM560 281.5a1.5 1.5 0 11-3.001-.001 1.5 1.5 0 013.001.001zM580 281.5a1.5 1.5 0 11-3.001-.001 1.5 1.5 0 013.001.001zM600 281.5a1.5 1.5 0 11-3.001-.001 1.5 1.5 0 013.001.001zM620 281.5a1.5 1.5 0 11-3.001-.001 1.5 1.5 0 013.001.001zM340 301.5a1.5 1.5 0 11-3.001-.001 1.5 1.5 0 013.001.001zM360 301.5a1.5 1.5 0 11-3.001-.001 1.5 1.5 0 013.001.001zM380 301.5a1.5 1.5 0 11-3.001-.001 1.5 1.5 0 013.001.001zM400 301.5a1.5 1.5 0 11-3.001-.001 1.5 1.5 0 013.001.001zM420 301.5a1.5 1.5 0 11-3.001-.001 1.5 1.5 0 013.001.001zM440 301.5a1.5 1.5 0 11-3.001-.001 1.5 1.5 0 013.001.001zM460 301.5a1.5 1.5 0 11-3.001-.001 1.5 1.5 0 013.001.001zM480 301.5a1.5 1.5 0 11-3.001-.001 1.5 1.5 0 013.001.001zM500 301.5a1.5 1.5 0 11-3.001-.001 1.5 1.5 0 013.001.001zM520 301.5a1.5 1.5 0 11-3.001-.001 1.5 1.5 0 013.001.001zM540 301.5a1.5 1.5 0 11-3.001-.001 1.5 1.5 0 013.001.001zM560 301.5a1.5 1.5 0 11-3.001-.001 1.5 1.5 0 013.001.001zM580 301.5a1.5 1.5 0 11-3.001-.001 1.5 1.5 0 013.001.001zM600 301.5a1.5 1.5 0 11-3.001-.001 1.5 1.5 0 013.001.001zM620 301.5a1.5 1.5 0 11-3.001-.001 1.5 1.5 0 013.001.001zM340 321.5a1.5 1.5 0 11-3.001-.001 1.5 1.5 0 013.001.001zM360 321.5a1.5 1.5 0 11-3.001-.001 1.5 1.5 0 013.001.001zM380 321.5a1.5 1.5 0 11-3.001-.001 1.5 1.5 0 013.001.001zM400 321.5a1.5 1.5 0 11-3.001-.001 1.5 1.5 0 013.001.001zM420 321.5a1.5 1.5 0 11-3.001-.001 1.5 1.5 0 013.001.001zM440 321.5a1.5 1.5 0 11-3.001-.001 1.5 1.5 0 013.001.001zM460 321.5a1.5 1.5 0 11-3.001-.001 1.5 1.5 0 013.001.001zM480 321.5a1.5 1.5 0 11-3.001-.001 1.5 1.5 0 013.001.001zM500 321.5a1.5 1.5 0 11-3.001-.001 1.5 1.5 0 013.001.001zM520 321.5a1.5 1.5 0 11-3.001-.001 1.5 1.5 0 013.001.001zM540 321.5a1.5 1.5 0 11-3.001-.001 1.5 1.5 0 013.001.001zM560 321.5a1.5 1.5 0 11-3.001-.001 1.5 1.5 0 013.001.001zM580 321.5a1.5 1.5 0 11-3.001-.001 1.5 1.5 0 013.001.001zM600 321.5a1.5 1.5 0 11-3.001-.001 1.5 1.5 0 013.001.001zM620 321.5a1.5 1.5 0 11-3.001-.001 1.5 1.5 0 013.001.001zM340 341.5a1.5 1.5 0 11-3.001-.001 1.5 1.5 0 013.001.001zM360 341.5a1.5 1.5 0 11-3.001-.001 1.5 1.5 0 013.001.001zM380 341.5a1.5 1.5 0 11-3.001-.001 1.5 1.5 0 013.001.001zM400 341.5a1.5 1.5 0 11-3.001-.001 1.5 1.5 0 013.001.001zM420 341.5a1.5 1.5 0 11-3.001-.001 1.5 1.5 0 013.001.001zM440 341.5a1.5 1.5 0 11-3.001-.001 1.5 1.5 0 013.001.001zM460 341.5a1.5 1.5 0 11-3.001-.001 1.5 1.5 0 013.001.001zM480 341.5a1.5 1.5 0 11-3.001-.001 1.5 1.5 0 013.001.001zM500 341.5a1.5 1.5 0 11-3.001-.001 1.5 1.5 0 013.001.001zM520 341.5a1.5 1.5 0 11-3.001-.001 1.5 1.5 0 013.001.001zM540 341.5a1.5 1.5 0 11-3.001-.001 1.5 1.5 0 013.001.001zM560 341.5a1.5 1.5 0 11-3.001-.001 1.5 1.5 0 013.001.001zM580 341.5a1.5 1.5 0 11-3.001-.001 1.5 1.5 0 013.001.001zM600 341.5a1.5 1.5 0 11-3.001-.001 1.5 1.5 0 013.001.001zM620 341.5a1.5 1.5 0 11-3.001-.001 1.5 1.5 0 013.001.001zM340 361.5a1.5 1.5 0 11-3.001-.001 1.5 1.5 0 013.001.001zM360 361.5a1.5 1.5 0 11-3.001-.001 1.5 1.5 0 013.001.001zM380 361.5a1.5 1.5 0 11-3.001-.001 1.5 1.5 0 013.001.001zM400 361.5a1.5 1.5 0 11-3.001-.001 1.5 1.5 0 013.001.001zM420 361.5a1.5 1.5 0 11-3.001-.001 1.5 1.5 0 013.001.001zM440 361.5a1.5 1.5 0 11-3.001-.001 1.5 1.5 0 013.001.001zM460 361.5a1.5 1.5 0 11-3.001-.001 1.5 1.5 0 013.001.001zM480 361.5a1.5 1.5 0 11-3.001-.001 1.5 1.5 0 013.001.001zM500 361.5a1.5 1.5 0 11-3.001-.001 1.5 1.5 0 013.001.001zM520 361.5a1.5 1.5 0 11-3.001-.001 1.5 1.5 0 013.001.001zM540 361.5a1.5 1.5 0 11-3.001-.001 1.5 1.5 0 013.001.001zM560 361.5a1.5 1.5 0 11-3.001-.001 1.5 1.5 0 013.001.001zM580 361.5a1.5 1.5 0 11-3.001-.001 1.5 1.5 0 013.001.001zM600 361.5a1.5 1.5 0 11-3.001-.001 1.5 1.5 0 013.001.001zM620 361.5a1.5 1.5 0 11-3.001-.001 1.5 1.5 0 013.001.001zM340 381.5a1.5 1.5 0 11-3.001-.001 1.5 1.5 0 013.001.001zM360 381.5a1.5 1.5 0 11-3.001-.001 1.5 1.5 0 013.001.001zM380 381.5a1.5 1.5 0 11-3.001-.001 1.5 1.5 0 013.001.001zM400 381.5a1.5 1.5 0 11-3.001-.001 1.5 1.5 0 013.001.001zM420 381.5a1.5 1.5 0 11-3.001-.001 1.5 1.5 0 013.001.001zM440 381.5a1.5 1.5 0 11-3.001-.001 1.5 1.5 0 013.001.001zM460 381.5a1.5 1.5 0 11-3.001-.001 1.5 1.5 0 013.001.001zM480 381.5a1.5 1.5 0 11-3.001-.001 1.5 1.5 0 013.001.001zM500 381.5a1.5 1.5 0 11-3.001-.001 1.5 1.5 0 013.001.001zM520 381.5a1.5 1.5 0 11-3.001-.001 1.5 1.5 0 013.001.001zM540 381.5a1.5 1.5 0 11-3.001-.001 1.5 1.5 0 013.001.001zM560 381.5a1.5 1.5 0 11-3.001-.001 1.5 1.5 0 013.001.001zM580 381.5a1.5 1.5 0 11-3.001-.001 1.5 1.5 0 013.001.001zM600 381.5a1.5 1.5 0 11-3.001-.001 1.5 1.5 0 013.001.001zM620 381.5a1.5 1.5 0 11-3.001-.001 1.5 1.5 0 013.001.001zM340 401.5a1.5 1.5 0 11-3.001-.001 1.5 1.5 0 013.001.001zM360 401.5a1.5 1.5 0 11-3.001-.001 1.5 1.5 0 013.001.001zM380 401.5a1.5 1.5 0 11-3.001-.001 1.5 1.5 0 013.001.001zM400 401.5a1.5 1.5 0 11-3.001-.001 1.5 1.5 0 013.001.001zM420 401.5a1.5 1.5 0 11-3.001-.001 1.5 1.5 0 013.001.001zM440 401.5a1.5 1.5 0 11-3.001-.001 1.5 1.5 0 013.001.001zM460 401.5a1.5 1.5 0 11-3.001-.001 1.5 1.5 0 013.001.001zM480 401.5a1.5 1.5 0 11-3.001-.001 1.5 1.5 0 013.001.001zM500 401.5a1.5 1.5 0 11-3.001-.001 1.5 1.5 0 013.001.001zM520 401.5a1.5 1.5 0 11-3.001-.001 1.5 1.5 0 013.001.001zM540 401.5a1.5 1.5 0 11-3.001-.001 1.5 1.5 0 013.001.001zM560 401.5a1.5 1.5 0 11-3.001-.001 1.5 1.5 0 013.001.001zM580 401.5a1.5 1.5 0 11-3.001-.001 1.5 1.5 0 013.001.001zM600 401.5a1.5 1.5 0 11-3.001-.001 1.5 1.5 0 013.001.001zM620 401.5a1.5 1.5 0 11-3.001-.001 1.5 1.5 0 013.001.001zM340 421.5a1.5 1.5 0 11-3.001-.001 1.5 1.5 0 013.001.001zM360 421.5a1.5 1.5 0 11-3.001-.001 1.5 1.5 0 013.001.001zM380 421.5a1.5 1.5 0 11-3.001-.001 1.5 1.5 0 013.001.001zM400 421.5a1.5 1.5 0 11-3.001-.001 1.5 1.5 0 013.001.001zM420 421.5a1.5 1.5 0 11-3.001-.001 1.5 1.5 0 013.001.001zM440 421.5a1.5 1.5 0 11-3.001-.001 1.5 1.5 0 013.001.001zM460 421.5a1.5 1.5 0 11-3.001-.001 1.5 1.5 0 013.001.001zM480 421.5a1.5 1.5 0 11-3.001-.001 1.5 1.5 0 013.001.001zM500 421.5a1.5 1.5 0 11-3.001-.001 1.5 1.5 0 013.001.001zM520 421.5a1.5 1.5 0 11-3.001-.001 1.5 1.5 0 013.001.001zM540 421.5a1.5 1.5 0 11-3.001-.001 1.5 1.5 0 013.001.001zM560 421.5a1.5 1.5 0 11-3.001-.001 1.5 1.5 0 013.001.001zM580 421.5a1.5 1.5 0 11-3.001-.001 1.5 1.5 0 013.001.001zM600 421.5a1.5 1.5 0 11-3.001-.001 1.5 1.5 0 013.001.001zM620 421.5a1.5 1.5 0 11-3.001-.001 1.5 1.5 0 013.001.001zM640 201.5a1.5 1.5 0 11-3.001-.001 1.5 1.5 0 013.001.001zM660 201.5a1.5 1.5 0 11-3.001-.001 1.5 1.5 0 013.001.001zM680 201.5a1.5 1.5 0 11-3.001-.001 1.5 1.5 0 013.001.001zM700 201.5a1.5 1.5 0 11-3.001-.001 1.5 1.5 0 013.001.001zM720 201.5a1.5 1.5 0 11-3.001-.001 1.5 1.5 0 013.001.001zM740 201.5a1.5 1.5 0 11-3.001-.001 1.5 1.5 0 013.001.001zM760 201.5a1.5 1.5 0 11-3.001-.001 1.5 1.5 0 013.001.001zM780 201.5a1.5 1.5 0 11-3.001-.001 1.5 1.5 0 013.001.001zM800 201.5a1.5 1.5 0 11-3.001-.001 1.5 1.5 0 013.001.001zM640 221.5a1.5 1.5 0 11-3.001-.001 1.5 1.5 0 013.001.001zM660 221.5a1.5 1.5 0 11-3.001-.001 1.5 1.5 0 013.001.001zM680 221.5a1.5 1.5 0 11-3.001-.001 1.5 1.5 0 013.001.001zM700 221.5a1.5 1.5 0 11-3.001-.001 1.5 1.5 0 013.001.001zM720 221.5a1.5 1.5 0 11-3.001-.001 1.5 1.5 0 013.001.001zM740 221.5a1.5 1.5 0 11-3.001-.001 1.5 1.5 0 013.001.001zM760 221.5a1.5 1.5 0 11-3.001-.001 1.5 1.5 0 013.001.001zM780 221.5a1.5 1.5 0 11-3.001-.001 1.5 1.5 0 013.001.001zM800 221.5a1.5 1.5 0 11-3.001-.001 1.5 1.5 0 013.001.001zM640 241.5a1.5 1.5 0 11-3.001-.001 1.5 1.5 0 013.001.001zM660 241.5a1.5 1.5 0 11-3.001-.001 1.5 1.5 0 013.001.001zM680 241.5a1.5 1.5 0 11-3.001-.001 1.5 1.5 0 013.001.001zM700 241.5a1.5 1.5 0 11-3.001-.001 1.5 1.5 0 013.001.001zM720 241.5a1.5 1.5 0 11-3.001-.001 1.5 1.5 0 013.001.001zM740 241.5a1.5 1.5 0 11-3.001-.001 1.5 1.5 0 013.001.001zM760 241.5a1.5 1.5 0 11-3.001-.001 1.5 1.5 0 013.001.001zM780 241.5a1.5 1.5 0 11-3.001-.001 1.5 1.5 0 013.001.001zM800 241.5a1.5 1.5 0 11-3.001-.001 1.5 1.5 0 013.001.001zM640 261.5a1.5 1.5 0 11-3.001-.001 1.5 1.5 0 013.001.001zM660 261.5a1.5 1.5 0 11-3.001-.001 1.5 1.5 0 013.001.001zM680 261.5a1.5 1.5 0 11-3.001-.001 1.5 1.5 0 013.001.001zM700 261.5a1.5 1.5 0 11-3.001-.001 1.5 1.5 0 013.001.001zM720 261.5a1.5 1.5 0 11-3.001-.001 1.5 1.5 0 013.001.001zM740 261.5a1.5 1.5 0 11-3.001-.001 1.5 1.5 0 013.001.001zM760 261.5a1.5 1.5 0 11-3.001-.001 1.5 1.5 0 013.001.001zM780 261.5a1.5 1.5 0 11-3.001-.001 1.5 1.5 0 013.001.001zM800 261.5a1.5 1.5 0 11-3.001-.001 1.5 1.5 0 013.001.001zM640 281.5a1.5 1.5 0 11-3.001-.001 1.5 1.5 0 013.001.001zM660 281.5a1.5 1.5 0 11-3.001-.001 1.5 1.5 0 013.001.001zM680 281.5a1.5 1.5 0 11-3.001-.001 1.5 1.5 0 013.001.001zM700 281.5a1.5 1.5 0 11-3.001-.001 1.5 1.5 0 013.001.001zM720 281.5a1.5 1.5 0 11-3.001-.001 1.5 1.5 0 013.001.001zM740 281.5a1.5 1.5 0 11-3.001-.001 1.5 1.5 0 013.001.001zM760 281.5a1.5 1.5 0 11-3.001-.001 1.5 1.5 0 013.001.001zM780 281.5a1.5 1.5 0 11-3.001-.001 1.5 1.5 0 013.001.001zM800 281.5a1.5 1.5 0 11-3.001-.001 1.5 1.5 0 013.001.001zM640 301.5a1.5 1.5 0 11-3.001-.001 1.5 1.5 0 013.001.001zM660 301.5a1.5 1.5 0 11-3.001-.001 1.5 1.5 0 013.001.001zM680 301.5a1.5 1.5 0 11-3.001-.001 1.5 1.5 0 013.001.001zM700 301.5a1.5 1.5 0 11-3.001-.001 1.5 1.5 0 013.001.001zM720 301.5a1.5 1.5 0 11-3.001-.001 1.5 1.5 0 013.001.001zM740 301.5a1.5 1.5 0 11-3.001-.001 1.5 1.5 0 013.001.001zM760 301.5a1.5 1.5 0 11-3.001-.001 1.5 1.5 0 013.001.001zM780 301.5a1.5 1.5 0 11-3.001-.001 1.5 1.5 0 013.001.001zM800 301.5a1.5 1.5 0 11-3.001-.001 1.5 1.5 0 013.001.001zM640 321.5a1.5 1.5 0 11-3.001-.001 1.5 1.5 0 013.001.001zM660 321.5a1.5 1.5 0 11-3.001-.001 1.5 1.5 0 013.001.001zM680 321.5a1.5 1.5 0 11-3.001-.001 1.5 1.5 0 013.001.001zM700 321.5a1.5 1.5 0 11-3.001-.001 1.5 1.5 0 013.001.001zM720 321.5a1.5 1.5 0 11-3.001-.001 1.5 1.5 0 013.001.001zM740 321.5a1.5 1.5 0 11-3.001-.001 1.5 1.5 0 013.001.001zM760 321.5a1.5 1.5 0 11-3.001-.001 1.5 1.5 0 013.001.001zM780 321.5a1.5 1.5 0 11-3.001-.001 1.5 1.5 0 013.001.001zM800 321.5a1.5 1.5 0 11-3.001-.001 1.5 1.5 0 013.001.001zM640 341.5a1.5 1.5 0 11-3.001-.001 1.5 1.5 0 013.001.001zM660 341.5a1.5 1.5 0 11-3.001-.001 1.5 1.5 0 013.001.001zM680 341.5a1.5 1.5 0 11-3.001-.001 1.5 1.5 0 013.001.001zM700 341.5a1.5 1.5 0 11-3.001-.001 1.5 1.5 0 013.001.001zM720 341.5a1.5 1.5 0 11-3.001-.001 1.5 1.5 0 013.001.001zM740 341.5a1.5 1.5 0 11-3.001-.001 1.5 1.5 0 013.001.001zM760 341.5a1.5 1.5 0 11-3.001-.001 1.5 1.5 0 013.001.001zM780 341.5a1.5 1.5 0 11-3.001-.001 1.5 1.5 0 013.001.001zM800 341.5a1.5 1.5 0 11-3.001-.001 1.5 1.5 0 013.001.001zM640 361.5a1.5 1.5 0 11-3.001-.001 1.5 1.5 0 013.001.001zM660 361.5a1.5 1.5 0 11-3.001-.001 1.5 1.5 0 013.001.001zM680 361.5a1.5 1.5 0 11-3.001-.001 1.5 1.5 0 013.001.001zM700 361.5a1.5 1.5 0 11-3.001-.001 1.5 1.5 0 013.001.001zM720 361.5a1.5 1.5 0 11-3.001-.001 1.5 1.5 0 013.001.001zM740 361.5a1.5 1.5 0 11-3.001-.001 1.5 1.5 0 013.001.001zM760 361.5a1.5 1.5 0 11-3.001-.001 1.5 1.5 0 013.001.001zM780 361.5a1.5 1.5 0 11-3.001-.001 1.5 1.5 0 013.001.001zM800 361.5a1.5 1.5 0 11-3.001-.001 1.5 1.5 0 013.001.001zM640 381.5a1.5 1.5 0 11-3.001-.001 1.5 1.5 0 013.001.001zM660 381.5a1.5 1.5 0 11-3.001-.001 1.5 1.5 0 013.001.001zM680 381.5a1.5 1.5 0 11-3.001-.001 1.5 1.5 0 013.001.001zM700 381.5a1.5 1.5 0 11-3.001-.001 1.5 1.5 0 013.001.001zM720 381.5a1.5 1.5 0 11-3.001-.001 1.5 1.5 0 013.001.001zM740 381.5a1.5 1.5 0 11-3.001-.001 1.5 1.5 0 013.001.001zM760 381.5a1.5 1.5 0 11-3.001-.001 1.5 1.5 0 013.001.001zM780 381.5a1.5 1.5 0 11-3.001-.001 1.5 1.5 0 013.001.001zM800 381.5a1.5 1.5 0 11-3.001-.001 1.5 1.5 0 013.001.001zM640 401.5a1.5 1.5 0 11-3.001-.001 1.5 1.5 0 013.001.001zM660 401.5a1.5 1.5 0 11-3.001-.001 1.5 1.5 0 013.001.001zM680 401.5a1.5 1.5 0 11-3.001-.001 1.5 1.5 0 013.001.001zM700 401.5a1.5 1.5 0 11-3.001-.001 1.5 1.5 0 013.001.001zM720 401.5a1.5 1.5 0 11-3.001-.001 1.5 1.5 0 013.001.001zM740 401.5a1.5 1.5 0 11-3.001-.001 1.5 1.5 0 013.001.001zM760 401.5a1.5 1.5 0 11-3.001-.001 1.5 1.5 0 013.001.001zM780 401.5a1.5 1.5 0 11-3.001-.001 1.5 1.5 0 013.001.001zM800 401.5a1.5 1.5 0 11-3.001-.001 1.5 1.5 0 013.001.001zM640 421.5a1.5 1.5 0 11-3.001-.001 1.5 1.5 0 013.001.001zM660 421.5a1.5 1.5 0 11-3.001-.001 1.5 1.5 0 013.001.001zM680 421.5a1.5 1.5 0 11-3.001-.001 1.5 1.5 0 013.001.001zM700 421.5a1.5 1.5 0 11-3.001-.001 1.5 1.5 0 013.001.001zM720 421.5a1.5 1.5 0 11-3.001-.001 1.5 1.5 0 013.001.001zM740 421.5a1.5 1.5 0 11-3.001-.001 1.5 1.5 0 013.001.001zM760 421.5a1.5 1.5 0 11-3.001-.001 1.5 1.5 0 013.001.001zM780 421.5a1.5 1.5 0 11-3.001-.001 1.5 1.5 0 013.001.001zM800 421.5a1.5 1.5 0 11-3.001-.001 1.5 1.5 0 013.001.001zM0 441.5a1.5 1.5 0 11-3 0 1.5 1.5 0 013 0zM20 441.5a1.5 1.5 0 11-3 0 1.5 1.5 0 013 0zM0 461.5a1.5 1.5 0 11-3 0 1.5 1.5 0 013 0zM20 461.5a1.5 1.5 0 11-3 0 1.5 1.5 0 013 0zM0 481.5a1.5 1.5 0 11-3 0 1.5 1.5 0 013 0zM20 481.5a1.5 1.5 0 11-3 0 1.5 1.5 0 013 0zM0 501.5a1.5 1.5 0 11-3 0 1.5 1.5 0 013 0zM20 501.5a1.5 1.5 0 11-3 0 1.5 1.5 0 013 0zM0 521.5a1.5 1.5 0 11-3 0 1.5 1.5 0 013 0zM20 521.5a1.5 1.5 0 11-3 0 1.5 1.5 0 013 0zM20 541.5a1.5 1.5 0 11-3 0 1.5 1.5 0 013 0zM40 441.5a1.5 1.5 0 11-3 0 1.5 1.5 0 013 0zM60 441.5a1.5 1.5 0 11-3 0 1.5 1.5 0 013 0zM80 441.5a1.5 1.5 0 11-3 0 1.5 1.5 0 013 0zM100 441.5a1.5 1.5 0 11-3 0 1.5 1.5 0 013 0zM120 441.5a1.5 1.5 0 11-3.001-.001 1.5 1.5 0 013.001.001zM140 441.5a1.5 1.5 0 11-3.001-.001 1.5 1.5 0 013.001.001zM160 441.5a1.5 1.5 0 11-3.001-.001 1.5 1.5 0 013.001.001zM180 441.5a1.5 1.5 0 11-3.001-.001 1.5 1.5 0 013.001.001zM200 441.5a1.5 1.5 0 11-3.001-.001 1.5 1.5 0 013.001.001zM220 441.5a1.5 1.5 0 11-3.001-.001 1.5 1.5 0 013.001.001zM240 441.5a1.5 1.5 0 11-3.001-.001 1.5 1.5 0 013.001.001zM260 441.5a1.5 1.5 0 11-3.001-.001 1.5 1.5 0 013.001.001zM280 441.5a1.5 1.5 0 11-3.001-.001 1.5 1.5 0 013.001.001zM300 441.5a1.5 1.5 0 11-3.001-.001 1.5 1.5 0 013.001.001zM320 441.5a1.5 1.5 0 11-3.001-.001 1.5 1.5 0 013.001.001zM40 461.5a1.5 1.5 0 11-3 0 1.5 1.5 0 013 0zM60 461.5a1.5 1.5 0 11-3 0 1.5 1.5 0 013 0zM80 461.5a1.5 1.5 0 11-3 0 1.5 1.5 0 013 0zM100 461.5a1.5 1.5 0 11-3 0 1.5 1.5 0 013 0zM120 461.5a1.5 1.5 0 11-3.001-.001 1.5 1.5 0 013.001.001zM140 461.5a1.5 1.5 0 11-3.001-.001 1.5 1.5 0 013.001.001zM160 461.5a1.5 1.5 0 11-3.001-.001 1.5 1.5 0 013.001.001zM180 461.5a1.5 1.5 0 11-3.001-.001 1.5 1.5 0 013.001.001zM200 461.5a1.5 1.5 0 11-3.001-.001 1.5 1.5 0 013.001.001zM220 461.5a1.5 1.5 0 11-3.001-.001 1.5 1.5 0 013.001.001zM240 461.5a1.5 1.5 0 11-3.001-.001 1.5 1.5 0 013.001.001zM260 461.5a1.5 1.5 0 11-3.001-.001 1.5 1.5 0 013.001.001zM280 461.5a1.5 1.5 0 11-3.001-.001 1.5 1.5 0 013.001.001zM300 461.5a1.5 1.5 0 11-3.001-.001 1.5 1.5 0 013.001.001zM320 461.5a1.5 1.5 0 11-3.001-.001 1.5 1.5 0 013.001.001zM40 481.5a1.5 1.5 0 11-3 0 1.5 1.5 0 013 0zM60 481.5a1.5 1.5 0 11-3 0 1.5 1.5 0 013 0zM80 481.5a1.5 1.5 0 11-3 0 1.5 1.5 0 013 0zM100 481.5a1.5 1.5 0 11-3 0 1.5 1.5 0 013 0zM120 481.5a1.5 1.5 0 11-3.001-.001 1.5 1.5 0 013.001.001zM140 481.5a1.5 1.5 0 11-3.001-.001 1.5 1.5 0 013.001.001zM160 481.5a1.5 1.5 0 11-3.001-.001 1.5 1.5 0 013.001.001zM180 481.5a1.5 1.5 0 11-3.001-.001 1.5 1.5 0 013.001.001zM200 481.5a1.5 1.5 0 11-3.001-.001 1.5 1.5 0 013.001.001zM220 481.5a1.5 1.5 0 11-3.001-.001 1.5 1.5 0 013.001.001zM240 481.5a1.5 1.5 0 11-3.001-.001 1.5 1.5 0 013.001.001zM260 481.5a1.5 1.5 0 11-3.001-.001 1.5 1.5 0 013.001.001zM280 481.5a1.5 1.5 0 11-3.001-.001 1.5 1.5 0 013.001.001zM300 481.5a1.5 1.5 0 11-3.001-.001 1.5 1.5 0 013.001.001zM320 481.5a1.5 1.5 0 11-3.001-.001 1.5 1.5 0 013.001.001zM40 501.5a1.5 1.5 0 11-3 0 1.5 1.5 0 013 0zM60 501.5a1.5 1.5 0 11-3 0 1.5 1.5 0 013 0zM80 501.5a1.5 1.5 0 11-3 0 1.5 1.5 0 013 0zM100 501.5a1.5 1.5 0 11-3 0 1.5 1.5 0 013 0zM120 501.5a1.5 1.5 0 11-3.001-.001 1.5 1.5 0 013.001.001zM140 501.5a1.5 1.5 0 11-3.001-.001 1.5 1.5 0 013.001.001zM160 501.5a1.5 1.5 0 11-3.001-.001 1.5 1.5 0 013.001.001zM180 501.5a1.5 1.5 0 11-3.001-.001 1.5 1.5 0 013.001.001zM200 501.5a1.5 1.5 0 11-3.001-.001 1.5 1.5 0 013.001.001zM220 501.5a1.5 1.5 0 11-3.001-.001 1.5 1.5 0 013.001.001zM240 501.5a1.5 1.5 0 11-3.001-.001 1.5 1.5 0 013.001.001zM260 501.5a1.5 1.5 0 11-3.001-.001 1.5 1.5 0 013.001.001zM280 501.5a1.5 1.5 0 11-3.001-.001 1.5 1.5 0 013.001.001zM300 501.5a1.5 1.5 0 11-3.001-.001 1.5 1.5 0 013.001.001zM320 501.5a1.5 1.5 0 11-3.001-.001 1.5 1.5 0 013.001.001zM40 521.5a1.5 1.5 0 11-3 0 1.5 1.5 0 013 0zM60 521.5a1.5 1.5 0 11-3 0 1.5 1.5 0 013 0zM80 521.5a1.5 1.5 0 11-3 0 1.5 1.5 0 013 0zM100 521.5a1.5 1.5 0 11-3 0 1.5 1.5 0 013 0zM120 521.5a1.5 1.5 0 11-3.001-.001 1.5 1.5 0 013.001.001zM140 521.5a1.5 1.5 0 11-3.001-.001 1.5 1.5 0 013.001.001zM160 521.5a1.5 1.5 0 11-3.001-.001 1.5 1.5 0 013.001.001zM180 521.5a1.5 1.5 0 11-3.001-.001 1.5 1.5 0 013.001.001zM200 521.5a1.5 1.5 0 11-3.001-.001 1.5 1.5 0 013.001.001zM220 521.5a1.5 1.5 0 11-3.001-.001 1.5 1.5 0 013.001.001zM240 521.5a1.5 1.5 0 11-3.001-.001 1.5 1.5 0 013.001.001zM260 521.5a1.5 1.5 0 11-3.001-.001 1.5 1.5 0 013.001.001zM280 521.5a1.5 1.5 0 11-3.001-.001 1.5 1.5 0 013.001.001zM300 521.5a1.5 1.5 0 11-3.001-.001 1.5 1.5 0 013.001.001zM320 521.5a1.5 1.5 0 11-3.001-.001 1.5 1.5 0 013.001.001zM40 541.5a1.5 1.5 0 11-3 0 1.5 1.5 0 013 0zM60 541.5a1.5 1.5 0 11-3 0 1.5 1.5 0 013 0zM80 541.5a1.5 1.5 0 11-3 0 1.5 1.5 0 013 0zM100 541.5a1.5 1.5 0 11-3 0 1.5 1.5 0 013 0zM120 541.5a1.5 1.5 0 11-3.001-.001 1.5 1.5 0 013.001.001zM140 541.5a1.5 1.5 0 11-3.001-.001 1.5 1.5 0 013.001.001zM160 541.5a1.5 1.5 0 11-3.001-.001 1.5 1.5 0 013.001.001zM180 541.5a1.5 1.5 0 11-3.001-.001 1.5 1.5 0 013.001.001zM200 541.5a1.5 1.5 0 11-3.001-.001 1.5 1.5 0 013.001.001zM220 541.5a1.5 1.5 0 11-3.001-.001 1.5 1.5 0 013.001.001zM240 541.5a1.5 1.5 0 11-3.001-.001 1.5 1.5 0 013.001.001zM260 541.5a1.5 1.5 0 11-3.001-.001 1.5 1.5 0 013.001.001zM280 541.5a1.5 1.5 0 11-3.001-.001 1.5 1.5 0 013.001.001zM300 541.5a1.5 1.5 0 11-3.001-.001 1.5 1.5 0 013.001.001zM320 541.5a1.5 1.5 0 11-3.001-.001 1.5 1.5 0 013.001.001zM40 561.5a1.5 1.5 0 11-3 0 1.5 1.5 0 013 0zM60 561.5a1.5 1.5 0 11-3 0 1.5 1.5 0 013 0zM80 561.5a1.5 1.5 0 11-3 0 1.5 1.5 0 013 0zM100 561.5a1.5 1.5 0 11-3 0 1.5 1.5 0 013 0zM120 561.5a1.5 1.5 0 11-3.001-.001 1.5 1.5 0 013.001.001zM140 561.5a1.5 1.5 0 11-3.001-.001 1.5 1.5 0 013.001.001zM160 561.5a1.5 1.5 0 11-3.001-.001 1.5 1.5 0 013.001.001zM180 561.5a1.5 1.5 0 11-3.001-.001 1.5 1.5 0 013.001.001zM200 561.5a1.5 1.5 0 11-3.001-.001 1.5 1.5 0 013.001.001zM220 561.5a1.5 1.5 0 11-3.001-.001 1.5 1.5 0 013.001.001zM240 561.5a1.5 1.5 0 11-3.001-.001 1.5 1.5 0 013.001.001zM260 561.5a1.5 1.5 0 11-3.001-.001 1.5 1.5 0 013.001.001zM280 561.5a1.5 1.5 0 11-3.001-.001 1.5 1.5 0 013.001.001zM300 561.5a1.5 1.5 0 11-3.001-.001 1.5 1.5 0 013.001.001zM320 561.5a1.5 1.5 0 11-3.001-.001 1.5 1.5 0 013.001.001zM60 581.5a1.5 1.5 0 11-3 0 1.5 1.5 0 013 0zM80 581.5a1.5 1.5 0 11-3 0 1.5 1.5 0 013 0zM100 581.5a1.5 1.5 0 11-3 0 1.5 1.5 0 013 0zM120 581.5a1.5 1.5 0 11-3.001-.001 1.5 1.5 0 013.001.001zM140 581.5a1.5 1.5 0 11-3.001-.001 1.5 1.5 0 013.001.001zM160 581.5a1.5 1.5 0 11-3.001-.001 1.5 1.5 0 013.001.001zM180 581.5a1.5 1.5 0 11-3.001-.001 1.5 1.5 0 013.001.001zM200 581.5a1.5 1.5 0 11-3.001-.001 1.5 1.5 0 013.001.001zM220 581.5a1.5 1.5 0 11-3.001-.001 1.5 1.5 0 013.001.001zM240 581.5a1.5 1.5 0 11-3.001-.001 1.5 1.5 0 013.001.001zM260 581.5a1.5 1.5 0 11-3.001-.001 1.5 1.5 0 013.001.001zM280 581.5a1.5 1.5 0 11-3.001-.001 1.5 1.5 0 013.001.001zM300 581.5a1.5 1.5 0 11-3.001-.001 1.5 1.5 0 013.001.001zM320 581.5a1.5 1.5 0 11-3.001-.001 1.5 1.5 0 013.001.001zM60 601.5a1.5 1.5 0 11-3 0 1.5 1.5 0 013 0zM80 601.5a1.5 1.5 0 11-3 0 1.5 1.5 0 013 0zM100 601.5a1.5 1.5 0 11-3 0 1.5 1.5 0 013 0zM120 601.5a1.5 1.5 0 11-3.001-.001 1.5 1.5 0 013.001.001zM140 601.5a1.5 1.5 0 11-3.001-.001 1.5 1.5 0 013.001.001zM160 601.5a1.5 1.5 0 11-3.001-.001 1.5 1.5 0 013.001.001zM180 601.5a1.5 1.5 0 11-3.001-.001 1.5 1.5 0 013.001.001zM200 601.5a1.5 1.5 0 11-3.001-.001 1.5 1.5 0 013.001.001zM220 601.5a1.5 1.5 0 11-3.001-.001 1.5 1.5 0 013.001.001zM240 601.5a1.5 1.5 0 11-3.001-.001 1.5 1.5 0 013.001.001zM260 601.5a1.5 1.5 0 11-3.001-.001 1.5 1.5 0 013.001.001zM280 601.5a1.5 1.5 0 11-3.001-.001 1.5 1.5 0 013.001.001zM300 601.5a1.5 1.5 0 11-3.001-.001 1.5 1.5 0 013.001.001zM320 601.5a1.5 1.5 0 11-3.001-.001 1.5 1.5 0 013.001.001zM60 621.5a1.5 1.5 0 11-3 0 1.5 1.5 0 013 0zM80 621.5a1.5 1.5 0 11-3 0 1.5 1.5 0 013 0zM100 621.5a1.5 1.5 0 11-3 0 1.5 1.5 0 013 0zM120 621.5a1.5 1.5 0 11-3.001-.001 1.5 1.5 0 013.001.001zM140 621.5a1.5 1.5 0 11-3.001-.001 1.5 1.5 0 013.001.001zM160 621.5a1.5 1.5 0 11-3.001-.001 1.5 1.5 0 013.001.001zM180 621.5a1.5 1.5 0 11-3.001-.001 1.5 1.5 0 013.001.001zM200 621.5a1.5 1.5 0 11-3.001-.001 1.5 1.5 0 013.001.001zM220 621.5a1.5 1.5 0 11-3.001-.001 1.5 1.5 0 013.001.001zM240 621.5a1.5 1.5 0 11-3.001-.001 1.5 1.5 0 013.001.001zM260 621.5a1.5 1.5 0 11-3.001-.001 1.5 1.5 0 013.001.001zM280 621.5a1.5 1.5 0 11-3.001-.001 1.5 1.5 0 013.001.001zM300 621.5a1.5 1.5 0 11-3.001-.001 1.5 1.5 0 013.001.001zM320 621.5a1.5 1.5 0 11-3.001-.001 1.5 1.5 0 013.001.001zM80 641.5a1.5 1.5 0 11-3 0 1.5 1.5 0 013 0zM100 641.5a1.5 1.5 0 11-3 0 1.5 1.5 0 013 0zM120 641.5a1.5 1.5 0 11-3.001-.001 1.5 1.5 0 013.001.001zM140 641.5a1.5 1.5 0 11-3.001-.001 1.5 1.5 0 013.001.001zM160 641.5a1.5 1.5 0 11-3.001-.001 1.5 1.5 0 013.001.001zM180 641.5a1.5 1.5 0 11-3.001-.001 1.5 1.5 0 013.001.001zM200 641.5a1.5 1.5 0 11-3.001-.001 1.5 1.5 0 013.001.001zM220 641.5a1.5 1.5 0 11-3.001-.001 1.5 1.5 0 013.001.001zM240 641.5a1.5 1.5 0 11-3.001-.001 1.5 1.5 0 013.001.001zM260 641.5a1.5 1.5 0 11-3.001-.001 1.5 1.5 0 013.001.001zM280 641.5a1.5 1.5 0 11-3.001-.001 1.5 1.5 0 013.001.001zM300 641.5a1.5 1.5 0 11-3.001-.001 1.5 1.5 0 013.001.001zM320 641.5a1.5 1.5 0 11-3.001-.001 1.5 1.5 0 013.001.001zM100 661.5a1.5 1.5 0 11-3 0 1.5 1.5 0 013 0zM120 661.5a1.5 1.5 0 11-3.001-.001 1.5 1.5 0 013.001.001zM140 661.5a1.5 1.5 0 11-3.001-.001 1.5 1.5 0 013.001.001zM160 661.5a1.5 1.5 0 11-3.001-.001 1.5 1.5 0 013.001.001zM180 661.5a1.5 1.5 0 11-3.001-.001 1.5 1.5 0 013.001.001zM200 661.5a1.5 1.5 0 11-3.001-.001 1.5 1.5 0 013.001.001zM220 661.5a1.5 1.5 0 11-3.001-.001 1.5 1.5 0 013.001.001zM240 661.5a1.5 1.5 0 11-3.001-.001 1.5 1.5 0 013.001.001zM260 661.5a1.5 1.5 0 11-3.001-.001 1.5 1.5 0 013.001.001zM280 661.5a1.5 1.5 0 11-3.001-.001 1.5 1.5 0 013.001.001zM300 661.5a1.5 1.5 0 11-3.001-.001 1.5 1.5 0 013.001.001zM320 661.5a1.5 1.5 0 11-3.001-.001 1.5 1.5 0 013.001.001zM340 441.5a1.5 1.5 0 11-3.001-.001 1.5 1.5 0 013.001.001zM360 441.5a1.5 1.5 0 11-3.001-.001 1.5 1.5 0 013.001.001zM380 441.5a1.5 1.5 0 11-3.001-.001 1.5 1.5 0 013.001.001zM400 441.5a1.5 1.5 0 11-3.001-.001 1.5 1.5 0 013.001.001zM420 441.5a1.5 1.5 0 11-3.001-.001 1.5 1.5 0 013.001.001zM440 441.5a1.5 1.5 0 11-3.001-.001 1.5 1.5 0 013.001.001zM460 441.5a1.5 1.5 0 11-3.001-.001 1.5 1.5 0 013.001.001zM480 441.5a1.5 1.5 0 11-3.001-.001 1.5 1.5 0 013.001.001zM500 441.5a1.5 1.5 0 11-3.001-.001 1.5 1.5 0 013.001.001zM520 441.5a1.5 1.5 0 11-3.001-.001 1.5 1.5 0 013.001.001zM540 441.5a1.5 1.5 0 11-3.001-.001 1.5 1.5 0 013.001.001zM560 441.5a1.5 1.5 0 11-3.001-.001 1.5 1.5 0 013.001.001zM580 441.5a1.5 1.5 0 11-3.001-.001 1.5 1.5 0 013.001.001zM600 441.5a1.5 1.5 0 11-3.001-.001 1.5 1.5 0 013.001.001zM620 441.5a1.5 1.5 0 11-3.001-.001 1.5 1.5 0 013.001.001zM340 461.5a1.5 1.5 0 11-3.001-.001 1.5 1.5 0 013.001.001zM360 461.5a1.5 1.5 0 11-3.001-.001 1.5 1.5 0 013.001.001zM380 461.5a1.5 1.5 0 11-3.001-.001 1.5 1.5 0 013.001.001zM400 461.5a1.5 1.5 0 11-3.001-.001 1.5 1.5 0 013.001.001zM420 461.5a1.5 1.5 0 11-3.001-.001 1.5 1.5 0 013.001.001zM440 461.5a1.5 1.5 0 11-3.001-.001 1.5 1.5 0 013.001.001zM460 461.5a1.5 1.5 0 11-3.001-.001 1.5 1.5 0 013.001.001zM480 461.5a1.5 1.5 0 11-3.001-.001 1.5 1.5 0 013.001.001zM500 461.5a1.5 1.5 0 11-3.001-.001 1.5 1.5 0 013.001.001zM520 461.5a1.5 1.5 0 11-3.001-.001 1.5 1.5 0 013.001.001zM540 461.5a1.5 1.5 0 11-3.001-.001 1.5 1.5 0 013.001.001zM560 461.5a1.5 1.5 0 11-3.001-.001 1.5 1.5 0 013.001.001zM580 461.5a1.5 1.5 0 11-3.001-.001 1.5 1.5 0 013.001.001zM600 461.5a1.5 1.5 0 11-3.001-.001 1.5 1.5 0 013.001.001zM620 461.5a1.5 1.5 0 11-3.001-.001 1.5 1.5 0 013.001.001zM340 481.5a1.5 1.5 0 11-3.001-.001 1.5 1.5 0 013.001.001zM360 481.5a1.5 1.5 0 11-3.001-.001 1.5 1.5 0 013.001.001zM380 481.5a1.5 1.5 0 11-3.001-.001 1.5 1.5 0 013.001.001zM400 481.5a1.5 1.5 0 11-3.001-.001 1.5 1.5 0 013.001.001zM420 481.5a1.5 1.5 0 11-3.001-.001 1.5 1.5 0 013.001.001zM440 481.5a1.5 1.5 0 11-3.001-.001 1.5 1.5 0 013.001.001zM460 481.5a1.5 1.5 0 11-3.001-.001 1.5 1.5 0 013.001.001zM480 481.5a1.5 1.5 0 11-3.001-.001 1.5 1.5 0 013.001.001zM500 481.5a1.5 1.5 0 11-3.001-.001 1.5 1.5 0 013.001.001zM520 481.5a1.5 1.5 0 11-3.001-.001 1.5 1.5 0 013.001.001zM540 481.5a1.5 1.5 0 11-3.001-.001 1.5 1.5 0 013.001.001zM560 481.5a1.5 1.5 0 11-3.001-.001 1.5 1.5 0 013.001.001zM580 481.5a1.5 1.5 0 11-3.001-.001 1.5 1.5 0 013.001.001zM600 481.5a1.5 1.5 0 11-3.001-.001 1.5 1.5 0 013.001.001zM620 481.5a1.5 1.5 0 11-3.001-.001 1.5 1.5 0 013.001.001zM340 501.5a1.5 1.5 0 11-3.001-.001 1.5 1.5 0 013.001.001zM360 501.5a1.5 1.5 0 11-3.001-.001 1.5 1.5 0 013.001.001zM380 501.5a1.5 1.5 0 11-3.001-.001 1.5 1.5 0 013.001.001zM400 501.5a1.5 1.5 0 11-3.001-.001 1.5 1.5 0 013.001.001zM420 501.5a1.5 1.5 0 11-3.001-.001 1.5 1.5 0 013.001.001zM440 501.5a1.5 1.5 0 11-3.001-.001 1.5 1.5 0 013.001.001zM460 501.5a1.5 1.5 0 11-3.001-.001 1.5 1.5 0 013.001.001zM480 501.5a1.5 1.5 0 11-3.001-.001 1.5 1.5 0 013.001.001zM500 501.5a1.5 1.5 0 11-3.001-.001 1.5 1.5 0 013.001.001zM520 501.5a1.5 1.5 0 11-3.001-.001 1.5 1.5 0 013.001.001zM540 501.5a1.5 1.5 0 11-3.001-.001 1.5 1.5 0 013.001.001zM560 501.5a1.5 1.5 0 11-3.001-.001 1.5 1.5 0 013.001.001zM580 501.5a1.5 1.5 0 11-3.001-.001 1.5 1.5 0 013.001.001zM600 501.5a1.5 1.5 0 11-3.001-.001 1.5 1.5 0 013.001.001zM620 501.5a1.5 1.5 0 11-3.001-.001 1.5 1.5 0 013.001.001zM340 521.5a1.5 1.5 0 11-3.001-.001 1.5 1.5 0 013.001.001zM360 521.5a1.5 1.5 0 11-3.001-.001 1.5 1.5 0 013.001.001zM380 521.5a1.5 1.5 0 11-3.001-.001 1.5 1.5 0 013.001.001zM400 521.5a1.5 1.5 0 11-3.001-.001 1.5 1.5 0 013.001.001zM420 521.5a1.5 1.5 0 11-3.001-.001 1.5 1.5 0 013.001.001zM440 521.5a1.5 1.5 0 11-3.001-.001 1.5 1.5 0 013.001.001zM460 521.5a1.5 1.5 0 11-3.001-.001 1.5 1.5 0 013.001.001zM480 521.5a1.5 1.5 0 11-3.001-.001 1.5 1.5 0 013.001.001zM500 521.5a1.5 1.5 0 11-3.001-.001 1.5 1.5 0 013.001.001zM520 521.5a1.5 1.5 0 11-3.001-.001 1.5 1.5 0 013.001.001zM540 521.5a1.5 1.5 0 11-3.001-.001 1.5 1.5 0 013.001.001zM560 521.5a1.5 1.5 0 11-3.001-.001 1.5 1.5 0 013.001.001zM580 521.5a1.5 1.5 0 11-3.001-.001 1.5 1.5 0 013.001.001zM600 521.5a1.5 1.5 0 11-3.001-.001 1.5 1.5 0 013.001.001zM620 521.5a1.5 1.5 0 11-3.001-.001 1.5 1.5 0 013.001.001zM340 541.5a1.5 1.5 0 11-3.001-.001 1.5 1.5 0 013.001.001zM360 541.5a1.5 1.5 0 11-3.001-.001 1.5 1.5 0 013.001.001zM380 541.5a1.5 1.5 0 11-3.001-.001 1.5 1.5 0 013.001.001zM400 541.5a1.5 1.5 0 11-3.001-.001 1.5 1.5 0 013.001.001zM420 541.5a1.5 1.5 0 11-3.001-.001 1.5 1.5 0 013.001.001zM440 541.5a1.5 1.5 0 11-3.001-.001 1.5 1.5 0 013.001.001zM460 541.5a1.5 1.5 0 11-3.001-.001 1.5 1.5 0 013.001.001zM480 541.5a1.5 1.5 0 11-3.001-.001 1.5 1.5 0 013.001.001zM500 541.5a1.5 1.5 0 11-3.001-.001 1.5 1.5 0 013.001.001zM520 541.5a1.5 1.5 0 11-3.001-.001 1.5 1.5 0 013.001.001zM540 541.5a1.5 1.5 0 11-3.001-.001 1.5 1.5 0 013.001.001zM560 541.5a1.5 1.5 0 11-3.001-.001 1.5 1.5 0 013.001.001zM580 541.5a1.5 1.5 0 11-3.001-.001 1.5 1.5 0 013.001.001zM600 541.5a1.5 1.5 0 11-3.001-.001 1.5 1.5 0 013.001.001zM620 541.5a1.5 1.5 0 11-3.001-.001 1.5 1.5 0 013.001.001zM340 561.5a1.5 1.5 0 11-3.001-.001 1.5 1.5 0 013.001.001zM360 561.5a1.5 1.5 0 11-3.001-.001 1.5 1.5 0 013.001.001zM380 561.5a1.5 1.5 0 11-3.001-.001 1.5 1.5 0 013.001.001zM400 561.5a1.5 1.5 0 11-3.001-.001 1.5 1.5 0 013.001.001zM420 561.5a1.5 1.5 0 11-3.001-.001 1.5 1.5 0 013.001.001zM440 561.5a1.5 1.5 0 11-3.001-.001 1.5 1.5 0 013.001.001zM460 561.5a1.5 1.5 0 11-3.001-.001 1.5 1.5 0 013.001.001zM480 561.5a1.5 1.5 0 11-3.001-.001 1.5 1.5 0 013.001.001zM500 561.5a1.5 1.5 0 11-3.001-.001 1.5 1.5 0 013.001.001zM520 561.5a1.5 1.5 0 11-3.001-.001 1.5 1.5 0 013.001.001zM540 561.5a1.5 1.5 0 11-3.001-.001 1.5 1.5 0 013.001.001zM560 561.5a1.5 1.5 0 11-3.001-.001 1.5 1.5 0 013.001.001zM580 561.5a1.5 1.5 0 11-3.001-.001 1.5 1.5 0 013.001.001zM600 561.5a1.5 1.5 0 11-3.001-.001 1.5 1.5 0 013.001.001zM620 561.5a1.5 1.5 0 11-3.001-.001 1.5 1.5 0 013.001.001zM340 581.5a1.5 1.5 0 11-3.001-.001 1.5 1.5 0 013.001.001zM360 581.5a1.5 1.5 0 11-3.001-.001 1.5 1.5 0 013.001.001zM380 581.5a1.5 1.5 0 11-3.001-.001 1.5 1.5 0 013.001.001zM400 581.5a1.5 1.5 0 11-3.001-.001 1.5 1.5 0 013.001.001zM420 581.5a1.5 1.5 0 11-3.001-.001 1.5 1.5 0 013.001.001zM440 581.5a1.5 1.5 0 11-3.001-.001 1.5 1.5 0 013.001.001zM460 581.5a1.5 1.5 0 11-3.001-.001 1.5 1.5 0 013.001.001zM480 581.5a1.5 1.5 0 11-3.001-.001 1.5 1.5 0 013.001.001zM500 581.5a1.5 1.5 0 11-3.001-.001 1.5 1.5 0 013.001.001zM520 581.5a1.5 1.5 0 11-3.001-.001 1.5 1.5 0 013.001.001zM540 581.5a1.5 1.5 0 11-3.001-.001 1.5 1.5 0 013.001.001zM560 581.5a1.5 1.5 0 11-3.001-.001 1.5 1.5 0 013.001.001zM580 581.5a1.5 1.5 0 11-3.001-.001 1.5 1.5 0 013.001.001zM600 581.5a1.5 1.5 0 11-3.001-.001 1.5 1.5 0 013.001.001zM620 581.5a1.5 1.5 0 11-3.001-.001 1.5 1.5 0 013.001.001zM340 601.5a1.5 1.5 0 11-3.001-.001 1.5 1.5 0 013.001.001zM360 601.5a1.5 1.5 0 11-3.001-.001 1.5 1.5 0 013.001.001zM380 601.5a1.5 1.5 0 11-3.001-.001 1.5 1.5 0 013.001.001zM400 601.5a1.5 1.5 0 11-3.001-.001 1.5 1.5 0 013.001.001zM420 601.5a1.5 1.5 0 11-3.001-.001 1.5 1.5 0 013.001.001zM440 601.5a1.5 1.5 0 11-3.001-.001 1.5 1.5 0 013.001.001zM460 601.5a1.5 1.5 0 11-3.001-.001 1.5 1.5 0 013.001.001zM480 601.5a1.5 1.5 0 11-3.001-.001 1.5 1.5 0 013.001.001zM500 601.5a1.5 1.5 0 11-3.001-.001 1.5 1.5 0 013.001.001zM520 601.5a1.5 1.5 0 11-3.001-.001 1.5 1.5 0 013.001.001zM540 601.5a1.5 1.5 0 11-3.001-.001 1.5 1.5 0 013.001.001zM560 601.5a1.5 1.5 0 11-3.001-.001 1.5 1.5 0 013.001.001zM580 601.5a1.5 1.5 0 11-3.001-.001 1.5 1.5 0 013.001.001zM600 601.5a1.5 1.5 0 11-3.001-.001 1.5 1.5 0 013.001.001zM620 601.5a1.5 1.5 0 11-3.001-.001 1.5 1.5 0 013.001.001zM340 621.5a1.5 1.5 0 11-3.001-.001 1.5 1.5 0 013.001.001zM360 621.5a1.5 1.5 0 11-3.001-.001 1.5 1.5 0 013.001.001zM380 621.5a1.5 1.5 0 11-3.001-.001 1.5 1.5 0 013.001.001zM400 621.5a1.5 1.5 0 11-3.001-.001 1.5 1.5 0 013.001.001zM420 621.5a1.5 1.5 0 11-3.001-.001 1.5 1.5 0 013.001.001zM440 621.5a1.5 1.5 0 11-3.001-.001 1.5 1.5 0 013.001.001zM460 621.5a1.5 1.5 0 11-3.001-.001 1.5 1.5 0 013.001.001zM480 621.5a1.5 1.5 0 11-3.001-.001 1.5 1.5 0 013.001.001zM500 621.5a1.5 1.5 0 11-3.001-.001 1.5 1.5 0 013.001.001zM520 621.5a1.5 1.5 0 11-3.001-.001 1.5 1.5 0 013.001.001zM540 621.5a1.5 1.5 0 11-3.001-.001 1.5 1.5 0 013.001.001zM560 621.5a1.5 1.5 0 11-3.001-.001 1.5 1.5 0 013.001.001zM580 621.5a1.5 1.5 0 11-3.001-.001 1.5 1.5 0 013.001.001zM600 621.5a1.5 1.5 0 11-3.001-.001 1.5 1.5 0 013.001.001zM620 621.5a1.5 1.5 0 11-3.001-.001 1.5 1.5 0 013.001.001zM340 641.5a1.5 1.5 0 11-3.001-.001 1.5 1.5 0 013.001.001zM360 641.5a1.5 1.5 0 11-3.001-.001 1.5 1.5 0 013.001.001zM380 641.5a1.5 1.5 0 11-3.001-.001 1.5 1.5 0 013.001.001zM400 641.5a1.5 1.5 0 11-3.001-.001 1.5 1.5 0 013.001.001zM420 641.5a1.5 1.5 0 11-3.001-.001 1.5 1.5 0 013.001.001zM440 641.5a1.5 1.5 0 11-3.001-.001 1.5 1.5 0 013.001.001zM460 641.5a1.5 1.5 0 11-3.001-.001 1.5 1.5 0 013.001.001zM480 641.5a1.5 1.5 0 11-3.001-.001 1.5 1.5 0 013.001.001zM500 641.5a1.5 1.5 0 11-3.001-.001 1.5 1.5 0 013.001.001zM520 641.5a1.5 1.5 0 11-3.001-.001 1.5 1.5 0 013.001.001zM540 641.5a1.5 1.5 0 11-3.001-.001 1.5 1.5 0 013.001.001zM560 641.5a1.5 1.5 0 11-3.001-.001 1.5 1.5 0 013.001.001zM580 641.5a1.5 1.5 0 11-3.001-.001 1.5 1.5 0 013.001.001zM600 641.5a1.5 1.5 0 11-3.001-.001 1.5 1.5 0 013.001.001zM620 641.5a1.5 1.5 0 11-3.001-.001 1.5 1.5 0 013.001.001zM340 661.5a1.5 1.5 0 11-3.001-.001 1.5 1.5 0 013.001.001zM360 661.5a1.5 1.5 0 11-3.001-.001 1.5 1.5 0 013.001.001zM380 661.5a1.5 1.5 0 11-3.001-.001 1.5 1.5 0 013.001.001zM400 661.5a1.5 1.5 0 11-3.001-.001 1.5 1.5 0 013.001.001zM420 661.5a1.5 1.5 0 11-3.001-.001 1.5 1.5 0 013.001.001zM440 661.5a1.5 1.5 0 11-3.001-.001 1.5 1.5 0 013.001.001zM460 661.5a1.5 1.5 0 11-3.001-.001 1.5 1.5 0 013.001.001zM480 661.5a1.5 1.5 0 11-3.001-.001 1.5 1.5 0 013.001.001zM500 661.5a1.5 1.5 0 11-3.001-.001 1.5 1.5 0 013.001.001zM520 661.5a1.5 1.5 0 11-3.001-.001 1.5 1.5 0 013.001.001zM540 661.5a1.5 1.5 0 11-3.001-.001 1.5 1.5 0 013.001.001zM560 661.5a1.5 1.5 0 11-3.001-.001 1.5 1.5 0 013.001.001zM580 661.5a1.5 1.5 0 11-3.001-.001 1.5 1.5 0 013.001.001zM600 661.5a1.5 1.5 0 11-3.001-.001 1.5 1.5 0 013.001.001zM620 661.5a1.5 1.5 0 11-3.001-.001 1.5 1.5 0 013.001.001zM640 441.5a1.5 1.5 0 11-3.001-.001 1.5 1.5 0 013.001.001zM660 441.5a1.5 1.5 0 11-3.001-.001 1.5 1.5 0 013.001.001zM680 441.5a1.5 1.5 0 11-3.001-.001 1.5 1.5 0 013.001.001zM700 441.5a1.5 1.5 0 11-3.001-.001 1.5 1.5 0 013.001.001zM720 441.5a1.5 1.5 0 11-3.001-.001 1.5 1.5 0 013.001.001zM740 441.5a1.5 1.5 0 11-3.001-.001 1.5 1.5 0 013.001.001zM760 441.5a1.5 1.5 0 11-3.001-.001 1.5 1.5 0 013.001.001zM780 441.5a1.5 1.5 0 11-3.001-.001 1.5 1.5 0 013.001.001zM800 441.5a1.5 1.5 0 11-3.001-.001 1.5 1.5 0 013.001.001zM640 461.5a1.5 1.5 0 11-3.001-.001 1.5 1.5 0 013.001.001zM660 461.5a1.5 1.5 0 11-3.001-.001 1.5 1.5 0 013.001.001zM680 461.5a1.5 1.5 0 11-3.001-.001 1.5 1.5 0 013.001.001zM700 461.5a1.5 1.5 0 11-3.001-.001 1.5 1.5 0 013.001.001zM720 461.5a1.5 1.5 0 11-3.001-.001 1.5 1.5 0 013.001.001zM740 461.5a1.5 1.5 0 11-3.001-.001 1.5 1.5 0 013.001.001zM760 461.5a1.5 1.5 0 11-3.001-.001 1.5 1.5 0 013.001.001zM780 461.5a1.5 1.5 0 11-3.001-.001 1.5 1.5 0 013.001.001zM800 461.5a1.5 1.5 0 11-3.001-.001 1.5 1.5 0 013.001.001zM640 481.5a1.5 1.5 0 11-3.001-.001 1.5 1.5 0 013.001.001zM660 481.5a1.5 1.5 0 11-3.001-.001 1.5 1.5 0 013.001.001zM680 481.5a1.5 1.5 0 11-3.001-.001 1.5 1.5 0 013.001.001zM700 481.5a1.5 1.5 0 11-3.001-.001 1.5 1.5 0 013.001.001zM720 481.5a1.5 1.5 0 11-3.001-.001 1.5 1.5 0 013.001.001zM740 481.5a1.5 1.5 0 11-3.001-.001 1.5 1.5 0 013.001.001zM760 481.5a1.5 1.5 0 11-3.001-.001 1.5 1.5 0 013.001.001zM780 481.5a1.5 1.5 0 11-3.001-.001 1.5 1.5 0 013.001.001zM800 481.5a1.5 1.5 0 11-3.001-.001 1.5 1.5 0 013.001.001zM640 501.5a1.5 1.5 0 11-3.001-.001 1.5 1.5 0 013.001.001zM660 501.5a1.5 1.5 0 11-3.001-.001 1.5 1.5 0 013.001.001zM680 501.5a1.5 1.5 0 11-3.001-.001 1.5 1.5 0 013.001.001zM700 501.5a1.5 1.5 0 11-3.001-.001 1.5 1.5 0 013.001.001zM720 501.5a1.5 1.5 0 11-3.001-.001 1.5 1.5 0 013.001.001zM740 501.5a1.5 1.5 0 11-3.001-.001 1.5 1.5 0 013.001.001zM760 501.5a1.5 1.5 0 11-3.001-.001 1.5 1.5 0 013.001.001zM780 501.5a1.5 1.5 0 11-3.001-.001 1.5 1.5 0 013.001.001zM800 501.5a1.5 1.5 0 11-3.001-.001 1.5 1.5 0 013.001.001zM640 521.5a1.5 1.5 0 11-3.001-.001 1.5 1.5 0 013.001.001zM660 521.5a1.5 1.5 0 11-3.001-.001 1.5 1.5 0 013.001.001zM680 521.5a1.5 1.5 0 11-3.001-.001 1.5 1.5 0 013.001.001zM700 521.5a1.5 1.5 0 11-3.001-.001 1.5 1.5 0 013.001.001zM720 521.5a1.5 1.5 0 11-3.001-.001 1.5 1.5 0 013.001.001zM740 521.5a1.5 1.5 0 11-3.001-.001 1.5 1.5 0 013.001.001zM760 521.5a1.5 1.5 0 11-3.001-.001 1.5 1.5 0 013.001.001zM780 521.5a1.5 1.5 0 11-3.001-.001 1.5 1.5 0 013.001.001zM800 521.5a1.5 1.5 0 11-3.001-.001 1.5 1.5 0 013.001.001zM640 541.5a1.5 1.5 0 11-3.001-.001 1.5 1.5 0 013.001.001zM660 541.5a1.5 1.5 0 11-3.001-.001 1.5 1.5 0 013.001.001zM680 541.5a1.5 1.5 0 11-3.001-.001 1.5 1.5 0 013.001.001zM700 541.5a1.5 1.5 0 11-3.001-.001 1.5 1.5 0 013.001.001zM720 541.5a1.5 1.5 0 11-3.001-.001 1.5 1.5 0 013.001.001zM740 541.5a1.5 1.5 0 11-3.001-.001 1.5 1.5 0 013.001.001zM760 541.5a1.5 1.5 0 11-3.001-.001 1.5 1.5 0 013.001.001zM780 541.5a1.5 1.5 0 11-3.001-.001 1.5 1.5 0 013.001.001zM800 541.5a1.5 1.5 0 11-3.001-.001 1.5 1.5 0 013.001.001zM640 561.5a1.5 1.5 0 11-3.001-.001 1.5 1.5 0 013.001.001zM660 561.5a1.5 1.5 0 11-3.001-.001 1.5 1.5 0 013.001.001zM680 561.5a1.5 1.5 0 11-3.001-.001 1.5 1.5 0 013.001.001zM700 561.5a1.5 1.5 0 11-3.001-.001 1.5 1.5 0 013.001.001zM720 561.5a1.5 1.5 0 11-3.001-.001 1.5 1.5 0 013.001.001zM740 561.5a1.5 1.5 0 11-3.001-.001 1.5 1.5 0 013.001.001zM760 561.5a1.5 1.5 0 11-3.001-.001 1.5 1.5 0 013.001.001zM780 561.5a1.5 1.5 0 11-3.001-.001 1.5 1.5 0 013.001.001zM800 561.5a1.5 1.5 0 11-3.001-.001 1.5 1.5 0 013.001.001zM640 581.5a1.5 1.5 0 11-3.001-.001 1.5 1.5 0 013.001.001zM660 581.5a1.5 1.5 0 11-3.001-.001 1.5 1.5 0 013.001.001zM680 581.5a1.5 1.5 0 11-3.001-.001 1.5 1.5 0 013.001.001zM700 581.5a1.5 1.5 0 11-3.001-.001 1.5 1.5 0 013.001.001zM720 581.5a1.5 1.5 0 11-3.001-.001 1.5 1.5 0 013.001.001zM740 581.5a1.5 1.5 0 11-3.001-.001 1.5 1.5 0 013.001.001zM760 581.5a1.5 1.5 0 11-3.001-.001 1.5 1.5 0 013.001.001zM780 581.5a1.5 1.5 0 11-3.001-.001 1.5 1.5 0 013.001.001zM640 601.5a1.5 1.5 0 11-3.001-.001 1.5 1.5 0 013.001.001zM660 601.5a1.5 1.5 0 11-3.001-.001 1.5 1.5 0 013.001.001zM680 601.5a1.5 1.5 0 11-3.001-.001 1.5 1.5 0 013.001.001zM700 601.5a1.5 1.5 0 11-3.001-.001 1.5 1.5 0 013.001.001zM720 601.5a1.5 1.5 0 11-3.001-.001 1.5 1.5 0 013.001.001zM740 601.5a1.5 1.5 0 11-3.001-.001 1.5 1.5 0 013.001.001zM640 621.5a1.5 1.5 0 11-3.001-.001 1.5 1.5 0 013.001.001zM660 621.5a1.5 1.5 0 11-3.001-.001 1.5 1.5 0 013.001.001zM680 621.5a1.5 1.5 0 11-3.001-.001 1.5 1.5 0 013.001.001zM700 621.5a1.5 1.5 0 11-3.001-.001 1.5 1.5 0 013.001.001zM640 641.5a1.5 1.5 0 11-3.001-.001 1.5 1.5 0 013.001.001zM660 641.5a1.5 1.5 0 11-3.001-.001 1.5 1.5 0 013.001.001zM120 681.5a1.5 1.5 0 11-3.001-.001 1.5 1.5 0 013.001.001zM140 681.5a1.5 1.5 0 11-3.001-.001 1.5 1.5 0 013.001.001zM160 681.5a1.5 1.5 0 11-3.001-.001 1.5 1.5 0 013.001.001zM180 681.5a1.5 1.5 0 11-3.001-.001 1.5 1.5 0 013.001.001zM200 681.5a1.5 1.5 0 11-3.001-.001 1.5 1.5 0 013.001.001zM220 681.5a1.5 1.5 0 11-3.001-.001 1.5 1.5 0 013.001.001zM240 681.5a1.5 1.5 0 11-3.001-.001 1.5 1.5 0 013.001.001zM260 681.5a1.5 1.5 0 11-3.001-.001 1.5 1.5 0 013.001.001zM280 681.5a1.5 1.5 0 11-3.001-.001 1.5 1.5 0 013.001.001zM300 681.5a1.5 1.5 0 11-3.001-.001 1.5 1.5 0 013.001.001zM320 681.5a1.5 1.5 0 11-3.001-.001 1.5 1.5 0 013.001.001zM340 681.5a1.5 1.5 0 11-3.001-.001 1.5 1.5 0 013.001.001zM360 681.5a1.5 1.5 0 11-3.001-.001 1.5 1.5 0 013.001.001zM380 681.5a1.5 1.5 0 11-3.001-.001 1.5 1.5 0 013.001.001zM400 681.5a1.5 1.5 0 11-3.001-.001 1.5 1.5 0 013.001.001zM420 681.5a1.5 1.5 0 11-3.001-.001 1.5 1.5 0 013.001.001zM440 681.5a1.5 1.5 0 11-3.001-.001 1.5 1.5 0 013.001.001zM460 681.5a1.5 1.5 0 11-3.001-.001 1.5 1.5 0 013.001.001zM480 681.5a1.5 1.5 0 11-3.001-.001 1.5 1.5 0 013.001.001zM500 681.5a1.5 1.5 0 11-3.001-.001 1.5 1.5 0 013.001.001zM520 681.5a1.5 1.5 0 11-3.001-.001 1.5 1.5 0 013.001.001zM540 681.5a1.5 1.5 0 11-3.001-.001 1.5 1.5 0 013.001.001zM560 681.5a1.5 1.5 0 11-3.001-.001 1.5 1.5 0 013.001.001zM20 121.5a1.5 1.5 0 11-3 0 1.5 1.5 0 013 0zM0 141.5a1.5 1.5 0 11-3 0 1.5 1.5 0 013 0zM20 141.5a1.5 1.5 0 11-3 0 1.5 1.5 0 013 0zM0 161.5a1.5 1.5 0 11-3 0 1.5 1.5 0 013 0zM20 161.5a1.5 1.5 0 11-3 0 1.5 1.5 0 013 0zM0 181.5a1.5 1.5 0 11-3 0 1.5 1.5 0 013 0zM20 181.5a1.5 1.5 0 11-3 0 1.5 1.5 0 013 0zM220 1.5a1.5 1.5 0 11-3 0 1.5 1.5 0 013 0zM240 1.5a1.5 1.5 0 11-3 0 1.5 1.5 0 013 0zM260 1.5a1.5 1.5 0 11-3 0 1.5 1.5 0 013 0zM280 1.5a1.5 1.5 0 11-3 0 1.5 1.5 0 013 0zM300 1.5a1.5 1.5 0 11-3 0 1.5 1.5 0 013 0zM320 1.5a1.5 1.5 0 11-3 0 1.5 1.5 0 013 0zM100 21.5a1.5 1.5 0 11-3 0 1.5 1.5 0 013 0zM120 21.5a1.5 1.5 0 11-3 0 1.5 1.5 0 013 0zM140 21.5a1.5 1.5 0 11-3 0 1.5 1.5 0 013 0zM160 21.5a1.5 1.5 0 11-3 0 1.5 1.5 0 013 0zM180 21.5a1.5 1.5 0 11-3 0 1.5 1.5 0 013 0zM200 21.5a1.5 1.5 0 11-3 0 1.5 1.5 0 013 0zM220 21.5a1.5 1.5 0 11-3 0 1.5 1.5 0 013 0zM240 21.5a1.5 1.5 0 11-3 0 1.5 1.5 0 013 0zM260 21.5a1.5 1.5 0 11-3 0 1.5 1.5 0 013 0zM280 21.5a1.5 1.5 0 11-3 0 1.5 1.5 0 013 0zM300 21.5a1.5 1.5 0 11-3 0 1.5 1.5 0 013 0zM320 21.5a1.5 1.5 0 11-3 0 1.5 1.5 0 013 0zM80 41.5a1.5 1.5 0 11-3 0 1.5 1.5 0 013 0zM100 41.5a1.5 1.5 0 11-3 0 1.5 1.5 0 013 0zM120 41.5a1.5 1.5 0 11-3 0 1.5 1.5 0 013 0zM140 41.5a1.5 1.5 0 11-3 0 1.5 1.5 0 013 0zM160 41.5a1.5 1.5 0 11-3 0 1.5 1.5 0 013 0zM180 41.5a1.5 1.5 0 11-3 0 1.5 1.5 0 013 0zM200 41.5a1.5 1.5 0 11-3 0 1.5 1.5 0 013 0zM220 41.5a1.5 1.5 0 11-3 0 1.5 1.5 0 013 0zM240 41.5a1.5 1.5 0 11-3 0 1.5 1.5 0 013 0zM260 41.5a1.5 1.5 0 11-3 0 1.5 1.5 0 013 0zM280 41.5a1.5 1.5 0 11-3 0 1.5 1.5 0 013 0zM300 41.5a1.5 1.5 0 11-3 0 1.5 1.5 0 013 0zM320 41.5a1.5 1.5 0 11-3 0 1.5 1.5 0 013 0zM60 61.5a1.5 1.5 0 11-3 0 1.5 1.5 0 013 0zM80 61.5a1.5 1.5 0 11-3 0 1.5 1.5 0 013 0zM100 61.5a1.5 1.5 0 11-3 0 1.5 1.5 0 013 0zM120 61.5a1.5 1.5 0 11-3 0 1.5 1.5 0 013 0zM140 61.5a1.5 1.5 0 11-3 0 1.5 1.5 0 013 0zM160 61.5a1.5 1.5 0 11-3 0 1.5 1.5 0 013 0zM180 61.5a1.5 1.5 0 11-3 0 1.5 1.5 0 013 0zM200 61.5a1.5 1.5 0 11-3 0 1.5 1.5 0 013 0zM220 61.5a1.5 1.5 0 11-3 0 1.5 1.5 0 013 0zM240 61.5a1.5 1.5 0 11-3 0 1.5 1.5 0 013 0zM260 61.5a1.5 1.5 0 11-3 0 1.5 1.5 0 013 0zM280 61.5a1.5 1.5 0 11-3 0 1.5 1.5 0 013 0zM300 61.5a1.5 1.5 0 11-3 0 1.5 1.5 0 013 0zM320 61.5a1.5 1.5 0 11-3 0 1.5 1.5 0 013 0zM60 81.5a1.5 1.5 0 11-3 0 1.5 1.5 0 013 0zM80 81.5a1.5 1.5 0 11-3 0 1.5 1.5 0 013 0zM100 81.5a1.5 1.5 0 11-3 0 1.5 1.5 0 013 0zM120 81.5a1.5 1.5 0 11-3 0 1.5 1.5 0 013 0zM140 81.5a1.5 1.5 0 11-3 0 1.5 1.5 0 013 0zM160 81.5a1.5 1.5 0 11-3 0 1.5 1.5 0 013 0zM180 81.5a1.5 1.5 0 11-3 0 1.5 1.5 0 013 0zM200 81.5a1.5 1.5 0 11-3 0 1.5 1.5 0 013 0zM220 81.5a1.5 1.5 0 11-3 0 1.5 1.5 0 013 0zM240 81.5a1.5 1.5 0 11-3 0 1.5 1.5 0 013 0zM260 81.5a1.5 1.5 0 11-3 0 1.5 1.5 0 013 0zM280 81.5a1.5 1.5 0 11-3 0 1.5 1.5 0 013 0zM300 81.5a1.5 1.5 0 11-3 0 1.5 1.5 0 013 0zM320 81.5a1.5 1.5 0 11-3 0 1.5 1.5 0 013 0zM40 101.5a1.5 1.5 0 11-3 0 1.5 1.5 0 013 0zM60 101.5a1.5 1.5 0 11-3 0 1.5 1.5 0 013 0zM80 101.5a1.5 1.5 0 11-3 0 1.5 1.5 0 013 0zM100 101.5a1.5 1.5 0 11-3 0 1.5 1.5 0 013 0zM120 101.5a1.5 1.5 0 11-3.001-.001 1.5 1.5 0 013.001.001zM140 101.5a1.5 1.5 0 11-3.001-.001 1.5 1.5 0 013.001.001zM160 101.5a1.5 1.5 0 11-3.001-.001 1.5 1.5 0 013.001.001zM180 101.5a1.5 1.5 0 11-3.001-.001 1.5 1.5 0 013.001.001zM200 101.5a1.5 1.5 0 11-3.001-.001 1.5 1.5 0 013.001.001zM220 101.5a1.5 1.5 0 11-3.001-.001 1.5 1.5 0 013.001.001zM240 101.5a1.5 1.5 0 11-3.001-.001 1.5 1.5 0 013.001.001zM260 101.5a1.5 1.5 0 11-3.001-.001 1.5 1.5 0 013.001.001zM280 101.5a1.5 1.5 0 11-3.001-.001 1.5 1.5 0 013.001.001zM300 101.5a1.5 1.5 0 11-3.001-.001 1.5 1.5 0 013.001.001zM320 101.5a1.5 1.5 0 11-3.001-.001 1.5 1.5 0 013.001.001zM40 121.5a1.5 1.5 0 11-3 0 1.5 1.5 0 013 0zM60 121.5a1.5 1.5 0 11-3 0 1.5 1.5 0 013 0zM80 121.5a1.5 1.5 0 11-3 0 1.5 1.5 0 013 0zM100 121.5a1.5 1.5 0 11-3 0 1.5 1.5 0 013 0zM120 121.5a1.5 1.5 0 11-3.001-.001 1.5 1.5 0 013.001.001zM140 121.5a1.5 1.5 0 11-3.001-.001 1.5 1.5 0 013.001.001zM160 121.5a1.5 1.5 0 11-3.001-.001 1.5 1.5 0 013.001.001zM180 121.5a1.5 1.5 0 11-3.001-.001 1.5 1.5 0 013.001.001zM200 121.5a1.5 1.5 0 11-3.001-.001 1.5 1.5 0 013.001.001zM220 121.5a1.5 1.5 0 11-3.001-.001 1.5 1.5 0 013.001.001zM240 121.5a1.5 1.5 0 11-3.001-.001 1.5 1.5 0 013.001.001zM260 121.5a1.5 1.5 0 11-3.001-.001 1.5 1.5 0 013.001.001zM280 121.5a1.5 1.5 0 11-3.001-.001 1.5 1.5 0 013.001.001zM300 121.5a1.5 1.5 0 11-3.001-.001 1.5 1.5 0 013.001.001zM320 121.5a1.5 1.5 0 11-3.001-.001 1.5 1.5 0 013.001.001zM40 141.5a1.5 1.5 0 11-3 0 1.5 1.5 0 013 0zM60 141.5a1.5 1.5 0 11-3 0 1.5 1.5 0 013 0zM80 141.5a1.5 1.5 0 11-3 0 1.5 1.5 0 013 0zM100 141.5a1.5 1.5 0 11-3 0 1.5 1.5 0 013 0zM120 141.5a1.5 1.5 0 11-3.001-.001 1.5 1.5 0 013.001.001zM140 141.5a1.5 1.5 0 11-3.001-.001 1.5 1.5 0 013.001.001zM160 141.5a1.5 1.5 0 11-3.001-.001 1.5 1.5 0 013.001.001zM180 141.5a1.5 1.5 0 11-3.001-.001 1.5 1.5 0 013.001.001zM200 141.5a1.5 1.5 0 11-3.001-.001 1.5 1.5 0 013.001.001zM220 141.5a1.5 1.5 0 11-3.001-.001 1.5 1.5 0 013.001.001zM240 141.5a1.5 1.5 0 11-3.001-.001 1.5 1.5 0 013.001.001zM260 141.5a1.5 1.5 0 11-3.001-.001 1.5 1.5 0 013.001.001zM280 141.5a1.5 1.5 0 11-3.001-.001 1.5 1.5 0 013.001.001zM300 141.5a1.5 1.5 0 11-3.001-.001 1.5 1.5 0 013.001.001zM320 141.5a1.5 1.5 0 11-3.001-.001 1.5 1.5 0 013.001.001zM40 161.5a1.5 1.5 0 11-3 0 1.5 1.5 0 013 0zM60 161.5a1.5 1.5 0 11-3 0 1.5 1.5 0 013 0zM80 161.5a1.5 1.5 0 11-3 0 1.5 1.5 0 013 0zM100 161.5a1.5 1.5 0 11-3 0 1.5 1.5 0 013 0zM120 161.5a1.5 1.5 0 11-3.001-.001 1.5 1.5 0 013.001.001zM140 161.5a1.5 1.5 0 11-3.001-.001 1.5 1.5 0 013.001.001zM160 161.5a1.5 1.5 0 11-3.001-.001 1.5 1.5 0 013.001.001zM180 161.5a1.5 1.5 0 11-3.001-.001 1.5 1.5 0 013.001.001zM200 161.5a1.5 1.5 0 11-3.001-.001 1.5 1.5 0 013.001.001zM220 161.5a1.5 1.5 0 11-3.001-.001 1.5 1.5 0 013.001.001zM240 161.5a1.5 1.5 0 11-3.001-.001 1.5 1.5 0 013.001.001zM260 161.5a1.5 1.5 0 11-3.001-.001 1.5 1.5 0 013.001.001zM280 161.5a1.5 1.5 0 11-3.001-.001 1.5 1.5 0 013.001.001zM300 161.5a1.5 1.5 0 11-3.001-.001 1.5 1.5 0 013.001.001zM320 161.5a1.5 1.5 0 11-3.001-.001 1.5 1.5 0 013.001.001zM40 181.5a1.5 1.5 0 11-3 0 1.5 1.5 0 013 0zM60 181.5a1.5 1.5 0 11-3 0 1.5 1.5 0 013 0zM80 181.5a1.5 1.5 0 11-3 0 1.5 1.5 0 013 0zM100 181.5a1.5 1.5 0 11-3 0 1.5 1.5 0 013 0zM120 181.5a1.5 1.5 0 11-3.001-.001 1.5 1.5 0 013.001.001zM140 181.5a1.5 1.5 0 11-3.001-.001 1.5 1.5 0 013.001.001zM160 181.5a1.5 1.5 0 11-3.001-.001 1.5 1.5 0 013.001.001zM180 181.5a1.5 1.5 0 11-3.001-.001 1.5 1.5 0 013.001.001zM200 181.5a1.5 1.5 0 11-3.001-.001 1.5 1.5 0 013.001.001zM220 181.5a1.5 1.5 0 11-3.001-.001 1.5 1.5 0 013.001.001zM240 181.5a1.5 1.5 0 11-3.001-.001 1.5 1.5 0 013.001.001zM260 181.5a1.5 1.5 0 11-3.001-.001 1.5 1.5 0 013.001.001zM280 181.5a1.5 1.5 0 11-3.001-.001 1.5 1.5 0 013.001.001zM300 181.5a1.5 1.5 0 11-3.001-.001 1.5 1.5 0 013.001.001zM320 181.5a1.5 1.5 0 11-3.001-.001 1.5 1.5 0 013.001.001zM340 1.5a1.5 1.5 0 11-3 0 1.5 1.5 0 013 0zM360 1.5a1.5 1.5 0 11-3 0 1.5 1.5 0 013 0zM380 1.5a1.5 1.5 0 11-3 0 1.5 1.5 0 013 0zM400 1.5a1.5 1.5 0 11-3 0 1.5 1.5 0 013 0zM420 1.5a1.5 1.5 0 11-3 0 1.5 1.5 0 013 0zM440 1.5a1.5 1.5 0 11-3 0 1.5 1.5 0 013 0zM460 1.5a1.5 1.5 0 11-3 0 1.5 1.5 0 013 0zM480 1.5a1.5 1.5 0 11-3 0 1.5 1.5 0 013 0zM500 1.5a1.5 1.5 0 11-3 0 1.5 1.5 0 013 0zM520 1.5a1.5 1.5 0 11-3 0 1.5 1.5 0 013 0zM540 1.5a1.5 1.5 0 11-3 0 1.5 1.5 0 013 0zM560 1.5a1.5 1.5 0 11-3 0 1.5 1.5 0 013 0zM580 1.5a1.5 1.5 0 11-3 0 1.5 1.5 0 013 0zM600 1.5a1.5 1.5 0 11-3 0 1.5 1.5 0 013 0zM620 1.5a1.5 1.5 0 11-3 0 1.5 1.5 0 013 0zM340 21.5a1.5 1.5 0 11-3 0 1.5 1.5 0 013 0zM360 21.5a1.5 1.5 0 11-3 0 1.5 1.5 0 013 0zM380 21.5a1.5 1.5 0 11-3 0 1.5 1.5 0 013 0zM400 21.5a1.5 1.5 0 11-3 0 1.5 1.5 0 013 0zM420 21.5a1.5 1.5 0 11-3 0 1.5 1.5 0 013 0zM440 21.5a1.5 1.5 0 11-3 0 1.5 1.5 0 013 0zM460 21.5a1.5 1.5 0 11-3 0 1.5 1.5 0 013 0zM480 21.5a1.5 1.5 0 11-3 0 1.5 1.5 0 013 0zM500 21.5a1.5 1.5 0 11-3 0 1.5 1.5 0 013 0zM520 21.5a1.5 1.5 0 11-3 0 1.5 1.5 0 013 0zM540 21.5a1.5 1.5 0 11-3 0 1.5 1.5 0 013 0zM560 21.5a1.5 1.5 0 11-3 0 1.5 1.5 0 013 0zM580 21.5a1.5 1.5 0 11-3 0 1.5 1.5 0 013 0zM600 21.5a1.5 1.5 0 11-3 0 1.5 1.5 0 013 0zM620 21.5a1.5 1.5 0 11-3 0 1.5 1.5 0 013 0zM340 41.5a1.5 1.5 0 11-3 0 1.5 1.5 0 013 0zM360 41.5a1.5 1.5 0 11-3 0 1.5 1.5 0 013 0zM380 41.5a1.5 1.5 0 11-3 0 1.5 1.5 0 013 0zM400 41.5a1.5 1.5 0 11-3 0 1.5 1.5 0 013 0zM420 41.5a1.5 1.5 0 11-3 0 1.5 1.5 0 013 0zM440 41.5a1.5 1.5 0 11-3 0 1.5 1.5 0 013 0zM460 41.5a1.5 1.5 0 11-3 0 1.5 1.5 0 013 0zM480 41.5a1.5 1.5 0 11-3 0 1.5 1.5 0 013 0zM500 41.5a1.5 1.5 0 11-3 0 1.5 1.5 0 013 0zM520 41.5a1.5 1.5 0 11-3 0 1.5 1.5 0 013 0zM540 41.5a1.5 1.5 0 11-3 0 1.5 1.5 0 013 0zM560 41.5a1.5 1.5 0 11-3 0 1.5 1.5 0 013 0zM580 41.5a1.5 1.5 0 11-3 0 1.5 1.5 0 013 0zM600 41.5a1.5 1.5 0 11-3 0 1.5 1.5 0 013 0zM620 41.5a1.5 1.5 0 11-3 0 1.5 1.5 0 013 0zM340 61.5a1.5 1.5 0 11-3 0 1.5 1.5 0 013 0zM360 61.5a1.5 1.5 0 11-3 0 1.5 1.5 0 013 0zM380 61.5a1.5 1.5 0 11-3 0 1.5 1.5 0 013 0zM400 61.5a1.5 1.5 0 11-3 0 1.5 1.5 0 013 0zM420 61.5a1.5 1.5 0 11-3 0 1.5 1.5 0 013 0zM440 61.5a1.5 1.5 0 11-3 0 1.5 1.5 0 013 0zM460 61.5a1.5 1.5 0 11-3 0 1.5 1.5 0 013 0zM480 61.5a1.5 1.5 0 11-3 0 1.5 1.5 0 013 0zM500 61.5a1.5 1.5 0 11-3 0 1.5 1.5 0 013 0zM520 61.5a1.5 1.5 0 11-3 0 1.5 1.5 0 013 0zM540 61.5a1.5 1.5 0 11-3 0 1.5 1.5 0 013 0zM560 61.5a1.5 1.5 0 11-3 0 1.5 1.5 0 013 0zM580 61.5a1.5 1.5 0 11-3 0 1.5 1.5 0 013 0zM600 61.5a1.5 1.5 0 11-3 0 1.5 1.5 0 013 0zM620 61.5a1.5 1.5 0 11-3 0 1.5 1.5 0 013 0zM340 81.5a1.5 1.5 0 11-3 0 1.5 1.5 0 013 0zM360 81.5a1.5 1.5 0 11-3 0 1.5 1.5 0 013 0zM380 81.5a1.5 1.5 0 11-3 0 1.5 1.5 0 013 0zM400 81.5a1.5 1.5 0 11-3 0 1.5 1.5 0 013 0zM420 81.5a1.5 1.5 0 11-3 0 1.5 1.5 0 013 0zM440 81.5a1.5 1.5 0 11-3 0 1.5 1.5 0 013 0zM460 81.5a1.5 1.5 0 11-3 0 1.5 1.5 0 013 0zM480 81.5a1.5 1.5 0 11-3 0 1.5 1.5 0 013 0zM500 81.5a1.5 1.5 0 11-3 0 1.5 1.5 0 013 0zM520 81.5a1.5 1.5 0 11-3 0 1.5 1.5 0 013 0zM540 81.5a1.5 1.5 0 11-3 0 1.5 1.5 0 013 0zM560 81.5a1.5 1.5 0 11-3 0 1.5 1.5 0 013 0zM580 81.5a1.5 1.5 0 11-3 0 1.5 1.5 0 013 0zM600 81.5a1.5 1.5 0 11-3 0 1.5 1.5 0 013 0zM620 81.5a1.5 1.5 0 11-3 0 1.5 1.5 0 013 0zM340 101.5a1.5 1.5 0 11-3.001-.001 1.5 1.5 0 013.001.001zM360 101.5a1.5 1.5 0 11-3.001-.001 1.5 1.5 0 013.001.001zM380 101.5a1.5 1.5 0 11-3.001-.001 1.5 1.5 0 013.001.001zM400 101.5a1.5 1.5 0 11-3.001-.001 1.5 1.5 0 013.001.001zM420 101.5a1.5 1.5 0 11-3.001-.001 1.5 1.5 0 013.001.001zM440 101.5a1.5 1.5 0 11-3.001-.001 1.5 1.5 0 013.001.001zM460 101.5a1.5 1.5 0 11-3.001-.001 1.5 1.5 0 013.001.001zM480 101.5a1.5 1.5 0 11-3.001-.001 1.5 1.5 0 013.001.001zM500 101.5a1.5 1.5 0 11-3.001-.001 1.5 1.5 0 013.001.001zM520 101.5a1.5 1.5 0 11-3.001-.001 1.5 1.5 0 013.001.001zM540 101.5a1.5 1.5 0 11-3.001-.001 1.5 1.5 0 013.001.001zM560 101.5a1.5 1.5 0 11-3.001-.001 1.5 1.5 0 013.001.001zM580 101.5a1.5 1.5 0 11-3.001-.001 1.5 1.5 0 013.001.001zM600 101.5a1.5 1.5 0 11-3.001-.001 1.5 1.5 0 013.001.001zM620 101.5a1.5 1.5 0 11-3.001-.001 1.5 1.5 0 013.001.001zM340 121.5a1.5 1.5 0 11-3.001-.001 1.5 1.5 0 013.001.001zM360 121.5a1.5 1.5 0 11-3.001-.001 1.5 1.5 0 013.001.001zM380 121.5a1.5 1.5 0 11-3.001-.001 1.5 1.5 0 013.001.001zM400 121.5a1.5 1.5 0 11-3.001-.001 1.5 1.5 0 013.001.001zM420 121.5a1.5 1.5 0 11-3.001-.001 1.5 1.5 0 013.001.001zM440 121.5a1.5 1.5 0 11-3.001-.001 1.5 1.5 0 013.001.001zM460 121.5a1.5 1.5 0 11-3.001-.001 1.5 1.5 0 013.001.001zM480 121.5a1.5 1.5 0 11-3.001-.001 1.5 1.5 0 013.001.001zM500 121.5a1.5 1.5 0 11-3.001-.001 1.5 1.5 0 013.001.001zM520 121.5a1.5 1.5 0 11-3.001-.001 1.5 1.5 0 013.001.001zM540 121.5a1.5 1.5 0 11-3.001-.001 1.5 1.5 0 013.001.001zM560 121.5a1.5 1.5 0 11-3.001-.001 1.5 1.5 0 013.001.001zM580 121.5a1.5 1.5 0 11-3.001-.001 1.5 1.5 0 013.001.001zM600 121.5a1.5 1.5 0 11-3.001-.001 1.5 1.5 0 013.001.001zM620 121.5a1.5 1.5 0 11-3.001-.001 1.5 1.5 0 013.001.001zM340 141.5a1.5 1.5 0 11-3.001-.001 1.5 1.5 0 013.001.001zM360 141.5a1.5 1.5 0 11-3.001-.001 1.5 1.5 0 013.001.001zM380 141.5a1.5 1.5 0 11-3.001-.001 1.5 1.5 0 013.001.001zM400 141.5a1.5 1.5 0 11-3.001-.001 1.5 1.5 0 013.001.001zM420 141.5a1.5 1.5 0 11-3.001-.001 1.5 1.5 0 013.001.001zM440 141.5a1.5 1.5 0 11-3.001-.001 1.5 1.5 0 013.001.001zM460 141.5a1.5 1.5 0 11-3.001-.001 1.5 1.5 0 013.001.001zM480 141.5a1.5 1.5 0 11-3.001-.001 1.5 1.5 0 013.001.001zM500 141.5a1.5 1.5 0 11-3.001-.001 1.5 1.5 0 013.001.001zM520 141.5a1.5 1.5 0 11-3.001-.001 1.5 1.5 0 013.001.001zM540 141.5a1.5 1.5 0 11-3.001-.001 1.5 1.5 0 013.001.001zM560 141.5a1.5 1.5 0 11-3.001-.001 1.5 1.5 0 013.001.001zM580 141.5a1.5 1.5 0 11-3.001-.001 1.5 1.5 0 013.001.001zM600 141.5a1.5 1.5 0 11-3.001-.001 1.5 1.5 0 013.001.001zM620 141.5a1.5 1.5 0 11-3.001-.001 1.5 1.5 0 013.001.001zM340 161.5a1.5 1.5 0 11-3.001-.001 1.5 1.5 0 013.001.001zM360 161.5a1.5 1.5 0 11-3.001-.001 1.5 1.5 0 013.001.001zM380 161.5a1.5 1.5 0 11-3.001-.001 1.5 1.5 0 013.001.001zM400 161.5a1.5 1.5 0 11-3.001-.001 1.5 1.5 0 013.001.001zM420 161.5a1.5 1.5 0 11-3.001-.001 1.5 1.5 0 013.001.001zM440 161.5a1.5 1.5 0 11-3.001-.001 1.5 1.5 0 013.001.001zM460 161.5a1.5 1.5 0 11-3.001-.001 1.5 1.5 0 013.001.001zM480 161.5a1.5 1.5 0 11-3.001-.001 1.5 1.5 0 013.001.001zM500 161.5a1.5 1.5 0 11-3.001-.001 1.5 1.5 0 013.001.001zM520 161.5a1.5 1.5 0 11-3.001-.001 1.5 1.5 0 013.001.001zM540 161.5a1.5 1.5 0 11-3.001-.001 1.5 1.5 0 013.001.001zM560 161.5a1.5 1.5 0 11-3.001-.001 1.5 1.5 0 013.001.001zM580 161.5a1.5 1.5 0 11-3.001-.001 1.5 1.5 0 013.001.001zM600 161.5a1.5 1.5 0 11-3.001-.001 1.5 1.5 0 013.001.001zM620 161.5a1.5 1.5 0 11-3.001-.001 1.5 1.5 0 013.001.001zM340 181.5a1.5 1.5 0 11-3.001-.001 1.5 1.5 0 013.001.001zM360 181.5a1.5 1.5 0 11-3.001-.001 1.5 1.5 0 013.001.001zM380 181.5a1.5 1.5 0 11-3.001-.001 1.5 1.5 0 013.001.001zM400 181.5a1.5 1.5 0 11-3.001-.001 1.5 1.5 0 013.001.001zM420 181.5a1.5 1.5 0 11-3.001-.001 1.5 1.5 0 013.001.001zM440 181.5a1.5 1.5 0 11-3.001-.001 1.5 1.5 0 013.001.001zM460 181.5a1.5 1.5 0 11-3.001-.001 1.5 1.5 0 013.001.001zM480 181.5a1.5 1.5 0 11-3.001-.001 1.5 1.5 0 013.001.001zM500 181.5a1.5 1.5 0 11-3.001-.001 1.5 1.5 0 013.001.001zM520 181.5a1.5 1.5 0 11-3.001-.001 1.5 1.5 0 013.001.001zM540 181.5a1.5 1.5 0 11-3.001-.001 1.5 1.5 0 013.001.001zM560 181.5a1.5 1.5 0 11-3.001-.001 1.5 1.5 0 013.001.001zM580 181.5a1.5 1.5 0 11-3.001-.001 1.5 1.5 0 013.001.001zM600 181.5a1.5 1.5 0 11-3.001-.001 1.5 1.5 0 013.001.001zM620 181.5a1.5 1.5 0 11-3.001-.001 1.5 1.5 0 013.001.001zM640 1.5a1.5 1.5 0 11-3 0 1.5 1.5 0 013 0zM660 1.5a1.5 1.5 0 11-3 0 1.5 1.5 0 013 0zM680 1.5a1.5 1.5 0 11-3 0 1.5 1.5 0 013 0zM700 1.5a1.5 1.5 0 11-3 0 1.5 1.5 0 013 0zM720 1.5a1.5 1.5 0 11-3 0 1.5 1.5 0 013 0zM740 1.5a1.5 1.5 0 11-3 0 1.5 1.5 0 013 0zM760 1.5a1.5 1.5 0 11-3 0 1.5 1.5 0 013 0zM640 21.5a1.5 1.5 0 11-3 0 1.5 1.5 0 013 0zM660 21.5a1.5 1.5 0 11-3 0 1.5 1.5 0 013 0zM680 21.5a1.5 1.5 0 11-3 0 1.5 1.5 0 013 0zM700 21.5a1.5 1.5 0 11-3 0 1.5 1.5 0 013 0zM720 21.5a1.5 1.5 0 11-3 0 1.5 1.5 0 013 0zM740 21.5a1.5 1.5 0 11-3 0 1.5 1.5 0 013 0zM760 21.5a1.5 1.5 0 11-3 0 1.5 1.5 0 013 0zM780 21.5a1.5 1.5 0 11-3 0 1.5 1.5 0 013 0zM640 41.5a1.5 1.5 0 11-3 0 1.5 1.5 0 013 0zM660 41.5a1.5 1.5 0 11-3 0 1.5 1.5 0 013 0zM680 41.5a1.5 1.5 0 11-3 0 1.5 1.5 0 013 0zM700 41.5a1.5 1.5 0 11-3 0 1.5 1.5 0 013 0zM720 41.5a1.5 1.5 0 11-3 0 1.5 1.5 0 013 0zM740 41.5a1.5 1.5 0 11-3 0 1.5 1.5 0 013 0zM760 41.5a1.5 1.5 0 11-3 0 1.5 1.5 0 013 0zM780 41.5a1.5 1.5 0 11-3 0 1.5 1.5 0 013 0zM800 41.5a1.5 1.5 0 11-3 0 1.5 1.5 0 013 0zM640 61.5a1.5 1.5 0 11-3 0 1.5 1.5 0 013 0zM660 61.5a1.5 1.5 0 11-3 0 1.5 1.5 0 013 0zM680 61.5a1.5 1.5 0 11-3 0 1.5 1.5 0 013 0zM700 61.5a1.5 1.5 0 11-3 0 1.5 1.5 0 013 0zM720 61.5a1.5 1.5 0 11-3 0 1.5 1.5 0 013 0zM740 61.5a1.5 1.5 0 11-3 0 1.5 1.5 0 013 0zM760 61.5a1.5 1.5 0 11-3 0 1.5 1.5 0 013 0zM780 61.5a1.5 1.5 0 11-3 0 1.5 1.5 0 013 0zM800 61.5a1.5 1.5 0 11-3 0 1.5 1.5 0 013 0zM640 81.5a1.5 1.5 0 11-3 0 1.5 1.5 0 013 0zM660 81.5a1.5 1.5 0 11-3 0 1.5 1.5 0 013 0zM680 81.5a1.5 1.5 0 11-3 0 1.5 1.5 0 013 0zM700 81.5a1.5 1.5 0 11-3 0 1.5 1.5 0 013 0zM720 81.5a1.5 1.5 0 11-3 0 1.5 1.5 0 013 0zM740 81.5a1.5 1.5 0 11-3 0 1.5 1.5 0 013 0zM760 81.5a1.5 1.5 0 11-3 0 1.5 1.5 0 013 0zM780 81.5a1.5 1.5 0 11-3 0 1.5 1.5 0 013 0zM800 81.5a1.5 1.5 0 11-3 0 1.5 1.5 0 013 0zM640 101.5a1.5 1.5 0 11-3.001-.001 1.5 1.5 0 013.001.001zM660 101.5a1.5 1.5 0 11-3.001-.001 1.5 1.5 0 013.001.001zM680 101.5a1.5 1.5 0 11-3.001-.001 1.5 1.5 0 013.001.001zM700 101.5a1.5 1.5 0 11-3.001-.001 1.5 1.5 0 013.001.001zM720 101.5a1.5 1.5 0 11-3.001-.001 1.5 1.5 0 013.001.001zM740 101.5a1.5 1.5 0 11-3.001-.001 1.5 1.5 0 013.001.001zM760 101.5a1.5 1.5 0 11-3.001-.001 1.5 1.5 0 013.001.001zM780 101.5a1.5 1.5 0 11-3.001-.001 1.5 1.5 0 013.001.001zM800 101.5a1.5 1.5 0 11-3.001-.001 1.5 1.5 0 013.001.001zM640 121.5a1.5 1.5 0 11-3.001-.001 1.5 1.5 0 013.001.001zM660 121.5a1.5 1.5 0 11-3.001-.001 1.5 1.5 0 013.001.001zM680 121.5a1.5 1.5 0 11-3.001-.001 1.5 1.5 0 013.001.001zM700 121.5a1.5 1.5 0 11-3.001-.001 1.5 1.5 0 013.001.001zM720 121.5a1.5 1.5 0 11-3.001-.001 1.5 1.5 0 013.001.001zM740 121.5a1.5 1.5 0 11-3.001-.001 1.5 1.5 0 013.001.001zM760 121.5a1.5 1.5 0 11-3.001-.001 1.5 1.5 0 013.001.001zM780 121.5a1.5 1.5 0 11-3.001-.001 1.5 1.5 0 013.001.001zM800 121.5a1.5 1.5 0 11-3.001-.001 1.5 1.5 0 013.001.001zM640 141.5a1.5 1.5 0 11-3.001-.001 1.5 1.5 0 013.001.001zM660 141.5a1.5 1.5 0 11-3.001-.001 1.5 1.5 0 013.001.001zM680 141.5a1.5 1.5 0 11-3.001-.001 1.5 1.5 0 013.001.001zM700 141.5a1.5 1.5 0 11-3.001-.001 1.5 1.5 0 013.001.001zM720 141.5a1.5 1.5 0 11-3.001-.001 1.5 1.5 0 013.001.001zM740 141.5a1.5 1.5 0 11-3.001-.001 1.5 1.5 0 013.001.001zM760 141.5a1.5 1.5 0 11-3.001-.001 1.5 1.5 0 013.001.001zM780 141.5a1.5 1.5 0 11-3.001-.001 1.5 1.5 0 013.001.001zM800 141.5a1.5 1.5 0 11-3.001-.001 1.5 1.5 0 013.001.001zM640 161.5a1.5 1.5 0 11-3.001-.001 1.5 1.5 0 013.001.001zM660 161.5a1.5 1.5 0 11-3.001-.001 1.5 1.5 0 013.001.001zM680 161.5a1.5 1.5 0 11-3.001-.001 1.5 1.5 0 013.001.001zM700 161.5a1.5 1.5 0 11-3.001-.001 1.5 1.5 0 013.001.001zM720 161.5a1.5 1.5 0 11-3.001-.001 1.5 1.5 0 013.001.001zM740 161.5a1.5 1.5 0 11-3.001-.001 1.5 1.5 0 013.001.001zM760 161.5a1.5 1.5 0 11-3.001-.001 1.5 1.5 0 013.001.001zM780 161.5a1.5 1.5 0 11-3.001-.001 1.5 1.5 0 013.001.001zM800 161.5a1.5 1.5 0 11-3.001-.001 1.5 1.5 0 013.001.001zM640 181.5a1.5 1.5 0 11-3.001-.001 1.5 1.5 0 013.001.001zM660 181.5a1.5 1.5 0 11-3.001-.001 1.5 1.5 0 013.001.001zM680 181.5a1.5 1.5 0 11-3.001-.001 1.5 1.5 0 013.001.001zM700 181.5a1.5 1.5 0 11-3.001-.001 1.5 1.5 0 013.001.001zM720 181.5a1.5 1.5 0 11-3.001-.001 1.5 1.5 0 013.001.001zM740 181.5a1.5 1.5 0 11-3.001-.001 1.5 1.5 0 013.001.001zM760 181.5a1.5 1.5 0 11-3.001-.001 1.5 1.5 0 013.001.001zM780 181.5a1.5 1.5 0 11-3.001-.001 1.5 1.5 0 013.001.001zM800 181.5a1.5 1.5 0 11-3.001-.001 1.5 1.5 0 013.001.001zM-20 201.5a1.5 1.5 0 11-3 0 1.5 1.5 0 013 0zM-20 221.5a1.5 1.5 0 11-3 0 1.5 1.5 0 013 0zM-20 241.5a1.5 1.5 0 11-3 0 1.5 1.5 0 013 0zM-20 261.5a1.5 1.5 0 11-3 0 1.5 1.5 0 013 0zM-20 281.5a1.5 1.5 0 11-3 0 1.5 1.5 0 013 0zM-20 301.5a1.5 1.5 0 11-3 0 1.5 1.5 0 013 0zM-20 321.5a1.5 1.5 0 11-3 0 1.5 1.5 0 013 0zM-20 341.5a1.5 1.5 0 11-3 0 1.5 1.5 0 013 0zM-20 361.5a1.5 1.5 0 11-3 0 1.5 1.5 0 013 0zM-20 381.5a1.5 1.5 0 11-3 0 1.5 1.5 0 013 0zM-20 401.5a1.5 1.5 0 11-3 0 1.5 1.5 0 013 0zM-20 421.5a1.5 1.5 0 11-3 0 1.5 1.5 0 013 0zM-20 441.5a1.5 1.5 0 11-3 0 1.5 1.5 0 013 0zM-20 461.5a1.5 1.5 0 11-3 0 1.5 1.5 0 013 0zM-20 481.5a1.5 1.5 0 11-3 0 1.5 1.5 0 013 0zM-20 501.5a1.5 1.5 0 11-3 0 1.5 1.5 0 013 0zM-20 161.5a1.5 1.5 0 11-3 0 1.5 1.5 0 013 0zM-20 181.5a1.5 1.5 0 11-3 0 1.5 1.5 0 013 0z"/></g><g filter="url(#filter0_di)"><path d="M287.779 238.638c-15.739-58.742 19.12-119.12 77.862-134.86l212.721-56.999c58.742-15.74 119.12 19.12 134.86 77.862l56.999 212.721c15.739 58.742-19.12 119.12-77.862 134.86l-212.721 56.999c-58.742 15.739-119.12-19.12-134.86-77.862l-56.999-212.721z" fill="url(#paint0_linear)"/></g><g filter="url(#filter1_di)"><path d="M125.192 182.342c-11.211-41.838 13.618-84.843 55.456-96.053l151.51-40.597c41.838-11.21 84.843 13.618 96.053 55.456l40.597 151.51c11.211 41.838-13.618 84.843-55.456 96.053l-151.51 40.597c-41.838 11.211-84.843-13.618-96.053-55.456l-40.597-151.51z" fill="url(#paint1_linear)"/></g><g filter="url(#filter2_di)"><path d="M264.06 435.602c-8.576-32.008 10.419-64.908 42.426-73.484l115.912-31.059c32.008-8.576 64.908 10.419 73.484 42.427l31.059 115.911c8.576 32.008-10.419 64.908-42.427 73.485L368.603 593.94c-32.008 8.576-64.908-10.419-73.485-42.427L264.06 435.602z" fill="url(#paint2_linear)"/></g><g filter="url(#filter3_di)"><path d="M95.53 504.801c-4.288-16.004 5.209-32.454 21.213-36.742l57.956-15.529c16.004-4.289 32.454 5.209 36.742 21.213l15.529 57.955c4.289 16.004-5.209 32.455-21.213 36.743l-57.955 15.529c-16.004 4.288-32.454-5.209-36.743-21.213L95.53 504.801z" fill="url(#paint3_linear)"/></g><g filter="url(#filter4_di)"><path d="M72.648 388.782c-2.144-8.002 2.605-16.227 10.606-18.371l28.978-7.764c8.002-2.144 16.227 2.604 18.371 10.606l7.765 28.978c2.144 8.002-2.605 16.227-10.607 18.371l-28.977 7.765c-8.002 2.144-16.227-2.605-18.372-10.607l-7.764-28.978z" fill="url(#paint4_linear)"/></g><g filter="url(#filter5_di)"><path d="M694.883 149.017c-2.145-8.002 2.604-16.227 10.606-18.371l28.978-7.765c8.002-2.144 16.227 2.605 18.371 10.607l7.765 28.977c2.144 8.002-2.605 16.227-10.607 18.372l-28.978 7.764c-8.002 2.144-16.227-2.604-18.371-10.606l-7.764-28.978z" fill="url(#paint5_linear)"/></g><defs><linearGradient id="paint0_linear" x1="464.824" y1="88.018" x2="614.16" y2="473.614" gradientUnits="userSpaceOnUse"><stop stop-color="#9F8FFF"/><stop offset="1" stop-color="#ef4136"/></linearGradient><linearGradient id="paint1_linear" x1="251.291" y1="75.064" x2="357.655" y2="349.703" gradientUnits="userSpaceOnUse"><stop stop-color="#9F8FFF"/><stop offset="1" stop-color="#ef4136"/></linearGradient><linearGradient id="paint2_linear" x1="360.531" y1="353.53" x2="441.904" y2="563.64" gradientUnits="userSpaceOnUse"><stop stop-color="#9F8FFF"/><stop offset="1" stop-color="#ef4136"/></linearGradient><linearGradient id="paint3_linear" x1="143.766" y1="463.765" x2="184.452" y2="568.82" gradientUnits="userSpaceOnUse"><stop stop-color="#9F8FFF"/><stop offset="1" stop-color="#ef4136"/></linearGradient><linearGradient id="paint4_linear" x1="96.766" y1="368.264" x2="117.109" y2="420.792" gradientUnits="userSpaceOnUse"><stop stop-color="#9F8FFF"/><stop offset="1" stop-color="#ef4136"/></linearGradient><linearGradient id="paint5_linear" x1="719" y1="128.499" x2="739.343" y2="181.026" gradientUnits="userSpaceOnUse"><stop stop-color="#9F8FFF"/><stop offset="1" stop-color="#ef4136"/></linearGradient><filter id="filter0_di" x="239" y="13" width="580" height="580" filterUnits="userSpaceOnUse" color-interpolation-filters="sRGB"><feFlood flood-opacity="0" result="BackgroundImageFix"/><feColorMatrix in="SourceAlpha" values="0 0 0 0 0 0 0 0 0 0 0 0 0 0 0 0 0 0 127 0"/><feOffset dy="15"/><feGaussianBlur stdDeviation="22.5"/><feColorMatrix values="0 0 0 0 0.36597 0 0 0 0 0.297014 0 0 0 0 0.783333 0 0 0 0.5 0"/><feBlend in2="BackgroundImageFix" result="effect1_dropShadow"/><feBlend in="SourceGraphic" in2="effect1_dropShadow" result="shape"/><feColorMatrix in="SourceAlpha" values="0 0 0 0 0 0 0 0 0 0 0 0 0 0 0 0 0 0 127 0" result="hardAlpha"/><feOffset/><feGaussianBlur stdDeviation="5"/><feComposite in2="hardAlpha" operator="arithmetic" k2="-1" k3="1"/><feColorMatrix values="0 0 0 0 1 0 0 0 0 1 0 0 0 0 1 0 0 0 0.25 0"/><feBlend in2="shape" result="effect2_innerShadow"/></filter><filter id="filter1_di" x="77.5" y="13" width="439" height="439" filterUnits="userSpaceOnUse" color-interpolation-filters="sRGB"><feFlood flood-opacity="0" result="BackgroundImageFix"/><feColorMatrix in="SourceAlpha" values="0 0 0 0 0 0 0 0 0 0 0 0 0 0 0 0 0 0 127 0"/><feOffset dy="15"/><feGaussianBlur stdDeviation="22.5"/><feColorMatrix values="0 0 0 0 0.36597 0 0 0 0 0.297014 0 0 0 0 0.783333 0 0 0 0.5 0"/><feBlend in2="BackgroundImageFix" result="effect1_dropShadow"/><feBlend in="SourceGraphic" in2="effect1_dropShadow" result="shape"/><feColorMatrix in="SourceAlpha" values="0 0 0 0 0 0 0 0 0 0 0 0 0 0 0 0 0 0 127 0" result="hardAlpha"/><feOffset/><feGaussianBlur stdDeviation="5"/><feComposite in2="hardAlpha" operator="arithmetic" k2="-1" k3="1"/><feColorMatrix values="0 0 0 0 1 0 0 0 0 1 0 0 0 0 1 0 0 0 0.25 0"/><feBlend in2="shape" result="effect2_innerShadow"/></filter><filter id="filter2_di" x="217.001" y="299" width="356.999" height="356.999" filterUnits="userSpaceOnUse" color-interpolation-filters="sRGB"><feFlood flood-opacity="0" result="BackgroundImageFix"/><feColorMatrix in="SourceAlpha" values="0 0 0 0 0 0 0 0 0 0 0 0 0 0 0 0 0 0 127 0"/><feOffset dy="15"/><feGaussianBlur stdDeviation="22.5"/><feColorMatrix values="0 0 0 0 0.36597 0 0 0 0 0.297014 0 0 0 0 0.783333 0 0 0 0.5 0"/><feBlend in2="BackgroundImageFix" result="effect1_dropShadow"/><feBlend in="SourceGraphic" in2="effect1_dropShadow" result="shape"/><feColorMatrix in="SourceAlpha" values="0 0 0 0 0 0 0 0 0 0 0 0 0 0 0 0 0 0 127 0" result="hardAlpha"/><feOffset/><feGaussianBlur stdDeviation="5"/><feComposite in2="hardAlpha" operator="arithmetic" k2="-1" k3="1"/><feColorMatrix values="0 0 0 0 1 0 0 0 0 1 0 0 0 0 1 0 0 0 0.25 0"/><feBlend in2="shape" result="effect2_innerShadow"/></filter><filter id="filter3_di" x="49.501" y="421.5" width="223.5" height="223.5" filterUnits="userSpaceOnUse" color-interpolation-filters="sRGB"><feFlood flood-opacity="0" result="BackgroundImageFix"/><feColorMatrix in="SourceAlpha" values="0 0 0 0 0 0 0 0 0 0 0 0 0 0 0 0 0 0 127 0"/><feOffset dy="15"/><feGaussianBlur stdDeviation="22.5"/><feColorMatrix values="0 0 0 0 0.36597 0 0 0 0 0.297014 0 0 0 0 0.783333 0 0 0 0.5 0"/><feBlend in2="BackgroundImageFix" result="effect1_dropShadow"/><feBlend in="SourceGraphic" in2="effect1_dropShadow" result="shape"/><feColorMatrix in="SourceAlpha" values="0 0 0 0 0 0 0 0 0 0 0 0 0 0 0 0 0 0 127 0" result="hardAlpha"/><feOffset/><feGaussianBlur stdDeviation="5"/><feComposite in2="hardAlpha" operator="arithmetic" k2="-1" k3="1"/><feColorMatrix values="0 0 0 0 1 0 0 0 0 1 0 0 0 0 1 0 0 0 0.25 0"/><feBlend in2="shape" result="effect2_innerShadow"/></filter><filter id="filter4_di" x="27.133" y="332.132" width="156.75" height="156.75" filterUnits="userSpaceOnUse" color-interpolation-filters="sRGB"><feFlood flood-opacity="0" result="BackgroundImageFix"/><feColorMatrix in="SourceAlpha" values="0 0 0 0 0 0 0 0 0 0 0 0 0 0 0 0 0 0 127 0"/><feOffset dy="15"/><feGaussianBlur stdDeviation="22.5"/><feColorMatrix values="0 0 0 0 0.36597 0 0 0 0 0.297014 0 0 0 0 0.783333 0 0 0 0.5 0"/><feBlend in2="BackgroundImageFix" result="effect1_dropShadow"/><feBlend in="SourceGraphic" in2="effect1_dropShadow" result="shape"/><feColorMatrix in="SourceAlpha" values="0 0 0 0 0 0 0 0 0 0 0 0 0 0 0 0 0 0 127 0" result="hardAlpha"/><feOffset/><feGaussianBlur stdDeviation="5"/><feComposite in2="hardAlpha" operator="arithmetic" k2="-1" k3="1"/><feColorMatrix values="0 0 0 0 1 0 0 0 0 1 0 0 0 0 1 0 0 0 0.25 0"/><feBlend in2="shape" result="effect2_innerShadow"/></filter><filter id="filter5_di" x="649.368" y="92.366" width="156.75" height="156.75" filterUnits="userSpaceOnUse" color-interpolation-filters="sRGB"><feFlood flood-opacity="0" result="BackgroundImageFix"/><feColorMatrix in="SourceAlpha" values="0 0 0 0 0 0 0 0 0 0 0 0 0 0 0 0 0 0 127 0"/><feOffset dy="15"/><feGaussianBlur stdDeviation="22.5"/><feColorMatrix values="0 0 0 0 0.36597 0 0 0 0 0.297014 0 0 0 0 0.783333 0 0 0 0.5 0"/><feBlend in2="BackgroundImageFix" result="effect1_dropShadow"/><feBlend in="SourceGraphic" in2="effect1_dropShadow" result="shape"/><feColorMatrix in="SourceAlpha" values="0 0 0 0 0 0 0 0 0 0 0 0 0 0 0 0 0 0 127 0" result="hardAlpha"/><feOffset/><feGaussianBlur stdDeviation="5"/><feComposite in2="hardAlpha" operator="arithmetic" k2="-1" k3="1"/><feColorMatrix values="0 0 0 0 1 0 0 0 0 1 0 0 0 0 1 0 0 0 0.25 0"/><feBlend in2="shape" result="effect2_innerShadow"/></filter></defs></svg>