<svg width="293" height="295" xmlns="http://www.w3.org/2000/svg"><path d="M146.4 0c-17.6 0-32 14.4-32 32s14.4 32 32 32c17.7 0 32-14.4 32-32S164 0 146.4 0zm0 52c-11 0-20-9-20-20s9-20 20-20 20 9 20 20-9 20-20 20zM32.4 0C14.8 0 .4 14.4.4 32s14.4 32 32 32c17.7 0 32-14.4 32-32S50 0 32.4 0zm0 52c-11 0-20-9-20-20s9-20 20-20 20 9 20 20-9 20-20 20zm228.1 12c17.7 0 32-14.4 32-32s-14.3-32-32-32c-17.6 0-32 14.4-32 32s14.4 32 32 32zm0-52c11 0 20 9 20 20s-9 20-20 20-20-9-20-20 9-20 20-20zM32.3 115.4c-17.6 0-32 14.4-32 32 0 17.7 14.4 32 32 32 17.7 0 32-14.3 32-32 0-17.6-14.3-32-32-32zm0 52c-11 0-20-9-20-20s9-20 20-20 20 9 20 20-9 20-20 20zm114.2-52c-17.6 0-32 14.4-32 32 0 17.7 14.4 32 32 32 17.7 0 32-14.3 32-32 0-17.6-14.3-32-32-32zm0 52c-11 0-20-9-20-20s9-20 20-20 20 9 20 20-9 20-20 20zm114-52c-17.6 0-32 14.4-32 32 0 17.7 14.4 32 32 32 17.7 0 32-14.3 32-32 0-17.6-14.3-32-32-32zm0 52c-11 0-20-9-20-20s9-20 20-20 20 9 20 20-9 20-20 20zM32.3 231c-17.6 0-32 14.2-32 31.8 0 17.7 14.4 32 32 32 17.7 0 32-14.3 32-32 0-17.6-14.3-32-32-32zm0 51.8c-11 0-20-9-20-20s9-20 20-20 20 9 20 20-9 20-20 20zM146.4 231c-17.6 0-32 14.2-32 31.8 0 17.7 14.4 32 32 32 17.7 0 32-14.3 32-32 0-17.6-14.3-32-32-32zm0 51.8c-11 0-20-9-20-20s9-20 20-20 20 9 20 20-9 20-20 20zM260.5 231c-17.6 0-32 14.2-32 31.8 0 17.7 14.4 32 32 32 17.7 0 32-14.3 32-32 0-17.6-14.3-32-32-32zm0 51.8c-11 0-20-9-20-20s9-20 20-20 20 9 20 20-9 20-20 20z" fill="#FFF"/></svg>