<svg width="69" height="69" viewBox="0 0 69 69" fill="none" xmlns="http://www.w3.org/2000/svg">
<mask id="mask0" mask-type="alpha" maskUnits="userSpaceOnUse" x="0" y="0" width="69" height="69">
<rect width="69" height="69" fill="#FD71AF"/>
</mask>
<g mask="url(#mask0)">
<g opacity="0.2">
<path d="M523 -74.5C523 -73.6716 522.328 -73 521.5 -73C520.672 -73 520 -73.6716 520 -74.5C520 -75.3284 520.672 -76 521.5 -76C522.328 -76 523 -75.3284 523 -74.5Z" fill="#FD71AF"/>
<path d="M543 -74.5C543 -73.6716 542.328 -73 541.5 -73C540.672 -73 540 -73.6716 540 -74.5C540 -75.3284 540.672 -76 541.5 -76C542.328 -76 543 -75.3284 543 -74.5Z" fill="#FD71AF"/>
<path d="M523 -54.5C523 -53.6716 522.328 -53 521.5 -53C520.672 -53 520 -53.6716 520 -54.5C520 -55.3284 520.672 -56 521.5 -56C522.328 -56 523 -55.3284 523 -54.5Z" fill="#FD71AF"/>
<path d="M543 -54.5C543 -53.6716 542.328 -53 541.5 -53C540.672 -53 540 -53.6716 540 -54.5C540 -55.3284 540.672 -56 541.5 -56C542.328 -56 543 -55.3284 543 -54.5Z" fill="#FD71AF"/>
<path d="M523 -34.5C523 -33.6716 522.328 -33 521.5 -33C520.672 -33 520 -33.6716 520 -34.5C520 -35.3284 520.672 -36 521.5 -36C522.328 -36 523 -35.3284 523 -34.5Z" fill="#FD71AF"/>
<path d="M543 -34.5C543 -33.6716 542.328 -33 541.5 -33C540.672 -33 540 -33.6716 540 -34.5C540 -35.3284 540.672 -36 541.5 -36C542.328 -36 543 -35.3284 543 -34.5Z" fill="#FD71AF"/>
<path d="M523 -14.5C523 -13.6716 522.328 -13 521.5 -13C520.672 -13 520 -13.6716 520 -14.5C520 -15.3284 520.672 -16 521.5 -16C522.328 -16 523 -15.3284 523 -14.5Z" fill="#FD71AF"/>
<path d="M543 -14.5C543 -13.6716 542.328 -13 541.5 -13C540.672 -13 540 -13.6716 540 -14.5C540 -15.3284 540.672 -16 541.5 -16C542.328 -16 543 -15.3284 543 -14.5Z" fill="#FD71AF"/>
<path d="M523 5.5C523 6.32843 522.328 7 521.5 7C520.672 7 520 6.32843 520 5.5C520 4.67157 520.672 4 521.5 4C522.328 4 523 4.67157 523 5.5Z" fill="#FD71AF"/>
<path d="M543 5.5C543 6.32843 542.328 7 541.5 7C540.672 7 540 6.32843 540 5.5C540 4.67157 540.672 4 541.5 4C542.328 4 543 4.67157 543 5.5Z" fill="#FD71AF"/>
<path d="M523 25.5C523 26.3284 522.328 27 521.5 27C520.672 27 520 26.3284 520 25.5C520 24.6716 520.672 24 521.5 24C522.328 24 523 24.6716 523 25.5Z" fill="#FD71AF"/>
<path d="M543 25.5C543 26.3284 542.328 27 541.5 27C540.672 27 540 26.3284 540 25.5C540 24.6716 540.672 24 541.5 24C542.328 24 543 24.6716 543 25.5Z" fill="#FD71AF"/>
<path d="M523 45.5C523 46.3284 522.328 47 521.5 47C520.672 47 520 46.3284 520 45.5C520 44.6716 520.672 44 521.5 44C522.328 44 523 44.6716 523 45.5Z" fill="#FD71AF"/>
<path d="M543 45.5C543 46.3284 542.328 47 541.5 47C540.672 47 540 46.3284 540 45.5C540 44.6716 540.672 44 541.5 44C542.328 44 543 44.6716 543 45.5Z" fill="#FD71AF"/>
<path d="M523 65.5C523 66.3284 522.328 67 521.5 67C520.672 67 520 66.3284 520 65.5C520 64.6716 520.672 64 521.5 64C522.328 64 523 64.6716 523 65.5Z" fill="#FD71AF"/>
<path d="M543 65.5C543 66.3284 542.328 67 541.5 67C540.672 67 540 66.3284 540 65.5C540 64.6716 540.672 64 541.5 64C542.328 64 543 64.6716 543 65.5Z" fill="#FD71AF"/>
<path d="M523 85.5C523 86.3284 522.328 87 521.5 87C520.672 87 520 86.3284 520 85.5C520 84.6716 520.672 84 521.5 84C522.328 84 523 84.6716 523 85.5Z" fill="#FD71AF"/>
<path d="M543 85.5C543 86.3284 542.328 87 541.5 87C540.672 87 540 86.3284 540 85.5C540 84.6716 540.672 84 541.5 84C542.328 84 543 84.6716 543 85.5Z" fill="#FD71AF"/>
<path d="M523 105.5C523 106.328 522.328 107 521.5 107C520.672 107 520 106.328 520 105.5C520 104.672 520.672 104 521.5 104C522.328 104 523 104.672 523 105.5Z" fill="#FD71AF"/>
<path d="M543 105.5C543 106.328 542.328 107 541.5 107C540.672 107 540 106.328 540 105.5C540 104.672 540.672 104 541.5 104C542.328 104 543 104.672 543 105.5Z" fill="#FD71AF"/>
<path d="M523 125.5C523 126.328 522.328 127 521.5 127C520.672 127 520 126.328 520 125.5C520 124.672 520.672 124 521.5 124C522.328 124 523 124.672 523 125.5Z" fill="#FD71AF"/>
<path d="M543 125.5C543 126.328 542.328 127 541.5 127C540.672 127 540 126.328 540 125.5C540 124.672 540.672 124 541.5 124C542.328 124 543 124.672 543 125.5Z" fill="#FD71AF"/>
<path d="M523 145.5C523 146.328 522.328 147 521.5 147C520.672 147 520 146.328 520 145.5C520 144.672 520.672 144 521.5 144C522.328 144 523 144.672 523 145.5Z" fill="#FD71AF"/>
<path d="M543 145.5C543 146.328 542.328 147 541.5 147C540.672 147 540 146.328 540 145.5C540 144.672 540.672 144 541.5 144C542.328 144 543 144.672 543 145.5Z" fill="#FD71AF"/>
<path d="M523 165.5C523 166.328 522.328 167 521.5 167C520.672 167 520 166.328 520 165.5C520 164.672 520.672 164 521.5 164C522.328 164 523 164.672 523 165.5Z" fill="#FD71AF"/>
<path d="M543 165.5C543 166.328 542.328 167 541.5 167C540.672 167 540 166.328 540 165.5C540 164.672 540.672 164 541.5 164C542.328 164 543 164.672 543 165.5Z" fill="#FD71AF"/>
<path d="M523 185.5C523 186.328 522.328 187 521.5 187C520.672 187 520 186.328 520 185.5C520 184.672 520.672 184 521.5 184C522.328 184 523 184.672 523 185.5Z" fill="#FD71AF"/>
<path d="M543 185.5C543 186.328 542.328 187 541.5 187C540.672 187 540 186.328 540 185.5C540 184.672 540.672 184 541.5 184C542.328 184 543 184.672 543 185.5Z" fill="#FD71AF"/>
<path d="M23 -74.5C23 -73.6716 22.3284 -73 21.5 -73C20.6716 -73 20 -73.6716 20 -74.5C20 -75.3284 20.6716 -76 21.5 -76C22.3284 -76 23 -75.3284 23 -74.5Z" fill="#FD71AF"/>
<path d="M43 -74.5C43 -73.6716 42.3284 -73 41.5 -73C40.6716 -73 40 -73.6716 40 -74.5C40 -75.3284 40.6716 -76 41.5 -76C42.3284 -76 43 -75.3284 43 -74.5Z" fill="#FD71AF"/>
<path d="M63 -74.5C63 -73.6716 62.3284 -73 61.5 -73C60.6716 -73 60 -73.6716 60 -74.5C60 -75.3284 60.6716 -76 61.5 -76C62.3284 -76 63 -75.3284 63 -74.5Z" fill="#FD71AF"/>
<path d="M83 -74.5C83 -73.6716 82.3284 -73 81.5 -73C80.6716 -73 80 -73.6716 80 -74.5C80 -75.3284 80.6716 -76 81.5 -76C82.3284 -76 83 -75.3284 83 -74.5Z" fill="#FD71AF"/>
<path d="M103 -74.5C103 -73.6716 102.328 -73 101.5 -73C100.672 -73 100 -73.6716 100 -74.5C100 -75.3284 100.672 -76 101.5 -76C102.328 -76 103 -75.3284 103 -74.5Z" fill="#FD71AF"/>
<path d="M123 -74.5C123 -73.6716 122.328 -73 121.5 -73C120.672 -73 120 -73.6716 120 -74.5C120 -75.3284 120.672 -76 121.5 -76C122.328 -76 123 -75.3284 123 -74.5Z" fill="#FD71AF"/>
<path d="M143 -74.5C143 -73.6716 142.328 -73 141.5 -73C140.672 -73 140 -73.6716 140 -74.5C140 -75.3284 140.672 -76 141.5 -76C142.328 -76 143 -75.3284 143 -74.5Z" fill="#FD71AF"/>
<path d="M163 -74.5C163 -73.6716 162.328 -73 161.5 -73C160.672 -73 160 -73.6716 160 -74.5C160 -75.3284 160.672 -76 161.5 -76C162.328 -76 163 -75.3284 163 -74.5Z" fill="#FD71AF"/>
<path d="M183 -74.5C183 -73.6716 182.328 -73 181.5 -73C180.672 -73 180 -73.6716 180 -74.5C180 -75.3284 180.672 -76 181.5 -76C182.328 -76 183 -75.3284 183 -74.5Z" fill="#FD71AF"/>
<path d="M203 -74.5C203 -73.6716 202.328 -73 201.5 -73C200.672 -73 200 -73.6716 200 -74.5C200 -75.3284 200.672 -76 201.5 -76C202.328 -76 203 -75.3284 203 -74.5Z" fill="#FD71AF"/>
<path d="M23 -54.5C23 -53.6716 22.3284 -53 21.5 -53C20.6716 -53 20 -53.6716 20 -54.5C20 -55.3284 20.6716 -56 21.5 -56C22.3284 -56 23 -55.3284 23 -54.5Z" fill="#FD71AF"/>
<path d="M43 -54.5C43 -53.6716 42.3284 -53 41.5 -53C40.6716 -53 40 -53.6716 40 -54.5C40 -55.3284 40.6716 -56 41.5 -56C42.3284 -56 43 -55.3284 43 -54.5Z" fill="#FD71AF"/>
<path d="M63 -54.5C63 -53.6716 62.3284 -53 61.5 -53C60.6716 -53 60 -53.6716 60 -54.5C60 -55.3284 60.6716 -56 61.5 -56C62.3284 -56 63 -55.3284 63 -54.5Z" fill="#FD71AF"/>
<path d="M83 -54.5C83 -53.6716 82.3284 -53 81.5 -53C80.6716 -53 80 -53.6716 80 -54.5C80 -55.3284 80.6716 -56 81.5 -56C82.3284 -56 83 -55.3284 83 -54.5Z" fill="#FD71AF"/>
<path d="M103 -54.5C103 -53.6716 102.328 -53 101.5 -53C100.672 -53 100 -53.6716 100 -54.5C100 -55.3284 100.672 -56 101.5 -56C102.328 -56 103 -55.3284 103 -54.5Z" fill="#FD71AF"/>
<path d="M123 -54.5C123 -53.6716 122.328 -53 121.5 -53C120.672 -53 120 -53.6716 120 -54.5C120 -55.3284 120.672 -56 121.5 -56C122.328 -56 123 -55.3284 123 -54.5Z" fill="#FD71AF"/>
<path d="M143 -54.5C143 -53.6716 142.328 -53 141.5 -53C140.672 -53 140 -53.6716 140 -54.5C140 -55.3284 140.672 -56 141.5 -56C142.328 -56 143 -55.3284 143 -54.5Z" fill="#FD71AF"/>
<path d="M163 -54.5C163 -53.6716 162.328 -53 161.5 -53C160.672 -53 160 -53.6716 160 -54.5C160 -55.3284 160.672 -56 161.5 -56C162.328 -56 163 -55.3284 163 -54.5Z" fill="#FD71AF"/>
<path d="M183 -54.5C183 -53.6716 182.328 -53 181.5 -53C180.672 -53 180 -53.6716 180 -54.5C180 -55.3284 180.672 -56 181.5 -56C182.328 -56 183 -55.3284 183 -54.5Z" fill="#FD71AF"/>
<path d="M203 -54.5C203 -53.6716 202.328 -53 201.5 -53C200.672 -53 200 -53.6716 200 -54.5C200 -55.3284 200.672 -56 201.5 -56C202.328 -56 203 -55.3284 203 -54.5Z" fill="#FD71AF"/>
<path d="M23 -34.5C23 -33.6716 22.3284 -33 21.5 -33C20.6716 -33 20 -33.6716 20 -34.5C20 -35.3284 20.6716 -36 21.5 -36C22.3284 -36 23 -35.3284 23 -34.5Z" fill="#FD71AF"/>
<path d="M43 -34.5C43 -33.6716 42.3284 -33 41.5 -33C40.6716 -33 40 -33.6716 40 -34.5C40 -35.3284 40.6716 -36 41.5 -36C42.3284 -36 43 -35.3284 43 -34.5Z" fill="#FD71AF"/>
<path d="M63 -34.5C63 -33.6716 62.3284 -33 61.5 -33C60.6716 -33 60 -33.6716 60 -34.5C60 -35.3284 60.6716 -36 61.5 -36C62.3284 -36 63 -35.3284 63 -34.5Z" fill="#FD71AF"/>
<path d="M83 -34.5C83 -33.6716 82.3284 -33 81.5 -33C80.6716 -33 80 -33.6716 80 -34.5C80 -35.3284 80.6716 -36 81.5 -36C82.3284 -36 83 -35.3284 83 -34.5Z" fill="#FD71AF"/>
<path d="M103 -34.5C103 -33.6716 102.328 -33 101.5 -33C100.672 -33 100 -33.6716 100 -34.5C100 -35.3284 100.672 -36 101.5 -36C102.328 -36 103 -35.3284 103 -34.5Z" fill="#FD71AF"/>
<path d="M123 -34.5C123 -33.6716 122.328 -33 121.5 -33C120.672 -33 120 -33.6716 120 -34.5C120 -35.3284 120.672 -36 121.5 -36C122.328 -36 123 -35.3284 123 -34.5Z" fill="#FD71AF"/>
<path d="M143 -34.5C143 -33.6716 142.328 -33 141.5 -33C140.672 -33 140 -33.6716 140 -34.5C140 -35.3284 140.672 -36 141.5 -36C142.328 -36 143 -35.3284 143 -34.5Z" fill="#FD71AF"/>
<path d="M163 -34.5C163 -33.6716 162.328 -33 161.5 -33C160.672 -33 160 -33.6716 160 -34.5C160 -35.3284 160.672 -36 161.5 -36C162.328 -36 163 -35.3284 163 -34.5Z" fill="#FD71AF"/>
<path d="M183 -34.5C183 -33.6716 182.328 -33 181.5 -33C180.672 -33 180 -33.6716 180 -34.5C180 -35.3284 180.672 -36 181.5 -36C182.328 -36 183 -35.3284 183 -34.5Z" fill="#FD71AF"/>
<path d="M203 -34.5C203 -33.6716 202.328 -33 201.5 -33C200.672 -33 200 -33.6716 200 -34.5C200 -35.3284 200.672 -36 201.5 -36C202.328 -36 203 -35.3284 203 -34.5Z" fill="#FD71AF"/>
<path d="M23 -14.5C23 -13.6716 22.3284 -13 21.5 -13C20.6716 -13 20 -13.6716 20 -14.5C20 -15.3284 20.6716 -16 21.5 -16C22.3284 -16 23 -15.3284 23 -14.5Z" fill="#FD71AF"/>
<path d="M43 -14.5C43 -13.6716 42.3284 -13 41.5 -13C40.6716 -13 40 -13.6716 40 -14.5C40 -15.3284 40.6716 -16 41.5 -16C42.3284 -16 43 -15.3284 43 -14.5Z" fill="#FD71AF"/>
<path d="M63 -14.5C63 -13.6716 62.3284 -13 61.5 -13C60.6716 -13 60 -13.6716 60 -14.5C60 -15.3284 60.6716 -16 61.5 -16C62.3284 -16 63 -15.3284 63 -14.5Z" fill="#FD71AF"/>
<path d="M83 -14.5C83 -13.6716 82.3284 -13 81.5 -13C80.6716 -13 80 -13.6716 80 -14.5C80 -15.3284 80.6716 -16 81.5 -16C82.3284 -16 83 -15.3284 83 -14.5Z" fill="#FD71AF"/>
<path d="M103 -14.5C103 -13.6716 102.328 -13 101.5 -13C100.672 -13 100 -13.6716 100 -14.5C100 -15.3284 100.672 -16 101.5 -16C102.328 -16 103 -15.3284 103 -14.5Z" fill="#FD71AF"/>
<path d="M123 -14.5C123 -13.6716 122.328 -13 121.5 -13C120.672 -13 120 -13.6716 120 -14.5C120 -15.3284 120.672 -16 121.5 -16C122.328 -16 123 -15.3284 123 -14.5Z" fill="#FD71AF"/>
<path d="M143 -14.5C143 -13.6716 142.328 -13 141.5 -13C140.672 -13 140 -13.6716 140 -14.5C140 -15.3284 140.672 -16 141.5 -16C142.328 -16 143 -15.3284 143 -14.5Z" fill="#FD71AF"/>
<path d="M163 -14.5C163 -13.6716 162.328 -13 161.5 -13C160.672 -13 160 -13.6716 160 -14.5C160 -15.3284 160.672 -16 161.5 -16C162.328 -16 163 -15.3284 163 -14.5Z" fill="#FD71AF"/>
<path d="M183 -14.5C183 -13.6716 182.328 -13 181.5 -13C180.672 -13 180 -13.6716 180 -14.5C180 -15.3284 180.672 -16 181.5 -16C182.328 -16 183 -15.3284 183 -14.5Z" fill="#FD71AF"/>
<path d="M203 -14.5C203 -13.6716 202.328 -13 201.5 -13C200.672 -13 200 -13.6716 200 -14.5C200 -15.3284 200.672 -16 201.5 -16C202.328 -16 203 -15.3284 203 -14.5Z" fill="#FD71AF"/>
<path d="M23 5.5C23 6.32843 22.3284 7 21.5 7C20.6716 7 20 6.32843 20 5.5C20 4.67157 20.6716 4 21.5 4C22.3284 4 23 4.67157 23 5.5Z" fill="#FD71AF"/>
<path d="M43 5.5C43 6.32843 42.3284 7 41.5 7C40.6716 7 40 6.32843 40 5.5C40 4.67157 40.6716 4 41.5 4C42.3284 4 43 4.67157 43 5.5Z" fill="#FD71AF"/>
<path d="M63 5.5C63 6.32843 62.3284 7 61.5 7C60.6716 7 60 6.32843 60 5.5C60 4.67157 60.6716 4 61.5 4C62.3284 4 63 4.67157 63 5.5Z" fill="#FD71AF"/>
<path d="M83 5.5C83 6.32843 82.3284 7 81.5 7C80.6716 7 80 6.32843 80 5.5C80 4.67157 80.6716 4 81.5 4C82.3284 4 83 4.67157 83 5.5Z" fill="#FD71AF"/>
<path d="M103 5.5C103 6.32843 102.328 7 101.5 7C100.672 7 100 6.32843 100 5.5C100 4.67157 100.672 4 101.5 4C102.328 4 103 4.67157 103 5.5Z" fill="#FD71AF"/>
<path d="M123 5.5C123 6.32843 122.328 7 121.5 7C120.672 7 120 6.32843 120 5.5C120 4.67157 120.672 4 121.5 4C122.328 4 123 4.67157 123 5.5Z" fill="#FD71AF"/>
<path d="M143 5.5C143 6.32843 142.328 7 141.5 7C140.672 7 140 6.32843 140 5.5C140 4.67157 140.672 4 141.5 4C142.328 4 143 4.67157 143 5.5Z" fill="#FD71AF"/>
<path d="M163 5.5C163 6.32843 162.328 7 161.5 7C160.672 7 160 6.32843 160 5.5C160 4.67157 160.672 4 161.5 4C162.328 4 163 4.67157 163 5.5Z" fill="#FD71AF"/>
<path d="M183 5.5C183 6.32843 182.328 7 181.5 7C180.672 7 180 6.32843 180 5.5C180 4.67157 180.672 4 181.5 4C182.328 4 183 4.67157 183 5.5Z" fill="#FD71AF"/>
<path d="M203 5.5C203 6.32843 202.328 7 201.5 7C200.672 7 200 6.32843 200 5.5C200 4.67157 200.672 4 201.5 4C202.328 4 203 4.67157 203 5.5Z" fill="#FD71AF"/>
<path d="M23 25.5C23 26.3284 22.3284 27 21.5 27C20.6716 27 20 26.3284 20 25.5C20 24.6716 20.6716 24 21.5 24C22.3284 24 23 24.6716 23 25.5Z" fill="#FD71AF"/>
<path d="M43 25.5C43 26.3284 42.3284 27 41.5 27C40.6716 27 40 26.3284 40 25.5C40 24.6716 40.6716 24 41.5 24C42.3284 24 43 24.6716 43 25.5Z" fill="#FD71AF"/>
<path d="M63 25.5C63 26.3284 62.3284 27 61.5 27C60.6716 27 60 26.3284 60 25.5C60 24.6716 60.6716 24 61.5 24C62.3284 24 63 24.6716 63 25.5Z" fill="#FD71AF"/>
<path d="M83 25.5C83 26.3284 82.3284 27 81.5 27C80.6716 27 80 26.3284 80 25.5C80 24.6716 80.6716 24 81.5 24C82.3284 24 83 24.6716 83 25.5Z" fill="#FD71AF"/>
<path d="M103 25.5C103 26.3284 102.328 27 101.5 27C100.672 27 100 26.3284 100 25.5C100 24.6716 100.672 24 101.5 24C102.328 24 103 24.6716 103 25.5Z" fill="#FD71AF"/>
<path d="M123 25.5C123 26.3284 122.328 27 121.5 27C120.672 27 120 26.3284 120 25.5C120 24.6716 120.672 24 121.5 24C122.328 24 123 24.6716 123 25.5Z" fill="#FD71AF"/>
<path d="M143 25.5C143 26.3284 142.328 27 141.5 27C140.672 27 140 26.3284 140 25.5C140 24.6716 140.672 24 141.5 24C142.328 24 143 24.6716 143 25.5Z" fill="#FD71AF"/>
<path d="M163 25.5C163 26.3284 162.328 27 161.5 27C160.672 27 160 26.3284 160 25.5C160 24.6716 160.672 24 161.5 24C162.328 24 163 24.6716 163 25.5Z" fill="#FD71AF"/>
<path d="M183 25.5C183 26.3284 182.328 27 181.5 27C180.672 27 180 26.3284 180 25.5C180 24.6716 180.672 24 181.5 24C182.328 24 183 24.6716 183 25.5Z" fill="#FD71AF"/>
<path d="M203 25.5C203 26.3284 202.328 27 201.5 27C200.672 27 200 26.3284 200 25.5C200 24.6716 200.672 24 201.5 24C202.328 24 203 24.6716 203 25.5Z" fill="#FD71AF"/>
<path d="M223 -74.5C223 -73.6716 222.328 -73 221.5 -73C220.672 -73 220 -73.6716 220 -74.5C220 -75.3284 220.672 -76 221.5 -76C222.328 -76 223 -75.3284 223 -74.5Z" fill="#FD71AF"/>
<path d="M243 -74.5C243 -73.6716 242.328 -73 241.5 -73C240.672 -73 240 -73.6716 240 -74.5C240 -75.3284 240.672 -76 241.5 -76C242.328 -76 243 -75.3284 243 -74.5Z" fill="#FD71AF"/>
<path d="M263 -74.5C263 -73.6716 262.328 -73 261.5 -73C260.672 -73 260 -73.6716 260 -74.5C260 -75.3284 260.672 -76 261.5 -76C262.328 -76 263 -75.3284 263 -74.5Z" fill="#FD71AF"/>
<path d="M283 -74.5C283 -73.6716 282.328 -73 281.5 -73C280.672 -73 280 -73.6716 280 -74.5C280 -75.3284 280.672 -76 281.5 -76C282.328 -76 283 -75.3284 283 -74.5Z" fill="#FD71AF"/>
<path d="M303 -74.5C303 -73.6716 302.328 -73 301.5 -73C300.672 -73 300 -73.6716 300 -74.5C300 -75.3284 300.672 -76 301.5 -76C302.328 -76 303 -75.3284 303 -74.5Z" fill="#FD71AF"/>
<path d="M323 -74.5C323 -73.6716 322.328 -73 321.5 -73C320.672 -73 320 -73.6716 320 -74.5C320 -75.3284 320.672 -76 321.5 -76C322.328 -76 323 -75.3284 323 -74.5Z" fill="#FD71AF"/>
<path d="M343 -74.5C343 -73.6716 342.328 -73 341.5 -73C340.672 -73 340 -73.6716 340 -74.5C340 -75.3284 340.672 -76 341.5 -76C342.328 -76 343 -75.3284 343 -74.5Z" fill="#FD71AF"/>
<path d="M363 -74.5C363 -73.6716 362.328 -73 361.5 -73C360.672 -73 360 -73.6716 360 -74.5C360 -75.3284 360.672 -76 361.5 -76C362.328 -76 363 -75.3284 363 -74.5Z" fill="#FD71AF"/>
<path d="M383 -74.5C383 -73.6716 382.328 -73 381.5 -73C380.672 -73 380 -73.6716 380 -74.5C380 -75.3284 380.672 -76 381.5 -76C382.328 -76 383 -75.3284 383 -74.5Z" fill="#FD71AF"/>
<path d="M403 -74.5C403 -73.6716 402.328 -73 401.5 -73C400.672 -73 400 -73.6716 400 -74.5C400 -75.3284 400.672 -76 401.5 -76C402.328 -76 403 -75.3284 403 -74.5Z" fill="#FD71AF"/>
<path d="M423 -74.5C423 -73.6716 422.328 -73 421.5 -73C420.672 -73 420 -73.6716 420 -74.5C420 -75.3284 420.672 -76 421.5 -76C422.328 -76 423 -75.3284 423 -74.5Z" fill="#FD71AF"/>
<path d="M443 -74.5C443 -73.6716 442.328 -73 441.5 -73C440.672 -73 440 -73.6716 440 -74.5C440 -75.3284 440.672 -76 441.5 -76C442.328 -76 443 -75.3284 443 -74.5Z" fill="#FD71AF"/>
<path d="M463 -74.5C463 -73.6716 462.328 -73 461.5 -73C460.672 -73 460 -73.6716 460 -74.5C460 -75.3284 460.672 -76 461.5 -76C462.328 -76 463 -75.3284 463 -74.5Z" fill="#FD71AF"/>
<path d="M483 -74.5C483 -73.6716 482.328 -73 481.5 -73C480.672 -73 480 -73.6716 480 -74.5C480 -75.3284 480.672 -76 481.5 -76C482.328 -76 483 -75.3284 483 -74.5Z" fill="#FD71AF"/>
<path d="M503 -74.5C503 -73.6716 502.328 -73 501.5 -73C500.672 -73 500 -73.6716 500 -74.5C500 -75.3284 500.672 -76 501.5 -76C502.328 -76 503 -75.3284 503 -74.5Z" fill="#FD71AF"/>
<path d="M223 -54.5C223 -53.6716 222.328 -53 221.5 -53C220.672 -53 220 -53.6716 220 -54.5C220 -55.3284 220.672 -56 221.5 -56C222.328 -56 223 -55.3284 223 -54.5Z" fill="#FD71AF"/>
<path d="M243 -54.5C243 -53.6716 242.328 -53 241.5 -53C240.672 -53 240 -53.6716 240 -54.5C240 -55.3284 240.672 -56 241.5 -56C242.328 -56 243 -55.3284 243 -54.5Z" fill="#FD71AF"/>
<path d="M263 -54.5C263 -53.6716 262.328 -53 261.5 -53C260.672 -53 260 -53.6716 260 -54.5C260 -55.3284 260.672 -56 261.5 -56C262.328 -56 263 -55.3284 263 -54.5Z" fill="#FD71AF"/>
<path d="M283 -54.5C283 -53.6716 282.328 -53 281.5 -53C280.672 -53 280 -53.6716 280 -54.5C280 -55.3284 280.672 -56 281.5 -56C282.328 -56 283 -55.3284 283 -54.5Z" fill="#FD71AF"/>
<path d="M303 -54.5C303 -53.6716 302.328 -53 301.5 -53C300.672 -53 300 -53.6716 300 -54.5C300 -55.3284 300.672 -56 301.5 -56C302.328 -56 303 -55.3284 303 -54.5Z" fill="#FD71AF"/>
<path d="M323 -54.5C323 -53.6716 322.328 -53 321.5 -53C320.672 -53 320 -53.6716 320 -54.5C320 -55.3284 320.672 -56 321.5 -56C322.328 -56 323 -55.3284 323 -54.5Z" fill="#FD71AF"/>
<path d="M343 -54.5C343 -53.6716 342.328 -53 341.5 -53C340.672 -53 340 -53.6716 340 -54.5C340 -55.3284 340.672 -56 341.5 -56C342.328 -56 343 -55.3284 343 -54.5Z" fill="#FD71AF"/>
<path d="M363 -54.5C363 -53.6716 362.328 -53 361.5 -53C360.672 -53 360 -53.6716 360 -54.5C360 -55.3284 360.672 -56 361.5 -56C362.328 -56 363 -55.3284 363 -54.5Z" fill="#FD71AF"/>
<path d="M383 -54.5C383 -53.6716 382.328 -53 381.5 -53C380.672 -53 380 -53.6716 380 -54.5C380 -55.3284 380.672 -56 381.5 -56C382.328 -56 383 -55.3284 383 -54.5Z" fill="#FD71AF"/>
<path d="M403 -54.5C403 -53.6716 402.328 -53 401.5 -53C400.672 -53 400 -53.6716 400 -54.5C400 -55.3284 400.672 -56 401.5 -56C402.328 -56 403 -55.3284 403 -54.5Z" fill="#FD71AF"/>
<path d="M423 -54.5C423 -53.6716 422.328 -53 421.5 -53C420.672 -53 420 -53.6716 420 -54.5C420 -55.3284 420.672 -56 421.5 -56C422.328 -56 423 -55.3284 423 -54.5Z" fill="#FD71AF"/>
<path d="M443 -54.5C443 -53.6716 442.328 -53 441.5 -53C440.672 -53 440 -53.6716 440 -54.5C440 -55.3284 440.672 -56 441.5 -56C442.328 -56 443 -55.3284 443 -54.5Z" fill="#FD71AF"/>
<path d="M463 -54.5C463 -53.6716 462.328 -53 461.5 -53C460.672 -53 460 -53.6716 460 -54.5C460 -55.3284 460.672 -56 461.5 -56C462.328 -56 463 -55.3284 463 -54.5Z" fill="#FD71AF"/>
<path d="M483 -54.5C483 -53.6716 482.328 -53 481.5 -53C480.672 -53 480 -53.6716 480 -54.5C480 -55.3284 480.672 -56 481.5 -56C482.328 -56 483 -55.3284 483 -54.5Z" fill="#FD71AF"/>
<path d="M503 -54.5C503 -53.6716 502.328 -53 501.5 -53C500.672 -53 500 -53.6716 500 -54.5C500 -55.3284 500.672 -56 501.5 -56C502.328 -56 503 -55.3284 503 -54.5Z" fill="#FD71AF"/>
<path d="M223 -34.5C223 -33.6716 222.328 -33 221.5 -33C220.672 -33 220 -33.6716 220 -34.5C220 -35.3284 220.672 -36 221.5 -36C222.328 -36 223 -35.3284 223 -34.5Z" fill="#FD71AF"/>
<path d="M243 -34.5C243 -33.6716 242.328 -33 241.5 -33C240.672 -33 240 -33.6716 240 -34.5C240 -35.3284 240.672 -36 241.5 -36C242.328 -36 243 -35.3284 243 -34.5Z" fill="#FD71AF"/>
<path d="M263 -34.5C263 -33.6716 262.328 -33 261.5 -33C260.672 -33 260 -33.6716 260 -34.5C260 -35.3284 260.672 -36 261.5 -36C262.328 -36 263 -35.3284 263 -34.5Z" fill="#FD71AF"/>
<path d="M283 -34.5C283 -33.6716 282.328 -33 281.5 -33C280.672 -33 280 -33.6716 280 -34.5C280 -35.3284 280.672 -36 281.5 -36C282.328 -36 283 -35.3284 283 -34.5Z" fill="#FD71AF"/>
<path d="M303 -34.5C303 -33.6716 302.328 -33 301.5 -33C300.672 -33 300 -33.6716 300 -34.5C300 -35.3284 300.672 -36 301.5 -36C302.328 -36 303 -35.3284 303 -34.5Z" fill="#FD71AF"/>
<path d="M323 -34.5C323 -33.6716 322.328 -33 321.5 -33C320.672 -33 320 -33.6716 320 -34.5C320 -35.3284 320.672 -36 321.5 -36C322.328 -36 323 -35.3284 323 -34.5Z" fill="#FD71AF"/>
<path d="M343 -34.5C343 -33.6716 342.328 -33 341.5 -33C340.672 -33 340 -33.6716 340 -34.5C340 -35.3284 340.672 -36 341.5 -36C342.328 -36 343 -35.3284 343 -34.5Z" fill="#FD71AF"/>
<path d="M363 -34.5C363 -33.6716 362.328 -33 361.5 -33C360.672 -33 360 -33.6716 360 -34.5C360 -35.3284 360.672 -36 361.5 -36C362.328 -36 363 -35.3284 363 -34.5Z" fill="#FD71AF"/>
<path d="M383 -34.5C383 -33.6716 382.328 -33 381.5 -33C380.672 -33 380 -33.6716 380 -34.5C380 -35.3284 380.672 -36 381.5 -36C382.328 -36 383 -35.3284 383 -34.5Z" fill="#FD71AF"/>
<path d="M403 -34.5C403 -33.6716 402.328 -33 401.5 -33C400.672 -33 400 -33.6716 400 -34.5C400 -35.3284 400.672 -36 401.5 -36C402.328 -36 403 -35.3284 403 -34.5Z" fill="#FD71AF"/>
<path d="M423 -34.5C423 -33.6716 422.328 -33 421.5 -33C420.672 -33 420 -33.6716 420 -34.5C420 -35.3284 420.672 -36 421.5 -36C422.328 -36 423 -35.3284 423 -34.5Z" fill="#FD71AF"/>
<path d="M443 -34.5C443 -33.6716 442.328 -33 441.5 -33C440.672 -33 440 -33.6716 440 -34.5C440 -35.3284 440.672 -36 441.5 -36C442.328 -36 443 -35.3284 443 -34.5Z" fill="#FD71AF"/>
<path d="M463 -34.5C463 -33.6716 462.328 -33 461.5 -33C460.672 -33 460 -33.6716 460 -34.5C460 -35.3284 460.672 -36 461.5 -36C462.328 -36 463 -35.3284 463 -34.5Z" fill="#FD71AF"/>
<path d="M483 -34.5C483 -33.6716 482.328 -33 481.5 -33C480.672 -33 480 -33.6716 480 -34.5C480 -35.3284 480.672 -36 481.5 -36C482.328 -36 483 -35.3284 483 -34.5Z" fill="#FD71AF"/>
<path d="M503 -34.5C503 -33.6716 502.328 -33 501.5 -33C500.672 -33 500 -33.6716 500 -34.5C500 -35.3284 500.672 -36 501.5 -36C502.328 -36 503 -35.3284 503 -34.5Z" fill="#FD71AF"/>
<path d="M223 -14.5C223 -13.6716 222.328 -13 221.5 -13C220.672 -13 220 -13.6716 220 -14.5C220 -15.3284 220.672 -16 221.5 -16C222.328 -16 223 -15.3284 223 -14.5Z" fill="#FD71AF"/>
<path d="M243 -14.5C243 -13.6716 242.328 -13 241.5 -13C240.672 -13 240 -13.6716 240 -14.5C240 -15.3284 240.672 -16 241.5 -16C242.328 -16 243 -15.3284 243 -14.5Z" fill="#FD71AF"/>
<path d="M263 -14.5C263 -13.6716 262.328 -13 261.5 -13C260.672 -13 260 -13.6716 260 -14.5C260 -15.3284 260.672 -16 261.5 -16C262.328 -16 263 -15.3284 263 -14.5Z" fill="#FD71AF"/>
<path d="M283 -14.5C283 -13.6716 282.328 -13 281.5 -13C280.672 -13 280 -13.6716 280 -14.5C280 -15.3284 280.672 -16 281.5 -16C282.328 -16 283 -15.3284 283 -14.5Z" fill="#FD71AF"/>
<path d="M303 -14.5C303 -13.6716 302.328 -13 301.5 -13C300.672 -13 300 -13.6716 300 -14.5C300 -15.3284 300.672 -16 301.5 -16C302.328 -16 303 -15.3284 303 -14.5Z" fill="#FD71AF"/>
<path d="M323 -14.5C323 -13.6716 322.328 -13 321.5 -13C320.672 -13 320 -13.6716 320 -14.5C320 -15.3284 320.672 -16 321.5 -16C322.328 -16 323 -15.3284 323 -14.5Z" fill="#FD71AF"/>
<path d="M343 -14.5C343 -13.6716 342.328 -13 341.5 -13C340.672 -13 340 -13.6716 340 -14.5C340 -15.3284 340.672 -16 341.5 -16C342.328 -16 343 -15.3284 343 -14.5Z" fill="#FD71AF"/>
<path d="M363 -14.5C363 -13.6716 362.328 -13 361.5 -13C360.672 -13 360 -13.6716 360 -14.5C360 -15.3284 360.672 -16 361.5 -16C362.328 -16 363 -15.3284 363 -14.5Z" fill="#FD71AF"/>
<path d="M383 -14.5C383 -13.6716 382.328 -13 381.5 -13C380.672 -13 380 -13.6716 380 -14.5C380 -15.3284 380.672 -16 381.5 -16C382.328 -16 383 -15.3284 383 -14.5Z" fill="#FD71AF"/>
<path d="M403 -14.5C403 -13.6716 402.328 -13 401.5 -13C400.672 -13 400 -13.6716 400 -14.5C400 -15.3284 400.672 -16 401.5 -16C402.328 -16 403 -15.3284 403 -14.5Z" fill="#FD71AF"/>
<path d="M423 -14.5C423 -13.6716 422.328 -13 421.5 -13C420.672 -13 420 -13.6716 420 -14.5C420 -15.3284 420.672 -16 421.5 -16C422.328 -16 423 -15.3284 423 -14.5Z" fill="#FD71AF"/>
<path d="M443 -14.5C443 -13.6716 442.328 -13 441.5 -13C440.672 -13 440 -13.6716 440 -14.5C440 -15.3284 440.672 -16 441.5 -16C442.328 -16 443 -15.3284 443 -14.5Z" fill="#FD71AF"/>
<path d="M463 -14.5C463 -13.6716 462.328 -13 461.5 -13C460.672 -13 460 -13.6716 460 -14.5C460 -15.3284 460.672 -16 461.5 -16C462.328 -16 463 -15.3284 463 -14.5Z" fill="#FD71AF"/>
<path d="M483 -14.5C483 -13.6716 482.328 -13 481.5 -13C480.672 -13 480 -13.6716 480 -14.5C480 -15.3284 480.672 -16 481.5 -16C482.328 -16 483 -15.3284 483 -14.5Z" fill="#FD71AF"/>
<path d="M503 -14.5C503 -13.6716 502.328 -13 501.5 -13C500.672 -13 500 -13.6716 500 -14.5C500 -15.3284 500.672 -16 501.5 -16C502.328 -16 503 -15.3284 503 -14.5Z" fill="#FD71AF"/>
<path d="M223 5.5C223 6.32843 222.328 7 221.5 7C220.672 7 220 6.32843 220 5.5C220 4.67157 220.672 4 221.5 4C222.328 4 223 4.67157 223 5.5Z" fill="#FD71AF"/>
<path d="M243 5.5C243 6.32843 242.328 7 241.5 7C240.672 7 240 6.32843 240 5.5C240 4.67157 240.672 4 241.5 4C242.328 4 243 4.67157 243 5.5Z" fill="#FD71AF"/>
<path d="M263 5.5C263 6.32843 262.328 7 261.5 7C260.672 7 260 6.32843 260 5.5C260 4.67157 260.672 4 261.5 4C262.328 4 263 4.67157 263 5.5Z" fill="#FD71AF"/>
<path d="M283 5.5C283 6.32843 282.328 7 281.5 7C280.672 7 280 6.32843 280 5.5C280 4.67157 280.672 4 281.5 4C282.328 4 283 4.67157 283 5.5Z" fill="#FD71AF"/>
<path d="M303 5.5C303 6.32843 302.328 7 301.5 7C300.672 7 300 6.32843 300 5.5C300 4.67157 300.672 4 301.5 4C302.328 4 303 4.67157 303 5.5Z" fill="#FD71AF"/>
<path d="M323 5.5C323 6.32843 322.328 7 321.5 7C320.672 7 320 6.32843 320 5.5C320 4.67157 320.672 4 321.5 4C322.328 4 323 4.67157 323 5.5Z" fill="#FD71AF"/>
<path d="M343 5.5C343 6.32843 342.328 7 341.5 7C340.672 7 340 6.32843 340 5.5C340 4.67157 340.672 4 341.5 4C342.328 4 343 4.67157 343 5.5Z" fill="#FD71AF"/>
<path d="M363 5.5C363 6.32843 362.328 7 361.5 7C360.672 7 360 6.32843 360 5.5C360 4.67157 360.672 4 361.5 4C362.328 4 363 4.67157 363 5.5Z" fill="#FD71AF"/>
<path d="M383 5.5C383 6.32843 382.328 7 381.5 7C380.672 7 380 6.32843 380 5.5C380 4.67157 380.672 4 381.5 4C382.328 4 383 4.67157 383 5.5Z" fill="#FD71AF"/>
<path d="M403 5.5C403 6.32843 402.328 7 401.5 7C400.672 7 400 6.32843 400 5.5C400 4.67157 400.672 4 401.5 4C402.328 4 403 4.67157 403 5.5Z" fill="#FD71AF"/>
<path d="M423 5.5C423 6.32843 422.328 7 421.5 7C420.672 7 420 6.32843 420 5.5C420 4.67157 420.672 4 421.5 4C422.328 4 423 4.67157 423 5.5Z" fill="#FD71AF"/>
<path d="M443 5.5C443 6.32843 442.328 7 441.5 7C440.672 7 440 6.32843 440 5.5C440 4.67157 440.672 4 441.5 4C442.328 4 443 4.67157 443 5.5Z" fill="#FD71AF"/>
<path d="M463 5.5C463 6.32843 462.328 7 461.5 7C460.672 7 460 6.32843 460 5.5C460 4.67157 460.672 4 461.5 4C462.328 4 463 4.67157 463 5.5Z" fill="#FD71AF"/>
<path d="M483 5.5C483 6.32843 482.328 7 481.5 7C480.672 7 480 6.32843 480 5.5C480 4.67157 480.672 4 481.5 4C482.328 4 483 4.67157 483 5.5Z" fill="#FD71AF"/>
<path d="M503 5.5C503 6.32843 502.328 7 501.5 7C500.672 7 500 6.32843 500 5.5C500 4.67157 500.672 4 501.5 4C502.328 4 503 4.67157 503 5.5Z" fill="#FD71AF"/>
<path d="M223 25.5C223 26.3284 222.328 27 221.5 27C220.672 27 220 26.3284 220 25.5C220 24.6716 220.672 24 221.5 24C222.328 24 223 24.6716 223 25.5Z" fill="#FD71AF"/>
<path d="M243 25.5C243 26.3284 242.328 27 241.5 27C240.672 27 240 26.3284 240 25.5C240 24.6716 240.672 24 241.5 24C242.328 24 243 24.6716 243 25.5Z" fill="#FD71AF"/>
<path d="M263 25.5C263 26.3284 262.328 27 261.5 27C260.672 27 260 26.3284 260 25.5C260 24.6716 260.672 24 261.5 24C262.328 24 263 24.6716 263 25.5Z" fill="#FD71AF"/>
<path d="M283 25.5C283 26.3284 282.328 27 281.5 27C280.672 27 280 26.3284 280 25.5C280 24.6716 280.672 24 281.5 24C282.328 24 283 24.6716 283 25.5Z" fill="#FD71AF"/>
<path d="M303 25.5C303 26.3284 302.328 27 301.5 27C300.672 27 300 26.3284 300 25.5C300 24.6716 300.672 24 301.5 24C302.328 24 303 24.6716 303 25.5Z" fill="#FD71AF"/>
<path d="M323 25.5C323 26.3284 322.328 27 321.5 27C320.672 27 320 26.3284 320 25.5C320 24.6716 320.672 24 321.5 24C322.328 24 323 24.6716 323 25.5Z" fill="#FD71AF"/>
<path d="M343 25.5C343 26.3284 342.328 27 341.5 27C340.672 27 340 26.3284 340 25.5C340 24.6716 340.672 24 341.5 24C342.328 24 343 24.6716 343 25.5Z" fill="#FD71AF"/>
<path d="M363 25.5C363 26.3284 362.328 27 361.5 27C360.672 27 360 26.3284 360 25.5C360 24.6716 360.672 24 361.5 24C362.328 24 363 24.6716 363 25.5Z" fill="#FD71AF"/>
<path d="M383 25.5C383 26.3284 382.328 27 381.5 27C380.672 27 380 26.3284 380 25.5C380 24.6716 380.672 24 381.5 24C382.328 24 383 24.6716 383 25.5Z" fill="#FD71AF"/>
<path d="M403 25.5C403 26.3284 402.328 27 401.5 27C400.672 27 400 26.3284 400 25.5C400 24.6716 400.672 24 401.5 24C402.328 24 403 24.6716 403 25.5Z" fill="#FD71AF"/>
<path d="M423 25.5C423 26.3284 422.328 27 421.5 27C420.672 27 420 26.3284 420 25.5C420 24.6716 420.672 24 421.5 24C422.328 24 423 24.6716 423 25.5Z" fill="#FD71AF"/>
<path d="M443 25.5C443 26.3284 442.328 27 441.5 27C440.672 27 440 26.3284 440 25.5C440 24.6716 440.672 24 441.5 24C442.328 24 443 24.6716 443 25.5Z" fill="#FD71AF"/>
<path d="M463 25.5C463 26.3284 462.328 27 461.5 27C460.672 27 460 26.3284 460 25.5C460 24.6716 460.672 24 461.5 24C462.328 24 463 24.6716 463 25.5Z" fill="#FD71AF"/>
<path d="M483 25.5C483 26.3284 482.328 27 481.5 27C480.672 27 480 26.3284 480 25.5C480 24.6716 480.672 24 481.5 24C482.328 24 483 24.6716 483 25.5Z" fill="#FD71AF"/>
<path d="M503 25.5C503 26.3284 502.328 27 501.5 27C500.672 27 500 26.3284 500 25.5C500 24.6716 500.672 24 501.5 24C502.328 24 503 24.6716 503 25.5Z" fill="#FD71AF"/>
<path d="M23 45.5C23 46.3284 22.3284 47 21.5 47C20.6716 47 20 46.3284 20 45.5C20 44.6716 20.6716 44 21.5 44C22.3284 44 23 44.6716 23 45.5Z" fill="#FD71AF"/>
<path d="M43 45.5C43 46.3284 42.3284 47 41.5 47C40.6716 47 40 46.3284 40 45.5C40 44.6716 40.6716 44 41.5 44C42.3284 44 43 44.6716 43 45.5Z" fill="#FD71AF"/>
<path d="M63 45.5C63 46.3284 62.3284 47 61.5 47C60.6716 47 60 46.3284 60 45.5C60 44.6716 60.6716 44 61.5 44C62.3284 44 63 44.6716 63 45.5Z" fill="#FD71AF"/>
<path d="M83 45.5C83 46.3284 82.3284 47 81.5 47C80.6716 47 80 46.3284 80 45.5C80 44.6716 80.6716 44 81.5 44C82.3284 44 83 44.6716 83 45.5Z" fill="#FD71AF"/>
<path d="M103 45.5C103 46.3284 102.328 47 101.5 47C100.672 47 100 46.3284 100 45.5C100 44.6716 100.672 44 101.5 44C102.328 44 103 44.6716 103 45.5Z" fill="#FD71AF"/>
<path d="M123 45.5C123 46.3284 122.328 47 121.5 47C120.672 47 120 46.3284 120 45.5C120 44.6716 120.672 44 121.5 44C122.328 44 123 44.6716 123 45.5Z" fill="#FD71AF"/>
<path d="M143 45.5C143 46.3284 142.328 47 141.5 47C140.672 47 140 46.3284 140 45.5C140 44.6716 140.672 44 141.5 44C142.328 44 143 44.6716 143 45.5Z" fill="#FD71AF"/>
<path d="M163 45.5C163 46.3284 162.328 47 161.5 47C160.672 47 160 46.3284 160 45.5C160 44.6716 160.672 44 161.5 44C162.328 44 163 44.6716 163 45.5Z" fill="#FD71AF"/>
<path d="M183 45.5C183 46.3284 182.328 47 181.5 47C180.672 47 180 46.3284 180 45.5C180 44.6716 180.672 44 181.5 44C182.328 44 183 44.6716 183 45.5Z" fill="#FD71AF"/>
<path d="M203 45.5C203 46.3284 202.328 47 201.5 47C200.672 47 200 46.3284 200 45.5C200 44.6716 200.672 44 201.5 44C202.328 44 203 44.6716 203 45.5Z" fill="#FD71AF"/>
<path d="M23 65.5C23 66.3284 22.3284 67 21.5 67C20.6716 67 20 66.3284 20 65.5C20 64.6716 20.6716 64 21.5 64C22.3284 64 23 64.6716 23 65.5Z" fill="#FD71AF"/>
<path d="M43 65.5C43 66.3284 42.3284 67 41.5 67C40.6716 67 40 66.3284 40 65.5C40 64.6716 40.6716 64 41.5 64C42.3284 64 43 64.6716 43 65.5Z" fill="#FD71AF"/>
<path d="M63 65.5C63 66.3284 62.3284 67 61.5 67C60.6716 67 60 66.3284 60 65.5C60 64.6716 60.6716 64 61.5 64C62.3284 64 63 64.6716 63 65.5Z" fill="#FD71AF"/>
<path d="M83 65.5C83 66.3284 82.3284 67 81.5 67C80.6716 67 80 66.3284 80 65.5C80 64.6716 80.6716 64 81.5 64C82.3284 64 83 64.6716 83 65.5Z" fill="#FD71AF"/>
<path d="M103 65.5C103 66.3284 102.328 67 101.5 67C100.672 67 100 66.3284 100 65.5C100 64.6716 100.672 64 101.5 64C102.328 64 103 64.6716 103 65.5Z" fill="#FD71AF"/>
<path d="M123 65.5C123 66.3284 122.328 67 121.5 67C120.672 67 120 66.3284 120 65.5C120 64.6716 120.672 64 121.5 64C122.328 64 123 64.6716 123 65.5Z" fill="#FD71AF"/>
<path d="M143 65.5C143 66.3284 142.328 67 141.5 67C140.672 67 140 66.3284 140 65.5C140 64.6716 140.672 64 141.5 64C142.328 64 143 64.6716 143 65.5Z" fill="#FD71AF"/>
<path d="M163 65.5C163 66.3284 162.328 67 161.5 67C160.672 67 160 66.3284 160 65.5C160 64.6716 160.672 64 161.5 64C162.328 64 163 64.6716 163 65.5Z" fill="#FD71AF"/>
<path d="M183 65.5C183 66.3284 182.328 67 181.5 67C180.672 67 180 66.3284 180 65.5C180 64.6716 180.672 64 181.5 64C182.328 64 183 64.6716 183 65.5Z" fill="#FD71AF"/>
<path d="M203 65.5C203 66.3284 202.328 67 201.5 67C200.672 67 200 66.3284 200 65.5C200 64.6716 200.672 64 201.5 64C202.328 64 203 64.6716 203 65.5Z" fill="#FD71AF"/>
<path d="M23 85.5C23 86.3284 22.3284 87 21.5 87C20.6716 87 20 86.3284 20 85.5C20 84.6716 20.6716 84 21.5 84C22.3284 84 23 84.6716 23 85.5Z" fill="#FD71AF"/>
<path d="M43 85.5C43 86.3284 42.3284 87 41.5 87C40.6716 87 40 86.3284 40 85.5C40 84.6716 40.6716 84 41.5 84C42.3284 84 43 84.6716 43 85.5Z" fill="#FD71AF"/>
<path d="M63 85.5C63 86.3284 62.3284 87 61.5 87C60.6716 87 60 86.3284 60 85.5C60 84.6716 60.6716 84 61.5 84C62.3284 84 63 84.6716 63 85.5Z" fill="#FD71AF"/>
<path d="M83 85.5C83 86.3284 82.3284 87 81.5 87C80.6716 87 80 86.3284 80 85.5C80 84.6716 80.6716 84 81.5 84C82.3284 84 83 84.6716 83 85.5Z" fill="#FD71AF"/>
<path d="M103 85.5C103 86.3284 102.328 87 101.5 87C100.672 87 100 86.3284 100 85.5C100 84.6716 100.672 84 101.5 84C102.328 84 103 84.6716 103 85.5Z" fill="#FD71AF"/>
<path d="M123 85.5C123 86.3284 122.328 87 121.5 87C120.672 87 120 86.3284 120 85.5C120 84.6716 120.672 84 121.5 84C122.328 84 123 84.6716 123 85.5Z" fill="#FD71AF"/>
<path d="M143 85.5C143 86.3284 142.328 87 141.5 87C140.672 87 140 86.3284 140 85.5C140 84.6716 140.672 84 141.5 84C142.328 84 143 84.6716 143 85.5Z" fill="#FD71AF"/>
<path d="M163 85.5C163 86.3284 162.328 87 161.5 87C160.672 87 160 86.3284 160 85.5C160 84.6716 160.672 84 161.5 84C162.328 84 163 84.6716 163 85.5Z" fill="#FD71AF"/>
<path d="M183 85.5C183 86.3284 182.328 87 181.5 87C180.672 87 180 86.3284 180 85.5C180 84.6716 180.672 84 181.5 84C182.328 84 183 84.6716 183 85.5Z" fill="#FD71AF"/>
<path d="M203 85.5C203 86.3284 202.328 87 201.5 87C200.672 87 200 86.3284 200 85.5C200 84.6716 200.672 84 201.5 84C202.328 84 203 84.6716 203 85.5Z" fill="#FD71AF"/>
<path d="M23 105.5C23 106.328 22.3284 107 21.5 107C20.6716 107 20 106.328 20 105.5C20 104.672 20.6716 104 21.5 104C22.3284 104 23 104.672 23 105.5Z" fill="#FD71AF"/>
<path d="M43 105.5C43 106.328 42.3284 107 41.5 107C40.6716 107 40 106.328 40 105.5C40 104.672 40.6716 104 41.5 104C42.3284 104 43 104.672 43 105.5Z" fill="#FD71AF"/>
<path d="M63 105.5C63 106.328 62.3284 107 61.5 107C60.6716 107 60 106.328 60 105.5C60 104.672 60.6716 104 61.5 104C62.3284 104 63 104.672 63 105.5Z" fill="#FD71AF"/>
<path d="M83 105.5C83 106.328 82.3284 107 81.5 107C80.6716 107 80 106.328 80 105.5C80 104.672 80.6716 104 81.5 104C82.3284 104 83 104.672 83 105.5Z" fill="#FD71AF"/>
<path d="M103 105.5C103 106.328 102.328 107 101.5 107C100.672 107 100 106.328 100 105.5C100 104.672 100.672 104 101.5 104C102.328 104 103 104.672 103 105.5Z" fill="#FD71AF"/>
<path d="M123 105.5C123 106.328 122.328 107 121.5 107C120.672 107 120 106.328 120 105.5C120 104.672 120.672 104 121.5 104C122.328 104 123 104.672 123 105.5Z" fill="#FD71AF"/>
<path d="M143 105.5C143 106.328 142.328 107 141.5 107C140.672 107 140 106.328 140 105.5C140 104.672 140.672 104 141.5 104C142.328 104 143 104.672 143 105.5Z" fill="#FD71AF"/>
<path d="M163 105.5C163 106.328 162.328 107 161.5 107C160.672 107 160 106.328 160 105.5C160 104.672 160.672 104 161.5 104C162.328 104 163 104.672 163 105.5Z" fill="#FD71AF"/>
<path d="M183 105.5C183 106.328 182.328 107 181.5 107C180.672 107 180 106.328 180 105.5C180 104.672 180.672 104 181.5 104C182.328 104 183 104.672 183 105.5Z" fill="#FD71AF"/>
<path d="M203 105.5C203 106.328 202.328 107 201.5 107C200.672 107 200 106.328 200 105.5C200 104.672 200.672 104 201.5 104C202.328 104 203 104.672 203 105.5Z" fill="#FD71AF"/>
<path d="M23 125.5C23 126.328 22.3284 127 21.5 127C20.6716 127 20 126.328 20 125.5C20 124.672 20.6716 124 21.5 124C22.3284 124 23 124.672 23 125.5Z" fill="#FD71AF"/>
<path d="M43 125.5C43 126.328 42.3284 127 41.5 127C40.6716 127 40 126.328 40 125.5C40 124.672 40.6716 124 41.5 124C42.3284 124 43 124.672 43 125.5Z" fill="#FD71AF"/>
<path d="M63 125.5C63 126.328 62.3284 127 61.5 127C60.6716 127 60 126.328 60 125.5C60 124.672 60.6716 124 61.5 124C62.3284 124 63 124.672 63 125.5Z" fill="#FD71AF"/>
<path d="M83 125.5C83 126.328 82.3284 127 81.5 127C80.6716 127 80 126.328 80 125.5C80 124.672 80.6716 124 81.5 124C82.3284 124 83 124.672 83 125.5Z" fill="#FD71AF"/>
<path d="M103 125.5C103 126.328 102.328 127 101.5 127C100.672 127 100 126.328 100 125.5C100 124.672 100.672 124 101.5 124C102.328 124 103 124.672 103 125.5Z" fill="#FD71AF"/>
<path d="M123 125.5C123 126.328 122.328 127 121.5 127C120.672 127 120 126.328 120 125.5C120 124.672 120.672 124 121.5 124C122.328 124 123 124.672 123 125.5Z" fill="#FD71AF"/>
<path d="M143 125.5C143 126.328 142.328 127 141.5 127C140.672 127 140 126.328 140 125.5C140 124.672 140.672 124 141.5 124C142.328 124 143 124.672 143 125.5Z" fill="#FD71AF"/>
<path d="M163 125.5C163 126.328 162.328 127 161.5 127C160.672 127 160 126.328 160 125.5C160 124.672 160.672 124 161.5 124C162.328 124 163 124.672 163 125.5Z" fill="#FD71AF"/>
<path d="M183 125.5C183 126.328 182.328 127 181.5 127C180.672 127 180 126.328 180 125.5C180 124.672 180.672 124 181.5 124C182.328 124 183 124.672 183 125.5Z" fill="#FD71AF"/>
<path d="M203 125.5C203 126.328 202.328 127 201.5 127C200.672 127 200 126.328 200 125.5C200 124.672 200.672 124 201.5 124C202.328 124 203 124.672 203 125.5Z" fill="#FD71AF"/>
<path d="M23 145.5C23 146.328 22.3284 147 21.5 147C20.6716 147 20 146.328 20 145.5C20 144.672 20.6716 144 21.5 144C22.3284 144 23 144.672 23 145.5Z" fill="#FD71AF"/>
<path d="M43 145.5C43 146.328 42.3284 147 41.5 147C40.6716 147 40 146.328 40 145.5C40 144.672 40.6716 144 41.5 144C42.3284 144 43 144.672 43 145.5Z" fill="#FD71AF"/>
<path d="M63 145.5C63 146.328 62.3284 147 61.5 147C60.6716 147 60 146.328 60 145.5C60 144.672 60.6716 144 61.5 144C62.3284 144 63 144.672 63 145.5Z" fill="#FD71AF"/>
<path d="M83 145.5C83 146.328 82.3284 147 81.5 147C80.6716 147 80 146.328 80 145.5C80 144.672 80.6716 144 81.5 144C82.3284 144 83 144.672 83 145.5Z" fill="#FD71AF"/>
<path d="M103 145.5C103 146.328 102.328 147 101.5 147C100.672 147 100 146.328 100 145.5C100 144.672 100.672 144 101.5 144C102.328 144 103 144.672 103 145.5Z" fill="#FD71AF"/>
<path d="M123 145.5C123 146.328 122.328 147 121.5 147C120.672 147 120 146.328 120 145.5C120 144.672 120.672 144 121.5 144C122.328 144 123 144.672 123 145.5Z" fill="#FD71AF"/>
<path d="M143 145.5C143 146.328 142.328 147 141.5 147C140.672 147 140 146.328 140 145.5C140 144.672 140.672 144 141.5 144C142.328 144 143 144.672 143 145.5Z" fill="#FD71AF"/>
<path d="M163 145.5C163 146.328 162.328 147 161.5 147C160.672 147 160 146.328 160 145.5C160 144.672 160.672 144 161.5 144C162.328 144 163 144.672 163 145.5Z" fill="#FD71AF"/>
<path d="M183 145.5C183 146.328 182.328 147 181.5 147C180.672 147 180 146.328 180 145.5C180 144.672 180.672 144 181.5 144C182.328 144 183 144.672 183 145.5Z" fill="#FD71AF"/>
<path d="M203 145.5C203 146.328 202.328 147 201.5 147C200.672 147 200 146.328 200 145.5C200 144.672 200.672 144 201.5 144C202.328 144 203 144.672 203 145.5Z" fill="#FD71AF"/>
<path d="M23 165.5C23 166.328 22.3284 167 21.5 167C20.6716 167 20 166.328 20 165.5C20 164.672 20.6716 164 21.5 164C22.3284 164 23 164.672 23 165.5Z" fill="#FD71AF"/>
<path d="M43 165.5C43 166.328 42.3284 167 41.5 167C40.6716 167 40 166.328 40 165.5C40 164.672 40.6716 164 41.5 164C42.3284 164 43 164.672 43 165.5Z" fill="#FD71AF"/>
<path d="M63 165.5C63 166.328 62.3284 167 61.5 167C60.6716 167 60 166.328 60 165.5C60 164.672 60.6716 164 61.5 164C62.3284 164 63 164.672 63 165.5Z" fill="#FD71AF"/>
<path d="M83 165.5C83 166.328 82.3284 167 81.5 167C80.6716 167 80 166.328 80 165.5C80 164.672 80.6716 164 81.5 164C82.3284 164 83 164.672 83 165.5Z" fill="#FD71AF"/>
<path d="M103 165.5C103 166.328 102.328 167 101.5 167C100.672 167 100 166.328 100 165.5C100 164.672 100.672 164 101.5 164C102.328 164 103 164.672 103 165.5Z" fill="#FD71AF"/>
<path d="M123 165.5C123 166.328 122.328 167 121.5 167C120.672 167 120 166.328 120 165.5C120 164.672 120.672 164 121.5 164C122.328 164 123 164.672 123 165.5Z" fill="#FD71AF"/>
<path d="M143 165.5C143 166.328 142.328 167 141.5 167C140.672 167 140 166.328 140 165.5C140 164.672 140.672 164 141.5 164C142.328 164 143 164.672 143 165.5Z" fill="#FD71AF"/>
<path d="M163 165.5C163 166.328 162.328 167 161.5 167C160.672 167 160 166.328 160 165.5C160 164.672 160.672 164 161.5 164C162.328 164 163 164.672 163 165.5Z" fill="#FD71AF"/>
<path d="M183 165.5C183 166.328 182.328 167 181.5 167C180.672 167 180 166.328 180 165.5C180 164.672 180.672 164 181.5 164C182.328 164 183 164.672 183 165.5Z" fill="#FD71AF"/>
<path d="M203 165.5C203 166.328 202.328 167 201.5 167C200.672 167 200 166.328 200 165.5C200 164.672 200.672 164 201.5 164C202.328 164 203 164.672 203 165.5Z" fill="#FD71AF"/>
<path d="M23 185.5C23 186.328 22.3284 187 21.5 187C20.6716 187 20 186.328 20 185.5C20 184.672 20.6716 184 21.5 184C22.3284 184 23 184.672 23 185.5Z" fill="#FD71AF"/>
<path d="M43 185.5C43 186.328 42.3284 187 41.5 187C40.6716 187 40 186.328 40 185.5C40 184.672 40.6716 184 41.5 184C42.3284 184 43 184.672 43 185.5Z" fill="#FD71AF"/>
<path d="M63 185.5C63 186.328 62.3284 187 61.5 187C60.6716 187 60 186.328 60 185.5C60 184.672 60.6716 184 61.5 184C62.3284 184 63 184.672 63 185.5Z" fill="#FD71AF"/>
<path d="M83 185.5C83 186.328 82.3284 187 81.5 187C80.6716 187 80 186.328 80 185.5C80 184.672 80.6716 184 81.5 184C82.3284 184 83 184.672 83 185.5Z" fill="#FD71AF"/>
<path d="M103 185.5C103 186.328 102.328 187 101.5 187C100.672 187 100 186.328 100 185.5C100 184.672 100.672 184 101.5 184C102.328 184 103 184.672 103 185.5Z" fill="#FD71AF"/>
<path d="M123 185.5C123 186.328 122.328 187 121.5 187C120.672 187 120 186.328 120 185.5C120 184.672 120.672 184 121.5 184C122.328 184 123 184.672 123 185.5Z" fill="#FD71AF"/>
<path d="M143 185.5C143 186.328 142.328 187 141.5 187C140.672 187 140 186.328 140 185.5C140 184.672 140.672 184 141.5 184C142.328 184 143 184.672 143 185.5Z" fill="#FD71AF"/>
<path d="M163 185.5C163 186.328 162.328 187 161.5 187C160.672 187 160 186.328 160 185.5C160 184.672 160.672 184 161.5 184C162.328 184 163 184.672 163 185.5Z" fill="#FD71AF"/>
<path d="M183 185.5C183 186.328 182.328 187 181.5 187C180.672 187 180 186.328 180 185.5C180 184.672 180.672 184 181.5 184C182.328 184 183 184.672 183 185.5Z" fill="#FD71AF"/>
<path d="M203 185.5C203 186.328 202.328 187 201.5 187C200.672 187 200 186.328 200 185.5C200 184.672 200.672 184 201.5 184C202.328 184 203 184.672 203 185.5Z" fill="#FD71AF"/>
<path d="M223 45.5C223 46.3284 222.328 47 221.5 47C220.672 47 220 46.3284 220 45.5C220 44.6716 220.672 44 221.5 44C222.328 44 223 44.6716 223 45.5Z" fill="#FD71AF"/>
<path d="M243 45.5C243 46.3284 242.328 47 241.5 47C240.672 47 240 46.3284 240 45.5C240 44.6716 240.672 44 241.5 44C242.328 44 243 44.6716 243 45.5Z" fill="#FD71AF"/>
<path d="M263 45.5C263 46.3284 262.328 47 261.5 47C260.672 47 260 46.3284 260 45.5C260 44.6716 260.672 44 261.5 44C262.328 44 263 44.6716 263 45.5Z" fill="#FD71AF"/>
<path d="M283 45.5C283 46.3284 282.328 47 281.5 47C280.672 47 280 46.3284 280 45.5C280 44.6716 280.672 44 281.5 44C282.328 44 283 44.6716 283 45.5Z" fill="#FD71AF"/>
<path d="M303 45.5C303 46.3284 302.328 47 301.5 47C300.672 47 300 46.3284 300 45.5C300 44.6716 300.672 44 301.5 44C302.328 44 303 44.6716 303 45.5Z" fill="#FD71AF"/>
<path d="M323 45.5C323 46.3284 322.328 47 321.5 47C320.672 47 320 46.3284 320 45.5C320 44.6716 320.672 44 321.5 44C322.328 44 323 44.6716 323 45.5Z" fill="#FD71AF"/>
<path d="M343 45.5C343 46.3284 342.328 47 341.5 47C340.672 47 340 46.3284 340 45.5C340 44.6716 340.672 44 341.5 44C342.328 44 343 44.6716 343 45.5Z" fill="#FD71AF"/>
<path d="M363 45.5C363 46.3284 362.328 47 361.5 47C360.672 47 360 46.3284 360 45.5C360 44.6716 360.672 44 361.5 44C362.328 44 363 44.6716 363 45.5Z" fill="#FD71AF"/>
<path d="M383 45.5C383 46.3284 382.328 47 381.5 47C380.672 47 380 46.3284 380 45.5C380 44.6716 380.672 44 381.5 44C382.328 44 383 44.6716 383 45.5Z" fill="#FD71AF"/>
<path d="M403 45.5C403 46.3284 402.328 47 401.5 47C400.672 47 400 46.3284 400 45.5C400 44.6716 400.672 44 401.5 44C402.328 44 403 44.6716 403 45.5Z" fill="#FD71AF"/>
<path d="M423 45.5C423 46.3284 422.328 47 421.5 47C420.672 47 420 46.3284 420 45.5C420 44.6716 420.672 44 421.5 44C422.328 44 423 44.6716 423 45.5Z" fill="#FD71AF"/>
<path d="M443 45.5C443 46.3284 442.328 47 441.5 47C440.672 47 440 46.3284 440 45.5C440 44.6716 440.672 44 441.5 44C442.328 44 443 44.6716 443 45.5Z" fill="#FD71AF"/>
<path d="M463 45.5C463 46.3284 462.328 47 461.5 47C460.672 47 460 46.3284 460 45.5C460 44.6716 460.672 44 461.5 44C462.328 44 463 44.6716 463 45.5Z" fill="#FD71AF"/>
<path d="M483 45.5C483 46.3284 482.328 47 481.5 47C480.672 47 480 46.3284 480 45.5C480 44.6716 480.672 44 481.5 44C482.328 44 483 44.6716 483 45.5Z" fill="#FD71AF"/>
<path d="M503 45.5C503 46.3284 502.328 47 501.5 47C500.672 47 500 46.3284 500 45.5C500 44.6716 500.672 44 501.5 44C502.328 44 503 44.6716 503 45.5Z" fill="#FD71AF"/>
<path d="M223 65.5C223 66.3284 222.328 67 221.5 67C220.672 67 220 66.3284 220 65.5C220 64.6716 220.672 64 221.5 64C222.328 64 223 64.6716 223 65.5Z" fill="#FD71AF"/>
<path d="M243 65.5C243 66.3284 242.328 67 241.5 67C240.672 67 240 66.3284 240 65.5C240 64.6716 240.672 64 241.5 64C242.328 64 243 64.6716 243 65.5Z" fill="#FD71AF"/>
<path d="M263 65.5C263 66.3284 262.328 67 261.5 67C260.672 67 260 66.3284 260 65.5C260 64.6716 260.672 64 261.5 64C262.328 64 263 64.6716 263 65.5Z" fill="#FD71AF"/>
<path d="M283 65.5C283 66.3284 282.328 67 281.5 67C280.672 67 280 66.3284 280 65.5C280 64.6716 280.672 64 281.5 64C282.328 64 283 64.6716 283 65.5Z" fill="#FD71AF"/>
<path d="M303 65.5C303 66.3284 302.328 67 301.5 67C300.672 67 300 66.3284 300 65.5C300 64.6716 300.672 64 301.5 64C302.328 64 303 64.6716 303 65.5Z" fill="#FD71AF"/>
<path d="M323 65.5C323 66.3284 322.328 67 321.5 67C320.672 67 320 66.3284 320 65.5C320 64.6716 320.672 64 321.5 64C322.328 64 323 64.6716 323 65.5Z" fill="#FD71AF"/>
<path d="M343 65.5C343 66.3284 342.328 67 341.5 67C340.672 67 340 66.3284 340 65.5C340 64.6716 340.672 64 341.5 64C342.328 64 343 64.6716 343 65.5Z" fill="#FD71AF"/>
<path d="M363 65.5C363 66.3284 362.328 67 361.5 67C360.672 67 360 66.3284 360 65.5C360 64.6716 360.672 64 361.5 64C362.328 64 363 64.6716 363 65.5Z" fill="#FD71AF"/>
<path d="M383 65.5C383 66.3284 382.328 67 381.5 67C380.672 67 380 66.3284 380 65.5C380 64.6716 380.672 64 381.5 64C382.328 64 383 64.6716 383 65.5Z" fill="#FD71AF"/>
<path d="M403 65.5C403 66.3284 402.328 67 401.5 67C400.672 67 400 66.3284 400 65.5C400 64.6716 400.672 64 401.5 64C402.328 64 403 64.6716 403 65.5Z" fill="#FD71AF"/>
<path d="M423 65.5C423 66.3284 422.328 67 421.5 67C420.672 67 420 66.3284 420 65.5C420 64.6716 420.672 64 421.5 64C422.328 64 423 64.6716 423 65.5Z" fill="#FD71AF"/>
<path d="M443 65.5C443 66.3284 442.328 67 441.5 67C440.672 67 440 66.3284 440 65.5C440 64.6716 440.672 64 441.5 64C442.328 64 443 64.6716 443 65.5Z" fill="#FD71AF"/>
<path d="M463 65.5C463 66.3284 462.328 67 461.5 67C460.672 67 460 66.3284 460 65.5C460 64.6716 460.672 64 461.5 64C462.328 64 463 64.6716 463 65.5Z" fill="#FD71AF"/>
<path d="M483 65.5C483 66.3284 482.328 67 481.5 67C480.672 67 480 66.3284 480 65.5C480 64.6716 480.672 64 481.5 64C482.328 64 483 64.6716 483 65.5Z" fill="#FD71AF"/>
<path d="M503 65.5C503 66.3284 502.328 67 501.5 67C500.672 67 500 66.3284 500 65.5C500 64.6716 500.672 64 501.5 64C502.328 64 503 64.6716 503 65.5Z" fill="#FD71AF"/>
<path d="M223 85.5C223 86.3284 222.328 87 221.5 87C220.672 87 220 86.3284 220 85.5C220 84.6716 220.672 84 221.5 84C222.328 84 223 84.6716 223 85.5Z" fill="#FD71AF"/>
<path d="M243 85.5C243 86.3284 242.328 87 241.5 87C240.672 87 240 86.3284 240 85.5C240 84.6716 240.672 84 241.5 84C242.328 84 243 84.6716 243 85.5Z" fill="#FD71AF"/>
<path d="M263 85.5C263 86.3284 262.328 87 261.5 87C260.672 87 260 86.3284 260 85.5C260 84.6716 260.672 84 261.5 84C262.328 84 263 84.6716 263 85.5Z" fill="#FD71AF"/>
<path d="M283 85.5C283 86.3284 282.328 87 281.5 87C280.672 87 280 86.3284 280 85.5C280 84.6716 280.672 84 281.5 84C282.328 84 283 84.6716 283 85.5Z" fill="#FD71AF"/>
<path d="M303 85.5C303 86.3284 302.328 87 301.5 87C300.672 87 300 86.3284 300 85.5C300 84.6716 300.672 84 301.5 84C302.328 84 303 84.6716 303 85.5Z" fill="#FD71AF"/>
<path d="M323 85.5C323 86.3284 322.328 87 321.5 87C320.672 87 320 86.3284 320 85.5C320 84.6716 320.672 84 321.5 84C322.328 84 323 84.6716 323 85.5Z" fill="#FD71AF"/>
<path d="M343 85.5C343 86.3284 342.328 87 341.5 87C340.672 87 340 86.3284 340 85.5C340 84.6716 340.672 84 341.5 84C342.328 84 343 84.6716 343 85.5Z" fill="#FD71AF"/>
<path d="M363 85.5C363 86.3284 362.328 87 361.5 87C360.672 87 360 86.3284 360 85.5C360 84.6716 360.672 84 361.5 84C362.328 84 363 84.6716 363 85.5Z" fill="#FD71AF"/>
<path d="M383 85.5C383 86.3284 382.328 87 381.5 87C380.672 87 380 86.3284 380 85.5C380 84.6716 380.672 84 381.5 84C382.328 84 383 84.6716 383 85.5Z" fill="#FD71AF"/>
<path d="M403 85.5C403 86.3284 402.328 87 401.5 87C400.672 87 400 86.3284 400 85.5C400 84.6716 400.672 84 401.5 84C402.328 84 403 84.6716 403 85.5Z" fill="#FD71AF"/>
<path d="M423 85.5C423 86.3284 422.328 87 421.5 87C420.672 87 420 86.3284 420 85.5C420 84.6716 420.672 84 421.5 84C422.328 84 423 84.6716 423 85.5Z" fill="#FD71AF"/>
<path d="M443 85.5C443 86.3284 442.328 87 441.5 87C440.672 87 440 86.3284 440 85.5C440 84.6716 440.672 84 441.5 84C442.328 84 443 84.6716 443 85.5Z" fill="#FD71AF"/>
<path d="M463 85.5C463 86.3284 462.328 87 461.5 87C460.672 87 460 86.3284 460 85.5C460 84.6716 460.672 84 461.5 84C462.328 84 463 84.6716 463 85.5Z" fill="#FD71AF"/>
<path d="M483 85.5C483 86.3284 482.328 87 481.5 87C480.672 87 480 86.3284 480 85.5C480 84.6716 480.672 84 481.5 84C482.328 84 483 84.6716 483 85.5Z" fill="#FD71AF"/>
<path d="M503 85.5C503 86.3284 502.328 87 501.5 87C500.672 87 500 86.3284 500 85.5C500 84.6716 500.672 84 501.5 84C502.328 84 503 84.6716 503 85.5Z" fill="#FD71AF"/>
<path d="M223 105.5C223 106.328 222.328 107 221.5 107C220.672 107 220 106.328 220 105.5C220 104.672 220.672 104 221.5 104C222.328 104 223 104.672 223 105.5Z" fill="#FD71AF"/>
<path d="M243 105.5C243 106.328 242.328 107 241.5 107C240.672 107 240 106.328 240 105.5C240 104.672 240.672 104 241.5 104C242.328 104 243 104.672 243 105.5Z" fill="#FD71AF"/>
<path d="M263 105.5C263 106.328 262.328 107 261.5 107C260.672 107 260 106.328 260 105.5C260 104.672 260.672 104 261.5 104C262.328 104 263 104.672 263 105.5Z" fill="#FD71AF"/>
<path d="M283 105.5C283 106.328 282.328 107 281.5 107C280.672 107 280 106.328 280 105.5C280 104.672 280.672 104 281.5 104C282.328 104 283 104.672 283 105.5Z" fill="#FD71AF"/>
<path d="M303 105.5C303 106.328 302.328 107 301.5 107C300.672 107 300 106.328 300 105.5C300 104.672 300.672 104 301.5 104C302.328 104 303 104.672 303 105.5Z" fill="#FD71AF"/>
<path d="M323 105.5C323 106.328 322.328 107 321.5 107C320.672 107 320 106.328 320 105.5C320 104.672 320.672 104 321.5 104C322.328 104 323 104.672 323 105.5Z" fill="#FD71AF"/>
<path d="M343 105.5C343 106.328 342.328 107 341.5 107C340.672 107 340 106.328 340 105.5C340 104.672 340.672 104 341.5 104C342.328 104 343 104.672 343 105.5Z" fill="#FD71AF"/>
<path d="M363 105.5C363 106.328 362.328 107 361.5 107C360.672 107 360 106.328 360 105.5C360 104.672 360.672 104 361.5 104C362.328 104 363 104.672 363 105.5Z" fill="#FD71AF"/>
<path d="M383 105.5C383 106.328 382.328 107 381.5 107C380.672 107 380 106.328 380 105.5C380 104.672 380.672 104 381.5 104C382.328 104 383 104.672 383 105.5Z" fill="#FD71AF"/>
<path d="M403 105.5C403 106.328 402.328 107 401.5 107C400.672 107 400 106.328 400 105.5C400 104.672 400.672 104 401.5 104C402.328 104 403 104.672 403 105.5Z" fill="#FD71AF"/>
<path d="M423 105.5C423 106.328 422.328 107 421.5 107C420.672 107 420 106.328 420 105.5C420 104.672 420.672 104 421.5 104C422.328 104 423 104.672 423 105.5Z" fill="#FD71AF"/>
<path d="M443 105.5C443 106.328 442.328 107 441.5 107C440.672 107 440 106.328 440 105.5C440 104.672 440.672 104 441.5 104C442.328 104 443 104.672 443 105.5Z" fill="#FD71AF"/>
<path d="M463 105.5C463 106.328 462.328 107 461.5 107C460.672 107 460 106.328 460 105.5C460 104.672 460.672 104 461.5 104C462.328 104 463 104.672 463 105.5Z" fill="#FD71AF"/>
<path d="M483 105.5C483 106.328 482.328 107 481.5 107C480.672 107 480 106.328 480 105.5C480 104.672 480.672 104 481.5 104C482.328 104 483 104.672 483 105.5Z" fill="#FD71AF"/>
<path d="M503 105.5C503 106.328 502.328 107 501.5 107C500.672 107 500 106.328 500 105.5C500 104.672 500.672 104 501.5 104C502.328 104 503 104.672 503 105.5Z" fill="#FD71AF"/>
<path d="M223 125.5C223 126.328 222.328 127 221.5 127C220.672 127 220 126.328 220 125.5C220 124.672 220.672 124 221.5 124C222.328 124 223 124.672 223 125.5Z" fill="#FD71AF"/>
<path d="M243 125.5C243 126.328 242.328 127 241.5 127C240.672 127 240 126.328 240 125.5C240 124.672 240.672 124 241.5 124C242.328 124 243 124.672 243 125.5Z" fill="#FD71AF"/>
<path d="M263 125.5C263 126.328 262.328 127 261.5 127C260.672 127 260 126.328 260 125.5C260 124.672 260.672 124 261.5 124C262.328 124 263 124.672 263 125.5Z" fill="#FD71AF"/>
<path d="M283 125.5C283 126.328 282.328 127 281.5 127C280.672 127 280 126.328 280 125.5C280 124.672 280.672 124 281.5 124C282.328 124 283 124.672 283 125.5Z" fill="#FD71AF"/>
<path d="M303 125.5C303 126.328 302.328 127 301.5 127C300.672 127 300 126.328 300 125.5C300 124.672 300.672 124 301.5 124C302.328 124 303 124.672 303 125.5Z" fill="#FD71AF"/>
<path d="M323 125.5C323 126.328 322.328 127 321.5 127C320.672 127 320 126.328 320 125.5C320 124.672 320.672 124 321.5 124C322.328 124 323 124.672 323 125.5Z" fill="#FD71AF"/>
<path d="M343 125.5C343 126.328 342.328 127 341.5 127C340.672 127 340 126.328 340 125.5C340 124.672 340.672 124 341.5 124C342.328 124 343 124.672 343 125.5Z" fill="#FD71AF"/>
<path d="M363 125.5C363 126.328 362.328 127 361.5 127C360.672 127 360 126.328 360 125.5C360 124.672 360.672 124 361.5 124C362.328 124 363 124.672 363 125.5Z" fill="#FD71AF"/>
<path d="M383 125.5C383 126.328 382.328 127 381.5 127C380.672 127 380 126.328 380 125.5C380 124.672 380.672 124 381.5 124C382.328 124 383 124.672 383 125.5Z" fill="#FD71AF"/>
<path d="M403 125.5C403 126.328 402.328 127 401.5 127C400.672 127 400 126.328 400 125.5C400 124.672 400.672 124 401.5 124C402.328 124 403 124.672 403 125.5Z" fill="#FD71AF"/>
<path d="M423 125.5C423 126.328 422.328 127 421.5 127C420.672 127 420 126.328 420 125.5C420 124.672 420.672 124 421.5 124C422.328 124 423 124.672 423 125.5Z" fill="#FD71AF"/>
<path d="M443 125.5C443 126.328 442.328 127 441.5 127C440.672 127 440 126.328 440 125.5C440 124.672 440.672 124 441.5 124C442.328 124 443 124.672 443 125.5Z" fill="#FD71AF"/>
<path d="M463 125.5C463 126.328 462.328 127 461.5 127C460.672 127 460 126.328 460 125.5C460 124.672 460.672 124 461.5 124C462.328 124 463 124.672 463 125.5Z" fill="#FD71AF"/>
<path d="M483 125.5C483 126.328 482.328 127 481.5 127C480.672 127 480 126.328 480 125.5C480 124.672 480.672 124 481.5 124C482.328 124 483 124.672 483 125.5Z" fill="#FD71AF"/>
<path d="M503 125.5C503 126.328 502.328 127 501.5 127C500.672 127 500 126.328 500 125.5C500 124.672 500.672 124 501.5 124C502.328 124 503 124.672 503 125.5Z" fill="#FD71AF"/>
<path d="M223 145.5C223 146.328 222.328 147 221.5 147C220.672 147 220 146.328 220 145.5C220 144.672 220.672 144 221.5 144C222.328 144 223 144.672 223 145.5Z" fill="#FD71AF"/>
<path d="M243 145.5C243 146.328 242.328 147 241.5 147C240.672 147 240 146.328 240 145.5C240 144.672 240.672 144 241.5 144C242.328 144 243 144.672 243 145.5Z" fill="#FD71AF"/>
<path d="M263 145.5C263 146.328 262.328 147 261.5 147C260.672 147 260 146.328 260 145.5C260 144.672 260.672 144 261.5 144C262.328 144 263 144.672 263 145.5Z" fill="#FD71AF"/>
<path d="M283 145.5C283 146.328 282.328 147 281.5 147C280.672 147 280 146.328 280 145.5C280 144.672 280.672 144 281.5 144C282.328 144 283 144.672 283 145.5Z" fill="#FD71AF"/>
<path d="M303 145.5C303 146.328 302.328 147 301.5 147C300.672 147 300 146.328 300 145.5C300 144.672 300.672 144 301.5 144C302.328 144 303 144.672 303 145.5Z" fill="#FD71AF"/>
<path d="M323 145.5C323 146.328 322.328 147 321.5 147C320.672 147 320 146.328 320 145.5C320 144.672 320.672 144 321.5 144C322.328 144 323 144.672 323 145.5Z" fill="#FD71AF"/>
<path d="M343 145.5C343 146.328 342.328 147 341.5 147C340.672 147 340 146.328 340 145.5C340 144.672 340.672 144 341.5 144C342.328 144 343 144.672 343 145.5Z" fill="#FD71AF"/>
<path d="M363 145.5C363 146.328 362.328 147 361.5 147C360.672 147 360 146.328 360 145.5C360 144.672 360.672 144 361.5 144C362.328 144 363 144.672 363 145.5Z" fill="#FD71AF"/>
<path d="M383 145.5C383 146.328 382.328 147 381.5 147C380.672 147 380 146.328 380 145.5C380 144.672 380.672 144 381.5 144C382.328 144 383 144.672 383 145.5Z" fill="#FD71AF"/>
<path d="M403 145.5C403 146.328 402.328 147 401.5 147C400.672 147 400 146.328 400 145.5C400 144.672 400.672 144 401.5 144C402.328 144 403 144.672 403 145.5Z" fill="#FD71AF"/>
<path d="M423 145.5C423 146.328 422.328 147 421.5 147C420.672 147 420 146.328 420 145.5C420 144.672 420.672 144 421.5 144C422.328 144 423 144.672 423 145.5Z" fill="#FD71AF"/>
<path d="M443 145.5C443 146.328 442.328 147 441.5 147C440.672 147 440 146.328 440 145.5C440 144.672 440.672 144 441.5 144C442.328 144 443 144.672 443 145.5Z" fill="#FD71AF"/>
<path d="M463 145.5C463 146.328 462.328 147 461.5 147C460.672 147 460 146.328 460 145.5C460 144.672 460.672 144 461.5 144C462.328 144 463 144.672 463 145.5Z" fill="#FD71AF"/>
<path d="M483 145.5C483 146.328 482.328 147 481.5 147C480.672 147 480 146.328 480 145.5C480 144.672 480.672 144 481.5 144C482.328 144 483 144.672 483 145.5Z" fill="#FD71AF"/>
<path d="M503 145.5C503 146.328 502.328 147 501.5 147C500.672 147 500 146.328 500 145.5C500 144.672 500.672 144 501.5 144C502.328 144 503 144.672 503 145.5Z" fill="#FD71AF"/>
<path d="M223 165.5C223 166.328 222.328 167 221.5 167C220.672 167 220 166.328 220 165.5C220 164.672 220.672 164 221.5 164C222.328 164 223 164.672 223 165.5Z" fill="#FD71AF"/>
<path d="M243 165.5C243 166.328 242.328 167 241.5 167C240.672 167 240 166.328 240 165.5C240 164.672 240.672 164 241.5 164C242.328 164 243 164.672 243 165.5Z" fill="#FD71AF"/>
<path d="M263 165.5C263 166.328 262.328 167 261.5 167C260.672 167 260 166.328 260 165.5C260 164.672 260.672 164 261.5 164C262.328 164 263 164.672 263 165.5Z" fill="#FD71AF"/>
<path d="M283 165.5C283 166.328 282.328 167 281.5 167C280.672 167 280 166.328 280 165.5C280 164.672 280.672 164 281.5 164C282.328 164 283 164.672 283 165.5Z" fill="#FD71AF"/>
<path d="M303 165.5C303 166.328 302.328 167 301.5 167C300.672 167 300 166.328 300 165.5C300 164.672 300.672 164 301.5 164C302.328 164 303 164.672 303 165.5Z" fill="#FD71AF"/>
<path d="M323 165.5C323 166.328 322.328 167 321.5 167C320.672 167 320 166.328 320 165.5C320 164.672 320.672 164 321.5 164C322.328 164 323 164.672 323 165.5Z" fill="#FD71AF"/>
<path d="M343 165.5C343 166.328 342.328 167 341.5 167C340.672 167 340 166.328 340 165.5C340 164.672 340.672 164 341.5 164C342.328 164 343 164.672 343 165.5Z" fill="#FD71AF"/>
<path d="M363 165.5C363 166.328 362.328 167 361.5 167C360.672 167 360 166.328 360 165.5C360 164.672 360.672 164 361.5 164C362.328 164 363 164.672 363 165.5Z" fill="#FD71AF"/>
<path d="M383 165.5C383 166.328 382.328 167 381.5 167C380.672 167 380 166.328 380 165.5C380 164.672 380.672 164 381.5 164C382.328 164 383 164.672 383 165.5Z" fill="#FD71AF"/>
<path d="M403 165.5C403 166.328 402.328 167 401.5 167C400.672 167 400 166.328 400 165.5C400 164.672 400.672 164 401.5 164C402.328 164 403 164.672 403 165.5Z" fill="#FD71AF"/>
<path d="M423 165.5C423 166.328 422.328 167 421.5 167C420.672 167 420 166.328 420 165.5C420 164.672 420.672 164 421.5 164C422.328 164 423 164.672 423 165.5Z" fill="#FD71AF"/>
<path d="M443 165.5C443 166.328 442.328 167 441.5 167C440.672 167 440 166.328 440 165.5C440 164.672 440.672 164 441.5 164C442.328 164 443 164.672 443 165.5Z" fill="#FD71AF"/>
<path d="M463 165.5C463 166.328 462.328 167 461.5 167C460.672 167 460 166.328 460 165.5C460 164.672 460.672 164 461.5 164C462.328 164 463 164.672 463 165.5Z" fill="#FD71AF"/>
<path d="M483 165.5C483 166.328 482.328 167 481.5 167C480.672 167 480 166.328 480 165.5C480 164.672 480.672 164 481.5 164C482.328 164 483 164.672 483 165.5Z" fill="#FD71AF"/>
<path d="M503 165.5C503 166.328 502.328 167 501.5 167C500.672 167 500 166.328 500 165.5C500 164.672 500.672 164 501.5 164C502.328 164 503 164.672 503 165.5Z" fill="#FD71AF"/>
<path d="M223 185.5C223 186.328 222.328 187 221.5 187C220.672 187 220 186.328 220 185.5C220 184.672 220.672 184 221.5 184C222.328 184 223 184.672 223 185.5Z" fill="#FD71AF"/>
<path d="M243 185.5C243 186.328 242.328 187 241.5 187C240.672 187 240 186.328 240 185.5C240 184.672 240.672 184 241.5 184C242.328 184 243 184.672 243 185.5Z" fill="#FD71AF"/>
<path d="M263 185.5C263 186.328 262.328 187 261.5 187C260.672 187 260 186.328 260 185.5C260 184.672 260.672 184 261.5 184C262.328 184 263 184.672 263 185.5Z" fill="#FD71AF"/>
<path d="M283 185.5C283 186.328 282.328 187 281.5 187C280.672 187 280 186.328 280 185.5C280 184.672 280.672 184 281.5 184C282.328 184 283 184.672 283 185.5Z" fill="#FD71AF"/>
<path d="M303 185.5C303 186.328 302.328 187 301.5 187C300.672 187 300 186.328 300 185.5C300 184.672 300.672 184 301.5 184C302.328 184 303 184.672 303 185.5Z" fill="#FD71AF"/>
<path d="M323 185.5C323 186.328 322.328 187 321.5 187C320.672 187 320 186.328 320 185.5C320 184.672 320.672 184 321.5 184C322.328 184 323 184.672 323 185.5Z" fill="#FD71AF"/>
<path d="M343 185.5C343 186.328 342.328 187 341.5 187C340.672 187 340 186.328 340 185.5C340 184.672 340.672 184 341.5 184C342.328 184 343 184.672 343 185.5Z" fill="#FD71AF"/>
<path d="M363 185.5C363 186.328 362.328 187 361.5 187C360.672 187 360 186.328 360 185.5C360 184.672 360.672 184 361.5 184C362.328 184 363 184.672 363 185.5Z" fill="#FD71AF"/>
<path d="M383 185.5C383 186.328 382.328 187 381.5 187C380.672 187 380 186.328 380 185.5C380 184.672 380.672 184 381.5 184C382.328 184 383 184.672 383 185.5Z" fill="#FD71AF"/>
<path d="M403 185.5C403 186.328 402.328 187 401.5 187C400.672 187 400 186.328 400 185.5C400 184.672 400.672 184 401.5 184C402.328 184 403 184.672 403 185.5Z" fill="#FD71AF"/>
<path d="M423 185.5C423 186.328 422.328 187 421.5 187C420.672 187 420 186.328 420 185.5C420 184.672 420.672 184 421.5 184C422.328 184 423 184.672 423 185.5Z" fill="#FD71AF"/>
<path d="M443 185.5C443 186.328 442.328 187 441.5 187C440.672 187 440 186.328 440 185.5C440 184.672 440.672 184 441.5 184C442.328 184 443 184.672 443 185.5Z" fill="#FD71AF"/>
<path d="M463 185.5C463 186.328 462.328 187 461.5 187C460.672 187 460 186.328 460 185.5C460 184.672 460.672 184 461.5 184C462.328 184 463 184.672 463 185.5Z" fill="#FD71AF"/>
<path d="M483 185.5C483 186.328 482.328 187 481.5 187C480.672 187 480 186.328 480 185.5C480 184.672 480.672 184 481.5 184C482.328 184 483 184.672 483 185.5Z" fill="#FD71AF"/>
<path d="M503 185.5C503 186.328 502.328 187 501.5 187C500.672 187 500 186.328 500 185.5C500 184.672 500.672 184 501.5 184C502.328 184 503 184.672 503 185.5Z" fill="#FD71AF"/>
<path d="M3 -74.5C3 -73.6716 2.32843 -73 1.5 -73C0.671573 -73 0 -73.6716 0 -74.5C0 -75.3284 0.671573 -76 1.5 -76C2.32843 -76 3 -75.3284 3 -74.5Z" fill="#FD71AF"/>
<path d="M3 -54.5C3 -53.6716 2.32843 -53 1.5 -53C0.671573 -53 0 -53.6716 0 -54.5C0 -55.3284 0.671573 -56 1.5 -56C2.32843 -56 3 -55.3284 3 -54.5Z" fill="#FD71AF"/>
<path d="M3 -34.5C3 -33.6716 2.32843 -33 1.5 -33C0.671573 -33 0 -33.6716 0 -34.5C0 -35.3284 0.671573 -36 1.5 -36C2.32843 -36 3 -35.3284 3 -34.5Z" fill="#FD71AF"/>
<path d="M3 -14.5C3 -13.6716 2.32843 -13 1.5 -13C0.671573 -13 0 -13.6716 0 -14.5C0 -15.3284 0.671573 -16 1.5 -16C2.32843 -16 3 -15.3284 3 -14.5Z" fill="#FD71AF"/>
<path d="M3 5.5C3 6.32843 2.32843 7 1.5 7C0.671573 7 0 6.32843 0 5.5C0 4.67157 0.671573 4 1.5 4C2.32843 4 3 4.67157 3 5.5Z" fill="#FD71AF"/>
<path d="M3 25.5C3 26.3284 2.32843 27 1.5 27C0.671573 27 0 26.3284 0 25.5C0 24.6716 0.671573 24 1.5 24C2.32843 24 3 24.6716 3 25.5Z" fill="#FD71AF"/>
<path d="M3 45.5C3 46.3284 2.32843 47 1.5 47C0.671573 47 0 46.3284 0 45.5C0 44.6716 0.671573 44 1.5 44C2.32843 44 3 44.6716 3 45.5Z" fill="#FD71AF"/>
<path d="M3 65.5C3 66.3284 2.32843 67 1.5 67C0.671573 67 0 66.3284 0 65.5C0 64.6716 0.671573 64 1.5 64C2.32843 64 3 64.6716 3 65.5Z" fill="#FD71AF"/>
<path d="M3 85.5C3 86.3284 2.32843 87 1.5 87C0.671573 87 0 86.3284 0 85.5C0 84.6716 0.671573 84 1.5 84C2.32843 84 3 84.6716 3 85.5Z" fill="#FD71AF"/>
<path d="M3 105.5C3 106.328 2.32843 107 1.5 107C0.671573 107 0 106.328 0 105.5C0 104.672 0.671573 104 1.5 104C2.32843 104 3 104.672 3 105.5Z" fill="#FD71AF"/>
<path d="M3 125.5C3 126.328 2.32843 127 1.5 127C0.671573 127 0 126.328 0 125.5C0 124.672 0.671573 124 1.5 124C2.32843 124 3 124.672 3 125.5Z" fill="#FD71AF"/>
<path d="M3 145.5C3 146.328 2.32843 147 1.5 147C0.671573 147 0 146.328 0 145.5C0 144.672 0.671573 144 1.5 144C2.32843 144 3 144.672 3 145.5Z" fill="#FD71AF"/>
<path d="M3 165.5C3 166.328 2.32843 167 1.5 167C0.671573 167 0 166.328 0 165.5C0 164.672 0.671573 164 1.5 164C2.32843 164 3 164.672 3 165.5Z" fill="#FD71AF"/>
<path d="M3 185.5C3 186.328 2.32843 187 1.5 187C0.671573 187 0 186.328 0 185.5C0 184.672 0.671573 184 1.5 184C2.32843 184 3 184.672 3 185.5Z" fill="#FD71AF"/>
<path d="M563 -74.5C563 -73.6716 562.328 -73 561.5 -73C560.672 -73 560 -73.6716 560 -74.5C560 -75.3284 560.672 -76 561.5 -76C562.328 -76 563 -75.3284 563 -74.5Z" fill="#FD71AF"/>
<path d="M583 -74.5C583 -73.6716 582.328 -73 581.5 -73C580.672 -73 580 -73.6716 580 -74.5C580 -75.3284 580.672 -76 581.5 -76C582.328 -76 583 -75.3284 583 -74.5Z" fill="#FD71AF"/>
<path d="M603 -74.5C603 -73.6716 602.328 -73 601.5 -73C600.672 -73 600 -73.6716 600 -74.5C600 -75.3284 600.672 -76 601.5 -76C602.328 -76 603 -75.3284 603 -74.5Z" fill="#FD71AF"/>
<path d="M563 -54.5C563 -53.6716 562.328 -53 561.5 -53C560.672 -53 560 -53.6716 560 -54.5C560 -55.3284 560.672 -56 561.5 -56C562.328 -56 563 -55.3284 563 -54.5Z" fill="#FD71AF"/>
<path d="M583 -54.5C583 -53.6716 582.328 -53 581.5 -53C580.672 -53 580 -53.6716 580 -54.5C580 -55.3284 580.672 -56 581.5 -56C582.328 -56 583 -55.3284 583 -54.5Z" fill="#FD71AF"/>
<path d="M603 -54.5C603 -53.6716 602.328 -53 601.5 -53C600.672 -53 600 -53.6716 600 -54.5C600 -55.3284 600.672 -56 601.5 -56C602.328 -56 603 -55.3284 603 -54.5Z" fill="#FD71AF"/>
<path d="M563 -34.5C563 -33.6716 562.328 -33 561.5 -33C560.672 -33 560 -33.6716 560 -34.5C560 -35.3284 560.672 -36 561.5 -36C562.328 -36 563 -35.3284 563 -34.5Z" fill="#FD71AF"/>
<path d="M583 -34.5C583 -33.6716 582.328 -33 581.5 -33C580.672 -33 580 -33.6716 580 -34.5C580 -35.3284 580.672 -36 581.5 -36C582.328 -36 583 -35.3284 583 -34.5Z" fill="#FD71AF"/>
<path d="M603 -34.5C603 -33.6716 602.328 -33 601.5 -33C600.672 -33 600 -33.6716 600 -34.5C600 -35.3284 600.672 -36 601.5 -36C602.328 -36 603 -35.3284 603 -34.5Z" fill="#FD71AF"/>
<path d="M563 -14.5C563 -13.6716 562.328 -13 561.5 -13C560.672 -13 560 -13.6716 560 -14.5C560 -15.3284 560.672 -16 561.5 -16C562.328 -16 563 -15.3284 563 -14.5Z" fill="#FD71AF"/>
<path d="M583 -14.5C583 -13.6716 582.328 -13 581.5 -13C580.672 -13 580 -13.6716 580 -14.5C580 -15.3284 580.672 -16 581.5 -16C582.328 -16 583 -15.3284 583 -14.5Z" fill="#FD71AF"/>
<path d="M603 -14.5C603 -13.6716 602.328 -13 601.5 -13C600.672 -13 600 -13.6716 600 -14.5C600 -15.3284 600.672 -16 601.5 -16C602.328 -16 603 -15.3284 603 -14.5Z" fill="#FD71AF"/>
<path d="M563 5.5C563 6.32843 562.328 7 561.5 7C560.672 7 560 6.32843 560 5.5C560 4.67157 560.672 4 561.5 4C562.328 4 563 4.67157 563 5.5Z" fill="#FD71AF"/>
<path d="M583 5.5C583 6.32843 582.328 7 581.5 7C580.672 7 580 6.32843 580 5.5C580 4.67157 580.672 4 581.5 4C582.328 4 583 4.67157 583 5.5Z" fill="#FD71AF"/>
<path d="M603 5.5C603 6.32843 602.328 7 601.5 7C600.672 7 600 6.32843 600 5.5C600 4.67157 600.672 4 601.5 4C602.328 4 603 4.67157 603 5.5Z" fill="#FD71AF"/>
<path d="M563 25.5C563 26.3284 562.328 27 561.5 27C560.672 27 560 26.3284 560 25.5C560 24.6716 560.672 24 561.5 24C562.328 24 563 24.6716 563 25.5Z" fill="#FD71AF"/>
<path d="M583 25.5C583 26.3284 582.328 27 581.5 27C580.672 27 580 26.3284 580 25.5C580 24.6716 580.672 24 581.5 24C582.328 24 583 24.6716 583 25.5Z" fill="#FD71AF"/>
<path d="M603 25.5C603 26.3284 602.328 27 601.5 27C600.672 27 600 26.3284 600 25.5C600 24.6716 600.672 24 601.5 24C602.328 24 603 24.6716 603 25.5Z" fill="#FD71AF"/>
<path d="M563 45.5C563 46.3284 562.328 47 561.5 47C560.672 47 560 46.3284 560 45.5C560 44.6716 560.672 44 561.5 44C562.328 44 563 44.6716 563 45.5Z" fill="#FD71AF"/>
<path d="M583 45.5C583 46.3284 582.328 47 581.5 47C580.672 47 580 46.3284 580 45.5C580 44.6716 580.672 44 581.5 44C582.328 44 583 44.6716 583 45.5Z" fill="#FD71AF"/>
<path d="M603 45.5C603 46.3284 602.328 47 601.5 47C600.672 47 600 46.3284 600 45.5C600 44.6716 600.672 44 601.5 44C602.328 44 603 44.6716 603 45.5Z" fill="#FD71AF"/>
<path d="M563 65.5C563 66.3284 562.328 67 561.5 67C560.672 67 560 66.3284 560 65.5C560 64.6716 560.672 64 561.5 64C562.328 64 563 64.6716 563 65.5Z" fill="#FD71AF"/>
<path d="M583 65.5C583 66.3284 582.328 67 581.5 67C580.672 67 580 66.3284 580 65.5C580 64.6716 580.672 64 581.5 64C582.328 64 583 64.6716 583 65.5Z" fill="#FD71AF"/>
<path d="M603 65.5C603 66.3284 602.328 67 601.5 67C600.672 67 600 66.3284 600 65.5C600 64.6716 600.672 64 601.5 64C602.328 64 603 64.6716 603 65.5Z" fill="#FD71AF"/>
<path d="M563 85.5C563 86.3284 562.328 87 561.5 87C560.672 87 560 86.3284 560 85.5C560 84.6716 560.672 84 561.5 84C562.328 84 563 84.6716 563 85.5Z" fill="#FD71AF"/>
<path d="M583 85.5C583 86.3284 582.328 87 581.5 87C580.672 87 580 86.3284 580 85.5C580 84.6716 580.672 84 581.5 84C582.328 84 583 84.6716 583 85.5Z" fill="#FD71AF"/>
<path d="M603 85.5C603 86.3284 602.328 87 601.5 87C600.672 87 600 86.3284 600 85.5C600 84.6716 600.672 84 601.5 84C602.328 84 603 84.6716 603 85.5Z" fill="#FD71AF"/>
<path d="M563 105.5C563 106.328 562.328 107 561.5 107C560.672 107 560 106.328 560 105.5C560 104.672 560.672 104 561.5 104C562.328 104 563 104.672 563 105.5Z" fill="#FD71AF"/>
<path d="M583 105.5C583 106.328 582.328 107 581.5 107C580.672 107 580 106.328 580 105.5C580 104.672 580.672 104 581.5 104C582.328 104 583 104.672 583 105.5Z" fill="#FD71AF"/>
<path d="M603 105.5C603 106.328 602.328 107 601.5 107C600.672 107 600 106.328 600 105.5C600 104.672 600.672 104 601.5 104C602.328 104 603 104.672 603 105.5Z" fill="#FD71AF"/>
<path d="M563 125.5C563 126.328 562.328 127 561.5 127C560.672 127 560 126.328 560 125.5C560 124.672 560.672 124 561.5 124C562.328 124 563 124.672 563 125.5Z" fill="#FD71AF"/>
<path d="M583 125.5C583 126.328 582.328 127 581.5 127C580.672 127 580 126.328 580 125.5C580 124.672 580.672 124 581.5 124C582.328 124 583 124.672 583 125.5Z" fill="#FD71AF"/>
<path d="M603 125.5C603 126.328 602.328 127 601.5 127C600.672 127 600 126.328 600 125.5C600 124.672 600.672 124 601.5 124C602.328 124 603 124.672 603 125.5Z" fill="#FD71AF"/>
<path d="M563 145.5C563 146.328 562.328 147 561.5 147C560.672 147 560 146.328 560 145.5C560 144.672 560.672 144 561.5 144C562.328 144 563 144.672 563 145.5Z" fill="#FD71AF"/>
<path d="M583 145.5C583 146.328 582.328 147 581.5 147C580.672 147 580 146.328 580 145.5C580 144.672 580.672 144 581.5 144C582.328 144 583 144.672 583 145.5Z" fill="#FD71AF"/>
<path d="M603 145.5C603 146.328 602.328 147 601.5 147C600.672 147 600 146.328 600 145.5C600 144.672 600.672 144 601.5 144C602.328 144 603 144.672 603 145.5Z" fill="#FD71AF"/>
<path d="M563 165.5C563 166.328 562.328 167 561.5 167C560.672 167 560 166.328 560 165.5C560 164.672 560.672 164 561.5 164C562.328 164 563 164.672 563 165.5Z" fill="#FD71AF"/>
<path d="M583 165.5C583 166.328 582.328 167 581.5 167C580.672 167 580 166.328 580 165.5C580 164.672 580.672 164 581.5 164C582.328 164 583 164.672 583 165.5Z" fill="#FD71AF"/>
<path d="M603 165.5C603 166.328 602.328 167 601.5 167C600.672 167 600 166.328 600 165.5C600 164.672 600.672 164 601.5 164C602.328 164 603 164.672 603 165.5Z" fill="#FD71AF"/>
<path d="M563 185.5C563 186.328 562.328 187 561.5 187C560.672 187 560 186.328 560 185.5C560 184.672 560.672 184 561.5 184C562.328 184 563 184.672 563 185.5Z" fill="#FD71AF"/>
<path d="M583 185.5C583 186.328 582.328 187 581.5 187C580.672 187 580 186.328 580 185.5C580 184.672 580.672 184 581.5 184C582.328 184 583 184.672 583 185.5Z" fill="#FD71AF"/>
<path d="M603 185.5C603 186.328 602.328 187 601.5 187C600.672 187 600 186.328 600 185.5C600 184.672 600.672 184 601.5 184C602.328 184 603 184.672 603 185.5Z" fill="#FD71AF"/>
</g>
</g>
</svg>
