<svg fill="none" height="44" viewBox="0 0 45 44" width="45" xmlns="http://www.w3.org/2000/svg"><g fill="#ffc800"><circle cx="22.998" cy="21.9994" opacity=".1" r="22"/><path d="m.999999 22c0 4.3512 1.290281 8.6047 3.707671 12.2225 2.41739 3.6179 5.85333 6.4377 9.87333 8.1028 4.0199 1.6652 8.4434 2.1009 12.711 1.252s8.1876-2.9442 11.2644-6.021c3.0767-3.0767 5.172-6.9967 6.0209-11.2643s.4132-8.6911-1.252-12.711c-1.6651-4.02001-4.4849-7.45594-8.1028-9.87333-3.6178-2.4174-7.8713-3.70767115-12.2225-3.70767096v8.36073096c2.6976 0 5.3346.79993 7.5776 2.29867 2.2429 1.4987 3.9911 3.6288 5.0234 6.1211 1.0324 2.4922 1.3025 5.2346.7762 7.8804-.5263 2.6457-1.8253 5.076-3.7328 6.9835s-4.3378 3.2065-6.9835 3.7328c-2.6458.5263-5.3882.2562-7.8804-.7762-2.4923-1.0323-4.6224-2.7805-6.1211-5.0234-1.4987-2.243-2.29867-4.88-2.29867-7.5776z"/></g></svg>