<svg width="205" height="205" xmlns="http://www.w3.org/2000/svg" xmlns:xlink="http://www.w3.org/1999/xlink"><defs><circle id="a" cx="102.5" cy="102.5" r="102.5"/></defs><g fill="none" fill-rule="evenodd"><mask id="b" fill="#fff"><use xlink:href="#a"/></mask><use fill="#FFF" xlink:href="#a"/><g mask="url(#b)"><path d="M102.088 214.963c10.44-.578 18.144-8.36 23.828-16.77.364.32.726.644 1.084.973a58.048 58.048 0 0 0-9.08-6.877 41.756 41.756 0 0 0-6.183-2.89c-2.378-.791-4.754-.355-6.823.859v5.308l-.91-5.308c-2.069-1.214-12.024-1.65-14.402-.859a41.756 41.756 0 0 0-6.184 2.89A56.599 56.599 0 0 0 78 196.054c2.121 11.318 12.206 19.568 24.088 18.91" fill="#ef4136"/><path fill="#3A3D3C" d="M78.005 196H78h.005M127 200l.02.02-.02-.02m-53-.845c.055-.05.11-.105.17-.155-.06.05-.115.105-.17.155m2-.945l.24-.21-.24.21m1-1.035c.07-.06.14-.12.21-.175-.07.055-.14.115-.21.175M144 222c-.079-.208-.155-.415-.24-.62-.102-.26-.213-.518-.321-.777a40.966 40.966 0 0 0-.646-1.488c-.094-.203-.184-.408-.278-.607-.131-.284-.266-.566-.4-.848l-.263-.532c-.15-.299-.298-.598-.45-.894-.056-.11-.117-.216-.173-.324a60.44 60.44 0 0 0-1.85-3.27c-.061-.1-.122-.2-.18-.299a56.677 56.677 0 0 0-.82-1.29c-.218-.335-.44-.67-.665-1.004a61.159 61.159 0 0 0-3.487-4.633l-.059-.071a63.289 63.289 0 0 0-.894-1.047l-.064-.077a60.87 60.87 0 0 0-5.07-5.14l-.01-.011a68.82 68.82 0 0 0-1.096-.96c-5.748 8.285-13.54 15.95-24.099 16.518-12.018.65-22.217-7.476-24.363-18.626l-.002.003a59.266 59.266 0 0 0-1.28 1.007c-.369.296-.731.598-1.094.902l-.14.12c-.362.31-.719.62-1.072.936-.036.029-.068.06-.1.088a60.133 60.133 0 0 0-6.29 6.577l-.16.191a65.12 65.12 0 0 0-.798 1.005c-.073.09-.143.182-.216.276a60.25 60.25 0 0 0-.742.984l-.228.313c-.243.328-.48.66-.713.994-.07.1-.138.202-.208.301a85.92 85.92 0 0 0-.704 1.036l-.129.202a59.321 59.321 0 0 0-2.186 3.609c-.04.07-.082.14-.12.21a58.38 58.38 0 0 0-.514.954 56.91 56.91 0 0 1-.266.5c-.152.294-.298.59-.444.883a55.814 55.814 0 0 0-.693 1.443l-.298.649c-.123.273-.243.549-.363.825-.099.23-.195.46-.292.694-.11.268-.222.532-.33.803A19.67 19.67 0 0 0 59 222h85"/><path d="M84.424 193.639c.787 9.817 10.415 16.934 20.125 15.06 7.585-1.464 13.187-7.831 17.451-14.357a56.435 56.435 0 0 0-3.047-1.994 42.62 42.62 0 0 0-6.306-2.941c-2.426-.806-4.848-.362-6.96.873v5.403l-.926-5.403c-2.11-1.235-12.262-1.68-14.687-.873A42.688 42.688 0 0 0 84 192.22c.227.4.38.874.424 1.418" fill="#FFFFFE"/><path d="M101.501 138C95.174 138 90 143.252 90 149.668v41.667C90 197.751 95.174 203 101.501 203c6.325 0 11.499-5.25 11.499-11.665v-41.667c0-6.416-5.174-11.668-11.499-11.668" fill="#F8CB93"/><path d="M101.501 204C95.174 204 90 198.65 90 192.112v-14.068a52.555 52.555 0 0 0 11.401 1.242c3.993 0 7.875-.446 11.599-1.286v14.112c0 6.538-5.174 11.888-11.499 11.888" fill="#E7A47B"/><path d="M64 107.001C64 113.63 58.63 119 52.001 119 45.374 119 40 113.63 40 107.001 40 100.374 45.374 95 52.001 95 58.63 95 64 100.374 64 107.001m75 0c0 6.628 5.374 11.999 12.001 11.999 6.628 0 11.999-5.37 11.999-11.999C163 100.374 157.63 95 151.001 95 144.374 95 139 100.374 139 107.001" fill="#F8CB93"/><path d="M51 114c-3.383-.31-6-2.43-6-5.001 0-2.569 2.617-4.688 6-4.999v10m100 0v-10c3.866 0 7 2.24 7 4.999 0 2.762-3.134 5.001-7 5.001" fill="#E7A47B"/><path d="M101 34c-27.501 0-50 20.162-50 44.803v55.394C51 158.838 73.499 179 101 179c27.498 0 50-20.162 50-44.803V78.803C151 54.162 128.498 34 101 34m.401 152.236A55.2 55.2 0 0 1 90 185.042v5.664C90 196.918 95.174 202 101.501 202c6.325 0 11.499-5.082 11.499-11.294V185a55.141 55.141 0 0 1-11.599 1.236" fill="#F8CB93"/><path d="M86.438 92.3a56.199 56.199 0 0 0-19.23 1.33c-1.594.39-2.534 1.963-2.104 3.393.427 1.432 1.923 2.245 3.345 1.896a50.98 50.98 0 0 1 17.456-1.204c1.452.148 2.83-.865 3.064-2.344.237-1.475-.898-2.901-2.53-3.071m29.298-5.3a56.718 56.718 0 0 1 18.385 3.096c1.497.515 2.248 2.054 1.698 3.33-.55 1.276-2.07 1.88-3.404 1.422a51.369 51.369 0 0 0-16.687-2.81c-1.414-.003-2.642-1.07-2.725-2.453-.086-1.382 1.147-2.588 2.733-2.585" fill="#221B18"/><path d="M74 132h-6c-1.65 0-3-1.35-3-3s1.35-3 3-3h6c1.65 0 3 1.35 3 3s-1.35 3-3 3m60 0h-6c-1.65 0-3-1.35-3-3s1.35-3 3-3h6c1.65 0 3 1.35 3 3s-1.35 3-3 3" fill="#F2B987"/><path d="M88.26 140a7.927 7.927 0 0 0-.26 2c0 5.522 5.82 10 13 10s13-4.478 13-10c0-.684-.092-1.353-.26-2H88.26" fill="#FFFFFE"/><path d="M77.254 103h-2.508c-2.06 0-3.746 1.8-3.746 4.002C71 109.2 72.686 111 74.746 111h2.508c2.06 0 3.746-1.8 3.746-3.998C81 104.8 79.314 103 77.254 103" fill="#202323"/><path d="M75.5 107a1.5 1.5 0 1 1-.001-2.999A1.5 1.5 0 0 1 75.5 107m1.502 2a1.002 1.002 0 0 1-1.002-.998 1 1 0 1 1 1.002.998" fill="#8A8D89"/><path d="M126.254 103h-2.508c-2.06 0-3.746 1.8-3.746 4.002 0 2.198 1.686 3.998 3.746 3.998h2.508c2.062 0 3.746-1.8 3.746-3.998 0-2.202-1.684-4.002-3.746-4.002" fill="#202323"/><path d="M123.499 107a1.5 1.5 0 1 1 1.501-1.499c0 .828-.674 1.499-1.501 1.499m2.499 2a.999.999 0 0 1 0-2 1 1 0 1 1 0 2" fill="#8A8D89"/><path d="M53.263 60.833c-.712-.538-1.323-1.328-1.78-2.46-3.547-8.758-.444-17.993 6.264-23.658a29.39 29.39 0 0 1 5.428-3.626c1.896-.99 3.874-1.773 5.897-2.401 8.407-3.047 16.638-3.51 24.822-2.798a93.86 93.86 0 0 1 4.1.449c1.366.176 2.735.382 4.104.607 13.109 2.584 26.567 7.066 39.384 1.302 3.847-1.921 6.409-5.766 5.77-10.248 9.825 9.207 13.768 26.063 4.49 37.035-.406.477-.832.943-1.272 1.397a17.39 17.39 0 0 1-.497.917 10.851 10.851 0 0 1-.788 1.794c-2.741 4.899-8.062 4.054-13.163 3.209-2.079-.344-4.12-.689-5.932-.642-.504-.058-.99-.119-1.491-.168-1.36-.188-2.698-.342-3.987-.4-.46-.046-.914-.095-1.369-.138a97.695 97.695 0 0 0-2.698-.24c-2.756-.194-5.512-.37-8.277-.521-13.806-.758-27.693-.874-41.355.821-2.252.081-4.501.133-6.75.133l-1.069.061c-3.234.183-7.232 1.534-9.831-.425" fill="#221B18"/><path d="M50.266 95s-4.718-25.389-.539-40l8.019 3.192S60.136 82.16 50.266 95m100.468 0s4.718-25.389.539-40l-8.019 3.192s-2.39 23.968 7.48 36.808" fill="#221B18"/><path d="M151.591 42h-.014c-.645-.008-1.412-.717-1.319-1.559.195-1.73.131-3.8-.216-5.503-.238-1.173.585-1.938 1.366-1.938.519 0 1.016.335 1.176 1.111.185.92.226 1.888.33 2.822.129 1.134.105 2.377-.021 3.508-.093.825-.524 1.559-1.302 1.559m-2.09 5c-2.003 0-2-3 0-3s1.997 3 0 3" fill="#918E88"/><path d="M89.227 190L101 203.268 89.959 218s-15.158-27.786-.732-28m22.993-1L101 202.366 110.863 217s15.111-27.787 1.357-28" fill="#FFFFFE"/><path d="M130.197 123.405c-9.228-1.772-19.788-2.19-28.175 2.835-.461.275-.87.576-1.24.889a9.41 9.41 0 0 0-1.418-.563c-9.355-2.845-19.5.114-28.025 4.066-7.274 3.37-14.502 6.527-22.598 4.195-1.623-.469-3.005-1.207-4.615-2.226.201.776.317 1.29.441 1.729.221.779.485 1.505.843 2.235 2.94 5.956 9.861 9.703 15.799 12.002 7.331 2.832 15.56 3.727 23.257 1.95 5.465-1.259 10.558-3.93 14.564-7.87.073-.073.15-.142.224-.21 1.001-.923 2.065-2.255 2.944-3.768 1.22 1.255 2.574 2.29 3.77 2.944.088.048.179.096.267.149 4.84 2.855 10.429 4.214 16.035 4.113 7.9-.137 15.666-2.997 22.095-7.519 5.205-3.666 11.015-8.977 12.426-15.467.171-.795.252-1.563.277-2.372.015-.456.003-.983.01-1.785-1.316 1.379-2.478 2.43-3.939 3.276-7.292 4.222-15.07 2.908-22.942 1.397z" fill="#2C231E"/><path d="M108.898 138.856c-3.807.915-5.986 3.47-5.092 7.337l1.517 1.321c2.618 2.328.893 2.398 4.699 1.483l58.822-9.417-3.316-14.341-56.63 13.617z" fill="#963"/><path d="M103.96 142.945l-.05-.204c-.465 1.232-.959 1.78-.626 3.155 1.204 3.298 3.073 4.655 5.61 4.073l59.969-10.749-.931-3.841-55.452 12.725c-3.805.873-7.62-1.436-8.52-5.159z" fill="#845225"/><path d="M172.896 136.573a2.738 2.738 0 0 0-.144-.157c-.799-.8.05-.985-.26-1.783-.497-1.28-1.07-2.092-1.587-3.27-.373-.852.626-2.64.185-3.522-.537-1.072-.477-.157-.53-1.955v-.02c-.031-.942-.83-1.61-1.661-1.39l-3.368.897 2.923 14.04 3.346-.891c.786-.21 1.276-1.082 1.096-1.95" fill="#B9522B"/><path d="M123.3 135.326l.736 2.525c-1.121.983-1.636 2.414-1.216 3.851.42 1.438 1.67 2.535 3.219 3.014l.736 2.525 5.323-1.005-.737-2.525c1.121-.983 1.636-2.414 1.216-3.851-.42-1.438-1.67-2.535-3.219-3.014l-.736-2.525-5.323 1.005" fill="#FFE89B"/></g></g></svg>