<svg xmlns="http://www.w3.org/2000/svg" viewBox="0 0 95.017 21.045"><path fill="#4A4A4A" d="M51.993 19.15V1.773C51.993.825 51.206 0 50.197 0c-1.103 0-1.88.825-1.88 1.773v6.573H37.288V1.773C37.288.825 36.458 0 35.45 0c-1.071 0-1.838.825-1.838 1.773V19.15c0 .978.83 1.875 1.838 1.875 1.071 0 1.838-.897 1.838-1.875v-7.746h11.029v7.746c0 .978.84 1.875 1.88 1.875 1.072 0 1.796-.897 1.796-1.875zM57.508 0c-1.003 0-1.838.795-1.838 1.781 0 1.014.836 1.808 1.838 1.808 1.003 0 1.838-.795 1.838-1.808C59.346.795 58.51 0 57.508 0zm1.838 19.322V7.323c0-.861-.886-1.682-1.838-1.682-1.088 0-1.838.82-1.838 1.682v11.999c0 .892.888 1.702 1.908 1.702 1.02.001 1.768-.81 1.768-1.702zM77.727 7.264c0-.857-.697-1.623-1.743-1.623-.666 0-1.299.367-1.553 1.011l-4.014 10.271-4.13-10.302c-.254-.612-.856-.98-1.553-.98-1.014 0-1.711.796-1.711 1.592 0 .184.032.398.127.582l4.817 11.422c.38.919 1.405 1.788 2.451 1.788h.063c1.046 0 1.891-.869 2.303-1.788l4.817-11.422c.095-.184.126-.398.126-.551zm17.29 5.443c0 .861-.725 1.6-1.639 1.6H83.357c.221 2.215 1.954 4.092 4.79 4.092a6.663 6.663 0 0 0 3.403-.985c.221-.123.473-.185.693-.185.693 0 1.418.554 1.418 1.354 0 1.692-3.907 2.461-5.861 2.461-4.569 0-7.972-3.108-7.972-7.815 0-4.307 3.214-7.784 7.72-7.784 3.561 0 6.145 2.092 7.09 5.292.19.616.379 1.324.379 1.97zm-3.067-.759c-.063-1.723-1.26-3.938-4.222-3.938-2.773 0-4.065 2.154-4.222 3.938h8.444z"/><linearGradient id="a" gradientUnits="userSpaceOnUse" x1="-613.137" y1="377.807" x2="-612.137" y2="377.807" gradientTransform="matrix(29.044 0 0 -21.0247 17807.938 7953.769)"><stop offset="0" stop-color="#fbc67a"/><stop offset="1" stop-color="#ffa561"/></linearGradient><path fill="url(#a)" d="M16.976 21.025c-.232-1.116-1.242-1.956-2.454-1.956s-2.222.84-2.454 1.956H7.261c-1.239 0-2.253-1.21-2.253-2.689s1.014-2.689 2.253-2.689h14.522c1.239 0 2.253 1.21 2.253 2.689s-1.014 2.689-2.253 2.689h-4.807zm4.807-15.647H7.261c-1.239 0-2.253-1.21-2.253-2.689S6.022 0 7.261 0h14.522c1.239 0 2.253 1.21 2.253 2.689s-1.014 2.689-2.253 2.689zM2.55 13.202c-1.403 0-2.55-1.21-2.55-2.689 0-1.48 1.148-2.689 2.55-2.689h23.944c1.403 0 2.55 1.21 2.55 2.689s-1.148 2.689-2.55 2.689H2.55z"/></svg>