<svg width="205" height="205" xmlns="http://www.w3.org/2000/svg" xmlns:xlink="http://www.w3.org/1999/xlink"><defs><circle id="a" cx="102.5" cy="102.5" r="102.5"/></defs><g fill="none" fill-rule="evenodd"><mask id="b" fill="#fff"><use xlink:href="#a"/></mask><use fill="#FFF" xlink:href="#a"/><g mask="url(#b)" fill-rule="nonzero"><path d="M172 162H35V42.542A2.54 2.54 0 0 1 37.537 40h131.926A2.54 2.54 0 0 1 172 42.542V162z" fill="#B9785F"/><path d="M172 80.6a6.528 6.528 0 0 1-1.615.223c-3.694 0-6.688-3.055-6.688-6.823 0 3.768-2.995 6.823-6.689 6.823S150.32 77.768 150.32 74c0 3.768-2.995 6.823-6.689 6.823s-6.689-3.055-6.689-6.823c0 3.768-2.994 6.823-6.688 6.823-3.694 0-6.689-3.055-6.689-6.823 0 3.768-2.994 6.823-6.688 6.823-3.694 0-6.689-3.055-6.689-6.823 0 3.768-2.994 6.823-6.688 6.823-3.694 0-6.689-3.055-6.689-6.823 0 3.768-2.994 6.823-6.688 6.823-3.694 0-6.689-3.055-6.689-6.823 0 3.768-2.994 6.823-6.688 6.823-3.694 0-6.689-3.055-6.689-6.823 0 3.768-2.994 6.823-6.688 6.823-3.694 0-6.689-3.055-6.689-6.823 0 3.768-2.994 6.823-6.688 6.823-3.694 0-6.689-3.055-6.689-6.823 0 3.768-2.994 6.823-6.688 6.823-.56 0-1.095-.09-1.615-.222v5.232c.533.076 1.062.167 1.615.167 2.482 0 4.788-.789 6.688-2.134A11.541 11.541 0 0 0 49.993 86c2.482 0 4.787-.789 6.688-2.134A11.537 11.537 0 0 0 63.369 86c2.483 0 4.789-.789 6.689-2.134A11.537 11.537 0 0 0 76.746 86c2.483 0 4.789-.789 6.689-2.134A11.537 11.537 0 0 0 90.123 86c2.483 0 4.789-.789 6.689-2.134A11.535 11.535 0 0 0 103.5 86c2.483 0 4.788-.789 6.689-2.134A11.537 11.537 0 0 0 116.877 86c2.483 0 4.788-.789 6.689-2.134A11.537 11.537 0 0 0 130.254 86c2.483 0 4.789-.789 6.689-2.134A11.537 11.537 0 0 0 143.63 86c2.483 0 4.789-.789 6.689-2.134A11.537 11.537 0 0 0 157.008 86c2.483 0 4.789-.789 6.689-2.134A11.537 11.537 0 0 0 170.385 86c.553 0 1.082-.091 1.615-.167v-5.232z" fill="#AA6455"/><path fill="#B4E1FA" d="M48 90h71v45H48z"/><path fill="#DAF0FD" d="M107 134h-5.143L71 93h5.143z"/><path d="M89.987 79.99c-3.681 0-6.665-2.778-6.665-6.205V68.22h13.33v5.564c0 3.427-2.984 6.206-6.665 6.206zm26.661 0c-3.681 0-6.665-2.778-6.665-6.205V68.22h13.33v5.564c0 3.427-2.984 6.206-6.665 6.206zm-53.322 0c-3.68 0-6.665-2.778-6.665-6.205V68.22h13.33v5.564c0 3.427-2.984 6.206-6.665 6.206zm-26.66 0c-3.682 0-6.666-2.778-6.666-6.205V68.22h13.33v5.564c0 3.427-2.984 6.206-6.665 6.206zm106.643 0c-3.681 0-6.666-2.778-6.666-6.205V68.22h13.33v5.564c0 3.427-2.983 6.206-6.664 6.206z" fill="#D2555A"/><path d="M75.846 79.99c-3.68 0-6.664-2.778-6.664-6.205V68.22H82.51v5.564c0 3.427-2.983 6.206-6.663 6.206zm53.308 0c-3.68 0-6.663-2.778-6.663-6.205V68.22h13.327v5.564c0 3.427-2.984 6.206-6.664 6.206z" fill="#C7CFE2"/><path d="M170.5 80c-3.59 0-6.5-2.833-6.5-6.327V68h13v5.673c0 3.494-2.91 6.327-6.5 6.327z" fill="#D2555A"/><path d="M156.195 79.99c-3.672 0-6.65-2.778-6.65-6.205V68.22h13.3v5.564c-.001 3.427-2.978 6.206-6.65 6.206zm-106.39 0c-3.672 0-6.65-2.778-6.65-6.205V68.22h13.3v5.564c0 3.427-2.978 6.206-6.65 6.206zm53.195 0c-3.672 0-6.65-2.778-6.65-6.205V68.22h13.3v5.564c0 3.427-2.978 6.206-6.65 6.206z" fill="#C7CFE2"/><path d="M96.652 69.95h-13.33L84.7 49.06h12.411zm26.661 0h-13.33l-.46-20.889h12.411zm-53.322 0h-13.33l3.218-20.889h12.41zm-26.66 0H30l5.056-20.889h12.412zm106.643 0h-13.33l-2.299-20.889h12.411z" fill="#FF6464"/><path d="M82.51 69.95H69.181L71.48 49.06h12.408zm53.308 0H122.49l-1.379-20.889h12.408z" fill="#EFF2FA"/><path fill="#FF6464" d="M177 70h-13.737L159 49h12.79z"/><path d="M162.844 69.95h-13.299l-3.21-20.889h12.382zm-106.39 0H43.157l4.127-20.889h12.382zm53.195 0H96.351l.458-20.889h12.382z" fill="#EFF2FA"/><path d="M173.482 164H32.517A2.509 2.509 0 0 1 30 161.5c0-1.38 1.127-2.5 2.517-2.5h140.966c1.39 0 2.517 1.12 2.517 2.5a2.51 2.51 0 0 1-2.518 2.5z" fill="#C7CFE2"/><path fill="#AFB9D2" d="M35.189 155.254h137.622v4.646H35.189z" opacity=".97"/><path fill="#AA6455" d="M35 145h137v9H35z"/><path d="M116.157 93.195v40.53H50.34v-40.53h65.817zm2.532-5.066h-70.88a2.533 2.533 0 0 0-2.532 2.533v45.596a2.533 2.533 0 0 0 2.531 2.534h70.88a2.533 2.533 0 0 0 2.532-2.534V90.662a2.532 2.532 0 0 0-2.531-2.533zm40.503 0h-25.315a2.533 2.533 0 0 0-2.531 2.533v63.328h30.377V90.662a2.532 2.532 0 0 0-2.531-2.533z" fill="#5B5D6E"/><path fill="#B4E1FA" d="M136 93h21v41h-21z"/><path fill="#A0D2F0" d="M51 93h66v5H51zm85 0h21v5h-21z"/><path fill="#A0D2F0" d="M97 134H86.75L56 93h10.25z"/><path fill="#B4E1FA" d="M80 98l-3.857-5H71l3.857 5z"/><path fill="#DAF0FD" d="M157 112.5L141.25 93H136l21 26z"/><path fill="#B4E1FA" d="M145 98l-3.857-5H136l3.857 5z"/><path fill="#A0D2F0" d="M136 93h21v5h-21z"/><path fill="#DAF0FD" d="M157 112.5L141.25 93H136l21 26z"/><path fill="#A0D2F0" d="M136 100v13.6l15.75 20.4H157v-6.8z"/></g></g></svg>