<svg xmlns="http://www.w3.org/2000/svg" width="45" height="48"><path fill="#7462E1" fill-rule="evenodd" d="M22.463 9.858a12.58 12.58 0 0 1 8.916 3.693 12.558 12.558 0 0 1 3.687 8.907 12.596 12.596 0 0 1-4.584 9.722v3.415c0 .72-.291 1.371-.767 1.84a2.614 2.614 0 0 1-.869.583v4.318c0 .713-.292 1.372-.767 1.84a2.603 2.603 0 0 1-1.847.767h-.998v1.643c0 .238-.19.435-.435.435h-4.672a.433.433 0 0 1-.434-.435v-1.643h-1.005a2.599 2.599 0 0 1-1.84-.767l-.007-.007a2.592 2.592 0 0 1-.761-1.833v-4.324a2.498 2.498 0 0 1-.87-.577h-.006a2.62 2.62 0 0 1-.76-1.84V32.18a12.596 12.596 0 0 1-3.341-4.264 12.458 12.458 0 0 1-1.243-5.458 12.53 12.53 0 0 1 3.687-8.907 12.57 12.57 0 0 1 8.916-3.693zm-11.686.298L7.198 6.58a.439.439 0 0 0-.618 0 .438.438 0 0 0 0 .617l3.579 3.578c.17.17.441.17.618 0a.451.451 0 0 0 0-.618zm23.99.618l3.58-3.578a.438.438 0 0 0 0-.617.439.439 0 0 0-.619 0l-3.578 3.577a.438.438 0 0 0 0 .618c.17.17.448.17.618 0zM5.5 22.024a.433.433 0 1 1 0 .869H.435A.433.433 0 0 1 0 22.458c0-.238.197-.434.435-.434H5.5zm33.926.869a.433.433 0 0 1-.435-.435c0-.238.197-.434.435-.434h5.059a.435.435 0 0 1 0 .869h-5.059zM22.898 5.499a.438.438 0 0 1-.435.435.438.438 0 0 1-.434-.435V.434c0-.237.197-.434.434-.434.238 0 .435.197.435.434V5.5zm-5.949 35.255h11.028v-2.552H16.95v2.552zm11.028.876H16.95v.706c0 .475.197.91.51 1.229.312.312.753.51 1.229.51h7.544c.482 0 .917-.198 1.229-.51.32-.319.516-.754.516-1.229v-.706zm-2.139-14.31v-2.288h-2.94v2.26a.438.438 0 0 1-.435.435.438.438 0 0 1-.434-.434v-2.26h-2.94v12.3h6.75V27.32zm0-3.157v-2.254a.435.435 0 1 1 .87 0v15.425h1.167c.476 0 .91-.197 1.223-.51.319-.312.516-.753.516-1.228v-3.619c0-.129.054-.258.163-.346a11.837 11.837 0 0 0 3.266-4.087 11.69 11.69 0 0 0 1.154-5.085 11.72 11.72 0 0 0-3.436-8.296 11.697 11.697 0 0 0-8.298-3.435c-3.239 0-6.172 1.31-8.298 3.435a11.692 11.692 0 0 0-3.436 8.296c0 1.82.414 3.55 1.154 5.085a11.796 11.796 0 0 0 3.246 4.073.45.45 0 0 1 .184.36v3.619c0 .475.197.916.509 1.229.32.319.747.509 1.23.509h1.167V21.908a.44.44 0 0 1 .435-.441.44.44 0 0 1 .434.441v2.254h2.94v-2.254a.44.44 0 0 1 .435-.441.44.44 0 0 1 .435.441v2.254h2.94zm-5.276 21.99h3.803v-1.209h-3.803v1.209z"/></svg>