
<svg width="18px" height="15px" viewBox="-1 -1 18 15" version="1.1" xmlns="http://www.w3.org/2000/svg" xmlns:xlink="http://www.w3.org/1999/xlink">
    <!-- Generator: Sketch 41 (35326) - http://www.bohemiancoding.com/sketch -->
    <desc>Created with Sketch.</desc>
    <defs></defs>
    <path d="M15.6126234,3.75856407 C15.0576656,4.03899037 9.22597766,7.49842346 8.88576077,7.67105827 C8.54554388,7.8445352 8.30806576,7.8647461 7.97963857,7.8647461 C7.65205349,7.8647461 7.41373325,7.8445352 7.07351636,7.67105827 C6.7341416,7.49842346 0.941191193,4.03814825 0.38623345,3.75772195 C-0.00366857629,3.5589814 -0.000300092265,3.79140679 -0.000300092265,3.96993645 L-0.000300092265,12.0281924 C-0.000300092265,12.436621 0.565605224,13 1.00013966,13 L14.9995593,13 C15.4340937,13 15.999999,12.436621 15.999999,12.0281924 L15.999999,3.97162069 C15.999999,3.79224891 16.0033675,3.55982352 15.6126234,3.75856407 M0.574026434,1.61789248 C1.0616145,1.87305514 6.82172218,5.40154216 7.07351636,5.53291303 C7.32615266,5.66428391 7.65205349,5.72660087 7.97963857,5.72660087 C8.30806576,5.72660087 8.63396659,5.66428391 8.88576077,5.53291303 C9.13755495,5.40154216 14.8976626,1.87305514 15.3852507,1.61789248 C15.874523,1.36188769 16.3368474,0.368184902 15.4399886,0.368184902 L0.520972811,0.368184902 C-0.375886061,0.368184902 0.0855962504,1.36188769 0.574026434,1.61789248" id="Fill-1" stroke="#fff" stroke-width="1" fill="none"></path>
</svg>
