<svg width="250" height="235" viewBox="0 0 250 235" fill="none" xmlns="http://www.w3.org/2000/svg">
<path fill-rule="evenodd" clip-rule="evenodd" d="M111.972 157.038C112.392 161.216 112.05 175.868 102.956 175.868H98.823H157.798H153.376C142.92 175.868 143.938 161.226 144.359 157.038L144.12 150.596H112.083L111.972 157.038Z" fill="white"/>
<path fill-rule="evenodd" clip-rule="evenodd" d="M153.376 176.616C153.789 176.616 154.124 176.28 154.124 175.868C154.124 175.455 153.789 175.121 153.376 175.121C151.073 175.121 149.286 174.383 147.913 172.864C145.363 170.044 144.365 164.451 145.103 157.113C145.144 156.702 144.845 156.335 144.434 156.294C144.023 156.254 143.656 156.553 143.615 156.963C142.614 166.913 144.797 171.648 146.804 173.868C148.453 175.69 150.664 176.616 153.376 176.616Z" fill="#5D7183"/>
<path fill-rule="evenodd" clip-rule="evenodd" d="M102.956 176.616C105.282 176.616 107.256 175.739 108.821 174.007C112.962 169.429 113.037 160.152 112.716 156.963C112.675 156.553 112.308 156.254 111.897 156.294C111.487 156.335 111.188 156.702 111.229 157.113C111.51 159.916 111.468 168.851 107.713 173.005C106.425 174.428 104.868 175.121 102.956 175.121C102.543 175.121 102.208 175.455 102.208 175.868C102.208 176.28 102.543 176.616 102.956 176.616Z" fill="#5D7183"/>
<path fill-rule="evenodd" clip-rule="evenodd" d="M112.377 176.616H144.119C144.532 176.616 144.867 176.28 144.867 175.868C144.867 175.454 144.532 175.12 144.119 175.12H112.377C111.965 175.12 111.629 175.454 111.629 175.868C111.629 176.28 111.965 176.616 112.377 176.616Z" fill="#5D7183"/>
<path fill-rule="evenodd" clip-rule="evenodd" d="M223.856 154.368H32.7655C30.9294 154.368 29.4422 152.879 29.4422 151.045V25.8585C29.4422 24.023 30.9294 22.5352 32.7655 22.5352H223.856C225.692 22.5352 227.18 24.023 227.18 25.8585V151.045C227.18 152.879 225.692 154.368 223.856 154.368Z" fill="white"/>
<path opacity="0.4" fill-rule="evenodd" clip-rule="evenodd" d="M218.147 135.411H38.4738V31.1963H218.147V135.411Z" fill="#E9EBF0"/>
<path fill-rule="evenodd" clip-rule="evenodd" d="M79.9827 155.115H223.826C226.088 155.115 227.928 153.278 227.928 151.019V25.883C227.928 23.6244 226.088 21.7871 223.826 21.7871H32.7958C30.5342 21.7871 28.6947 23.6244 28.6947 25.883V55.5662C28.6947 55.9792 29.0287 56.314 29.4425 56.314C29.8546 56.314 30.1902 55.9792 30.1902 55.5662V25.883C30.1902 24.4491 31.3584 23.2826 32.7958 23.2826H223.826C225.263 23.2826 226.432 24.4491 226.432 25.883V151.019C226.432 152.453 225.263 153.62 223.826 153.62H79.9827C79.5689 153.62 79.2349 153.954 79.2349 154.368C79.2349 154.78 79.5689 155.115 79.9827 155.115Z" fill="#5D7183"/>
<path fill-rule="evenodd" clip-rule="evenodd" d="M77.5082 136.159H219.589C220.002 136.159 220.336 135.825 220.336 135.411C220.336 134.999 220.002 134.663 219.589 134.663H77.5082C77.0945 134.663 76.7605 134.999 76.7605 135.411C76.7605 135.825 77.0945 136.159 77.5082 136.159Z" fill="#5D7183"/>
<path fill-rule="evenodd" clip-rule="evenodd" d="M138.826 78.0244C144.748 78.0245 150.338 77.6738 155.794 77.3316C156.088 77.3133 156.343 77.1247 156.447 76.8499C157.114 75.0883 157.14 73.0581 156.519 71.2796C156.383 70.8897 155.957 70.6847 155.567 70.82C155.177 70.9562 154.971 71.3826 155.107 71.7726C155.562 73.0754 155.592 74.5436 155.2 75.8705C147.918 76.3266 140.384 76.7784 132.169 76.3678C126.047 76.0619 119.74 76.0466 113.641 76.0318C109.55 76.0219 105.328 76.0116 101.189 75.9135C101.184 75.4785 101.179 74.9615 101.174 74.4448C101.164 73.5911 101.156 72.7375 101.147 72.2487C101.139 71.8357 100.797 71.5009 100.385 71.5147C99.9724 71.5222 99.6434 71.863 99.6516 72.2759C99.66 72.7621 99.6683 73.6113 99.6783 74.4605C99.6866 75.3142 99.6949 76.1679 99.7049 76.6566C99.7115 77.0568 100.032 77.3801 100.433 77.3904C104.816 77.5057 109.301 77.5167 113.638 77.5274C119.72 77.5421 126.008 77.5574 132.094 77.8614C134.389 77.9762 136.631 78.0244 138.826 78.0244Z" fill="#5D7183"/>
<path fill-rule="evenodd" clip-rule="evenodd" d="M128.317 72.3477C128.721 72.3477 129.053 72.0264 129.064 71.6206C129.173 67.6684 129.2 63.3585 129.225 59.1905C129.25 55.0325 129.276 50.7328 129.385 46.7986C129.396 46.3859 129.071 46.0421 128.658 46.0306C128.246 46.0186 127.901 46.3445 127.89 46.7574C127.781 50.7077 127.755 55.0153 127.729 59.1814C127.704 63.3414 127.678 67.6433 127.569 71.5794C127.558 71.9921 127.883 72.3359 128.296 72.3474C128.303 72.3477 128.31 72.3477 128.317 72.3477Z" fill="#5D7183"/>
<path fill-rule="evenodd" clip-rule="evenodd" d="M128.38 73.147C128.562 73.147 128.745 73.0806 128.889 72.947C130.1 71.821 131.243 70.6803 132.347 69.5774C133.443 68.4839 134.575 67.3529 135.767 66.2449C136.07 65.9639 136.087 65.4907 135.806 65.1882C135.524 64.8856 135.051 64.8685 134.749 65.1495C133.537 66.2756 132.395 67.4162 131.29 68.5192C130.355 69.4533 129.392 70.4146 128.389 71.3656C127.033 70.0571 125.697 68.8268 124.4 67.6329C122.947 66.2956 121.445 64.9125 119.93 63.4318C119.634 63.1434 119.162 63.1482 118.873 63.444C118.584 63.7392 118.589 64.2128 118.885 64.5013C120.417 65.9978 121.927 67.3883 123.388 68.7331C124.84 70.0704 126.342 71.4535 127.857 72.934C128.002 73.0759 128.191 73.147 128.38 73.147Z" fill="#5D7183"/>
<path fill-rule="evenodd" clip-rule="evenodd" d="M61.9318 111.861C61.9318 111.861 124.443 113.123 151.521 113.123C157.632 113.123 194.69 111.861 194.69 111.861C196.095 111.861 197.234 110.723 197.234 109.32V94.8789C197.234 93.4759 196.095 92.3385 194.69 92.3385C194.69 92.3385 122.396 91.0146 98.8229 91.0146C89.2067 91.0146 61.9318 92.3385 61.9318 92.3385C60.5277 92.3385 59.3878 93.4759 59.3878 94.8789V109.32C59.3878 110.723 60.5277 111.861 61.9318 111.861Z" fill="white"/>
<path fill-rule="evenodd" clip-rule="evenodd" d="M105.809 111.861C139.898 114.215 194.723 111.861 194.723 111.861C196.11 111.861 197.234 110.739 197.234 109.354V94.846C197.234 93.4613 196.11 92.3387 194.723 92.3387L105.809 91.4287V111.861Z" fill="#96E296"/>
<path fill-rule="evenodd" clip-rule="evenodd" d="M151.521 113.871C157.535 113.871 193.865 112.637 194.703 112.608C196.512 112.601 197.982 111.129 197.982 109.32V94.8788C197.982 93.0654 196.505 91.5903 194.689 91.5903C193.98 91.5772 122.133 90.2666 98.8227 90.2666C95.0158 90.2666 88.0683 90.4698 78.1729 90.8706C77.7608 90.8874 77.4401 91.2355 77.4567 91.6481C77.4733 92.0504 77.804 92.3656 78.2028 92.3656C78.2128 92.3656 78.2228 92.3655 78.2344 92.365C88.1081 91.9648 95.0357 91.7621 98.8227 91.7621C122.12 91.7621 193.953 93.0725 194.676 93.0858C195.68 93.0858 196.486 93.8901 196.486 94.8788V109.32C196.486 110.309 195.68 111.113 194.689 111.113C194.681 111.113 194.672 111.113 194.664 111.113C194.293 111.126 157.549 112.375 151.521 112.375C132.675 112.375 96.5246 111.761 76.6525 111.394C76.6475 111.394 76.6425 111.394 76.6392 111.394C76.2321 111.394 75.8981 111.72 75.8913 112.128C75.8831 112.541 76.2121 112.882 76.6242 112.89C96.5013 113.256 132.662 113.871 151.521 113.871Z" fill="#96E296"/>
<path fill-rule="evenodd" clip-rule="evenodd" d="M231.742 21.0193C231.991 21.0193 232.234 20.8956 232.376 20.6698C235.044 16.43 238.62 12.9657 242.717 10.652C243.077 10.4488 243.204 9.99264 243.001 9.63305C242.798 9.27346 242.341 9.14667 241.982 9.34973C237.67 11.7851 233.91 15.424 231.11 19.8732C230.89 20.2226 230.995 20.6844 231.345 20.9043C231.469 20.9822 231.606 21.0193 231.742 21.0193Z" fill="#5D7183"/>
<path fill-rule="evenodd" clip-rule="evenodd" d="M238.983 24.2839C239.06 24.2839 239.139 24.2718 239.216 24.2465L249.485 20.8764C249.878 20.7476 250.091 20.3251 249.963 19.9328C249.834 19.5404 249.411 19.3266 249.019 19.4555L238.75 22.8254C238.357 22.9542 238.144 23.3766 238.272 23.7691C238.376 24.084 238.668 24.2839 238.983 24.2839Z" fill="#5D7183"/>
<path fill-rule="evenodd" clip-rule="evenodd" d="M225.171 16.4762C225.482 16.4762 225.772 16.2815 225.878 15.9715L231.032 0.991102C231.167 0.600606 230.959 0.175048 230.568 0.040784C230.178 -0.0933141 229.753 0.114067 229.618 0.504564L224.464 15.485C224.33 15.8755 224.537 16.3011 224.928 16.4353C225.008 16.4631 225.091 16.4762 225.171 16.4762Z" fill="#5D7183"/>
<path fill-rule="evenodd" clip-rule="evenodd" d="M2.88856 225.05C1.98626 199.889 5.87959 180.308 12.3951 156.195C15.4177 145.004 15.1153 132.631 15.3512 121.016C15.7417 101.668 16.6274 69.8603 43.9007 72.6483C65.1669 74.8226 72.0098 98.6268 72.9785 116.55C73.4637 125.54 72.7409 134.598 73.7811 143.543C75.4395 157.822 81.3086 169.088 87.7177 181.09C92.1644 189.417 109.646 217.274 115 225.05H2.88856Z" fill="white"/>
<path fill-rule="evenodd" clip-rule="evenodd" d="M17.7775 130.216C20.1038 118.925 22.7559 107.008 31.0361 98.6922C34.0969 95.6192 38.0949 93.0793 42.5948 92.8924C50.1837 92.5773 57.2425 98.9072 64.6836 97.5755C71.7358 96.3136 77.6746 88.9896 79.0738 82.6667C80.5411 76.0329 78.1549 65.8431 70.5593 63.2308C70.1555 66.1643 66.6759 67.6543 63.5752 68.0287C60.4762 68.4031 57.3373 67.3489 54.5523 65.9312C51.7673 64.5132 49.1966 62.72 46.3518 61.4185C39.6669 58.3612 31.7323 58.2595 24.8429 60.578C17.9519 62.8964 12.0978 67.5064 7.8821 73.1346C2.15758 80.7785 -0.634048 90.3797 0.120354 99.8328C1.17553 113.064 8.76945 125.07 16.5412 136.245C17.1992 134.128 17.3321 132.386 17.7775 130.216Z" fill="white"/>
<path opacity="0.1361" fill-rule="evenodd" clip-rule="evenodd" d="M17.7775 130.216C20.1038 118.925 22.7559 107.008 31.0361 98.6922C34.0969 95.6192 38.0949 93.0793 42.5948 92.8924C50.1837 92.5773 57.2425 98.9072 64.6836 97.5755C71.7358 96.3136 77.6746 88.9896 79.0738 82.6667C80.5411 76.0329 78.1549 65.8431 70.5593 63.2308C70.1555 66.1643 66.6759 67.6543 63.5752 68.0287C60.4762 68.4031 57.3373 67.3489 54.5523 65.9312C51.7673 64.5132 49.1966 62.72 46.3518 61.4185C39.6669 58.3612 31.7323 58.2595 24.8429 60.578C17.9519 62.8964 12.0978 67.5064 7.8821 73.1346C2.15758 80.7785 -0.634048 90.3797 0.120354 99.8328C1.17553 113.064 8.76945 125.07 16.5412 136.245C17.1992 134.128 17.3321 132.386 17.7775 130.216Z" fill="url(#paint0_linear)"/>
<path fill-rule="evenodd" clip-rule="evenodd" d="M2.8885 225.799C2.89681 225.799 2.90679 225.799 2.9151 225.799C3.32886 225.784 3.65122 225.437 3.63627 225.024C2.74726 200.257 6.43952 181.104 13.1162 156.39C15.7383 146.686 15.8812 136.159 16.0192 125.978C16.0424 124.349 16.0657 122.666 16.0973 121.031C16.2285 114.571 16.408 105.723 17.9118 97.5886C19.6184 88.3631 22.6393 81.9389 27.1491 77.9487C31.3582 74.2248 36.9697 72.6912 43.8242 73.3928C53.1296 74.3441 60.3846 79.6102 65.3896 89.0442C70.5757 98.8178 71.9017 110.498 72.2307 116.591C72.4285 120.23 72.4251 123.951 72.4235 127.548C72.4202 132.826 72.4168 138.283 73.0383 143.63C74.7532 158.402 81.0078 170.116 87.058 181.443C91.5977 189.946 106.764 212.821 111.762 220.081C111.997 220.422 112.462 220.506 112.802 220.274C113.141 220.039 113.228 219.572 112.994 219.233C108.009 211.992 92.8905 189.19 88.3773 180.739C82.3936 169.534 76.2055 157.947 74.5238 143.457C73.9123 138.196 73.9157 132.784 73.919 127.55C73.9207 123.931 73.924 120.189 73.7246 116.51C73.3889 110.294 72.0313 98.37 66.7106 88.3433C64.2679 83.7373 61.247 80.0264 57.7358 77.3137C53.7744 74.2532 49.1449 72.4335 43.9771 71.9051C36.6872 71.1597 30.6935 72.8165 26.1588 76.8287C21.3897 81.0485 18.2109 87.7501 16.4412 97.3166C14.9158 105.571 14.7347 114.489 14.6034 121.001C14.5702 122.641 14.5469 124.328 14.5253 125.958C14.3874 136.046 14.2461 146.478 11.6722 156.001C4.95897 180.852 1.24676 200.122 2.14075 225.078C2.1557 225.481 2.48804 225.799 2.8885 225.799Z" fill="#5D7183"/>
<path fill-rule="evenodd" clip-rule="evenodd" d="M79.4844 191.086C79.5442 191.086 79.6041 191.08 79.6656 191.065C79.9913 190.983 80.2239 190.692 80.2322 190.355C80.2638 188.999 79.2584 185.433 77.6001 179.724C76.3821 175.524 74.9995 170.767 75.0278 169.542C75.0477 168.725 76.2957 167.585 77.1215 166.832C77.3276 166.644 77.522 166.467 77.6948 166.299C77.9922 166.011 78.0006 165.538 77.7131 165.242C77.4256 164.945 76.952 164.936 76.6562 165.224C76.4984 165.377 76.3106 165.546 76.1129 165.727C74.9796 166.762 73.5672 168.05 73.5339 169.507C73.5024 170.863 74.506 174.429 76.1644 180.141C76.5316 181.404 76.9121 182.718 77.2661 183.971C76.6978 182.74 76.0929 181.423 75.4947 180.122C73.4259 175.618 71.4718 171.364 70.8004 170.166C70.4864 169.606 70.0959 168.911 69.4129 168.464C68.1052 167.605 65.5828 168.256 62.4206 169.197C61.5498 169.454 60.729 169.699 60.2438 169.778C57.1597 170.285 54.0789 170.604 51.0895 170.726C45.4232 170.955 39.9795 170.505 34.9113 169.385C28.3493 167.936 19.328 164.737 13.6085 157.736C13.3476 157.417 12.8757 157.369 12.555 157.631C12.2359 157.892 12.1878 158.363 12.4503 158.683C18.4407 166.016 27.796 169.345 34.589 170.845C39.7817 171.993 45.3534 172.455 51.151 172.219C54.2002 172.095 57.3408 171.771 60.4847 171.254C61.0646 171.159 61.8905 170.913 62.8459 170.629C64.5641 170.119 67.7612 169.169 68.5921 169.714C68.9709 169.961 69.2501 170.458 69.496 170.897C70.1391 172.043 72.1714 176.467 74.1355 180.745C76.2043 185.25 78.1601 189.506 78.8314 190.704C78.966 190.945 79.2186 191.086 79.4844 191.086Z" fill="#5D7183"/>
<path fill-rule="evenodd" clip-rule="evenodd" d="M64.2797 132.902C65.2884 132.902 66.1359 132.561 66.8005 131.885C68.7646 129.888 68.4572 125.471 68.2927 123.098C68.2744 122.834 68.2595 122.599 68.2479 122.403C68.2263 121.99 67.8773 121.674 67.4619 121.695C67.0498 121.717 66.7324 122.069 66.754 122.481C66.7656 122.686 66.7823 122.928 66.8005 123.201C66.9385 125.187 67.2259 129.319 65.7337 130.836C65.3249 131.253 64.7915 131.438 64.1136 131.403C63.0285 131.346 62.2874 129.977 61.9418 129.166C61.3103 127.684 60.8833 126.122 60.6722 124.525C60.6191 124.115 60.2452 123.827 59.8331 123.881C59.4243 123.935 59.1368 124.311 59.19 124.72C59.4193 126.451 59.8813 128.144 60.5675 129.753C61.4117 131.734 62.6098 132.822 64.0355 132.895C64.1186 132.9 64.2 132.902 64.2797 132.902Z" fill="#5D7183"/>
<path fill-rule="evenodd" clip-rule="evenodd" d="M68.8775 180.085C68.9273 180.085 68.9788 180.079 69.032 180.069C69.8678 179.893 70.4478 179.063 70.3281 178.218C70.2068 177.373 69.4159 176.742 68.5651 176.805C68.153 176.837 67.8439 177.196 67.8755 177.608C67.907 178.02 68.266 178.327 68.6781 178.296C68.7379 178.291 68.8392 178.37 68.8475 178.43C68.8559 178.488 68.7827 178.593 68.7229 178.605C68.3191 178.689 68.0616 179.087 68.1463 179.49C68.2194 179.843 68.5302 180.085 68.8775 180.085Z" fill="#5D7183"/>
<path fill-rule="evenodd" clip-rule="evenodd" d="M72.8986 191.704C72.9484 191.704 73 191.699 73.0531 191.687C73.889 191.513 74.4705 190.682 74.3492 189.838C74.2279 188.993 73.437 188.359 72.5862 188.423C72.1741 188.457 71.865 188.816 71.8966 189.228C71.9282 189.638 72.2854 189.947 72.6992 189.916C72.764 189.909 72.8604 189.989 72.8687 190.049C72.877 190.108 72.8039 190.211 72.7457 190.225C72.3403 190.31 72.0827 190.705 72.1675 191.11C72.2406 191.463 72.5513 191.704 72.8986 191.704Z" fill="#5D7183"/>
<path fill-rule="evenodd" clip-rule="evenodd" d="M161.315 224.549C161.529 224.549 161.742 224.458 161.89 224.28C162.154 223.964 162.112 223.492 161.795 223.228C160.791 222.389 159.696 221.643 158.637 220.922C157.379 220.064 156.077 219.177 154.975 218.16C151.909 215.327 151.889 212.655 152.15 211.314C152.386 210.106 153.026 209.087 153.906 208.519C154.802 207.942 156.026 207.944 156.473 208.524C156.726 208.851 157.195 208.911 157.522 208.658C157.849 208.406 157.91 207.937 157.657 207.61C156.843 206.555 154.867 206.121 153.097 207.262C151.875 208.048 150.995 209.421 150.682 211.029C150.137 213.831 151.332 216.83 153.96 219.258C155.143 220.352 156.492 221.27 157.795 222.158C158.825 222.859 159.889 223.584 160.837 224.376C160.976 224.492 161.146 224.549 161.315 224.549Z" fill="#5D7183"/>
<path fill-rule="evenodd" clip-rule="evenodd" d="M193.998 194.525C196.44 205.596 188.736 232.613 185.402 232.914C181.029 233.308 170.907 233.927 166.754 232.443C163.396 231.244 154.256 206.543 157.629 195.948C157.629 195.948 170.706 196.146 175.253 195.968C179.799 195.79 193.998 194.525 193.998 194.525Z" fill="white"/>
<path fill-rule="evenodd" clip-rule="evenodd" d="M193.395 195.329C194.238 200.15 193.432 208.292 191.197 217.348C190.214 221.333 189.043 225.054 187.901 227.825C186.214 231.92 185.336 232.167 185.327 232.169C172.317 233.342 167.782 232.018 167.005 231.74C165.92 231.351 162.937 226.059 160.383 217.504C157.772 208.754 156.983 201.23 158.187 196.703C160.757 196.738 171.31 196.87 175.282 196.715C179.227 196.561 190.522 195.582 193.395 195.329ZM175.579 234.136C179.65 234.136 183.695 233.817 185.469 233.658C186.063 233.605 186.624 233.191 187.233 232.358C189.126 229.773 191.538 222.878 193.235 215.203C195.172 206.439 195.716 198.844 194.728 194.364C194.647 193.997 194.308 193.746 193.932 193.781C193.79 193.792 179.699 195.045 175.224 195.22C170.75 195.396 157.77 195.201 157.64 195.2C157.636 195.2 157.632 195.2 157.628 195.2C157.303 195.2 157.015 195.411 156.916 195.72C154.776 202.445 157.626 213.493 158.95 217.932C160.064 221.664 161.418 225.256 162.763 228.05C164.952 232.594 166.119 233.011 166.502 233.148C168.62 233.905 172.109 234.136 175.579 234.136Z" fill="#5D7183"/>
<path fill-rule="evenodd" clip-rule="evenodd" d="M179.185 190.812C179.854 190.812 180.531 190.596 181.165 190.167C182.41 189.328 183.219 187.854 183.227 186.412C183.234 185.197 182.922 183.248 180.147 180.356C179.924 180.124 179.698 179.893 179.471 179.663C178.198 178.369 176.995 177.146 176.413 175.596C176.032 174.582 176.064 173.369 176.496 172.428C176.702 171.98 177.101 171.39 177.828 171.126C178.216 170.984 178.416 170.554 178.275 170.167C178.134 169.778 177.705 169.577 177.317 169.72C176.358 170.069 175.604 170.788 175.138 171.804C174.544 173.093 174.496 174.746 175.013 176.122C175.706 177.968 177.078 179.363 178.405 180.712C178.627 180.938 178.849 181.164 179.068 181.392C180.314 182.689 181.743 184.432 181.731 186.403C181.726 187.35 181.162 188.366 180.329 188.927C179.993 189.155 179.32 189.492 178.588 189.2C178.204 189.047 177.769 189.235 177.616 189.619C177.464 190.002 177.651 190.438 178.035 190.589C178.409 190.739 178.795 190.812 179.185 190.812Z" fill="white"/>
<path fill-rule="evenodd" clip-rule="evenodd" d="M169.88 191.086C169.978 191.086 170.078 191.068 170.173 191.026C172.329 190.104 173.83 187.914 173.908 185.573C173.986 183.233 172.634 180.946 170.544 179.885C170.176 179.697 169.726 179.843 169.539 180.212C169.352 180.579 169.498 181.029 169.867 181.217C171.424 182.01 172.471 183.78 172.413 185.523C172.355 187.266 171.192 188.964 169.586 189.65C169.206 189.813 169.03 190.252 169.192 190.632C169.314 190.917 169.59 191.086 169.88 191.086Z" fill="white"/>
<path fill-rule="evenodd" clip-rule="evenodd" d="M111.423 225.138C114.338 225.138 117.239 225.007 120.121 224.743C131.89 223.664 143.333 220.364 154.134 214.937C154.503 214.753 154.652 214.302 154.466 213.934C154.281 213.565 153.832 213.415 153.462 213.601C142.83 218.944 131.566 222.192 119.984 223.254C109.682 224.198 99.1219 223.425 88.5951 220.954C79.2847 218.767 70.2019 215.318 61.601 210.698C54.0171 206.625 47.0181 201.72 41.3617 196.514C41.0576 196.235 40.5857 196.253 40.3048 196.557C40.0257 196.861 40.0456 197.335 40.3497 197.614C46.0958 202.905 53.2012 207.885 60.8931 212.016C69.6103 216.697 78.8161 220.193 88.2545 222.41C95.9946 224.226 103.755 225.138 111.423 225.138Z" fill="#5D7183"/>
<defs>
<linearGradient id="paint0_linear" x1="-0.000763236" y1="58.9668" x2="83.4797" y2="62.359" gradientUnits="userSpaceOnUse">
<stop stop-color="#49CCF9"/>
<stop offset="1" stop-color="#8930FD"/>
</linearGradient>
</defs>
</svg>
