<svg viewBox="0 0 90 69" xmlns="http://www.w3.org/2000/svg"><g fill="none"><path d="M29.6593548,0.159677419 C30.8268861,0.0485330912 31.9995374,7.64249423e-05 33.1722581,0.014516129 C51.2883871,0.014516129 65.8335484,14.8790323 65.97,33.5758065 C65.8480645,39.3619355 61.9519355,43.9635484 56.6506452,43.9635484 C51.2970968,43.9635484 46.6635484,40.1196774 46.6635484,33.57 C46.6635484,26.0709677 40.293871,20.1483871 32.6409677,20.1483871 C24.9967742,20.1483871 19.4893548,26.5703226 19.3877419,34.2696774 C19.3877419,47.7551613 27.0232258,60.4364516 37.6780645,66.0890323 C38.5867742,66.6696774 38.9409677,66.7277419 39.7683871,67.1980645 C37.3964516,67.8658065 34.6645161,68.0980645 33.1664516,68.0980645 C14.9051613,68.0980645 0.0987096774,53.073871 0.0987096774,34.2667742 C0.0987096774,16.8183871 12.9309677,1.98870968 29.6535484,0.159677419 L29.6593548,0.159677419 Z" fill="#46B1FF"/><path d="M49.5406452,0.731612903 C61.9083871,5.59451613 70.0548387,19.8754839 70.1622581,34.2580645 C69.9967742,42.2883871 63.5225806,48.1006452 56.6622581,48.1006452 C49.8106452,48.1006452 42.7035484,43.1651613 42.7035484,34.2522581 C42.7035484,28.3064516 38.2383871,24.2651613 32.6583871,24.2651613 C27.4035484,24.2651613 23.3970968,28.6025806 23.3970968,34.2522581 C23.3970968,39.1587097 24.3377419,41.9254839 24.8109677,43.9490323 C25.2754839,45.9754839 27.1393548,49.7496774 27.1829032,49.8425806 C27.3570968,50.1996774 29.1280645,53.4919355 31.3809677,56.2412903 C32.8614905,57.9963915 34.5117607,59.6009559 36.3077419,61.0316129 C36.4906452,61.1767742 37.9335484,62.28 38.4851613,62.6574194 C38.6883871,62.7967742 42.2593548,65.096129 45.783871,66.2458065 C49.3141935,67.3896774 52.2870968,68.0574194 56.2064516,68.0574194 C74.4183871,68.0574194 89.37,53.0622581 89.37,34.2580645 C89.3758065,15.4509677 74.8741935,0.0406451613 56.3893548,0.0406451613 C54.4209677,0.0406451613 51.416129,0.389032258 49.5377419,0.731612903 L49.5406452,0.731612903 Z" fill="#8ED4FE"/></g></svg>