<svg width="718" height="794" fill="none" xmlns="http://www.w3.org/2000/svg"><g filter="url(#filter0_di)"><path d="M626.219 147.192l-29.897 20.734c-3.724 2.583-3.199 8.243.936 10.097l34.306 15.381c4.136 1.854 8.711-1.519 8.161-6.018l-4.408-36.115c-.531-4.35-5.496-6.577-9.098-4.079z" fill="url(#paint0_linear)"/><path d="M626.219 147.192l-29.897 20.734c-3.724 2.583-3.199 8.243.936 10.097l34.306 15.381c4.136 1.854 8.711-1.519 8.161-6.018l-4.408-36.115c-.531-4.35-5.496-6.577-9.098-4.079z" fill="url(#paint1_linear)"/></g><g filter="url(#filter1_di)"><path d="M136.523 372.544l-59.794 41.469c-7.449 5.165-6.4 16.486 1.872 20.194l68.611 30.762c8.271 3.709 17.422-3.039 16.323-12.036l-8.817-72.231c-1.062-8.7-10.992-13.153-18.195-8.158z" fill="url(#paint2_linear)"/><path d="M136.523 372.544l-59.794 41.469c-7.449 5.165-6.4 16.486 1.872 20.194l68.611 30.762c8.271 3.709 17.422-3.039 16.323-12.036l-8.817-72.231c-1.062-8.7-10.992-13.153-18.195-8.158z" fill="url(#paint3_linear)"/></g><g filter="url(#filter2_di)"><path d="M361.296 80.686L122.119 246.56c-29.795 20.663-25.597 65.944 7.488 80.778l274.445 123.049c33.085 14.834 69.685-12.155 65.292-48.146l-35.268-288.922c-4.248-34.802-43.97-52.611-72.78-32.632z" fill="url(#paint4_linear)"/><path d="M361.296 80.686L122.119 246.56c-29.795 20.663-25.597 65.944 7.488 80.778l274.445 123.049c33.085 14.834 69.685-12.155 65.292-48.146l-35.268-288.922c-4.248-34.802-43.97-52.611-72.78-32.632z" fill="url(#paint5_linear)"/></g><g filter="url(#filter3_di)"><path d="M222.36 491.199L72.874 594.869c-18.621 12.914-15.998 41.215 4.68 50.486l171.529 76.906c20.678 9.271 43.553-7.597 40.807-30.092l-22.042-180.576c-2.655-21.751-27.482-32.882-45.488-20.394z" fill="url(#paint6_linear)"/><path d="M222.36 491.199L72.874 594.869c-18.621 12.914-15.998 41.215 4.68 50.486l171.529 76.906c20.678 9.271 43.553-7.597 40.807-30.092l-22.042-180.576c-2.655-21.751-27.482-32.882-45.488-20.394z" fill="url(#paint7_linear)"/></g><g filter="url(#filter4_di)"><path d="M579.623 338.853L430.137 442.524c-18.622 12.914-15.998 41.215 4.68 50.486l171.528 76.906c20.678 9.271 43.554-7.597 40.808-30.092l-22.042-180.576c-2.655-21.751-27.482-32.882-45.488-20.395z" fill="url(#paint8_linear)"/><path d="M579.623 338.853L430.137 442.524c-18.622 12.914-15.998 41.215 4.68 50.486l171.528 76.906c20.678 9.271 43.554-7.597 40.808-30.092l-22.042-180.576c-2.655-21.751-27.482-32.882-45.488-20.395z" fill="url(#paint9_linear)"/></g><g filter="url(#filter5_di)"><path d="M580.747 534.151l-29.897 20.734c-3.724 2.583-3.2 8.243.936 10.097l34.306 15.382c4.135 1.854 8.71-1.52 8.161-6.019l-4.408-36.115c-.531-4.35-5.497-6.576-9.098-4.079z" fill="url(#paint10_linear)"/><path d="M580.747 534.151l-29.897 20.734c-3.724 2.583-3.2 8.243.936 10.097l34.306 15.382c4.135 1.854 8.71-1.52 8.161-6.019l-4.408-36.115c-.531-4.35-5.497-6.576-9.098-4.079z" fill="url(#paint11_linear)"/></g><defs><linearGradient id="paint0_linear" x1="631.936" y1="146.627" x2="621.667" y2="187.535" gradientUnits="userSpaceOnUse"><stop stop-color="#5DDD93"/><stop offset="1" stop-color="#00B884"/></linearGradient><linearGradient id="paint1_linear" x1="595.861" y1="159.536" x2="638.265" y2="178.34" gradientUnits="userSpaceOnUse"><stop stop-color="#FF9EC9"/><stop offset="1" stop-color="#FD71AF"/></linearGradient><linearGradient id="paint2_linear" x1="147.957" y1="371.414" x2="127.42" y2="453.231" gradientUnits="userSpaceOnUse"><stop stop-color="#5DDD93"/><stop offset="1" stop-color="#00B884"/></linearGradient><linearGradient id="paint3_linear" x1="75.807" y1="397.232" x2="160.614" y2="434.84" gradientUnits="userSpaceOnUse"><stop stop-color="#84DFFF"/><stop offset="1" stop-color="#49CCF9"/></linearGradient><linearGradient id="paint4_linear" x1="407.029" y1="76.165" x2="324.88" y2="403.433" gradientUnits="userSpaceOnUse"><stop stop-color="#5DDD93"/><stop offset="1" stop-color="#00B884"/></linearGradient><linearGradient id="paint5_linear" x1="118.446" y1="179.436" x2="497.291" y2="240.666" gradientUnits="userSpaceOnUse"><stop stop-color="#FFDB58"/><stop offset="1" stop-color="#FFC800"/></linearGradient><linearGradient id="paint6_linear" x1="250.943" y1="488.373" x2="199.6" y2="692.915" gradientUnits="userSpaceOnUse"><stop stop-color="#5DDD93"/><stop offset="1" stop-color="#00B884"/></linearGradient><linearGradient id="paint7_linear" x1="70.569" y1="552.918" x2="282.587" y2="646.938" gradientUnits="userSpaceOnUse"><stop stop-color="#FF9EC9"/><stop offset="1" stop-color="#FD71AF"/></linearGradient><linearGradient id="paint8_linear" x1="608.206" y1="336.028" x2="556.863" y2="540.57" gradientUnits="userSpaceOnUse"><stop stop-color="#5DDD93"/><stop offset="1" stop-color="#00B884"/></linearGradient><linearGradient id="paint9_linear" x1="427.832" y1="400.572" x2="664.631" y2="438.711" gradientUnits="userSpaceOnUse"><stop stop-color="#9F8FFF"/><stop offset="1" stop-color="#ef4136"/></linearGradient><linearGradient id="paint10_linear" x1="586.464" y1="533.586" x2="576.195" y2="574.494" gradientUnits="userSpaceOnUse"><stop stop-color="#5DDD93"/><stop offset="1" stop-color="#00B884"/></linearGradient><linearGradient id="paint11_linear" x1="550.389" y1="546.495" x2="592.793" y2="565.299" gradientUnits="userSpaceOnUse"><stop stop-color="#84DFFF"/><stop offset="1" stop-color="#49CCF9"/></linearGradient><filter id="filter0_di" x="543.353" y="109.088" width="150.895" height="149.768" filterUnits="userSpaceOnUse" color-interpolation-filters="sRGB"><feFlood flood-opacity="0" result="BackgroundImageFix"/><feColorMatrix in="SourceAlpha" values="0 0 0 0 0 0 0 0 0 0 0 0 0 0 0 0 0 0 127 0"/><feOffset dy="16.021"/><feGaussianBlur stdDeviation="24.031"/><feColorMatrix values="0 0 0 0 0.996078 0 0 0 0 0.478431 0 0 0 0 0.705882 0 0 0 0.5 0"/><feBlend in2="BackgroundImageFix" result="effect1_dropShadow"/><feBlend in="SourceGraphic" in2="effect1_dropShadow" result="shape"/><feColorMatrix in="SourceAlpha" values="0 0 0 0 0 0 0 0 0 0 0 0 0 0 0 0 0 0 127 0" result="hardAlpha"/><feOffset/><feGaussianBlur stdDeviation="5.34"/><feComposite in2="hardAlpha" operator="arithmetic" k2="-1" k3="1"/><feColorMatrix values="0 0 0 0 1 0 0 0 0 1 0 0 0 0 1 0 0 0 0.25 0"/><feBlend in2="shape" result="effect2_innerShadow"/></filter><filter id="filter1_di" x="18.852" y="328.378" width="205.666" height="203.412" filterUnits="userSpaceOnUse" color-interpolation-filters="sRGB"><feFlood flood-opacity="0" result="BackgroundImageFix"/><feColorMatrix in="SourceAlpha" values="0 0 0 0 0 0 0 0 0 0 0 0 0 0 0 0 0 0 127 0"/><feOffset dy="16.021"/><feGaussianBlur stdDeviation="24.031"/><feColorMatrix values="0 0 0 0 0.427451 0 0 0 0 0.847059 0 0 0 0 0.992157 0 0 0 0.5 0"/><feBlend in2="BackgroundImageFix" result="effect1_dropShadow"/><feBlend in="SourceGraphic" in2="effect1_dropShadow" result="shape"/><feColorMatrix in="SourceAlpha" values="0 0 0 0 0 0 0 0 0 0 0 0 0 0 0 0 0 0 127 0" result="hardAlpha"/><feOffset/><feGaussianBlur stdDeviation="5.34"/><feComposite in2="hardAlpha" operator="arithmetic" k2="-1" k3="1"/><feColorMatrix values="0 0 0 0 1 0 0 0 0 1 0 0 0 0 1 0 0 0 0.25 0"/><feBlend in2="shape" result="effect2_innerShadow"/></filter><filter id="filter2_di" x="34.794" y=".144" width="534.293" height="525.275" filterUnits="userSpaceOnUse" color-interpolation-filters="sRGB"><feFlood flood-opacity="0" result="BackgroundImageFix"/><feColorMatrix in="SourceAlpha" values="0 0 0 0 0 0 0 0 0 0 0 0 0 0 0 0 0 0 127 0"/><feOffset dy="16.021"/><feGaussianBlur stdDeviation="24.031"/><feColorMatrix values="0 0 0 0 1 0 0 0 0 0.807843 0 0 0 0 0.105882 0 0 0 0.5 0"/><feBlend in2="BackgroundImageFix" result="effect1_dropShadow"/><feBlend in="SourceGraphic" in2="effect1_dropShadow" result="shape"/><feColorMatrix in="SourceAlpha" values="0 0 0 0 0 0 0 0 0 0 0 0 0 0 0 0 0 0 127 0" result="hardAlpha"/><feOffset/><feGaussianBlur stdDeviation="5.34"/><feComposite in2="hardAlpha" operator="arithmetic" k2="-1" k3="1"/><feColorMatrix values="0 0 0 0 1 0 0 0 0 1 0 0 0 0 1 0 0 0 0.25 0"/><feBlend in2="shape" result="effect2_innerShadow"/></filter><filter id="filter3_di" x=".273" y="428.844" width="369.979" height="364.344" filterUnits="userSpaceOnUse" color-interpolation-filters="sRGB"><feFlood flood-opacity="0" result="BackgroundImageFix"/><feColorMatrix in="SourceAlpha" values="0 0 0 0 0 0 0 0 0 0 0 0 0 0 0 0 0 0 127 0"/><feOffset dy="16.021"/><feGaussianBlur stdDeviation="24.031"/><feColorMatrix values="0 0 0 0 0.996078 0 0 0 0 0.478431 0 0 0 0 0.705882 0 0 0 0.5 0"/><feBlend in2="BackgroundImageFix" result="effect1_dropShadow"/><feBlend in="SourceGraphic" in2="effect1_dropShadow" result="shape"/><feColorMatrix in="SourceAlpha" values="0 0 0 0 0 0 0 0 0 0 0 0 0 0 0 0 0 0 127 0" result="hardAlpha"/><feOffset/><feGaussianBlur stdDeviation="5.34"/><feComposite in2="hardAlpha" operator="arithmetic" k2="-1" k3="1"/><feColorMatrix values="0 0 0 0 1 0 0 0 0 1 0 0 0 0 1 0 0 0 0.25 0"/><feBlend in2="shape" result="effect2_innerShadow"/></filter><filter id="filter4_di" x="357.536" y="276.498" width="369.979" height="364.344" filterUnits="userSpaceOnUse" color-interpolation-filters="sRGB"><feFlood flood-opacity="0" result="BackgroundImageFix"/><feColorMatrix in="SourceAlpha" values="0 0 0 0 0 0 0 0 0 0 0 0 0 0 0 0 0 0 127 0"/><feOffset dy="16.021"/><feGaussianBlur stdDeviation="24.031"/><feColorMatrix values="0 0 0 0 0.509804 0 0 0 0 0.435294 0 0 0 0 0.94902 0 0 0 0.5 0"/><feBlend in2="BackgroundImageFix" result="effect1_dropShadow"/><feBlend in="SourceGraphic" in2="effect1_dropShadow" result="shape"/><feColorMatrix in="SourceAlpha" values="0 0 0 0 0 0 0 0 0 0 0 0 0 0 0 0 0 0 127 0" result="hardAlpha"/><feOffset/><feGaussianBlur stdDeviation="5.34"/><feComposite in2="hardAlpha" operator="arithmetic" k2="-1" k3="1"/><feColorMatrix values="0 0 0 0 1 0 0 0 0 1 0 0 0 0 1 0 0 0 0.25 0"/><feBlend in2="shape" result="effect2_innerShadow"/></filter><filter id="filter5_di" x="497.88" y="496.047" width="150.895" height="149.768" filterUnits="userSpaceOnUse" color-interpolation-filters="sRGB"><feFlood flood-opacity="0" result="BackgroundImageFix"/><feColorMatrix in="SourceAlpha" values="0 0 0 0 0 0 0 0 0 0 0 0 0 0 0 0 0 0 127 0"/><feOffset dy="16.021"/><feGaussianBlur stdDeviation="24.031"/><feColorMatrix values="0 0 0 0 0.427451 0 0 0 0 0.847059 0 0 0 0 0.992157 0 0 0 0.5 0"/><feBlend in2="BackgroundImageFix" result="effect1_dropShadow"/><feBlend in="SourceGraphic" in2="effect1_dropShadow" result="shape"/><feColorMatrix in="SourceAlpha" values="0 0 0 0 0 0 0 0 0 0 0 0 0 0 0 0 0 0 127 0" result="hardAlpha"/><feOffset/><feGaussianBlur stdDeviation="5.34"/><feComposite in2="hardAlpha" operator="arithmetic" k2="-1" k3="1"/><feColorMatrix values="0 0 0 0 1 0 0 0 0 1 0 0 0 0 1 0 0 0 0.25 0"/><feBlend in2="shape" result="effect2_innerShadow"/></filter></defs></svg>