<svg width="16" height="16" viewBox="0 0 16 16" fill="none" xmlns="http://www.w3.org/2000/svg">
<g opacity="0.6">
<path d="M8 9C9.10457 9 10 8.10457 10 7C10 5.89543 9.10457 5 8 5C6.89543 5 6 5.89543 6 7C6 8.10457 6.89543 9 8 9Z" fill="white"/>
<path fill-rule="evenodd" clip-rule="evenodd" d="M15 7C15 10.866 10 16 8 16C6 16 1 11 1 7C1 3.13401 4.13401 0 8 0C11.866 0 15 3.13401 15 7ZM13 7C13 10 8.5 14 8 14C7.5 14 3 10 3 7C3 4.23858 5.23858 2 8 2C10.7614 2 13 4.23858 13 7Z" fill="white"/>
</g>
</svg>
