<svg fill="none" height="86" viewBox="0 0 108 86" width="108" xmlns="http://www.w3.org/2000/svg"><path d="m108 86v-14.6969c-5.899-1.531-10.3838-3.6743-13.4545-6.4299-3.1516-2.7557-5.6566-6.2386-7.5152-10.4486-1.8586-4.2866-2.7879-9.4918-2.7879-15.6155 7.6768 0 13.3334-2.0668 16.9696-6.2003 3.636-4.1335 5.455-8.5349 5.455-13.2043 0-5.4348-2.021-10.02755-6.061-13.77832-4.0403-3.75079-8.7676-5.62617717-14.1818-5.62617623-6.9495.00000122-12.9293 2.87049623-17.9394 8.61149623-5.0909 5.6644-7.6363 13.4339-7.6363 23.3084 0 8.7263 1.9798 16.9168 5.9394 24.5714 3.9596 7.5781 9.3737 14.0846 16.2424 19.5194 6.7879 5.3582 15.1111 8.688 24.9697 9.9893zm-60.7273 0v-14.6969c-5.8989-1.531-10.4242-3.6743-13.5757-6.4299-3.1515-2.7557-5.6566-6.2386-7.5152-10.4486-1.8586-4.2866-2.7879-9.4918-2.7879-15.6155 7.6768 0 13.3738-2.0668 17.0909-6.2003 3.6364-4.1335 5.4546-8.5349 5.4546-13.2042 0-5.4349-2.0202-10.02764-6.0606-13.77841-4.0404-3.75079-8.7273-5.62617656-14.0606-5.62617563-7.1111.00000124-13.1717 2.87049563-18.18184 8.61149563-5.09091 5.66439-7.63637024 13.43389-7.63636852 23.30839.00000153 8.7263 2.02020852 16.9168 6.06061852 24.5714 3.95959 7.5781 9.37369 14.0846 16.24239 19.5194 6.7879 5.3582 15.1112 8.688 24.9697 9.9893z" fill="#ebf9fe"/></svg>