<svg fill="none" height="16" viewBox="0 0 16 16" width="16" xmlns="http://www.w3.org/2000/svg"><path clip-rule="evenodd" d="m3.41421.585786c-.78105-.781048-2.04738-.781048-2.828424 0-.781048.781044-.781048 2.047374 0 2.828424l4.585784 4.58579-4.585783 4.5858c-.781048.781-.781048 2.0474 0 2.8284.781053.7811 2.047383.7811 2.828423 0l4.58579-4.5858 4.5858 4.5858c.781.7811 2.0474.7811 2.8284 0 .7811-.781.7811-2.0474 0-2.8284l-4.5858-4.5858 4.5858-4.58579c.7811-.78105.7811-2.04738 0-2.828424-.781-.781048-2.0474-.781048-2.8284 0l-4.5858 4.585784z" fill="#fd7171" fill-rule="evenodd"/></svg>