<svg xmlns="http://www.w3.org/2000/svg" width="76.5" height="46.5"><path fill-rule="evenodd" stroke="#A39DAD" fill="#FFF" d="M9.5.5h57a4 4 0 0 1 4 4v36h-65v-36a4 4 0 0 1 4-4z"/><path fill-rule="evenodd" stroke="#A39DAD" fill="#FFF" d="M.5 39.5h75v2c0 2.761-2.239 4-5 4h-65c-2.761 0-5-1.239-5-4v-2zM10.5 4.5h55a1 1 0 0 1 1 1v30a1 1 0 0 1-1 1h-55a1 1 0 0 1-1-1v-30a1 1 0 0 1 1-1z"/><path fill-rule="evenodd" fill="#F8F8F8" d="M30.5 3.5h38v35h-38v-35z"/><path fill-rule="evenodd" opacity=".18" fill="#9E96AB" d="M37.5 28.5v-3h21v3h-21zm0-8h21v3h-21v-3zm0-6h10v3h-10v-3z"/><path fill-rule="evenodd" opacity=".302" fill="#9E96AB" d="M15.5 21.5v-2h10v2h-10zm0-7h4v2h-4v-2zm6 11h-6v-2h6v2zm3 4h-9v-2h9v2z"/><path fill-rule="evenodd" fill="#ef4136" d="M8.5 3.5h59v6h-59v-6z"/></svg>