<svg width="29" height="28" viewBox="0 0 29 28" fill="none" xmlns="http://www.w3.org/2000/svg">
<g clip-path="url(#clip0)">
<path d="M24.75 0H3.75C1.817 0 0.25 1.567 0.25 3.5V24.5C0.25 26.433 1.817 28 3.75 28H24.75C26.683 28 28.25 26.433 28.25 24.5V3.5C28.25 1.567 26.683 0 24.75 0Z" fill="#0079BF"/>
<path d="M22.9298 3.63965H17.7498C16.822 3.63965 16.0698 4.39181 16.0698 5.31965V14.2096C16.0698 15.1375 16.822 15.8896 17.7498 15.8896H22.9298C23.8577 15.8896 24.6098 15.1375 24.6098 14.2096V5.31965C24.6098 4.39181 23.8577 3.63965 22.9298 3.63965Z" fill="white"/>
<path d="M10.7501 3.63965H5.57014C4.6423 3.63965 3.89014 4.39181 3.89014 5.31965V21.2096C3.89014 22.1375 4.6423 22.8896 5.57014 22.8896H10.7501C11.678 22.8896 12.4301 22.1375 12.4301 21.2096V5.31965C12.4301 4.39181 11.678 3.63965 10.7501 3.63965Z" fill="white"/>
</g>
<defs>
<clipPath id="clip0">
<rect x="0.25" width="28" height="28" fill="white"/>
</clipPath>
</defs>
</svg>
