<svg width="35" height="26" viewBox="0 0 35 26" fill="none" xmlns="http://www.w3.org/2000/svg">
<path d="M33.7031 22.3645H3.6875V0.848877C3.6875 0.649658 3.55469 0.450439 3.42188 0.317627C3.28906 0.184814 3.08984 0.052002 2.89062 0.052002H1.29688C1.03125 0.052002 0.832031 0.184814 0.699219 0.317627C0.566406 0.450439 0.5 0.649658 0.5 0.848877V24.7551C0.5 25.0208 0.566406 25.22 0.699219 25.3528C0.832031 25.4856 1.03125 25.552 1.29688 25.552H33.7031C33.9023 25.552 34.1016 25.4856 34.2344 25.3528C34.3672 25.22 34.5 25.0208 34.5 24.7551V23.1614C34.5 22.9622 34.3672 22.7629 34.2344 22.6301C34.1016 22.4973 33.9023 22.3645 33.7031 22.3645ZM10.0625 18.3801C10.0625 18.6458 9.92969 18.845 9.79688 18.9778C9.66406 19.1106 9.46484 19.177 9.26562 19.177H7.67188C7.40625 19.177 7.20703 19.1106 7.07422 18.9778C6.94141 18.845 6.875 18.6458 6.875 18.3801V13.5989C6.875 13.3997 6.94141 13.2004 7.07422 13.0676C7.20703 12.9348 7.40625 12.802 7.67188 12.802H9.26562C9.46484 12.802 9.66406 12.9348 9.79688 13.0676C9.92969 13.2004 10.0625 13.3997 10.0625 13.5989V18.3801ZM16.4375 18.3801C16.4375 18.6458 16.3047 18.845 16.1719 18.9778C16.0391 19.1106 15.8398 19.177 15.6406 19.177H14.0469C13.7812 19.177 13.582 19.1106 13.4492 18.9778C13.3164 18.845 13.25 18.6458 13.25 18.3801V5.09888C13.25 4.89966 13.3164 4.70044 13.4492 4.56763C13.582 4.43481 13.7812 4.302 14.0469 4.302H15.6406C15.8398 4.302 16.0391 4.43481 16.1719 4.56763C16.3047 4.70044 16.4375 4.89966 16.4375 5.09888V18.3801ZM22.8125 18.3801C22.8125 18.6458 22.6797 18.845 22.5469 18.9778C22.4141 19.1106 22.2148 19.177 22.0156 19.177H20.4219C20.1562 19.177 19.957 19.1106 19.8242 18.9778C19.6914 18.845 19.625 18.6458 19.625 18.3801V9.34888C19.625 9.14966 19.6914 8.95044 19.8242 8.81763C19.957 8.68481 20.1562 8.552 20.4219 8.552H22.0156C22.2148 8.552 22.4141 8.68481 22.5469 8.81763C22.6797 8.95044 22.8125 9.14966 22.8125 9.34888V18.3801ZM29.1875 18.3801C29.1875 18.6458 29.0547 18.845 28.9219 18.9778C28.7891 19.1106 28.5898 19.177 28.3906 19.177H26.7969C26.5312 19.177 26.332 19.1106 26.1992 18.9778C26.0664 18.845 26 18.6458 26 18.3801V2.97388C26 2.77466 26.0664 2.57544 26.1992 2.44263C26.332 2.30981 26.5312 2.177 26.7969 2.177H28.3906C28.5898 2.177 28.7891 2.30981 28.9219 2.44263C29.0547 2.57544 29.1875 2.77466 29.1875 2.97388V18.3801Z" fill="#E9EBF0"/>
</svg>
