<svg width="40" height="32" viewBox="0 0 40 32" fill="none" xmlns="http://www.w3.org/2000/svg">
<path d="M40 0V5.46862C37.8152 6.03827 36.1541 6.83578 35.0168 7.86115C33.8496 8.88651 32.9218 10.1825 32.2334 11.749C31.5451 13.344 31.2009 15.2808 31.2009 17.5594C34.0441 17.5594 36.1392 18.3284 37.486 19.8665C38.8328 21.4045 39.5062 23.0423 39.5062 24.7797C39.5062 26.802 38.758 28.5109 37.2615 29.9065C35.7651 31.3022 34.0142 32 32.009 32C29.4351 32 27.2204 30.9319 25.3648 28.7957C23.4792 26.688 22.5365 23.7971 22.5365 20.1228C22.5365 16.8758 23.2697 13.8282 24.7363 10.98C26.2028 8.16021 28.208 5.73921 30.752 3.71696C33.266 1.72318 36.3487 0.4842 40 0ZM17.5084 0V5.46862C15.3236 6.03827 13.6476 6.83578 12.4804 7.86115C11.3131 8.88651 10.3853 10.1825 9.69697 11.749C9.0086 13.344 8.66442 15.2808 8.66442 17.5594C11.5077 17.5594 13.6177 18.3284 14.9944 19.8665C16.3412 21.4045 17.0146 23.0423 17.0146 24.7797C17.0146 26.802 16.2664 28.5109 14.7699 29.9065C13.2735 31.3022 11.5376 32 9.56229 32C6.92854 32 4.68388 30.9319 2.82828 28.7957C0.942757 26.688 -3.8147e-06 23.7971 -3.8147e-06 20.1228C-3.8147e-06 16.8758 0.748219 13.8282 2.24467 10.98C3.71118 8.16021 5.71642 5.73921 8.26038 3.71696C10.7744 1.72318 13.8571 0.4842 17.5084 0Z" fill="#49CCF9"/>
</svg>
