<svg xmlns="http://www.w3.org/2000/svg" xmlns:xlink="http://www.w3.org/1999/xlink" width="100" height="100"><svg xmlns="http://www.w3.org/2000/svg" viewBox="0 0 32 32" transform="matrix(.69 0 0 .69 15.5 15.5)" fill="#ef4136"><path d="M16 31.2C7.6 31.2.8 24.4.8 16 .8 7.6 7.6.7 16 .7 24.4.7 31.3 7.5 31.3 16c0 8.4-6.9 15.2-15.3 15.2zm0-29C8.4 2.2 2.3 8.4 2.3 16c0 7.6 6.2 13.7 13.8 13.7 7.6 0 13.8-6.2 13.8-13.7C29.8 8.4 23.6 2.2 16 2.2z"/><path d="M10.9 21.7c-.9 0-1.9-.1-2.6-.7-.7-.5-1-1.3-1.4-1.9-.4-.8-.7-1.3-1.2-1.4-.3 0-.5.1-.8.2-.8.3-2 .6-3.1.9L1 19l-.1-.8C.8 17.4.7 16.7.7 16 .7 9.3 5.2 3.3 11.6 1.4l.5-.2.3.4c.5.7.9 1.4 1.2 2 .9 1.4.9 2.4.3 3.2-.4.5-.9.7-1.4.9-1 .3-1.9.7-2.9 1-.4 0-.5.4-.5.7 0 .1 0 .5.5.6.2.1.4.1.7.1h.3c.4 0 .9 0 1.3.3 1.3.7 1.4 2.4 1.4 3.1l.1 6c0 .4 0 1.1-.5 1.6-.5.6-1.3.6-1.7.6h-.3zm-5.3-5.4h.2c1.3.1 1.9 1.3 2.3 2.2.3.6.6 1.1.9 1.4.4.3 1 .4 1.7.4h.2c.4 0 .6 0 .6-.1.1-.1.1-.5.1-.6l-.1-6c0-.7-.1-1.5-.6-1.8-.2-.1-.4-.1-.7-.1h-.3c-.3 0-.7-.1-1-.2-.9-.3-1.5-1.1-1.5-2.1S8.1 7.5 9 7.2c1-.3 1.9-.6 2.8-.9.3-.1.6-.2.7-.4.2-.2.1-.8-.3-1.5-.2-.4-.5-.9-.9-1.4C5.8 4.9 2 10.2 2 16c0 .4 0 .8.1 1.2.8-.2 1.5-.4 2.1-.6.6-.2 1-.3 1.4-.3zM24.5 7.7c-.7 0-1.4 0-2-.1-.4 0-1.2-.1-1.7-.7-.4-.5-.4-1.1-.4-1.4 0-1-.1-2.1 0-3.1l.1-.9.9.3c2.4.9 4.6 2.4 6.3 4.4l.6.7-.8.4c-.6.3-1.2.4-1.8.4h-1.2zm-2.7-4.2v1.9c0 .2 0 .5.1.6.1.1.3.1.7.2 1 .1 2 .1 3 .1h.1c-1.2-1.2-2.5-2.1-3.9-2.8zM18.6 31v-.9c-.1-1.7.6-3.4 1.3-4.8l.3-.5c.7-1.3 1.3-2.5 1.4-3.9.1-1.3-.3-2.9-1.5-3.4l-.9-.3c-.8-.2-1.8-.5-2.3-1.4-.5-.9-.2-2 0-2.6.3-1 .8-2.6 2.1-3.4.5-.3 1.2-.5 1.9-.5.9 0 1.9.3 2.8.6l2.5.8c1.3.4 2.7.9 4 1.1l.5.1.1.5c.3 1.2.4 2.4.4 3.5 0 7.1-4.8 13.2-11.8 14.8l-.8.3zm2.3-20.1c-.4 0-.8.1-1.1.3-.8.5-1.1 1.5-1.5 2.6-.2.5-.3 1.1-.1 1.4.2.3.6.5 1.3.7.4.1.7.2 1.1.4 1.9.9 2.6 3.2 2.4 5-.2 1.6-.9 3-1.6 4.4l-.2.3c-.5 1-.9 2-1.1 3.1 5.7-1.8 9.7-7 9.7-13.1 0-.9-.1-1.8-.3-2.7-1.3-.2-2.6-.7-3.8-1.1l-2.5-.8c-.7-.2-1.6-.5-2.3-.5z"/></svg></svg>