<svg width="660" height="520" fill="none" xmlns="http://www.w3.org/2000/svg"><path d="M0 95v175c0 138.071 111.929 250 250 250h250c88.366 0 160-71.634 160-160v-60C660 134.315 525.685 0 360 0H95C42.533 0 0 42.533 0 95z" fill="url(#paint0_linear)"/><mask id="a" maskUnits="userSpaceOnUse" x="0" y="0" width="660" height="520"><path d="M0 95v175c0 138.071 111.929 250 250 250h250c88.366 0 160-71.634 160-160v-60C660 134.315 525.685 0 360 0H95C42.533 0 0 42.533 0 95z" fill="url(#paint1_linear)"/></mask><g opacity=".1" fill="#000" mask="url(#a)"><path d="M12 30.5a1.5 1.5 0 11-3 0 1.5 1.5 0 013 0zM32 30.5a1.5 1.5 0 11-3 0 1.5 1.5 0 013 0zM52 30.5a1.5 1.5 0 11-3 0 1.5 1.5 0 013 0zM72 30.5a1.5 1.5 0 11-3 0 1.5 1.5 0 013 0zM92 30.5a1.5 1.5 0 11-3 0 1.5 1.5 0 013 0zM112 30.5a1.5 1.5 0 11-3 0 1.5 1.5 0 013 0zM132 30.5a1.5 1.5 0 11-3 0 1.5 1.5 0 013 0zM152 30.5a1.5 1.5 0 11-3 0 1.5 1.5 0 013 0zM172 30.5a1.5 1.5 0 11-3 0 1.5 1.5 0 013 0zM192 30.5a1.5 1.5 0 11-3 0 1.5 1.5 0 013 0zM12 50.5a1.5 1.5 0 11-3 0 1.5 1.5 0 013 0zM32 50.5a1.5 1.5 0 11-3 0 1.5 1.5 0 013 0zM52 50.5a1.5 1.5 0 11-3 0 1.5 1.5 0 013 0zM72 50.5a1.5 1.5 0 11-3 0 1.5 1.5 0 013 0zM92 50.5a1.5 1.5 0 11-3 0 1.5 1.5 0 013 0zM112 50.5a1.5 1.5 0 11-3 0 1.5 1.5 0 013 0zM132 50.5a1.5 1.5 0 11-3 0 1.5 1.5 0 013 0zM152 50.5a1.5 1.5 0 11-3 0 1.5 1.5 0 013 0zM172 50.5a1.5 1.5 0 11-3 0 1.5 1.5 0 013 0zM192 50.5a1.5 1.5 0 11-3 0 1.5 1.5 0 013 0zM212 30.5a1.5 1.5 0 11-3 0 1.5 1.5 0 013 0zM232 30.5a1.5 1.5 0 11-3 0 1.5 1.5 0 013 0zM252 30.5a1.5 1.5 0 11-3 0 1.5 1.5 0 013 0zM272 30.5a1.5 1.5 0 11-3 0 1.5 1.5 0 013 0zM292 30.5a1.5 1.5 0 11-3 0 1.5 1.5 0 013 0zM312 30.5a1.5 1.5 0 11-3 0 1.5 1.5 0 013 0zM332 30.5a1.5 1.5 0 11-3 0 1.5 1.5 0 013 0zM352 30.5a1.5 1.5 0 11-3 0 1.5 1.5 0 013 0zM372 30.5a1.5 1.5 0 11-3 0 1.5 1.5 0 013 0zM392 30.5a1.5 1.5 0 11-3 0 1.5 1.5 0 013 0zM412 30.5a1.5 1.5 0 11-3 0 1.5 1.5 0 013 0zM432 30.5a1.5 1.5 0 11-3 0 1.5 1.5 0 013 0zM452 30.5a1.5 1.5 0 11-3 0 1.5 1.5 0 013 0zM472 30.5a1.5 1.5 0 11-3 0 1.5 1.5 0 013 0zM492 30.5a1.5 1.5 0 11-3 0 1.5 1.5 0 013 0zM212 50.5a1.5 1.5 0 11-3 0 1.5 1.5 0 013 0zM232 50.5a1.5 1.5 0 11-3 0 1.5 1.5 0 013 0zM252 50.5a1.5 1.5 0 11-3 0 1.5 1.5 0 013 0zM272 50.5a1.5 1.5 0 11-3 0 1.5 1.5 0 013 0zM292 50.5a1.5 1.5 0 11-3 0 1.5 1.5 0 013 0zM312 50.5a1.5 1.5 0 11-3 0 1.5 1.5 0 013 0zM332 50.5a1.5 1.5 0 11-3 0 1.5 1.5 0 013 0zM352 50.5a1.5 1.5 0 11-3 0 1.5 1.5 0 013 0zM372 50.5a1.5 1.5 0 11-3 0 1.5 1.5 0 013 0zM392 50.5a1.5 1.5 0 11-3 0 1.5 1.5 0 013 0zM412 50.5a1.5 1.5 0 11-3 0 1.5 1.5 0 013 0zM432 50.5a1.5 1.5 0 11-3 0 1.5 1.5 0 013 0zM452 50.5a1.5 1.5 0 11-3 0 1.5 1.5 0 013 0zM472 50.5a1.5 1.5 0 11-3 0 1.5 1.5 0 013 0zM492 50.5a1.5 1.5 0 11-3 0 1.5 1.5 0 013 0zM512 30.5a1.5 1.5 0 11-3 0 1.5 1.5 0 013 0zM532 30.5a1.5 1.5 0 11-3 0 1.5 1.5 0 013 0zM552 30.5a1.5 1.5 0 11-3 0 1.5 1.5 0 013 0zM572 30.5a1.5 1.5 0 11-3 0 1.5 1.5 0 013 0zM512 50.5a1.5 1.5 0 11-3 0 1.5 1.5 0 013 0zM532 50.5a1.5 1.5 0 11-3 0 1.5 1.5 0 013 0zM552 50.5a1.5 1.5 0 11-3 0 1.5 1.5 0 013 0zM572 50.5a1.5 1.5 0 11-3 0 1.5 1.5 0 013 0zM12 10.5a1.5 1.5 0 11-3 0 1.5 1.5 0 013 0zM32 10.5a1.5 1.5 0 11-3 0 1.5 1.5 0 013 0zM52 10.5a1.5 1.5 0 11-3 0 1.5 1.5 0 013 0zM72 10.5a1.5 1.5 0 11-3 0 1.5 1.5 0 013 0zM92 10.5a1.5 1.5 0 11-3 0 1.5 1.5 0 013 0zM112 10.5a1.5 1.5 0 11-3 0 1.5 1.5 0 013 0zM132 10.5a1.5 1.5 0 11-3 0 1.5 1.5 0 013 0zM152 10.5a1.5 1.5 0 11-3 0 1.5 1.5 0 013 0zM172 10.5a1.5 1.5 0 11-3 0 1.5 1.5 0 013 0zM192 10.5a1.5 1.5 0 11-3 0 1.5 1.5 0 013 0zM212 10.5a1.5 1.5 0 11-3 0 1.5 1.5 0 013 0zM232 10.5a1.5 1.5 0 11-3 0 1.5 1.5 0 013 0zM252 10.5a1.5 1.5 0 11-3 0 1.5 1.5 0 013 0zM272 10.5a1.5 1.5 0 11-3 0 1.5 1.5 0 013 0zM292 10.5a1.5 1.5 0 11-3 0 1.5 1.5 0 013 0zM312 10.5a1.5 1.5 0 11-3 0 1.5 1.5 0 013 0zM332 10.5a1.5 1.5 0 11-3 0 1.5 1.5 0 013 0zM352 10.5a1.5 1.5 0 11-3 0 1.5 1.5 0 013 0zM372 10.5a1.5 1.5 0 11-3 0 1.5 1.5 0 013 0zM392 10.5a1.5 1.5 0 11-3 0 1.5 1.5 0 013 0zM412 10.5a1.5 1.5 0 11-3 0 1.5 1.5 0 013 0zM432 10.5a1.5 1.5 0 11-3 0 1.5 1.5 0 013 0zM452 10.5a1.5 1.5 0 11-3 0 1.5 1.5 0 013 0zM472 10.5a1.5 1.5 0 11-3 0 1.5 1.5 0 013 0zM492 10.5a1.5 1.5 0 11-3 0 1.5 1.5 0 013 0zM512 10.5a1.5 1.5 0 11-3 0 1.5 1.5 0 013 0zM532 10.5a1.5 1.5 0 11-3 0 1.5 1.5 0 013 0zM552 10.5a1.5 1.5 0 11-3 0 1.5 1.5 0 013 0zM572 10.5a1.5 1.5 0 11-3 0 1.5 1.5 0 013 0zM592 30.5a1.5 1.5 0 11-3 0 1.5 1.5 0 013 0zM612 30.5a1.5 1.5 0 11-3 0 1.5 1.5 0 013 0zM632 30.5a1.5 1.5 0 11-3 0 1.5 1.5 0 013 0zM592 50.5a1.5 1.5 0 11-3 0 1.5 1.5 0 013 0zM612 50.5a1.5 1.5 0 11-3 0 1.5 1.5 0 013 0zM632 50.5a1.5 1.5 0 11-3 0 1.5 1.5 0 013 0zM592 10.5a1.5 1.5 0 11-3 0 1.5 1.5 0 013 0zM612 10.5a1.5 1.5 0 11-3 0 1.5 1.5 0 013 0zM632 10.5a1.5 1.5 0 11-3 0 1.5 1.5 0 013 0zM652 30.5a1.5 1.5 0 11-3 0 1.5 1.5 0 013 0zM652 50.5a1.5 1.5 0 11-3 0 1.5 1.5 0 013 0zM652 10.5a1.5 1.5 0 11-3 0 1.5 1.5 0 013 0zM12 90.5a1.5 1.5 0 11-3 0 1.5 1.5 0 013 0zM32 90.5a1.5 1.5 0 11-3 0 1.5 1.5 0 013 0zM52 90.5a1.5 1.5 0 11-3 0 1.5 1.5 0 013 0zM72 90.5a1.5 1.5 0 11-3 0 1.5 1.5 0 013 0zM92 90.5a1.5 1.5 0 11-3 0 1.5 1.5 0 013 0zM112 90.5a1.5 1.5 0 11-3 0 1.5 1.5 0 013 0zM132 90.5a1.5 1.5 0 11-3 0 1.5 1.5 0 013 0zM152 90.5a1.5 1.5 0 11-3 0 1.5 1.5 0 013 0zM172 90.5a1.5 1.5 0 11-3 0 1.5 1.5 0 013 0zM192 90.5a1.5 1.5 0 11-3 0 1.5 1.5 0 013 0zM12 110.5a1.5 1.5 0 11-3 0 1.5 1.5 0 013 0zM32 110.5a1.5 1.5 0 11-3 0 1.5 1.5 0 013 0zM52 110.5a1.5 1.5 0 11-3 0 1.5 1.5 0 013 0zM72 110.5a1.5 1.5 0 11-3 0 1.5 1.5 0 013 0zM92 110.5a1.5 1.5 0 11-3 0 1.5 1.5 0 013 0zM112 110.5a1.5 1.5 0 11-3.001-.001 1.5 1.5 0 013.001.001zM132 110.5a1.5 1.5 0 11-3.001-.001 1.5 1.5 0 013.001.001zM152 110.5a1.5 1.5 0 11-3.001-.001 1.5 1.5 0 013.001.001zM172 110.5a1.5 1.5 0 11-3.001-.001 1.5 1.5 0 013.001.001zM192 110.5a1.5 1.5 0 11-3.001-.001 1.5 1.5 0 013.001.001zM212 90.5a1.5 1.5 0 11-3 0 1.5 1.5 0 013 0zM232 90.5a1.5 1.5 0 11-3 0 1.5 1.5 0 013 0zM252 90.5a1.5 1.5 0 11-3 0 1.5 1.5 0 013 0zM272 90.5a1.5 1.5 0 11-3 0 1.5 1.5 0 013 0zM292 90.5a1.5 1.5 0 11-3 0 1.5 1.5 0 013 0zM312 90.5a1.5 1.5 0 11-3 0 1.5 1.5 0 013 0zM332 90.5a1.5 1.5 0 11-3 0 1.5 1.5 0 013 0zM352 90.5a1.5 1.5 0 11-3 0 1.5 1.5 0 013 0zM372 90.5a1.5 1.5 0 11-3 0 1.5 1.5 0 013 0zM392 90.5a1.5 1.5 0 11-3 0 1.5 1.5 0 013 0zM412 90.5a1.5 1.5 0 11-3 0 1.5 1.5 0 013 0zM432 90.5a1.5 1.5 0 11-3 0 1.5 1.5 0 013 0zM452 90.5a1.5 1.5 0 11-3 0 1.5 1.5 0 013 0zM472 90.5a1.5 1.5 0 11-3 0 1.5 1.5 0 013 0zM492 90.5a1.5 1.5 0 11-3 0 1.5 1.5 0 013 0zM212 110.5a1.5 1.5 0 11-3.001-.001 1.5 1.5 0 013.001.001zM232 110.5a1.5 1.5 0 11-3.001-.001 1.5 1.5 0 013.001.001zM252 110.5a1.5 1.5 0 11-3.001-.001 1.5 1.5 0 013.001.001zM272 110.5a1.5 1.5 0 11-3.001-.001 1.5 1.5 0 013.001.001zM292 110.5a1.5 1.5 0 11-3.001-.001 1.5 1.5 0 013.001.001zM312 110.5a1.5 1.5 0 11-3.001-.001 1.5 1.5 0 013.001.001zM332 110.5a1.5 1.5 0 11-3.001-.001 1.5 1.5 0 013.001.001zM352 110.5a1.5 1.5 0 11-3.001-.001 1.5 1.5 0 013.001.001zM372 110.5a1.5 1.5 0 11-3.001-.001 1.5 1.5 0 013.001.001zM392 110.5a1.5 1.5 0 11-3.001-.001 1.5 1.5 0 013.001.001zM412 110.5a1.5 1.5 0 11-3.001-.001 1.5 1.5 0 013.001.001zM432 110.5a1.5 1.5 0 11-3.001-.001 1.5 1.5 0 013.001.001zM452 110.5a1.5 1.5 0 11-3.001-.001 1.5 1.5 0 013.001.001zM472 110.5a1.5 1.5 0 11-3.001-.001 1.5 1.5 0 013.001.001zM492 110.5a1.5 1.5 0 11-3.001-.001 1.5 1.5 0 013.001.001zM512 90.5a1.5 1.5 0 11-3 0 1.5 1.5 0 013 0zM532 90.5a1.5 1.5 0 11-3 0 1.5 1.5 0 013 0zM552 90.5a1.5 1.5 0 11-3 0 1.5 1.5 0 013 0zM572 90.5a1.5 1.5 0 11-3 0 1.5 1.5 0 013 0zM512 110.5a1.5 1.5 0 11-3.001-.001 1.5 1.5 0 013.001.001zM532 110.5a1.5 1.5 0 11-3.001-.001 1.5 1.5 0 013.001.001zM552 110.5a1.5 1.5 0 11-3.001-.001 1.5 1.5 0 013.001.001zM572 110.5a1.5 1.5 0 11-3.001-.001 1.5 1.5 0 013.001.001zM12 70.5a1.5 1.5 0 11-3 0 1.5 1.5 0 013 0zM32 70.5a1.5 1.5 0 11-3 0 1.5 1.5 0 013 0zM52 70.5a1.5 1.5 0 11-3 0 1.5 1.5 0 013 0zM72 70.5a1.5 1.5 0 11-3 0 1.5 1.5 0 013 0zM92 70.5a1.5 1.5 0 11-3 0 1.5 1.5 0 013 0zM112 70.5a1.5 1.5 0 11-3 0 1.5 1.5 0 013 0zM132 70.5a1.5 1.5 0 11-3 0 1.5 1.5 0 013 0zM152 70.5a1.5 1.5 0 11-3 0 1.5 1.5 0 013 0zM172 70.5a1.5 1.5 0 11-3 0 1.5 1.5 0 013 0zM192 70.5a1.5 1.5 0 11-3 0 1.5 1.5 0 013 0zM212 70.5a1.5 1.5 0 11-3 0 1.5 1.5 0 013 0zM232 70.5a1.5 1.5 0 11-3 0 1.5 1.5 0 013 0zM252 70.5a1.5 1.5 0 11-3 0 1.5 1.5 0 013 0zM272 70.5a1.5 1.5 0 11-3 0 1.5 1.5 0 013 0zM292 70.5a1.5 1.5 0 11-3 0 1.5 1.5 0 013 0zM312 70.5a1.5 1.5 0 11-3 0 1.5 1.5 0 013 0zM332 70.5a1.5 1.5 0 11-3 0 1.5 1.5 0 013 0zM352 70.5a1.5 1.5 0 11-3 0 1.5 1.5 0 013 0zM372 70.5a1.5 1.5 0 11-3 0 1.5 1.5 0 013 0zM392 70.5a1.5 1.5 0 11-3 0 1.5 1.5 0 013 0zM412 70.5a1.5 1.5 0 11-3 0 1.5 1.5 0 013 0zM432 70.5a1.5 1.5 0 11-3 0 1.5 1.5 0 013 0zM452 70.5a1.5 1.5 0 11-3 0 1.5 1.5 0 013 0zM472 70.5a1.5 1.5 0 11-3 0 1.5 1.5 0 013 0zM492 70.5a1.5 1.5 0 11-3 0 1.5 1.5 0 013 0zM512 70.5a1.5 1.5 0 11-3 0 1.5 1.5 0 013 0zM532 70.5a1.5 1.5 0 11-3 0 1.5 1.5 0 013 0zM552 70.5a1.5 1.5 0 11-3 0 1.5 1.5 0 013 0zM572 70.5a1.5 1.5 0 11-3 0 1.5 1.5 0 013 0zM592 90.5a1.5 1.5 0 11-3 0 1.5 1.5 0 013 0zM612 90.5a1.5 1.5 0 11-3 0 1.5 1.5 0 013 0zM632 90.5a1.5 1.5 0 11-3 0 1.5 1.5 0 013 0zM592 110.5a1.5 1.5 0 11-3.001-.001 1.5 1.5 0 013.001.001zM612 110.5a1.5 1.5 0 11-3.001-.001 1.5 1.5 0 013.001.001zM632 110.5a1.5 1.5 0 11-3.001-.001 1.5 1.5 0 013.001.001zM592 70.5a1.5 1.5 0 11-3 0 1.5 1.5 0 013 0zM612 70.5a1.5 1.5 0 11-3 0 1.5 1.5 0 013 0zM632 70.5a1.5 1.5 0 11-3 0 1.5 1.5 0 013 0zM652 90.5a1.5 1.5 0 11-3 0 1.5 1.5 0 013 0zM652 110.5a1.5 1.5 0 11-3.001-.001 1.5 1.5 0 013.001.001zM652 70.5a1.5 1.5 0 11-3 0 1.5 1.5 0 013 0zM12 150.5a1.5 1.5 0 11-3 0 1.5 1.5 0 013 0zM32 150.5a1.5 1.5 0 11-3 0 1.5 1.5 0 013 0zM52 150.5a1.5 1.5 0 11-3 0 1.5 1.5 0 013 0zM72 150.5a1.5 1.5 0 11-3 0 1.5 1.5 0 013 0zM92 150.5a1.5 1.5 0 11-3 0 1.5 1.5 0 013 0zM112 150.5a1.5 1.5 0 11-3.001-.001 1.5 1.5 0 013.001.001zM132 150.5a1.5 1.5 0 11-3.001-.001 1.5 1.5 0 013.001.001zM152 150.5a1.5 1.5 0 11-3.001-.001 1.5 1.5 0 013.001.001zM172 150.5a1.5 1.5 0 11-3.001-.001 1.5 1.5 0 013.001.001zM192 150.5a1.5 1.5 0 11-3.001-.001 1.5 1.5 0 013.001.001zM12 170.5a1.5 1.5 0 11-3 0 1.5 1.5 0 013 0zM32 170.5a1.5 1.5 0 11-3 0 1.5 1.5 0 013 0zM52 170.5a1.5 1.5 0 11-3 0 1.5 1.5 0 013 0zM72 170.5a1.5 1.5 0 11-3 0 1.5 1.5 0 013 0zM92 170.5a1.5 1.5 0 11-3 0 1.5 1.5 0 013 0zM112 170.5a1.5 1.5 0 11-3.001-.001 1.5 1.5 0 013.001.001zM132 170.5a1.5 1.5 0 11-3.001-.001 1.5 1.5 0 013.001.001zM152 170.5a1.5 1.5 0 11-3.001-.001 1.5 1.5 0 013.001.001zM172 170.5a1.5 1.5 0 11-3.001-.001 1.5 1.5 0 013.001.001zM192 170.5a1.5 1.5 0 11-3.001-.001 1.5 1.5 0 013.001.001zM212 150.5a1.5 1.5 0 11-3.001-.001 1.5 1.5 0 013.001.001zM232 150.5a1.5 1.5 0 11-3.001-.001 1.5 1.5 0 013.001.001zM252 150.5a1.5 1.5 0 11-3.001-.001 1.5 1.5 0 013.001.001zM272 150.5a1.5 1.5 0 11-3.001-.001 1.5 1.5 0 013.001.001zM292 150.5a1.5 1.5 0 11-3.001-.001 1.5 1.5 0 013.001.001zM312 150.5a1.5 1.5 0 11-3.001-.001 1.5 1.5 0 013.001.001zM332 150.5a1.5 1.5 0 11-3.001-.001 1.5 1.5 0 013.001.001zM352 150.5a1.5 1.5 0 11-3.001-.001 1.5 1.5 0 013.001.001zM372 150.5a1.5 1.5 0 11-3.001-.001 1.5 1.5 0 013.001.001zM392 150.5a1.5 1.5 0 11-3.001-.001 1.5 1.5 0 013.001.001zM412 150.5a1.5 1.5 0 11-3.001-.001 1.5 1.5 0 013.001.001zM432 150.5a1.5 1.5 0 11-3.001-.001 1.5 1.5 0 013.001.001zM452 150.5a1.5 1.5 0 11-3.001-.001 1.5 1.5 0 013.001.001zM472 150.5a1.5 1.5 0 11-3.001-.001 1.5 1.5 0 013.001.001zM492 150.5a1.5 1.5 0 11-3.001-.001 1.5 1.5 0 013.001.001zM212 170.5a1.5 1.5 0 11-3.001-.001 1.5 1.5 0 013.001.001zM232 170.5a1.5 1.5 0 11-3.001-.001 1.5 1.5 0 013.001.001zM252 170.5a1.5 1.5 0 11-3.001-.001 1.5 1.5 0 013.001.001zM272 170.5a1.5 1.5 0 11-3.001-.001 1.5 1.5 0 013.001.001zM292 170.5a1.5 1.5 0 11-3.001-.001 1.5 1.5 0 013.001.001zM312 170.5a1.5 1.5 0 11-3.001-.001 1.5 1.5 0 013.001.001zM332 170.5a1.5 1.5 0 11-3.001-.001 1.5 1.5 0 013.001.001zM352 170.5a1.5 1.5 0 11-3.001-.001 1.5 1.5 0 013.001.001zM372 170.5a1.5 1.5 0 11-3.001-.001 1.5 1.5 0 013.001.001zM392 170.5a1.5 1.5 0 11-3.001-.001 1.5 1.5 0 013.001.001zM412 170.5a1.5 1.5 0 11-3.001-.001 1.5 1.5 0 013.001.001zM432 170.5a1.5 1.5 0 11-3.001-.001 1.5 1.5 0 013.001.001zM452 170.5a1.5 1.5 0 11-3.001-.001 1.5 1.5 0 013.001.001zM472 170.5a1.5 1.5 0 11-3.001-.001 1.5 1.5 0 013.001.001zM492 170.5a1.5 1.5 0 11-3.001-.001 1.5 1.5 0 013.001.001zM512 150.5a1.5 1.5 0 11-3.001-.001 1.5 1.5 0 013.001.001zM532 150.5a1.5 1.5 0 11-3.001-.001 1.5 1.5 0 013.001.001zM552 150.5a1.5 1.5 0 11-3.001-.001 1.5 1.5 0 013.001.001zM572 150.5a1.5 1.5 0 11-3.001-.001 1.5 1.5 0 013.001.001zM512 170.5a1.5 1.5 0 11-3.001-.001 1.5 1.5 0 013.001.001zM532 170.5a1.5 1.5 0 11-3.001-.001 1.5 1.5 0 013.001.001zM552 170.5a1.5 1.5 0 11-3.001-.001 1.5 1.5 0 013.001.001zM572 170.5a1.5 1.5 0 11-3.001-.001 1.5 1.5 0 013.001.001zM12 130.5a1.5 1.5 0 11-3 0 1.5 1.5 0 013 0zM32 130.5a1.5 1.5 0 11-3 0 1.5 1.5 0 013 0zM52 130.5a1.5 1.5 0 11-3 0 1.5 1.5 0 013 0zM72 130.5a1.5 1.5 0 11-3 0 1.5 1.5 0 013 0zM92 130.5a1.5 1.5 0 11-3 0 1.5 1.5 0 013 0zM112 130.5a1.5 1.5 0 11-3.001-.001 1.5 1.5 0 013.001.001zM132 130.5a1.5 1.5 0 11-3.001-.001 1.5 1.5 0 013.001.001zM152 130.5a1.5 1.5 0 11-3.001-.001 1.5 1.5 0 013.001.001zM172 130.5a1.5 1.5 0 11-3.001-.001 1.5 1.5 0 013.001.001zM192 130.5a1.5 1.5 0 11-3.001-.001 1.5 1.5 0 013.001.001zM212 130.5a1.5 1.5 0 11-3.001-.001 1.5 1.5 0 013.001.001zM232 130.5a1.5 1.5 0 11-3.001-.001 1.5 1.5 0 013.001.001zM252 130.5a1.5 1.5 0 11-3.001-.001 1.5 1.5 0 013.001.001zM272 130.5a1.5 1.5 0 11-3.001-.001 1.5 1.5 0 013.001.001zM292 130.5a1.5 1.5 0 11-3.001-.001 1.5 1.5 0 013.001.001zM312 130.5a1.5 1.5 0 11-3.001-.001 1.5 1.5 0 013.001.001zM332 130.5a1.5 1.5 0 11-3.001-.001 1.5 1.5 0 013.001.001zM352 130.5a1.5 1.5 0 11-3.001-.001 1.5 1.5 0 013.001.001zM372 130.5a1.5 1.5 0 11-3.001-.001 1.5 1.5 0 013.001.001zM392 130.5a1.5 1.5 0 11-3.001-.001 1.5 1.5 0 013.001.001zM412 130.5a1.5 1.5 0 11-3.001-.001 1.5 1.5 0 013.001.001zM432 130.5a1.5 1.5 0 11-3.001-.001 1.5 1.5 0 013.001.001zM452 130.5a1.5 1.5 0 11-3.001-.001 1.5 1.5 0 013.001.001zM472 130.5a1.5 1.5 0 11-3.001-.001 1.5 1.5 0 013.001.001zM492 130.5a1.5 1.5 0 11-3.001-.001 1.5 1.5 0 013.001.001zM512 130.5a1.5 1.5 0 11-3.001-.001 1.5 1.5 0 013.001.001zM532 130.5a1.5 1.5 0 11-3.001-.001 1.5 1.5 0 013.001.001zM552 130.5a1.5 1.5 0 11-3.001-.001 1.5 1.5 0 013.001.001zM572 130.5a1.5 1.5 0 11-3.001-.001 1.5 1.5 0 013.001.001zM592 150.5a1.5 1.5 0 11-3.001-.001 1.5 1.5 0 013.001.001zM612 150.5a1.5 1.5 0 11-3.001-.001 1.5 1.5 0 013.001.001zM632 150.5a1.5 1.5 0 11-3.001-.001 1.5 1.5 0 013.001.001zM592 170.5a1.5 1.5 0 11-3.001-.001 1.5 1.5 0 013.001.001zM612 170.5a1.5 1.5 0 11-3.001-.001 1.5 1.5 0 013.001.001zM632 170.5a1.5 1.5 0 11-3.001-.001 1.5 1.5 0 013.001.001zM592 130.5a1.5 1.5 0 11-3.001-.001 1.5 1.5 0 013.001.001zM612 130.5a1.5 1.5 0 11-3.001-.001 1.5 1.5 0 013.001.001zM632 130.5a1.5 1.5 0 11-3.001-.001 1.5 1.5 0 013.001.001zM652 150.5a1.5 1.5 0 11-3.001-.001 1.5 1.5 0 013.001.001zM652 170.5a1.5 1.5 0 11-3.001-.001 1.5 1.5 0 013.001.001zM652 130.5a1.5 1.5 0 11-3.001-.001 1.5 1.5 0 013.001.001zM12 210.5a1.5 1.5 0 11-3 0 1.5 1.5 0 013 0zM32 210.5a1.5 1.5 0 11-3 0 1.5 1.5 0 013 0zM52 210.5a1.5 1.5 0 11-3 0 1.5 1.5 0 013 0zM72 210.5a1.5 1.5 0 11-3 0 1.5 1.5 0 013 0zM92 210.5a1.5 1.5 0 11-3 0 1.5 1.5 0 013 0zM112 210.5a1.5 1.5 0 11-3.001-.001 1.5 1.5 0 013.001.001zM132 210.5a1.5 1.5 0 11-3.001-.001 1.5 1.5 0 013.001.001zM152 210.5a1.5 1.5 0 11-3.001-.001 1.5 1.5 0 013.001.001zM172 210.5a1.5 1.5 0 11-3.001-.001 1.5 1.5 0 013.001.001zM192 210.5a1.5 1.5 0 11-3.001-.001 1.5 1.5 0 013.001.001zM12 230.5a1.5 1.5 0 11-3 0 1.5 1.5 0 013 0zM32 230.5a1.5 1.5 0 11-3 0 1.5 1.5 0 013 0zM52 230.5a1.5 1.5 0 11-3 0 1.5 1.5 0 013 0zM72 230.5a1.5 1.5 0 11-3 0 1.5 1.5 0 013 0zM92 230.5a1.5 1.5 0 11-3 0 1.5 1.5 0 013 0zM112 230.5a1.5 1.5 0 11-3.001-.001 1.5 1.5 0 013.001.001zM132 230.5a1.5 1.5 0 11-3.001-.001 1.5 1.5 0 013.001.001zM152 230.5a1.5 1.5 0 11-3.001-.001 1.5 1.5 0 013.001.001zM172 230.5a1.5 1.5 0 11-3.001-.001 1.5 1.5 0 013.001.001zM192 230.5a1.5 1.5 0 11-3.001-.001 1.5 1.5 0 013.001.001zM212 210.5a1.5 1.5 0 11-3.001-.001 1.5 1.5 0 013.001.001zM232 210.5a1.5 1.5 0 11-3.001-.001 1.5 1.5 0 013.001.001zM252 210.5a1.5 1.5 0 11-3.001-.001 1.5 1.5 0 013.001.001zM272 210.5a1.5 1.5 0 11-3.001-.001 1.5 1.5 0 013.001.001zM292 210.5a1.5 1.5 0 11-3.001-.001 1.5 1.5 0 013.001.001zM312 210.5a1.5 1.5 0 11-3.001-.001 1.5 1.5 0 013.001.001zM332 210.5a1.5 1.5 0 11-3.001-.001 1.5 1.5 0 013.001.001zM352 210.5a1.5 1.5 0 11-3.001-.001 1.5 1.5 0 013.001.001zM372 210.5a1.5 1.5 0 11-3.001-.001 1.5 1.5 0 013.001.001zM392 210.5a1.5 1.5 0 11-3.001-.001 1.5 1.5 0 013.001.001zM412 210.5a1.5 1.5 0 11-3.001-.001 1.5 1.5 0 013.001.001zM432 210.5a1.5 1.5 0 11-3.001-.001 1.5 1.5 0 013.001.001zM452 210.5a1.5 1.5 0 11-3.001-.001 1.5 1.5 0 013.001.001zM472 210.5a1.5 1.5 0 11-3.001-.001 1.5 1.5 0 013.001.001zM492 210.5a1.5 1.5 0 11-3.001-.001 1.5 1.5 0 013.001.001zM212 230.5a1.5 1.5 0 11-3.001-.001 1.5 1.5 0 013.001.001zM232 230.5a1.5 1.5 0 11-3.001-.001 1.5 1.5 0 013.001.001zM252 230.5a1.5 1.5 0 11-3.001-.001 1.5 1.5 0 013.001.001zM272 230.5a1.5 1.5 0 11-3.001-.001 1.5 1.5 0 013.001.001zM292 230.5a1.5 1.5 0 11-3.001-.001 1.5 1.5 0 013.001.001zM312 230.5a1.5 1.5 0 11-3.001-.001 1.5 1.5 0 013.001.001zM332 230.5a1.5 1.5 0 11-3.001-.001 1.5 1.5 0 013.001.001zM352 230.5a1.5 1.5 0 11-3.001-.001 1.5 1.5 0 013.001.001zM372 230.5a1.5 1.5 0 11-3.001-.001 1.5 1.5 0 013.001.001zM392 230.5a1.5 1.5 0 11-3.001-.001 1.5 1.5 0 013.001.001zM412 230.5a1.5 1.5 0 11-3.001-.001 1.5 1.5 0 013.001.001zM432 230.5a1.5 1.5 0 11-3.001-.001 1.5 1.5 0 013.001.001zM452 230.5a1.5 1.5 0 11-3.001-.001 1.5 1.5 0 013.001.001zM472 230.5a1.5 1.5 0 11-3.001-.001 1.5 1.5 0 013.001.001zM492 230.5a1.5 1.5 0 11-3.001-.001 1.5 1.5 0 013.001.001zM512 210.5a1.5 1.5 0 11-3.001-.001 1.5 1.5 0 013.001.001zM532 210.5a1.5 1.5 0 11-3.001-.001 1.5 1.5 0 013.001.001zM552 210.5a1.5 1.5 0 11-3.001-.001 1.5 1.5 0 013.001.001zM572 210.5a1.5 1.5 0 11-3.001-.001 1.5 1.5 0 013.001.001zM512 230.5a1.5 1.5 0 11-3.001-.001 1.5 1.5 0 013.001.001zM532 230.5a1.5 1.5 0 11-3.001-.001 1.5 1.5 0 013.001.001zM552 230.5a1.5 1.5 0 11-3.001-.001 1.5 1.5 0 013.001.001zM572 230.5a1.5 1.5 0 11-3.001-.001 1.5 1.5 0 013.001.001zM12 190.5a1.5 1.5 0 11-3 0 1.5 1.5 0 013 0zM32 190.5a1.5 1.5 0 11-3 0 1.5 1.5 0 013 0zM52 190.5a1.5 1.5 0 11-3 0 1.5 1.5 0 013 0zM72 190.5a1.5 1.5 0 11-3 0 1.5 1.5 0 013 0zM92 190.5a1.5 1.5 0 11-3 0 1.5 1.5 0 013 0zM112 190.5a1.5 1.5 0 11-3.001-.001 1.5 1.5 0 013.001.001zM132 190.5a1.5 1.5 0 11-3.001-.001 1.5 1.5 0 013.001.001zM152 190.5a1.5 1.5 0 11-3.001-.001 1.5 1.5 0 013.001.001zM172 190.5a1.5 1.5 0 11-3.001-.001 1.5 1.5 0 013.001.001zM192 190.5a1.5 1.5 0 11-3.001-.001 1.5 1.5 0 013.001.001zM212 190.5a1.5 1.5 0 11-3.001-.001 1.5 1.5 0 013.001.001zM232 190.5a1.5 1.5 0 11-3.001-.001 1.5 1.5 0 013.001.001zM252 190.5a1.5 1.5 0 11-3.001-.001 1.5 1.5 0 013.001.001zM272 190.5a1.5 1.5 0 11-3.001-.001 1.5 1.5 0 013.001.001zM292 190.5a1.5 1.5 0 11-3.001-.001 1.5 1.5 0 013.001.001zM312 190.5a1.5 1.5 0 11-3.001-.001 1.5 1.5 0 013.001.001zM332 190.5a1.5 1.5 0 11-3.001-.001 1.5 1.5 0 013.001.001zM352 190.5a1.5 1.5 0 11-3.001-.001 1.5 1.5 0 013.001.001zM372 190.5a1.5 1.5 0 11-3.001-.001 1.5 1.5 0 013.001.001zM392 190.5a1.5 1.5 0 11-3.001-.001 1.5 1.5 0 013.001.001zM412 190.5a1.5 1.5 0 11-3.001-.001 1.5 1.5 0 013.001.001zM432 190.5a1.5 1.5 0 11-3.001-.001 1.5 1.5 0 013.001.001zM452 190.5a1.5 1.5 0 11-3.001-.001 1.5 1.5 0 013.001.001zM472 190.5a1.5 1.5 0 11-3.001-.001 1.5 1.5 0 013.001.001zM492 190.5a1.5 1.5 0 11-3.001-.001 1.5 1.5 0 013.001.001zM512 190.5a1.5 1.5 0 11-3.001-.001 1.5 1.5 0 013.001.001zM532 190.5a1.5 1.5 0 11-3.001-.001 1.5 1.5 0 013.001.001zM552 190.5a1.5 1.5 0 11-3.001-.001 1.5 1.5 0 013.001.001zM572 190.5a1.5 1.5 0 11-3.001-.001 1.5 1.5 0 013.001.001zM592 210.5a1.5 1.5 0 11-3.001-.001 1.5 1.5 0 013.001.001zM612 210.5a1.5 1.5 0 11-3.001-.001 1.5 1.5 0 013.001.001zM632 210.5a1.5 1.5 0 11-3.001-.001 1.5 1.5 0 013.001.001zM592 230.5a1.5 1.5 0 11-3.001-.001 1.5 1.5 0 013.001.001zM612 230.5a1.5 1.5 0 11-3.001-.001 1.5 1.5 0 013.001.001zM632 230.5a1.5 1.5 0 11-3.001-.001 1.5 1.5 0 013.001.001zM592 190.5a1.5 1.5 0 11-3.001-.001 1.5 1.5 0 013.001.001zM612 190.5a1.5 1.5 0 11-3.001-.001 1.5 1.5 0 013.001.001zM632 190.5a1.5 1.5 0 11-3.001-.001 1.5 1.5 0 013.001.001zM652 210.5a1.5 1.5 0 11-3.001-.001 1.5 1.5 0 013.001.001zM652 230.5a1.5 1.5 0 11-3.001-.001 1.5 1.5 0 013.001.001zM652 190.5a1.5 1.5 0 11-3.001-.001 1.5 1.5 0 013.001.001zM12 270.5a1.5 1.5 0 11-3 0 1.5 1.5 0 013 0zM32 270.5a1.5 1.5 0 11-3 0 1.5 1.5 0 013 0zM52 270.5a1.5 1.5 0 11-3 0 1.5 1.5 0 013 0zM72 270.5a1.5 1.5 0 11-3 0 1.5 1.5 0 013 0zM92 270.5a1.5 1.5 0 11-3 0 1.5 1.5 0 013 0zM112 270.5a1.5 1.5 0 11-3.001-.001 1.5 1.5 0 013.001.001zM132 270.5a1.5 1.5 0 11-3.001-.001 1.5 1.5 0 013.001.001zM152 270.5a1.5 1.5 0 11-3.001-.001 1.5 1.5 0 013.001.001zM172 270.5a1.5 1.5 0 11-3.001-.001 1.5 1.5 0 013.001.001zM192 270.5a1.5 1.5 0 11-3.001-.001 1.5 1.5 0 013.001.001zM12 290.5a1.5 1.5 0 11-3 0 1.5 1.5 0 013 0zM32 290.5a1.5 1.5 0 11-3 0 1.5 1.5 0 013 0zM52 290.5a1.5 1.5 0 11-3 0 1.5 1.5 0 013 0zM72 290.5a1.5 1.5 0 11-3 0 1.5 1.5 0 013 0zM92 290.5a1.5 1.5 0 11-3 0 1.5 1.5 0 013 0zM112 290.5a1.5 1.5 0 11-3.001-.001 1.5 1.5 0 013.001.001zM132 290.5a1.5 1.5 0 11-3.001-.001 1.5 1.5 0 013.001.001zM152 290.5a1.5 1.5 0 11-3.001-.001 1.5 1.5 0 013.001.001zM172 290.5a1.5 1.5 0 11-3.001-.001 1.5 1.5 0 013.001.001zM192 290.5a1.5 1.5 0 11-3.001-.001 1.5 1.5 0 013.001.001zM212 270.5a1.5 1.5 0 11-3.001-.001 1.5 1.5 0 013.001.001zM232 270.5a1.5 1.5 0 11-3.001-.001 1.5 1.5 0 013.001.001zM252 270.5a1.5 1.5 0 11-3.001-.001 1.5 1.5 0 013.001.001zM272 270.5a1.5 1.5 0 11-3.001-.001 1.5 1.5 0 013.001.001zM292 270.5a1.5 1.5 0 11-3.001-.001 1.5 1.5 0 013.001.001zM312 270.5a1.5 1.5 0 11-3.001-.001 1.5 1.5 0 013.001.001zM332 270.5a1.5 1.5 0 11-3.001-.001 1.5 1.5 0 013.001.001zM352 270.5a1.5 1.5 0 11-3.001-.001 1.5 1.5 0 013.001.001zM372 270.5a1.5 1.5 0 11-3.001-.001 1.5 1.5 0 013.001.001zM392 270.5a1.5 1.5 0 11-3.001-.001 1.5 1.5 0 013.001.001zM412 270.5a1.5 1.5 0 11-3.001-.001 1.5 1.5 0 013.001.001zM432 270.5a1.5 1.5 0 11-3.001-.001 1.5 1.5 0 013.001.001zM452 270.5a1.5 1.5 0 11-3.001-.001 1.5 1.5 0 013.001.001zM472 270.5a1.5 1.5 0 11-3.001-.001 1.5 1.5 0 013.001.001zM492 270.5a1.5 1.5 0 11-3.001-.001 1.5 1.5 0 013.001.001zM212 290.5a1.5 1.5 0 11-3.001-.001 1.5 1.5 0 013.001.001zM232 290.5a1.5 1.5 0 11-3.001-.001 1.5 1.5 0 013.001.001zM252 290.5a1.5 1.5 0 11-3.001-.001 1.5 1.5 0 013.001.001zM272 290.5a1.5 1.5 0 11-3.001-.001 1.5 1.5 0 013.001.001zM292 290.5a1.5 1.5 0 11-3.001-.001 1.5 1.5 0 013.001.001zM312 290.5a1.5 1.5 0 11-3.001-.001 1.5 1.5 0 013.001.001zM332 290.5a1.5 1.5 0 11-3.001-.001 1.5 1.5 0 013.001.001zM352 290.5a1.5 1.5 0 11-3.001-.001 1.5 1.5 0 013.001.001zM372 290.5a1.5 1.5 0 11-3.001-.001 1.5 1.5 0 013.001.001zM392 290.5a1.5 1.5 0 11-3.001-.001 1.5 1.5 0 013.001.001zM412 290.5a1.5 1.5 0 11-3.001-.001 1.5 1.5 0 013.001.001zM432 290.5a1.5 1.5 0 11-3.001-.001 1.5 1.5 0 013.001.001zM452 290.5a1.5 1.5 0 11-3.001-.001 1.5 1.5 0 013.001.001zM472 290.5a1.5 1.5 0 11-3.001-.001 1.5 1.5 0 013.001.001zM492 290.5a1.5 1.5 0 11-3.001-.001 1.5 1.5 0 013.001.001zM512 270.5a1.5 1.5 0 11-3.001-.001 1.5 1.5 0 013.001.001zM532 270.5a1.5 1.5 0 11-3.001-.001 1.5 1.5 0 013.001.001zM552 270.5a1.5 1.5 0 11-3.001-.001 1.5 1.5 0 013.001.001zM572 270.5a1.5 1.5 0 11-3.001-.001 1.5 1.5 0 013.001.001zM512 290.5a1.5 1.5 0 11-3.001-.001 1.5 1.5 0 013.001.001zM532 290.5a1.5 1.5 0 11-3.001-.001 1.5 1.5 0 013.001.001zM552 290.5a1.5 1.5 0 11-3.001-.001 1.5 1.5 0 013.001.001zM572 290.5a1.5 1.5 0 11-3.001-.001 1.5 1.5 0 013.001.001zM12 250.5a1.5 1.5 0 11-3 0 1.5 1.5 0 013 0zM32 250.5a1.5 1.5 0 11-3 0 1.5 1.5 0 013 0zM52 250.5a1.5 1.5 0 11-3 0 1.5 1.5 0 013 0zM72 250.5a1.5 1.5 0 11-3 0 1.5 1.5 0 013 0zM92 250.5a1.5 1.5 0 11-3 0 1.5 1.5 0 013 0zM112 250.5a1.5 1.5 0 11-3.001-.001 1.5 1.5 0 013.001.001zM132 250.5a1.5 1.5 0 11-3.001-.001 1.5 1.5 0 013.001.001zM152 250.5a1.5 1.5 0 11-3.001-.001 1.5 1.5 0 013.001.001zM172 250.5a1.5 1.5 0 11-3.001-.001 1.5 1.5 0 013.001.001zM192 250.5a1.5 1.5 0 11-3.001-.001 1.5 1.5 0 013.001.001zM212 250.5a1.5 1.5 0 11-3.001-.001 1.5 1.5 0 013.001.001zM232 250.5a1.5 1.5 0 11-3.001-.001 1.5 1.5 0 013.001.001zM252 250.5a1.5 1.5 0 11-3.001-.001 1.5 1.5 0 013.001.001zM272 250.5a1.5 1.5 0 11-3.001-.001 1.5 1.5 0 013.001.001zM292 250.5a1.5 1.5 0 11-3.001-.001 1.5 1.5 0 013.001.001zM312 250.5a1.5 1.5 0 11-3.001-.001 1.5 1.5 0 013.001.001zM332 250.5a1.5 1.5 0 11-3.001-.001 1.5 1.5 0 013.001.001zM352 250.5a1.5 1.5 0 11-3.001-.001 1.5 1.5 0 013.001.001zM372 250.5a1.5 1.5 0 11-3.001-.001 1.5 1.5 0 013.001.001zM392 250.5a1.5 1.5 0 11-3.001-.001 1.5 1.5 0 013.001.001zM412 250.5a1.5 1.5 0 11-3.001-.001 1.5 1.5 0 013.001.001zM432 250.5a1.5 1.5 0 11-3.001-.001 1.5 1.5 0 013.001.001zM452 250.5a1.5 1.5 0 11-3.001-.001 1.5 1.5 0 013.001.001zM472 250.5a1.5 1.5 0 11-3.001-.001 1.5 1.5 0 013.001.001zM492 250.5a1.5 1.5 0 11-3.001-.001 1.5 1.5 0 013.001.001zM512 250.5a1.5 1.5 0 11-3.001-.001 1.5 1.5 0 013.001.001zM532 250.5a1.5 1.5 0 11-3.001-.001 1.5 1.5 0 013.001.001zM552 250.5a1.5 1.5 0 11-3.001-.001 1.5 1.5 0 013.001.001zM572 250.5a1.5 1.5 0 11-3.001-.001 1.5 1.5 0 013.001.001zM592 270.5a1.5 1.5 0 11-3.001-.001 1.5 1.5 0 013.001.001zM612 270.5a1.5 1.5 0 11-3.001-.001 1.5 1.5 0 013.001.001zM632 270.5a1.5 1.5 0 11-3.001-.001 1.5 1.5 0 013.001.001zM592 290.5a1.5 1.5 0 11-3.001-.001 1.5 1.5 0 013.001.001zM612 290.5a1.5 1.5 0 11-3.001-.001 1.5 1.5 0 013.001.001zM632 290.5a1.5 1.5 0 11-3.001-.001 1.5 1.5 0 013.001.001zM592 250.5a1.5 1.5 0 11-3.001-.001 1.5 1.5 0 013.001.001zM612 250.5a1.5 1.5 0 11-3.001-.001 1.5 1.5 0 013.001.001zM632 250.5a1.5 1.5 0 11-3.001-.001 1.5 1.5 0 013.001.001zM652 270.5a1.5 1.5 0 11-3.001-.001 1.5 1.5 0 013.001.001zM652 290.5a1.5 1.5 0 11-3.001-.001 1.5 1.5 0 013.001.001zM652 250.5a1.5 1.5 0 11-3.001-.001 1.5 1.5 0 013.001.001zM12 330.5a1.5 1.5 0 11-3 0 1.5 1.5 0 013 0zM32 330.5a1.5 1.5 0 11-3 0 1.5 1.5 0 013 0zM52 330.5a1.5 1.5 0 11-3 0 1.5 1.5 0 013 0zM72 330.5a1.5 1.5 0 11-3 0 1.5 1.5 0 013 0zM92 330.5a1.5 1.5 0 11-3 0 1.5 1.5 0 013 0zM112 330.5a1.5 1.5 0 11-3.001-.001 1.5 1.5 0 013.001.001zM132 330.5a1.5 1.5 0 11-3.001-.001 1.5 1.5 0 013.001.001zM152 330.5a1.5 1.5 0 11-3.001-.001 1.5 1.5 0 013.001.001zM172 330.5a1.5 1.5 0 11-3.001-.001 1.5 1.5 0 013.001.001zM192 330.5a1.5 1.5 0 11-3.001-.001 1.5 1.5 0 013.001.001zM12 350.5a1.5 1.5 0 11-3 0 1.5 1.5 0 013 0zM32 350.5a1.5 1.5 0 11-3 0 1.5 1.5 0 013 0zM52 350.5a1.5 1.5 0 11-3 0 1.5 1.5 0 013 0zM72 350.5a1.5 1.5 0 11-3 0 1.5 1.5 0 013 0zM92 350.5a1.5 1.5 0 11-3 0 1.5 1.5 0 013 0zM112 350.5a1.5 1.5 0 11-3.001-.001 1.5 1.5 0 013.001.001zM132 350.5a1.5 1.5 0 11-3.001-.001 1.5 1.5 0 013.001.001zM152 350.5a1.5 1.5 0 11-3.001-.001 1.5 1.5 0 013.001.001zM172 350.5a1.5 1.5 0 11-3.001-.001 1.5 1.5 0 013.001.001zM192 350.5a1.5 1.5 0 11-3.001-.001 1.5 1.5 0 013.001.001zM212 330.5a1.5 1.5 0 11-3.001-.001 1.5 1.5 0 013.001.001zM232 330.5a1.5 1.5 0 11-3.001-.001 1.5 1.5 0 013.001.001zM252 330.5a1.5 1.5 0 11-3.001-.001 1.5 1.5 0 013.001.001zM272 330.5a1.5 1.5 0 11-3.001-.001 1.5 1.5 0 013.001.001zM292 330.5a1.5 1.5 0 11-3.001-.001 1.5 1.5 0 013.001.001zM312 330.5a1.5 1.5 0 11-3.001-.001 1.5 1.5 0 013.001.001zM332 330.5a1.5 1.5 0 11-3.001-.001 1.5 1.5 0 013.001.001zM352 330.5a1.5 1.5 0 11-3.001-.001 1.5 1.5 0 013.001.001zM372 330.5a1.5 1.5 0 11-3.001-.001 1.5 1.5 0 013.001.001zM392 330.5a1.5 1.5 0 11-3.001-.001 1.5 1.5 0 013.001.001zM412 330.5a1.5 1.5 0 11-3.001-.001 1.5 1.5 0 013.001.001zM432 330.5a1.5 1.5 0 11-3.001-.001 1.5 1.5 0 013.001.001zM452 330.5a1.5 1.5 0 11-3.001-.001 1.5 1.5 0 013.001.001zM472 330.5a1.5 1.5 0 11-3.001-.001 1.5 1.5 0 013.001.001zM492 330.5a1.5 1.5 0 11-3.001-.001 1.5 1.5 0 013.001.001zM212 350.5a1.5 1.5 0 11-3.001-.001 1.5 1.5 0 013.001.001zM232 350.5a1.5 1.5 0 11-3.001-.001 1.5 1.5 0 013.001.001zM252 350.5a1.5 1.5 0 11-3.001-.001 1.5 1.5 0 013.001.001zM272 350.5a1.5 1.5 0 11-3.001-.001 1.5 1.5 0 013.001.001zM292 350.5a1.5 1.5 0 11-3.001-.001 1.5 1.5 0 013.001.001zM312 350.5a1.5 1.5 0 11-3.001-.001 1.5 1.5 0 013.001.001zM332 350.5a1.5 1.5 0 11-3.001-.001 1.5 1.5 0 013.001.001zM352 350.5a1.5 1.5 0 11-3.001-.001 1.5 1.5 0 013.001.001zM372 350.5a1.5 1.5 0 11-3.001-.001 1.5 1.5 0 013.001.001zM392 350.5a1.5 1.5 0 11-3.001-.001 1.5 1.5 0 013.001.001zM412 350.5a1.5 1.5 0 11-3.001-.001 1.5 1.5 0 013.001.001zM432 350.5a1.5 1.5 0 11-3.001-.001 1.5 1.5 0 013.001.001zM452 350.5a1.5 1.5 0 11-3.001-.001 1.5 1.5 0 013.001.001zM472 350.5a1.5 1.5 0 11-3.001-.001 1.5 1.5 0 013.001.001zM492 350.5a1.5 1.5 0 11-3.001-.001 1.5 1.5 0 013.001.001zM512 330.5a1.5 1.5 0 11-3.001-.001 1.5 1.5 0 013.001.001zM532 330.5a1.5 1.5 0 11-3.001-.001 1.5 1.5 0 013.001.001zM552 330.5a1.5 1.5 0 11-3.001-.001 1.5 1.5 0 013.001.001zM572 330.5a1.5 1.5 0 11-3.001-.001 1.5 1.5 0 013.001.001zM512 350.5a1.5 1.5 0 11-3.001-.001 1.5 1.5 0 013.001.001zM532 350.5a1.5 1.5 0 11-3.001-.001 1.5 1.5 0 013.001.001zM552 350.5a1.5 1.5 0 11-3.001-.001 1.5 1.5 0 013.001.001zM572 350.5a1.5 1.5 0 11-3.001-.001 1.5 1.5 0 013.001.001zM12 310.5a1.5 1.5 0 11-3 0 1.5 1.5 0 013 0zM32 310.5a1.5 1.5 0 11-3 0 1.5 1.5 0 013 0zM52 310.5a1.5 1.5 0 11-3 0 1.5 1.5 0 013 0zM72 310.5a1.5 1.5 0 11-3 0 1.5 1.5 0 013 0zM92 310.5a1.5 1.5 0 11-3 0 1.5 1.5 0 013 0zM112 310.5a1.5 1.5 0 11-3.001-.001 1.5 1.5 0 013.001.001zM132 310.5a1.5 1.5 0 11-3.001-.001 1.5 1.5 0 013.001.001zM152 310.5a1.5 1.5 0 11-3.001-.001 1.5 1.5 0 013.001.001zM172 310.5a1.5 1.5 0 11-3.001-.001 1.5 1.5 0 013.001.001zM192 310.5a1.5 1.5 0 11-3.001-.001 1.5 1.5 0 013.001.001zM212 310.5a1.5 1.5 0 11-3.001-.001 1.5 1.5 0 013.001.001zM232 310.5a1.5 1.5 0 11-3.001-.001 1.5 1.5 0 013.001.001zM252 310.5a1.5 1.5 0 11-3.001-.001 1.5 1.5 0 013.001.001zM272 310.5a1.5 1.5 0 11-3.001-.001 1.5 1.5 0 013.001.001zM292 310.5a1.5 1.5 0 11-3.001-.001 1.5 1.5 0 013.001.001zM312 310.5a1.5 1.5 0 11-3.001-.001 1.5 1.5 0 013.001.001zM332 310.5a1.5 1.5 0 11-3.001-.001 1.5 1.5 0 013.001.001zM352 310.5a1.5 1.5 0 11-3.001-.001 1.5 1.5 0 013.001.001zM372 310.5a1.5 1.5 0 11-3.001-.001 1.5 1.5 0 013.001.001zM392 310.5a1.5 1.5 0 11-3.001-.001 1.5 1.5 0 013.001.001zM412 310.5a1.5 1.5 0 11-3.001-.001 1.5 1.5 0 013.001.001zM432 310.5a1.5 1.5 0 11-3.001-.001 1.5 1.5 0 013.001.001zM452 310.5a1.5 1.5 0 11-3.001-.001 1.5 1.5 0 013.001.001zM472 310.5a1.5 1.5 0 11-3.001-.001 1.5 1.5 0 013.001.001zM492 310.5a1.5 1.5 0 11-3.001-.001 1.5 1.5 0 013.001.001zM512 310.5a1.5 1.5 0 11-3.001-.001 1.5 1.5 0 013.001.001zM532 310.5a1.5 1.5 0 11-3.001-.001 1.5 1.5 0 013.001.001zM552 310.5a1.5 1.5 0 11-3.001-.001 1.5 1.5 0 013.001.001zM572 310.5a1.5 1.5 0 11-3.001-.001 1.5 1.5 0 013.001.001zM592 330.5a1.5 1.5 0 11-3.001-.001 1.5 1.5 0 013.001.001zM612 330.5a1.5 1.5 0 11-3.001-.001 1.5 1.5 0 013.001.001zM632 330.5a1.5 1.5 0 11-3.001-.001 1.5 1.5 0 013.001.001zM592 350.5a1.5 1.5 0 11-3.001-.001 1.5 1.5 0 013.001.001zM612 350.5a1.5 1.5 0 11-3.001-.001 1.5 1.5 0 013.001.001zM632 350.5a1.5 1.5 0 11-3.001-.001 1.5 1.5 0 013.001.001zM592 310.5a1.5 1.5 0 11-3.001-.001 1.5 1.5 0 013.001.001zM612 310.5a1.5 1.5 0 11-3.001-.001 1.5 1.5 0 013.001.001zM632 310.5a1.5 1.5 0 11-3.001-.001 1.5 1.5 0 013.001.001zM652 330.5a1.5 1.5 0 11-3.001-.001 1.5 1.5 0 013.001.001zM652 350.5a1.5 1.5 0 11-3.001-.001 1.5 1.5 0 013.001.001zM652 310.5a1.5 1.5 0 11-3.001-.001 1.5 1.5 0 013.001.001zM12 390.5a1.5 1.5 0 11-3 0 1.5 1.5 0 013 0zM32 390.5a1.5 1.5 0 11-3 0 1.5 1.5 0 013 0zM52 390.5a1.5 1.5 0 11-3 0 1.5 1.5 0 013 0zM72 390.5a1.5 1.5 0 11-3 0 1.5 1.5 0 013 0zM92 390.5a1.5 1.5 0 11-3 0 1.5 1.5 0 013 0zM112 390.5a1.5 1.5 0 11-3.001-.001 1.5 1.5 0 013.001.001zM132 390.5a1.5 1.5 0 11-3.001-.001 1.5 1.5 0 013.001.001zM152 390.5a1.5 1.5 0 11-3.001-.001 1.5 1.5 0 013.001.001zM172 390.5a1.5 1.5 0 11-3.001-.001 1.5 1.5 0 013.001.001zM192 390.5a1.5 1.5 0 11-3.001-.001 1.5 1.5 0 013.001.001zM12 410.5a1.5 1.5 0 11-3 0 1.5 1.5 0 013 0zM32 410.5a1.5 1.5 0 11-3 0 1.5 1.5 0 013 0zM52 410.5a1.5 1.5 0 11-3 0 1.5 1.5 0 013 0zM72 410.5a1.5 1.5 0 11-3 0 1.5 1.5 0 013 0zM92 410.5a1.5 1.5 0 11-3 0 1.5 1.5 0 013 0zM112 410.5a1.5 1.5 0 11-3.001-.001 1.5 1.5 0 013.001.001zM132 410.5a1.5 1.5 0 11-3.001-.001 1.5 1.5 0 013.001.001zM152 410.5a1.5 1.5 0 11-3.001-.001 1.5 1.5 0 013.001.001zM172 410.5a1.5 1.5 0 11-3.001-.001 1.5 1.5 0 013.001.001zM192 410.5a1.5 1.5 0 11-3.001-.001 1.5 1.5 0 013.001.001zM212 390.5a1.5 1.5 0 11-3.001-.001 1.5 1.5 0 013.001.001zM232 390.5a1.5 1.5 0 11-3.001-.001 1.5 1.5 0 013.001.001zM252 390.5a1.5 1.5 0 11-3.001-.001 1.5 1.5 0 013.001.001zM272 390.5a1.5 1.5 0 11-3.001-.001 1.5 1.5 0 013.001.001zM292 390.5a1.5 1.5 0 11-3.001-.001 1.5 1.5 0 013.001.001zM312 390.5a1.5 1.5 0 11-3.001-.001 1.5 1.5 0 013.001.001zM332 390.5a1.5 1.5 0 11-3.001-.001 1.5 1.5 0 013.001.001zM352 390.5a1.5 1.5 0 11-3.001-.001 1.5 1.5 0 013.001.001zM372 390.5a1.5 1.5 0 11-3.001-.001 1.5 1.5 0 013.001.001zM392 390.5a1.5 1.5 0 11-3.001-.001 1.5 1.5 0 013.001.001zM412 390.5a1.5 1.5 0 11-3.001-.001 1.5 1.5 0 013.001.001zM432 390.5a1.5 1.5 0 11-3.001-.001 1.5 1.5 0 013.001.001zM452 390.5a1.5 1.5 0 11-3.001-.001 1.5 1.5 0 013.001.001zM472 390.5a1.5 1.5 0 11-3.001-.001 1.5 1.5 0 013.001.001zM492 390.5a1.5 1.5 0 11-3.001-.001 1.5 1.5 0 013.001.001zM212 410.5a1.5 1.5 0 11-3.001-.001 1.5 1.5 0 013.001.001zM232 410.5a1.5 1.5 0 11-3.001-.001 1.5 1.5 0 013.001.001zM252 410.5a1.5 1.5 0 11-3.001-.001 1.5 1.5 0 013.001.001zM272 410.5a1.5 1.5 0 11-3.001-.001 1.5 1.5 0 013.001.001zM292 410.5a1.5 1.5 0 11-3.001-.001 1.5 1.5 0 013.001.001zM312 410.5a1.5 1.5 0 11-3.001-.001 1.5 1.5 0 013.001.001zM332 410.5a1.5 1.5 0 11-3.001-.001 1.5 1.5 0 013.001.001zM352 410.5a1.5 1.5 0 11-3.001-.001 1.5 1.5 0 013.001.001zM372 410.5a1.5 1.5 0 11-3.001-.001 1.5 1.5 0 013.001.001zM392 410.5a1.5 1.5 0 11-3.001-.001 1.5 1.5 0 013.001.001zM412 410.5a1.5 1.5 0 11-3.001-.001 1.5 1.5 0 013.001.001zM432 410.5a1.5 1.5 0 11-3.001-.001 1.5 1.5 0 013.001.001zM452 410.5a1.5 1.5 0 11-3.001-.001 1.5 1.5 0 013.001.001zM472 410.5a1.5 1.5 0 11-3.001-.001 1.5 1.5 0 013.001.001zM492 410.5a1.5 1.5 0 11-3.001-.001 1.5 1.5 0 013.001.001zM512 390.5a1.5 1.5 0 11-3.001-.001 1.5 1.5 0 013.001.001zM532 390.5a1.5 1.5 0 11-3.001-.001 1.5 1.5 0 013.001.001zM552 390.5a1.5 1.5 0 11-3.001-.001 1.5 1.5 0 013.001.001zM572 390.5a1.5 1.5 0 11-3.001-.001 1.5 1.5 0 013.001.001zM512 410.5a1.5 1.5 0 11-3.001-.001 1.5 1.5 0 013.001.001zM532 410.5a1.5 1.5 0 11-3.001-.001 1.5 1.5 0 013.001.001zM552 410.5a1.5 1.5 0 11-3.001-.001 1.5 1.5 0 013.001.001zM572 410.5a1.5 1.5 0 11-3.001-.001 1.5 1.5 0 013.001.001zM12 370.5a1.5 1.5 0 11-3 0 1.5 1.5 0 013 0zM32 370.5a1.5 1.5 0 11-3 0 1.5 1.5 0 013 0zM52 370.5a1.5 1.5 0 11-3 0 1.5 1.5 0 013 0zM72 370.5a1.5 1.5 0 11-3 0 1.5 1.5 0 013 0zM92 370.5a1.5 1.5 0 11-3 0 1.5 1.5 0 013 0zM112 370.5a1.5 1.5 0 11-3.001-.001 1.5 1.5 0 013.001.001zM132 370.5a1.5 1.5 0 11-3.001-.001 1.5 1.5 0 013.001.001zM152 370.5a1.5 1.5 0 11-3.001-.001 1.5 1.5 0 013.001.001zM172 370.5a1.5 1.5 0 11-3.001-.001 1.5 1.5 0 013.001.001zM192 370.5a1.5 1.5 0 11-3.001-.001 1.5 1.5 0 013.001.001zM212 370.5a1.5 1.5 0 11-3.001-.001 1.5 1.5 0 013.001.001zM232 370.5a1.5 1.5 0 11-3.001-.001 1.5 1.5 0 013.001.001zM252 370.5a1.5 1.5 0 11-3.001-.001 1.5 1.5 0 013.001.001zM272 370.5a1.5 1.5 0 11-3.001-.001 1.5 1.5 0 013.001.001zM292 370.5a1.5 1.5 0 11-3.001-.001 1.5 1.5 0 013.001.001zM312 370.5a1.5 1.5 0 11-3.001-.001 1.5 1.5 0 013.001.001zM332 370.5a1.5 1.5 0 11-3.001-.001 1.5 1.5 0 013.001.001zM352 370.5a1.5 1.5 0 11-3.001-.001 1.5 1.5 0 013.001.001zM372 370.5a1.5 1.5 0 11-3.001-.001 1.5 1.5 0 013.001.001zM392 370.5a1.5 1.5 0 11-3.001-.001 1.5 1.5 0 013.001.001zM412 370.5a1.5 1.5 0 11-3.001-.001 1.5 1.5 0 013.001.001zM432 370.5a1.5 1.5 0 11-3.001-.001 1.5 1.5 0 013.001.001zM452 370.5a1.5 1.5 0 11-3.001-.001 1.5 1.5 0 013.001.001zM472 370.5a1.5 1.5 0 11-3.001-.001 1.5 1.5 0 013.001.001zM492 370.5a1.5 1.5 0 11-3.001-.001 1.5 1.5 0 013.001.001zM512 370.5a1.5 1.5 0 11-3.001-.001 1.5 1.5 0 013.001.001zM532 370.5a1.5 1.5 0 11-3.001-.001 1.5 1.5 0 013.001.001zM552 370.5a1.5 1.5 0 11-3.001-.001 1.5 1.5 0 013.001.001zM572 370.5a1.5 1.5 0 11-3.001-.001 1.5 1.5 0 013.001.001zM592 390.5a1.5 1.5 0 11-3.001-.001 1.5 1.5 0 013.001.001zM612 390.5a1.5 1.5 0 11-3.001-.001 1.5 1.5 0 013.001.001zM632 390.5a1.5 1.5 0 11-3.001-.001 1.5 1.5 0 013.001.001zM592 410.5a1.5 1.5 0 11-3.001-.001 1.5 1.5 0 013.001.001zM612 410.5a1.5 1.5 0 11-3.001-.001 1.5 1.5 0 013.001.001zM632 410.5a1.5 1.5 0 11-3.001-.001 1.5 1.5 0 013.001.001zM592 370.5a1.5 1.5 0 11-3.001-.001 1.5 1.5 0 013.001.001zM612 370.5a1.5 1.5 0 11-3.001-.001 1.5 1.5 0 013.001.001zM632 370.5a1.5 1.5 0 11-3.001-.001 1.5 1.5 0 013.001.001zM652 390.5a1.5 1.5 0 11-3.001-.001 1.5 1.5 0 013.001.001zM652 410.5a1.5 1.5 0 11-3.001-.001 1.5 1.5 0 013.001.001zM652 370.5a1.5 1.5 0 11-3.001-.001 1.5 1.5 0 013.001.001zM12 450.5a1.5 1.5 0 11-3 0 1.5 1.5 0 013 0zM32 450.5a1.5 1.5 0 11-3 0 1.5 1.5 0 013 0zM52 450.5a1.5 1.5 0 11-3 0 1.5 1.5 0 013 0zM72 450.5a1.5 1.5 0 11-3 0 1.5 1.5 0 013 0zM92 450.5a1.5 1.5 0 11-3 0 1.5 1.5 0 013 0zM112 450.5a1.5 1.5 0 11-3.001-.001 1.5 1.5 0 013.001.001zM132 450.5a1.5 1.5 0 11-3.001-.001 1.5 1.5 0 013.001.001zM152 450.5a1.5 1.5 0 11-3.001-.001 1.5 1.5 0 013.001.001zM172 450.5a1.5 1.5 0 11-3.001-.001 1.5 1.5 0 013.001.001zM192 450.5a1.5 1.5 0 11-3.001-.001 1.5 1.5 0 013.001.001zM12 470.5a1.5 1.5 0 11-3 0 1.5 1.5 0 013 0zM32 470.5a1.5 1.5 0 11-3 0 1.5 1.5 0 013 0zM52 470.5a1.5 1.5 0 11-3 0 1.5 1.5 0 013 0zM72 470.5a1.5 1.5 0 11-3 0 1.5 1.5 0 013 0zM92 470.5a1.5 1.5 0 11-3 0 1.5 1.5 0 013 0zM112 470.5a1.5 1.5 0 11-3.001-.001 1.5 1.5 0 013.001.001zM132 470.5a1.5 1.5 0 11-3.001-.001 1.5 1.5 0 013.001.001zM152 470.5a1.5 1.5 0 11-3.001-.001 1.5 1.5 0 013.001.001zM172 470.5a1.5 1.5 0 11-3.001-.001 1.5 1.5 0 013.001.001zM192 470.5a1.5 1.5 0 11-3.001-.001 1.5 1.5 0 013.001.001zM212 450.5a1.5 1.5 0 11-3.001-.001 1.5 1.5 0 013.001.001zM232 450.5a1.5 1.5 0 11-3.001-.001 1.5 1.5 0 013.001.001zM252 450.5a1.5 1.5 0 11-3.001-.001 1.5 1.5 0 013.001.001zM272 450.5a1.5 1.5 0 11-3.001-.001 1.5 1.5 0 013.001.001zM292 450.5a1.5 1.5 0 11-3.001-.001 1.5 1.5 0 013.001.001zM312 450.5a1.5 1.5 0 11-3.001-.001 1.5 1.5 0 013.001.001zM332 450.5a1.5 1.5 0 11-3.001-.001 1.5 1.5 0 013.001.001zM352 450.5a1.5 1.5 0 11-3.001-.001 1.5 1.5 0 013.001.001zM372 450.5a1.5 1.5 0 11-3.001-.001 1.5 1.5 0 013.001.001zM392 450.5a1.5 1.5 0 11-3.001-.001 1.5 1.5 0 013.001.001zM412 450.5a1.5 1.5 0 11-3.001-.001 1.5 1.5 0 013.001.001zM432 450.5a1.5 1.5 0 11-3.001-.001 1.5 1.5 0 013.001.001zM452 450.5a1.5 1.5 0 11-3.001-.001 1.5 1.5 0 013.001.001zM472 450.5a1.5 1.5 0 11-3.001-.001 1.5 1.5 0 013.001.001zM492 450.5a1.5 1.5 0 11-3.001-.001 1.5 1.5 0 013.001.001zM212 470.5a1.5 1.5 0 11-3.001-.001 1.5 1.5 0 013.001.001zM232 470.5a1.5 1.5 0 11-3.001-.001 1.5 1.5 0 013.001.001zM252 470.5a1.5 1.5 0 11-3.001-.001 1.5 1.5 0 013.001.001zM272 470.5a1.5 1.5 0 11-3.001-.001 1.5 1.5 0 013.001.001zM292 470.5a1.5 1.5 0 11-3.001-.001 1.5 1.5 0 013.001.001zM312 470.5a1.5 1.5 0 11-3.001-.001 1.5 1.5 0 013.001.001zM332 470.5a1.5 1.5 0 11-3.001-.001 1.5 1.5 0 013.001.001zM352 470.5a1.5 1.5 0 11-3.001-.001 1.5 1.5 0 013.001.001zM372 470.5a1.5 1.5 0 11-3.001-.001 1.5 1.5 0 013.001.001zM392 470.5a1.5 1.5 0 11-3.001-.001 1.5 1.5 0 013.001.001zM412 470.5a1.5 1.5 0 11-3.001-.001 1.5 1.5 0 013.001.001zM432 470.5a1.5 1.5 0 11-3.001-.001 1.5 1.5 0 013.001.001zM452 470.5a1.5 1.5 0 11-3.001-.001 1.5 1.5 0 013.001.001zM472 470.5a1.5 1.5 0 11-3.001-.001 1.5 1.5 0 013.001.001zM492 470.5a1.5 1.5 0 11-3.001-.001 1.5 1.5 0 013.001.001zM512 450.5a1.5 1.5 0 11-3.001-.001 1.5 1.5 0 013.001.001zM532 450.5a1.5 1.5 0 11-3.001-.001 1.5 1.5 0 013.001.001zM552 450.5a1.5 1.5 0 11-3.001-.001 1.5 1.5 0 013.001.001zM572 450.5a1.5 1.5 0 11-3.001-.001 1.5 1.5 0 013.001.001zM512 470.5a1.5 1.5 0 11-3.001-.001 1.5 1.5 0 013.001.001zM532 470.5a1.5 1.5 0 11-3.001-.001 1.5 1.5 0 013.001.001zM552 470.5a1.5 1.5 0 11-3.001-.001 1.5 1.5 0 013.001.001zM572 470.5a1.5 1.5 0 11-3.001-.001 1.5 1.5 0 013.001.001zM12 430.5a1.5 1.5 0 11-3 0 1.5 1.5 0 013 0zM32 430.5a1.5 1.5 0 11-3 0 1.5 1.5 0 013 0zM52 430.5a1.5 1.5 0 11-3 0 1.5 1.5 0 013 0zM72 430.5a1.5 1.5 0 11-3 0 1.5 1.5 0 013 0zM92 430.5a1.5 1.5 0 11-3 0 1.5 1.5 0 013 0zM112 430.5a1.5 1.5 0 11-3.001-.001 1.5 1.5 0 013.001.001zM132 430.5a1.5 1.5 0 11-3.001-.001 1.5 1.5 0 013.001.001zM152 430.5a1.5 1.5 0 11-3.001-.001 1.5 1.5 0 013.001.001zM172 430.5a1.5 1.5 0 11-3.001-.001 1.5 1.5 0 013.001.001zM192 430.5a1.5 1.5 0 11-3.001-.001 1.5 1.5 0 013.001.001zM212 430.5a1.5 1.5 0 11-3.001-.001 1.5 1.5 0 013.001.001zM232 430.5a1.5 1.5 0 11-3.001-.001 1.5 1.5 0 013.001.001zM252 430.5a1.5 1.5 0 11-3.001-.001 1.5 1.5 0 013.001.001zM272 430.5a1.5 1.5 0 11-3.001-.001 1.5 1.5 0 013.001.001zM292 430.5a1.5 1.5 0 11-3.001-.001 1.5 1.5 0 013.001.001zM312 430.5a1.5 1.5 0 11-3.001-.001 1.5 1.5 0 013.001.001zM332 430.5a1.5 1.5 0 11-3.001-.001 1.5 1.5 0 013.001.001zM352 430.5a1.5 1.5 0 11-3.001-.001 1.5 1.5 0 013.001.001zM372 430.5a1.5 1.5 0 11-3.001-.001 1.5 1.5 0 013.001.001zM392 430.5a1.5 1.5 0 11-3.001-.001 1.5 1.5 0 013.001.001zM412 430.5a1.5 1.5 0 11-3.001-.001 1.5 1.5 0 013.001.001zM432 430.5a1.5 1.5 0 11-3.001-.001 1.5 1.5 0 013.001.001zM452 430.5a1.5 1.5 0 11-3.001-.001 1.5 1.5 0 013.001.001zM472 430.5a1.5 1.5 0 11-3.001-.001 1.5 1.5 0 013.001.001zM492 430.5a1.5 1.5 0 11-3.001-.001 1.5 1.5 0 013.001.001zM512 430.5a1.5 1.5 0 11-3.001-.001 1.5 1.5 0 013.001.001zM532 430.5a1.5 1.5 0 11-3.001-.001 1.5 1.5 0 013.001.001zM552 430.5a1.5 1.5 0 11-3.001-.001 1.5 1.5 0 013.001.001zM572 430.5a1.5 1.5 0 11-3.001-.001 1.5 1.5 0 013.001.001zM592 450.5a1.5 1.5 0 11-3.001-.001 1.5 1.5 0 013.001.001zM612 450.5a1.5 1.5 0 11-3.001-.001 1.5 1.5 0 013.001.001zM632 450.5a1.5 1.5 0 11-3.001-.001 1.5 1.5 0 013.001.001zM592 470.5a1.5 1.5 0 11-3.001-.001 1.5 1.5 0 013.001.001zM612 470.5a1.5 1.5 0 11-3.001-.001 1.5 1.5 0 013.001.001zM632 470.5a1.5 1.5 0 11-3.001-.001 1.5 1.5 0 013.001.001zM592 430.5a1.5 1.5 0 11-3.001-.001 1.5 1.5 0 013.001.001zM612 430.5a1.5 1.5 0 11-3.001-.001 1.5 1.5 0 013.001.001zM632 430.5a1.5 1.5 0 11-3.001-.001 1.5 1.5 0 013.001.001zM652 450.5a1.5 1.5 0 11-3.001-.001 1.5 1.5 0 013.001.001zM652 470.5a1.5 1.5 0 11-3.001-.001 1.5 1.5 0 013.001.001zM652 430.5a1.5 1.5 0 11-3.001-.001 1.5 1.5 0 013.001.001zM12 510.5a1.5 1.5 0 11-3 0 1.5 1.5 0 013 0zM32 510.5a1.5 1.5 0 11-3 0 1.5 1.5 0 013 0zM52 510.5a1.5 1.5 0 11-3 0 1.5 1.5 0 013 0zM72 510.5a1.5 1.5 0 11-3 0 1.5 1.5 0 013 0zM92 510.5a1.5 1.5 0 11-3 0 1.5 1.5 0 013 0zM112 510.5a1.5 1.5 0 11-3.001-.001 1.5 1.5 0 013.001.001zM132 510.5a1.5 1.5 0 11-3.001-.001 1.5 1.5 0 013.001.001zM152 510.5a1.5 1.5 0 11-3.001-.001 1.5 1.5 0 013.001.001zM172 510.5a1.5 1.5 0 11-3.001-.001 1.5 1.5 0 013.001.001zM192 510.5a1.5 1.5 0 11-3.001-.001 1.5 1.5 0 013.001.001zM212 510.5a1.5 1.5 0 11-3.001-.001 1.5 1.5 0 013.001.001zM232 510.5a1.5 1.5 0 11-3.001-.001 1.5 1.5 0 013.001.001zM252 510.5a1.5 1.5 0 11-3.001-.001 1.5 1.5 0 013.001.001zM272 510.5a1.5 1.5 0 11-3.001-.001 1.5 1.5 0 013.001.001zM292 510.5a1.5 1.5 0 11-3.001-.001 1.5 1.5 0 013.001.001zM312 510.5a1.5 1.5 0 11-3.001-.001 1.5 1.5 0 013.001.001zM332 510.5a1.5 1.5 0 11-3.001-.001 1.5 1.5 0 013.001.001zM352 510.5a1.5 1.5 0 11-3.001-.001 1.5 1.5 0 013.001.001zM372 510.5a1.5 1.5 0 11-3.001-.001 1.5 1.5 0 013.001.001zM392 510.5a1.5 1.5 0 11-3.001-.001 1.5 1.5 0 013.001.001zM412 510.5a1.5 1.5 0 11-3.001-.001 1.5 1.5 0 013.001.001zM432 510.5a1.5 1.5 0 11-3.001-.001 1.5 1.5 0 013.001.001zM452 510.5a1.5 1.5 0 11-3.001-.001 1.5 1.5 0 013.001.001zM472 510.5a1.5 1.5 0 11-3.001-.001 1.5 1.5 0 013.001.001zM492 510.5a1.5 1.5 0 11-3.001-.001 1.5 1.5 0 013.001.001zM512 510.5a1.5 1.5 0 11-3.001-.001 1.5 1.5 0 013.001.001zM532 510.5a1.5 1.5 0 11-3.001-.001 1.5 1.5 0 013.001.001zM552 510.5a1.5 1.5 0 11-3.001-.001 1.5 1.5 0 013.001.001zM572 510.5a1.5 1.5 0 11-3.001-.001 1.5 1.5 0 013.001.001zM12 490.5a1.5 1.5 0 11-3 0 1.5 1.5 0 013 0zM32 490.5a1.5 1.5 0 11-3 0 1.5 1.5 0 013 0zM52 490.5a1.5 1.5 0 11-3 0 1.5 1.5 0 013 0zM72 490.5a1.5 1.5 0 11-3 0 1.5 1.5 0 013 0zM92 490.5a1.5 1.5 0 11-3 0 1.5 1.5 0 013 0zM112 490.5a1.5 1.5 0 11-3.001-.001 1.5 1.5 0 013.001.001zM132 490.5a1.5 1.5 0 11-3.001-.001 1.5 1.5 0 013.001.001zM152 490.5a1.5 1.5 0 11-3.001-.001 1.5 1.5 0 013.001.001zM172 490.5a1.5 1.5 0 11-3.001-.001 1.5 1.5 0 013.001.001zM192 490.5a1.5 1.5 0 11-3.001-.001 1.5 1.5 0 013.001.001zM212 490.5a1.5 1.5 0 11-3.001-.001 1.5 1.5 0 013.001.001zM232 490.5a1.5 1.5 0 11-3.001-.001 1.5 1.5 0 013.001.001zM252 490.5a1.5 1.5 0 11-3.001-.001 1.5 1.5 0 013.001.001zM272 490.5a1.5 1.5 0 11-3.001-.001 1.5 1.5 0 013.001.001zM292 490.5a1.5 1.5 0 11-3.001-.001 1.5 1.5 0 013.001.001zM312 490.5a1.5 1.5 0 11-3.001-.001 1.5 1.5 0 013.001.001zM332 490.5a1.5 1.5 0 11-3.001-.001 1.5 1.5 0 013.001.001zM352 490.5a1.5 1.5 0 11-3.001-.001 1.5 1.5 0 013.001.001zM372 490.5a1.5 1.5 0 11-3.001-.001 1.5 1.5 0 013.001.001zM392 490.5a1.5 1.5 0 11-3.001-.001 1.5 1.5 0 013.001.001zM412 490.5a1.5 1.5 0 11-3.001-.001 1.5 1.5 0 013.001.001zM432 490.5a1.5 1.5 0 11-3.001-.001 1.5 1.5 0 013.001.001zM452 490.5a1.5 1.5 0 11-3.001-.001 1.5 1.5 0 013.001.001zM472 490.5a1.5 1.5 0 11-3.001-.001 1.5 1.5 0 013.001.001zM492 490.5a1.5 1.5 0 11-3.001-.001 1.5 1.5 0 013.001.001zM512 490.5a1.5 1.5 0 11-3.001-.001 1.5 1.5 0 013.001.001zM532 490.5a1.5 1.5 0 11-3.001-.001 1.5 1.5 0 013.001.001zM552 490.5a1.5 1.5 0 11-3.001-.001 1.5 1.5 0 013.001.001zM572 490.5a1.5 1.5 0 11-3.001-.001 1.5 1.5 0 013.001.001zM592 510.5a1.5 1.5 0 11-3.001-.001 1.5 1.5 0 013.001.001zM612 510.5a1.5 1.5 0 11-3.001-.001 1.5 1.5 0 013.001.001zM632 510.5a1.5 1.5 0 11-3.001-.001 1.5 1.5 0 013.001.001zM592 490.5a1.5 1.5 0 11-3.001-.001 1.5 1.5 0 013.001.001zM612 490.5a1.5 1.5 0 11-3.001-.001 1.5 1.5 0 013.001.001zM632 490.5a1.5 1.5 0 11-3.001-.001 1.5 1.5 0 013.001.001zM652 510.5a1.5 1.5 0 11-3.001-.001 1.5 1.5 0 013.001.001zM652 490.5a1.5 1.5 0 11-3.001-.001 1.5 1.5 0 013.001.001z"/></g><defs><linearGradient id="paint0_linear" x1="660" y1="0" x2="-32.583" y2="34.728" gradientUnits="userSpaceOnUse"><stop stop-color="#49CCF9"/><stop offset="1" stop-color="#8930FD"/></linearGradient><linearGradient id="paint1_linear" x1="660" y1="0" x2="-32.583" y2="34.728" gradientUnits="userSpaceOnUse"><stop stop-color="#49CCF9"/><stop offset="1" stop-color="#8930FD"/></linearGradient></defs></svg>