<svg width="28" height="30" viewBox="0 0 28 30" fill="none" xmlns="http://www.w3.org/2000/svg">
<path fill-rule="evenodd" clip-rule="evenodd" d="M4 2C1.79086 2 0 3.79086 0 6V26C0 28.2091 1.79086 30 4 30H24C26.2091 30 28 28.2091 28 26V6C28 3.79086 26.2091 2 24 2H4ZM24 6H4V26H24V6Z" fill="#FFC800"/>
<path d="M4 9H24V13H4V9Z" fill="#FFC800"/>
<path d="M6 1C6 0.447715 6.44772 0 7 0H9C9.55228 0 10 0.447715 10 1V3C10 3.55228 9.55228 4 9 4H7C6.44772 4 6 3.55228 6 3V1Z" fill="#FFC800"/>
<path d="M18 1C18 0.447715 18.4477 0 19 0H21C21.5523 0 22 0.447715 22 1V3C22 3.55228 21.5523 4 21 4H19C18.4477 4 18 3.55228 18 3V1Z" fill="#FFC800"/>
<path d="M18 21C18 20.4477 18.4477 20 19 20H21C21.5523 20 22 20.4477 22 21V23C22 23.5523 21.5523 24 21 24H19C18.4477 24 18 23.5523 18 23V21Z" fill="#FFC800"/>
<path d="M18 16C18 15.4477 18.4477 15 19 15H21C21.5523 15 22 15.4477 22 16V18C22 18.5523 21.5523 19 21 19H19C18.4477 19 18 18.5523 18 18V16Z" fill="#FFC800"/>
<path d="M12 21C12 20.4477 12.4477 20 13 20H15C15.5523 20 16 20.4477 16 21V23C16 23.5523 15.5523 24 15 24H13C12.4477 24 12 23.5523 12 23V21Z" fill="#FFC800"/>
<path d="M12 16C12 15.4477 12.4477 15 13 15H15C15.5523 15 16 15.4477 16 16V18C16 18.5523 15.5523 19 15 19H13C12.4477 19 12 18.5523 12 18V16Z" fill="#FFC800"/>
<path d="M6 21C6 20.4477 6.44772 20 7 20H9C9.55228 20 10 20.4477 10 21V23C10 23.5523 9.55228 24 9 24H7C6.44772 24 6 23.5523 6 23V21Z" fill="#FFC800"/>
<path d="M6 16C6 15.4477 6.44772 15 7 15H9C9.55228 15 10 15.4477 10 16V18C10 18.5523 9.55228 19 9 19H7C6.44772 19 6 18.5523 6 18V16Z" fill="#FFC800"/>
</svg>
