<svg width="1017" height="514" fill="none" xmlns="http://www.w3.org/2000/svg"><path fill-rule="evenodd" clip-rule="evenodd" d="M44.645 0L7.322 37.322c-9.763 9.763-9.763 25.593 0 35.356l393.645 393.644c9.763 9.763 25.592 9.763 35.355 0L902.645 0h-858zm879.071 363.081l85.604-85.607a24.99 24.99 0 007.32-17.678V140.355c0-6.63-2.63-12.989-7.32-17.678l-85.604-85.606c-6.3-6.3-17.071-1.838-17.071 7.07V356.01c0 8.909 10.771 13.37 17.071 7.071zM85.782 336.208V215.142c0-8.909 10.771-13.371 17.071-7.071l248.808 248.808c6.3 6.3 1.838 17.071-7.071 17.071H223.524a25.002 25.002 0 01-17.678-7.322L93.104 353.886a25 25 0 01-7.322-17.678zM752.289 514a25 25 0 0017.678-7.322l104.356-104.356a25 25 0 007.322-17.677V85.142c0-8.909-10.772-13.37-17.071-7.07L445.716 496.928c-6.3 6.3-1.838 17.071 7.071 17.071h299.502z" fill="url(#paint0_linear)"/><mask id="a" maskUnits="userSpaceOnUse" x="0" y="0" width="1017" height="514"><path d="M44.645 0L7.322 37.322c-9.763 9.763-9.763 25.593 0 35.356l393.645 393.644c9.763 9.763 25.592 9.763 35.355 0L902.645 0h-858z" fill="url(#paint1_linear)"/><path d="M923.716 363.081l85.604-85.607a24.99 24.99 0 007.32-17.678V140.355c0-6.63-2.63-12.989-7.32-17.678l-85.604-85.606c-6.3-6.3-17.071-1.838-17.071 7.07V356.01c0 8.909 10.771 13.37 17.071 7.071z" fill="url(#paint2_linear)"/><path d="M85.782 336.208V215.142c0-8.909 10.771-13.371 17.071-7.071l248.808 248.808c6.3 6.3 1.838 17.071-7.071 17.071H223.524a25.002 25.002 0 01-17.678-7.322L93.104 353.886a25 25 0 01-7.322-17.678z" fill="url(#paint3_linear)"/><path d="M752.289 514a25 25 0 0017.678-7.322l104.356-104.356a25 25 0 007.322-17.677V85.142c0-8.909-10.772-13.37-17.071-7.07L445.716 496.928c-6.3 6.3-1.838 17.071 7.071 17.071h299.502z" fill="url(#paint4_linear)"/></mask><g opacity=".1" fill="#000" mask="url(#a)"><path d="M1048.11 7.646a1.499 1.499 0 103 0 1.499 1.499 0 10-3 0zM1028.11 7.646a1.499 1.499 0 103 0 1.499 1.499 0 10-3 0zM1008.11 7.646a1.499 1.499 0 103 0 1.499 1.499 0 10-3 0zM988.112 7.646a1.5 1.5 0 103 0 1.5 1.5 0 00-3 0zM968.112 7.646a1.5 1.5 0 103 0 1.5 1.5 0 00-3 0zM948.112 7.646a1.5 1.5 0 103 0 1.5 1.5 0 00-3 0zM928.112 7.646a1.5 1.5 0 103 0 1.5 1.5 0 00-3 0zM908.112 7.646a1.5 1.5 0 103 0 1.5 1.5 0 00-3 0zM888.112 7.646a1.5 1.5 0 103 0 1.5 1.5 0 00-3 0zM868.112 7.646a1.5 1.5 0 103 0 1.5 1.5 0 00-3 0zM848.112 7.646a1.5 1.5 0 103 0 1.5 1.5 0 00-3 0zM828.112 7.646a1.5 1.5 0 103 0 1.5 1.5 0 00-3 0zM808.112 7.647a1.5 1.5 0 103-.001 1.5 1.5 0 00-3 0zM788.112 7.647a1.5 1.5 0 103-.001 1.5 1.5 0 00-3 0zM768.112 7.647a1.5 1.5 0 103-.001 1.5 1.5 0 00-3 0zM1048.11 27.646a1.499 1.499 0 103 0 1.499 1.499 0 10-3 0zM1028.11 27.646a1.499 1.499 0 103 0 1.499 1.499 0 10-3 0zM1008.11 27.646a1.499 1.499 0 103 0 1.499 1.499 0 10-3 0zM988.112 27.646a1.5 1.5 0 103 0 1.5 1.5 0 00-3 0zM968.112 27.646a1.5 1.5 0 103 0 1.5 1.5 0 00-3 0zM948.112 27.646a1.5 1.5 0 103 0 1.5 1.5 0 00-3 0zM928.112 27.646a1.5 1.5 0 103 0 1.5 1.5 0 00-3 0zM908.112 27.646a1.5 1.5 0 103 0 1.5 1.5 0 00-3 0zM888.112 27.646a1.5 1.5 0 103 0 1.5 1.5 0 00-3 0zM868.112 27.646a1.5 1.5 0 103 0 1.5 1.5 0 00-3 0zM848.112 27.646a1.5 1.5 0 103 0 1.5 1.5 0 00-3 0zM828.112 27.646a1.5 1.5 0 103 0 1.5 1.5 0 00-3 0zM808.112 27.646a1.5 1.5 0 103 0 1.5 1.5 0 00-3 0zM788.112 27.646a1.5 1.5 0 103 0 1.5 1.5 0 00-3 0zM768.112 27.646a1.5 1.5 0 103 0 1.5 1.5 0 00-3 0zM1048.11 47.647a1.499 1.499 0 103 0 1.499 1.499 0 10-3 0zM1028.11 47.647a1.499 1.499 0 103 0 1.499 1.499 0 10-3 0zM1008.11 47.647a1.499 1.499 0 103 0 1.499 1.499 0 10-3 0zM988.112 47.647a1.5 1.5 0 103-.001 1.5 1.5 0 00-3 0zM968.112 47.647a1.5 1.5 0 103-.001 1.5 1.5 0 00-3 0zM948.112 47.647a1.5 1.5 0 103-.001 1.5 1.5 0 00-3 0zM928.112 47.647a1.5 1.5 0 103-.001 1.5 1.5 0 00-3 0zM908.112 47.647a1.5 1.5 0 103-.001 1.5 1.5 0 00-3 0zM888.112 47.647a1.5 1.5 0 103-.001 1.5 1.5 0 00-3 0zM868.112 47.647a1.5 1.5 0 103-.001 1.5 1.5 0 00-3 0zM848.112 47.647a1.5 1.5 0 103-.001 1.5 1.5 0 00-3 0zM828.112 47.647a1.5 1.5 0 103-.001 1.5 1.5 0 00-3 0zM808.112 47.647a1.5 1.5 0 103-.001 1.5 1.5 0 00-3 0zM788.112 47.647a1.5 1.5 0 103-.001 1.5 1.5 0 00-3 0zM768.112 47.647a1.5 1.5 0 103-.001 1.5 1.5 0 00-3 0zM1048.11 67.647a1.499 1.499 0 103 0 1.499 1.499 0 10-3 0zM1028.11 67.647a1.499 1.499 0 103 0 1.499 1.499 0 10-3 0zM1008.11 67.647a1.499 1.499 0 103 0 1.499 1.499 0 10-3 0zM988.112 67.647a1.5 1.5 0 103-.001 1.5 1.5 0 00-3 0zM968.112 67.647a1.5 1.5 0 103-.001 1.5 1.5 0 00-3 0zM948.112 67.647a1.5 1.5 0 103-.001 1.5 1.5 0 00-3 0zM928.112 67.647a1.5 1.5 0 103-.001 1.5 1.5 0 00-3 0zM908.112 67.647a1.5 1.5 0 103-.001 1.5 1.5 0 00-3 0zM888.112 67.647a1.5 1.5 0 103-.001 1.5 1.5 0 00-3 0zM868.112 67.647a1.5 1.5 0 103-.001 1.5 1.5 0 00-3 0zM848.112 67.647a1.5 1.5 0 103-.001 1.5 1.5 0 00-3 0zM828.112 67.647a1.5 1.5 0 103-.001 1.5 1.5 0 00-3 0zM808.112 67.647a1.5 1.5 0 103-.001 1.5 1.5 0 00-3 0zM788.112 67.647a1.5 1.5 0 103-.001 1.5 1.5 0 00-3 0zM768.112 67.647a1.5 1.5 0 103-.001 1.5 1.5 0 00-3 0zM1048.11 87.647a1.499 1.499 0 103 0 1.499 1.499 0 10-3 0zM1028.11 87.647a1.499 1.499 0 103 0 1.499 1.499 0 10-3 0zM1008.11 87.647a1.499 1.499 0 103 0 1.499 1.499 0 10-3 0zM988.112 87.647a1.5 1.5 0 103-.001 1.5 1.5 0 00-3 0zM968.112 87.647a1.5 1.5 0 103-.001 1.5 1.5 0 00-3 0zM948.112 87.647a1.5 1.5 0 103-.001 1.5 1.5 0 00-3 0zM928.112 87.647a1.5 1.5 0 103-.001 1.5 1.5 0 00-3 0zM908.112 87.647a1.5 1.5 0 103-.001 1.5 1.5 0 00-3 0zM888.112 87.647a1.5 1.5 0 103-.001 1.5 1.5 0 00-3 0zM868.112 87.647a1.5 1.5 0 103-.001 1.5 1.5 0 00-3 0zM848.112 87.647a1.5 1.5 0 103-.001 1.5 1.5 0 00-3 0zM828.112 87.647a1.5 1.5 0 103-.001 1.5 1.5 0 00-3 0zM808.112 87.647a1.5 1.5 0 103-.001 1.5 1.5 0 00-3 0zM788.112 87.647a1.5 1.5 0 103-.001 1.5 1.5 0 00-3 0zM768.112 87.647a1.5 1.5 0 103-.001 1.5 1.5 0 00-3 0zM1048.11 107.646c0 .829.67 1.5 1.5 1.5s1.5-.671 1.5-1.5a1.5 1.5 0 10-3 0zM1028.11 107.646c0 .829.67 1.5 1.5 1.5s1.5-.671 1.5-1.5a1.5 1.5 0 10-3 0zM1008.11 107.646c0 .829.67 1.5 1.5 1.5s1.5-.671 1.5-1.5a1.5 1.5 0 10-3 0zM988.112 107.646a1.5 1.5 0 103 0 1.5 1.5 0 00-3 0zM968.112 107.646a1.5 1.5 0 103 0 1.5 1.5 0 00-3 0zM948.112 107.646a1.5 1.5 0 103 0 1.5 1.5 0 00-3 0zM928.112 107.646a1.5 1.5 0 103 0 1.5 1.5 0 00-3 0zM908.112 107.646a1.5 1.5 0 103 0 1.5 1.5 0 00-3 0zM888.112 107.646a1.5 1.5 0 103 0 1.5 1.5 0 00-3 0zM868.112 107.647a1.5 1.5 0 103.001-.001 1.5 1.5 0 00-3.001.001zM848.112 107.647a1.5 1.5 0 103.001-.001 1.5 1.5 0 00-3.001.001zM828.112 107.647a1.5 1.5 0 103.001-.001 1.5 1.5 0 00-3.001.001zM808.112 107.647a1.5 1.5 0 103.001-.001 1.5 1.5 0 00-3.001.001zM788.112 107.647a1.5 1.5 0 103.001-.001 1.5 1.5 0 00-3.001.001zM768.112 107.647a1.5 1.5 0 103.001-.001 1.5 1.5 0 00-3.001.001zM1048.11 127.646c0 .829.67 1.5 1.5 1.5s1.5-.671 1.5-1.5a1.5 1.5 0 10-3 0zM1028.11 127.646c0 .829.67 1.5 1.5 1.5s1.5-.671 1.5-1.5a1.5 1.5 0 10-3 0zM1008.11 127.646c0 .829.67 1.5 1.5 1.5s1.5-.671 1.5-1.5a1.5 1.5 0 10-3 0zM988.112 127.646a1.5 1.5 0 103 0 1.5 1.5 0 00-3 0zM968.112 127.646a1.5 1.5 0 103 0 1.5 1.5 0 00-3 0zM948.112 127.646a1.5 1.5 0 103 0 1.5 1.5 0 00-3 0zM928.112 127.646a1.5 1.5 0 103 0 1.5 1.5 0 00-3 0zM908.112 127.646a1.5 1.5 0 103 0 1.5 1.5 0 00-3 0zM888.112 127.646a1.5 1.5 0 103 0 1.5 1.5 0 00-3 0zM868.112 127.647a1.5 1.5 0 103.001-.001 1.5 1.5 0 00-3.001.001zM848.112 127.647a1.5 1.5 0 103.001-.001 1.5 1.5 0 00-3.001.001zM828.112 127.647a1.5 1.5 0 103.001-.001 1.5 1.5 0 00-3.001.001zM808.112 127.647a1.5 1.5 0 103.001-.001 1.5 1.5 0 00-3.001.001zM788.112 127.647a1.5 1.5 0 103.001-.001 1.5 1.5 0 00-3.001.001zM768.112 127.647a1.5 1.5 0 103.001-.001 1.5 1.5 0 00-3.001.001zM1048.11 147.646c0 .829.67 1.5 1.5 1.5s1.5-.671 1.5-1.5a1.5 1.5 0 10-3 0zM1028.11 147.646c0 .829.67 1.5 1.5 1.5s1.5-.671 1.5-1.5a1.5 1.5 0 10-3 0zM1008.11 147.646c0 .829.67 1.5 1.5 1.5s1.5-.671 1.5-1.5a1.5 1.5 0 10-3 0zM988.112 147.646a1.5 1.5 0 103 0 1.5 1.5 0 00-3 0zM968.112 147.646a1.5 1.5 0 103 0 1.5 1.5 0 00-3 0zM948.112 147.646a1.5 1.5 0 103 0 1.5 1.5 0 00-3 0zM928.112 147.646a1.5 1.5 0 103 0 1.5 1.5 0 00-3 0zM908.112 147.646a1.5 1.5 0 103 0 1.5 1.5 0 00-3 0zM888.112 147.646a1.5 1.5 0 103 0 1.5 1.5 0 00-3 0zM868.112 147.647a1.5 1.5 0 103.001-.001 1.5 1.5 0 00-3.001.001zM848.112 147.647a1.5 1.5 0 103.001-.001 1.5 1.5 0 00-3.001.001zM828.112 147.647a1.5 1.5 0 103.001-.001 1.5 1.5 0 00-3.001.001zM808.112 147.647a1.5 1.5 0 103.001-.001 1.5 1.5 0 00-3.001.001zM788.112 147.647a1.5 1.5 0 103.001-.001 1.5 1.5 0 00-3.001.001zM768.112 147.647a1.5 1.5 0 103.001-.001 1.5 1.5 0 00-3.001.001zM1048.11 167.646c0 .829.67 1.5 1.5 1.5s1.5-.671 1.5-1.5a1.5 1.5 0 10-3 0zM1028.11 167.646c0 .829.67 1.5 1.5 1.5s1.5-.671 1.5-1.5a1.5 1.5 0 10-3 0zM1008.11 167.646c0 .829.67 1.5 1.5 1.5s1.5-.671 1.5-1.5a1.5 1.5 0 10-3 0zM988.112 167.646a1.5 1.5 0 103 0 1.5 1.5 0 00-3 0zM968.112 167.646a1.5 1.5 0 103 0 1.5 1.5 0 00-3 0zM948.112 167.646a1.5 1.5 0 103 0 1.5 1.5 0 00-3 0zM928.112 167.646a1.5 1.5 0 103 0 1.5 1.5 0 00-3 0zM908.112 167.646a1.5 1.5 0 103 0 1.5 1.5 0 00-3 0zM888.112 167.646a1.5 1.5 0 103 0 1.5 1.5 0 00-3 0zM868.112 167.647a1.5 1.5 0 103.001-.001 1.5 1.5 0 00-3.001.001zM848.112 167.647a1.5 1.5 0 103.001-.001 1.5 1.5 0 00-3.001.001zM828.112 167.647a1.5 1.5 0 103.001-.001 1.5 1.5 0 00-3.001.001zM808.112 167.647a1.5 1.5 0 103.001-.001 1.5 1.5 0 00-3.001.001zM788.112 167.647a1.5 1.5 0 103.001-.001 1.5 1.5 0 00-3.001.001zM768.112 167.647a1.5 1.5 0 103.001-.001 1.5 1.5 0 00-3.001.001zM1048.11 187.646c0 .829.67 1.5 1.5 1.5s1.5-.671 1.5-1.5a1.5 1.5 0 10-3 0zM1028.11 187.646c0 .829.67 1.5 1.5 1.5s1.5-.671 1.5-1.5a1.5 1.5 0 10-3 0zM1008.11 187.646c0 .829.67 1.5 1.5 1.5s1.5-.671 1.5-1.5a1.5 1.5 0 10-3 0zM988.112 187.646a1.5 1.5 0 103 0 1.5 1.5 0 00-3 0zM968.112 187.646a1.5 1.5 0 103 0 1.5 1.5 0 00-3 0zM948.112 187.646a1.5 1.5 0 103 0 1.5 1.5 0 00-3 0zM928.112 187.646a1.5 1.5 0 103 0 1.5 1.5 0 00-3 0zM908.112 187.646a1.5 1.5 0 103 0 1.5 1.5 0 00-3 0zM888.112 187.646a1.5 1.5 0 103 0 1.5 1.5 0 00-3 0zM868.112 187.647a1.5 1.5 0 103.001-.001 1.5 1.5 0 00-3.001.001zM848.112 187.647a1.5 1.5 0 103.001-.001 1.5 1.5 0 00-3.001.001zM828.112 187.647a1.5 1.5 0 103.001-.001 1.5 1.5 0 00-3.001.001zM808.112 187.647a1.5 1.5 0 103.001-.001 1.5 1.5 0 00-3.001.001zM788.112 187.647a1.5 1.5 0 103.001-.001 1.5 1.5 0 00-3.001.001zM768.112 187.647a1.5 1.5 0 103.001-.001 1.5 1.5 0 00-3.001.001zM1048.11 207.646c0 .829.67 1.5 1.5 1.5s1.5-.671 1.5-1.5a1.5 1.5 0 10-3 0zM1028.11 207.646c0 .829.67 1.5 1.5 1.5s1.5-.671 1.5-1.5a1.5 1.5 0 10-3 0zM1008.11 207.646c0 .829.67 1.5 1.5 1.5s1.5-.671 1.5-1.5a1.5 1.5 0 10-3 0zM988.112 207.646a1.5 1.5 0 103 0 1.5 1.5 0 00-3 0zM968.112 207.646a1.5 1.5 0 103 0 1.5 1.5 0 00-3 0zM948.112 207.646a1.5 1.5 0 103 0 1.5 1.5 0 00-3 0zM928.112 207.646a1.5 1.5 0 103 0 1.5 1.5 0 00-3 0zM908.112 207.646a1.5 1.5 0 103 0 1.5 1.5 0 00-3 0zM888.112 207.646a1.5 1.5 0 103 0 1.5 1.5 0 00-3 0zM868.112 207.647a1.5 1.5 0 103.001-.001 1.5 1.5 0 00-3.001.001zM848.112 207.647a1.5 1.5 0 103.001-.001 1.5 1.5 0 00-3.001.001zM828.112 207.647a1.5 1.5 0 103.001-.001 1.5 1.5 0 00-3.001.001zM808.112 207.647a1.5 1.5 0 103.001-.001 1.5 1.5 0 00-3.001.001zM788.112 207.647a1.5 1.5 0 103.001-.001 1.5 1.5 0 00-3.001.001zM768.112 207.647a1.5 1.5 0 103.001-.001 1.5 1.5 0 00-3.001.001zM1048.11 227.646c0 .829.67 1.5 1.5 1.5s1.5-.671 1.5-1.5a1.5 1.5 0 10-3 0zM1028.11 227.646c0 .829.67 1.5 1.5 1.5s1.5-.671 1.5-1.5a1.5 1.5 0 10-3 0zM1008.11 227.646c0 .829.67 1.5 1.5 1.5s1.5-.671 1.5-1.5a1.5 1.5 0 10-3 0zM988.112 227.646a1.5 1.5 0 103 0 1.5 1.5 0 00-3 0zM968.112 227.646a1.5 1.5 0 103 0 1.5 1.5 0 00-3 0zM948.112 227.646a1.5 1.5 0 103 0 1.5 1.5 0 00-3 0zM928.112 227.646a1.5 1.5 0 103 0 1.5 1.5 0 00-3 0zM908.112 227.646a1.5 1.5 0 103 0 1.5 1.5 0 00-3 0zM888.112 227.646a1.5 1.5 0 103 0 1.5 1.5 0 00-3 0zM868.112 227.647a1.5 1.5 0 103.001-.001 1.5 1.5 0 00-3.001.001zM848.112 227.647a1.5 1.5 0 103.001-.001 1.5 1.5 0 00-3.001.001zM828.112 227.647a1.5 1.5 0 103.001-.001 1.5 1.5 0 00-3.001.001zM808.112 227.647a1.5 1.5 0 103.001-.001 1.5 1.5 0 00-3.001.001zM788.112 227.647a1.5 1.5 0 103.001-.001 1.5 1.5 0 00-3.001.001zM768.112 227.647a1.5 1.5 0 103.001-.001 1.5 1.5 0 00-3.001.001zM748.112 7.647a1.5 1.5 0 103-.001 1.5 1.5 0 00-3 0zM728.112 7.647a1.5 1.5 0 103-.001 1.5 1.5 0 00-3 0zM708.112 7.647a1.5 1.5 0 103-.001 1.5 1.5 0 00-3 0zM688.112 7.647a1.5 1.5 0 103-.001 1.5 1.5 0 00-3 0zM668.112 7.647a1.5 1.5 0 103-.001 1.5 1.5 0 00-3 0zM648.112 7.647a1.5 1.5 0 103-.001 1.5 1.5 0 00-3 0zM628.112 7.647a1.5 1.5 0 103-.001 1.5 1.5 0 00-3 0zM608.112 7.647a1.5 1.5 0 103-.001 1.5 1.5 0 00-3 0zM588.112 7.647a1.5 1.5 0 103-.001 1.5 1.5 0 00-3 0zM568.112 7.647a1.5 1.5 0 103-.001 1.5 1.5 0 00-3 0zM548.112 7.647a1.5 1.5 0 103-.001 1.5 1.5 0 00-3 0zM528.112 7.647a1.5 1.5 0 103-.001 1.5 1.5 0 00-3 0zM508.112 7.647a1.5 1.5 0 103-.001 1.5 1.5 0 00-3 0zM488.112 7.647a1.5 1.5 0 103-.001 1.5 1.5 0 00-3 0zM468.112 7.647a1.5 1.5 0 103-.001 1.5 1.5 0 00-3 0zM748.112 27.646a1.5 1.5 0 103 0 1.5 1.5 0 00-3 0zM728.112 27.646a1.5 1.5 0 103 0 1.5 1.5 0 00-3 0zM708.112 27.646a1.5 1.5 0 103 0 1.5 1.5 0 00-3 0zM688.112 27.646a1.5 1.5 0 103 0 1.5 1.5 0 00-3 0zM668.112 27.646a1.5 1.5 0 103 0 1.5 1.5 0 00-3 0zM648.112 27.646a1.5 1.5 0 103 0 1.5 1.5 0 00-3 0zM628.112 27.646a1.5 1.5 0 103 0 1.5 1.5 0 00-3 0zM608.112 27.646a1.5 1.5 0 103 0 1.5 1.5 0 00-3 0zM588.112 27.646a1.5 1.5 0 103 0 1.5 1.5 0 00-3 0zM568.112 27.646a1.5 1.5 0 103 0 1.5 1.5 0 00-3 0zM548.112 27.646a1.5 1.5 0 103 0 1.5 1.5 0 00-3 0zM528.112 27.646a1.5 1.5 0 103 0 1.5 1.5 0 00-3 0zM508.112 27.646a1.5 1.5 0 103 0 1.5 1.5 0 00-3 0zM488.112 27.646a1.5 1.5 0 103 0 1.5 1.5 0 00-3 0zM468.112 27.646a1.5 1.5 0 103 0 1.5 1.5 0 00-3 0zM748.112 47.647a1.5 1.5 0 103-.001 1.5 1.5 0 00-3 0zM728.112 47.647a1.5 1.5 0 103-.001 1.5 1.5 0 00-3 0zM708.112 47.647a1.5 1.5 0 103-.001 1.5 1.5 0 00-3 0zM688.112 47.647a1.5 1.5 0 103-.001 1.5 1.5 0 00-3 0zM668.112 47.647a1.5 1.5 0 103-.001 1.5 1.5 0 00-3 0zM648.112 47.647a1.5 1.5 0 103-.001 1.5 1.5 0 00-3 0zM628.112 47.647a1.5 1.5 0 103-.001 1.5 1.5 0 00-3 0zM608.112 47.647a1.5 1.5 0 103-.001 1.5 1.5 0 00-3 0zM588.112 47.647a1.5 1.5 0 103-.001 1.5 1.5 0 00-3 0zM568.112 47.647a1.5 1.5 0 103-.001 1.5 1.5 0 00-3 0zM548.112 47.647a1.5 1.5 0 103-.001 1.5 1.5 0 00-3 0zM528.112 47.647a1.5 1.5 0 103-.001 1.5 1.5 0 00-3 0zM508.112 47.647a1.5 1.5 0 103-.001 1.5 1.5 0 00-3 0zM488.112 47.647a1.5 1.5 0 103-.001 1.5 1.5 0 00-3 0zM468.112 47.647a1.5 1.5 0 103-.001 1.5 1.5 0 00-3 0zM748.112 67.647a1.5 1.5 0 103-.001 1.5 1.5 0 00-3 0zM728.112 67.647a1.5 1.5 0 103-.001 1.5 1.5 0 00-3 0zM708.112 67.647a1.5 1.5 0 103-.001 1.5 1.5 0 00-3 0zM688.112 67.647a1.5 1.5 0 103-.001 1.5 1.5 0 00-3 0zM668.112 67.647a1.5 1.5 0 103-.001 1.5 1.5 0 00-3 0zM648.112 67.647a1.5 1.5 0 103-.001 1.5 1.5 0 00-3 0zM628.112 67.647a1.5 1.5 0 103-.001 1.5 1.5 0 00-3 0zM608.112 67.647a1.5 1.5 0 103-.001 1.5 1.5 0 00-3 0zM588.112 67.647a1.5 1.5 0 103-.001 1.5 1.5 0 00-3 0zM568.112 67.647a1.5 1.5 0 103-.001 1.5 1.5 0 00-3 0zM548.112 67.647a1.5 1.5 0 103-.001 1.5 1.5 0 00-3 0zM528.112 67.647a1.5 1.5 0 103-.001 1.5 1.5 0 00-3 0zM508.112 67.647a1.5 1.5 0 103-.001 1.5 1.5 0 00-3 0zM488.112 67.647a1.5 1.5 0 103-.001 1.5 1.5 0 00-3 0zM468.112 67.647a1.5 1.5 0 103-.001 1.5 1.5 0 00-3 0zM748.112 87.647a1.5 1.5 0 103-.001 1.5 1.5 0 00-3 0zM728.112 87.647a1.5 1.5 0 103-.001 1.5 1.5 0 00-3 0zM708.112 87.647a1.5 1.5 0 103-.001 1.5 1.5 0 00-3 0zM688.112 87.647a1.5 1.5 0 103-.001 1.5 1.5 0 00-3 0zM668.112 87.647a1.5 1.5 0 103-.001 1.5 1.5 0 00-3 0zM648.112 87.647a1.5 1.5 0 103-.001 1.5 1.5 0 00-3 0zM628.112 87.647a1.5 1.5 0 103-.001 1.5 1.5 0 00-3 0zM608.112 87.647a1.5 1.5 0 103-.001 1.5 1.5 0 00-3 0zM588.112 87.647a1.5 1.5 0 103-.001 1.5 1.5 0 00-3 0zM568.112 87.647a1.5 1.5 0 103-.001 1.5 1.5 0 00-3 0zM548.112 87.647a1.5 1.5 0 103-.001 1.5 1.5 0 00-3 0zM528.112 87.647a1.5 1.5 0 103-.001 1.5 1.5 0 00-3 0zM508.112 87.647a1.5 1.5 0 103-.001 1.5 1.5 0 00-3 0zM488.112 87.647a1.5 1.5 0 103-.001 1.5 1.5 0 00-3 0zM468.112 87.647a1.5 1.5 0 103-.001 1.5 1.5 0 00-3 0zM748.112 107.647a1.5 1.5 0 103.001-.001 1.5 1.5 0 00-3.001.001zM728.112 107.647a1.5 1.5 0 103.001-.001 1.5 1.5 0 00-3.001.001zM708.112 107.647a1.5 1.5 0 103.001-.001 1.5 1.5 0 00-3.001.001zM688.112 107.647a1.5 1.5 0 103.001-.001 1.5 1.5 0 00-3.001.001zM668.112 107.647a1.5 1.5 0 103.001-.001 1.5 1.5 0 00-3.001.001zM648.112 107.647a1.5 1.5 0 103.001-.001 1.5 1.5 0 00-3.001.001zM628.112 107.647a1.5 1.5 0 103.001-.001 1.5 1.5 0 00-3.001.001zM608.112 107.647a1.5 1.5 0 103.001-.001 1.5 1.5 0 00-3.001.001zM588.112 107.647a1.5 1.5 0 103.001-.001 1.5 1.5 0 00-3.001.001zM568.112 107.647a1.5 1.5 0 103.001-.001 1.5 1.5 0 00-3.001.001zM548.112 107.647a1.5 1.5 0 103.001-.001 1.5 1.5 0 00-3.001.001zM528.112 107.647a1.5 1.5 0 103.001-.001 1.5 1.5 0 00-3.001.001zM508.112 107.647a1.5 1.5 0 103.001-.001 1.5 1.5 0 00-3.001.001zM488.112 107.647a1.5 1.5 0 103.001-.001 1.5 1.5 0 00-3.001.001zM468.112 107.647a1.5 1.5 0 103.001-.001 1.5 1.5 0 00-3.001.001zM748.112 127.647a1.5 1.5 0 103.001-.001 1.5 1.5 0 00-3.001.001zM728.112 127.647a1.5 1.5 0 103.001-.001 1.5 1.5 0 00-3.001.001zM708.112 127.647a1.5 1.5 0 103.001-.001 1.5 1.5 0 00-3.001.001zM688.112 127.647a1.5 1.5 0 103.001-.001 1.5 1.5 0 00-3.001.001zM668.112 127.647a1.5 1.5 0 103.001-.001 1.5 1.5 0 00-3.001.001zM648.112 127.647a1.5 1.5 0 103.001-.001 1.5 1.5 0 00-3.001.001zM628.112 127.647a1.5 1.5 0 103.001-.001 1.5 1.5 0 00-3.001.001zM608.112 127.647a1.5 1.5 0 103.001-.001 1.5 1.5 0 00-3.001.001zM588.112 127.647a1.5 1.5 0 103.001-.001 1.5 1.5 0 00-3.001.001zM568.112 127.647a1.5 1.5 0 103.001-.001 1.5 1.5 0 00-3.001.001zM548.112 127.647a1.5 1.5 0 103.001-.001 1.5 1.5 0 00-3.001.001zM528.112 127.647a1.5 1.5 0 103.001-.001 1.5 1.5 0 00-3.001.001zM508.112 127.647a1.5 1.5 0 103.001-.001 1.5 1.5 0 00-3.001.001zM488.112 127.647a1.5 1.5 0 103.001-.001 1.5 1.5 0 00-3.001.001zM468.112 127.647a1.5 1.5 0 103.001-.001 1.5 1.5 0 00-3.001.001zM748.112 147.647a1.5 1.5 0 103.001-.001 1.5 1.5 0 00-3.001.001zM728.112 147.647a1.5 1.5 0 103.001-.001 1.5 1.5 0 00-3.001.001zM708.112 147.647a1.5 1.5 0 103.001-.001 1.5 1.5 0 00-3.001.001zM688.112 147.647a1.5 1.5 0 103.001-.001 1.5 1.5 0 00-3.001.001zM668.112 147.647a1.5 1.5 0 103.001-.001 1.5 1.5 0 00-3.001.001zM648.112 147.647a1.5 1.5 0 103.001-.001 1.5 1.5 0 00-3.001.001zM628.112 147.647a1.5 1.5 0 103.001-.001 1.5 1.5 0 00-3.001.001zM608.112 147.647a1.5 1.5 0 103.001-.001 1.5 1.5 0 00-3.001.001zM588.112 147.647a1.5 1.5 0 103.001-.001 1.5 1.5 0 00-3.001.001zM568.112 147.647a1.5 1.5 0 103.001-.001 1.5 1.5 0 00-3.001.001zM548.112 147.647a1.5 1.5 0 103.001-.001 1.5 1.5 0 00-3.001.001zM528.112 147.647a1.5 1.5 0 103.001-.001 1.5 1.5 0 00-3.001.001zM508.112 147.647a1.5 1.5 0 103.001-.001 1.5 1.5 0 00-3.001.001zM488.112 147.647a1.5 1.5 0 103.001-.001 1.5 1.5 0 00-3.001.001zM468.112 147.647a1.5 1.5 0 103.001-.001 1.5 1.5 0 00-3.001.001zM748.112 167.647a1.5 1.5 0 103.001-.001 1.5 1.5 0 00-3.001.001zM728.112 167.647a1.5 1.5 0 103.001-.001 1.5 1.5 0 00-3.001.001zM708.112 167.647a1.5 1.5 0 103.001-.001 1.5 1.5 0 00-3.001.001zM688.112 167.647a1.5 1.5 0 103.001-.001 1.5 1.5 0 00-3.001.001zM668.112 167.647a1.5 1.5 0 103.001-.001 1.5 1.5 0 00-3.001.001zM648.112 167.647a1.5 1.5 0 103.001-.001 1.5 1.5 0 00-3.001.001zM628.112 167.647a1.5 1.5 0 103.001-.001 1.5 1.5 0 00-3.001.001zM608.112 167.647a1.5 1.5 0 103.001-.001 1.5 1.5 0 00-3.001.001zM588.112 167.647a1.5 1.5 0 103.001-.001 1.5 1.5 0 00-3.001.001zM568.112 167.647a1.5 1.5 0 103.001-.001 1.5 1.5 0 00-3.001.001zM548.112 167.647a1.5 1.5 0 103.001-.001 1.5 1.5 0 00-3.001.001zM528.112 167.647a1.5 1.5 0 103.001-.001 1.5 1.5 0 00-3.001.001zM508.112 167.647a1.5 1.5 0 103.001-.001 1.5 1.5 0 00-3.001.001zM488.112 167.647a1.5 1.5 0 103.001-.001 1.5 1.5 0 00-3.001.001zM468.112 167.647a1.5 1.5 0 103.001-.001 1.5 1.5 0 00-3.001.001zM748.112 187.647a1.5 1.5 0 103.001-.001 1.5 1.5 0 00-3.001.001zM728.112 187.647a1.5 1.5 0 103.001-.001 1.5 1.5 0 00-3.001.001zM708.112 187.647a1.5 1.5 0 103.001-.001 1.5 1.5 0 00-3.001.001zM688.112 187.647a1.5 1.5 0 103.001-.001 1.5 1.5 0 00-3.001.001zM668.112 187.647a1.5 1.5 0 103.001-.001 1.5 1.5 0 00-3.001.001zM648.112 187.647a1.5 1.5 0 103.001-.001 1.5 1.5 0 00-3.001.001zM628.112 187.647a1.5 1.5 0 103.001-.001 1.5 1.5 0 00-3.001.001zM608.112 187.647a1.5 1.5 0 103.001-.001 1.5 1.5 0 00-3.001.001zM588.112 187.647a1.5 1.5 0 103.001-.001 1.5 1.5 0 00-3.001.001zM568.112 187.647a1.5 1.5 0 103.001-.001 1.5 1.5 0 00-3.001.001zM548.112 187.647a1.5 1.5 0 103.001-.001 1.5 1.5 0 00-3.001.001zM528.112 187.647a1.5 1.5 0 103.001-.001 1.5 1.5 0 00-3.001.001zM508.112 187.647a1.5 1.5 0 103.001-.001 1.5 1.5 0 00-3.001.001zM488.112 187.647a1.5 1.5 0 103.001-.001 1.5 1.5 0 00-3.001.001zM468.112 187.647a1.5 1.5 0 103.001-.001 1.5 1.5 0 00-3.001.001zM748.112 207.647a1.5 1.5 0 103.001-.001 1.5 1.5 0 00-3.001.001zM728.112 207.647a1.5 1.5 0 103.001-.001 1.5 1.5 0 00-3.001.001zM708.112 207.647a1.5 1.5 0 103.001-.001 1.5 1.5 0 00-3.001.001zM688.112 207.647a1.5 1.5 0 103.001-.001 1.5 1.5 0 00-3.001.001zM668.112 207.647a1.5 1.5 0 103.001-.001 1.5 1.5 0 00-3.001.001zM648.112 207.647a1.5 1.5 0 103.001-.001 1.5 1.5 0 00-3.001.001zM628.112 207.647a1.5 1.5 0 103.001-.001 1.5 1.5 0 00-3.001.001zM608.112 207.647a1.5 1.5 0 103.001-.001 1.5 1.5 0 00-3.001.001zM588.112 207.647a1.5 1.5 0 103.001-.001 1.5 1.5 0 00-3.001.001zM568.112 207.647a1.5 1.5 0 103.001-.001 1.5 1.5 0 00-3.001.001zM548.112 207.647a1.5 1.5 0 103.001-.001 1.5 1.5 0 00-3.001.001zM528.112 207.647a1.5 1.5 0 103.001-.001 1.5 1.5 0 00-3.001.001zM508.112 207.647a1.5 1.5 0 103.001-.001 1.5 1.5 0 00-3.001.001zM488.112 207.647a1.5 1.5 0 103.001-.001 1.5 1.5 0 00-3.001.001zM468.112 207.647a1.5 1.5 0 103.001-.001 1.5 1.5 0 00-3.001.001zM748.112 227.647a1.5 1.5 0 103.001-.001 1.5 1.5 0 00-3.001.001zM728.112 227.647a1.5 1.5 0 103.001-.001 1.5 1.5 0 00-3.001.001zM708.112 227.647a1.5 1.5 0 103.001-.001 1.5 1.5 0 00-3.001.001zM688.112 227.647a1.5 1.5 0 103.001-.001 1.5 1.5 0 00-3.001.001zM668.112 227.647a1.5 1.5 0 103.001-.001 1.5 1.5 0 00-3.001.001zM648.112 227.647a1.5 1.5 0 103.001-.001 1.5 1.5 0 00-3.001.001zM628.112 227.647a1.5 1.5 0 103.001-.001 1.5 1.5 0 00-3.001.001zM608.112 227.647a1.5 1.5 0 103.001-.001 1.5 1.5 0 00-3.001.001zM588.112 227.647a1.5 1.5 0 103.001-.001 1.5 1.5 0 00-3.001.001zM568.112 227.647a1.5 1.5 0 103.001-.001 1.5 1.5 0 00-3.001.001zM548.112 227.647a1.5 1.5 0 103.001-.001 1.5 1.5 0 00-3.001.001zM528.112 227.647a1.5 1.5 0 103.001-.001 1.5 1.5 0 00-3.001.001zM508.112 227.647a1.5 1.5 0 103.001-.001 1.5 1.5 0 00-3.001.001zM488.112 227.647a1.5 1.5 0 103.001-.001 1.5 1.5 0 00-3.001.001zM468.112 227.647a1.5 1.5 0 103.001-.001 1.5 1.5 0 00-3.001.001zM448.112 7.647a1.5 1.5 0 103-.001 1.5 1.5 0 00-3 0zM428.112 7.647a1.5 1.5 0 103-.001 1.5 1.5 0 00-3 0zM408.112 7.647a1.5 1.5 0 103-.001 1.5 1.5 0 00-3 0zM388.112 7.647a1.5 1.5 0 103-.001 1.5 1.5 0 00-3 0zM368.112 7.647a1.5 1.5 0 103-.001 1.5 1.5 0 00-3 0zM348.112 7.647a1.5 1.5 0 103-.001 1.5 1.5 0 00-3 0zM328.112 7.647a1.5 1.5 0 103-.001 1.5 1.5 0 00-3 0zM308.112 7.647a1.5 1.5 0 103-.001 1.5 1.5 0 00-3 0zM288.112 7.647a1.5 1.5 0 103-.001 1.5 1.5 0 00-3 0zM268.112 7.647a1.5 1.5 0 103-.001 1.5 1.5 0 00-3 0zM248.112 7.647a1.5 1.5 0 103-.001 1.5 1.5 0 00-3 0zM228.112 7.647a1.5 1.5 0 103-.001 1.5 1.5 0 00-3 0zM208.112 7.647a1.5 1.5 0 103-.001 1.5 1.5 0 00-3 0zM188.112 7.647a1.5 1.5 0 103-.001 1.5 1.5 0 00-3 0zM168.112 7.647a1.5 1.5 0 103-.001 1.5 1.5 0 00-3 0zM448.112 27.646a1.5 1.5 0 103 0 1.5 1.5 0 00-3 0zM428.112 27.646a1.5 1.5 0 103 0 1.5 1.5 0 00-3 0zM408.112 27.646a1.5 1.5 0 103 0 1.5 1.5 0 00-3 0zM388.112 27.646a1.5 1.5 0 103 0 1.5 1.5 0 00-3 0zM368.112 27.646a1.5 1.5 0 103 0 1.5 1.5 0 00-3 0zM348.112 27.646a1.5 1.5 0 103 0 1.5 1.5 0 00-3 0zM328.112 27.646a1.5 1.5 0 103 0 1.5 1.5 0 00-3 0zM308.112 27.646a1.5 1.5 0 103 0 1.5 1.5 0 00-3 0zM288.112 27.647a1.5 1.5 0 103-.001 1.5 1.5 0 00-3 0zM268.112 27.647a1.5 1.5 0 103-.001 1.5 1.5 0 00-3 0zM248.112 27.647a1.5 1.5 0 103-.001 1.5 1.5 0 00-3 0zM228.112 27.647a1.5 1.5 0 103-.001 1.5 1.5 0 00-3 0zM208.112 27.647a1.5 1.5 0 103-.001 1.5 1.5 0 00-3 0zM188.112 27.647a1.5 1.5 0 103-.001 1.5 1.5 0 00-3 0zM168.112 27.647a1.5 1.5 0 103-.001 1.5 1.5 0 00-3 0zM448.112 47.647a1.5 1.5 0 103-.001 1.5 1.5 0 00-3 0zM428.112 47.647a1.5 1.5 0 103-.001 1.5 1.5 0 00-3 0zM408.112 47.647a1.5 1.5 0 103-.001 1.5 1.5 0 00-3 0zM388.112 47.647a1.5 1.5 0 103-.001 1.5 1.5 0 00-3 0zM368.112 47.647a1.5 1.5 0 103-.001 1.5 1.5 0 00-3 0zM348.112 47.647a1.5 1.5 0 103-.001 1.5 1.5 0 00-3 0zM328.112 47.647a1.5 1.5 0 103-.001 1.5 1.5 0 00-3 0zM308.112 47.647a1.5 1.5 0 103-.001 1.5 1.5 0 00-3 0zM288.112 47.647a1.5 1.5 0 103-.001 1.5 1.5 0 00-3 0zM268.112 47.647a1.5 1.5 0 103-.001 1.5 1.5 0 00-3 0zM248.112 47.647a1.5 1.5 0 103-.001 1.5 1.5 0 00-3 0zM228.112 47.647a1.5 1.5 0 103-.001 1.5 1.5 0 00-3 0zM208.112 47.647a1.5 1.5 0 103-.001 1.5 1.5 0 00-3 0zM188.112 47.647a1.5 1.5 0 103-.001 1.5 1.5 0 00-3 0zM168.112 47.647a1.5 1.5 0 103-.001 1.5 1.5 0 00-3 0zM448.112 67.647a1.5 1.5 0 103-.001 1.5 1.5 0 00-3 0zM428.112 67.647a1.5 1.5 0 103-.001 1.5 1.5 0 00-3 0zM408.112 67.647a1.5 1.5 0 103-.001 1.5 1.5 0 00-3 0zM388.112 67.647a1.5 1.5 0 103-.001 1.5 1.5 0 00-3 0zM368.112 67.647a1.5 1.5 0 103-.001 1.5 1.5 0 00-3 0zM348.112 67.647a1.5 1.5 0 103-.001 1.5 1.5 0 00-3 0zM328.112 67.647a1.5 1.5 0 103-.001 1.5 1.5 0 00-3 0zM308.112 67.647a1.5 1.5 0 103-.001 1.5 1.5 0 00-3 0zM288.112 67.647a1.5 1.5 0 103-.001 1.5 1.5 0 00-3 0zM268.112 67.647a1.5 1.5 0 103-.001 1.5 1.5 0 00-3 0zM248.112 67.647a1.5 1.5 0 103-.001 1.5 1.5 0 00-3 0zM228.112 67.647a1.5 1.5 0 103-.001 1.5 1.5 0 00-3 0zM208.112 67.647a1.5 1.5 0 103-.001 1.5 1.5 0 00-3 0zM188.112 67.647a1.5 1.5 0 103-.001 1.5 1.5 0 00-3 0zM168.112 67.647a1.5 1.5 0 103-.001 1.5 1.5 0 00-3 0zM448.112 87.647a1.5 1.5 0 103-.001 1.5 1.5 0 00-3 0zM428.112 87.647a1.5 1.5 0 103-.001 1.5 1.5 0 00-3 0zM408.112 87.647a1.5 1.5 0 103-.001 1.5 1.5 0 00-3 0zM388.112 87.647a1.5 1.5 0 103-.001 1.5 1.5 0 00-3 0zM368.112 87.647a1.5 1.5 0 103-.001 1.5 1.5 0 00-3 0zM348.112 87.647a1.5 1.5 0 103-.001 1.5 1.5 0 00-3 0zM328.112 87.647a1.5 1.5 0 103-.001 1.5 1.5 0 00-3 0zM308.112 87.647a1.5 1.5 0 103-.001 1.5 1.5 0 00-3 0zM288.112 87.647a1.5 1.5 0 103-.001 1.5 1.5 0 00-3 0zM268.112 87.647a1.5 1.5 0 103-.001 1.5 1.5 0 00-3 0zM248.112 87.647a1.5 1.5 0 103-.001 1.5 1.5 0 00-3 0zM228.112 87.647a1.5 1.5 0 103-.001 1.5 1.5 0 00-3 0zM208.112 87.647a1.5 1.5 0 103-.001 1.5 1.5 0 00-3 0zM188.112 87.647a1.5 1.5 0 103-.001 1.5 1.5 0 00-3 0zM168.112 87.647a1.5 1.5 0 103-.001 1.5 1.5 0 00-3 0zM448.112 107.647a1.5 1.5 0 103.001-.001 1.5 1.5 0 00-3.001.001zM428.112 107.647a1.5 1.5 0 103.001-.001 1.5 1.5 0 00-3.001.001zM408.112 107.647a1.5 1.5 0 103.001-.001 1.5 1.5 0 00-3.001.001zM388.112 107.647a1.5 1.5 0 103.001-.001 1.5 1.5 0 00-3.001.001zM368.112 107.647a1.5 1.5 0 103.001-.001 1.5 1.5 0 00-3.001.001zM348.112 107.647a1.5 1.5 0 103.001-.001 1.5 1.5 0 00-3.001.001zM328.112 107.647a1.5 1.5 0 103.001-.001 1.5 1.5 0 00-3.001.001zM308.112 107.647a1.5 1.5 0 103.001-.001 1.5 1.5 0 00-3.001.001zM288.112 107.647a1.5 1.5 0 103.001-.001 1.5 1.5 0 00-3.001.001zM268.112 107.647a1.5 1.5 0 103.001-.001 1.5 1.5 0 00-3.001.001zM248.112 107.647a1.5 1.5 0 103.001-.001 1.5 1.5 0 00-3.001.001zM228.112 107.647a1.5 1.5 0 103.001-.001 1.5 1.5 0 00-3.001.001zM208.112 107.647a1.5 1.5 0 103.001-.001 1.5 1.5 0 00-3.001.001zM188.112 107.647a1.5 1.5 0 103.001-.001 1.5 1.5 0 00-3.001.001zM168.112 107.647a1.5 1.5 0 103.001-.001 1.5 1.5 0 00-3.001.001zM448.112 127.647a1.5 1.5 0 103.001-.001 1.5 1.5 0 00-3.001.001zM428.112 127.647a1.5 1.5 0 103.001-.001 1.5 1.5 0 00-3.001.001zM408.112 127.647a1.5 1.5 0 103.001-.001 1.5 1.5 0 00-3.001.001zM388.112 127.647a1.5 1.5 0 103.001-.001 1.5 1.5 0 00-3.001.001zM368.112 127.647a1.5 1.5 0 103.001-.001 1.5 1.5 0 00-3.001.001zM348.112 127.647a1.5 1.5 0 103.001-.001 1.5 1.5 0 00-3.001.001zM328.112 127.647a1.5 1.5 0 103.001-.001 1.5 1.5 0 00-3.001.001zM308.112 127.647a1.5 1.5 0 103.001-.001 1.5 1.5 0 00-3.001.001zM288.112 127.647a1.5 1.5 0 103.001-.001 1.5 1.5 0 00-3.001.001zM268.112 127.647a1.5 1.5 0 103.001-.001 1.5 1.5 0 00-3.001.001zM248.112 127.647a1.5 1.5 0 103.001-.001 1.5 1.5 0 00-3.001.001zM228.112 127.647a1.5 1.5 0 103.001-.001 1.5 1.5 0 00-3.001.001zM208.112 127.647a1.5 1.5 0 103.001-.001 1.5 1.5 0 00-3.001.001zM188.112 127.647a1.5 1.5 0 103.001-.001 1.5 1.5 0 00-3.001.001zM168.112 127.647a1.5 1.5 0 103.001-.001 1.5 1.5 0 00-3.001.001zM448.112 147.647a1.5 1.5 0 103.001-.001 1.5 1.5 0 00-3.001.001zM428.112 147.647a1.5 1.5 0 103.001-.001 1.5 1.5 0 00-3.001.001zM408.112 147.647a1.5 1.5 0 103.001-.001 1.5 1.5 0 00-3.001.001zM388.112 147.647a1.5 1.5 0 103.001-.001 1.5 1.5 0 00-3.001.001zM368.112 147.647a1.5 1.5 0 103.001-.001 1.5 1.5 0 00-3.001.001zM348.112 147.647a1.5 1.5 0 103.001-.001 1.5 1.5 0 00-3.001.001zM328.112 147.647a1.5 1.5 0 103.001-.001 1.5 1.5 0 00-3.001.001zM308.112 147.647a1.5 1.5 0 103.001-.001 1.5 1.5 0 00-3.001.001zM288.112 147.647a1.5 1.5 0 103.001-.001 1.5 1.5 0 00-3.001.001zM268.112 147.647a1.5 1.5 0 103.001-.001 1.5 1.5 0 00-3.001.001zM248.112 147.647a1.5 1.5 0 103.001-.001 1.5 1.5 0 00-3.001.001zM228.112 147.647a1.5 1.5 0 103.001-.001 1.5 1.5 0 00-3.001.001zM208.112 147.647a1.5 1.5 0 103.001-.001 1.5 1.5 0 00-3.001.001zM188.112 147.647a1.5 1.5 0 103.001-.001 1.5 1.5 0 00-3.001.001zM168.112 147.647a1.5 1.5 0 103.001-.001 1.5 1.5 0 00-3.001.001zM448.112 167.647a1.5 1.5 0 103.001-.001 1.5 1.5 0 00-3.001.001zM428.112 167.647a1.5 1.5 0 103.001-.001 1.5 1.5 0 00-3.001.001zM408.112 167.647a1.5 1.5 0 103.001-.001 1.5 1.5 0 00-3.001.001zM388.112 167.647a1.5 1.5 0 103.001-.001 1.5 1.5 0 00-3.001.001zM368.112 167.647a1.5 1.5 0 103.001-.001 1.5 1.5 0 00-3.001.001zM348.112 167.647a1.5 1.5 0 103.001-.001 1.5 1.5 0 00-3.001.001zM328.112 167.647a1.5 1.5 0 103.001-.001 1.5 1.5 0 00-3.001.001zM308.112 167.647a1.5 1.5 0 103.001-.001 1.5 1.5 0 00-3.001.001zM288.112 167.647a1.5 1.5 0 103.001-.001 1.5 1.5 0 00-3.001.001zM268.112 167.647a1.5 1.5 0 103.001-.001 1.5 1.5 0 00-3.001.001zM248.112 167.647a1.5 1.5 0 103.001-.001 1.5 1.5 0 00-3.001.001zM228.112 167.647a1.5 1.5 0 103.001-.001 1.5 1.5 0 00-3.001.001zM208.112 167.647a1.5 1.5 0 103.001-.001 1.5 1.5 0 00-3.001.001zM188.112 167.647a1.5 1.5 0 103.001-.001 1.5 1.5 0 00-3.001.001zM168.112 167.647a1.5 1.5 0 103.001-.001 1.5 1.5 0 00-3.001.001zM448.112 187.647a1.5 1.5 0 103.001-.001 1.5 1.5 0 00-3.001.001zM428.112 187.647a1.5 1.5 0 103.001-.001 1.5 1.5 0 00-3.001.001zM408.112 187.647a1.5 1.5 0 103.001-.001 1.5 1.5 0 00-3.001.001zM388.112 187.647a1.5 1.5 0 103.001-.001 1.5 1.5 0 00-3.001.001zM368.112 187.647a1.5 1.5 0 103.001-.001 1.5 1.5 0 00-3.001.001zM348.112 187.647a1.5 1.5 0 103.001-.001 1.5 1.5 0 00-3.001.001zM328.112 187.647a1.5 1.5 0 103.001-.001 1.5 1.5 0 00-3.001.001zM308.112 187.647a1.5 1.5 0 103.001-.001 1.5 1.5 0 00-3.001.001zM288.112 187.647a1.5 1.5 0 103.001-.001 1.5 1.5 0 00-3.001.001zM268.112 187.647a1.5 1.5 0 103.001-.001 1.5 1.5 0 00-3.001.001zM248.112 187.647a1.5 1.5 0 103.001-.001 1.5 1.5 0 00-3.001.001zM228.112 187.647a1.5 1.5 0 103.001-.001 1.5 1.5 0 00-3.001.001zM208.112 187.647a1.5 1.5 0 103.001-.001 1.5 1.5 0 00-3.001.001zM188.112 187.647a1.5 1.5 0 103.001-.001 1.5 1.5 0 00-3.001.001zM168.112 187.647a1.5 1.5 0 103.001-.001 1.5 1.5 0 00-3.001.001zM448.112 207.647a1.5 1.5 0 103.001-.001 1.5 1.5 0 00-3.001.001zM428.112 207.647a1.5 1.5 0 103.001-.001 1.5 1.5 0 00-3.001.001zM408.112 207.647a1.5 1.5 0 103.001-.001 1.5 1.5 0 00-3.001.001zM388.112 207.647a1.5 1.5 0 103.001-.001 1.5 1.5 0 00-3.001.001zM368.112 207.647a1.5 1.5 0 103.001-.001 1.5 1.5 0 00-3.001.001zM348.112 207.647a1.5 1.5 0 103.001-.001 1.5 1.5 0 00-3.001.001zM328.112 207.647a1.5 1.5 0 103.001-.001 1.5 1.5 0 00-3.001.001zM308.112 207.647a1.5 1.5 0 103.001-.001 1.5 1.5 0 00-3.001.001zM288.112 207.647a1.5 1.5 0 103.001-.001 1.5 1.5 0 00-3.001.001zM268.112 207.647a1.5 1.5 0 103.001-.001 1.5 1.5 0 00-3.001.001zM248.112 207.647a1.5 1.5 0 103.001-.001 1.5 1.5 0 00-3.001.001zM228.112 207.647a1.5 1.5 0 103.001-.001 1.5 1.5 0 00-3.001.001zM208.112 207.647a1.5 1.5 0 103.001-.001 1.5 1.5 0 00-3.001.001zM188.112 207.647a1.5 1.5 0 103.001-.001 1.5 1.5 0 00-3.001.001zM168.112 207.647a1.5 1.5 0 103.001-.001 1.5 1.5 0 00-3.001.001zM448.112 227.647a1.5 1.5 0 103.001-.001 1.5 1.5 0 00-3.001.001zM428.112 227.647a1.5 1.5 0 103.001-.001 1.5 1.5 0 00-3.001.001zM408.112 227.647a1.5 1.5 0 103.001-.001 1.5 1.5 0 00-3.001.001zM388.112 227.647a1.5 1.5 0 103.001-.001 1.5 1.5 0 00-3.001.001zM368.112 227.647a1.5 1.5 0 103.001-.001 1.5 1.5 0 00-3.001.001zM348.112 227.647a1.5 1.5 0 103.001-.001 1.5 1.5 0 00-3.001.001zM328.112 227.647a1.5 1.5 0 103.001-.001 1.5 1.5 0 00-3.001.001zM308.112 227.647a1.5 1.5 0 103.001-.001 1.5 1.5 0 00-3.001.001zM288.112 227.647a1.5 1.5 0 103.001-.001 1.5 1.5 0 00-3.001.001zM268.112 227.647a1.5 1.5 0 103.001-.001 1.5 1.5 0 00-3.001.001zM248.112 227.647a1.5 1.5 0 103.001-.001 1.5 1.5 0 00-3.001.001zM228.112 227.647a1.5 1.5 0 103.001-.001 1.5 1.5 0 00-3.001.001zM208.112 227.647a1.5 1.5 0 103.001-.001 1.5 1.5 0 00-3.001.001zM188.112 227.647a1.5 1.5 0 103.001-.001 1.5 1.5 0 00-3.001.001zM168.112 227.647a1.5 1.5 0 103.001-.001 1.5 1.5 0 00-3.001.001zM148.112 7.647a1.5 1.5 0 103-.001 1.5 1.5 0 00-3 0zM128.112 7.647a1.5 1.5 0 103-.001 1.5 1.5 0 00-3 0zM108.112 7.647a1.5 1.5 0 103-.001 1.5 1.5 0 00-3 0zM88.112 7.647a1.5 1.5 0 103 0 1.5 1.5 0 00-3 0zM68.112 7.647a1.5 1.5 0 103 0 1.5 1.5 0 00-3 0zM48.112 7.647a1.5 1.5 0 103 0 1.5 1.5 0 00-3 0zM28.112 7.647a1.5 1.5 0 103 0 1.5 1.5 0 00-3 0zM8.112 7.647a1.5 1.5 0 103 0 1.5 1.5 0 00-3 0zM148.112 27.647a1.5 1.5 0 103-.001 1.5 1.5 0 00-3 0zM128.112 27.647a1.5 1.5 0 103-.001 1.5 1.5 0 00-3 0zM108.112 27.647a1.5 1.5 0 103-.001 1.5 1.5 0 00-3 0zM88.112 27.647a1.5 1.5 0 103 0 1.5 1.5 0 00-3 0zM68.112 27.647a1.5 1.5 0 103 0 1.5 1.5 0 00-3 0zM48.112 27.647a1.5 1.5 0 103 0 1.5 1.5 0 00-3 0zM28.112 27.647a1.5 1.5 0 103 0 1.5 1.5 0 00-3 0zM8.112 27.647a1.5 1.5 0 103 0 1.5 1.5 0 00-3 0zM148.112 47.647a1.5 1.5 0 103-.001 1.5 1.5 0 00-3 0zM128.112 47.647a1.5 1.5 0 103-.001 1.5 1.5 0 00-3 0zM108.112 47.647a1.5 1.5 0 103-.001 1.5 1.5 0 00-3 0zM88.112 47.647a1.5 1.5 0 103 0 1.5 1.5 0 00-3 0zM68.112 47.647a1.5 1.5 0 103 0 1.5 1.5 0 00-3 0zM48.112 47.647a1.5 1.5 0 103 0 1.5 1.5 0 00-3 0zM28.112 47.647a1.5 1.5 0 103 0 1.5 1.5 0 00-3 0zM8.112 47.647a1.5 1.5 0 103 0 1.5 1.5 0 00-3 0zM148.112 67.647a1.5 1.5 0 103-.001 1.5 1.5 0 00-3 0zM128.112 67.647a1.5 1.5 0 103-.001 1.5 1.5 0 00-3 0zM108.112 67.647a1.5 1.5 0 103-.001 1.5 1.5 0 00-3 0zM88.112 67.647a1.5 1.5 0 103 0 1.5 1.5 0 00-3 0zM68.112 67.647a1.5 1.5 0 103 0 1.5 1.5 0 00-3 0zM48.112 67.647a1.5 1.5 0 103 0 1.5 1.5 0 00-3 0zM28.112 67.647a1.5 1.5 0 103 0 1.5 1.5 0 00-3 0zM8.112 67.647a1.5 1.5 0 103 0 1.5 1.5 0 00-3 0zM148.112 87.647a1.5 1.5 0 103-.001 1.5 1.5 0 00-3 0zM128.112 87.647a1.5 1.5 0 103-.001 1.5 1.5 0 00-3 0zM108.112 87.647a1.5 1.5 0 103-.001 1.5 1.5 0 00-3 0zM88.112 87.647a1.5 1.5 0 103 0 1.5 1.5 0 00-3 0zM68.112 87.647a1.5 1.5 0 103 0 1.5 1.5 0 00-3 0zM48.112 87.647a1.5 1.5 0 103 0 1.5 1.5 0 00-3 0zM28.112 87.647a1.5 1.5 0 103 0 1.5 1.5 0 00-3 0zM8.112 87.647a1.5 1.5 0 103 0 1.5 1.5 0 00-3 0zM148.112 107.647a1.5 1.5 0 103.001-.001 1.5 1.5 0 00-3.001.001zM128.112 107.647a1.5 1.5 0 103.001-.001 1.5 1.5 0 00-3.001.001zM108.112 107.647a1.5 1.5 0 103.001-.001 1.5 1.5 0 00-3.001.001zM88.112 107.647a1.5 1.5 0 103 0 1.5 1.5 0 00-3 0zM68.112 107.647a1.5 1.5 0 103 0 1.5 1.5 0 00-3 0zM48.112 107.647a1.5 1.5 0 103 0 1.5 1.5 0 00-3 0zM28.112 107.647a1.5 1.5 0 103 0 1.5 1.5 0 00-3 0zM8.112 107.647a1.5 1.5 0 103 0 1.5 1.5 0 00-3 0zM148.112 127.647a1.5 1.5 0 103.001-.001 1.5 1.5 0 00-3.001.001zM128.112 127.647a1.5 1.5 0 103.001-.001 1.5 1.5 0 00-3.001.001zM108.112 127.647a1.5 1.5 0 103.001-.001 1.5 1.5 0 00-3.001.001zM88.112 127.647a1.5 1.5 0 103 0 1.5 1.5 0 00-3 0zM68.112 127.647a1.5 1.5 0 103 0 1.5 1.5 0 00-3 0zM48.112 127.647a1.5 1.5 0 103 0 1.5 1.5 0 00-3 0zM28.112 127.647a1.5 1.5 0 103 0 1.5 1.5 0 00-3 0zM8.112 127.647a1.5 1.5 0 103 0 1.5 1.5 0 00-3 0zM148.112 147.647a1.5 1.5 0 103.001-.001 1.5 1.5 0 00-3.001.001zM128.112 147.647a1.5 1.5 0 103.001-.001 1.5 1.5 0 00-3.001.001zM108.112 147.647a1.5 1.5 0 103.001-.001 1.5 1.5 0 00-3.001.001zM88.112 147.647a1.5 1.5 0 103 0 1.5 1.5 0 00-3 0zM68.112 147.647a1.5 1.5 0 103 0 1.5 1.5 0 00-3 0zM48.112 147.647a1.5 1.5 0 103 0 1.5 1.5 0 00-3 0zM28.112 147.647a1.5 1.5 0 103 0 1.5 1.5 0 00-3 0zM8.112 147.647a1.5 1.5 0 103 0 1.5 1.5 0 00-3 0zM148.112 167.647a1.5 1.5 0 103.001-.001 1.5 1.5 0 00-3.001.001zM128.112 167.647a1.5 1.5 0 103.001-.001 1.5 1.5 0 00-3.001.001zM108.112 167.647a1.5 1.5 0 103.001-.001 1.5 1.5 0 00-3.001.001zM88.112 167.647a1.5 1.5 0 103 0 1.5 1.5 0 00-3 0zM68.112 167.647a1.5 1.5 0 103 0 1.5 1.5 0 00-3 0zM48.112 167.647a1.5 1.5 0 103 0 1.5 1.5 0 00-3 0zM28.112 167.647a1.5 1.5 0 103 0 1.5 1.5 0 00-3 0zM8.112 167.647a1.5 1.5 0 103 0 1.5 1.5 0 00-3 0zM148.112 187.647a1.5 1.5 0 103.001-.001 1.5 1.5 0 00-3.001.001zM128.112 187.647a1.5 1.5 0 103.001-.001 1.5 1.5 0 00-3.001.001zM108.112 187.647a1.5 1.5 0 103.001-.001 1.5 1.5 0 00-3.001.001zM88.112 187.647a1.5 1.5 0 103 0 1.5 1.5 0 00-3 0zM68.112 187.647a1.5 1.5 0 103 0 1.5 1.5 0 00-3 0zM48.112 187.647a1.5 1.5 0 103 0 1.5 1.5 0 00-3 0zM28.112 187.647a1.5 1.5 0 103 0 1.5 1.5 0 00-3 0zM8.112 187.647a1.5 1.5 0 103 0 1.5 1.5 0 00-3 0zM148.112 207.647a1.5 1.5 0 103.001-.001 1.5 1.5 0 00-3.001.001zM128.112 207.647a1.5 1.5 0 103.001-.001 1.5 1.5 0 00-3.001.001zM108.112 207.647a1.5 1.5 0 103.001-.001 1.5 1.5 0 00-3.001.001zM88.112 207.647a1.5 1.5 0 103 0 1.5 1.5 0 00-3 0zM68.112 207.647a1.5 1.5 0 103 0 1.5 1.5 0 00-3 0zM48.112 207.647a1.5 1.5 0 103 0 1.5 1.5 0 00-3 0zM28.112 207.647a1.5 1.5 0 103 0 1.5 1.5 0 00-3 0zM8.112 207.647a1.5 1.5 0 103 0 1.5 1.5 0 00-3 0zM148.112 227.647a1.5 1.5 0 103.001-.001 1.5 1.5 0 00-3.001.001zM128.112 227.647a1.5 1.5 0 103.001-.001 1.5 1.5 0 00-3.001.001zM108.112 227.647a1.5 1.5 0 103.001-.001 1.5 1.5 0 00-3.001.001zM88.112 227.647a1.5 1.5 0 103 0 1.5 1.5 0 00-3 0zM68.112 227.647a1.5 1.5 0 103 0 1.5 1.5 0 00-3 0zM48.112 227.647a1.5 1.5 0 103 0 1.5 1.5 0 00-3 0zM28.112 227.647a1.5 1.5 0 103 0 1.5 1.5 0 00-3 0zM8.112 227.647a1.5 1.5 0 103 0 1.5 1.5 0 00-3 0zM1048.11 247.646c0 .829.67 1.5 1.5 1.5s1.5-.671 1.5-1.5a1.5 1.5 0 10-3 0zM1028.11 247.646c0 .829.67 1.5 1.5 1.5s1.5-.671 1.5-1.5a1.5 1.5 0 10-3 0zM1008.11 247.646c0 .829.67 1.5 1.5 1.5s1.5-.671 1.5-1.5a1.5 1.5 0 10-3 0zM988.112 247.646a1.5 1.5 0 103 0 1.5 1.5 0 00-3 0zM968.112 247.646a1.5 1.5 0 103 0 1.5 1.5 0 00-3 0zM948.112 247.646a1.5 1.5 0 103 0 1.5 1.5 0 00-3 0zM928.112 247.646a1.5 1.5 0 103 0 1.5 1.5 0 00-3 0zM908.112 247.646a1.5 1.5 0 103 0 1.5 1.5 0 00-3 0zM888.112 247.646a1.5 1.5 0 103 0 1.5 1.5 0 00-3 0zM868.112 247.647a1.5 1.5 0 103.001-.001 1.5 1.5 0 00-3.001.001zM848.112 247.647a1.5 1.5 0 103.001-.001 1.5 1.5 0 00-3.001.001zM828.112 247.647a1.5 1.5 0 103.001-.001 1.5 1.5 0 00-3.001.001zM808.112 247.647a1.5 1.5 0 103.001-.001 1.5 1.5 0 00-3.001.001zM788.112 247.647a1.5 1.5 0 103.001-.001 1.5 1.5 0 00-3.001.001zM768.112 247.647a1.5 1.5 0 103.001-.001 1.5 1.5 0 00-3.001.001zM1048.11 267.646c0 .829.67 1.5 1.5 1.5s1.5-.671 1.5-1.5a1.5 1.5 0 10-3 0zM1028.11 267.646c0 .829.67 1.5 1.5 1.5s1.5-.671 1.5-1.5a1.5 1.5 0 10-3 0zM1008.11 267.646c0 .829.67 1.5 1.5 1.5s1.5-.671 1.5-1.5a1.5 1.5 0 10-3 0zM988.112 267.646a1.5 1.5 0 103 0 1.5 1.5 0 00-3 0zM968.112 267.646a1.5 1.5 0 103 0 1.5 1.5 0 00-3 0zM948.112 267.646a1.5 1.5 0 103 0 1.5 1.5 0 00-3 0zM928.112 267.646a1.5 1.5 0 103 0 1.5 1.5 0 00-3 0zM908.112 267.646a1.5 1.5 0 103 0 1.5 1.5 0 00-3 0zM888.112 267.646a1.5 1.5 0 103 0 1.5 1.5 0 00-3 0zM868.112 267.647a1.5 1.5 0 103.001-.001 1.5 1.5 0 00-3.001.001zM848.112 267.647a1.5 1.5 0 103.001-.001 1.5 1.5 0 00-3.001.001zM828.112 267.647a1.5 1.5 0 103.001-.001 1.5 1.5 0 00-3.001.001zM808.112 267.647a1.5 1.5 0 103.001-.001 1.5 1.5 0 00-3.001.001zM788.112 267.647a1.5 1.5 0 103.001-.001 1.5 1.5 0 00-3.001.001zM768.112 267.647a1.5 1.5 0 103.001-.001 1.5 1.5 0 00-3.001.001zM1048.11 287.646c0 .829.67 1.5 1.5 1.5s1.5-.671 1.5-1.5a1.5 1.5 0 10-3 0zM1028.11 287.646c0 .829.67 1.5 1.5 1.5s1.5-.671 1.5-1.5a1.5 1.5 0 10-3 0zM1008.11 287.646c0 .829.67 1.5 1.5 1.5s1.5-.671 1.5-1.5a1.5 1.5 0 10-3 0zM988.112 287.646a1.5 1.5 0 103 0 1.5 1.5 0 00-3 0zM968.112 287.646a1.5 1.5 0 103 0 1.5 1.5 0 00-3 0zM948.112 287.646a1.5 1.5 0 103 0 1.5 1.5 0 00-3 0zM928.112 287.646a1.5 1.5 0 103 0 1.5 1.5 0 00-3 0zM908.112 287.646a1.5 1.5 0 103 0 1.5 1.5 0 00-3 0zM888.112 287.646a1.5 1.5 0 103 0 1.5 1.5 0 00-3 0zM868.112 287.647a1.5 1.5 0 103.001-.001 1.5 1.5 0 00-3.001.001zM848.112 287.647a1.5 1.5 0 103.001-.001 1.5 1.5 0 00-3.001.001zM828.112 287.647a1.5 1.5 0 103.001-.001 1.5 1.5 0 00-3.001.001zM808.112 287.647a1.5 1.5 0 103.001-.001 1.5 1.5 0 00-3.001.001zM788.112 287.647a1.5 1.5 0 103.001-.001 1.5 1.5 0 00-3.001.001zM768.112 287.647a1.5 1.5 0 103.001-.001 1.5 1.5 0 00-3.001.001zM1048.11 307.646c0 .829.67 1.5 1.5 1.5s1.5-.671 1.5-1.5a1.5 1.5 0 10-3 0zM1028.11 307.646c0 .829.67 1.5 1.5 1.5s1.5-.671 1.5-1.5a1.5 1.5 0 10-3 0zM1008.11 307.646c0 .829.67 1.5 1.5 1.5s1.5-.671 1.5-1.5a1.5 1.5 0 10-3 0zM988.112 307.646a1.5 1.5 0 103 0 1.5 1.5 0 00-3 0zM968.112 307.646a1.5 1.5 0 103 0 1.5 1.5 0 00-3 0zM948.112 307.646a1.5 1.5 0 103 0 1.5 1.5 0 00-3 0zM928.112 307.646a1.5 1.5 0 103 0 1.5 1.5 0 00-3 0zM908.112 307.646a1.5 1.5 0 103 0 1.5 1.5 0 00-3 0zM888.112 307.646a1.5 1.5 0 103 0 1.5 1.5 0 00-3 0zM868.112 307.647a1.5 1.5 0 103.001-.001 1.5 1.5 0 00-3.001.001zM848.112 307.647a1.5 1.5 0 103.001-.001 1.5 1.5 0 00-3.001.001zM828.112 307.647a1.5 1.5 0 103.001-.001 1.5 1.5 0 00-3.001.001zM808.112 307.647a1.5 1.5 0 103.001-.001 1.5 1.5 0 00-3.001.001zM788.112 307.647a1.5 1.5 0 103.001-.001 1.5 1.5 0 00-3.001.001zM768.112 307.647a1.5 1.5 0 103.001-.001 1.5 1.5 0 00-3.001.001zM1048.11 327.646c0 .829.67 1.5 1.5 1.5s1.5-.671 1.5-1.5a1.5 1.5 0 10-3 0zM1028.11 327.646c0 .829.67 1.5 1.5 1.5s1.5-.671 1.5-1.5a1.5 1.5 0 10-3 0zM1008.11 327.646c0 .829.67 1.5 1.5 1.5s1.5-.671 1.5-1.5a1.5 1.5 0 10-3 0zM988.112 327.646a1.5 1.5 0 103 0 1.5 1.5 0 00-3 0zM968.112 327.646a1.5 1.5 0 103 0 1.5 1.5 0 00-3 0zM948.112 327.646a1.5 1.5 0 103 0 1.5 1.5 0 00-3 0zM928.112 327.646a1.5 1.5 0 103 0 1.5 1.5 0 00-3 0zM908.112 327.646a1.5 1.5 0 103 0 1.5 1.5 0 00-3 0zM888.112 327.646a1.5 1.5 0 103 0 1.5 1.5 0 00-3 0zM868.112 327.647a1.5 1.5 0 103.001-.001 1.5 1.5 0 00-3.001.001zM848.112 327.647a1.5 1.5 0 103.001-.001 1.5 1.5 0 00-3.001.001zM828.112 327.647a1.5 1.5 0 103.001-.001 1.5 1.5 0 00-3.001.001zM808.112 327.647a1.5 1.5 0 103.001-.001 1.5 1.5 0 00-3.001.001zM788.112 327.647a1.5 1.5 0 103.001-.001 1.5 1.5 0 00-3.001.001zM768.112 327.647a1.5 1.5 0 103.001-.001 1.5 1.5 0 00-3.001.001zM1048.11 347.646c0 .829.67 1.5 1.5 1.5s1.5-.671 1.5-1.5a1.5 1.5 0 10-3 0zM1028.11 347.646c0 .829.67 1.5 1.5 1.5s1.5-.671 1.5-1.5a1.5 1.5 0 10-3 0zM1008.11 347.646c0 .829.67 1.5 1.5 1.5s1.5-.671 1.5-1.5a1.5 1.5 0 10-3 0zM988.112 347.646a1.5 1.5 0 103 0 1.5 1.5 0 00-3 0zM968.112 347.646a1.5 1.5 0 103 0 1.5 1.5 0 00-3 0zM948.112 347.646a1.5 1.5 0 103 0 1.5 1.5 0 00-3 0zM928.112 347.646a1.5 1.5 0 103 0 1.5 1.5 0 00-3 0zM908.112 347.646a1.5 1.5 0 103 0 1.5 1.5 0 00-3 0zM888.112 347.646a1.5 1.5 0 103 0 1.5 1.5 0 00-3 0zM868.112 347.647a1.5 1.5 0 103.001-.001 1.5 1.5 0 00-3.001.001zM848.112 347.647a1.5 1.5 0 103.001-.001 1.5 1.5 0 00-3.001.001zM828.112 347.647a1.5 1.5 0 103.001-.001 1.5 1.5 0 00-3.001.001zM808.112 347.647a1.5 1.5 0 103.001-.001 1.5 1.5 0 00-3.001.001zM788.112 347.647a1.5 1.5 0 103.001-.001 1.5 1.5 0 00-3.001.001zM768.112 347.647a1.5 1.5 0 103.001-.001 1.5 1.5 0 00-3.001.001zM1048.11 367.646c0 .829.67 1.5 1.5 1.5s1.5-.671 1.5-1.5a1.5 1.5 0 10-3 0zM1028.11 367.646c0 .829.67 1.5 1.5 1.5s1.5-.671 1.5-1.5a1.5 1.5 0 10-3 0zM1008.11 367.646c0 .829.67 1.5 1.5 1.5s1.5-.671 1.5-1.5a1.5 1.5 0 10-3 0zM988.112 367.646a1.5 1.5 0 103 0 1.5 1.5 0 00-3 0zM968.112 367.646a1.5 1.5 0 103 0 1.5 1.5 0 00-3 0zM948.112 367.646a1.5 1.5 0 103 0 1.5 1.5 0 00-3 0zM928.112 367.646a1.5 1.5 0 103 0 1.5 1.5 0 00-3 0zM908.112 367.646a1.5 1.5 0 103 0 1.5 1.5 0 00-3 0zM888.112 367.646a1.5 1.5 0 103 0 1.5 1.5 0 00-3 0zM868.112 367.647a1.5 1.5 0 103.001-.001 1.5 1.5 0 00-3.001.001zM848.112 367.647a1.5 1.5 0 103.001-.001 1.5 1.5 0 00-3.001.001zM828.112 367.647a1.5 1.5 0 103.001-.001 1.5 1.5 0 00-3.001.001zM808.112 367.647a1.5 1.5 0 103.001-.001 1.5 1.5 0 00-3.001.001zM788.112 367.647a1.5 1.5 0 103.001-.001 1.5 1.5 0 00-3.001.001zM768.112 367.647a1.5 1.5 0 103.001-.001 1.5 1.5 0 00-3.001.001zM1048.11 387.646c0 .829.67 1.5 1.5 1.5s1.5-.671 1.5-1.5a1.5 1.5 0 10-3 0zM1028.11 387.646c0 .829.67 1.5 1.5 1.5s1.5-.671 1.5-1.5a1.5 1.5 0 10-3 0zM1008.11 387.646c0 .829.67 1.5 1.5 1.5s1.5-.671 1.5-1.5a1.5 1.5 0 10-3 0zM988.112 387.646a1.5 1.5 0 103 0 1.5 1.5 0 00-3 0zM968.112 387.646a1.5 1.5 0 103 0 1.5 1.5 0 00-3 0zM948.112 387.646a1.5 1.5 0 103 0 1.5 1.5 0 00-3 0zM928.112 387.646a1.5 1.5 0 103 0 1.5 1.5 0 00-3 0zM908.112 387.646a1.5 1.5 0 103 0 1.5 1.5 0 00-3 0zM888.112 387.646a1.5 1.5 0 103 0 1.5 1.5 0 00-3 0zM868.112 387.647a1.5 1.5 0 103.001-.001 1.5 1.5 0 00-3.001.001zM848.112 387.647a1.5 1.5 0 103.001-.001 1.5 1.5 0 00-3.001.001zM828.112 387.647a1.5 1.5 0 103.001-.001 1.5 1.5 0 00-3.001.001zM808.112 387.647a1.5 1.5 0 103.001-.001 1.5 1.5 0 00-3.001.001zM788.112 387.647a1.5 1.5 0 103.001-.001 1.5 1.5 0 00-3.001.001zM768.112 387.647a1.5 1.5 0 103.001-.001 1.5 1.5 0 00-3.001.001zM1048.11 407.646c0 .829.67 1.5 1.5 1.5s1.5-.671 1.5-1.5a1.5 1.5 0 10-3 0zM1028.11 407.646c0 .829.67 1.5 1.5 1.5s1.5-.671 1.5-1.5a1.5 1.5 0 10-3 0zM1008.11 407.646c0 .829.67 1.5 1.5 1.5s1.5-.671 1.5-1.5a1.5 1.5 0 10-3 0zM988.112 407.646a1.5 1.5 0 103 0 1.5 1.5 0 00-3 0zM968.112 407.646a1.5 1.5 0 103 0 1.5 1.5 0 00-3 0zM948.112 407.646a1.5 1.5 0 103 0 1.5 1.5 0 00-3 0zM928.112 407.646a1.5 1.5 0 103 0 1.5 1.5 0 00-3 0zM908.112 407.646a1.5 1.5 0 103 0 1.5 1.5 0 00-3 0zM888.112 407.646a1.5 1.5 0 103 0 1.5 1.5 0 00-3 0zM868.112 407.647a1.5 1.5 0 103.001-.001 1.5 1.5 0 00-3.001.001zM848.112 407.647a1.5 1.5 0 103.001-.001 1.5 1.5 0 00-3.001.001zM828.112 407.647a1.5 1.5 0 103.001-.001 1.5 1.5 0 00-3.001.001zM808.112 407.647a1.5 1.5 0 103.001-.001 1.5 1.5 0 00-3.001.001zM788.112 407.647a1.5 1.5 0 103.001-.001 1.5 1.5 0 00-3.001.001zM768.112 407.647a1.5 1.5 0 103.001-.001 1.5 1.5 0 00-3.001.001zM1048.11 427.646c0 .829.67 1.5 1.5 1.5s1.5-.671 1.5-1.5a1.5 1.5 0 10-3 0zM1028.11 427.646c0 .829.67 1.5 1.5 1.5s1.5-.671 1.5-1.5a1.5 1.5 0 10-3 0zM1008.11 427.646c0 .829.67 1.5 1.5 1.5s1.5-.671 1.5-1.5a1.5 1.5 0 10-3 0zM988.112 427.646a1.5 1.5 0 103 0 1.5 1.5 0 00-3 0zM968.112 427.646a1.5 1.5 0 103 0 1.5 1.5 0 00-3 0zM948.112 427.646a1.5 1.5 0 103 0 1.5 1.5 0 00-3 0zM928.112 427.646a1.5 1.5 0 103 0 1.5 1.5 0 00-3 0zM908.112 427.646a1.5 1.5 0 103 0 1.5 1.5 0 00-3 0zM888.112 427.646a1.5 1.5 0 103 0 1.5 1.5 0 00-3 0zM868.112 427.647a1.5 1.5 0 103.001-.001 1.5 1.5 0 00-3.001.001zM848.112 427.647a1.5 1.5 0 103.001-.001 1.5 1.5 0 00-3.001.001zM828.112 427.647a1.5 1.5 0 103.001-.001 1.5 1.5 0 00-3.001.001zM808.112 427.647a1.5 1.5 0 103.001-.001 1.5 1.5 0 00-3.001.001zM788.112 427.647a1.5 1.5 0 103.001-.001 1.5 1.5 0 00-3.001.001zM768.112 427.647a1.5 1.5 0 103.001-.001 1.5 1.5 0 00-3.001.001zM1048.11 447.646c0 .829.67 1.5 1.5 1.5s1.5-.671 1.5-1.5a1.5 1.5 0 10-3 0zM1028.11 447.646c0 .829.67 1.5 1.5 1.5s1.5-.671 1.5-1.5a1.5 1.5 0 10-3 0zM1008.11 447.646c0 .829.67 1.5 1.5 1.5s1.5-.671 1.5-1.5a1.5 1.5 0 10-3 0zM988.112 447.646a1.5 1.5 0 103 0 1.5 1.5 0 00-3 0zM968.112 447.646a1.5 1.5 0 103 0 1.5 1.5 0 00-3 0zM948.112 447.646a1.5 1.5 0 103 0 1.5 1.5 0 00-3 0zM928.112 447.646a1.5 1.5 0 103 0 1.5 1.5 0 00-3 0zM908.112 447.646a1.5 1.5 0 103 0 1.5 1.5 0 00-3 0zM888.112 447.646a1.5 1.5 0 103 0 1.5 1.5 0 00-3 0zM868.112 447.647a1.5 1.5 0 103.001-.001 1.5 1.5 0 00-3.001.001zM848.112 447.647a1.5 1.5 0 103.001-.001 1.5 1.5 0 00-3.001.001zM828.112 447.647a1.5 1.5 0 103.001-.001 1.5 1.5 0 00-3.001.001zM808.112 447.647a1.5 1.5 0 103.001-.001 1.5 1.5 0 00-3.001.001zM788.112 447.647a1.5 1.5 0 103.001-.001 1.5 1.5 0 00-3.001.001zM768.112 447.647a1.5 1.5 0 103.001-.001 1.5 1.5 0 00-3.001.001zM1048.11 467.646c0 .829.67 1.5 1.5 1.5s1.5-.671 1.5-1.5a1.5 1.5 0 10-3 0zM1028.11 467.646c0 .829.67 1.5 1.5 1.5s1.5-.671 1.5-1.5a1.5 1.5 0 10-3 0zM1008.11 467.646c0 .829.67 1.5 1.5 1.5s1.5-.671 1.5-1.5a1.5 1.5 0 10-3 0zM988.112 467.646a1.5 1.5 0 103 0 1.5 1.5 0 00-3 0zM968.112 467.646a1.5 1.5 0 103 0 1.5 1.5 0 00-3 0zM948.112 467.646a1.5 1.5 0 103 0 1.5 1.5 0 00-3 0zM928.112 467.646a1.5 1.5 0 103 0 1.5 1.5 0 00-3 0zM908.112 467.646a1.5 1.5 0 103 0 1.5 1.5 0 00-3 0zM888.112 467.646a1.5 1.5 0 103 0 1.5 1.5 0 00-3 0zM868.112 467.647a1.5 1.5 0 103.001-.001 1.5 1.5 0 00-3.001.001zM848.112 467.647a1.5 1.5 0 103.001-.001 1.5 1.5 0 00-3.001.001zM828.112 467.647a1.5 1.5 0 103.001-.001 1.5 1.5 0 00-3.001.001zM808.112 467.647a1.5 1.5 0 103.001-.001 1.5 1.5 0 00-3.001.001zM788.112 467.647a1.5 1.5 0 103.001-.001 1.5 1.5 0 00-3.001.001zM768.112 467.647a1.5 1.5 0 103.001-.001 1.5 1.5 0 00-3.001.001zM748.112 247.647a1.5 1.5 0 103.001-.001 1.5 1.5 0 00-3.001.001zM728.112 247.647a1.5 1.5 0 103.001-.001 1.5 1.5 0 00-3.001.001zM708.112 247.647a1.5 1.5 0 103.001-.001 1.5 1.5 0 00-3.001.001zM688.112 247.647a1.5 1.5 0 103.001-.001 1.5 1.5 0 00-3.001.001zM668.112 247.647a1.5 1.5 0 103.001-.001 1.5 1.5 0 00-3.001.001zM648.112 247.647a1.5 1.5 0 103.001-.001 1.5 1.5 0 00-3.001.001zM628.112 247.647a1.5 1.5 0 103.001-.001 1.5 1.5 0 00-3.001.001zM608.112 247.647a1.5 1.5 0 103.001-.001 1.5 1.5 0 00-3.001.001zM588.112 247.647a1.5 1.5 0 103.001-.001 1.5 1.5 0 00-3.001.001zM568.112 247.647a1.5 1.5 0 103.001-.001 1.5 1.5 0 00-3.001.001zM548.112 247.647a1.5 1.5 0 103.001-.001 1.5 1.5 0 00-3.001.001zM528.112 247.647a1.5 1.5 0 103.001-.001 1.5 1.5 0 00-3.001.001zM508.112 247.647a1.5 1.5 0 103.001-.001 1.5 1.5 0 00-3.001.001zM488.112 247.647a1.5 1.5 0 103.001-.001 1.5 1.5 0 00-3.001.001zM468.112 247.647a1.5 1.5 0 103.001-.001 1.5 1.5 0 00-3.001.001zM748.112 267.647a1.5 1.5 0 103.001-.001 1.5 1.5 0 00-3.001.001zM728.112 267.647a1.5 1.5 0 103.001-.001 1.5 1.5 0 00-3.001.001zM708.112 267.647a1.5 1.5 0 103.001-.001 1.5 1.5 0 00-3.001.001zM688.112 267.647a1.5 1.5 0 103.001-.001 1.5 1.5 0 00-3.001.001zM668.112 267.647a1.5 1.5 0 103.001-.001 1.5 1.5 0 00-3.001.001zM648.112 267.647a1.5 1.5 0 103.001-.001 1.5 1.5 0 00-3.001.001zM628.112 267.647a1.5 1.5 0 103.001-.001 1.5 1.5 0 00-3.001.001zM608.112 267.647a1.5 1.5 0 103.001-.001 1.5 1.5 0 00-3.001.001zM588.112 267.647a1.5 1.5 0 103.001-.001 1.5 1.5 0 00-3.001.001zM568.112 267.647a1.5 1.5 0 103.001-.001 1.5 1.5 0 00-3.001.001zM548.112 267.647a1.5 1.5 0 103.001-.001 1.5 1.5 0 00-3.001.001zM528.112 267.647a1.5 1.5 0 103.001-.001 1.5 1.5 0 00-3.001.001zM508.112 267.647a1.5 1.5 0 103.001-.001 1.5 1.5 0 00-3.001.001zM488.112 267.647a1.5 1.5 0 103.001-.001 1.5 1.5 0 00-3.001.001zM468.112 267.647a1.5 1.5 0 103.001-.001 1.5 1.5 0 00-3.001.001zM748.112 287.647a1.5 1.5 0 103.001-.001 1.5 1.5 0 00-3.001.001zM728.112 287.647a1.5 1.5 0 103.001-.001 1.5 1.5 0 00-3.001.001zM708.112 287.647a1.5 1.5 0 103.001-.001 1.5 1.5 0 00-3.001.001zM688.112 287.647a1.5 1.5 0 103.001-.001 1.5 1.5 0 00-3.001.001zM668.112 287.647a1.5 1.5 0 103.001-.001 1.5 1.5 0 00-3.001.001zM648.112 287.647a1.5 1.5 0 103.001-.001 1.5 1.5 0 00-3.001.001zM628.112 287.647a1.5 1.5 0 103.001-.001 1.5 1.5 0 00-3.001.001zM608.112 287.647a1.5 1.5 0 103.001-.001 1.5 1.5 0 00-3.001.001zM588.112 287.647a1.5 1.5 0 103.001-.001 1.5 1.5 0 00-3.001.001zM568.112 287.647a1.5 1.5 0 103.001-.001 1.5 1.5 0 00-3.001.001zM548.112 287.647a1.5 1.5 0 103.001-.001 1.5 1.5 0 00-3.001.001zM528.112 287.647a1.5 1.5 0 103.001-.001 1.5 1.5 0 00-3.001.001zM508.112 287.647a1.5 1.5 0 103.001-.001 1.5 1.5 0 00-3.001.001zM488.112 287.647a1.5 1.5 0 103.001-.001 1.5 1.5 0 00-3.001.001zM468.112 287.647a1.5 1.5 0 103.001-.001 1.5 1.5 0 00-3.001.001zM748.112 307.647a1.5 1.5 0 103.001-.001 1.5 1.5 0 00-3.001.001zM728.112 307.647a1.5 1.5 0 103.001-.001 1.5 1.5 0 00-3.001.001zM708.112 307.647a1.5 1.5 0 103.001-.001 1.5 1.5 0 00-3.001.001zM688.112 307.647a1.5 1.5 0 103.001-.001 1.5 1.5 0 00-3.001.001zM668.112 307.647a1.5 1.5 0 103.001-.001 1.5 1.5 0 00-3.001.001zM648.112 307.647a1.5 1.5 0 103.001-.001 1.5 1.5 0 00-3.001.001zM628.112 307.647a1.5 1.5 0 103.001-.001 1.5 1.5 0 00-3.001.001zM608.112 307.647a1.5 1.5 0 103.001-.001 1.5 1.5 0 00-3.001.001zM588.112 307.647a1.5 1.5 0 103.001-.001 1.5 1.5 0 00-3.001.001zM568.112 307.647a1.5 1.5 0 103.001-.001 1.5 1.5 0 00-3.001.001zM548.112 307.647a1.5 1.5 0 103.001-.001 1.5 1.5 0 00-3.001.001zM528.112 307.647a1.5 1.5 0 103.001-.001 1.5 1.5 0 00-3.001.001zM508.112 307.647a1.5 1.5 0 103.001-.001 1.5 1.5 0 00-3.001.001zM488.112 307.647a1.5 1.5 0 103.001-.001 1.5 1.5 0 00-3.001.001zM468.112 307.647a1.5 1.5 0 103.001-.001 1.5 1.5 0 00-3.001.001zM748.112 327.647a1.5 1.5 0 103.001-.001 1.5 1.5 0 00-3.001.001zM728.112 327.647a1.5 1.5 0 103.001-.001 1.5 1.5 0 00-3.001.001zM708.112 327.647a1.5 1.5 0 103.001-.001 1.5 1.5 0 00-3.001.001zM688.112 327.647a1.5 1.5 0 103.001-.001 1.5 1.5 0 00-3.001.001zM668.112 327.647a1.5 1.5 0 103.001-.001 1.5 1.5 0 00-3.001.001zM648.112 327.647a1.5 1.5 0 103.001-.001 1.5 1.5 0 00-3.001.001zM628.112 327.647a1.5 1.5 0 103.001-.001 1.5 1.5 0 00-3.001.001zM608.112 327.647a1.5 1.5 0 103.001-.001 1.5 1.5 0 00-3.001.001zM588.112 327.647a1.5 1.5 0 103.001-.001 1.5 1.5 0 00-3.001.001zM568.112 327.647a1.5 1.5 0 103.001-.001 1.5 1.5 0 00-3.001.001zM548.112 327.647a1.5 1.5 0 103.001-.001 1.5 1.5 0 00-3.001.001zM528.112 327.647a1.5 1.5 0 103.001-.001 1.5 1.5 0 00-3.001.001zM508.112 327.647a1.5 1.5 0 103.001-.001 1.5 1.5 0 00-3.001.001zM488.112 327.647a1.5 1.5 0 103.001-.001 1.5 1.5 0 00-3.001.001zM468.112 327.647a1.5 1.5 0 103.001-.001 1.5 1.5 0 00-3.001.001zM748.112 347.647a1.5 1.5 0 103.001-.001 1.5 1.5 0 00-3.001.001zM728.112 347.647a1.5 1.5 0 103.001-.001 1.5 1.5 0 00-3.001.001zM708.112 347.647a1.5 1.5 0 103.001-.001 1.5 1.5 0 00-3.001.001zM688.112 347.647a1.5 1.5 0 103.001-.001 1.5 1.5 0 00-3.001.001zM668.112 347.647a1.5 1.5 0 103.001-.001 1.5 1.5 0 00-3.001.001zM648.112 347.647a1.5 1.5 0 103.001-.001 1.5 1.5 0 00-3.001.001zM628.112 347.647a1.5 1.5 0 103.001-.001 1.5 1.5 0 00-3.001.001zM608.112 347.647a1.5 1.5 0 103.001-.001 1.5 1.5 0 00-3.001.001zM588.112 347.647a1.5 1.5 0 103.001-.001 1.5 1.5 0 00-3.001.001zM568.112 347.647a1.5 1.5 0 103.001-.001 1.5 1.5 0 00-3.001.001zM548.112 347.647a1.5 1.5 0 103.001-.001 1.5 1.5 0 00-3.001.001zM528.112 347.647a1.5 1.5 0 103.001-.001 1.5 1.5 0 00-3.001.001zM508.112 347.647a1.5 1.5 0 103.001-.001 1.5 1.5 0 00-3.001.001zM488.112 347.647a1.5 1.5 0 103.001-.001 1.5 1.5 0 00-3.001.001zM468.112 347.647a1.5 1.5 0 103.001-.001 1.5 1.5 0 00-3.001.001zM748.112 367.647a1.5 1.5 0 103.001-.001 1.5 1.5 0 00-3.001.001zM728.112 367.647a1.5 1.5 0 103.001-.001 1.5 1.5 0 00-3.001.001zM708.112 367.647a1.5 1.5 0 103.001-.001 1.5 1.5 0 00-3.001.001zM688.112 367.647a1.5 1.5 0 103.001-.001 1.5 1.5 0 00-3.001.001zM668.112 367.647a1.5 1.5 0 103.001-.001 1.5 1.5 0 00-3.001.001zM648.112 367.647a1.5 1.5 0 103.001-.001 1.5 1.5 0 00-3.001.001zM628.112 367.647a1.5 1.5 0 103.001-.001 1.5 1.5 0 00-3.001.001zM608.112 367.647a1.5 1.5 0 103.001-.001 1.5 1.5 0 00-3.001.001zM588.112 367.647a1.5 1.5 0 103.001-.001 1.5 1.5 0 00-3.001.001zM568.112 367.647a1.5 1.5 0 103.001-.001 1.5 1.5 0 00-3.001.001zM548.112 367.647a1.5 1.5 0 103.001-.001 1.5 1.5 0 00-3.001.001zM528.112 367.647a1.5 1.5 0 103.001-.001 1.5 1.5 0 00-3.001.001zM508.112 367.647a1.5 1.5 0 103.001-.001 1.5 1.5 0 00-3.001.001zM488.112 367.647a1.5 1.5 0 103.001-.001 1.5 1.5 0 00-3.001.001zM468.112 367.647a1.5 1.5 0 103.001-.001 1.5 1.5 0 00-3.001.001zM748.112 387.647a1.5 1.5 0 103.001-.001 1.5 1.5 0 00-3.001.001zM728.112 387.647a1.5 1.5 0 103.001-.001 1.5 1.5 0 00-3.001.001zM708.112 387.647a1.5 1.5 0 103.001-.001 1.5 1.5 0 00-3.001.001zM688.112 387.647a1.5 1.5 0 103.001-.001 1.5 1.5 0 00-3.001.001zM668.112 387.647a1.5 1.5 0 103.001-.001 1.5 1.5 0 00-3.001.001zM648.112 387.647a1.5 1.5 0 103.001-.001 1.5 1.5 0 00-3.001.001zM628.112 387.647a1.5 1.5 0 103.001-.001 1.5 1.5 0 00-3.001.001zM608.112 387.647a1.5 1.5 0 103.001-.001 1.5 1.5 0 00-3.001.001zM588.112 387.647a1.5 1.5 0 103.001-.001 1.5 1.5 0 00-3.001.001zM568.112 387.647a1.5 1.5 0 103.001-.001 1.5 1.5 0 00-3.001.001zM548.112 387.647a1.5 1.5 0 103.001-.001 1.5 1.5 0 00-3.001.001zM528.112 387.647a1.5 1.5 0 103.001-.001 1.5 1.5 0 00-3.001.001zM508.112 387.647a1.5 1.5 0 103.001-.001 1.5 1.5 0 00-3.001.001zM488.112 387.647a1.5 1.5 0 103.001-.001 1.5 1.5 0 00-3.001.001zM468.112 387.647a1.5 1.5 0 103.001-.001 1.5 1.5 0 00-3.001.001zM748.112 407.647a1.5 1.5 0 103.001-.001 1.5 1.5 0 00-3.001.001zM728.112 407.647a1.5 1.5 0 103.001-.001 1.5 1.5 0 00-3.001.001zM708.112 407.647a1.5 1.5 0 103.001-.001 1.5 1.5 0 00-3.001.001zM688.112 407.647a1.5 1.5 0 103.001-.001 1.5 1.5 0 00-3.001.001zM668.112 407.647a1.5 1.5 0 103.001-.001 1.5 1.5 0 00-3.001.001zM648.112 407.647a1.5 1.5 0 103.001-.001 1.5 1.5 0 00-3.001.001zM628.112 407.647a1.5 1.5 0 103.001-.001 1.5 1.5 0 00-3.001.001zM608.112 407.647a1.5 1.5 0 103.001-.001 1.5 1.5 0 00-3.001.001zM588.112 407.647a1.5 1.5 0 103.001-.001 1.5 1.5 0 00-3.001.001zM568.112 407.647a1.5 1.5 0 103.001-.001 1.5 1.5 0 00-3.001.001zM548.112 407.647a1.5 1.5 0 103.001-.001 1.5 1.5 0 00-3.001.001zM528.112 407.647a1.5 1.5 0 103.001-.001 1.5 1.5 0 00-3.001.001zM508.112 407.647a1.5 1.5 0 103.001-.001 1.5 1.5 0 00-3.001.001zM488.112 407.647a1.5 1.5 0 103.001-.001 1.5 1.5 0 00-3.001.001zM468.112 407.647a1.5 1.5 0 103.001-.001 1.5 1.5 0 00-3.001.001zM748.112 427.647a1.5 1.5 0 103.001-.001 1.5 1.5 0 00-3.001.001zM728.112 427.647a1.5 1.5 0 103.001-.001 1.5 1.5 0 00-3.001.001zM708.112 427.647a1.5 1.5 0 103.001-.001 1.5 1.5 0 00-3.001.001zM688.112 427.647a1.5 1.5 0 103.001-.001 1.5 1.5 0 00-3.001.001zM668.112 427.647a1.5 1.5 0 103.001-.001 1.5 1.5 0 00-3.001.001zM648.112 427.647a1.5 1.5 0 103.001-.001 1.5 1.5 0 00-3.001.001zM628.112 427.647a1.5 1.5 0 103.001-.001 1.5 1.5 0 00-3.001.001zM608.112 427.647a1.5 1.5 0 103.001-.001 1.5 1.5 0 00-3.001.001zM588.112 427.647a1.5 1.5 0 103.001-.001 1.5 1.5 0 00-3.001.001zM568.112 427.647a1.5 1.5 0 103.001-.001 1.5 1.5 0 00-3.001.001zM548.112 427.647a1.5 1.5 0 103.001-.001 1.5 1.5 0 00-3.001.001zM528.112 427.647a1.5 1.5 0 103.001-.001 1.5 1.5 0 00-3.001.001zM508.112 427.647a1.5 1.5 0 103.001-.001 1.5 1.5 0 00-3.001.001zM488.112 427.647a1.5 1.5 0 103.001-.001 1.5 1.5 0 00-3.001.001zM468.112 427.647a1.5 1.5 0 103.001-.001 1.5 1.5 0 00-3.001.001zM748.112 447.647a1.5 1.5 0 103.001-.001 1.5 1.5 0 00-3.001.001zM728.112 447.647a1.5 1.5 0 103.001-.001 1.5 1.5 0 00-3.001.001zM708.112 447.647a1.5 1.5 0 103.001-.001 1.5 1.5 0 00-3.001.001zM688.112 447.647a1.5 1.5 0 103.001-.001 1.5 1.5 0 00-3.001.001zM668.112 447.647a1.5 1.5 0 103.001-.001 1.5 1.5 0 00-3.001.001zM648.112 447.647a1.5 1.5 0 103.001-.001 1.5 1.5 0 00-3.001.001zM628.112 447.647a1.5 1.5 0 103.001-.001 1.5 1.5 0 00-3.001.001zM608.112 447.647a1.5 1.5 0 103.001-.001 1.5 1.5 0 00-3.001.001zM588.112 447.647a1.5 1.5 0 103.001-.001 1.5 1.5 0 00-3.001.001zM568.112 447.647a1.5 1.5 0 103.001-.001 1.5 1.5 0 00-3.001.001zM548.112 447.647a1.5 1.5 0 103.001-.001 1.5 1.5 0 00-3.001.001zM528.112 447.647a1.5 1.5 0 103.001-.001 1.5 1.5 0 00-3.001.001zM508.112 447.647a1.5 1.5 0 103.001-.001 1.5 1.5 0 00-3.001.001zM488.112 447.647a1.5 1.5 0 103.001-.001 1.5 1.5 0 00-3.001.001zM468.112 447.647a1.5 1.5 0 103.001-.001 1.5 1.5 0 00-3.001.001zM748.112 467.647a1.5 1.5 0 103.001-.001 1.5 1.5 0 00-3.001.001zM728.112 467.647a1.5 1.5 0 103.001-.001 1.5 1.5 0 00-3.001.001zM708.112 467.647a1.5 1.5 0 103.001-.001 1.5 1.5 0 00-3.001.001zM688.112 467.647a1.5 1.5 0 103.001-.001 1.5 1.5 0 00-3.001.001zM668.112 467.647a1.5 1.5 0 103.001-.001 1.5 1.5 0 00-3.001.001zM648.112 467.647a1.5 1.5 0 103.001-.001 1.5 1.5 0 00-3.001.001zM628.112 467.647a1.5 1.5 0 103.001-.001 1.5 1.5 0 00-3.001.001zM608.112 467.647a1.5 1.5 0 103.001-.001 1.5 1.5 0 00-3.001.001zM588.112 467.647a1.5 1.5 0 103.001-.001 1.5 1.5 0 00-3.001.001zM568.112 467.647a1.5 1.5 0 103.001-.001 1.5 1.5 0 00-3.001.001zM548.112 467.647a1.5 1.5 0 103.001-.001 1.5 1.5 0 00-3.001.001zM528.112 467.647a1.5 1.5 0 103.001-.001 1.5 1.5 0 00-3.001.001zM508.112 467.647a1.5 1.5 0 103.001-.001 1.5 1.5 0 00-3.001.001zM488.112 467.647a1.5 1.5 0 103.001-.001 1.5 1.5 0 00-3.001.001zM468.112 467.647a1.5 1.5 0 103.001-.001 1.5 1.5 0 00-3.001.001zM448.112 247.647a1.5 1.5 0 103.001-.001 1.5 1.5 0 00-3.001.001zM428.112 247.647a1.5 1.5 0 103.001-.001 1.5 1.5 0 00-3.001.001zM408.112 247.647a1.5 1.5 0 103.001-.001 1.5 1.5 0 00-3.001.001zM388.112 247.647a1.5 1.5 0 103.001-.001 1.5 1.5 0 00-3.001.001zM368.112 247.647a1.5 1.5 0 103.001-.001 1.5 1.5 0 00-3.001.001zM348.112 247.647a1.5 1.5 0 103.001-.001 1.5 1.5 0 00-3.001.001zM328.112 247.647a1.5 1.5 0 103.001-.001 1.5 1.5 0 00-3.001.001zM308.112 247.647a1.5 1.5 0 103.001-.001 1.5 1.5 0 00-3.001.001zM288.112 247.647a1.5 1.5 0 103.001-.001 1.5 1.5 0 00-3.001.001zM268.112 247.647a1.5 1.5 0 103.001-.001 1.5 1.5 0 00-3.001.001zM248.112 247.647a1.5 1.5 0 103.001-.001 1.5 1.5 0 00-3.001.001zM228.112 247.647a1.5 1.5 0 103.001-.001 1.5 1.5 0 00-3.001.001zM208.112 247.647a1.5 1.5 0 103.001-.001 1.5 1.5 0 00-3.001.001zM188.112 247.647a1.5 1.5 0 103.001-.001 1.5 1.5 0 00-3.001.001zM168.112 247.647a1.5 1.5 0 103.001-.001 1.5 1.5 0 00-3.001.001zM448.112 267.647a1.5 1.5 0 103.001-.001 1.5 1.5 0 00-3.001.001zM428.112 267.647a1.5 1.5 0 103.001-.001 1.5 1.5 0 00-3.001.001zM408.112 267.647a1.5 1.5 0 103.001-.001 1.5 1.5 0 00-3.001.001zM388.112 267.647a1.5 1.5 0 103.001-.001 1.5 1.5 0 00-3.001.001zM368.112 267.647a1.5 1.5 0 103.001-.001 1.5 1.5 0 00-3.001.001zM348.112 267.647a1.5 1.5 0 103.001-.001 1.5 1.5 0 00-3.001.001zM328.112 267.647a1.5 1.5 0 103.001-.001 1.5 1.5 0 00-3.001.001zM308.112 267.647a1.5 1.5 0 103.001-.001 1.5 1.5 0 00-3.001.001zM288.112 267.647a1.5 1.5 0 103.001-.001 1.5 1.5 0 00-3.001.001zM268.112 267.647a1.5 1.5 0 103.001-.001 1.5 1.5 0 00-3.001.001zM248.112 267.647a1.5 1.5 0 103.001-.001 1.5 1.5 0 00-3.001.001zM228.112 267.647a1.5 1.5 0 103.001-.001 1.5 1.5 0 00-3.001.001zM208.112 267.647a1.5 1.5 0 103.001-.001 1.5 1.5 0 00-3.001.001zM188.112 267.647a1.5 1.5 0 103.001-.001 1.5 1.5 0 00-3.001.001zM168.112 267.647a1.5 1.5 0 103.001-.001 1.5 1.5 0 00-3.001.001zM448.112 287.647a1.5 1.5 0 103.001-.001 1.5 1.5 0 00-3.001.001zM428.112 287.647a1.5 1.5 0 103.001-.001 1.5 1.5 0 00-3.001.001zM408.112 287.647a1.5 1.5 0 103.001-.001 1.5 1.5 0 00-3.001.001zM388.112 287.647a1.5 1.5 0 103.001-.001 1.5 1.5 0 00-3.001.001zM368.112 287.647a1.5 1.5 0 103.001-.001 1.5 1.5 0 00-3.001.001zM348.112 287.647a1.5 1.5 0 103.001-.001 1.5 1.5 0 00-3.001.001zM328.112 287.647a1.5 1.5 0 103.001-.001 1.5 1.5 0 00-3.001.001zM308.112 287.647a1.5 1.5 0 103.001-.001 1.5 1.5 0 00-3.001.001zM288.112 287.647a1.5 1.5 0 103.001-.001 1.5 1.5 0 00-3.001.001zM268.112 287.647a1.5 1.5 0 103.001-.001 1.5 1.5 0 00-3.001.001zM248.112 287.647a1.5 1.5 0 103.001-.001 1.5 1.5 0 00-3.001.001zM228.112 287.647a1.5 1.5 0 103.001-.001 1.5 1.5 0 00-3.001.001zM208.112 287.647a1.5 1.5 0 103.001-.001 1.5 1.5 0 00-3.001.001zM188.112 287.647a1.5 1.5 0 103.001-.001 1.5 1.5 0 00-3.001.001zM168.112 287.647a1.5 1.5 0 103.001-.001 1.5 1.5 0 00-3.001.001zM448.112 307.647a1.5 1.5 0 103.001-.001 1.5 1.5 0 00-3.001.001zM428.112 307.647a1.5 1.5 0 103.001-.001 1.5 1.5 0 00-3.001.001zM408.112 307.647a1.5 1.5 0 103.001-.001 1.5 1.5 0 00-3.001.001zM388.112 307.647a1.5 1.5 0 103.001-.001 1.5 1.5 0 00-3.001.001zM368.112 307.647a1.5 1.5 0 103.001-.001 1.5 1.5 0 00-3.001.001zM348.112 307.647a1.5 1.5 0 103.001-.001 1.5 1.5 0 00-3.001.001zM328.112 307.647a1.5 1.5 0 103.001-.001 1.5 1.5 0 00-3.001.001zM308.112 307.647a1.5 1.5 0 103.001-.001 1.5 1.5 0 00-3.001.001zM288.112 307.647a1.5 1.5 0 103.001-.001 1.5 1.5 0 00-3.001.001zM268.112 307.647a1.5 1.5 0 103.001-.001 1.5 1.5 0 00-3.001.001zM248.112 307.647a1.5 1.5 0 103.001-.001 1.5 1.5 0 00-3.001.001zM228.112 307.647a1.5 1.5 0 103.001-.001 1.5 1.5 0 00-3.001.001zM208.112 307.647a1.5 1.5 0 103.001-.001 1.5 1.5 0 00-3.001.001zM188.112 307.647a1.5 1.5 0 103.001-.001 1.5 1.5 0 00-3.001.001zM168.112 307.647a1.5 1.5 0 103.001-.001 1.5 1.5 0 00-3.001.001zM448.112 327.647a1.5 1.5 0 103.001-.001 1.5 1.5 0 00-3.001.001zM428.112 327.647a1.5 1.5 0 103.001-.001 1.5 1.5 0 00-3.001.001zM408.112 327.647a1.5 1.5 0 103.001-.001 1.5 1.5 0 00-3.001.001zM388.112 327.647a1.5 1.5 0 103.001-.001 1.5 1.5 0 00-3.001.001zM368.112 327.647a1.5 1.5 0 103.001-.001 1.5 1.5 0 00-3.001.001zM348.112 327.647a1.5 1.5 0 103.001-.001 1.5 1.5 0 00-3.001.001zM328.112 327.647a1.5 1.5 0 103.001-.001 1.5 1.5 0 00-3.001.001zM308.112 327.647a1.5 1.5 0 103.001-.001 1.5 1.5 0 00-3.001.001zM288.112 327.647a1.5 1.5 0 103.001-.001 1.5 1.5 0 00-3.001.001zM268.112 327.647a1.5 1.5 0 103.001-.001 1.5 1.5 0 00-3.001.001zM248.112 327.647a1.5 1.5 0 103.001-.001 1.5 1.5 0 00-3.001.001zM228.112 327.647a1.5 1.5 0 103.001-.001 1.5 1.5 0 00-3.001.001zM208.112 327.647a1.5 1.5 0 103.001-.001 1.5 1.5 0 00-3.001.001zM188.112 327.647a1.5 1.5 0 103.001-.001 1.5 1.5 0 00-3.001.001zM168.112 327.647a1.5 1.5 0 103.001-.001 1.5 1.5 0 00-3.001.001zM448.112 347.647a1.5 1.5 0 103.001-.001 1.5 1.5 0 00-3.001.001zM428.112 347.647a1.5 1.5 0 103.001-.001 1.5 1.5 0 00-3.001.001zM408.112 347.647a1.5 1.5 0 103.001-.001 1.5 1.5 0 00-3.001.001zM388.112 347.647a1.5 1.5 0 103.001-.001 1.5 1.5 0 00-3.001.001zM368.112 347.647a1.5 1.5 0 103.001-.001 1.5 1.5 0 00-3.001.001zM348.112 347.647a1.5 1.5 0 103.001-.001 1.5 1.5 0 00-3.001.001zM328.112 347.647a1.5 1.5 0 103.001-.001 1.5 1.5 0 00-3.001.001zM308.112 347.647a1.5 1.5 0 103.001-.001 1.5 1.5 0 00-3.001.001zM288.112 347.647a1.5 1.5 0 103.001-.001 1.5 1.5 0 00-3.001.001zM268.112 347.647a1.5 1.5 0 103.001-.001 1.5 1.5 0 00-3.001.001zM248.112 347.647a1.5 1.5 0 103.001-.001 1.5 1.5 0 00-3.001.001zM228.112 347.647a1.5 1.5 0 103.001-.001 1.5 1.5 0 00-3.001.001zM208.112 347.647a1.5 1.5 0 103.001-.001 1.5 1.5 0 00-3.001.001zM188.112 347.647a1.5 1.5 0 103.001-.001 1.5 1.5 0 00-3.001.001zM168.112 347.647a1.5 1.5 0 103.001-.001 1.5 1.5 0 00-3.001.001zM448.112 367.647a1.5 1.5 0 103.001-.001 1.5 1.5 0 00-3.001.001zM428.112 367.647a1.5 1.5 0 103.001-.001 1.5 1.5 0 00-3.001.001zM408.112 367.647a1.5 1.5 0 103.001-.001 1.5 1.5 0 00-3.001.001zM388.112 367.647a1.5 1.5 0 103.001-.001 1.5 1.5 0 00-3.001.001zM368.112 367.647a1.5 1.5 0 103.001-.001 1.5 1.5 0 00-3.001.001zM348.112 367.647a1.5 1.5 0 103.001-.001 1.5 1.5 0 00-3.001.001zM328.112 367.647a1.5 1.5 0 103.001-.001 1.5 1.5 0 00-3.001.001zM308.112 367.647a1.5 1.5 0 103.001-.001 1.5 1.5 0 00-3.001.001zM288.112 367.647a1.5 1.5 0 103.001-.001 1.5 1.5 0 00-3.001.001zM268.112 367.647a1.5 1.5 0 103.001-.001 1.5 1.5 0 00-3.001.001zM248.112 367.647a1.5 1.5 0 103.001-.001 1.5 1.5 0 00-3.001.001zM228.112 367.647a1.5 1.5 0 103.001-.001 1.5 1.5 0 00-3.001.001zM208.112 367.647a1.5 1.5 0 103.001-.001 1.5 1.5 0 00-3.001.001zM188.112 367.647a1.5 1.5 0 103.001-.001 1.5 1.5 0 00-3.001.001zM168.112 367.647a1.5 1.5 0 103.001-.001 1.5 1.5 0 00-3.001.001zM448.112 387.647a1.5 1.5 0 103.001-.001 1.5 1.5 0 00-3.001.001zM428.112 387.647a1.5 1.5 0 103.001-.001 1.5 1.5 0 00-3.001.001zM408.112 387.647a1.5 1.5 0 103.001-.001 1.5 1.5 0 00-3.001.001zM388.112 387.647a1.5 1.5 0 103.001-.001 1.5 1.5 0 00-3.001.001zM368.112 387.647a1.5 1.5 0 103.001-.001 1.5 1.5 0 00-3.001.001zM348.112 387.647a1.5 1.5 0 103.001-.001 1.5 1.5 0 00-3.001.001zM328.112 387.647a1.5 1.5 0 103.001-.001 1.5 1.5 0 00-3.001.001zM308.112 387.647a1.5 1.5 0 103.001-.001 1.5 1.5 0 00-3.001.001zM288.112 387.647a1.5 1.5 0 103.001-.001 1.5 1.5 0 00-3.001.001zM268.112 387.647a1.5 1.5 0 103.001-.001 1.5 1.5 0 00-3.001.001zM248.112 387.647a1.5 1.5 0 103.001-.001 1.5 1.5 0 00-3.001.001zM228.112 387.647a1.5 1.5 0 103.001-.001 1.5 1.5 0 00-3.001.001zM208.112 387.647a1.5 1.5 0 103.001-.001 1.5 1.5 0 00-3.001.001zM188.112 387.647a1.5 1.5 0 103.001-.001 1.5 1.5 0 00-3.001.001zM168.112 387.647a1.5 1.5 0 103.001-.001 1.5 1.5 0 00-3.001.001zM448.112 407.647a1.5 1.5 0 103.001-.001 1.5 1.5 0 00-3.001.001zM428.112 407.647a1.5 1.5 0 103.001-.001 1.5 1.5 0 00-3.001.001zM408.112 407.647a1.5 1.5 0 103.001-.001 1.5 1.5 0 00-3.001.001zM388.112 407.647a1.5 1.5 0 103.001-.001 1.5 1.5 0 00-3.001.001zM368.112 407.647a1.5 1.5 0 103.001-.001 1.5 1.5 0 00-3.001.001zM348.112 407.647a1.5 1.5 0 103.001-.001 1.5 1.5 0 00-3.001.001zM328.112 407.647a1.5 1.5 0 103.001-.001 1.5 1.5 0 00-3.001.001zM308.112 407.647a1.5 1.5 0 103.001-.001 1.5 1.5 0 00-3.001.001zM288.112 407.647a1.5 1.5 0 103.001-.001 1.5 1.5 0 00-3.001.001zM268.112 407.647a1.5 1.5 0 103.001-.001 1.5 1.5 0 00-3.001.001zM248.112 407.647a1.5 1.5 0 103.001-.001 1.5 1.5 0 00-3.001.001zM228.112 407.647a1.5 1.5 0 103.001-.001 1.5 1.5 0 00-3.001.001zM208.112 407.647a1.5 1.5 0 103.001-.001 1.5 1.5 0 00-3.001.001zM188.112 407.647a1.5 1.5 0 103.001-.001 1.5 1.5 0 00-3.001.001zM168.112 407.647a1.5 1.5 0 103.001-.001 1.5 1.5 0 00-3.001.001zM448.112 427.647a1.5 1.5 0 103.001-.001 1.5 1.5 0 00-3.001.001zM428.112 427.647a1.5 1.5 0 103.001-.001 1.5 1.5 0 00-3.001.001zM408.112 427.647a1.5 1.5 0 103.001-.001 1.5 1.5 0 00-3.001.001zM388.112 427.647a1.5 1.5 0 103.001-.001 1.5 1.5 0 00-3.001.001zM368.112 427.647a1.5 1.5 0 103.001-.001 1.5 1.5 0 00-3.001.001zM348.112 427.647a1.5 1.5 0 103.001-.001 1.5 1.5 0 00-3.001.001zM328.112 427.647a1.5 1.5 0 103.001-.001 1.5 1.5 0 00-3.001.001zM308.112 427.647a1.5 1.5 0 103.001-.001 1.5 1.5 0 00-3.001.001zM288.112 427.647a1.5 1.5 0 103.001-.001 1.5 1.5 0 00-3.001.001zM268.112 427.647a1.5 1.5 0 103.001-.001 1.5 1.5 0 00-3.001.001zM248.112 427.647a1.5 1.5 0 103.001-.001 1.5 1.5 0 00-3.001.001zM228.112 427.647a1.5 1.5 0 103.001-.001 1.5 1.5 0 00-3.001.001zM208.112 427.647a1.5 1.5 0 103.001-.001 1.5 1.5 0 00-3.001.001zM188.112 427.647a1.5 1.5 0 103.001-.001 1.5 1.5 0 00-3.001.001zM168.112 427.647a1.5 1.5 0 103.001-.001 1.5 1.5 0 00-3.001.001zM448.112 447.647a1.5 1.5 0 103.001-.001 1.5 1.5 0 00-3.001.001zM428.112 447.647a1.5 1.5 0 103.001-.001 1.5 1.5 0 00-3.001.001zM408.112 447.647a1.5 1.5 0 103.001-.001 1.5 1.5 0 00-3.001.001zM388.112 447.647a1.5 1.5 0 103.001-.001 1.5 1.5 0 00-3.001.001zM368.112 447.647a1.5 1.5 0 103.001-.001 1.5 1.5 0 00-3.001.001zM348.112 447.647a1.5 1.5 0 103.001-.001 1.5 1.5 0 00-3.001.001zM328.112 447.647a1.5 1.5 0 103.001-.001 1.5 1.5 0 00-3.001.001zM308.112 447.647a1.5 1.5 0 103.001-.001 1.5 1.5 0 00-3.001.001zM288.112 447.647a1.5 1.5 0 103.001-.001 1.5 1.5 0 00-3.001.001zM268.112 447.647a1.5 1.5 0 103.001-.001 1.5 1.5 0 00-3.001.001zM248.112 447.647a1.5 1.5 0 103.001-.001 1.5 1.5 0 00-3.001.001zM228.112 447.647a1.5 1.5 0 103.001-.001 1.5 1.5 0 00-3.001.001zM208.112 447.647a1.5 1.5 0 103.001-.001 1.5 1.5 0 00-3.001.001zM188.112 447.647a1.5 1.5 0 103.001-.001 1.5 1.5 0 00-3.001.001zM168.112 447.647a1.5 1.5 0 103.001-.001 1.5 1.5 0 00-3.001.001zM448.112 467.647a1.5 1.5 0 103.001-.001 1.5 1.5 0 00-3.001.001zM428.112 467.647a1.5 1.5 0 103.001-.001 1.5 1.5 0 00-3.001.001zM408.112 467.647a1.5 1.5 0 103.001-.001 1.5 1.5 0 00-3.001.001zM388.112 467.647a1.5 1.5 0 103.001-.001 1.5 1.5 0 00-3.001.001zM368.112 467.647a1.5 1.5 0 103.001-.001 1.5 1.5 0 00-3.001.001zM348.112 467.647a1.5 1.5 0 103.001-.001 1.5 1.5 0 00-3.001.001zM328.112 467.647a1.5 1.5 0 103.001-.001 1.5 1.5 0 00-3.001.001zM308.112 467.647a1.5 1.5 0 103.001-.001 1.5 1.5 0 00-3.001.001zM288.112 467.647a1.5 1.5 0 103.001-.001 1.5 1.5 0 00-3.001.001zM268.112 467.647a1.5 1.5 0 103.001-.001 1.5 1.5 0 00-3.001.001zM248.112 467.647a1.5 1.5 0 103.001-.001 1.5 1.5 0 00-3.001.001zM228.112 467.647a1.5 1.5 0 103.001-.001 1.5 1.5 0 00-3.001.001zM208.112 467.647a1.5 1.5 0 103.001-.001 1.5 1.5 0 00-3.001.001zM188.112 467.647a1.5 1.5 0 103.001-.001 1.5 1.5 0 00-3.001.001zM168.112 467.647a1.5 1.5 0 103.001-.001 1.5 1.5 0 00-3.001.001zM148.112 247.647a1.5 1.5 0 103.001-.001 1.5 1.5 0 00-3.001.001zM128.112 247.647a1.5 1.5 0 103.001-.001 1.5 1.5 0 00-3.001.001zM108.112 247.647a1.5 1.5 0 103.001-.001 1.5 1.5 0 00-3.001.001zM88.112 247.647a1.5 1.5 0 103 0 1.5 1.5 0 00-3 0zM68.112 247.647a1.5 1.5 0 103 0 1.5 1.5 0 00-3 0zM48.112 247.647a1.5 1.5 0 103 0 1.5 1.5 0 00-3 0zM28.112 247.647a1.5 1.5 0 103 0 1.5 1.5 0 00-3 0zM8.112 247.647a1.5 1.5 0 103.001 0 1.5 1.5 0 00-3 0zM148.112 267.647a1.5 1.5 0 103.001-.001 1.5 1.5 0 00-3.001.001zM128.112 267.647a1.5 1.5 0 103.001-.001 1.5 1.5 0 00-3.001.001zM108.112 267.647a1.5 1.5 0 103.001-.001 1.5 1.5 0 00-3.001.001zM88.112 267.647a1.5 1.5 0 103 0 1.5 1.5 0 00-3 0zM68.112 267.647a1.5 1.5 0 103 0 1.5 1.5 0 00-3 0zM48.112 267.647a1.5 1.5 0 103 0 1.5 1.5 0 00-3 0zM28.112 267.647a1.5 1.5 0 103 0 1.5 1.5 0 00-3 0zM8.112 267.647a1.5 1.5 0 103.001 0 1.5 1.5 0 00-3 0zM148.112 287.647a1.5 1.5 0 103.001-.001 1.5 1.5 0 00-3.001.001zM128.112 287.647a1.5 1.5 0 103.001-.001 1.5 1.5 0 00-3.001.001zM108.112 287.647a1.5 1.5 0 103.001-.001 1.5 1.5 0 00-3.001.001zM88.112 287.647a1.5 1.5 0 103 0 1.5 1.5 0 00-3 0zM68.112 287.647a1.5 1.5 0 103 0 1.5 1.5 0 00-3 0zM48.112 287.647a1.5 1.5 0 103 0 1.5 1.5 0 00-3 0zM28.112 287.647a1.5 1.5 0 103 0 1.5 1.5 0 00-3 0zM8.112 287.647a1.5 1.5 0 103.001 0 1.5 1.5 0 00-3 0zM148.112 307.647a1.5 1.5 0 103.001-.001 1.5 1.5 0 00-3.001.001zM128.112 307.647a1.5 1.5 0 103.001-.001 1.5 1.5 0 00-3.001.001zM108.112 307.647a1.5 1.5 0 103.001-.001 1.5 1.5 0 00-3.001.001zM88.112 307.647a1.5 1.5 0 103 0 1.5 1.5 0 00-3 0zM68.112 307.647a1.5 1.5 0 103 0 1.5 1.5 0 00-3 0zM48.112 307.647a1.5 1.5 0 103 0 1.5 1.5 0 00-3 0zM28.112 307.647a1.5 1.5 0 103 0 1.5 1.5 0 00-3 0zM8.112 307.647a1.5 1.5 0 103.001 0 1.5 1.5 0 00-3 0zM148.112 327.647a1.5 1.5 0 103.001-.001 1.5 1.5 0 00-3.001.001zM128.112 327.647a1.5 1.5 0 103.001-.001 1.5 1.5 0 00-3.001.001zM108.112 327.647a1.5 1.5 0 103.001-.001 1.5 1.5 0 00-3.001.001zM88.112 327.647a1.5 1.5 0 103 0 1.5 1.5 0 00-3 0zM68.112 327.647a1.5 1.5 0 103 0 1.5 1.5 0 00-3 0zM48.112 327.647a1.5 1.5 0 103 0 1.5 1.5 0 00-3 0zM28.112 327.647a1.5 1.5 0 103 0 1.5 1.5 0 00-3 0zM8.112 327.647a1.5 1.5 0 103.001 0 1.5 1.5 0 00-3 0zM148.112 347.647a1.5 1.5 0 103.001-.001 1.5 1.5 0 00-3.001.001zM128.112 347.647a1.5 1.5 0 103.001-.001 1.5 1.5 0 00-3.001.001zM108.112 347.647a1.5 1.5 0 103.001-.001 1.5 1.5 0 00-3.001.001zM88.112 347.647a1.5 1.5 0 103 0 1.5 1.5 0 00-3 0zM68.112 347.647a1.5 1.5 0 103 0 1.5 1.5 0 00-3 0zM48.112 347.647a1.5 1.5 0 103 0 1.5 1.5 0 00-3 0zM28.112 347.647a1.5 1.5 0 103 0 1.5 1.5 0 00-3 0zM8.112 347.647a1.5 1.5 0 103.001 0 1.5 1.5 0 00-3 0zM148.112 367.647a1.5 1.5 0 103.001-.001 1.5 1.5 0 00-3.001.001zM128.112 367.647a1.5 1.5 0 103.001-.001 1.5 1.5 0 00-3.001.001zM108.112 367.647a1.5 1.5 0 103.001-.001 1.5 1.5 0 00-3.001.001zM88.112 367.647a1.5 1.5 0 103 0 1.5 1.5 0 00-3 0zM68.112 367.647a1.5 1.5 0 103 0 1.5 1.5 0 00-3 0zM48.112 367.647a1.5 1.5 0 103 0 1.5 1.5 0 00-3 0zM28.112 367.647a1.5 1.5 0 103 0 1.5 1.5 0 00-3 0zM8.112 367.647a1.5 1.5 0 103.001 0 1.5 1.5 0 00-3 0zM148.112 387.647a1.5 1.5 0 103.001-.001 1.5 1.5 0 00-3.001.001zM128.112 387.647a1.5 1.5 0 103.001-.001 1.5 1.5 0 00-3.001.001zM108.112 387.647a1.5 1.5 0 103.001-.001 1.5 1.5 0 00-3.001.001zM88.112 387.647a1.5 1.5 0 103 0 1.5 1.5 0 00-3 0zM68.112 387.647a1.5 1.5 0 103 0 1.5 1.5 0 00-3 0zM48.112 387.647a1.5 1.5 0 103 0 1.5 1.5 0 00-3 0zM28.112 387.647a1.5 1.5 0 103 0 1.5 1.5 0 00-3 0zM8.112 387.647a1.5 1.5 0 103.001 0 1.5 1.5 0 00-3 0zM148.112 407.647a1.5 1.5 0 103.001-.001 1.5 1.5 0 00-3.001.001zM128.112 407.647a1.5 1.5 0 103.001-.001 1.5 1.5 0 00-3.001.001zM108.112 407.647a1.5 1.5 0 103.001-.001 1.5 1.5 0 00-3.001.001zM88.112 407.647a1.5 1.5 0 103 0 1.5 1.5 0 00-3 0zM68.112 407.647a1.5 1.5 0 103 0 1.5 1.5 0 00-3 0zM48.112 407.647a1.5 1.5 0 103 0 1.5 1.5 0 00-3 0zM28.112 407.647a1.5 1.5 0 103 0 1.5 1.5 0 00-3 0zM8.112 407.647a1.5 1.5 0 103.001 0 1.5 1.5 0 00-3 0zM148.112 427.647a1.5 1.5 0 103.001-.001 1.5 1.5 0 00-3.001.001zM128.112 427.647a1.5 1.5 0 103.001-.001 1.5 1.5 0 00-3.001.001zM108.112 427.647a1.5 1.5 0 103.001-.001 1.5 1.5 0 00-3.001.001zM88.112 427.647a1.5 1.5 0 103 0 1.5 1.5 0 00-3 0zM68.112 427.647a1.5 1.5 0 103 0 1.5 1.5 0 00-3 0zM48.112 427.647a1.5 1.5 0 103 0 1.5 1.5 0 00-3 0zM28.112 427.647a1.5 1.5 0 103 0 1.5 1.5 0 00-3 0zM8.112 427.647a1.5 1.5 0 103.001 0 1.5 1.5 0 00-3 0zM148.112 447.647a1.5 1.5 0 103.001-.001 1.5 1.5 0 00-3.001.001zM128.112 447.647a1.5 1.5 0 103.001-.001 1.5 1.5 0 00-3.001.001zM108.112 447.647a1.5 1.5 0 103.001-.001 1.5 1.5 0 00-3.001.001zM88.112 447.647a1.5 1.5 0 103 0 1.5 1.5 0 00-3 0zM68.112 447.647a1.5 1.5 0 103 0 1.5 1.5 0 00-3 0zM48.112 447.647a1.5 1.5 0 103 0 1.5 1.5 0 00-3 0zM28.112 447.647a1.5 1.5 0 103 0 1.5 1.5 0 00-3 0zM8.112 447.647a1.5 1.5 0 103.001 0 1.5 1.5 0 00-3 0zM148.112 467.647a1.5 1.5 0 103.001-.001 1.5 1.5 0 00-3.001.001zM128.112 467.647a1.5 1.5 0 103.001-.001 1.5 1.5 0 00-3.001.001zM108.112 467.647a1.5 1.5 0 103.001-.001 1.5 1.5 0 00-3.001.001zM88.112 467.647a1.5 1.5 0 103 0 1.5 1.5 0 00-3 0zM68.112 467.647a1.5 1.5 0 103 0 1.5 1.5 0 00-3 0zM48.112 467.647a1.5 1.5 0 103 0 1.5 1.5 0 00-3 0zM28.112 467.647a1.5 1.5 0 103 0 1.5 1.5 0 00-3 0zM8.112 467.647a1.5 1.5 0 103.001 0 1.5 1.5 0 00-3 0zM1048.11 487.646c0 .829.67 1.5 1.5 1.5s1.5-.671 1.5-1.5a1.5 1.5 0 10-3 0zM1028.11 487.646c0 .829.67 1.5 1.5 1.5s1.5-.671 1.5-1.5a1.5 1.5 0 10-3 0zM1008.11 487.646c0 .829.67 1.5 1.5 1.5s1.5-.671 1.5-1.5a1.5 1.5 0 10-3 0zM988.112 487.646a1.5 1.5 0 103 0 1.5 1.5 0 00-3 0zM968.112 487.646a1.5 1.5 0 103 0 1.5 1.5 0 00-3 0zM948.112 487.646a1.5 1.5 0 103 0 1.5 1.5 0 00-3 0zM928.112 487.646a1.5 1.5 0 103 0 1.5 1.5 0 00-3 0zM908.112 487.646a1.5 1.5 0 103 0 1.5 1.5 0 00-3 0zM888.112 487.646a1.5 1.5 0 103 0 1.5 1.5 0 00-3 0zM868.112 487.647a1.5 1.5 0 103.001-.001 1.5 1.5 0 00-3.001.001zM848.112 487.647a1.5 1.5 0 103.001-.001 1.5 1.5 0 00-3.001.001zM828.112 487.647a1.5 1.5 0 103.001-.001 1.5 1.5 0 00-3.001.001zM808.112 487.647a1.5 1.5 0 103.001-.001 1.5 1.5 0 00-3.001.001zM788.112 487.647a1.5 1.5 0 103.001-.001 1.5 1.5 0 00-3.001.001zM768.112 487.647a1.5 1.5 0 103.001-.001 1.5 1.5 0 00-3.001.001zM1048.11 507.646c0 .829.67 1.5 1.5 1.5s1.5-.671 1.5-1.5a1.5 1.5 0 10-3 0zM1028.11 507.646c0 .829.67 1.5 1.5 1.5s1.5-.671 1.5-1.5a1.5 1.5 0 10-3 0zM1008.11 507.646c0 .829.67 1.5 1.5 1.5s1.5-.671 1.5-1.5a1.5 1.5 0 10-3 0zM988.112 507.646a1.5 1.5 0 103 0 1.5 1.5 0 00-3 0zM968.112 507.646a1.5 1.5 0 103 0 1.5 1.5 0 00-3 0zM948.112 507.646a1.5 1.5 0 103 0 1.5 1.5 0 00-3 0zM928.112 507.646a1.5 1.5 0 103 0 1.5 1.5 0 00-3 0zM908.112 507.646a1.5 1.5 0 103 0 1.5 1.5 0 00-3 0zM888.112 507.646a1.5 1.5 0 103 0 1.5 1.5 0 00-3 0zM868.112 507.647a1.5 1.5 0 103.001-.001 1.5 1.5 0 00-3.001.001zM848.112 507.647a1.5 1.5 0 103.001-.001 1.5 1.5 0 00-3.001.001zM828.112 507.647a1.5 1.5 0 103.001-.001 1.5 1.5 0 00-3.001.001zM808.112 507.647a1.5 1.5 0 103.001-.001 1.5 1.5 0 00-3.001.001zM788.112 507.647a1.5 1.5 0 103.001-.001 1.5 1.5 0 00-3.001.001zM768.112 507.647a1.5 1.5 0 103.001-.001 1.5 1.5 0 00-3.001.001zM748.112 487.647a1.5 1.5 0 103.001-.001 1.5 1.5 0 00-3.001.001zM728.112 487.647a1.5 1.5 0 103.001-.001 1.5 1.5 0 00-3.001.001zM708.112 487.647a1.5 1.5 0 103.001-.001 1.5 1.5 0 00-3.001.001zM688.112 487.647a1.5 1.5 0 103.001-.001 1.5 1.5 0 00-3.001.001zM668.112 487.647a1.5 1.5 0 103.001-.001 1.5 1.5 0 00-3.001.001zM648.112 487.647a1.5 1.5 0 103.001-.001 1.5 1.5 0 00-3.001.001zM628.112 487.647a1.5 1.5 0 103.001-.001 1.5 1.5 0 00-3.001.001zM608.112 487.647a1.5 1.5 0 103.001-.001 1.5 1.5 0 00-3.001.001zM588.112 487.647a1.5 1.5 0 103.001-.001 1.5 1.5 0 00-3.001.001zM568.112 487.647a1.5 1.5 0 103.001-.001 1.5 1.5 0 00-3.001.001zM548.112 487.647a1.5 1.5 0 103.001-.001 1.5 1.5 0 00-3.001.001zM528.112 487.647a1.5 1.5 0 103.001-.001 1.5 1.5 0 00-3.001.001zM508.112 487.647a1.5 1.5 0 103.001-.001 1.5 1.5 0 00-3.001.001zM488.112 487.647a1.5 1.5 0 103.001-.001 1.5 1.5 0 00-3.001.001zM468.112 487.647a1.5 1.5 0 103.001-.001 1.5 1.5 0 00-3.001.001zM748.112 507.647a1.5 1.5 0 103.001-.001 1.5 1.5 0 00-3.001.001zM728.112 507.647a1.5 1.5 0 103.001-.001 1.5 1.5 0 00-3.001.001zM708.112 507.647a1.5 1.5 0 103.001-.001 1.5 1.5 0 00-3.001.001zM688.112 507.647a1.5 1.5 0 103.001-.001 1.5 1.5 0 00-3.001.001zM668.112 507.647a1.5 1.5 0 103.001-.001 1.5 1.5 0 00-3.001.001zM648.112 507.647a1.5 1.5 0 103.001-.001 1.5 1.5 0 00-3.001.001zM628.112 507.647a1.5 1.5 0 103.001-.001 1.5 1.5 0 00-3.001.001zM608.112 507.647a1.5 1.5 0 103.001-.001 1.5 1.5 0 00-3.001.001zM588.112 507.647a1.5 1.5 0 103.001-.001 1.5 1.5 0 00-3.001.001zM568.112 507.647a1.5 1.5 0 103.001-.001 1.5 1.5 0 00-3.001.001zM548.112 507.647a1.5 1.5 0 103.001-.001 1.5 1.5 0 00-3.001.001zM528.112 507.647a1.5 1.5 0 103.001-.001 1.5 1.5 0 00-3.001.001zM508.112 507.647a1.5 1.5 0 103.001-.001 1.5 1.5 0 00-3.001.001zM488.112 507.647a1.5 1.5 0 103.001-.001 1.5 1.5 0 00-3.001.001zM468.112 507.647a1.5 1.5 0 103.001-.001 1.5 1.5 0 00-3.001.001zM448.112 487.647a1.5 1.5 0 103.001-.001 1.5 1.5 0 00-3.001.001zM428.112 487.647a1.5 1.5 0 103.001-.001 1.5 1.5 0 00-3.001.001zM408.112 487.647a1.5 1.5 0 103.001-.001 1.5 1.5 0 00-3.001.001zM388.112 487.647a1.5 1.5 0 103.001-.001 1.5 1.5 0 00-3.001.001zM368.112 487.647a1.5 1.5 0 103.001-.001 1.5 1.5 0 00-3.001.001zM348.112 487.647a1.5 1.5 0 103.001-.001 1.5 1.5 0 00-3.001.001zM328.112 487.647a1.5 1.5 0 103.001-.001 1.5 1.5 0 00-3.001.001zM308.112 487.647a1.5 1.5 0 103.001-.001 1.5 1.5 0 00-3.001.001zM288.112 487.647a1.5 1.5 0 103.001-.001 1.5 1.5 0 00-3.001.001zM268.112 487.647a1.5 1.5 0 103.001-.001 1.5 1.5 0 00-3.001.001zM248.112 487.647a1.5 1.5 0 103.001-.001 1.5 1.5 0 00-3.001.001zM228.112 487.647a1.5 1.5 0 103.001-.001 1.5 1.5 0 00-3.001.001zM208.112 487.647a1.5 1.5 0 103.001-.001 1.5 1.5 0 00-3.001.001zM188.112 487.647a1.5 1.5 0 103.001-.001 1.5 1.5 0 00-3.001.001zM168.112 487.647a1.5 1.5 0 103.001-.001 1.5 1.5 0 00-3.001.001zM448.112 507.647a1.5 1.5 0 103.001-.001 1.5 1.5 0 00-3.001.001zM428.112 507.647a1.5 1.5 0 103.001-.001 1.5 1.5 0 00-3.001.001zM408.112 507.647a1.5 1.5 0 103.001-.001 1.5 1.5 0 00-3.001.001zM388.112 507.647a1.5 1.5 0 103.001-.001 1.5 1.5 0 00-3.001.001zM368.112 507.647a1.5 1.5 0 103.001-.001 1.5 1.5 0 00-3.001.001zM348.112 507.647a1.5 1.5 0 103.001-.001 1.5 1.5 0 00-3.001.001zM328.112 507.647a1.5 1.5 0 103.001-.001 1.5 1.5 0 00-3.001.001zM308.112 507.647a1.5 1.5 0 103.001-.001 1.5 1.5 0 00-3.001.001zM288.112 507.647a1.5 1.5 0 103.001-.001 1.5 1.5 0 00-3.001.001zM268.112 507.647a1.5 1.5 0 103.001-.001 1.5 1.5 0 00-3.001.001zM248.112 507.647a1.5 1.5 0 103.001-.001 1.5 1.5 0 00-3.001.001zM228.112 507.647a1.5 1.5 0 103.001-.001 1.5 1.5 0 00-3.001.001zM208.112 507.647a1.5 1.5 0 103.001-.001 1.5 1.5 0 00-3.001.001zM188.112 507.647a1.5 1.5 0 103.001-.001 1.5 1.5 0 00-3.001.001zM168.112 507.647a1.5 1.5 0 103.001-.001 1.5 1.5 0 00-3.001.001zM148.112 487.647a1.5 1.5 0 103.001-.001 1.5 1.5 0 00-3.001.001zM128.112 487.647a1.5 1.5 0 103.001-.001 1.5 1.5 0 00-3.001.001zM108.112 487.647a1.5 1.5 0 103.001-.001 1.5 1.5 0 00-3.001.001zM88.112 487.647a1.5 1.5 0 103 0 1.5 1.5 0 00-3 0zM68.112 487.647a1.5 1.5 0 103 0 1.5 1.5 0 00-3 0zM48.112 487.647a1.5 1.5 0 103 0 1.5 1.5 0 00-3 0zM28.112 487.647a1.5 1.5 0 103 0 1.5 1.5 0 00-3 0zM8.112 487.647a1.5 1.5 0 103.001 0 1.5 1.5 0 00-3 0zM148.112 507.647a1.5 1.5 0 103.001-.001 1.5 1.5 0 00-3.001.001zM128.112 507.647a1.5 1.5 0 103.001-.001 1.5 1.5 0 00-3.001.001zM108.112 507.647a1.5 1.5 0 103.001-.001 1.5 1.5 0 00-3.001.001zM88.112 507.647a1.5 1.5 0 103 0 1.5 1.5 0 00-3 0zM68.112 507.647a1.5 1.5 0 103 0 1.5 1.5 0 00-3 0zM48.112 507.647a1.5 1.5 0 103 0 1.5 1.5 0 00-3 0zM28.112 507.647a1.5 1.5 0 103 0 1.5 1.5 0 00-3 0zM8.112 507.647a1.5 1.5 0 103.001 0 1.5 1.5 0 00-3 0z"/></g><defs><linearGradient id="paint0_linear" x1="1016.64" y1="0" x2="-46.381" y2="83.064" gradientUnits="userSpaceOnUse"><stop stop-color="#49CCF9"/><stop offset="1" stop-color="#8930FD"/></linearGradient><linearGradient id="paint1_linear" x1="1016.64" y1="0" x2="-46.381" y2="83.064" gradientUnits="userSpaceOnUse"><stop stop-color="#49CCF9"/><stop offset="1" stop-color="#8930FD"/></linearGradient><linearGradient id="paint2_linear" x1="1016.64" y1="0" x2="-46.381" y2="83.064" gradientUnits="userSpaceOnUse"><stop stop-color="#49CCF9"/><stop offset="1" stop-color="#8930FD"/></linearGradient><linearGradient id="paint3_linear" x1="1016.64" y1="0" x2="-46.381" y2="83.064" gradientUnits="userSpaceOnUse"><stop stop-color="#49CCF9"/><stop offset="1" stop-color="#8930FD"/></linearGradient><linearGradient id="paint4_linear" x1="1016.64" y1="0" x2="-46.381" y2="83.064" gradientUnits="userSpaceOnUse"><stop stop-color="#49CCF9"/><stop offset="1" stop-color="#8930FD"/></linearGradient></defs></svg>