<svg width="18" height="16" viewBox="0 0 18 16" fill="none" xmlns="http://www.w3.org/2000/svg">
<mask id="path-1-inside-1" fill="white">
<path fill-rule="evenodd" clip-rule="evenodd" d="M3 1C3 0.447715 3.44772 0 4 0H17C17.5523 0 18 0.447715 18 1C18 1.55228 17.5523 2 17 2H4C3.44772 2 3 1.55228 3 1ZM7 15C7 14.4477 7.44772 14 8 14H17C17.5523 14 18 14.4477 18 15C18 15.5523 17.5523 16 17 16H8C7.44771 16 7 15.5523 7 15ZM1 7C0.447715 7 0 7.44772 0 8C0 8.55228 0.447716 9 1 9H17C17.5523 9 18 8.55228 18 8C18 7.44772 17.5523 7 17 7H1Z"/>
</mask>
<path fill-rule="evenodd" clip-rule="evenodd" d="M3 1C3 0.447715 3.44772 0 4 0H17C17.5523 0 18 0.447715 18 1C18 1.55228 17.5523 2 17 2H4C3.44772 2 3 1.55228 3 1ZM7 15C7 14.4477 7.44772 14 8 14H17C17.5523 14 18 14.4477 18 15C18 15.5523 17.5523 16 17 16H8C7.44771 16 7 15.5523 7 15ZM1 7C0.447715 7 0 7.44772 0 8C0 8.55228 0.447716 9 1 9H17C17.5523 9 18 8.55228 18 8C18 7.44772 17.5523 7 17 7H1Z" fill="white"/>
<path d="M4 -1C2.89543 -1 2 -0.10457 2 1H4V-1ZM17 -1H4V1H17V-1ZM19 1C19 -0.10457 18.1046 -1 17 -1V1H19ZM17 3C18.1046 3 19 2.10457 19 1H17V3ZM4 3H17V1H4V3ZM2 1C2 2.10457 2.89543 3 4 3V1H2ZM8 13C6.89543 13 6 13.8954 6 15H8V13ZM17 13H8V15H17V13ZM19 15C19 13.8954 18.1046 13 17 13V15H19ZM17 17C18.1046 17 19 16.1046 19 15H17V17ZM8 17H17V15H8V17ZM6 15C6 16.1046 6.89543 17 8 17V15H8H6ZM1 8V6C-0.104569 6 -1 6.89543 -1 8H1ZM1 8H1H-1C-1 9.10457 -0.104569 10 1 10V8ZM17 8H1V10H17V8ZM17 8V10C18.1046 10 19 9.10457 19 8H17ZM17 8H19C19 6.89543 18.1046 6 17 6V8ZM1 8H17V6H1V8Z" fill="black" mask="url(#path-1-inside-1)"/>
</svg>
