<svg xmlns="http://www.w3.org/2000/svg" xmlns:xlink="http://www.w3.org/1999/xlink" width="100" height="100" viewBox="0 0 100 100"><g><g transform="translate(50 50) scale(0.69 0.69) rotate(0) translate(-50 -50)" style="fill:#ef4136;"><svg fill="#ef4136" xmlns="http://www.w3.org/2000/svg" xmlns:xlink="http://www.w3.org/1999/xlink" version="1.1" x="0px" y="0px" viewBox="0 0 50 50" enable-background="new 0 0 50 50" xml:space="preserve"><g><path fill-rule="evenodd" clip-rule="evenodd" d="M39.158,19.572l5.258-5.257c3.645,6.61,3.643,14.776-0.007,21.384l-5.256-5.256   C40.49,26.972,40.493,23.043,39.158,19.572 M5.584,14.314l5.258,5.257c-1.332,3.466-1.332,7.39,0,10.856l-5.258,5.257   C1.941,29.08,1.941,20.92,5.584,14.314z M30.428,10.841c-3.471-1.334-7.4-1.332-10.87,0.005l-5.256-5.256   c6.607-3.65,14.774-3.652,21.384-0.007L30.428,10.841z M30.428,39.158l5.257,5.258c-6.605,3.642-14.767,3.642-21.371,0l5.257-5.257   C23.037,40.491,26.961,40.49,30.428,39.158z M25,12.679c6.813,0,12.321,5.508,12.321,12.321c0,6.813-5.508,12.321-12.321,12.321   S12.679,31.813,12.679,25C12.679,18.187,18.187,12.679,25,12.679z M50,25C50,11.194,38.806,0,25,0S0,11.194,0,25s11.194,25,25,25   S50,38.806,50,25z"></path></g></svg></g></g></svg>