<svg width="37" height="39" viewBox="0 0 37 39" fill="none" xmlns="http://www.w3.org/2000/svg">
<g clip-path="url(#clip0)">
<path d="M35.9519 18.6916L20.4732 3.41857L18.973 1.93945L1.99535 18.6916C1.44035 19.2407 1.44035 20.1296 1.99535 20.6776L12.6405 31.1809L18.973 37.4308L35.9519 20.6776C36.5073 20.1296 36.5073 19.2407 35.9519 18.6916ZM18.973 24.931L13.6564 19.6853L18.973 14.4378L24.2909 19.6853L18.973 24.931Z" fill="#E0E4EC"/>
<path d="M18.973 14.4378C15.4922 11.0017 15.4744 5.4367 18.936 1.98047L7.29883 13.4585L13.6329 19.7085L18.973 14.4378Z" fill="url(#paint0_linear)"/>
<path d="M24.3058 19.6699L18.9731 24.9305C20.6537 26.5872 21.5988 28.8359 21.5988 31.1804C21.5988 33.525 20.6537 35.7722 18.9731 37.4303L30.6383 25.9198L24.3058 19.6699Z" fill="url(#paint1_linear)"/>
<path d="M36.1481 18.9797L20.1307 2.96234L18.5784 1.41113L1.00984 18.9797C0.435524 19.5556 0.435524 20.4878 1.00984 21.0625L12.0254 32.0777L18.5784 38.6322L36.1481 21.0625C36.7228 20.4878 36.7228 19.5556 36.1481 18.9797ZM18.5784 25.5232L13.0766 20.0219L18.5784 14.5186L24.0813 20.0219L18.5784 25.5232Z" fill="#2684FF"/>
<path d="M18.5785 14.5185C14.9766 10.915 14.9582 5.07877 18.5402 1.4541L6.49805 13.4916L13.0526 20.0461L18.5785 14.5185Z" fill="url(#paint2_linear)"/>
<path d="M24.0963 20.0059L18.5781 25.5228C20.3171 27.2602 21.2952 29.6185 21.2952 32.0774C21.2952 34.5362 20.3171 36.8929 18.5781 38.6319L30.6492 26.5604L24.0963 20.0059Z" fill="url(#paint3_linear)"/>
</g>
<defs>
<linearGradient id="paint0_linear" x1="16.6877" y1="10.4492" x2="10.6799" y2="16.5363" gradientUnits="userSpaceOnUse">
<stop stop-color="#B9BEC7"/>
<stop offset="1" stop-color="#E0E4EC"/>
</linearGradient>
<linearGradient id="paint1_linear" x1="21.3243" y1="28.8622" x2="27.3201" y2="22.7857" gradientUnits="userSpaceOnUse">
<stop stop-color="#B9BEC7"/>
<stop offset="1" stop-color="#E0E4EC"/>
</linearGradient>
<linearGradient id="paint2_linear" x1="16.2136" y1="10.3355" x2="9.91248" y2="16.6351" gradientUnits="userSpaceOnUse">
<stop stop-color="#0052CC"/>
<stop offset="1" stop-color="#2684FF"/>
</linearGradient>
<linearGradient id="paint3_linear" x1="21.0111" y1="29.6461" x2="27.2996" y2="23.3576" gradientUnits="userSpaceOnUse">
<stop stop-color="#0052CC"/>
<stop offset="1" stop-color="#2684FF"/>
</linearGradient>
<clipPath id="clip0">
<rect x="0.5" y="0.847656" width="36" height="37.6744" fill="white"/>
</clipPath>
</defs>
</svg>
