<?xml version="1.0" encoding="UTF-8"?>
<svg width="1000px" height="343px" viewBox="0 0 1000 343" version="1.1" xmlns="http://www.w3.org/2000/svg" xmlns:xlink="http://www.w3.org/1999/xlink">
    <defs>
        <polygon id="path-1" points="290.130793 0.306 0.06 0.306 0.06 342.94 290.130793 342.94"></polygon>
    </defs>
    <g id="Page-1" stroke="none" stroke-width="1" fill="none" fill-rule="evenodd">
        <g id="podio_logo">
            <g id="Group-3">
                <mask id="mask-2" fill="white">
                    <use xlink:href="#path-1"></use>
                </mask>
                <g id="Clip-2"></g>
                <path d="M249.074,42.982 C192.393,-13.696 100.291,-13.924 43.318,42.329 L42.651,42.995 C-14.232,99.908 -14.213,192.492 42.684,249.383 L130.568,337.251 C134.406,341.089 139.431,343 144.456,343 C149.48,343 154.518,341.089 158.353,337.251 C166.015,329.579 166.015,317.136 158.353,309.467 L70.455,221.592 C29.003,180.146 28.87,112.763 70.069,71.143 L70.471,70.75 C112.062,29.185 179.722,29.198 221.287,70.763 C255.418,104.897 260.317,163.309 232.659,206.653 C226.826,215.792 229.513,227.939 238.652,233.774 C247.813,239.626 259.944,236.927 265.773,227.791 C303.726,168.321 296.7,90.605 249.074,42.982 M213.904,253.889 C221.57,261.562 221.58,274.004 213.904,281.667 C210.08,285.511 205.048,287.432 200.027,287.432 C194.992,287.432 189.958,285.511 186.117,281.677 L98.236,193.811 C71.983,167.549 71.983,124.81 98.236,98.544 C110.958,85.834 127.87,78.828 145.858,78.828 L145.878,78.828 C163.863,78.828 180.777,85.844 193.49,98.573 C211.006,116.089 217.491,141.73 210.395,165.506 C207.271,175.903 196.347,181.822 185.947,178.711 C175.55,175.61 169.631,164.663 172.729,154.26 C175.698,144.352 173.005,133.65 165.703,126.351 C160.402,121.043 153.366,118.122 145.868,118.119 L145.858,118.119 C138.36,118.119 131.324,121.036 126.02,126.331 C115.079,137.272 115.079,155.08 126.02,166.024 L213.904,253.889" id="Fill-1" fill="#5188AC" mask="url(#mask-2)"></path>
            </g>
            <path d="M452.956,130.786 C452.956,120.56 449.987,112.706 444.054,107.228 C438.117,101.749 429.762,99.009 418.989,99.009 L387.486,99.009 L387.486,167.768 L415.976,167.768 C427.297,167.768 436.29,164.481 442.959,157.906 C449.623,151.331 452.956,142.292 452.956,130.786 Z M483.09,130.512 C483.09,150.235 477.29,165.576 465.695,176.534 C454.096,187.491 438.165,192.969 417.893,192.969 L387.486,192.969 L387.486,268.302 L357.353,268.302 L357.353,73.808 L418.441,73.808 C439.988,73.808 456.15,78.602 466.928,88.189 C477.701,97.777 483.09,111.884 483.09,130.512 L483.09,130.512 Z" id="Fill-4" fill="#484A49"></path>
            <path d="M563.077,246.935 C575.493,246.935 585.17,242.28 592.113,232.965 C599.051,223.65 602.522,210.228 602.522,192.696 C602.522,174.984 599.143,161.467 592.387,152.153 C585.628,142.839 575.859,138.183 563.077,138.183 C550.292,138.183 540.519,142.796 533.766,152.017 C527.006,161.24 523.631,174.8 523.631,192.696 C523.631,209.864 527.054,223.197 533.903,232.692 C540.75,242.188 550.475,246.935 563.077,246.935 Z M563.077,271.043 C540.977,271.043 523.858,264.104 511.714,250.223 C499.567,236.346 493.497,217.171 493.497,192.696 C493.497,168.042 499.613,148.776 511.852,134.895 C524.083,121.018 541.162,114.076 563.077,114.076 C584.991,114.076 602.065,121.018 614.302,134.895 C626.535,148.776 632.657,168.042 632.657,192.696 C632.657,217.534 626.535,236.8 614.302,250.496 C602.065,264.194 584.991,271.043 563.077,271.043 L563.077,271.043 Z" id="Fill-5" fill="#484A49"></path>
            <path d="M677.582,194.065 C677.582,211.966 680.5,225.295 686.348,234.061 C692.19,242.827 701.23,247.21 713.467,247.21 C719.494,247.21 725.838,245.886 732.506,243.237 C739.17,240.592 744.695,237.443 749.08,233.787 L749.08,147.497 C737.205,140.922 726.158,137.635 715.934,137.635 C708.627,137.635 702.005,139.92 696.071,144.483 C690.136,149.05 685.568,155.624 682.375,164.206 C679.179,172.793 677.582,182.745 677.582,194.065 Z M647.997,194.613 C647.997,178.361 650.642,164.163 655.941,152.017 C661.235,139.873 668.721,130.512 678.403,123.938 C688.082,117.364 699.039,114.076 711.276,114.076 C725.153,114.076 737.752,117.364 749.08,123.938 L749.08,57.919 L777.568,57.919 L777.568,268.302 L755.379,268.302 L750.722,255.428 C737.39,265.838 722.781,271.043 706.893,271.043 C686.985,271.043 672.192,264.7 662.515,252.003 C652.834,239.312 647.997,220.183 647.997,194.613 L647.997,194.613 Z" id="Fill-6" fill="#484A49"></path>
            <path d="M808.247,268.302 L836.737,268.302 L836.737,116.816 L808.247,116.816 L808.247,268.302 Z M805.782,75.177 C805.782,70.614 807.424,66.642 810.713,63.261 C813.999,59.884 817.924,58.193 822.492,58.193 C827.054,58.193 830.983,59.837 834.271,63.124 C837.559,66.411 839.201,70.43 839.201,75.177 C839.201,79.744 837.601,83.626 834.408,86.819 C831.21,90.017 827.239,91.613 822.492,91.613 C817.924,91.613 813.999,89.97 810.713,86.683 C807.424,83.396 805.782,79.56 805.782,75.177 L805.782,75.177 Z" id="Fill-7" fill="#484A49"></path>
            <path d="M930.419,246.935 C942.838,246.935 952.515,242.28 959.457,232.965 C966.396,223.65 969.867,210.228 969.867,192.696 C969.867,174.984 966.486,161.467 959.732,152.153 C952.973,142.839 943.202,138.183 930.419,138.183 C917.635,138.183 907.862,142.796 901.109,152.017 C894.349,161.24 890.974,174.8 890.974,192.696 C890.974,209.864 894.397,223.197 901.246,232.692 C908.095,242.188 917.818,246.935 930.419,246.935 Z M930.419,271.043 C908.322,271.043 891.201,264.104 879.057,250.223 C866.91,236.346 860.841,217.171 860.841,192.696 C860.841,168.042 866.957,148.776 879.194,134.895 C891.427,121.018 908.505,114.076 930.419,114.076 C952.336,114.076 969.409,121.018 981.646,134.895 C993.88,148.776 1000,168.042 1000,192.696 C1000,217.534 993.88,236.8 981.646,250.496 C969.409,264.194 952.336,271.043 930.419,271.043 L930.419,271.043 Z" id="Fill-8" fill="#484A49"></path>
        </g>
    </g>
</svg>