<svg width="24" height="19" viewBox="0 0 24 19" fill="none" xmlns="http://www.w3.org/2000/svg">
<path d="M17.05 7.61979C14.3138 7.61979 12.1 9.81048 12.1 12.5182C12.1 15.226 14.3138 17.4167 17.05 17.4167C19.7863 17.4167 22 15.226 22 12.5182C22 9.81048 19.7863 7.61979 17.05 7.61979ZM19.25 12.7325C19.25 12.9128 19.0987 13.0625 18.9166 13.0625H16.8334C16.6513 13.0625 16.5 12.9128 16.5 12.7325V10.1268C16.5 9.94655 16.6513 9.79688 16.8334 9.79688H17.2666C17.4487 9.79688 17.6 9.94655 17.6 10.1268V11.974H18.9166C19.0987 11.974 19.25 12.1236 19.25 12.3039V12.7325ZM11 12.5182C11 11.5726 11.2303 10.6779 11.6256 9.88192C11.3506 9.83089 11.0688 9.79688 10.78 9.79688H10.2059C9.44281 10.1438 8.59375 10.3411 7.7 10.3411C6.80625 10.3411 5.96063 10.1438 5.19406 9.79688H4.62C2.06938 9.79688 0 11.8447 0 14.3688V15.7839C0 16.6853 0.739062 17.4167 1.65 17.4167H13.5816C12.0244 16.3315 11 14.5422 11 12.5182ZM7.7 8.70833C10.1303 8.70833 12.1 6.75916 12.1 4.35417C12.1 1.94917 10.1303 0 7.7 0C5.26969 0 3.3 1.94917 3.3 4.35417C3.3 6.75916 5.26969 8.70833 7.7 8.70833Z" fill="#ef4136"/>
</svg>
