<svg width="22" height="23" viewBox="0 0 22 23" fill="none" xmlns="http://www.w3.org/2000/svg">
<path d="M21.3125 11.5C21.3125 5.65625 16.5 0.84375 10.6562 0.84375C4.76953 0.84375 0 5.65625 0 11.5C0 17.3867 4.76953 22.1562 10.6562 22.1562C16.5 22.1562 21.3125 17.3867 21.3125 11.5ZM9.41016 17.1719C9.15234 17.4297 8.67969 17.4297 8.42188 17.1719L3.95312 12.7031C3.69531 12.4453 3.69531 11.9727 3.95312 11.7148L4.94141 10.7695C5.19922 10.4688 5.62891 10.4688 5.88672 10.7695L8.9375 13.7773L15.3828 7.33203C15.6406 7.03125 16.0703 7.03125 16.3281 7.33203L17.3164 8.27734C17.5742 8.53516 17.5742 9.00781 17.3164 9.26562L9.41016 17.1719Z" fill="#49CCF9"/>
</svg>
