<svg width="205" height="205" xmlns="http://www.w3.org/2000/svg" xmlns:xlink="http://www.w3.org/1999/xlink"><defs><circle id="a" cx="102.5" cy="102.5" r="102.5"/></defs><g fill="none" fill-rule="evenodd"><mask id="b" fill="#fff"><use xlink:href="#a"/></mask><use fill="#FFF" xlink:href="#a"/><g mask="url(#b)" fill-rule="nonzero"><path d="M73.54 68.794c3.235-.917 6.624.917 7.703 3.973l6.315 19.1c.154.305.462.61.924.457.308-.152.616-.458.462-.916l-10.32-30.56c-.924-3.055.154-6.417 3.08-7.945 3.698-1.833 7.857 0 9.089 3.668l9.242 27.808c.154.306.462.611.924.459.308-.153.616-.459.462-.917L89.407 47.556c-1.079-3.515.77-7.182 4.159-8.404h.154c.154 0 .462-.153.616-.153 3.234-.611 6.315 1.528 7.394 4.737l12.477 38.046c.154.305.462.61.924.458.308-.153.616-.458.462-.917l-11.09-34.531c-1.233-3.667.923-7.487 4.62-8.557 3.39-.917 7.086.917 8.164 4.278l13.402 39.269c.77-7.64 2.926-14.669 7.085-19.1 2.157-2.292 6.316-1.07 8.01 1.528.77 1.07 1.387 2.903.925 5.042 0 0-4.776 8.251.77 21.697 5.545 13.293-5.854 34.074-5.854 34.074-3.697 8.25 7.24 38.657 7.24 38.657L115.593 173c-5.083-14.21-17.56-33.156-17.56-33.156l-5.238-8.251c-6.007-9.474-10.936-19.71-14.633-30.254l-8.78-24.905c-1.233-3.056.616-6.723 4.159-7.64z" fill="#F9B54C"/><path d="M116.018 209c19.561-2.91 37.12-11.483 50.982-24.038L151.906 145 100 166.589 116.018 209z" fill="#E6E9EE"/><path d="M123.341 67.834c-3.222-.767-6.597 1.074-7.517 4.296l-5.83 19.33c-.153.308-.46.614-.92.461-.307-.153-.614-.46-.46-.92l9.358-30.991c.92-3.068-.307-6.444-3.222-7.824-3.682-1.688-7.824.153-8.898 3.835l-8.591 28.076c-.153.306-.46.613-.92.46-.307-.154-.46-.46-.307-.767l11.045-36.667c1.074-3.529-.92-7.21-4.449-8.285h-.153c-.153 0-.46-.153-.614-.153-3.221-.46-6.29 1.84-7.21 4.91L83.147 82.101c-.153.307-.46.614-.92.46-.307-.153-.614-.46-.46-.92l10.278-34.98c1.074-3.682-1.074-7.517-4.756-8.438a6.716 6.716 0 0 0-8.13 4.45L66.884 82.562c-.92-7.67-3.221-14.728-7.517-19.023-2.148-2.302-6.29-.768-7.978 1.84-.767 1.228-1.227 3.069-.767 5.063 0 0 4.91 8.132-.306 21.786-5.216 13.5 6.75 34.059 6.75 34.059 3.835 8.131-6.137 39.122-6.137 39.122L84.22 174c4.757-14.421 16.57-33.752 16.57-33.752l5.062-8.438c5.83-9.666 10.432-19.945 13.807-30.684l7.978-25.16c1.227-3.683-.767-7.211-4.296-8.132z" fill="#FFD05B"/><path d="M33 182.506C46.522 195.907 63.887 205.303 83.248 209L98 166.487 45.6 146 33 182.506z" fill="#FF7058"/></g></g></svg>