<svg viewBox="0 0 26 35" id="svg-sprite-scratchpad-icon" xmlns="http://www.w3.org/2000/svg" width="100%" height="100%"><g fill="none" fill-rule="evenodd"><rect stroke="#ef4136" stroke-width="2" x="1" y="3" width="24" height="31" rx="2"></rect><path d="M21.2 5.5c.55 0 1-.56 1-1.243V1.743c0-.684-.45-1.243-1-1.243s-1 .56-1 1.243v2.514c0 .684.45 1.243 1 1.243m-5.2 0c.55 0 1-.56 1-1.243V1.743C17 1.06 16.55.5 16 .5s-1 .56-1 1.243v2.514c0 .684.45 1.243 1 1.243m-5.5 0c.55 0 1-.56 1-1.243V1.743c0-.684-.45-1.243-1-1.243s-1 .56-1 1.243v2.514c0 .684.45 1.243 1 1.243m-5.3 0c.55 0 1-.56 1-1.243V1.743C6.2 1.06 5.75.5 5.2.5s-1 .56-1 1.243v2.514c0 .684.45 1.243 1 1.243M20.266 28H5.734c-.405 0-.734.224-.734.5s.329.5.734.5h14.532c.405 0 .734-.224.734-.5s-.329-.5-.734-.5m0-4H5.734c-.405 0-.734.224-.734.5s.329.5.734.5h14.532c.405 0 .734-.224.734-.5s-.329-.5-.734-.5m0-4H5.734c-.405 0-.734.224-.734.5s.329.5.734.5h14.532c.405 0 .734-.224.734-.5s-.329-.5-.734-.5M5 16.5c0 .276.329.5.734.5h14.532c.405 0 .734-.224.734-.5s-.329-.5-.734-.5H5.734c-.405 0-.734.224-.734.5" fill="#ef4136"></path><path d="M1.5 11h23.022" stroke="#FFF" stroke-width="2" stroke-linecap="square"></path></g></svg>
