<svg xmlns="http://www.w3.org/2000/svg" xmlns:xlink="http://www.w3.org/1999/xlink" width="100" height="100" viewBox="0 0 100 100"><g><g transform="translate(50 50) scale(0.69 0.69) rotate(0) translate(-50 -50)" style="fill:#ef4136;"><svg fill="#ef4136" xmlns="http://www.w3.org/2000/svg" xmlns:xlink="http://www.w3.org/1999/xlink" version="1.1" x="0px" y="0px" viewBox="0 0 32 32" enable-background="new 0 0 32 32" xml:space="preserve"><g><g><path fill="#ef4136" d="M31.3,27.2h-15v-1.4h13.4c-0.7-5.3-3.6-9.2-6.9-9.2c-3,0-5.6,3.1-6.6,7.8L14.7,24c1.2-5.3,4.4-8.9,8.1-8.9    c4.3,0,7.8,4.8,8.4,11.3L31.3,27.2z"></path></g><g><path fill="#ef4136" d="M9.2,16.2c-3.1,0-5.7-2.5-5.7-5.7c0-3.1,2.5-5.7,5.7-5.7s5.7,2.5,5.7,5.7C14.9,13.6,12.4,16.2,9.2,16.2z     M9.2,6.3C6.9,6.3,5,8.2,5,10.5c0,2.3,1.9,4.2,4.2,4.2s4.2-1.9,4.2-4.2C13.5,8.2,11.6,6.3,9.2,6.3z"></path></g><g><path fill="#ef4136" d="M17.7,30.7h-17l0.1-0.8C1.4,23.3,5,18.6,9.2,18.6c4.3,0,7.8,4.8,8.4,11.3L17.7,30.7z M2.3,29.2h13.8    c-0.7-5.3-3.6-9.2-6.9-9.2C5.9,20,3.1,23.9,2.3,29.2z"></path></g><g><path fill="#ef4136" d="M22.8,12.7c-3.1,0-5.7-2.5-5.7-5.7s2.5-5.7,5.7-5.7s5.7,2.5,5.7,5.7S25.9,12.7,22.8,12.7z M22.8,2.8    c-2.3,0-4.2,1.9-4.2,4.2s1.9,4.2,4.2,4.2c2.3,0,4.2-1.9,4.2-4.2S25.1,2.8,22.8,2.8z"></path></g></g></svg></g></g></svg>