<svg xmlns="http://www.w3.org/2000/svg" viewBox="0 0 50.55 50.03"><defs><style>.cls-1{fill:#ef4136;}</style></defs><title>real-estate_purple</title><g id="Layer_2" data-name="Layer 2"><g id="Layer_1-2" data-name="Layer 1"><path class="cls-1" d="M48.86,21.52Q38.92,11.61,29,1.67a4.94,4.94,0,0,0-7.27-.15Q11.61,11.61,1.52,21.73A4.71,4.71,0,0,0,.38,27.08a4.75,4.75,0,0,0,4.44,3.16c.44,0,.66,0,1.21,0h.29c0,3.83,0,9.14,0,13C6.33,47.57,8.75,50,13,50H25.44V36.67c0-.09,0-.19,0-.28a4.23,4.23,0,0,1,4.08-4.61,4.15,4.15,0,0,1,3.92,4.57c0,.37,0,13.67,0,13.67H35.2c6.94,0,9.11-1.75,9.11-9,0-3.5,0-7.26,0-10.72,0,0,.84,0,1.12,0a4.8,4.8,0,0,0,4.74-3.13A4.91,4.91,0,0,0,48.86,21.52ZM47.41,26a2.07,2.07,0,0,1-2.15,1.34H41.31v1.46q0,7.18,0,14.35c0,3-1.75,4.11-4.88,3.9,0-.78,0-8.43,0-11.36a7,7,0,0,0-13.93,0c0,3.3,0,6.6,0,9.9V47c-3.52,0-6.81.06-10.11,0-2,0-3.08-1.38-3.09-3.43,0-4.91,0-9.81,0-14.72V27.33h-4A2.09,2.09,0,0,1,3.16,26a2,2,0,0,1,.65-2.33q9.93-9.93,19.86-19.85a2,2,0,0,1,3.24,0q9.94,9.91,19.86,19.85A2.07,2.07,0,0,1,47.41,26Z"/></g></g></svg>