<svg xmlns="http://www.w3.org/2000/svg" width="39" height="44"><path fill-rule="evenodd" fill="#CECAD5" d="M36.274 31.28c-1.506 0-2.727-1.244-2.727-2.778V16.585c0-1.534 1.221-2.778 2.727-2.778 1.505 0 2.726 1.244 2.726 2.778v11.917c0 1.534-1.221 2.778-2.726 2.778zm-7.763 2.801h-.134v7.141c0 1.534-1.22 2.778-2.726 2.778s-2.727-1.244-2.727-2.778v-7.141h-6.848v7.141c0 1.534-1.221 2.778-2.727 2.778-1.505 0-2.726-1.244-2.726-2.778v-7.141h-.134c-1.873 0-3.381-1.565-3.381-3.506V12.52c0-.108.008-.215.017-.32H31.88c.008.105.012.212.012.32v18.055c0 1.941-1.508 3.506-3.381 3.506zM7.204 11.014c.034-2.482 1.005-4.764 2.613-6.581L7.729.748a.504.504 0 0 1 .179-.681.484.484 0 0 1 .668.182l1.954 3.448c1.949-1.841 4.613-3.082 7.6-3.375h2.74c2.987.293 5.651 1.534 7.6 3.375L30.424.249a.484.484 0 0 1 .668-.182.503.503 0 0 1 .179.681l-2.088 3.685c1.608 1.818 2.579 4.099 2.612 6.581H7.204zm8.633-4.978a1.407 1.407 0 0 0-1.414-1.4 1.409 1.409 0 0 0-1.407 1.408v.008a1.408 1.408 0 0 0 1.415 1.4 1.406 1.406 0 0 0 1.406-1.408v-.008zm10.53 0a1.408 1.408 0 0 0-1.414-1.4 1.409 1.409 0 0 0-1.407 1.408v.008a1.408 1.408 0 0 0 1.414 1.4 1.407 1.407 0 0 0 1.407-1.408v-.008zM2.727 31.28C1.221 31.28 0 30.036 0 28.502V16.585c0-1.534 1.221-2.778 2.727-2.778 1.506 0 2.726 1.244 2.726 2.778v11.917c0 1.534-1.22 2.778-2.726 2.778z"/></svg>