<svg width="46" height="45" viewBox="0 0 46 45" fill="none" xmlns="http://www.w3.org/2000/svg">
<path fill-rule="evenodd" clip-rule="evenodd" d="M17.6698 4.45903C7.72562 7.12411 1.79408 17.3864 4.45911 27.3345C7.12415 37.2826 17.3911 43.2036 27.3353 40.5385C37.2795 37.8734 43.2111 27.6111 40.546 17.6631C37.881 7.715 27.614 1.79395 17.6698 4.45903ZM28.3242 44.2295C16.3321 47.4434 3.97968 40.3072 0.769378 28.3238C-2.44092 16.3403 4.68918 3.98271 16.6813 0.768786C28.6549 -2.44019 41.0257 4.6911 44.236 16.6745C47.4463 28.658 40.2978 41.0205 28.3242 44.2295Z" fill="#7C828D"/>
<path fill-rule="evenodd" clip-rule="evenodd" d="M20.6359 15.531C16.7984 16.5595 14.4995 20.526 15.5287 24.368C16.5584 28.2117 20.5317 30.4953 24.3692 29.4668C28.2067 28.4384 30.5061 24.4737 29.4764 20.6299C28.4472 16.788 24.4733 14.5026 20.6359 15.531ZM25.3579 33.1575C19.4726 34.7348 13.4133 31.2342 11.8388 25.3569C10.2643 19.4796 13.7618 13.4178 19.6472 11.8405C25.5141 10.2681 31.5918 13.7638 33.1663 19.6411C34.7408 25.5184 31.2248 31.5852 25.3579 33.1575Z" fill="#7C828D"/>
<path fill-rule="evenodd" clip-rule="evenodd" d="M16.7072 15.924C16.1906 16.0624 15.674 15.7578 15.5375 15.2485L12.7776 4.94618C12.6406 4.43502 12.9363 3.91474 13.4529 3.7763C13.951 3.64279 14.4856 3.94057 14.6225 4.45173L17.3825 14.7541C17.5189 15.2634 17.2053 15.7905 16.7072 15.924Z" fill="#7C828D"/>
<path fill-rule="evenodd" clip-rule="evenodd" d="M24.2345 13.9061C23.7179 14.0445 23.2013 13.7399 23.0649 13.2306L20.3049 2.92826C20.168 2.41711 20.4636 1.89683 20.9802 1.75838C21.4968 1.61994 22.0129 1.92266 22.1498 2.43381L24.9098 12.7362C25.0462 13.2455 24.7511 13.7676 24.2345 13.9061Z" fill="#7C828D"/>
<path fill-rule="evenodd" clip-rule="evenodd" d="M24.0398 43.2951C23.5232 43.4335 23.0066 43.129 22.8701 42.6197L20.1102 32.3173C19.9732 31.8061 20.2689 31.2859 20.7855 31.1474C21.2836 31.0139 21.8182 31.3117 21.9551 31.8228L24.7151 42.1252C24.8515 42.6345 24.5379 43.1616 24.0398 43.2951Z" fill="#7C828D"/>
<path fill-rule="evenodd" clip-rule="evenodd" d="M31.5673 41.2772C31.0508 41.4156 30.5341 41.111 30.3977 40.6017L27.6378 30.2994C27.5008 29.7882 27.7965 29.2679 28.313 29.1295C28.8296 28.9911 29.3458 29.2938 29.4827 29.8049L32.2426 40.1073C32.3791 40.6166 32.0839 41.1387 31.5673 41.2772Z" fill="#7C828D"/>
<path fill-rule="evenodd" clip-rule="evenodd" d="M40.5855 14.6345L30.2723 17.3985C29.7742 17.532 29.2391 17.2324 29.1027 16.7231C28.9657 16.2119 29.2798 15.6867 29.778 15.5532L40.0912 12.7892C40.5893 12.6557 41.1239 12.9535 41.2608 13.4646C41.3972 13.9739 41.0836 14.501 40.5855 14.6345Z" fill="#7C828D"/>
<path fill-rule="evenodd" clip-rule="evenodd" d="M42.6035 22.1672L32.2903 24.9312C31.7922 25.0647 31.2571 24.7651 31.1207 24.2558C30.9837 23.7446 31.2978 23.2194 31.796 23.0859L42.1091 20.3219C42.6073 20.1884 43.1418 20.4862 43.2788 20.9974C43.4152 21.5067 43.1016 22.0337 42.6035 22.1672Z" fill="#7C828D"/>
<path fill-rule="evenodd" clip-rule="evenodd" d="M13.2063 21.9721L2.9116 24.7311C2.39502 24.8696 1.8784 24.565 1.74196 24.0557C1.60502 23.5445 1.90067 23.0243 2.41725 22.8858L12.712 20.1268C13.2286 19.9883 13.7447 20.2911 13.8816 20.8022C14.0181 21.3115 13.7229 21.8336 13.2063 21.9721Z" fill="#7C828D"/>
<path fill-rule="evenodd" clip-rule="evenodd" d="M15.2243 29.5053L4.92958 32.2643C4.413 32.4028 3.89638 32.0982 3.75994 31.5889C3.62301 31.0778 3.91865 30.5575 4.43524 30.419L14.73 27.66C15.2466 27.5216 15.7627 27.8243 15.8996 28.3354C16.0361 28.8447 15.7409 29.3669 15.2243 29.5053Z" fill="#7C828D"/>
</svg>
