<svg width="28" height="28" viewBox="0 0 28 28" fill="none" xmlns="http://www.w3.org/2000/svg">
<path d="M0 5.11267C0 2.2804 2.28046 0 5.11261 0H22.8873C25.7195 0 27.9999 2.28052 27.9999 5.11267V22.8873C27.9999 25.7196 25.7195 28 22.8873 28H18.9139V17.0537H23.0046L23.191 13.1128H18.9139V10.2349C18.9139 9.14819 19.1418 8.49365 20.5624 8.49365C21.8751 8.49365 23.0781 8.505 23.0781 8.505L23.1708 4.82471C23.1708 4.82471 21.9913 4.67163 20.3962 4.67163C16.4566 4.67163 14.7463 7.10046 14.7463 9.74573V13.1128H11.8519V17.0537H14.7463V28H5.11261C2.28046 28 0 25.7195 0 22.8873V5.11267Z" fill="#3B5998"/>
</svg>
