<svg xmlns="http://www.w3.org/2000/svg" viewBox="0 0 17.47 19.03"><defs><style>.cls-1{fill:#ef4136;}</style></defs><title>Asset 1</title><g id="Layer_2" data-name="Layer 2"><g id="Layer_1-2" data-name="Layer 1"><path class="cls-1" d="M8.74,9.42A4.71,4.71,0,1,0,4,4.71,4.71,4.71,0,0,0,8.74,9.42Zm0-8.17A3.46,3.46,0,1,1,5.28,4.71,3.46,3.46,0,0,1,8.74,1.25Z"/><path class="cls-1" d="M17.46,18.29A8.76,8.76,0,0,0,0,18.29a.66.66,0,0,0,0,.12A.63.63,0,0,0,.63,19H16.85a.63.63,0,0,0,.62-.63A.67.67,0,0,0,17.46,18.29ZM1.33,17.78a7.5,7.5,0,0,1,14.8,0Z"/></g></g></svg>