<svg fill="#A59AE5" xmlns="http://www.w3.org/2000/svg" viewBox="0 0 16 16" x="0px" y="0px"><title>low brightness</title><path d="M15.854,7.646,14,5.793V2.5a.5.5,0,0,0-.5-.5H10.207L8.354.146a.5.5,0,0,0-.707,0L5.793,2H2.5a.5.5,0,0,0-.5.5V5.793L.146,7.646a.5.5,0,0,0,0,.707L2,10.207V13.5a.5.5,0,0,0,.5.5H5.793l1.854,1.854a.5.5,0,0,0,.707,0L10.207,14H13.5a.5.5,0,0,0,.5-.5V10.207l1.854-1.854A.5.5,0,0,0,15.854,7.646ZM8,12a3.76,3.76,0,0,1-1.15-.174.5.5,0,0,1,.007-.956,2.994,2.994,0,0,0,0-5.741.5.5,0,0,1-.006-.956A3.793,3.793,0,0,1,8,4a4,4,0,0,1,0,8Z"></path></svg>