<svg width="205" height="205" xmlns="http://www.w3.org/2000/svg" xmlns:xlink="http://www.w3.org/1999/xlink"><defs><circle id="a" cx="102.5" cy="102.5" r="102.5"/></defs><g fill="none" fill-rule="evenodd"><mask id="b" fill="#fff"><use xlink:href="#a"/></mask><use fill="#FFF" xlink:href="#a"/><g mask="url(#b)"><path fill="#98BF3D" d="M63.613 103h7.78V71.056h-7.78z"/><path d="M85.003 55.5c0 9.665-7.83 17.5-17.5 17.5s-17.5-7.835-17.5-17.5 7.83-17.5 17.5-17.5 17.5 7.835 17.5 17.5" fill="#98BF3D"/><path d="M83.063 55.5c0 8.591-6.97 15.556-15.56 15.556s-15.56-6.965-15.56-15.556 6.97-15.556 15.56-15.556 15.56 6.965 15.56 15.556" fill="#FFFFFE"/><path d="M77.873 55.5c0 5.727-4.64 10.37-10.37 10.37-5.73 0-10.37-4.643-10.37-10.37 0-5.727 4.64-10.37 10.37-10.37 5.73 0 10.37 4.643 10.37 10.37" fill="#9685FF"/><path d="M72.693 55.5a5.191 5.191 0 0 1-5.19 5.185 5.191 5.191 0 0 1-5.19-5.185 5.191 5.191 0 0 1 5.19-5.185c2.86 0 5.19 2.321 5.19 5.185" fill="#4E4E4B"/><path d="M73.263 52.907a2.592 2.592 0 0 1-2.59 2.593 2.592 2.592 0 0 1 0-5.185c1.43 0 2.59 1.161 2.59 2.592" fill="#FFFFFE"/><path fill="#98BF3D" d="M133.613 108h7.78V71.056h-7.78z"/><path d="M155.003 55.5c0 9.665-7.83 17.5-17.5 17.5s-17.5-7.835-17.5-17.5 7.83-17.5 17.5-17.5 17.5 7.835 17.5 17.5" fill="#98BF3D"/><path d="M153.063 55.5c0 8.591-6.97 15.556-15.56 15.556s-15.56-6.965-15.56-15.556 6.97-15.556 15.56-15.556 15.56 6.965 15.56 15.556" fill="#FFFFFE"/><path d="M147.873 55.5c0 5.727-4.64 10.37-10.37 10.37-5.73 0-10.37-4.643-10.37-10.37 0-5.727 4.64-10.37 10.37-10.37 5.73 0 10.37 4.643 10.37 10.37" fill="#9685FF"/><path d="M142.693 55.5a5.191 5.191 0 0 1-5.19 5.185 5.191 5.191 0 0 1-5.19-5.185 5.191 5.191 0 0 1 5.19-5.185c2.86 0 5.19 2.321 5.19 5.185" fill="#4E4E4B"/><path d="M143.263 52.907a2.592 2.592 0 0 1-2.59 2.593 2.592 2.592 0 0 1 0-5.185c1.43 0 2.59 1.161 2.59 2.592" fill="#FFFFFE"/><path fill="#98BF3D" d="M98.613 123h7.78V46.056h-7.78z"/><path d="M120.003 30.5c0 9.665-7.83 17.5-17.5 17.5s-17.5-7.835-17.5-17.5 7.83-17.5 17.5-17.5 17.5 7.835 17.5 17.5" fill="#98BF3D"/><path d="M118.063 30.5c0 8.591-6.97 15.556-15.56 15.556s-15.56-6.965-15.56-15.556 6.97-15.556 15.56-15.556 15.56 6.965 15.56 15.556" fill="#FFFFFE"/><path d="M112.873 30.5c0 5.727-4.64 10.37-10.37 10.37-5.73 0-10.37-4.643-10.37-10.37 0-5.727 4.64-10.37 10.37-10.37 5.73 0 10.37 4.643 10.37 10.37" fill="#9685FF"/><path d="M107.693 30.5a5.191 5.191 0 0 1-5.19 5.185 5.191 5.191 0 0 1-5.19-5.185 5.191 5.191 0 0 1 5.19-5.185c2.86 0 5.19 2.321 5.19 5.185" fill="#4E4E4B"/><path d="M108.263 27.907a2.592 2.592 0 0 1-2.59 2.593 2.592 2.592 0 0 1 0-5.185c1.43 0 2.59 1.161 2.59 2.592" fill="#FFFFFE"/><path d="M165.003 146.534c0-36.084-29.59-65.143-65.45-63.465-32.05 1.5-58.05 27.968-59.49 60.551-1.08 24.743 11.76 46.538 31.23 57.969 8.97 5.267 16.86 12.274 22.9 20.824a146.544 146.544 0 0 0 8.31 10.587s3.98-4.548 7.92-10.046c6.13-8.555 13.82-15.902 22.88-21.124 18.93-10.918 31.7-31.59 31.7-55.296" fill="#98BF3D"/><path d="M77 129h-6c-1.65 0-3-1.35-3-2.999A3.01 3.01 0 0 1 71 123h6c1.65 0 3 1.35 3 3.001A3.009 3.009 0 0 1 77 129m58 0h-6c-1.65 0-3-1.35-3-2.999a3.01 3.01 0 0 1 3-3.001h6c1.65 0 3 1.35 3 3.001a3.009 3.009 0 0 1-3 2.999" fill="#7E9F30"/><path d="M52.503 143c0 22.091 22.39 40 50 40s50-17.909 50-40h-100" fill="#DF523E"/><path fill="#FFFFFE" d="M132.503 168l-10-25h20l-10 25m-60 0l-10-25h20l-10 25"/></g></g></svg>