<svg width="83" height="60" viewBox="0 0 83 60" fill="none" xmlns="http://www.w3.org/2000/svg">
<path d="M37.3763 12L29.129 2.54654e-06C9.82664 12.8955 -2.3017e-06 26.3284 -3.53866e-06 40.4776C-4.52511e-06 51.7612 7.36997 60 17.723 60C26.8478 60 34.9197 52.8358 34.9197 42.9851C34.9197 34.9254 28.4271 27.9403 20.5307 27.7612C24.2156 22.209 30.5328 17.3731 37.3763 12ZM66.1543 27.7612C69.8393 22.209 76.1565 17.3731 83 12L74.7526 6.53508e-06C55.4503 12.8955 45.6237 26.3284 45.6237 40.4776C45.6237 51.7612 52.9937 60 63.3467 60C72.4715 60 80.5434 52.8358 80.5434 42.9851C80.5434 34.9254 74.0507 27.9403 66.1543 27.7612Z" fill="white"/>
<path d="M37.3763 12L29.129 2.54654e-06C9.82664 12.8955 -2.3017e-06 26.3284 -3.53866e-06 40.4776C-4.52511e-06 51.7612 7.36997 60 17.723 60C26.8478 60 34.9197 52.8358 34.9197 42.9851C34.9197 34.9254 28.4271 27.9403 20.5307 27.7612C24.2156 22.209 30.5328 17.3731 37.3763 12ZM66.1543 27.7612C69.8393 22.209 76.1565 17.3731 83 12L74.7526 6.53508e-06C55.4503 12.8955 45.6237 26.3284 45.6237 40.4776C45.6237 51.7612 52.9937 60 63.3467 60C72.4715 60 80.5434 52.8358 80.5434 42.9851C80.5434 34.9254 74.0507 27.9403 66.1543 27.7612Z" fill="white"/>
</svg>
