<svg fill="none" height="10" viewBox="0 0 17 10" width="17" xmlns="http://www.w3.org/2000/svg"><path clip-rule="evenodd" d="m1.00381 3.99582h11.58929l-2.2887-2.28871c-.39053-.39053-.39053-1.023693 0-1.414217.3905-.3905244 1.0237-.3905237 1.4142.000001l3.9924 3.992406c.1957.1957.2933.45233.2929.70883.0004.25648-.0972.5131-.2929.7088l-4 3.99997c-.3905.3905-1.0236.3905-1.4142 0-.3905-.39053-.3905-1.02369 0-1.41422l2.2929-2.29286h-11.58589c-.552281 0-.99999721-.44772-.99999721-1s.44771621-1 .99999721-1z" fill="#20DCDC" fill-rule="evenodd"/></svg>
