<svg width="16" height="10" viewBox="0 0 16 10" fill="none" xmlns="http://www.w3.org/2000/svg">
<mask id="path-1-inside-1_1112_8611" fill="white">
<path fill-rule="evenodd" clip-rule="evenodd" d="M15 3.99582H3.41067L5.69939 1.70711C6.08991 1.31658 6.08991 0.683417 5.69939 0.292893C5.30886 -0.0976314 4.6757 -0.0976307 4.28517 0.292894L0.292771 4.2853C0.0970697 4.481 -0.000560904 4.73763 -0.000120588 4.99413C-0.000551523 5.25061 0.0970791 5.50723 0.292771 5.70293L4.29274 9.7029C4.68327 10.0934 5.31643 10.0934 5.70696 9.7029C6.09748 9.31237 6.09748 8.67921 5.70696 8.28868L3.41409 5.99582H15C15.5523 5.99582 16 5.5481 16 4.99582C16 4.44354 15.5523 3.99582 15 3.99582Z"/>
</mask>
<path fill-rule="evenodd" clip-rule="evenodd" d="M15 3.99582H3.41067L5.69939 1.70711C6.08991 1.31658 6.08991 0.683417 5.69939 0.292893C5.30886 -0.0976314 4.6757 -0.0976307 4.28517 0.292894L0.292771 4.2853C0.0970697 4.481 -0.000560904 4.73763 -0.000120588 4.99413C-0.000551523 5.25061 0.0970791 5.50723 0.292771 5.70293L4.29274 9.7029C4.68327 10.0934 5.31643 10.0934 5.70696 9.7029C6.09748 9.31237 6.09748 8.67921 5.70696 8.28868L3.41409 5.99582H15C15.5523 5.99582 16 5.5481 16 4.99582C16 4.44354 15.5523 3.99582 15 3.99582Z" fill="#E9EBF0"/>
<path d="M3.41067 3.99582L2.70357 3.28871L0.99646 4.99582H3.41067V3.99582ZM5.69939 1.70711L4.99228 0.999999V1L5.69939 1.70711ZM5.69939 0.292893L4.99228 1L5.69939 0.292893ZM4.28517 0.292894L4.99228 1L4.99228 1L4.28517 0.292894ZM0.292771 4.2853L-0.414336 3.57819L-0.414336 3.57819L0.292771 4.2853ZM-0.000120588 4.99413L0.999884 4.99581L0.999878 4.99241L-0.000120588 4.99413ZM0.292771 5.70293L0.999878 4.99582H0.999878L0.292771 5.70293ZM4.29274 9.7029L3.58564 10.41L3.58564 10.41L4.29274 9.7029ZM5.70696 9.7029L6.41406 10.41L6.41406 10.41L5.70696 9.7029ZM5.70696 8.28868L6.41406 7.58158L6.41406 7.58158L5.70696 8.28868ZM3.41409 5.99582V4.99582H0.999878L2.70698 6.70293L3.41409 5.99582ZM3.41067 4.99582H15V2.99582H3.41067V4.99582ZM4.99228 1L2.70357 3.28871L4.11778 4.70293L6.40649 2.41421L4.99228 1ZM4.99228 1V0.999999L6.40649 2.41421C7.18754 1.63316 7.18754 0.366835 6.40649 -0.414214L4.99228 1ZM4.99228 1L4.99228 1L6.40649 -0.414214C5.62544 -1.19526 4.35911 -1.19526 3.57807 -0.414213L4.99228 1ZM0.999878 4.9924L4.99228 1L3.57807 -0.414213L-0.414336 3.57819L0.999878 4.9924ZM0.999878 4.99241L0.999878 4.9924L-0.414336 3.57819C-0.805551 3.9694 -1.001 4.48442 -1.00012 4.99585L0.999878 4.99241ZM-1.00012 4.99245C-1.00098 5.50385 -0.805532 6.01884 -0.414336 6.41003L0.999878 4.99582L0.999878 4.99581L-1.00012 4.99245ZM-0.414336 6.41003L3.58564 10.41L4.99985 8.99579L0.999878 4.99582L-0.414336 6.41003ZM3.58564 10.41C4.36668 11.1911 5.63301 11.1911 6.41406 10.41L4.99985 8.99579H4.99985L3.58564 10.41ZM6.41406 10.41C7.19511 9.62896 7.19511 8.36263 6.41406 7.58158L4.99985 8.99579L4.99985 8.99579L6.41406 10.41ZM6.41406 7.58158L4.1212 5.28871L2.70698 6.70293L4.99985 8.99579L6.41406 7.58158ZM15 4.99582H3.41409V6.99582H15V4.99582ZM15 4.99582V6.99582C16.1045 6.99582 17 6.10039 17 4.99582H15ZM15 4.99582H17C17 3.89125 16.1045 2.99582 15 2.99582V4.99582Z" fill="#B9BEC7" mask="url(#path-1-inside-1_1112_8611)"/>
</svg>
