<svg width="204" height="189" fill="none" xmlns="http://www.w3.org/2000/svg"><path opacity=".4" fill-rule="evenodd" clip-rule="evenodd" d="M159.58 187.18c2.061-.296 2.846-.645 1.919-1.054-6.446-2.846-36.863-2.744-51.613-2.733-18.552.013-37.848-.053-54.632.65-7.025.294-22.897.569-25.719 1.534-7.4 2.536 43.073 3.208 51.25 3.238 13.633.051 67.022.057 78.795-1.635z" fill="#7060D5"/><path fill-rule="evenodd" clip-rule="evenodd" d="M101.804 47.402c-4.854 3.809-36.33 26.115-57.043 34.051C37.952 84.062 7.883 94.997.778 96.833l1.205 2.004c11.915 19.946 32.913 32.679 53.007 43.103 3.714 1.928 42.559 22.318 44.574 18.421 6.266-12.122 13.469-23.739 20.941-35.149 5.983-9.139 12.183-18.171 18.938-26.76 4.296-5.46 9.165-12.353 15.437-15.725l-53.076-35.325z" fill="#fff"/><path opacity=".136" fill-rule="evenodd" clip-rule="evenodd" d="M101.804 47.402c-4.854 3.809-36.33 26.115-57.043 34.051C37.952 84.062 7.883 94.997.778 96.833l1.205 2.004c11.915 19.946 32.913 32.679 53.007 43.103 3.714 1.928 42.559 22.318 44.574 18.421 6.266-12.122 13.469-23.739 20.941-35.149 5.983-9.139 12.183-18.171 18.938-26.76 4.296-5.46 9.165-12.353 15.437-15.725l-53.076-35.325z" fill="url(#paint0_linear)"/><path fill-rule="evenodd" clip-rule="evenodd" d="M124.263 120.139c4.952-7.354 10.081-14.592 15.575-21.557 4.538-5.752 8.983-12.271 15.573-15.876.755-.413-.429-.395-.76-.214-6.65 3.638-11.131 9.995-15.714 15.806-5.625 7.132-10.889 14.526-15.959 22.055-.115.171 1.064.114 1.285-.214zM91.15 159.031c1.941.691 3.929 1.395 5.978 1.707.962.146 2.172.245 3.055-.276.429-.255.548-.512.784-.951.639-1.191 1.271-2.387 1.919-3.574a319.187 319.187 0 013.732-6.627c.118-.203-1.102-.126-1.298.214a306.18 306.18 0 00-5.177 9.305c-.352.663-.483 1.422-1.303 1.444-.584.015-1.212-.153-1.777-.281-1.648-.373-3.253-.923-4.842-1.488-.311-.111-1.492.377-1.072.527zM95.381 51.459c-13.568 9.51-27.672 18.65-42.626 25.851-5.15 2.481-10.483 4.448-15.847 6.407-6.377 2.329-12.77 4.619-19.18 6.859-5.654 1.976-11.328 4.12-17.131 5.63-.08.02-.69.22-.585.396 2.388 3.958 4.901 7.79 7.859 11.356 3.774 4.549 8.041 8.675 12.598 12.438 9.235 7.628 19.598 13.779 30.16 19.383A656.6 656.6 0 0065.9 147.61c.346.172 1.403-.356 1.211-.451-20.045-9.978-41-20.465-56.107-37.417-3.717-4.171-6.825-8.714-9.704-13.484l-.584.396c5.004-1.301 9.9-3.112 14.781-4.802a1377.66 1377.66 0 0019.803-7.043c5.14-1.867 10.318-3.673 15.303-5.928 8.078-3.653 15.81-8.072 23.373-12.68a416.746 416.746 0 0022.4-14.67c.539-.376-.744-.25-.996-.072z" fill="#5D7183"/><path fill-rule="evenodd" clip-rule="evenodd" d="M55.942 91.773a113.276 113.276 0 01-34.262 9.272c-.646.07-1.032.838-.154.744a115.555 115.555 0 0034.937-9.447c.796-.357.075-.837-.521-.57zM46.573 108.083a55.125 55.125 0 01-15.543 3.836c-.678.066-1.038.837-.147.75a57.606 57.606 0 0016.232-4.002c.814-.333.082-.839-.542-.584z" fill="#5D7183"/><path fill-rule="evenodd" clip-rule="evenodd" d="M62.278 185.509c-7.423-4.614 13.484-55.112 20.632-78.273 4.097 6.662 8.553 13.038 12.83 19.553 2.05 3.122 6.976 7.899 4.966 11.407-3.874 6.758-14.6 23.062-24.61 34.873-5.191 6.127-11.221 14.054-13.818 12.44z" fill="#FAFBFC"/><path fill-rule="evenodd" clip-rule="evenodd" d="M98.324 141.039c-4.94 8.004-10.282 15.786-15.933 23.308-3.036 4.043-6.252 7.927-9.487 11.812-1.618 1.944-3.236 3.895-4.98 5.731-1.183 1.246-2.57 2.843-4.216 3.494-3.892 1.54-1.95-9.794-1.712-11.073 1.497-8.026 4.035-15.875 6.578-23.622 3.27-9.956 6.831-19.815 10.287-29.708.243-.694-1.044-.679-1.231-.144-3.28 9.392-6.655 18.751-9.787 28.193-2.717 8.191-5.441 16.487-7.074 24.973-.523 2.719-1.003 5.556-.788 8.334.111 1.44.48 3.488 2.07 4.038 1.181.408 2.465-.277 3.415-.922 1.687-1.145 3.115-2.703 4.474-4.203 3.583-3.957 6.992-8.126 10.292-12.317 6.968-8.849 13.411-18.171 19.323-27.75.372-.602-.937-.619-1.23-.144z" fill="#5D7183"/><path fill-rule="evenodd" clip-rule="evenodd" d="M79.78 108.625c.93-5.415 3.397-10.845 6.26-15.932 6.207-11.024 11.831-22.38 12.514-35.23.062-1.165.02-13.704-.803-13.663 12.43-.616 27.233 1.192 36.272-9.05 6.844-7.753 12.302-21.44 24.63-20.737 3.857.22 7.355 1.512 9.937 4.52 6.594 7.682 2.549 20.551-2.998 27.602l-10.079 12.81c-2.761 3.51-5.323 6.689-3.877 11.396 1.203 3.917 2.847 7.683 4.488 11.44-1.596.673-2.956 1.887-4.484 2.746-8.964 5.038-17.866 10.092-25.903 16.56-3.546 2.855-8.254 7.017-8.126 11.898.052.137.104.275.158.411 1.067 2.687 2.69 5.114 4.301 7.517 3.298 4.922 6.835 9.786 9.124 15.285 2.3 5.529 2.41 9.785.912 15.528-3.148 12.07-11.073 20.202-18.874 29.401-1.848 2.178-4.928 5.892-8.212 5.31-1.529-.272-1.85-1.028-2.392-2.04-1.226-2.287.219-5.882.968-8.155 2.015-6.11 5.202-12.869 5.774-19.388.778-8.893-5.742-15.698-12.572-20.858-3.892-2.939-8.4-4.849-11.722-8.511-5.309-5.852-6.413-12.346-5.295-18.86z" fill="#fff"/><path fill-rule="evenodd" clip-rule="evenodd" d="M122.06 121.202c-1.61-2.393-3.232-4.808-4.3-7.484-.054-.136-.106-.273-.158-.409a7.784 7.784 0 01.263-2.187c-5.843-1.832-31.126-14.061-32.761-16.319-2.455 4.567-4.497 9.371-5.323 14.166-1.118 6.485-.014 12.95 5.294 18.776 3.321 3.646 7.828 5.547 11.72 8.474 6.828 5.137 13.347 11.912 12.568 20.766-.571 6.49-3.758 13.22-5.772 19.302-.749 2.263-2.194 5.843-.968 8.12.542 1.008.863 1.76 2.391 2.03 3.284.581 6.362-3.117 8.21-5.286 7.799-9.159 15.723-17.255 18.87-29.272 1.498-5.717 1.388-9.955-.912-15.459-2.288-5.475-5.824-10.318-9.122-15.218z" fill="#FAFBFC"/><path fill-rule="evenodd" clip-rule="evenodd" d="M164.854 46.15c5.512-7.053 9.531-19.929 2.979-27.614-2.565-3.01-6.042-4.303-9.874-4.523-12.251-.703-17.674 12.99-24.475 20.748-8.981 10.247-23.691 8.438-36.043 9.054.819-.04.86 12.505.799 13.67-.658 12.449-5.917 23.495-11.85 34.195.306.102.59.311.803.66 1.406 2.288 4.286 3.505 6.67 4.453 2.832 1.125 5.762 1.968 8.622 3.011 5.606 2.046 10.416 6.622 16.179 8.209 1.642-2.721 4.347-5.066 6.587-6.881 7.986-6.472 16.832-11.528 25.739-16.57 1.518-.858 2.87-2.073 4.455-2.747-1.63-3.758-3.264-7.526-4.459-11.446-1.437-4.709 1.109-7.889 3.853-11.4l10.015-12.818z" fill="#fff"/><path d="M105.322 79.818l5.508-.72c.5 3.819 1.951 6.284 4.35 7.669 2.386 1.377 5.177 1.38 8.631-.128l2.225 5.091c-4.982 2.174-9.612 2.17-13.634-.152-4.009-2.315-6.369-6.329-7.08-11.76z" fill="url(#paint1_linear)"/><path d="M123.052 73.102l-10.178 1.932-1.038-5.457 14.905-2.83 4.918 14.284-5.252 1.808-3.355-9.737z" fill="url(#paint2_linear)"/><path fill-rule="evenodd" clip-rule="evenodd" d="M154.898 82.144c3.617 8.125 11.071 14.651 18.788 18.833 6.358 3.445 14.079 5.278 21.107 2.753 3.789-1.361 6.73-4.053 8.324-7.745.18-.417-1.107-.278-1.294.154-2.961 6.859-10.527 8.799-17.399 7.694-7.638-1.228-14.713-5.924-20.206-11.168-3.266-3.119-6.183-6.722-8.027-10.866-.205-.459-1.475-.065-1.293.345zM97.662 43.565c-7.852-.938-15.059-5.246-23.152-4.656-7.246.529-12.252 5.61-15.3 11.775-1.981 4.005-3.325 8.29-4.703 12.524-.223.683 1.057.64 1.224.126 2.585-7.938 5.362-18.645 13.85-22.38 9.04-3.978 18.685 2.434 27.626 3.503.61.073 1.322-.788.455-.892z" fill="#fff"/><path fill-rule="evenodd" clip-rule="evenodd" d="M116.562 110.371l-14.255-6.465c-4.496-2.039-8.993-4.09-13.172-6.698-.46-.286-1.623.327-1.017.706 4.18 2.607 8.676 4.658 13.172 6.698l14.255 6.465c.485.22 1.645-.42 1.017-.706zM148.573 66.302c-5.534-1.347-10.258-4.594-14.552-8.21-4.152-3.497-8.386-7.461-9.752-12.9-.077-.307-1.376.025-1.295.347 1.375 5.474 5.65 9.483 9.829 13.002 4.338 3.654 9.123 6.92 14.711 8.28.313.076 1.45-.424 1.059-.519zM152.734 52.94c-3.181 1.004-5.733-2.332-5.071-5.389.065-.298-1.142-.11-1.213.217-.879 4.058 2.83 6.715 6.392 5.591.701-.221.613-.646-.108-.418z" fill="#5D7183"/><path fill-rule="evenodd" clip-rule="evenodd" d="M164.474 30.588a6.506 6.506 0 00-.201-.196c-2.119-1.969-5.375-2.116-8.305-2.133-1.245-.006-2.615.068-4.037.145-3.99.217-8.387.455-11.566-1.02-4.915-2.282-8.925-5.926-11.549-10.64a34.16 34.16 0 01-4.033-12.306 14.72 14.72 0 01-.029-.996c-.013-1.053-.031-2.528-.227-2.665.437.305.867.617 1.295.928 2.128 1.544 4.206 3.052 6.896 3.511 1.821.311 3.685.214 5.529.098a293.901 293.901 0 0015.817-1.423l.377-.045c2.563-.302 5.151-.607 7.708-.283 4.11.52 7.977 2.728 10.499 5.996a15.743 15.743 0 013 6.82c5.6.82 8.051 9.846 5.406 14.497a4.737 4.737 0 01-.11.184c-2.134 3.424-7.387 4.577-11.119 3.543-1.139-.316-2.049-.807-2.758-1.425-.735-.344-1.27-1.008-1.806-1.674-.255-.316-.51-.633-.787-.916z" fill="#fff"/><path opacity=".349" fill-rule="evenodd" clip-rule="evenodd" d="M164.474 30.588a6.506 6.506 0 00-.201-.196c-2.119-1.969-5.375-2.116-8.305-2.133-1.245-.006-2.615.068-4.037.145-3.99.217-8.387.455-11.566-1.02-4.915-2.282-8.925-5.926-11.549-10.64a34.16 34.16 0 01-4.033-12.306 14.72 14.72 0 01-.029-.996c-.013-1.053-.031-2.528-.227-2.665.437.305.867.617 1.295.928 2.128 1.544 4.206 3.052 6.896 3.511 1.821.311 3.685.214 5.529.098a293.901 293.901 0 0015.817-1.423l.377-.045c2.563-.302 5.151-.607 7.708-.283 4.11.52 7.977 2.728 10.499 5.996a15.743 15.743 0 013 6.82c5.6.82 8.051 9.846 5.406 14.497a4.737 4.737 0 01-.11.184c-2.134 3.424-7.387 4.577-11.119 3.543-1.139-.316-2.049-.807-2.758-1.425-.735-.344-1.27-1.008-1.806-1.674-.255-.316-.51-.633-.787-.916z" fill="url(#paint3_linear)"/><path fill-rule="evenodd" clip-rule="evenodd" d="M175.061 34.943c3.711-.817 6.71-2.968 7.58-6.711.85-3.655-.459-7.56-3.09-10.225-.374-.378-1.616.12-1.202.539 2.273 2.302 3.521 5.493 3.165 8.702-.418 3.775-2.97 6.094-6.669 6.908-.809.178-.587.963.216.787zM175.108 12.569c-1.612-3.787-4.498-6.791-8.248-8.466-4.118-1.84-8.457-1.419-12.808-.905a283.312 283.312 0 01-15.589 1.418c-2.639.164-5.245.2-7.751-.779-2.151-.84-4.034-2.204-5.712-3.78-.206-.193-1.386.14-1.239.401.518.92.517 2.297.653 3.33.156 1.199.275 2.402.463 3.596.356 2.27.994 4.478 1.878 6.597 1.716 4.112 4.166 7.229 7.58 10.046.287.236 1.437-.261 1.2-.457-1.581-1.304-3.141-2.68-4.4-4.312-1.392-1.804-2.437-3.946-3.28-6.058a28.571 28.571 0 01-1.738-6.417c-.178-1.195-.299-2.399-.46-3.597-.13-.962-.135-2.216-.618-3.073-.413.134-.826.268-1.238.4 3.119 2.928 6.801 4.753 11.112 4.789 4.884.04 9.851-.587 14.703-1.094 4.81-.503 9.938-1.718 14.665-.168 4.331 1.42 7.761 4.673 9.549 8.874.148.347 1.396-.066 1.278-.345z" fill="#5D7183"/><path fill-rule="evenodd" clip-rule="evenodd" d="M168.105 13.383c-.683-3.646-4.074-5.898-7.878-5.583-.702.058-1.027.914-.134.84 3.38-.28 6.127 1.957 6.712 5.076.098.527 1.404.217 1.3-.333zM135.946 14.737c-2.307-.661-4.374-2.552-4.667-5.163-.056-.498-1.364-.184-1.302.369.321 2.865 2.682 4.867 5.183 5.583.447.128 1.532-.575.786-.789zM145.466 14.861c-2.368-2.83-7.881-1.691-9.487-5.283-.231-.514-1.528-.163-1.309.327.719 1.608 2.287 2.449 3.973 3.04 1.953.686 4.264.817 5.62 2.438.343.41 1.595-.052 1.203-.522zM80.237 108.897c1.05-5.882 3.64-11.261 6.523-16.437 2.68-4.813 5.246-9.706 7.336-14.811 2.031-4.963 3.612-10.127 4.365-15.448.444-3.14.453-6.163.346-9.315a150.108 150.108 0 00-.276-5.623c-.072-1 .008-2.362-.437-3.29l-.715.578c9.489-.454 19.619.534 28.539-3.418 4.06-1.798 7.241-4.626 9.93-8.129 2.656-3.458 4.948-7.19 7.735-10.548 2.703-3.257 5.99-6.335 10.21-7.35 5.087-1.221 10.884.49 14.046 4.759 6.092 8.222 1.441 20.168-4.127 27.3-2.314 2.962-4.632 5.922-6.948 8.883-1.905 2.436-4.106 4.838-5.573 7.58-1.446 2.703-1.447 5.33-.514 8.204 1.161 3.572 2.659 7.02 4.153 10.462l.374-.486c-1.649.754-3.041 1.914-4.599 2.825-1.821 1.064-3.673 2.078-5.5 3.133-3.577 2.063-7.125 4.18-10.582 6.44-3.447 2.252-6.801 4.648-9.993 7.254-2.431 1.984-4.872 4.144-6.495 6.872-.778 1.308-1.358 2.782-1.469 4.312-.12 1.665 1.079 3.403 1.885 4.804 2.039 3.545 4.505 6.836 6.718 10.272 2.321 3.603 4.521 7.389 5.801 11.507 1.172 3.774 1.175 7.61.332 11.453-1.758 8.017-6.07 14.993-10.911 21.483-2.416 3.239-4.913 6.44-7.764 9.309-1.863 1.875-6.908 7.324-9.406 3.808-1.532-2.157-.37-5.602.368-7.847 1.093-3.318 2.403-6.56 3.551-9.858 1.32-3.79 2.566-7.841 2.567-11.896.001-3.164-.928-6.195-2.487-8.93-3.463-6.078-9.355-10.388-15.143-14.036-3.432-2.163-6.524-4.521-8.804-7.945a20.542 20.542 0 01-3.4-10.298c-.099-1.867.063-3.732.364-5.573.092-.564-1.206-.365-1.288.134-1.209 7.393.772 14.745 6.245 20.012 2.722 2.62 6.095 4.37 9.197 6.473 3.058 2.073 5.947 4.531 8.402 7.3 2.347 2.648 4.3 5.719 5.154 9.19.967 3.928.225 7.984-.853 11.81-1.15 4.076-2.781 7.997-4.183 11.988-.835 2.379-1.801 4.909-1.656 7.474.139 2.471 1.903 4.383 4.487 3.93 3.243-.569 6.051-3.522 8.248-5.774 2.729-2.797 5.139-5.889 7.477-9.017 2.433-3.256 4.759-6.578 6.682-10.169 3.598-6.722 6.418-14.848 4.358-22.482-2.202-8.163-7.926-14.754-12.258-21.815-1.087-1.772-2.67-4.004-2.307-6.174.288-1.713 1.138-3.276 2.163-4.655 2.27-3.056 5.449-5.447 8.462-7.712 6.938-5.217 14.469-9.56 22.008-13.827 1.748-.99 3.335-2.312 5.161-3.147.14-.064.465-.277.375-.487-1.359-3.129-2.719-6.263-3.829-9.492-1.053-3.063-1.475-5.79.116-8.75 1.475-2.747 3.663-5.139 5.574-7.581l6.463-8.264c5.499-7.032 10.222-17.675 5.854-26.45-4.27-8.578-15.719-9.427-22.828-4.07-3.397 2.558-5.988 6.024-8.433 9.467-2.65 3.73-5.128 7.835-8.732 10.731-9.074 7.292-21.928 5.68-32.768 6.2-.181.008-.87.254-.715.578.383.796.333 1.936.4 2.796.123 1.56.197 3.127.26 4.692.12 2.983.232 5.926-.095 8.899-1.206 10.992-5.983 21.092-11.257 30.653-3.092 5.605-6.034 11.302-7.172 17.673-.1.559 1.199.363 1.288-.134z" fill="#5D7183"/><defs><linearGradient id="paint0_linear" x1=".778" y1="181.283" x2="154.88" y2="181.283" gradientUnits="userSpaceOnUse"><stop stop-color="#8930FD"/><stop offset="1" stop-color="#49CCF9"/></linearGradient><linearGradient id="paint1_linear" x1="103.603" y1="82.796" x2="124.296" y2="94.743" gradientUnits="userSpaceOnUse"><stop stop-color="#8930FD"/><stop offset="1" stop-color="#49CCF9"/></linearGradient><linearGradient id="paint2_linear" x1="111.989" y1="69.311" x2="131.817" y2="80.758" gradientUnits="userSpaceOnUse"><stop stop-color="#FF02F0"/><stop offset="1" stop-color="#FFC800"/></linearGradient><linearGradient id="paint3_linear" x1="124.527" y1="41.125" x2="182.121" y2="41.125" gradientUnits="userSpaceOnUse"><stop stop-color="#FF02F0"/><stop offset="1" stop-color="#FFC800"/></linearGradient></defs></svg>