<svg width="53" height="49" xmlns="http://www.w3.org/2000/svg"><g fill="#ef4136" fill-rule="evenodd"><path d="M24.5 49C10.99 49 0 38.01 0 24.5S10.99 0 24.5 0c4.67 0 9.213 1.32 13.136 3.815a.927.927 0 1 1-.996 1.564A22.574 22.574 0 0 0 24.5 1.854C12.013 1.854 1.854 12.013 1.854 24.5S12.013 47.146 24.5 47.146c12.486 0 22.646-10.159 22.646-22.646 0-1.123-.084-2.253-.248-3.357a.927.927 0 0 1 1.834-.272c.178 1.194.268 2.414.268 3.63C49 38.01 38.009 49 24.5 49"/><path d="M24.57 33a.914.914 0 0 1-.644-.264l-13.66-13.5a.895.895 0 0 1 0-1.276.919.919 0 0 1 1.29 0l13.015 12.863L51.442 4.264a.919.919 0 0 1 1.29 0 .893.893 0 0 1 0 1.276L25.216 32.736a.917.917 0 0 1-.645.264"/></g></svg>