<svg fill="none" height="10" viewBox="0 0 7 10" width="7" xmlns="http://www.w3.org/2000/svg"><g fill="#ef4136"><path d="m5.57478 5.60948c.35433-.35698.35673-.93818.0024-1.29515l-3.64075-3.667991c-.35432-.356979-.93121-.354556-1.285536.002423-.354328.356978-.356732.938178-.002404 1.295158l3.64075 3.66799c.35433.35698.93121.35455 1.28554-.00243z"/><path d="m.644002 9.2825c-.354328-.35698-.356733-.93818-.002405-1.29516l3.647643-3.67493c.35432-.35698.93121-.35456 1.28554.00242s.35673.93818.0024 1.29516l-3.64764 3.67493c-.35433.35698-.93121.35456-1.285538-.00242z"/></g></svg>