<svg width="26" height="25" xmlns="http://www.w3.org/2000/svg"><g fill="none"><path fill-rule="evenodd" clip-rule="evenodd" d="M25.563 21.95c-1.953-.036-3.798-1.22-5.305-2.281-2.151-1.515-4.07-3.32-5.88-5.18-3.54-3.63-6.721-7.577-9.707-11.62A97.328 97.328 0 0 1 2.755.203C2.324-.426-.205.577.013.895 1.818 3.521 3.774 6.064 5.79 8.55c3.443 4.247 7.144 8.588 11.68 11.85 1.816 1.308 3.956 2.558 6.314 2.6.588.01 1.479-.11 1.939-.489.34-.28.454-.55-.16-.56z" fill="#D63E53"/><path fill-rule="evenodd" clip-rule="evenodd" d="M23.495.449L3.162 21.073.285 23.99c-1.152 1.169 1.513 1.277 2.22.562L22.838 3.927l2.877-2.917c1.151-1.169-1.513-1.278-2.22-.561z" fill="#D63E53"/></g></svg>