<svg fill="none" height="41" viewBox="0 0 41 41" width="41" xmlns="http://www.w3.org/2000/svg" xmlns:xlink="http://www.w3.org/1999/xlink"><mask id="a" fill="#fff"><path clip-rule="evenodd" d="m13.0815 21.1282h12.4315l-1.8767 1.8767c-.3202.3203-.3202.8395 0 1.1597s.8394.3202 1.1597 0l3.2737-3.2738c.1472-.1471.2267-.3363.2386-.5288.0012-.0178.0018-.0357.0018-.0538 0-.2297-.0945-.4374-.2467-.5862l-3.2736-3.2737c-.3203-.3202-.8395-.3202-1.1597 0-.3202.3203-.3202.8394 0 1.1597l1.8802 1.8802h-12.4288c-.4529 0-.82.3671-.82.82s.3671.82.82.82z" fill="#fff" fill-rule="evenodd"/></mask><circle r="19.66" stroke="#ef4136" stroke-width="1.68" transform="matrix(1 .00000017 .00000017 -1 20.5 20.5)"/><path clip-rule="evenodd" d="m13.0815 21.1282h12.4315l-1.8767 1.8767c-.3202.3203-.3202.8395 0 1.1597s.8394.3202 1.1597 0l3.2737-3.2738c.1472-.1471.2267-.3363.2386-.5288.0012-.0178.0018-.0357.0018-.0538 0-.2297-.0945-.4374-.2467-.5862l-3.2736-3.2737c-.3203-.3202-.8395-.3202-1.1597 0-.3202.3203-.3202.8394 0 1.1597l1.8802 1.8802h-12.4288c-.4529 0-.82.3671-.82.82s.3671.82.82.82z" fill="#e9ebf0" fill-rule="evenodd"/><path d="m25.513 21.1282.594.594 1.434-1.434h-2.028zm-12.4315 0v.84zm10.5548 1.8767-.594-.5939zm0 1.1597-.594.594zm1.1597 0-.594-.594zm3.2737-3.2738-.5939-.594zm.2386-.5288-.8382-.0543-.0002.0024zm-.2449-.64-.594.594.0066.0065zm-3.2736-3.2737.5939-.5939zm-1.1597 0 .594.594zm0 1.1597-.594.5939zm1.8802 1.8802v.84h2.028l-1.434-1.434zm.0027.8h-12.4315v1.68h12.4315zm-1.2827 3.3107 1.8767-1.8767-1.1879-1.188-1.8768 1.8768zm0-.0283c.0008.0009.0029.0035.0043.0071.0012.003.0015.0054.0015.0071s-.0003.004-.0015.0071c-.0014.0035-.0035.0061-.0043.007l-1.188-1.1879c-.6482.6482-.6482 1.6993 0 2.3476zm-.0283 0c.0008-.0008.0034-.0029.007-.0043.0031-.0012.0054-.0015.0071-.0015s.0041.0003.0071.0015c.0036.0014.0062.0035.0071.0043l-1.188 1.188c.6483.6482 1.6994.6482 2.3476 0zm3.2738-3.2738-3.2738 3.2738 1.1879 1.188 3.2738-3.2738zm-.0059.0133c.0001-.0017.0006-.0041.0018-.007.0015-.0033.0034-.0055.0041-.0063l1.1879 1.188c.2975-.2975.4589-.6818.483-1.0709zm.0002-.0019v-.0005l1.6765.1086c.0023-.0359.0035-.0719.0035-.1081zm.0059.0143c-.0012-.0012-.0027-.0031-.004-.0061-.0015-.0036-.0019-.0069-.0019-.0082h1.68c0-.4649-.1922-.8864-.4993-1.1867zm1.1814-1.1945-3.2737-3.2736-1.1879 1.1879 3.2736 3.2736zm-3.2737-3.2736c-.6482-.6483-1.6993-.6483-2.3476 0l1.188 1.1879c-.0009.0008-.0035.0029-.0071.0043-.003.0012-.0054.0015-.0071.0015s-.0041-.0003-.0071-.0015c-.0036-.0014-.0062-.0035-.007-.0043zm-2.3476 0c-.6482.6482-.6482 1.6993 0 2.3475l1.188-1.1879c.0008.0009.0028.0035.0043.007.0012.0031.0015.0055.0015.0071 0 .0017-.0003.0041-.0015.0071-.0015.0036-.0035.0062-.0043.0071zm0 2.3475 1.8803 1.8803 1.1879-1.188-1.8802-1.8802zm-9.9546 2.1263h12.4288v-1.68h-12.4288zm.02-.02c0 .0012-.0004.0045-.0019.0081-.0013.003-.0028.0049-.004.0061s-.0031.0026-.0061.0039c-.0035.0015-.0068.0019-.008.0019v-1.68c-.9168 0-1.66.7432-1.66 1.66zm-.02-.02c.0012 0 .0045.0004.008.0019.003.0013.0049.0028.0061.004s.0027.0031.004.0061c.0015.0035.0019.0068.0019.008h-1.68c0 .9168.7432 1.66 1.66 1.66z" fill="#ef4136" mask="url(#a)"/></svg>