<svg width="53" height="44" viewBox="0 0 53 44" fill="none" xmlns="http://www.w3.org/2000/svg">
<path fill-rule="evenodd" clip-rule="evenodd" d="M40.1654 18.3564L40.7398 20.5614C41.2665 22.583 43.3248 23.7929 45.3371 23.2638C47.3494 22.7346 48.5537 20.6668 48.027 18.6452L45.2232 7.8831L45.2183 7.85702C45.2007 7.76292 45.1794 7.66866 45.1543 7.57438C44.9104 6.6579 44.353 5.91173 43.6278 5.41884L43.6267 5.41803L43.6255 5.41723C42.7552 4.82089 41.6452 4.59314 40.548 4.88165C40.4476 4.90805 40.3494 4.93822 40.2534 4.97195L40.2266 4.98135L29.5483 7.8499C27.5388 8.38971 26.3454 10.4639 26.8827 12.4827C27.42 14.5015 29.4846 15.7005 31.4941 15.1607L33.6343 14.5857L30.0968 20.7414C29.0568 22.5512 29.674 24.8653 31.4754 25.9102C33.2768 26.955 35.5802 26.335 36.6203 24.5252L40.1654 18.3564ZM39.9008 20.3313L37.273 24.9038C36.0249 27.0758 33.2604 27.8199 31.0985 26.566C28.9366 25.312 28.1959 22.5347 29.4441 20.3628L32.0724 15.7892L31.6888 15.8922C31.4838 15.9473 31.2783 15.9873 31.0735 16.0129C28.8692 16.2883 26.7446 14.8952 26.1545 12.6783C25.5097 10.2555 26.9419 7.76621 29.3536 7.11837L40.0046 4.25718C40.1196 4.21675 40.2372 4.18064 40.3572 4.1491C41.6741 3.8028 43.0075 4.07714 44.0502 4.79165C44.92 5.38283 45.5899 6.27953 45.8824 7.37878C45.9124 7.49145 45.9379 7.60427 45.959 7.71704L48.7562 18.4534C49.3883 20.8797 47.9429 23.3613 45.5279 23.9963C43.3092 24.5798 41.0439 23.4016 40.2002 21.3248C40.1255 21.141 40.062 20.9503 40.0107 20.7531L39.9008 20.3313Z" fill="#38DE92"/>
<g filter="url(#filter0_f)">
<path fill-rule="evenodd" clip-rule="evenodd" d="M40.1654 18.3564L40.7398 20.5614C41.2665 22.583 43.3248 23.7929 45.3371 23.2638C47.3494 22.7346 48.5537 20.6668 48.027 18.6452L45.2232 7.8831L45.2183 7.85702C45.2007 7.76292 45.1794 7.66866 45.1543 7.57438C44.9104 6.6579 44.353 5.91173 43.6278 5.41884L43.6267 5.41803L43.6255 5.41723C42.7552 4.82089 41.6452 4.59314 40.548 4.88165C40.4476 4.90805 40.3494 4.93822 40.2534 4.97195L40.2266 4.98135L29.5483 7.8499C27.5388 8.38971 26.3454 10.4639 26.8827 12.4827C27.42 14.5015 29.4846 15.7005 31.4941 15.1607L33.6343 14.5857L30.0968 20.7414C29.0568 22.5512 29.674 24.8653 31.4754 25.9102C33.2768 26.955 35.5802 26.335 36.6203 24.5252L40.1654 18.3564ZM39.9008 20.3313L37.273 24.9038C36.0249 27.0758 33.2604 27.8199 31.0985 26.566C28.9366 25.312 28.1959 22.5347 29.4441 20.3628L32.0724 15.7892L31.6888 15.8922C31.4838 15.9473 31.2783 15.9873 31.0735 16.0129C28.8692 16.2883 26.7446 14.8952 26.1545 12.6783C25.5097 10.2555 26.9419 7.76621 29.3536 7.11837L40.0046 4.25718C40.1196 4.21675 40.2372 4.18064 40.3572 4.1491C41.6741 3.8028 43.0075 4.07714 44.0502 4.79165C44.92 5.38283 45.5899 6.27953 45.8824 7.37878C45.9124 7.49145 45.9379 7.60427 45.959 7.71704L48.7562 18.4534C49.3883 20.8797 47.9429 23.3613 45.5279 23.9963C43.3092 24.5798 41.0439 23.4016 40.2002 21.3248C40.1255 21.141 40.062 20.9503 40.0107 20.7531L39.9008 20.3313Z" fill="#38DE92"/>
</g>
<path fill-rule="evenodd" clip-rule="evenodd" d="M39.9764 19.7671L40.219 20.6983C40.821 23.0089 43.1735 24.3918 45.4734 23.787C47.7733 23.1822 49.1498 20.8188 48.5478 18.5082L45.7488 7.76448L45.7474 7.75703C45.7273 7.6496 45.703 7.54208 45.6744 7.43466C45.3957 6.38764 44.758 5.53394 43.9295 4.97085L43.9292 4.97062L43.9289 4.97039C42.9354 4.28964 41.6658 4.02861 40.4117 4.3584C40.2973 4.38847 40.1853 4.42288 40.0757 4.4614L40.068 4.46408L29.4092 7.32738C27.1125 7.94435 25.7484 10.315 26.3626 12.6224C26.9767 14.9298 29.3364 16.3002 31.6331 15.6832L32.5187 15.4453L29.6306 20.4709C28.4419 22.5394 29.1473 25.1844 31.2062 26.3786C33.2651 27.5728 35.8978 26.8641 37.0865 24.7956L39.9764 19.7671ZM37.273 24.9038C36.0249 27.0758 33.2604 27.8199 31.0985 26.566C28.9366 25.312 28.1959 22.5347 29.4441 20.3628L32.0724 15.7892L31.6888 15.8922C29.2771 16.5401 26.7994 15.1012 26.1545 12.6783C25.5097 10.2555 26.9419 7.76621 29.3536 7.11837L40.0046 4.25718C40.1196 4.21675 40.2372 4.18064 40.3572 4.1491C41.6741 3.8028 43.0075 4.07714 44.0502 4.79165C44.92 5.38283 45.5899 6.27953 45.8824 7.37878C45.9124 7.49145 45.9379 7.60427 45.959 7.71704L48.7562 18.4534C49.3883 20.8797 47.9429 23.3613 45.5279 23.9963C43.1129 24.6314 40.6428 23.1793 40.0107 20.7531L39.9008 20.3313L37.273 24.9038Z" fill="#38DE92"/>
<g filter="url(#filter1_f)">
<path fill-rule="evenodd" clip-rule="evenodd" d="M40.0142 19.4849L40.3232 20.6709C40.9101 22.9238 43.2037 24.272 45.4461 23.6824C47.6886 23.0927 49.0306 20.7884 48.4437 18.5356L45.6437 7.78821L45.6416 7.77703C45.622 7.67226 45.5983 7.5674 45.5704 7.46261C45.2986 6.44169 44.677 5.6095 43.8692 5.06044L43.8687 5.0601L43.8682 5.05975C42.8993 4.39589 41.6617 4.14152 40.439 4.46305C40.3274 4.49239 40.2181 4.52595 40.1112 4.56351L40.0997 4.56754L29.437 7.43188C27.1977 8.03342 25.8678 10.3448 26.4666 12.5945C27.0654 14.8442 29.366 16.1803 31.6053 15.5787L32.7418 15.2734L29.7238 20.525C28.5648 22.5418 29.2526 25.1205 31.26 26.2849C33.2674 27.4493 35.8343 26.7583 36.9933 24.7416L40.0142 19.4849ZM37.273 24.9038C36.0249 27.0758 33.2604 27.8199 31.0985 26.566C28.9366 25.312 28.1959 22.5347 29.4441 20.3628L32.0724 15.7892L31.6888 15.8922C31.6697 15.8973 31.6507 15.9023 31.6316 15.9072C29.2381 16.5173 26.7943 15.082 26.1545 12.6783C25.5097 10.2555 26.9419 7.76621 29.3536 7.11837L40.0046 4.25718C40.1196 4.21675 40.2372 4.18064 40.3572 4.1491C41.6741 3.8028 43.0075 4.07714 44.0502 4.79165C44.92 5.38283 45.5899 6.27953 45.8824 7.37878C45.9124 7.49145 45.9379 7.60427 45.959 7.71704L48.7562 18.4534C49.3883 20.8797 47.9429 23.3613 45.5279 23.9963C43.1211 24.6292 40.6596 23.1892 40.0172 20.7778C40.015 20.7696 40.0128 20.7614 40.0107 20.7531L39.9008 20.3313L37.273 24.9038Z" fill="#38DE92"/>
</g>
<path fill-rule="evenodd" clip-rule="evenodd" d="M40.1654 18.3564L40.7398 20.5614C41.2665 22.583 43.3248 23.7929 45.3371 23.2638C47.3494 22.7346 48.5537 20.6668 48.027 18.6452L45.2232 7.8831L45.2183 7.85702C45.2007 7.76292 45.1794 7.66866 45.1543 7.57438C44.9104 6.6579 44.353 5.91173 43.6278 5.41884L43.6267 5.41803L43.6255 5.41723C42.7552 4.82089 41.6452 4.59314 40.548 4.88165C40.4476 4.90805 40.3494 4.93822 40.2534 4.97195L40.2266 4.98135L29.5483 7.8499C27.5388 8.38971 26.3454 10.4639 26.8827 12.4827C27.42 14.5015 29.4846 15.7005 31.4941 15.1607L33.6343 14.5857L30.0968 20.7414C29.0568 22.5512 29.674 24.8653 31.4754 25.9102C33.2768 26.955 35.5802 26.335 36.6203 24.5252L40.1654 18.3564ZM39.9008 20.3313L37.273 24.9038C36.0249 27.0758 33.2604 27.8199 31.0985 26.566C28.9366 25.312 28.1959 22.5347 29.4441 20.3628L32.0724 15.7892L31.6888 15.8922C31.4838 15.9473 31.2783 15.9873 31.0735 16.0129C28.8692 16.2883 26.7446 14.8952 26.1545 12.6783C25.5097 10.2555 26.9419 7.76621 29.3536 7.11837L40.0046 4.25718C40.1196 4.21675 40.2372 4.18064 40.3572 4.1491C41.6741 3.8028 43.0075 4.07714 44.0502 4.79165C44.92 5.38283 45.5899 6.27953 45.8824 7.37878C45.9124 7.49145 45.9379 7.60427 45.959 7.71704L48.7562 18.4534C49.3883 20.8797 47.9429 23.3613 45.5279 23.9963C43.3092 24.5798 41.0439 23.4016 40.2002 21.3248C40.1255 21.141 40.062 20.9503 40.0107 20.7531L39.9008 20.3313Z" fill="#38DE92"/>
<g filter="url(#filter2_f)">
<path fill-rule="evenodd" clip-rule="evenodd" d="M40.1654 18.3564L40.7398 20.5614C41.2665 22.583 43.3248 23.7929 45.3371 23.2638C47.3494 22.7346 48.5537 20.6668 48.027 18.6452L45.2232 7.8831L45.2183 7.85702C45.2007 7.76292 45.1794 7.66866 45.1543 7.57438C44.9104 6.6579 44.353 5.91173 43.6278 5.41884L43.6267 5.41803L43.6255 5.41723C42.7552 4.82089 41.6452 4.59314 40.548 4.88165C40.4476 4.90805 40.3494 4.93822 40.2534 4.97195L40.2266 4.98135L29.5483 7.8499C27.5388 8.38971 26.3454 10.4639 26.8827 12.4827C27.42 14.5015 29.4846 15.7005 31.4941 15.1607L33.6343 14.5857L30.0968 20.7414C29.0568 22.5512 29.674 24.8653 31.4754 25.9102C33.2768 26.955 35.5802 26.335 36.6203 24.5252L40.1654 18.3564ZM39.9008 20.3313L37.273 24.9038C36.0249 27.0758 33.2604 27.8199 31.0985 26.566C28.9366 25.312 28.1959 22.5347 29.4441 20.3628L32.0724 15.7892L31.6888 15.8922C31.4838 15.9473 31.2783 15.9873 31.0735 16.0129C28.8692 16.2883 26.7446 14.8952 26.1545 12.6783C25.5097 10.2555 26.9419 7.76621 29.3536 7.11837L40.0046 4.25718C40.1196 4.21675 40.2372 4.18064 40.3572 4.1491C41.6741 3.8028 43.0075 4.07714 44.0502 4.79165C44.92 5.38283 45.5899 6.27953 45.8824 7.37878C45.9124 7.49145 45.9379 7.60427 45.959 7.71704L48.7562 18.4534C49.3883 20.8797 47.9429 23.3613 45.5279 23.9963C43.3092 24.5798 41.0439 23.4016 40.2002 21.3248C40.1255 21.141 40.062 20.9503 40.0107 20.7531L39.9008 20.3313Z" fill="#38DE92"/>
</g>
<path fill-rule="evenodd" clip-rule="evenodd" d="M39.9764 19.7671L40.219 20.6983C40.821 23.0089 43.1735 24.3918 45.4734 23.787C47.7733 23.1822 49.1498 20.8188 48.5478 18.5082L45.7488 7.76448L45.7474 7.75703C45.7273 7.6496 45.703 7.54208 45.6744 7.43466C45.3957 6.38764 44.758 5.53394 43.9295 4.97085L43.9292 4.97062L43.9289 4.97039C42.9354 4.28964 41.6658 4.02861 40.4117 4.3584C40.2973 4.38847 40.1853 4.42288 40.0757 4.4614L40.068 4.46408L29.4092 7.32738C27.1125 7.94435 25.7484 10.315 26.3626 12.6224C26.9767 14.9298 29.3364 16.3002 31.6331 15.6832L32.5187 15.4453L29.6306 20.4709C28.4419 22.5394 29.1473 25.1844 31.2062 26.3786C33.2651 27.5728 35.8978 26.8641 37.0865 24.7956L39.9764 19.7671ZM37.273 24.9038C36.0249 27.0758 33.2604 27.8199 31.0985 26.566C28.9366 25.312 28.1959 22.5347 29.4441 20.3628L32.0724 15.7892L31.6888 15.8922C29.2771 16.5401 26.7994 15.1012 26.1545 12.6783C25.5097 10.2555 26.9419 7.76621 29.3536 7.11837L40.0046 4.25718C40.1196 4.21675 40.2372 4.18064 40.3572 4.1491C41.6741 3.8028 43.0075 4.07714 44.0502 4.79165C44.92 5.38283 45.5899 6.27953 45.8824 7.37878C45.9124 7.49145 45.9379 7.60427 45.959 7.71704L48.7562 18.4534C49.3883 20.8797 47.9429 23.3613 45.5279 23.9963C43.1129 24.6314 40.6428 23.1793 40.0107 20.7531L39.9008 20.3313L37.273 24.9038Z" fill="#38DE92"/>
<g filter="url(#filter3_f)">
<path fill-rule="evenodd" clip-rule="evenodd" d="M40.0142 19.4849L40.3232 20.6709C40.9101 22.9238 43.2037 24.272 45.4461 23.6824C47.6886 23.0927 49.0306 20.7884 48.4437 18.5356L45.6437 7.78821L45.6416 7.77703C45.622 7.67226 45.5983 7.5674 45.5704 7.46261C45.2986 6.44169 44.677 5.6095 43.8692 5.06044L43.8687 5.0601L43.8682 5.05975C42.8993 4.39589 41.6617 4.14152 40.439 4.46305C40.3274 4.49239 40.2181 4.52595 40.1112 4.56351L40.0997 4.56754L29.437 7.43188C27.1977 8.03342 25.8678 10.3448 26.4666 12.5945C27.0654 14.8442 29.366 16.1803 31.6053 15.5787L32.7418 15.2734L29.7238 20.525C28.5648 22.5418 29.2526 25.1205 31.26 26.2849C33.2674 27.4493 35.8343 26.7583 36.9933 24.7416L40.0142 19.4849ZM37.273 24.9038C36.0249 27.0758 33.2604 27.8199 31.0985 26.566C28.9366 25.312 28.1959 22.5347 29.4441 20.3628L32.0724 15.7892L31.6888 15.8922C31.6697 15.8973 31.6507 15.9023 31.6316 15.9072C29.2381 16.5173 26.7943 15.082 26.1545 12.6783C25.5097 10.2555 26.9419 7.76621 29.3536 7.11837L40.0046 4.25718C40.1196 4.21675 40.2372 4.18064 40.3572 4.1491C41.6741 3.8028 43.0075 4.07714 44.0502 4.79165C44.92 5.38283 45.5899 6.27953 45.8824 7.37878C45.9124 7.49145 45.9379 7.60427 45.959 7.71704L48.7562 18.4534C49.3883 20.8797 47.9429 23.3613 45.5279 23.9963C43.1211 24.6292 40.6596 23.1892 40.0172 20.7778C40.015 20.7696 40.0128 20.7614 40.0107 20.7531L39.9008 20.3313L37.273 24.9038Z" fill="#38DE92"/>
</g>
<path fill-rule="evenodd" clip-rule="evenodd" d="M39.9764 19.7671L40.219 20.6983C40.821 23.0089 43.1735 24.3918 45.4734 23.787C47.7733 23.1822 49.1498 20.8188 48.5478 18.5082L45.7488 7.76448L45.7474 7.75703C45.7273 7.6496 45.703 7.54208 45.6744 7.43466C45.3957 6.38764 44.758 5.53394 43.9295 4.97085L43.9292 4.97062L43.9289 4.97039C42.9354 4.28964 41.6658 4.02861 40.4117 4.3584C40.2973 4.38847 40.1853 4.42288 40.0757 4.4614L40.068 4.46408L29.4092 7.32738C27.1125 7.94435 25.7484 10.315 26.3626 12.6224C26.9767 14.9298 29.3364 16.3002 31.6331 15.6832L32.5187 15.4453L29.6306 20.4709C28.4419 22.5394 29.1473 25.1844 31.2062 26.3786C33.2651 27.5728 35.8978 26.8641 37.0865 24.7956L39.9764 19.7671ZM37.273 24.9038C36.0249 27.0758 33.2604 27.8199 31.0985 26.566C28.9366 25.312 28.1959 22.5347 29.4441 20.3628L32.0724 15.7892L31.6888 15.8922C29.2771 16.5401 26.7994 15.1012 26.1545 12.6783C25.5097 10.2555 26.9419 7.76621 29.3536 7.11837L40.0046 4.25718C40.1196 4.21675 40.2372 4.18064 40.3572 4.1491C41.6741 3.8028 43.0075 4.07714 44.0502 4.79165C44.92 5.38283 45.5899 6.27953 45.8824 7.37878C45.9124 7.49145 45.9379 7.60427 45.959 7.71704L48.7562 18.4534C49.3883 20.8797 47.9429 23.3613 45.5279 23.9963C43.1129 24.6314 40.6428 23.1793 40.0107 20.7531L39.9008 20.3313L37.273 24.9038Z" fill="#38DE92"/>
<g filter="url(#filter4_f)">
<path fill-rule="evenodd" clip-rule="evenodd" d="M40.0142 19.4849L40.3232 20.6709C40.9101 22.9238 43.2037 24.272 45.4461 23.6824C47.6886 23.0927 49.0306 20.7884 48.4437 18.5356L45.6437 7.78821L45.6416 7.77703C45.622 7.67226 45.5983 7.5674 45.5704 7.46261C45.2986 6.44169 44.677 5.6095 43.8692 5.06044L43.8687 5.0601L43.8682 5.05975C42.8993 4.39589 41.6617 4.14152 40.439 4.46305C40.3274 4.49239 40.2181 4.52595 40.1112 4.56351L40.0997 4.56754L29.437 7.43188C27.1977 8.03342 25.8678 10.3448 26.4666 12.5945C27.0654 14.8442 29.366 16.1803 31.6053 15.5787L32.7418 15.2734L29.7238 20.525C28.5648 22.5418 29.2526 25.1205 31.26 26.2849C33.2674 27.4493 35.8343 26.7583 36.9933 24.7416L40.0142 19.4849ZM37.273 24.9038C36.0249 27.0758 33.2604 27.8199 31.0985 26.566C28.9366 25.312 28.1959 22.5347 29.4441 20.3628L32.0724 15.7892L31.6888 15.8922C31.6697 15.8973 31.6507 15.9023 31.6316 15.9072C29.2381 16.5173 26.7943 15.082 26.1545 12.6783C25.5097 10.2555 26.9419 7.76621 29.3536 7.11837L40.0046 4.25718C40.1196 4.21675 40.2372 4.18064 40.3572 4.1491C41.6741 3.8028 43.0075 4.07714 44.0502 4.79165C44.92 5.38283 45.5899 6.27953 45.8824 7.37878C45.9124 7.49145 45.9379 7.60427 45.959 7.71704L48.7562 18.4534C49.3883 20.8797 47.9429 23.3613 45.5279 23.9963C43.1211 24.6292 40.6596 23.1892 40.0172 20.7778C40.015 20.7696 40.0128 20.7614 40.0107 20.7531L39.9008 20.3313L37.273 24.9038Z" fill="#38DE92"/>
</g>
<path fill-rule="evenodd" clip-rule="evenodd" d="M18.3327 31.526L18.9139 33.757C19.4468 35.8025 21.5294 37.0267 23.5655 36.4913C25.6015 35.9559 26.8201 33.8637 26.2872 31.8181L23.4502 20.929L23.4453 20.9026C23.4275 20.8074 23.4059 20.712 23.3805 20.6166C23.1337 19.6892 22.5698 18.9342 21.8359 18.4355L21.8347 18.4347L21.8335 18.4339C20.953 17.8306 19.8299 17.6002 18.7198 17.8921C18.6183 17.9188 18.5189 17.9493 18.4218 17.9834L18.3947 17.9929L7.59019 20.8954C5.55697 21.4416 4.34944 23.5402 4.89311 25.5829C5.43677 27.6256 7.52575 28.8387 9.55897 28.2925L11.7245 27.7108L8.1452 33.9391C7.09288 35.7703 7.71737 38.1117 9.54005 39.169C11.3627 40.2262 13.6934 39.5988 14.7457 37.7676L18.3327 31.526ZM18.0649 33.5242L15.4062 38.1507C14.1433 40.3483 11.3462 41.1013 9.15874 39.8325C6.97129 38.5637 6.22182 35.7536 7.48474 33.556L10.1441 28.9284L9.75597 29.0327C9.54855 29.0884 9.34065 29.1289 9.13345 29.1548C6.90304 29.4335 4.75336 28.0239 4.15635 25.7808C3.50389 23.3294 4.95307 20.8107 7.39319 20.1552L18.17 17.2602C18.2864 17.2193 18.4053 17.1828 18.5267 17.1509C19.8592 16.8005 21.2082 17.078 22.2632 17.8009C23.1434 18.3991 23.8212 19.3064 24.1173 20.4187C24.1476 20.5327 24.1734 20.6468 24.1948 20.7609L27.0249 31.6241C27.6645 34.079 26.2021 36.59 23.7586 37.2325C21.5136 37.8228 19.2216 36.6307 18.3679 34.5294C18.2924 34.3435 18.2281 34.1505 18.1761 33.951L18.0649 33.5242Z" fill="#FDBA1A"/>
<g filter="url(#filter5_f)">
<path fill-rule="evenodd" clip-rule="evenodd" d="M18.3327 31.526L18.9139 33.757C19.4468 35.8025 21.5294 37.0267 23.5655 36.4913C25.6015 35.9559 26.8201 33.8637 26.2872 31.8181L23.4502 20.929L23.4453 20.9026C23.4275 20.8074 23.4059 20.712 23.3805 20.6166C23.1337 19.6892 22.5698 18.9342 21.8359 18.4355L21.8347 18.4347L21.8335 18.4339C20.953 17.8306 19.8299 17.6002 18.7198 17.8921C18.6183 17.9188 18.5189 17.9493 18.4218 17.9834L18.3947 17.9929L7.59019 20.8954C5.55697 21.4416 4.34944 23.5402 4.89311 25.5829C5.43677 27.6256 7.52575 28.8387 9.55897 28.2925L11.7245 27.7108L8.1452 33.9391C7.09288 35.7703 7.71737 38.1117 9.54005 39.169C11.3627 40.2262 13.6934 39.5988 14.7457 37.7676L18.3327 31.526ZM18.0649 33.5242L15.4062 38.1507C14.1433 40.3483 11.3462 41.1013 9.15874 39.8325C6.97129 38.5637 6.22182 35.7536 7.48474 33.556L10.1441 28.9284L9.75597 29.0327C9.54855 29.0884 9.34065 29.1289 9.13345 29.1548C6.90304 29.4335 4.75336 28.0239 4.15635 25.7808C3.50389 23.3294 4.95307 20.8107 7.39319 20.1552L18.17 17.2602C18.2864 17.2193 18.4053 17.1828 18.5267 17.1509C19.8592 16.8005 21.2082 17.078 22.2632 17.8009C23.1434 18.3991 23.8212 19.3064 24.1173 20.4187C24.1476 20.5327 24.1734 20.6468 24.1948 20.7609L27.0249 31.6241C27.6645 34.079 26.2021 36.59 23.7586 37.2325C21.5136 37.8228 19.2216 36.6307 18.3679 34.5294C18.2924 34.3435 18.2281 34.1505 18.1761 33.951L18.0649 33.5242Z" fill="#FDBA1A"/>
</g>
<path fill-rule="evenodd" clip-rule="evenodd" d="M18.1414 32.9533L18.3869 33.8955C18.996 36.2335 21.3763 37.6327 23.7034 37.0207C26.0305 36.4088 27.4232 34.0175 26.8141 31.6796L23.982 20.8089L23.9806 20.8014C23.9603 20.6927 23.9357 20.5839 23.9068 20.4752C23.6248 19.4158 22.9795 18.552 22.1411 17.9822L22.1408 17.982L22.1405 17.9817C21.1353 17.293 19.8508 17.029 18.5819 17.3626C18.4662 17.3931 18.3528 17.4279 18.2419 17.4668L18.2342 17.4696L7.44948 20.3667C5.12561 20.9909 3.74548 23.3896 4.36685 25.7243C4.98823 28.0589 7.37582 29.4455 9.69968 28.8212L10.5957 28.5805L7.67344 33.6655C6.47069 35.7584 7.18446 38.4346 9.26768 39.6429C11.3509 40.8512 14.0147 40.1342 15.2175 38.0413L18.1414 32.9533ZM15.4062 38.1507C14.1433 40.3483 11.3462 41.1013 9.15874 39.8325C6.97129 38.5637 6.22182 35.7536 7.48474 33.556L10.1441 28.9284L9.75597 29.0327C7.31585 29.6882 4.80882 28.2323 4.15635 25.7808C3.50389 23.3294 4.95307 20.8107 7.39319 20.1552L18.17 17.2602C18.2864 17.2193 18.4053 17.1828 18.5267 17.1509C19.8592 16.8005 21.2082 17.078 22.2632 17.8009C23.1434 18.3991 23.8212 19.3064 24.1173 20.4187C24.1476 20.5327 24.1734 20.6468 24.1948 20.7609L27.0249 31.6241C27.6645 34.079 26.2021 36.59 23.7586 37.2325C21.315 37.875 18.8157 36.4058 18.1761 33.951L18.0649 33.5242L15.4062 38.1507Z" fill="#FDBA1A"/>
<g filter="url(#filter6_f)">
<path fill-rule="evenodd" clip-rule="evenodd" d="M18.1797 32.6678L18.4923 33.8678C19.0862 36.1473 21.4069 37.5115 23.6758 36.9148C25.9447 36.3182 27.3026 33.9867 26.7087 31.7073L23.8757 20.833L23.8736 20.8216C23.8537 20.7156 23.8297 20.6095 23.8015 20.5035C23.5266 19.4705 22.8975 18.6284 22.0801 18.0729L22.0796 18.0725L22.0791 18.0722C21.0988 17.4005 19.8466 17.1432 18.6095 17.4685C18.4966 17.4982 18.386 17.5322 18.2779 17.5702L18.2663 17.5742L7.47762 20.4724C5.21188 21.0811 3.86627 23.4197 4.4721 25.696C5.07794 27.9723 7.4058 29.3241 9.67154 28.7155L10.8214 28.4066L7.76779 33.7202C6.59513 35.7608 7.29104 38.37 9.32216 39.5481C11.3533 40.7262 13.9505 40.0271 15.1231 37.9865L18.1797 32.6678ZM15.4062 38.1507C14.1433 40.3483 11.3462 41.1013 9.15874 39.8325C6.97129 38.5637 6.22182 35.7536 7.48474 33.556L10.1441 28.9284L9.75597 29.0327C9.73669 29.0379 9.7174 29.0429 9.69811 29.0478C7.27634 29.6651 4.80366 28.2129 4.15635 25.7808C3.50389 23.3294 4.95307 20.8107 7.39319 20.1552L18.17 17.2602C18.2864 17.2193 18.4053 17.1828 18.5267 17.1509C19.8592 16.8005 21.2082 17.078 22.2632 17.8009C23.1434 18.3991 23.8212 19.3064 24.1173 20.4187C24.1476 20.5327 24.1734 20.6468 24.1948 20.7609L27.0249 31.6241C27.6645 34.079 26.2021 36.59 23.7586 37.2325C21.3234 37.8729 18.8327 36.4158 18.1827 33.976C18.1805 33.9677 18.1783 33.9593 18.1761 33.951L18.0649 33.5242L15.4062 38.1507Z" fill="#FDBA1A"/>
</g>
<path fill-rule="evenodd" clip-rule="evenodd" d="M18.1414 32.9533L18.3869 33.8955C18.996 36.2335 21.3763 37.6327 23.7034 37.0207C26.0305 36.4088 27.4232 34.0175 26.8141 31.6796L23.982 20.8089L23.9806 20.8014C23.9603 20.6927 23.9357 20.5839 23.9068 20.4752C23.6248 19.4158 22.9795 18.552 22.1411 17.9822L22.1408 17.982L22.1405 17.9817C21.1353 17.293 19.8508 17.029 18.5819 17.3626C18.4662 17.3931 18.3528 17.4279 18.2419 17.4668L18.2342 17.4696L7.44948 20.3667C5.12561 20.9909 3.74548 23.3896 4.36685 25.7243C4.98823 28.0589 7.37582 29.4455 9.69968 28.8212L10.5957 28.5805L7.67344 33.6655C6.47069 35.7584 7.18446 38.4346 9.26768 39.6429C11.3509 40.8512 14.0147 40.1342 15.2175 38.0413L18.1414 32.9533ZM15.4062 38.1507C14.1433 40.3483 11.3462 41.1013 9.15874 39.8325C6.97129 38.5637 6.22182 35.7536 7.48474 33.556L10.1441 28.9284L9.75597 29.0327C7.31585 29.6882 4.80882 28.2323 4.15635 25.7808C3.50389 23.3294 4.95307 20.8107 7.39319 20.1552L18.17 17.2602C18.2864 17.2193 18.4053 17.1828 18.5267 17.1509C19.8592 16.8005 21.2082 17.078 22.2632 17.8009C23.1434 18.3991 23.8212 19.3064 24.1173 20.4187C24.1476 20.5327 24.1734 20.6468 24.1948 20.7609L27.0249 31.6241C27.6645 34.079 26.2021 36.59 23.7586 37.2325C21.315 37.875 18.8157 36.4058 18.1761 33.951L18.0649 33.5242L15.4062 38.1507Z" fill="#FDBA1A"/>
<g filter="url(#filter7_f)">
<path fill-rule="evenodd" clip-rule="evenodd" d="M18.1797 32.6678L18.4923 33.8678C19.0862 36.1473 21.4069 37.5115 23.6758 36.9148C25.9447 36.3182 27.3026 33.9867 26.7087 31.7073L23.8757 20.833L23.8736 20.8216C23.8537 20.7156 23.8297 20.6095 23.8015 20.5035C23.5266 19.4705 22.8975 18.6284 22.0801 18.0729L22.0796 18.0725L22.0791 18.0722C21.0988 17.4005 19.8466 17.1432 18.6095 17.4685C18.4966 17.4982 18.386 17.5322 18.2779 17.5702L18.2663 17.5742L7.47762 20.4724C5.21188 21.0811 3.86627 23.4197 4.4721 25.696C5.07794 27.9723 7.4058 29.3241 9.67154 28.7155L10.8214 28.4066L7.76779 33.7202C6.59513 35.7608 7.29104 38.37 9.32216 39.5481C11.3533 40.7262 13.9505 40.0271 15.1231 37.9865L18.1797 32.6678ZM15.4062 38.1507C14.1433 40.3483 11.3462 41.1013 9.15874 39.8325C6.97129 38.5637 6.22182 35.7536 7.48474 33.556L10.1441 28.9284L9.75597 29.0327C9.73669 29.0379 9.7174 29.0429 9.69811 29.0478C7.27634 29.6651 4.80366 28.2129 4.15635 25.7808C3.50389 23.3294 4.95307 20.8107 7.39319 20.1552L18.17 17.2602C18.2864 17.2193 18.4053 17.1828 18.5267 17.1509C19.8592 16.8005 21.2082 17.078 22.2632 17.8009C23.1434 18.3991 23.8212 19.3064 24.1173 20.4187C24.1476 20.5327 24.1734 20.6468 24.1948 20.7609L27.0249 31.6241C27.6645 34.079 26.2021 36.59 23.7586 37.2325C21.3234 37.8729 18.8327 36.4158 18.1827 33.976C18.1805 33.9677 18.1783 33.9593 18.1761 33.951L18.0649 33.5242L15.4062 38.1507Z" fill="#FDBA1A"/>
</g>
<path fill-rule="evenodd" clip-rule="evenodd" d="M18.1414 32.9533L18.3869 33.8955C18.996 36.2335 21.3763 37.6327 23.7034 37.0207C26.0305 36.4088 27.4232 34.0175 26.8141 31.6796L23.982 20.8089L23.9806 20.8014C23.9603 20.6927 23.9357 20.5839 23.9068 20.4752C23.6248 19.4158 22.9795 18.552 22.1411 17.9822L22.1408 17.982L22.1405 17.9817C21.1353 17.293 19.8508 17.029 18.5819 17.3626C18.4662 17.3931 18.3528 17.4279 18.2419 17.4668L18.2342 17.4696L7.44948 20.3667C5.12561 20.9909 3.74548 23.3896 4.36685 25.7243C4.98823 28.0589 7.37582 29.4455 9.69968 28.8212L10.5957 28.5805L7.67344 33.6655C6.47069 35.7584 7.18446 38.4346 9.26768 39.6429C11.3509 40.8512 14.0147 40.1342 15.2175 38.0413L18.1414 32.9533ZM15.4062 38.1507C14.1433 40.3483 11.3462 41.1013 9.15874 39.8325C6.97129 38.5637 6.22182 35.7536 7.48474 33.556L10.1441 28.9284L9.75597 29.0327C7.31585 29.6882 4.80882 28.2323 4.15635 25.7808C3.50389 23.3294 4.95307 20.8107 7.39319 20.1552L18.17 17.2602C18.2864 17.2193 18.4053 17.1828 18.5267 17.1509C19.8592 16.8005 21.2082 17.078 22.2632 17.8009C23.1434 18.3991 23.8212 19.3064 24.1173 20.4187C24.1476 20.5327 24.1734 20.6468 24.1948 20.7609L27.0249 31.6241C27.6645 34.079 26.2021 36.59 23.7586 37.2325C21.315 37.875 18.8157 36.4058 18.1761 33.951L18.0649 33.5242L15.4062 38.1507Z" fill="#FDBA1A"/>
<g filter="url(#filter8_f)">
<path fill-rule="evenodd" clip-rule="evenodd" d="M18.1797 32.6678L18.4923 33.8678C19.0862 36.1473 21.4069 37.5115 23.6758 36.9148C25.9447 36.3182 27.3026 33.9867 26.7087 31.7073L23.8757 20.833L23.8736 20.8216C23.8537 20.7156 23.8297 20.6095 23.8015 20.5035C23.5266 19.4705 22.8975 18.6284 22.0801 18.0729L22.0796 18.0725L22.0791 18.0722C21.0988 17.4005 19.8466 17.1432 18.6095 17.4685C18.4966 17.4982 18.386 17.5322 18.2779 17.5702L18.2663 17.5742L7.47762 20.4724C5.21188 21.0811 3.86627 23.4197 4.4721 25.696C5.07794 27.9723 7.4058 29.3241 9.67154 28.7155L10.8214 28.4066L7.76779 33.7202C6.59513 35.7608 7.29104 38.37 9.32216 39.5481C11.3533 40.7262 13.9505 40.0271 15.1231 37.9865L18.1797 32.6678ZM15.4062 38.1507C14.1433 40.3483 11.3462 41.1013 9.15874 39.8325C6.97129 38.5637 6.22182 35.7536 7.48474 33.556L10.1441 28.9284L9.75597 29.0327C9.73669 29.0379 9.7174 29.0429 9.69811 29.0478C7.27634 29.6651 4.80366 28.2129 4.15635 25.7808C3.50389 23.3294 4.95307 20.8107 7.39319 20.1552L18.17 17.2602C18.2864 17.2193 18.4053 17.1828 18.5267 17.1509C19.8592 16.8005 21.2082 17.078 22.2632 17.8009C23.1434 18.3991 23.8212 19.3064 24.1173 20.4187C24.1476 20.5327 24.1734 20.6468 24.1948 20.7609L27.0249 31.6241C27.6645 34.079 26.2021 36.59 23.7586 37.2325C21.3234 37.8729 18.8327 36.4158 18.1827 33.976C18.1805 33.9677 18.1783 33.9593 18.1761 33.951L18.0649 33.5242L15.4062 38.1507Z" fill="#FDBA1A"/>
</g>
<path fill-rule="evenodd" clip-rule="evenodd" d="M18.1414 32.9533L18.3869 33.8955C18.996 36.2335 21.3763 37.6327 23.7034 37.0207C26.0305 36.4088 27.4232 34.0175 26.8141 31.6796L23.982 20.8089L23.9806 20.8014C23.9603 20.6927 23.9357 20.5839 23.9068 20.4752C23.6248 19.4158 22.9795 18.552 22.1411 17.9822L22.1408 17.982L22.1405 17.9817C21.1353 17.293 19.8508 17.029 18.5819 17.3626C18.4662 17.3931 18.3528 17.4279 18.2419 17.4668L18.2342 17.4696L7.44948 20.3667C5.12561 20.9909 3.74548 23.3896 4.36685 25.7243C4.98823 28.0589 7.37582 29.4455 9.69968 28.8212L10.5957 28.5805L7.67344 33.6655C6.47069 35.7584 7.18446 38.4346 9.26768 39.6429C11.3509 40.8512 14.0147 40.1342 15.2175 38.0413L18.1414 32.9533ZM15.4062 38.1507C14.1433 40.3483 11.3462 41.1013 9.15874 39.8325C6.97129 38.5637 6.22182 35.7536 7.48474 33.556L10.1441 28.9284L9.75597 29.0327C7.31585 29.6882 4.80882 28.2323 4.15635 25.7808C3.50389 23.3294 4.95307 20.8107 7.39319 20.1552L18.17 17.2602C18.2864 17.2193 18.4053 17.1828 18.5267 17.1509C19.8592 16.8005 21.2082 17.078 22.2632 17.8009C23.1434 18.3991 23.8212 19.3064 24.1173 20.4187C24.1476 20.5327 24.1734 20.6468 24.1948 20.7609L27.0249 31.6241C27.6645 34.079 26.2021 36.59 23.7586 37.2325C21.315 37.875 18.8157 36.4058 18.1761 33.951L18.0649 33.5242L15.4062 38.1507Z" fill="#FDBA1A"/>
<g filter="url(#filter9_f)">
<path fill-rule="evenodd" clip-rule="evenodd" d="M18.1797 32.6678L18.4923 33.8678C19.0862 36.1473 21.4069 37.5115 23.6758 36.9148C25.9447 36.3182 27.3026 33.9867 26.7087 31.7073L23.8757 20.833L23.8736 20.8216C23.8537 20.7156 23.8297 20.6095 23.8015 20.5035C23.5266 19.4705 22.8975 18.6284 22.0801 18.0729L22.0796 18.0725L22.0791 18.0722C21.0988 17.4005 19.8466 17.1432 18.6095 17.4685C18.4966 17.4982 18.386 17.5322 18.2779 17.5702L18.2663 17.5742L7.47762 20.4724C5.21188 21.0811 3.86627 23.4197 4.4721 25.696C5.07794 27.9723 7.4058 29.3241 9.67154 28.7155L10.8214 28.4066L7.76779 33.7202C6.59513 35.7608 7.29104 38.37 9.32216 39.5481C11.3533 40.7262 13.9505 40.0271 15.1231 37.9865L18.1797 32.6678ZM15.4062 38.1507C14.1433 40.3483 11.3462 41.1013 9.15874 39.8325C6.97129 38.5637 6.22182 35.7536 7.48474 33.556L10.1441 28.9284L9.75597 29.0327C9.73669 29.0379 9.7174 29.0429 9.69811 29.0478C7.27634 29.6651 4.80366 28.2129 4.15635 25.7808C3.50389 23.3294 4.95307 20.8107 7.39319 20.1552L18.17 17.2602C18.2864 17.2193 18.4053 17.1828 18.5267 17.1509C19.8592 16.8005 21.2082 17.078 22.2632 17.8009C23.1434 18.3991 23.8212 19.3064 24.1173 20.4187C24.1476 20.5327 24.1734 20.6468 24.1948 20.7609L27.0249 31.6241C27.6645 34.079 26.2021 36.59 23.7586 37.2325C21.3234 37.8729 18.8327 36.4158 18.1827 33.976C18.1805 33.9677 18.1783 33.9593 18.1761 33.951L18.0649 33.5242L15.4062 38.1507Z" fill="#FDBA1A"/>
</g>
<path fill-rule="evenodd" clip-rule="evenodd" d="M18.1414 32.9533L18.3869 33.8955C18.996 36.2335 21.3763 37.6327 23.7034 37.0207C26.0305 36.4088 27.4232 34.0175 26.8141 31.6796L23.982 20.8089L23.9806 20.8014C23.9603 20.6927 23.9357 20.5839 23.9068 20.4752C23.6248 19.4158 22.9795 18.552 22.1411 17.9822L22.1408 17.982L22.1405 17.9817C21.1353 17.293 19.8508 17.029 18.5819 17.3626C18.4662 17.3931 18.3528 17.4279 18.2419 17.4668L18.2342 17.4696L7.44948 20.3667C5.12561 20.9909 3.74548 23.3896 4.36685 25.7243C4.98823 28.0589 7.37582 29.4455 9.69968 28.8212L10.5957 28.5805L7.67344 33.6655C6.47069 35.7584 7.18446 38.4346 9.26768 39.6429C11.3509 40.8512 14.0147 40.1342 15.2175 38.0413L18.1414 32.9533ZM15.4062 38.1507C14.1433 40.3483 11.3462 41.1013 9.15874 39.8325C6.97129 38.5637 6.22182 35.7536 7.48474 33.556L10.1441 28.9284L9.75597 29.0327C7.31585 29.6882 4.80882 28.2323 4.15635 25.7808C3.50389 23.3294 4.95307 20.8107 7.39319 20.1552L18.17 17.2602C18.2864 17.2193 18.4053 17.1828 18.5267 17.1509C19.8592 16.8005 21.2082 17.078 22.2632 17.8009C23.1434 18.3991 23.8212 19.3064 24.1173 20.4187C24.1476 20.5327 24.1734 20.6468 24.1948 20.7609L27.0249 31.6241C27.6645 34.079 26.2021 36.59 23.7586 37.2325C21.315 37.875 18.8157 36.4058 18.1761 33.951L18.0649 33.5242L15.4062 38.1507Z" fill="#FDBA1A"/>
<g filter="url(#filter10_f)">
<path fill-rule="evenodd" clip-rule="evenodd" d="M18.1797 32.6678L18.4923 33.8678C19.0862 36.1473 21.4069 37.5115 23.6758 36.9148C25.9447 36.3182 27.3026 33.9867 26.7087 31.7073L23.8757 20.833L23.8736 20.8216C23.8537 20.7156 23.8297 20.6095 23.8015 20.5035C23.5266 19.4705 22.8975 18.6284 22.0801 18.0729L22.0796 18.0725L22.0791 18.0722C21.0988 17.4005 19.8466 17.1432 18.6095 17.4685C18.4966 17.4982 18.386 17.5322 18.2779 17.5702L18.2663 17.5742L7.47762 20.4724C5.21188 21.0811 3.86627 23.4197 4.4721 25.696C5.07794 27.9723 7.4058 29.3241 9.67154 28.7155L10.8214 28.4066L7.76779 33.7202C6.59513 35.7608 7.29104 38.37 9.32216 39.5481C11.3533 40.7262 13.9505 40.0271 15.1231 37.9865L18.1797 32.6678ZM15.4062 38.1507C14.1433 40.3483 11.3462 41.1013 9.15874 39.8325C6.97129 38.5637 6.22182 35.7536 7.48474 33.556L10.1441 28.9284L9.75597 29.0327C9.73669 29.0379 9.7174 29.0429 9.69811 29.0478C7.27634 29.6651 4.80366 28.2129 4.15635 25.7808C3.50389 23.3294 4.95307 20.8107 7.39319 20.1552L18.17 17.2602C18.2864 17.2193 18.4053 17.1828 18.5267 17.1509C19.8592 16.8005 21.2082 17.078 22.2632 17.8009C23.1434 18.3991 23.8212 19.3064 24.1173 20.4187C24.1476 20.5327 24.1734 20.6468 24.1948 20.7609L27.0249 31.6241C27.6645 34.079 26.2021 36.59 23.7586 37.2325C21.3234 37.8729 18.8327 36.4158 18.1827 33.976C18.1805 33.9677 18.1783 33.9593 18.1761 33.951L18.0649 33.5242L15.4062 38.1507Z" fill="#FDBA1A"/>
</g>
<path fill-rule="evenodd" clip-rule="evenodd" d="M18.1414 32.9533L18.3869 33.8955C18.996 36.2335 21.3763 37.6327 23.7034 37.0207C26.0305 36.4088 27.4232 34.0175 26.8141 31.6796L23.982 20.8089L23.9806 20.8014C23.9603 20.6927 23.9357 20.5839 23.9068 20.4752C23.6248 19.4158 22.9795 18.552 22.1411 17.9822L22.1408 17.982L22.1405 17.9817C21.1353 17.293 19.8508 17.029 18.5819 17.3626C18.4662 17.3931 18.3528 17.4279 18.2419 17.4668L18.2342 17.4696L7.44948 20.3667C5.12561 20.9909 3.74548 23.3896 4.36685 25.7243C4.98823 28.0589 7.37582 29.4455 9.69968 28.8212L10.5957 28.5805L7.67344 33.6655C6.47069 35.7584 7.18446 38.4346 9.26768 39.6429C11.3509 40.8512 14.0147 40.1342 15.2175 38.0413L18.1414 32.9533ZM15.4062 38.1507C14.1433 40.3483 11.3462 41.1013 9.15874 39.8325C6.97129 38.5637 6.22182 35.7536 7.48474 33.556L10.1441 28.9284L9.75597 29.0327C7.31585 29.6882 4.80882 28.2323 4.15635 25.7808C3.50389 23.3294 4.95307 20.8107 7.39319 20.1552L18.17 17.2602C18.2864 17.2193 18.4053 17.1828 18.5267 17.1509C19.8592 16.8005 21.2082 17.078 22.2632 17.8009C23.1434 18.3991 23.8212 19.3064 24.1173 20.4187C24.1476 20.5327 24.1734 20.6468 24.1948 20.7609L27.0249 31.6241C27.6645 34.079 26.2021 36.59 23.7586 37.2325C21.315 37.875 18.8157 36.4058 18.1761 33.951L18.0649 33.5242L15.4062 38.1507Z" fill="#FDBA1A"/>
<g filter="url(#filter11_f)">
<path fill-rule="evenodd" clip-rule="evenodd" d="M18.1797 32.6678L18.4923 33.8678C19.0862 36.1473 21.4069 37.5115 23.6758 36.9148C25.9447 36.3182 27.3026 33.9867 26.7087 31.7073L23.8757 20.833L23.8736 20.8216C23.8537 20.7156 23.8297 20.6095 23.8015 20.5035C23.5266 19.4705 22.8975 18.6284 22.0801 18.0729L22.0796 18.0725L22.0791 18.0722C21.0988 17.4005 19.8466 17.1432 18.6095 17.4685C18.4966 17.4982 18.386 17.5322 18.2779 17.5702L18.2663 17.5742L7.47762 20.4724C5.21188 21.0811 3.86627 23.4197 4.4721 25.696C5.07794 27.9723 7.4058 29.3241 9.67154 28.7155L10.8214 28.4066L7.76779 33.7202C6.59513 35.7608 7.29104 38.37 9.32216 39.5481C11.3533 40.7262 13.9505 40.0271 15.1231 37.9865L18.1797 32.6678ZM15.4062 38.1507C14.1433 40.3483 11.3462 41.1013 9.15874 39.8325C6.97129 38.5637 6.22182 35.7536 7.48474 33.556L10.1441 28.9284L9.75597 29.0327C9.73669 29.0379 9.7174 29.0429 9.69811 29.0478C7.27634 29.6651 4.80366 28.2129 4.15635 25.7808C3.50389 23.3294 4.95307 20.8107 7.39319 20.1552L18.17 17.2602C18.2864 17.2193 18.4053 17.1828 18.5267 17.1509C19.8592 16.8005 21.2082 17.078 22.2632 17.8009C23.1434 18.3991 23.8212 19.3064 24.1173 20.4187C24.1476 20.5327 24.1734 20.6468 24.1948 20.7609L27.0249 31.6241C27.6645 34.079 26.2021 36.59 23.7586 37.2325C21.3234 37.8729 18.8327 36.4158 18.1827 33.976C18.1805 33.9677 18.1783 33.9593 18.1761 33.951L18.0649 33.5242L15.4062 38.1507Z" fill="#FDBA1A"/>
</g>
<path fill-rule="evenodd" clip-rule="evenodd" d="M18.1414 32.9533L18.3869 33.8955C18.996 36.2335 21.3763 37.6327 23.7034 37.0207C26.0305 36.4088 27.4232 34.0175 26.8141 31.6796L23.982 20.8089L23.9806 20.8014C23.9603 20.6927 23.9357 20.5839 23.9068 20.4752C23.6248 19.4158 22.9795 18.552 22.1411 17.9822L22.1408 17.982L22.1405 17.9817C21.1353 17.293 19.8508 17.029 18.5819 17.3626C18.4662 17.3931 18.3528 17.4279 18.2419 17.4668L18.2342 17.4696L7.44948 20.3667C5.12561 20.9909 3.74548 23.3896 4.36685 25.7243C4.98823 28.0589 7.37582 29.4455 9.69968 28.8212L10.5957 28.5805L7.67344 33.6655C6.47069 35.7584 7.18446 38.4346 9.26768 39.6429C11.3509 40.8512 14.0147 40.1342 15.2175 38.0413L18.1414 32.9533ZM15.4062 38.1507C14.1433 40.3483 11.3462 41.1013 9.15874 39.8325C6.97129 38.5637 6.22182 35.7536 7.48474 33.556L10.1441 28.9284L9.75597 29.0327C7.31585 29.6882 4.80882 28.2323 4.15635 25.7808C3.50389 23.3294 4.95307 20.8107 7.39319 20.1552L18.17 17.2602C18.2864 17.2193 18.4053 17.1828 18.5267 17.1509C19.8592 16.8005 21.2082 17.078 22.2632 17.8009C23.1434 18.3991 23.8212 19.3064 24.1173 20.4187C24.1476 20.5327 24.1734 20.6468 24.1948 20.7609L27.0249 31.6241C27.6645 34.079 26.2021 36.59 23.7586 37.2325C21.315 37.875 18.8157 36.4058 18.1761 33.951L18.0649 33.5242L15.4062 38.1507Z" fill="#FDBA1A"/>
<g filter="url(#filter12_f)">
<path fill-rule="evenodd" clip-rule="evenodd" d="M18.1797 32.6678L18.4923 33.8678C19.0862 36.1473 21.4069 37.5115 23.6758 36.9148C25.9447 36.3182 27.3026 33.9867 26.7087 31.7073L23.8757 20.833L23.8736 20.8216C23.8537 20.7156 23.8297 20.6095 23.8015 20.5035C23.5266 19.4705 22.8975 18.6284 22.0801 18.0729L22.0796 18.0725L22.0791 18.0722C21.0988 17.4005 19.8466 17.1432 18.6095 17.4685C18.4966 17.4982 18.386 17.5322 18.2779 17.5702L18.2663 17.5742L7.47762 20.4724C5.21188 21.0811 3.86627 23.4197 4.4721 25.696C5.07794 27.9723 7.4058 29.3241 9.67154 28.7155L10.8214 28.4066L7.76779 33.7202C6.59513 35.7608 7.29104 38.37 9.32216 39.5481C11.3533 40.7262 13.9505 40.0271 15.1231 37.9865L18.1797 32.6678ZM15.4062 38.1507C14.1433 40.3483 11.3462 41.1013 9.15874 39.8325C6.97129 38.5637 6.22182 35.7536 7.48474 33.556L10.1441 28.9284L9.75597 29.0327C9.73669 29.0379 9.7174 29.0429 9.69811 29.0478C7.27634 29.6651 4.80366 28.2129 4.15635 25.7808C3.50389 23.3294 4.95307 20.8107 7.39319 20.1552L18.17 17.2602C18.2864 17.2193 18.4053 17.1828 18.5267 17.1509C19.8592 16.8005 21.2082 17.078 22.2632 17.8009C23.1434 18.3991 23.8212 19.3064 24.1173 20.4187C24.1476 20.5327 24.1734 20.6468 24.1948 20.7609L27.0249 31.6241C27.6645 34.079 26.2021 36.59 23.7586 37.2325C21.3234 37.8729 18.8327 36.4158 18.1827 33.976C18.1805 33.9677 18.1783 33.9593 18.1761 33.951L18.0649 33.5242L15.4062 38.1507Z" fill="#FDBA1A"/>
</g>
<path fill-rule="evenodd" clip-rule="evenodd" d="M18.3327 31.526L18.9139 33.757C19.4468 35.8025 21.5294 37.0267 23.5655 36.4913C25.6015 35.9559 26.8201 33.8637 26.2872 31.8181L23.4502 20.929L23.4453 20.9026C23.4275 20.8074 23.4059 20.712 23.3805 20.6166C23.1337 19.6892 22.5698 18.9342 21.8359 18.4355L21.8347 18.4347L21.8335 18.4339C20.953 17.8306 19.8299 17.6002 18.7198 17.8921C18.6183 17.9188 18.5189 17.9493 18.4218 17.9834L18.3947 17.9929L7.59019 20.8954C5.55697 21.4416 4.34944 23.5402 4.89311 25.5829C5.43677 27.6256 7.52575 28.8387 9.55897 28.2925L11.7245 27.7108L8.1452 33.9391C7.09288 35.7703 7.71737 38.1117 9.54005 39.169C11.3627 40.2262 13.6934 39.5988 14.7457 37.7676L18.3327 31.526ZM18.0649 33.5242L15.4062 38.1507C14.1433 40.3483 11.3462 41.1013 9.15874 39.8325C6.97129 38.5637 6.22182 35.7536 7.48474 33.556L10.1441 28.9284L9.75597 29.0327C9.54855 29.0884 9.34065 29.1289 9.13345 29.1548C6.90304 29.4335 4.75336 28.0239 4.15635 25.7808C3.50389 23.3294 4.95307 20.8107 7.39319 20.1552L18.17 17.2602C18.2864 17.2193 18.4053 17.1828 18.5267 17.1509C19.8592 16.8005 21.2082 17.078 22.2632 17.8009C23.1434 18.3991 23.8212 19.3064 24.1173 20.4187C24.1476 20.5327 24.1734 20.6468 24.1948 20.7609L27.0249 31.6241C27.6645 34.079 26.2021 36.59 23.7586 37.2325C21.5136 37.8228 19.2216 36.6307 18.3679 34.5294C18.2924 34.3435 18.2281 34.1505 18.1761 33.951L18.0649 33.5242Z" fill="#FDBA1A"/>
<g filter="url(#filter13_f)">
<path fill-rule="evenodd" clip-rule="evenodd" d="M18.3327 31.526L18.9139 33.757C19.4468 35.8025 21.5294 37.0267 23.5655 36.4913C25.6015 35.9559 26.8201 33.8637 26.2872 31.8181L23.4502 20.929L23.4453 20.9026C23.4275 20.8074 23.4059 20.712 23.3805 20.6166C23.1337 19.6892 22.5698 18.9342 21.8359 18.4355L21.8347 18.4347L21.8335 18.4339C20.953 17.8306 19.8299 17.6002 18.7198 17.8921C18.6183 17.9188 18.5189 17.9493 18.4218 17.9834L18.3947 17.9929L7.59019 20.8954C5.55697 21.4416 4.34944 23.5402 4.89311 25.5829C5.43677 27.6256 7.52575 28.8387 9.55897 28.2925L11.7245 27.7108L8.1452 33.9391C7.09288 35.7703 7.71737 38.1117 9.54005 39.169C11.3627 40.2262 13.6934 39.5988 14.7457 37.7676L18.3327 31.526ZM18.0649 33.5242L15.4062 38.1507C14.1433 40.3483 11.3462 41.1013 9.15874 39.8325C6.97129 38.5637 6.22182 35.7536 7.48474 33.556L10.1441 28.9284L9.75597 29.0327C9.54855 29.0884 9.34065 29.1289 9.13345 29.1548C6.90304 29.4335 4.75336 28.0239 4.15635 25.7808C3.50389 23.3294 4.95307 20.8107 7.39319 20.1552L18.17 17.2602C18.2864 17.2193 18.4053 17.1828 18.5267 17.1509C19.8592 16.8005 21.2082 17.078 22.2632 17.8009C23.1434 18.3991 23.8212 19.3064 24.1173 20.4187C24.1476 20.5327 24.1734 20.6468 24.1948 20.7609L27.0249 31.6241C27.6645 34.079 26.2021 36.59 23.7586 37.2325C21.5136 37.8228 19.2216 36.6307 18.3679 34.5294C18.2924 34.3435 18.2281 34.1505 18.1761 33.951L18.0649 33.5242Z" fill="#FDBA1A"/>
</g>
<defs>
<filter id="filter0_f" x="22.6786" y="0.678598" width="29.5474" height="29.8179" filterUnits="userSpaceOnUse" color-interpolation-filters="sRGB">
<feFlood flood-opacity="0" result="BackgroundImageFix"/>
<feBlend mode="normal" in="SourceGraphic" in2="BackgroundImageFix" result="shape"/>
<feGaussianBlur stdDeviation="1.6607" result="effect1_foregroundBlur"/>
</filter>
<filter id="filter1_f" x="22.6786" y="0.678598" width="29.5474" height="29.8179" filterUnits="userSpaceOnUse" color-interpolation-filters="sRGB">
<feFlood flood-opacity="0" result="BackgroundImageFix"/>
<feBlend mode="normal" in="SourceGraphic" in2="BackgroundImageFix" result="shape"/>
<feGaussianBlur stdDeviation="1.6607" result="effect1_foregroundBlur"/>
</filter>
<filter id="filter2_f" x="22.6786" y="0.678598" width="29.5474" height="29.8179" filterUnits="userSpaceOnUse" color-interpolation-filters="sRGB">
<feFlood flood-opacity="0" result="BackgroundImageFix"/>
<feBlend mode="normal" in="SourceGraphic" in2="BackgroundImageFix" result="shape"/>
<feGaussianBlur stdDeviation="1.6607" result="effect1_foregroundBlur"/>
</filter>
<filter id="filter3_f" x="22.6786" y="0.678598" width="29.5474" height="29.8179" filterUnits="userSpaceOnUse" color-interpolation-filters="sRGB">
<feFlood flood-opacity="0" result="BackgroundImageFix"/>
<feBlend mode="normal" in="SourceGraphic" in2="BackgroundImageFix" result="shape"/>
<feGaussianBlur stdDeviation="1.6607" result="effect1_foregroundBlur"/>
</filter>
<filter id="filter4_f" x="22.6786" y="0.678598" width="29.5474" height="29.8179" filterUnits="userSpaceOnUse" color-interpolation-filters="sRGB">
<feFlood flood-opacity="0" result="BackgroundImageFix"/>
<feBlend mode="normal" in="SourceGraphic" in2="BackgroundImageFix" result="shape"/>
<feGaussianBlur stdDeviation="1.6607" result="effect1_foregroundBlur"/>
</filter>
<filter id="filter5_f" x="0.639369" y="13.6394" width="29.8964" height="30.1701" filterUnits="userSpaceOnUse" color-interpolation-filters="sRGB">
<feFlood flood-opacity="0" result="BackgroundImageFix"/>
<feBlend mode="normal" in="SourceGraphic" in2="BackgroundImageFix" result="shape"/>
<feGaussianBlur stdDeviation="1.68032" result="effect1_foregroundBlur"/>
</filter>
<filter id="filter6_f" x="0.639369" y="13.6394" width="29.8964" height="30.1701" filterUnits="userSpaceOnUse" color-interpolation-filters="sRGB">
<feFlood flood-opacity="0" result="BackgroundImageFix"/>
<feBlend mode="normal" in="SourceGraphic" in2="BackgroundImageFix" result="shape"/>
<feGaussianBlur stdDeviation="1.68032" result="effect1_foregroundBlur"/>
</filter>
<filter id="filter7_f" x="0.639369" y="13.6394" width="29.8964" height="30.1701" filterUnits="userSpaceOnUse" color-interpolation-filters="sRGB">
<feFlood flood-opacity="0" result="BackgroundImageFix"/>
<feBlend mode="normal" in="SourceGraphic" in2="BackgroundImageFix" result="shape"/>
<feGaussianBlur stdDeviation="1.68032" result="effect1_foregroundBlur"/>
</filter>
<filter id="filter8_f" x="0.639369" y="13.6394" width="29.8964" height="30.1701" filterUnits="userSpaceOnUse" color-interpolation-filters="sRGB">
<feFlood flood-opacity="0" result="BackgroundImageFix"/>
<feBlend mode="normal" in="SourceGraphic" in2="BackgroundImageFix" result="shape"/>
<feGaussianBlur stdDeviation="1.68032" result="effect1_foregroundBlur"/>
</filter>
<filter id="filter9_f" x="0.639369" y="13.6394" width="29.8964" height="30.1701" filterUnits="userSpaceOnUse" color-interpolation-filters="sRGB">
<feFlood flood-opacity="0" result="BackgroundImageFix"/>
<feBlend mode="normal" in="SourceGraphic" in2="BackgroundImageFix" result="shape"/>
<feGaussianBlur stdDeviation="1.68032" result="effect1_foregroundBlur"/>
</filter>
<filter id="filter10_f" x="0.639369" y="13.6394" width="29.8964" height="30.1701" filterUnits="userSpaceOnUse" color-interpolation-filters="sRGB">
<feFlood flood-opacity="0" result="BackgroundImageFix"/>
<feBlend mode="normal" in="SourceGraphic" in2="BackgroundImageFix" result="shape"/>
<feGaussianBlur stdDeviation="1.68032" result="effect1_foregroundBlur"/>
</filter>
<filter id="filter11_f" x="0.639369" y="13.6394" width="29.8964" height="30.1701" filterUnits="userSpaceOnUse" color-interpolation-filters="sRGB">
<feFlood flood-opacity="0" result="BackgroundImageFix"/>
<feBlend mode="normal" in="SourceGraphic" in2="BackgroundImageFix" result="shape"/>
<feGaussianBlur stdDeviation="1.68032" result="effect1_foregroundBlur"/>
</filter>
<filter id="filter12_f" x="0.639369" y="13.6394" width="29.8964" height="30.1701" filterUnits="userSpaceOnUse" color-interpolation-filters="sRGB">
<feFlood flood-opacity="0" result="BackgroundImageFix"/>
<feBlend mode="normal" in="SourceGraphic" in2="BackgroundImageFix" result="shape"/>
<feGaussianBlur stdDeviation="1.68032" result="effect1_foregroundBlur"/>
</filter>
<filter id="filter13_f" x="0.639369" y="13.6394" width="29.8964" height="30.1701" filterUnits="userSpaceOnUse" color-interpolation-filters="sRGB">
<feFlood flood-opacity="0" result="BackgroundImageFix"/>
<feBlend mode="normal" in="SourceGraphic" in2="BackgroundImageFix" result="shape"/>
<feGaussianBlur stdDeviation="1.68032" result="effect1_foregroundBlur"/>
</filter>
</defs>
</svg>
