<svg width="17" height="9" viewBox="0 0 17 9" fill="none" xmlns="http://www.w3.org/2000/svg">
<mask id="path-1-inside-1_4956_21438" fill="white">
<path fill-rule="evenodd" clip-rule="evenodd" d="M1.08131 5.12824L13.5128 5.12824L11.6361 7.00496C11.3159 7.32519 11.3159 7.84438 11.6361 8.16461C11.9564 8.48484 12.4755 8.48484 12.7958 8.16461L16.0695 4.89084C16.2167 4.74371 16.2962 4.55457 16.3081 4.36203C16.3093 4.34425 16.3099 4.32631 16.3099 4.30824C16.3099 4.07852 16.2154 3.87086 16.0632 3.72199L12.7896 0.448353C12.4693 0.128123 11.9501 0.128122 11.6299 0.448352C11.3097 0.768582 11.3097 1.28778 11.6299 1.60801L13.5102 3.48824L1.08131 3.48824C0.628434 3.48824 0.261308 3.85537 0.261307 4.30824C0.261307 4.76111 0.628433 5.12824 1.08131 5.12824Z"/>
</mask>
<path fill-rule="evenodd" clip-rule="evenodd" d="M1.08131 5.12824L13.5128 5.12824L11.6361 7.00496C11.3159 7.32519 11.3159 7.84438 11.6361 8.16461C11.9564 8.48484 12.4755 8.48484 12.7958 8.16461L16.0695 4.89084C16.2167 4.74371 16.2962 4.55457 16.3081 4.36203C16.3093 4.34425 16.3099 4.32631 16.3099 4.30824C16.3099 4.07852 16.2154 3.87086 16.0632 3.72199L12.7896 0.448353C12.4693 0.128123 11.9501 0.128122 11.6299 0.448352C11.3097 0.768582 11.3097 1.28778 11.6299 1.60801L13.5102 3.48824L1.08131 3.48824C0.628434 3.48824 0.261308 3.85537 0.261307 4.30824C0.261307 4.76111 0.628433 5.12824 1.08131 5.12824Z" fill="#E9EBF0"/>
<path d="M13.5128 5.12824L14.1068 5.72221L15.5408 4.28824L13.5128 4.28824L13.5128 5.12824ZM11.6361 7.00496L11.0422 6.41099L11.0422 6.41099L11.6361 7.00496ZM11.6361 8.16461L11.0422 8.75858L11.0422 8.75858L11.6361 8.16461ZM12.7958 8.16461L12.2018 7.57064L12.2018 7.57064L12.7958 8.16461ZM16.0695 4.89084L15.4756 4.29687L15.4756 4.29687L16.0695 4.89084ZM16.3081 4.36203L15.4699 4.30775L15.4697 4.31009L16.3081 4.36203ZM16.0632 3.72199L15.4692 4.316L15.4759 4.3225L16.0632 3.72199ZM12.7896 0.448353L13.3835 -0.145617L13.3835 -0.145617L12.7896 0.448353ZM11.6299 0.448352L12.2239 1.04232L12.2239 1.04232L11.6299 0.448352ZM11.6299 1.60801L12.2239 1.01404L11.6299 1.60801ZM13.5102 3.48824L13.5102 4.32824L15.5381 4.32824L14.1041 2.89427L13.5102 3.48824ZM1.08131 3.48824L1.08131 2.64824L1.08131 3.48824ZM13.5128 4.28824L1.08131 4.28824L1.08131 5.96824L13.5128 5.96824L13.5128 4.28824ZM12.2301 7.59893L14.1068 5.72221L12.9189 4.53427L11.0422 6.41099L12.2301 7.59893ZM12.2301 7.57064C12.2309 7.5715 12.233 7.5741 12.2344 7.57769C12.2356 7.5807 12.2359 7.58309 12.2359 7.58478C12.2359 7.58648 12.2356 7.58887 12.2344 7.59188C12.233 7.59547 12.2309 7.59807 12.2301 7.59893L11.0422 6.41099C10.3939 7.05926 10.3939 8.11031 11.0422 8.75858L12.2301 7.57064ZM12.2018 7.57064C12.2027 7.56979 12.2053 7.56776 12.2088 7.56631C12.2119 7.56509 12.2143 7.56478 12.2159 7.56478C12.2176 7.56478 12.22 7.56509 12.223 7.56631C12.2266 7.56776 12.2292 7.56979 12.2301 7.57064L11.0422 8.75858C11.6904 9.40685 12.7415 9.40685 13.3897 8.75858L12.2018 7.57064ZM15.4756 4.29687L12.2018 7.57064L13.3897 8.75858L16.6635 5.48481L15.4756 4.29687ZM15.4697 4.31009C15.4699 4.30842 15.4703 4.30605 15.4716 4.30317C15.473 4.29986 15.4749 4.29758 15.4756 4.29687L16.6635 5.48481C16.961 5.18736 17.1224 4.80307 17.1465 4.41396L15.4697 4.31009ZM15.4699 4.30824L15.4699 4.30775L17.1464 4.4163C17.1487 4.38047 17.1499 4.34443 17.1499 4.30824L15.4699 4.30824ZM15.4759 4.3225C15.4746 4.3213 15.4731 4.31942 15.4718 4.31642C15.4703 4.31283 15.4699 4.30949 15.4699 4.30824L17.1499 4.30824C17.1499 3.84337 16.9577 3.42187 16.6506 3.12149L15.4759 4.3225ZM16.6572 3.12802L13.3835 -0.145617L12.1956 1.04232L15.4692 4.31596L16.6572 3.12802ZM13.3835 -0.145617C12.7353 -0.793886 11.6842 -0.79389 11.0359 -0.145617L12.2239 1.04232C12.223 1.04318 12.2204 1.0452 12.2168 1.04665C12.2138 1.04788 12.2114 1.04818 12.2097 1.04818C12.208 1.04818 12.2057 1.04788 12.2026 1.04665C12.1991 1.0452 12.1965 1.04318 12.1956 1.04232L13.3835 -0.145617ZM11.0359 -0.145617C10.3877 0.502652 10.3877 1.55371 11.0359 2.20198L12.2239 1.01404C12.2247 1.01489 12.2268 1.0175 12.2282 1.02108C12.2294 1.0241 12.2297 1.02648 12.2297 1.02818C12.2297 1.02988 12.2294 1.03226 12.2282 1.03528C12.2268 1.03886 12.2247 1.04147 12.2239 1.04232L11.0359 -0.145617ZM11.0359 2.20198L12.9162 4.08221L14.1041 2.89427L12.2239 1.01404L11.0359 2.20198ZM1.08131 4.32824L13.5102 4.32824L13.5102 2.64824L1.08131 2.64824L1.08131 4.32824ZM1.10131 4.30824C1.10131 4.30945 1.1009 4.31272 1.09939 4.31628C1.09812 4.31928 1.09665 4.32118 1.09545 4.32238C1.09425 4.32358 1.09235 4.32505 1.08935 4.32632C1.08579 4.32783 1.08252 4.32824 1.08131 4.32824L1.08131 2.64824C0.164516 2.64824 -0.578693 3.39145 -0.578693 4.30824L1.10131 4.30824ZM1.08131 4.28824C1.08252 4.28824 1.08579 4.28865 1.08935 4.29016C1.09235 4.29143 1.09425 4.2929 1.09545 4.2941C1.09665 4.2953 1.09812 4.2972 1.09939 4.3002C1.1009 4.30376 1.10131 4.30703 1.10131 4.30824L-0.578693 4.30824C-0.578693 5.22503 0.164513 5.96824 1.08131 5.96824L1.08131 4.28824Z" fill="#292D34" mask="url(#path-1-inside-1_4956_21438)"/>
</svg>
