
<svg width="57" height="60" viewBox="0 0 57 60" fill="none" xmlns="http://www.w3.org/2000/svg">
<g filter="url(#filter0_d)">
<path d="M39.5298 29.028L21.7045 39.395C21.6471 39.4284 21.5893 39.4603 21.5311 39.4908C20.9134 39.8161 20.2107 40 19.4654 40C16.9992 40 15 37.9861 15 35.5018V14.5102C15 13.6377 15.2466 12.8233 15.6734 12.1337C16.9369 10.0722 19.6075 9.38388 21.7044 10.6034L39.5291 20.97C40.2869 21.3504 40.9459 21.9517 41.401 22.7457C41.811 23.4611 42.0038 24.2428 41.9999 25.0133C41.999 25.7747 41.806 26.5461 41.4009 27.2527C40.9461 28.0464 40.2873 28.6476 39.5298 29.028Z" fill="#64EA9C"/>
</g>
<defs>
<filter id="filter0_d" x="0" y="0" width="57" height="60" filterUnits="userSpaceOnUse" color-interpolation-filters="sRGB">
<feFlood flood-opacity="0" result="BackgroundImageFix"/>
<feColorMatrix in="SourceAlpha" type="matrix" values="0 0 0 0 0 0 0 0 0 0 0 0 0 0 0 0 0 0 127 0"/>
<feOffset dy="5"/>
<feGaussianBlur stdDeviation="7.5"/>
<feColorMatrix type="matrix" values="0 0 0 0 0 0 0 0 0 0 0 0 0 0 0 0 0 0 0.25 0"/>
<feBlend mode="normal" in2="BackgroundImageFix" result="effect1_dropShadow"/>
<feBlend mode="normal" in="SourceGraphic" in2="effect1_dropShadow" result="shape"/>
</filter>
</defs>
</svg>
