<svg width="39" height="31" viewBox="0 0 39 31" fill="none" xmlns="http://www.w3.org/2000/svg">
<path d="M39 15.9844V15.0156C39 14.4804 38.5637 14.0469 38.025 14.0469H20.9625V11.625H25.35C26.4268 11.625 27.3 10.7574 27.3 9.6875V1.9375C27.3 0.867637 26.4268 0 25.35 0H13.65C12.5732 0 11.7 0.867637 11.7 1.9375V9.6875C11.7 10.7574 12.5732 11.625 13.65 11.625H18.0375V14.0469H0.975C0.436312 14.0469 0 14.4804 0 15.0156V15.9844C0 16.5196 0.436312 16.9531 0.975 16.9531H7.3125V19.375H3.9C2.82323 19.375 1.95 20.2426 1.95 21.3125V29.0625C1.95 30.1324 2.82323 31 3.9 31H13.65C14.7268 31 15.6 30.1324 15.6 29.0625V21.3125C15.6 20.2426 14.7268 19.375 13.65 19.375H10.2375V16.9531H28.7625V19.375H25.35C24.2732 19.375 23.4 20.2426 23.4 21.3125V29.0625C23.4 30.1324 24.2732 31 25.35 31H35.1C36.1768 31 37.05 30.1324 37.05 29.0625V21.3125C37.05 20.2426 36.1768 19.375 35.1 19.375H31.6875V16.9531H38.025C38.5637 16.9531 39 16.5196 39 15.9844ZM15.6 7.75V3.875H23.4V7.75H15.6ZM11.7 27.125H5.85V23.25H11.7V27.125ZM33.15 27.125H27.3V23.25H33.15V27.125Z" fill="#E9EBF0"/>
</svg>
