<svg viewBox="0 0 350 328" xmlns="http://www.w3.org/2000/svg"><path d="M276.133325,85 L235.868135,85 L235.868135,85 C231.178125,85 226.917932,87.7323108 224.961766,91.9948929 L81.5493594,404.497446 L81.5493594,404.497446 C80.1672373,407.509157 81.4882799,411.071063 84.4999908,412.453185 C85.2850869,412.813478 86.1387232,413 87.0025443,413 L127.178216,413 L127.178216,413.000003 C131.078249,413.000003 134.735024,411.1047 136.98339,407.917992 C137.240521,407.553549 137.476188,407.223792 137.69039,406.928721 C157.118052,380.166445 185.195037,360.174509 217.963227,351.320552 C218.262804,351.239606 218.583751,351.15524 218.926066,351.067454 L218.926067,351.067456 C224.233635,349.706339 227.945151,344.922911 227.945151,339.443593 L227.945151,306.865821 L227.945143,306.865821 C227.945143,303.552116 225.258855,300.865828 221.945151,300.865828 C221.598647,300.865828 221.252795,300.895844 220.911473,300.95554 C219.754167,301.157946 218.759377,301.341113 217.927102,301.50504 C210.24825,303.017481 202.76439,304.97224 195.457636,307.356232 C194.448915,307.68535 193.316094,308.075628 192.059173,308.527067 L192.059174,308.527072 C188.940513,309.647175 185.504314,308.027024 184.38421,304.908363 C183.852475,303.427873 183.923434,301.797773 184.581807,300.369089 L250.551496,157.21348 L250.551496,157.21348 C251.938362,154.203951 255.502345,152.888522 258.511874,154.275389 C259.809914,154.873558 260.851796,155.915439 261.449965,157.21348 L327.494696,300.531933 L327.494696,300.531933 C328.881562,303.541462 327.566134,307.105445 324.556605,308.492311 C323.095766,309.165503 321.425801,309.223955 319.921468,308.654552 C319.914166,308.651788 319.906864,308.649024 319.899562,308.64626 C318.660382,308.17722 317.421202,307.708179 316.182022,307.239138 C308.999727,304.911786 301.646466,302.998605 294.107041,301.511983 C293.266588,301.346262 292.261,301.160997 291.090279,300.956186 L291.090281,300.956178 C287.826141,300.385137 284.717113,302.568324 284.146071,305.832463 C284.086343,306.173877 284.05631,306.519825 284.05631,306.866425 L284.05631,339.444212 L284.05631,339.444212 C284.05631,344.924028 287.768488,349.707759 293.076691,351.068406 C293.433937,351.159978 293.768203,351.247876 294.079489,351.332097 C326.869105,360.203688 354.965914,380.231363 374.388592,407.035709 C374.581526,407.30197 374.792245,407.59694 375.020746,407.920621 L375.020747,407.92062 C377.269312,411.105796 380.925167,413 384.824063,413 L424.998916,413 L424.998916,413 C428.312625,413 430.998916,410.313708 430.998916,407 C430.998916,406.136179 430.812394,405.282543 430.452101,404.497446 L287.039695,91.9948929 L287.039695,91.9948929 C285.083528,87.7323108 280.823336,85 276.133325,85 Z" transform="translate(-81 -85)" fill="#3B9CE9" fill-rule="evenodd"/></svg>