<svg fill="none" height="20" viewBox="0 0 20 20" width="20" xmlns="http://www.w3.org/2000/svg"><g clip-rule="evenodd" fill="#2a2e34" fill-rule="evenodd"><path d="m10 4c.5523 0 1 .44772 1 1v5c0 .2652-.1054.5196-.2929.7071l-3.49999 3.5c-.39053.3905-1.02369.3905-1.41422 0-.39052-.3905-.39052-1.0237 0-1.4142l3.20711-3.20711v-4.58579c0-.55228.44772-1 1-1z"/><path d="m10 2c-4.41828 0-8 3.58172-8 8 0 4.4183 3.58172 8 8 8 4.4183 0 8-3.5817 8-8 0-4.41828-3.5817-8-8-8zm-10 8c0-5.52285 4.47715-10 10-10 5.5228 0 10 4.47715 10 10 0 5.5228-4.4772 10-10 10-5.52285 0-10-4.4772-10-10z"/></g></svg>