<svg fill="#B7AFED" xmlns="http://www.w3.org/2000/svg" viewBox="0 0 50 50"><style>.st0{fill:none;stroke:#b7afed;stroke-width:2;stroke-miterlimit:10}</style><path class="st0" d="M38 34h2c4.6 0 8-3.1 8-7.7 0-4.2-3.1-7.7-7.2-8.1.6-1.5 1-3.2.9-5C41.4 7.6 36.7 3 31.2 3c-5.1 0-9.4 3.6-10.5 8.5-1.6-2-4.1-3.1-6.8-2.9-3 .3-5.5 2.4-6.5 5.3-.6 1.7-.6 3.3-.2 4.7-3 1.1-5.2 4.1-5.2 7.6 0 4.7 3.4 7.7 8 7.7h2"/><path class="st0" d="M13 31h24v16H13zM17 31v-6c0-4.4 3.6-8 8-8s8 3.6 8 8v6M17 37h16M20 42h10"/></svg>