<svg width="77" height="59" xmlns="http://www.w3.org/2000/svg"><g fill="#FFF" fill-rule="evenodd"><path d="M63.544 45.62c0 .1-.012.186-.035.262v3.399c0 2.09-.562 3.468-1.71 4.134-1.15.62-2.42.942-3.813.942a6.825 6.825 0 0 1-3.667-1.034c-1.124-.666-1.686-1.998-1.686-4.042v-7.305h1.88c.774.04 1.361.479 1.37 1.076V49.9c0 1.355.734 2.021 2.2 2.021 1.467 0 2.2-.666 2.2-2.021v-5.642l.018-.2c.08-.814.471-1.734 1.433-2.268 1.205-.67 4.979-.425 4.979-.425-1.914.798-3.169 2.63-3.169 4.253zm7.346-1.186c-1.858 0-2.737 1.217-2.713 3.675.098 2.343 1.002 3.515 2.762 3.515s2.664-1.172 2.737-3.515c0-2.458-.929-3.675-2.786-3.675zm.953 9.923c-1.613 0-2.835-.62-3.666-1.883v4.892c0 1.01-.538 1.516-1.613 1.516h-1.638V47.26c.172-3.629 2.175-5.42 6.062-5.42 4.008 0 6.012 2.044 6.012 6.132 0 4.135-1.71 6.271-5.157 6.386zm-65.93-3.04c.746 0 1.395-.301 1.924-.88a1.5 1.5 0 0 1 1.082-.44h2.404c-.577 2.501-2.452 4.1-5.41 4.03-3.846 0-5.817-2.131-5.913-6.346 0-4.192 1.947-6.3 5.866-6.37 3.077 0 4.904 1.321 5.457 3.984H7.837c-.385-.833-1.058-1.273-2.067-1.273-1.683 0-2.525 1.227-2.525 3.659 0 2.432.89 3.66 2.669 3.636zM13.607 38h1.659c.841 0 1.538.695 1.538 1.505V53.75h-3.197V38zm6.081 0h1.66c1.057 0 1.562.51 1.538 1.505v.904h-3.198V38zm0 13.953V41.497h1.66c1.033 0 1.538.486 1.538 1.482v7.463c0 2.749 2.19 3.735 2.19 3.735l-3.571-.287c-1-.099-1.8-.956-1.817-1.937zm11.42-.636c.745 0 1.394-.301 1.923-.88.312-.301.673-.44 1.081-.44h2.404c-.577 2.501-2.452 4.1-5.409 4.03-3.846 0-5.817-2.131-5.914-6.346 0-4.192 1.948-6.3 5.866-6.37 3.077 0 4.904 1.321 5.457 3.984H33.03c-.385-.833-1.058-1.273-2.068-1.273-1.683 0-2.524 1.227-2.524 3.659 0 2.432.89 3.66 2.668 3.636zm17.83.854c.653 1.138 2.1 2.272 4.183 3.292 0 0-5.202.777-7.123-2.073-.24-.358-.427-.544-.593-.857l-.135-.21-1.542-2.604c-.409-.695-.818-1.042-1.226-1.042-.337.07-.505.278-.505.602v4.47h-3.197V38h1.658c.842 0 1.539.695 1.539 1.505v6.786l3.942-4.354h3.847l-4.4 4.54 3.552 5.694zM38.698 32.822c6.414 0 11.932-3.613 14.424-8.807a5.821 5.821 0 0 0 .355-1.4c-.053-2.799-1.645-4.198-2.278-4.644l-.257-.133c-.018 6.383-5.503 11.572-12.244 11.572h-.034c-6.74 0-12.226-5.189-12.243-11.572l-.257.133c-.634.446-2.225 1.845-2.278 4.643.04.343.135.832.354 1.4 2.492 5.195 8.01 8.808 14.424 8.808h.034m-.186-28.027l15.482 10.19c.048-.705-.067-3.674-4.666-7.488L40.187.539A3.08 3.08 0 0 0 38.53 0h-.063a3.08 3.08 0 0 0-1.655.539l-9.141 6.958c-4.6 3.814-4.714 6.783-4.666 7.487l15.482-10.19h.024"/></g></svg>