<svg width="11" height="10" viewBox="0 0 11 10" fill="none" xmlns="http://www.w3.org/2000/svg">
<path fill-rule="evenodd" clip-rule="evenodd" d="M3.9514 8.8C3.84573 8.8 3.74432 8.75595 3.67078 8.67809L1.10651 5.94169C0.959431 5.78438 0.965237 5.53543 1.12045 5.38599C1.2745 5.23615 1.51951 5.24205 1.66775 5.39936L3.92972 7.81328L9.31372 1.14375C9.44919 0.976605 9.69304 0.951042 9.85831 1.08908C10.024 1.22712 10.0476 1.47488 9.91212 1.64281L4.25098 8.65646C4.18054 8.74337 4.07642 8.79567 3.96572 8.8H3.9514Z" fill="#FFC800"/>
<path d="M3.9514 8.8C3.84573 8.8 3.74432 8.75595 3.67078 8.67809L1.10651 5.94169C0.959431 5.78438 0.965237 5.53543 1.12045 5.38599C1.2745 5.23615 1.51951 5.24205 1.66775 5.39936L3.92972 7.81328L9.31372 1.14375C9.44919 0.976605 9.69304 0.951042 9.85831 1.08908C10.024 1.22712 10.0476 1.47488 9.91211 1.64281L4.25098 8.65646C4.18054 8.74337 4.07642 8.79567 3.96572 8.8H3.9514" stroke="#292D34" stroke-width="0.87703"/>
</svg>
