<svg xmlns="http://www.w3.org/2000/svg" viewBox="0 0 53.87 68.53"><defs><style>.cls-1{fill:#fff;}</style></defs><title>notepad_2</title><g id="Layer_2" data-name="Layer 2"><g id="Layer_1-2" data-name="Layer 1"><path class="cls-1" d="M7.75,68.53H46.12c4.27,0,7.75-4.21,7.75-9.38V14.41C53.87,9.24,50.39,5,46.12,5h-4.8A5.52,5.52,0,0,0,36,0H17.9a5.52,5.52,0,0,0-5.35,5H7.75C3.48,5,0,9.24,0,14.41V59.16C0,64.33,3.48,68.53,7.75,68.53Zm7-62.81A3.28,3.28,0,0,1,17.9,2.3H36a3.28,3.28,0,0,1,3.11,3.43v.92A3.28,3.28,0,0,1,36,10.07H17.9a3.28,3.28,0,0,1-3.11-3.43ZM2.3,14.41c0-3.9,2.44-7.08,5.45-7.08h4.8a5.52,5.52,0,0,0,5.35,5H36a5.52,5.52,0,0,0,5.35-5h4.8c3,0,5.45,3.17,5.45,7.08V59.16c0,3.9-2.45,7.08-5.45,7.08H7.75c-3,0-5.45-3.17-5.45-7.08V14.41Z"/><path class="cls-1" d="M10.23,27h33.4a1.15,1.15,0,0,0,0-2.3H10.23a1.15,1.15,0,1,0,0,2.3Z"/><path class="cls-1" d="M10.23,36.56h33.4a1.15,1.15,0,0,0,0-2.3H10.23a1.15,1.15,0,1,0,0,2.3Z"/><path class="cls-1" d="M10.23,46.16h33.4a1.15,1.15,0,0,0,0-2.3H10.23a1.15,1.15,0,1,0,0,2.3Z"/><path class="cls-1" d="M10.23,55.75h33.4a1.15,1.15,0,0,0,0-2.3H10.23a1.15,1.15,0,1,0,0,2.3Z"/></g></g></svg>