<svg viewBox="0 0 120 37" xmlns="http://www.w3.org/2000/svg"><path d="M59.0103193,36.9958678 L58.2583348,36.9958678 C55.3541189,36.9958678 53,34.7338293 53,31.9432107 L53,5.0734207 C53,2.27153039 55.3639972,0 58.2799436,0 L59.0103193,0 C59.5573293,0 60,0.425949025 60,0.951563003 L60,36.0443048 C60,36.5699188 59.5573293,36.9958678 59.0103193,36.9958678 Z M91,22.5306659 L91,35.9510264 C91,36.512235 90.5474964,36.9672529 89.9824784,36.9850503 C89.9702486,36.984457 89.9574073,36.9838638 89.8846398,36.9814908 C87.9315365,36.8930975 86.0946165,36.366297 84.4753875,35.4906692 C82.6935017,36.4523174 80.6492862,36.9998814 78.4742115,36.9998814 L77.5257885,36.9998814 C70.607987,36.9998814 65,31.46729 65,24.6414272 L65,20.7705116 C65,13.9452421 70.607987,8.41265069 77.5257885,8.41265069 L78.4742115,8.41265069 C85.392013,8.41265069 91,13.9452421 91,20.7705116 L91,22.5306659 Z M84,24.7766868 L84,20.6358453 C84,17.5996237 81.5175125,15.1388485 78.4550723,15.1388485 L77.5455324,15.1388485 C74.4830923,15.1388485 72,17.5996237 72,20.6358453 L72,24.7766868 C72,27.8123151 74.4830923,30.2736835 77.5455324,30.2736835 L78.4550723,30.2736835 C81.5175125,30.2736835 84,27.8123151 84,24.7766868 Z M26,22.5306659 L26,35.9510264 C26,36.512235 25.5474964,36.9672529 24.9824784,36.9850503 C24.9702486,36.984457 24.9574073,36.9838638 24.8846398,36.9814908 C22.9315365,36.8930975 21.0946165,36.366297 19.4753875,35.4906692 C17.6935017,36.4523174 15.6492862,36.9998814 13.4742115,36.9998814 L12.5257885,36.9998814 C5.60798702,36.9998814 5.68434189e-14,31.46729 5.68434189e-14,24.6414272 L5.68434189e-14,20.7705116 C5.68434189e-14,13.9452421 5.60798702,8.41265069 12.5257885,8.41265069 L13.4742115,8.41265069 C20.392013,8.41265069 26,13.9452421 26,20.7705116 L26,22.5306659 Z M19,24.7766868 L19,20.6358453 C19,17.5996237 16.5175125,15.1388485 13.4550723,15.1388485 L12.5455324,15.1388485 C9.48309227,15.1388485 7,17.5996237 7,20.6358453 L7,24.7766868 C7,27.8123151 9.48309227,30.2736835 12.5455324,30.2736835 L13.4550723,30.2736835 C16.5175125,30.2736835 19,27.8123151 19,24.7766868 Z M46.1177104,15.134835 L41.0582622,15.134835 C40.5060621,15.134835 40.05845,15.5619705 40.05845,16.0875845 L40.05845,23.5434722 C40.05845,26.9676752 42.7447449,29.795075 46.2185631,30.2156848 C46.7271849,30.2773822 47.1175225,30.6724825 47.1175225,31.1619086 L47.1175225,36.0039642 C47.1175225,36.5580539 46.6213517,36.9994273 46.0405144,36.9579002 C38.7467412,36.4334727 33,30.6279892 33,23.5434722 L33,5.07401394 C33,2.27153039 35.383114,0 38.3234085,0 L39.0605054,0 C39.6114605,0 40.05845,0.426542269 40.05845,0.951563003 L40.05845,7.45648091 C40.05845,7.98209489 40.5060621,8.40863716 41.0582622,8.40863716 L46.0965437,8.40863716 C46.6605723,8.40863716 47.1175225,8.84407808 47.1175225,9.38155694 L47.1175225,14.1826787 C47.1175225,14.7082927 46.6699105,15.134835 46.1177104,15.134835 Z M97,14.1762679 L97,9.37052785 C97,8.83952324 97.4519699,8.40997314 98.0085279,8.40997314 L118.932991,8.40997314 C119.489549,8.40997314 119.941519,8.83952324 119.941519,9.37052785 L119.941519,11.3657999 C119.941519,12.4017039 119.606588,13.4120959 118.98404,14.2599234 L108.321037,28.7732583 C107.856616,29.4051241 108.330997,30.2725305 109.139687,30.2725305 L118.932991,30.2725305 C119.489549,30.2725305 119.941519,30.7032672 119.941519,31.2342718 L119.941519,36.0388253 C119.941519,36.5698299 119.489549,36.9999733 118.932991,36.9999733 L98.0085279,36.9999733 C97.4519699,36.9999733 97,36.5698299 97,36.0388253 L97,34.0435532 C97,33.0082426 97.3343083,31.9978505 97.9574789,31.1494298 L108.620482,16.6366881 C109.084903,16.0054156 108.610521,15.1368226 107.801209,15.1368226 L98.0085279,15.1368226 C97.4519699,15.1368226 97,14.7066792 97,14.1762679 Z" fill="#2B8ADE" fill-rule="evenodd"/></svg>