<svg width="14" height="25" viewBox="0 0 14 25" fill="none" xmlns="http://www.w3.org/2000/svg">
<path d="M13.625 16.75C13.625 18.1333 13.2 19.3083 12.35 20.275C11.5 21.225 10.3667 21.85 8.95 22.15V24.8H6.1V22.25C3.68333 21.8667 1.89167 20.625 0.725 18.525L3.075 16.375C3.525 17.225 4.11667 17.8917 4.85 18.375C5.6 18.8417 6.4 19.075 7.25 19.075C8.05 19.075 8.68333 18.875 9.15 18.475C9.63333 18.075 9.875 17.5667 9.875 16.95C9.875 16.1167 9.31667 15.425 8.2 14.875L6.575 14.075C5.50833 13.5583 4.75833 13.15 4.325 12.85C2.575 11.7 1.7 10.225 1.7 8.425C1.7 7.09167 2.11667 5.96667 2.95 5.05C3.78333 4.13333 4.88333 3.55833 6.25 3.325V0.924999H9.1V3.35C10.6667 3.61667 12.05 4.41667 13.25 5.75L11.3 8.15C10.1167 6.96667 8.88333 6.375 7.6 6.375C6.9 6.375 6.33333 6.55 5.9 6.9C5.48333 7.25 5.275 7.71667 5.275 8.3C5.275 8.71667 5.41667 9.08333 5.7 9.4C5.98333 9.7 6.43333 10.0333 7.05 10.4C7.31667 10.5667 7.94167 10.8917 8.925 11.375C9.925 11.8583 10.65 12.2333 11.1 12.5C12.7833 13.5833 13.625 15 13.625 16.75Z" fill="#ef4136"/>
</svg>
