<svg width="19" height="15" viewBox="0 0 19 15" fill="none" xmlns="http://www.w3.org/2000/svg">
<path d="M18.5547 12.625H2.375V1.19531C2.375 1.08398 2.30078 0.972656 2.22656 0.898438C2.15234 0.824219 2.04102 0.75 1.92969 0.75H0.445312C0.296875 0.75 0.185547 0.824219 0.111328 0.898438C0.0371094 0.972656 0 1.08398 0 1.19531V14.5547C0 14.7031 0.0371094 14.8145 0.111328 14.8887C0.185547 14.9629 0.296875 15 0.445312 15H18.5547C18.666 15 18.7773 14.9629 18.8516 14.8887C18.9258 14.8145 19 14.7031 19 14.5547V13.0703C19 12.959 18.9258 12.8477 18.8516 12.7734C18.7773 12.6992 18.666 12.625 18.5547 12.625ZM13.8418 4.27539V4.3125C13.916 4.23828 14.0273 4.20117 14.1758 4.23828C14.3242 4.27539 14.3984 4.34961 14.4727 4.46094L17.8125 11.4375H3.5625V7.57812L6.79102 2.19727C6.86523 2.08594 6.97656 2.01172 7.125 2.01172C7.27344 2.01172 7.42188 2.04883 7.5332 2.16016L10.6875 6.39062L13.8418 4.27539Z" fill="#ef4136"/>
</svg>
