<svg fill="none" height="16" viewBox="0 0 17 16" width="17" xmlns="http://www.w3.org/2000/svg"><path clip-rule="evenodd" d="m9.45502 1.68638c2.88408.00066 5.23058 2.3484 5.23188 5.23384-.0013 2.88282-2.3471 5.22928-5.23057 5.22928-2.88609 0-5.23384-2.34646-5.23384-5.23059.00131-2.88544 2.3484-5.23253 5.23253-5.23253zm.00136 11.77632c3.60632 0 6.54232-2.9353 6.54362-6.54227-.0013-3.60959-2.9373-6.546238-6.54493-6.546895-3.60762 0-6.54427 2.935995-6.54558 6.544925 0 3.60894 2.9373 6.54424 6.54689 6.54424z" fill="#b9bec7" fill-rule="evenodd"/><path d="m9.45502 1.68638v-.25h.00006zm5.23188 5.23384.25-.00011v.00023zm-10.46441-.00131h-.25v-.00011zm11.77751.00152.25-.00009v.00018zm-6.54493-6.546895v-.25h.00005zm-6.54558 6.544925h-.25v-.00009zm6.54559-5.48208c3.02232.00069 5.48042 2.46044 5.48182 5.48373l-.5.00023c-.0013-2.7476-2.236-4.98333-4.98194-4.98396zm5.48182 5.48396c-.0014 3.02075-2.459 5.47916-5.48057 5.47916v-.5c2.74537 0 4.97927-2.23452 4.98057-4.97939zm-5.48057 5.47916c-3.02402 0-5.48384-2.45825-5.48384-5.48059h.5c0 2.74591 2.23567 4.98059 4.98384 4.98059zm-5.48384-5.4807c.00138-3.02336 2.46027-5.48242 5.48253-5.48242v.5c-2.74599 0-4.98128 2.23512-4.98253 4.98264zm5.48389 6.2939c3.46822 0 6.29232-2.8234 6.29362-6.29236l.5.00018c-.0014 3.74498-3.0492 6.79218-6.79362 6.79218zm6.29362-6.29218c-.0013-3.47168-2.8255-6.296353-6.29497-6.296985l.00009-.5c3.74578.000682 6.79348 3.049305 6.79488 6.796805zm-6.29493-6.296985c-3.46953 0-6.29432 2.824065-6.29558 6.295015l-.5-.00018c.00136-3.74691 3.04987-6.794835 6.79558-6.794835zm-6.29558 6.294925c0 3.47074 2.82526 6.29424 6.29689 6.29424v.5c-3.74754 0-6.79689-3.0471-6.79689-6.79424z" fill="#b5bac1"/><path clip-rule="evenodd" d="m1.65688 15.6265c.16807 0 .33614-.0644.46416-.1924l3.65555-3.6555c.2567-.2561.2567-.6717 0-.9284-.25605-.256-.67163-.256-.92833 0l-3.65555 3.6556c-.256702.256-.256702.6716 0 .9283.12802.128.29609.1924.46417.1924z" fill="#b9bec7" fill-rule="evenodd"/><path d="m1.65688 15.6265c.16807 0 .33614-.0644.46416-.1924l3.65555-3.6555c.2567-.2561.2567-.6717 0-.9284-.25605-.256-.67163-.256-.92833 0l-3.65555 3.6556c-.256702.256-.256702.6716 0 .9283.12802.128.29609.1924.46417.1924" stroke="#b5bac1" stroke-width=".5"/></svg>