<svg width="45" height="45" viewBox="0 0 45 45" fill="none" xmlns="http://www.w3.org/2000/svg">
<path fill-rule="evenodd" clip-rule="evenodd" d="M22.6777 3.50769C17.8903 3.50769 13.1732 4.26982 8.63209 5.77471C7.47042 6.14081 6.51996 7.42217 6.51996 8.58384V25.9561C6.51996 27.461 7.45282 30.1117 8.66729 31.3948C15.0389 37.9319 19.1575 41.4802 22.6777 41.4802C26.1804 41.4802 30.299 37.9301 36.6882 31.3772C37.9027 30.1117 38.8179 27.461 38.8355 25.942V8.58736C38.8355 7.46441 37.8323 6.12673 36.741 5.78175C32.1823 4.26982 27.4476 3.50769 22.6777 3.50769ZM22.6781 45C17.8906 45 13.3495 41.2422 6.13311 33.8374C4.17939 31.7869 3.00012 28.2297 3.00012 25.9644V8.5869C2.98252 5.89394 4.95384 3.24322 7.54119 2.42477C17.2922 -0.803268 28.0288 -0.815589 37.8326 2.43181C40.3496 3.22914 42.3561 5.93794 42.3561 8.5869V25.9504C42.3385 28.2315 41.1592 31.7939 39.2231 33.8216C31.9891 41.2404 27.4656 45 22.6781 45Z" fill="#7C828D"/>
<path fill-rule="evenodd" clip-rule="evenodd" d="M10.9203 9.6663V25.9226C10.9203 26.4489 11.5011 27.9802 11.8179 28.3182C14.3701 30.9372 20.3545 37.08 22.6778 37.08C24.9835 37.08 30.9327 30.9724 33.4849 28.3657C33.8545 27.9732 34.4177 26.4278 34.4353 25.9367V9.66102C26.8141 7.33768 18.612 7.32536 10.9203 9.6663ZM22.678 38.8397C19.8443 38.8397 15.1448 34.2475 10.5509 29.541C9.86444 28.8229 9.178 26.8428 9.1604 25.9346V9.01816C9.1604 8.63622 9.40682 8.29652 9.75884 8.18035C18.1898 5.47331 27.2543 5.48739 35.5796 8.17683C35.9492 8.29476 36.1957 8.6327 36.1957 9.01464V25.9504C36.178 26.8621 35.4564 28.8423 34.77 29.5604C30.1761 34.2722 25.4942 38.8397 22.678 38.8397Z" fill="#7C828D"/>
<path fill-rule="evenodd" clip-rule="evenodd" d="M20.9358 26.8612C20.443 26.8612 19.9853 26.6641 19.6509 26.3138L16.7643 23.2829C16.0955 22.5789 16.1307 21.4647 16.8347 20.7941C17.5388 20.1253 18.6476 20.1499 19.3165 20.8557L20.8302 22.4451L25.9521 16.2108C26.5681 15.4627 27.677 15.3483 28.4162 15.9661C29.1731 16.5839 29.2787 17.6928 28.6627 18.4444L22.2911 26.217C21.9742 26.606 21.499 26.8418 20.9886 26.8594L20.9358 26.8612Z" fill="#7C828D"/>
</svg>
