<svg xmlns="http://www.w3.org/2000/svg" width="30" height="29"><path fill="#FFF" fill-rule="evenodd" stroke="#FFF" stroke-width=".5" d="M2.158 10.384l8.136-.763a.601.601 0 0 0 .294-.106.586.586 0 0 0 .189-.24l3.247-7.503a1.24 1.24 0 0 1 .468-.565c.01-.004.02-.014.03-.019a1.293 1.293 0 0 1 1.374.02c.203.135.367.328.473.564l3.238 7.502a.536.536 0 0 0 .189.241.562.562 0 0 0 .29.111l8.14.767.014.005a1.241 1.241 0 0 1 1.076.873c.083.246.087.497.02.729a1.258 1.258 0 0 1-.391.622l-6.133 5.399a.565.565 0 0 0-.174.256.66.66 0 0 0-.015.308l1.786 7.975c.058.256.039.507-.048.729a1.258 1.258 0 0 1-.444.584 1.286 1.286 0 0 1-1.405.062l-7.03-4.163a.575.575 0 0 0-.295-.087.621.621 0 0 0-.3.082L7.853 27.93c-.222.13-.468.189-.71.179a1.239 1.239 0 0 1-.69-.246 1.28 1.28 0 0 1-.448-.579 1.342 1.342 0 0 1-.048-.733l1.795-7.975v-.01a.604.604 0 0 0-.015-.294.53.53 0 0 0-.173-.256l-6.129-5.403a1.302 1.302 0 0 1-.39-.623 1.31 1.31 0 0 1 .019-.733 1.3 1.3 0 0 1 .415-.603c.193-.15.424-.246.68-.27zm8.204-.073l-8.141.763a.551.551 0 0 0-.31.12.578.578 0 0 0-.187.28.562.562 0 0 0-.01.333.52.52 0 0 0 .179.28l6.133 5.408c.178.154.304.347.371.56.068.207.078.434.03.66v.015l-1.79 7.975a.555.555 0 0 0 .018.333.596.596 0 0 0 .203.265.584.584 0 0 0 .642.029l7.036-4.159c.202-.12.43-.183.651-.183.222.005.444.063.647.183l7.03 4.164a.59.59 0 0 0 .329.087.584.584 0 0 0 .314-.116.57.57 0 0 0 .207-.26.613.613 0 0 0 .02-.338l-1.786-7.975a1.329 1.329 0 0 1 .029-.675c.072-.213.198-.406.376-.56l6.134-5.399a.603.603 0 0 0 .183-.28.62.62 0 0 0-.01-.337.624.624 0 0 0-.188-.275.611.611 0 0 0-.304-.126h-.01l-8.136-.767a1.29 1.29 0 0 1-.632-.236 1.237 1.237 0 0 1-.42-.53l-3.242-7.503a.572.572 0 0 0-.213-.26.575.575 0 0 0-.318-.092.573.573 0 0 0-.304.082l-.02.01a.599.599 0 0 0-.212.26l-3.248 7.502a1.298 1.298 0 0 1-.42.526 1.29 1.29 0 0 1-.631.236z"/></svg>