<svg width="160" height="160" xmlns="http://www.w3.org/2000/svg"><defs><linearGradient x1="0%" y1="100%" x2="100%" y2="0%" id="a"><stop stop-color="#E636F1" offset="0%"/><stop stop-color="#55CDFB" offset="100%"/></linearGradient><linearGradient x1="2.757%" y1="47.581%" x2="100%" y2="47.581%" id="b"><stop stop-color="#918EF7" offset="0%"/><stop offset="100%"/></linearGradient><linearGradient x1="2.757%" y1="47.581%" x2="100%" y2="47.581%" id="c"><stop stop-color="#AF6FF5" offset="0%"/><stop offset="100%"/></linearGradient><filter x="0%" y="0%" width="100%" height="100%" filterUnits="objectBoundingBox" id="d"><feGaussianBlur in="SourceGraphic"/></filter><filter x="0%" y="0%" width="100%" height="100%" filterUnits="objectBoundingBox" id="e"><feGaussianBlur in="SourceGraphic"/></filter></defs><g fill="none" fill-rule="evenodd"><path d="M13.66 64H64v32H34.277A2.277 2.277 0 0032 98.277v27.446A2.277 2.277 0 0034.277 128h27.446A2.277 2.277 0 0064 125.723V13.661C64 6.116 70.116 0 77.66 0h68.68C153.883 0 160 6.116 160 13.66v68.68c0 7.544-6.116 13.66-13.66 13.66H96V64h29.723A2.277 2.277 0 00128 61.723V34.277A2.277 2.277 0 00125.723 32H98.277A2.277 2.277 0 0096 34.277v112.062C96 153.884 89.884 160 82.34 160H13.66C6.117 160 0 153.884 0 146.34V77.66C0 70.117 6.116 64 13.66 64z" fill="url(#a)"/><path fill-opacity=".12" fill="url(#b)" transform="rotate(-180 110.345 80.46)" d="M96.552 64.368h27.586v32.184H96.552z"/><path fill-opacity=".12" fill="url(#c)" transform="matrix(1 0 0 -1 0 160.92)" d="M36.782 64.368h27.586v32.184H36.782z"/><rect fill="#8A95F7" filter="url(#d)" width="32" height="32" rx="4.554"/><rect fill="#B668F5" filter="url(#e)" x="128" y="128" width="32" height="32" rx="4.554"/></g></svg>