<svg width="21" height="21" viewBox="0 0 21 21" fill="none" xmlns="http://www.w3.org/2000/svg">
<path d="M10.7031 0.571411C5.08398 0.571411 0.53125 5.16516 0.53125 10.7433C0.53125 16.3624 5.08398 20.9152 10.7031 20.9152C16.2812 20.9152 20.875 16.3624 20.875 10.7433C20.875 5.16516 16.2812 0.571411 10.7031 0.571411ZM10.7031 2.54016C15.2148 2.54016 18.9062 6.23157 18.9062 10.7433C18.9062 15.296 15.2148 18.9464 10.7031 18.9464C6.15039 18.9464 2.5 15.296 2.5 10.7433C2.5 6.23157 6.15039 2.54016 10.7031 2.54016ZM16.4453 7.91321L15.502 6.96985C15.3379 6.76477 15.0098 6.76477 14.8047 6.96985L9.02148 12.712L6.56055 10.2511C6.35547 10.046 6.06836 10.046 5.86328 10.2511L4.91992 11.1534C4.75586 11.3585 4.75586 11.6866 4.91992 11.8507L8.65234 15.6241C8.85742 15.8292 9.14453 15.8292 9.34961 15.6241L16.4453 8.61047C16.6094 8.4054 16.6094 8.07727 16.4453 7.91321Z" fill="#00A551"/>
</svg>
