<svg xmlns="http://www.w3.org/2000/svg" xmlns:xlink="http://www.w3.org/1999/xlink" width="100" height="100" viewBox="0 0 100 100"><g><g transform="translate(50 50) scale(0.69 0.69) rotate(0) translate(-50 -50)" style="fill:#ef4136;"><svg fill="#ef4136" xmlns="http://www.w3.org/2000/svg" xmlns:xlink="http://www.w3.org/1999/xlink" version="1.1" x="0px" y="0px" viewBox="0 0 32 32" enable-background="new 0 0 32 32" xml:space="preserve"><g><g><path fill="#ef4136" d="M16,31.2C16,31.2,16,31.2,16,31.2C7.6,31.2,0.7,24.4,0.7,16c0-4.1,1.6-7.9,4.5-10.8    C8.1,2.3,11.9,0.8,16,0.8c0,0,0,0,0,0c8.4,0,15.3,6.8,15.3,15.3c0,4.1-1.6,7.9-4.5,10.8C23.9,29.7,20.1,31.2,16,31.2z M16,2.3    c-3.7,0-7.1,1.4-9.7,4c-2.6,2.6-4,6-4,9.7c0,7.6,6.2,13.8,13.8,13.8h0c3.7,0,7.1-1.4,9.7-4c2.6-2.6,4-6,4-9.7    C29.8,8.4,23.6,2.3,16,2.3L16,2.3z"></path></g><g><path fill="#ef4136" d="M12.3,22.9c-0.1,0-0.2,0-0.4-0.1c-0.2-0.1-0.4-0.4-0.4-0.7V9.8c0-0.3,0.1-0.5,0.4-0.7    c0.2-0.1,0.5-0.1,0.8,0l9.6,6.2c0.2,0.1,0.3,0.4,0.3,0.6s-0.1,0.5-0.3,0.6l-9.6,6.2C12.6,22.9,12.5,22.9,12.3,22.9z M13.1,11.2    v9.6l7.5-4.8L13.1,11.2z"></path></g></g></svg></g></g></svg>