<svg xmlns="http://www.w3.org/2000/svg" viewBox="0 0 57.55 55.2"><g data-name="Layer 2"><path d="M52.3 24.56a5.22 5.22 0 0 0-5 3.59l-8.14-.83a10 10 0 0 0-4-7.87l5.45-9.25a5.93 5.93 0 0 0 1.66.28 5.24 5.24 0 1 0-5.24-5.24A5.11 5.11 0 0 0 38.71 9l-5.45 9.25a10.11 10.11 0 0 0-4.14-.9 10.22 10.22 0 0 0-6.49 2.35l-4.69-4.42a5.1 5.1 0 0 0 .76-2.69 5.24 5.24 0 1 0-5.24 5.24 5.55 5.55 0 0 0 3-.9l4.69 4.42a10.11 10.11 0 0 0-1.79 8.07l-9.63 3.29a5.19 5.19 0 0 0-4.48-2.55 5.24 5.24 0 1 0 5.24 5.24v-.55l9.59-3.24a10 10 0 0 0 9.11 5.8 5.58 5.58 0 0 0 1.1-.07l1.79 7.93a5.12 5.12 0 0 0-3 4.69 5.24 5.24 0 1 0 5.24-5.24h-.07l-1.75-7.94a10.19 10.19 0 0 0 6.5-7.39l8.14.83a5.17 5.17 0 0 0 5.17 4.62 5.24 5.24 0 0 0 5.24-5.24 5.3 5.3 0 0 0-5.25-5.04z" fill="#a297e9" data-name="Layer 1"/></g></svg>