<svg width="23" height="24" viewBox="0 0 23 24" fill="none" xmlns="http://www.w3.org/2000/svg">
<path fill-rule="evenodd" clip-rule="evenodd" d="M0 0.575C0 0.257436 0.257436 0 0.575 0H22.425C22.7426 0 23 0.257436 23 0.575C23 0.892564 22.7426 1.15 22.425 1.15H0.575C0.257436 1.15 0 0.892564 0 0.575Z" transform="translate(0 11.0375)" fill="white"/>
<path fill-rule="evenodd" clip-rule="evenodd" d="M0 0.575C0 0.257436 0.257436 0 0.575 0H22.425C22.7426 0 23 0.257436 23 0.575C23 0.892564 22.7426 1.15 22.425 1.15H0.575C0.257436 1.15 0 0.892564 0 0.575Z" transform="translate(12.1504 0.0374756) rotate(90)" fill="white"/>
</svg>
