<svg xmlns="http://www.w3.org/2000/svg" xmlns:xlink="http://www.w3.org/1999/xlink" version="1.1" x="0px" y="0px" viewBox="0 0 52 52" style="enable-background:new 0 0 52 52;fill:#ef4136;" xml:space="preserve"><g><g><path d="M16.8752441,32.7048187H7.5090332c-2.7568359,0-5-2.2431641-5-5V21.155014c0-2.7568359,2.2431641-5,5-5h9.3662109    c0.5522461,0,1,0.4477539,1,1v14.5498047C17.8752441,32.2570648,17.4274902,32.7048187,16.8752441,32.7048187z     M7.5090332,18.155014c-1.6542969,0-3,1.3457031-3,3v6.5498047c0,1.6542969,1.3457031,3,3,3h8.3662109V18.155014H7.5090332z"></path></g><g><path d="M42.3820801,31.5388031c-0.5522461,0-1-0.4477539-1-1V18.3210297c0-0.5522461,0.4477539-1,1-1    c3.9199219,0,7.1088867,3.1889648,7.1088867,7.1088867S46.302002,31.5388031,42.3820801,31.5388031z M43.3820801,19.4191742    v10.0214844c2.3398438-0.4663086,4.1088867-2.5356445,4.1088867-5.0107422S45.7219238,19.8854828,43.3820801,19.4191742z"></path></g><g><g><path d="M16.1921387,46.0236664h-8c-0.5522461,0-1-0.4477539-1-1V31.7048187c0-0.5522461,0.4477539-1,1-1h6     c0.5522461,0,1,0.4477539,1,1v9.3925781l1.8779297,3.4477539c0.1689453,0.3100586,0.1621094,0.6860352-0.0180664,0.9892578     S16.545166,46.0236664,16.1921387,46.0236664z M9.1921387,44.0236664h5.3164063l-1.1943359-2.1928711     c-0.0800781-0.1469727-0.1220703-0.3115234-0.1220703-0.4785156v-8.6474609h-4V44.0236664z"></path></g><g><path d="M16.1921387,36.3825531h-2c-0.5522461,0-1-0.4477539-1-1s0.4477539-1,1-1h2c0.5522461,0,1,0.4477539,1,1     S16.7443848,36.3825531,16.1921387,36.3825531z"></path></g><g><path d="M16.1921387,40.3825531h-2c-0.5522461,0-1-0.4477539-1-1s0.4477539-1,1-1h2c0.5522461,0,1,0.4477539,1,1     S16.7443848,40.3825531,16.1921387,40.3825531z"></path></g></g><g><path d="M37.3815918,38.8898773c-0.2011719,0-0.4013672-0.0605469-0.5722656-0.1801758    c-5.8642578-4.0932617-12.6860352-6.8540039-19.7280273-7.9833984l-0.3637695-0.0581055    c-0.4853516-0.0771484-0.8422852-0.4956055-0.8422852-0.9873047V19.1789398c0-0.4907227,0.355957-0.9091797,0.8408203-0.9873047    l0.4780273-0.0771484c7.0009766-1.1303711,13.7836914-3.8818359,19.6147461-7.9570313    c0.3046875-0.2133789,0.7050781-0.2387695,1.034668-0.0668945c0.3305664,0.1723633,0.5380859,0.5141602,0.5380859,0.8867188    v26.9125977c0,0.3725586-0.2070313,0.7143555-0.5375977,0.8867188    C37.6984863,38.8522797,37.5397949,38.8898773,37.3815918,38.8898773z M17.8752441,28.8307953    c6.5488281,1.1176758,12.9003906,3.5869141,18.5063477,7.1860352V12.8513031    c-5.6049805,3.6015625-11.9589844,6.0693359-18.5063477,7.1777344V28.8307953z M17.3532715,19.1017914h0.0097656H17.3532715z"></path></g><g><path d="M42.3820801,42.8835297c-0.2451172,0-0.4868164-0.090332-0.6748047-0.262207    c-1.5117188-1.3823242-3.159668-2.6982422-4.8979492-3.9111328c-0.2680664-0.1875-0.4277344-0.4936523-0.4277344-0.8203125    V10.9772797c0-0.3266602,0.159668-0.6328125,0.4272461-0.8198242c1.7387695-1.2148438,3.3867188-2.5332031,4.8969727-3.9179688    c0.2924805-0.2685547,0.7143555-0.3378906,1.0786133-0.1787109c0.362793,0.159668,0.597168,0.519043,0.597168,0.9155273    l0.0004883,34.9072266c0,0.3964844-0.2338867,0.7553711-0.5966797,0.9150391    C42.6555176,42.8556976,42.5183105,42.8835297,42.3820801,42.8835297z M38.3815918,37.3713226    c1.0356445,0.7387695,2.0385742,1.5117188,3,2.3125l0.0004883-30.5053711    c-0.9614258,0.8022461-1.9648438,1.5771484-3.0004883,2.3168945V37.3713226z"></path></g></g></svg>