<svg viewBox="0 0 86 24" xmlns="http://www.w3.org/2000/svg"><g fill="none"><path d="M37.2,3.637 L47.68,3.637 L47.68,6.812 L40.73,6.812 L40.73,10.422 L46.016,10.422 L46.016,13.502 L40.73,13.502 L40.73,19.569 L37.2,19.569 L37.2,3.633 L37.2,3.637 Z M49.493,3.637 L52.863,3.637 L52.863,19.57 L49.493,19.57 L49.493,3.636 L49.493,3.637 Z M60.976,16.967 C61.738107,16.9819436 62.4625005,16.6360587 62.93,16.034 C63.1568328,15.7458472 63.3271559,15.4174156 63.432,15.066 C63.542,14.708 63.596,14.336 63.596,13.956 C63.5967597,13.579253 63.5414886,13.2044874 63.432,12.844 C63.3282312,12.4958003 63.1577326,12.1711058 62.93,11.888 C62.7030949,11.6097372 62.420339,11.3821698 62.1,11.22 C61.7511535,11.047753 61.3659717,10.9620046 60.977,10.97 C60.557,10.97 60.177,11.052 59.841,11.22 C59.5195867,11.3782961 59.2376922,11.6065453 59.016,11.888 C58.798,12.168 58.629,12.486 58.513,12.844 C58.3957718,13.2022822 58.33669,13.5770293 58.338,13.954 C58.338,14.336 58.396,14.706 58.513,15.064 C58.628,15.424 58.796,15.744 59.013,16.032 C59.233,16.318 59.509,16.545 59.843,16.712 C60.179,16.88 60.558,16.962 60.979,16.962 L60.979,16.966 L60.976,16.967 Z M55.083,13.957 C55.083,13.127 55.227,12.351 55.515,11.627 C55.7921357,10.9227748 56.2011177,10.277907 56.72,9.727 C57.2460643,9.1785168 57.8791337,8.74387722 58.58,8.45 C59.306,8.14 60.105,7.984 60.978,7.984 C61.852,7.984 62.646,8.138 63.364,8.449 C64.0601182,8.74332186 64.6889231,9.17647589 65.212,9.722 C65.7318218,10.2719841 66.1406288,10.9171114 66.416,11.622 C66.704,12.346 66.848,13.122 66.848,13.952 C66.8538731,14.7483189 66.7065302,15.5383352 66.414,16.279 C66.139878,16.9842887 65.7313044,17.6295837 65.211,18.179 C64.6872912,18.7257425 64.0605943,19.1634787 63.367,19.467 C62.65,19.787 61.855,19.947 60.982,19.947 C60.108,19.947 59.309,19.787 58.582,19.467 C57.8818372,19.1659539 57.2493147,18.7272689 56.722,18.177 C56.204321,17.6261218 55.7969784,16.9811628 55.522,16.277 C55.2322199,15.5346255 55.0862932,14.7439064 55.092,13.947 L55.087,13.953 L55.083,13.957 Z M67.643,8.365 L71.105,8.365 L73.022,15.555 L75.15,8.365 L77.84,8.365 L79.99,15.555 L81.91,8.365 L85.302,8.365 L81.535,19.57 L78.495,19.57 L76.435,13.31 L74.402,19.57 L71.41,19.57 L67.642,8.365 L67.643,8.365 Z" fill="#4a4a4a"/><path d="M10.216,0.055 C10.6181496,0.0167169536 11.0220629,2.63241468e-05 11.426,0.005 C17.666,0.005 22.676,5.125 22.723,11.565 C22.681,13.558 21.339,15.143 19.513,15.143 C17.669,15.143 16.073,13.819 16.073,11.563 C16.073,8.98 13.879,6.94 11.243,6.94 C8.61,6.94 6.713,9.152 6.678,11.804 C6.678,16.449 9.308,20.817 12.978,22.764 C13.291,22.964 13.413,22.984 13.698,23.146 C12.881,23.376 11.94,23.456 11.424,23.456 C5.134,23.456 0.034,18.281 0.034,11.803 C0.034,5.793 4.454,0.685 10.214,0.055 L10.216,0.055 Z" fill="#46B1FF"/><path d="M17.064,0.252 C21.324,1.927 24.13,6.846 24.167,11.8 C24.11,14.566 21.88,16.568 19.517,16.568 C17.157,16.568 14.709,14.868 14.709,11.798 C14.709,9.75 13.171,8.358 11.249,8.358 C9.439,8.358 8.059,9.852 8.059,11.798 C8.059,13.488 8.383,14.441 8.546,15.138 C8.706,15.836 9.348,17.136 9.363,17.168 C9.423,17.291 10.033,18.425 10.809,19.372 C11.3189578,19.9765349 11.8873843,20.5292182 12.506,21.022 C12.569,21.072 13.066,21.452 13.256,21.582 C13.326,21.63 14.556,22.422 15.77,22.818 C16.986,23.212 18.01,23.442 19.36,23.442 C25.633,23.442 30.783,18.277 30.783,11.8 C30.785,5.322 25.79,0.014 19.423,0.014 C18.745,0.014 17.71,0.134 17.063,0.252 L17.064,0.252 Z" fill="#8ED4FE"/></g></svg>