<svg xmlns="http://www.w3.org/2000/svg" xmlns:xlink="http://www.w3.org/1999/xlink" width="100" height="100" viewBox="0 0 100 100"><g><g transform="translate(50 50) scale(0.69 0.69) rotate(0) translate(-50 -50)" style="fill:#ef4136;"><svg fill="#ef4136" xmlns="http://www.w3.org/2000/svg" xmlns:xlink="http://www.w3.org/1999/xlink" version="1.1" x="0px" y="0px" viewBox="0 0 32 32" enable-background="new 0 0 32 32" xml:space="preserve"><g><g><path fill="#ef4136" d="M27.3,31.2H4.7c-2.2,0-4-1.8-4-4V4.7c0-2.2,1.8-4,4-4h22.6c2.2,0,4,1.8,4,4v22.6    C31.3,29.5,29.5,31.2,27.3,31.2z M4.7,2.2c-1.4,0-2.5,1.1-2.5,2.5v22.6c0,1.4,1.1,2.5,2.5,2.5h22.6c1.4,0,2.5-1.1,2.5-2.5V4.7    c0-1.4-1.1-2.5-2.5-2.5H4.7z"></path></g><g><polygon fill="#ef4136" points="12.2,23.6 6.2,17.6 7.3,16.5 12.2,21.4 24.7,9 25.8,10   "></polygon></g></g></svg></g></g></svg>