<svg xmlns="http://www.w3.org/2000/svg" xmlns:xlink="http://www.w3.org/1999/xlink" width="100" height="100" viewBox="0 0 100 100"><g><g transform="translate(50 50) scale(0.69 0.69) rotate(0) translate(-50 -50)" style="fill:#ef4136;"><svg fill="#ef4136" xmlns="http://www.w3.org/2000/svg" xmlns:xlink="http://www.w3.org/1999/xlink" version="1.1" x="0px" y="0px" viewBox="0 0 32 32" enable-background="new 0 0 32 32" xml:space="preserve"><g><g><path fill="#ef4136" d="M22.7,8.7H9.3l1.4-5.9h10.5L22.7,8.7z M11.2,7.2h9.6l-0.7-2.9h-8.2L11.2,7.2z"></path></g><g><path fill="#ef4136" d="M28.2,29.2H3.8c-1.7,0-3.1-1.4-3.1-3.1V14.4h30.5v11.7C31.3,27.8,29.9,29.2,28.2,29.2z M2.3,15.9v10.2    c0,0.9,0.7,1.6,1.6,1.6h24.3c0.9,0,1.6-0.7,1.6-1.6V15.9H2.3z"></path></g><g><rect x="23.2" y="15.1" fill="#ef4136" width="1.5" height="4.6"></rect></g><g><path fill="#ef4136" d="M31.3,15.9H0.8v-5.6c0-1.7,1.4-3.1,3.1-3.1h24.3c1.7,0,3.1,1.4,3.1,3.1V15.9z M2.3,14.4h27.5v-4.1    c0-0.9-0.7-1.6-1.6-1.6H3.8c-0.9,0-1.6,0.7-1.6,1.6V14.4z"></path></g><g><rect x="8" y="15.1" fill="#ef4136" width="1.5" height="4.6"></rect></g></g></svg></g></g></svg>