<svg width="867" height="460" fill="none" xmlns="http://www.w3.org/2000/svg"><path d="M796.536 314.64c0 69.184-71.046 125.733-106.569 145.36H4c71.396-35.286 193.999-137.144 193.999-192.28 0-89.24-85.439-63.48-85.439-149.96 0-69.184 80.233-98.133 115.756-117.76h634.472S734 31.504 734 138c0 62 62.536 71.76 62.536 176.64z" fill="#fff"/><mask id="a" maskUnits="userSpaceOnUse" x="4" y="0" width="859" height="460"><path d="M796.536 314.64c0 69.184-71.046 125.733-106.569 145.36H4c71.396-35.286 193.999-137.144 193.999-192.28 0-89.24-85.439-63.48-85.439-149.96 0-69.184 80.233-98.133 115.756-117.76h634.472S734 31.504 734 138c0 62 62.536 71.76 62.536 176.64z" fill="#fff"/></mask><g opacity=".1" fill="#000" mask="url(#a)"><path d="M-645 9.5a1.5 1.5 0 11-3 0 1.5 1.5 0 013 0zm20 0a1.5 1.5 0 11-3 0 1.5 1.5 0 013 0zm20 0a1.5 1.5 0 11-3 0 1.5 1.5 0 013 0zm20 0a1.5 1.5 0 11-3 0 1.5 1.5 0 013 0zm20 0a1.5 1.5 0 11-3 0 1.5 1.5 0 013 0zm20 0a1.5 1.5 0 11-3 0 1.5 1.5 0 013 0zm20 0a1.5 1.5 0 11-3 0 1.5 1.5 0 013 0zm20 0a1.5 1.5 0 11-3 0 1.5 1.5 0 013 0zm20 0a1.5 1.5 0 11-3 0 1.5 1.5 0 013 0zm-160 20a1.5 1.5 0 11-3 0 1.5 1.5 0 013 0zm20 0a1.5 1.5 0 11-3 0 1.5 1.5 0 013 0zm20 0a1.5 1.5 0 11-3 0 1.5 1.5 0 013 0zm20 0a1.5 1.5 0 11-3 0 1.5 1.5 0 013 0zm20 0a1.5 1.5 0 11-3 0 1.5 1.5 0 013 0zm20 0a1.5 1.5 0 11-3 0 1.5 1.5 0 013 0zm20 0a1.5 1.5 0 11-3 0 1.5 1.5 0 013 0zm20 0a1.5 1.5 0 11-3 0 1.5 1.5 0 013 0zm20 0a1.5 1.5 0 11-3 0 1.5 1.5 0 013 0zm-160 20a1.5 1.5 0 11-3 0 1.5 1.5 0 013 0zm20 0a1.5 1.5 0 11-3 0 1.5 1.5 0 013 0zm20 0a1.5 1.5 0 11-3 0 1.5 1.5 0 013 0zm20 0a1.5 1.5 0 11-3 0 1.5 1.5 0 013 0zm20 0a1.5 1.5 0 11-3 0 1.5 1.5 0 013 0zm20 0a1.5 1.5 0 11-3 0 1.5 1.5 0 013 0zm20 0a1.5 1.5 0 11-3 0 1.5 1.5 0 013 0zm20 0a1.5 1.5 0 11-3 0 1.5 1.5 0 013 0zm20 0a1.5 1.5 0 11-3 0 1.5 1.5 0 013 0zm-160 20a1.5 1.5 0 11-3 0 1.5 1.5 0 013 0zm20 0a1.5 1.5 0 11-3 0 1.5 1.5 0 013 0zm20 0a1.5 1.5 0 11-3 0 1.5 1.5 0 013 0zm20 0a1.5 1.5 0 11-3 0 1.5 1.5 0 013 0zm20 0a1.5 1.5 0 11-3 0 1.5 1.5 0 013 0zm20 0a1.5 1.5 0 11-3 0 1.5 1.5 0 013 0zm20 0a1.5 1.5 0 11-3 0 1.5 1.5 0 013 0zm20 0a1.5 1.5 0 11-3 0 1.5 1.5 0 013 0zm20 0a1.5 1.5 0 11-3 0 1.5 1.5 0 013 0zm-160 20a1.5 1.5 0 11-3 0 1.5 1.5 0 013 0zm20 0a1.5 1.5 0 11-3 0 1.5 1.5 0 013 0zm20 0a1.5 1.5 0 11-3 0 1.5 1.5 0 013 0zm20 0a1.5 1.5 0 11-3 0 1.5 1.5 0 013 0zm20 0a1.5 1.5 0 11-3 0 1.5 1.5 0 013 0zm20 0a1.5 1.5 0 11-3 0 1.5 1.5 0 013 0zm20 0a1.5 1.5 0 11-3 0 1.5 1.5 0 013 0zm20 0a1.5 1.5 0 11-3 0 1.5 1.5 0 013 0zm20 0a1.5 1.5 0 11-3 0 1.5 1.5 0 013 0zm-160 20a1.5 1.5 0 11-3.001-.001 1.5 1.5 0 013.001.001zm20 0a1.5 1.5 0 11-3.001-.001 1.5 1.5 0 013.001.001zm20 0a1.5 1.5 0 11-3.001-.001 1.5 1.5 0 013.001.001zm20 0a1.5 1.5 0 11-3.001-.001 1.5 1.5 0 013.001.001zm20 0a1.5 1.5 0 11-3.001-.001 1.5 1.5 0 013.001.001zm20 0a1.5 1.5 0 11-3.001-.001 1.5 1.5 0 013.001.001zm20 0a1.5 1.5 0 11-3.001-.001 1.5 1.5 0 013.001.001zm20 0a1.5 1.5 0 11-3.001-.001 1.5 1.5 0 013.001.001zm20 0a1.5 1.5 0 11-3.001-.001 1.5 1.5 0 013.001.001zm-160 20a1.5 1.5 0 11-3.001-.001 1.5 1.5 0 013.001.001zm20 0a1.5 1.5 0 11-3.001-.001 1.5 1.5 0 013.001.001zm20 0a1.5 1.5 0 11-3.001-.001 1.5 1.5 0 013.001.001zm20 0a1.5 1.5 0 11-3.001-.001 1.5 1.5 0 013.001.001zm20 0a1.5 1.5 0 11-3.001-.001 1.5 1.5 0 013.001.001zm20 0a1.5 1.5 0 11-3.001-.001 1.5 1.5 0 013.001.001zm20 0a1.5 1.5 0 11-3.001-.001 1.5 1.5 0 013.001.001zm20 0a1.5 1.5 0 11-3.001-.001 1.5 1.5 0 013.001.001zm20 0a1.5 1.5 0 11-3.001-.001 1.5 1.5 0 013.001.001zm-160 20a1.5 1.5 0 11-3.001-.001 1.5 1.5 0 013.001.001zm20 0a1.5 1.5 0 11-3.001-.001 1.5 1.5 0 013.001.001zm20 0a1.5 1.5 0 11-3.001-.001 1.5 1.5 0 013.001.001zm20 0a1.5 1.5 0 11-3.001-.001 1.5 1.5 0 013.001.001zm20 0a1.5 1.5 0 11-3.001-.001 1.5 1.5 0 013.001.001zm20 0a1.5 1.5 0 11-3.001-.001 1.5 1.5 0 013.001.001zm20 0a1.5 1.5 0 11-3.001-.001 1.5 1.5 0 013.001.001zm20 0a1.5 1.5 0 11-3.001-.001 1.5 1.5 0 013.001.001zm20 0a1.5 1.5 0 11-3.001-.001 1.5 1.5 0 013.001.001zm-160 20a1.5 1.5 0 11-3.001-.001 1.5 1.5 0 013.001.001zm20 0a1.5 1.5 0 11-3.001-.001 1.5 1.5 0 013.001.001zm20 0a1.5 1.5 0 11-3.001-.001 1.5 1.5 0 013.001.001zm20 0a1.5 1.5 0 11-3.001-.001 1.5 1.5 0 013.001.001zm20 0a1.5 1.5 0 11-3.001-.001 1.5 1.5 0 013.001.001zm20 0a1.5 1.5 0 11-3.001-.001 1.5 1.5 0 013.001.001zm20 0a1.5 1.5 0 11-3.001-.001 1.5 1.5 0 013.001.001zm20 0a1.5 1.5 0 11-3.001-.001 1.5 1.5 0 013.001.001zm20 0a1.5 1.5 0 11-3.001-.001 1.5 1.5 0 013.001.001zm-160 20a1.5 1.5 0 11-3.001-.001 1.5 1.5 0 013.001.001zm20 0a1.5 1.5 0 11-3.001-.001 1.5 1.5 0 013.001.001zm20 0a1.5 1.5 0 11-3.001-.001 1.5 1.5 0 013.001.001zm20 0a1.5 1.5 0 11-3.001-.001 1.5 1.5 0 013.001.001zm20 0a1.5 1.5 0 11-3.001-.001 1.5 1.5 0 013.001.001zm20 0a1.5 1.5 0 11-3.001-.001 1.5 1.5 0 013.001.001zm20 0a1.5 1.5 0 11-3.001-.001 1.5 1.5 0 013.001.001zm20 0a1.5 1.5 0 11-3.001-.001 1.5 1.5 0 013.001.001zm20 0a1.5 1.5 0 11-3.001-.001 1.5 1.5 0 013.001.001zm-160 20a1.5 1.5 0 11-3.001-.001 1.5 1.5 0 013.001.001zm20 0a1.5 1.5 0 11-3.001-.001 1.5 1.5 0 013.001.001zm20 0a1.5 1.5 0 11-3.001-.001 1.5 1.5 0 013.001.001zm20 0a1.5 1.5 0 11-3.001-.001 1.5 1.5 0 013.001.001zm20 0a1.5 1.5 0 11-3.001-.001 1.5 1.5 0 013.001.001zm20 0a1.5 1.5 0 11-3.001-.001 1.5 1.5 0 013.001.001zm20 0a1.5 1.5 0 11-3.001-.001 1.5 1.5 0 013.001.001zm20 0a1.5 1.5 0 11-3.001-.001 1.5 1.5 0 013.001.001zm20 0a1.5 1.5 0 11-3.001-.001 1.5 1.5 0 013.001.001zm-160 20a1.5 1.5 0 11-3.001-.001 1.5 1.5 0 013.001.001zm20 0a1.5 1.5 0 11-3.001-.001 1.5 1.5 0 013.001.001zm20 0a1.5 1.5 0 11-3.001-.001 1.5 1.5 0 013.001.001zm20 0a1.5 1.5 0 11-3.001-.001 1.5 1.5 0 013.001.001zm20 0a1.5 1.5 0 11-3.001-.001 1.5 1.5 0 013.001.001zm20 0a1.5 1.5 0 11-3.001-.001 1.5 1.5 0 013.001.001zm20 0a1.5 1.5 0 11-3.001-.001 1.5 1.5 0 013.001.001zm20 0a1.5 1.5 0 11-3.001-.001 1.5 1.5 0 013.001.001zm20 0a1.5 1.5 0 11-3.001-.001 1.5 1.5 0 013.001.001zm20-220a1.5 1.5 0 11-3 0 1.5 1.5 0 013 0zm20 0a1.5 1.5 0 11-3 0 1.5 1.5 0 013 0zm20 0a1.5 1.5 0 11-3 0 1.5 1.5 0 013 0zm20 0a1.5 1.5 0 11-3 0 1.5 1.5 0 013 0zm20 0a1.5 1.5 0 11-3 0 1.5 1.5 0 013 0zm20 0a1.5 1.5 0 11-3 0 1.5 1.5 0 013 0zm20 0a1.5 1.5 0 11-3 0 1.5 1.5 0 013 0zm20 0a1.5 1.5 0 11-3 0 1.5 1.5 0 013 0zm20 0a1.5 1.5 0 11-3 0 1.5 1.5 0 013 0zm20 0a1.5 1.5 0 11-3 0 1.5 1.5 0 013 0zm20 0a1.5 1.5 0 11-3 0 1.5 1.5 0 013 0zm20 0a1.5 1.5 0 11-3 0 1.5 1.5 0 013 0zm20 0a1.5 1.5 0 11-3 0 1.5 1.5 0 013 0zm20 0a1.5 1.5 0 11-3 0 1.5 1.5 0 013 0zm20 0a1.5 1.5 0 11-3 0 1.5 1.5 0 013 0zm-280 20a1.5 1.5 0 11-3 0 1.5 1.5 0 013 0zm20 0a1.5 1.5 0 11-3 0 1.5 1.5 0 013 0zm20 0a1.5 1.5 0 11-3 0 1.5 1.5 0 013 0zm20 0a1.5 1.5 0 11-3 0 1.5 1.5 0 013 0zm20 0a1.5 1.5 0 11-3 0 1.5 1.5 0 013 0zm20 0a1.5 1.5 0 11-3 0 1.5 1.5 0 013 0zm20 0a1.5 1.5 0 11-3 0 1.5 1.5 0 013 0zm20 0a1.5 1.5 0 11-3 0 1.5 1.5 0 013 0zm20 0a1.5 1.5 0 11-3 0 1.5 1.5 0 013 0zm20 0a1.5 1.5 0 11-3 0 1.5 1.5 0 013 0zm20 0a1.5 1.5 0 11-3 0 1.5 1.5 0 013 0zm20 0a1.5 1.5 0 11-3 0 1.5 1.5 0 013 0zm20 0a1.5 1.5 0 11-3 0 1.5 1.5 0 013 0zm20 0a1.5 1.5 0 11-3 0 1.5 1.5 0 013 0zm20 0a1.5 1.5 0 11-3 0 1.5 1.5 0 013 0zm-280 20a1.5 1.5 0 11-3 0 1.5 1.5 0 013 0zm20 0a1.5 1.5 0 11-3 0 1.5 1.5 0 013 0zm20 0a1.5 1.5 0 11-3 0 1.5 1.5 0 013 0zm20 0a1.5 1.5 0 11-3 0 1.5 1.5 0 013 0zm20 0a1.5 1.5 0 11-3 0 1.5 1.5 0 013 0zm20 0a1.5 1.5 0 11-3 0 1.5 1.5 0 013 0zm20 0a1.5 1.5 0 11-3 0 1.5 1.5 0 013 0zm20 0a1.5 1.5 0 11-3 0 1.5 1.5 0 013 0zm20 0a1.5 1.5 0 11-3 0 1.5 1.5 0 013 0zm20 0a1.5 1.5 0 11-3 0 1.5 1.5 0 013 0zm20 0a1.5 1.5 0 11-3 0 1.5 1.5 0 013 0zm20 0a1.5 1.5 0 11-3 0 1.5 1.5 0 013 0zm20 0a1.5 1.5 0 11-3 0 1.5 1.5 0 013 0zm20 0a1.5 1.5 0 11-3 0 1.5 1.5 0 013 0zm20 0a1.5 1.5 0 11-3 0 1.5 1.5 0 013 0zm-280 20a1.5 1.5 0 11-3 0 1.5 1.5 0 013 0zm20 0a1.5 1.5 0 11-3 0 1.5 1.5 0 013 0zm20 0a1.5 1.5 0 11-3 0 1.5 1.5 0 013 0zm20 0a1.5 1.5 0 11-3 0 1.5 1.5 0 013 0zm20 0a1.5 1.5 0 11-3 0 1.5 1.5 0 013 0zm20 0a1.5 1.5 0 11-3 0 1.5 1.5 0 013 0zm20 0a1.5 1.5 0 11-3 0 1.5 1.5 0 013 0zm20 0a1.5 1.5 0 11-3 0 1.5 1.5 0 013 0zm20 0a1.5 1.5 0 11-3 0 1.5 1.5 0 013 0zm20 0a1.5 1.5 0 11-3 0 1.5 1.5 0 013 0zm20 0a1.5 1.5 0 11-3 0 1.5 1.5 0 013 0zm20 0a1.5 1.5 0 11-3 0 1.5 1.5 0 013 0zm20 0a1.5 1.5 0 11-3 0 1.5 1.5 0 013 0zm20 0a1.5 1.5 0 11-3 0 1.5 1.5 0 013 0zm20 0a1.5 1.5 0 11-3 0 1.5 1.5 0 013 0zm-280 20a1.5 1.5 0 11-3 0 1.5 1.5 0 013 0zm20 0a1.5 1.5 0 11-3 0 1.5 1.5 0 013 0zm20 0a1.5 1.5 0 11-3 0 1.5 1.5 0 013 0zm20 0a1.5 1.5 0 11-3 0 1.5 1.5 0 013 0zm20 0a1.5 1.5 0 11-3 0 1.5 1.5 0 013 0zm20 0a1.5 1.5 0 11-3 0 1.5 1.5 0 013 0zm20 0a1.5 1.5 0 11-3 0 1.5 1.5 0 013 0zm20 0a1.5 1.5 0 11-3 0 1.5 1.5 0 013 0zm20 0a1.5 1.5 0 11-3 0 1.5 1.5 0 013 0zm20 0a1.5 1.5 0 11-3 0 1.5 1.5 0 013 0zm20 0a1.5 1.5 0 11-3 0 1.5 1.5 0 013 0zm20 0a1.5 1.5 0 11-3 0 1.5 1.5 0 013 0zm20 0a1.5 1.5 0 11-3 0 1.5 1.5 0 013 0zm20 0a1.5 1.5 0 11-3 0 1.5 1.5 0 013 0zm20 0a1.5 1.5 0 11-3 0 1.5 1.5 0 013 0zm-280 20a1.5 1.5 0 11-3.001-.001 1.5 1.5 0 013.001.001zm20 0a1.5 1.5 0 11-3.001-.001 1.5 1.5 0 013.001.001zm20 0a1.5 1.5 0 11-3.001-.001 1.5 1.5 0 013.001.001zm20 0a1.5 1.5 0 11-3.001-.001 1.5 1.5 0 013.001.001zm20 0a1.5 1.5 0 11-3.001-.001 1.5 1.5 0 013.001.001zm20 0a1.5 1.5 0 11-3.001-.001 1.5 1.5 0 013.001.001zm20 0a1.5 1.5 0 11-3.001-.001 1.5 1.5 0 013.001.001zm20 0a1.5 1.5 0 11-3.001-.001 1.5 1.5 0 013.001.001zm20 0a1.5 1.5 0 11-3.001-.001 1.5 1.5 0 013.001.001zm20 0a1.5 1.5 0 11-3.001-.001 1.5 1.5 0 013.001.001zm20 0a1.5 1.5 0 11-3.001-.001 1.5 1.5 0 013.001.001zm20 0a1.5 1.5 0 11-3.001-.001 1.5 1.5 0 013.001.001zm20 0a1.5 1.5 0 11-3.001-.001 1.5 1.5 0 013.001.001zm20 0a1.5 1.5 0 11-3.001-.001 1.5 1.5 0 013.001.001zm20 0a1.5 1.5 0 11-3.001-.001 1.5 1.5 0 013.001.001zm-280 20a1.5 1.5 0 11-3.001-.001 1.5 1.5 0 013.001.001zm20 0a1.5 1.5 0 11-3.001-.001 1.5 1.5 0 013.001.001zm20 0a1.5 1.5 0 11-3.001-.001 1.5 1.5 0 013.001.001zm20 0a1.5 1.5 0 11-3.001-.001 1.5 1.5 0 013.001.001zm20 0a1.5 1.5 0 11-3.001-.001 1.5 1.5 0 013.001.001zm20 0a1.5 1.5 0 11-3.001-.001 1.5 1.5 0 013.001.001zm20 0a1.5 1.5 0 11-3.001-.001 1.5 1.5 0 013.001.001zm20 0a1.5 1.5 0 11-3.001-.001 1.5 1.5 0 013.001.001zm20 0a1.5 1.5 0 11-3.001-.001 1.5 1.5 0 013.001.001zm20 0a1.5 1.5 0 11-3.001-.001 1.5 1.5 0 013.001.001zm20 0a1.5 1.5 0 11-3.001-.001 1.5 1.5 0 013.001.001zm20 0a1.5 1.5 0 11-3.001-.001 1.5 1.5 0 013.001.001zm20 0a1.5 1.5 0 11-3.001-.001 1.5 1.5 0 013.001.001zm20 0a1.5 1.5 0 11-3.001-.001 1.5 1.5 0 013.001.001zm20 0a1.5 1.5 0 11-3.001-.001 1.5 1.5 0 013.001.001zm-280 20a1.5 1.5 0 11-3.001-.001 1.5 1.5 0 013.001.001zm20 0a1.5 1.5 0 11-3.001-.001 1.5 1.5 0 013.001.001zm20 0a1.5 1.5 0 11-3.001-.001 1.5 1.5 0 013.001.001zm20 0a1.5 1.5 0 11-3.001-.001 1.5 1.5 0 013.001.001zm20 0a1.5 1.5 0 11-3.001-.001 1.5 1.5 0 013.001.001zm20 0a1.5 1.5 0 11-3.001-.001 1.5 1.5 0 013.001.001zm20 0a1.5 1.5 0 11-3.001-.001 1.5 1.5 0 013.001.001zm20 0a1.5 1.5 0 11-3.001-.001 1.5 1.5 0 013.001.001zm20 0a1.5 1.5 0 11-3.001-.001 1.5 1.5 0 013.001.001zm20 0a1.5 1.5 0 11-3.001-.001 1.5 1.5 0 013.001.001zm20 0a1.5 1.5 0 11-3.001-.001 1.5 1.5 0 013.001.001zm20 0a1.5 1.5 0 11-3.001-.001 1.5 1.5 0 013.001.001zm20 0a1.5 1.5 0 11-3.001-.001 1.5 1.5 0 013.001.001zm20 0a1.5 1.5 0 11-3.001-.001 1.5 1.5 0 013.001.001zm20 0a1.5 1.5 0 11-3.001-.001 1.5 1.5 0 013.001.001zm-280 20a1.5 1.5 0 11-3.001-.001 1.5 1.5 0 013.001.001zm20 0a1.5 1.5 0 11-3.001-.001 1.5 1.5 0 013.001.001zm20 0a1.5 1.5 0 11-3.001-.001 1.5 1.5 0 013.001.001zm20 0a1.5 1.5 0 11-3.001-.001 1.5 1.5 0 013.001.001zm20 0a1.5 1.5 0 11-3.001-.001 1.5 1.5 0 013.001.001zm20 0a1.5 1.5 0 11-3.001-.001 1.5 1.5 0 013.001.001zm20 0a1.5 1.5 0 11-3.001-.001 1.5 1.5 0 013.001.001zm20 0a1.5 1.5 0 11-3.001-.001 1.5 1.5 0 013.001.001zm20 0a1.5 1.5 0 11-3.001-.001 1.5 1.5 0 013.001.001zm20 0a1.5 1.5 0 11-3.001-.001 1.5 1.5 0 013.001.001zm20 0a1.5 1.5 0 11-3.001-.001 1.5 1.5 0 013.001.001zm20 0a1.5 1.5 0 11-3.001-.001 1.5 1.5 0 013.001.001zm20 0a1.5 1.5 0 11-3.001-.001 1.5 1.5 0 013.001.001zm20 0a1.5 1.5 0 11-3.001-.001 1.5 1.5 0 013.001.001zm20 0a1.5 1.5 0 11-3.001-.001 1.5 1.5 0 013.001.001zm-280 20a1.5 1.5 0 11-3.001-.001 1.5 1.5 0 013.001.001zm20 0a1.5 1.5 0 11-3.001-.001 1.5 1.5 0 013.001.001zm20 0a1.5 1.5 0 11-3.001-.001 1.5 1.5 0 013.001.001zm20 0a1.5 1.5 0 11-3.001-.001 1.5 1.5 0 013.001.001zm20 0a1.5 1.5 0 11-3.001-.001 1.5 1.5 0 013.001.001zm20 0a1.5 1.5 0 11-3.001-.001 1.5 1.5 0 013.001.001zm20 0a1.5 1.5 0 11-3.001-.001 1.5 1.5 0 013.001.001zm20 0a1.5 1.5 0 11-3.001-.001 1.5 1.5 0 013.001.001zm20 0a1.5 1.5 0 11-3.001-.001 1.5 1.5 0 013.001.001zm20 0a1.5 1.5 0 11-3.001-.001 1.5 1.5 0 013.001.001zm20 0a1.5 1.5 0 11-3.001-.001 1.5 1.5 0 013.001.001zm20 0a1.5 1.5 0 11-3.001-.001 1.5 1.5 0 013.001.001zm20 0a1.5 1.5 0 11-3.001-.001 1.5 1.5 0 013.001.001zm20 0a1.5 1.5 0 11-3.001-.001 1.5 1.5 0 013.001.001zm20 0a1.5 1.5 0 11-3.001-.001 1.5 1.5 0 013.001.001zm-280 20a1.5 1.5 0 11-3.001-.001 1.5 1.5 0 013.001.001zm20 0a1.5 1.5 0 11-3.001-.001 1.5 1.5 0 013.001.001zm20 0a1.5 1.5 0 11-3.001-.001 1.5 1.5 0 013.001.001zm20 0a1.5 1.5 0 11-3.001-.001 1.5 1.5 0 013.001.001zm20 0a1.5 1.5 0 11-3.001-.001 1.5 1.5 0 013.001.001zm20 0a1.5 1.5 0 11-3.001-.001 1.5 1.5 0 013.001.001zm20 0a1.5 1.5 0 11-3.001-.001 1.5 1.5 0 013.001.001zm20 0a1.5 1.5 0 11-3.001-.001 1.5 1.5 0 013.001.001zm20 0a1.5 1.5 0 11-3.001-.001 1.5 1.5 0 013.001.001zm20 0a1.5 1.5 0 11-3.001-.001 1.5 1.5 0 013.001.001zm20 0a1.5 1.5 0 11-3.001-.001 1.5 1.5 0 013.001.001zm20 0a1.5 1.5 0 11-3.001-.001 1.5 1.5 0 013.001.001zm20 0a1.5 1.5 0 11-3.001-.001 1.5 1.5 0 013.001.001zm20 0a1.5 1.5 0 11-3.001-.001 1.5 1.5 0 013.001.001zm20 0a1.5 1.5 0 11-3.001-.001 1.5 1.5 0 013.001.001zm-280 20a1.5 1.5 0 11-3.001-.001 1.5 1.5 0 013.001.001zm20 0a1.5 1.5 0 11-3.001-.001 1.5 1.5 0 013.001.001zm20 0a1.5 1.5 0 11-3.001-.001 1.5 1.5 0 013.001.001zm20 0a1.5 1.5 0 11-3.001-.001 1.5 1.5 0 013.001.001zm20 0a1.5 1.5 0 11-3.001-.001 1.5 1.5 0 013.001.001zm20 0a1.5 1.5 0 11-3.001-.001 1.5 1.5 0 013.001.001zm20 0a1.5 1.5 0 11-3.001-.001 1.5 1.5 0 013.001.001zm20 0a1.5 1.5 0 11-3.001-.001 1.5 1.5 0 013.001.001zm20 0a1.5 1.5 0 11-3.001-.001 1.5 1.5 0 013.001.001zm20 0a1.5 1.5 0 11-3.001-.001 1.5 1.5 0 013.001.001zm20 0a1.5 1.5 0 11-3.001-.001 1.5 1.5 0 013.001.001zm20 0a1.5 1.5 0 11-3.001-.001 1.5 1.5 0 013.001.001zm20 0a1.5 1.5 0 11-3.001-.001 1.5 1.5 0 013.001.001zm20 0a1.5 1.5 0 11-3.001-.001 1.5 1.5 0 013.001.001zm20 0a1.5 1.5 0 11-3.001-.001 1.5 1.5 0 013.001.001zm20-220a1.5 1.5 0 11-3 0 1.5 1.5 0 013 0zm20 0a1.5 1.5 0 11-3 0 1.5 1.5 0 013 0zm20 0a1.5 1.5 0 11-3 0 1.5 1.5 0 013 0zm20 0a1.5 1.5 0 11-3 0 1.5 1.5 0 013 0zm20 0a1.5 1.5 0 11-3 0 1.5 1.5 0 013 0zm-80 20a1.5 1.5 0 11-3 0 1.5 1.5 0 013 0zm20 0a1.5 1.5 0 11-3 0 1.5 1.5 0 013 0zm20 0a1.5 1.5 0 11-3 0 1.5 1.5 0 013 0zm20 0a1.5 1.5 0 11-3 0 1.5 1.5 0 013 0zm20 0a1.5 1.5 0 11-3 0 1.5 1.5 0 013 0zm-80 20a1.5 1.5 0 11-3 0 1.5 1.5 0 013 0zm20 0a1.5 1.5 0 11-3 0 1.5 1.5 0 013 0zm20 0a1.5 1.5 0 11-3 0 1.5 1.5 0 013 0zm20 0a1.5 1.5 0 11-3 0 1.5 1.5 0 013 0zm20 0a1.5 1.5 0 11-3 0 1.5 1.5 0 013 0zm-80 20a1.5 1.5 0 11-3 0 1.5 1.5 0 013 0zm20 0a1.5 1.5 0 11-3 0 1.5 1.5 0 013 0zm20 0a1.5 1.5 0 11-3 0 1.5 1.5 0 013 0zm20 0a1.5 1.5 0 11-3 0 1.5 1.5 0 013 0zm20 0a1.5 1.5 0 11-3 0 1.5 1.5 0 013 0zm-80 20a1.5 1.5 0 11-3 0 1.5 1.5 0 013 0zm20 0a1.5 1.5 0 11-3 0 1.5 1.5 0 013 0zm20 0a1.5 1.5 0 11-3 0 1.5 1.5 0 013 0zm20 0a1.5 1.5 0 11-3 0 1.5 1.5 0 013 0zm20 0a1.5 1.5 0 11-3 0 1.5 1.5 0 013 0zm-80 20a1.5 1.5 0 11-3.001-.001 1.5 1.5 0 013.001.001zm20 0a1.5 1.5 0 11-3.001-.001 1.5 1.5 0 013.001.001zm20 0a1.5 1.5 0 11-3.001-.001 1.5 1.5 0 013.001.001zm20 0a1.5 1.5 0 11-3.001-.001 1.5 1.5 0 013.001.001zm20 0a1.5 1.5 0 11-3 0 1.5 1.5 0 013 0zm-80 20a1.5 1.5 0 11-3.001-.001 1.5 1.5 0 013.001.001zm20 0a1.5 1.5 0 11-3.001-.001 1.5 1.5 0 013.001.001zm20 0a1.5 1.5 0 11-3.001-.001 1.5 1.5 0 013.001.001zm20 0a1.5 1.5 0 11-3.001-.001 1.5 1.5 0 013.001.001zm20 0a1.5 1.5 0 11-3 0 1.5 1.5 0 013 0zm-80 20a1.5 1.5 0 11-3.001-.001 1.5 1.5 0 013.001.001zm20 0a1.5 1.5 0 11-3.001-.001 1.5 1.5 0 013.001.001zm20 0a1.5 1.5 0 11-3.001-.001 1.5 1.5 0 013.001.001zm20 0a1.5 1.5 0 11-3.001-.001 1.5 1.5 0 013.001.001zm20 0a1.5 1.5 0 11-3 0 1.5 1.5 0 013 0zm-80 20a1.5 1.5 0 11-3.001-.001 1.5 1.5 0 013.001.001zm20 0a1.5 1.5 0 11-3.001-.001 1.5 1.5 0 013.001.001zm20 0a1.5 1.5 0 11-3.001-.001 1.5 1.5 0 013.001.001zm20 0a1.5 1.5 0 11-3.001-.001 1.5 1.5 0 013.001.001zm20 0a1.5 1.5 0 11-3 0 1.5 1.5 0 013 0zm-80 20a1.5 1.5 0 11-3.001-.001 1.5 1.5 0 013.001.001zm20 0a1.5 1.5 0 11-3.001-.001 1.5 1.5 0 013.001.001zm20 0a1.5 1.5 0 11-3.001-.001 1.5 1.5 0 013.001.001zm20 0a1.5 1.5 0 11-3.001-.001 1.5 1.5 0 013.001.001zm20 0a1.5 1.5 0 11-3 0 1.5 1.5 0 013 0zm-80 20a1.5 1.5 0 11-3.001-.001 1.5 1.5 0 013.001.001zm20 0a1.5 1.5 0 11-3.001-.001 1.5 1.5 0 013.001.001zm20 0a1.5 1.5 0 11-3.001-.001 1.5 1.5 0 013.001.001zm20 0a1.5 1.5 0 11-3.001-.001 1.5 1.5 0 013.001.001zm20 0a1.5 1.5 0 11-3 0 1.5 1.5 0 013 0zm-80 20a1.5 1.5 0 11-3.001-.001 1.5 1.5 0 013.001.001zm20 0a1.5 1.5 0 11-3.001-.001 1.5 1.5 0 013.001.001zm20 0a1.5 1.5 0 11-3.001-.001 1.5 1.5 0 013.001.001zm20 0a1.5 1.5 0 11-3.001-.001 1.5 1.5 0 013.001.001zm20 0a1.5 1.5 0 11-3 0 1.5 1.5 0 013 0zm-560 20a1.5 1.5 0 11-3.001-.001 1.5 1.5 0 013.001.001zm20 0a1.5 1.5 0 11-3.001-.001 1.5 1.5 0 013.001.001zm20 0a1.5 1.5 0 11-3.001-.001 1.5 1.5 0 013.001.001zm20 0a1.5 1.5 0 11-3.001-.001 1.5 1.5 0 013.001.001zm20 0a1.5 1.5 0 11-3.001-.001 1.5 1.5 0 013.001.001zm20 0a1.5 1.5 0 11-3.001-.001 1.5 1.5 0 013.001.001zm20 0a1.5 1.5 0 11-3.001-.001 1.5 1.5 0 013.001.001zm20 0a1.5 1.5 0 11-3.001-.001 1.5 1.5 0 013.001.001zm20 0a1.5 1.5 0 11-3.001-.001 1.5 1.5 0 013.001.001zm-160 20a1.5 1.5 0 11-3.001-.001 1.5 1.5 0 013.001.001zm20 0a1.5 1.5 0 11-3.001-.001 1.5 1.5 0 013.001.001zm20 0a1.5 1.5 0 11-3.001-.001 1.5 1.5 0 013.001.001zm20 0a1.5 1.5 0 11-3.001-.001 1.5 1.5 0 013.001.001zm20 0a1.5 1.5 0 11-3.001-.001 1.5 1.5 0 013.001.001zm20 0a1.5 1.5 0 11-3.001-.001 1.5 1.5 0 013.001.001zm20 0a1.5 1.5 0 11-3.001-.001 1.5 1.5 0 013.001.001zm20 0a1.5 1.5 0 11-3.001-.001 1.5 1.5 0 013.001.001zm20 0a1.5 1.5 0 11-3.001-.001 1.5 1.5 0 013.001.001zm-160 20a1.5 1.5 0 11-3.001-.001 1.5 1.5 0 013.001.001zm20 0a1.5 1.5 0 11-3.001-.001 1.5 1.5 0 013.001.001zm20 0a1.5 1.5 0 11-3.001-.001 1.5 1.5 0 013.001.001zm20 0a1.5 1.5 0 11-3.001-.001 1.5 1.5 0 013.001.001zm20 0a1.5 1.5 0 11-3.001-.001 1.5 1.5 0 013.001.001zm20 0a1.5 1.5 0 11-3.001-.001 1.5 1.5 0 013.001.001zm20 0a1.5 1.5 0 11-3.001-.001 1.5 1.5 0 013.001.001zm20 0a1.5 1.5 0 11-3.001-.001 1.5 1.5 0 013.001.001zm20 0a1.5 1.5 0 11-3.001-.001 1.5 1.5 0 013.001.001zm-160 20a1.5 1.5 0 11-3.001-.001 1.5 1.5 0 013.001.001zm20 0a1.5 1.5 0 11-3.001-.001 1.5 1.5 0 013.001.001zm20 0a1.5 1.5 0 11-3.001-.001 1.5 1.5 0 013.001.001zm20 0a1.5 1.5 0 11-3.001-.001 1.5 1.5 0 013.001.001zm20 0a1.5 1.5 0 11-3.001-.001 1.5 1.5 0 013.001.001zm20 0a1.5 1.5 0 11-3.001-.001 1.5 1.5 0 013.001.001zm20 0a1.5 1.5 0 11-3.001-.001 1.5 1.5 0 013.001.001zm20 0a1.5 1.5 0 11-3.001-.001 1.5 1.5 0 013.001.001zm20 0a1.5 1.5 0 11-3.001-.001 1.5 1.5 0 013.001.001zm-160 20a1.5 1.5 0 11-3.001-.001 1.5 1.5 0 013.001.001zm20 0a1.5 1.5 0 11-3.001-.001 1.5 1.5 0 013.001.001zm20 0a1.5 1.5 0 11-3.001-.001 1.5 1.5 0 013.001.001zm20 0a1.5 1.5 0 11-3.001-.001 1.5 1.5 0 013.001.001zm20 0a1.5 1.5 0 11-3.001-.001 1.5 1.5 0 013.001.001zm20 0a1.5 1.5 0 11-3.001-.001 1.5 1.5 0 013.001.001zm20 0a1.5 1.5 0 11-3.001-.001 1.5 1.5 0 013.001.001zm20 0a1.5 1.5 0 11-3.001-.001 1.5 1.5 0 013.001.001zm20 0a1.5 1.5 0 11-3.001-.001 1.5 1.5 0 013.001.001zm-160 20a1.5 1.5 0 11-3.001-.001 1.5 1.5 0 013.001.001zm20 0a1.5 1.5 0 11-3.001-.001 1.5 1.5 0 013.001.001zm20 0a1.5 1.5 0 11-3.001-.001 1.5 1.5 0 013.001.001zm20 0a1.5 1.5 0 11-3.001-.001 1.5 1.5 0 013.001.001zm20 0a1.5 1.5 0 11-3.001-.001 1.5 1.5 0 013.001.001zm20 0a1.5 1.5 0 11-3.001-.001 1.5 1.5 0 013.001.001zm20 0a1.5 1.5 0 11-3.001-.001 1.5 1.5 0 013.001.001zm20 0a1.5 1.5 0 11-3.001-.001 1.5 1.5 0 013.001.001zm20 0a1.5 1.5 0 11-3.001-.001 1.5 1.5 0 013.001.001zm20-100a1.5 1.5 0 11-3.001-.001 1.5 1.5 0 013.001.001zm20 0a1.5 1.5 0 11-3.001-.001 1.5 1.5 0 013.001.001zm20 0a1.5 1.5 0 11-3.001-.001 1.5 1.5 0 013.001.001zm20 0a1.5 1.5 0 11-3.001-.001 1.5 1.5 0 013.001.001zm20 0a1.5 1.5 0 11-3.001-.001 1.5 1.5 0 013.001.001zm20 0a1.5 1.5 0 11-3.001-.001 1.5 1.5 0 013.001.001zm20 0a1.5 1.5 0 11-3.001-.001 1.5 1.5 0 013.001.001zm20 0a1.5 1.5 0 11-3.001-.001 1.5 1.5 0 013.001.001zm20 0a1.5 1.5 0 11-3.001-.001 1.5 1.5 0 013.001.001zm20 0a1.5 1.5 0 11-3.001-.001 1.5 1.5 0 013.001.001zm20 0a1.5 1.5 0 11-3.001-.001 1.5 1.5 0 013.001.001zm20 0a1.5 1.5 0 11-3.001-.001 1.5 1.5 0 013.001.001zm20 0a1.5 1.5 0 11-3.001-.001 1.5 1.5 0 013.001.001zm20 0a1.5 1.5 0 11-3.001-.001 1.5 1.5 0 013.001.001zm20 0a1.5 1.5 0 11-3.001-.001 1.5 1.5 0 013.001.001zm-280 20a1.5 1.5 0 11-3.001-.001 1.5 1.5 0 013.001.001zm20 0a1.5 1.5 0 11-3.001-.001 1.5 1.5 0 013.001.001zm20 0a1.5 1.5 0 11-3.001-.001 1.5 1.5 0 013.001.001zm20 0a1.5 1.5 0 11-3.001-.001 1.5 1.5 0 013.001.001zm20 0a1.5 1.5 0 11-3.001-.001 1.5 1.5 0 013.001.001zm20 0a1.5 1.5 0 11-3.001-.001 1.5 1.5 0 013.001.001zm20 0a1.5 1.5 0 11-3.001-.001 1.5 1.5 0 013.001.001zm20 0a1.5 1.5 0 11-3.001-.001 1.5 1.5 0 013.001.001zm20 0a1.5 1.5 0 11-3.001-.001 1.5 1.5 0 013.001.001zm20 0a1.5 1.5 0 11-3.001-.001 1.5 1.5 0 013.001.001zm20 0a1.5 1.5 0 11-3.001-.001 1.5 1.5 0 013.001.001zm20 0a1.5 1.5 0 11-3.001-.001 1.5 1.5 0 013.001.001zm20 0a1.5 1.5 0 11-3.001-.001 1.5 1.5 0 013.001.001zm20 0a1.5 1.5 0 11-3.001-.001 1.5 1.5 0 013.001.001zm20 0a1.5 1.5 0 11-3.001-.001 1.5 1.5 0 013.001.001zm-280 20a1.5 1.5 0 11-3.001-.001 1.5 1.5 0 013.001.001zm20 0a1.5 1.5 0 11-3.001-.001 1.5 1.5 0 013.001.001zm20 0a1.5 1.5 0 11-3.001-.001 1.5 1.5 0 013.001.001zm20 0a1.5 1.5 0 11-3.001-.001 1.5 1.5 0 013.001.001zm20 0a1.5 1.5 0 11-3.001-.001 1.5 1.5 0 013.001.001zm20 0a1.5 1.5 0 11-3.001-.001 1.5 1.5 0 013.001.001zm20 0a1.5 1.5 0 11-3.001-.001 1.5 1.5 0 013.001.001zm20 0a1.5 1.5 0 11-3.001-.001 1.5 1.5 0 013.001.001zm20 0a1.5 1.5 0 11-3.001-.001 1.5 1.5 0 013.001.001zm20 0a1.5 1.5 0 11-3.001-.001 1.5 1.5 0 013.001.001zm20 0a1.5 1.5 0 11-3.001-.001 1.5 1.5 0 013.001.001zm20 0a1.5 1.5 0 11-3.001-.001 1.5 1.5 0 013.001.001zm20 0a1.5 1.5 0 11-3.001-.001 1.5 1.5 0 013.001.001zm20 0a1.5 1.5 0 11-3.001-.001 1.5 1.5 0 013.001.001zm20 0a1.5 1.5 0 11-3.001-.001 1.5 1.5 0 013.001.001zm-280 20a1.5 1.5 0 11-3.001-.001 1.5 1.5 0 013.001.001zm20 0a1.5 1.5 0 11-3.001-.001 1.5 1.5 0 013.001.001zm20 0a1.5 1.5 0 11-3.001-.001 1.5 1.5 0 013.001.001zm20 0a1.5 1.5 0 11-3.001-.001 1.5 1.5 0 013.001.001zm20 0a1.5 1.5 0 11-3.001-.001 1.5 1.5 0 013.001.001zm20 0a1.5 1.5 0 11-3.001-.001 1.5 1.5 0 013.001.001zm20 0a1.5 1.5 0 11-3.001-.001 1.5 1.5 0 013.001.001zm20 0a1.5 1.5 0 11-3.001-.001 1.5 1.5 0 013.001.001zm20 0a1.5 1.5 0 11-3.001-.001 1.5 1.5 0 013.001.001zm20 0a1.5 1.5 0 11-3.001-.001 1.5 1.5 0 013.001.001zm20 0a1.5 1.5 0 11-3.001-.001 1.5 1.5 0 013.001.001zm20 0a1.5 1.5 0 11-3.001-.001 1.5 1.5 0 013.001.001zm20 0a1.5 1.5 0 11-3.001-.001 1.5 1.5 0 013.001.001zm20 0a1.5 1.5 0 11-3.001-.001 1.5 1.5 0 013.001.001zm20 0a1.5 1.5 0 11-3.001-.001 1.5 1.5 0 013.001.001zm-280 20a1.5 1.5 0 11-3.001-.001 1.5 1.5 0 013.001.001zm20 0a1.5 1.5 0 11-3.001-.001 1.5 1.5 0 013.001.001zm20 0a1.5 1.5 0 11-3.001-.001 1.5 1.5 0 013.001.001zm20 0a1.5 1.5 0 11-3.001-.001 1.5 1.5 0 013.001.001zm20 0a1.5 1.5 0 11-3.001-.001 1.5 1.5 0 013.001.001zm20 0a1.5 1.5 0 11-3.001-.001 1.5 1.5 0 013.001.001zm20 0a1.5 1.5 0 11-3.001-.001 1.5 1.5 0 013.001.001zm20 0a1.5 1.5 0 11-3.001-.001 1.5 1.5 0 013.001.001zm20 0a1.5 1.5 0 11-3.001-.001 1.5 1.5 0 013.001.001zm20 0a1.5 1.5 0 11-3.001-.001 1.5 1.5 0 013.001.001zm20 0a1.5 1.5 0 11-3.001-.001 1.5 1.5 0 013.001.001zm20 0a1.5 1.5 0 11-3.001-.001 1.5 1.5 0 013.001.001zm20 0a1.5 1.5 0 11-3.001-.001 1.5 1.5 0 013.001.001zm20 0a1.5 1.5 0 11-3.001-.001 1.5 1.5 0 013.001.001zm20 0a1.5 1.5 0 11-3.001-.001 1.5 1.5 0 013.001.001zm-280 20a1.5 1.5 0 11-3.001-.001 1.5 1.5 0 013.001.001zm20 0a1.5 1.5 0 11-3.001-.001 1.5 1.5 0 013.001.001zm20 0a1.5 1.5 0 11-3.001-.001 1.5 1.5 0 013.001.001zm20 0a1.5 1.5 0 11-3.001-.001 1.5 1.5 0 013.001.001zm20 0a1.5 1.5 0 11-3.001-.001 1.5 1.5 0 013.001.001zm20 0a1.5 1.5 0 11-3.001-.001 1.5 1.5 0 013.001.001zm20 0a1.5 1.5 0 11-3.001-.001 1.5 1.5 0 013.001.001zm20 0a1.5 1.5 0 11-3.001-.001 1.5 1.5 0 013.001.001zm20 0a1.5 1.5 0 11-3.001-.001 1.5 1.5 0 013.001.001zm20 0a1.5 1.5 0 11-3.001-.001 1.5 1.5 0 013.001.001zm20 0a1.5 1.5 0 11-3.001-.001 1.5 1.5 0 013.001.001zm20 0a1.5 1.5 0 11-3.001-.001 1.5 1.5 0 013.001.001zm20 0a1.5 1.5 0 11-3.001-.001 1.5 1.5 0 013.001.001zm20 0a1.5 1.5 0 11-3.001-.001 1.5 1.5 0 013.001.001zm20 0a1.5 1.5 0 11-3.001-.001 1.5 1.5 0 013.001.001zm20-100a1.5 1.5 0 11-3.001-.001 1.5 1.5 0 013.001.001zm20 0a1.5 1.5 0 11-3.001-.001 1.5 1.5 0 013.001.001zm20 0a1.5 1.5 0 11-3.001-.001 1.5 1.5 0 013.001.001zm20 0a1.5 1.5 0 11-3.001-.001 1.5 1.5 0 013.001.001zm20 0a1.5 1.5 0 11-3 0 1.5 1.5 0 013 0zm-80 20a1.5 1.5 0 11-3.001-.001 1.5 1.5 0 013.001.001zm20 0a1.5 1.5 0 11-3.001-.001 1.5 1.5 0 013.001.001zm20 0a1.5 1.5 0 11-3.001-.001 1.5 1.5 0 013.001.001zm20 0a1.5 1.5 0 11-3.001-.001 1.5 1.5 0 013.001.001zm20 0a1.5 1.5 0 11-3 0 1.5 1.5 0 013 0zm-80 20a1.5 1.5 0 11-3.001-.001 1.5 1.5 0 013.001.001zm20 0a1.5 1.5 0 11-3.001-.001 1.5 1.5 0 013.001.001zm20 0a1.5 1.5 0 11-3.001-.001 1.5 1.5 0 013.001.001zm20 0a1.5 1.5 0 11-3.001-.001 1.5 1.5 0 013.001.001zm20 0a1.5 1.5 0 11-3 0 1.5 1.5 0 013 0zm-80 20a1.5 1.5 0 11-3.001-.001 1.5 1.5 0 013.001.001zm20 0a1.5 1.5 0 11-3.001-.001 1.5 1.5 0 013.001.001zm20 0a1.5 1.5 0 11-3.001-.001 1.5 1.5 0 013.001.001zm20 0a1.5 1.5 0 11-3.001-.001 1.5 1.5 0 013.001.001zm20 0a1.5 1.5 0 11-3 0 1.5 1.5 0 013 0zm-80 20a1.5 1.5 0 11-3.001-.001 1.5 1.5 0 013.001.001zm20 0a1.5 1.5 0 11-3.001-.001 1.5 1.5 0 013.001.001zm20 0a1.5 1.5 0 11-3.001-.001 1.5 1.5 0 013.001.001zm20 0a1.5 1.5 0 11-3.001-.001 1.5 1.5 0 013.001.001zm20 0a1.5 1.5 0 11-3 0 1.5 1.5 0 013 0zm-80 20a1.5 1.5 0 11-3.001-.001 1.5 1.5 0 013.001.001zm20 0a1.5 1.5 0 11-3.001-.001 1.5 1.5 0 013.001.001zm20 0a1.5 1.5 0 11-3.001-.001 1.5 1.5 0 013.001.001zm20 0a1.5 1.5 0 11-3.001-.001 1.5 1.5 0 013.001.001zm20 0a1.5 1.5 0 11-3 0 1.5 1.5 0 013 0zm20-340a1.5 1.5 0 11-3 0 1.5 1.5 0 013 0zm20 0a1.5 1.5 0 11-3 0 1.5 1.5 0 013 0zm20 0a1.5 1.5 0 11-3 0 1.5 1.5 0 013 0zm20 0a1.5 1.5 0 11-3 0 1.5 1.5 0 013 0zm20 0a1.5 1.5 0 11-3 0 1.5 1.5 0 013 0zm20 0a1.5 1.5 0 11-3 0 1.5 1.5 0 013 0zm20 0a1.5 1.5 0 11-3 0 1.5 1.5 0 013 0zm20 0a1.5 1.5 0 11-3 0 1.5 1.5 0 013 0zm20 0a1.5 1.5 0 11-3 0 1.5 1.5 0 013 0zm-160 20a1.5 1.5 0 11-3 0 1.5 1.5 0 013 0zm20 0a1.5 1.5 0 11-3 0 1.5 1.5 0 013 0zm20 0a1.5 1.5 0 11-3 0 1.5 1.5 0 013 0zm20 0a1.5 1.5 0 11-3 0 1.5 1.5 0 013 0zm20 0a1.5 1.5 0 11-3 0 1.5 1.5 0 013 0zm20 0a1.5 1.5 0 11-3 0 1.5 1.5 0 013 0zm20 0a1.5 1.5 0 11-3 0 1.5 1.5 0 013 0zm20 0a1.5 1.5 0 11-3 0 1.5 1.5 0 013 0zm20 0a1.5 1.5 0 11-3 0 1.5 1.5 0 013 0zm-160 20a1.5 1.5 0 11-3 0 1.5 1.5 0 013 0zm20 0a1.5 1.5 0 11-3 0 1.5 1.5 0 013 0zm20 0a1.5 1.5 0 11-3 0 1.5 1.5 0 013 0zm20 0a1.5 1.5 0 11-3 0 1.5 1.5 0 013 0zm20 0a1.5 1.5 0 11-3 0 1.5 1.5 0 013 0zm20 0a1.5 1.5 0 11-3 0 1.5 1.5 0 013 0zm20 0a1.5 1.5 0 11-3 0 1.5 1.5 0 013 0zm20 0a1.5 1.5 0 11-3 0 1.5 1.5 0 013 0zm20 0a1.5 1.5 0 11-3 0 1.5 1.5 0 013 0zm-160 20a1.5 1.5 0 11-3 0 1.5 1.5 0 013 0zm20 0a1.5 1.5 0 11-3 0 1.5 1.5 0 013 0zm20 0a1.5 1.5 0 11-3 0 1.5 1.5 0 013 0zm20 0a1.5 1.5 0 11-3 0 1.5 1.5 0 013 0zm20 0a1.5 1.5 0 11-3 0 1.5 1.5 0 013 0zm20 0a1.5 1.5 0 11-3 0 1.5 1.5 0 013 0zm20 0a1.5 1.5 0 11-3 0 1.5 1.5 0 013 0zm20 0a1.5 1.5 0 11-3 0 1.5 1.5 0 013 0zm20 0a1.5 1.5 0 11-3 0 1.5 1.5 0 013 0zm-160 20a1.5 1.5 0 11-3 0 1.5 1.5 0 013 0zm20 0a1.5 1.5 0 11-3 0 1.5 1.5 0 013 0zm20 0a1.5 1.5 0 11-3 0 1.5 1.5 0 013 0zm20 0a1.5 1.5 0 11-3 0 1.5 1.5 0 013 0zm20 0a1.5 1.5 0 11-3 0 1.5 1.5 0 013 0zm20 0a1.5 1.5 0 11-3 0 1.5 1.5 0 013 0zm20 0a1.5 1.5 0 11-3 0 1.5 1.5 0 013 0zm20 0a1.5 1.5 0 11-3 0 1.5 1.5 0 013 0zm20 0a1.5 1.5 0 11-3 0 1.5 1.5 0 013 0zm-160 20a1.5 1.5 0 11-3 0 1.5 1.5 0 013 0zm20 0a1.5 1.5 0 11-3 0 1.5 1.5 0 013 0zm20 0a1.5 1.5 0 11-3 0 1.5 1.5 0 013 0zm20 0a1.5 1.5 0 11-3 0 1.5 1.5 0 013 0zm20 0a1.5 1.5 0 11-3 0 1.5 1.5 0 013 0zm20 0a1.5 1.5 0 11-3 0 1.5 1.5 0 013 0zm20 0a1.5 1.5 0 11-3 0 1.5 1.5 0 013 0zm20 0a1.5 1.5 0 11-3 0 1.5 1.5 0 013 0zm20 0a1.5 1.5 0 11-3 0 1.5 1.5 0 013 0zm-160 20a1.5 1.5 0 11-3 0 1.5 1.5 0 013 0zm20 0a1.5 1.5 0 11-3 0 1.5 1.5 0 013 0zm20 0a1.5 1.5 0 11-3 0 1.5 1.5 0 013 0zm20 0a1.5 1.5 0 11-3 0 1.5 1.5 0 013 0zm20 0a1.5 1.5 0 11-3 0 1.5 1.5 0 013 0zm20 0a1.5 1.5 0 11-3 0 1.5 1.5 0 013 0zm20 0a1.5 1.5 0 11-3 0 1.5 1.5 0 013 0zm20 0a1.5 1.5 0 11-3 0 1.5 1.5 0 013 0zm20 0a1.5 1.5 0 11-3 0 1.5 1.5 0 013 0zm-160 20a1.5 1.5 0 11-3 0 1.5 1.5 0 013 0zm20 0a1.5 1.5 0 11-3 0 1.5 1.5 0 013 0zm20 0a1.5 1.5 0 11-3 0 1.5 1.5 0 013 0zm20 0a1.5 1.5 0 11-3 0 1.5 1.5 0 013 0zm20 0a1.5 1.5 0 11-3 0 1.5 1.5 0 013 0zm20 0a1.5 1.5 0 11-3 0 1.5 1.5 0 013 0zm20 0a1.5 1.5 0 11-3 0 1.5 1.5 0 013 0zm20 0a1.5 1.5 0 11-3 0 1.5 1.5 0 013 0zm20 0a1.5 1.5 0 11-3 0 1.5 1.5 0 013 0zm-160 20a1.5 1.5 0 11-3 0 1.5 1.5 0 013 0zm20 0a1.5 1.5 0 11-3 0 1.5 1.5 0 013 0zm20 0a1.5 1.5 0 11-3 0 1.5 1.5 0 013 0zm20 0a1.5 1.5 0 11-3 0 1.5 1.5 0 013 0zm20 0a1.5 1.5 0 11-3 0 1.5 1.5 0 013 0zm20 0a1.5 1.5 0 11-3 0 1.5 1.5 0 013 0zm20 0a1.5 1.5 0 11-3 0 1.5 1.5 0 013 0zm20 0a1.5 1.5 0 11-3 0 1.5 1.5 0 013 0zm20 0a1.5 1.5 0 11-3 0 1.5 1.5 0 013 0zm-160 20a1.5 1.5 0 11-3 0 1.5 1.5 0 013 0zm20 0a1.5 1.5 0 11-3 0 1.5 1.5 0 013 0zm20 0a1.5 1.5 0 11-3 0 1.5 1.5 0 013 0zm20 0a1.5 1.5 0 11-3 0 1.5 1.5 0 013 0zm20 0a1.5 1.5 0 11-3 0 1.5 1.5 0 013 0zm20 0a1.5 1.5 0 11-3 0 1.5 1.5 0 013 0zm20 0a1.5 1.5 0 11-3 0 1.5 1.5 0 013 0zm20 0a1.5 1.5 0 11-3 0 1.5 1.5 0 013 0zm20 0a1.5 1.5 0 11-3 0 1.5 1.5 0 013 0zm-160 20a1.5 1.5 0 11-3 0 1.5 1.5 0 013 0zm20 0a1.5 1.5 0 11-3 0 1.5 1.5 0 013 0zm20 0a1.5 1.5 0 11-3 0 1.5 1.5 0 013 0zm20 0a1.5 1.5 0 11-3 0 1.5 1.5 0 013 0zm20 0a1.5 1.5 0 11-3 0 1.5 1.5 0 013 0zm20 0a1.5 1.5 0 11-3 0 1.5 1.5 0 013 0zm20 0a1.5 1.5 0 01-3 0c0-.828 2.172 0 3 0 .828 0 0-.828 0 0zm20 0a1.5 1.5 0 11-3 0 1.5 1.5 0 013 0zm20 0a1.5 1.5 0 11-3 0 1.5 1.5 0 013 0zm-160 20a1.5 1.5 0 11-3 0 1.5 1.5 0 013 0zm20 0a1.5 1.5 0 11-3 0 1.5 1.5 0 013 0zm20 0a1.5 1.5 0 11-3 0 1.5 1.5 0 013 0zm20 0a1.5 1.5 0 11-3 0 1.5 1.5 0 013 0zm20 0a1.5 1.5 0 11-3 0 1.5 1.5 0 013 0zm20 0a1.5 1.5 0 11-3 0 1.5 1.5 0 013 0zm20 0a1.5 1.5 0 11-3 0 1.5 1.5 0 013 0zm20 0a1.5 1.5 0 11-3 0 1.5 1.5 0 013 0zm20 0a1.5 1.5 0 11-3 0 1.5 1.5 0 013 0zm20-220a1.5 1.5 0 11-3 0 1.5 1.5 0 013 0zm20 0a1.5 1.5 0 11-3 0 1.5 1.5 0 013 0zm20 0a1.5 1.5 0 11-3 0 1.5 1.5 0 013 0zm20 0a1.5 1.5 0 11-3 0 1.5 1.5 0 013 0zm20 0a1.5 1.5 0 11-3 0 1.5 1.5 0 013 0zm20 0a1.5 1.5 0 11-3 0 1.5 1.5 0 013 0zm20 0a1.5 1.5 0 11-3 0 1.5 1.5 0 013 0zm20 0a1.5 1.5 0 11-3 0 1.5 1.5 0 013 0zm20 0a1.5 1.5 0 11-3 0 1.5 1.5 0 013 0zm20 0a1.5 1.5 0 11-3 0 1.5 1.5 0 013 0zm20 0a1.5 1.5 0 11-3 0 1.5 1.5 0 013 0zm20 0a1.5 1.5 0 11-3 0 1.5 1.5 0 013 0zm20 0a1.5 1.5 0 11-3 0 1.5 1.5 0 013 0zm20 0a1.5 1.5 0 11-3 0 1.5 1.5 0 013 0zm20 0a1.5 1.5 0 11-3 0 1.5 1.5 0 013 0zm-280 20a1.5 1.5 0 11-3 0 1.5 1.5 0 013 0zm20 0a1.5 1.5 0 11-3 0 1.5 1.5 0 013 0zm20 0a1.5 1.5 0 11-3 0 1.5 1.5 0 013 0zm20 0a1.5 1.5 0 11-3 0 1.5 1.5 0 013 0zm20 0a1.5 1.5 0 11-3 0 1.5 1.5 0 013 0zm20 0a1.5 1.5 0 11-3 0 1.5 1.5 0 013 0zm20 0a1.5 1.5 0 11-3 0 1.5 1.5 0 013 0zm20 0a1.5 1.5 0 11-3 0 1.5 1.5 0 013 0zm20 0a1.5 1.5 0 11-3 0 1.5 1.5 0 013 0zm20 0a1.5 1.5 0 11-3 0 1.5 1.5 0 013 0zm20 0a1.5 1.5 0 11-3 0 1.5 1.5 0 013 0zm20 0a1.5 1.5 0 11-3 0 1.5 1.5 0 013 0zm20 0a1.5 1.5 0 11-3 0 1.5 1.5 0 013 0zm20 0a1.5 1.5 0 11-3 0 1.5 1.5 0 013 0zm20 0a1.5 1.5 0 11-3 0 1.5 1.5 0 013 0zm-280 20a1.5 1.5 0 11-3 0 1.5 1.5 0 013 0zm20 0a1.5 1.5 0 11-3 0 1.5 1.5 0 013 0zm20 0a1.5 1.5 0 11-3 0 1.5 1.5 0 013 0zm20 0a1.5 1.5 0 11-3 0 1.5 1.5 0 013 0zm20 0a1.5 1.5 0 11-3 0 1.5 1.5 0 013 0zm20 0a1.5 1.5 0 11-3 0 1.5 1.5 0 013 0zm20 0a1.5 1.5 0 11-3 0 1.5 1.5 0 013 0zm20 0a1.5 1.5 0 11-3 0 1.5 1.5 0 013 0zm20 0a1.5 1.5 0 11-3 0 1.5 1.5 0 013 0zm20 0a1.5 1.5 0 11-3 0 1.5 1.5 0 013 0zm20 0a1.5 1.5 0 11-3 0 1.5 1.5 0 013 0zm20 0a1.5 1.5 0 11-3 0 1.5 1.5 0 013 0zm20 0a1.5 1.5 0 11-3 0 1.5 1.5 0 013 0zm20 0a1.5 1.5 0 11-3 0 1.5 1.5 0 013 0zm20 0a1.5 1.5 0 11-3 0 1.5 1.5 0 013 0zm-280 20a1.5 1.5 0 11-3 0 1.5 1.5 0 013 0zm20 0a1.5 1.5 0 11-3 0 1.5 1.5 0 013 0zm20 0a1.5 1.5 0 11-3 0 1.5 1.5 0 013 0zm20 0a1.5 1.5 0 11-3 0 1.5 1.5 0 013 0zm20 0a1.5 1.5 0 11-3 0 1.5 1.5 0 013 0zm20 0a1.5 1.5 0 11-3 0 1.5 1.5 0 013 0zm20 0a1.5 1.5 0 11-3 0 1.5 1.5 0 013 0zm20 0a1.5 1.5 0 11-3 0 1.5 1.5 0 013 0zm20 0a1.5 1.5 0 11-3 0 1.5 1.5 0 013 0zm20 0a1.5 1.5 0 11-3 0 1.5 1.5 0 013 0zm20 0a1.5 1.5 0 11-3 0 1.5 1.5 0 013 0zm20 0a1.5 1.5 0 11-3 0 1.5 1.5 0 013 0zm20 0a1.5 1.5 0 11-3 0 1.5 1.5 0 013 0zm20 0a1.5 1.5 0 11-3 0 1.5 1.5 0 013 0zm20 0a1.5 1.5 0 11-3 0 1.5 1.5 0 013 0zm-280 20a1.5 1.5 0 11-3 0 1.5 1.5 0 013 0zm20 0a1.5 1.5 0 11-3 0 1.5 1.5 0 013 0zm20 0a1.5 1.5 0 11-3 0 1.5 1.5 0 013 0zm20 0a1.5 1.5 0 11-3 0 1.5 1.5 0 013 0zm20 0a1.5 1.5 0 11-3 0 1.5 1.5 0 013 0zm20 0a1.5 1.5 0 11-3 0 1.5 1.5 0 013 0zm20 0a1.5 1.5 0 11-3 0 1.5 1.5 0 013 0zm20 0a1.5 1.5 0 11-3 0 1.5 1.5 0 013 0zm20 0a1.5 1.5 0 11-3 0 1.5 1.5 0 013 0zm20 0a1.5 1.5 0 11-3 0 1.5 1.5 0 013 0zm20 0a1.5 1.5 0 11-3 0 1.5 1.5 0 013 0zm20 0a1.5 1.5 0 11-3 0 1.5 1.5 0 013 0zm20 0a1.5 1.5 0 11-3 0 1.5 1.5 0 013 0zm20 0a1.5 1.5 0 11-3 0 1.5 1.5 0 013 0zm20 0a1.5 1.5 0 11-3 0 1.5 1.5 0 013 0zm-280 20a1.5 1.5 0 11-3.001-.001 1.5 1.5 0 013.001.001zm20 0a1.5 1.5 0 11-3.001-.001 1.5 1.5 0 013.001.001zm20 0a1.5 1.5 0 11-3.001-.001 1.5 1.5 0 013.001.001zm20 0a1.5 1.5 0 11-3.001-.001 1.5 1.5 0 013.001.001zm20 0a1.5 1.5 0 11-3.001-.001 1.5 1.5 0 013.001.001zm20 0a1.5 1.5 0 11-3.001-.001 1.5 1.5 0 013.001.001zm20 0a1.5 1.5 0 11-3.001-.001 1.5 1.5 0 013.001.001zm20 0a1.5 1.5 0 11-3.001-.001 1.5 1.5 0 013.001.001zm20 0a1.5 1.5 0 11-3.001-.001 1.5 1.5 0 013.001.001zm20 0a1.5 1.5 0 11-3.001-.001 1.5 1.5 0 013.001.001zm20 0a1.5 1.5 0 11-3.001-.001 1.5 1.5 0 013.001.001zm20 0a1.5 1.5 0 11-3.001-.001 1.5 1.5 0 013.001.001zm20 0a1.5 1.5 0 11-3.001-.001 1.5 1.5 0 013.001.001zm20 0a1.5 1.5 0 11-3.001-.001 1.5 1.5 0 013.001.001zm20 0a1.5 1.5 0 11-3.001-.001 1.5 1.5 0 013.001.001zm-280 20a1.5 1.5 0 11-3.001-.001 1.5 1.5 0 013.001.001zm20 0a1.5 1.5 0 11-3.001-.001 1.5 1.5 0 013.001.001zm20 0a1.5 1.5 0 11-3.001-.001 1.5 1.5 0 013.001.001zm20 0a1.5 1.5 0 11-3.001-.001 1.5 1.5 0 013.001.001zm20 0a1.5 1.5 0 11-3.001-.001 1.5 1.5 0 013.001.001zm20 0a1.5 1.5 0 11-3.001-.001 1.5 1.5 0 013.001.001zm20 0a1.5 1.5 0 11-3.001-.001 1.5 1.5 0 013.001.001zm20 0a1.5 1.5 0 11-3.001-.001 1.5 1.5 0 013.001.001zm20 0a1.5 1.5 0 11-3.001-.001 1.5 1.5 0 013.001.001zm20 0a1.5 1.5 0 11-3.001-.001 1.5 1.5 0 013.001.001zm20 0a1.5 1.5 0 11-3.001-.001 1.5 1.5 0 013.001.001zm20 0a1.5 1.5 0 11-3.001-.001 1.5 1.5 0 013.001.001zm20 0a1.5 1.5 0 11-3.001-.001 1.5 1.5 0 013.001.001zm20 0a1.5 1.5 0 11-3.001-.001 1.5 1.5 0 013.001.001zm20 0a1.5 1.5 0 11-3.001-.001 1.5 1.5 0 013.001.001zm-280 20a1.5 1.5 0 11-3.001-.001 1.5 1.5 0 013.001.001zm20 0a1.5 1.5 0 11-3.001-.001 1.5 1.5 0 013.001.001zm20 0a1.5 1.5 0 11-3.001-.001 1.5 1.5 0 013.001.001zm20 0a1.5 1.5 0 11-3.001-.001 1.5 1.5 0 013.001.001zm20 0a1.5 1.5 0 11-3.001-.001 1.5 1.5 0 013.001.001zm20 0a1.5 1.5 0 11-3.001-.001 1.5 1.5 0 013.001.001zm20 0a1.5 1.5 0 11-3.001-.001 1.5 1.5 0 013.001.001zm20 0a1.5 1.5 0 11-3.001-.001 1.5 1.5 0 013.001.001zm20 0a1.5 1.5 0 11-3.001-.001 1.5 1.5 0 013.001.001zm20 0a1.5 1.5 0 11-3.001-.001 1.5 1.5 0 013.001.001zm20 0a1.5 1.5 0 11-3.001-.001 1.5 1.5 0 013.001.001zm20 0a1.5 1.5 0 11-3.001-.001 1.5 1.5 0 013.001.001zm20 0a1.5 1.5 0 11-3.001-.001 1.5 1.5 0 013.001.001zm20 0a1.5 1.5 0 11-3.001-.001 1.5 1.5 0 013.001.001zm20 0a1.5 1.5 0 11-3.001-.001 1.5 1.5 0 013.001.001zm-280 20a1.5 1.5 0 11-3.001-.001 1.5 1.5 0 013.001.001zm20 0a1.5 1.5 0 11-3.001-.001 1.5 1.5 0 013.001.001zm20 0a1.5 1.5 0 11-3.001-.001 1.5 1.5 0 013.001.001zm20 0a1.5 1.5 0 11-3.001-.001 1.5 1.5 0 013.001.001zm20 0a1.5 1.5 0 11-3.001-.001 1.5 1.5 0 013.001.001zm20 0a1.5 1.5 0 11-3.001-.001 1.5 1.5 0 013.001.001zm20 0a1.5 1.5 0 11-3.001-.001 1.5 1.5 0 013.001.001zm20 0a1.5 1.5 0 11-3.001-.001 1.5 1.5 0 013.001.001zm20 0a1.5 1.5 0 11-3.001-.001 1.5 1.5 0 013.001.001zm20 0a1.5 1.5 0 11-3.001-.001 1.5 1.5 0 013.001.001zm20 0a1.5 1.5 0 11-3.001-.001 1.5 1.5 0 013.001.001zm20 0a1.5 1.5 0 11-3.001-.001 1.5 1.5 0 013.001.001zm20 0a1.5 1.5 0 11-3.001-.001 1.5 1.5 0 013.001.001zm20 0a1.5 1.5 0 11-3.001-.001 1.5 1.5 0 013.001.001zm20 0a1.5 1.5 0 11-3.001-.001 1.5 1.5 0 013.001.001zm-280 20a1.5 1.5 0 11-3.001-.001 1.5 1.5 0 013.001.001zm20 0a1.5 1.5 0 11-3.001-.001 1.5 1.5 0 013.001.001zm20 0a1.5 1.5 0 11-3.001-.001 1.5 1.5 0 013.001.001zm20 0a1.5 1.5 0 11-3.001-.001 1.5 1.5 0 013.001.001zm20 0a1.5 1.5 0 11-3.001-.001 1.5 1.5 0 013.001.001zm20 0a1.5 1.5 0 11-3.001-.001 1.5 1.5 0 013.001.001zm20 0a1.5 1.5 0 11-3.001-.001 1.5 1.5 0 013.001.001zm20 0a1.5 1.5 0 11-3.001-.001 1.5 1.5 0 013.001.001zm20 0a1.5 1.5 0 11-3.001-.001 1.5 1.5 0 013.001.001zm20 0a1.5 1.5 0 11-3.001-.001 1.5 1.5 0 013.001.001zm20 0a1.5 1.5 0 11-3.001-.001 1.5 1.5 0 013.001.001zm20 0a1.5 1.5 0 11-3.001-.001 1.5 1.5 0 013.001.001zm20 0a1.5 1.5 0 11-3.001-.001 1.5 1.5 0 013.001.001zm20 0a1.5 1.5 0 11-3.001-.001 1.5 1.5 0 013.001.001zm20 0a1.5 1.5 0 11-3.001-.001 1.5 1.5 0 013.001.001zm-280 20a1.5 1.5 0 11-3.001-.001 1.5 1.5 0 013.001.001zm20 0a1.5 1.5 0 11-3.001-.001 1.5 1.5 0 013.001.001zm20 0a1.5 1.5 0 11-3.001-.001 1.5 1.5 0 013.001.001zm20 0a1.5 1.5 0 11-3.001-.001 1.5 1.5 0 013.001.001zm20 0a1.5 1.5 0 11-3.001-.001 1.5 1.5 0 013.001.001zm20 0a1.5 1.5 0 11-3.001-.001 1.5 1.5 0 013.001.001zm20 0a1.5 1.5 0 11-3.001-.001 1.5 1.5 0 013.001.001zm20 0a1.5 1.5 0 11-3.001-.001 1.5 1.5 0 013.001.001zm20 0a1.5 1.5 0 11-3.001-.001 1.5 1.5 0 013.001.001zm20 0a1.5 1.5 0 11-3.001-.001 1.5 1.5 0 013.001.001zm20 0a1.5 1.5 0 11-3.001-.001 1.5 1.5 0 013.001.001zm20 0a1.5 1.5 0 11-3.001-.001 1.5 1.5 0 013.001.001zm20 0a1.5 1.5 0 11-3.001-.001 1.5 1.5 0 013.001.001zm20 0a1.5 1.5 0 11-3.001-.001 1.5 1.5 0 013.001.001zm20 0a1.5 1.5 0 11-3.001-.001 1.5 1.5 0 013.001.001zm-280 20a1.5 1.5 0 11-3.001-.001 1.5 1.5 0 013.001.001zm20 0a1.5 1.5 0 11-3.001-.001 1.5 1.5 0 013.001.001zm20 0a1.5 1.5 0 11-3.001-.001 1.5 1.5 0 013.001.001zm20 0a1.5 1.5 0 11-3.001-.001 1.5 1.5 0 013.001.001zm20 0a1.5 1.5 0 11-3.001-.001 1.5 1.5 0 013.001.001zm20 0a1.5 1.5 0 11-3.001-.001 1.5 1.5 0 013.001.001zm20 0a1.5 1.5 0 11-3.001-.001 1.5 1.5 0 013.001.001zm20 0a1.5 1.5 0 11-3.001-.001 1.5 1.5 0 013.001.001zm20 0a1.5 1.5 0 11-3.001-.001 1.5 1.5 0 013.001.001zm20 0a1.5 1.5 0 11-3.001-.001 1.5 1.5 0 013.001.001zm20 0a1.5 1.5 0 11-3.001-.001 1.5 1.5 0 013.001.001zm20 0a1.5 1.5 0 11-3.001-.001 1.5 1.5 0 013.001.001zm20 0a1.5 1.5 0 11-3.001-.001 1.5 1.5 0 013.001.001zm20 0a1.5 1.5 0 11-3.001-.001 1.5 1.5 0 013.001.001zm20 0a1.5 1.5 0 11-3.001-.001 1.5 1.5 0 013.001.001zm20-220a1.5 1.5 0 11-3 0 1.5 1.5 0 013 0zm20 0a1.5 1.5 0 11-3 0 1.5 1.5 0 013 0zm20 0a1.5 1.5 0 11-3 0 1.5 1.5 0 013 0zm20 0a1.5 1.5 0 11-3 0 1.5 1.5 0 013 0zm20 0a1.5 1.5 0 11-3 0 1.5 1.5 0 013 0zm-80 20a1.5 1.5 0 11-3 0 1.5 1.5 0 013 0zm20 0a1.5 1.5 0 11-3 0 1.5 1.5 0 013 0zm20 0a1.5 1.5 0 11-3 0 1.5 1.5 0 013 0zm20 0a1.5 1.5 0 11-3 0 1.5 1.5 0 013 0zm20 0a1.5 1.5 0 11-3 0 1.5 1.5 0 013 0zm-80 20a1.5 1.5 0 11-3 0 1.5 1.5 0 013 0zm20 0a1.5 1.5 0 11-3 0 1.5 1.5 0 013 0zm20 0a1.5 1.5 0 11-3 0 1.5 1.5 0 013 0zm20 0a1.5 1.5 0 11-3 0 1.5 1.5 0 013 0zm20 0a1.5 1.5 0 11-3 0 1.5 1.5 0 013 0zm-80 20a1.5 1.5 0 11-3 0 1.5 1.5 0 013 0zm20 0a1.5 1.5 0 11-3 0 1.5 1.5 0 013 0zm20 0a1.5 1.5 0 11-3 0 1.5 1.5 0 013 0zm20 0a1.5 1.5 0 11-3 0 1.5 1.5 0 013 0zm20 0a1.5 1.5 0 11-3 0 1.5 1.5 0 013 0zm-80 20a1.5 1.5 0 11-3 0 1.5 1.5 0 013 0zm20 0a1.5 1.5 0 11-3 0 1.5 1.5 0 013 0zm20 0a1.5 1.5 0 11-3 0 1.5 1.5 0 013 0zm20 0a1.5 1.5 0 11-3 0 1.5 1.5 0 013 0zm20 0a1.5 1.5 0 11-3 0 1.5 1.5 0 013 0zm-80 20a1.5 1.5 0 11-3.001-.001 1.5 1.5 0 013.001.001zm20 0a1.5 1.5 0 11-3.001-.001 1.5 1.5 0 013.001.001zm20 0a1.5 1.5 0 11-3.001-.001 1.5 1.5 0 013.001.001zm20 0a1.5 1.5 0 11-3.001-.001 1.5 1.5 0 013.001.001zm20 0a1.5 1.5 0 11-3.001-.001 1.5 1.5 0 013.001.001zm-80 20a1.5 1.5 0 11-3.001-.001 1.5 1.5 0 013.001.001zm20 0a1.5 1.5 0 11-3.001-.001 1.5 1.5 0 013.001.001zm20 0a1.5 1.5 0 11-3.001-.001 1.5 1.5 0 013.001.001zm20 0a1.5 1.5 0 11-3.001-.001 1.5 1.5 0 013.001.001zm20 0a1.5 1.5 0 11-3.001-.001 1.5 1.5 0 013.001.001zm-80 20a1.5 1.5 0 11-3.001-.001 1.5 1.5 0 013.001.001zm20 0a1.5 1.5 0 11-3.001-.001 1.5 1.5 0 013.001.001zm20 0a1.5 1.5 0 11-3.001-.001 1.5 1.5 0 013.001.001zm20 0a1.5 1.5 0 11-3.001-.001 1.5 1.5 0 013.001.001zm20 0a1.5 1.5 0 11-3.001-.001 1.5 1.5 0 013.001.001zm-80 20a1.5 1.5 0 11-3.001-.001 1.5 1.5 0 013.001.001zm20 0a1.5 1.5 0 11-3.001-.001 1.5 1.5 0 013.001.001zm20 0a1.5 1.5 0 11-3.001-.001 1.5 1.5 0 013.001.001zm20 0a1.5 1.5 0 11-3.001-.001 1.5 1.5 0 013.001.001zm20 0a1.5 1.5 0 11-3.001-.001 1.5 1.5 0 013.001.001zm-80 20a1.5 1.5 0 11-3.001-.001 1.5 1.5 0 013.001.001zm20 0a1.5 1.5 0 11-3.001-.001 1.5 1.5 0 013.001.001zm20 0a1.5 1.5 0 11-3.001-.001 1.5 1.5 0 013.001.001zm20 0a1.5 1.5 0 11-3.001-.001 1.5 1.5 0 013.001.001zm20 0a1.5 1.5 0 11-3.001-.001 1.5 1.5 0 013.001.001zm-80 20a1.5 1.5 0 11-3.001-.001 1.5 1.5 0 013.001.001zm20 0a1.5 1.5 0 11-3.001-.001 1.5 1.5 0 013.001.001zm20 0a1.5 1.5 0 11-3.001-.001 1.5 1.5 0 013.001.001zm20 0a1.5 1.5 0 11-3.001-.001 1.5 1.5 0 013.001.001zm20 0a1.5 1.5 0 11-3.001-.001 1.5 1.5 0 013.001.001zm-80 20a1.5 1.5 0 11-3.001-.001 1.5 1.5 0 013.001.001zm20 0a1.5 1.5 0 11-3.001-.001 1.5 1.5 0 013.001.001zm20 0a1.5 1.5 0 11-3.001-.001 1.5 1.5 0 013.001.001zm20 0a1.5 1.5 0 11-3.001-.001 1.5 1.5 0 013.001.001zm20 0a1.5 1.5 0 11-3.001-.001 1.5 1.5 0 013.001.001zm-560 20a1.5 1.5 0 11-3 0 1.5 1.5 0 013 0zm20 0a1.5 1.5 0 11-3 0 1.5 1.5 0 013 0zm20 0a1.5 1.5 0 11-3 0 1.5 1.5 0 013 0zm20 0a1.5 1.5 0 11-3 0 1.5 1.5 0 013 0zm20 0a1.5 1.5 0 11-3 0 1.5 1.5 0 013 0zm20 0a1.5 1.5 0 11-3 0 1.5 1.5 0 013 0zm20 0a1.5 1.5 0 11-3 0 1.5 1.5 0 013 0zm20 0a1.5 1.5 0 11-3 0 1.5 1.5 0 013 0zm20 0a1.5 1.5 0 11-3 0 1.5 1.5 0 013 0zm-160 20a1.5 1.5 0 11-3 0 1.5 1.5 0 013 0zm20 0a1.5 1.5 0 11-3 0 1.5 1.5 0 013 0zm20 0a1.5 1.5 0 11-3 0 1.5 1.5 0 013 0zm20 0a1.5 1.5 0 11-3 0 1.5 1.5 0 013 0zm20 0a1.5 1.5 0 11-3 0 1.5 1.5 0 013 0zm20 0a1.5 1.5 0 11-3 0 1.5 1.5 0 013 0zm20 0a1.5 1.5 0 11-3 0 1.5 1.5 0 013 0zm20 0a1.5 1.5 0 11-3 0 1.5 1.5 0 013 0zm20 0a1.5 1.5 0 11-3 0 1.5 1.5 0 013 0zm-160 20a1.5 1.5 0 11-3 0 1.5 1.5 0 013 0zm20 0a1.5 1.5 0 11-3 0 1.5 1.5 0 013 0zm20 0a1.5 1.5 0 11-3 0 1.5 1.5 0 013 0zm20 0a1.5 1.5 0 11-3 0 1.5 1.5 0 013 0zm20 0a1.5 1.5 0 11-3 0 1.5 1.5 0 013 0zm20 0a1.5 1.5 0 11-3 0 1.5 1.5 0 013 0zm20 0a1.5 1.5 0 11-3 0 1.5 1.5 0 013 0zm20 0a1.5 1.5 0 11-3 0 1.5 1.5 0 013 0zm20 0a1.5 1.5 0 11-3 0 1.5 1.5 0 013 0zm-160 20a1.5 1.5 0 11-3 0 1.5 1.5 0 013 0zm20 0a1.5 1.5 0 11-3 0 1.5 1.5 0 013 0zm20 0a1.5 1.5 0 11-3 0 1.5 1.5 0 013 0zm20 0a1.5 1.5 0 11-3 0 1.5 1.5 0 013 0zm20 0a1.5 1.5 0 11-3 0 1.5 1.5 0 013 0zm20 0a1.5 1.5 0 11-3 0 1.5 1.5 0 013 0zm20 0a1.5 1.5 0 11-3 0 1.5 1.5 0 013 0zm20 0a1.5 1.5 0 11-3 0 1.5 1.5 0 013 0zm20 0a1.5 1.5 0 11-3 0 1.5 1.5 0 013 0zm-160 20a1.5 1.5 0 11-3 0 1.5 1.5 0 013 0zm20 0a1.5 1.5 0 11-3 0 1.5 1.5 0 013 0zm20 0a1.5 1.5 0 11-3 0 1.5 1.5 0 013 0zm20 0a1.5 1.5 0 11-3 0 1.5 1.5 0 013 0zm20 0a1.5 1.5 0 11-3 0 1.5 1.5 0 013 0zm20 0a1.5 1.5 0 11-3 0 1.5 1.5 0 013 0zm20 0a1.5 1.5 0 11-3 0 1.5 1.5 0 013 0zm20 0a1.5 1.5 0 11-3 0 1.5 1.5 0 013 0zm20 0a1.5 1.5 0 11-3 0 1.5 1.5 0 013 0zm-160 20a1.5 1.5 0 11-3 0 1.5 1.5 0 013 0zm20 0a1.5 1.5 0 11-3 0 1.5 1.5 0 013 0zm20 0a1.5 1.5 0 11-3 0 1.5 1.5 0 013 0zm20 0a1.5 1.5 0 11-3 0 1.5 1.5 0 013 0zm20 0a1.5 1.5 0 11-3 0 1.5 1.5 0 013 0zm20 0a1.5 1.5 0 11-3 0 1.5 1.5 0 013 0zm20 0a1.5 1.5 0 11-3 0 1.5 1.5 0 013 0zm20 0a1.5 1.5 0 11-3 0 1.5 1.5 0 013 0zm20 0a1.5 1.5 0 11-3 0 1.5 1.5 0 013 0zm20-100a1.5 1.5 0 11-3.001-.001 1.5 1.5 0 013.001.001zm20 0a1.5 1.5 0 11-3.001-.001 1.5 1.5 0 013.001.001zm20 0a1.5 1.5 0 11-3.001-.001 1.5 1.5 0 013.001.001zm20 0a1.5 1.5 0 11-3.001-.001 1.5 1.5 0 013.001.001zm20 0a1.5 1.5 0 11-3.001-.001 1.5 1.5 0 013.001.001zm20 0a1.5 1.5 0 11-3.001-.001 1.5 1.5 0 013.001.001zm20 0a1.5 1.5 0 11-3.001-.001 1.5 1.5 0 013.001.001zm20 0a1.5 1.5 0 11-3.001-.001 1.5 1.5 0 013.001.001zm20 0a1.5 1.5 0 11-3.001-.001 1.5 1.5 0 013.001.001zm20 0a1.5 1.5 0 11-3.001-.001 1.5 1.5 0 013.001.001zm20 0a1.5 1.5 0 11-3.001-.001 1.5 1.5 0 013.001.001zm20 0a1.5 1.5 0 11-3.001-.001 1.5 1.5 0 013.001.001zm20 0a1.5 1.5 0 11-3.001-.001 1.5 1.5 0 013.001.001zm20 0a1.5 1.5 0 11-3.001-.001 1.5 1.5 0 013.001.001zm20 0a1.5 1.5 0 11-3.001-.001 1.5 1.5 0 013.001.001zm-280 20a1.5 1.5 0 11-3.001-.001 1.5 1.5 0 013.001.001zm20 0a1.5 1.5 0 11-3.001-.001 1.5 1.5 0 013.001.001zm20 0a1.5 1.5 0 11-3.001-.001 1.5 1.5 0 013.001.001zm20 0a1.5 1.5 0 11-3.001-.001 1.5 1.5 0 013.001.001zm20 0a1.5 1.5 0 11-3.001-.001 1.5 1.5 0 013.001.001zm20 0a1.5 1.5 0 11-3.001-.001 1.5 1.5 0 013.001.001zm20 0a1.5 1.5 0 11-3.001-.001 1.5 1.5 0 013.001.001zm20 0a1.5 1.5 0 11-3.001-.001 1.5 1.5 0 013.001.001zm20 0a1.5 1.5 0 11-3.001-.001 1.5 1.5 0 013.001.001zm20 0a1.5 1.5 0 11-3.001-.001 1.5 1.5 0 013.001.001zm20 0a1.5 1.5 0 11-3.001-.001 1.5 1.5 0 013.001.001zm20 0a1.5 1.5 0 11-3.001-.001 1.5 1.5 0 013.001.001zm20 0a1.5 1.5 0 11-3.001-.001 1.5 1.5 0 013.001.001zm20 0a1.5 1.5 0 11-3.001-.001 1.5 1.5 0 013.001.001zm20 0a1.5 1.5 0 11-3.001-.001 1.5 1.5 0 013.001.001zm-280 20a1.5 1.5 0 11-3.001-.001 1.5 1.5 0 013.001.001zm20 0a1.5 1.5 0 11-3.001-.001 1.5 1.5 0 013.001.001zm20 0a1.5 1.5 0 11-3.001-.001 1.5 1.5 0 013.001.001zm20 0a1.5 1.5 0 11-3.001-.001 1.5 1.5 0 013.001.001zm20 0a1.5 1.5 0 11-3.001-.001 1.5 1.5 0 013.001.001zm20 0a1.5 1.5 0 11-3.001-.001 1.5 1.5 0 013.001.001zm20 0a1.5 1.5 0 11-3.001-.001 1.5 1.5 0 013.001.001zm20 0a1.5 1.5 0 11-3.001-.001 1.5 1.5 0 013.001.001zm20 0a1.5 1.5 0 11-3.001-.001 1.5 1.5 0 013.001.001zm20 0a1.5 1.5 0 11-3.001-.001 1.5 1.5 0 013.001.001zm20 0a1.5 1.5 0 11-3.001-.001 1.5 1.5 0 013.001.001zm20 0a1.5 1.5 0 11-3.001-.001 1.5 1.5 0 013.001.001zm20 0a1.5 1.5 0 11-3.001-.001 1.5 1.5 0 013.001.001zm20 0a1.5 1.5 0 11-3.001-.001 1.5 1.5 0 013.001.001zm20 0a1.5 1.5 0 11-3.001-.001 1.5 1.5 0 013.001.001zm-280 20a1.5 1.5 0 11-3.001-.001 1.5 1.5 0 013.001.001zm20 0a1.5 1.5 0 11-3.001-.001 1.5 1.5 0 013.001.001zm20 0a1.5 1.5 0 11-3.001-.001 1.5 1.5 0 013.001.001zm20 0a1.5 1.5 0 11-3.001-.001 1.5 1.5 0 013.001.001zm20 0a1.5 1.5 0 11-3.001-.001 1.5 1.5 0 013.001.001zm20 0a1.5 1.5 0 11-3.001-.001 1.5 1.5 0 013.001.001zm20 0a1.5 1.5 0 11-3.001-.001 1.5 1.5 0 013.001.001zm20 0a1.5 1.5 0 11-3.001-.001 1.5 1.5 0 013.001.001zm20 0a1.5 1.5 0 11-3.001-.001 1.5 1.5 0 013.001.001zm20 0a1.5 1.5 0 11-3.001-.001 1.5 1.5 0 013.001.001zm20 0a1.5 1.5 0 11-3.001-.001 1.5 1.5 0 013.001.001zm20 0a1.5 1.5 0 11-3.001-.001 1.5 1.5 0 013.001.001zm20 0a1.5 1.5 0 11-3.001-.001 1.5 1.5 0 013.001.001zm20 0a1.5 1.5 0 11-3.001-.001 1.5 1.5 0 013.001.001zm20 0a1.5 1.5 0 11-3.001-.001 1.5 1.5 0 013.001.001zm-280 20a1.5 1.5 0 11-3.001-.001 1.5 1.5 0 013.001.001zm20 0a1.5 1.5 0 11-3.001-.001 1.5 1.5 0 013.001.001zm20 0a1.5 1.5 0 11-3.001-.001 1.5 1.5 0 013.001.001zm20 0a1.5 1.5 0 11-3.001-.001 1.5 1.5 0 013.001.001zm20 0a1.5 1.5 0 11-3.001-.001 1.5 1.5 0 013.001.001zm20 0a1.5 1.5 0 11-3.001-.001 1.5 1.5 0 013.001.001zm20 0a1.5 1.5 0 11-3.001-.001 1.5 1.5 0 013.001.001zm20 0a1.5 1.5 0 11-3.001-.001 1.5 1.5 0 013.001.001zm20 0a1.5 1.5 0 11-3.001-.001 1.5 1.5 0 013.001.001zm20 0a1.5 1.5 0 11-3.001-.001 1.5 1.5 0 013.001.001zm20 0a1.5 1.5 0 11-3.001-.001 1.5 1.5 0 013.001.001zm20 0a1.5 1.5 0 11-3.001-.001 1.5 1.5 0 013.001.001zm20 0a1.5 1.5 0 11-3.001-.001 1.5 1.5 0 013.001.001zm20 0a1.5 1.5 0 11-3.001-.001 1.5 1.5 0 013.001.001zm20 0a1.5 1.5 0 11-3.001-.001 1.5 1.5 0 013.001.001zm-280 20a1.5 1.5 0 11-3.001-.001 1.5 1.5 0 013.001.001zm20 0a1.5 1.5 0 11-3.001-.001 1.5 1.5 0 013.001.001zm20 0a1.5 1.5 0 11-3.001-.001 1.5 1.5 0 013.001.001zm20 0a1.5 1.5 0 11-3.001-.001 1.5 1.5 0 013.001.001zm20 0a1.5 1.5 0 11-3.001-.001 1.5 1.5 0 013.001.001zm20 0a1.5 1.5 0 11-3.001-.001 1.5 1.5 0 013.001.001zm20 0a1.5 1.5 0 11-3.001-.001 1.5 1.5 0 013.001.001zm20 0a1.5 1.5 0 11-3.001-.001 1.5 1.5 0 013.001.001zm20 0a1.5 1.5 0 11-3.001-.001 1.5 1.5 0 013.001.001zm20 0a1.5 1.5 0 11-3.001-.001 1.5 1.5 0 013.001.001zm20 0a1.5 1.5 0 11-3.001-.001 1.5 1.5 0 013.001.001zm20 0a1.5 1.5 0 11-3.001-.001 1.5 1.5 0 013.001.001zm20 0a1.5 1.5 0 11-3.001-.001 1.5 1.5 0 013.001.001zm20 0a1.5 1.5 0 11-3.001-.001 1.5 1.5 0 013.001.001zm20 0a1.5 1.5 0 11-3.001-.001 1.5 1.5 0 013.001.001zm20-100a1.5 1.5 0 11-3.001-.001 1.5 1.5 0 013.001.001zm20 0a1.5 1.5 0 11-3.001-.001 1.5 1.5 0 013.001.001zm20 0a1.5 1.5 0 11-3.001-.001 1.5 1.5 0 013.001.001zm20 0a1.5 1.5 0 11-3.001-.001 1.5 1.5 0 013.001.001zm20 0a1.5 1.5 0 11-3.001-.001 1.5 1.5 0 013.001.001zm-80 20a1.5 1.5 0 11-3.001-.001 1.5 1.5 0 013.001.001zm20 0a1.5 1.5 0 11-3.001-.001 1.5 1.5 0 013.001.001zm20 0a1.5 1.5 0 11-3.001-.001 1.5 1.5 0 013.001.001zm20 0a1.5 1.5 0 11-3.001-.001 1.5 1.5 0 013.001.001zm20 0a1.5 1.5 0 11-3.001-.001 1.5 1.5 0 013.001.001zm-80 20a1.5 1.5 0 11-3.001-.001 1.5 1.5 0 013.001.001zm20 0a1.5 1.5 0 11-3.001-.001 1.5 1.5 0 013.001.001zm20 0a1.5 1.5 0 11-3.001-.001 1.5 1.5 0 013.001.001zm20 0a1.5 1.5 0 11-3.001-.001 1.5 1.5 0 013.001.001zm20 0a1.5 1.5 0 11-3.001-.001 1.5 1.5 0 013.001.001zm-80 20a1.5 1.5 0 11-3.001-.001 1.5 1.5 0 013.001.001zm20 0a1.5 1.5 0 11-3.001-.001 1.5 1.5 0 013.001.001zm20 0a1.5 1.5 0 11-3.001-.001 1.5 1.5 0 013.001.001zm20 0a1.5 1.5 0 11-3.001-.001 1.5 1.5 0 013.001.001zm20 0a1.5 1.5 0 11-3.001-.001 1.5 1.5 0 013.001.001zm-80 20a1.5 1.5 0 11-3.001-.001 1.5 1.5 0 013.001.001zm20 0a1.5 1.5 0 11-3.001-.001 1.5 1.5 0 013.001.001zm20 0a1.5 1.5 0 11-3.001-.001 1.5 1.5 0 013.001.001zm20 0a1.5 1.5 0 11-3.001-.001 1.5 1.5 0 013.001.001zm20 0a1.5 1.5 0 11-3.001-.001 1.5 1.5 0 013.001.001zm-80 20a1.5 1.5 0 11-3.001-.001 1.5 1.5 0 013.001.001zm20 0a1.5 1.5 0 11-3.001-.001 1.5 1.5 0 013.001.001zm20 0a1.5 1.5 0 11-3.001-.001 1.5 1.5 0 013.001.001zm20 0a1.5 1.5 0 11-3.001-.001 1.5 1.5 0 013.001.001zm20 0a1.5 1.5 0 11-3.001-.001 1.5 1.5 0 013.001.001zm20-340a1.5 1.5 0 11-3 0 1.5 1.5 0 013 0zm20 0a1.5 1.5 0 11-3 0 1.5 1.5 0 013 0zm20 0a1.5 1.5 0 11-3 0 1.5 1.5 0 013 0zm20 0a1.5 1.5 0 11-3 0 1.5 1.5 0 013 0zm20 0a1.5 1.5 0 11-3 0 1.5 1.5 0 013 0zm20 0a1.5 1.5 0 11-3 0 1.5 1.5 0 013 0zm20 0a1.5 1.5 0 11-3 0 1.5 1.5 0 013 0zm20 0a1.5 1.5 0 11-3 0 1.5 1.5 0 013 0zm20 0a1.5 1.5 0 11-3 0 1.5 1.5 0 013 0zm-160 20a1.5 1.5 0 11-3 0 1.5 1.5 0 013 0zm20 0a1.5 1.5 0 11-3 0 1.5 1.5 0 013 0zm20 0a1.5 1.5 0 11-3 0 1.5 1.5 0 013 0zm20 0a1.5 1.5 0 11-3 0 1.5 1.5 0 013 0zm20 0a1.5 1.5 0 11-3 0 1.5 1.5 0 013 0zm20 0a1.5 1.5 0 11-3 0 1.5 1.5 0 013 0zm20 0a1.5 1.5 0 11-3 0 1.5 1.5 0 013 0zm20 0a1.5 1.5 0 11-3 0 1.5 1.5 0 013 0zm20 0a1.5 1.5 0 11-3 0 1.5 1.5 0 013 0zm-160 20a1.5 1.5 0 11-3 0 1.5 1.5 0 013 0zm20 0a1.5 1.5 0 11-3 0 1.5 1.5 0 013 0zm20 0a1.5 1.5 0 11-3 0 1.5 1.5 0 013 0zm20 0a1.5 1.5 0 11-3 0 1.5 1.5 0 013 0zm20 0a1.5 1.5 0 11-3 0 1.5 1.5 0 013 0zm20 0a1.5 1.5 0 11-3 0 1.5 1.5 0 013 0zm20 0a1.5 1.5 0 11-3 0 1.5 1.5 0 013 0zm20 0a1.5 1.5 0 11-3 0 1.5 1.5 0 013 0zm20 0a1.5 1.5 0 11-3 0 1.5 1.5 0 013 0zm-160 20a1.5 1.5 0 11-3 0 1.5 1.5 0 013 0zm20 0a1.5 1.5 0 11-3 0 1.5 1.5 0 013 0zm20 0a1.5 1.5 0 11-3 0 1.5 1.5 0 013 0zm20 0a1.5 1.5 0 11-3 0 1.5 1.5 0 013 0zm20 0a1.5 1.5 0 11-3 0 1.5 1.5 0 013 0zm20 0a1.5 1.5 0 11-3 0 1.5 1.5 0 013 0zm20 0a1.5 1.5 0 11-3 0 1.5 1.5 0 013 0zm20 0a1.5 1.5 0 11-3 0 1.5 1.5 0 013 0zm20 0a1.5 1.5 0 11-3 0 1.5 1.5 0 013 0zm-160 20a1.5 1.5 0 11-3 0 1.5 1.5 0 013 0zm20 0a1.5 1.5 0 11-3 0 1.5 1.5 0 013 0zm20 0a1.5 1.5 0 11-3 0 1.5 1.5 0 013 0zm20 0a1.5 1.5 0 11-3 0 1.5 1.5 0 013 0zm20 0a1.5 1.5 0 11-3 0 1.5 1.5 0 013 0zm20 0a1.5 1.5 0 11-3 0 1.5 1.5 0 013 0zm20 0a1.5 1.5 0 11-3 0 1.5 1.5 0 013 0zm20 0a1.5 1.5 0 11-3 0 1.5 1.5 0 013 0zm20 0a1.5 1.5 0 11-3 0 1.5 1.5 0 013 0zm-160 20a1.5 1.5 0 11-3.001-.001 1.5 1.5 0 013.001.001zm20 0a1.5 1.5 0 11-3.001-.001 1.5 1.5 0 013.001.001zm20 0a1.5 1.5 0 11-3.001-.001 1.5 1.5 0 013.001.001zm20 0a1.5 1.5 0 11-3.001-.001 1.5 1.5 0 013.001.001zm20 0a1.5 1.5 0 11-3.001-.001 1.5 1.5 0 013.001.001zm20 0a1.5 1.5 0 11-3.001-.001 1.5 1.5 0 013.001.001zm20 0a1.5 1.5 0 11-3.001-.001 1.5 1.5 0 013.001.001zm20 0a1.5 1.5 0 11-3.001-.001 1.5 1.5 0 013.001.001zm20 0a1.5 1.5 0 11-3.001-.001 1.5 1.5 0 013.001.001zm-160 20a1.5 1.5 0 11-3.001-.001 1.5 1.5 0 013.001.001zm20 0a1.5 1.5 0 11-3.001-.001 1.5 1.5 0 013.001.001zm20 0a1.5 1.5 0 11-3.001-.001 1.5 1.5 0 013.001.001zm20 0a1.5 1.5 0 11-3.001-.001 1.5 1.5 0 013.001.001zm20 0a1.5 1.5 0 11-3.001-.001 1.5 1.5 0 013.001.001zm20 0a1.5 1.5 0 11-3.001-.001 1.5 1.5 0 013.001.001zm20 0a1.5 1.5 0 11-3.001-.001 1.5 1.5 0 013.001.001zm20 0a1.5 1.5 0 11-3.001-.001 1.5 1.5 0 013.001.001zm20 0a1.5 1.5 0 11-3.001-.001 1.5 1.5 0 013.001.001zm-160 20a1.5 1.5 0 11-3.001-.001 1.5 1.5 0 013.001.001zm20 0a1.5 1.5 0 11-3.001-.001 1.5 1.5 0 013.001.001zm20 0a1.5 1.5 0 11-3.001-.001 1.5 1.5 0 013.001.001zm20 0a1.5 1.5 0 11-3.001-.001 1.5 1.5 0 013.001.001zm20 0a1.5 1.5 0 11-3.001-.001 1.5 1.5 0 013.001.001zm20 0a1.5 1.5 0 11-3.001-.001 1.5 1.5 0 013.001.001zm20 0a1.5 1.5 0 11-3.001-.001 1.5 1.5 0 013.001.001zm20 0a1.5 1.5 0 11-3.001-.001 1.5 1.5 0 013.001.001zm20 0a1.5 1.5 0 11-3.001-.001 1.5 1.5 0 013.001.001zm-160 20a1.5 1.5 0 11-3.001-.001 1.5 1.5 0 013.001.001zm20 0a1.5 1.5 0 11-3.001-.001 1.5 1.5 0 013.001.001zm20 0a1.5 1.5 0 11-3.001-.001 1.5 1.5 0 013.001.001zm20 0a1.5 1.5 0 11-3.001-.001 1.5 1.5 0 013.001.001zm20 0a1.5 1.5 0 11-3.001-.001 1.5 1.5 0 013.001.001zm20 0a1.5 1.5 0 11-3.001-.001 1.5 1.5 0 013.001.001zm20 0a1.5 1.5 0 11-3.001-.001 1.5 1.5 0 013.001.001zm20 0a1.5 1.5 0 11-3.001-.001 1.5 1.5 0 013.001.001zm20 0a1.5 1.5 0 11-3.001-.001 1.5 1.5 0 013.001.001zm-160 20a1.5 1.5 0 11-3.001-.001 1.5 1.5 0 013.001.001zm20 0a1.5 1.5 0 11-3.001-.001 1.5 1.5 0 013.001.001zm20 0a1.5 1.5 0 11-3.001-.001 1.5 1.5 0 013.001.001zm20 0a1.5 1.5 0 11-3.001-.001 1.5 1.5 0 013.001.001zm20 0a1.5 1.5 0 11-3.001-.001 1.5 1.5 0 013.001.001zm20 0a1.5 1.5 0 11-3.001-.001 1.5 1.5 0 013.001.001zm20 0a1.5 1.5 0 11-3.001-.001 1.5 1.5 0 013.001.001zm20 0a1.5 1.5 0 11-3.001-.001 1.5 1.5 0 013.001.001zm20 0a1.5 1.5 0 11-3.001-.001 1.5 1.5 0 013.001.001zm-160 20a1.5 1.5 0 11-3.001-.001 1.5 1.5 0 013.001.001zm20 0a1.5 1.5 0 11-3.001-.001 1.5 1.5 0 013.001.001zm20 0a1.5 1.5 0 11-3.001-.001 1.5 1.5 0 013.001.001zm20 0a1.5 1.5 0 11-3.001-.001 1.5 1.5 0 013.001.001zm20 0a1.5 1.5 0 11-3.001-.001 1.5 1.5 0 013.001.001zm20 0a1.5 1.5 0 11-3.001-.001 1.5 1.5 0 013.001.001zm20 0a1.5 1.5 0 11-3.001-.001 1.5 1.5 0 013.001.001zm20 0a1.5 1.5 0 11-3.001-.001 1.5 1.5 0 013.001.001zm20 0a1.5 1.5 0 11-3.001-.001 1.5 1.5 0 013.001.001zm-160 20a1.5 1.5 0 11-3.001-.001 1.5 1.5 0 013.001.001zm20 0a1.5 1.5 0 11-3.001-.001 1.5 1.5 0 013.001.001zm20 0a1.5 1.5 0 11-3.001-.001 1.5 1.5 0 013.001.001zm20 0a1.5 1.5 0 11-3.001-.001 1.5 1.5 0 013.001.001zm20 0a1.5 1.5 0 11-3.001-.001 1.5 1.5 0 013.001.001zm20 0a1.5 1.5 0 11-3.001-.001 1.5 1.5 0 013.001.001zm20 0a1.5 1.5 0 11-3.001-.001 1.5 1.5 0 013.001.001zm20 0a1.5 1.5 0 11-3.001-.001 1.5 1.5 0 013.001.001zm20 0a1.5 1.5 0 11-3.001-.001 1.5 1.5 0 013.001.001zm20-220a1.5 1.5 0 11-3 0 1.5 1.5 0 013 0zm20 0a1.5 1.5 0 11-3 0 1.5 1.5 0 013 0zm20 0a1.5 1.5 0 11-3 0 1.5 1.5 0 013 0zm20 0a1.5 1.5 0 11-3 0 1.5 1.5 0 013 0zm20 0a1.5 1.5 0 11-3 0 1.5 1.5 0 013 0zm20 0a1.5 1.5 0 11-3 0 1.5 1.5 0 013 0zm20 0a1.5 1.5 0 11-3 0 1.5 1.5 0 013 0zm20 0a1.5 1.5 0 11-3 0 1.5 1.5 0 013 0zm20 0a1.5 1.5 0 11-3 0 1.5 1.5 0 013 0zm20 0a1.5 1.5 0 11-3 0 1.5 1.5 0 013 0zm20 0a1.5 1.5 0 11-3 0 1.5 1.5 0 013 0zm20 0a1.5 1.5 0 11-3 0 1.5 1.5 0 013 0zm20 0a1.5 1.5 0 11-3 0 1.5 1.5 0 013 0zm-240 20a1.5 1.5 0 11-3 0 1.5 1.5 0 013 0zm20 0a1.5 1.5 0 11-3 0 1.5 1.5 0 013 0zm20 0a1.5 1.5 0 11-3 0 1.5 1.5 0 013 0zm20 0a1.5 1.5 0 11-3 0 1.5 1.5 0 013 0zm20 0a1.5 1.5 0 11-3 0 1.5 1.5 0 013 0zm20 0a1.5 1.5 0 11-3 0 1.5 1.5 0 013 0zm20 0a1.5 1.5 0 11-3 0 1.5 1.5 0 013 0zm20 0a1.5 1.5 0 11-3 0 1.5 1.5 0 013 0zm20 0a1.5 1.5 0 11-3 0 1.5 1.5 0 013 0zm20 0a1.5 1.5 0 11-3 0 1.5 1.5 0 013 0zm20 0a1.5 1.5 0 11-3 0 1.5 1.5 0 013 0zm20 0a1.5 1.5 0 11-3 0 1.5 1.5 0 013 0zm20 0a1.5 1.5 0 11-3 0 1.5 1.5 0 013 0zm-240 20a1.5 1.5 0 11-3 0 1.5 1.5 0 013 0zm20 0a1.5 1.5 0 11-3 0 1.5 1.5 0 013 0zm20 0a1.5 1.5 0 11-3 0 1.5 1.5 0 013 0zm20 0a1.5 1.5 0 11-3 0 1.5 1.5 0 013 0zm20 0a1.5 1.5 0 11-3 0 1.5 1.5 0 013 0zm20 0a1.5 1.5 0 11-3 0 1.5 1.5 0 013 0zm20 0a1.5 1.5 0 11-3 0 1.5 1.5 0 013 0zm20 0a1.5 1.5 0 11-3 0 1.5 1.5 0 013 0zm20 0a1.5 1.5 0 11-3 0 1.5 1.5 0 013 0zm20 0a1.5 1.5 0 11-3 0 1.5 1.5 0 013 0zm20 0a1.5 1.5 0 11-3 0 1.5 1.5 0 013 0zm20 0a1.5 1.5 0 11-3 0 1.5 1.5 0 013 0zm20 0a1.5 1.5 0 11-3 0 1.5 1.5 0 013 0zm-240 20a1.5 1.5 0 11-3 0 1.5 1.5 0 013 0zm20 0a1.5 1.5 0 11-3 0 1.5 1.5 0 013 0zm20 0a1.5 1.5 0 11-3 0 1.5 1.5 0 013 0zm20 0a1.5 1.5 0 11-3 0 1.5 1.5 0 013 0zm20 0a1.5 1.5 0 11-3 0 1.5 1.5 0 013 0zm20 0a1.5 1.5 0 11-3 0 1.5 1.5 0 013 0zm20 0a1.5 1.5 0 11-3 0 1.5 1.5 0 013 0zm20 0a1.5 1.5 0 11-3 0 1.5 1.5 0 013 0zm20 0a1.5 1.5 0 11-3 0 1.5 1.5 0 013 0zm20 0a1.5 1.5 0 11-3 0 1.5 1.5 0 013 0zm20 0a1.5 1.5 0 11-3 0 1.5 1.5 0 013 0zm20 0a1.5 1.5 0 11-3 0 1.5 1.5 0 013 0zm20 0a1.5 1.5 0 11-3 0 1.5 1.5 0 013 0zm-240 20a1.5 1.5 0 11-3 0 1.5 1.5 0 013 0zm20 0a1.5 1.5 0 11-3 0 1.5 1.5 0 013 0zm20 0a1.5 1.5 0 11-3 0 1.5 1.5 0 013 0zm20 0a1.5 1.5 0 11-3 0 1.5 1.5 0 013 0zm20 0a1.5 1.5 0 11-3 0 1.5 1.5 0 013 0zm20 0a1.5 1.5 0 11-3 0 1.5 1.5 0 013 0zm20 0a1.5 1.5 0 11-3 0 1.5 1.5 0 013 0zm20 0a1.5 1.5 0 11-3 0 1.5 1.5 0 013 0zm20 0a1.5 1.5 0 11-3 0 1.5 1.5 0 013 0zm20 0a1.5 1.5 0 11-3 0 1.5 1.5 0 013 0zm20 0a1.5 1.5 0 11-3 0 1.5 1.5 0 013 0zm20 0a1.5 1.5 0 11-3 0 1.5 1.5 0 013 0zm20 0a1.5 1.5 0 11-3 0 1.5 1.5 0 013 0zm-240 20a1.5 1.5 0 11-3.001-.001 1.5 1.5 0 013.001.001zm20 0a1.5 1.5 0 11-3.001-.001 1.5 1.5 0 013.001.001zm20 0a1.5 1.5 0 11-3.001-.001 1.5 1.5 0 013.001.001zm20 0a1.5 1.5 0 11-3.001-.001 1.5 1.5 0 013.001.001zm20 0a1.5 1.5 0 11-3.001-.001 1.5 1.5 0 013.001.001zm20 0a1.5 1.5 0 11-3.001-.001 1.5 1.5 0 013.001.001zm20 0a1.5 1.5 0 11-3.001-.001 1.5 1.5 0 013.001.001zm20 0a1.5 1.5 0 11-3.001-.001 1.5 1.5 0 013.001.001zm20 0a1.5 1.5 0 11-3.001-.001 1.5 1.5 0 013.001.001zm20 0a1.5 1.5 0 11-3.001-.001 1.5 1.5 0 013.001.001zm20 0a1.5 1.5 0 11-3.001-.001 1.5 1.5 0 013.001.001zm20 0a1.5 1.5 0 11-3.001-.001 1.5 1.5 0 013.001.001zm20 0a1.5 1.5 0 11-3.001-.001 1.5 1.5 0 013.001.001zm-240 20a1.5 1.5 0 11-3.001-.001 1.5 1.5 0 013.001.001zm20 0a1.5 1.5 0 11-3.001-.001 1.5 1.5 0 013.001.001zm20 0a1.5 1.5 0 11-3.001-.001 1.5 1.5 0 013.001.001zm20 0a1.5 1.5 0 11-3.001-.001 1.5 1.5 0 013.001.001zm20 0a1.5 1.5 0 11-3.001-.001 1.5 1.5 0 013.001.001zm20 0a1.5 1.5 0 11-3.001-.001 1.5 1.5 0 013.001.001zm20 0a1.5 1.5 0 11-3.001-.001 1.5 1.5 0 013.001.001zm20 0a1.5 1.5 0 11-3.001-.001 1.5 1.5 0 013.001.001zm20 0a1.5 1.5 0 11-3.001-.001 1.5 1.5 0 013.001.001zm20 0a1.5 1.5 0 11-3.001-.001 1.5 1.5 0 013.001.001zm20 0a1.5 1.5 0 11-3.001-.001 1.5 1.5 0 013.001.001zm20 0a1.5 1.5 0 11-3.001-.001 1.5 1.5 0 013.001.001zm20 0a1.5 1.5 0 11-3.001-.001 1.5 1.5 0 013.001.001zm-240 20a1.5 1.5 0 11-3.001-.001 1.5 1.5 0 013.001.001zm20 0a1.5 1.5 0 11-3.001-.001 1.5 1.5 0 013.001.001zm20 0a1.5 1.5 0 11-3.001-.001 1.5 1.5 0 013.001.001zm20 0a1.5 1.5 0 11-3.001-.001 1.5 1.5 0 013.001.001zm20 0a1.5 1.5 0 11-3.001-.001 1.5 1.5 0 013.001.001zm20 0a1.5 1.5 0 11-3.001-.001 1.5 1.5 0 013.001.001zm20 0a1.5 1.5 0 11-3.001-.001 1.5 1.5 0 013.001.001zm20 0a1.5 1.5 0 11-3.001-.001 1.5 1.5 0 013.001.001zm20 0a1.5 1.5 0 11-3.001-.001 1.5 1.5 0 013.001.001zm20 0a1.5 1.5 0 11-3.001-.001 1.5 1.5 0 013.001.001zm20 0a1.5 1.5 0 11-3.001-.001 1.5 1.5 0 013.001.001zm20 0a1.5 1.5 0 11-3.001-.001 1.5 1.5 0 013.001.001zm20 0a1.5 1.5 0 11-3.001-.001 1.5 1.5 0 013.001.001zm-240 20a1.5 1.5 0 11-3.001-.001 1.5 1.5 0 013.001.001zm20 0a1.5 1.5 0 11-3.001-.001 1.5 1.5 0 013.001.001zm20 0a1.5 1.5 0 11-3.001-.001 1.5 1.5 0 013.001.001zm20 0a1.5 1.5 0 11-3.001-.001 1.5 1.5 0 013.001.001zm20 0a1.5 1.5 0 11-3.001-.001 1.5 1.5 0 013.001.001zm20 0a1.5 1.5 0 11-3.001-.001 1.5 1.5 0 013.001.001zm20 0a1.5 1.5 0 11-3.001-.001 1.5 1.5 0 013.001.001zm20 0a1.5 1.5 0 11-3.001-.001 1.5 1.5 0 013.001.001zm20 0a1.5 1.5 0 11-3.001-.001 1.5 1.5 0 013.001.001zm20 0a1.5 1.5 0 11-3.001-.001 1.5 1.5 0 013.001.001zm20 0a1.5 1.5 0 11-3.001-.001 1.5 1.5 0 013.001.001zm20 0a1.5 1.5 0 11-3.001-.001 1.5 1.5 0 013.001.001zm20 0a1.5 1.5 0 11-3.001-.001 1.5 1.5 0 013.001.001zm-240 20a1.5 1.5 0 11-3.001-.001 1.5 1.5 0 013.001.001zm20 0a1.5 1.5 0 11-3.001-.001 1.5 1.5 0 013.001.001zm20 0a1.5 1.5 0 11-3.001-.001 1.5 1.5 0 013.001.001zm20 0a1.5 1.5 0 11-3.001-.001 1.5 1.5 0 013.001.001zm20 0a1.5 1.5 0 11-3.001-.001 1.5 1.5 0 013.001.001zm20 0a1.5 1.5 0 11-3.001-.001 1.5 1.5 0 013.001.001zm20 0a1.5 1.5 0 11-3.001-.001 1.5 1.5 0 013.001.001zm20 0a1.5 1.5 0 11-3.001-.001 1.5 1.5 0 013.001.001zm20 0a1.5 1.5 0 11-3.001-.001 1.5 1.5 0 013.001.001zm20 0a1.5 1.5 0 11-3.001-.001 1.5 1.5 0 013.001.001zm20 0a1.5 1.5 0 11-3.001-.001 1.5 1.5 0 013.001.001zm20 0a1.5 1.5 0 11-3.001-.001 1.5 1.5 0 013.001.001zm20 0a1.5 1.5 0 11-3.001-.001 1.5 1.5 0 013.001.001zm-240 20a1.5 1.5 0 11-3.001-.001 1.5 1.5 0 013.001.001zm20 0a1.5 1.5 0 11-3.001-.001 1.5 1.5 0 013.001.001zm20 0a1.5 1.5 0 11-3.001-.001 1.5 1.5 0 013.001.001zm20 0a1.5 1.5 0 11-3.001-.001 1.5 1.5 0 013.001.001zm20 0a1.5 1.5 0 11-3.001-.001 1.5 1.5 0 013.001.001zm20 0a1.5 1.5 0 11-3.001-.001 1.5 1.5 0 013.001.001zm20 0a1.5 1.5 0 11-3.001-.001 1.5 1.5 0 013.001.001zm20 0a1.5 1.5 0 11-3.001-.001 1.5 1.5 0 013.001.001zm20 0a1.5 1.5 0 11-3.001-.001 1.5 1.5 0 013.001.001zm20 0a1.5 1.5 0 11-3.001-.001 1.5 1.5 0 013.001.001zm20 0a1.5 1.5 0 11-3.001-.001 1.5 1.5 0 013.001.001zm20 0a1.5 1.5 0 11-3.001-.001 1.5 1.5 0 013.001.001zm20 0a1.5 1.5 0 11-3.001-.001 1.5 1.5 0 013.001.001zm-240 20a1.5 1.5 0 11-3.001-.001 1.5 1.5 0 013.001.001zm20 0a1.5 1.5 0 11-3.001-.001 1.5 1.5 0 013.001.001zm20 0a1.5 1.5 0 11-3.001-.001 1.5 1.5 0 013.001.001zm20 0a1.5 1.5 0 11-3.001-.001 1.5 1.5 0 013.001.001zm20 0a1.5 1.5 0 11-3.001-.001 1.5 1.5 0 013.001.001zm20 0a1.5 1.5 0 11-3.001-.001 1.5 1.5 0 013.001.001zm20 0a1.5 1.5 0 11-3.001-.001 1.5 1.5 0 013.001.001zm20 0a1.5 1.5 0 11-3.001-.001 1.5 1.5 0 013.001.001zm20 0a1.5 1.5 0 11-3.001-.001 1.5 1.5 0 013.001.001zm20 0a1.5 1.5 0 11-3.001-.001 1.5 1.5 0 013.001.001zm20 0a1.5 1.5 0 11-3.001-.001 1.5 1.5 0 013.001.001zm20 0a1.5 1.5 0 11-3.001-.001 1.5 1.5 0 013.001.001zm20 0a1.5 1.5 0 11-3.001-.001 1.5 1.5 0 013.001.001zm-420 20a1.5 1.5 0 11-3.001-.001 1.5 1.5 0 013.001.001zm20 0a1.5 1.5 0 11-3.001-.001 1.5 1.5 0 013.001.001zm20 0a1.5 1.5 0 11-3.001-.001 1.5 1.5 0 013.001.001zm20 0a1.5 1.5 0 11-3.001-.001 1.5 1.5 0 013.001.001zm20 0a1.5 1.5 0 11-3.001-.001 1.5 1.5 0 013.001.001zm20 0a1.5 1.5 0 11-3.001-.001 1.5 1.5 0 013.001.001zm20 0a1.5 1.5 0 11-3.001-.001 1.5 1.5 0 013.001.001zm20 0a1.5 1.5 0 11-3.001-.001 1.5 1.5 0 013.001.001zm20 0a1.5 1.5 0 11-3.001-.001 1.5 1.5 0 013.001.001zm-160 20a1.5 1.5 0 11-3.001-.001 1.5 1.5 0 013.001.001zm20 0a1.5 1.5 0 11-3.001-.001 1.5 1.5 0 013.001.001zm20 0a1.5 1.5 0 11-3.001-.001 1.5 1.5 0 013.001.001zm20 0a1.5 1.5 0 11-3.001-.001 1.5 1.5 0 013.001.001zm20 0a1.5 1.5 0 11-3.001-.001 1.5 1.5 0 013.001.001zm20 0a1.5 1.5 0 11-3.001-.001 1.5 1.5 0 013.001.001zm20 0a1.5 1.5 0 11-3.001-.001 1.5 1.5 0 013.001.001zm20 0a1.5 1.5 0 11-3.001-.001 1.5 1.5 0 013.001.001zm20 0a1.5 1.5 0 11-3.001-.001 1.5 1.5 0 013.001.001zm-160 20a1.5 1.5 0 11-3.001-.001 1.5 1.5 0 013.001.001zm20 0a1.5 1.5 0 11-3.001-.001 1.5 1.5 0 013.001.001zm20 0a1.5 1.5 0 11-3.001-.001 1.5 1.5 0 013.001.001zm20 0a1.5 1.5 0 11-3.001-.001 1.5 1.5 0 013.001.001zm20 0a1.5 1.5 0 11-3.001-.001 1.5 1.5 0 013.001.001zm20 0a1.5 1.5 0 11-3.001-.001 1.5 1.5 0 013.001.001zm20 0a1.5 1.5 0 11-3.001-.001 1.5 1.5 0 013.001.001zm20 0a1.5 1.5 0 11-3.001-.001 1.5 1.5 0 013.001.001zm20 0a1.5 1.5 0 11-3.001-.001 1.5 1.5 0 013.001.001zm-160 20a1.5 1.5 0 11-3.001-.001 1.5 1.5 0 013.001.001zm20 0a1.5 1.5 0 11-3.001-.001 1.5 1.5 0 013.001.001zm20 0a1.5 1.5 0 11-3.001-.001 1.5 1.5 0 013.001.001zm20 0a1.5 1.5 0 11-3.001-.001 1.5 1.5 0 013.001.001zm20 0a1.5 1.5 0 11-3.001-.001 1.5 1.5 0 013.001.001zm20 0a1.5 1.5 0 11-3.001-.001 1.5 1.5 0 013.001.001zm20 0a1.5 1.5 0 11-3.001-.001 1.5 1.5 0 013.001.001zm20 0a1.5 1.5 0 11-3.001-.001 1.5 1.5 0 013.001.001zm20 0a1.5 1.5 0 11-3.001-.001 1.5 1.5 0 013.001.001zm-160 20a1.5 1.5 0 11-3.001-.001 1.5 1.5 0 013.001.001zm20 0a1.5 1.5 0 11-3.001-.001 1.5 1.5 0 013.001.001zm20 0a1.5 1.5 0 11-3.001-.001 1.5 1.5 0 013.001.001zm20 0a1.5 1.5 0 11-3.001-.001 1.5 1.5 0 013.001.001zm20 0a1.5 1.5 0 11-3.001-.001 1.5 1.5 0 013.001.001zm20 0a1.5 1.5 0 11-3.001-.001 1.5 1.5 0 013.001.001zm20 0a1.5 1.5 0 11-3.001-.001 1.5 1.5 0 013.001.001zm20 0a1.5 1.5 0 11-3.001-.001 1.5 1.5 0 013.001.001zm20 0a1.5 1.5 0 11-3.001-.001 1.5 1.5 0 013.001.001zm-160 20a1.5 1.5 0 11-3.001-.001 1.5 1.5 0 013.001.001zm20 0a1.5 1.5 0 11-3.001-.001 1.5 1.5 0 013.001.001zm20 0a1.5 1.5 0 11-3.001-.001 1.5 1.5 0 013.001.001zm20 0a1.5 1.5 0 11-3.001-.001 1.5 1.5 0 013.001.001zm20 0a1.5 1.5 0 11-3.001-.001 1.5 1.5 0 013.001.001zm20 0a1.5 1.5 0 11-3.001-.001 1.5 1.5 0 013.001.001zm20 0a1.5 1.5 0 11-3.001-.001 1.5 1.5 0 013.001.001zm20 0a1.5 1.5 0 11-3.001-.001 1.5 1.5 0 013.001.001zm20 0a1.5 1.5 0 11-3.001-.001 1.5 1.5 0 013.001.001zm20-100a1.5 1.5 0 11-3.001-.001 1.5 1.5 0 013.001.001zm20 0a1.5 1.5 0 11-3.001-.001 1.5 1.5 0 013.001.001zm20 0a1.5 1.5 0 11-3.001-.001 1.5 1.5 0 013.001.001zm20 0a1.5 1.5 0 11-3.001-.001 1.5 1.5 0 013.001.001zm20 0a1.5 1.5 0 11-3.001-.001 1.5 1.5 0 013.001.001zm20 0a1.5 1.5 0 11-3.001-.001 1.5 1.5 0 013.001.001zm20 0a1.5 1.5 0 11-3.001-.001 1.5 1.5 0 013.001.001zm20 0a1.5 1.5 0 11-3.001-.001 1.5 1.5 0 013.001.001zm20 0a1.5 1.5 0 11-3.001-.001 1.5 1.5 0 013.001.001zm20 0a1.5 1.5 0 11-3.001-.001 1.5 1.5 0 013.001.001zm20 0a1.5 1.5 0 11-3.001-.001 1.5 1.5 0 013.001.001zm20 0a1.5 1.5 0 11-3.001-.001 1.5 1.5 0 013.001.001zm20 0a1.5 1.5 0 11-3.001-.001 1.5 1.5 0 013.001.001zm-240 20a1.5 1.5 0 11-3.001-.001 1.5 1.5 0 013.001.001zm20 0a1.5 1.5 0 11-3.001-.001 1.5 1.5 0 013.001.001zm20 0a1.5 1.5 0 11-3.001-.001 1.5 1.5 0 013.001.001zm20 0a1.5 1.5 0 11-3.001-.001 1.5 1.5 0 013.001.001zm20 0a1.5 1.5 0 11-3.001-.001 1.5 1.5 0 013.001.001zm20 0a1.5 1.5 0 11-3.001-.001 1.5 1.5 0 013.001.001zm20 0a1.5 1.5 0 11-3.001-.001 1.5 1.5 0 013.001.001zm20 0a1.5 1.5 0 11-3.001-.001 1.5 1.5 0 013.001.001zm20 0a1.5 1.5 0 11-3.001-.001 1.5 1.5 0 013.001.001zm20 0a1.5 1.5 0 11-3.001-.001 1.5 1.5 0 013.001.001zm20 0a1.5 1.5 0 11-3.001-.001 1.5 1.5 0 013.001.001zm20 0a1.5 1.5 0 11-3.001-.001 1.5 1.5 0 013.001.001zm20 0a1.5 1.5 0 11-3.001-.001 1.5 1.5 0 013.001.001zm-240 20a1.5 1.5 0 11-3.001-.001 1.5 1.5 0 013.001.001zm20 0a1.5 1.5 0 11-3.001-.001 1.5 1.5 0 013.001.001zm20 0a1.5 1.5 0 11-3.001-.001 1.5 1.5 0 013.001.001zm20 0a1.5 1.5 0 11-3.001-.001 1.5 1.5 0 013.001.001zm20 0a1.5 1.5 0 11-3.001-.001 1.5 1.5 0 013.001.001zm20 0a1.5 1.5 0 11-3.001-.001 1.5 1.5 0 013.001.001zm20 0a1.5 1.5 0 11-3.001-.001 1.5 1.5 0 013.001.001zm20 0a1.5 1.5 0 11-3.001-.001 1.5 1.5 0 013.001.001zm20 0a1.5 1.5 0 11-3.001-.001 1.5 1.5 0 013.001.001zm20 0a1.5 1.5 0 11-3.001-.001 1.5 1.5 0 013.001.001zm20 0a1.5 1.5 0 11-3.001-.001 1.5 1.5 0 013.001.001zm20 0a1.5 1.5 0 11-3.001-.001 1.5 1.5 0 013.001.001zm20 0a1.5 1.5 0 11-3.001-.001 1.5 1.5 0 013.001.001zm-240 20a1.5 1.5 0 11-3.001-.001 1.5 1.5 0 013.001.001zm20 0a1.5 1.5 0 11-3.001-.001 1.5 1.5 0 013.001.001zm20 0a1.5 1.5 0 11-3.001-.001 1.5 1.5 0 013.001.001zm20 0a1.5 1.5 0 11-3.001-.001 1.5 1.5 0 013.001.001zm20 0a1.5 1.5 0 11-3.001-.001 1.5 1.5 0 013.001.001zm20 0a1.5 1.5 0 11-3.001-.001 1.5 1.5 0 013.001.001zm20 0a1.5 1.5 0 11-3.001-.001 1.5 1.5 0 013.001.001zm20 0a1.5 1.5 0 11-3.001-.001 1.5 1.5 0 013.001.001zm20 0a1.5 1.5 0 11-3.001-.001 1.5 1.5 0 013.001.001zm20 0a1.5 1.5 0 11-3.001-.001 1.5 1.5 0 013.001.001zm20 0a1.5 1.5 0 11-3.001-.001 1.5 1.5 0 013.001.001zm20 0a1.5 1.5 0 11-3.001-.001 1.5 1.5 0 013.001.001zm20 0a1.5 1.5 0 11-3.001-.001 1.5 1.5 0 013.001.001zm-240 20a1.5 1.5 0 11-3.001-.001 1.5 1.5 0 013.001.001zm20 0a1.5 1.5 0 11-3.001-.001 1.5 1.5 0 013.001.001zm20 0a1.5 1.5 0 11-3.001-.001 1.5 1.5 0 013.001.001zm20 0a1.5 1.5 0 11-3.001-.001 1.5 1.5 0 013.001.001zm20 0a1.5 1.5 0 11-3.001-.001 1.5 1.5 0 013.001.001zm20 0a1.5 1.5 0 11-3.001-.001 1.5 1.5 0 013.001.001zm20 0a1.5 1.5 0 11-3.001-.001 1.5 1.5 0 013.001.001zm20 0a1.5 1.5 0 11-3.001-.001 1.5 1.5 0 013.001.001zm20 0a1.5 1.5 0 11-3.001-.001 1.5 1.5 0 013.001.001zm20 0a1.5 1.5 0 11-3.001-.001 1.5 1.5 0 013.001.001zm20 0a1.5 1.5 0 11-3.001-.001 1.5 1.5 0 013.001.001zm20 0a1.5 1.5 0 11-3.001-.001 1.5 1.5 0 013.001.001zm20 0a1.5 1.5 0 11-3.001-.001 1.5 1.5 0 013.001.001zm-240 20a1.5 1.5 0 11-3.001-.001 1.5 1.5 0 013.001.001zm20 0a1.5 1.5 0 11-3.001-.001 1.5 1.5 0 013.001.001zm20 0a1.5 1.5 0 11-3.001-.001 1.5 1.5 0 013.001.001zm20 0a1.5 1.5 0 11-3.001-.001 1.5 1.5 0 013.001.001zm20 0a1.5 1.5 0 11-3.001-.001 1.5 1.5 0 013.001.001zm20 0a1.5 1.5 0 11-3.001-.001 1.5 1.5 0 013.001.001zm20 0a1.5 1.5 0 11-3.001-.001 1.5 1.5 0 013.001.001zm20 0a1.5 1.5 0 11-3.001-.001 1.5 1.5 0 013.001.001zm20 0a1.5 1.5 0 11-3.001-.001 1.5 1.5 0 013.001.001zm20 0a1.5 1.5 0 11-3.001-.001 1.5 1.5 0 013.001.001zm20 0a1.5 1.5 0 11-3.001-.001 1.5 1.5 0 013.001.001zm20 0a1.5 1.5 0 11-3.001-.001 1.5 1.5 0 013.001.001zm20 0a1.5 1.5 0 11-3.001-.001 1.5 1.5 0 013.001.001zm-1580 20a1.5 1.5 0 11-3.001-.001 1.5 1.5 0 013.001.001zm20 0a1.5 1.5 0 11-3.001-.001 1.5 1.5 0 013.001.001zm20 0a1.5 1.5 0 11-3.001-.001 1.5 1.5 0 013.001.001zm20 0a1.5 1.5 0 11-3.001-.001 1.5 1.5 0 013.001.001zm20 0a1.5 1.5 0 11-3.001-.001 1.5 1.5 0 013.001.001zm20 0a1.5 1.5 0 11-3.001-.001 1.5 1.5 0 013.001.001zm20 0a1.5 1.5 0 11-3.001-.001 1.5 1.5 0 013.001.001zm20 0a1.5 1.5 0 11-3.001-.001 1.5 1.5 0 013.001.001zm20 0a1.5 1.5 0 11-3.001-.001 1.5 1.5 0 013.001.001zm20 0a1.5 1.5 0 11-3.001-.001 1.5 1.5 0 013.001.001zm20 0a1.5 1.5 0 11-3.001-.001 1.5 1.5 0 013.001.001zm20 0a1.5 1.5 0 11-3.001-.001 1.5 1.5 0 013.001.001zm20 0a1.5 1.5 0 11-3.001-.001 1.5 1.5 0 013.001.001zm20 0a1.5 1.5 0 11-3.001-.001 1.5 1.5 0 013.001.001zm20 0a1.5 1.5 0 11-3.001-.001 1.5 1.5 0 013.001.001zm20 0a1.5 1.5 0 11-3.001-.001 1.5 1.5 0 013.001.001zm20 0a1.5 1.5 0 11-3.001-.001 1.5 1.5 0 013.001.001zm20 0a1.5 1.5 0 11-3.001-.001 1.5 1.5 0 013.001.001zm20 0a1.5 1.5 0 11-3.001-.001 1.5 1.5 0 013.001.001zm20 0a1.5 1.5 0 11-3.001-.001 1.5 1.5 0 013.001.001zm20 0a1.5 1.5 0 11-3.001-.001 1.5 1.5 0 013.001.001zm20 0a1.5 1.5 0 11-3.001-.001 1.5 1.5 0 013.001.001zm20 0a1.5 1.5 0 11-3.001-.001 1.5 1.5 0 013.001.001zm20 0a1.5 1.5 0 11-3.001-.001 1.5 1.5 0 013.001.001zm20 0a1.5 1.5 0 11-3.001-.001 1.5 1.5 0 013.001.001zm20 0a1.5 1.5 0 11-3.001-.001 1.5 1.5 0 013.001.001zm20 0a1.5 1.5 0 11-3.001-.001 1.5 1.5 0 013.001.001zm20 0a1.5 1.5 0 11-3.001-.001 1.5 1.5 0 013.001.001zm20 0a1.5 1.5 0 11-3 0 1.5 1.5 0 013 0zm-560 20a1.5 1.5 0 11-3.001-.001 1.5 1.5 0 013.001.001zm20 0a1.5 1.5 0 11-3.001-.001 1.5 1.5 0 013.001.001zm20 0a1.5 1.5 0 11-3.001-.001 1.5 1.5 0 013.001.001zm20 0a1.5 1.5 0 11-3.001-.001 1.5 1.5 0 013.001.001zm20 0a1.5 1.5 0 11-3.001-.001 1.5 1.5 0 013.001.001zm20 0a1.5 1.5 0 11-3.001-.001 1.5 1.5 0 013.001.001zm20 0a1.5 1.5 0 11-3.001-.001 1.5 1.5 0 013.001.001zm20 0a1.5 1.5 0 11-3.001-.001 1.5 1.5 0 013.001.001zm20 0a1.5 1.5 0 11-3.001-.001 1.5 1.5 0 013.001.001zm-160 20a1.5 1.5 0 11-3.001-.001 1.5 1.5 0 013.001.001zm20 0a1.5 1.5 0 11-3.001-.001 1.5 1.5 0 013.001.001zm20 0a1.5 1.5 0 11-3.001-.001 1.5 1.5 0 013.001.001zm20 0a1.5 1.5 0 11-3.001-.001 1.5 1.5 0 013.001.001zm20 0a1.5 1.5 0 11-3.001-.001 1.5 1.5 0 013.001.001zm20 0a1.5 1.5 0 11-3.001-.001 1.5 1.5 0 013.001.001zm20 0a1.5 1.5 0 11-3.001-.001 1.5 1.5 0 013.001.001zm20 0a1.5 1.5 0 11-3.001-.001 1.5 1.5 0 013.001.001zm20 0a1.5 1.5 0 11-3.001-.001 1.5 1.5 0 013.001.001zm-160 20a1.5 1.5 0 11-3.001-.001 1.5 1.5 0 013.001.001zm20 0a1.5 1.5 0 11-3.001-.001 1.5 1.5 0 013.001.001zm20 0a1.5 1.5 0 11-3.001-.001 1.5 1.5 0 013.001.001zm20 0a1.5 1.5 0 11-3.001-.001 1.5 1.5 0 013.001.001zm20 0a1.5 1.5 0 11-3.001-.001 1.5 1.5 0 013.001.001zm20 0a1.5 1.5 0 11-3.001-.001 1.5 1.5 0 013.001.001zm20 0a1.5 1.5 0 11-3.001-.001 1.5 1.5 0 013.001.001zm20 0a1.5 1.5 0 11-3.001-.001 1.5 1.5 0 013.001.001zm20 0a1.5 1.5 0 11-3.001-.001 1.5 1.5 0 013.001.001zm-160 20a1.5 1.5 0 11-3.001-.001 1.5 1.5 0 013.001.001zm20 0a1.5 1.5 0 11-3.001-.001 1.5 1.5 0 013.001.001zm20 0a1.5 1.5 0 11-3.001-.001 1.5 1.5 0 013.001.001zm20 0a1.5 1.5 0 11-3.001-.001 1.5 1.5 0 013.001.001zm20 0a1.5 1.5 0 11-3.001-.001 1.5 1.5 0 013.001.001zm20 0a1.5 1.5 0 11-3.001-.001 1.5 1.5 0 013.001.001zm20 0a1.5 1.5 0 11-3.001-.001 1.5 1.5 0 013.001.001zm20 0a1.5 1.5 0 11-3.001-.001 1.5 1.5 0 013.001.001zm20 0a1.5 1.5 0 11-3.001-.001 1.5 1.5 0 013.001.001zm20-60a1.5 1.5 0 11-3.001-.001 1.5 1.5 0 013.001.001zm20 0a1.5 1.5 0 11-3.001-.001 1.5 1.5 0 013.001.001zm20 0a1.5 1.5 0 11-3.001-.001 1.5 1.5 0 013.001.001zm20 0a1.5 1.5 0 11-3.001-.001 1.5 1.5 0 013.001.001zm20 0a1.5 1.5 0 11-3.001-.001 1.5 1.5 0 013.001.001zm20 0a1.5 1.5 0 11-3.001-.001 1.5 1.5 0 013.001.001zm20 0a1.5 1.5 0 11-3.001-.001 1.5 1.5 0 013.001.001zm20 0a1.5 1.5 0 11-3.001-.001 1.5 1.5 0 013.001.001zm20 0a1.5 1.5 0 11-3.001-.001 1.5 1.5 0 013.001.001zm20 0a1.5 1.5 0 11-3.001-.001 1.5 1.5 0 013.001.001zm20 0a1.5 1.5 0 11-3.001-.001 1.5 1.5 0 013.001.001zm20 0a1.5 1.5 0 11-3.001-.001 1.5 1.5 0 013.001.001zm20 0a1.5 1.5 0 11-3.001-.001 1.5 1.5 0 013.001.001zm20 0a1.5 1.5 0 11-3.001-.001 1.5 1.5 0 013.001.001zm20 0a1.5 1.5 0 11-3.001-.001 1.5 1.5 0 013.001.001zm-280 20a1.5 1.5 0 11-3.001-.001 1.5 1.5 0 013.001.001zm20 0a1.5 1.5 0 11-3.001-.001 1.5 1.5 0 013.001.001zm20 0a1.5 1.5 0 11-3.001-.001 1.5 1.5 0 013.001.001zm20 0a1.5 1.5 0 11-3.001-.001 1.5 1.5 0 013.001.001zm20 0a1.5 1.5 0 11-3.001-.001 1.5 1.5 0 013.001.001zm20 0a1.5 1.5 0 11-3.001-.001 1.5 1.5 0 013.001.001zm20 0a1.5 1.5 0 11-3.001-.001 1.5 1.5 0 013.001.001zm20 0a1.5 1.5 0 11-3.001-.001 1.5 1.5 0 013.001.001zm20 0a1.5 1.5 0 11-3.001-.001 1.5 1.5 0 013.001.001zm20 0a1.5 1.5 0 11-3.001-.001 1.5 1.5 0 013.001.001zm20 0a1.5 1.5 0 11-3.001-.001 1.5 1.5 0 013.001.001zm20 0a1.5 1.5 0 11-3.001-.001 1.5 1.5 0 013.001.001zm20 0a1.5 1.5 0 11-3.001-.001 1.5 1.5 0 013.001.001zm20 0a1.5 1.5 0 11-3.001-.001 1.5 1.5 0 013.001.001zm20 0a1.5 1.5 0 11-3.001-.001 1.5 1.5 0 013.001.001zm-280 20a1.5 1.5 0 11-3.001-.001 1.5 1.5 0 013.001.001zm20 0a1.5 1.5 0 11-3.001-.001 1.5 1.5 0 013.001.001zm20 0a1.5 1.5 0 11-3.001-.001 1.5 1.5 0 013.001.001zm20 0a1.5 1.5 0 11-3.001-.001 1.5 1.5 0 013.001.001zm20 0a1.5 1.5 0 11-3.001-.001 1.5 1.5 0 013.001.001zm20 0a1.5 1.5 0 11-3.001-.001 1.5 1.5 0 013.001.001zm20 0a1.5 1.5 0 11-3.001-.001 1.5 1.5 0 013.001.001zm20 0a1.5 1.5 0 11-3.001-.001 1.5 1.5 0 013.001.001zm20 0a1.5 1.5 0 11-3.001-.001 1.5 1.5 0 013.001.001zm20 0a1.5 1.5 0 11-3.001-.001 1.5 1.5 0 013.001.001zm20 0a1.5 1.5 0 11-3.001-.001 1.5 1.5 0 013.001.001zm20 0a1.5 1.5 0 11-3.001-.001 1.5 1.5 0 013.001.001zm20 0a1.5 1.5 0 11-3.001-.001 1.5 1.5 0 013.001.001zm20 0a1.5 1.5 0 11-3.001-.001 1.5 1.5 0 013.001.001zm20 0a1.5 1.5 0 11-3.001-.001 1.5 1.5 0 013.001.001zm-280 20a1.5 1.5 0 11-3.001-.001 1.5 1.5 0 013.001.001zm20 0a1.5 1.5 0 11-3.001-.001 1.5 1.5 0 013.001.001zm20 0a1.5 1.5 0 11-3.001-.001 1.5 1.5 0 013.001.001zm20 0a1.5 1.5 0 11-3.001-.001 1.5 1.5 0 013.001.001zm20 0a1.5 1.5 0 11-3.001-.001 1.5 1.5 0 013.001.001zm20 0a1.5 1.5 0 11-3.001-.001 1.5 1.5 0 013.001.001zm20 0a1.5 1.5 0 11-3.001-.001 1.5 1.5 0 013.001.001zm20 0a1.5 1.5 0 11-3.001-.001 1.5 1.5 0 013.001.001zm20 0a1.5 1.5 0 11-3.001-.001 1.5 1.5 0 013.001.001zm20 0a1.5 1.5 0 11-3.001-.001 1.5 1.5 0 013.001.001zm20 0a1.5 1.5 0 11-3.001-.001 1.5 1.5 0 013.001.001zm20 0a1.5 1.5 0 11-3.001-.001 1.5 1.5 0 013.001.001zm20 0a1.5 1.5 0 11-3.001-.001 1.5 1.5 0 013.001.001zm20 0a1.5 1.5 0 11-3.001-.001 1.5 1.5 0 013.001.001zm20 0a1.5 1.5 0 11-3.001-.001 1.5 1.5 0 013.001.001zm20-60a1.5 1.5 0 11-3.001-.001 1.5 1.5 0 013.001.001zm20 0a1.5 1.5 0 11-3.001-.001 1.5 1.5 0 013.001.001zm20 0a1.5 1.5 0 11-3.001-.001 1.5 1.5 0 013.001.001zm20 0a1.5 1.5 0 11-3.001-.001 1.5 1.5 0 013.001.001zm20 0a1.5 1.5 0 11-3 0 1.5 1.5 0 013 0zm-80 20a1.5 1.5 0 11-3.001-.001 1.5 1.5 0 013.001.001zm20 0a1.5 1.5 0 11-3.001-.001 1.5 1.5 0 013.001.001zm20 0a1.5 1.5 0 11-3.001-.001 1.5 1.5 0 013.001.001zm20 0a1.5 1.5 0 11-3.001-.001 1.5 1.5 0 013.001.001zm20 0a1.5 1.5 0 11-3 0 1.5 1.5 0 013 0zm-80 20a1.5 1.5 0 11-3.001-.001 1.5 1.5 0 013.001.001zm20 0a1.5 1.5 0 11-3.001-.001 1.5 1.5 0 013.001.001zm20 0a1.5 1.5 0 11-3.001-.001 1.5 1.5 0 013.001.001zm20 0a1.5 1.5 0 11-3.001-.001 1.5 1.5 0 013.001.001zm20 0a1.5 1.5 0 11-3 0 1.5 1.5 0 013 0zm-80 20a1.5 1.5 0 11-3.001-.001 1.5 1.5 0 013.001.001zm20 0a1.5 1.5 0 11-3.001-.001 1.5 1.5 0 013.001.001zm20 0a1.5 1.5 0 11-3.001-.001 1.5 1.5 0 013.001.001zm20 0a1.5 1.5 0 11-3.001-.001 1.5 1.5 0 013.001.001zm20 0a1.5 1.5 0 11-3 0 1.5 1.5 0 013 0zm20-80a1.5 1.5 0 11-3 0 1.5 1.5 0 013 0zm20 0a1.5 1.5 0 11-3 0 1.5 1.5 0 013 0zm20 0a1.5 1.5 0 11-3 0 1.5 1.5 0 013 0zm20 0a1.5 1.5 0 11-3 0 1.5 1.5 0 013 0zm20 0a1.5 1.5 0 11-3 0 1.5 1.5 0 013 0zm20 0a1.5 1.5 0 11-3 0 1.5 1.5 0 013 0zm20 0a1.5 1.5 0 11-3 0 1.5 1.5 0 013 0zm20 0a1.5 1.5 0 11-3 0 1.5 1.5 0 013 0zm20 0a1.5 1.5 0 11-3 0 1.5 1.5 0 013 0zm20 0a1.5 1.5 0 11-3.001-.001 1.5 1.5 0 013.001.001zm20 0a1.5 1.5 0 11-3.001-.001 1.5 1.5 0 013.001.001zm20 0a1.5 1.5 0 11-3.001-.001 1.5 1.5 0 013.001.001zm20 0a1.5 1.5 0 11-3.001-.001 1.5 1.5 0 013.001.001zm20 0a1.5 1.5 0 11-3.001-.001 1.5 1.5 0 013.001.001zm20 0a1.5 1.5 0 11-3.001-.001 1.5 1.5 0 013.001.001zm20 0a1.5 1.5 0 11-3.001-.001 1.5 1.5 0 013.001.001zm20 0a1.5 1.5 0 11-3.001-.001 1.5 1.5 0 013.001.001zm20 0a1.5 1.5 0 11-3.001-.001 1.5 1.5 0 013.001.001zm20 0a1.5 1.5 0 11-3.001-.001 1.5 1.5 0 013.001.001zm20 0a1.5 1.5 0 11-3.001-.001 1.5 1.5 0 013.001.001zm20 0a1.5 1.5 0 11-3.001-.001 1.5 1.5 0 013.001.001zm20 0a1.5 1.5 0 11-3.001-.001 1.5 1.5 0 013.001.001zm20 0a1.5 1.5 0 11-3.001-.001 1.5 1.5 0 013.001.001zm20 0a1.5 1.5 0 11-3.001-.001 1.5 1.5 0 013.001.001zm20 0a1.5 1.5 0 11-3.001-.001 1.5 1.5 0 013.001.001zm20 0a1.5 1.5 0 11-3.001-.001 1.5 1.5 0 013.001.001zm20 0a1.5 1.5 0 11-3.001-.001 1.5 1.5 0 013.001.001zm20 0a1.5 1.5 0 11-3.001-.001 1.5 1.5 0 013.001.001zm20 0a1.5 1.5 0 11-3.001-.001 1.5 1.5 0 013.001.001zm-560 20a1.5 1.5 0 11-3 0 1.5 1.5 0 013 0zm20 0a1.5 1.5 0 11-3 0 1.5 1.5 0 013 0zm20 0a1.5 1.5 0 11-3 0 1.5 1.5 0 013 0zm20 0a1.5 1.5 0 11-3 0 1.5 1.5 0 013 0zm20 0a1.5 1.5 0 11-3 0 1.5 1.5 0 013 0zm20 0a1.5 1.5 0 11-3 0 1.5 1.5 0 013 0zm20 0a1.5 1.5 0 11-3 0 1.5 1.5 0 013 0zm20 0a1.5 1.5 0 11-3 0 1.5 1.5 0 013 0zm20 0a1.5 1.5 0 11-3 0 1.5 1.5 0 013 0zm-160 20a1.5 1.5 0 11-3 0 1.5 1.5 0 013 0zm20 0a1.5 1.5 0 11-3 0 1.5 1.5 0 013 0zm20 0a1.5 1.5 0 11-3 0 1.5 1.5 0 013 0zm20 0a1.5 1.5 0 11-3 0 1.5 1.5 0 013 0zm20 0a1.5 1.5 0 11-3 0 1.5 1.5 0 013 0zm20 0a1.5 1.5 0 11-3 0 1.5 1.5 0 013 0zm20 0a1.5 1.5 0 11-3 0 1.5 1.5 0 013 0zm20 0a1.5 1.5 0 11-3 0 1.5 1.5 0 013 0zm20 0a1.5 1.5 0 11-3 0 1.5 1.5 0 013 0zm-160 20a1.5 1.5 0 11-3 0 1.5 1.5 0 013 0zm20 0a1.5 1.5 0 11-3 0 1.5 1.5 0 013 0zm20 0a1.5 1.5 0 11-3 0 1.5 1.5 0 013 0zm20 0a1.5 1.5 0 11-3 0 1.5 1.5 0 013 0zm20 0a1.5 1.5 0 11-3 0 1.5 1.5 0 013 0zm20 0a1.5 1.5 0 11-3 0 1.5 1.5 0 013 0zm20 0a1.5 1.5 0 11-3 0 1.5 1.5 0 013 0zm20 0a1.5 1.5 0 11-3 0 1.5 1.5 0 013 0zm20 0a1.5 1.5 0 11-3 0 1.5 1.5 0 013 0zm-160 20a1.5 1.5 0 11-3 0 1.5 1.5 0 013 0zm20 0a1.5 1.5 0 11-3 0 1.5 1.5 0 013 0zm20 0a1.5 1.5 0 11-3 0 1.5 1.5 0 013 0zm20 0a1.5 1.5 0 11-3 0 1.5 1.5 0 013 0zm20 0a1.5 1.5 0 11-3 0 1.5 1.5 0 013 0zm20 0a1.5 1.5 0 11-3 0 1.5 1.5 0 013 0zm20 0a1.5 1.5 0 11-3 0 1.5 1.5 0 013 0zm20 0a1.5 1.5 0 11-3 0 1.5 1.5 0 013 0zm20 0a1.5 1.5 0 11-3 0 1.5 1.5 0 013 0zm20-60a1.5 1.5 0 11-3.001-.001 1.5 1.5 0 013.001.001zm20 0a1.5 1.5 0 11-3.001-.001 1.5 1.5 0 013.001.001zm20 0a1.5 1.5 0 11-3.001-.001 1.5 1.5 0 013.001.001zm20 0a1.5 1.5 0 11-3.001-.001 1.5 1.5 0 013.001.001zm20 0a1.5 1.5 0 11-3.001-.001 1.5 1.5 0 013.001.001zm20 0a1.5 1.5 0 11-3.001-.001 1.5 1.5 0 013.001.001zm20 0a1.5 1.5 0 11-3.001-.001 1.5 1.5 0 013.001.001zm20 0a1.5 1.5 0 11-3.001-.001 1.5 1.5 0 013.001.001zm20 0a1.5 1.5 0 11-3.001-.001 1.5 1.5 0 013.001.001zm20 0a1.5 1.5 0 11-3.001-.001 1.5 1.5 0 013.001.001zm20 0a1.5 1.5 0 11-3.001-.001 1.5 1.5 0 013.001.001zm20 0a1.5 1.5 0 11-3.001-.001 1.5 1.5 0 013.001.001zm20 0a1.5 1.5 0 11-3.001-.001 1.5 1.5 0 013.001.001zm20 0a1.5 1.5 0 11-3.001-.001 1.5 1.5 0 013.001.001zm20 0a1.5 1.5 0 11-3.001-.001 1.5 1.5 0 013.001.001zm-280 20a1.5 1.5 0 11-3.001-.001 1.5 1.5 0 013.001.001zm20 0a1.5 1.5 0 11-3.001-.001 1.5 1.5 0 013.001.001zm20 0a1.5 1.5 0 11-3.001-.001 1.5 1.5 0 013.001.001zm20 0a1.5 1.5 0 11-3.001-.001 1.5 1.5 0 013.001.001zm20 0a1.5 1.5 0 11-3.001-.001 1.5 1.5 0 013.001.001zm20 0a1.5 1.5 0 11-3.001-.001 1.5 1.5 0 013.001.001zm20 0a1.5 1.5 0 11-3.001-.001 1.5 1.5 0 013.001.001zm20 0a1.5 1.5 0 11-3.001-.001 1.5 1.5 0 013.001.001zm20 0a1.5 1.5 0 11-3.001-.001 1.5 1.5 0 013.001.001zm20 0a1.5 1.5 0 11-3.001-.001 1.5 1.5 0 013.001.001zm20 0a1.5 1.5 0 11-3.001-.001 1.5 1.5 0 013.001.001zm20 0a1.5 1.5 0 11-3.001-.001 1.5 1.5 0 013.001.001zm20 0a1.5 1.5 0 11-3.001-.001 1.5 1.5 0 013.001.001zm20 0a1.5 1.5 0 11-3.001-.001 1.5 1.5 0 013.001.001zm20 0a1.5 1.5 0 11-3.001-.001 1.5 1.5 0 013.001.001zm-280 20a1.5 1.5 0 11-3.001-.001 1.5 1.5 0 013.001.001zm20 0a1.5 1.5 0 11-3.001-.001 1.5 1.5 0 013.001.001zm20 0a1.5 1.5 0 11-3.001-.001 1.5 1.5 0 013.001.001zm20 0a1.5 1.5 0 11-3.001-.001 1.5 1.5 0 013.001.001zm20 0a1.5 1.5 0 11-3.001-.001 1.5 1.5 0 013.001.001zm20 0a1.5 1.5 0 11-3.001-.001 1.5 1.5 0 013.001.001zm20 0a1.5 1.5 0 11-3.001-.001 1.5 1.5 0 013.001.001zm20 0a1.5 1.5 0 11-3.001-.001 1.5 1.5 0 013.001.001zm20 0a1.5 1.5 0 11-3.001-.001 1.5 1.5 0 013.001.001zm20 0a1.5 1.5 0 11-3.001-.001 1.5 1.5 0 013.001.001zm20 0a1.5 1.5 0 11-3.001-.001 1.5 1.5 0 013.001.001zm20 0a1.5 1.5 0 11-3.001-.001 1.5 1.5 0 013.001.001zm20 0a1.5 1.5 0 11-3.001-.001 1.5 1.5 0 013.001.001zm20 0a1.5 1.5 0 11-3.001-.001 1.5 1.5 0 013.001.001zm20 0a1.5 1.5 0 11-3.001-.001 1.5 1.5 0 013.001.001zm-280 20a1.5 1.5 0 11-3.001-.001 1.5 1.5 0 013.001.001zm20 0a1.5 1.5 0 11-3.001-.001 1.5 1.5 0 013.001.001zm20 0a1.5 1.5 0 11-3.001-.001 1.5 1.5 0 013.001.001zm20 0a1.5 1.5 0 11-3.001-.001 1.5 1.5 0 013.001.001zm20 0a1.5 1.5 0 11-3.001-.001 1.5 1.5 0 013.001.001zm20 0a1.5 1.5 0 11-3.001-.001 1.5 1.5 0 013.001.001zm20 0a1.5 1.5 0 11-3.001-.001 1.5 1.5 0 013.001.001zm20 0a1.5 1.5 0 11-3.001-.001 1.5 1.5 0 013.001.001zm20 0a1.5 1.5 0 11-3.001-.001 1.5 1.5 0 013.001.001zm20 0a1.5 1.5 0 11-3.001-.001 1.5 1.5 0 013.001.001zm20 0a1.5 1.5 0 11-3.001-.001 1.5 1.5 0 013.001.001zm20 0a1.5 1.5 0 11-3.001-.001 1.5 1.5 0 013.001.001zm20 0a1.5 1.5 0 11-3.001-.001 1.5 1.5 0 013.001.001zm20 0a1.5 1.5 0 11-3.001-.001 1.5 1.5 0 013.001.001zm20 0a1.5 1.5 0 11-3.001-.001 1.5 1.5 0 013.001.001zm20-60a1.5 1.5 0 11-3.001-.001 1.5 1.5 0 013.001.001zm20 0a1.5 1.5 0 11-3.001-.001 1.5 1.5 0 013.001.001zm20 0a1.5 1.5 0 11-3.001-.001 1.5 1.5 0 013.001.001zm20 0a1.5 1.5 0 11-3.001-.001 1.5 1.5 0 013.001.001zm20 0a1.5 1.5 0 11-3.001-.001 1.5 1.5 0 013.001.001zm-80 20a1.5 1.5 0 11-3.001-.001 1.5 1.5 0 013.001.001zm20 0a1.5 1.5 0 11-3.001-.001 1.5 1.5 0 013.001.001zm20 0a1.5 1.5 0 11-3.001-.001 1.5 1.5 0 013.001.001zm20 0a1.5 1.5 0 11-3.001-.001 1.5 1.5 0 013.001.001zm20 0a1.5 1.5 0 11-3.001-.001 1.5 1.5 0 013.001.001zm-80 20a1.5 1.5 0 11-3.001-.001 1.5 1.5 0 013.001.001zm20 0a1.5 1.5 0 11-3.001-.001 1.5 1.5 0 013.001.001zm20 0a1.5 1.5 0 11-3.001-.001 1.5 1.5 0 013.001.001zm20 0a1.5 1.5 0 11-3.001-.001 1.5 1.5 0 013.001.001zm20 0a1.5 1.5 0 11-3.001-.001 1.5 1.5 0 013.001.001zm-80 20a1.5 1.5 0 11-3.001-.001 1.5 1.5 0 013.001.001zm20 0a1.5 1.5 0 11-3.001-.001 1.5 1.5 0 013.001.001zm20 0a1.5 1.5 0 11-3.001-.001 1.5 1.5 0 013.001.001zm20 0a1.5 1.5 0 11-3.001-.001 1.5 1.5 0 013.001.001zm20 0a1.5 1.5 0 11-3.001-.001 1.5 1.5 0 013.001.001zm20-80a1.5 1.5 0 11-3.001-.001 1.5 1.5 0 013.001.001zm20 0a1.5 1.5 0 11-3.001-.001 1.5 1.5 0 013.001.001zm20 0a1.5 1.5 0 11-3.001-.001 1.5 1.5 0 013.001.001zm20 0a1.5 1.5 0 11-3.001-.001 1.5 1.5 0 013.001.001zm20 0a1.5 1.5 0 11-3.001-.001 1.5 1.5 0 013.001.001zm20 0a1.5 1.5 0 11-3.001-.001 1.5 1.5 0 013.001.001zm20 0a1.5 1.5 0 11-3.001-.001 1.5 1.5 0 013.001.001zm20 0a1.5 1.5 0 11-3.001-.001 1.5 1.5 0 013.001.001zm20 0a1.5 1.5 0 11-3.001-.001 1.5 1.5 0 013.001.001zm20 0a1.5 1.5 0 11-3.001-.001 1.5 1.5 0 013.001.001zm20 0a1.5 1.5 0 11-3.001-.001 1.5 1.5 0 013.001.001zm20 0a1.5 1.5 0 11-3.001-.001 1.5 1.5 0 013.001.001zm20 0a1.5 1.5 0 11-3.001-.001 1.5 1.5 0 013.001.001zm20 0a1.5 1.5 0 11-3.001-.001 1.5 1.5 0 013.001.001zm20 0a1.5 1.5 0 11-3.001-.001 1.5 1.5 0 013.001.001zm20 0a1.5 1.5 0 11-3.001-.001 1.5 1.5 0 013.001.001zm20 0a1.5 1.5 0 11-3.001-.001 1.5 1.5 0 013.001.001zm20 0a1.5 1.5 0 11-3.001-.001 1.5 1.5 0 013.001.001zm20 0a1.5 1.5 0 11-3.001-.001 1.5 1.5 0 013.001.001zm20 0a1.5 1.5 0 11-3.001-.001 1.5 1.5 0 013.001.001zm20 0a1.5 1.5 0 11-3.001-.001 1.5 1.5 0 013.001.001zm20 0a1.5 1.5 0 11-3.001-.001 1.5 1.5 0 013.001.001zm-420 20a1.5 1.5 0 11-3.001-.001 1.5 1.5 0 013.001.001zm20 0a1.5 1.5 0 11-3.001-.001 1.5 1.5 0 013.001.001zm20 0a1.5 1.5 0 11-3.001-.001 1.5 1.5 0 013.001.001zm20 0a1.5 1.5 0 11-3.001-.001 1.5 1.5 0 013.001.001zm20 0a1.5 1.5 0 11-3.001-.001 1.5 1.5 0 013.001.001zm20 0a1.5 1.5 0 11-3.001-.001 1.5 1.5 0 013.001.001zm20 0a1.5 1.5 0 11-3.001-.001 1.5 1.5 0 013.001.001zm20 0a1.5 1.5 0 11-3.001-.001 1.5 1.5 0 013.001.001zm20 0a1.5 1.5 0 11-3.001-.001 1.5 1.5 0 013.001.001zm-160 20a1.5 1.5 0 11-3.001-.001 1.5 1.5 0 013.001.001zm20 0a1.5 1.5 0 11-3.001-.001 1.5 1.5 0 013.001.001zm20 0a1.5 1.5 0 11-3.001-.001 1.5 1.5 0 013.001.001zm20 0a1.5 1.5 0 11-3.001-.001 1.5 1.5 0 013.001.001zm20 0a1.5 1.5 0 11-3.001-.001 1.5 1.5 0 013.001.001zm20 0a1.5 1.5 0 11-3.001-.001 1.5 1.5 0 013.001.001zm20 0a1.5 1.5 0 11-3.001-.001 1.5 1.5 0 013.001.001zm20 0a1.5 1.5 0 11-3.001-.001 1.5 1.5 0 013.001.001zm20 0a1.5 1.5 0 11-3.001-.001 1.5 1.5 0 013.001.001zm-160 20a1.5 1.5 0 11-3.001-.001 1.5 1.5 0 013.001.001zm20 0a1.5 1.5 0 11-3.001-.001 1.5 1.5 0 013.001.001zm20 0a1.5 1.5 0 11-3.001-.001 1.5 1.5 0 013.001.001zm20 0a1.5 1.5 0 11-3.001-.001 1.5 1.5 0 013.001.001zm20 0a1.5 1.5 0 11-3.001-.001 1.5 1.5 0 013.001.001zm20 0a1.5 1.5 0 11-3.001-.001 1.5 1.5 0 013.001.001zm20 0a1.5 1.5 0 11-3.001-.001 1.5 1.5 0 013.001.001zm20 0a1.5 1.5 0 11-3.001-.001 1.5 1.5 0 013.001.001zm20 0a1.5 1.5 0 11-3.001-.001 1.5 1.5 0 013.001.001zm-160 20a1.5 1.5 0 11-3.001-.001 1.5 1.5 0 013.001.001zm20 0a1.5 1.5 0 11-3.001-.001 1.5 1.5 0 013.001.001zm20 0a1.5 1.5 0 11-3.001-.001 1.5 1.5 0 013.001.001zm20 0a1.5 1.5 0 11-3.001-.001 1.5 1.5 0 013.001.001zm20 0a1.5 1.5 0 11-3.001-.001 1.5 1.5 0 013.001.001zm20 0a1.5 1.5 0 11-3.001-.001 1.5 1.5 0 013.001.001zm20 0a1.5 1.5 0 11-3.001-.001 1.5 1.5 0 013.001.001zm20 0a1.5 1.5 0 11-3.001-.001 1.5 1.5 0 013.001.001zm20 0a1.5 1.5 0 11-3.001-.001 1.5 1.5 0 013.001.001zm20-60a1.5 1.5 0 11-3.001-.001 1.5 1.5 0 013.001.001zm20 0a1.5 1.5 0 11-3.001-.001 1.5 1.5 0 013.001.001zm20 0a1.5 1.5 0 11-3.001-.001 1.5 1.5 0 013.001.001zm20 0a1.5 1.5 0 11-3.001-.001 1.5 1.5 0 013.001.001zm20 0a1.5 1.5 0 11-3.001-.001 1.5 1.5 0 013.001.001zm20 0a1.5 1.5 0 11-3.001-.001 1.5 1.5 0 013.001.001zm20 0a1.5 1.5 0 11-3.001-.001 1.5 1.5 0 013.001.001zm20 0a1.5 1.5 0 11-3.001-.001 1.5 1.5 0 013.001.001zm20 0a1.5 1.5 0 11-3.001-.001 1.5 1.5 0 013.001.001zm20 0a1.5 1.5 0 11-3.001-.001 1.5 1.5 0 013.001.001zm20 0a1.5 1.5 0 11-3.001-.001 1.5 1.5 0 013.001.001zm20 0a1.5 1.5 0 11-3.001-.001 1.5 1.5 0 013.001.001zm20 0a1.5 1.5 0 11-3.001-.001 1.5 1.5 0 013.001.001zm-240 20a1.5 1.5 0 11-3.001-.001 1.5 1.5 0 013.001.001zm20 0a1.5 1.5 0 11-3.001-.001 1.5 1.5 0 013.001.001zm20 0a1.5 1.5 0 11-3.001-.001 1.5 1.5 0 013.001.001zm20 0a1.5 1.5 0 11-3.001-.001 1.5 1.5 0 013.001.001zm20 0a1.5 1.5 0 11-3.001-.001 1.5 1.5 0 013.001.001zm20 0a1.5 1.5 0 11-3.001-.001 1.5 1.5 0 013.001.001zm20 0a1.5 1.5 0 11-3.001-.001 1.5 1.5 0 013.001.001zm20 0a1.5 1.5 0 11-3.001-.001 1.5 1.5 0 013.001.001zm20 0a1.5 1.5 0 11-3.001-.001 1.5 1.5 0 013.001.001zm20 0a1.5 1.5 0 11-3.001-.001 1.5 1.5 0 013.001.001zm20 0a1.5 1.5 0 11-3.001-.001 1.5 1.5 0 013.001.001zm20 0a1.5 1.5 0 11-3.001-.001 1.5 1.5 0 013.001.001zm20 0a1.5 1.5 0 11-3.001-.001 1.5 1.5 0 013.001.001zm-240 20a1.5 1.5 0 11-3.001-.001 1.5 1.5 0 013.001.001zm20 0a1.5 1.5 0 11-3.001-.001 1.5 1.5 0 013.001.001zm20 0a1.5 1.5 0 11-3.001-.001 1.5 1.5 0 013.001.001zm20 0a1.5 1.5 0 11-3.001-.001 1.5 1.5 0 013.001.001zm20 0a1.5 1.5 0 11-3.001-.001 1.5 1.5 0 013.001.001zm20 0a1.5 1.5 0 11-3.001-.001 1.5 1.5 0 013.001.001zm20 0a1.5 1.5 0 11-3.001-.001 1.5 1.5 0 013.001.001zm20 0a1.5 1.5 0 11-3.001-.001 1.5 1.5 0 013.001.001zm20 0a1.5 1.5 0 11-3.001-.001 1.5 1.5 0 013.001.001zm20 0a1.5 1.5 0 11-3.001-.001 1.5 1.5 0 013.001.001zm20 0a1.5 1.5 0 11-3.001-.001 1.5 1.5 0 013.001.001zm20 0a1.5 1.5 0 11-3.001-.001 1.5 1.5 0 013.001.001zm20 0a1.5 1.5 0 11-3.001-.001 1.5 1.5 0 013.001.001zm-240 20a1.5 1.5 0 11-3.001-.001 1.5 1.5 0 013.001.001zm20 0a1.5 1.5 0 11-3.001-.001 1.5 1.5 0 013.001.001zm20 0a1.5 1.5 0 11-3.001-.001 1.5 1.5 0 013.001.001zm20 0a1.5 1.5 0 11-3.001-.001 1.5 1.5 0 013.001.001zm20 0a1.5 1.5 0 11-3.001-.001 1.5 1.5 0 013.001.001zm20 0a1.5 1.5 0 11-3.001-.001 1.5 1.5 0 013.001.001zm20 0a1.5 1.5 0 11-3.001-.001 1.5 1.5 0 013.001.001zm20 0a1.5 1.5 0 11-3.001-.001 1.5 1.5 0 013.001.001zm20 0a1.5 1.5 0 11-3.001-.001 1.5 1.5 0 013.001.001zm20 0a1.5 1.5 0 11-3.001-.001 1.5 1.5 0 013.001.001zm20 0a1.5 1.5 0 11-3.001-.001 1.5 1.5 0 013.001.001zm20 0a1.5 1.5 0 11-3.001-.001 1.5 1.5 0 013.001.001zm20 0a1.5 1.5 0 11-3.001-.001 1.5 1.5 0 013.001.001z"/></g></svg>