<svg xmlns="http://www.w3.org/2000/svg" viewBox="0 0 500 198">
		               <title>Belmond logo</title>
		               <g fill-rule="nonzero" fill="#FFFFFF">
		                  <path d="M42.481 165.846c3.742-2.917 5.75-7.046 5.75-12.002v-.158c0-3.835-1.407-7.263-4.068-9.92-3.448-3.456-8.903-5.36-15.362-5.36H.228V195.719h29.689c12.712 0 21.253-6.716 21.253-16.713 0-5.861-3.044-10.387-8.689-13.16zm-14.123-3.172H8.854v-15.967h19.855c6.783 0 10.83 2.745 10.83 7.347v.15c0 7.86-8.558 8.47-11.18 8.47zm-19.504 8.318H28.8c5.104 0 13.67 1.02 13.67 7.865 0 5.402-4.634 8.54-12.393 8.54H8.854v-16.405zM89.126 187.396v-16.404h33.536v-8.318H89.126V146.71h35.8v-8.308H80.517v57.311H125.313v-8.318h-2.352zM164.395 187.396v-48.993h-8.632v57.311h45.149v-8.318h-2.356zM270.737 138.403h-1.253l-.7 1.034-19.188 28.25-19.195-28.25-.702-1.034h-7.302v57.311H230.892v-40.503l16.76 24.21 1.94 2.805 1.935-2.811 16.637-24.169V195.714h8.607v-57.311h-2.352zM417.242 138.403h-2.355v41.366l-32.16-40.475-.71-.89H374.847V195.713h8.485v-42.336l32.883 41.446.709.89H423.36v-57.311h-2.355zM469.42 138.403H448.409v57.311H469.42c17.587 0 30.352-12.051 30.352-28.652v-.144c0-16.52-12.765-28.515-30.352-28.515zm21.579 28.66c0 12.036-8.871 20.333-21.576 20.333h-12.382v-40.685h12.382c12.705 0 21.576 8.37 21.576 20.351zM327.495 137.373c-16.485 0-29.903 13.39-29.903 29.85 0 16.461 13.414 29.851 29.903 29.851 16.482 0 29.89-13.39 29.89-29.85 0-16.461-13.408-29.851-29.89-29.851zm0 50.878c-11.76 0-21.326-9.544-21.326-21.276 0-11.743 9.57-21.284 21.326-21.284 11.75 0 21.31 9.544 21.31 21.284 0 11.735-9.563 21.276-21.31 21.276z"></path>
		                  <g>
		                     <path d="M212.848 57.492c2.506 1.034 5.392 1.959 8.636 2.776a109.783 109.783 0 012.935-5.297 103.571 103.571 0 01-4.876-3.59c-2.612 2.094-4.849 4.137-6.695 6.11M229.407 65.564c-2.071-.33-4.062-.704-5.96-1.122-1.44 3.015-2.57 5.826-3.37 8.396 2.723-.151 5.728-.568 8.98-1.245.055-1.938.175-3.954.35-6.029M219.588 46.766a108.31 108.31 0 014.936-3.485 106.674 106.674 0 01-2.85-5.356c-3.248.75-6.155 1.63-8.672 2.612 1.83 2.026 4.037 4.115 6.586 6.229M229.716 32.783a100.92 100.92 0 01-.242-6.04c-3.237-.732-6.231-1.202-8.952-1.409.748 2.59 1.822 5.42 3.202 8.455 1.962-.389 3.97-.729 5.992-1.006M220.406 85.895c1.759 1.426 5.157 1.17 9.458-.677-.513-2.906-.794-6.222-.84-9.888l-.028.003v-.024c-3.573.697-6.877 1.1-9.868 1.206-.944 4.626-.505 7.921 1.278 9.38M231.008 53.545l-.751-1.09c-.31.48-.615.956-.93 1.447.477.316.968.628 1.456.94.063-.418.14-.845.225-1.297M227.434 56.994a112.983 112.983 0 00-2.296 4.104c1.485.309 3.026.596 4.63.856.12-1.055.253-2.131.411-3.229a99.58 99.58 0 01-2.745-1.731M240.859 3.307a3.54 3.54 0 00-.78.085c-2.247.487-4.128 3.235-5.374 7.785 2.625 1.433 5.388 3.288 8.267 5.517l.003-.018.025.021c1.703-3.256 3.45-6.095 5.213-8.468-2.675-3.18-5.259-4.922-7.354-4.922M245.865 19.046a105.978 105.978 0 014.525 4.035c1.51-1.378 3.04-2.7 4.584-3.95-1.45-2.99-2.948-5.627-4.483-7.87-1.551 2.201-3.11 4.816-4.626 7.785M252.822 8.274c1.738 2.419 3.434 5.283 5.056 8.55l.024-.018.01.028c2.929-2.19 5.74-3.985 8.373-5.36-1.155-4.574-2.99-7.357-5.23-7.886-2.254-.543-5.136 1.153-8.233 4.686M267.026 15.19c-2.384 1.315-4.911 2.99-7.555 5.01a105.517 105.517 0 012.31 5.594 103.57 103.57 0 015.849-1.567c-.018-3.34-.221-6.362-.604-9.037M230.355 39.625a150.098 150.098 0 01-.344-3.228c-1.573.22-3.124.473-4.666.76.706 1.389 1.45 2.777 2.226 4.154a117.14 117.14 0 012.784-1.679v-.007zM230.885 43.53c-.491.302-.986.607-1.481.908.298.498.603.992.916 1.49.256-.368.516-.73.769-1.083-.067-.446-.137-.884-.204-1.315M222.516 49.1a96.205 96.205 0 003.798 2.776c.587-.929 1.176-1.826 1.77-2.702a169.744 169.744 0 01-1.724-2.766c-1.323.89-2.612 1.798-3.844 2.692M231.398 9.557c.937-3.15 2.12-5.314 3.373-6.8a49.274 49.274 0 00-10.83 5.069c2.163-.028 4.659.54 7.457 1.731M221.087 12.295c-1.804 1.413-2.31 4.704-1.446 9.355 2.99.158 6.284.62 9.85 1.388v-.024l.025.01c.116-3.687.463-7 1.022-9.888-4.262-1.917-7.653-2.236-9.45-.841M260.198 95.348c2.24-.487 4.118-3.232 5.364-7.799-2.615-1.43-5.378-3.27-8.264-5.507l-.007.025-.028-.025c-1.688 3.243-3.433 6.075-5.206 8.455 3.023 3.603 5.887 5.342 8.141 4.851M292.997 59.546c1.836 2.632 2.798 4.861 3.195 6.737a48.804 48.804 0 002.7-11.308c-1.201 1.497-3.069 3.053-5.895 4.57M293.173 39.98c2.798 1.57 4.637 3.175 5.82 4.693a51.971 51.971 0 00-.804-5.261 48.425 48.425 0 00-1.695-6.124c-.429 1.872-1.433 4.087-3.321 6.691M292.418 70.18c1.014-2.057.039-5.24-2.749-9.053-2.724 1.146-5.908 2.159-9.464 3.021l.017.028-.035.007c1.485 3.351 2.609 6.47 3.353 9.324 4.728-.102 7.867-1.276 8.878-3.326M215.958 21.63c-.533-3.26-.403-5.732.081-7.61a48.742 48.742 0 00-7.52 9.243c1.745-.862 4.136-1.49 7.44-1.634M249.733 93.35c-2 2.209-3.991 3.754-5.919 4.638a48.87 48.87 0 0011.722.094c-1.91-.922-3.844-2.488-5.803-4.732M207.094 58.753c-2.882-1.612-4.732-3.256-5.901-4.816.165 1.78.421 3.558.793 5.35a49.581 49.581 0 001.763 6.288c.414-1.904 1.41-4.158 3.345-6.822M250.548 5.383c2.032-2.226 4.033-3.772 5.985-4.662a49.089 49.089 0 00-11.88-.113c1.938.919 3.911 2.503 5.895 4.775M268.87 89.169c-.914 3.08-2.065 5.222-3.287 6.709a48.793 48.793 0 0010.585-4.957c-2.128-.003-4.571-.592-7.299-1.752M247.451 90.462c-1.737-2.415-3.43-5.286-5.058-8.56l-.025.018-.014-.021c-2.928 2.19-5.73 3.982-8.366 5.349 1.155 4.588 2.991 7.375 5.224 7.907 2.233.533 5.157-1.156 8.24-4.693M209.411 55.89c1.962-2.212 4.385-4.501 7.246-6.832l-.032-.021.014-.014c-2.77-2.349-5.157-4.67-7.102-6.944-4.209 2.149-6.522 4.557-6.54 6.853-.024 2.296 2.24 4.739 6.414 6.958M267.556 27.967c-1.502.371-3.008.785-4.539 1.234.358 1.013.699 2.047 1.029 3.08 1.046.113 2.117.232 3.222.376.137-1.602.229-3.172.288-4.69M207.28 39.177c-1.896-2.717-2.843-5.01-3.226-6.913a48.771 48.771 0 00-2.777 11.63c1.194-1.538 3.082-3.147 6.003-4.717M216.285 72.894c.804-2.85 1.99-5.963 3.552-9.29l-.024-.006.007-.021c-3.556-.922-6.712-1.991-9.422-3.187-2.865 3.758-3.9 6.923-2.921 9.002.98 2.072 4.083 3.298 8.808 3.502M254.402 79.69a109.736 109.736 0 01-4.518-4.048 103.093 103.093 0 01-4.588 3.957c1.453 2.994 2.956 5.626 4.486 7.87 1.566-2.212 3.114-4.82 4.62-7.779M230.653 88.811c-2.787 1.129-5.269 1.658-7.41 1.609a49.47 49.47 0 0010.626 5.23c-1.211-1.518-2.341-3.695-3.216-6.839M215.442 76.469c-3.296-.207-5.676-.887-7.41-1.78a48.917 48.917 0 007.35 9.358c-.445-1.889-.533-4.357.06-7.578M284.32 77.103c.508 3.166.41 5.591-.05 7.453a49.036 49.036 0 007.34-9.002c-1.74.817-4.093 1.41-7.29 1.55M207.866 28.545c-1.018 2.058-.038 5.244 2.746 9.058 2.724-1.146 5.894-2.156 9.464-3.015l-.017-.038.031-.007c-1.481-3.344-2.612-6.467-3.36-9.317-4.714.098-7.856 1.269-8.864 3.32M280.7 51.957a107.423 107.423 0 01-4.957 3.495 99.961 99.961 0 012.854 5.352c3.244-.754 6.154-1.626 8.667-2.615-1.825-2.019-4.02-4.108-6.564-6.232M290.733 56.65c4.213-2.148 6.519-4.55 6.536-6.838.029-2.293-2.24-4.743-6.413-6.972-1.98 2.232-4.399 4.521-7.221 6.82l.02.015-.02.02c2.78 2.36 5.16 4.687 7.098 6.955M270.561 65.946c.14 2.072.218 4.09.235 6.036 3.265.73 6.26 1.203 8.96 1.406-.759-2.58-1.823-5.412-3.206-8.44-1.966.385-3.97.721-5.989.998M269.617 9.915c2.773-1.118 5.238-1.648 7.376-1.606a49.285 49.285 0 00-10.599-5.236c1.218 1.514 2.36 3.69 3.223 6.842M233.788 37.67c.386-.218.776-.425 1.159-.632.123-.417.253-.837.386-1.275-.58.056-1.159.115-1.717.182.05.564.106 1.136.172 1.724M283.996 25.843c-.807 2.846-2.004 5.952-3.553 9.278l.022.004-.015.028c3.553.925 6.71 1.994 9.423 3.186 2.86-3.758 3.896-6.926 2.92-8.998-.972-2.079-4.072-3.306-8.797-3.498M284.835 22.26c3.233.207 5.592.86 7.306 1.725a48.422 48.422 0 00-7.24-9.226c.443 1.875.51 4.319-.066 7.501M279.187 86.434c1.808-1.412 2.306-4.707 1.446-9.359-2.963-.15-6.256-.617-9.854-1.388v.032l-.021-.004c-.109 3.656-.453 6.969-1.025 9.882 4.265 1.917 7.66 2.236 9.454.837M279.868 12.842c-1.76-1.427-5.15-1.178-9.444.662.502 2.92.78 6.233.825 9.896l.021-.007v.038c3.581-.708 6.892-1.111 9.876-1.213.947-4.627.498-7.929-1.278-9.376M287.422 41.23c-2.506-1.03-5.388-1.952-8.632-2.758a105.1 105.1 0 01-2.931 5.283 106.885 106.885 0 014.886 3.585c2.584-2.068 4.817-4.111 6.677-6.11M269.919 59.097l-.01.014c.143 1.125.252 2.201.354 3.225 1.562-.217 3.131-.477 4.655-.76a92.88 92.88 0 00-2.23-4.155 101.7 101.7 0 01-2.77 1.676M273.966 46.85c-.582.911-1.176 1.822-1.78 2.716.57.887 1.138 1.798 1.724 2.755a111.266 111.266 0 003.858-2.702 103.467 103.467 0 00-3.802-2.77M270.098 39.99v.007c.923.571 1.843 1.153 2.742 1.735.818-1.392 1.58-2.762 2.292-4.098-1.492-.308-3.04-.592-4.634-.851a90.852 90.852 0 01-.4 3.207zM269.266 45.195c.25.372.509.73.755 1.087.305-.48.628-.964.933-1.451-.48-.316-.965-.631-1.456-.943-.081.452-.158.88-.232 1.307M233.36 62.476c.562.074 1.14.14 1.717.203-.12-.424-.246-.844-.358-1.276-.408-.227-.79-.445-1.155-.655a62.294 62.294 0 00-.204 1.728M269.389 55.196c.48-.302.98-.603 1.467-.905-.305-.501-.597-.992-.902-1.475-.26.371-.52.729-.769 1.086.06.428.13.866.204 1.294M270.863 33.176c2.057.33 4.051.7 5.961 1.114 1.443-3.01 2.57-5.825 3.377-8.402-2.724.158-5.736.572-8.99 1.245a94.351 94.351 0 01-.348 6.043M247.286 73.118c-.758-.76-1.516-1.542-2.26-2.331-1.071.382-2.09.733-3.065 1.059a97.17 97.17 0 001.773 4.357 107.057 107.057 0 003.552-3.085M266.952 66.398c-1.053.12-2.127.225-3.226.316l-.007.014a105.59 105.59 0 01-1.081 3.035c1.538.48 3.04.926 4.522 1.325a95.084 95.084 0 00-.208-4.69M241.476 66.893c-.442-.021-.884-.056-1.323-.088.186.547.372 1.094.555 1.637.54-.179 1.084-.365 1.639-.557-.284-.32-.58-.656-.87-.992M233.258 83.54c2.373-1.312 4.897-2.987 7.544-5.006a100.042 100.042 0 01-2.31-5.598 106.866 106.866 0 01-5.852 1.574c.018 3.344.218 6.358.618 9.03M267.16 74.832a104.723 104.723 0 01-5.824-1.686 102.775 102.775 0 01-2.416 5.56c2.602 2.057 5.09 3.782 7.457 5.142.446-2.668.705-5.69.783-9.016M232.998 66.1c-.13 1.592-.228 3.159-.287 4.666a105.88 105.88 0 004.542-1.237 95.82 95.82 0 01-1.028-3.078 126.748 126.748 0 01-3.216-.365l-.01.014zM251.18 69.42c-.404-.165-.815-.34-1.236-.519-.393.165-.808.33-1.232.498.403.414.814.83 1.225 1.244.407-.4.825-.802 1.243-1.223M259.784 66.987a78.9 78.9 0 01-1.317.063c-.298.33-.593.656-.895.975.555.2 1.096.392 1.636.585.19-.533.386-1.076.576-1.623M257.892 71.99c-.983-.351-1.994-.72-3.016-1.105l-.01.014-.025-.007c-.79.8-1.555 1.553-2.303 2.272a104.03 104.03 0 003.493 3.154c.646-1.416 1.27-2.86 1.86-4.329M242.379 26.747c.976.337 1.987.708 3.04 1.1l.01-.017.018.007c.821-.827 1.573-1.574 2.292-2.26a95.92 95.92 0 00-3.5-3.159 114.693 114.693 0 00-1.86 4.329M252.991 25.618c.751.764 1.502 1.532 2.247 2.317l.014.007c1.06-.375 2.078-.725 3.068-1.055-.58-1.49-1.169-2.951-1.776-4.353a96.724 96.724 0 00-3.553 3.084M257.913 30.848c.295.326.583.652.88.989.454.031.893.06 1.32.094-.185-.55-.364-1.097-.557-1.644-.527.183-1.078.365-1.643.561M266.917 36.264c-.582-.074-1.162-.147-1.72-.21.123.424.242.848.365 1.265.372.214.755.428 1.148.659.07-.571.137-1.146.207-1.714M233.114 23.897c1.878.488 3.823 1.048 5.814 1.683.765-1.879 1.569-3.737 2.422-5.546-2.598-2.064-5.09-3.789-7.453-5.156-.439 2.654-.705 5.672-.783 9.02M249.094 29.306c.408.172.822.34 1.229.519.4-.165.81-.326 1.236-.495-.404-.417-.815-.827-1.222-1.237-.4.396-.807.792-1.243 1.213M233.321 32.33c1.054-.118 2.131-.227 3.223-.318l.01-.014c.362-1.041.713-2.05 1.075-3.032a100.385 100.385 0 00-4.511-1.325c.028 1.518.095 3.088.203 4.69M266.493 61.056c-.4.221-.783.435-1.17.638-.112.414-.242.842-.379 1.28.587-.06 1.148-.12 1.717-.186-.053-.554-.105-1.136-.168-1.732M241.07 30.123a72.12 72.12 0 011.635.581c-.295.32-.59.638-.885.964-.449.021-.891.042-1.337.074.19-.547.386-1.09.586-1.62"></path>
		                  </g>
		               </g>
		            </svg>