<svg fill="none" height="19" viewBox="0 0 19 19" width="19" xmlns="http://www.w3.org/2000/svg" xmlns:xlink="http://www.w3.org/1999/xlink"><linearGradient id="a" gradientUnits="userSpaceOnUse" x1="3.37415" x2="14.7337" y1="7.76049" y2="7.76049"><stop offset="0" stop-color="#4cc6fa"/><stop offset="1" stop-color="#8834fe"/></linearGradient><linearGradient id="b" gradientUnits="userSpaceOnUse" x1="16.4207" x2="1.68706" y1="17.0956" y2="17.0956"><stop offset="0" stop-color="#ffc406"/><stop offset="1" stop-color="#ff0ae7"/></linearGradient><g clip-rule="evenodd" fill-rule="evenodd"><path d="m6.74827 2.24942v7.4793c0 1.27338 1.03227 2.30568 2.30565 2.30568s2.30568-1.0323 2.30568-2.30568v-7.4793l3.3741-2.24942v9.72872c0 3.13688-2.5429 5.67978-5.67978 5.67978-3.13685 0-5.67977-2.5429-5.67977-5.67978v-9.72872z" fill="url(#a)"/><path d="m3.37412 0v9.72872c0 3.13688 2.54293 5.67978 5.67978 5.67978 3.1369 0 5.6798-2.5429 5.6798-5.67978v-9.72872l3.3741 2.24942v7.4793c0 5.00038-4.0536 9.05388-9.0539 9.05388-5.00033 0-9.0539-4.0535-9.0539-9.05388v-7.4793z" fill="url(#b)"/></g></svg>