<svg width="22" height="22" viewBox="0 0 22 22" fill="none" xmlns="http://www.w3.org/2000/svg">
<path d="M21.6562 10.75C21.6562 4.90625 16.8438 0.09375 11 0.09375C5.11328 0.09375 0.34375 4.90625 0.34375 10.75C0.34375 16.6367 5.11328 21.4062 11 21.4062C16.8438 21.4062 21.6562 16.6367 21.6562 10.75ZM9.75391 16.4219C9.49609 16.6797 9.02344 16.6797 8.76562 16.4219L4.29688 11.9531C4.03906 11.6953 4.03906 11.2227 4.29688 10.9648L5.28516 10.0195C5.54297 9.71875 5.97266 9.71875 6.23047 10.0195L9.28125 13.0273L15.7266 6.58203C15.9844 6.28125 16.4141 6.28125 16.6719 6.58203L17.6602 7.52734C17.918 7.78516 17.918 8.25781 17.6602 8.51562L9.75391 16.4219Z" fill="#00B888"/>
</svg>
