<svg width="19" height="17" viewBox="0 0 19 17" fill="none" xmlns="http://www.w3.org/2000/svg">
<path d="M5.1582 0.710938C5.08398 0.636719 4.93555 0.5625 4.86133 0.5625C4.75 0.5625 4.60156 0.636719 4.52734 0.710938L2.15234 3.04883L1.33594 2.23242C1.26172 2.1582 1.11328 2.12109 1.00195 2.12109C0.890625 2.12109 0.779297 2.1582 0.705078 2.23242L0.111328 2.82617C0.0371094 2.90039 0 3.04883 0 3.12305C0 3.23438 0.0371094 3.38281 0.111328 3.45703L1.89258 5.20117C1.9668 5.27539 2.11523 5.34961 2.18945 5.34961C2.30078 5.34961 2.44922 5.27539 2.52344 5.20117L3.11719 4.64453L5.78906 1.93555C5.86328 1.89844 5.9375 1.75 5.9375 1.63867C5.9375 1.52734 5.86328 1.37891 5.78906 1.30469L5.1582 0.710938ZM5.1582 6.61133C5.08398 6.53711 4.93555 6.5 4.86133 6.5C4.75 6.5 4.60156 6.53711 4.52734 6.61133L2.15234 8.98633L1.33594 8.16992C1.26172 8.0957 1.11328 8.02148 1.00195 8.02148C0.890625 8.02148 0.779297 8.0957 0.705078 8.16992L0.111328 8.72656C0.0371094 8.80078 0 8.94922 0 9.06055C0 9.17188 0.0371094 9.32031 0.111328 9.35742L1.89258 11.1387C1.9668 11.2129 2.07812 11.2871 2.18945 11.2871C2.30078 11.2871 2.44922 11.2129 2.52344 11.1387L3.11719 10.5449L5.78906 7.87305C5.86328 7.79883 5.9375 7.65039 5.9375 7.57617C5.9375 7.46484 5.86328 7.31641 5.78906 7.24219L5.1582 6.61133ZM2.375 13.0312C1.37305 13.0312 0.556641 13.8477 0.556641 14.8125C0.556641 15.8145 1.37305 16.5938 2.375 16.5938C3.33984 16.5938 4.15625 15.8145 4.15625 14.8125C4.15625 13.8477 3.33984 13.0312 2.375 13.0312ZM18.4062 13.625H7.71875C7.38477 13.625 7.125 13.9219 7.125 14.2188V15.4062C7.125 15.7402 7.38477 16 7.71875 16H18.4062C18.7031 16 19 15.7402 19 15.4062V14.2188C19 13.9219 18.7031 13.625 18.4062 13.625ZM18.4062 1.75H7.71875C7.38477 1.75 7.125 2.04688 7.125 2.34375V3.53125C7.125 3.86523 7.38477 4.125 7.71875 4.125H18.4062C18.7031 4.125 19 3.86523 19 3.53125V2.34375C19 2.04688 18.7031 1.75 18.4062 1.75ZM18.4062 7.6875H7.71875C7.38477 7.6875 7.125 7.98438 7.125 8.28125V9.46875C7.125 9.80273 7.38477 10.0625 7.71875 10.0625H18.4062C18.7031 10.0625 19 9.80273 19 9.46875V8.28125C19 7.98438 18.7031 7.6875 18.4062 7.6875Z" fill="#ef4136"/>
</svg>
