<?xml version="1.0" encoding="UTF-8"?>
<svg width="69px" height="84px" viewBox="0 0 69 84" version="1.1" xmlns="http://www.w3.org/2000/svg" xmlns:xlink="http://www.w3.org/1999/xlink">
    <!-- Generator: Sketch 48.2 (47327) - http://www.bohemiancoding.com/sketch -->
    <title>scoro</title>
    <desc>Created with Sketch.</desc>
    <defs></defs>
    <g id="Page-1" stroke="none" stroke-width="1" fill="none" fill-rule="evenodd">
        <g id="scoro" transform="translate(-3.000000, -3.000000)" fill-rule="nonzero">
            <path d="M7.5,72 L4.125,77.25 C3.375,78.375 3.75,79.5 4.5,80.25 C4.875,80.25 4.875,80.625 5.25,80.625 C6.75,81.75 8.25,82.5 10.125,83.25 C12,84 13.875,84.75 16.125,85.125 C18.375,85.875 20.625,86.25 22.875,86.25 C29.25,86.625 34.5,85.125 38.25,82.125 C42,79.125 44.25,75 44.25,69.75 C44.25,66.375 43.875,63.375 42.375,61.125 C41.25,58.875 39.375,57 37.5,55.875 C36,54.75 33.75,53.625 31.5,52.5 C29.25,51.75 27,51 25.125,50.25 C23.25,49.5 21.375,48.75 20.25,48 C19.125,47.25 18.375,46.125 18.375,44.625 C18.375,42.75 19.125,41.625 20.25,40.5 C21.375,39.375 23.25,39 25.875,39 C28.5,39 30.375,39.375 31.875,40.125 C33,40.5 34.125,40.875 34.5,41.25 C34.875,41.625 35.25,41.625 35.625,42 C36.75,42.375 37.875,42 38.625,41.25 L42,35.625 C42.375,34.875 42.375,33.75 41.625,33 C41.25,32.25 40.5,31.5 39,30.75 C37.5,30 36,29.25 33.75,28.875 C31.5,28.125 29.25,27.75 26.25,27.75 C19.5,27.75 14.625,28.875 10.5,32.25 C6.75,35.25 4.5,39.75 4.5,44.625 L4.5,46.5 C4.5,48.75 5.25,51 6.375,52.5 C7.5,54.75 9.375,56.25 11.25,57.75 C12.375,58.5 13.875,59.25 15,59.625 C15.75,60 16.875,60.375 18,60.75 L24.75,63 C27,63.75 28.5,64.875 30,65.625 C31.5,66.75 31.875,68.25 31.875,69.75 C31.875,71.625 31.125,72.75 29.625,73.875 C28.125,75 26.25,75.375 23.625,75.375 C19.125,75.375 15.75,73.875 13.5,72.75 L10.5,71.25 C9.375,70.5 7.875,70.875 7.5,72 Z" id="Shape" fill="#515151"></path>
            <path d="M71.25,16.125 L71.25,39.75 C71.25,41.25 70.125,42.75 69,43.5 L60,48.375 C58.875,49.125 57.75,48.375 58.125,47.25 L58.125,25.875 C58.125,24.375 57.375,22.875 55.875,22.125 L37.5,11.25 C36.375,10.5 36.375,9.75 37.5,9 L46.125,4.125 C47.25,3.375 49.5,3.375 50.625,4.125 L71.25,16.125" id="Shape" fill="#B92025"></path>
            <path d="M71.25,39.75 L71.25,16.125 L57.75,24 C58.125,24.75 58.125,25.5 58.125,25.875 L58.125,47.25 C58.125,48.75 58.875,49.125 60,48.375 L69,43.5 C70.125,42.75 71.25,41.25 71.25,39.75" id="Shape" fill="#B92025"></path>
            <path d="M71.25,16.125 L51,4.5 C49.875,3.75 47.625,3.75 46.5,4.5 L37.875,9.375 C36.75,10.125 36.75,11.25 37.875,11.625 L56.25,22.5 C57,22.875 57.375,23.25 57.75,24 L71.25,16.125 Z" id="Shape" fill="#D82735"></path>
        </g>
    </g>
</svg>