<svg width="24" height="30" viewBox="0 0 24 30" fill="none" xmlns="http://www.w3.org/2000/svg">
<path fill-rule="evenodd" clip-rule="evenodd" d="M0 4C0 1.79086 1.79086 0 4 0H14.3431C15.404 0 16.4214 0.421427 17.1716 1.17157L22.8284 6.82843C23.5786 7.57857 24 8.59599 24 9.65685V26C24 28.2091 22.2091 30 20 30H4C1.79086 30 0 28.2091 0 26V4ZM4 4H14L20 10V26H4V4ZM8.5 11C9.88071 11 11 9.88071 11 8.5C11 7.11929 9.88071 6 8.5 6C7.11929 6 6 7.11929 6 8.5C6 9.88071 7.11929 11 8.5 11ZM6 16C6 14.8954 6.89543 14 8 14H16C17.1046 14 18 14.8954 18 16C18 17.1046 17.1046 18 16 18H8C6.89543 18 6 17.1046 6 16ZM8 20C6.89543 20 6 20.8954 6 22C6 23.1046 6.89543 24 8 24H13C14.1046 24 15 23.1046 15 22C15 20.8954 14.1046 20 13 20H8Z" fill="#5577FF"/>
</svg>
