<svg width="29" height="28" viewBox="0 0 29 28" fill="none" xmlns="http://www.w3.org/2000/svg">
<g clip-path="url(#clip0)">
<path d="M24.75 0H3.75C1.817 0 0.25 1.567 0.25 3.5V24.5C0.25 26.433 1.817 28 3.75 28H24.75C26.683 28 28.25 26.433 28.25 24.5V3.5C28.25 1.567 26.683 0 24.75 0Z" fill="#E0E4EC"/>
<path d="M22.9301 3.63965H17.7501C16.8222 3.63965 16.0701 4.39181 16.0701 5.31965V14.2096C16.0701 15.1375 16.8222 15.8896 17.7501 15.8896H22.9301C23.8579 15.8896 24.6101 15.1375 24.6101 14.2096V5.31965C24.6101 4.39181 23.8579 3.63965 22.9301 3.63965Z" fill="white"/>
<path d="M10.7499 3.63965H5.56989C4.64205 3.63965 3.88989 4.39181 3.88989 5.31965V21.2096C3.88989 22.1375 4.64205 22.8896 5.56989 22.8896H10.7499C11.6777 22.8896 12.4299 22.1375 12.4299 21.2096V5.31965C12.4299 4.39181 11.6777 3.63965 10.7499 3.63965Z" fill="white"/>
</g>
<defs>
<clipPath id="clip0">
<rect x="0.25" width="28" height="28" fill="white"/>
</clipPath>
</defs>
</svg>
