<svg width="51" height="65" viewBox="0 0 51 65" fill="none" xmlns="http://www.w3.org/2000/svg">
<path d="M9.75235 26.547C9.75235 26.547 12.3903 22.5247 15.9875 22.5247C21.4232 22.3639 25.8997 32.6609 26.6991 34.1089C32.7743 19.9505 42.8464 7.96411 51 0H0.639498C0.639498 4.90718 0.639498 54.3812 0.639498 58.4839C0.639498 60.7364 0.399687 62.828 0 65C6.55486 63.8738 13.0298 62.2648 19.2649 60.0124C34.5329 54.3007 40.5282 48.2673 40.5282 48.2673L40.9279 47.8651L41.1677 48.3478C42.127 50.7611 43.5658 52.9332 45.0047 55.1052C47.0831 57.7599 48.2022 58.0012 49.0016 57.7599C49.8809 57.5186 50.3605 55.9901 50.6003 53.6572C50.8401 51.2438 51 46.0148 51 39.4988V4.50495C36.3715 23.4097 25.4201 51.7265 25.4201 51.7265C25.4201 51.7265 18.1458 26.4666 9.75235 26.547Z" fill="#003059"/>
</svg>
