<svg width="41" height="35" viewBox="0 0 41 35" fill="none" xmlns="http://www.w3.org/2000/svg">
<path d="M40.1638 0.486666V6.21619C37.9556 6.81302 36.2695 7.64857 35.1057 8.72286C33.9717 9.79714 33.0616 11.1698 32.3752 12.841C31.6889 14.4822 31.3457 16.4965 31.3457 18.8838C34.1508 18.8838 36.2248 19.6895 37.5676 21.301C38.9403 22.9124 39.6267 24.6283 39.6267 26.4486C39.6267 28.5673 38.8806 30.3578 37.3886 31.82C35.8965 33.2822 34.1508 34.0133 32.1514 34.0133C29.5552 34.0133 27.3321 32.9092 25.4819 30.701C23.6317 28.4629 22.7067 25.419 22.7067 21.5695C22.7067 18.1676 23.4378 14.9895 24.9 12.0352C26.3622 9.05111 28.3616 6.5146 30.8981 4.42572C33.4346 2.30699 36.5232 0.993969 40.1638 0.486666ZM17.6933 0.486666V6.21619C15.4851 6.81302 13.799 7.64857 12.6352 8.72286C11.5013 9.79714 10.5911 11.1698 9.90476 12.841C9.21841 14.4822 8.87524 16.4965 8.87524 18.8838C11.74 18.8838 13.8438 19.6895 15.1867 21.301C16.5295 22.9124 17.201 24.6283 17.201 26.4486C17.201 28.5673 16.44 30.3578 14.9181 31.82C13.426 33.2822 11.6952 34.0133 9.72571 34.0133C7.15936 34.0133 4.93619 32.9092 3.05619 30.701C1.20603 28.4629 0.280953 25.419 0.280953 21.5695C0.280953 18.1676 1.01206 14.9895 2.47429 12.0352C3.93651 9.05111 5.92095 6.5146 8.42762 4.42572C10.9641 2.30699 14.0527 0.993969 17.6933 0.486666Z" fill="#FD71AF"/>
</svg>
