<svg xmlns="http://www.w3.org/2000/svg" width="41" height="41"><path fill-rule="evenodd" fill="#CECAD5" d="M10.341 17.88L4.474 7.718C8.231 3.014 14.013 0 20.5 0c7.505 0 14.066 4.034 17.639 10.051H21.411c-.3-.027-.604-.04-.911-.04-4.88 0-8.992 3.349-10.159 7.869zm17.498-4.866h11.75A20.434 20.434 0 0 1 41 20.501C41 31.746 31.947 40.875 20.733 41l8.384-14.522a10.435 10.435 0 0 0 1.873-5.977c0-2.929-1.207-5.582-3.151-7.487zm-14.786 7.487c0-4.106 3.341-7.447 7.447-7.447s7.447 3.341 7.447 7.447c0 4.107-3.341 7.448-7.447 7.448s-7.447-3.341-7.447-7.448zM23.31 30.61l-5.869 10.165C7.57 39.299 0 30.784 0 20.501c0-3.652.956-7.081 2.63-10.051L11 24.947c1.676 3.568 5.304 6.045 9.5 6.045.973 0 1.915-.133 2.81-.382z"/></svg>