<svg width="76" height="77" viewBox="0 0 76 77" fill="none" xmlns="http://www.w3.org/2000/svg">
<path d="M54 73.0432H59.5375L54 63.6294V73.0432Z" fill="#3C9765"/>
<rect x="3" y="15.241" width="7.75254" height="6.63403" fill="#3C9765"/>
<path d="M32.3483 15.2409L59.4821 41.8209L59.5261 73.0431L2.99925 15.2409L32.3483 15.2409Z" fill="#C4C4C4"/>
<path d="M32.3483 15.2409L59.4821 41.8209L59.5261 73.0431L2.99925 15.2409L32.3483 15.2409Z" fill="url(#paint0_linear)"/>
<path d="M22.7009 24.0361C22.2479 23.5728 22.0191 23.0384 22.0145 22.4331C22.0128 21.8249 22.2508 21.2873 22.7284 20.8203C23.2088 20.3504 23.7587 20.1232 24.378 20.1386C25.003 20.1541 25.5378 20.3892 25.9824 20.8439C26.2565 21.1241 26.4524 21.4417 26.57 21.7966C26.6906 22.1487 26.7235 22.4942 26.6688 22.833L25.7438 22.8311C25.7978 22.3084 25.6625 21.8812 25.3381 21.5495C25.0808 21.2864 24.7712 21.1528 24.4091 21.1488C24.0471 21.1447 23.7274 21.2783 23.45 21.5496C23.1783 21.8153 23.0405 22.1263 23.0365 22.4827C23.0325 22.839 23.1606 23.1502 23.4207 23.4162C23.7563 23.7593 24.1888 23.9098 24.7182 23.8677L24.7377 24.7801C24.3892 24.83 24.0319 24.7906 23.6656 24.6621C23.3022 24.5307 22.9806 24.3221 22.7009 24.0361ZM25.8747 24.0291C26.3352 23.5788 26.8793 23.3572 27.5072 23.3642C28.1407 23.3713 28.6854 23.6079 29.1413 24.0741C29.5971 24.5402 29.8201 25.0886 29.8102 25.7193C29.806 26.35 29.5751 26.8891 29.1175 27.3366C28.66 27.7841 28.1172 28.0043 27.4894 27.9973C26.8616 27.9846 26.3183 27.7438 25.8597 27.2748C25.3982 26.8029 25.171 26.2558 25.1779 25.6336C25.1849 25.0114 25.4171 24.4766 25.8747 24.0291ZM26.5631 26.5953C26.8176 26.8555 27.1202 26.9876 27.4709 26.9915C27.8273 26.9898 28.1357 26.8589 28.396 26.5988C28.665 26.3246 28.8014 26.0149 28.8052 25.6699C28.812 25.3164 28.6909 25.0124 28.442 24.7579C28.1875 24.4976 27.8849 24.3684 27.5341 24.3701C27.1777 24.3718 26.8665 24.5027 26.6005 24.7627C26.3374 25.02 26.2011 25.3268 26.1914 25.6831C26.1875 26.0338 26.3114 26.3379 26.5631 26.5953ZM28.6996 30.0758L28.0158 29.3766L31.1859 26.2765L31.6725 26.7741L31.1185 29.6573L34.005 29.1592L34.5 29.6654L31.3298 32.7655L30.6377 32.0577L32.315 30.4175L30.2406 30.7592L29.9889 30.5018L30.3769 28.4356L28.6996 30.0758ZM31.9855 33.436L35.1556 30.3359L35.852 31.048L32.6818 34.1481L31.9855 33.436ZM36.6721 35.5939L38.5253 33.7817L39.2049 34.4766L36.0347 37.5767L35.5355 37.0662L35.8572 33.7222L34.0211 35.5176L33.3374 34.8184L36.5075 31.7183L36.9773 32.1988L36.6721 35.5939ZM38.1011 39.7842C37.6285 39.3009 37.3913 38.7523 37.3897 38.1385C37.3937 37.5247 37.6317 36.9871 38.1036 36.5256C38.5812 36.0586 39.1324 35.8356 39.7573 35.8568C40.3822 35.8779 40.9281 36.1273 41.3952 36.6048C41.6385 36.8537 41.8234 37.1343 41.9501 37.4469C42.0796 37.7567 42.1427 38.0586 42.1394 38.3528L41.1799 38.4014C41.1735 37.9601 41.0165 37.5821 40.7089 37.2676C40.4376 36.9902 40.1224 36.8509 39.7632 36.8497C39.4068 36.8457 39.0928 36.9765 38.8211 37.2422C38.5523 37.5051 38.4116 37.8161 38.3991 38.1752C38.3866 38.5343 38.5174 38.854 38.7915 39.1342C38.9397 39.2858 39.1095 39.4051 39.3009 39.4921C39.4979 39.5791 39.6855 39.6251 39.8636 39.6299L40.2283 39.2733L39.4396 38.4669L40.0488 37.8712L41.4667 39.3211L40.1325 40.6257C39.318 40.6166 38.6409 40.3361 38.1011 39.7842ZM42.0176 43.8063C41.7715 43.5547 41.5908 43.2726 41.4755 42.9602C41.3658 42.6478 41.3326 42.3278 41.3759 42.0002L42.2596 41.8913C42.2115 42.4027 42.3524 42.8271 42.6824 43.1646C42.8027 43.2876 42.9263 43.3625 43.0533 43.3894C43.1832 43.4135 43.291 43.3835 43.3768 43.2996C43.494 43.185 43.5032 42.997 43.4043 42.7356L43.2304 42.3518C43.1255 42.1131 43.0513 41.9199 43.0077 41.7723C42.8608 41.2502 42.9618 40.8186 43.3107 40.4774C43.5853 40.2089 43.9147 40.0909 44.299 40.1235C44.6833 40.1561 45.0391 40.3397 45.3663 40.6743C45.7774 41.0947 45.9883 41.5906 45.9989 42.1621L45.1272 42.3264C45.1235 42.1509 45.0817 41.9709 45.0017 41.7861C44.9246 41.6042 44.8273 41.4532 44.7098 41.3331C44.5951 41.2158 44.4799 41.1467 44.3642 41.1256C44.2541 41.1046 44.159 41.1332 44.079 41.2115C43.9703 41.3178 43.9612 41.4945 44.0518 41.7416L44.2295 42.1721C44.3425 42.4364 44.4113 42.6069 44.4359 42.6835C44.6363 43.2317 44.5534 43.6848 44.1873 44.0427C43.8956 44.328 43.5492 44.4486 43.148 44.4045C42.7468 44.3661 42.37 44.1667 42.0176 43.8063ZM45.1168 43.7059C45.5772 43.2556 46.1213 43.034 46.7492 43.041C47.3827 43.0481 47.9274 43.2847 48.3833 43.7509C48.8392 44.217 49.0621 44.7654 49.0523 45.3961C49.0481 46.0268 48.8172 46.5659 48.3596 47.0134C47.902 47.4609 47.3593 47.6811 46.7314 47.6741C46.1036 47.6614 45.5604 47.4206 45.1017 46.9515C44.6403 46.4797 44.413 45.9326 44.42 45.3104C44.4269 44.6882 44.6592 44.1533 45.1168 43.7059ZM45.8051 46.272C46.0596 46.5323 46.3622 46.6644 46.7129 46.6683C47.0694 46.6666 47.3777 46.5357 47.638 46.2755C47.907 46.0013 48.0434 45.6917 48.0473 45.3467C48.054 44.9932 47.933 44.6892 47.6841 44.4346C47.4296 44.1744 47.1269 44.0451 46.7762 44.0469C46.4197 44.0486 46.1086 44.1794 45.8426 44.4395C45.5795 44.6968 45.4431 45.0036 45.4335 45.3599C45.4296 45.7106 45.5534 46.0147 45.8051 46.272ZM48.6645 47.3338C49.1249 46.8835 49.6691 46.6619 50.2969 46.6689C50.9305 46.676 51.4752 46.9126 51.931 47.3787C52.3869 47.8449 52.6099 48.3933 52.6 49.024C52.5958 49.6547 52.3649 50.1938 51.9073 50.6413C51.4497 51.0887 50.907 51.3089 50.2791 51.3019C49.6513 51.2893 49.1081 51.0484 48.6494 50.5794C48.188 50.1075 47.9607 49.5605 47.9677 48.9383C47.9746 48.3161 48.2069 47.7812 48.6645 47.3338ZM49.3529 49.8999C49.6074 50.1602 49.91 50.2922 50.2607 50.2962C50.6171 50.2945 50.9254 50.1636 51.1858 49.9034C51.4547 49.6292 51.5911 49.3196 51.595 48.9745C51.6017 48.621 51.4807 48.317 51.2318 48.0625C50.9773 47.8023 50.6746 47.673 50.3239 47.6747C49.9675 47.6764 49.6563 47.8073 49.3903 48.0674C49.1272 48.3247 48.9908 48.6315 48.9812 48.9878C48.9773 49.3385 49.1012 49.6425 49.3529 49.8999ZM54.1403 53.4568L55.9935 51.6445L56.6731 52.3395L53.5029 55.4396L53.0037 54.9291L53.3253 51.585L51.4893 53.3805L50.8055 52.6813L53.9757 49.5812L54.4455 50.0616L54.1403 53.4568Z" fill="white"/>
<defs>
<linearGradient id="paint0_linear" x1="66.2649" y1="60.7448" x2="8.99193" y2="2.40013" gradientUnits="userSpaceOnUse">
<stop stop-color="#5DDD93"/>
<stop offset="1" stop-color="#00B884"/>
</linearGradient>
</defs>
</svg>
