<svg fill="none" height="16" viewBox="0 0 16 16" width="16" xmlns="http://www.w3.org/2000/svg"><path clip-rule="evenodd" d="m10.1214.878192c-1.17162-1.171573-3.07111-1.171574-4.24269-.000001l-5.001985 4.001989c-.585405.5854-.87634401 1.35255-.876725 2.11982v7c0 1.1046.895431 2 2 2h12c1.1046 0 2-.8954 2-2v-7c.0001-.76792-.2927-1.53587-.8786-2.12178zm3.0416 4.985578-5.16307 2.98087-5.16391-2.98139 4.45691-3.56428c.39052-.39052 1.02369-.39052 1.41421 0zm.8378 1.82569-5.48934 3.16924c-.02302.0137-.04654.0264-.07049.0381-.13009.0641-.26829.0973-.40572.102-.18134.0066-.36667-.0361-.53541-.1335l-5.49984-3.17533v6.31003h12z" fill="#fff" fill-rule="evenodd"/></svg>