<svg fill="none" height="23" viewBox="0 0 22 23" width="22" xmlns="http://www.w3.org/2000/svg"><path d="m21.3125 11.5c0-5.84375-4.8125-10.65625-10.6563-10.65625-5.88667 0-10.6562 4.8125-10.6562 10.65625 0 5.8867 4.76953 10.6562 10.6562 10.6562 5.8438 0 10.6563-4.7695 10.6563-10.6562zm-11.90234 5.6719c-.25782.2578-.73047.2578-.98828 0l-4.46876-4.4688c-.25781-.2578-.25781-.7304 0-.9883l.98829-.9453c.25781-.3007.6875-.3007.94531 0l3.05078 3.0078 6.4453-6.44527c.2578-.30078.6875-.30078.9453 0l.9883.94531c.2578.25782.2578.73047 0 .98828z" fill="#fd71af"/></svg>