<svg width="850" height="850" viewBox="0 0 850 850" fill="none" xmlns="http://www.w3.org/2000/svg">
<g clip-path="url(#clip0)">
<rect width="850" height="850" fill="white"/>
<mask id="mask0" mask-type="alpha" maskUnits="userSpaceOnUse" x="397" y="143" width="326" height="305">
<rect x="397" y="143" width="326" height="305" fill="#C4C4C4"/>
</mask>
<g mask="url(#mask0)">
<path d="M715 316C715 398.29 648.29 465 566 465C483.71 465 417 398.29 417 316C417 233.71 483.71 167 566 167C648.29 167 715 233.71 715 316Z" fill="black"/>
</g>
<path d="M331 658C331 470 350.5 498 565.5 439.5M565.5 439.5C780.5 498 800 470 800 658M565.5 439.5C482.316 439.5 440.443 378.706 439.881 317.5C439.311 255.461 481.184 193 565.5 193C652.082 193 693.909 258.864 690.981 322.5C688.245 381.973 646.418 439.5 565.5 439.5Z" stroke="black" stroke-width="45" stroke-linecap="round"/>
<path d="M672 316C672 374.542 624.542 422 566 422C507.458 422 460 374.542 460 316C460 257.458 507.458 210 566 210C624.542 210 672 257.458 672 316Z" fill="white"/>
<mask id="mask1" mask-type="alpha" maskUnits="userSpaceOnUse" x="-186" y="-105" width="800" height="979">
<ellipse cx="213.797" cy="384.069" rx="224.5" ry="434.5" transform="rotate(27.5067 213.797 384.069)" fill="#C4C4C4"/>
</mask>
<g mask="url(#mask1)">
<mask id="mask2" mask-type="alpha" maskUnits="userSpaceOnUse" x="89" y="159" width="282" height="263">
<rect x="89.8528" y="159" width="280.819" height="262.729" fill="#C4C4C4"/>
</mask>
<g mask="url(#mask2)">
<path d="M363.78 308.023C363.78 378.909 306.316 436.373 235.431 436.373C164.545 436.373 107.081 378.909 107.081 308.023C107.081 237.138 164.545 179.674 235.431 179.674C306.316 179.674 363.78 237.138 363.78 308.023Z" fill="black"/>
</g>
<path d="M32.9999 602.625C32.9999 440.68 49.7974 464.8 235 414.407M235 414.407C420.202 464.8 437 440.68 437 602.625M235 414.407C163.345 414.407 127.275 362.038 126.791 309.316C126.299 255.875 162.369 202.07 235 202.07C309.583 202.07 345.613 258.806 343.09 313.623C340.733 364.853 304.703 414.407 235 414.407Z" stroke="black" stroke-width="40" stroke-linecap="round"/>
<path d="M326.74 308.023C326.74 358.452 285.859 399.333 235.431 399.333C185.002 399.333 144.121 358.452 144.121 308.023C144.121 257.595 185.002 216.714 235.431 216.714C285.859 216.714 326.74 257.595 326.74 308.023Z" fill="white"/>
</g>
</g>
<defs>
<clipPath id="clip0">
<rect width="850" height="850" fill="white"/>
</clipPath>
</defs>
</svg>
