<svg fill="none" height="235" viewBox="0 0 250 235" width="250" xmlns="http://www.w3.org/2000/svg" xmlns:xlink="http://www.w3.org/1999/xlink"><linearGradient id="a" gradientUnits="userSpaceOnUse" x1="-.000275" x2="83.4802" y1="58.967" y2="62.3592"><stop offset="0" stop-color="#49ccf9"/><stop offset="1" stop-color="#8930fd"/></linearGradient><g clip-rule="evenodd" fill-rule="evenodd"><path d="m111.972 157.038c.421 4.177.079 18.83-9.016 18.83h-4.1325 58.9755-4.422c-10.457 0-9.438-14.643-9.017-18.83l-.24-6.443h-32.036z" fill="#fff"/><path d="m153.375 176.616c.413 0 .748-.336.748-.748 0-.414-.335-.748-.748-.748-2.303 0-4.09-.737-5.463-2.256-2.55-2.82-3.548-8.413-2.81-15.751.042-.411-.258-.778-.669-.82-.41-.04-.777.26-.819.67-1 9.95 1.182 14.684 3.189 16.904 1.65 1.823 3.861 2.749 6.572 2.749z" fill="#5d7183"/><path d="m102.956 176.616c2.326 0 4.3-.878 5.865-2.609 4.141-4.578 4.216-13.855 3.895-17.044-.041-.41-.408-.71-.819-.67-.41.042-.709.409-.668.82.281 2.803.239 11.738-3.516 15.892-1.288 1.422-2.845 2.115-4.757 2.115-.413 0-.748.334-.748.748 0 .412.335.748.748.748z" fill="#5d7183"/><path d="m112.377 176.616h31.742c.413 0 .748-.336.748-.748 0-.414-.335-.748-.748-.748h-31.742c-.412 0-.748.334-.748.748 0 .412.336.748.748.748z" fill="#5d7183"/><path d="m223.856 154.367h-191.0905c-1.8361 0-3.3233-1.488-3.3233-3.323v-125.186c0-1.8355 1.4872-3.3233 3.3233-3.3233h191.0905c1.836 0 3.324 1.4878 3.324 3.3233v125.186c0 1.835-1.488 3.323-3.324 3.323z" fill="#fff"/><path d="m218.147 135.411h-179.6732v-104.2145h179.6732z" fill="#e9ebf0" opacity=".4"/><path d="m79.9827 155.115h143.8433c2.262 0 4.102-1.838 4.102-4.096v-125.1362c0-2.2586-1.84-4.0959-4.102-4.0959h-191.0302c-2.2616 0-4.1011 1.8373-4.1011 4.0959v29.6832c0 .4129.334.7477.7478.7477.4121 0 .7477-.3348.7477-.7477v-29.6832c0-1.4339 1.1682-2.6004 2.6056-2.6004h191.0302c1.437 0 2.606 1.1665 2.606 2.6004v125.1362c0 1.434-1.169 2.601-2.606 2.601h-143.8433c-.4138 0-.7478.334-.7478.747s.334.748.7478.748z" fill="#5d7183"/><path d="m77.5087 136.159h142.0803c.413 0 .748-.334.748-.748 0-.412-.335-.748-.748-.748h-142.0803c-.4137 0-.7477.336-.7477.748 0 .414.334.748.7477.748z" fill="#5d7183"/><path d="m138.826 78.0244c5.922.0001 11.512-.3506 16.968-.6928.294-.0183.549-.2069.653-.4817.667-1.7616.693-3.7918.072-5.5703-.136-.3899-.562-.5949-.952-.4596-.39.1362-.596.5626-.46.9526.455 1.3028.485 2.771.093 4.0979-7.282.4561-14.816.9079-23.031.4973-6.122-.3059-12.429-.3212-18.528-.336-4.091-.0099-8.313-.0202-12.452-.1183-.005-.435-.01-.952-.015-1.4687-.01-.8537-.018-1.7073-.027-2.1961-.008-.413-.35-.7478-.762-.734-.4126.0075-.7416.3483-.7334.7612.0084.4862.0167 1.3354.0267 2.1846.0083.8537.0166 1.7074.0266 2.1961.0066.4002.3271.7235.7281.7338 4.383.1153 8.868.1263 13.205.137 6.082.0147 12.37.03 18.456.334 2.295.1148 4.537.163 6.732.163z" fill="#5d7183"/><path d="m128.317 72.3482c.403 0 .735-.3213.747-.7271.109-3.9522.135-8.2621.16-12.4301.026-4.1581.052-8.4577.16-12.3919.012-.4127-.314-.7566-.726-.768-.412-.012-.757.3139-.768.7268-.11 3.9503-.136 8.2579-.161 12.424-.025 4.16-.052 8.4619-.16 12.398-.012.4127.314.7565.727.768.007.0003.014.0003.021.0003z" fill="#5d7183"/><path d="m128.38 73.1473c.182 0 .365-.0665.509-.2001 1.211-1.1259 2.354-2.2667 3.458-3.3695 1.096-1.0936 2.228-2.2245 3.42-3.3326.303-.281.32-.7542.039-1.0566-.282-.3026-.755-.3197-1.057-.0387-1.212 1.1261-2.354 2.2667-3.459 3.3697-.935.934-1.898 1.8953-2.901 2.8463-1.356-1.3084-2.692-2.5387-3.989-3.7327-1.453-1.3373-2.955-2.7203-4.47-4.201-.296-.2885-.768-.2837-1.057.0121-.289.2953-.284.7689.012 1.0573 1.532 1.4965 3.042 2.887 4.503 4.2318 1.452 1.3374 2.954 2.7204 4.469 4.201.145.1419.334.213.523.213z" fill="#5d7183"/><path d="m61.9318 111.861s62.5112 1.262 89.5892 1.262c6.111 0 43.169-1.262 43.169-1.262 1.405 0 2.544-1.138 2.544-2.541v-14.4413c0-1.403-1.139-2.5404-2.544-2.5404 0 0-72.294-1.3239-95.8671-1.3239-9.6162 0-36.8911 1.3239-36.8911 1.3239-1.4041 0-2.544 1.1374-2.544 2.5404v14.4413c0 1.403 1.1399 2.541 2.544 2.541z" fill="#fff"/><path d="m105.809 111.861c34.089 2.354 88.914 0 88.914 0 1.387 0 2.511-1.123 2.511-2.508v-14.5075c0-1.3847-1.124-2.5073-2.511-2.5073l-88.914-.91z" fill="#96e296"/><path d="m151.522 113.871c6.013 0 42.344-1.234 43.181-1.263 1.81-.007 3.279-1.479 3.279-3.288v-14.4412c0-1.8134-1.477-3.2885-3.292-3.2885-.709-.0131-72.557-1.3237-95.8668-1.3237-3.8069 0-10.7545.2032-20.6498.604-.4121.0168-.7328.3649-.7162.7775.0166.4023.3473.7175.7461.7175.01 0 .0199-.0001.0316-.0006 9.8737-.4002 16.8013-.6029 20.5883-.6029 23.2968 0 95.1298 1.3104 95.8528 1.3237 1.005 0 1.811.8043 1.811 1.793v14.4412c0 .989-.806 1.793-1.797 1.793-.009 0-.017 0-.026 0-.37.013-37.114 1.262-43.142 1.262-18.847 0-54.9969-.614-74.869-.981-.005 0-.01 0-.0133 0-.4072 0-.7411.326-.7479.734-.0082.413.3208.754.7329.762 19.8771.366 56.0383.981 74.8973.981z" fill="#96e296"/><path d="m231.742 21.0193c.249 0 .492-.1237.634-.3495 2.668-4.2398 6.244-7.7041 10.341-10.0178.36-.2032.487-.65936.284-1.01895s-.66-.48638-1.019-.28332c-4.312 2.43537-8.072 6.07427-10.872 10.52347-.22.3494-.115.8112.235 1.0311.124.0779.261.115.397.115z" fill="#5d7183"/><path d="m238.983 24.2836c.077 0 .156-.0121.233-.0373l10.269-3.3701c.393-.1288.606-.5514.478-.9437-.129-.3923-.552-.6062-.944-.4772l-10.269 3.3699c-.393.1288-.606.5512-.478.9437.104.3148.396.5147.711.5147z" fill="#5d7183"/><path d="m225.171 16.4762c.311 0 .601-.1947.707-.5047l5.154-14.980398c.135-.390496-.073-.816054-.464-.950318-.39-.1340981-.815.073283-.95.46378l-5.154 14.980436c-.134.3905.073.8161.464.9503.08.0278.163.0409.243.0409z" fill="#5d7183"/><path d="m2.88856 225.051c-.9023-25.162 2.99103-44.743 9.50654-68.856 3.0226-11.191 2.7202-23.564 2.9561-35.179.3905-19.348 1.2762-51.1555 28.5495-48.3675 21.2662 2.1743 28.1091 25.9785 29.0778 43.9015.4852 8.991-.2376 18.048.8026 26.993 1.6584 14.279 7.5275 25.545 13.9366 37.548 4.4467 8.326 21.9283 36.183 27.2823 43.96z" fill="#fff"/><path d="m17.7779 130.216c2.3264-11.291 4.9785-23.208 13.2586-31.5236 3.0609-3.0729 7.0589-5.6128 11.5587-5.7998 7.589-.315 14.6478 6.0148 22.0889 4.6832 7.0522-1.2619 12.991-8.586 14.3902-14.9089 1.4672-6.6338-.9189-16.8236-8.5145-19.4359-.4038 2.9335-3.8834 4.4236-6.9841 4.798-3.099.3743-6.238-.6798-9.0229-2.0976-2.785-1.4179-5.3557-3.2112-8.2005-4.5126-6.685-3.0574-14.6195-3.1591-21.5089-.8405-6.891 2.3184-12.7451 6.9284-16.96082 12.5565-5.72451 7.644-8.51614 17.2452-7.761738 26.6982 1.055178 13.231 8.649098 25.237 16.420858 36.412.658-2.117.7909-3.858 1.2362-6.029z" fill="#fff"/><path d="m17.7779 130.216c2.3264-11.291 4.9785-23.208 13.2586-31.5236 3.0609-3.0729 7.0589-5.6128 11.5587-5.7998 7.589-.315 14.6478 6.0148 22.0889 4.6832 7.0522-1.2619 12.991-8.586 14.3902-14.9089 1.4672-6.6338-.9189-16.8236-8.5145-19.4359-.4038 2.9335-3.8834 4.4236-6.9841 4.798-3.099.3743-6.238-.6798-9.0229-2.0976-2.785-1.4179-5.3557-3.2112-8.2005-4.5126-6.685-3.0574-14.6195-3.1591-21.5089-.8405-6.891 2.3184-12.7451 6.9284-16.96082 12.5565-5.72451 7.644-8.51614 17.2452-7.761738 26.6982 1.055178 13.231 8.649098 25.237 16.420858 36.412.658-2.117.7909-3.858 1.2362-6.029z" fill="url(#a)" opacity=".1361"/><g fill="#5d7183"><path d="m2.88802 225.799h.02659c.41376-.015.73612-.363.72117-.775-.88901-24.767 2.80325-43.92 9.47992-68.634 2.6221-9.704 2.7651-20.231 2.903-30.412.0232-1.629.0465-3.312.0781-4.947.1312-6.46.3107-15.308 1.8145-23.4426 1.7066-9.2255 4.7275-15.6498 9.2374-19.64 4.209-3.7238 9.8205-5.2574 16.675-4.5558 9.3054.9513 16.5604 6.2173 21.5654 15.6514 5.1861 9.7735 6.5121 21.454 6.8411 27.546.1978 3.64.1944 7.36.1928 10.958-.0033 5.277-.0066 10.734.6148 16.082 1.7149 14.772 7.9695 26.485 14.0197 37.813 4.5397 8.503 19.7055 31.378 24.7045 38.638.234.34.699.425 1.04.192.339-.234.425-.701.191-1.04-4.985-7.241-20.103-30.043-24.6161-38.494-5.9838-11.205-12.1719-22.792-13.8535-37.282-.6115-5.261-.6082-10.673-.6049-15.907.0017-3.62.005-7.362-.1944-11.04-.3357-6.216-1.6933-18.1403-7.014-28.1669-2.4427-4.606-5.4636-8.3169-8.9748-11.0296-3.9614-3.0605-8.5909-4.8802-13.7587-5.4086-7.2899-.7455-13.2836.9114-17.8183 4.9235-4.769 4.2199-7.9479 10.9215-9.7176 20.488-1.5254 8.2546-1.7065 17.1726-1.8378 23.6846-.0332 1.64-.0565 3.327-.0781 4.957-.1379 10.088-.2791 20.52-2.8531 30.043-6.71322 24.851-10.42543 44.121-9.53144 69.076.01495.404.34729.722.74776.722z"/><path d="m79.4839 191.086c.0599 0 .1197-.007.1812-.022.3257-.081.5583-.372.5666-.709.0316-1.356-.9737-4.922-2.6321-10.632-1.218-4.199-2.6005-8.956-2.5723-10.181.0199-.818 1.2679-1.958 2.0937-2.71.2061-.188.4005-.366.5733-.534.2974-.287.3058-.761.0183-1.057-.2875-.297-.7611-.305-1.0569-.018-.1578.153-.3456.323-.5433.504-1.1333 1.035-2.5457 2.323-2.579 3.78-.0315 1.356.9721 4.922 2.6305 10.633.3672 1.263.7478 2.577 1.1017 3.83-.5683-1.231-1.1732-2.547-1.7714-3.848-2.0688-4.505-4.0229-8.759-4.6942-9.957-.3141-.56-.7046-1.255-1.3875-1.702-1.3078-.859-3.8302-.207-6.9924.733-.8707.258-1.6916.502-2.1768.582-3.0841.507-6.1649.826-9.1543.947-5.6663.229-11.11-.221-16.1782-1.341-6.562-1.449-15.5833-4.648-21.3028-11.648-.2609-.319-.7328-.368-1.0535-.105-.319.261-.3672.731-.1047 1.052 5.9904 7.333 15.3457 10.661 22.1387 12.162 5.1927 1.148 10.7644 1.61 16.562 1.374 3.0492-.125 6.1898-.449 9.3337-.966.5799-.094 1.4058-.34 2.3613-.624 1.7181-.51 4.9152-1.461 5.7461-.916.3789.248.658.744.9039 1.183.6431 1.147 2.6754 5.57 4.6395 9.849 2.0688 4.505 4.0246 8.76 4.6959 9.959.1346.24.3872.382.653.382z"/><path d="m64.2802 132.902c1.0087 0 1.8561-.341 2.5208-1.017 1.9641-1.997 1.6567-6.414 1.4922-8.787-.0183-.264-.0332-.499-.0449-.695-.0216-.413-.3705-.729-.7859-.708-.4121.022-.7295.374-.7079.786.0116.205.0282.447.0465.72.1379 1.986.4254 6.118-1.0668 7.635-.4088.417-.9422.602-1.6201.567-1.0851-.057-1.8262-1.426-2.1719-2.237-.6314-1.482-1.0584-3.044-1.2695-4.641-.0532-.41-.427-.698-.8391-.644-.4088.054-.6963.43-.6431.839.2293 1.731.6913 3.424 1.3775 5.033.8442 1.981 2.0422 3.069 3.468 3.142.0831.005.1645.007.2442.007z"/><path d="m68.8775 180.085c.0498 0 .1013-.006.1545-.016.8358-.176 1.4158-1.006 1.2961-1.851-.1213-.845-.9122-1.476-1.763-1.413-.4121.032-.7212.391-.6896.803.0315.412.3905.719.8026.688.0598-.005.1611.074.1694.134.0084.058-.0648.163-.1246.175-.4038.084-.6613.482-.5766.885.0731.353.3839.595.7312.595z"/><path d="m72.8986 191.704c.0498 0 .1014-.005.1545-.016.8359-.175 1.4174-1.006 1.2961-1.85s-.9122-1.479-1.763-1.414c-.4121.033-.7212.392-.6896.804.0316.411.3888.72.8026.688.0648-.006.1612.073.1695.133s-.0648.163-.123.176c-.4054.085-.663.48-.5782.886.0731.352.3838.593.7311.593z"/><path d="m161.315 224.549c.214 0 .427-.091.575-.269.264-.316.222-.788-.095-1.052-1.004-.839-2.099-1.585-3.158-2.306-1.258-.858-2.56-1.745-3.662-2.762-3.066-2.833-3.086-5.505-2.825-6.846.236-1.208.876-2.227 1.756-2.795.896-.577 2.12-.575 2.567.005.253.327.722.387 1.049.134.327-.252.388-.721.135-1.048-.814-1.055-2.79-1.489-4.56-.348-1.222.786-2.102 2.159-2.415 3.767-.545 2.802.65 5.801 3.278 8.229 1.183 1.094 2.532 2.012 3.835 2.9 1.03.701 2.094 1.426 3.042 2.218.139.116.309.173.478.173z"/></g><path d="m193.999 194.525c2.441 11.071-5.262 38.088-8.596 38.389-4.374.394-14.495 1.013-18.649-.471-3.358-1.199-12.498-25.9-9.125-36.495 0 0 13.078.198 17.625.02 4.545-.178 18.745-1.443 18.745-1.443z" fill="#fff"/><path d="m193.395 195.33c.843 4.82.037 12.963-2.198 22.019-.983 3.985-2.154 7.705-3.296 10.477-1.687 4.094-2.565 4.342-2.574 4.343-13.01 1.174-17.545-.151-18.322-.428-1.085-.389-4.068-5.682-6.622-14.236-2.611-8.75-3.4-16.275-2.196-20.801 2.57.035 13.123.166 17.095.012 3.945-.155 15.24-1.134 18.113-1.386zm-17.816 38.807c4.071 0 8.116-.319 9.89-.479.594-.053 1.155-.467 1.764-1.299 1.893-2.586 4.305-9.48 6.002-17.155 1.937-8.764 2.481-16.36 1.493-20.84-.081-.367-.42-.618-.796-.583-.142.012-14.233 1.265-18.708 1.439-4.474.176-17.454-.018-17.584-.02-.004 0-.008 0-.012 0-.325 0-.613.211-.712.52-2.14 6.725.71 17.774 2.034 22.212 1.114 3.732 2.468 7.325 3.813 10.118 2.189 4.545 3.356 4.962 3.739 5.098 2.118.758 5.607.989 9.077.989z" fill="#5d7183"/><path d="m179.185 190.812c.669 0 1.346-.216 1.98-.645 1.244-.839 2.053-2.313 2.061-3.755.007-1.215-.305-3.164-3.08-6.056-.222-.232-.449-.463-.676-.693-1.273-1.294-2.476-2.517-3.058-4.067-.381-1.014-.349-2.227.083-3.168.207-.448.606-1.038 1.333-1.302.388-.142.588-.572.447-.959-.141-.389-.571-.59-.959-.447-.958.349-1.712 1.068-2.179 2.084-.593 1.289-.641 2.942-.125 4.318.694 1.846 2.065 3.241 3.392 4.59.223.226.445.452.663.68 1.246 1.297 2.675 3.04 2.664 5.011-.005.947-.569 1.963-1.402 2.524-.337.228-1.01.565-1.742.273-.384-.153-.818.035-.971.419-.153.383.035.819.419.97.373.15.76.223 1.15.223z" fill="#fff"/><path d="m169.88 191.086c.098 0 .198-.018.293-.06 2.156-.922 3.657-3.112 3.735-5.453.078-2.34-1.274-4.627-3.364-5.688-.368-.188-.818-.042-1.005.327-.187.367-.041.817.328 1.005 1.557.793 2.604 2.563 2.546 4.306s-1.221 3.441-2.827 4.127c-.38.163-.556.602-.394.982.122.285.398.454.688.454z" fill="#fff"/><path d="m111.423 225.139c2.915 0 5.816-.131 8.698-.396 11.769-1.078 23.212-4.378 34.013-9.805.369-.185.518-.635.332-1.004-.185-.369-.634-.518-1.004-.332-10.632 5.342-21.896 8.591-33.478 9.653-10.302.943-20.8621.171-31.3889-2.3-9.3104-2.187-18.3932-5.637-26.9941-10.256-7.5839-4.073-14.5829-8.978-20.2393-14.184-.3041-.28-.776-.261-1.0569.043-.2791.304-.2592.777.0449 1.057 5.7461 5.29 12.8515 10.271 20.5434 14.402 8.7172 4.68 17.923 8.177 27.3614 10.393 7.7401 1.817 15.5005 2.729 23.1685 2.729z" fill="#5d7183"/></g></svg>