<svg xmlns="http://www.w3.org/2000/svg" xmlns:xlink="http://www.w3.org/1999/xlink" width="100" height="100" viewBox="0 0 100 100"><g><g transform="translate(50 50) scale(0.69 0.69) rotate(0) translate(-50 -50)" style="fill:#ef4136;"><svg fill="#ef4136" xmlns="http://www.w3.org/2000/svg" xmlns:xlink="http://www.w3.org/1999/xlink" version="1.1" x="0px" y="0px" viewBox="0 0 98 98" style="enable-background:new 0 0 98 98;" xml:space="preserve"><title>05</title><path d="M92.1,34.7L49.6,20.1c-0.4-0.2-0.8-0.2-1.2,0L5.9,34.7c-0.8,0.2-1.4,1-1.4,1.8c0,0.8,0.5,1.6,1.3,1.9L18,43.2v19.5  c0,0.7,0.4,1.4,1.1,1.7l23.5,12.1c4,2,8.8,2,12.8,0l23.5-12.1c0.7-0.3,1.1-1,1.1-1.7V43.2l8.5-3.3v18.9c0,1.1,0.9,2,2,2s2-0.9,2-2  V38.3c0.6-0.4,1-1.1,1-1.8C93.5,35.7,92.9,34.9,92.1,34.7z M76,61.4L53.6,72.9c-2.9,1.5-6.3,1.5-9.2,0L22,61.4V44.8L48.3,55h1.4  L76,44.8V61.4z M49,51L12.3,36.7L49,24.1l36.7,12.6L49,51z"></path></svg></g></g></svg>