<svg width="45" height="45" viewBox="0 0 45 45" fill="none" xmlns="http://www.w3.org/2000/svg">
<path fill-rule="evenodd" clip-rule="evenodd" d="M22.4976 3.82172C17.5087 3.82172 12.8066 5.76486 9.28957 9.29195C5.75342 12.819 3.82288 17.5097 3.82288 22.5004C3.82288 27.493 5.75342 32.1836 9.28957 35.7126C12.8066 39.2378 17.5087 41.1791 22.4976 41.1791C27.4864 41.1791 32.1885 39.2359 35.7056 35.7088C43.0072 28.4254 43.0072 16.5754 35.7056 9.29195C32.1885 5.76486 27.4864 3.82172 22.4976 3.82172ZM22.4977 45C16.4767 45 10.8379 42.6613 6.57544 38.4139C2.33206 34.1627 -0.0189987 28.511 0.000115642 22.5C0.000115642 16.4871 2.33206 10.8373 6.57544 6.58989C10.8379 2.34057 16.4958 0 22.4977 0C28.5187 0 34.1574 2.34057 38.4199 6.58989C47.1934 15.3618 47.1934 29.6382 38.4199 38.4101C34.1574 42.6594 28.5187 45 22.4977 45Z" fill="#7C828D"/>
<path fill-rule="evenodd" clip-rule="evenodd" d="M11.9847 33.9622C11.7363 33.9622 11.5069 33.8686 11.3157 33.6813C5.14182 27.5175 5.14182 17.4846 11.3157 11.317C17.4897 5.15508 27.5247 5.15508 33.6795 11.317C39.8534 17.4827 39.8534 27.5137 33.6795 33.6775C33.3163 34.052 32.7047 34.052 32.3415 33.6775C31.9592 33.3049 31.9592 32.7012 32.3415 32.3267C37.7508 26.908 37.7508 18.0884 32.3415 12.6678C26.913 7.24917 18.0822 7.24917 12.6729 12.6678C7.2444 18.0903 7.2444 26.9099 12.6729 32.3305C13.036 32.705 13.036 33.3087 12.6729 33.6813C12.4817 33.8686 12.2332 33.9622 11.9847 33.9622Z" fill="#7C828D"/>
<path fill-rule="evenodd" clip-rule="evenodd" d="M22.4976 31.8017C20.4333 31.8017 18.7512 33.4774 18.7512 35.5447C18.7512 37.6101 20.4333 39.2839 22.4976 39.2839C24.562 39.2839 26.244 37.6101 26.244 35.5447C26.244 33.4774 24.562 31.8017 22.4976 31.8017Z" fill="#7C828D"/>
<path fill-rule="evenodd" clip-rule="evenodd" d="M22.9018 36.8187C23.6473 36.8187 24.3354 36.3983 24.6604 35.6895L31.8282 19.6877C32.2488 18.7247 31.8282 17.5936 30.8534 17.1618C29.8977 16.7261 28.7699 17.1656 28.3303 18.1247L21.1624 34.1266C20.7419 35.0895 21.1624 36.2206 22.1373 36.6525C22.3858 36.7652 22.6534 36.8187 22.9018 36.8187Z" fill="#7C828D"/>
</svg>
