<svg width="96" height="95" viewBox="0 0 96 95" fill="none" xmlns="http://www.w3.org/2000/svg">
<mask id="mask0" mask-type="alpha" maskUnits="userSpaceOnUse" x="0" y="0" width="96" height="95">
<path d="M91.6928 29.8191C100.247 51.249 92.1826 75.7275 72.5644 87.8748C52.9469 100.023 27.439 96.3333 12.068 79.1247L10.6115 80.5812C9.3166 81.8678 7.59519 82.6354 5.77273 82.7388C3.95027 82.8422 2.15308 82.2743 0.720977 81.1424C0.942847 80.9673 1.15391 80.78 1.35489 80.5812L21.9139 60.051L22.3663 59.5994C23.6837 58.3818 25.4117 57.7056 27.2056 57.7056C28.9996 57.7056 30.7276 58.3818 32.045 59.5994L32.4383 59.9999L41.7576 69.3177C41.8109 69.3667 41.8678 69.4114 41.9211 69.4603C43.3447 70.7526 45.2094 71.4502 47.1317 71.4096C49.054 71.369 50.8876 70.5933 52.2554 69.2421L91.6928 29.8191ZM22.7668 6.97509C40.6072 -3.92392 63.4735 -1.89539 79.1153 11.9758L79.7636 11.3275C81.0686 10.0307 82.8064 9.26147 84.6437 9.16734C86.481 9.07322 88.2884 9.66085 89.719 10.8175C89.4625 11.017 89.2191 11.2338 88.9914 11.4658L51.8469 48.6089C50.525 49.8496 48.7802 50.5402 46.9672 50.5402C45.1543 50.5402 43.4094 49.8496 42.0875 48.6089L32.7149 39.2356C32.6278 39.1412 32.5622 39.0317 32.4751 38.9446C29.5432 36.053 24.8321 36.053 21.9002 38.9446C21.8051 39.0317 21.7468 39.1412 21.6596 39.2356L1.5004 59.3955C-3.70346 39.1463 4.92715 17.8748 22.7668 6.97509Z" fill="white"/>
</mask>
<g mask="url(#mask0)">
<path opacity="0.197" d="M91.6928 29.8191C100.247 51.249 92.1826 75.7275 72.5644 87.8748C52.9469 100.023 27.439 96.3333 12.068 79.1247L10.6115 80.5812C9.3166 81.8678 7.59519 82.6354 5.77273 82.7388C3.95027 82.8422 2.15308 82.2743 0.720977 81.1424C0.942847 80.9673 1.15391 80.78 1.35489 80.5812L21.9139 60.051L22.3663 59.5994C23.6837 58.3818 25.4117 57.7056 27.2056 57.7056C28.9996 57.7056 30.7276 58.3818 32.045 59.5994L32.4383 59.9999L41.7576 69.3177C41.8109 69.3667 41.8678 69.4114 41.9211 69.4603C43.3447 70.7526 45.2094 71.4502 47.1317 71.4096C49.054 71.369 50.8876 70.5933 52.2554 69.2421L91.6928 29.8191ZM22.7668 6.97509C40.6072 -3.92392 63.4735 -1.89539 79.1153 11.9758L79.7636 11.3275C81.0686 10.0307 82.8064 9.26147 84.6437 9.16734C86.481 9.07322 88.2884 9.66085 89.719 10.8175C89.4625 11.017 89.2191 11.2338 88.9914 11.4658L51.8469 48.6089C50.525 49.8496 48.7802 50.5402 46.9672 50.5402C45.1543 50.5402 43.4094 49.8496 42.0875 48.6089L32.7149 39.2356C32.6278 39.1412 32.5622 39.0317 32.4751 38.9446C29.5432 36.053 24.8321 36.053 21.9002 38.9446C21.8051 39.0317 21.7468 39.1412 21.6596 39.2356L1.5004 59.3955C-3.70346 39.1463 4.92715 17.8748 22.7668 6.97509Z" fill="#01BAAB"/>
<path d="M-13.6271 115.074C24.0032 115.074 54.5086 84.7041 54.5086 47.2409C54.5086 9.77767 24.0032 -20.5923 -13.6271 -20.5923C-51.2574 -20.5923 -81.7628 9.77767 -81.7628 47.2409C-81.7628 84.7041 -51.2574 115.074 -13.6271 115.074Z" fill="url(#paint0_linear)"/>
<path opacity="0.3" d="M77.8259 138.694C109.101 138.694 134.454 113.341 134.454 82.0658C134.454 50.791 109.101 25.4377 77.8259 25.4377C46.5511 25.4377 21.1979 50.791 21.1979 82.0658C21.1979 113.341 46.5511 138.694 77.8259 138.694Z" fill="url(#paint1_linear)"/>
<path opacity="0.5" fill-rule="evenodd" clip-rule="evenodd" d="M71.7886 116.891C97.0429 116.891 117.515 96.4184 117.515 71.1641C117.515 45.9098 97.0429 25.4373 71.7886 25.4373C46.5343 25.4373 6.05595 66.1122 6.05595 91.3658C6.05595 116.62 46.5343 116.891 71.7886 116.891Z" fill="#01BBAC"/>
</g>
<defs>
<linearGradient id="paint0_linear" x1="32.4749" y1="6.31985" x2="32.4749" y2="88.417" gradientUnits="userSpaceOnUse">
<stop stop-color="#0EE3D1"/>
<stop offset="1" stop-color="#019B8E"/>
</linearGradient>
<linearGradient id="paint1_linear" x1="77.8259" y1="25.4377" x2="77.8259" y2="138.694" gradientUnits="userSpaceOnUse">
<stop stop-color="#01BFAF"/>
<stop offset="1" stop-color="#019B8E"/>
</linearGradient>
</defs>
</svg>
