<svg width="205" height="205" xmlns="http://www.w3.org/2000/svg" xmlns:xlink="http://www.w3.org/1999/xlink"><defs><circle id="a" cx="102.5" cy="102.5" r="102.5"/></defs><g fill="none" fill-rule="evenodd"><mask id="b" fill="#fff"><use xlink:href="#a"/></mask><use fill="#FFF" xlink:href="#a"/><g fill-rule="nonzero" mask="url(#b)"><path d="M170.248 64.176h-28.66C140.412 52.412 130.31 43 118.094 43H92.02C79.803 43 69.7 52.412 68.527 64.176h-31.01c-4.228 0-7.517 3.059-7.517 7.295v83.058c0 4.236 3.054 8.471 7.518 8.471h132.964c4.229 0 7.518-4.235 7.518-8.47V71.47c0-4.235-3.289-7.294-7.752-7.294zm-46.28 6.589c0 6.823-5.403 12.235-12.216 12.235H98.597c-6.813 0-12.216-5.412-12.216-12.235V67c0-6.823 5.403-12.235 12.216-12.235h13.155c6.813 0 12.216 5.412 12.216 12.235v3.765z" fill="#3CC676"/><path d="M170.248 68.306h-28.66C140.412 56.469 130.31 47 118.094 47H92.02C79.803 47 69.7 56.47 68.527 68.306h-31.01c-4.228 0-7.517 4.261-7.517 8.522v77.65c0 4.26 3.054 8.522 7.518 8.522h132.964c4.229 0 7.518-4.261 7.518-8.522v-77.65c0-4.26-3.289-8.522-7.752-8.522zm-46.28 1.894c0 6.865-5.403 12.31-12.216 12.31H98.597c-6.813 0-12.216-5.445-12.216-12.31v-3.788c0-6.865 5.403-12.31 12.216-12.31h13.155c6.813 0 12.216 5.445 12.216 12.31V70.2z" fill="#24966A"/><path d="M169 146.669a6.305 6.305 0 0 1-6.333 6.331H46.333A6.305 6.305 0 0 1 40 146.669V91.331A6.305 6.305 0 0 1 46.333 85h116.1a6.305 6.305 0 0 1 6.332 6.331v55.338H169z" fill="#D1E6ED"/><path d="M119 64V37.186C119 28.881 113.167 22 105 22s-14 6.881-14 15.186V64h28z" fill="#C61867"/><path d="M119 64V37.186C119 28.881 112.7 22 104.533 22 96.367 22 91 28.881 91 37.186" fill="#9E085A"/><path fill="#97B8BF" d="M49 92h54v52H49z"/><path d="M87 104.975c0 4.988-4.03 9.025-9.01 9.025h-5.691c-4.98 0-8.299-4.75-8.299-9.737C64 99.275 67.32 95 72.299 95h5.69C82.97 95 87 99.037 87 104.025v.95z" fill="#00233F"/><path fill="#F9BDA0" d="M68 118h14v11H68z"/><path fill="#E28F71" d="M82 129h-6.533L68 118h14z"/><path d="M86 108.184C86 116.947 80.617 125 75 125s-11-8.053-11-16.816C64 99.421 69.383 98 75 98s11 1.42 11 10.184z" fill="#FCCCB9"/><path d="M76 98c5.107 0 10 1.421 10 10.184S81.106 125 76 125" fill="#F9BDA0"/><path d="M78 97c0 1-.965 2-2.172 2h-2.656C71.965 99 71 98 71 97s.965-2 2.172-2h2.656C77.034 95 78 96 78 97z" fill="#00233F"/><path fill="#0C537A" d="M67.348 127L49 133.716V149h25z"/><path fill="#00233F" d="M66.89 127l-15.367 9.031L49 149h25z"/><path fill="#D6D6D6" d="M67.18 125L63 126.859l2.86 8.363L74 148v-18.121z"/><path fill="#FFF" d="M66.42 125l7.58 4.884L65 135z"/><path fill="#0C537A" d="M83.278 127L103 133.716V149H76z"/><path fill="#00233F" d="M83.043 127l15.73 9.031L103 149H76z"/><path fill="#D6D6D6" d="M83.646 125L88 126.901l-2.75 8.554L77 149l.458-19.01z"/><path fill="#FFF" d="M84.293 125L76 129.773 86 135z"/><path fill="#0C537A" d="M73.273 131.187l1.364 1.663L73 146.388 75.182 149H76v-19z"/><path fill="#00233F" d="M79.077 131.187l-1.23 1.663L80 146.388 77.539 149H76v-19z"/><path d="M109.105 37.698c-1.407 2.345-4.457 3.05-6.803 1.407-2.345-1.407-3.05-4.457-1.407-6.803 1.407-2.345 4.457-3.05 6.803-1.407 2.345 1.407 3.05 4.456 1.407 6.803z" fill="#FFC114"/><path d="M160.822 96.394c0 .94-.942 1.176-2.119 1.176h-44.482c-1.177 0-2.118-.235-2.118-1.176 0-.94.941-1.176 2.118-1.176h44.482c1.177 0 2.119.235 2.119 1.176zm0 11.762c0 .941-.942 1.177-2.119 1.177h-44.482c-1.177 0-2.118-.236-2.118-1.177 0-.94.941-1.176 2.118-1.176h44.482c1.177 0 2.119.235 2.119 1.176zm0 12.939c0 .94-.942 2.352-2.119 2.352h-44.482c-1.177 0-2.118-1.412-2.118-2.352 0-.941.941-2.353 2.118-2.353h44.482c1.177 0 2.119 1.412 2.119 2.353zm0 11.762c0 .94-.942 2.352-2.119 2.352h-44.482c-1.177 0-2.118-1.411-2.118-2.352 0-.94.941-2.352 2.118-2.352h44.482c1.177 0 2.119 1.41 2.119 2.352zm0 12.938c0 .941-.942 1.177-2.119 1.177h-44.482c-1.177 0-2.118-.236-2.118-1.177 0-.94.941-1.176 2.118-1.176h44.482c1.177 0 2.119.235 2.119 1.176z" fill="#97B8BF"/></g></g></svg>