<svg id="Layer_1" xmlns="http://www.w3.org/2000/svg" viewBox="0 0 77 22" width="154" height="44"><style>.st0{fill:#515151}.st1{fill:#b92025}</style><path class="st0" d="M1 18.2l-.9 1.4c-.2.3-.1.6.1.8.1 0 .1.1.2.1.4.3.8.5 1.3.7.5.2 1 .4 1.6.5.6.2 1.2.3 1.8.3 1.7.1 3.1-.3 4.1-1.1 1-.8 1.6-1.9 1.6-3.3 0-.9-.1-1.7-.5-2.3-.3-.6-.8-1.1-1.3-1.4-.4-.3-1-.6-1.6-.9-.6-.2-1.2-.4-1.7-.6-.5-.2-1-.4-1.3-.6-.3-.2-.5-.5-.5-.9 0-.5.2-.8.5-1.1.3-.3.8-.4 1.5-.4s1.2.1 1.6.3c.3.1.6.2.7.3.1.1.2.1.3.2.3.1.6 0 .8-.2l.9-1.5c.1-.2.1-.5-.1-.7-.1-.2-.3-.4-.7-.6C9 7 8.6 6.8 8 6.7c-.6-.2-1.2-.3-2-.3-1.8 0-3.1.3-4.2 1.2-1 .8-1.6 2-1.6 3.3v.5c0 .6.2 1.2.5 1.6.3.6.8 1 1.3 1.4.3.2.7.4 1 .5.2.1.5.2.8.3l1.8.6c.6.2 1 .5 1.4.7.4.3.5.7.5 1.1 0 .5-.2.8-.6 1.1-.4.3-.9.4-1.6.4-1.2 0-2.1-.4-2.7-.7l-.8-.4c-.3-.2-.7-.1-.8.2M23 18.2c-.2.1-.6.3-1 .4-.4.1-.9.2-1.4.2-1.1 0-1.8-.3-2.4-.9-.5-.6-.8-1.5-.8-2.5v-2.2c0-1.1.3-1.9.8-2.5.5-.6 1.3-.9 2.4-.9.5 0 1 .1 1.3.2.4.1.7.3 1 .4.2.1.3.2.5.2.2.1.5 0 .6-.2l1.1-1.7c.1-.2.1-.5-.1-.7-.6-.5-1-.8-1.8-1.1-.7-.3-1.6-.4-2.7-.4-1.2 0-2.2.2-3.1.5-.9.3-1.6.8-2.1 1.4-.5.6-.9 1.3-1.2 2.1-.3.8-.4 1.6-.4 2.5v2.5c0 .9.1 1.7.4 2.5.3.8.7 1.5 1.2 2.1s1.2 1.1 2.1 1.4c.9.3 1.9.5 3.1.5 1 0 1.9-.1 2.8-.4.7-.2 1.2-.5 1.6-.9.2-.2.2-.4.1-.6l-1-1.8c-.1-.2-.4-.3-.7-.2-.1 0-.2 0-.3.1M27.4 13.3c0-.9.1-1.8.4-2.7.3-.8.7-1.6 1.2-2.2.6-.6 1.3-1.1 2.1-1.5.9-.4 1.9-.5 3.1-.5 1.2 0 2.2.2 3.1.5.9.4 1.6.9 2.2 1.5.6.6 1 1.4 1.3 2.2.3.8.4 1.7.4 2.7v2.1c0 .9-.1 1.8-.4 2.6-.3.8-.7 1.5-1.3 2.1-.6.6-1.3 1.1-2.2 1.4-.9.3-1.9.5-3.1.5-1.2 0-2.2-.2-3.1-.5-.9-.3-1.6-.8-2.1-1.4-.6-.6-1-1.3-1.2-2.1-.3-.8-.4-1.7-.4-2.6v-2.1zm3.6 2.1c0 1.1.3 2 .9 2.5.6.6 1.4.9 2.4.9s1.8-.3 2.4-.9c.6-.6.9-1.4.9-2.5v-2.2c0-1.2-.3-2.1-.9-2.7-.6-.6-1.4-.9-2.4-.9s-1.8.3-2.4.9c-.6.6-.9 1.5-.9 2.7v2.2zM53.1 7c-.6-.4-1.3-.6-2.5-.6-2.3 0-3.5.5-4.5 1.5s-1.6 2.5-1.6 4.4v9c0 .3.3.6.6.6h2.4c.3 0 .6-.3.6-.6v-9.1c0-.5.1-1 .2-1.3.1-.3.3-.6.6-.8.3-.2.6-.3.9-.4.4-.1.8-.1 1.2-.1h.7c.3 0 .5-.1.7-.4l1-1.5c.2-.3.1-.5-.1-.7-.1.1-.2 0-.2 0M54.9 13.3c0-.9.1-1.8.4-2.7.3-.8.7-1.6 1.2-2.2.6-.6 1.3-1.1 2.1-1.5.9-.4 1.9-.5 3.1-.5 1.2 0 2.2.2 3.1.5.9.4 1.6.9 2.2 1.5.6.6 1 1.4 1.3 2.2.3.8.4 1.7.4 2.7v2.1c0 .9-.1 1.8-.4 2.6-.3.7-.7 1.4-1.3 2-.6.6-1.3 1.1-2.2 1.4-.9.3-1.9.5-3.1.5-1.2 0-2.2-.2-3.1-.5-.9-.3-1.6-.8-2.1-1.4-.6-.6-1-1.3-1.2-2.1-.3-.8-.4-1.7-.4-2.6v-2zm3.6 2.1c0 1.1.3 2 .9 2.5.6.6 1.4.9 2.4.9s1.8-.3 2.4-.9c.6-.6.9-1.4.9-2.5v-2.2c0-1.2-.3-2.1-.9-2.7-.6-.6-1.4-.9-2.4-.9s-1.8.3-2.4.9c-.6.6-.9 1.5-.9 2.7v2.2z"/><path class="st1" d="M77 3.3v6.3c0 .4-.3.8-.6 1L74 11.9c-.3.2-.6 0-.5-.3V5.9c0-.4-.2-.8-.6-1L68 2c-.3-.2-.3-.4 0-.6L70.3.1c.3-.2.9-.2 1.2 0L77 3.3"/><path class="st1" d="M77 9.6V3.3l-3.6 2.1c.1.2.1.4.1.5v5.7c0 .4.2.5.5.3l2.4-1.3c.3-.2.6-.6.6-1"/><path d="M77 3.3L71.6.2c-.3-.2-.9-.2-1.2 0l-2.3 1.3c-.3.2-.3.5 0 .6L73 5c.2.1.3.2.4.4L77 3.3z" fill="#d82735"/></svg>