
<svg width="17px" height="17px" viewBox="315 537 17 17" version="1.1" xmlns="http://www.w3.org/2000/svg" xmlns:xlink="http://www.w3.org/1999/xlink">
    <!-- Generator: Sketch 41 (35326) - http://www.bohemiancoding.com/sketch -->
    <desc>Created with Sketch.</desc>
    <defs></defs>
    <path d="M327,547 C326,548 326,549 325,549 C324,549 323,548 322,547 C321,546 320,545 320,544 C320,543 321,543 322,542 C323,541 320,538 319,538 C318,538 316,541 316,541 C316,543 318.055,547.055 320,549 C321.945,550.945 326,553 328,553 C328,553 331,551 331,550 C331,549 328,546 327,547" id="Fill-1" stroke="#ef4136" stroke-width="1" fill="none"></path>
</svg>
