<svg width="12" height="20" viewBox="0 0 12 20" fill="none" xmlns="http://www.w3.org/2000/svg">
<path d="M10.0938 0.375C10.5762 0.375 10.9844 0.560547 11.3555 0.894531C11.6895 1.26562 11.875 1.67383 11.875 2.15625V17.5938C11.875 18.1133 11.6895 18.5215 11.3555 18.8555C10.9844 19.2266 10.5762 19.375 10.0938 19.375H1.78125C1.26172 19.375 0.853516 19.2266 0.519531 18.8555C0.148438 18.5215 0 18.1133 0 17.5938V2.15625C0 1.67383 0.148438 1.26562 0.519531 0.894531C0.853516 0.560547 1.26172 0.375 1.78125 0.375H10.0938ZM5.9375 18.1875C6.23438 18.1875 6.53125 18.0762 6.75391 17.8535C6.97656 17.6309 7.125 17.334 7.125 17C7.125 16.7031 6.97656 16.4062 6.75391 16.1836C6.53125 15.9609 6.23438 15.8125 5.9375 15.8125C5.60352 15.8125 5.30664 15.9609 5.08398 16.1836C4.86133 16.4062 4.75 16.7031 4.75 17C4.75 17.334 4.86133 17.6309 5.08398 17.8535C5.30664 18.0762 5.60352 18.1875 5.9375 18.1875ZM10.0938 14.1797V2.60156C10.0938 2.49023 10.0195 2.37891 9.94531 2.30469C9.87109 2.23047 9.75977 2.15625 9.64844 2.15625H2.22656C2.07812 2.15625 1.9668 2.23047 1.89258 2.30469C1.81836 2.37891 1.78125 2.49023 1.78125 2.60156V14.1797C1.78125 14.3281 1.81836 14.4395 1.89258 14.5137C1.9668 14.5879 2.07812 14.625 2.22656 14.625H9.64844C9.75977 14.625 9.87109 14.5879 9.94531 14.5137C10.0195 14.4395 10.0938 14.3281 10.0938 14.1797Z" fill="#ef4136"/>
</svg>
