<svg xmlns="http://www.w3.org/2000/svg" xmlns:xlink="http://www.w3.org/1999/xlink" width="100" height="100"><svg xmlns="http://www.w3.org/2000/svg" data-name="Layer 1" viewBox="0 0 256 256" transform="matrix(.69 0 0 .69 15.5 15.5)" fill="#a297e9"><path d="M30.35 221.2a6.71 6.71 0 0 1-2.8-.6 7.226 7.226 0 0 1-4.4-6.6V74.2a39.477 39.477 0 0 1 39.4-39.4h130.9a39.477 39.477 0 0 1 39.4 39.4V151a39.477 39.477 0 0 1-39.4 39.4h-128l-30.1 28.7a6.882 6.882 0 0 1-5 2.1zm32.2-172a25.01 25.01 0 0 0-25 25v122.9l20-19.1a7.028 7.028 0 0 1 5-2h130.9a25.01 25.01 0 0 0 25-25V74.2a25.01 25.01 0 0 0-25-25z"/><g fill="none" stroke="#a297e9" stroke-linecap="round" stroke-miterlimit="10"><path stroke-width="12.884" d="M81.95 94h95.8"/><path stroke-width="13.199" d="M82.25 132.3h52.6"/></g></svg></svg>