<svg width="161" height="160" xmlns="http://www.w3.org/2000/svg"><path d="M160.6 81.1a80.3 80.3 0 1 0-150.1 39.8c4.6-11.3 11.3-24.7 15.7-28 0 0 10.2-9.2 20.7-5.8 0 0 45.5 16.3 57.7 31.1 0 0 6.4 9.3 3.7 18.7-1.1 4-5.1 13.6-9.6 22.4 36.3-8.5 62-41 61.9-78.2zm-47.9 19.3l-2.1 1.2c-2.6.9-5.6.1-7.5-2.2-7.1-8.7-34.5-22.7-44.5-22.7-3.8 0-6.8-3-6.9-6.8 0-3.8 3-6.8 6.8-6.9 15.1-.1 46.3 16.7 55.2 27.7 2.4 3.1 2 7.4-1 9.7zm19.3-8c-18.5-22.8-64.2-42.9-87.2-42.8a6.2 6.2 0 1 1-.1-12.3c26.3-.1 75.4 21 96.8 47.3a6.2 6.2 0 0 1-2.8 9.7c-2.3.9-5 .2-6.7-1.9z" fill="#010101"/></svg>