<svg xmlns="http://www.w3.org/2000/svg" xmlns:xlink="http://www.w3.org/1999/xlink" width="100" height="100" viewBox="0 0 100 100"><g><g transform="translate(50 50) scale(0.69 0.69) rotate(0) translate(-50 -50)" style="fill:#ef4136;"><svg fill="#ef4136" xmlns="http://www.w3.org/2000/svg" xmlns:xlink="http://www.w3.org/1999/xlink" version="1.1" x="0px" y="0px" viewBox="0 0 32 32" enable-background="new 0 0 32 32" xml:space="preserve"><g><g><path fill="#ef4136" d="M10.8,9.9H1.1V0.7h9.6L10.8,9.9L10.8,9.9z M2.6,8.4h6.6V2.2H2.6V8.4z"></path></g><g><rect x="12.3" y="2.8" fill="#ef4136" width="18.6" height="1.5"></rect></g><g><rect x="12.3" y="6.3" fill="#ef4136" width="18.6" height="1.5"></rect></g><g><rect x="12.3" y="13.5" fill="#ef4136" width="18.6" height="1.5"></rect></g><g><rect x="12.3" y="17" fill="#ef4136" width="18.6" height="1.5"></rect></g><g><rect x="12.3" y="24.2" fill="#ef4136" width="18.6" height="1.5"></rect></g><g><rect x="12.3" y="27.7" fill="#ef4136" width="18.6" height="1.5"></rect></g><g><path fill="#ef4136" d="M10.8,20.6H1.1v-9.1h9.6L10.8,20.6L10.8,20.6z M2.6,19.1h6.6V13H2.6V19.1z"></path></g><g><path fill="#ef4136" d="M10.8,31.2H1.1v-9.1h9.6L10.8,31.2L10.8,31.2z M2.6,29.7h6.6v-6.1H2.6V29.7z"></path></g></g></svg></g></g></svg>