<svg xmlns="http://www.w3.org/2000/svg" xmlns:xlink="http://www.w3.org/1999/xlink" width="100" height="100" viewBox="0 0 100 100"><g><g transform="translate(50 50) scale(0.69 0.69) rotate(0) translate(-50 -50)" style="fill:#ef4136;"><svg fill="#ef4136" xmlns="http://www.w3.org/2000/svg" xmlns:xlink="http://www.w3.org/1999/xlink" version="1.1" x="0px" y="0px" viewBox="0 0 32 32" enable-background="new 0 0 32 32" xml:space="preserve"><g><g><path fill="#ef4136" d="M16,31.3C7.6,31.3,0.8,24.4,0.8,16S7.6,0.8,16,0.8S31.3,7.6,31.3,16S24.4,31.3,16,31.3z M16,2.3    C8.4,2.3,2.3,8.4,2.3,16S8.4,29.8,16,29.8S29.8,23.6,29.8,16S23.6,2.3,16,2.3z"></path></g><g><path fill="#ef4136" d="M16,25.8v-1.5c4.6,0,8.3-3.7,8.3-8.3h1.5C25.8,21.4,21.4,25.8,16,25.8z"></path></g><g><path fill="#ef4136" d="M7.7,16H6.2c0-5.4,4.4-9.8,9.8-9.8v1.5C11.4,7.7,7.7,11.4,7.7,16z"></path></g><g><polygon fill="#ef4136" points="26.5,19 25,17.1 23.1,18.5 22.2,17.3 25.3,15 27.7,18.1   "></polygon></g><g><polygon fill="#ef4136" points="6.8,17 4.3,14 5.5,13.1 7,15 8.9,13.5 9.8,14.7   "></polygon></g></g></svg></g></g></svg>