<svg width="44" height="40" xmlns="http://www.w3.org/2000/svg"><g fill="none" fill-rule="evenodd"><path d="M10.45 31.41s.65 3.295 0 3.954C9.15 36.682 2 38 2 38m17.55-6.59s-.65 3.295 0 3.954C20.85 36.682 28 38 28 38m-15.6-5.932c-3.9-.659-5.2-6.59-5.2-6.59-.362-1.554-.766-4.12-.947-5.706-.208-1.824-.171-2.85 0-4.144C6.76 11.806 10.388 9 15 9s8.24 2.806 8.747 6.628c.171 1.295.208 2.32 0 4.144-.18 1.585-.585 4.152-.947 5.705 0 0-1.3 5.932-5.2 6.591" stroke="#525252" stroke-width="2.2" stroke-linecap="round" stroke-linejoin="round"/><path d="M22 6.333v-4C22 1.597 22.588 1 23.313 1h18.375C42.411 1 43 1.597 43 2.333v12c0 .736-.588 1.334-1.313 1.334H34.47L28.562 21v-5.333H27.25" stroke="#F5A623" stroke-width="2" stroke-linecap="square" stroke-linejoin="round"/><path d="M28.5 6.5h8m-8 3h8" stroke="#F5A623" stroke-width="1.6" stroke-linecap="square"/></g></svg>