<svg width="834" height="697" fill="none" xmlns="http://www.w3.org/2000/svg"><path d="M23.383 215.5a1.5 1.5 0 11-3 0 1.5 1.5 0 013 0zm20 0a1.5 1.5 0 11-3 0 1.5 1.5 0 013 0zm-20 20a1.5 1.5 0 11-3 0 1.5 1.5 0 013 0zm20 0a1.5 1.5 0 11-3 0 1.5 1.5 0 013 0zm-20 20a1.5 1.5 0 11-3 0 1.5 1.5 0 013 0zm20 0a1.5 1.5 0 11-3 0 1.5 1.5 0 013 0zm-20 20a1.5 1.5 0 11-3 0 1.5 1.5 0 013 0zm20 0a1.5 1.5 0 11-3 0 1.5 1.5 0 013 0zm-20 20a1.5 1.5 0 11-3 0 1.5 1.5 0 013 0zm20 0a1.5 1.5 0 11-3 0 1.5 1.5 0 013 0zm-20 20a1.5 1.5 0 11-3 0 1.5 1.5 0 013 0zm20 0a1.5 1.5 0 11-3 0 1.5 1.5 0 013 0zm-20 20a1.5 1.5 0 11-3 0 1.5 1.5 0 013 0zm20 0a1.5 1.5 0 11-3 0 1.5 1.5 0 013 0zm-20 20a1.5 1.5 0 11-3 0 1.5 1.5 0 013 0zm20 0a1.5 1.5 0 11-3 0 1.5 1.5 0 013 0zm-20 20a1.5 1.5 0 11-3 0 1.5 1.5 0 013 0zm20 0a1.5 1.5 0 11-3 0 1.5 1.5 0 013 0zm-20 20a1.5 1.5 0 11-3 0 1.5 1.5 0 013 0zm20 0a1.5 1.5 0 11-3 0 1.5 1.5 0 013 0zm-20 20a1.5 1.5 0 11-3 0 1.5 1.5 0 013 0zm20 0a1.5 1.5 0 11-3 0 1.5 1.5 0 013 0zm-20 20a1.5 1.5 0 11-3 0 1.5 1.5 0 013 0zm20 0a1.5 1.5 0 11-3 0 1.5 1.5 0 013 0zm20-220a1.5 1.5 0 11-3 0 1.5 1.5 0 013 0zm20 0a1.5 1.5 0 11-3 0 1.5 1.5 0 013 0zm20 0a1.5 1.5 0 11-3.001-.001 1.5 1.5 0 013.001.001zm20 0a1.5 1.5 0 11-3.001-.001 1.5 1.5 0 013.001.001zm20 0a1.5 1.5 0 11-3.001-.001 1.5 1.5 0 013.001.001zm20 0a1.5 1.5 0 11-3.001-.001 1.5 1.5 0 013.001.001zm20 0a1.5 1.5 0 11-3.001-.001 1.5 1.5 0 013.001.001zm20 0a1.5 1.5 0 11-3.001-.001 1.5 1.5 0 013.001.001zm20 0a1.5 1.5 0 11-3.001-.001 1.5 1.5 0 013.001.001zm20 0a1.5 1.5 0 11-3.001-.001 1.5 1.5 0 013.001.001zm20 0a1.5 1.5 0 11-3.001-.001 1.5 1.5 0 013.001.001zm20 0a1.5 1.5 0 11-3.001-.001 1.5 1.5 0 013.001.001zm20 0a1.5 1.5 0 11-3.001-.001 1.5 1.5 0 013.001.001zm20 0a1.5 1.5 0 11-3.001-.001 1.5 1.5 0 013.001.001zm20 0a1.5 1.5 0 11-3.001-.001 1.5 1.5 0 013.001.001zm-280 20a1.5 1.5 0 11-3 0 1.5 1.5 0 013 0zm20 0a1.5 1.5 0 11-3 0 1.5 1.5 0 013 0zm20 0a1.5 1.5 0 11-3.001-.001 1.5 1.5 0 013.001.001zm20 0a1.5 1.5 0 11-3.001-.001 1.5 1.5 0 013.001.001zm20 0a1.5 1.5 0 11-3.001-.001 1.5 1.5 0 013.001.001zm20 0a1.5 1.5 0 11-3.001-.001 1.5 1.5 0 013.001.001zm20 0a1.5 1.5 0 11-3.001-.001 1.5 1.5 0 013.001.001zm20 0a1.5 1.5 0 11-3.001-.001 1.5 1.5 0 013.001.001zm20 0a1.5 1.5 0 11-3.001-.001 1.5 1.5 0 013.001.001zm20 0a1.5 1.5 0 11-3.001-.001 1.5 1.5 0 013.001.001zm20 0a1.5 1.5 0 11-3.001-.001 1.5 1.5 0 013.001.001zm20 0a1.5 1.5 0 11-3.001-.001 1.5 1.5 0 013.001.001zm20 0a1.5 1.5 0 11-3.001-.001 1.5 1.5 0 013.001.001zm20 0a1.5 1.5 0 11-3.001-.001 1.5 1.5 0 013.001.001zm20 0a1.5 1.5 0 11-3.001-.001 1.5 1.5 0 013.001.001zm-280 20a1.5 1.5 0 11-3 0 1.5 1.5 0 013 0zm20 0a1.5 1.5 0 11-3 0 1.5 1.5 0 013 0zm20 0a1.5 1.5 0 11-3.001-.001 1.5 1.5 0 013.001.001zm20 0a1.5 1.5 0 11-3.001-.001 1.5 1.5 0 013.001.001zm20 0a1.5 1.5 0 11-3.001-.001 1.5 1.5 0 013.001.001zm20 0a1.5 1.5 0 11-3.001-.001 1.5 1.5 0 013.001.001zm20 0a1.5 1.5 0 11-3.001-.001 1.5 1.5 0 013.001.001zm20 0a1.5 1.5 0 11-3.001-.001 1.5 1.5 0 013.001.001zm20 0a1.5 1.5 0 11-3.001-.001 1.5 1.5 0 013.001.001zm20 0a1.5 1.5 0 11-3.001-.001 1.5 1.5 0 013.001.001zm20 0a1.5 1.5 0 11-3.001-.001 1.5 1.5 0 013.001.001zm20 0a1.5 1.5 0 11-3.001-.001 1.5 1.5 0 013.001.001zm20 0a1.5 1.5 0 11-3.001-.001 1.5 1.5 0 013.001.001zm20 0a1.5 1.5 0 11-3.001-.001 1.5 1.5 0 013.001.001zm20 0a1.5 1.5 0 11-3.001-.001 1.5 1.5 0 013.001.001zm-280 20a1.5 1.5 0 11-3 0 1.5 1.5 0 013 0zm20 0a1.5 1.5 0 11-3 0 1.5 1.5 0 013 0zm20 0a1.5 1.5 0 11-3.001-.001 1.5 1.5 0 013.001.001zm20 0a1.5 1.5 0 11-3.001-.001 1.5 1.5 0 013.001.001zm20 0a1.5 1.5 0 11-3.001-.001 1.5 1.5 0 013.001.001zm20 0a1.5 1.5 0 11-3.001-.001 1.5 1.5 0 013.001.001zm20 0a1.5 1.5 0 11-3.001-.001 1.5 1.5 0 013.001.001zm20 0a1.5 1.5 0 11-3.001-.001 1.5 1.5 0 013.001.001zm20 0a1.5 1.5 0 11-3.001-.001 1.5 1.5 0 013.001.001zm20 0a1.5 1.5 0 11-3.001-.001 1.5 1.5 0 013.001.001zm20 0a1.5 1.5 0 11-3.001-.001 1.5 1.5 0 013.001.001zm20 0a1.5 1.5 0 11-3.001-.001 1.5 1.5 0 013.001.001zm20 0a1.5 1.5 0 11-3.001-.001 1.5 1.5 0 013.001.001zm20 0a1.5 1.5 0 11-3.001-.001 1.5 1.5 0 013.001.001zm20 0a1.5 1.5 0 11-3.001-.001 1.5 1.5 0 013.001.001zm-280 20a1.5 1.5 0 11-3 0 1.5 1.5 0 013 0zm20 0a1.5 1.5 0 11-3 0 1.5 1.5 0 013 0zm20 0a1.5 1.5 0 11-3.001-.001 1.5 1.5 0 013.001.001zm20 0a1.5 1.5 0 11-3.001-.001 1.5 1.5 0 013.001.001zm20 0a1.5 1.5 0 11-3.001-.001 1.5 1.5 0 013.001.001zm20 0a1.5 1.5 0 11-3.001-.001 1.5 1.5 0 013.001.001zm20 0a1.5 1.5 0 11-3.001-.001 1.5 1.5 0 013.001.001zm20 0a1.5 1.5 0 11-3.001-.001 1.5 1.5 0 013.001.001zm20 0a1.5 1.5 0 11-3.001-.001 1.5 1.5 0 013.001.001zm20 0a1.5 1.5 0 11-3.001-.001 1.5 1.5 0 013.001.001zm20 0a1.5 1.5 0 11-3.001-.001 1.5 1.5 0 013.001.001zm20 0a1.5 1.5 0 11-3.001-.001 1.5 1.5 0 013.001.001zm20 0a1.5 1.5 0 11-3.001-.001 1.5 1.5 0 013.001.001zm20 0a1.5 1.5 0 11-3.001-.001 1.5 1.5 0 013.001.001zm20 0a1.5 1.5 0 11-3.001-.001 1.5 1.5 0 013.001.001zm-280 20a1.5 1.5 0 11-3 0 1.5 1.5 0 013 0zm20 0a1.5 1.5 0 11-3 0 1.5 1.5 0 013 0zm20 0a1.5 1.5 0 11-3.001-.001 1.5 1.5 0 013.001.001zm20 0a1.5 1.5 0 11-3.001-.001 1.5 1.5 0 013.001.001zm20 0a1.5 1.5 0 11-3.001-.001 1.5 1.5 0 013.001.001zm20 0a1.5 1.5 0 11-3.001-.001 1.5 1.5 0 013.001.001zm20 0a1.5 1.5 0 11-3.001-.001 1.5 1.5 0 013.001.001zm20 0a1.5 1.5 0 11-3.001-.001 1.5 1.5 0 013.001.001zm20 0a1.5 1.5 0 11-3.001-.001 1.5 1.5 0 013.001.001zm20 0a1.5 1.5 0 11-3.001-.001 1.5 1.5 0 013.001.001zm20 0a1.5 1.5 0 11-3.001-.001 1.5 1.5 0 013.001.001zm20 0a1.5 1.5 0 11-3.001-.001 1.5 1.5 0 013.001.001zm20 0a1.5 1.5 0 11-3.001-.001 1.5 1.5 0 013.001.001zm20 0a1.5 1.5 0 11-3.001-.001 1.5 1.5 0 013.001.001zm20 0a1.5 1.5 0 11-3.001-.001 1.5 1.5 0 013.001.001zm-280 20a1.5 1.5 0 11-3 0 1.5 1.5 0 013 0zm20 0a1.5 1.5 0 11-3 0 1.5 1.5 0 013 0zm20 0a1.5 1.5 0 11-3.001-.001 1.5 1.5 0 013.001.001zm20 0a1.5 1.5 0 11-3.001-.001 1.5 1.5 0 013.001.001zm20 0a1.5 1.5 0 11-3.001-.001 1.5 1.5 0 013.001.001zm20 0a1.5 1.5 0 11-3.001-.001 1.5 1.5 0 013.001.001zm20 0a1.5 1.5 0 11-3.001-.001 1.5 1.5 0 013.001.001zm20 0a1.5 1.5 0 11-3.001-.001 1.5 1.5 0 013.001.001zm20 0a1.5 1.5 0 11-3.001-.001 1.5 1.5 0 013.001.001zm20 0a1.5 1.5 0 11-3.001-.001 1.5 1.5 0 013.001.001zm20 0a1.5 1.5 0 11-3.001-.001 1.5 1.5 0 013.001.001zm20 0a1.5 1.5 0 11-3.001-.001 1.5 1.5 0 013.001.001zm20 0a1.5 1.5 0 11-3.001-.001 1.5 1.5 0 013.001.001zm20 0a1.5 1.5 0 11-3.001-.001 1.5 1.5 0 013.001.001zm20 0a1.5 1.5 0 11-3.001-.001 1.5 1.5 0 013.001.001zm-280 20a1.5 1.5 0 11-3 0 1.5 1.5 0 013 0zm20 0a1.5 1.5 0 11-3 0 1.5 1.5 0 013 0zm20 0a1.5 1.5 0 11-3.001-.001 1.5 1.5 0 013.001.001zm20 0a1.5 1.5 0 11-3.001-.001 1.5 1.5 0 013.001.001zm20 0a1.5 1.5 0 11-3.001-.001 1.5 1.5 0 013.001.001zm20 0a1.5 1.5 0 11-3.001-.001 1.5 1.5 0 013.001.001zm20 0a1.5 1.5 0 11-3.001-.001 1.5 1.5 0 013.001.001zm20 0a1.5 1.5 0 11-3.001-.001 1.5 1.5 0 013.001.001zm20 0a1.5 1.5 0 11-3.001-.001 1.5 1.5 0 013.001.001zm20 0a1.5 1.5 0 11-3.001-.001 1.5 1.5 0 013.001.001zm20 0a1.5 1.5 0 11-3.001-.001 1.5 1.5 0 013.001.001zm20 0a1.5 1.5 0 11-3.001-.001 1.5 1.5 0 013.001.001zm20 0a1.5 1.5 0 11-3.001-.001 1.5 1.5 0 013.001.001zm20 0a1.5 1.5 0 11-3.001-.001 1.5 1.5 0 013.001.001zm20 0a1.5 1.5 0 11-3.001-.001 1.5 1.5 0 013.001.001zm-280 20a1.5 1.5 0 11-3 0 1.5 1.5 0 013 0zm20 0a1.5 1.5 0 11-3 0 1.5 1.5 0 013 0zm20 0a1.5 1.5 0 11-3.001-.001 1.5 1.5 0 013.001.001zm20 0a1.5 1.5 0 11-3.001-.001 1.5 1.5 0 013.001.001zm20 0a1.5 1.5 0 11-3.001-.001 1.5 1.5 0 013.001.001zm20 0a1.5 1.5 0 11-3.001-.001 1.5 1.5 0 013.001.001zm20 0a1.5 1.5 0 11-3.001-.001 1.5 1.5 0 013.001.001zm20 0a1.5 1.5 0 11-3.001-.001 1.5 1.5 0 013.001.001zm20 0a1.5 1.5 0 11-3.001-.001 1.5 1.5 0 013.001.001zm20 0a1.5 1.5 0 11-3.001-.001 1.5 1.5 0 013.001.001zm20 0a1.5 1.5 0 11-3.001-.001 1.5 1.5 0 013.001.001zm20 0a1.5 1.5 0 11-3.001-.001 1.5 1.5 0 013.001.001zm20 0a1.5 1.5 0 11-3.001-.001 1.5 1.5 0 013.001.001zm20 0a1.5 1.5 0 11-3.001-.001 1.5 1.5 0 013.001.001zm20 0a1.5 1.5 0 11-3.001-.001 1.5 1.5 0 013.001.001zm-280 20a1.5 1.5 0 11-3 0 1.5 1.5 0 013 0zm20 0a1.5 1.5 0 11-3 0 1.5 1.5 0 013 0zm20 0a1.5 1.5 0 11-3.001-.001 1.5 1.5 0 013.001.001zm20 0a1.5 1.5 0 11-3.001-.001 1.5 1.5 0 013.001.001zm20 0a1.5 1.5 0 11-3.001-.001 1.5 1.5 0 013.001.001zm20 0a1.5 1.5 0 11-3.001-.001 1.5 1.5 0 013.001.001zm20 0a1.5 1.5 0 11-3.001-.001 1.5 1.5 0 013.001.001zm20 0a1.5 1.5 0 11-3.001-.001 1.5 1.5 0 013.001.001zm20 0a1.5 1.5 0 11-3.001-.001 1.5 1.5 0 013.001.001zm20 0a1.5 1.5 0 11-3.001-.001 1.5 1.5 0 013.001.001zm20 0a1.5 1.5 0 11-3.001-.001 1.5 1.5 0 013.001.001zm20 0a1.5 1.5 0 11-3.001-.001 1.5 1.5 0 013.001.001zm20 0a1.5 1.5 0 11-3.001-.001 1.5 1.5 0 013.001.001zm20 0a1.5 1.5 0 11-3.001-.001 1.5 1.5 0 013.001.001zm20 0a1.5 1.5 0 11-3.001-.001 1.5 1.5 0 013.001.001zm-280 20a1.5 1.5 0 11-3 0 1.5 1.5 0 013 0zm20 0a1.5 1.5 0 11-3 0 1.5 1.5 0 013 0zm20 0a1.5 1.5 0 11-3.001-.001 1.5 1.5 0 013.001.001zm20 0a1.5 1.5 0 11-3.001-.001 1.5 1.5 0 013.001.001zm20 0a1.5 1.5 0 11-3.001-.001 1.5 1.5 0 013.001.001zm20 0a1.5 1.5 0 11-3.001-.001 1.5 1.5 0 013.001.001zm20 0a1.5 1.5 0 11-3.001-.001 1.5 1.5 0 013.001.001zm20 0a1.5 1.5 0 11-3.001-.001 1.5 1.5 0 013.001.001zm20 0a1.5 1.5 0 11-3.001-.001 1.5 1.5 0 013.001.001zm20 0a1.5 1.5 0 11-3.001-.001 1.5 1.5 0 013.001.001zm20 0a1.5 1.5 0 11-3.001-.001 1.5 1.5 0 013.001.001zm20 0a1.5 1.5 0 11-3.001-.001 1.5 1.5 0 013.001.001zm20 0a1.5 1.5 0 11-3.001-.001 1.5 1.5 0 013.001.001zm20 0a1.5 1.5 0 11-3.001-.001 1.5 1.5 0 013.001.001zm20 0a1.5 1.5 0 11-3.001-.001 1.5 1.5 0 013.001.001zm-280 20a1.5 1.5 0 11-3 0 1.5 1.5 0 013 0zm20 0a1.5 1.5 0 11-3 0 1.5 1.5 0 013 0zm20 0a1.5 1.5 0 11-3.001-.001 1.5 1.5 0 013.001.001zm20 0a1.5 1.5 0 11-3.001-.001 1.5 1.5 0 013.001.001zm20 0a1.5 1.5 0 11-3.001-.001 1.5 1.5 0 013.001.001zm20 0a1.5 1.5 0 11-3.001-.001 1.5 1.5 0 013.001.001zm20 0a1.5 1.5 0 11-3.001-.001 1.5 1.5 0 013.001.001zm20 0a1.5 1.5 0 11-3.001-.001 1.5 1.5 0 013.001.001zm20 0a1.5 1.5 0 11-3.001-.001 1.5 1.5 0 013.001.001zm20 0a1.5 1.5 0 11-3.001-.001 1.5 1.5 0 013.001.001zm20 0a1.5 1.5 0 11-3.001-.001 1.5 1.5 0 013.001.001zm20 0a1.5 1.5 0 11-3.001-.001 1.5 1.5 0 013.001.001zm20 0a1.5 1.5 0 11-3.001-.001 1.5 1.5 0 013.001.001zm20 0a1.5 1.5 0 11-3.001-.001 1.5 1.5 0 013.001.001zm20 0a1.5 1.5 0 11-3.001-.001 1.5 1.5 0 013.001.001zm20-220a1.5 1.5 0 11-3.001-.001 1.5 1.5 0 013.001.001zm20 0a1.5 1.5 0 11-3.001-.001 1.5 1.5 0 013.001.001zm20 0a1.5 1.5 0 11-3.001-.001 1.5 1.5 0 013.001.001zm20 0a1.5 1.5 0 11-3.001-.001 1.5 1.5 0 013.001.001zm20 0a1.5 1.5 0 11-3.001-.001 1.5 1.5 0 013.001.001zm20 0a1.5 1.5 0 11-3.001-.001 1.5 1.5 0 013.001.001zm20 0a1.5 1.5 0 11-3.001-.001 1.5 1.5 0 013.001.001zm20 0a1.5 1.5 0 11-3.001-.001 1.5 1.5 0 013.001.001zm20 0a1.5 1.5 0 11-3.001-.001 1.5 1.5 0 013.001.001zm20 0a1.5 1.5 0 11-3.001-.001 1.5 1.5 0 013.001.001zm20 0a1.5 1.5 0 11-3.001-.001 1.5 1.5 0 013.001.001zm20 0a1.5 1.5 0 11-3.001-.001 1.5 1.5 0 013.001.001zm20 0a1.5 1.5 0 11-3.001-.001 1.5 1.5 0 013.001.001zm20 0a1.5 1.5 0 11-3.001-.001 1.5 1.5 0 013.001.001zm20 0a1.5 1.5 0 11-3.001-.001 1.5 1.5 0 013.001.001zm-280 20a1.5 1.5 0 11-3.001-.001 1.5 1.5 0 013.001.001zm20 0a1.5 1.5 0 11-3.001-.001 1.5 1.5 0 013.001.001zm20 0a1.5 1.5 0 11-3.001-.001 1.5 1.5 0 013.001.001zm20 0a1.5 1.5 0 11-3.001-.001 1.5 1.5 0 013.001.001zm20 0a1.5 1.5 0 11-3.001-.001 1.5 1.5 0 013.001.001zm20 0a1.5 1.5 0 11-3.001-.001 1.5 1.5 0 013.001.001zm20 0a1.5 1.5 0 11-3.001-.001 1.5 1.5 0 013.001.001zm20 0a1.5 1.5 0 11-3.001-.001 1.5 1.5 0 013.001.001zm20 0a1.5 1.5 0 11-3.001-.001 1.5 1.5 0 013.001.001zm20 0a1.5 1.5 0 11-3.001-.001 1.5 1.5 0 013.001.001zm20 0a1.5 1.5 0 11-3.001-.001 1.5 1.5 0 013.001.001zm20 0a1.5 1.5 0 11-3.001-.001 1.5 1.5 0 013.001.001zm20 0a1.5 1.5 0 11-3.001-.001 1.5 1.5 0 013.001.001zm20 0a1.5 1.5 0 11-3.001-.001 1.5 1.5 0 013.001.001zm20 0a1.5 1.5 0 11-3.001-.001 1.5 1.5 0 013.001.001zm-280 20a1.5 1.5 0 11-3.001-.001 1.5 1.5 0 013.001.001zm20 0a1.5 1.5 0 11-3.001-.001 1.5 1.5 0 013.001.001zm20 0a1.5 1.5 0 11-3.001-.001 1.5 1.5 0 013.001.001zm20 0a1.5 1.5 0 11-3.001-.001 1.5 1.5 0 013.001.001zm20 0a1.5 1.5 0 11-3.001-.001 1.5 1.5 0 013.001.001zm20 0a1.5 1.5 0 11-3.001-.001 1.5 1.5 0 013.001.001zm20 0a1.5 1.5 0 11-3.001-.001 1.5 1.5 0 013.001.001zm20 0a1.5 1.5 0 11-3.001-.001 1.5 1.5 0 013.001.001zm20 0a1.5 1.5 0 11-3.001-.001 1.5 1.5 0 013.001.001zm20 0a1.5 1.5 0 11-3.001-.001 1.5 1.5 0 013.001.001zm20 0a1.5 1.5 0 11-3.001-.001 1.5 1.5 0 013.001.001zm20 0a1.5 1.5 0 11-3.001-.001 1.5 1.5 0 013.001.001zm20 0a1.5 1.5 0 11-3.001-.001 1.5 1.5 0 013.001.001zm20 0a1.5 1.5 0 11-3.001-.001 1.5 1.5 0 013.001.001zm20 0a1.5 1.5 0 11-3.001-.001 1.5 1.5 0 013.001.001zm-280 20a1.5 1.5 0 11-3.001-.001 1.5 1.5 0 013.001.001zm20 0a1.5 1.5 0 11-3.001-.001 1.5 1.5 0 013.001.001zm20 0a1.5 1.5 0 11-3.001-.001 1.5 1.5 0 013.001.001zm20 0a1.5 1.5 0 11-3.001-.001 1.5 1.5 0 013.001.001zm20 0a1.5 1.5 0 11-3.001-.001 1.5 1.5 0 013.001.001zm20 0a1.5 1.5 0 11-3.001-.001 1.5 1.5 0 013.001.001zm20 0a1.5 1.5 0 11-3.001-.001 1.5 1.5 0 013.001.001zm20 0a1.5 1.5 0 11-3.001-.001 1.5 1.5 0 013.001.001zm20 0a1.5 1.5 0 11-3.001-.001 1.5 1.5 0 013.001.001zm20 0a1.5 1.5 0 11-3.001-.001 1.5 1.5 0 013.001.001zm20 0a1.5 1.5 0 11-3.001-.001 1.5 1.5 0 013.001.001zm20 0a1.5 1.5 0 11-3.001-.001 1.5 1.5 0 013.001.001zm20 0a1.5 1.5 0 11-3.001-.001 1.5 1.5 0 013.001.001zm20 0a1.5 1.5 0 11-3.001-.001 1.5 1.5 0 013.001.001zm20 0a1.5 1.5 0 11-3.001-.001 1.5 1.5 0 013.001.001zm-280 20a1.5 1.5 0 11-3.001-.001 1.5 1.5 0 013.001.001zm20 0a1.5 1.5 0 11-3.001-.001 1.5 1.5 0 013.001.001zm20 0a1.5 1.5 0 11-3.001-.001 1.5 1.5 0 013.001.001zm20 0a1.5 1.5 0 11-3.001-.001 1.5 1.5 0 013.001.001zm20 0a1.5 1.5 0 11-3.001-.001 1.5 1.5 0 013.001.001zm20 0a1.5 1.5 0 11-3.001-.001 1.5 1.5 0 013.001.001zm20 0a1.5 1.5 0 11-3.001-.001 1.5 1.5 0 013.001.001zm20 0a1.5 1.5 0 11-3.001-.001 1.5 1.5 0 013.001.001zm20 0a1.5 1.5 0 11-3.001-.001 1.5 1.5 0 013.001.001zm20 0a1.5 1.5 0 11-3.001-.001 1.5 1.5 0 013.001.001zm20 0a1.5 1.5 0 11-3.001-.001 1.5 1.5 0 013.001.001zm20 0a1.5 1.5 0 11-3.001-.001 1.5 1.5 0 013.001.001zm20 0a1.5 1.5 0 11-3.001-.001 1.5 1.5 0 013.001.001zm20 0a1.5 1.5 0 11-3.001-.001 1.5 1.5 0 013.001.001zm20 0a1.5 1.5 0 11-3.001-.001 1.5 1.5 0 013.001.001zm-280 20a1.5 1.5 0 11-3.001-.001 1.5 1.5 0 013.001.001zm20 0a1.5 1.5 0 11-3.001-.001 1.5 1.5 0 013.001.001zm20 0a1.5 1.5 0 11-3.001-.001 1.5 1.5 0 013.001.001zm20 0a1.5 1.5 0 11-3.001-.001 1.5 1.5 0 013.001.001zm20 0a1.5 1.5 0 11-3.001-.001 1.5 1.5 0 013.001.001zm20 0a1.5 1.5 0 11-3.001-.001 1.5 1.5 0 013.001.001zm20 0a1.5 1.5 0 11-3.001-.001 1.5 1.5 0 013.001.001zm20 0a1.5 1.5 0 11-3.001-.001 1.5 1.5 0 013.001.001zm20 0a1.5 1.5 0 11-3.001-.001 1.5 1.5 0 013.001.001zm20 0a1.5 1.5 0 11-3.001-.001 1.5 1.5 0 013.001.001zm20 0a1.5 1.5 0 11-3.001-.001 1.5 1.5 0 013.001.001zm20 0a1.5 1.5 0 11-3.001-.001 1.5 1.5 0 013.001.001zm20 0a1.5 1.5 0 11-3.001-.001 1.5 1.5 0 013.001.001zm20 0a1.5 1.5 0 11-3.001-.001 1.5 1.5 0 013.001.001zm20 0a1.5 1.5 0 11-3.001-.001 1.5 1.5 0 013.001.001zm-280 20a1.5 1.5 0 11-3.001-.001 1.5 1.5 0 013.001.001zm20 0a1.5 1.5 0 11-3.001-.001 1.5 1.5 0 013.001.001zm20 0a1.5 1.5 0 11-3.001-.001 1.5 1.5 0 013.001.001zm20 0a1.5 1.5 0 11-3.001-.001 1.5 1.5 0 013.001.001zm20 0a1.5 1.5 0 11-3.001-.001 1.5 1.5 0 013.001.001zm20 0a1.5 1.5 0 11-3.001-.001 1.5 1.5 0 013.001.001zm20 0a1.5 1.5 0 11-3.001-.001 1.5 1.5 0 013.001.001zm20 0a1.5 1.5 0 11-3.001-.001 1.5 1.5 0 013.001.001zm20 0a1.5 1.5 0 11-3.001-.001 1.5 1.5 0 013.001.001zm20 0a1.5 1.5 0 11-3.001-.001 1.5 1.5 0 013.001.001zm20 0a1.5 1.5 0 11-3.001-.001 1.5 1.5 0 013.001.001zm20 0a1.5 1.5 0 11-3.001-.001 1.5 1.5 0 013.001.001zm20 0a1.5 1.5 0 11-3.001-.001 1.5 1.5 0 013.001.001zm20 0a1.5 1.5 0 11-3.001-.001 1.5 1.5 0 013.001.001zm20 0a1.5 1.5 0 11-3.001-.001 1.5 1.5 0 013.001.001zm-280 20a1.5 1.5 0 11-3.001-.001 1.5 1.5 0 013.001.001zm20 0a1.5 1.5 0 11-3.001-.001 1.5 1.5 0 013.001.001zm20 0a1.5 1.5 0 11-3.001-.001 1.5 1.5 0 013.001.001zm20 0a1.5 1.5 0 11-3.001-.001 1.5 1.5 0 013.001.001zm20 0a1.5 1.5 0 11-3.001-.001 1.5 1.5 0 013.001.001zm20 0a1.5 1.5 0 11-3.001-.001 1.5 1.5 0 013.001.001zm20 0a1.5 1.5 0 11-3.001-.001 1.5 1.5 0 013.001.001zm20 0a1.5 1.5 0 11-3.001-.001 1.5 1.5 0 013.001.001zm20 0a1.5 1.5 0 11-3.001-.001 1.5 1.5 0 013.001.001zm20 0a1.5 1.5 0 11-3.001-.001 1.5 1.5 0 013.001.001zm20 0a1.5 1.5 0 11-3.001-.001 1.5 1.5 0 013.001.001zm20 0a1.5 1.5 0 11-3.001-.001 1.5 1.5 0 013.001.001zm20 0a1.5 1.5 0 11-3.001-.001 1.5 1.5 0 013.001.001zm20 0a1.5 1.5 0 11-3.001-.001 1.5 1.5 0 013.001.001zm20 0a1.5 1.5 0 11-3.001-.001 1.5 1.5 0 013.001.001zm-280 20a1.5 1.5 0 11-3.001-.001 1.5 1.5 0 013.001.001zm20 0a1.5 1.5 0 11-3.001-.001 1.5 1.5 0 013.001.001zm20 0a1.5 1.5 0 11-3.001-.001 1.5 1.5 0 013.001.001zm20 0a1.5 1.5 0 11-3.001-.001 1.5 1.5 0 013.001.001zm20 0a1.5 1.5 0 11-3.001-.001 1.5 1.5 0 013.001.001zm20 0a1.5 1.5 0 11-3.001-.001 1.5 1.5 0 013.001.001zm20 0a1.5 1.5 0 11-3.001-.001 1.5 1.5 0 013.001.001zm20 0a1.5 1.5 0 11-3.001-.001 1.5 1.5 0 013.001.001zm20 0a1.5 1.5 0 11-3.001-.001 1.5 1.5 0 013.001.001zm20 0a1.5 1.5 0 11-3.001-.001 1.5 1.5 0 013.001.001zm20 0a1.5 1.5 0 11-3.001-.001 1.5 1.5 0 013.001.001zm20 0a1.5 1.5 0 11-3.001-.001 1.5 1.5 0 013.001.001zm20 0a1.5 1.5 0 11-3.001-.001 1.5 1.5 0 013.001.001zm20 0a1.5 1.5 0 11-3.001-.001 1.5 1.5 0 013.001.001zm20 0a1.5 1.5 0 11-3.001-.001 1.5 1.5 0 013.001.001zm-280 20a1.5 1.5 0 11-3.001-.001 1.5 1.5 0 013.001.001zm20 0a1.5 1.5 0 11-3.001-.001 1.5 1.5 0 013.001.001zm20 0a1.5 1.5 0 11-3.001-.001 1.5 1.5 0 013.001.001zm20 0a1.5 1.5 0 11-3.001-.001 1.5 1.5 0 013.001.001zm20 0a1.5 1.5 0 11-3.001-.001 1.5 1.5 0 013.001.001zm20 0a1.5 1.5 0 11-3.001-.001 1.5 1.5 0 013.001.001zm20 0a1.5 1.5 0 11-3.001-.001 1.5 1.5 0 013.001.001zm20 0a1.5 1.5 0 11-3.001-.001 1.5 1.5 0 013.001.001zm20 0a1.5 1.5 0 11-3.001-.001 1.5 1.5 0 013.001.001zm20 0a1.5 1.5 0 11-3.001-.001 1.5 1.5 0 013.001.001zm20 0a1.5 1.5 0 11-3.001-.001 1.5 1.5 0 013.001.001zm20 0a1.5 1.5 0 11-3.001-.001 1.5 1.5 0 013.001.001zm20 0a1.5 1.5 0 11-3.001-.001 1.5 1.5 0 013.001.001zm20 0a1.5 1.5 0 11-3.001-.001 1.5 1.5 0 013.001.001zm20 0a1.5 1.5 0 11-3.001-.001 1.5 1.5 0 013.001.001zm-280 20a1.5 1.5 0 11-3.001-.001 1.5 1.5 0 013.001.001zm20 0a1.5 1.5 0 11-3.001-.001 1.5 1.5 0 013.001.001zm20 0a1.5 1.5 0 11-3.001-.001 1.5 1.5 0 013.001.001zm20 0a1.5 1.5 0 11-3.001-.001 1.5 1.5 0 013.001.001zm20 0a1.5 1.5 0 11-3.001-.001 1.5 1.5 0 013.001.001zm20 0a1.5 1.5 0 11-3.001-.001 1.5 1.5 0 013.001.001zm20 0a1.5 1.5 0 11-3.001-.001 1.5 1.5 0 013.001.001zm20 0a1.5 1.5 0 11-3.001-.001 1.5 1.5 0 013.001.001zm20 0a1.5 1.5 0 11-3.001-.001 1.5 1.5 0 013.001.001zm20 0a1.5 1.5 0 11-3.001-.001 1.5 1.5 0 013.001.001zm20 0a1.5 1.5 0 11-3.001-.001 1.5 1.5 0 013.001.001zm20 0a1.5 1.5 0 11-3.001-.001 1.5 1.5 0 013.001.001zm20 0a1.5 1.5 0 11-3.001-.001 1.5 1.5 0 013.001.001zm20 0a1.5 1.5 0 11-3.001-.001 1.5 1.5 0 013.001.001zm20 0a1.5 1.5 0 11-3.001-.001 1.5 1.5 0 013.001.001zm-280 20a1.5 1.5 0 11-3.001-.001 1.5 1.5 0 013.001.001zm20 0a1.5 1.5 0 11-3.001-.001 1.5 1.5 0 013.001.001zm20 0a1.5 1.5 0 11-3.001-.001 1.5 1.5 0 013.001.001zm20 0a1.5 1.5 0 11-3.001-.001 1.5 1.5 0 013.001.001zm20 0a1.5 1.5 0 11-3.001-.001 1.5 1.5 0 013.001.001zm20 0a1.5 1.5 0 11-3.001-.001 1.5 1.5 0 013.001.001zm20 0a1.5 1.5 0 11-3.001-.001 1.5 1.5 0 013.001.001zm20 0a1.5 1.5 0 11-3.001-.001 1.5 1.5 0 013.001.001zm20 0a1.5 1.5 0 11-3.001-.001 1.5 1.5 0 013.001.001zm20 0a1.5 1.5 0 11-3.001-.001 1.5 1.5 0 013.001.001zm20 0a1.5 1.5 0 11-3.001-.001 1.5 1.5 0 013.001.001zm20 0a1.5 1.5 0 11-3.001-.001 1.5 1.5 0 013.001.001zm20 0a1.5 1.5 0 11-3.001-.001 1.5 1.5 0 013.001.001zm20 0a1.5 1.5 0 11-3.001-.001 1.5 1.5 0 013.001.001zm20 0a1.5 1.5 0 11-3.001-.001 1.5 1.5 0 013.001.001zm20-220a1.5 1.5 0 11-3.001-.001 1.5 1.5 0 013.001.001zm20 0a1.5 1.5 0 11-3.001-.001 1.5 1.5 0 013.001.001zm20 0a1.5 1.5 0 11-3.001-.001 1.5 1.5 0 013.001.001zm20 0a1.5 1.5 0 11-3.001-.001 1.5 1.5 0 013.001.001zm20 0a1.5 1.5 0 11-3.001-.001 1.5 1.5 0 013.001.001zm20 0a1.5 1.5 0 11-3.001-.001 1.5 1.5 0 013.001.001zm20 0a1.5 1.5 0 11-3.001-.001 1.5 1.5 0 013.001.001zm20 0a1.5 1.5 0 11-3.001-.001 1.5 1.5 0 013.001.001zm20 0a1.5 1.5 0 11-3.001-.001 1.5 1.5 0 013.001.001zm-160 20a1.5 1.5 0 11-3.001-.001 1.5 1.5 0 013.001.001zm20 0a1.5 1.5 0 11-3.001-.001 1.5 1.5 0 013.001.001zm20 0a1.5 1.5 0 11-3.001-.001 1.5 1.5 0 013.001.001zm20 0a1.5 1.5 0 11-3.001-.001 1.5 1.5 0 013.001.001zm20 0a1.5 1.5 0 11-3.001-.001 1.5 1.5 0 013.001.001zm20 0a1.5 1.5 0 11-3.001-.001 1.5 1.5 0 013.001.001zm20 0a1.5 1.5 0 11-3.001-.001 1.5 1.5 0 013.001.001zm20 0a1.5 1.5 0 11-3.001-.001 1.5 1.5 0 013.001.001zm20 0a1.5 1.5 0 11-3.001-.001 1.5 1.5 0 013.001.001zm-160 20a1.5 1.5 0 11-3.001-.001 1.5 1.5 0 013.001.001zm20 0a1.5 1.5 0 11-3.001-.001 1.5 1.5 0 013.001.001zm20 0a1.5 1.5 0 11-3.001-.001 1.5 1.5 0 013.001.001zm20 0a1.5 1.5 0 11-3.001-.001 1.5 1.5 0 013.001.001zm20 0a1.5 1.5 0 11-3.001-.001 1.5 1.5 0 013.001.001zm20 0a1.5 1.5 0 11-3.001-.001 1.5 1.5 0 013.001.001zm20 0a1.5 1.5 0 11-3.001-.001 1.5 1.5 0 013.001.001zm20 0a1.5 1.5 0 11-3.001-.001 1.5 1.5 0 013.001.001zm20 0a1.5 1.5 0 11-3.001-.001 1.5 1.5 0 013.001.001zm-160 20a1.5 1.5 0 11-3.001-.001 1.5 1.5 0 013.001.001zm20 0a1.5 1.5 0 11-3.001-.001 1.5 1.5 0 013.001.001zm20 0a1.5 1.5 0 11-3.001-.001 1.5 1.5 0 013.001.001zm20 0a1.5 1.5 0 11-3.001-.001 1.5 1.5 0 013.001.001zm20 0a1.5 1.5 0 11-3.001-.001 1.5 1.5 0 013.001.001zm20 0a1.5 1.5 0 11-3.001-.001 1.5 1.5 0 013.001.001zm20 0a1.5 1.5 0 11-3.001-.001 1.5 1.5 0 013.001.001zm20 0a1.5 1.5 0 11-3.001-.001 1.5 1.5 0 013.001.001zm20 0a1.5 1.5 0 11-3.001-.001 1.5 1.5 0 013.001.001zm-160 20a1.5 1.5 0 11-3.001-.001 1.5 1.5 0 013.001.001zm20 0a1.5 1.5 0 11-3.001-.001 1.5 1.5 0 013.001.001zm20 0a1.5 1.5 0 11-3.001-.001 1.5 1.5 0 013.001.001zm20 0a1.5 1.5 0 11-3.001-.001 1.5 1.5 0 013.001.001zm20 0a1.5 1.5 0 11-3.001-.001 1.5 1.5 0 013.001.001zm20 0a1.5 1.5 0 11-3.001-.001 1.5 1.5 0 013.001.001zm20 0a1.5 1.5 0 11-3.001-.001 1.5 1.5 0 013.001.001zm20 0a1.5 1.5 0 11-3.001-.001 1.5 1.5 0 013.001.001zm20 0a1.5 1.5 0 11-3.001-.001 1.5 1.5 0 013.001.001zm-160 20a1.5 1.5 0 11-3.001-.001 1.5 1.5 0 013.001.001zm20 0a1.5 1.5 0 11-3.001-.001 1.5 1.5 0 013.001.001zm20 0a1.5 1.5 0 11-3.001-.001 1.5 1.5 0 013.001.001zm20 0a1.5 1.5 0 11-3.001-.001 1.5 1.5 0 013.001.001zm20 0a1.5 1.5 0 11-3.001-.001 1.5 1.5 0 013.001.001zm20 0a1.5 1.5 0 11-3.001-.001 1.5 1.5 0 013.001.001zm20 0a1.5 1.5 0 11-3.001-.001 1.5 1.5 0 013.001.001zm20 0a1.5 1.5 0 11-3.001-.001 1.5 1.5 0 013.001.001zm20 0a1.5 1.5 0 11-3.001-.001 1.5 1.5 0 013.001.001zm-160 20a1.5 1.5 0 11-3.001-.001 1.5 1.5 0 013.001.001zm20 0a1.5 1.5 0 11-3.001-.001 1.5 1.5 0 013.001.001zm20 0a1.5 1.5 0 11-3.001-.001 1.5 1.5 0 013.001.001zm20 0a1.5 1.5 0 11-3.001-.001 1.5 1.5 0 013.001.001zm20 0a1.5 1.5 0 11-3.001-.001 1.5 1.5 0 013.001.001zm20 0a1.5 1.5 0 11-3.001-.001 1.5 1.5 0 013.001.001zm20 0a1.5 1.5 0 11-3.001-.001 1.5 1.5 0 013.001.001zm20 0a1.5 1.5 0 11-3.001-.001 1.5 1.5 0 013.001.001zm20 0a1.5 1.5 0 11-3.001-.001 1.5 1.5 0 013.001.001zm-160 20a1.5 1.5 0 11-3.001-.001 1.5 1.5 0 013.001.001zm20 0a1.5 1.5 0 11-3.001-.001 1.5 1.5 0 013.001.001zm20 0a1.5 1.5 0 11-3.001-.001 1.5 1.5 0 013.001.001zm20 0a1.5 1.5 0 11-3.001-.001 1.5 1.5 0 013.001.001zm20 0a1.5 1.5 0 11-3.001-.001 1.5 1.5 0 013.001.001zm20 0a1.5 1.5 0 11-3.001-.001 1.5 1.5 0 013.001.001zm20 0a1.5 1.5 0 11-3.001-.001 1.5 1.5 0 013.001.001zm20 0a1.5 1.5 0 11-3.001-.001 1.5 1.5 0 013.001.001zm20 0a1.5 1.5 0 11-3.001-.001 1.5 1.5 0 013.001.001zm-160 20a1.5 1.5 0 11-3.001-.001 1.5 1.5 0 013.001.001zm20 0a1.5 1.5 0 11-3.001-.001 1.5 1.5 0 013.001.001zm20 0a1.5 1.5 0 11-3.001-.001 1.5 1.5 0 013.001.001zm20 0a1.5 1.5 0 11-3.001-.001 1.5 1.5 0 013.001.001zm20 0a1.5 1.5 0 11-3.001-.001 1.5 1.5 0 013.001.001zm20 0a1.5 1.5 0 11-3.001-.001 1.5 1.5 0 013.001.001zm20 0a1.5 1.5 0 11-3.001-.001 1.5 1.5 0 013.001.001zm20 0a1.5 1.5 0 11-3.001-.001 1.5 1.5 0 013.001.001zm20 0a1.5 1.5 0 11-3.001-.001 1.5 1.5 0 013.001.001zm-160 20a1.5 1.5 0 11-3.001-.001 1.5 1.5 0 013.001.001zm20 0a1.5 1.5 0 11-3.001-.001 1.5 1.5 0 013.001.001zm20 0a1.5 1.5 0 11-3.001-.001 1.5 1.5 0 013.001.001zm20 0a1.5 1.5 0 11-3.001-.001 1.5 1.5 0 013.001.001zm20 0a1.5 1.5 0 11-3.001-.001 1.5 1.5 0 013.001.001zm20 0a1.5 1.5 0 11-3.001-.001 1.5 1.5 0 013.001.001zm20 0a1.5 1.5 0 11-3.001-.001 1.5 1.5 0 013.001.001zm20 0a1.5 1.5 0 11-3.001-.001 1.5 1.5 0 013.001.001zm20 0a1.5 1.5 0 11-3.001-.001 1.5 1.5 0 013.001.001zm-160 20a1.5 1.5 0 11-3.001-.001 1.5 1.5 0 013.001.001zm20 0a1.5 1.5 0 11-3.001-.001 1.5 1.5 0 013.001.001zm20 0a1.5 1.5 0 11-3.001-.001 1.5 1.5 0 013.001.001zm20 0a1.5 1.5 0 11-3.001-.001 1.5 1.5 0 013.001.001zm20 0a1.5 1.5 0 11-3.001-.001 1.5 1.5 0 013.001.001zm20 0a1.5 1.5 0 11-3.001-.001 1.5 1.5 0 013.001.001zm20 0a1.5 1.5 0 11-3.001-.001 1.5 1.5 0 013.001.001zm20 0a1.5 1.5 0 11-3.001-.001 1.5 1.5 0 013.001.001zm20 0a1.5 1.5 0 11-3.001-.001 1.5 1.5 0 013.001.001zm-160 20a1.5 1.5 0 11-3.001-.001 1.5 1.5 0 013.001.001zm20 0a1.5 1.5 0 11-3.001-.001 1.5 1.5 0 013.001.001zm20 0a1.5 1.5 0 11-3.001-.001 1.5 1.5 0 013.001.001zm20 0a1.5 1.5 0 11-3.001-.001 1.5 1.5 0 013.001.001zm20 0a1.5 1.5 0 11-3.001-.001 1.5 1.5 0 013.001.001zm20 0a1.5 1.5 0 11-3.001-.001 1.5 1.5 0 013.001.001zm20 0a1.5 1.5 0 11-3.001-.001 1.5 1.5 0 013.001.001zm20 0a1.5 1.5 0 11-3.001-.001 1.5 1.5 0 013.001.001zm20 0a1.5 1.5 0 11-3.001-.001 1.5 1.5 0 013.001.001zm-800 20a1.5 1.5 0 11-3 0 1.5 1.5 0 013 0zm20 0a1.5 1.5 0 11-3 0 1.5 1.5 0 013 0zm-20 20a1.5 1.5 0 11-3 0 1.5 1.5 0 013 0zm20 0a1.5 1.5 0 11-3 0 1.5 1.5 0 013 0zm-20 20a1.5 1.5 0 11-3 0 1.5 1.5 0 013 0zm20 0a1.5 1.5 0 11-3 0 1.5 1.5 0 013 0zm-20 20a1.5 1.5 0 11-3 0 1.5 1.5 0 013 0zm20 0a1.5 1.5 0 11-3 0 1.5 1.5 0 013 0zm-20 20a1.5 1.5 0 11-3 0 1.5 1.5 0 013 0zm20 0a1.5 1.5 0 11-3 0 1.5 1.5 0 013 0zm0 20a1.5 1.5 0 11-3 0 1.5 1.5 0 013 0zm20-100a1.5 1.5 0 11-3 0 1.5 1.5 0 013 0zm20 0a1.5 1.5 0 11-3 0 1.5 1.5 0 013 0zm20 0a1.5 1.5 0 11-3.001-.001 1.5 1.5 0 013.001.001zm20 0a1.5 1.5 0 11-3.001-.001 1.5 1.5 0 013.001.001zm20 0a1.5 1.5 0 11-3.001-.001 1.5 1.5 0 013.001.001zm20 0a1.5 1.5 0 11-3.001-.001 1.5 1.5 0 013.001.001zm20 0a1.5 1.5 0 11-3.001-.001 1.5 1.5 0 013.001.001zm20 0a1.5 1.5 0 11-3.001-.001 1.5 1.5 0 013.001.001zm20 0a1.5 1.5 0 11-3.001-.001 1.5 1.5 0 013.001.001zm20 0a1.5 1.5 0 11-3.001-.001 1.5 1.5 0 013.001.001zm20 0a1.5 1.5 0 11-3.001-.001 1.5 1.5 0 013.001.001zm20 0a1.5 1.5 0 11-3.001-.001 1.5 1.5 0 013.001.001zm20 0a1.5 1.5 0 11-3.001-.001 1.5 1.5 0 013.001.001zm20 0a1.5 1.5 0 11-3.001-.001 1.5 1.5 0 013.001.001zm20 0a1.5 1.5 0 11-3.001-.001 1.5 1.5 0 013.001.001zm-280 20a1.5 1.5 0 11-3 0 1.5 1.5 0 013 0zm20 0a1.5 1.5 0 11-3 0 1.5 1.5 0 013 0zm20 0a1.5 1.5 0 11-3.001-.001 1.5 1.5 0 013.001.001zm20 0a1.5 1.5 0 11-3.001-.001 1.5 1.5 0 013.001.001zm20 0a1.5 1.5 0 11-3.001-.001 1.5 1.5 0 013.001.001zm20 0a1.5 1.5 0 11-3.001-.001 1.5 1.5 0 013.001.001zm20 0a1.5 1.5 0 11-3.001-.001 1.5 1.5 0 013.001.001zm20 0a1.5 1.5 0 11-3.001-.001 1.5 1.5 0 013.001.001zm20 0a1.5 1.5 0 11-3.001-.001 1.5 1.5 0 013.001.001zm20 0a1.5 1.5 0 11-3.001-.001 1.5 1.5 0 013.001.001zm20 0a1.5 1.5 0 11-3.001-.001 1.5 1.5 0 013.001.001zm20 0a1.5 1.5 0 11-3.001-.001 1.5 1.5 0 013.001.001zm20 0a1.5 1.5 0 11-3.001-.001 1.5 1.5 0 013.001.001zm20 0a1.5 1.5 0 11-3.001-.001 1.5 1.5 0 013.001.001zm20 0a1.5 1.5 0 11-3.001-.001 1.5 1.5 0 013.001.001zm-280 20a1.5 1.5 0 11-3 0 1.5 1.5 0 013 0zm20 0a1.5 1.5 0 11-3 0 1.5 1.5 0 013 0zm20 0a1.5 1.5 0 11-3.001-.001 1.5 1.5 0 013.001.001zm20 0a1.5 1.5 0 11-3.001-.001 1.5 1.5 0 013.001.001zm20 0a1.5 1.5 0 11-3.001-.001 1.5 1.5 0 013.001.001zm20 0a1.5 1.5 0 11-3.001-.001 1.5 1.5 0 013.001.001zm20 0a1.5 1.5 0 11-3.001-.001 1.5 1.5 0 013.001.001zm20 0a1.5 1.5 0 11-3.001-.001 1.5 1.5 0 013.001.001zm20 0a1.5 1.5 0 11-3.001-.001 1.5 1.5 0 013.001.001zm20 0a1.5 1.5 0 11-3.001-.001 1.5 1.5 0 013.001.001zm20 0a1.5 1.5 0 11-3.001-.001 1.5 1.5 0 013.001.001zm20 0a1.5 1.5 0 11-3.001-.001 1.5 1.5 0 013.001.001zm20 0a1.5 1.5 0 11-3.001-.001 1.5 1.5 0 013.001.001zm20 0a1.5 1.5 0 11-3.001-.001 1.5 1.5 0 013.001.001zm20 0a1.5 1.5 0 11-3.001-.001 1.5 1.5 0 013.001.001zm-280 20a1.5 1.5 0 11-3 0 1.5 1.5 0 013 0zm20 0a1.5 1.5 0 11-3 0 1.5 1.5 0 013 0zm20 0a1.5 1.5 0 11-3.001-.001 1.5 1.5 0 013.001.001zm20 0a1.5 1.5 0 11-3.001-.001 1.5 1.5 0 013.001.001zm20 0a1.5 1.5 0 11-3.001-.001 1.5 1.5 0 013.001.001zm20 0a1.5 1.5 0 11-3.001-.001 1.5 1.5 0 013.001.001zm20 0a1.5 1.5 0 11-3.001-.001 1.5 1.5 0 013.001.001zm20 0a1.5 1.5 0 11-3.001-.001 1.5 1.5 0 013.001.001zm20 0a1.5 1.5 0 11-3.001-.001 1.5 1.5 0 013.001.001zm20 0a1.5 1.5 0 11-3.001-.001 1.5 1.5 0 013.001.001zm20 0a1.5 1.5 0 11-3.001-.001 1.5 1.5 0 013.001.001zm20 0a1.5 1.5 0 11-3.001-.001 1.5 1.5 0 013.001.001zm20 0a1.5 1.5 0 11-3.001-.001 1.5 1.5 0 013.001.001zm20 0a1.5 1.5 0 11-3.001-.001 1.5 1.5 0 013.001.001zm20 0a1.5 1.5 0 11-3.001-.001 1.5 1.5 0 013.001.001zm-280 20a1.5 1.5 0 11-3 0 1.5 1.5 0 013 0zm20 0a1.5 1.5 0 11-3 0 1.5 1.5 0 013 0zm20 0a1.5 1.5 0 11-3.001-.001 1.5 1.5 0 013.001.001zm20 0a1.5 1.5 0 11-3.001-.001 1.5 1.5 0 013.001.001zm20 0a1.5 1.5 0 11-3.001-.001 1.5 1.5 0 013.001.001zm20 0a1.5 1.5 0 11-3.001-.001 1.5 1.5 0 013.001.001zm20 0a1.5 1.5 0 11-3.001-.001 1.5 1.5 0 013.001.001zm20 0a1.5 1.5 0 11-3.001-.001 1.5 1.5 0 013.001.001zm20 0a1.5 1.5 0 11-3.001-.001 1.5 1.5 0 013.001.001zm20 0a1.5 1.5 0 11-3.001-.001 1.5 1.5 0 013.001.001zm20 0a1.5 1.5 0 11-3.001-.001 1.5 1.5 0 013.001.001zm20 0a1.5 1.5 0 11-3.001-.001 1.5 1.5 0 013.001.001zm20 0a1.5 1.5 0 11-3.001-.001 1.5 1.5 0 013.001.001zm20 0a1.5 1.5 0 11-3.001-.001 1.5 1.5 0 013.001.001zm20 0a1.5 1.5 0 11-3.001-.001 1.5 1.5 0 013.001.001zm-280 20a1.5 1.5 0 11-3 0 1.5 1.5 0 013 0zm20 0a1.5 1.5 0 11-3 0 1.5 1.5 0 013 0zm20 0a1.5 1.5 0 11-3.001-.001 1.5 1.5 0 013.001.001zm20 0a1.5 1.5 0 11-3.001-.001 1.5 1.5 0 013.001.001zm20 0a1.5 1.5 0 11-3.001-.001 1.5 1.5 0 013.001.001zm20 0a1.5 1.5 0 11-3.001-.001 1.5 1.5 0 013.001.001zm20 0a1.5 1.5 0 11-3.001-.001 1.5 1.5 0 013.001.001zm20 0a1.5 1.5 0 11-3.001-.001 1.5 1.5 0 013.001.001zm20 0a1.5 1.5 0 11-3.001-.001 1.5 1.5 0 013.001.001zm20 0a1.5 1.5 0 11-3.001-.001 1.5 1.5 0 013.001.001zm20 0a1.5 1.5 0 11-3.001-.001 1.5 1.5 0 013.001.001zm20 0a1.5 1.5 0 11-3.001-.001 1.5 1.5 0 013.001.001zm20 0a1.5 1.5 0 11-3.001-.001 1.5 1.5 0 013.001.001zm20 0a1.5 1.5 0 11-3.001-.001 1.5 1.5 0 013.001.001zm20 0a1.5 1.5 0 11-3.001-.001 1.5 1.5 0 013.001.001zm-280 20a1.5 1.5 0 11-3 0 1.5 1.5 0 013 0zm20 0a1.5 1.5 0 11-3 0 1.5 1.5 0 013 0zm20 0a1.5 1.5 0 11-3.001-.001 1.5 1.5 0 013.001.001zm20 0a1.5 1.5 0 11-3.001-.001 1.5 1.5 0 013.001.001zm20 0a1.5 1.5 0 11-3.001-.001 1.5 1.5 0 013.001.001zm20 0a1.5 1.5 0 11-3.001-.001 1.5 1.5 0 013.001.001zm20 0a1.5 1.5 0 11-3.001-.001 1.5 1.5 0 013.001.001zm20 0a1.5 1.5 0 11-3.001-.001 1.5 1.5 0 013.001.001zm20 0a1.5 1.5 0 11-3.001-.001 1.5 1.5 0 013.001.001zm20 0a1.5 1.5 0 11-3.001-.001 1.5 1.5 0 013.001.001zm20 0a1.5 1.5 0 11-3.001-.001 1.5 1.5 0 013.001.001zm20 0a1.5 1.5 0 11-3.001-.001 1.5 1.5 0 013.001.001zm20 0a1.5 1.5 0 11-3.001-.001 1.5 1.5 0 013.001.001zm20 0a1.5 1.5 0 11-3.001-.001 1.5 1.5 0 013.001.001zm20 0a1.5 1.5 0 11-3.001-.001 1.5 1.5 0 013.001.001zm-260 20a1.5 1.5 0 11-3 0 1.5 1.5 0 013 0zm20 0a1.5 1.5 0 11-3.001-.001 1.5 1.5 0 013.001.001zm20 0a1.5 1.5 0 11-3.001-.001 1.5 1.5 0 013.001.001zm20 0a1.5 1.5 0 11-3.001-.001 1.5 1.5 0 013.001.001zm20 0a1.5 1.5 0 11-3.001-.001 1.5 1.5 0 013.001.001zm20 0a1.5 1.5 0 11-3.001-.001 1.5 1.5 0 013.001.001zm20 0a1.5 1.5 0 11-3.001-.001 1.5 1.5 0 013.001.001zm20 0a1.5 1.5 0 11-3.001-.001 1.5 1.5 0 013.001.001zm20 0a1.5 1.5 0 11-3.001-.001 1.5 1.5 0 013.001.001zm20 0a1.5 1.5 0 11-3.001-.001 1.5 1.5 0 013.001.001zm20 0a1.5 1.5 0 11-3.001-.001 1.5 1.5 0 013.001.001zm20 0a1.5 1.5 0 11-3.001-.001 1.5 1.5 0 013.001.001zm20 0a1.5 1.5 0 11-3.001-.001 1.5 1.5 0 013.001.001zm20 0a1.5 1.5 0 11-3.001-.001 1.5 1.5 0 013.001.001zm-260 20a1.5 1.5 0 11-3 0 1.5 1.5 0 013 0zm20 0a1.5 1.5 0 11-3.001-.001 1.5 1.5 0 013.001.001zm20 0a1.5 1.5 0 11-3.001-.001 1.5 1.5 0 013.001.001zm20 0a1.5 1.5 0 11-3.001-.001 1.5 1.5 0 013.001.001zm20 0a1.5 1.5 0 11-3.001-.001 1.5 1.5 0 013.001.001zm20 0a1.5 1.5 0 11-3.001-.001 1.5 1.5 0 013.001.001zm20 0a1.5 1.5 0 11-3.001-.001 1.5 1.5 0 013.001.001zm20 0a1.5 1.5 0 11-3.001-.001 1.5 1.5 0 013.001.001zm20 0a1.5 1.5 0 11-3.001-.001 1.5 1.5 0 013.001.001zm20 0a1.5 1.5 0 11-3.001-.001 1.5 1.5 0 013.001.001zm20 0a1.5 1.5 0 11-3.001-.001 1.5 1.5 0 013.001.001zm20 0a1.5 1.5 0 11-3.001-.001 1.5 1.5 0 013.001.001zm20 0a1.5 1.5 0 11-3.001-.001 1.5 1.5 0 013.001.001zm20 0a1.5 1.5 0 11-3.001-.001 1.5 1.5 0 013.001.001zm-260 20a1.5 1.5 0 11-3 0 1.5 1.5 0 013 0zm20 0a1.5 1.5 0 11-3.001-.001 1.5 1.5 0 013.001.001zm20 0a1.5 1.5 0 11-3.001-.001 1.5 1.5 0 013.001.001zm20 0a1.5 1.5 0 11-3.001-.001 1.5 1.5 0 013.001.001zm20 0a1.5 1.5 0 11-3.001-.001 1.5 1.5 0 013.001.001zm20 0a1.5 1.5 0 11-3.001-.001 1.5 1.5 0 013.001.001zm20 0a1.5 1.5 0 11-3.001-.001 1.5 1.5 0 013.001.001zm20 0a1.5 1.5 0 11-3.001-.001 1.5 1.5 0 013.001.001zm20 0a1.5 1.5 0 11-3.001-.001 1.5 1.5 0 013.001.001zm20 0a1.5 1.5 0 11-3.001-.001 1.5 1.5 0 013.001.001zm20 0a1.5 1.5 0 11-3.001-.001 1.5 1.5 0 013.001.001zm20 0a1.5 1.5 0 11-3.001-.001 1.5 1.5 0 013.001.001zm20 0a1.5 1.5 0 11-3.001-.001 1.5 1.5 0 013.001.001zm20 0a1.5 1.5 0 11-3.001-.001 1.5 1.5 0 013.001.001zm-240 20a1.5 1.5 0 11-3.001-.001 1.5 1.5 0 013.001.001zm20 0a1.5 1.5 0 11-3.001-.001 1.5 1.5 0 013.001.001zm20 0a1.5 1.5 0 11-3.001-.001 1.5 1.5 0 013.001.001zm20 0a1.5 1.5 0 11-3.001-.001 1.5 1.5 0 013.001.001zm20 0a1.5 1.5 0 11-3.001-.001 1.5 1.5 0 013.001.001zm20 0a1.5 1.5 0 11-3.001-.001 1.5 1.5 0 013.001.001zm20 0a1.5 1.5 0 11-3.001-.001 1.5 1.5 0 013.001.001zm20 0a1.5 1.5 0 11-3.001-.001 1.5 1.5 0 013.001.001zm20 0a1.5 1.5 0 11-3.001-.001 1.5 1.5 0 013.001.001zm20 0a1.5 1.5 0 11-3.001-.001 1.5 1.5 0 013.001.001zm20 0a1.5 1.5 0 11-3.001-.001 1.5 1.5 0 013.001.001zm20 0a1.5 1.5 0 11-3.001-.001 1.5 1.5 0 013.001.001zm20 0a1.5 1.5 0 11-3.001-.001 1.5 1.5 0 013.001.001zm-220 20a1.5 1.5 0 11-3.001-.001 1.5 1.5 0 013.001.001zm20 0a1.5 1.5 0 11-3.001-.001 1.5 1.5 0 013.001.001zm20 0a1.5 1.5 0 11-3.001-.001 1.5 1.5 0 013.001.001zm20 0a1.5 1.5 0 11-3.001-.001 1.5 1.5 0 013.001.001zm20 0a1.5 1.5 0 11-3.001-.001 1.5 1.5 0 013.001.001zm20 0a1.5 1.5 0 11-3.001-.001 1.5 1.5 0 013.001.001zm20 0a1.5 1.5 0 11-3.001-.001 1.5 1.5 0 013.001.001zm20 0a1.5 1.5 0 11-3.001-.001 1.5 1.5 0 013.001.001zm20 0a1.5 1.5 0 11-3.001-.001 1.5 1.5 0 013.001.001zm20 0a1.5 1.5 0 11-3.001-.001 1.5 1.5 0 013.001.001zm20 0a1.5 1.5 0 11-3.001-.001 1.5 1.5 0 013.001.001zm20 0a1.5 1.5 0 11-3.001-.001 1.5 1.5 0 013.001.001zm20-220a1.5 1.5 0 11-3.001-.001 1.5 1.5 0 013.001.001zm20 0a1.5 1.5 0 11-3.001-.001 1.5 1.5 0 013.001.001zm20 0a1.5 1.5 0 11-3.001-.001 1.5 1.5 0 013.001.001zm20 0a1.5 1.5 0 11-3.001-.001 1.5 1.5 0 013.001.001zm20 0a1.5 1.5 0 11-3.001-.001 1.5 1.5 0 013.001.001zm20 0a1.5 1.5 0 11-3.001-.001 1.5 1.5 0 013.001.001zm20 0a1.5 1.5 0 11-3.001-.001 1.5 1.5 0 013.001.001zm20 0a1.5 1.5 0 11-3.001-.001 1.5 1.5 0 013.001.001zm20 0a1.5 1.5 0 11-3.001-.001 1.5 1.5 0 013.001.001zm20 0a1.5 1.5 0 11-3.001-.001 1.5 1.5 0 013.001.001zm20 0a1.5 1.5 0 11-3.001-.001 1.5 1.5 0 013.001.001zm20 0a1.5 1.5 0 11-3.001-.001 1.5 1.5 0 013.001.001zm20 0a1.5 1.5 0 11-3.001-.001 1.5 1.5 0 013.001.001zm20 0a1.5 1.5 0 11-3.001-.001 1.5 1.5 0 013.001.001zm20 0a1.5 1.5 0 11-3.001-.001 1.5 1.5 0 013.001.001zm-280 20a1.5 1.5 0 11-3.001-.001 1.5 1.5 0 013.001.001zm20 0a1.5 1.5 0 11-3.001-.001 1.5 1.5 0 013.001.001zm20 0a1.5 1.5 0 11-3.001-.001 1.5 1.5 0 013.001.001zm20 0a1.5 1.5 0 11-3.001-.001 1.5 1.5 0 013.001.001zm20 0a1.5 1.5 0 11-3.001-.001 1.5 1.5 0 013.001.001zm20 0a1.5 1.5 0 11-3.001-.001 1.5 1.5 0 013.001.001zm20 0a1.5 1.5 0 11-3.001-.001 1.5 1.5 0 013.001.001zm20 0a1.5 1.5 0 11-3.001-.001 1.5 1.5 0 013.001.001zm20 0a1.5 1.5 0 11-3.001-.001 1.5 1.5 0 013.001.001zm20 0a1.5 1.5 0 11-3.001-.001 1.5 1.5 0 013.001.001zm20 0a1.5 1.5 0 11-3.001-.001 1.5 1.5 0 013.001.001zm20 0a1.5 1.5 0 11-3.001-.001 1.5 1.5 0 013.001.001zm20 0a1.5 1.5 0 11-3.001-.001 1.5 1.5 0 013.001.001zm20 0a1.5 1.5 0 11-3.001-.001 1.5 1.5 0 013.001.001zm20 0a1.5 1.5 0 11-3.001-.001 1.5 1.5 0 013.001.001zm-280 20a1.5 1.5 0 11-3.001-.001 1.5 1.5 0 013.001.001zm20 0a1.5 1.5 0 11-3.001-.001 1.5 1.5 0 013.001.001zm20 0a1.5 1.5 0 11-3.001-.001 1.5 1.5 0 013.001.001zm20 0a1.5 1.5 0 11-3.001-.001 1.5 1.5 0 013.001.001zm20 0a1.5 1.5 0 11-3.001-.001 1.5 1.5 0 013.001.001zm20 0a1.5 1.5 0 11-3.001-.001 1.5 1.5 0 013.001.001zm20 0a1.5 1.5 0 11-3.001-.001 1.5 1.5 0 013.001.001zm20 0a1.5 1.5 0 11-3.001-.001 1.5 1.5 0 013.001.001zm20 0a1.5 1.5 0 11-3.001-.001 1.5 1.5 0 013.001.001zm20 0a1.5 1.5 0 11-3.001-.001 1.5 1.5 0 013.001.001zm20 0a1.5 1.5 0 11-3.001-.001 1.5 1.5 0 013.001.001zm20 0a1.5 1.5 0 11-3.001-.001 1.5 1.5 0 013.001.001zm20 0a1.5 1.5 0 11-3.001-.001 1.5 1.5 0 013.001.001zm20 0a1.5 1.5 0 11-3.001-.001 1.5 1.5 0 013.001.001zm20 0a1.5 1.5 0 11-3.001-.001 1.5 1.5 0 013.001.001zm-280 20a1.5 1.5 0 11-3.001-.001 1.5 1.5 0 013.001.001zm20 0a1.5 1.5 0 11-3.001-.001 1.5 1.5 0 013.001.001zm20 0a1.5 1.5 0 11-3.001-.001 1.5 1.5 0 013.001.001zm20 0a1.5 1.5 0 11-3.001-.001 1.5 1.5 0 013.001.001zm20 0a1.5 1.5 0 11-3.001-.001 1.5 1.5 0 013.001.001zm20 0a1.5 1.5 0 11-3.001-.001 1.5 1.5 0 013.001.001zm20 0a1.5 1.5 0 11-3.001-.001 1.5 1.5 0 013.001.001zm20 0a1.5 1.5 0 11-3.001-.001 1.5 1.5 0 013.001.001zm20 0a1.5 1.5 0 11-3.001-.001 1.5 1.5 0 013.001.001zm20 0a1.5 1.5 0 11-3.001-.001 1.5 1.5 0 013.001.001zm20 0a1.5 1.5 0 11-3.001-.001 1.5 1.5 0 013.001.001zm20 0a1.5 1.5 0 11-3.001-.001 1.5 1.5 0 013.001.001zm20 0a1.5 1.5 0 11-3.001-.001 1.5 1.5 0 013.001.001zm20 0a1.5 1.5 0 11-3.001-.001 1.5 1.5 0 013.001.001zm20 0a1.5 1.5 0 11-3.001-.001 1.5 1.5 0 013.001.001zm-280 20a1.5 1.5 0 11-3.001-.001 1.5 1.5 0 013.001.001zm20 0a1.5 1.5 0 11-3.001-.001 1.5 1.5 0 013.001.001zm20 0a1.5 1.5 0 11-3.001-.001 1.5 1.5 0 013.001.001zm20 0a1.5 1.5 0 11-3.001-.001 1.5 1.5 0 013.001.001zm20 0a1.5 1.5 0 11-3.001-.001 1.5 1.5 0 013.001.001zm20 0a1.5 1.5 0 11-3.001-.001 1.5 1.5 0 013.001.001zm20 0a1.5 1.5 0 11-3.001-.001 1.5 1.5 0 013.001.001zm20 0a1.5 1.5 0 11-3.001-.001 1.5 1.5 0 013.001.001zm20 0a1.5 1.5 0 11-3.001-.001 1.5 1.5 0 013.001.001zm20 0a1.5 1.5 0 11-3.001-.001 1.5 1.5 0 013.001.001zm20 0a1.5 1.5 0 11-3.001-.001 1.5 1.5 0 013.001.001zm20 0a1.5 1.5 0 11-3.001-.001 1.5 1.5 0 013.001.001zm20 0a1.5 1.5 0 11-3.001-.001 1.5 1.5 0 013.001.001zm20 0a1.5 1.5 0 11-3.001-.001 1.5 1.5 0 013.001.001zm20 0a1.5 1.5 0 11-3.001-.001 1.5 1.5 0 013.001.001zm-280 20a1.5 1.5 0 11-3.001-.001 1.5 1.5 0 013.001.001zm20 0a1.5 1.5 0 11-3.001-.001 1.5 1.5 0 013.001.001zm20 0a1.5 1.5 0 11-3.001-.001 1.5 1.5 0 013.001.001zm20 0a1.5 1.5 0 11-3.001-.001 1.5 1.5 0 013.001.001zm20 0a1.5 1.5 0 11-3.001-.001 1.5 1.5 0 013.001.001zm20 0a1.5 1.5 0 11-3.001-.001 1.5 1.5 0 013.001.001zm20 0a1.5 1.5 0 11-3.001-.001 1.5 1.5 0 013.001.001zm20 0a1.5 1.5 0 11-3.001-.001 1.5 1.5 0 013.001.001zm20 0a1.5 1.5 0 11-3.001-.001 1.5 1.5 0 013.001.001zm20 0a1.5 1.5 0 11-3.001-.001 1.5 1.5 0 013.001.001zm20 0a1.5 1.5 0 11-3.001-.001 1.5 1.5 0 013.001.001zm20 0a1.5 1.5 0 11-3.001-.001 1.5 1.5 0 013.001.001zm20 0a1.5 1.5 0 11-3.001-.001 1.5 1.5 0 013.001.001zm20 0a1.5 1.5 0 11-3.001-.001 1.5 1.5 0 013.001.001zm20 0a1.5 1.5 0 11-3.001-.001 1.5 1.5 0 013.001.001zm-280 20a1.5 1.5 0 11-3.001-.001 1.5 1.5 0 013.001.001zm20 0a1.5 1.5 0 11-3.001-.001 1.5 1.5 0 013.001.001zm20 0a1.5 1.5 0 11-3.001-.001 1.5 1.5 0 013.001.001zm20 0a1.5 1.5 0 11-3.001-.001 1.5 1.5 0 013.001.001zm20 0a1.5 1.5 0 11-3.001-.001 1.5 1.5 0 013.001.001zm20 0a1.5 1.5 0 11-3.001-.001 1.5 1.5 0 013.001.001zm20 0a1.5 1.5 0 11-3.001-.001 1.5 1.5 0 013.001.001zm20 0a1.5 1.5 0 11-3.001-.001 1.5 1.5 0 013.001.001zm20 0a1.5 1.5 0 11-3.001-.001 1.5 1.5 0 013.001.001zm20 0a1.5 1.5 0 11-3.001-.001 1.5 1.5 0 013.001.001zm20 0a1.5 1.5 0 11-3.001-.001 1.5 1.5 0 013.001.001zm20 0a1.5 1.5 0 11-3.001-.001 1.5 1.5 0 013.001.001zm20 0a1.5 1.5 0 11-3.001-.001 1.5 1.5 0 013.001.001zm20 0a1.5 1.5 0 11-3.001-.001 1.5 1.5 0 013.001.001zm20 0a1.5 1.5 0 11-3.001-.001 1.5 1.5 0 013.001.001zm-280 20a1.5 1.5 0 11-3.001-.001 1.5 1.5 0 013.001.001zm20 0a1.5 1.5 0 11-3.001-.001 1.5 1.5 0 013.001.001zm20 0a1.5 1.5 0 11-3.001-.001 1.5 1.5 0 013.001.001zm20 0a1.5 1.5 0 11-3.001-.001 1.5 1.5 0 013.001.001zm20 0a1.5 1.5 0 11-3.001-.001 1.5 1.5 0 013.001.001zm20 0a1.5 1.5 0 11-3.001-.001 1.5 1.5 0 013.001.001zm20 0a1.5 1.5 0 11-3.001-.001 1.5 1.5 0 013.001.001zm20 0a1.5 1.5 0 11-3.001-.001 1.5 1.5 0 013.001.001zm20 0a1.5 1.5 0 11-3.001-.001 1.5 1.5 0 013.001.001zm20 0a1.5 1.5 0 11-3.001-.001 1.5 1.5 0 013.001.001zm20 0a1.5 1.5 0 11-3.001-.001 1.5 1.5 0 013.001.001zm20 0a1.5 1.5 0 11-3.001-.001 1.5 1.5 0 013.001.001zm20 0a1.5 1.5 0 11-3.001-.001 1.5 1.5 0 013.001.001zm20 0a1.5 1.5 0 11-3.001-.001 1.5 1.5 0 013.001.001zm20 0a1.5 1.5 0 11-3.001-.001 1.5 1.5 0 013.001.001zm-280 20a1.5 1.5 0 11-3.001-.001 1.5 1.5 0 013.001.001zm20 0a1.5 1.5 0 11-3.001-.001 1.5 1.5 0 013.001.001zm20 0a1.5 1.5 0 11-3.001-.001 1.5 1.5 0 013.001.001zm20 0a1.5 1.5 0 11-3.001-.001 1.5 1.5 0 013.001.001zm20 0a1.5 1.5 0 11-3.001-.001 1.5 1.5 0 013.001.001zm20 0a1.5 1.5 0 11-3.001-.001 1.5 1.5 0 013.001.001zm20 0a1.5 1.5 0 11-3.001-.001 1.5 1.5 0 013.001.001zm20 0a1.5 1.5 0 11-3.001-.001 1.5 1.5 0 013.001.001zm20 0a1.5 1.5 0 11-3.001-.001 1.5 1.5 0 013.001.001zm20 0a1.5 1.5 0 11-3.001-.001 1.5 1.5 0 013.001.001zm20 0a1.5 1.5 0 11-3.001-.001 1.5 1.5 0 013.001.001zm20 0a1.5 1.5 0 11-3.001-.001 1.5 1.5 0 013.001.001zm20 0a1.5 1.5 0 11-3.001-.001 1.5 1.5 0 013.001.001zm20 0a1.5 1.5 0 11-3.001-.001 1.5 1.5 0 013.001.001zm20 0a1.5 1.5 0 11-3.001-.001 1.5 1.5 0 013.001.001zm-280 20a1.5 1.5 0 11-3.001-.001 1.5 1.5 0 013.001.001zm20 0a1.5 1.5 0 11-3.001-.001 1.5 1.5 0 013.001.001zm20 0a1.5 1.5 0 11-3.001-.001 1.5 1.5 0 013.001.001zm20 0a1.5 1.5 0 11-3.001-.001 1.5 1.5 0 013.001.001zm20 0a1.5 1.5 0 11-3.001-.001 1.5 1.5 0 013.001.001zm20 0a1.5 1.5 0 11-3.001-.001 1.5 1.5 0 013.001.001zm20 0a1.5 1.5 0 11-3.001-.001 1.5 1.5 0 013.001.001zm20 0a1.5 1.5 0 11-3.001-.001 1.5 1.5 0 013.001.001zm20 0a1.5 1.5 0 11-3.001-.001 1.5 1.5 0 013.001.001zm20 0a1.5 1.5 0 11-3.001-.001 1.5 1.5 0 013.001.001zm20 0a1.5 1.5 0 11-3.001-.001 1.5 1.5 0 013.001.001zm20 0a1.5 1.5 0 11-3.001-.001 1.5 1.5 0 013.001.001zm20 0a1.5 1.5 0 11-3.001-.001 1.5 1.5 0 013.001.001zm20 0a1.5 1.5 0 11-3.001-.001 1.5 1.5 0 013.001.001zm20 0a1.5 1.5 0 11-3.001-.001 1.5 1.5 0 013.001.001zm-280 20a1.5 1.5 0 11-3.001-.001 1.5 1.5 0 013.001.001zm20 0a1.5 1.5 0 11-3.001-.001 1.5 1.5 0 013.001.001zm20 0a1.5 1.5 0 11-3.001-.001 1.5 1.5 0 013.001.001zm20 0a1.5 1.5 0 11-3.001-.001 1.5 1.5 0 013.001.001zm20 0a1.5 1.5 0 11-3.001-.001 1.5 1.5 0 013.001.001zm20 0a1.5 1.5 0 11-3.001-.001 1.5 1.5 0 013.001.001zm20 0a1.5 1.5 0 11-3.001-.001 1.5 1.5 0 013.001.001zm20 0a1.5 1.5 0 11-3.001-.001 1.5 1.5 0 013.001.001zm20 0a1.5 1.5 0 11-3.001-.001 1.5 1.5 0 013.001.001zm20 0a1.5 1.5 0 11-3.001-.001 1.5 1.5 0 013.001.001zm20 0a1.5 1.5 0 11-3.001-.001 1.5 1.5 0 013.001.001zm20 0a1.5 1.5 0 11-3.001-.001 1.5 1.5 0 013.001.001zm20 0a1.5 1.5 0 11-3.001-.001 1.5 1.5 0 013.001.001zm20 0a1.5 1.5 0 11-3.001-.001 1.5 1.5 0 013.001.001zm20 0a1.5 1.5 0 11-3.001-.001 1.5 1.5 0 013.001.001zm-280 20a1.5 1.5 0 11-3.001-.001 1.5 1.5 0 013.001.001zm20 0a1.5 1.5 0 11-3.001-.001 1.5 1.5 0 013.001.001zm20 0a1.5 1.5 0 11-3.001-.001 1.5 1.5 0 013.001.001zm20 0a1.5 1.5 0 11-3.001-.001 1.5 1.5 0 013.001.001zm20 0a1.5 1.5 0 11-3.001-.001 1.5 1.5 0 013.001.001zm20 0a1.5 1.5 0 11-3.001-.001 1.5 1.5 0 013.001.001zm20 0a1.5 1.5 0 11-3.001-.001 1.5 1.5 0 013.001.001zm20 0a1.5 1.5 0 11-3.001-.001 1.5 1.5 0 013.001.001zm20 0a1.5 1.5 0 11-3.001-.001 1.5 1.5 0 013.001.001zm20 0a1.5 1.5 0 11-3.001-.001 1.5 1.5 0 013.001.001zm20 0a1.5 1.5 0 11-3.001-.001 1.5 1.5 0 013.001.001zm20 0a1.5 1.5 0 11-3.001-.001 1.5 1.5 0 013.001.001zm20 0a1.5 1.5 0 11-3.001-.001 1.5 1.5 0 013.001.001zm20 0a1.5 1.5 0 11-3.001-.001 1.5 1.5 0 013.001.001zm20 0a1.5 1.5 0 11-3.001-.001 1.5 1.5 0 013.001.001zm20-220a1.5 1.5 0 11-3.001-.001 1.5 1.5 0 013.001.001zm20 0a1.5 1.5 0 11-3.001-.001 1.5 1.5 0 013.001.001zm20 0a1.5 1.5 0 11-3.001-.001 1.5 1.5 0 013.001.001zm20 0a1.5 1.5 0 11-3.001-.001 1.5 1.5 0 013.001.001zm20 0a1.5 1.5 0 11-3.001-.001 1.5 1.5 0 013.001.001zm20 0a1.5 1.5 0 11-3.001-.001 1.5 1.5 0 013.001.001zm20 0a1.5 1.5 0 11-3.001-.001 1.5 1.5 0 013.001.001zm20 0a1.5 1.5 0 11-3.001-.001 1.5 1.5 0 013.001.001zm20 0a1.5 1.5 0 11-3.001-.001 1.5 1.5 0 013.001.001zm-160 20a1.5 1.5 0 11-3.001-.001 1.5 1.5 0 013.001.001zm20 0a1.5 1.5 0 11-3.001-.001 1.5 1.5 0 013.001.001zm20 0a1.5 1.5 0 11-3.001-.001 1.5 1.5 0 013.001.001zm20 0a1.5 1.5 0 11-3.001-.001 1.5 1.5 0 013.001.001zm20 0a1.5 1.5 0 11-3.001-.001 1.5 1.5 0 013.001.001zm20 0a1.5 1.5 0 11-3.001-.001 1.5 1.5 0 013.001.001zm20 0a1.5 1.5 0 11-3.001-.001 1.5 1.5 0 013.001.001zm20 0a1.5 1.5 0 11-3.001-.001 1.5 1.5 0 013.001.001zm20 0a1.5 1.5 0 11-3.001-.001 1.5 1.5 0 013.001.001zm-160 20a1.5 1.5 0 11-3.001-.001 1.5 1.5 0 013.001.001zm20 0a1.5 1.5 0 11-3.001-.001 1.5 1.5 0 013.001.001zm20 0a1.5 1.5 0 11-3.001-.001 1.5 1.5 0 013.001.001zm20 0a1.5 1.5 0 11-3.001-.001 1.5 1.5 0 013.001.001zm20 0a1.5 1.5 0 11-3.001-.001 1.5 1.5 0 013.001.001zm20 0a1.5 1.5 0 11-3.001-.001 1.5 1.5 0 013.001.001zm20 0a1.5 1.5 0 11-3.001-.001 1.5 1.5 0 013.001.001zm20 0a1.5 1.5 0 11-3.001-.001 1.5 1.5 0 013.001.001zm20 0a1.5 1.5 0 11-3.001-.001 1.5 1.5 0 013.001.001zm-160 20a1.5 1.5 0 11-3.001-.001 1.5 1.5 0 013.001.001zm20 0a1.5 1.5 0 11-3.001-.001 1.5 1.5 0 013.001.001zm20 0a1.5 1.5 0 11-3.001-.001 1.5 1.5 0 013.001.001zm20 0a1.5 1.5 0 11-3.001-.001 1.5 1.5 0 013.001.001zm20 0a1.5 1.5 0 11-3.001-.001 1.5 1.5 0 013.001.001zm20 0a1.5 1.5 0 11-3.001-.001 1.5 1.5 0 013.001.001zm20 0a1.5 1.5 0 11-3.001-.001 1.5 1.5 0 013.001.001zm20 0a1.5 1.5 0 11-3.001-.001 1.5 1.5 0 013.001.001zm20 0a1.5 1.5 0 11-3.001-.001 1.5 1.5 0 013.001.001zm-160 20a1.5 1.5 0 11-3.001-.001 1.5 1.5 0 013.001.001zm20 0a1.5 1.5 0 11-3.001-.001 1.5 1.5 0 013.001.001zm20 0a1.5 1.5 0 11-3.001-.001 1.5 1.5 0 013.001.001zm20 0a1.5 1.5 0 11-3.001-.001 1.5 1.5 0 013.001.001zm20 0a1.5 1.5 0 11-3.001-.001 1.5 1.5 0 013.001.001zm20 0a1.5 1.5 0 11-3.001-.001 1.5 1.5 0 013.001.001zm20 0a1.5 1.5 0 11-3.001-.001 1.5 1.5 0 013.001.001zm20 0a1.5 1.5 0 11-3.001-.001 1.5 1.5 0 013.001.001zm20 0a1.5 1.5 0 11-3.001-.001 1.5 1.5 0 013.001.001zm-160 20a1.5 1.5 0 11-3.001-.001 1.5 1.5 0 013.001.001zm20 0a1.5 1.5 0 11-3.001-.001 1.5 1.5 0 013.001.001zm20 0a1.5 1.5 0 11-3.001-.001 1.5 1.5 0 013.001.001zm20 0a1.5 1.5 0 11-3.001-.001 1.5 1.5 0 013.001.001zm20 0a1.5 1.5 0 11-3.001-.001 1.5 1.5 0 013.001.001zm20 0a1.5 1.5 0 11-3.001-.001 1.5 1.5 0 013.001.001zm20 0a1.5 1.5 0 11-3.001-.001 1.5 1.5 0 013.001.001zm20 0a1.5 1.5 0 11-3.001-.001 1.5 1.5 0 013.001.001zm20 0a1.5 1.5 0 11-3.001-.001 1.5 1.5 0 013.001.001zm-160 20a1.5 1.5 0 11-3.001-.001 1.5 1.5 0 013.001.001zm20 0a1.5 1.5 0 11-3.001-.001 1.5 1.5 0 013.001.001zm20 0a1.5 1.5 0 11-3.001-.001 1.5 1.5 0 013.001.001zm20 0a1.5 1.5 0 11-3.001-.001 1.5 1.5 0 013.001.001zm20 0a1.5 1.5 0 11-3.001-.001 1.5 1.5 0 013.001.001zm20 0a1.5 1.5 0 11-3.001-.001 1.5 1.5 0 013.001.001zm20 0a1.5 1.5 0 11-3.001-.001 1.5 1.5 0 013.001.001zm20 0a1.5 1.5 0 11-3.001-.001 1.5 1.5 0 013.001.001zm20 0a1.5 1.5 0 11-3.001-.001 1.5 1.5 0 013.001.001zm-160 20a1.5 1.5 0 11-3.001-.001 1.5 1.5 0 013.001.001zm20 0a1.5 1.5 0 11-3.001-.001 1.5 1.5 0 013.001.001zm20 0a1.5 1.5 0 11-3.001-.001 1.5 1.5 0 013.001.001zm20 0a1.5 1.5 0 11-3.001-.001 1.5 1.5 0 013.001.001zm20 0a1.5 1.5 0 11-3.001-.001 1.5 1.5 0 013.001.001zm20 0a1.5 1.5 0 11-3.001-.001 1.5 1.5 0 013.001.001zm20 0a1.5 1.5 0 11-3.001-.001 1.5 1.5 0 013.001.001zm20 0a1.5 1.5 0 11-3.001-.001 1.5 1.5 0 013.001.001zm-140 20a1.5 1.5 0 11-3.001-.001 1.5 1.5 0 013.001.001zm20 0a1.5 1.5 0 11-3.001-.001 1.5 1.5 0 013.001.001zm20 0a1.5 1.5 0 11-3.001-.001 1.5 1.5 0 013.001.001zm20 0a1.5 1.5 0 11-3.001-.001 1.5 1.5 0 013.001.001zm20 0a1.5 1.5 0 11-3.001-.001 1.5 1.5 0 013.001.001zm20 0a1.5 1.5 0 11-3.001-.001 1.5 1.5 0 013.001.001zm-100 20a1.5 1.5 0 11-3.001-.001 1.5 1.5 0 013.001.001zm20 0a1.5 1.5 0 11-3.001-.001 1.5 1.5 0 013.001.001zm20 0a1.5 1.5 0 11-3.001-.001 1.5 1.5 0 013.001.001zm20 0a1.5 1.5 0 11-3.001-.001 1.5 1.5 0 013.001.001zm-60 20a1.5 1.5 0 11-3.001-.001 1.5 1.5 0 013.001.001zm20 0a1.5 1.5 0 11-3.001-.001 1.5 1.5 0 013.001.001zm-540 40a1.5 1.5 0 11-3.001-.001 1.5 1.5 0 013.001.001zm20 0a1.5 1.5 0 11-3.001-.001 1.5 1.5 0 013.001.001zm20 0a1.5 1.5 0 11-3.001-.001 1.5 1.5 0 013.001.001zm20 0a1.5 1.5 0 11-3.001-.001 1.5 1.5 0 013.001.001zm20 0a1.5 1.5 0 11-3.001-.001 1.5 1.5 0 013.001.001zm20 0a1.5 1.5 0 11-3.001-.001 1.5 1.5 0 013.001.001zm20 0a1.5 1.5 0 11-3.001-.001 1.5 1.5 0 013.001.001zm20 0a1.5 1.5 0 11-3.001-.001 1.5 1.5 0 013.001.001zm20 0a1.5 1.5 0 11-3.001-.001 1.5 1.5 0 013.001.001zm20 0a1.5 1.5 0 11-3.001-.001 1.5 1.5 0 013.001.001zm20 0a1.5 1.5 0 11-3.001-.001 1.5 1.5 0 013.001.001zm20 0a1.5 1.5 0 11-3.001-.001 1.5 1.5 0 013.001.001zm20 0a1.5 1.5 0 11-3.001-.001 1.5 1.5 0 013.001.001zm20 0a1.5 1.5 0 11-3.001-.001 1.5 1.5 0 013.001.001zm20 0a1.5 1.5 0 11-3.001-.001 1.5 1.5 0 013.001.001zm20 0a1.5 1.5 0 11-3.001-.001 1.5 1.5 0 013.001.001zm20 0a1.5 1.5 0 11-3.001-.001 1.5 1.5 0 013.001.001zm20 0a1.5 1.5 0 11-3.001-.001 1.5 1.5 0 013.001.001zm20 0a1.5 1.5 0 11-3.001-.001 1.5 1.5 0 013.001.001zm20 0a1.5 1.5 0 11-3.001-.001 1.5 1.5 0 013.001.001zm20 0a1.5 1.5 0 11-3.001-.001 1.5 1.5 0 013.001.001zm20 0a1.5 1.5 0 11-3.001-.001 1.5 1.5 0 013.001.001zm20 0a1.5 1.5 0 11-3.001-.001 1.5 1.5 0 013.001.001zm-540-560a1.5 1.5 0 11-3 0 1.5 1.5 0 013 0zm-20 20a1.5 1.5 0 11-3 0 1.5 1.5 0 013 0zm20 0a1.5 1.5 0 11-3 0 1.5 1.5 0 013 0zm-20 20a1.5 1.5 0 11-3 0 1.5 1.5 0 013 0zm20 0a1.5 1.5 0 11-3 0 1.5 1.5 0 013 0zm-20 20a1.5 1.5 0 11-3 0 1.5 1.5 0 013 0zm20 0a1.5 1.5 0 11-3 0 1.5 1.5 0 013 0zm200-180a1.5 1.5 0 11-3 0 1.5 1.5 0 013 0zm20 0a1.5 1.5 0 11-3 0 1.5 1.5 0 013 0zm20 0a1.5 1.5 0 11-3 0 1.5 1.5 0 013 0zm20 0a1.5 1.5 0 11-3 0 1.5 1.5 0 013 0zm20 0a1.5 1.5 0 11-3 0 1.5 1.5 0 013 0zm20 0a1.5 1.5 0 11-3 0 1.5 1.5 0 013 0zm-220 20a1.5 1.5 0 11-3 0 1.5 1.5 0 013 0zm20 0a1.5 1.5 0 11-3 0 1.5 1.5 0 013 0zm20 0a1.5 1.5 0 11-3 0 1.5 1.5 0 013 0zm20 0a1.5 1.5 0 11-3 0 1.5 1.5 0 013 0zm20 0a1.5 1.5 0 11-3 0 1.5 1.5 0 013 0zm20 0a1.5 1.5 0 11-3 0 1.5 1.5 0 013 0zm20 0a1.5 1.5 0 11-3 0 1.5 1.5 0 013 0zm20 0a1.5 1.5 0 11-3 0 1.5 1.5 0 013 0zm20 0a1.5 1.5 0 11-3 0 1.5 1.5 0 013 0zm20 0a1.5 1.5 0 11-3 0 1.5 1.5 0 013 0zm20 0a1.5 1.5 0 11-3 0 1.5 1.5 0 013 0zm20 0a1.5 1.5 0 11-3 0 1.5 1.5 0 013 0zm-240 20a1.5 1.5 0 11-3 0 1.5 1.5 0 013 0zm20 0a1.5 1.5 0 11-3 0 1.5 1.5 0 013 0zm20 0a1.5 1.5 0 11-3 0 1.5 1.5 0 013 0zm20 0a1.5 1.5 0 11-3 0 1.5 1.5 0 013 0zm20 0a1.5 1.5 0 11-3 0 1.5 1.5 0 013 0zm20 0a1.5 1.5 0 11-3 0 1.5 1.5 0 013 0zm20 0a1.5 1.5 0 11-3 0 1.5 1.5 0 013 0zm20 0a1.5 1.5 0 11-3 0 1.5 1.5 0 013 0zm20 0a1.5 1.5 0 11-3 0 1.5 1.5 0 013 0zm20 0a1.5 1.5 0 11-3 0 1.5 1.5 0 013 0zm20 0a1.5 1.5 0 11-3 0 1.5 1.5 0 013 0zm20 0a1.5 1.5 0 11-3 0 1.5 1.5 0 013 0zm20 0a1.5 1.5 0 11-3 0 1.5 1.5 0 013 0zm-260 20a1.5 1.5 0 11-3 0 1.5 1.5 0 013 0zm20 0a1.5 1.5 0 11-3 0 1.5 1.5 0 013 0zm20 0a1.5 1.5 0 11-3 0 1.5 1.5 0 013 0zm20 0a1.5 1.5 0 11-3 0 1.5 1.5 0 013 0zm20 0a1.5 1.5 0 11-3 0 1.5 1.5 0 013 0zm20 0a1.5 1.5 0 11-3 0 1.5 1.5 0 013 0zm20 0a1.5 1.5 0 11-3 0 1.5 1.5 0 013 0zm20 0a1.5 1.5 0 11-3 0 1.5 1.5 0 013 0zm20 0a1.5 1.5 0 11-3 0 1.5 1.5 0 013 0zm20 0a1.5 1.5 0 11-3 0 1.5 1.5 0 013 0zm20 0a1.5 1.5 0 11-3 0 1.5 1.5 0 013 0zm20 0a1.5 1.5 0 11-3 0 1.5 1.5 0 013 0zm20 0a1.5 1.5 0 11-3 0 1.5 1.5 0 013 0zm20 0a1.5 1.5 0 11-3 0 1.5 1.5 0 013 0zm-260 20a1.5 1.5 0 11-3 0 1.5 1.5 0 013 0zm20 0a1.5 1.5 0 11-3 0 1.5 1.5 0 013 0zm20 0a1.5 1.5 0 11-3 0 1.5 1.5 0 013 0zm20 0a1.5 1.5 0 11-3 0 1.5 1.5 0 013 0zm20 0a1.5 1.5 0 11-3 0 1.5 1.5 0 013 0zm20 0a1.5 1.5 0 11-3 0 1.5 1.5 0 013 0zm20 0a1.5 1.5 0 11-3 0 1.5 1.5 0 013 0zm20 0a1.5 1.5 0 11-3 0 1.5 1.5 0 013 0zm20 0a1.5 1.5 0 11-3 0 1.5 1.5 0 013 0zm20 0a1.5 1.5 0 11-3 0 1.5 1.5 0 013 0zm20 0a1.5 1.5 0 11-3 0 1.5 1.5 0 013 0zm20 0a1.5 1.5 0 11-3 0 1.5 1.5 0 013 0zm20 0a1.5 1.5 0 11-3 0 1.5 1.5 0 013 0zm20 0a1.5 1.5 0 11-3 0 1.5 1.5 0 013 0zm-280 20a1.5 1.5 0 11-3 0 1.5 1.5 0 013 0zm20 0a1.5 1.5 0 11-3 0 1.5 1.5 0 013 0zm20 0a1.5 1.5 0 11-3.001-.001 1.5 1.5 0 013.001.001zm20 0a1.5 1.5 0 11-3.001-.001 1.5 1.5 0 013.001.001zm20 0a1.5 1.5 0 11-3.001-.001 1.5 1.5 0 013.001.001zm20 0a1.5 1.5 0 11-3.001-.001 1.5 1.5 0 013.001.001zm20 0a1.5 1.5 0 11-3.001-.001 1.5 1.5 0 013.001.001zm20 0a1.5 1.5 0 11-3.001-.001 1.5 1.5 0 013.001.001zm20 0a1.5 1.5 0 11-3.001-.001 1.5 1.5 0 013.001.001zm20 0a1.5 1.5 0 11-3.001-.001 1.5 1.5 0 013.001.001zm20 0a1.5 1.5 0 11-3.001-.001 1.5 1.5 0 013.001.001zm20 0a1.5 1.5 0 11-3.001-.001 1.5 1.5 0 013.001.001zm20 0a1.5 1.5 0 11-3.001-.001 1.5 1.5 0 013.001.001zm20 0a1.5 1.5 0 11-3.001-.001 1.5 1.5 0 013.001.001zm20 0a1.5 1.5 0 11-3.001-.001 1.5 1.5 0 013.001.001zm-280 20a1.5 1.5 0 11-3 0 1.5 1.5 0 013 0zm20 0a1.5 1.5 0 11-3 0 1.5 1.5 0 013 0zm20 0a1.5 1.5 0 11-3.001-.001 1.5 1.5 0 013.001.001zm20 0a1.5 1.5 0 11-3.001-.001 1.5 1.5 0 013.001.001zm20 0a1.5 1.5 0 11-3.001-.001 1.5 1.5 0 013.001.001zm20 0a1.5 1.5 0 11-3.001-.001 1.5 1.5 0 013.001.001zm20 0a1.5 1.5 0 11-3.001-.001 1.5 1.5 0 013.001.001zm20 0a1.5 1.5 0 11-3.001-.001 1.5 1.5 0 013.001.001zm20 0a1.5 1.5 0 11-3.001-.001 1.5 1.5 0 013.001.001zm20 0a1.5 1.5 0 11-3.001-.001 1.5 1.5 0 013.001.001zm20 0a1.5 1.5 0 11-3.001-.001 1.5 1.5 0 013.001.001zm20 0a1.5 1.5 0 11-3.001-.001 1.5 1.5 0 013.001.001zm20 0a1.5 1.5 0 11-3.001-.001 1.5 1.5 0 013.001.001zm20 0a1.5 1.5 0 11-3.001-.001 1.5 1.5 0 013.001.001zm20 0a1.5 1.5 0 11-3.001-.001 1.5 1.5 0 013.001.001zm-280 20a1.5 1.5 0 11-3 0 1.5 1.5 0 013 0zm20 0a1.5 1.5 0 11-3 0 1.5 1.5 0 013 0zm20 0a1.5 1.5 0 11-3.001-.001 1.5 1.5 0 013.001.001zm20 0a1.5 1.5 0 11-3.001-.001 1.5 1.5 0 013.001.001zm20 0a1.5 1.5 0 11-3.001-.001 1.5 1.5 0 013.001.001zm20 0a1.5 1.5 0 11-3.001-.001 1.5 1.5 0 013.001.001zm20 0a1.5 1.5 0 11-3.001-.001 1.5 1.5 0 013.001.001zm20 0a1.5 1.5 0 11-3.001-.001 1.5 1.5 0 013.001.001zm20 0a1.5 1.5 0 11-3.001-.001 1.5 1.5 0 013.001.001zm20 0a1.5 1.5 0 11-3.001-.001 1.5 1.5 0 013.001.001zm20 0a1.5 1.5 0 11-3.001-.001 1.5 1.5 0 013.001.001zm20 0a1.5 1.5 0 11-3.001-.001 1.5 1.5 0 013.001.001zm20 0a1.5 1.5 0 11-3.001-.001 1.5 1.5 0 013.001.001zm20 0a1.5 1.5 0 11-3.001-.001 1.5 1.5 0 013.001.001zm20 0a1.5 1.5 0 11-3.001-.001 1.5 1.5 0 013.001.001zm-280 20a1.5 1.5 0 11-3 0 1.5 1.5 0 013 0zm20 0a1.5 1.5 0 11-3 0 1.5 1.5 0 013 0zm20 0a1.5 1.5 0 11-3.001-.001 1.5 1.5 0 013.001.001zm20 0a1.5 1.5 0 11-3.001-.001 1.5 1.5 0 013.001.001zm20 0a1.5 1.5 0 11-3.001-.001 1.5 1.5 0 013.001.001zm20 0a1.5 1.5 0 11-3.001-.001 1.5 1.5 0 013.001.001zm20 0a1.5 1.5 0 11-3.001-.001 1.5 1.5 0 013.001.001zm20 0a1.5 1.5 0 11-3.001-.001 1.5 1.5 0 013.001.001zm20 0a1.5 1.5 0 11-3.001-.001 1.5 1.5 0 013.001.001zm20 0a1.5 1.5 0 11-3.001-.001 1.5 1.5 0 013.001.001zm20 0a1.5 1.5 0 11-3.001-.001 1.5 1.5 0 013.001.001zm20 0a1.5 1.5 0 11-3.001-.001 1.5 1.5 0 013.001.001zm20 0a1.5 1.5 0 11-3.001-.001 1.5 1.5 0 013.001.001zm20 0a1.5 1.5 0 11-3.001-.001 1.5 1.5 0 013.001.001zm20 0a1.5 1.5 0 11-3.001-.001 1.5 1.5 0 013.001.001zm-280 20a1.5 1.5 0 11-3 0 1.5 1.5 0 013 0zm20 0a1.5 1.5 0 11-3 0 1.5 1.5 0 013 0zm20 0a1.5 1.5 0 11-3.001-.001 1.5 1.5 0 013.001.001zm20 0a1.5 1.5 0 11-3.001-.001 1.5 1.5 0 013.001.001zm20 0a1.5 1.5 0 11-3.001-.001 1.5 1.5 0 013.001.001zm20 0a1.5 1.5 0 11-3.001-.001 1.5 1.5 0 013.001.001zm20 0a1.5 1.5 0 11-3.001-.001 1.5 1.5 0 013.001.001zm20 0a1.5 1.5 0 11-3.001-.001 1.5 1.5 0 013.001.001zm20 0a1.5 1.5 0 11-3.001-.001 1.5 1.5 0 013.001.001zm20 0a1.5 1.5 0 11-3.001-.001 1.5 1.5 0 013.001.001zm20 0a1.5 1.5 0 11-3.001-.001 1.5 1.5 0 013.001.001zm20 0a1.5 1.5 0 11-3.001-.001 1.5 1.5 0 013.001.001zm20 0a1.5 1.5 0 11-3.001-.001 1.5 1.5 0 013.001.001zm20 0a1.5 1.5 0 11-3.001-.001 1.5 1.5 0 013.001.001zm20 0a1.5 1.5 0 11-3.001-.001 1.5 1.5 0 013.001.001zm20-180a1.5 1.5 0 11-3 0 1.5 1.5 0 013 0zm20 0a1.5 1.5 0 11-3 0 1.5 1.5 0 013 0zm20 0a1.5 1.5 0 11-3 0 1.5 1.5 0 013 0zm20 0a1.5 1.5 0 11-3 0 1.5 1.5 0 013 0zm20 0a1.5 1.5 0 11-3 0 1.5 1.5 0 013 0zm20 0a1.5 1.5 0 11-3 0 1.5 1.5 0 013 0zm20 0a1.5 1.5 0 11-3 0 1.5 1.5 0 013 0zm20 0a1.5 1.5 0 11-3 0 1.5 1.5 0 013 0zm20 0a1.5 1.5 0 11-3 0 1.5 1.5 0 013 0zm20 0a1.5 1.5 0 11-3 0 1.5 1.5 0 013 0zm20 0a1.5 1.5 0 11-3 0 1.5 1.5 0 013 0zm20 0a1.5 1.5 0 11-3 0 1.5 1.5 0 013 0zm20 0a1.5 1.5 0 11-3 0 1.5 1.5 0 013 0zm20 0a1.5 1.5 0 11-3 0 1.5 1.5 0 013 0zm20 0a1.5 1.5 0 11-3 0 1.5 1.5 0 013 0zm-280 20a1.5 1.5 0 11-3 0 1.5 1.5 0 013 0zm20 0a1.5 1.5 0 11-3 0 1.5 1.5 0 013 0zm20 0a1.5 1.5 0 11-3 0 1.5 1.5 0 013 0zm20 0a1.5 1.5 0 11-3 0 1.5 1.5 0 013 0zm20 0a1.5 1.5 0 11-3 0 1.5 1.5 0 013 0zm20 0a1.5 1.5 0 11-3 0 1.5 1.5 0 013 0zm20 0a1.5 1.5 0 11-3 0 1.5 1.5 0 013 0zm20 0a1.5 1.5 0 11-3 0 1.5 1.5 0 013 0zm20 0a1.5 1.5 0 11-3 0 1.5 1.5 0 013 0zm20 0a1.5 1.5 0 11-3 0 1.5 1.5 0 013 0zm20 0a1.5 1.5 0 11-3 0 1.5 1.5 0 013 0zm20 0a1.5 1.5 0 11-3 0 1.5 1.5 0 013 0zm20 0a1.5 1.5 0 11-3 0 1.5 1.5 0 013 0zm20 0a1.5 1.5 0 11-3 0 1.5 1.5 0 013 0zm20 0a1.5 1.5 0 11-3 0 1.5 1.5 0 013 0zm-280 20a1.5 1.5 0 11-3 0 1.5 1.5 0 013 0zm20 0a1.5 1.5 0 11-3 0 1.5 1.5 0 013 0zm20 0a1.5 1.5 0 11-3 0 1.5 1.5 0 013 0zm20 0a1.5 1.5 0 11-3 0 1.5 1.5 0 013 0zm20 0a1.5 1.5 0 11-3 0 1.5 1.5 0 013 0zm20 0a1.5 1.5 0 11-3 0 1.5 1.5 0 013 0zm20 0a1.5 1.5 0 11-3 0 1.5 1.5 0 013 0zm20 0a1.5 1.5 0 11-3 0 1.5 1.5 0 013 0zm20 0a1.5 1.5 0 11-3 0 1.5 1.5 0 013 0zm20 0a1.5 1.5 0 11-3 0 1.5 1.5 0 013 0zm20 0a1.5 1.5 0 11-3 0 1.5 1.5 0 013 0zm20 0a1.5 1.5 0 11-3 0 1.5 1.5 0 013 0zm20 0a1.5 1.5 0 11-3 0 1.5 1.5 0 013 0zm20 0a1.5 1.5 0 11-3 0 1.5 1.5 0 013 0zm20 0a1.5 1.5 0 11-3 0 1.5 1.5 0 013 0zm-280 20a1.5 1.5 0 11-3 0 1.5 1.5 0 013 0zm20 0a1.5 1.5 0 11-3 0 1.5 1.5 0 013 0zm20 0a1.5 1.5 0 11-3 0 1.5 1.5 0 013 0zm20 0a1.5 1.5 0 11-3 0 1.5 1.5 0 013 0zm20 0a1.5 1.5 0 11-3 0 1.5 1.5 0 013 0zm20 0a1.5 1.5 0 11-3 0 1.5 1.5 0 013 0zm20 0a1.5 1.5 0 11-3 0 1.5 1.5 0 013 0zm20 0a1.5 1.5 0 11-3 0 1.5 1.5 0 013 0zm20 0a1.5 1.5 0 11-3 0 1.5 1.5 0 013 0zm20 0a1.5 1.5 0 11-3 0 1.5 1.5 0 013 0zm20 0a1.5 1.5 0 11-3 0 1.5 1.5 0 013 0zm20 0a1.5 1.5 0 11-3 0 1.5 1.5 0 013 0zm20 0a1.5 1.5 0 11-3 0 1.5 1.5 0 013 0zm20 0a1.5 1.5 0 11-3 0 1.5 1.5 0 013 0zm20 0a1.5 1.5 0 11-3 0 1.5 1.5 0 013 0zm-280 20a1.5 1.5 0 11-3 0 1.5 1.5 0 013 0zm20 0a1.5 1.5 0 11-3 0 1.5 1.5 0 013 0zm20 0a1.5 1.5 0 11-3 0 1.5 1.5 0 013 0zm20 0a1.5 1.5 0 11-3 0 1.5 1.5 0 013 0zm20 0a1.5 1.5 0 11-3 0 1.5 1.5 0 013 0zm20 0a1.5 1.5 0 11-3 0 1.5 1.5 0 013 0zm20 0a1.5 1.5 0 11-3 0 1.5 1.5 0 013 0zm20 0a1.5 1.5 0 11-3 0 1.5 1.5 0 013 0zm20 0a1.5 1.5 0 11-3 0 1.5 1.5 0 013 0zm20 0a1.5 1.5 0 11-3 0 1.5 1.5 0 013 0zm20 0a1.5 1.5 0 11-3 0 1.5 1.5 0 013 0zm20 0a1.5 1.5 0 11-3 0 1.5 1.5 0 013 0zm20 0a1.5 1.5 0 11-3 0 1.5 1.5 0 013 0zm20 0a1.5 1.5 0 11-3 0 1.5 1.5 0 013 0zm20 0a1.5 1.5 0 11-3 0 1.5 1.5 0 013 0zm-280 20a1.5 1.5 0 11-3.001-.001 1.5 1.5 0 013.001.001zm20 0a1.5 1.5 0 11-3.001-.001 1.5 1.5 0 013.001.001zm20 0a1.5 1.5 0 11-3.001-.001 1.5 1.5 0 013.001.001zm20 0a1.5 1.5 0 11-3.001-.001 1.5 1.5 0 013.001.001zm20 0a1.5 1.5 0 11-3.001-.001 1.5 1.5 0 013.001.001zm20 0a1.5 1.5 0 11-3.001-.001 1.5 1.5 0 013.001.001zm20 0a1.5 1.5 0 11-3.001-.001 1.5 1.5 0 013.001.001zm20 0a1.5 1.5 0 11-3.001-.001 1.5 1.5 0 013.001.001zm20 0a1.5 1.5 0 11-3.001-.001 1.5 1.5 0 013.001.001zm20 0a1.5 1.5 0 11-3.001-.001 1.5 1.5 0 013.001.001zm20 0a1.5 1.5 0 11-3.001-.001 1.5 1.5 0 013.001.001zm20 0a1.5 1.5 0 11-3.001-.001 1.5 1.5 0 013.001.001zm20 0a1.5 1.5 0 11-3.001-.001 1.5 1.5 0 013.001.001zm20 0a1.5 1.5 0 11-3.001-.001 1.5 1.5 0 013.001.001zm20 0a1.5 1.5 0 11-3.001-.001 1.5 1.5 0 013.001.001zm-280 20a1.5 1.5 0 11-3.001-.001 1.5 1.5 0 013.001.001zm20 0a1.5 1.5 0 11-3.001-.001 1.5 1.5 0 013.001.001zm20 0a1.5 1.5 0 11-3.001-.001 1.5 1.5 0 013.001.001zm20 0a1.5 1.5 0 11-3.001-.001 1.5 1.5 0 013.001.001zm20 0a1.5 1.5 0 11-3.001-.001 1.5 1.5 0 013.001.001zm20 0a1.5 1.5 0 11-3.001-.001 1.5 1.5 0 013.001.001zm20 0a1.5 1.5 0 11-3.001-.001 1.5 1.5 0 013.001.001zm20 0a1.5 1.5 0 11-3.001-.001 1.5 1.5 0 013.001.001zm20 0a1.5 1.5 0 11-3.001-.001 1.5 1.5 0 013.001.001zm20 0a1.5 1.5 0 11-3.001-.001 1.5 1.5 0 013.001.001zm20 0a1.5 1.5 0 11-3.001-.001 1.5 1.5 0 013.001.001zm20 0a1.5 1.5 0 11-3.001-.001 1.5 1.5 0 013.001.001zm20 0a1.5 1.5 0 11-3.001-.001 1.5 1.5 0 013.001.001zm20 0a1.5 1.5 0 11-3.001-.001 1.5 1.5 0 013.001.001zm20 0a1.5 1.5 0 11-3.001-.001 1.5 1.5 0 013.001.001zm-280 20a1.5 1.5 0 11-3.001-.001 1.5 1.5 0 013.001.001zm20 0a1.5 1.5 0 11-3.001-.001 1.5 1.5 0 013.001.001zm20 0a1.5 1.5 0 11-3.001-.001 1.5 1.5 0 013.001.001zm20 0a1.5 1.5 0 11-3.001-.001 1.5 1.5 0 013.001.001zm20 0a1.5 1.5 0 11-3.001-.001 1.5 1.5 0 013.001.001zm20 0a1.5 1.5 0 11-3.001-.001 1.5 1.5 0 013.001.001zm20 0a1.5 1.5 0 11-3.001-.001 1.5 1.5 0 013.001.001zm20 0a1.5 1.5 0 11-3.001-.001 1.5 1.5 0 013.001.001zm20 0a1.5 1.5 0 11-3.001-.001 1.5 1.5 0 013.001.001zm20 0a1.5 1.5 0 11-3.001-.001 1.5 1.5 0 013.001.001zm20 0a1.5 1.5 0 11-3.001-.001 1.5 1.5 0 013.001.001zm20 0a1.5 1.5 0 11-3.001-.001 1.5 1.5 0 013.001.001zm20 0a1.5 1.5 0 11-3.001-.001 1.5 1.5 0 013.001.001zm20 0a1.5 1.5 0 11-3.001-.001 1.5 1.5 0 013.001.001zm20 0a1.5 1.5 0 11-3.001-.001 1.5 1.5 0 013.001.001zm-280 20a1.5 1.5 0 11-3.001-.001 1.5 1.5 0 013.001.001zm20 0a1.5 1.5 0 11-3.001-.001 1.5 1.5 0 013.001.001zm20 0a1.5 1.5 0 11-3.001-.001 1.5 1.5 0 013.001.001zm20 0a1.5 1.5 0 11-3.001-.001 1.5 1.5 0 013.001.001zm20 0a1.5 1.5 0 11-3.001-.001 1.5 1.5 0 013.001.001zm20 0a1.5 1.5 0 11-3.001-.001 1.5 1.5 0 013.001.001zm20 0a1.5 1.5 0 11-3.001-.001 1.5 1.5 0 013.001.001zm20 0a1.5 1.5 0 11-3.001-.001 1.5 1.5 0 013.001.001zm20 0a1.5 1.5 0 11-3.001-.001 1.5 1.5 0 013.001.001zm20 0a1.5 1.5 0 11-3.001-.001 1.5 1.5 0 013.001.001zm20 0a1.5 1.5 0 11-3.001-.001 1.5 1.5 0 013.001.001zm20 0a1.5 1.5 0 11-3.001-.001 1.5 1.5 0 013.001.001zm20 0a1.5 1.5 0 11-3.001-.001 1.5 1.5 0 013.001.001zm20 0a1.5 1.5 0 11-3.001-.001 1.5 1.5 0 013.001.001zm20 0a1.5 1.5 0 11-3.001-.001 1.5 1.5 0 013.001.001zm-280 20a1.5 1.5 0 11-3.001-.001 1.5 1.5 0 013.001.001zm20 0a1.5 1.5 0 11-3.001-.001 1.5 1.5 0 013.001.001zm20 0a1.5 1.5 0 11-3.001-.001 1.5 1.5 0 013.001.001zm20 0a1.5 1.5 0 11-3.001-.001 1.5 1.5 0 013.001.001zm20 0a1.5 1.5 0 11-3.001-.001 1.5 1.5 0 013.001.001zm20 0a1.5 1.5 0 11-3.001-.001 1.5 1.5 0 013.001.001zm20 0a1.5 1.5 0 11-3.001-.001 1.5 1.5 0 013.001.001zm20 0a1.5 1.5 0 11-3.001-.001 1.5 1.5 0 013.001.001zm20 0a1.5 1.5 0 11-3.001-.001 1.5 1.5 0 013.001.001zm20 0a1.5 1.5 0 11-3.001-.001 1.5 1.5 0 013.001.001zm20 0a1.5 1.5 0 11-3.001-.001 1.5 1.5 0 013.001.001zm20 0a1.5 1.5 0 11-3.001-.001 1.5 1.5 0 013.001.001zm20 0a1.5 1.5 0 11-3.001-.001 1.5 1.5 0 013.001.001zm20 0a1.5 1.5 0 11-3.001-.001 1.5 1.5 0 013.001.001zm20 0a1.5 1.5 0 11-3.001-.001 1.5 1.5 0 013.001.001zm20-180a1.5 1.5 0 11-3 0 1.5 1.5 0 013 0zm20 0a1.5 1.5 0 11-3 0 1.5 1.5 0 013 0zm20 0a1.5 1.5 0 11-3 0 1.5 1.5 0 013 0zm20 0a1.5 1.5 0 11-3 0 1.5 1.5 0 013 0zm20 0a1.5 1.5 0 11-3 0 1.5 1.5 0 013 0zm20 0a1.5 1.5 0 11-3 0 1.5 1.5 0 013 0zm20 0a1.5 1.5 0 11-3 0 1.5 1.5 0 013 0zm-120 20a1.5 1.5 0 11-3 0 1.5 1.5 0 013 0zm20 0a1.5 1.5 0 11-3 0 1.5 1.5 0 013 0zm20 0a1.5 1.5 0 11-3 0 1.5 1.5 0 013 0zm20 0a1.5 1.5 0 11-3 0 1.5 1.5 0 013 0zm20 0a1.5 1.5 0 11-3 0 1.5 1.5 0 013 0zm20 0a1.5 1.5 0 11-3 0 1.5 1.5 0 013 0zm20 0a1.5 1.5 0 11-3 0 1.5 1.5 0 013 0zm20 0a1.5 1.5 0 11-3 0 1.5 1.5 0 013 0zm-140 20a1.5 1.5 0 11-3 0 1.5 1.5 0 013 0zm20 0a1.5 1.5 0 11-3 0 1.5 1.5 0 013 0zm20 0a1.5 1.5 0 11-3 0 1.5 1.5 0 013 0zm20 0a1.5 1.5 0 11-3 0 1.5 1.5 0 013 0zm20 0a1.5 1.5 0 11-3 0 1.5 1.5 0 013 0zm20 0a1.5 1.5 0 11-3 0 1.5 1.5 0 013 0zm20 0a1.5 1.5 0 11-3 0 1.5 1.5 0 013 0zm20 0a1.5 1.5 0 11-3 0 1.5 1.5 0 013 0zm20 0a1.5 1.5 0 11-3 0 1.5 1.5 0 013 0zm-160 20a1.5 1.5 0 11-3 0 1.5 1.5 0 013 0zm20 0a1.5 1.5 0 11-3 0 1.5 1.5 0 013 0zm20 0a1.5 1.5 0 11-3 0 1.5 1.5 0 013 0zm20 0a1.5 1.5 0 11-3 0 1.5 1.5 0 013 0zm20 0a1.5 1.5 0 11-3 0 1.5 1.5 0 013 0zm20 0a1.5 1.5 0 11-3 0 1.5 1.5 0 013 0zm20 0a1.5 1.5 0 11-3 0 1.5 1.5 0 013 0zm20 0a1.5 1.5 0 11-3 0 1.5 1.5 0 013 0zm20 0a1.5 1.5 0 11-3 0 1.5 1.5 0 013 0zm-160 20a1.5 1.5 0 11-3 0 1.5 1.5 0 013 0zm20 0a1.5 1.5 0 11-3 0 1.5 1.5 0 013 0zm20 0a1.5 1.5 0 11-3 0 1.5 1.5 0 013 0zm20 0a1.5 1.5 0 11-3 0 1.5 1.5 0 013 0zm20 0a1.5 1.5 0 11-3 0 1.5 1.5 0 013 0zm20 0a1.5 1.5 0 11-3 0 1.5 1.5 0 013 0zm20 0a1.5 1.5 0 11-3 0 1.5 1.5 0 013 0zm20 0a1.5 1.5 0 11-3 0 1.5 1.5 0 013 0zm20 0a1.5 1.5 0 11-3 0 1.5 1.5 0 013 0zm-160 20a1.5 1.5 0 11-3.001-.001 1.5 1.5 0 013.001.001zm20 0a1.5 1.5 0 11-3.001-.001 1.5 1.5 0 013.001.001zm20 0a1.5 1.5 0 11-3.001-.001 1.5 1.5 0 013.001.001zm20 0a1.5 1.5 0 11-3.001-.001 1.5 1.5 0 013.001.001zm20 0a1.5 1.5 0 11-3.001-.001 1.5 1.5 0 013.001.001zm20 0a1.5 1.5 0 11-3.001-.001 1.5 1.5 0 013.001.001zm20 0a1.5 1.5 0 11-3.001-.001 1.5 1.5 0 013.001.001zm20 0a1.5 1.5 0 11-3.001-.001 1.5 1.5 0 013.001.001zm20 0a1.5 1.5 0 11-3.001-.001 1.5 1.5 0 013.001.001zm-160 20a1.5 1.5 0 11-3.001-.001 1.5 1.5 0 013.001.001zm20 0a1.5 1.5 0 11-3.001-.001 1.5 1.5 0 013.001.001zm20 0a1.5 1.5 0 11-3.001-.001 1.5 1.5 0 013.001.001zm20 0a1.5 1.5 0 11-3.001-.001 1.5 1.5 0 013.001.001zm20 0a1.5 1.5 0 11-3.001-.001 1.5 1.5 0 013.001.001zm20 0a1.5 1.5 0 11-3.001-.001 1.5 1.5 0 013.001.001zm20 0a1.5 1.5 0 11-3.001-.001 1.5 1.5 0 013.001.001zm20 0a1.5 1.5 0 11-3.001-.001 1.5 1.5 0 013.001.001zm20 0a1.5 1.5 0 11-3.001-.001 1.5 1.5 0 013.001.001zm-160 20a1.5 1.5 0 11-3.001-.001 1.5 1.5 0 013.001.001zm20 0a1.5 1.5 0 11-3.001-.001 1.5 1.5 0 013.001.001zm20 0a1.5 1.5 0 11-3.001-.001 1.5 1.5 0 013.001.001zm20 0a1.5 1.5 0 11-3.001-.001 1.5 1.5 0 013.001.001zm20 0a1.5 1.5 0 11-3.001-.001 1.5 1.5 0 013.001.001zm20 0a1.5 1.5 0 11-3.001-.001 1.5 1.5 0 013.001.001zm20 0a1.5 1.5 0 11-3.001-.001 1.5 1.5 0 013.001.001zm20 0a1.5 1.5 0 11-3.001-.001 1.5 1.5 0 013.001.001zm20 0a1.5 1.5 0 11-3.001-.001 1.5 1.5 0 013.001.001zm-160 20a1.5 1.5 0 11-3.001-.001 1.5 1.5 0 013.001.001zm20 0a1.5 1.5 0 11-3.001-.001 1.5 1.5 0 013.001.001zm20 0a1.5 1.5 0 11-3.001-.001 1.5 1.5 0 013.001.001zm20 0a1.5 1.5 0 11-3.001-.001 1.5 1.5 0 013.001.001zm20 0a1.5 1.5 0 11-3.001-.001 1.5 1.5 0 013.001.001zm20 0a1.5 1.5 0 11-3.001-.001 1.5 1.5 0 013.001.001zm20 0a1.5 1.5 0 11-3.001-.001 1.5 1.5 0 013.001.001zm20 0a1.5 1.5 0 11-3.001-.001 1.5 1.5 0 013.001.001zm20 0a1.5 1.5 0 11-3.001-.001 1.5 1.5 0 013.001.001zm-160 20a1.5 1.5 0 11-3.001-.001 1.5 1.5 0 013.001.001zm20 0a1.5 1.5 0 11-3.001-.001 1.5 1.5 0 013.001.001zm20 0a1.5 1.5 0 11-3.001-.001 1.5 1.5 0 013.001.001zm20 0a1.5 1.5 0 11-3.001-.001 1.5 1.5 0 013.001.001zm20 0a1.5 1.5 0 11-3.001-.001 1.5 1.5 0 013.001.001zm20 0a1.5 1.5 0 11-3.001-.001 1.5 1.5 0 013.001.001zm20 0a1.5 1.5 0 11-3.001-.001 1.5 1.5 0 013.001.001zm20 0a1.5 1.5 0 11-3.001-.001 1.5 1.5 0 013.001.001zm20 0a1.5 1.5 0 11-3.001-.001 1.5 1.5 0 013.001.001zm-820 20a1.5 1.5 0 11-3 0 1.5 1.5 0 013 0zm0 20a1.5 1.5 0 11-3 0 1.5 1.5 0 013 0zm0 20a1.5 1.5 0 11-3 0 1.5 1.5 0 013 0zm0 20a1.5 1.5 0 11-3 0 1.5 1.5 0 013 0zm0 20a1.5 1.5 0 11-3 0 1.5 1.5 0 013 0zm0 20a1.5 1.5 0 11-3 0 1.5 1.5 0 013 0zm0 20a1.5 1.5 0 11-3 0 1.5 1.5 0 013 0zm0 20a1.5 1.5 0 11-3 0 1.5 1.5 0 013 0zm0 20a1.5 1.5 0 11-3 0 1.5 1.5 0 013 0zm0 20a1.5 1.5 0 11-3 0 1.5 1.5 0 013 0zm0 20a1.5 1.5 0 11-3 0 1.5 1.5 0 013 0zm0 20a1.5 1.5 0 11-3 0 1.5 1.5 0 013 0zm0 20a1.5 1.5 0 11-3 0 1.5 1.5 0 013 0zm0 20a1.5 1.5 0 11-3 0 1.5 1.5 0 013 0zm0 20a1.5 1.5 0 11-3 0 1.5 1.5 0 013 0zm0 20a1.5 1.5 0 11-3 0 1.5 1.5 0 013 0zm0-340a1.5 1.5 0 11-3 0 1.5 1.5 0 013 0zm0 20a1.5 1.5 0 11-3 0 1.5 1.5 0 013 0z" opacity=".1" fill="#000"/><g filter="url(#filter0_d)"><path d="M430.057 150.487l-48.253 121.116c-4.795 12.036-17.221 19.21-30.042 17.345l-129.016-18.77c-14.455-2.103-24.864-14.964-23.909-29.539l12.049-183.823c1.305-19.913 22.427-32.107 40.324-23.281l165.22 81.477c13.1 6.46 19.033 21.906 13.627 35.475z" fill="url(#paint0_linear)"/></g><g filter="url(#filter1_d)"><path d="M577.984 476.557l-48.253 121.116c-4.795 12.036-17.221 19.21-30.043 17.345l-129.015-18.769c-14.455-2.103-24.864-14.964-23.909-29.54l12.049-183.823c1.305-19.912 22.427-32.107 40.324-23.281l165.219 81.477c13.101 6.46 19.034 21.906 13.628 35.475z" fill="url(#paint1_linear)"/></g><g filter="url(#filter2_d)"><path d="M243.22 414.744l-24.127 60.558a13.999 13.999 0 01-15.021 8.672l-64.508-9.384c-7.227-1.052-12.432-7.482-11.955-14.77l6.025-91.912c.652-9.956 11.213-16.053 20.162-11.64l82.61 40.738c6.55 3.23 9.517 10.953 6.814 17.738z" fill="url(#paint2_linear)"/></g><g filter="url(#filter3_d)"><path d="M616.738 365.245l-167.363-66.678c-16.633-6.627-26.546-23.798-23.969-41.515l25.937-178.28c2.906-19.974 20.678-34.359 40.819-33.039l254.016 16.65c27.515 1.804 44.367 30.99 32.171 55.722L665.76 346.413c-8.927 18.103-30.271 26.302-49.022 18.832z" fill="url(#paint3_linear)"/></g><g filter="url(#filter4_d)"><path d="M244.802 481.373l-12.064 30.278a7 7 0 01-7.51 4.337l-32.254-4.693a6.999 6.999 0 01-5.977-7.385l3.012-45.955c.326-4.978 5.607-8.027 10.081-5.821l41.305 20.37a7 7 0 013.407 8.869z" fill="url(#paint4_linear)"/></g><g filter="url(#filter5_d)"><path d="M788.203 499.967l-12.063 30.279a7 7 0 01-7.511 4.336l-32.254-4.692a7 7 0 01-5.977-7.385l3.012-45.956c.327-4.978 5.607-8.026 10.081-5.82l41.305 20.369a7 7 0 013.407 8.869z" fill="url(#paint5_linear)"/></g><g filter="url(#filter6_d)"><path d="M758.203 587.967l-12.063 30.279a7 7 0 01-7.511 4.336l-32.254-4.692a7 7 0 01-5.977-7.385l3.012-45.956c.327-4.978 5.607-8.026 10.081-5.82l41.305 20.369a7 7 0 013.407 8.869z" fill="url(#paint6_linear)"/></g><defs><linearGradient id="paint0_linear" x1="367.626" y1="281.735" x2="225.513" y2="35.851" gradientUnits="userSpaceOnUse"><stop stop-color="#FFC800"/><stop offset="1" stop-color="#FFDB58"/></linearGradient><linearGradient id="paint1_linear" x1="515.552" y1="607.806" x2="373.44" y2="361.921" gradientUnits="userSpaceOnUse"><stop stop-color="#FFC800"/><stop offset="1" stop-color="#FFDB58"/></linearGradient><linearGradient id="paint2_linear" x1="212.004" y1="480.368" x2="140.948" y2="357.426" gradientUnits="userSpaceOnUse"><stop stop-color="#FFC800"/><stop offset="1" stop-color="#FFDB58"/></linearGradient><linearGradient id="paint3_linear" x1="435.372" y1="278.974" x2="775.148" y2="82.596" gradientUnits="userSpaceOnUse"><stop stop-color="#FFC800"/><stop offset="1" stop-color="#FFDB58"/></linearGradient><linearGradient id="paint4_linear" x1="229.194" y1="514.185" x2="193.666" y2="452.713" gradientUnits="userSpaceOnUse"><stop stop-color="#FFC800"/><stop offset="1" stop-color="#FFDB58"/></linearGradient><linearGradient id="paint5_linear" x1="772.595" y1="532.779" x2="737.067" y2="471.308" gradientUnits="userSpaceOnUse"><stop stop-color="#FFC800"/><stop offset="1" stop-color="#FFDB58"/></linearGradient><linearGradient id="paint6_linear" x1="742.595" y1="620.779" x2="707.067" y2="559.308" gradientUnits="userSpaceOnUse"><stop stop-color="#FFC800"/><stop offset="1" stop-color="#FFDB58"/></linearGradient><filter id="filter0_d" x="153.776" y=".618" width="323.275" height="348.623" filterUnits="userSpaceOnUse" color-interpolation-filters="sRGB"><feFlood flood-opacity="0" result="BackgroundImageFix"/><feColorMatrix in="SourceAlpha" values="0 0 0 0 0 0 0 0 0 0 0 0 0 0 0 0 0 0 127 0"/><feOffset dy="15"/><feGaussianBlur stdDeviation="22.5"/><feColorMatrix values="0 0 0 0 1 0 0 0 0 0.784314 0 0 0 0 0 0 0 0 0.5 0"/><feBlend in2="BackgroundImageFix" result="effect1_dropShadow"/><feBlend in="SourceGraphic" in2="effect1_dropShadow" result="shape"/></filter><filter id="filter1_d" x="301.703" y="326.688" width="323.275" height="348.623" filterUnits="userSpaceOnUse" color-interpolation-filters="sRGB"><feFlood flood-opacity="0" result="BackgroundImageFix"/><feColorMatrix in="SourceAlpha" values="0 0 0 0 0 0 0 0 0 0 0 0 0 0 0 0 0 0 127 0"/><feOffset dy="15"/><feGaussianBlur stdDeviation="22.5"/><feColorMatrix values="0 0 0 0 1 0 0 0 0 0.784314 0 0 0 0 0 0 0 0 0.5 0"/><feBlend in2="BackgroundImageFix" result="effect1_dropShadow"/><feBlend in="SourceGraphic" in2="effect1_dropShadow" result="shape"/></filter><filter id="filter2_d" x="82.579" y="324.81" width="206.637" height="219.312" filterUnits="userSpaceOnUse" color-interpolation-filters="sRGB"><feFlood flood-opacity="0" result="BackgroundImageFix"/><feColorMatrix in="SourceAlpha" values="0 0 0 0 0 0 0 0 0 0 0 0 0 0 0 0 0 0 127 0"/><feOffset dy="15"/><feGaussianBlur stdDeviation="22.5"/><feColorMatrix values="0 0 0 0 1 0 0 0 0 0.784314 0 0 0 0 0 0 0 0 0.5 0"/><feBlend in2="BackgroundImageFix" result="effect1_dropShadow"/><feBlend in="SourceGraphic" in2="effect1_dropShadow" result="shape"/></filter><filter id="filter3_d" x="380.001" y="15.649" width="447.378" height="412.35" filterUnits="userSpaceOnUse" color-interpolation-filters="sRGB"><feFlood flood-opacity="0" result="BackgroundImageFix"/><feColorMatrix in="SourceAlpha" values="0 0 0 0 0 0 0 0 0 0 0 0 0 0 0 0 0 0 127 0"/><feOffset dy="15"/><feGaussianBlur stdDeviation="22.5"/><feColorMatrix values="0 0 0 0 1 0 0 0 0 0.784314 0 0 0 0 0 0 0 0 0.5 0"/><feBlend in2="BackgroundImageFix" result="effect1_dropShadow"/><feBlend in="SourceGraphic" in2="effect1_dropShadow" result="shape"/></filter><filter id="filter4_d" x="141.981" y="421.405" width="148.319" height="154.656" filterUnits="userSpaceOnUse" color-interpolation-filters="sRGB"><feFlood flood-opacity="0" result="BackgroundImageFix"/><feColorMatrix in="SourceAlpha" values="0 0 0 0 0 0 0 0 0 0 0 0 0 0 0 0 0 0 127 0"/><feOffset dy="15"/><feGaussianBlur stdDeviation="22.5"/><feColorMatrix values="0 0 0 0 1 0 0 0 0 0.784314 0 0 0 0 0 0 0 0 0.5 0"/><feBlend in2="BackgroundImageFix" result="effect1_dropShadow"/><feBlend in="SourceGraphic" in2="effect1_dropShadow" result="shape"/></filter><filter id="filter5_d" x="685.383" y="440" width="148.319" height="154.656" filterUnits="userSpaceOnUse" color-interpolation-filters="sRGB"><feFlood flood-opacity="0" result="BackgroundImageFix"/><feColorMatrix in="SourceAlpha" values="0 0 0 0 0 0 0 0 0 0 0 0 0 0 0 0 0 0 127 0"/><feOffset dy="15"/><feGaussianBlur stdDeviation="22.5"/><feColorMatrix values="0 0 0 0 1 0 0 0 0 0.784314 0 0 0 0 0 0 0 0 0.5 0"/><feBlend in2="BackgroundImageFix" result="effect1_dropShadow"/><feBlend in="SourceGraphic" in2="effect1_dropShadow" result="shape"/></filter><filter id="filter6_d" x="655.383" y="528" width="148.319" height="154.656" filterUnits="userSpaceOnUse" color-interpolation-filters="sRGB"><feFlood flood-opacity="0" result="BackgroundImageFix"/><feColorMatrix in="SourceAlpha" values="0 0 0 0 0 0 0 0 0 0 0 0 0 0 0 0 0 0 127 0"/><feOffset dy="15"/><feGaussianBlur stdDeviation="22.5"/><feColorMatrix values="0 0 0 0 1 0 0 0 0 0.784314 0 0 0 0 0 0 0 0 0.5 0"/><feBlend in2="BackgroundImageFix" result="effect1_dropShadow"/><feBlend in="SourceGraphic" in2="effect1_dropShadow" result="shape"/></filter></defs></svg>