<svg width="61" height="47" viewBox="0 0 61 47" fill="none" xmlns="http://www.w3.org/2000/svg">
<path opacity="0.15" d="M11.8 0.894061C14.7333 0.894061 17.5333 2.0274 20.2 4.29406C23 7.09406 24.4 10.6274 24.4 14.8941C24.4 19.6941 22.8667 24.7607 19.8 30.0941C17.1333 35.2941 11.6 40.8941 3.2 46.8941L0.200001 43.0941C4.46667 40.0274 7.6 37.0941 9.6 34.2941C11.0667 32.2941 11.8 30.0274 11.8 27.4941C11.8 24.8274 10.4 23.2274 7.6 22.6941C2.66667 20.9607 0.200001 17.6274 0.200001 12.6941C0.200001 9.09406 1.26667 6.16073 3.4 3.89406C5.66667 1.89406 8.46667 0.894061 11.8 0.894061ZM47.8 0.894061C50.7333 0.894061 53.5333 2.0274 56.2 4.29406C58.8667 7.09406 60.2 10.6274 60.2 14.8941C60.2 19.6941 58.7333 24.7607 55.8 30.0941C53.1333 35.2941 47.6 40.8941 39.2 46.8941L36 43.0941C40.2667 40.0274 43.4667 37.0941 45.6 34.2941C47.0667 32.2941 47.8 30.0274 47.8 27.4941C47.8 24.8274 46.4 23.2274 43.6 22.6941C38.5333 20.9607 36 17.6274 36 12.6941C36 9.09406 37.1333 6.16073 39.4 3.89406C41.6667 1.89406 44.4667 0.894061 47.8 0.894061Z" fill="white"/>
</svg>
