<svg width="10" height="8" viewBox="0 0 10 8" fill="none" xmlns="http://www.w3.org/2000/svg">
<path fill-rule="evenodd" clip-rule="evenodd" d="M2.58747 4.00168L0.292893 1.70711C-0.0976315 1.31658 -0.0976315 0.683418 0.292893 0.292893C0.683417 -0.0976305 1.31658 -0.0976315 1.70711 0.292893L4.70708 3.29286C4.90277 3.48856 5.0004 3.74519 4.99997 4.00168C5.0004 4.25817 4.90277 4.5148 4.70708 4.7105L1.71468 7.7029C1.32415 8.09342 0.690987 8.09342 0.300462 7.7029C-0.0900621 7.31237 -0.0900621 6.67921 0.300462 6.28868L2.58747 4.00168ZM7.58749 4.00168L5.29292 1.7071C4.9024 1.31658 4.9024 0.683415 5.29292 0.292891C5.68344 -0.0976334 6.31661 -0.0976334 6.70713 0.292891L9.70711 3.29286C9.9028 3.48856 10.0004 3.74519 10 4.00168C10.0004 4.25817 9.9028 4.5148 9.70711 4.71049L6.7147 7.70289C6.32418 8.09342 5.69101 8.09342 5.30049 7.7029C4.90997 7.31237 4.90997 6.67921 5.30049 6.28868L7.58749 4.00168Z" fill="#BB4CFC"/>
</svg>
