<svg width="867" height="460" fill="none" xmlns="http://www.w3.org/2000/svg"><path d="M796.536 314.64c0 69.184-71.046 125.733-106.569 145.36H4c71.396-35.286 193.999-137.144 193.999-192.28 0-89.24-85.439-63.48-85.439-149.96 0-69.184 80.233-98.133 115.756-117.76h634.472S734 31.504 734 138c0 62 62.536 71.76 62.536 176.64z" fill="#fff"/><mask id="a" maskUnits="userSpaceOnUse" x="4" y="0" width="859" height="460"><path d="M796.536 314.64c0 69.184-71.046 125.733-106.569 145.36H4c71.396-35.286 193.999-137.144 193.999-192.28 0-89.24-85.439-63.48-85.439-149.96 0-69.184 80.233-98.133 115.756-117.76h634.472S734 31.504 734 138c0 62 62.536 71.76 62.536 176.64z" fill="#fff"/></mask><g opacity=".1" fill="#000" mask="url(#a)"><path d="M-645 9.5a1.5 1.5 0 11-3 0 1.5 1.5 0 013 0zM-625 9.5a1.5 1.5 0 11-3 0 1.5 1.5 0 013 0zM-605 9.5a1.5 1.5 0 11-3 0 1.5 1.5 0 013 0zM-585 9.5a1.5 1.5 0 11-3 0 1.5 1.5 0 013 0zM-565 9.5a1.5 1.5 0 11-3 0 1.5 1.5 0 013 0zM-545 9.5a1.5 1.5 0 11-3 0 1.5 1.5 0 013 0zM-525 9.5a1.5 1.5 0 11-3 0 1.5 1.5 0 013 0zM-505 9.5a1.5 1.5 0 11-3 0 1.5 1.5 0 013 0zM-485 9.5a1.5 1.5 0 11-3 0 1.5 1.5 0 013 0zM-645 29.5a1.5 1.5 0 11-3 0 1.5 1.5 0 013 0zM-625 29.5a1.5 1.5 0 11-3 0 1.5 1.5 0 013 0zM-605 29.5a1.5 1.5 0 11-3 0 1.5 1.5 0 013 0zM-585 29.5a1.5 1.5 0 11-3 0 1.5 1.5 0 013 0zM-565 29.5a1.5 1.5 0 11-3 0 1.5 1.5 0 013 0zM-545 29.5a1.5 1.5 0 11-3 0 1.5 1.5 0 013 0zM-525 29.5a1.5 1.5 0 11-3 0 1.5 1.5 0 013 0zM-505 29.5a1.5 1.5 0 11-3 0 1.5 1.5 0 013 0zM-485 29.5a1.5 1.5 0 11-3 0 1.5 1.5 0 013 0zM-645 49.5a1.5 1.5 0 11-3 0 1.5 1.5 0 013 0zM-625 49.5a1.5 1.5 0 11-3 0 1.5 1.5 0 013 0zM-605 49.5a1.5 1.5 0 11-3 0 1.5 1.5 0 013 0zM-585 49.5a1.5 1.5 0 11-3 0 1.5 1.5 0 013 0zM-565 49.5a1.5 1.5 0 11-3 0 1.5 1.5 0 013 0zM-545 49.5a1.5 1.5 0 11-3 0 1.5 1.5 0 013 0zM-525 49.5a1.5 1.5 0 11-3 0 1.5 1.5 0 013 0zM-505 49.5a1.5 1.5 0 11-3 0 1.5 1.5 0 013 0zM-485 49.5a1.5 1.5 0 11-3 0 1.5 1.5 0 013 0zM-645 69.5a1.5 1.5 0 11-3 0 1.5 1.5 0 013 0zM-625 69.5a1.5 1.5 0 11-3 0 1.5 1.5 0 013 0zM-605 69.5a1.5 1.5 0 11-3 0 1.5 1.5 0 013 0zM-585 69.5a1.5 1.5 0 11-3 0 1.5 1.5 0 013 0zM-565 69.5a1.5 1.5 0 11-3 0 1.5 1.5 0 013 0zM-545 69.5a1.5 1.5 0 11-3 0 1.5 1.5 0 013 0zM-525 69.5a1.5 1.5 0 11-3 0 1.5 1.5 0 013 0zM-505 69.5a1.5 1.5 0 11-3 0 1.5 1.5 0 013 0zM-485 69.5a1.5 1.5 0 11-3 0 1.5 1.5 0 013 0zM-645 89.5a1.5 1.5 0 11-3 0 1.5 1.5 0 013 0zM-625 89.5a1.5 1.5 0 11-3 0 1.5 1.5 0 013 0zM-605 89.5a1.5 1.5 0 11-3 0 1.5 1.5 0 013 0zM-585 89.5a1.5 1.5 0 11-3 0 1.5 1.5 0 013 0zM-565 89.5a1.5 1.5 0 11-3 0 1.5 1.5 0 013 0zM-545 89.5a1.5 1.5 0 11-3 0 1.5 1.5 0 013 0zM-525 89.5a1.5 1.5 0 11-3 0 1.5 1.5 0 013 0zM-505 89.5a1.5 1.5 0 11-3 0 1.5 1.5 0 013 0zM-485 89.5a1.5 1.5 0 11-3 0 1.5 1.5 0 013 0zM-645 109.5a1.5 1.5 0 11-3.001-.001 1.5 1.5 0 013.001.001zM-625 109.5a1.5 1.5 0 11-3.001-.001 1.5 1.5 0 013.001.001zM-605 109.5a1.5 1.5 0 11-3.001-.001 1.5 1.5 0 013.001.001zM-585 109.5a1.5 1.5 0 11-3.001-.001 1.5 1.5 0 013.001.001zM-565 109.5a1.5 1.5 0 11-3.001-.001 1.5 1.5 0 013.001.001zM-545 109.5a1.5 1.5 0 11-3.001-.001 1.5 1.5 0 013.001.001zM-525 109.5a1.5 1.5 0 11-3.001-.001 1.5 1.5 0 013.001.001zM-505 109.5a1.5 1.5 0 11-3.001-.001 1.5 1.5 0 013.001.001zM-485 109.5a1.5 1.5 0 11-3.001-.001 1.5 1.5 0 013.001.001zM-645 129.5a1.5 1.5 0 11-3.001-.001 1.5 1.5 0 013.001.001zM-625 129.5a1.5 1.5 0 11-3.001-.001 1.5 1.5 0 013.001.001zM-605 129.5a1.5 1.5 0 11-3.001-.001 1.5 1.5 0 013.001.001zM-585 129.5a1.5 1.5 0 11-3.001-.001 1.5 1.5 0 013.001.001zM-565 129.5a1.5 1.5 0 11-3.001-.001 1.5 1.5 0 013.001.001zM-545 129.5a1.5 1.5 0 11-3.001-.001 1.5 1.5 0 013.001.001zM-525 129.5a1.5 1.5 0 11-3.001-.001 1.5 1.5 0 013.001.001zM-505 129.5a1.5 1.5 0 11-3.001-.001 1.5 1.5 0 013.001.001zM-485 129.5a1.5 1.5 0 11-3.001-.001 1.5 1.5 0 013.001.001zM-645 149.5a1.5 1.5 0 11-3.001-.001 1.5 1.5 0 013.001.001zM-625 149.5a1.5 1.5 0 11-3.001-.001 1.5 1.5 0 013.001.001zM-605 149.5a1.5 1.5 0 11-3.001-.001 1.5 1.5 0 013.001.001zM-585 149.5a1.5 1.5 0 11-3.001-.001 1.5 1.5 0 013.001.001zM-565 149.5a1.5 1.5 0 11-3.001-.001 1.5 1.5 0 013.001.001zM-545 149.5a1.5 1.5 0 11-3.001-.001 1.5 1.5 0 013.001.001zM-525 149.5a1.5 1.5 0 11-3.001-.001 1.5 1.5 0 013.001.001zM-505 149.5a1.5 1.5 0 11-3.001-.001 1.5 1.5 0 013.001.001zM-485 149.5a1.5 1.5 0 11-3.001-.001 1.5 1.5 0 013.001.001zM-645 169.5a1.5 1.5 0 11-3.001-.001 1.5 1.5 0 013.001.001zM-625 169.5a1.5 1.5 0 11-3.001-.001 1.5 1.5 0 013.001.001zM-605 169.5a1.5 1.5 0 11-3.001-.001 1.5 1.5 0 013.001.001zM-585 169.5a1.5 1.5 0 11-3.001-.001 1.5 1.5 0 013.001.001zM-565 169.5a1.5 1.5 0 11-3.001-.001 1.5 1.5 0 013.001.001zM-545 169.5a1.5 1.5 0 11-3.001-.001 1.5 1.5 0 013.001.001zM-525 169.5a1.5 1.5 0 11-3.001-.001 1.5 1.5 0 013.001.001zM-505 169.5a1.5 1.5 0 11-3.001-.001 1.5 1.5 0 013.001.001zM-485 169.5a1.5 1.5 0 11-3.001-.001 1.5 1.5 0 013.001.001zM-645 189.5a1.5 1.5 0 11-3.001-.001 1.5 1.5 0 013.001.001zM-625 189.5a1.5 1.5 0 11-3.001-.001 1.5 1.5 0 013.001.001zM-605 189.5a1.5 1.5 0 11-3.001-.001 1.5 1.5 0 013.001.001zM-585 189.5a1.5 1.5 0 11-3.001-.001 1.5 1.5 0 013.001.001zM-565 189.5a1.5 1.5 0 11-3.001-.001 1.5 1.5 0 013.001.001zM-545 189.5a1.5 1.5 0 11-3.001-.001 1.5 1.5 0 013.001.001zM-525 189.5a1.5 1.5 0 11-3.001-.001 1.5 1.5 0 013.001.001zM-505 189.5a1.5 1.5 0 11-3.001-.001 1.5 1.5 0 013.001.001zM-485 189.5a1.5 1.5 0 11-3.001-.001 1.5 1.5 0 013.001.001zM-645 209.5a1.5 1.5 0 11-3.001-.001 1.5 1.5 0 013.001.001zM-625 209.5a1.5 1.5 0 11-3.001-.001 1.5 1.5 0 013.001.001zM-605 209.5a1.5 1.5 0 11-3.001-.001 1.5 1.5 0 013.001.001zM-585 209.5a1.5 1.5 0 11-3.001-.001 1.5 1.5 0 013.001.001zM-565 209.5a1.5 1.5 0 11-3.001-.001 1.5 1.5 0 013.001.001zM-545 209.5a1.5 1.5 0 11-3.001-.001 1.5 1.5 0 013.001.001zM-525 209.5a1.5 1.5 0 11-3.001-.001 1.5 1.5 0 013.001.001zM-505 209.5a1.5 1.5 0 11-3.001-.001 1.5 1.5 0 013.001.001zM-485 209.5a1.5 1.5 0 11-3.001-.001 1.5 1.5 0 013.001.001zM-645 229.5a1.5 1.5 0 11-3.001-.001 1.5 1.5 0 013.001.001zM-625 229.5a1.5 1.5 0 11-3.001-.001 1.5 1.5 0 013.001.001zM-605 229.5a1.5 1.5 0 11-3.001-.001 1.5 1.5 0 013.001.001zM-585 229.5a1.5 1.5 0 11-3.001-.001 1.5 1.5 0 013.001.001zM-565 229.5a1.5 1.5 0 11-3.001-.001 1.5 1.5 0 013.001.001zM-545 229.5a1.5 1.5 0 11-3.001-.001 1.5 1.5 0 013.001.001zM-525 229.5a1.5 1.5 0 11-3.001-.001 1.5 1.5 0 013.001.001zM-505 229.5a1.5 1.5 0 11-3.001-.001 1.5 1.5 0 013.001.001zM-485 229.5a1.5 1.5 0 11-3.001-.001 1.5 1.5 0 013.001.001zM-465 9.5a1.5 1.5 0 11-3 0 1.5 1.5 0 013 0zM-445 9.5a1.5 1.5 0 11-3 0 1.5 1.5 0 013 0zM-425 9.5a1.5 1.5 0 11-3 0 1.5 1.5 0 013 0zM-405 9.5a1.5 1.5 0 11-3 0 1.5 1.5 0 013 0zM-385 9.5a1.5 1.5 0 11-3 0 1.5 1.5 0 013 0zM-365 9.5a1.5 1.5 0 11-3 0 1.5 1.5 0 013 0zM-345 9.5a1.5 1.5 0 11-3 0 1.5 1.5 0 013 0zM-325 9.5a1.5 1.5 0 11-3 0 1.5 1.5 0 013 0zM-305 9.5a1.5 1.5 0 11-3 0 1.5 1.5 0 013 0zM-285 9.5a1.5 1.5 0 11-3 0 1.5 1.5 0 013 0zM-265 9.5a1.5 1.5 0 11-3 0 1.5 1.5 0 013 0zM-245 9.5a1.5 1.5 0 11-3 0 1.5 1.5 0 013 0zM-225 9.5a1.5 1.5 0 11-3 0 1.5 1.5 0 013 0zM-205 9.5a1.5 1.5 0 11-3 0 1.5 1.5 0 013 0zM-185 9.5a1.5 1.5 0 11-3 0 1.5 1.5 0 013 0zM-465 29.5a1.5 1.5 0 11-3 0 1.5 1.5 0 013 0zM-445 29.5a1.5 1.5 0 11-3 0 1.5 1.5 0 013 0zM-425 29.5a1.5 1.5 0 11-3 0 1.5 1.5 0 013 0zM-405 29.5a1.5 1.5 0 11-3 0 1.5 1.5 0 013 0zM-385 29.5a1.5 1.5 0 11-3 0 1.5 1.5 0 013 0zM-365 29.5a1.5 1.5 0 11-3 0 1.5 1.5 0 013 0zM-345 29.5a1.5 1.5 0 11-3 0 1.5 1.5 0 013 0zM-325 29.5a1.5 1.5 0 11-3 0 1.5 1.5 0 013 0zM-305 29.5a1.5 1.5 0 11-3 0 1.5 1.5 0 013 0zM-285 29.5a1.5 1.5 0 11-3 0 1.5 1.5 0 013 0zM-265 29.5a1.5 1.5 0 11-3 0 1.5 1.5 0 013 0zM-245 29.5a1.5 1.5 0 11-3 0 1.5 1.5 0 013 0zM-225 29.5a1.5 1.5 0 11-3 0 1.5 1.5 0 013 0zM-205 29.5a1.5 1.5 0 11-3 0 1.5 1.5 0 013 0zM-185 29.5a1.5 1.5 0 11-3 0 1.5 1.5 0 013 0zM-465 49.5a1.5 1.5 0 11-3 0 1.5 1.5 0 013 0zM-445 49.5a1.5 1.5 0 11-3 0 1.5 1.5 0 013 0zM-425 49.5a1.5 1.5 0 11-3 0 1.5 1.5 0 013 0zM-405 49.5a1.5 1.5 0 11-3 0 1.5 1.5 0 013 0zM-385 49.5a1.5 1.5 0 11-3 0 1.5 1.5 0 013 0zM-365 49.5a1.5 1.5 0 11-3 0 1.5 1.5 0 013 0zM-345 49.5a1.5 1.5 0 11-3 0 1.5 1.5 0 013 0zM-325 49.5a1.5 1.5 0 11-3 0 1.5 1.5 0 013 0zM-305 49.5a1.5 1.5 0 11-3 0 1.5 1.5 0 013 0zM-285 49.5a1.5 1.5 0 11-3 0 1.5 1.5 0 013 0zM-265 49.5a1.5 1.5 0 11-3 0 1.5 1.5 0 013 0zM-245 49.5a1.5 1.5 0 11-3 0 1.5 1.5 0 013 0zM-225 49.5a1.5 1.5 0 11-3 0 1.5 1.5 0 013 0zM-205 49.5a1.5 1.5 0 11-3 0 1.5 1.5 0 013 0zM-185 49.5a1.5 1.5 0 11-3 0 1.5 1.5 0 013 0zM-465 69.5a1.5 1.5 0 11-3 0 1.5 1.5 0 013 0zM-445 69.5a1.5 1.5 0 11-3 0 1.5 1.5 0 013 0zM-425 69.5a1.5 1.5 0 11-3 0 1.5 1.5 0 013 0zM-405 69.5a1.5 1.5 0 11-3 0 1.5 1.5 0 013 0zM-385 69.5a1.5 1.5 0 11-3 0 1.5 1.5 0 013 0zM-365 69.5a1.5 1.5 0 11-3 0 1.5 1.5 0 013 0zM-345 69.5a1.5 1.5 0 11-3 0 1.5 1.5 0 013 0zM-325 69.5a1.5 1.5 0 11-3 0 1.5 1.5 0 013 0zM-305 69.5a1.5 1.5 0 11-3 0 1.5 1.5 0 013 0zM-285 69.5a1.5 1.5 0 11-3 0 1.5 1.5 0 013 0zM-265 69.5a1.5 1.5 0 11-3 0 1.5 1.5 0 013 0zM-245 69.5a1.5 1.5 0 11-3 0 1.5 1.5 0 013 0zM-225 69.5a1.5 1.5 0 11-3 0 1.5 1.5 0 013 0zM-205 69.5a1.5 1.5 0 11-3 0 1.5 1.5 0 013 0zM-185 69.5a1.5 1.5 0 11-3 0 1.5 1.5 0 013 0zM-465 89.5a1.5 1.5 0 11-3 0 1.5 1.5 0 013 0zM-445 89.5a1.5 1.5 0 11-3 0 1.5 1.5 0 013 0zM-425 89.5a1.5 1.5 0 11-3 0 1.5 1.5 0 013 0zM-405 89.5a1.5 1.5 0 11-3 0 1.5 1.5 0 013 0zM-385 89.5a1.5 1.5 0 11-3 0 1.5 1.5 0 013 0zM-365 89.5a1.5 1.5 0 11-3 0 1.5 1.5 0 013 0zM-345 89.5a1.5 1.5 0 11-3 0 1.5 1.5 0 013 0zM-325 89.5a1.5 1.5 0 11-3 0 1.5 1.5 0 013 0zM-305 89.5a1.5 1.5 0 11-3 0 1.5 1.5 0 013 0zM-285 89.5a1.5 1.5 0 11-3 0 1.5 1.5 0 013 0zM-265 89.5a1.5 1.5 0 11-3 0 1.5 1.5 0 013 0zM-245 89.5a1.5 1.5 0 11-3 0 1.5 1.5 0 013 0zM-225 89.5a1.5 1.5 0 11-3 0 1.5 1.5 0 013 0zM-205 89.5a1.5 1.5 0 11-3 0 1.5 1.5 0 013 0zM-185 89.5a1.5 1.5 0 11-3 0 1.5 1.5 0 013 0zM-465 109.5a1.5 1.5 0 11-3.001-.001 1.5 1.5 0 013.001.001zM-445 109.5a1.5 1.5 0 11-3.001-.001 1.5 1.5 0 013.001.001zM-425 109.5a1.5 1.5 0 11-3.001-.001 1.5 1.5 0 013.001.001zM-405 109.5a1.5 1.5 0 11-3.001-.001 1.5 1.5 0 013.001.001zM-385 109.5a1.5 1.5 0 11-3.001-.001 1.5 1.5 0 013.001.001zM-365 109.5a1.5 1.5 0 11-3.001-.001 1.5 1.5 0 013.001.001zM-345 109.5a1.5 1.5 0 11-3.001-.001 1.5 1.5 0 013.001.001zM-325 109.5a1.5 1.5 0 11-3.001-.001 1.5 1.5 0 013.001.001zM-305 109.5a1.5 1.5 0 11-3.001-.001 1.5 1.5 0 013.001.001zM-285 109.5a1.5 1.5 0 11-3.001-.001 1.5 1.5 0 013.001.001zM-265 109.5a1.5 1.5 0 11-3.001-.001 1.5 1.5 0 013.001.001zM-245 109.5a1.5 1.5 0 11-3.001-.001 1.5 1.5 0 013.001.001zM-225 109.5a1.5 1.5 0 11-3.001-.001 1.5 1.5 0 013.001.001zM-205 109.5a1.5 1.5 0 11-3.001-.001 1.5 1.5 0 013.001.001zM-185 109.5a1.5 1.5 0 11-3.001-.001 1.5 1.5 0 013.001.001zM-465 129.5a1.5 1.5 0 11-3.001-.001 1.5 1.5 0 013.001.001zM-445 129.5a1.5 1.5 0 11-3.001-.001 1.5 1.5 0 013.001.001zM-425 129.5a1.5 1.5 0 11-3.001-.001 1.5 1.5 0 013.001.001zM-405 129.5a1.5 1.5 0 11-3.001-.001 1.5 1.5 0 013.001.001zM-385 129.5a1.5 1.5 0 11-3.001-.001 1.5 1.5 0 013.001.001zM-365 129.5a1.5 1.5 0 11-3.001-.001 1.5 1.5 0 013.001.001zM-345 129.5a1.5 1.5 0 11-3.001-.001 1.5 1.5 0 013.001.001zM-325 129.5a1.5 1.5 0 11-3.001-.001 1.5 1.5 0 013.001.001zM-305 129.5a1.5 1.5 0 11-3.001-.001 1.5 1.5 0 013.001.001zM-285 129.5a1.5 1.5 0 11-3.001-.001 1.5 1.5 0 013.001.001zM-265 129.5a1.5 1.5 0 11-3.001-.001 1.5 1.5 0 013.001.001zM-245 129.5a1.5 1.5 0 11-3.001-.001 1.5 1.5 0 013.001.001zM-225 129.5a1.5 1.5 0 11-3.001-.001 1.5 1.5 0 013.001.001zM-205 129.5a1.5 1.5 0 11-3.001-.001 1.5 1.5 0 013.001.001zM-185 129.5a1.5 1.5 0 11-3.001-.001 1.5 1.5 0 013.001.001zM-465 149.5a1.5 1.5 0 11-3.001-.001 1.5 1.5 0 013.001.001zM-445 149.5a1.5 1.5 0 11-3.001-.001 1.5 1.5 0 013.001.001zM-425 149.5a1.5 1.5 0 11-3.001-.001 1.5 1.5 0 013.001.001zM-405 149.5a1.5 1.5 0 11-3.001-.001 1.5 1.5 0 013.001.001zM-385 149.5a1.5 1.5 0 11-3.001-.001 1.5 1.5 0 013.001.001zM-365 149.5a1.5 1.5 0 11-3.001-.001 1.5 1.5 0 013.001.001zM-345 149.5a1.5 1.5 0 11-3.001-.001 1.5 1.5 0 013.001.001zM-325 149.5a1.5 1.5 0 11-3.001-.001 1.5 1.5 0 013.001.001zM-305 149.5a1.5 1.5 0 11-3.001-.001 1.5 1.5 0 013.001.001zM-285 149.5a1.5 1.5 0 11-3.001-.001 1.5 1.5 0 013.001.001zM-265 149.5a1.5 1.5 0 11-3.001-.001 1.5 1.5 0 013.001.001zM-245 149.5a1.5 1.5 0 11-3.001-.001 1.5 1.5 0 013.001.001zM-225 149.5a1.5 1.5 0 11-3.001-.001 1.5 1.5 0 013.001.001zM-205 149.5a1.5 1.5 0 11-3.001-.001 1.5 1.5 0 013.001.001zM-185 149.5a1.5 1.5 0 11-3.001-.001 1.5 1.5 0 013.001.001zM-465 169.5a1.5 1.5 0 11-3.001-.001 1.5 1.5 0 013.001.001zM-445 169.5a1.5 1.5 0 11-3.001-.001 1.5 1.5 0 013.001.001zM-425 169.5a1.5 1.5 0 11-3.001-.001 1.5 1.5 0 013.001.001zM-405 169.5a1.5 1.5 0 11-3.001-.001 1.5 1.5 0 013.001.001zM-385 169.5a1.5 1.5 0 11-3.001-.001 1.5 1.5 0 013.001.001zM-365 169.5a1.5 1.5 0 11-3.001-.001 1.5 1.5 0 013.001.001zM-345 169.5a1.5 1.5 0 11-3.001-.001 1.5 1.5 0 013.001.001zM-325 169.5a1.5 1.5 0 11-3.001-.001 1.5 1.5 0 013.001.001zM-305 169.5a1.5 1.5 0 11-3.001-.001 1.5 1.5 0 013.001.001zM-285 169.5a1.5 1.5 0 11-3.001-.001 1.5 1.5 0 013.001.001zM-265 169.5a1.5 1.5 0 11-3.001-.001 1.5 1.5 0 013.001.001zM-245 169.5a1.5 1.5 0 11-3.001-.001 1.5 1.5 0 013.001.001zM-225 169.5a1.5 1.5 0 11-3.001-.001 1.5 1.5 0 013.001.001zM-205 169.5a1.5 1.5 0 11-3.001-.001 1.5 1.5 0 013.001.001zM-185 169.5a1.5 1.5 0 11-3.001-.001 1.5 1.5 0 013.001.001zM-465 189.5a1.5 1.5 0 11-3.001-.001 1.5 1.5 0 013.001.001zM-445 189.5a1.5 1.5 0 11-3.001-.001 1.5 1.5 0 013.001.001zM-425 189.5a1.5 1.5 0 11-3.001-.001 1.5 1.5 0 013.001.001zM-405 189.5a1.5 1.5 0 11-3.001-.001 1.5 1.5 0 013.001.001zM-385 189.5a1.5 1.5 0 11-3.001-.001 1.5 1.5 0 013.001.001zM-365 189.5a1.5 1.5 0 11-3.001-.001 1.5 1.5 0 013.001.001zM-345 189.5a1.5 1.5 0 11-3.001-.001 1.5 1.5 0 013.001.001zM-325 189.5a1.5 1.5 0 11-3.001-.001 1.5 1.5 0 013.001.001zM-305 189.5a1.5 1.5 0 11-3.001-.001 1.5 1.5 0 013.001.001zM-285 189.5a1.5 1.5 0 11-3.001-.001 1.5 1.5 0 013.001.001zM-265 189.5a1.5 1.5 0 11-3.001-.001 1.5 1.5 0 013.001.001zM-245 189.5a1.5 1.5 0 11-3.001-.001 1.5 1.5 0 013.001.001zM-225 189.5a1.5 1.5 0 11-3.001-.001 1.5 1.5 0 013.001.001zM-205 189.5a1.5 1.5 0 11-3.001-.001 1.5 1.5 0 013.001.001zM-185 189.5a1.5 1.5 0 11-3.001-.001 1.5 1.5 0 013.001.001zM-465 209.5a1.5 1.5 0 11-3.001-.001 1.5 1.5 0 013.001.001zM-445 209.5a1.5 1.5 0 11-3.001-.001 1.5 1.5 0 013.001.001zM-425 209.5a1.5 1.5 0 11-3.001-.001 1.5 1.5 0 013.001.001zM-405 209.5a1.5 1.5 0 11-3.001-.001 1.5 1.5 0 013.001.001zM-385 209.5a1.5 1.5 0 11-3.001-.001 1.5 1.5 0 013.001.001zM-365 209.5a1.5 1.5 0 11-3.001-.001 1.5 1.5 0 013.001.001zM-345 209.5a1.5 1.5 0 11-3.001-.001 1.5 1.5 0 013.001.001zM-325 209.5a1.5 1.5 0 11-3.001-.001 1.5 1.5 0 013.001.001zM-305 209.5a1.5 1.5 0 11-3.001-.001 1.5 1.5 0 013.001.001zM-285 209.5a1.5 1.5 0 11-3.001-.001 1.5 1.5 0 013.001.001zM-265 209.5a1.5 1.5 0 11-3.001-.001 1.5 1.5 0 013.001.001zM-245 209.5a1.5 1.5 0 11-3.001-.001 1.5 1.5 0 013.001.001zM-225 209.5a1.5 1.5 0 11-3.001-.001 1.5 1.5 0 013.001.001zM-205 209.5a1.5 1.5 0 11-3.001-.001 1.5 1.5 0 013.001.001zM-185 209.5a1.5 1.5 0 11-3.001-.001 1.5 1.5 0 013.001.001zM-465 229.5a1.5 1.5 0 11-3.001-.001 1.5 1.5 0 013.001.001zM-445 229.5a1.5 1.5 0 11-3.001-.001 1.5 1.5 0 013.001.001zM-425 229.5a1.5 1.5 0 11-3.001-.001 1.5 1.5 0 013.001.001zM-405 229.5a1.5 1.5 0 11-3.001-.001 1.5 1.5 0 013.001.001zM-385 229.5a1.5 1.5 0 11-3.001-.001 1.5 1.5 0 013.001.001zM-365 229.5a1.5 1.5 0 11-3.001-.001 1.5 1.5 0 013.001.001zM-345 229.5a1.5 1.5 0 11-3.001-.001 1.5 1.5 0 013.001.001zM-325 229.5a1.5 1.5 0 11-3.001-.001 1.5 1.5 0 013.001.001zM-305 229.5a1.5 1.5 0 11-3.001-.001 1.5 1.5 0 013.001.001zM-285 229.5a1.5 1.5 0 11-3.001-.001 1.5 1.5 0 013.001.001zM-265 229.5a1.5 1.5 0 11-3.001-.001 1.5 1.5 0 013.001.001zM-245 229.5a1.5 1.5 0 11-3.001-.001 1.5 1.5 0 013.001.001zM-225 229.5a1.5 1.5 0 11-3.001-.001 1.5 1.5 0 013.001.001zM-205 229.5a1.5 1.5 0 11-3.001-.001 1.5 1.5 0 013.001.001zM-185 229.5a1.5 1.5 0 11-3.001-.001 1.5 1.5 0 013.001.001zM-165 9.5a1.5 1.5 0 11-3 0 1.5 1.5 0 013 0zM-145 9.5a1.5 1.5 0 11-3 0 1.5 1.5 0 013 0zM-125 9.5a1.5 1.5 0 11-3 0 1.5 1.5 0 013 0zM-105 9.5a1.5 1.5 0 11-3 0 1.5 1.5 0 013 0zM-85 9.5a1.5 1.5 0 11-3 0 1.5 1.5 0 013 0zM-165 29.5a1.5 1.5 0 11-3 0 1.5 1.5 0 013 0zM-145 29.5a1.5 1.5 0 11-3 0 1.5 1.5 0 013 0zM-125 29.5a1.5 1.5 0 11-3 0 1.5 1.5 0 013 0zM-105 29.5a1.5 1.5 0 11-3 0 1.5 1.5 0 013 0zM-85 29.5a1.5 1.5 0 11-3 0 1.5 1.5 0 013 0zM-165 49.5a1.5 1.5 0 11-3 0 1.5 1.5 0 013 0zM-145 49.5a1.5 1.5 0 11-3 0 1.5 1.5 0 013 0zM-125 49.5a1.5 1.5 0 11-3 0 1.5 1.5 0 013 0zM-105 49.5a1.5 1.5 0 11-3 0 1.5 1.5 0 013 0zM-85 49.5a1.5 1.5 0 11-3 0 1.5 1.5 0 013 0zM-165 69.5a1.5 1.5 0 11-3 0 1.5 1.5 0 013 0zM-145 69.5a1.5 1.5 0 11-3 0 1.5 1.5 0 013 0zM-125 69.5a1.5 1.5 0 11-3 0 1.5 1.5 0 013 0zM-105 69.5a1.5 1.5 0 11-3 0 1.5 1.5 0 013 0zM-85 69.5a1.5 1.5 0 11-3 0 1.5 1.5 0 013 0zM-165 89.5a1.5 1.5 0 11-3 0 1.5 1.5 0 013 0zM-145 89.5a1.5 1.5 0 11-3 0 1.5 1.5 0 013 0zM-125 89.5a1.5 1.5 0 11-3 0 1.5 1.5 0 013 0zM-105 89.5a1.5 1.5 0 11-3 0 1.5 1.5 0 013 0zM-85 89.5a1.5 1.5 0 11-3 0 1.5 1.5 0 013 0zM-165 109.5a1.5 1.5 0 11-3.001-.001 1.5 1.5 0 013.001.001zM-145 109.5a1.5 1.5 0 11-3.001-.001 1.5 1.5 0 013.001.001zM-125 109.5a1.5 1.5 0 11-3.001-.001 1.5 1.5 0 013.001.001zM-105 109.5a1.5 1.5 0 11-3.001-.001 1.5 1.5 0 013.001.001zM-85 109.5a1.5 1.5 0 11-3 0 1.5 1.5 0 013 0zM-165 129.5a1.5 1.5 0 11-3.001-.001 1.5 1.5 0 013.001.001zM-145 129.5a1.5 1.5 0 11-3.001-.001 1.5 1.5 0 013.001.001zM-125 129.5a1.5 1.5 0 11-3.001-.001 1.5 1.5 0 013.001.001zM-105 129.5a1.5 1.5 0 11-3.001-.001 1.5 1.5 0 013.001.001zM-85 129.5a1.5 1.5 0 11-3 0 1.5 1.5 0 013 0zM-165 149.5a1.5 1.5 0 11-3.001-.001 1.5 1.5 0 013.001.001zM-145 149.5a1.5 1.5 0 11-3.001-.001 1.5 1.5 0 013.001.001zM-125 149.5a1.5 1.5 0 11-3.001-.001 1.5 1.5 0 013.001.001zM-105 149.5a1.5 1.5 0 11-3.001-.001 1.5 1.5 0 013.001.001zM-85 149.5a1.5 1.5 0 11-3 0 1.5 1.5 0 013 0zM-165 169.5a1.5 1.5 0 11-3.001-.001 1.5 1.5 0 013.001.001zM-145 169.5a1.5 1.5 0 11-3.001-.001 1.5 1.5 0 013.001.001zM-125 169.5a1.5 1.5 0 11-3.001-.001 1.5 1.5 0 013.001.001zM-105 169.5a1.5 1.5 0 11-3.001-.001 1.5 1.5 0 013.001.001zM-85 169.5a1.5 1.5 0 11-3 0 1.5 1.5 0 013 0zM-165 189.5a1.5 1.5 0 11-3.001-.001 1.5 1.5 0 013.001.001zM-145 189.5a1.5 1.5 0 11-3.001-.001 1.5 1.5 0 013.001.001zM-125 189.5a1.5 1.5 0 11-3.001-.001 1.5 1.5 0 013.001.001zM-105 189.5a1.5 1.5 0 11-3.001-.001 1.5 1.5 0 013.001.001zM-85 189.5a1.5 1.5 0 11-3 0 1.5 1.5 0 013 0zM-165 209.5a1.5 1.5 0 11-3.001-.001 1.5 1.5 0 013.001.001zM-145 209.5a1.5 1.5 0 11-3.001-.001 1.5 1.5 0 013.001.001zM-125 209.5a1.5 1.5 0 11-3.001-.001 1.5 1.5 0 013.001.001zM-105 209.5a1.5 1.5 0 11-3.001-.001 1.5 1.5 0 013.001.001zM-85 209.5a1.5 1.5 0 11-3 0 1.5 1.5 0 013 0zM-165 229.5a1.5 1.5 0 11-3.001-.001 1.5 1.5 0 013.001.001zM-145 229.5a1.5 1.5 0 11-3.001-.001 1.5 1.5 0 013.001.001zM-125 229.5a1.5 1.5 0 11-3.001-.001 1.5 1.5 0 013.001.001zM-105 229.5a1.5 1.5 0 11-3.001-.001 1.5 1.5 0 013.001.001zM-85 229.5a1.5 1.5 0 11-3 0 1.5 1.5 0 013 0zM-645 249.5a1.5 1.5 0 11-3.001-.001 1.5 1.5 0 013.001.001zM-625 249.5a1.5 1.5 0 11-3.001-.001 1.5 1.5 0 013.001.001zM-605 249.5a1.5 1.5 0 11-3.001-.001 1.5 1.5 0 013.001.001zM-585 249.5a1.5 1.5 0 11-3.001-.001 1.5 1.5 0 013.001.001zM-565 249.5a1.5 1.5 0 11-3.001-.001 1.5 1.5 0 013.001.001zM-545 249.5a1.5 1.5 0 11-3.001-.001 1.5 1.5 0 013.001.001zM-525 249.5a1.5 1.5 0 11-3.001-.001 1.5 1.5 0 013.001.001zM-505 249.5a1.5 1.5 0 11-3.001-.001 1.5 1.5 0 013.001.001zM-485 249.5a1.5 1.5 0 11-3.001-.001 1.5 1.5 0 013.001.001zM-645 269.5a1.5 1.5 0 11-3.001-.001 1.5 1.5 0 013.001.001zM-625 269.5a1.5 1.5 0 11-3.001-.001 1.5 1.5 0 013.001.001zM-605 269.5a1.5 1.5 0 11-3.001-.001 1.5 1.5 0 013.001.001zM-585 269.5a1.5 1.5 0 11-3.001-.001 1.5 1.5 0 013.001.001zM-565 269.5a1.5 1.5 0 11-3.001-.001 1.5 1.5 0 013.001.001zM-545 269.5a1.5 1.5 0 11-3.001-.001 1.5 1.5 0 013.001.001zM-525 269.5a1.5 1.5 0 11-3.001-.001 1.5 1.5 0 013.001.001zM-505 269.5a1.5 1.5 0 11-3.001-.001 1.5 1.5 0 013.001.001zM-485 269.5a1.5 1.5 0 11-3.001-.001 1.5 1.5 0 013.001.001zM-645 289.5a1.5 1.5 0 11-3.001-.001 1.5 1.5 0 013.001.001zM-625 289.5a1.5 1.5 0 11-3.001-.001 1.5 1.5 0 013.001.001zM-605 289.5a1.5 1.5 0 11-3.001-.001 1.5 1.5 0 013.001.001zM-585 289.5a1.5 1.5 0 11-3.001-.001 1.5 1.5 0 013.001.001zM-565 289.5a1.5 1.5 0 11-3.001-.001 1.5 1.5 0 013.001.001zM-545 289.5a1.5 1.5 0 11-3.001-.001 1.5 1.5 0 013.001.001zM-525 289.5a1.5 1.5 0 11-3.001-.001 1.5 1.5 0 013.001.001zM-505 289.5a1.5 1.5 0 11-3.001-.001 1.5 1.5 0 013.001.001zM-485 289.5a1.5 1.5 0 11-3.001-.001 1.5 1.5 0 013.001.001zM-645 309.5a1.5 1.5 0 11-3.001-.001 1.5 1.5 0 013.001.001zM-625 309.5a1.5 1.5 0 11-3.001-.001 1.5 1.5 0 013.001.001zM-605 309.5a1.5 1.5 0 11-3.001-.001 1.5 1.5 0 013.001.001zM-585 309.5a1.5 1.5 0 11-3.001-.001 1.5 1.5 0 013.001.001zM-565 309.5a1.5 1.5 0 11-3.001-.001 1.5 1.5 0 013.001.001zM-545 309.5a1.5 1.5 0 11-3.001-.001 1.5 1.5 0 013.001.001zM-525 309.5a1.5 1.5 0 11-3.001-.001 1.5 1.5 0 013.001.001zM-505 309.5a1.5 1.5 0 11-3.001-.001 1.5 1.5 0 013.001.001zM-485 309.5a1.5 1.5 0 11-3.001-.001 1.5 1.5 0 013.001.001zM-645 329.5a1.5 1.5 0 11-3.001-.001 1.5 1.5 0 013.001.001zM-625 329.5a1.5 1.5 0 11-3.001-.001 1.5 1.5 0 013.001.001zM-605 329.5a1.5 1.5 0 11-3.001-.001 1.5 1.5 0 013.001.001zM-585 329.5a1.5 1.5 0 11-3.001-.001 1.5 1.5 0 013.001.001zM-565 329.5a1.5 1.5 0 11-3.001-.001 1.5 1.5 0 013.001.001zM-545 329.5a1.5 1.5 0 11-3.001-.001 1.5 1.5 0 013.001.001zM-525 329.5a1.5 1.5 0 11-3.001-.001 1.5 1.5 0 013.001.001zM-505 329.5a1.5 1.5 0 11-3.001-.001 1.5 1.5 0 013.001.001zM-485 329.5a1.5 1.5 0 11-3.001-.001 1.5 1.5 0 013.001.001zM-645 349.5a1.5 1.5 0 11-3.001-.001 1.5 1.5 0 013.001.001zM-625 349.5a1.5 1.5 0 11-3.001-.001 1.5 1.5 0 013.001.001zM-605 349.5a1.5 1.5 0 11-3.001-.001 1.5 1.5 0 013.001.001zM-585 349.5a1.5 1.5 0 11-3.001-.001 1.5 1.5 0 013.001.001zM-565 349.5a1.5 1.5 0 11-3.001-.001 1.5 1.5 0 013.001.001zM-545 349.5a1.5 1.5 0 11-3.001-.001 1.5 1.5 0 013.001.001zM-525 349.5a1.5 1.5 0 11-3.001-.001 1.5 1.5 0 013.001.001zM-505 349.5a1.5 1.5 0 11-3.001-.001 1.5 1.5 0 013.001.001zM-485 349.5a1.5 1.5 0 11-3.001-.001 1.5 1.5 0 013.001.001zM-465 249.5a1.5 1.5 0 11-3.001-.001 1.5 1.5 0 013.001.001zM-445 249.5a1.5 1.5 0 11-3.001-.001 1.5 1.5 0 013.001.001zM-425 249.5a1.5 1.5 0 11-3.001-.001 1.5 1.5 0 013.001.001zM-405 249.5a1.5 1.5 0 11-3.001-.001 1.5 1.5 0 013.001.001zM-385 249.5a1.5 1.5 0 11-3.001-.001 1.5 1.5 0 013.001.001zM-365 249.5a1.5 1.5 0 11-3.001-.001 1.5 1.5 0 013.001.001zM-345 249.5a1.5 1.5 0 11-3.001-.001 1.5 1.5 0 013.001.001zM-325 249.5a1.5 1.5 0 11-3.001-.001 1.5 1.5 0 013.001.001zM-305 249.5a1.5 1.5 0 11-3.001-.001 1.5 1.5 0 013.001.001zM-285 249.5a1.5 1.5 0 11-3.001-.001 1.5 1.5 0 013.001.001zM-265 249.5a1.5 1.5 0 11-3.001-.001 1.5 1.5 0 013.001.001zM-245 249.5a1.5 1.5 0 11-3.001-.001 1.5 1.5 0 013.001.001zM-225 249.5a1.5 1.5 0 11-3.001-.001 1.5 1.5 0 013.001.001zM-205 249.5a1.5 1.5 0 11-3.001-.001 1.5 1.5 0 013.001.001zM-185 249.5a1.5 1.5 0 11-3.001-.001 1.5 1.5 0 013.001.001zM-465 269.5a1.5 1.5 0 11-3.001-.001 1.5 1.5 0 013.001.001zM-445 269.5a1.5 1.5 0 11-3.001-.001 1.5 1.5 0 013.001.001zM-425 269.5a1.5 1.5 0 11-3.001-.001 1.5 1.5 0 013.001.001zM-405 269.5a1.5 1.5 0 11-3.001-.001 1.5 1.5 0 013.001.001zM-385 269.5a1.5 1.5 0 11-3.001-.001 1.5 1.5 0 013.001.001zM-365 269.5a1.5 1.5 0 11-3.001-.001 1.5 1.5 0 013.001.001zM-345 269.5a1.5 1.5 0 11-3.001-.001 1.5 1.5 0 013.001.001zM-325 269.5a1.5 1.5 0 11-3.001-.001 1.5 1.5 0 013.001.001zM-305 269.5a1.5 1.5 0 11-3.001-.001 1.5 1.5 0 013.001.001zM-285 269.5a1.5 1.5 0 11-3.001-.001 1.5 1.5 0 013.001.001zM-265 269.5a1.5 1.5 0 11-3.001-.001 1.5 1.5 0 013.001.001zM-245 269.5a1.5 1.5 0 11-3.001-.001 1.5 1.5 0 013.001.001zM-225 269.5a1.5 1.5 0 11-3.001-.001 1.5 1.5 0 013.001.001zM-205 269.5a1.5 1.5 0 11-3.001-.001 1.5 1.5 0 013.001.001zM-185 269.5a1.5 1.5 0 11-3.001-.001 1.5 1.5 0 013.001.001zM-465 289.5a1.5 1.5 0 11-3.001-.001 1.5 1.5 0 013.001.001zM-445 289.5a1.5 1.5 0 11-3.001-.001 1.5 1.5 0 013.001.001zM-425 289.5a1.5 1.5 0 11-3.001-.001 1.5 1.5 0 013.001.001zM-405 289.5a1.5 1.5 0 11-3.001-.001 1.5 1.5 0 013.001.001zM-385 289.5a1.5 1.5 0 11-3.001-.001 1.5 1.5 0 013.001.001zM-365 289.5a1.5 1.5 0 11-3.001-.001 1.5 1.5 0 013.001.001zM-345 289.5a1.5 1.5 0 11-3.001-.001 1.5 1.5 0 013.001.001zM-325 289.5a1.5 1.5 0 11-3.001-.001 1.5 1.5 0 013.001.001zM-305 289.5a1.5 1.5 0 11-3.001-.001 1.5 1.5 0 013.001.001zM-285 289.5a1.5 1.5 0 11-3.001-.001 1.5 1.5 0 013.001.001zM-265 289.5a1.5 1.5 0 11-3.001-.001 1.5 1.5 0 013.001.001zM-245 289.5a1.5 1.5 0 11-3.001-.001 1.5 1.5 0 013.001.001zM-225 289.5a1.5 1.5 0 11-3.001-.001 1.5 1.5 0 013.001.001zM-205 289.5a1.5 1.5 0 11-3.001-.001 1.5 1.5 0 013.001.001zM-185 289.5a1.5 1.5 0 11-3.001-.001 1.5 1.5 0 013.001.001zM-465 309.5a1.5 1.5 0 11-3.001-.001 1.5 1.5 0 013.001.001zM-445 309.5a1.5 1.5 0 11-3.001-.001 1.5 1.5 0 013.001.001zM-425 309.5a1.5 1.5 0 11-3.001-.001 1.5 1.5 0 013.001.001zM-405 309.5a1.5 1.5 0 11-3.001-.001 1.5 1.5 0 013.001.001zM-385 309.5a1.5 1.5 0 11-3.001-.001 1.5 1.5 0 013.001.001zM-365 309.5a1.5 1.5 0 11-3.001-.001 1.5 1.5 0 013.001.001zM-345 309.5a1.5 1.5 0 11-3.001-.001 1.5 1.5 0 013.001.001zM-325 309.5a1.5 1.5 0 11-3.001-.001 1.5 1.5 0 013.001.001zM-305 309.5a1.5 1.5 0 11-3.001-.001 1.5 1.5 0 013.001.001zM-285 309.5a1.5 1.5 0 11-3.001-.001 1.5 1.5 0 013.001.001zM-265 309.5a1.5 1.5 0 11-3.001-.001 1.5 1.5 0 013.001.001zM-245 309.5a1.5 1.5 0 11-3.001-.001 1.5 1.5 0 013.001.001zM-225 309.5a1.5 1.5 0 11-3.001-.001 1.5 1.5 0 013.001.001zM-205 309.5a1.5 1.5 0 11-3.001-.001 1.5 1.5 0 013.001.001zM-185 309.5a1.5 1.5 0 11-3.001-.001 1.5 1.5 0 013.001.001zM-465 329.5a1.5 1.5 0 11-3.001-.001 1.5 1.5 0 013.001.001zM-445 329.5a1.5 1.5 0 11-3.001-.001 1.5 1.5 0 013.001.001zM-425 329.5a1.5 1.5 0 11-3.001-.001 1.5 1.5 0 013.001.001zM-405 329.5a1.5 1.5 0 11-3.001-.001 1.5 1.5 0 013.001.001zM-385 329.5a1.5 1.5 0 11-3.001-.001 1.5 1.5 0 013.001.001zM-365 329.5a1.5 1.5 0 11-3.001-.001 1.5 1.5 0 013.001.001zM-345 329.5a1.5 1.5 0 11-3.001-.001 1.5 1.5 0 013.001.001zM-325 329.5a1.5 1.5 0 11-3.001-.001 1.5 1.5 0 013.001.001zM-305 329.5a1.5 1.5 0 11-3.001-.001 1.5 1.5 0 013.001.001zM-285 329.5a1.5 1.5 0 11-3.001-.001 1.5 1.5 0 013.001.001zM-265 329.5a1.5 1.5 0 11-3.001-.001 1.5 1.5 0 013.001.001zM-245 329.5a1.5 1.5 0 11-3.001-.001 1.5 1.5 0 013.001.001zM-225 329.5a1.5 1.5 0 11-3.001-.001 1.5 1.5 0 013.001.001zM-205 329.5a1.5 1.5 0 11-3.001-.001 1.5 1.5 0 013.001.001zM-185 329.5a1.5 1.5 0 11-3.001-.001 1.5 1.5 0 013.001.001zM-465 349.5a1.5 1.5 0 11-3.001-.001 1.5 1.5 0 013.001.001zM-445 349.5a1.5 1.5 0 11-3.001-.001 1.5 1.5 0 013.001.001zM-425 349.5a1.5 1.5 0 11-3.001-.001 1.5 1.5 0 013.001.001zM-405 349.5a1.5 1.5 0 11-3.001-.001 1.5 1.5 0 013.001.001zM-385 349.5a1.5 1.5 0 11-3.001-.001 1.5 1.5 0 013.001.001zM-365 349.5a1.5 1.5 0 11-3.001-.001 1.5 1.5 0 013.001.001zM-345 349.5a1.5 1.5 0 11-3.001-.001 1.5 1.5 0 013.001.001zM-325 349.5a1.5 1.5 0 11-3.001-.001 1.5 1.5 0 013.001.001zM-305 349.5a1.5 1.5 0 11-3.001-.001 1.5 1.5 0 013.001.001zM-285 349.5a1.5 1.5 0 11-3.001-.001 1.5 1.5 0 013.001.001zM-265 349.5a1.5 1.5 0 11-3.001-.001 1.5 1.5 0 013.001.001zM-245 349.5a1.5 1.5 0 11-3.001-.001 1.5 1.5 0 013.001.001zM-225 349.5a1.5 1.5 0 11-3.001-.001 1.5 1.5 0 013.001.001zM-205 349.5a1.5 1.5 0 11-3.001-.001 1.5 1.5 0 013.001.001zM-185 349.5a1.5 1.5 0 11-3.001-.001 1.5 1.5 0 013.001.001zM-165 249.5a1.5 1.5 0 11-3.001-.001 1.5 1.5 0 013.001.001zM-145 249.5a1.5 1.5 0 11-3.001-.001 1.5 1.5 0 013.001.001zM-125 249.5a1.5 1.5 0 11-3.001-.001 1.5 1.5 0 013.001.001zM-105 249.5a1.5 1.5 0 11-3.001-.001 1.5 1.5 0 013.001.001zM-85 249.5a1.5 1.5 0 11-3 0 1.5 1.5 0 013 0zM-165 269.5a1.5 1.5 0 11-3.001-.001 1.5 1.5 0 013.001.001zM-145 269.5a1.5 1.5 0 11-3.001-.001 1.5 1.5 0 013.001.001zM-125 269.5a1.5 1.5 0 11-3.001-.001 1.5 1.5 0 013.001.001zM-105 269.5a1.5 1.5 0 11-3.001-.001 1.5 1.5 0 013.001.001zM-85 269.5a1.5 1.5 0 11-3 0 1.5 1.5 0 013 0zM-165 289.5a1.5 1.5 0 11-3.001-.001 1.5 1.5 0 013.001.001zM-145 289.5a1.5 1.5 0 11-3.001-.001 1.5 1.5 0 013.001.001zM-125 289.5a1.5 1.5 0 11-3.001-.001 1.5 1.5 0 013.001.001zM-105 289.5a1.5 1.5 0 11-3.001-.001 1.5 1.5 0 013.001.001zM-85 289.5a1.5 1.5 0 11-3 0 1.5 1.5 0 013 0zM-165 309.5a1.5 1.5 0 11-3.001-.001 1.5 1.5 0 013.001.001zM-145 309.5a1.5 1.5 0 11-3.001-.001 1.5 1.5 0 013.001.001zM-125 309.5a1.5 1.5 0 11-3.001-.001 1.5 1.5 0 013.001.001zM-105 309.5a1.5 1.5 0 11-3.001-.001 1.5 1.5 0 013.001.001zM-85 309.5a1.5 1.5 0 11-3 0 1.5 1.5 0 013 0zM-165 329.5a1.5 1.5 0 11-3.001-.001 1.5 1.5 0 013.001.001zM-145 329.5a1.5 1.5 0 11-3.001-.001 1.5 1.5 0 013.001.001zM-125 329.5a1.5 1.5 0 11-3.001-.001 1.5 1.5 0 013.001.001zM-105 329.5a1.5 1.5 0 11-3.001-.001 1.5 1.5 0 013.001.001zM-85 329.5a1.5 1.5 0 11-3 0 1.5 1.5 0 013 0zM-165 349.5a1.5 1.5 0 11-3.001-.001 1.5 1.5 0 013.001.001zM-145 349.5a1.5 1.5 0 11-3.001-.001 1.5 1.5 0 013.001.001zM-125 349.5a1.5 1.5 0 11-3.001-.001 1.5 1.5 0 013.001.001zM-105 349.5a1.5 1.5 0 11-3.001-.001 1.5 1.5 0 013.001.001zM-85 349.5a1.5 1.5 0 11-3 0 1.5 1.5 0 013 0zM-65 9.5a1.5 1.5 0 11-3 0 1.5 1.5 0 013 0zM-45 9.5a1.5 1.5 0 11-3 0 1.5 1.5 0 013 0zM-25 9.5a1.5 1.5 0 11-3 0 1.5 1.5 0 013 0zM-5 9.5a1.5 1.5 0 11-3 0 1.5 1.5 0 013 0zM15 9.5a1.5 1.5 0 11-3 0 1.5 1.5 0 013 0zM35 9.5a1.5 1.5 0 11-3 0 1.5 1.5 0 013 0zM55 9.5a1.5 1.5 0 11-3 0 1.5 1.5 0 013 0zM75 9.5a1.5 1.5 0 11-3 0 1.5 1.5 0 013 0zM95 9.5a1.5 1.5 0 11-3 0 1.5 1.5 0 013 0zM-65 29.5a1.5 1.5 0 11-3 0 1.5 1.5 0 013 0zM-45 29.5a1.5 1.5 0 11-3 0 1.5 1.5 0 013 0zM-25 29.5a1.5 1.5 0 11-3 0 1.5 1.5 0 013 0zM-5 29.5a1.5 1.5 0 11-3 0 1.5 1.5 0 013 0zM15 29.5a1.5 1.5 0 11-3 0 1.5 1.5 0 013 0zM35 29.5a1.5 1.5 0 11-3 0 1.5 1.5 0 013 0zM55 29.5a1.5 1.5 0 11-3 0 1.5 1.5 0 013 0zM75 29.5a1.5 1.5 0 11-3 0 1.5 1.5 0 013 0zM95 29.5a1.5 1.5 0 11-3 0 1.5 1.5 0 013 0zM-65 49.5a1.5 1.5 0 11-3 0 1.5 1.5 0 013 0zM-45 49.5a1.5 1.5 0 11-3 0 1.5 1.5 0 013 0zM-25 49.5a1.5 1.5 0 11-3 0 1.5 1.5 0 013 0zM-5 49.5a1.5 1.5 0 11-3 0 1.5 1.5 0 013 0zM15 49.5a1.5 1.5 0 11-3 0 1.5 1.5 0 013 0zM35 49.5a1.5 1.5 0 11-3 0 1.5 1.5 0 013 0zM55 49.5a1.5 1.5 0 11-3 0 1.5 1.5 0 013 0zM75 49.5a1.5 1.5 0 11-3 0 1.5 1.5 0 013 0zM95 49.5a1.5 1.5 0 11-3 0 1.5 1.5 0 013 0zM-65 69.5a1.5 1.5 0 11-3 0 1.5 1.5 0 013 0zM-45 69.5a1.5 1.5 0 11-3 0 1.5 1.5 0 013 0zM-25 69.5a1.5 1.5 0 11-3 0 1.5 1.5 0 013 0zM-5 69.5a1.5 1.5 0 11-3 0 1.5 1.5 0 013 0zM15 69.5a1.5 1.5 0 11-3 0 1.5 1.5 0 013 0zM35 69.5a1.5 1.5 0 11-3 0 1.5 1.5 0 013 0zM55 69.5a1.5 1.5 0 11-3 0 1.5 1.5 0 013 0zM75 69.5a1.5 1.5 0 11-3 0 1.5 1.5 0 013 0zM95 69.5a1.5 1.5 0 11-3 0 1.5 1.5 0 013 0zM-65 89.5a1.5 1.5 0 11-3 0 1.5 1.5 0 013 0zM-45 89.5a1.5 1.5 0 11-3 0 1.5 1.5 0 013 0zM-25 89.5a1.5 1.5 0 11-3 0 1.5 1.5 0 013 0zM-5 89.5a1.5 1.5 0 11-3 0 1.5 1.5 0 013 0zM15 89.5a1.5 1.5 0 11-3 0 1.5 1.5 0 013 0zM35 89.5a1.5 1.5 0 11-3 0 1.5 1.5 0 013 0zM55 89.5a1.5 1.5 0 11-3 0 1.5 1.5 0 013 0zM75 89.5a1.5 1.5 0 11-3 0 1.5 1.5 0 013 0zM95 89.5a1.5 1.5 0 11-3 0 1.5 1.5 0 013 0zM-65 109.5a1.5 1.5 0 11-3 0 1.5 1.5 0 013 0zM-45 109.5a1.5 1.5 0 11-3 0 1.5 1.5 0 013 0zM-25 109.5a1.5 1.5 0 11-3 0 1.5 1.5 0 013 0zM-5 109.5a1.5 1.5 0 11-3 0 1.5 1.5 0 013 0zM15 109.5a1.5 1.5 0 11-3 0 1.5 1.5 0 013 0zM35 109.5a1.5 1.5 0 11-3 0 1.5 1.5 0 013 0zM55 109.5a1.5 1.5 0 11-3 0 1.5 1.5 0 013 0zM75 109.5a1.5 1.5 0 11-3 0 1.5 1.5 0 013 0zM95 109.5a1.5 1.5 0 11-3 0 1.5 1.5 0 013 0zM-65 129.5a1.5 1.5 0 11-3 0 1.5 1.5 0 013 0zM-45 129.5a1.5 1.5 0 11-3 0 1.5 1.5 0 013 0zM-25 129.5a1.5 1.5 0 11-3 0 1.5 1.5 0 013 0zM-5 129.5a1.5 1.5 0 11-3 0 1.5 1.5 0 013 0zM15 129.5a1.5 1.5 0 11-3 0 1.5 1.5 0 013 0zM35 129.5a1.5 1.5 0 11-3 0 1.5 1.5 0 013 0zM55 129.5a1.5 1.5 0 11-3 0 1.5 1.5 0 013 0zM75 129.5a1.5 1.5 0 11-3 0 1.5 1.5 0 013 0zM95 129.5a1.5 1.5 0 11-3 0 1.5 1.5 0 013 0zM-65 149.5a1.5 1.5 0 11-3 0 1.5 1.5 0 013 0zM-45 149.5a1.5 1.5 0 11-3 0 1.5 1.5 0 013 0zM-25 149.5a1.5 1.5 0 11-3 0 1.5 1.5 0 013 0zM-5 149.5a1.5 1.5 0 11-3 0 1.5 1.5 0 013 0zM15 149.5a1.5 1.5 0 11-3 0 1.5 1.5 0 013 0zM35 149.5a1.5 1.5 0 11-3 0 1.5 1.5 0 013 0zM55 149.5a1.5 1.5 0 11-3 0 1.5 1.5 0 013 0zM75 149.5a1.5 1.5 0 11-3 0 1.5 1.5 0 013 0zM95 149.5a1.5 1.5 0 11-3 0 1.5 1.5 0 013 0zM-65 169.5a1.5 1.5 0 11-3 0 1.5 1.5 0 013 0zM-45 169.5a1.5 1.5 0 11-3 0 1.5 1.5 0 013 0zM-25 169.5a1.5 1.5 0 11-3 0 1.5 1.5 0 013 0zM-5 169.5a1.5 1.5 0 11-3 0 1.5 1.5 0 013 0zM15 169.5a1.5 1.5 0 11-3 0 1.5 1.5 0 013 0zM35 169.5a1.5 1.5 0 11-3 0 1.5 1.5 0 013 0zM55 169.5a1.5 1.5 0 11-3 0 1.5 1.5 0 013 0zM75 169.5a1.5 1.5 0 11-3 0 1.5 1.5 0 013 0zM95 169.5a1.5 1.5 0 11-3 0 1.5 1.5 0 013 0zM-65 189.5a1.5 1.5 0 11-3 0 1.5 1.5 0 013 0zM-45 189.5a1.5 1.5 0 11-3 0 1.5 1.5 0 013 0zM-25 189.5a1.5 1.5 0 11-3 0 1.5 1.5 0 013 0zM-5 189.5a1.5 1.5 0 11-3 0 1.5 1.5 0 013 0zM15 189.5a1.5 1.5 0 11-3 0 1.5 1.5 0 013 0zM35 189.5a1.5 1.5 0 11-3 0 1.5 1.5 0 013 0zM55 189.5a1.5 1.5 0 11-3 0 1.5 1.5 0 013 0zM75 189.5a1.5 1.5 0 11-3 0 1.5 1.5 0 013 0zM95 189.5a1.5 1.5 0 11-3 0 1.5 1.5 0 013 0zM-65 209.5a1.5 1.5 0 11-3 0 1.5 1.5 0 013 0zM-45 209.5a1.5 1.5 0 11-3 0 1.5 1.5 0 013 0zM-25 209.5a1.5 1.5 0 11-3 0 1.5 1.5 0 013 0zM-5 209.5a1.5 1.5 0 11-3 0 1.5 1.5 0 013 0zM15 209.5a1.5 1.5 0 11-3 0 1.5 1.5 0 013 0zM35 209.5a1.5 1.5 0 11-3 0 1.5 1.5 0 013 0zM55 209.5a1.5 1.5 0 01-3 0c0-.828 2.172 0 3 0 .828 0 0-.828 0 0zM75 209.5a1.5 1.5 0 11-3 0 1.5 1.5 0 013 0zM95 209.5a1.5 1.5 0 11-3 0 1.5 1.5 0 013 0zM-65 229.5a1.5 1.5 0 11-3 0 1.5 1.5 0 013 0zM-45 229.5a1.5 1.5 0 11-3 0 1.5 1.5 0 013 0zM-25 229.5a1.5 1.5 0 11-3 0 1.5 1.5 0 013 0zM-5 229.5a1.5 1.5 0 11-3 0 1.5 1.5 0 013 0zM15 229.5a1.5 1.5 0 11-3 0 1.5 1.5 0 013 0zM35 229.5a1.5 1.5 0 11-3 0 1.5 1.5 0 013 0zM55 229.5a1.5 1.5 0 11-3 0 1.5 1.5 0 013 0zM75 229.5a1.5 1.5 0 11-3 0 1.5 1.5 0 013 0zM95 229.5a1.5 1.5 0 11-3 0 1.5 1.5 0 013 0zM115 9.5a1.5 1.5 0 11-3 0 1.5 1.5 0 013 0zM135 9.5a1.5 1.5 0 11-3 0 1.5 1.5 0 013 0zM155 9.5a1.5 1.5 0 11-3 0 1.5 1.5 0 013 0zM175 9.5a1.5 1.5 0 11-3 0 1.5 1.5 0 013 0zM195 9.5a1.5 1.5 0 11-3 0 1.5 1.5 0 013 0zM215 9.5a1.5 1.5 0 11-3 0 1.5 1.5 0 013 0zM235 9.5a1.5 1.5 0 11-3 0 1.5 1.5 0 013 0zM255 9.5a1.5 1.5 0 11-3 0 1.5 1.5 0 013 0zM275 9.5a1.5 1.5 0 11-3 0 1.5 1.5 0 013 0zM295 9.5a1.5 1.5 0 11-3 0 1.5 1.5 0 013 0zM315 9.5a1.5 1.5 0 11-3 0 1.5 1.5 0 013 0zM335 9.5a1.5 1.5 0 11-3 0 1.5 1.5 0 013 0zM355 9.5a1.5 1.5 0 11-3 0 1.5 1.5 0 013 0zM375 9.5a1.5 1.5 0 11-3 0 1.5 1.5 0 013 0zM395 9.5a1.5 1.5 0 11-3 0 1.5 1.5 0 013 0zM115 29.5a1.5 1.5 0 11-3 0 1.5 1.5 0 013 0zM135 29.5a1.5 1.5 0 11-3 0 1.5 1.5 0 013 0zM155 29.5a1.5 1.5 0 11-3 0 1.5 1.5 0 013 0zM175 29.5a1.5 1.5 0 11-3 0 1.5 1.5 0 013 0zM195 29.5a1.5 1.5 0 11-3 0 1.5 1.5 0 013 0zM215 29.5a1.5 1.5 0 11-3 0 1.5 1.5 0 013 0zM235 29.5a1.5 1.5 0 11-3 0 1.5 1.5 0 013 0zM255 29.5a1.5 1.5 0 11-3 0 1.5 1.5 0 013 0zM275 29.5a1.5 1.5 0 11-3 0 1.5 1.5 0 013 0zM295 29.5a1.5 1.5 0 11-3 0 1.5 1.5 0 013 0zM315 29.5a1.5 1.5 0 11-3 0 1.5 1.5 0 013 0zM335 29.5a1.5 1.5 0 11-3 0 1.5 1.5 0 013 0zM355 29.5a1.5 1.5 0 11-3 0 1.5 1.5 0 013 0zM375 29.5a1.5 1.5 0 11-3 0 1.5 1.5 0 013 0zM395 29.5a1.5 1.5 0 11-3 0 1.5 1.5 0 013 0zM115 49.5a1.5 1.5 0 11-3 0 1.5 1.5 0 013 0zM135 49.5a1.5 1.5 0 11-3 0 1.5 1.5 0 013 0zM155 49.5a1.5 1.5 0 11-3 0 1.5 1.5 0 013 0zM175 49.5a1.5 1.5 0 11-3 0 1.5 1.5 0 013 0zM195 49.5a1.5 1.5 0 11-3 0 1.5 1.5 0 013 0zM215 49.5a1.5 1.5 0 11-3 0 1.5 1.5 0 013 0zM235 49.5a1.5 1.5 0 11-3 0 1.5 1.5 0 013 0zM255 49.5a1.5 1.5 0 11-3 0 1.5 1.5 0 013 0zM275 49.5a1.5 1.5 0 11-3 0 1.5 1.5 0 013 0zM295 49.5a1.5 1.5 0 11-3 0 1.5 1.5 0 013 0zM315 49.5a1.5 1.5 0 11-3 0 1.5 1.5 0 013 0zM335 49.5a1.5 1.5 0 11-3 0 1.5 1.5 0 013 0zM355 49.5a1.5 1.5 0 11-3 0 1.5 1.5 0 013 0zM375 49.5a1.5 1.5 0 11-3 0 1.5 1.5 0 013 0zM395 49.5a1.5 1.5 0 11-3 0 1.5 1.5 0 013 0zM115 69.5a1.5 1.5 0 11-3 0 1.5 1.5 0 013 0zM135 69.5a1.5 1.5 0 11-3 0 1.5 1.5 0 013 0zM155 69.5a1.5 1.5 0 11-3 0 1.5 1.5 0 013 0zM175 69.5a1.5 1.5 0 11-3 0 1.5 1.5 0 013 0zM195 69.5a1.5 1.5 0 11-3 0 1.5 1.5 0 013 0zM215 69.5a1.5 1.5 0 11-3 0 1.5 1.5 0 013 0zM235 69.5a1.5 1.5 0 11-3 0 1.5 1.5 0 013 0zM255 69.5a1.5 1.5 0 11-3 0 1.5 1.5 0 013 0zM275 69.5a1.5 1.5 0 11-3 0 1.5 1.5 0 013 0zM295 69.5a1.5 1.5 0 11-3 0 1.5 1.5 0 013 0zM315 69.5a1.5 1.5 0 11-3 0 1.5 1.5 0 013 0zM335 69.5a1.5 1.5 0 11-3 0 1.5 1.5 0 013 0zM355 69.5a1.5 1.5 0 11-3 0 1.5 1.5 0 013 0zM375 69.5a1.5 1.5 0 11-3 0 1.5 1.5 0 013 0zM395 69.5a1.5 1.5 0 11-3 0 1.5 1.5 0 013 0zM115 89.5a1.5 1.5 0 11-3 0 1.5 1.5 0 013 0zM135 89.5a1.5 1.5 0 11-3 0 1.5 1.5 0 013 0zM155 89.5a1.5 1.5 0 11-3 0 1.5 1.5 0 013 0zM175 89.5a1.5 1.5 0 11-3 0 1.5 1.5 0 013 0zM195 89.5a1.5 1.5 0 11-3 0 1.5 1.5 0 013 0zM215 89.5a1.5 1.5 0 11-3 0 1.5 1.5 0 013 0zM235 89.5a1.5 1.5 0 11-3 0 1.5 1.5 0 013 0zM255 89.5a1.5 1.5 0 11-3 0 1.5 1.5 0 013 0zM275 89.5a1.5 1.5 0 11-3 0 1.5 1.5 0 013 0zM295 89.5a1.5 1.5 0 11-3 0 1.5 1.5 0 013 0zM315 89.5a1.5 1.5 0 11-3 0 1.5 1.5 0 013 0zM335 89.5a1.5 1.5 0 11-3 0 1.5 1.5 0 013 0zM355 89.5a1.5 1.5 0 11-3 0 1.5 1.5 0 013 0zM375 89.5a1.5 1.5 0 11-3 0 1.5 1.5 0 013 0zM395 89.5a1.5 1.5 0 11-3 0 1.5 1.5 0 013 0zM115 109.5a1.5 1.5 0 11-3.001-.001 1.5 1.5 0 013.001.001zM135 109.5a1.5 1.5 0 11-3.001-.001 1.5 1.5 0 013.001.001zM155 109.5a1.5 1.5 0 11-3.001-.001 1.5 1.5 0 013.001.001zM175 109.5a1.5 1.5 0 11-3.001-.001 1.5 1.5 0 013.001.001zM195 109.5a1.5 1.5 0 11-3.001-.001 1.5 1.5 0 013.001.001zM215 109.5a1.5 1.5 0 11-3.001-.001 1.5 1.5 0 013.001.001zM235 109.5a1.5 1.5 0 11-3.001-.001 1.5 1.5 0 013.001.001zM255 109.5a1.5 1.5 0 11-3.001-.001 1.5 1.5 0 013.001.001zM275 109.5a1.5 1.5 0 11-3.001-.001 1.5 1.5 0 013.001.001zM295 109.5a1.5 1.5 0 11-3.001-.001 1.5 1.5 0 013.001.001zM315 109.5a1.5 1.5 0 11-3.001-.001 1.5 1.5 0 013.001.001zM335 109.5a1.5 1.5 0 11-3.001-.001 1.5 1.5 0 013.001.001zM355 109.5a1.5 1.5 0 11-3.001-.001 1.5 1.5 0 013.001.001zM375 109.5a1.5 1.5 0 11-3.001-.001 1.5 1.5 0 013.001.001zM395 109.5a1.5 1.5 0 11-3.001-.001 1.5 1.5 0 013.001.001zM115 129.5a1.5 1.5 0 11-3.001-.001 1.5 1.5 0 013.001.001zM135 129.5a1.5 1.5 0 11-3.001-.001 1.5 1.5 0 013.001.001zM155 129.5a1.5 1.5 0 11-3.001-.001 1.5 1.5 0 013.001.001zM175 129.5a1.5 1.5 0 11-3.001-.001 1.5 1.5 0 013.001.001zM195 129.5a1.5 1.5 0 11-3.001-.001 1.5 1.5 0 013.001.001zM215 129.5a1.5 1.5 0 11-3.001-.001 1.5 1.5 0 013.001.001zM235 129.5a1.5 1.5 0 11-3.001-.001 1.5 1.5 0 013.001.001zM255 129.5a1.5 1.5 0 11-3.001-.001 1.5 1.5 0 013.001.001zM275 129.5a1.5 1.5 0 11-3.001-.001 1.5 1.5 0 013.001.001zM295 129.5a1.5 1.5 0 11-3.001-.001 1.5 1.5 0 013.001.001zM315 129.5a1.5 1.5 0 11-3.001-.001 1.5 1.5 0 013.001.001zM335 129.5a1.5 1.5 0 11-3.001-.001 1.5 1.5 0 013.001.001zM355 129.5a1.5 1.5 0 11-3.001-.001 1.5 1.5 0 013.001.001zM375 129.5a1.5 1.5 0 11-3.001-.001 1.5 1.5 0 013.001.001zM395 129.5a1.5 1.5 0 11-3.001-.001 1.5 1.5 0 013.001.001zM115 149.5a1.5 1.5 0 11-3.001-.001 1.5 1.5 0 013.001.001zM135 149.5a1.5 1.5 0 11-3.001-.001 1.5 1.5 0 013.001.001zM155 149.5a1.5 1.5 0 11-3.001-.001 1.5 1.5 0 013.001.001zM175 149.5a1.5 1.5 0 11-3.001-.001 1.5 1.5 0 013.001.001zM195 149.5a1.5 1.5 0 11-3.001-.001 1.5 1.5 0 013.001.001zM215 149.5a1.5 1.5 0 11-3.001-.001 1.5 1.5 0 013.001.001zM235 149.5a1.5 1.5 0 11-3.001-.001 1.5 1.5 0 013.001.001zM255 149.5a1.5 1.5 0 11-3.001-.001 1.5 1.5 0 013.001.001zM275 149.5a1.5 1.5 0 11-3.001-.001 1.5 1.5 0 013.001.001zM295 149.5a1.5 1.5 0 11-3.001-.001 1.5 1.5 0 013.001.001zM315 149.5a1.5 1.5 0 11-3.001-.001 1.5 1.5 0 013.001.001zM335 149.5a1.5 1.5 0 11-3.001-.001 1.5 1.5 0 013.001.001zM355 149.5a1.5 1.5 0 11-3.001-.001 1.5 1.5 0 013.001.001zM375 149.5a1.5 1.5 0 11-3.001-.001 1.5 1.5 0 013.001.001zM395 149.5a1.5 1.5 0 11-3.001-.001 1.5 1.5 0 013.001.001zM115 169.5a1.5 1.5 0 11-3.001-.001 1.5 1.5 0 013.001.001zM135 169.5a1.5 1.5 0 11-3.001-.001 1.5 1.5 0 013.001.001zM155 169.5a1.5 1.5 0 11-3.001-.001 1.5 1.5 0 013.001.001zM175 169.5a1.5 1.5 0 11-3.001-.001 1.5 1.5 0 013.001.001zM195 169.5a1.5 1.5 0 11-3.001-.001 1.5 1.5 0 013.001.001zM215 169.5a1.5 1.5 0 11-3.001-.001 1.5 1.5 0 013.001.001zM235 169.5a1.5 1.5 0 11-3.001-.001 1.5 1.5 0 013.001.001zM255 169.5a1.5 1.5 0 11-3.001-.001 1.5 1.5 0 013.001.001zM275 169.5a1.5 1.5 0 11-3.001-.001 1.5 1.5 0 013.001.001zM295 169.5a1.5 1.5 0 11-3.001-.001 1.5 1.5 0 013.001.001zM315 169.5a1.5 1.5 0 11-3.001-.001 1.5 1.5 0 013.001.001zM335 169.5a1.5 1.5 0 11-3.001-.001 1.5 1.5 0 013.001.001zM355 169.5a1.5 1.5 0 11-3.001-.001 1.5 1.5 0 013.001.001zM375 169.5a1.5 1.5 0 11-3.001-.001 1.5 1.5 0 013.001.001zM395 169.5a1.5 1.5 0 11-3.001-.001 1.5 1.5 0 013.001.001zM115 189.5a1.5 1.5 0 11-3.001-.001 1.5 1.5 0 013.001.001zM135 189.5a1.5 1.5 0 11-3.001-.001 1.5 1.5 0 013.001.001zM155 189.5a1.5 1.5 0 11-3.001-.001 1.5 1.5 0 013.001.001zM175 189.5a1.5 1.5 0 11-3.001-.001 1.5 1.5 0 013.001.001zM195 189.5a1.5 1.5 0 11-3.001-.001 1.5 1.5 0 013.001.001zM215 189.5a1.5 1.5 0 11-3.001-.001 1.5 1.5 0 013.001.001zM235 189.5a1.5 1.5 0 11-3.001-.001 1.5 1.5 0 013.001.001zM255 189.5a1.5 1.5 0 11-3.001-.001 1.5 1.5 0 013.001.001zM275 189.5a1.5 1.5 0 11-3.001-.001 1.5 1.5 0 013.001.001zM295 189.5a1.5 1.5 0 11-3.001-.001 1.5 1.5 0 013.001.001zM315 189.5a1.5 1.5 0 11-3.001-.001 1.5 1.5 0 013.001.001zM335 189.5a1.5 1.5 0 11-3.001-.001 1.5 1.5 0 013.001.001zM355 189.5a1.5 1.5 0 11-3.001-.001 1.5 1.5 0 013.001.001zM375 189.5a1.5 1.5 0 11-3.001-.001 1.5 1.5 0 013.001.001zM395 189.5a1.5 1.5 0 11-3.001-.001 1.5 1.5 0 013.001.001zM115 209.5a1.5 1.5 0 11-3.001-.001 1.5 1.5 0 013.001.001zM135 209.5a1.5 1.5 0 11-3.001-.001 1.5 1.5 0 013.001.001zM155 209.5a1.5 1.5 0 11-3.001-.001 1.5 1.5 0 013.001.001zM175 209.5a1.5 1.5 0 11-3.001-.001 1.5 1.5 0 013.001.001zM195 209.5a1.5 1.5 0 11-3.001-.001 1.5 1.5 0 013.001.001zM215 209.5a1.5 1.5 0 11-3.001-.001 1.5 1.5 0 013.001.001zM235 209.5a1.5 1.5 0 11-3.001-.001 1.5 1.5 0 013.001.001zM255 209.5a1.5 1.5 0 11-3.001-.001 1.5 1.5 0 013.001.001zM275 209.5a1.5 1.5 0 11-3.001-.001 1.5 1.5 0 013.001.001zM295 209.5a1.5 1.5 0 11-3.001-.001 1.5 1.5 0 013.001.001zM315 209.5a1.5 1.5 0 11-3.001-.001 1.5 1.5 0 013.001.001zM335 209.5a1.5 1.5 0 11-3.001-.001 1.5 1.5 0 013.001.001zM355 209.5a1.5 1.5 0 11-3.001-.001 1.5 1.5 0 013.001.001zM375 209.5a1.5 1.5 0 11-3.001-.001 1.5 1.5 0 013.001.001zM395 209.5a1.5 1.5 0 11-3.001-.001 1.5 1.5 0 013.001.001zM115 229.5a1.5 1.5 0 11-3.001-.001 1.5 1.5 0 013.001.001zM135 229.5a1.5 1.5 0 11-3.001-.001 1.5 1.5 0 013.001.001zM155 229.5a1.5 1.5 0 11-3.001-.001 1.5 1.5 0 013.001.001zM175 229.5a1.5 1.5 0 11-3.001-.001 1.5 1.5 0 013.001.001zM195 229.5a1.5 1.5 0 11-3.001-.001 1.5 1.5 0 013.001.001zM215 229.5a1.5 1.5 0 11-3.001-.001 1.5 1.5 0 013.001.001zM235 229.5a1.5 1.5 0 11-3.001-.001 1.5 1.5 0 013.001.001zM255 229.5a1.5 1.5 0 11-3.001-.001 1.5 1.5 0 013.001.001zM275 229.5a1.5 1.5 0 11-3.001-.001 1.5 1.5 0 013.001.001zM295 229.5a1.5 1.5 0 11-3.001-.001 1.5 1.5 0 013.001.001zM315 229.5a1.5 1.5 0 11-3.001-.001 1.5 1.5 0 013.001.001zM335 229.5a1.5 1.5 0 11-3.001-.001 1.5 1.5 0 013.001.001zM355 229.5a1.5 1.5 0 11-3.001-.001 1.5 1.5 0 013.001.001zM375 229.5a1.5 1.5 0 11-3.001-.001 1.5 1.5 0 013.001.001zM395 229.5a1.5 1.5 0 11-3.001-.001 1.5 1.5 0 013.001.001zM415 9.5a1.5 1.5 0 11-3 0 1.5 1.5 0 013 0zM435 9.5a1.5 1.5 0 11-3 0 1.5 1.5 0 013 0zM455 9.5a1.5 1.5 0 11-3 0 1.5 1.5 0 013 0zM475 9.5a1.5 1.5 0 11-3 0 1.5 1.5 0 013 0zM495 9.5a1.5 1.5 0 11-3 0 1.5 1.5 0 013 0zM415 29.5a1.5 1.5 0 11-3 0 1.5 1.5 0 013 0zM435 29.5a1.5 1.5 0 11-3 0 1.5 1.5 0 013 0zM455 29.5a1.5 1.5 0 11-3 0 1.5 1.5 0 013 0zM475 29.5a1.5 1.5 0 11-3 0 1.5 1.5 0 013 0zM495 29.5a1.5 1.5 0 11-3 0 1.5 1.5 0 013 0zM415 49.5a1.5 1.5 0 11-3 0 1.5 1.5 0 013 0zM435 49.5a1.5 1.5 0 11-3 0 1.5 1.5 0 013 0zM455 49.5a1.5 1.5 0 11-3 0 1.5 1.5 0 013 0zM475 49.5a1.5 1.5 0 11-3 0 1.5 1.5 0 013 0zM495 49.5a1.5 1.5 0 11-3 0 1.5 1.5 0 013 0zM415 69.5a1.5 1.5 0 11-3 0 1.5 1.5 0 013 0zM435 69.5a1.5 1.5 0 11-3 0 1.5 1.5 0 013 0zM455 69.5a1.5 1.5 0 11-3 0 1.5 1.5 0 013 0zM475 69.5a1.5 1.5 0 11-3 0 1.5 1.5 0 013 0zM495 69.5a1.5 1.5 0 11-3 0 1.5 1.5 0 013 0zM415 89.5a1.5 1.5 0 11-3 0 1.5 1.5 0 013 0zM435 89.5a1.5 1.5 0 11-3 0 1.5 1.5 0 013 0zM455 89.5a1.5 1.5 0 11-3 0 1.5 1.5 0 013 0zM475 89.5a1.5 1.5 0 11-3 0 1.5 1.5 0 013 0zM495 89.5a1.5 1.5 0 11-3 0 1.5 1.5 0 013 0zM415 109.5a1.5 1.5 0 11-3.001-.001 1.5 1.5 0 013.001.001zM435 109.5a1.5 1.5 0 11-3.001-.001 1.5 1.5 0 013.001.001zM455 109.5a1.5 1.5 0 11-3.001-.001 1.5 1.5 0 013.001.001zM475 109.5a1.5 1.5 0 11-3.001-.001 1.5 1.5 0 013.001.001zM495 109.5a1.5 1.5 0 11-3.001-.001 1.5 1.5 0 013.001.001zM415 129.5a1.5 1.5 0 11-3.001-.001 1.5 1.5 0 013.001.001zM435 129.5a1.5 1.5 0 11-3.001-.001 1.5 1.5 0 013.001.001zM455 129.5a1.5 1.5 0 11-3.001-.001 1.5 1.5 0 013.001.001zM475 129.5a1.5 1.5 0 11-3.001-.001 1.5 1.5 0 013.001.001zM495 129.5a1.5 1.5 0 11-3.001-.001 1.5 1.5 0 013.001.001zM415 149.5a1.5 1.5 0 11-3.001-.001 1.5 1.5 0 013.001.001zM435 149.5a1.5 1.5 0 11-3.001-.001 1.5 1.5 0 013.001.001zM455 149.5a1.5 1.5 0 11-3.001-.001 1.5 1.5 0 013.001.001zM475 149.5a1.5 1.5 0 11-3.001-.001 1.5 1.5 0 013.001.001zM495 149.5a1.5 1.5 0 11-3.001-.001 1.5 1.5 0 013.001.001zM415 169.5a1.5 1.5 0 11-3.001-.001 1.5 1.5 0 013.001.001zM435 169.5a1.5 1.5 0 11-3.001-.001 1.5 1.5 0 013.001.001zM455 169.5a1.5 1.5 0 11-3.001-.001 1.5 1.5 0 013.001.001zM475 169.5a1.5 1.5 0 11-3.001-.001 1.5 1.5 0 013.001.001zM495 169.5a1.5 1.5 0 11-3.001-.001 1.5 1.5 0 013.001.001zM415 189.5a1.5 1.5 0 11-3.001-.001 1.5 1.5 0 013.001.001zM435 189.5a1.5 1.5 0 11-3.001-.001 1.5 1.5 0 013.001.001zM455 189.5a1.5 1.5 0 11-3.001-.001 1.5 1.5 0 013.001.001zM475 189.5a1.5 1.5 0 11-3.001-.001 1.5 1.5 0 013.001.001zM495 189.5a1.5 1.5 0 11-3.001-.001 1.5 1.5 0 013.001.001zM415 209.5a1.5 1.5 0 11-3.001-.001 1.5 1.5 0 013.001.001zM435 209.5a1.5 1.5 0 11-3.001-.001 1.5 1.5 0 013.001.001zM455 209.5a1.5 1.5 0 11-3.001-.001 1.5 1.5 0 013.001.001zM475 209.5a1.5 1.5 0 11-3.001-.001 1.5 1.5 0 013.001.001zM495 209.5a1.5 1.5 0 11-3.001-.001 1.5 1.5 0 013.001.001zM415 229.5a1.5 1.5 0 11-3.001-.001 1.5 1.5 0 013.001.001zM435 229.5a1.5 1.5 0 11-3.001-.001 1.5 1.5 0 013.001.001zM455 229.5a1.5 1.5 0 11-3.001-.001 1.5 1.5 0 013.001.001zM475 229.5a1.5 1.5 0 11-3.001-.001 1.5 1.5 0 013.001.001zM495 229.5a1.5 1.5 0 11-3.001-.001 1.5 1.5 0 013.001.001zM-65 249.5a1.5 1.5 0 11-3 0 1.5 1.5 0 013 0zM-45 249.5a1.5 1.5 0 11-3 0 1.5 1.5 0 013 0zM-25 249.5a1.5 1.5 0 11-3 0 1.5 1.5 0 013 0zM-5 249.5a1.5 1.5 0 11-3 0 1.5 1.5 0 013 0zM15 249.5a1.5 1.5 0 11-3 0 1.5 1.5 0 013 0zM35 249.5a1.5 1.5 0 11-3 0 1.5 1.5 0 013 0zM55 249.5a1.5 1.5 0 11-3 0 1.5 1.5 0 013 0zM75 249.5a1.5 1.5 0 11-3 0 1.5 1.5 0 013 0zM95 249.5a1.5 1.5 0 11-3 0 1.5 1.5 0 013 0zM-65 269.5a1.5 1.5 0 11-3 0 1.5 1.5 0 013 0zM-45 269.5a1.5 1.5 0 11-3 0 1.5 1.5 0 013 0zM-25 269.5a1.5 1.5 0 11-3 0 1.5 1.5 0 013 0zM-5 269.5a1.5 1.5 0 11-3 0 1.5 1.5 0 013 0zM15 269.5a1.5 1.5 0 11-3 0 1.5 1.5 0 013 0zM35 269.5a1.5 1.5 0 11-3 0 1.5 1.5 0 013 0zM55 269.5a1.5 1.5 0 11-3 0 1.5 1.5 0 013 0zM75 269.5a1.5 1.5 0 11-3 0 1.5 1.5 0 013 0zM95 269.5a1.5 1.5 0 11-3 0 1.5 1.5 0 013 0zM-65 289.5a1.5 1.5 0 11-3 0 1.5 1.5 0 013 0zM-45 289.5a1.5 1.5 0 11-3 0 1.5 1.5 0 013 0zM-25 289.5a1.5 1.5 0 11-3 0 1.5 1.5 0 013 0zM-5 289.5a1.5 1.5 0 11-3 0 1.5 1.5 0 013 0zM15 289.5a1.5 1.5 0 11-3 0 1.5 1.5 0 013 0zM35 289.5a1.5 1.5 0 11-3 0 1.5 1.5 0 013 0zM55 289.5a1.5 1.5 0 11-3 0 1.5 1.5 0 013 0zM75 289.5a1.5 1.5 0 11-3 0 1.5 1.5 0 013 0zM95 289.5a1.5 1.5 0 11-3 0 1.5 1.5 0 013 0zM-65 309.5a1.5 1.5 0 11-3 0 1.5 1.5 0 013 0zM-45 309.5a1.5 1.5 0 11-3 0 1.5 1.5 0 013 0zM-25 309.5a1.5 1.5 0 11-3 0 1.5 1.5 0 013 0zM-5 309.5a1.5 1.5 0 11-3 0 1.5 1.5 0 013 0zM15 309.5a1.5 1.5 0 11-3 0 1.5 1.5 0 013 0zM35 309.5a1.5 1.5 0 11-3 0 1.5 1.5 0 013 0zM55 309.5a1.5 1.5 0 11-3 0 1.5 1.5 0 013 0zM75 309.5a1.5 1.5 0 11-3 0 1.5 1.5 0 013 0zM95 309.5a1.5 1.5 0 11-3 0 1.5 1.5 0 013 0zM-65 329.5a1.5 1.5 0 11-3 0 1.5 1.5 0 013 0zM-45 329.5a1.5 1.5 0 11-3 0 1.5 1.5 0 013 0zM-25 329.5a1.5 1.5 0 11-3 0 1.5 1.5 0 013 0zM-5 329.5a1.5 1.5 0 11-3 0 1.5 1.5 0 013 0zM15 329.5a1.5 1.5 0 11-3 0 1.5 1.5 0 013 0zM35 329.5a1.5 1.5 0 11-3 0 1.5 1.5 0 013 0zM55 329.5a1.5 1.5 0 11-3 0 1.5 1.5 0 013 0zM75 329.5a1.5 1.5 0 11-3 0 1.5 1.5 0 013 0zM95 329.5a1.5 1.5 0 11-3 0 1.5 1.5 0 013 0zM-65 349.5a1.5 1.5 0 11-3 0 1.5 1.5 0 013 0zM-45 349.5a1.5 1.5 0 11-3 0 1.5 1.5 0 013 0zM-25 349.5a1.5 1.5 0 11-3 0 1.5 1.5 0 013 0zM-5 349.5a1.5 1.5 0 11-3 0 1.5 1.5 0 013 0zM15 349.5a1.5 1.5 0 11-3 0 1.5 1.5 0 013 0zM35 349.5a1.5 1.5 0 11-3 0 1.5 1.5 0 013 0zM55 349.5a1.5 1.5 0 11-3 0 1.5 1.5 0 013 0zM75 349.5a1.5 1.5 0 11-3 0 1.5 1.5 0 013 0zM95 349.5a1.5 1.5 0 11-3 0 1.5 1.5 0 013 0zM115 249.5a1.5 1.5 0 11-3.001-.001 1.5 1.5 0 013.001.001zM135 249.5a1.5 1.5 0 11-3.001-.001 1.5 1.5 0 013.001.001zM155 249.5a1.5 1.5 0 11-3.001-.001 1.5 1.5 0 013.001.001zM175 249.5a1.5 1.5 0 11-3.001-.001 1.5 1.5 0 013.001.001zM195 249.5a1.5 1.5 0 11-3.001-.001 1.5 1.5 0 013.001.001zM215 249.5a1.5 1.5 0 11-3.001-.001 1.5 1.5 0 013.001.001zM235 249.5a1.5 1.5 0 11-3.001-.001 1.5 1.5 0 013.001.001zM255 249.5a1.5 1.5 0 11-3.001-.001 1.5 1.5 0 013.001.001zM275 249.5a1.5 1.5 0 11-3.001-.001 1.5 1.5 0 013.001.001zM295 249.5a1.5 1.5 0 11-3.001-.001 1.5 1.5 0 013.001.001zM315 249.5a1.5 1.5 0 11-3.001-.001 1.5 1.5 0 013.001.001zM335 249.5a1.5 1.5 0 11-3.001-.001 1.5 1.5 0 013.001.001zM355 249.5a1.5 1.5 0 11-3.001-.001 1.5 1.5 0 013.001.001zM375 249.5a1.5 1.5 0 11-3.001-.001 1.5 1.5 0 013.001.001zM395 249.5a1.5 1.5 0 11-3.001-.001 1.5 1.5 0 013.001.001zM115 269.5a1.5 1.5 0 11-3.001-.001 1.5 1.5 0 013.001.001zM135 269.5a1.5 1.5 0 11-3.001-.001 1.5 1.5 0 013.001.001zM155 269.5a1.5 1.5 0 11-3.001-.001 1.5 1.5 0 013.001.001zM175 269.5a1.5 1.5 0 11-3.001-.001 1.5 1.5 0 013.001.001zM195 269.5a1.5 1.5 0 11-3.001-.001 1.5 1.5 0 013.001.001zM215 269.5a1.5 1.5 0 11-3.001-.001 1.5 1.5 0 013.001.001zM235 269.5a1.5 1.5 0 11-3.001-.001 1.5 1.5 0 013.001.001zM255 269.5a1.5 1.5 0 11-3.001-.001 1.5 1.5 0 013.001.001zM275 269.5a1.5 1.5 0 11-3.001-.001 1.5 1.5 0 013.001.001zM295 269.5a1.5 1.5 0 11-3.001-.001 1.5 1.5 0 013.001.001zM315 269.5a1.5 1.5 0 11-3.001-.001 1.5 1.5 0 013.001.001zM335 269.5a1.5 1.5 0 11-3.001-.001 1.5 1.5 0 013.001.001zM355 269.5a1.5 1.5 0 11-3.001-.001 1.5 1.5 0 013.001.001zM375 269.5a1.5 1.5 0 11-3.001-.001 1.5 1.5 0 013.001.001zM395 269.5a1.5 1.5 0 11-3.001-.001 1.5 1.5 0 013.001.001zM115 289.5a1.5 1.5 0 11-3.001-.001 1.5 1.5 0 013.001.001zM135 289.5a1.5 1.5 0 11-3.001-.001 1.5 1.5 0 013.001.001zM155 289.5a1.5 1.5 0 11-3.001-.001 1.5 1.5 0 013.001.001zM175 289.5a1.5 1.5 0 11-3.001-.001 1.5 1.5 0 013.001.001zM195 289.5a1.5 1.5 0 11-3.001-.001 1.5 1.5 0 013.001.001zM215 289.5a1.5 1.5 0 11-3.001-.001 1.5 1.5 0 013.001.001zM235 289.5a1.5 1.5 0 11-3.001-.001 1.5 1.5 0 013.001.001zM255 289.5a1.5 1.5 0 11-3.001-.001 1.5 1.5 0 013.001.001zM275 289.5a1.5 1.5 0 11-3.001-.001 1.5 1.5 0 013.001.001zM295 289.5a1.5 1.5 0 11-3.001-.001 1.5 1.5 0 013.001.001zM315 289.5a1.5 1.5 0 11-3.001-.001 1.5 1.5 0 013.001.001zM335 289.5a1.5 1.5 0 11-3.001-.001 1.5 1.5 0 013.001.001zM355 289.5a1.5 1.5 0 11-3.001-.001 1.5 1.5 0 013.001.001zM375 289.5a1.5 1.5 0 11-3.001-.001 1.5 1.5 0 013.001.001zM395 289.5a1.5 1.5 0 11-3.001-.001 1.5 1.5 0 013.001.001zM115 309.5a1.5 1.5 0 11-3.001-.001 1.5 1.5 0 013.001.001zM135 309.5a1.5 1.5 0 11-3.001-.001 1.5 1.5 0 013.001.001zM155 309.5a1.5 1.5 0 11-3.001-.001 1.5 1.5 0 013.001.001zM175 309.5a1.5 1.5 0 11-3.001-.001 1.5 1.5 0 013.001.001zM195 309.5a1.5 1.5 0 11-3.001-.001 1.5 1.5 0 013.001.001zM215 309.5a1.5 1.5 0 11-3.001-.001 1.5 1.5 0 013.001.001zM235 309.5a1.5 1.5 0 11-3.001-.001 1.5 1.5 0 013.001.001zM255 309.5a1.5 1.5 0 11-3.001-.001 1.5 1.5 0 013.001.001zM275 309.5a1.5 1.5 0 11-3.001-.001 1.5 1.5 0 013.001.001zM295 309.5a1.5 1.5 0 11-3.001-.001 1.5 1.5 0 013.001.001zM315 309.5a1.5 1.5 0 11-3.001-.001 1.5 1.5 0 013.001.001zM335 309.5a1.5 1.5 0 11-3.001-.001 1.5 1.5 0 013.001.001zM355 309.5a1.5 1.5 0 11-3.001-.001 1.5 1.5 0 013.001.001zM375 309.5a1.5 1.5 0 11-3.001-.001 1.5 1.5 0 013.001.001zM395 309.5a1.5 1.5 0 11-3.001-.001 1.5 1.5 0 013.001.001zM115 329.5a1.5 1.5 0 11-3.001-.001 1.5 1.5 0 013.001.001zM135 329.5a1.5 1.5 0 11-3.001-.001 1.5 1.5 0 013.001.001zM155 329.5a1.5 1.5 0 11-3.001-.001 1.5 1.5 0 013.001.001zM175 329.5a1.5 1.5 0 11-3.001-.001 1.5 1.5 0 013.001.001zM195 329.5a1.5 1.5 0 11-3.001-.001 1.5 1.5 0 013.001.001zM215 329.5a1.5 1.5 0 11-3.001-.001 1.5 1.5 0 013.001.001zM235 329.5a1.5 1.5 0 11-3.001-.001 1.5 1.5 0 013.001.001zM255 329.5a1.5 1.5 0 11-3.001-.001 1.5 1.5 0 013.001.001zM275 329.5a1.5 1.5 0 11-3.001-.001 1.5 1.5 0 013.001.001zM295 329.5a1.5 1.5 0 11-3.001-.001 1.5 1.5 0 013.001.001zM315 329.5a1.5 1.5 0 11-3.001-.001 1.5 1.5 0 013.001.001zM335 329.5a1.5 1.5 0 11-3.001-.001 1.5 1.5 0 013.001.001zM355 329.5a1.5 1.5 0 11-3.001-.001 1.5 1.5 0 013.001.001zM375 329.5a1.5 1.5 0 11-3.001-.001 1.5 1.5 0 013.001.001zM395 329.5a1.5 1.5 0 11-3.001-.001 1.5 1.5 0 013.001.001zM115 349.5a1.5 1.5 0 11-3.001-.001 1.5 1.5 0 013.001.001zM135 349.5a1.5 1.5 0 11-3.001-.001 1.5 1.5 0 013.001.001zM155 349.5a1.5 1.5 0 11-3.001-.001 1.5 1.5 0 013.001.001zM175 349.5a1.5 1.5 0 11-3.001-.001 1.5 1.5 0 013.001.001zM195 349.5a1.5 1.5 0 11-3.001-.001 1.5 1.5 0 013.001.001zM215 349.5a1.5 1.5 0 11-3.001-.001 1.5 1.5 0 013.001.001zM235 349.5a1.5 1.5 0 11-3.001-.001 1.5 1.5 0 013.001.001zM255 349.5a1.5 1.5 0 11-3.001-.001 1.5 1.5 0 013.001.001zM275 349.5a1.5 1.5 0 11-3.001-.001 1.5 1.5 0 013.001.001zM295 349.5a1.5 1.5 0 11-3.001-.001 1.5 1.5 0 013.001.001zM315 349.5a1.5 1.5 0 11-3.001-.001 1.5 1.5 0 013.001.001zM335 349.5a1.5 1.5 0 11-3.001-.001 1.5 1.5 0 013.001.001zM355 349.5a1.5 1.5 0 11-3.001-.001 1.5 1.5 0 013.001.001zM375 349.5a1.5 1.5 0 11-3.001-.001 1.5 1.5 0 013.001.001zM395 349.5a1.5 1.5 0 11-3.001-.001 1.5 1.5 0 013.001.001zM415 249.5a1.5 1.5 0 11-3.001-.001 1.5 1.5 0 013.001.001zM435 249.5a1.5 1.5 0 11-3.001-.001 1.5 1.5 0 013.001.001zM455 249.5a1.5 1.5 0 11-3.001-.001 1.5 1.5 0 013.001.001zM475 249.5a1.5 1.5 0 11-3.001-.001 1.5 1.5 0 013.001.001zM495 249.5a1.5 1.5 0 11-3.001-.001 1.5 1.5 0 013.001.001zM415 269.5a1.5 1.5 0 11-3.001-.001 1.5 1.5 0 013.001.001zM435 269.5a1.5 1.5 0 11-3.001-.001 1.5 1.5 0 013.001.001zM455 269.5a1.5 1.5 0 11-3.001-.001 1.5 1.5 0 013.001.001zM475 269.5a1.5 1.5 0 11-3.001-.001 1.5 1.5 0 013.001.001zM495 269.5a1.5 1.5 0 11-3.001-.001 1.5 1.5 0 013.001.001zM415 289.5a1.5 1.5 0 11-3.001-.001 1.5 1.5 0 013.001.001zM435 289.5a1.5 1.5 0 11-3.001-.001 1.5 1.5 0 013.001.001zM455 289.5a1.5 1.5 0 11-3.001-.001 1.5 1.5 0 013.001.001zM475 289.5a1.5 1.5 0 11-3.001-.001 1.5 1.5 0 013.001.001zM495 289.5a1.5 1.5 0 11-3.001-.001 1.5 1.5 0 013.001.001zM415 309.5a1.5 1.5 0 11-3.001-.001 1.5 1.5 0 013.001.001zM435 309.5a1.5 1.5 0 11-3.001-.001 1.5 1.5 0 013.001.001zM455 309.5a1.5 1.5 0 11-3.001-.001 1.5 1.5 0 013.001.001zM475 309.5a1.5 1.5 0 11-3.001-.001 1.5 1.5 0 013.001.001zM495 309.5a1.5 1.5 0 11-3.001-.001 1.5 1.5 0 013.001.001zM415 329.5a1.5 1.5 0 11-3.001-.001 1.5 1.5 0 013.001.001zM435 329.5a1.5 1.5 0 11-3.001-.001 1.5 1.5 0 013.001.001zM455 329.5a1.5 1.5 0 11-3.001-.001 1.5 1.5 0 013.001.001zM475 329.5a1.5 1.5 0 11-3.001-.001 1.5 1.5 0 013.001.001zM495 329.5a1.5 1.5 0 11-3.001-.001 1.5 1.5 0 013.001.001zM415 349.5a1.5 1.5 0 11-3.001-.001 1.5 1.5 0 013.001.001zM435 349.5a1.5 1.5 0 11-3.001-.001 1.5 1.5 0 013.001.001zM455 349.5a1.5 1.5 0 11-3.001-.001 1.5 1.5 0 013.001.001zM475 349.5a1.5 1.5 0 11-3.001-.001 1.5 1.5 0 013.001.001zM495 349.5a1.5 1.5 0 11-3.001-.001 1.5 1.5 0 013.001.001zM515 9.5a1.5 1.5 0 11-3 0 1.5 1.5 0 013 0zM535 9.5a1.5 1.5 0 11-3 0 1.5 1.5 0 013 0zM555 9.5a1.5 1.5 0 11-3 0 1.5 1.5 0 013 0zM575 9.5a1.5 1.5 0 11-3 0 1.5 1.5 0 013 0zM595 9.5a1.5 1.5 0 11-3 0 1.5 1.5 0 013 0zM615 9.5a1.5 1.5 0 11-3 0 1.5 1.5 0 013 0zM635 9.5a1.5 1.5 0 11-3 0 1.5 1.5 0 013 0zM655 9.5a1.5 1.5 0 11-3 0 1.5 1.5 0 013 0zM675 9.5a1.5 1.5 0 11-3 0 1.5 1.5 0 013 0zM515 29.5a1.5 1.5 0 11-3 0 1.5 1.5 0 013 0zM535 29.5a1.5 1.5 0 11-3 0 1.5 1.5 0 013 0zM555 29.5a1.5 1.5 0 11-3 0 1.5 1.5 0 013 0zM575 29.5a1.5 1.5 0 11-3 0 1.5 1.5 0 013 0zM595 29.5a1.5 1.5 0 11-3 0 1.5 1.5 0 013 0zM615 29.5a1.5 1.5 0 11-3 0 1.5 1.5 0 013 0zM635 29.5a1.5 1.5 0 11-3 0 1.5 1.5 0 013 0zM655 29.5a1.5 1.5 0 11-3 0 1.5 1.5 0 013 0zM675 29.5a1.5 1.5 0 11-3 0 1.5 1.5 0 013 0zM515 49.5a1.5 1.5 0 11-3 0 1.5 1.5 0 013 0zM535 49.5a1.5 1.5 0 11-3 0 1.5 1.5 0 013 0zM555 49.5a1.5 1.5 0 11-3 0 1.5 1.5 0 013 0zM575 49.5a1.5 1.5 0 11-3 0 1.5 1.5 0 013 0zM595 49.5a1.5 1.5 0 11-3 0 1.5 1.5 0 013 0zM615 49.5a1.5 1.5 0 11-3 0 1.5 1.5 0 013 0zM635 49.5a1.5 1.5 0 11-3 0 1.5 1.5 0 013 0zM655 49.5a1.5 1.5 0 11-3 0 1.5 1.5 0 013 0zM675 49.5a1.5 1.5 0 11-3 0 1.5 1.5 0 013 0zM515 69.5a1.5 1.5 0 11-3 0 1.5 1.5 0 013 0zM535 69.5a1.5 1.5 0 11-3 0 1.5 1.5 0 013 0zM555 69.5a1.5 1.5 0 11-3 0 1.5 1.5 0 013 0zM575 69.5a1.5 1.5 0 11-3 0 1.5 1.5 0 013 0zM595 69.5a1.5 1.5 0 11-3 0 1.5 1.5 0 013 0zM615 69.5a1.5 1.5 0 11-3 0 1.5 1.5 0 013 0zM635 69.5a1.5 1.5 0 11-3 0 1.5 1.5 0 013 0zM655 69.5a1.5 1.5 0 11-3 0 1.5 1.5 0 013 0zM675 69.5a1.5 1.5 0 11-3 0 1.5 1.5 0 013 0zM515 89.5a1.5 1.5 0 11-3 0 1.5 1.5 0 013 0zM535 89.5a1.5 1.5 0 11-3 0 1.5 1.5 0 013 0zM555 89.5a1.5 1.5 0 11-3 0 1.5 1.5 0 013 0zM575 89.5a1.5 1.5 0 11-3 0 1.5 1.5 0 013 0zM595 89.5a1.5 1.5 0 11-3 0 1.5 1.5 0 013 0zM615 89.5a1.5 1.5 0 11-3 0 1.5 1.5 0 013 0zM635 89.5a1.5 1.5 0 11-3 0 1.5 1.5 0 013 0zM655 89.5a1.5 1.5 0 11-3 0 1.5 1.5 0 013 0zM675 89.5a1.5 1.5 0 11-3 0 1.5 1.5 0 013 0zM515 109.5a1.5 1.5 0 11-3.001-.001 1.5 1.5 0 013.001.001zM535 109.5a1.5 1.5 0 11-3.001-.001 1.5 1.5 0 013.001.001zM555 109.5a1.5 1.5 0 11-3.001-.001 1.5 1.5 0 013.001.001zM575 109.5a1.5 1.5 0 11-3.001-.001 1.5 1.5 0 013.001.001zM595 109.5a1.5 1.5 0 11-3.001-.001 1.5 1.5 0 013.001.001zM615 109.5a1.5 1.5 0 11-3.001-.001 1.5 1.5 0 013.001.001zM635 109.5a1.5 1.5 0 11-3.001-.001 1.5 1.5 0 013.001.001zM655 109.5a1.5 1.5 0 11-3.001-.001 1.5 1.5 0 013.001.001zM675 109.5a1.5 1.5 0 11-3.001-.001 1.5 1.5 0 013.001.001zM515 129.5a1.5 1.5 0 11-3.001-.001 1.5 1.5 0 013.001.001zM535 129.5a1.5 1.5 0 11-3.001-.001 1.5 1.5 0 013.001.001zM555 129.5a1.5 1.5 0 11-3.001-.001 1.5 1.5 0 013.001.001zM575 129.5a1.5 1.5 0 11-3.001-.001 1.5 1.5 0 013.001.001zM595 129.5a1.5 1.5 0 11-3.001-.001 1.5 1.5 0 013.001.001zM615 129.5a1.5 1.5 0 11-3.001-.001 1.5 1.5 0 013.001.001zM635 129.5a1.5 1.5 0 11-3.001-.001 1.5 1.5 0 013.001.001zM655 129.5a1.5 1.5 0 11-3.001-.001 1.5 1.5 0 013.001.001zM675 129.5a1.5 1.5 0 11-3.001-.001 1.5 1.5 0 013.001.001zM515 149.5a1.5 1.5 0 11-3.001-.001 1.5 1.5 0 013.001.001zM535 149.5a1.5 1.5 0 11-3.001-.001 1.5 1.5 0 013.001.001zM555 149.5a1.5 1.5 0 11-3.001-.001 1.5 1.5 0 013.001.001zM575 149.5a1.5 1.5 0 11-3.001-.001 1.5 1.5 0 013.001.001zM595 149.5a1.5 1.5 0 11-3.001-.001 1.5 1.5 0 013.001.001zM615 149.5a1.5 1.5 0 11-3.001-.001 1.5 1.5 0 013.001.001zM635 149.5a1.5 1.5 0 11-3.001-.001 1.5 1.5 0 013.001.001zM655 149.5a1.5 1.5 0 11-3.001-.001 1.5 1.5 0 013.001.001zM675 149.5a1.5 1.5 0 11-3.001-.001 1.5 1.5 0 013.001.001zM515 169.5a1.5 1.5 0 11-3.001-.001 1.5 1.5 0 013.001.001zM535 169.5a1.5 1.5 0 11-3.001-.001 1.5 1.5 0 013.001.001zM555 169.5a1.5 1.5 0 11-3.001-.001 1.5 1.5 0 013.001.001zM575 169.5a1.5 1.5 0 11-3.001-.001 1.5 1.5 0 013.001.001zM595 169.5a1.5 1.5 0 11-3.001-.001 1.5 1.5 0 013.001.001zM615 169.5a1.5 1.5 0 11-3.001-.001 1.5 1.5 0 013.001.001zM635 169.5a1.5 1.5 0 11-3.001-.001 1.5 1.5 0 013.001.001zM655 169.5a1.5 1.5 0 11-3.001-.001 1.5 1.5 0 013.001.001zM675 169.5a1.5 1.5 0 11-3.001-.001 1.5 1.5 0 013.001.001zM515 189.5a1.5 1.5 0 11-3.001-.001 1.5 1.5 0 013.001.001zM535 189.5a1.5 1.5 0 11-3.001-.001 1.5 1.5 0 013.001.001zM555 189.5a1.5 1.5 0 11-3.001-.001 1.5 1.5 0 013.001.001zM575 189.5a1.5 1.5 0 11-3.001-.001 1.5 1.5 0 013.001.001zM595 189.5a1.5 1.5 0 11-3.001-.001 1.5 1.5 0 013.001.001zM615 189.5a1.5 1.5 0 11-3.001-.001 1.5 1.5 0 013.001.001zM635 189.5a1.5 1.5 0 11-3.001-.001 1.5 1.5 0 013.001.001zM655 189.5a1.5 1.5 0 11-3.001-.001 1.5 1.5 0 013.001.001zM675 189.5a1.5 1.5 0 11-3.001-.001 1.5 1.5 0 013.001.001zM515 209.5a1.5 1.5 0 11-3.001-.001 1.5 1.5 0 013.001.001zM535 209.5a1.5 1.5 0 11-3.001-.001 1.5 1.5 0 013.001.001zM555 209.5a1.5 1.5 0 11-3.001-.001 1.5 1.5 0 013.001.001zM575 209.5a1.5 1.5 0 11-3.001-.001 1.5 1.5 0 013.001.001zM595 209.5a1.5 1.5 0 11-3.001-.001 1.5 1.5 0 013.001.001zM615 209.5a1.5 1.5 0 11-3.001-.001 1.5 1.5 0 013.001.001zM635 209.5a1.5 1.5 0 11-3.001-.001 1.5 1.5 0 013.001.001zM655 209.5a1.5 1.5 0 11-3.001-.001 1.5 1.5 0 013.001.001zM675 209.5a1.5 1.5 0 11-3.001-.001 1.5 1.5 0 013.001.001zM515 229.5a1.5 1.5 0 11-3.001-.001 1.5 1.5 0 013.001.001zM535 229.5a1.5 1.5 0 11-3.001-.001 1.5 1.5 0 013.001.001zM555 229.5a1.5 1.5 0 11-3.001-.001 1.5 1.5 0 013.001.001zM575 229.5a1.5 1.5 0 11-3.001-.001 1.5 1.5 0 013.001.001zM595 229.5a1.5 1.5 0 11-3.001-.001 1.5 1.5 0 013.001.001zM615 229.5a1.5 1.5 0 11-3.001-.001 1.5 1.5 0 013.001.001zM635 229.5a1.5 1.5 0 11-3.001-.001 1.5 1.5 0 013.001.001zM655 229.5a1.5 1.5 0 11-3.001-.001 1.5 1.5 0 013.001.001zM675 229.5a1.5 1.5 0 11-3.001-.001 1.5 1.5 0 013.001.001zM695 9.5a1.5 1.5 0 11-3 0 1.5 1.5 0 013 0zM715 9.5a1.5 1.5 0 11-3 0 1.5 1.5 0 013 0zM735 9.5a1.5 1.5 0 11-3 0 1.5 1.5 0 013 0zM755 9.5a1.5 1.5 0 11-3 0 1.5 1.5 0 013 0zM775 9.5a1.5 1.5 0 11-3 0 1.5 1.5 0 013 0zM795 9.5a1.5 1.5 0 11-3 0 1.5 1.5 0 013 0zM815 9.5a1.5 1.5 0 11-3 0 1.5 1.5 0 013 0zM835 9.5a1.5 1.5 0 11-3 0 1.5 1.5 0 013 0zM855 9.5a1.5 1.5 0 11-3 0 1.5 1.5 0 013 0zM875 9.5a1.5 1.5 0 11-3 0 1.5 1.5 0 013 0zM895 9.5a1.5 1.5 0 11-3 0 1.5 1.5 0 013 0zM915 9.5a1.5 1.5 0 11-3 0 1.5 1.5 0 013 0zM935 9.5a1.5 1.5 0 11-3 0 1.5 1.5 0 013 0zM695 29.5a1.5 1.5 0 11-3 0 1.5 1.5 0 013 0zM715 29.5a1.5 1.5 0 11-3 0 1.5 1.5 0 013 0zM735 29.5a1.5 1.5 0 11-3 0 1.5 1.5 0 013 0zM755 29.5a1.5 1.5 0 11-3 0 1.5 1.5 0 013 0zM775 29.5a1.5 1.5 0 11-3 0 1.5 1.5 0 013 0zM795 29.5a1.5 1.5 0 11-3 0 1.5 1.5 0 013 0zM815 29.5a1.5 1.5 0 11-3 0 1.5 1.5 0 013 0zM835 29.5a1.5 1.5 0 11-3 0 1.5 1.5 0 013 0zM855 29.5a1.5 1.5 0 11-3 0 1.5 1.5 0 013 0zM875 29.5a1.5 1.5 0 11-3 0 1.5 1.5 0 013 0zM895 29.5a1.5 1.5 0 11-3 0 1.5 1.5 0 013 0zM915 29.5a1.5 1.5 0 11-3 0 1.5 1.5 0 013 0zM935 29.5a1.5 1.5 0 11-3 0 1.5 1.5 0 013 0zM695 49.5a1.5 1.5 0 11-3 0 1.5 1.5 0 013 0zM715 49.5a1.5 1.5 0 11-3 0 1.5 1.5 0 013 0zM735 49.5a1.5 1.5 0 11-3 0 1.5 1.5 0 013 0zM755 49.5a1.5 1.5 0 11-3 0 1.5 1.5 0 013 0zM775 49.5a1.5 1.5 0 11-3 0 1.5 1.5 0 013 0zM795 49.5a1.5 1.5 0 11-3 0 1.5 1.5 0 013 0zM815 49.5a1.5 1.5 0 11-3 0 1.5 1.5 0 013 0zM835 49.5a1.5 1.5 0 11-3 0 1.5 1.5 0 013 0zM855 49.5a1.5 1.5 0 11-3 0 1.5 1.5 0 013 0zM875 49.5a1.5 1.5 0 11-3 0 1.5 1.5 0 013 0zM895 49.5a1.5 1.5 0 11-3 0 1.5 1.5 0 013 0zM915 49.5a1.5 1.5 0 11-3 0 1.5 1.5 0 013 0zM935 49.5a1.5 1.5 0 11-3 0 1.5 1.5 0 013 0zM695 69.5a1.5 1.5 0 11-3 0 1.5 1.5 0 013 0zM715 69.5a1.5 1.5 0 11-3 0 1.5 1.5 0 013 0zM735 69.5a1.5 1.5 0 11-3 0 1.5 1.5 0 013 0zM755 69.5a1.5 1.5 0 11-3 0 1.5 1.5 0 013 0zM775 69.5a1.5 1.5 0 11-3 0 1.5 1.5 0 013 0zM795 69.5a1.5 1.5 0 11-3 0 1.5 1.5 0 013 0zM815 69.5a1.5 1.5 0 11-3 0 1.5 1.5 0 013 0zM835 69.5a1.5 1.5 0 11-3 0 1.5 1.5 0 013 0zM855 69.5a1.5 1.5 0 11-3 0 1.5 1.5 0 013 0zM875 69.5a1.5 1.5 0 11-3 0 1.5 1.5 0 013 0zM895 69.5a1.5 1.5 0 11-3 0 1.5 1.5 0 013 0zM915 69.5a1.5 1.5 0 11-3 0 1.5 1.5 0 013 0zM935 69.5a1.5 1.5 0 11-3 0 1.5 1.5 0 013 0zM695 89.5a1.5 1.5 0 11-3 0 1.5 1.5 0 013 0zM715 89.5a1.5 1.5 0 11-3 0 1.5 1.5 0 013 0zM735 89.5a1.5 1.5 0 11-3 0 1.5 1.5 0 013 0zM755 89.5a1.5 1.5 0 11-3 0 1.5 1.5 0 013 0zM775 89.5a1.5 1.5 0 11-3 0 1.5 1.5 0 013 0zM795 89.5a1.5 1.5 0 11-3 0 1.5 1.5 0 013 0zM815 89.5a1.5 1.5 0 11-3 0 1.5 1.5 0 013 0zM835 89.5a1.5 1.5 0 11-3 0 1.5 1.5 0 013 0zM855 89.5a1.5 1.5 0 11-3 0 1.5 1.5 0 013 0zM875 89.5a1.5 1.5 0 11-3 0 1.5 1.5 0 013 0zM895 89.5a1.5 1.5 0 11-3 0 1.5 1.5 0 013 0zM915 89.5a1.5 1.5 0 11-3 0 1.5 1.5 0 013 0zM935 89.5a1.5 1.5 0 11-3 0 1.5 1.5 0 013 0zM695 109.5a1.5 1.5 0 11-3.001-.001 1.5 1.5 0 013.001.001zM715 109.5a1.5 1.5 0 11-3.001-.001 1.5 1.5 0 013.001.001zM735 109.5a1.5 1.5 0 11-3.001-.001 1.5 1.5 0 013.001.001zM755 109.5a1.5 1.5 0 11-3.001-.001 1.5 1.5 0 013.001.001zM775 109.5a1.5 1.5 0 11-3.001-.001 1.5 1.5 0 013.001.001zM795 109.5a1.5 1.5 0 11-3.001-.001 1.5 1.5 0 013.001.001zM815 109.5a1.5 1.5 0 11-3.001-.001 1.5 1.5 0 013.001.001zM835 109.5a1.5 1.5 0 11-3.001-.001 1.5 1.5 0 013.001.001zM855 109.5a1.5 1.5 0 11-3.001-.001 1.5 1.5 0 013.001.001zM875 109.5a1.5 1.5 0 11-3.001-.001 1.5 1.5 0 013.001.001zM895 109.5a1.5 1.5 0 11-3.001-.001 1.5 1.5 0 013.001.001zM915 109.5a1.5 1.5 0 11-3.001-.001 1.5 1.5 0 013.001.001zM935 109.5a1.5 1.5 0 11-3.001-.001 1.5 1.5 0 013.001.001zM695 129.5a1.5 1.5 0 11-3.001-.001 1.5 1.5 0 013.001.001zM715 129.5a1.5 1.5 0 11-3.001-.001 1.5 1.5 0 013.001.001zM735 129.5a1.5 1.5 0 11-3.001-.001 1.5 1.5 0 013.001.001zM755 129.5a1.5 1.5 0 11-3.001-.001 1.5 1.5 0 013.001.001zM775 129.5a1.5 1.5 0 11-3.001-.001 1.5 1.5 0 013.001.001zM795 129.5a1.5 1.5 0 11-3.001-.001 1.5 1.5 0 013.001.001zM815 129.5a1.5 1.5 0 11-3.001-.001 1.5 1.5 0 013.001.001zM835 129.5a1.5 1.5 0 11-3.001-.001 1.5 1.5 0 013.001.001zM855 129.5a1.5 1.5 0 11-3.001-.001 1.5 1.5 0 013.001.001zM875 129.5a1.5 1.5 0 11-3.001-.001 1.5 1.5 0 013.001.001zM895 129.5a1.5 1.5 0 11-3.001-.001 1.5 1.5 0 013.001.001zM915 129.5a1.5 1.5 0 11-3.001-.001 1.5 1.5 0 013.001.001zM935 129.5a1.5 1.5 0 11-3.001-.001 1.5 1.5 0 013.001.001zM695 149.5a1.5 1.5 0 11-3.001-.001 1.5 1.5 0 013.001.001zM715 149.5a1.5 1.5 0 11-3.001-.001 1.5 1.5 0 013.001.001zM735 149.5a1.5 1.5 0 11-3.001-.001 1.5 1.5 0 013.001.001zM755 149.5a1.5 1.5 0 11-3.001-.001 1.5 1.5 0 013.001.001zM775 149.5a1.5 1.5 0 11-3.001-.001 1.5 1.5 0 013.001.001zM795 149.5a1.5 1.5 0 11-3.001-.001 1.5 1.5 0 013.001.001zM815 149.5a1.5 1.5 0 11-3.001-.001 1.5 1.5 0 013.001.001zM835 149.5a1.5 1.5 0 11-3.001-.001 1.5 1.5 0 013.001.001zM855 149.5a1.5 1.5 0 11-3.001-.001 1.5 1.5 0 013.001.001zM875 149.5a1.5 1.5 0 11-3.001-.001 1.5 1.5 0 013.001.001zM895 149.5a1.5 1.5 0 11-3.001-.001 1.5 1.5 0 013.001.001zM915 149.5a1.5 1.5 0 11-3.001-.001 1.5 1.5 0 013.001.001zM935 149.5a1.5 1.5 0 11-3.001-.001 1.5 1.5 0 013.001.001zM695 169.5a1.5 1.5 0 11-3.001-.001 1.5 1.5 0 013.001.001zM715 169.5a1.5 1.5 0 11-3.001-.001 1.5 1.5 0 013.001.001zM735 169.5a1.5 1.5 0 11-3.001-.001 1.5 1.5 0 013.001.001zM755 169.5a1.5 1.5 0 11-3.001-.001 1.5 1.5 0 013.001.001zM775 169.5a1.5 1.5 0 11-3.001-.001 1.5 1.5 0 013.001.001zM795 169.5a1.5 1.5 0 11-3.001-.001 1.5 1.5 0 013.001.001zM815 169.5a1.5 1.5 0 11-3.001-.001 1.5 1.5 0 013.001.001zM835 169.5a1.5 1.5 0 11-3.001-.001 1.5 1.5 0 013.001.001zM855 169.5a1.5 1.5 0 11-3.001-.001 1.5 1.5 0 013.001.001zM875 169.5a1.5 1.5 0 11-3.001-.001 1.5 1.5 0 013.001.001zM895 169.5a1.5 1.5 0 11-3.001-.001 1.5 1.5 0 013.001.001zM915 169.5a1.5 1.5 0 11-3.001-.001 1.5 1.5 0 013.001.001zM935 169.5a1.5 1.5 0 11-3.001-.001 1.5 1.5 0 013.001.001zM695 189.5a1.5 1.5 0 11-3.001-.001 1.5 1.5 0 013.001.001zM715 189.5a1.5 1.5 0 11-3.001-.001 1.5 1.5 0 013.001.001zM735 189.5a1.5 1.5 0 11-3.001-.001 1.5 1.5 0 013.001.001zM755 189.5a1.5 1.5 0 11-3.001-.001 1.5 1.5 0 013.001.001zM775 189.5a1.5 1.5 0 11-3.001-.001 1.5 1.5 0 013.001.001zM795 189.5a1.5 1.5 0 11-3.001-.001 1.5 1.5 0 013.001.001zM815 189.5a1.5 1.5 0 11-3.001-.001 1.5 1.5 0 013.001.001zM835 189.5a1.5 1.5 0 11-3.001-.001 1.5 1.5 0 013.001.001zM855 189.5a1.5 1.5 0 11-3.001-.001 1.5 1.5 0 013.001.001zM875 189.5a1.5 1.5 0 11-3.001-.001 1.5 1.5 0 013.001.001zM895 189.5a1.5 1.5 0 11-3.001-.001 1.5 1.5 0 013.001.001zM915 189.5a1.5 1.5 0 11-3.001-.001 1.5 1.5 0 013.001.001zM935 189.5a1.5 1.5 0 11-3.001-.001 1.5 1.5 0 013.001.001zM695 209.5a1.5 1.5 0 11-3.001-.001 1.5 1.5 0 013.001.001zM715 209.5a1.5 1.5 0 11-3.001-.001 1.5 1.5 0 013.001.001zM735 209.5a1.5 1.5 0 11-3.001-.001 1.5 1.5 0 013.001.001zM755 209.5a1.5 1.5 0 11-3.001-.001 1.5 1.5 0 013.001.001zM775 209.5a1.5 1.5 0 11-3.001-.001 1.5 1.5 0 013.001.001zM795 209.5a1.5 1.5 0 11-3.001-.001 1.5 1.5 0 013.001.001zM815 209.5a1.5 1.5 0 11-3.001-.001 1.5 1.5 0 013.001.001zM835 209.5a1.5 1.5 0 11-3.001-.001 1.5 1.5 0 013.001.001zM855 209.5a1.5 1.5 0 11-3.001-.001 1.5 1.5 0 013.001.001zM875 209.5a1.5 1.5 0 11-3.001-.001 1.5 1.5 0 013.001.001zM895 209.5a1.5 1.5 0 11-3.001-.001 1.5 1.5 0 013.001.001zM915 209.5a1.5 1.5 0 11-3.001-.001 1.5 1.5 0 013.001.001zM935 209.5a1.5 1.5 0 11-3.001-.001 1.5 1.5 0 013.001.001zM695 229.5a1.5 1.5 0 11-3.001-.001 1.5 1.5 0 013.001.001zM715 229.5a1.5 1.5 0 11-3.001-.001 1.5 1.5 0 013.001.001zM735 229.5a1.5 1.5 0 11-3.001-.001 1.5 1.5 0 013.001.001zM755 229.5a1.5 1.5 0 11-3.001-.001 1.5 1.5 0 013.001.001zM775 229.5a1.5 1.5 0 11-3.001-.001 1.5 1.5 0 013.001.001zM795 229.5a1.5 1.5 0 11-3.001-.001 1.5 1.5 0 013.001.001zM815 229.5a1.5 1.5 0 11-3.001-.001 1.5 1.5 0 013.001.001zM835 229.5a1.5 1.5 0 11-3.001-.001 1.5 1.5 0 013.001.001zM855 229.5a1.5 1.5 0 11-3.001-.001 1.5 1.5 0 013.001.001zM875 229.5a1.5 1.5 0 11-3.001-.001 1.5 1.5 0 013.001.001zM895 229.5a1.5 1.5 0 11-3.001-.001 1.5 1.5 0 013.001.001zM915 229.5a1.5 1.5 0 11-3.001-.001 1.5 1.5 0 013.001.001zM935 229.5a1.5 1.5 0 11-3.001-.001 1.5 1.5 0 013.001.001zM515 249.5a1.5 1.5 0 11-3.001-.001 1.5 1.5 0 013.001.001zM535 249.5a1.5 1.5 0 11-3.001-.001 1.5 1.5 0 013.001.001zM555 249.5a1.5 1.5 0 11-3.001-.001 1.5 1.5 0 013.001.001zM575 249.5a1.5 1.5 0 11-3.001-.001 1.5 1.5 0 013.001.001zM595 249.5a1.5 1.5 0 11-3.001-.001 1.5 1.5 0 013.001.001zM615 249.5a1.5 1.5 0 11-3.001-.001 1.5 1.5 0 013.001.001zM635 249.5a1.5 1.5 0 11-3.001-.001 1.5 1.5 0 013.001.001zM655 249.5a1.5 1.5 0 11-3.001-.001 1.5 1.5 0 013.001.001zM675 249.5a1.5 1.5 0 11-3.001-.001 1.5 1.5 0 013.001.001zM515 269.5a1.5 1.5 0 11-3.001-.001 1.5 1.5 0 013.001.001zM535 269.5a1.5 1.5 0 11-3.001-.001 1.5 1.5 0 013.001.001zM555 269.5a1.5 1.5 0 11-3.001-.001 1.5 1.5 0 013.001.001zM575 269.5a1.5 1.5 0 11-3.001-.001 1.5 1.5 0 013.001.001zM595 269.5a1.5 1.5 0 11-3.001-.001 1.5 1.5 0 013.001.001zM615 269.5a1.5 1.5 0 11-3.001-.001 1.5 1.5 0 013.001.001zM635 269.5a1.5 1.5 0 11-3.001-.001 1.5 1.5 0 013.001.001zM655 269.5a1.5 1.5 0 11-3.001-.001 1.5 1.5 0 013.001.001zM675 269.5a1.5 1.5 0 11-3.001-.001 1.5 1.5 0 013.001.001zM515 289.5a1.5 1.5 0 11-3.001-.001 1.5 1.5 0 013.001.001zM535 289.5a1.5 1.5 0 11-3.001-.001 1.5 1.5 0 013.001.001zM555 289.5a1.5 1.5 0 11-3.001-.001 1.5 1.5 0 013.001.001zM575 289.5a1.5 1.5 0 11-3.001-.001 1.5 1.5 0 013.001.001zM595 289.5a1.5 1.5 0 11-3.001-.001 1.5 1.5 0 013.001.001zM615 289.5a1.5 1.5 0 11-3.001-.001 1.5 1.5 0 013.001.001zM635 289.5a1.5 1.5 0 11-3.001-.001 1.5 1.5 0 013.001.001zM655 289.5a1.5 1.5 0 11-3.001-.001 1.5 1.5 0 013.001.001zM675 289.5a1.5 1.5 0 11-3.001-.001 1.5 1.5 0 013.001.001zM515 309.5a1.5 1.5 0 11-3.001-.001 1.5 1.5 0 013.001.001zM535 309.5a1.5 1.5 0 11-3.001-.001 1.5 1.5 0 013.001.001zM555 309.5a1.5 1.5 0 11-3.001-.001 1.5 1.5 0 013.001.001zM575 309.5a1.5 1.5 0 11-3.001-.001 1.5 1.5 0 013.001.001zM595 309.5a1.5 1.5 0 11-3.001-.001 1.5 1.5 0 013.001.001zM615 309.5a1.5 1.5 0 11-3.001-.001 1.5 1.5 0 013.001.001zM635 309.5a1.5 1.5 0 11-3.001-.001 1.5 1.5 0 013.001.001zM655 309.5a1.5 1.5 0 11-3.001-.001 1.5 1.5 0 013.001.001zM675 309.5a1.5 1.5 0 11-3.001-.001 1.5 1.5 0 013.001.001zM515 329.5a1.5 1.5 0 11-3.001-.001 1.5 1.5 0 013.001.001zM535 329.5a1.5 1.5 0 11-3.001-.001 1.5 1.5 0 013.001.001zM555 329.5a1.5 1.5 0 11-3.001-.001 1.5 1.5 0 013.001.001zM575 329.5a1.5 1.5 0 11-3.001-.001 1.5 1.5 0 013.001.001zM595 329.5a1.5 1.5 0 11-3.001-.001 1.5 1.5 0 013.001.001zM615 329.5a1.5 1.5 0 11-3.001-.001 1.5 1.5 0 013.001.001zM635 329.5a1.5 1.5 0 11-3.001-.001 1.5 1.5 0 013.001.001zM655 329.5a1.5 1.5 0 11-3.001-.001 1.5 1.5 0 013.001.001zM675 329.5a1.5 1.5 0 11-3.001-.001 1.5 1.5 0 013.001.001zM515 349.5a1.5 1.5 0 11-3.001-.001 1.5 1.5 0 013.001.001zM535 349.5a1.5 1.5 0 11-3.001-.001 1.5 1.5 0 013.001.001zM555 349.5a1.5 1.5 0 11-3.001-.001 1.5 1.5 0 013.001.001zM575 349.5a1.5 1.5 0 11-3.001-.001 1.5 1.5 0 013.001.001zM595 349.5a1.5 1.5 0 11-3.001-.001 1.5 1.5 0 013.001.001zM615 349.5a1.5 1.5 0 11-3.001-.001 1.5 1.5 0 013.001.001zM635 349.5a1.5 1.5 0 11-3.001-.001 1.5 1.5 0 013.001.001zM655 349.5a1.5 1.5 0 11-3.001-.001 1.5 1.5 0 013.001.001zM675 349.5a1.5 1.5 0 11-3.001-.001 1.5 1.5 0 013.001.001zM695 249.5a1.5 1.5 0 11-3.001-.001 1.5 1.5 0 013.001.001zM715 249.5a1.5 1.5 0 11-3.001-.001 1.5 1.5 0 013.001.001zM735 249.5a1.5 1.5 0 11-3.001-.001 1.5 1.5 0 013.001.001zM755 249.5a1.5 1.5 0 11-3.001-.001 1.5 1.5 0 013.001.001zM775 249.5a1.5 1.5 0 11-3.001-.001 1.5 1.5 0 013.001.001zM795 249.5a1.5 1.5 0 11-3.001-.001 1.5 1.5 0 013.001.001zM815 249.5a1.5 1.5 0 11-3.001-.001 1.5 1.5 0 013.001.001zM835 249.5a1.5 1.5 0 11-3.001-.001 1.5 1.5 0 013.001.001zM855 249.5a1.5 1.5 0 11-3.001-.001 1.5 1.5 0 013.001.001zM875 249.5a1.5 1.5 0 11-3.001-.001 1.5 1.5 0 013.001.001zM895 249.5a1.5 1.5 0 11-3.001-.001 1.5 1.5 0 013.001.001zM915 249.5a1.5 1.5 0 11-3.001-.001 1.5 1.5 0 013.001.001zM935 249.5a1.5 1.5 0 11-3.001-.001 1.5 1.5 0 013.001.001zM695 269.5a1.5 1.5 0 11-3.001-.001 1.5 1.5 0 013.001.001zM715 269.5a1.5 1.5 0 11-3.001-.001 1.5 1.5 0 013.001.001zM735 269.5a1.5 1.5 0 11-3.001-.001 1.5 1.5 0 013.001.001zM755 269.5a1.5 1.5 0 11-3.001-.001 1.5 1.5 0 013.001.001zM775 269.5a1.5 1.5 0 11-3.001-.001 1.5 1.5 0 013.001.001zM795 269.5a1.5 1.5 0 11-3.001-.001 1.5 1.5 0 013.001.001zM815 269.5a1.5 1.5 0 11-3.001-.001 1.5 1.5 0 013.001.001zM835 269.5a1.5 1.5 0 11-3.001-.001 1.5 1.5 0 013.001.001zM855 269.5a1.5 1.5 0 11-3.001-.001 1.5 1.5 0 013.001.001zM875 269.5a1.5 1.5 0 11-3.001-.001 1.5 1.5 0 013.001.001zM895 269.5a1.5 1.5 0 11-3.001-.001 1.5 1.5 0 013.001.001zM915 269.5a1.5 1.5 0 11-3.001-.001 1.5 1.5 0 013.001.001zM935 269.5a1.5 1.5 0 11-3.001-.001 1.5 1.5 0 013.001.001zM695 289.5a1.5 1.5 0 11-3.001-.001 1.5 1.5 0 013.001.001zM715 289.5a1.5 1.5 0 11-3.001-.001 1.5 1.5 0 013.001.001zM735 289.5a1.5 1.5 0 11-3.001-.001 1.5 1.5 0 013.001.001zM755 289.5a1.5 1.5 0 11-3.001-.001 1.5 1.5 0 013.001.001zM775 289.5a1.5 1.5 0 11-3.001-.001 1.5 1.5 0 013.001.001zM795 289.5a1.5 1.5 0 11-3.001-.001 1.5 1.5 0 013.001.001zM815 289.5a1.5 1.5 0 11-3.001-.001 1.5 1.5 0 013.001.001zM835 289.5a1.5 1.5 0 11-3.001-.001 1.5 1.5 0 013.001.001zM855 289.5a1.5 1.5 0 11-3.001-.001 1.5 1.5 0 013.001.001zM875 289.5a1.5 1.5 0 11-3.001-.001 1.5 1.5 0 013.001.001zM895 289.5a1.5 1.5 0 11-3.001-.001 1.5 1.5 0 013.001.001zM915 289.5a1.5 1.5 0 11-3.001-.001 1.5 1.5 0 013.001.001zM935 289.5a1.5 1.5 0 11-3.001-.001 1.5 1.5 0 013.001.001zM695 309.5a1.5 1.5 0 11-3.001-.001 1.5 1.5 0 013.001.001zM715 309.5a1.5 1.5 0 11-3.001-.001 1.5 1.5 0 013.001.001zM735 309.5a1.5 1.5 0 11-3.001-.001 1.5 1.5 0 013.001.001zM755 309.5a1.5 1.5 0 11-3.001-.001 1.5 1.5 0 013.001.001zM775 309.5a1.5 1.5 0 11-3.001-.001 1.5 1.5 0 013.001.001zM795 309.5a1.5 1.5 0 11-3.001-.001 1.5 1.5 0 013.001.001zM815 309.5a1.5 1.5 0 11-3.001-.001 1.5 1.5 0 013.001.001zM835 309.5a1.5 1.5 0 11-3.001-.001 1.5 1.5 0 013.001.001zM855 309.5a1.5 1.5 0 11-3.001-.001 1.5 1.5 0 013.001.001zM875 309.5a1.5 1.5 0 11-3.001-.001 1.5 1.5 0 013.001.001zM895 309.5a1.5 1.5 0 11-3.001-.001 1.5 1.5 0 013.001.001zM915 309.5a1.5 1.5 0 11-3.001-.001 1.5 1.5 0 013.001.001zM935 309.5a1.5 1.5 0 11-3.001-.001 1.5 1.5 0 013.001.001zM695 329.5a1.5 1.5 0 11-3.001-.001 1.5 1.5 0 013.001.001zM715 329.5a1.5 1.5 0 11-3.001-.001 1.5 1.5 0 013.001.001zM735 329.5a1.5 1.5 0 11-3.001-.001 1.5 1.5 0 013.001.001zM755 329.5a1.5 1.5 0 11-3.001-.001 1.5 1.5 0 013.001.001zM775 329.5a1.5 1.5 0 11-3.001-.001 1.5 1.5 0 013.001.001zM795 329.5a1.5 1.5 0 11-3.001-.001 1.5 1.5 0 013.001.001zM815 329.5a1.5 1.5 0 11-3.001-.001 1.5 1.5 0 013.001.001zM835 329.5a1.5 1.5 0 11-3.001-.001 1.5 1.5 0 013.001.001zM855 329.5a1.5 1.5 0 11-3.001-.001 1.5 1.5 0 013.001.001zM875 329.5a1.5 1.5 0 11-3.001-.001 1.5 1.5 0 013.001.001zM895 329.5a1.5 1.5 0 11-3.001-.001 1.5 1.5 0 013.001.001zM915 329.5a1.5 1.5 0 11-3.001-.001 1.5 1.5 0 013.001.001zM935 329.5a1.5 1.5 0 11-3.001-.001 1.5 1.5 0 013.001.001zM695 349.5a1.5 1.5 0 11-3.001-.001 1.5 1.5 0 013.001.001zM715 349.5a1.5 1.5 0 11-3.001-.001 1.5 1.5 0 013.001.001zM735 349.5a1.5 1.5 0 11-3.001-.001 1.5 1.5 0 013.001.001zM755 349.5a1.5 1.5 0 11-3.001-.001 1.5 1.5 0 013.001.001zM775 349.5a1.5 1.5 0 11-3.001-.001 1.5 1.5 0 013.001.001zM795 349.5a1.5 1.5 0 11-3.001-.001 1.5 1.5 0 013.001.001zM815 349.5a1.5 1.5 0 11-3.001-.001 1.5 1.5 0 013.001.001zM835 349.5a1.5 1.5 0 11-3.001-.001 1.5 1.5 0 013.001.001zM855 349.5a1.5 1.5 0 11-3.001-.001 1.5 1.5 0 013.001.001zM875 349.5a1.5 1.5 0 11-3.001-.001 1.5 1.5 0 013.001.001zM895 349.5a1.5 1.5 0 11-3.001-.001 1.5 1.5 0 013.001.001zM915 349.5a1.5 1.5 0 11-3.001-.001 1.5 1.5 0 013.001.001zM935 349.5a1.5 1.5 0 11-3.001-.001 1.5 1.5 0 013.001.001zM-645 369.5a1.5 1.5 0 11-3.001-.001 1.5 1.5 0 013.001.001zM-625 369.5a1.5 1.5 0 11-3.001-.001 1.5 1.5 0 013.001.001zM-605 369.5a1.5 1.5 0 11-3.001-.001 1.5 1.5 0 013.001.001zM-585 369.5a1.5 1.5 0 11-3.001-.001 1.5 1.5 0 013.001.001zM-565 369.5a1.5 1.5 0 11-3.001-.001 1.5 1.5 0 013.001.001zM-545 369.5a1.5 1.5 0 11-3.001-.001 1.5 1.5 0 013.001.001zM-525 369.5a1.5 1.5 0 11-3.001-.001 1.5 1.5 0 013.001.001zM-505 369.5a1.5 1.5 0 11-3.001-.001 1.5 1.5 0 013.001.001zM-485 369.5a1.5 1.5 0 11-3.001-.001 1.5 1.5 0 013.001.001zM-465 369.5a1.5 1.5 0 11-3.001-.001 1.5 1.5 0 013.001.001zM-445 369.5a1.5 1.5 0 11-3.001-.001 1.5 1.5 0 013.001.001zM-425 369.5a1.5 1.5 0 11-3.001-.001 1.5 1.5 0 013.001.001zM-405 369.5a1.5 1.5 0 11-3.001-.001 1.5 1.5 0 013.001.001zM-385 369.5a1.5 1.5 0 11-3.001-.001 1.5 1.5 0 013.001.001zM-365 369.5a1.5 1.5 0 11-3.001-.001 1.5 1.5 0 013.001.001zM-345 369.5a1.5 1.5 0 11-3.001-.001 1.5 1.5 0 013.001.001zM-325 369.5a1.5 1.5 0 11-3.001-.001 1.5 1.5 0 013.001.001zM-305 369.5a1.5 1.5 0 11-3.001-.001 1.5 1.5 0 013.001.001zM-285 369.5a1.5 1.5 0 11-3.001-.001 1.5 1.5 0 013.001.001zM-265 369.5a1.5 1.5 0 11-3.001-.001 1.5 1.5 0 013.001.001zM-245 369.5a1.5 1.5 0 11-3.001-.001 1.5 1.5 0 013.001.001zM-225 369.5a1.5 1.5 0 11-3.001-.001 1.5 1.5 0 013.001.001zM-205 369.5a1.5 1.5 0 11-3.001-.001 1.5 1.5 0 013.001.001zM-185 369.5a1.5 1.5 0 11-3.001-.001 1.5 1.5 0 013.001.001zM-165 369.5a1.5 1.5 0 11-3.001-.001 1.5 1.5 0 013.001.001zM-145 369.5a1.5 1.5 0 11-3.001-.001 1.5 1.5 0 013.001.001zM-125 369.5a1.5 1.5 0 11-3.001-.001 1.5 1.5 0 013.001.001zM-105 369.5a1.5 1.5 0 11-3.001-.001 1.5 1.5 0 013.001.001zM-85 369.5a1.5 1.5 0 11-3 0 1.5 1.5 0 013 0zM-645 389.5a1.5 1.5 0 11-3.001-.001 1.5 1.5 0 013.001.001zM-625 389.5a1.5 1.5 0 11-3.001-.001 1.5 1.5 0 013.001.001zM-605 389.5a1.5 1.5 0 11-3.001-.001 1.5 1.5 0 013.001.001zM-585 389.5a1.5 1.5 0 11-3.001-.001 1.5 1.5 0 013.001.001zM-565 389.5a1.5 1.5 0 11-3.001-.001 1.5 1.5 0 013.001.001zM-545 389.5a1.5 1.5 0 11-3.001-.001 1.5 1.5 0 013.001.001zM-525 389.5a1.5 1.5 0 11-3.001-.001 1.5 1.5 0 013.001.001zM-505 389.5a1.5 1.5 0 11-3.001-.001 1.5 1.5 0 013.001.001zM-485 389.5a1.5 1.5 0 11-3.001-.001 1.5 1.5 0 013.001.001zM-645 409.5a1.5 1.5 0 11-3.001-.001 1.5 1.5 0 013.001.001zM-625 409.5a1.5 1.5 0 11-3.001-.001 1.5 1.5 0 013.001.001zM-605 409.5a1.5 1.5 0 11-3.001-.001 1.5 1.5 0 013.001.001zM-585 409.5a1.5 1.5 0 11-3.001-.001 1.5 1.5 0 013.001.001zM-565 409.5a1.5 1.5 0 11-3.001-.001 1.5 1.5 0 013.001.001zM-545 409.5a1.5 1.5 0 11-3.001-.001 1.5 1.5 0 013.001.001zM-525 409.5a1.5 1.5 0 11-3.001-.001 1.5 1.5 0 013.001.001zM-505 409.5a1.5 1.5 0 11-3.001-.001 1.5 1.5 0 013.001.001zM-485 409.5a1.5 1.5 0 11-3.001-.001 1.5 1.5 0 013.001.001zM-645 429.5a1.5 1.5 0 11-3.001-.001 1.5 1.5 0 013.001.001zM-625 429.5a1.5 1.5 0 11-3.001-.001 1.5 1.5 0 013.001.001zM-605 429.5a1.5 1.5 0 11-3.001-.001 1.5 1.5 0 013.001.001zM-585 429.5a1.5 1.5 0 11-3.001-.001 1.5 1.5 0 013.001.001zM-565 429.5a1.5 1.5 0 11-3.001-.001 1.5 1.5 0 013.001.001zM-545 429.5a1.5 1.5 0 11-3.001-.001 1.5 1.5 0 013.001.001zM-525 429.5a1.5 1.5 0 11-3.001-.001 1.5 1.5 0 013.001.001zM-505 429.5a1.5 1.5 0 11-3.001-.001 1.5 1.5 0 013.001.001zM-485 429.5a1.5 1.5 0 11-3.001-.001 1.5 1.5 0 013.001.001zM-645 449.5a1.5 1.5 0 11-3.001-.001 1.5 1.5 0 013.001.001zM-625 449.5a1.5 1.5 0 11-3.001-.001 1.5 1.5 0 013.001.001zM-605 449.5a1.5 1.5 0 11-3.001-.001 1.5 1.5 0 013.001.001zM-585 449.5a1.5 1.5 0 11-3.001-.001 1.5 1.5 0 013.001.001zM-565 449.5a1.5 1.5 0 11-3.001-.001 1.5 1.5 0 013.001.001zM-545 449.5a1.5 1.5 0 11-3.001-.001 1.5 1.5 0 013.001.001zM-525 449.5a1.5 1.5 0 11-3.001-.001 1.5 1.5 0 013.001.001zM-505 449.5a1.5 1.5 0 11-3.001-.001 1.5 1.5 0 013.001.001zM-485 449.5a1.5 1.5 0 11-3.001-.001 1.5 1.5 0 013.001.001zM-465 389.5a1.5 1.5 0 11-3.001-.001 1.5 1.5 0 013.001.001zM-445 389.5a1.5 1.5 0 11-3.001-.001 1.5 1.5 0 013.001.001zM-425 389.5a1.5 1.5 0 11-3.001-.001 1.5 1.5 0 013.001.001zM-405 389.5a1.5 1.5 0 11-3.001-.001 1.5 1.5 0 013.001.001zM-385 389.5a1.5 1.5 0 11-3.001-.001 1.5 1.5 0 013.001.001zM-365 389.5a1.5 1.5 0 11-3.001-.001 1.5 1.5 0 013.001.001zM-345 389.5a1.5 1.5 0 11-3.001-.001 1.5 1.5 0 013.001.001zM-325 389.5a1.5 1.5 0 11-3.001-.001 1.5 1.5 0 013.001.001zM-305 389.5a1.5 1.5 0 11-3.001-.001 1.5 1.5 0 013.001.001zM-285 389.5a1.5 1.5 0 11-3.001-.001 1.5 1.5 0 013.001.001zM-265 389.5a1.5 1.5 0 11-3.001-.001 1.5 1.5 0 013.001.001zM-245 389.5a1.5 1.5 0 11-3.001-.001 1.5 1.5 0 013.001.001zM-225 389.5a1.5 1.5 0 11-3.001-.001 1.5 1.5 0 013.001.001zM-205 389.5a1.5 1.5 0 11-3.001-.001 1.5 1.5 0 013.001.001zM-185 389.5a1.5 1.5 0 11-3.001-.001 1.5 1.5 0 013.001.001zM-465 409.5a1.5 1.5 0 11-3.001-.001 1.5 1.5 0 013.001.001zM-445 409.5a1.5 1.5 0 11-3.001-.001 1.5 1.5 0 013.001.001zM-425 409.5a1.5 1.5 0 11-3.001-.001 1.5 1.5 0 013.001.001zM-405 409.5a1.5 1.5 0 11-3.001-.001 1.5 1.5 0 013.001.001zM-385 409.5a1.5 1.5 0 11-3.001-.001 1.5 1.5 0 013.001.001zM-365 409.5a1.5 1.5 0 11-3.001-.001 1.5 1.5 0 013.001.001zM-345 409.5a1.5 1.5 0 11-3.001-.001 1.5 1.5 0 013.001.001zM-325 409.5a1.5 1.5 0 11-3.001-.001 1.5 1.5 0 013.001.001zM-305 409.5a1.5 1.5 0 11-3.001-.001 1.5 1.5 0 013.001.001zM-285 409.5a1.5 1.5 0 11-3.001-.001 1.5 1.5 0 013.001.001zM-265 409.5a1.5 1.5 0 11-3.001-.001 1.5 1.5 0 013.001.001zM-245 409.5a1.5 1.5 0 11-3.001-.001 1.5 1.5 0 013.001.001zM-225 409.5a1.5 1.5 0 11-3.001-.001 1.5 1.5 0 013.001.001zM-205 409.5a1.5 1.5 0 11-3.001-.001 1.5 1.5 0 013.001.001zM-185 409.5a1.5 1.5 0 11-3.001-.001 1.5 1.5 0 013.001.001zM-465 429.5a1.5 1.5 0 11-3.001-.001 1.5 1.5 0 013.001.001zM-445 429.5a1.5 1.5 0 11-3.001-.001 1.5 1.5 0 013.001.001zM-425 429.5a1.5 1.5 0 11-3.001-.001 1.5 1.5 0 013.001.001zM-405 429.5a1.5 1.5 0 11-3.001-.001 1.5 1.5 0 013.001.001zM-385 429.5a1.5 1.5 0 11-3.001-.001 1.5 1.5 0 013.001.001zM-365 429.5a1.5 1.5 0 11-3.001-.001 1.5 1.5 0 013.001.001zM-345 429.5a1.5 1.5 0 11-3.001-.001 1.5 1.5 0 013.001.001zM-325 429.5a1.5 1.5 0 11-3.001-.001 1.5 1.5 0 013.001.001zM-305 429.5a1.5 1.5 0 11-3.001-.001 1.5 1.5 0 013.001.001zM-285 429.5a1.5 1.5 0 11-3.001-.001 1.5 1.5 0 013.001.001zM-265 429.5a1.5 1.5 0 11-3.001-.001 1.5 1.5 0 013.001.001zM-245 429.5a1.5 1.5 0 11-3.001-.001 1.5 1.5 0 013.001.001zM-225 429.5a1.5 1.5 0 11-3.001-.001 1.5 1.5 0 013.001.001zM-205 429.5a1.5 1.5 0 11-3.001-.001 1.5 1.5 0 013.001.001zM-185 429.5a1.5 1.5 0 11-3.001-.001 1.5 1.5 0 013.001.001zM-465 449.5a1.5 1.5 0 11-3.001-.001 1.5 1.5 0 013.001.001zM-445 449.5a1.5 1.5 0 11-3.001-.001 1.5 1.5 0 013.001.001zM-425 449.5a1.5 1.5 0 11-3.001-.001 1.5 1.5 0 013.001.001zM-405 449.5a1.5 1.5 0 11-3.001-.001 1.5 1.5 0 013.001.001zM-385 449.5a1.5 1.5 0 11-3.001-.001 1.5 1.5 0 013.001.001zM-365 449.5a1.5 1.5 0 11-3.001-.001 1.5 1.5 0 013.001.001zM-345 449.5a1.5 1.5 0 11-3.001-.001 1.5 1.5 0 013.001.001zM-325 449.5a1.5 1.5 0 11-3.001-.001 1.5 1.5 0 013.001.001zM-305 449.5a1.5 1.5 0 11-3.001-.001 1.5 1.5 0 013.001.001zM-285 449.5a1.5 1.5 0 11-3.001-.001 1.5 1.5 0 013.001.001zM-265 449.5a1.5 1.5 0 11-3.001-.001 1.5 1.5 0 013.001.001zM-245 449.5a1.5 1.5 0 11-3.001-.001 1.5 1.5 0 013.001.001zM-225 449.5a1.5 1.5 0 11-3.001-.001 1.5 1.5 0 013.001.001zM-205 449.5a1.5 1.5 0 11-3.001-.001 1.5 1.5 0 013.001.001zM-185 449.5a1.5 1.5 0 11-3.001-.001 1.5 1.5 0 013.001.001zM-165 389.5a1.5 1.5 0 11-3.001-.001 1.5 1.5 0 013.001.001zM-145 389.5a1.5 1.5 0 11-3.001-.001 1.5 1.5 0 013.001.001zM-125 389.5a1.5 1.5 0 11-3.001-.001 1.5 1.5 0 013.001.001zM-105 389.5a1.5 1.5 0 11-3.001-.001 1.5 1.5 0 013.001.001zM-85 389.5a1.5 1.5 0 11-3 0 1.5 1.5 0 013 0zM-165 409.5a1.5 1.5 0 11-3.001-.001 1.5 1.5 0 013.001.001zM-145 409.5a1.5 1.5 0 11-3.001-.001 1.5 1.5 0 013.001.001zM-125 409.5a1.5 1.5 0 11-3.001-.001 1.5 1.5 0 013.001.001zM-105 409.5a1.5 1.5 0 11-3.001-.001 1.5 1.5 0 013.001.001zM-85 409.5a1.5 1.5 0 11-3 0 1.5 1.5 0 013 0zM-165 429.5a1.5 1.5 0 11-3.001-.001 1.5 1.5 0 013.001.001zM-145 429.5a1.5 1.5 0 11-3.001-.001 1.5 1.5 0 013.001.001zM-125 429.5a1.5 1.5 0 11-3.001-.001 1.5 1.5 0 013.001.001zM-105 429.5a1.5 1.5 0 11-3.001-.001 1.5 1.5 0 013.001.001zM-85 429.5a1.5 1.5 0 11-3 0 1.5 1.5 0 013 0zM-165 449.5a1.5 1.5 0 11-3.001-.001 1.5 1.5 0 013.001.001zM-145 449.5a1.5 1.5 0 11-3.001-.001 1.5 1.5 0 013.001.001zM-125 449.5a1.5 1.5 0 11-3.001-.001 1.5 1.5 0 013.001.001zM-105 449.5a1.5 1.5 0 11-3.001-.001 1.5 1.5 0 013.001.001zM-85 449.5a1.5 1.5 0 11-3 0 1.5 1.5 0 013 0zM-65 369.5a1.5 1.5 0 11-3 0 1.5 1.5 0 013 0zM-45 369.5a1.5 1.5 0 11-3 0 1.5 1.5 0 013 0zM-25 369.5a1.5 1.5 0 11-3 0 1.5 1.5 0 013 0zM-5 369.5a1.5 1.5 0 11-3 0 1.5 1.5 0 013 0zM15 369.5a1.5 1.5 0 11-3 0 1.5 1.5 0 013 0zM35 369.5a1.5 1.5 0 11-3 0 1.5 1.5 0 013 0zM55 369.5a1.5 1.5 0 11-3 0 1.5 1.5 0 013 0zM75 369.5a1.5 1.5 0 11-3 0 1.5 1.5 0 013 0zM95 369.5a1.5 1.5 0 11-3 0 1.5 1.5 0 013 0zM115 369.5a1.5 1.5 0 11-3.001-.001 1.5 1.5 0 013.001.001zM135 369.5a1.5 1.5 0 11-3.001-.001 1.5 1.5 0 013.001.001zM155 369.5a1.5 1.5 0 11-3.001-.001 1.5 1.5 0 013.001.001zM175 369.5a1.5 1.5 0 11-3.001-.001 1.5 1.5 0 013.001.001zM195 369.5a1.5 1.5 0 11-3.001-.001 1.5 1.5 0 013.001.001zM215 369.5a1.5 1.5 0 11-3.001-.001 1.5 1.5 0 013.001.001zM235 369.5a1.5 1.5 0 11-3.001-.001 1.5 1.5 0 013.001.001zM255 369.5a1.5 1.5 0 11-3.001-.001 1.5 1.5 0 013.001.001zM275 369.5a1.5 1.5 0 11-3.001-.001 1.5 1.5 0 013.001.001zM295 369.5a1.5 1.5 0 11-3.001-.001 1.5 1.5 0 013.001.001zM315 369.5a1.5 1.5 0 11-3.001-.001 1.5 1.5 0 013.001.001zM335 369.5a1.5 1.5 0 11-3.001-.001 1.5 1.5 0 013.001.001zM355 369.5a1.5 1.5 0 11-3.001-.001 1.5 1.5 0 013.001.001zM375 369.5a1.5 1.5 0 11-3.001-.001 1.5 1.5 0 013.001.001zM395 369.5a1.5 1.5 0 11-3.001-.001 1.5 1.5 0 013.001.001zM415 369.5a1.5 1.5 0 11-3.001-.001 1.5 1.5 0 013.001.001zM435 369.5a1.5 1.5 0 11-3.001-.001 1.5 1.5 0 013.001.001zM455 369.5a1.5 1.5 0 11-3.001-.001 1.5 1.5 0 013.001.001zM475 369.5a1.5 1.5 0 11-3.001-.001 1.5 1.5 0 013.001.001zM495 369.5a1.5 1.5 0 11-3.001-.001 1.5 1.5 0 013.001.001zM-65 389.5a1.5 1.5 0 11-3 0 1.5 1.5 0 013 0zM-45 389.5a1.5 1.5 0 11-3 0 1.5 1.5 0 013 0zM-25 389.5a1.5 1.5 0 11-3 0 1.5 1.5 0 013 0zM-5 389.5a1.5 1.5 0 11-3 0 1.5 1.5 0 013 0zM15 389.5a1.5 1.5 0 11-3 0 1.5 1.5 0 013 0zM35 389.5a1.5 1.5 0 11-3 0 1.5 1.5 0 013 0zM55 389.5a1.5 1.5 0 11-3 0 1.5 1.5 0 013 0zM75 389.5a1.5 1.5 0 11-3 0 1.5 1.5 0 013 0zM95 389.5a1.5 1.5 0 11-3 0 1.5 1.5 0 013 0zM-65 409.5a1.5 1.5 0 11-3 0 1.5 1.5 0 013 0zM-45 409.5a1.5 1.5 0 11-3 0 1.5 1.5 0 013 0zM-25 409.5a1.5 1.5 0 11-3 0 1.5 1.5 0 013 0zM-5 409.5a1.5 1.5 0 11-3 0 1.5 1.5 0 013 0zM15 409.5a1.5 1.5 0 11-3 0 1.5 1.5 0 013 0zM35 409.5a1.5 1.5 0 11-3 0 1.5 1.5 0 013 0zM55 409.5a1.5 1.5 0 11-3 0 1.5 1.5 0 013 0zM75 409.5a1.5 1.5 0 11-3 0 1.5 1.5 0 013 0zM95 409.5a1.5 1.5 0 11-3 0 1.5 1.5 0 013 0zM-65 429.5a1.5 1.5 0 11-3 0 1.5 1.5 0 013 0zM-45 429.5a1.5 1.5 0 11-3 0 1.5 1.5 0 013 0zM-25 429.5a1.5 1.5 0 11-3 0 1.5 1.5 0 013 0zM-5 429.5a1.5 1.5 0 11-3 0 1.5 1.5 0 013 0zM15 429.5a1.5 1.5 0 11-3 0 1.5 1.5 0 013 0zM35 429.5a1.5 1.5 0 11-3 0 1.5 1.5 0 013 0zM55 429.5a1.5 1.5 0 11-3 0 1.5 1.5 0 013 0zM75 429.5a1.5 1.5 0 11-3 0 1.5 1.5 0 013 0zM95 429.5a1.5 1.5 0 11-3 0 1.5 1.5 0 013 0zM-65 449.5a1.5 1.5 0 11-3 0 1.5 1.5 0 013 0zM-45 449.5a1.5 1.5 0 11-3 0 1.5 1.5 0 013 0zM-25 449.5a1.5 1.5 0 11-3 0 1.5 1.5 0 013 0zM-5 449.5a1.5 1.5 0 11-3 0 1.5 1.5 0 013 0zM15 449.5a1.5 1.5 0 11-3 0 1.5 1.5 0 013 0zM35 449.5a1.5 1.5 0 11-3 0 1.5 1.5 0 013 0zM55 449.5a1.5 1.5 0 11-3 0 1.5 1.5 0 013 0zM75 449.5a1.5 1.5 0 11-3 0 1.5 1.5 0 013 0zM95 449.5a1.5 1.5 0 11-3 0 1.5 1.5 0 013 0zM115 389.5a1.5 1.5 0 11-3.001-.001 1.5 1.5 0 013.001.001zM135 389.5a1.5 1.5 0 11-3.001-.001 1.5 1.5 0 013.001.001zM155 389.5a1.5 1.5 0 11-3.001-.001 1.5 1.5 0 013.001.001zM175 389.5a1.5 1.5 0 11-3.001-.001 1.5 1.5 0 013.001.001zM195 389.5a1.5 1.5 0 11-3.001-.001 1.5 1.5 0 013.001.001zM215 389.5a1.5 1.5 0 11-3.001-.001 1.5 1.5 0 013.001.001zM235 389.5a1.5 1.5 0 11-3.001-.001 1.5 1.5 0 013.001.001zM255 389.5a1.5 1.5 0 11-3.001-.001 1.5 1.5 0 013.001.001zM275 389.5a1.5 1.5 0 11-3.001-.001 1.5 1.5 0 013.001.001zM295 389.5a1.5 1.5 0 11-3.001-.001 1.5 1.5 0 013.001.001zM315 389.5a1.5 1.5 0 11-3.001-.001 1.5 1.5 0 013.001.001zM335 389.5a1.5 1.5 0 11-3.001-.001 1.5 1.5 0 013.001.001zM355 389.5a1.5 1.5 0 11-3.001-.001 1.5 1.5 0 013.001.001zM375 389.5a1.5 1.5 0 11-3.001-.001 1.5 1.5 0 013.001.001zM395 389.5a1.5 1.5 0 11-3.001-.001 1.5 1.5 0 013.001.001zM115 409.5a1.5 1.5 0 11-3.001-.001 1.5 1.5 0 013.001.001zM135 409.5a1.5 1.5 0 11-3.001-.001 1.5 1.5 0 013.001.001zM155 409.5a1.5 1.5 0 11-3.001-.001 1.5 1.5 0 013.001.001zM175 409.5a1.5 1.5 0 11-3.001-.001 1.5 1.5 0 013.001.001zM195 409.5a1.5 1.5 0 11-3.001-.001 1.5 1.5 0 013.001.001zM215 409.5a1.5 1.5 0 11-3.001-.001 1.5 1.5 0 013.001.001zM235 409.5a1.5 1.5 0 11-3.001-.001 1.5 1.5 0 013.001.001zM255 409.5a1.5 1.5 0 11-3.001-.001 1.5 1.5 0 013.001.001zM275 409.5a1.5 1.5 0 11-3.001-.001 1.5 1.5 0 013.001.001zM295 409.5a1.5 1.5 0 11-3.001-.001 1.5 1.5 0 013.001.001zM315 409.5a1.5 1.5 0 11-3.001-.001 1.5 1.5 0 013.001.001zM335 409.5a1.5 1.5 0 11-3.001-.001 1.5 1.5 0 013.001.001zM355 409.5a1.5 1.5 0 11-3.001-.001 1.5 1.5 0 013.001.001zM375 409.5a1.5 1.5 0 11-3.001-.001 1.5 1.5 0 013.001.001zM395 409.5a1.5 1.5 0 11-3.001-.001 1.5 1.5 0 013.001.001zM115 429.5a1.5 1.5 0 11-3.001-.001 1.5 1.5 0 013.001.001zM135 429.5a1.5 1.5 0 11-3.001-.001 1.5 1.5 0 013.001.001zM155 429.5a1.5 1.5 0 11-3.001-.001 1.5 1.5 0 013.001.001zM175 429.5a1.5 1.5 0 11-3.001-.001 1.5 1.5 0 013.001.001zM195 429.5a1.5 1.5 0 11-3.001-.001 1.5 1.5 0 013.001.001zM215 429.5a1.5 1.5 0 11-3.001-.001 1.5 1.5 0 013.001.001zM235 429.5a1.5 1.5 0 11-3.001-.001 1.5 1.5 0 013.001.001zM255 429.5a1.5 1.5 0 11-3.001-.001 1.5 1.5 0 013.001.001zM275 429.5a1.5 1.5 0 11-3.001-.001 1.5 1.5 0 013.001.001zM295 429.5a1.5 1.5 0 11-3.001-.001 1.5 1.5 0 013.001.001zM315 429.5a1.5 1.5 0 11-3.001-.001 1.5 1.5 0 013.001.001zM335 429.5a1.5 1.5 0 11-3.001-.001 1.5 1.5 0 013.001.001zM355 429.5a1.5 1.5 0 11-3.001-.001 1.5 1.5 0 013.001.001zM375 429.5a1.5 1.5 0 11-3.001-.001 1.5 1.5 0 013.001.001zM395 429.5a1.5 1.5 0 11-3.001-.001 1.5 1.5 0 013.001.001zM115 449.5a1.5 1.5 0 11-3.001-.001 1.5 1.5 0 013.001.001zM135 449.5a1.5 1.5 0 11-3.001-.001 1.5 1.5 0 013.001.001zM155 449.5a1.5 1.5 0 11-3.001-.001 1.5 1.5 0 013.001.001zM175 449.5a1.5 1.5 0 11-3.001-.001 1.5 1.5 0 013.001.001zM195 449.5a1.5 1.5 0 11-3.001-.001 1.5 1.5 0 013.001.001zM215 449.5a1.5 1.5 0 11-3.001-.001 1.5 1.5 0 013.001.001zM235 449.5a1.5 1.5 0 11-3.001-.001 1.5 1.5 0 013.001.001zM255 449.5a1.5 1.5 0 11-3.001-.001 1.5 1.5 0 013.001.001zM275 449.5a1.5 1.5 0 11-3.001-.001 1.5 1.5 0 013.001.001zM295 449.5a1.5 1.5 0 11-3.001-.001 1.5 1.5 0 013.001.001zM315 449.5a1.5 1.5 0 11-3.001-.001 1.5 1.5 0 013.001.001zM335 449.5a1.5 1.5 0 11-3.001-.001 1.5 1.5 0 013.001.001zM355 449.5a1.5 1.5 0 11-3.001-.001 1.5 1.5 0 013.001.001zM375 449.5a1.5 1.5 0 11-3.001-.001 1.5 1.5 0 013.001.001zM395 449.5a1.5 1.5 0 11-3.001-.001 1.5 1.5 0 013.001.001zM415 389.5a1.5 1.5 0 11-3.001-.001 1.5 1.5 0 013.001.001zM435 389.5a1.5 1.5 0 11-3.001-.001 1.5 1.5 0 013.001.001zM455 389.5a1.5 1.5 0 11-3.001-.001 1.5 1.5 0 013.001.001zM475 389.5a1.5 1.5 0 11-3.001-.001 1.5 1.5 0 013.001.001zM495 389.5a1.5 1.5 0 11-3.001-.001 1.5 1.5 0 013.001.001zM415 409.5a1.5 1.5 0 11-3.001-.001 1.5 1.5 0 013.001.001zM435 409.5a1.5 1.5 0 11-3.001-.001 1.5 1.5 0 013.001.001zM455 409.5a1.5 1.5 0 11-3.001-.001 1.5 1.5 0 013.001.001zM475 409.5a1.5 1.5 0 11-3.001-.001 1.5 1.5 0 013.001.001zM495 409.5a1.5 1.5 0 11-3.001-.001 1.5 1.5 0 013.001.001zM415 429.5a1.5 1.5 0 11-3.001-.001 1.5 1.5 0 013.001.001zM435 429.5a1.5 1.5 0 11-3.001-.001 1.5 1.5 0 013.001.001zM455 429.5a1.5 1.5 0 11-3.001-.001 1.5 1.5 0 013.001.001zM475 429.5a1.5 1.5 0 11-3.001-.001 1.5 1.5 0 013.001.001zM495 429.5a1.5 1.5 0 11-3.001-.001 1.5 1.5 0 013.001.001zM415 449.5a1.5 1.5 0 11-3.001-.001 1.5 1.5 0 013.001.001zM435 449.5a1.5 1.5 0 11-3.001-.001 1.5 1.5 0 013.001.001zM455 449.5a1.5 1.5 0 11-3.001-.001 1.5 1.5 0 013.001.001zM475 449.5a1.5 1.5 0 11-3.001-.001 1.5 1.5 0 013.001.001zM495 449.5a1.5 1.5 0 11-3.001-.001 1.5 1.5 0 013.001.001zM515 369.5a1.5 1.5 0 11-3.001-.001 1.5 1.5 0 013.001.001zM535 369.5a1.5 1.5 0 11-3.001-.001 1.5 1.5 0 013.001.001zM555 369.5a1.5 1.5 0 11-3.001-.001 1.5 1.5 0 013.001.001zM575 369.5a1.5 1.5 0 11-3.001-.001 1.5 1.5 0 013.001.001zM595 369.5a1.5 1.5 0 11-3.001-.001 1.5 1.5 0 013.001.001zM615 369.5a1.5 1.5 0 11-3.001-.001 1.5 1.5 0 013.001.001zM635 369.5a1.5 1.5 0 11-3.001-.001 1.5 1.5 0 013.001.001zM655 369.5a1.5 1.5 0 11-3.001-.001 1.5 1.5 0 013.001.001zM675 369.5a1.5 1.5 0 11-3.001-.001 1.5 1.5 0 013.001.001zM695 369.5a1.5 1.5 0 11-3.001-.001 1.5 1.5 0 013.001.001zM715 369.5a1.5 1.5 0 11-3.001-.001 1.5 1.5 0 013.001.001zM735 369.5a1.5 1.5 0 11-3.001-.001 1.5 1.5 0 013.001.001zM755 369.5a1.5 1.5 0 11-3.001-.001 1.5 1.5 0 013.001.001zM775 369.5a1.5 1.5 0 11-3.001-.001 1.5 1.5 0 013.001.001zM795 369.5a1.5 1.5 0 11-3.001-.001 1.5 1.5 0 013.001.001zM815 369.5a1.5 1.5 0 11-3.001-.001 1.5 1.5 0 013.001.001zM835 369.5a1.5 1.5 0 11-3.001-.001 1.5 1.5 0 013.001.001zM855 369.5a1.5 1.5 0 11-3.001-.001 1.5 1.5 0 013.001.001zM875 369.5a1.5 1.5 0 11-3.001-.001 1.5 1.5 0 013.001.001zM895 369.5a1.5 1.5 0 11-3.001-.001 1.5 1.5 0 013.001.001zM915 369.5a1.5 1.5 0 11-3.001-.001 1.5 1.5 0 013.001.001zM935 369.5a1.5 1.5 0 11-3.001-.001 1.5 1.5 0 013.001.001zM515 389.5a1.5 1.5 0 11-3.001-.001 1.5 1.5 0 013.001.001zM535 389.5a1.5 1.5 0 11-3.001-.001 1.5 1.5 0 013.001.001zM555 389.5a1.5 1.5 0 11-3.001-.001 1.5 1.5 0 013.001.001zM575 389.5a1.5 1.5 0 11-3.001-.001 1.5 1.5 0 013.001.001zM595 389.5a1.5 1.5 0 11-3.001-.001 1.5 1.5 0 013.001.001zM615 389.5a1.5 1.5 0 11-3.001-.001 1.5 1.5 0 013.001.001zM635 389.5a1.5 1.5 0 11-3.001-.001 1.5 1.5 0 013.001.001zM655 389.5a1.5 1.5 0 11-3.001-.001 1.5 1.5 0 013.001.001zM675 389.5a1.5 1.5 0 11-3.001-.001 1.5 1.5 0 013.001.001zM515 409.5a1.5 1.5 0 11-3.001-.001 1.5 1.5 0 013.001.001zM535 409.5a1.5 1.5 0 11-3.001-.001 1.5 1.5 0 013.001.001zM555 409.5a1.5 1.5 0 11-3.001-.001 1.5 1.5 0 013.001.001zM575 409.5a1.5 1.5 0 11-3.001-.001 1.5 1.5 0 013.001.001zM595 409.5a1.5 1.5 0 11-3.001-.001 1.5 1.5 0 013.001.001zM615 409.5a1.5 1.5 0 11-3.001-.001 1.5 1.5 0 013.001.001zM635 409.5a1.5 1.5 0 11-3.001-.001 1.5 1.5 0 013.001.001zM655 409.5a1.5 1.5 0 11-3.001-.001 1.5 1.5 0 013.001.001zM675 409.5a1.5 1.5 0 11-3.001-.001 1.5 1.5 0 013.001.001zM515 429.5a1.5 1.5 0 11-3.001-.001 1.5 1.5 0 013.001.001zM535 429.5a1.5 1.5 0 11-3.001-.001 1.5 1.5 0 013.001.001zM555 429.5a1.5 1.5 0 11-3.001-.001 1.5 1.5 0 013.001.001zM575 429.5a1.5 1.5 0 11-3.001-.001 1.5 1.5 0 013.001.001zM595 429.5a1.5 1.5 0 11-3.001-.001 1.5 1.5 0 013.001.001zM615 429.5a1.5 1.5 0 11-3.001-.001 1.5 1.5 0 013.001.001zM635 429.5a1.5 1.5 0 11-3.001-.001 1.5 1.5 0 013.001.001zM655 429.5a1.5 1.5 0 11-3.001-.001 1.5 1.5 0 013.001.001zM675 429.5a1.5 1.5 0 11-3.001-.001 1.5 1.5 0 013.001.001zM515 449.5a1.5 1.5 0 11-3.001-.001 1.5 1.5 0 013.001.001zM535 449.5a1.5 1.5 0 11-3.001-.001 1.5 1.5 0 013.001.001zM555 449.5a1.5 1.5 0 11-3.001-.001 1.5 1.5 0 013.001.001zM575 449.5a1.5 1.5 0 11-3.001-.001 1.5 1.5 0 013.001.001zM595 449.5a1.5 1.5 0 11-3.001-.001 1.5 1.5 0 013.001.001zM615 449.5a1.5 1.5 0 11-3.001-.001 1.5 1.5 0 013.001.001zM635 449.5a1.5 1.5 0 11-3.001-.001 1.5 1.5 0 013.001.001zM655 449.5a1.5 1.5 0 11-3.001-.001 1.5 1.5 0 013.001.001zM675 449.5a1.5 1.5 0 11-3.001-.001 1.5 1.5 0 013.001.001zM695 389.5a1.5 1.5 0 11-3.001-.001 1.5 1.5 0 013.001.001zM715 389.5a1.5 1.5 0 11-3.001-.001 1.5 1.5 0 013.001.001zM735 389.5a1.5 1.5 0 11-3.001-.001 1.5 1.5 0 013.001.001zM755 389.5a1.5 1.5 0 11-3.001-.001 1.5 1.5 0 013.001.001zM775 389.5a1.5 1.5 0 11-3.001-.001 1.5 1.5 0 013.001.001zM795 389.5a1.5 1.5 0 11-3.001-.001 1.5 1.5 0 013.001.001zM815 389.5a1.5 1.5 0 11-3.001-.001 1.5 1.5 0 013.001.001zM835 389.5a1.5 1.5 0 11-3.001-.001 1.5 1.5 0 013.001.001zM855 389.5a1.5 1.5 0 11-3.001-.001 1.5 1.5 0 013.001.001zM875 389.5a1.5 1.5 0 11-3.001-.001 1.5 1.5 0 013.001.001zM895 389.5a1.5 1.5 0 11-3.001-.001 1.5 1.5 0 013.001.001zM915 389.5a1.5 1.5 0 11-3.001-.001 1.5 1.5 0 013.001.001zM935 389.5a1.5 1.5 0 11-3.001-.001 1.5 1.5 0 013.001.001zM695 409.5a1.5 1.5 0 11-3.001-.001 1.5 1.5 0 013.001.001zM715 409.5a1.5 1.5 0 11-3.001-.001 1.5 1.5 0 013.001.001zM735 409.5a1.5 1.5 0 11-3.001-.001 1.5 1.5 0 013.001.001zM755 409.5a1.5 1.5 0 11-3.001-.001 1.5 1.5 0 013.001.001zM775 409.5a1.5 1.5 0 11-3.001-.001 1.5 1.5 0 013.001.001zM795 409.5a1.5 1.5 0 11-3.001-.001 1.5 1.5 0 013.001.001zM815 409.5a1.5 1.5 0 11-3.001-.001 1.5 1.5 0 013.001.001zM835 409.5a1.5 1.5 0 11-3.001-.001 1.5 1.5 0 013.001.001zM855 409.5a1.5 1.5 0 11-3.001-.001 1.5 1.5 0 013.001.001zM875 409.5a1.5 1.5 0 11-3.001-.001 1.5 1.5 0 013.001.001zM895 409.5a1.5 1.5 0 11-3.001-.001 1.5 1.5 0 013.001.001zM915 409.5a1.5 1.5 0 11-3.001-.001 1.5 1.5 0 013.001.001zM935 409.5a1.5 1.5 0 11-3.001-.001 1.5 1.5 0 013.001.001zM695 429.5a1.5 1.5 0 11-3.001-.001 1.5 1.5 0 013.001.001zM715 429.5a1.5 1.5 0 11-3.001-.001 1.5 1.5 0 013.001.001zM735 429.5a1.5 1.5 0 11-3.001-.001 1.5 1.5 0 013.001.001zM755 429.5a1.5 1.5 0 11-3.001-.001 1.5 1.5 0 013.001.001zM775 429.5a1.5 1.5 0 11-3.001-.001 1.5 1.5 0 013.001.001zM795 429.5a1.5 1.5 0 11-3.001-.001 1.5 1.5 0 013.001.001zM815 429.5a1.5 1.5 0 11-3.001-.001 1.5 1.5 0 013.001.001zM835 429.5a1.5 1.5 0 11-3.001-.001 1.5 1.5 0 013.001.001zM855 429.5a1.5 1.5 0 11-3.001-.001 1.5 1.5 0 013.001.001zM875 429.5a1.5 1.5 0 11-3.001-.001 1.5 1.5 0 013.001.001zM895 429.5a1.5 1.5 0 11-3.001-.001 1.5 1.5 0 013.001.001zM915 429.5a1.5 1.5 0 11-3.001-.001 1.5 1.5 0 013.001.001zM935 429.5a1.5 1.5 0 11-3.001-.001 1.5 1.5 0 013.001.001zM695 449.5a1.5 1.5 0 11-3.001-.001 1.5 1.5 0 013.001.001zM715 449.5a1.5 1.5 0 11-3.001-.001 1.5 1.5 0 013.001.001zM735 449.5a1.5 1.5 0 11-3.001-.001 1.5 1.5 0 013.001.001zM755 449.5a1.5 1.5 0 11-3.001-.001 1.5 1.5 0 013.001.001zM775 449.5a1.5 1.5 0 11-3.001-.001 1.5 1.5 0 013.001.001zM795 449.5a1.5 1.5 0 11-3.001-.001 1.5 1.5 0 013.001.001zM815 449.5a1.5 1.5 0 11-3.001-.001 1.5 1.5 0 013.001.001zM835 449.5a1.5 1.5 0 11-3.001-.001 1.5 1.5 0 013.001.001zM855 449.5a1.5 1.5 0 11-3.001-.001 1.5 1.5 0 013.001.001zM875 449.5a1.5 1.5 0 11-3.001-.001 1.5 1.5 0 013.001.001zM895 449.5a1.5 1.5 0 11-3.001-.001 1.5 1.5 0 013.001.001zM915 449.5a1.5 1.5 0 11-3.001-.001 1.5 1.5 0 013.001.001zM935 449.5a1.5 1.5 0 11-3.001-.001 1.5 1.5 0 013.001.001z"/></g></svg>