<svg width="30" height="35" viewBox="0 0 30 35" fill="none" xmlns="http://www.w3.org/2000/svg">
<path d="M28.2227 22.7825C29.2188 23.845 29.75 24.9739 29.75 26.1692C29.75 27.3645 29.2852 28.427 28.4219 29.2903C27.5586 30.1536 26.4961 30.552 25.3008 30.552H19.125C19.125 31.7473 18.6602 32.8098 17.8633 33.6067C17.0664 34.4036 16.0703 34.802 14.875 34.802C13.6797 34.802 12.6172 34.4036 11.8203 33.6067C11.0234 32.8098 10.625 31.7473 10.625 30.552H4.44922C3.1875 30.552 2.125 30.1536 1.26172 29.2903C0.398438 28.427 0 27.3645 0 26.1692C0 24.9739 0.464844 23.845 1.52734 22.7825C1.99219 22.3176 2.32422 21.9192 2.58984 21.5208C2.98828 20.9231 3.25391 20.1926 3.45312 19.2629C3.65234 18.2004 3.78516 16.8059 3.78516 15.0793C3.78516 13.2864 4.18359 11.6262 4.98047 10.0325C5.77734 8.43872 6.90625 7.177 8.36719 6.1145C9.76172 5.052 11.3555 4.38794 13.1484 4.12231C12.8828 3.79028 12.75 3.39185 12.75 2.927C12.75 2.39575 12.9492 1.8645 13.3477 1.46606C13.7461 1.06763 14.2773 0.802002 14.875 0.802002C15.4062 0.802002 15.9375 1.06763 16.3359 1.46606C16.7344 1.8645 17 2.39575 17 2.927C17 3.39185 16.8672 3.79028 16.6016 4.12231C18.3281 4.38794 19.9219 5.052 21.3828 6.1145C22.7773 7.177 23.9062 8.43872 24.7031 10.0325C25.5 11.6262 25.9648 13.2864 25.9648 15.0793C25.9648 16.8059 26.0312 18.2004 26.2969 19.2629C26.4297 20.1926 26.7617 20.9231 27.1602 21.5208C27.3594 21.9192 27.6914 22.3176 28.2227 22.7825ZM14.875 32.1458C15.2734 32.1458 15.6719 32.0129 16.0039 31.6809C16.2695 31.4153 16.4688 31.0168 16.4688 30.552H13.2812C13.2812 31.0168 13.4141 31.4153 13.7461 31.6809C14.0117 32.0129 14.4102 32.1458 14.875 32.1458ZM25.3008 27.3645C25.832 27.3645 26.2305 27.1653 26.4297 26.634C26.6289 26.1028 26.5625 25.6379 26.1641 25.2395C25.3672 24.4426 24.8359 23.7786 24.4375 23.1809C23.9062 22.384 23.5078 21.3879 23.2422 20.1926C22.9102 18.8645 22.7773 17.1379 22.7773 15.0793C22.7773 13.6848 22.3789 12.3567 21.7148 11.1614C20.9844 9.96606 19.9883 8.96997 18.793 8.2395C17.5977 7.57544 16.2695 7.177 14.875 7.177C13.4141 7.177 12.0859 7.57544 10.8906 8.2395C9.69531 8.96997 8.69922 9.96606 8.03516 11.1614C7.30469 12.3567 6.97266 13.6848 6.97266 15.0793C6.97266 17.1379 6.77344 18.7981 6.50781 20.1262C6.24219 21.3215 5.84375 22.384 5.3125 23.1809C4.91406 23.7786 4.31641 24.4426 3.58594 25.2395C3.1875 25.6379 3.05469 26.1028 3.25391 26.634C3.45312 27.1653 3.85156 27.3645 4.44922 27.3645H25.3008Z" fill="#E9EBF0"/>
</svg>
