<svg width="24" height="16" viewBox="0 0 24 16" fill="none" xmlns="http://www.w3.org/2000/svg">
<path d="M23.3418 11.1406C23.7129 10.8066 23.7129 10.25 23.3418 9.87891L22.9336 9.4707C22.5996 9.13672 22.0059 9.13672 21.6719 9.50781L20.1875 11.1035V2.82812C20.1875 2.3457 19.7793 1.9375 19.2969 1.9375H10.2422C9.46289 1.9375 9.05469 2.90234 9.61133 3.45898L10.2051 4.05273C10.3535 4.20117 10.6133 4.3125 10.8359 4.3125H17.8125V11.1035L16.291 9.50781C15.957 9.13672 15.3633 9.13672 15.0293 9.4707L14.6211 9.87891C14.25 10.25 14.25 10.8066 14.6211 11.1406L18.3691 14.8887C18.7031 15.2227 19.2598 15.2227 19.5938 14.8887L23.3418 11.1406ZM13.5078 11.7344C13.3594 11.5859 13.0996 11.4375 12.877 11.4375H5.9375V4.68359L7.42188 6.2793C7.75586 6.65039 8.34961 6.65039 8.68359 6.31641L9.0918 5.9082C9.46289 5.53711 9.46289 4.98047 9.0918 4.64648L5.34375 0.898438C5.00977 0.564453 4.45312 0.564453 4.11914 0.898438L0.371094 4.64648C0 4.98047 0 5.53711 0.371094 5.9082L0.779297 6.31641C1.11328 6.65039 1.70703 6.65039 2.04102 6.2793L3.5625 4.68359V12.9219C3.5625 13.4414 3.93359 13.8125 4.45312 13.8125H13.4707C14.25 13.8125 14.6582 12.8848 14.1016 12.3281L13.5078 11.7344Z" fill="#ef4136"/>
</svg>
