<svg width="49" height="58" xmlns="http://www.w3.org/2000/svg" viewBox="0 0 49.01 58.5"><defs><style>.cls-1,.cls-2{fill:none;stroke:#e98279;stroke-linecap:round;stroke-linejoin:round}.cls-1{stroke-width:2.5px}.cls-2{stroke-width:1.5px}</style></defs><g id="Шар_2" data-name="Шар 2"><g id="main"><g id="logo"><circle class="cls-1" cx="24.63" cy="18.17" r="5.98"/><path class="cls-1" d="M29.57 28.83h-.01M33.74 29.15c8.25.85 14 2.81 14 5.09 0 1.16-1.5 2.24-4.06 3.14a48 48 0 01-10.62 2c-2.62.24-5.47.38-8.45.38s-5.93-.14-8.58-.4a45.28 45.28 0 01-10.75-2.09c-2.39-.87-3.78-1.92-3.78-3 0-2.28 5.77-4.24 14-5.09"/><path class="cls-2" d="M33.06 34.17c5.37.62 9.37 1.79 10.64 3.21M5.28 37.27c1.39-1.39 5.43-2.54 10.8-3.13"/><path class="cls-1" d="M22.28 27.46a8.51 8.51 0 00-2.68 1.37 9.69 9.69 0 00-3.48 5.3 10.06 10.06 0 00-.32 2M26.84 27.45a8.42 8.42 0 012.72 1.38 10 10 0 013.8 7.31M30.25 20.2C40.74 11.72 37.07 1 24.67 1.25c-12.44 0-16.54 10.47-6.05 19M27.31 1.39c-6.52 1.13-8.31 7.83-2.68 10.8M26.84 27.45v-3.48M22.28 27.47v-3.53M42.26 26.28c-4.33-5.3 5.5-6.14.86-12.27M41.31 11.54l-.01-.01M5 26.28C.71 21 10.54 20.14 5.9 14M4.09 11.54l-.01-.01M1.5 39a7.94 7.94 0 003.43 1.9 22.58 22.58 0 002.24.65 56.86 56.86 0 008.73 1.36c2.7.25 5.65.38 8.73.38s5.94-.13 8.6-.36h.14a59.77 59.77 0 008.35-1.27A23.77 23.77 0 0044 41a8.43 8.43 0 003.72-2M47.76 34.24v20.74"/><path stroke-width="3" fill="none" stroke="#e98279" stroke-linecap="round" stroke-linejoin="round" d="M1.5 34.24v20.74"/><path class="cls-1" d="M7.18 41.59v14.03M41.72 41.68v13.94M15.9 42.94V56.6M33.37 42.94V56.6M24.63 43.32v13.93"/></g></g></g></svg>
