<svg width="108" height="86" viewBox="0 0 108 86" fill="none" xmlns="http://www.w3.org/2000/svg">
<path d="M-1.50367e-05 86L-1.2467e-05 71.3031C5.89898 69.7721 10.3838 67.6288 13.4545 64.8732C16.6061 62.1175 19.1111 58.6346 20.9697 54.4246C22.8283 50.138 23.7576 44.9328 23.7576 38.8091C16.0808 38.8091 10.4242 36.7423 6.78787 32.6088C3.15151 28.4753 1.33333 24.0739 1.33333 19.4045C1.33333 13.9697 3.35353 9.37695 7.39394 5.62618C11.4343 1.87539 16.1616 2.82579e-06 21.5758 3.77243e-06C28.5253 4.98751e-06 34.5051 2.8705 39.5152 8.6115C44.6061 14.2759 47.1515 22.0454 47.1515 31.9199C47.1515 40.6462 45.1717 48.8367 41.2121 56.4913C37.2525 64.0694 31.8384 70.5759 24.9697 76.0107C18.1818 81.3689 9.85857 84.6987 -1.50367e-05 86ZM60.7273 86L60.7273 71.3031C66.6262 69.7721 71.1515 67.6288 74.303 64.8732C77.4545 62.1175 79.9596 58.6346 81.8182 54.4246C83.6768 50.138 84.6061 44.9328 84.6061 38.8091C76.9293 38.8091 71.2323 36.7423 67.5152 32.6088C63.8788 28.4753 62.0606 24.0739 62.0606 19.4046C62.0606 13.9697 64.0808 9.37696 68.1212 5.62619C72.1616 1.8754 76.8485 1.34366e-05 82.1818 1.43691e-05C89.2929 1.56125e-05 95.3535 2.87051 100.364 8.61151C105.455 14.2759 108 22.0454 108 31.9199C108 40.6462 105.98 48.8367 101.939 56.4913C97.9798 64.0694 92.5657 70.5759 85.697 76.0107C78.9091 81.3689 70.5858 84.6987 60.7273 86Z" fill="#EBF9FE"/>
</svg>
