<svg width="107" height="122" xmlns="http://www.w3.org/2000/svg"><path d="M106.977 32.027V89.92c-1.619 1.465-3.083 3.315-4.933 4.394-6.861 4.163-13.876 8.094-20.814 12.103-8.403 4.856-16.729 9.79-25.054 14.647h-4.009C36.518 111.967 20.87 102.87 5.143 93.929 2.137 92.233.903 89.92.981 86.605c.077-17.19.077-34.381 0-51.572 0-3.16 1.156-5.396 3.931-7.015C19.944 19.46 34.977 10.75 49.932 2.039 52.784.42 55.328.42 58.18 2.04 72.827 10.596 87.628 19 102.275 27.633c1.85 1.079 3.16 2.929 4.702 4.394zm-65.68 62.827c-.153-.077-.385-.077-.539-.155.848-.77 1.542-1.85 2.467-2.158 1.388-.463 1.619-1.233 1.542-2.39a16.68 16.68 0 0 1 0-2.775c.231-1.927-.54-2.852-2.544-2.621-.771.077-1.542 0-2.236.077-6.706.54-10.56 3.932-11.717 10.253-.077.308-.463.54-.617.848-.231-.077-.54-.154-.77-.231.462-2.159 1.001-4.317 1.541-6.553-4.78-2.62-9.636-2.775-14.647-.77-.694.308-1.773 1.078-1.696 1.541.077.694.848 1.542 1.542 1.927 12.797 7.478 25.67 14.801 38.467 22.279 1.388.848 2.467.848 3.855 0 10.87-6.322 21.739-12.566 32.608-18.887 2.236-1.31 4.548-2.544 6.707-3.931 1.464-.926 1.619-2.159 0-2.776-5.628-2.235-11.255-2.158-16.806.386 1.08 2.004 1.928 3.777 3.007 5.704-.771 0-1.002.077-1.156 0-.232-.154-.386-.308-.463-.54-1.927-4.316-5.165-6.629-9.944-6.706-.386 0-.925-.154-1.08-.462-1.541-2.776-4.085-3.855-7.246-4.086V77.2c0-1.233-.308-2.158-1.773-2.081-3.854.077-7.709 0-11.563.077-.617 0-1.465.54-1.696 1.002-1.002 2.467-.463 14.724.54 16.883-1.85.616-3.855 1.233-5.782 1.773zM53.94 72.19c4.471 0 8.866-.077 13.337 0 2.312.077 3.16-.848 3.006-3.084-.308-7.709-1.08-15.34-3.469-22.741-2.235-7.092-5.473-13.645-10.792-19.04-1.542-1.543-2.775-1.62-4.163.076-1.156 1.388-2.544 2.698-3.546 4.24-8.017 11.486-10.33 24.745-10.484 38.544 0 1.773 1.156 2.005 2.544 2.005H53.94zm-22.818 0c1.156 0 2.39.23 3.47-.077.77-.232 1.772-1.08 1.85-1.696.462-4.472.77-8.943 1.079-13.49.077-.618-.155-1.543-.54-1.774-.54-.231-1.465-.154-2.004.154-4.086 2.544-7.17 5.936-8.634 10.638-1.696 5.55-1.234 6.168 4.47 6.168.078.077.232.077.31.077zm45.868 0h2.235c3.084 0 3.546-.463 3.084-3.546-.848-6.09-4.471-10.33-9.482-13.49-1.542-.926-2.467-.232-2.313 1.695.309 3.392.54 6.86.925 10.253.463 5.088.463 5.088 5.55 5.088zM47.1 43.4c0-3.3 2.5-5.8 5.7-5.8s5.7 2.7 5.7 5.9c0 3.3-2.5 5.7-5.8 5.7-3.3-.1-5.6-2.5-5.6-5.8zm9.1 52.8c-2.3.6-4.3 1.1-5.6 1.5.6-4.3 1.3-9.2 2.1-14.7 2.5 4.5-1.9 10.2 3.5 13.2z" fill="#FFF" fill-rule="evenodd"/></svg>