<svg xmlns="http://www.w3.org/2000/svg" xmlns:xlink="http://www.w3.org/1999/xlink" width="100" height="100" viewBox="0 0 100 100"><g><g transform="translate(50 50) scale(0.69 0.69) rotate(0) translate(-50 -50)" style="fill:#ef4136;"><svg fill="#ef4136" xmlns="http://www.w3.org/2000/svg" xmlns:xlink="http://www.w3.org/1999/xlink" version="1.1" x="0px" y="0px" viewBox="0 0 32 32" enable-background="new 0 0 32 32" xml:space="preserve"><g><g><rect x="15.3" y="7.7" fill="#ef4136" width="1.5" height="16.7"></rect></g><g><polygon fill="#ef4136" points="28.2,24.3 26.7,24.3 26.7,16.8 5.3,16.8 5.3,24.3 3.8,24.3 3.8,15.3 28.2,15.3   "></polygon></g><g><path fill="#ef4136" d="M16,8.4c-2.1,0-3.8-1.7-3.8-3.8c0-2.1,1.7-3.8,3.8-3.8s3.8,1.7,3.8,3.8C19.8,6.7,18.1,8.4,16,8.4z M16,2.3    c-1.3,0-2.3,1-2.3,2.3c0,1.3,1,2.3,2.3,2.3s2.3-1,2.3-2.3C18.3,3.3,17.3,2.3,16,2.3z"></path></g><g><path fill="#ef4136" d="M4.6,31.3c-2.1,0-3.8-1.7-3.8-3.8c0-2.1,1.7-3.8,3.8-3.8c2.1,0,3.8,1.7,3.8,3.8    C8.4,29.5,6.7,31.3,4.6,31.3z M4.6,25.1c-1.3,0-2.3,1-2.3,2.3s1,2.3,2.3,2.3c1.3,0,2.3-1,2.3-2.3S5.9,25.1,4.6,25.1z"></path></g><g><path fill="#ef4136" d="M16,31.3c-2.1,0-3.8-1.7-3.8-3.8c0-2.1,1.7-3.8,3.8-3.8s3.8,1.7,3.8,3.8C19.8,29.5,18.1,31.3,16,31.3z     M16,25.1c-1.3,0-2.3,1-2.3,2.3s1,2.3,2.3,2.3s2.3-1,2.3-2.3S17.3,25.1,16,25.1z"></path></g><g><path fill="#ef4136" d="M27.4,31.3c-2.1,0-3.8-1.7-3.8-3.8c0-2.1,1.7-3.8,3.8-3.8s3.8,1.7,3.8,3.8C31.3,29.5,29.5,31.3,27.4,31.3z     M27.4,25.1c-1.3,0-2.3,1-2.3,2.3s1,2.3,2.3,2.3s2.3-1,2.3-2.3S28.7,25.1,27.4,25.1z"></path></g></g></svg></g></g></svg>