<svg fill="none" height="625" viewBox="0 0 390 625" width="390" xmlns="http://www.w3.org/2000/svg" xmlns:xlink="http://www.w3.org/1999/xlink"><linearGradient id="a" gradientUnits="userSpaceOnUse" x1="498.461" x2="866.527" y1="551.843" y2="88.7587"><stop offset="0" stop-color="#fbb040"/><stop offset="1" stop-color="#6284f9"/></linearGradient><linearGradient id="b" gradientUnits="userSpaceOnUse" x1="858.201" x2="-135.112" y1="643.121" y2="13.5753"><stop offset="0" stop-color="#fbb040" stop-opacity="0"/><stop offset=".471595" stop-color="#f928c6" stop-opacity=".54"/><stop offset="1" stop-color="#ff7e5b"/></linearGradient><clipPath id="c"><path d="m0 0h1203.03v660h-1203.03z" transform="matrix(-1 0 0 -1 1032.03 625)"/></clipPath><g clip-path="url(#c)"><path d="m1032.03-34.9999h-1203.03v234.8629c0 35.415 8.935 70.258 25.976 101.304l95.7522 174.435c25.4589 46.379 72.4548 76.925 125.1762 81.361l720.3826 60.603c53.247 4.48 105.148-18.276 137.929-60.476l75.684-97.424c14.34-18.468 22.13-41.189 22.13-64.575z" fill="url(#a)"/><path d="m1032.03-34.748h-1203.03v234.863c0 35.415 8.935 70.258 25.976 101.304l95.7522 174.435c25.4589 46.379 72.4548 76.925 125.1762 81.361l720.3826 60.603c53.247 4.48 105.148-18.276 137.929-60.476l75.684-97.424c14.34-18.468 22.13-41.189 22.13-64.575z" fill="url(#b)"/></g></svg>