<svg width="49" height="49" viewBox="0 0 49 49" version="1.1" xmlns="http://www.w3.org/2000/svg" xmlns:xlink="http://www.w3.org/1999/xlink">
<g id="Canvas" fill="none">
<g id="Group 2">
<g id="Oval" filter="url(#filter0_d)">
<path fill-rule="evenodd" clip-rule="evenodd" d="M 20.5 41C 31.8218 41 41 31.8218 41 20.5C 41 9.17816 31.8218 0 20.5 0C 9.17816 0 0 9.17816 0 20.5C 0 31.8218 9.17816 41 20.5 41Z" transform="translate(4 4)" fill="white"/>
</g>
<g id="Fill 34">
<path fill-rule="evenodd" clip-rule="evenodd" d="M 0.0719295 4.37153C 2.58762 6.8516 5.10359 9.33168 7.61928 11.8117C 8.10605 12.2919 9.65763 11.7549 10.0275 11.3006C 13.152 7.46233 16.6385 3.55776 20.7386 0.719369C 21.1944 0.404051 21.0041 0.131732 20.5512 0.0298109C 19.9896 -0.0965284 19.1679 0.20021 18.7124 0.515527C 14.4814 3.44416 10.8716 7.44163 7.64836 11.4014C 8.45093 11.231 9.25378 11.0606 10.0564 10.8902C 7.54066 8.40988 5.02497 5.9298 2.50928 3.44973C 1.97808 2.92606 -0.445263 3.8614 0.0719295 4.37153" transform="translate(15 19)" fill="#6ACA4F"/>
</g>
</g>
</g>
<defs>
<filter id="filter0_d" x="0" y="0" width="49" height="49" filterUnits="userSpaceOnUse" color-interpolation-filters="sRGB">
<feFlood flood-opacity="0" result="BackgroundImageFix"/>
<feColorMatrix in="SourceAlpha" type="matrix" values="0 0 0 0 0 0 0 0 0 0 0 0 0 0 0 0 0 0 255 0"/>
<feOffset/>
<feGaussianBlur stdDeviation="2"/>
<feColorMatrix type="matrix" values="0 0 0 0 0 0 0 0 0 0 0 0 0 0 0 0 0 0 0.118886 0"/>
<feBlend mode="normal" in2="BackgroundImageFix" result="effect1_dropShadow"/>
<feBlend mode="normal" in="SourceGraphic" in2="effect1_dropShadow" result="shape"/>
</filter>

</defs>
</svg>

