<svg xmlns="http://www.w3.org/2000/svg" width="18" height="18" viewBox="0 0 18 18">
  <g fill="none" fill-rule="evenodd">
    <circle cx="9" cy="9" r="9" fill="#1D1C39"/>
    <g transform="translate(7 4.5)">
      <path fill="#FFF" d="M2.78374342,3.18919737 C3.27321711,3.18919737 3.553875,2.92255263 3.553875,2.45735526 C3.553875,2.01959211 3.25209868,1.72531579 2.80288816,1.72531579 L1.69249342,1.72531579 L1.69249342,0.903276316 C1.69249342,0.310381579 1.26676974,-7.89473684e-05 0.846375,-7.89473684e-05 C0.425782895,-7.89473684e-05 5.92105263e-05,0.310381579 5.92105263e-05,0.903276316 L5.92105263e-05,6.57386842 C5.92105263e-05,7.93669737 0.543019737,8.54439474 1.76098026,8.54439474 C2.42098026,8.54439474 2.79834868,8.37485526 3.07880921,8.20985526 C3.29334868,8.09064474 3.36953289,7.83781579 3.36953289,7.64103947 C3.36953289,7.27630263 3.12578289,6.87011842 2.77565132,6.87011842 C2.72729605,6.87011842 2.67834868,6.87821053 2.62565132,6.89597368 C2.60709868,6.90347368 2.58657237,6.91275 2.563875,6.92321053 C2.47170395,6.96564474 2.34558553,7.02347368 2.16124342,7.02347368 C1.94295395,7.02347368 1.69249342,6.9465 1.69249342,6.34531579 L1.69249342,3.18919737 L2.78374342,3.18919737 Z"/>
      <path fill="#FF22B1" d="M5.8335,5.57861842 C5.01501316,5.57861842 4.34909211,6.24453947 4.34909211,7.06302632 C4.34909211,7.88171053 5.01501316,8.54763158 5.8335,8.54763158 C6.65198684,8.54763158 7.31790789,7.88171053 7.31790789,7.06302632 C7.31790789,6.24453947 6.65198684,5.57861842 5.8335,5.57861842"/>
    </g>
  </g>
</svg>
