<svg width="104" height="145" xmlns="http://www.w3.org/2000/svg"><g fill="none" fill-rule="evenodd"><path d="M51.5 145c-2.081 0-4.163-.63-5.94-1.893L5.28 114.505A10.14 10.14 0 0 1 1 106.237V24.16C1 18.55 5.575 14 11.22 14h80.56C97.424 14 102 18.55 102 24.16v82.077a10.14 10.14 0 0 1-4.28 8.268l-40.28 28.602A10.247 10.247 0 0 1 51.5 145" fill="#E2F2F8"/><path d="M98.677 101.505L58 130.108a10.454 10.454 0 0 1-11.997 0l-40.68-28.603C2.61 99.598 1 96.52 1 93.238V11.159C1 5.55 5.62 1 11.322 1h81.356C98.378 1 103 5.548 103 11.16v82.078c0 3.281-1.61 6.36-4.323 8.267" fill="#3FA8CC"/><path d="M11.276 1.857c-5.177 0-9.39 4.145-9.39 9.242v82.168c0 2.978 1.47 5.79 3.933 7.522l40.724 28.633a9.513 9.513 0 0 0 10.915 0l40.723-28.633c2.464-1.732 3.933-4.544 3.933-7.522V11.1c0-5.097-4.212-9.242-9.39-9.242H11.276zM52 133c-2.297 0-4.593-.689-6.554-2.067L4.723 102.3C1.765 100.22 0 96.844 0 93.267V11.1C0 4.979 5.059 0 11.276 0h81.448C98.94 0 104 4.98 104 11.099v82.168c0 3.577-1.765 6.954-4.722 9.033l-40.724 28.634A11.386 11.386 0 0 1 52 133z" fill="#2B4D8F"/><g fill="#FFF"><path d="M51.5 84C37.99 84 27 73.01 27 59.5S37.99 35 51.5 35c4.67 0 9.213 1.32 13.136 3.815a.927.927 0 1 1-.996 1.564 22.574 22.574 0 0 0-12.14-3.525c-12.487 0-22.646 10.159-22.646 22.646S39.013 82.146 51.5 82.146c12.486 0 22.646-10.159 22.646-22.646 0-1.123-.084-2.253-.248-3.357a.927.927 0 0 1 1.834-.272c.178 1.194.268 2.414.268 3.63C76 73.01 65.009 84 51.5 84"/><path d="M51.57 68a.914.914 0 0 1-.644-.264l-13.66-13.5a.895.895 0 0 1 0-1.276.919.919 0 0 1 1.29 0l13.015 12.863 26.871-26.559a.919.919 0 0 1 1.29 0 .893.893 0 0 1 0 1.276L52.216 67.736a.917.917 0 0 1-.645.264"/></g></g></svg>