<svg width="18" height="16" viewBox="0 0 18 16" fill="none" xmlns="http://www.w3.org/2000/svg">
<path fill-rule="evenodd" clip-rule="evenodd" d="M3 1C3 0.447716 3.44772 0 4 0H17C17.5523 0 18 0.447716 18 1C18 1.55228 17.5523 2 17 2H4C3.44772 2 3 1.55228 3 1ZM7 15C7 14.4477 7.44772 14 8 14H17C17.5523 14 18 14.4477 18 15C18 15.5523 17.5523 16 17 16H8C7.44772 16 7 15.5523 7 15ZM1 7C0.447723 7 0 7.44772 0 8C0 8.55228 0.447723 9 1 9H17C17.5523 9 18 8.55228 18 8C18 7.44772 17.5523 7 17 7H1Z" fill="white"/>
</svg>
