<svg fill="none" height="60" viewBox="0 0 57 60" width="57" xmlns="http://www.w3.org/2000/svg" xmlns:xlink="http://www.w3.org/1999/xlink"><filter id="a" color-interpolation-filters="sRGB" filterUnits="userSpaceOnUse" height="60" width="57" x="0" y="0"><feFlood flood-opacity="0" result="BackgroundImageFix"/><feColorMatrix in="SourceAlpha" type="matrix" values="0 0 0 0 0 0 0 0 0 0 0 0 0 0 0 0 0 0 127 0"/><feOffset dy="5"/><feGaussianBlur stdDeviation="7.5"/><feColorMatrix type="matrix" values="0 0 0 0 0 0 0 0 0 0 0 0 0 0 0 0 0 0 0.25 0"/><feBlend in2="BackgroundImageFix" mode="normal" result="effect1_dropShadow"/><feBlend in="SourceGraphic" in2="effect1_dropShadow" mode="normal" result="shape"/></filter><g filter="url(#a)"><path d="m39.5298 29.028-17.8253 10.367c-.0574.0334-.1152.0653-.1734.0958-.6177.3253-1.3204.5092-2.0657.5092-2.4662 0-4.4654-2.0139-4.4654-4.4982v-20.9916c0-.8725.2466-1.6869.6734-2.3765 1.2635-2.0615 3.9341-2.74982 6.031-1.5303l17.8247 10.3666c.7578.3804 1.4168.9817 1.8719 1.7757.41.7154.6028 1.4971.5989 2.2676-.0009.7614-.1939 1.5328-.599 2.2394-.4548.7937-1.1136 1.3949-1.8711 1.7753z" fill="#8e23fc"/></g></svg>