<svg xmlns="http://www.w3.org/2000/svg" xmlns:xlink="http://www.w3.org/1999/xlink" width="100" height="100" viewBox="0 0 100 100"><g><g transform="translate(50 50) scale(0.69 0.69) rotate(0) translate(-50 -50)" style="fill:#ef4136;"><svg fill="#ef4136" xmlns="http://www.w3.org/2000/svg" xmlns:xlink="http://www.w3.org/1999/xlink" version="1.1" x="0px" y="0px" viewBox="0 0 32 32" enable-background="new 0 0 32 32" xml:space="preserve"><g><g><path fill="#ef4136" d="M29.2,31.3H2.8V0.8h17.6l8.8,8.8V31.3z M4.3,29.8h23.4V10.2l-8-8H4.3V29.8z"></path></g><g><path fill="#ef4136" d="M28.5,10.7h-8.4c-0.4,0-0.8-0.3-0.8-0.8V1.5c0-0.3,0.2-0.6,0.5-0.7c0.3-0.1,0.6-0.1,0.8,0.2L29,9.4    c0.2,0.2,0.3,0.5,0.2,0.8C29,10.5,28.8,10.7,28.5,10.7z M20.8,9.2h5.8l-5.8-5.8V9.2z"></path></g><g><rect x="9" y="6.8" fill="#ef4136" width="5.7" height="1.5"></rect></g><g><rect x="9" y="11" fill="#ef4136" width="5.7" height="1.5"></rect></g><g><rect x="9" y="15.3" fill="#ef4136" width="14" height="1.5"></rect></g><g><rect x="9" y="19.5" fill="#ef4136" width="14" height="1.5"></rect></g><g><rect x="9" y="23.7" fill="#ef4136" width="14" height="1.5"></rect></g></g></svg></g></g></svg>