<svg xmlns="http://www.w3.org/2000/svg" viewBox="0 0 852 204"><path d="M272.1 139.5a33 33 0 0 1-29.5 15.4 31.1 31.1 0 0 1-26.4-12.6 54.1 54.1 0 0 1-9.5-33.7v-1.8c0-15 3.2-27 9.5-36.1 6.4-9 15.2-13.5 26.6-13.5 6.6 0 12.2 1.4 17.1 4.1 4.8 2.8 8.8 6.7 12 11.8V26.2L257.7 25v-7.7h24.6v127l14.2 1.1v7.7H273l-.9-13.6zm-54.9-30.9c0 11.4 2.3 20.4 6.8 27.2a23.3 23.3 0 0 0 20.6 10.1c6.7 0 12.3-1.5 16.8-4.5s8-7.2 10.5-12.4V84.3a32.8 32.8 0 0 0-10.1-13.1 27 27 0 0 0-17-5c-9.2 0-16.1 3.8-20.7 11.3a55.5 55.5 0 0 0-6.9 29.3v1.8zm160.3 44.5a54.8 54.8 0 0 1-1.9-15.3c-3.5 4.9-8.1 9-13.9 12.3a39.9 39.9 0 0 1-19.6 4.9c-9.2 0-16.4-2.4-21.4-7.1-5-4.8-7.6-11.2-7.6-19.3 0-8.7 3.7-15.6 11.2-20.7a53.4 53.4 0 0 1 30.5-7.7h20.8V87.6a20 20 0 0 0-6.5-15.8 26.5 26.5 0 0 0-18.1-5.7c-5.2 0-10 .7-14.3 2.1a32.7 32.7 0 0 0-10.8 5.8l-.9 12.6h-8.6l.1-18.1a58.9 58.9 0 0 1 35-11.3 38 38 0 0 1 25.1 7.9 28 28 0 0 1 9.5 22.7v46.3a97.3 97.3 0 0 0 .7 10.7l9.4.6v7.7h-18.7zm-34.3-7.4c7.5 0 14.2-1.7 19.9-5.2 5.7-3.5 9.9-8 12.4-13.5v-18.9h-21c-9.5 0-17 2-22.7 5.9-5.7 3.9-8.5 8.9-8.5 14.8 0 5 1.8 9.1 5.3 12.2 3.7 3.1 8.5 4.7 14.6 4.7zm64.9-79.1v-7.7H431l1.3 14.6c3.2-5.2 7.3-9.3 12.2-12.1a35 35 0 0 1 17.4-4.3c11.3 0 20.2 4.5 26.5 13.5a61 61 0 0 1 9.6 36.1v1.8c0 14.1-3.2 25.3-9.6 33.7a31.4 31.4 0 0 1-26.4 12.6c-6.6 0-12.4-1.3-17.4-3.8s-9-6.1-12.1-10.7v40l14.2 1.1v7.7H408v-7.7l14.2-1.1V67.8l-14.1-1.2zm79.5 40.2c0-12-2.4-21.7-7.1-29.2a23.3 23.3 0 0 0-20.9-11.3c-7 0-12.7 1.7-17.1 5a30.6 30.6 0 0 0-9.9 13v45.3c2.4 5.2 5.8 9.2 10.3 12.2 4.5 3 10.1 4.4 16.8 4.4 9.1 0 16-3.4 20.8-10.3a47 47 0 0 0 7.1-27.2v-1.9zm96.6 30.8c-3 5.5-7 9.8-12.1 12.8s-11.2 4.5-18.1 4.5c-9.9 0-17.7-3.4-23.3-10.1-5.6-6.7-8.4-17.2-8.4-31.3V67.8l-11.7-1.1V59h22.1v54.7c0 11.5 2 19.7 5.9 24.7a20 20 0 0 0 16.7 7.5c7.9 0 14.2-1.7 18.8-5.2 4.7-3.5 8-8.3 9.9-14.4V67.8l-13.4-1.1V59h23.8v85.4l12.6 1.1v7.7h-21.8l-1-15.6zM620.1 25v-7.7h24.5v127l14.2 1.1v7.7h-38.7v-7.7l14.2-1.1V26.2L620.1 25zm123.5 63h-8.5l-1.2-13.3a27.8 27.8 0 0 0-9.9-6.4c-4-1.5-8.5-2.3-13.7-2.3-7.6 0-13.3 1.6-17.1 4.9a14.8 14.8 0 0 0-5.7 11.5c0 4.4 1.6 8 4.9 10.8 3.3 2.8 9.8 5.3 19.6 7.5a65 65 0 0 1 25.2 10.2 21 21 0 0 1 8.4 17.6c0 7.8-3.2 14.2-9.5 19a41 41 0 0 1-25.2 7.3c-7 0-13.3-1-19-2.9a44.2 44.2 0 0 1-14.8-8.2v-19h8.4l1.5 13.4c2.8 2.8 6.3 4.8 10.6 6 4.3 1.2 8.7 1.9 13.4 1.9 7.5 0 13.5-1.7 17.8-5 4.4-3.3 6.5-7.3 6.5-12 0-4.4-1.8-8.3-5.4-11.6-3.6-3.3-10.2-6-19.6-8.1a65.7 65.7 0 0 1-24.9-9.7c-5.4-4-8.1-9.7-8.1-16.9 0-7.2 3-13.3 9.1-18.2 6.1-5 14.1-7.4 24.1-7.4 6.9 0 13.2 1.1 18.9 3.2 5.7 2.1 10.4 5 14 8.6l.2 19.1zm62.4 66.9a37.8 37.8 0 0 1-29.4-13 47.7 47.7 0 0 1-11.7-33.1V104c0-13.5 3.9-24.6 11.6-33.5a35.8 35.8 0 0 1 28.1-13.3c11.5 0 20.6 3.7 27.2 11a42 42 0 0 1 9.9 29.2v8.9h-66.5v2.5c0 10.6 2.8 19.4 8.5 26.6a27 27 0 0 0 22.2 10.7c6.4 0 12-.9 16.5-2.7 4.6-1.8 8.5-4.4 11.7-7.7l4.4 7.1c-3.5 3.7-8 6.7-13.4 8.8a48.8 48.8 0 0 1-19.1 3.3zM804.6 66a25 25 0 0 0-19.4 8.8 37.8 37.8 0 0 0-9.2 22.1l.2.4h55.2v-2.6a30 30 0 0 0-7.2-20.5 25 25 0 0 0-19.6-8.2zm-634 29.1a80.3 80.3 0 1 0-150.1 39.8c4.6-11.3 11.3-24.7 15.7-28 0 0 10.2-9.2 20.7-5.8 0 0 45.5 16.3 57.7 31.1 0 0 6.4 9.3 3.7 18.7-1.1 4-5.1 13.6-9.6 22.4a80.3 80.3 0 0 0 61.9-78.2zm-47.9 19.3l-2.1 1.2c-2.6.9-5.6.1-7.5-2.2-7.1-8.7-34.5-22.7-44.5-22.7-3.8 0-6.8-3-6.9-6.8 0-3.8 3-6.8 6.8-6.9 15.1-.1 46.3 16.7 55.2 27.7 2.4 3.1 2 7.4-1 9.7zm19.3-8c-18.5-22.8-64.2-42.9-87.2-42.8a6.1 6.1 0 1 1-.1-12.3c26.3-.1 75.4 21 96.8 47.3a6.2 6.2 0 0 1-.9 8.6c-.6.5-1.2.8-1.9 1.1-2.3.9-5 .2-6.7-1.9z" fill="#010101"/></svg>