<svg width="845" height="703" fill="none" xmlns="http://www.w3.org/2000/svg"><g opacity=".1" fill="#000"><path d="M23.5 201.5a1.5 1.5 0 11-3 0 1.5 1.5 0 013 0zM43.5 201.5a1.5 1.5 0 11-3 0 1.5 1.5 0 013 0zM23.5 221.5a1.5 1.5 0 11-3 0 1.5 1.5 0 013 0zM43.5 221.5a1.5 1.5 0 11-3 0 1.5 1.5 0 013 0zM23.5 241.5a1.5 1.5 0 11-3 0 1.5 1.5 0 013 0zM43.5 241.5a1.5 1.5 0 11-3 0 1.5 1.5 0 013 0zM23.5 261.5a1.5 1.5 0 11-3 0 1.5 1.5 0 013 0zM43.5 261.5a1.5 1.5 0 11-3 0 1.5 1.5 0 013 0zM23.5 281.5a1.5 1.5 0 11-3 0 1.5 1.5 0 013 0zM43.5 281.5a1.5 1.5 0 11-3 0 1.5 1.5 0 013 0zM23.5 301.5a1.5 1.5 0 11-3 0 1.5 1.5 0 013 0zM43.5 301.5a1.5 1.5 0 11-3 0 1.5 1.5 0 013 0zM23.5 321.5a1.5 1.5 0 11-3 0 1.5 1.5 0 013 0zM43.5 321.5a1.5 1.5 0 11-3 0 1.5 1.5 0 013 0zM23.5 341.5a1.5 1.5 0 11-3 0 1.5 1.5 0 013 0zM43.5 341.5a1.5 1.5 0 11-3 0 1.5 1.5 0 013 0zM23.5 361.5a1.5 1.5 0 11-3 0 1.5 1.5 0 013 0zM43.5 361.5a1.5 1.5 0 11-3 0 1.5 1.5 0 013 0zM23.5 381.5a1.5 1.5 0 11-3 0 1.5 1.5 0 013 0zM43.5 381.5a1.5 1.5 0 11-3 0 1.5 1.5 0 013 0zM23.5 401.5a1.5 1.5 0 11-3 0 1.5 1.5 0 013 0zM43.5 401.5a1.5 1.5 0 11-3 0 1.5 1.5 0 013 0zM23.5 421.5a1.5 1.5 0 11-3 0 1.5 1.5 0 013 0zM43.5 421.5a1.5 1.5 0 11-3 0 1.5 1.5 0 013 0zM63.5 201.5a1.5 1.5 0 11-3 0 1.5 1.5 0 013 0zM83.5 201.5a1.5 1.5 0 11-3 0 1.5 1.5 0 013 0zM103.5 201.5a1.5 1.5 0 11-3.001-.001 1.5 1.5 0 013.001.001zM123.5 201.5a1.5 1.5 0 11-3.001-.001 1.5 1.5 0 013.001.001zM143.5 201.5a1.5 1.5 0 11-3.001-.001 1.5 1.5 0 013.001.001zM163.5 201.5a1.5 1.5 0 11-3.001-.001 1.5 1.5 0 013.001.001zM183.5 201.5a1.5 1.5 0 11-3.001-.001 1.5 1.5 0 013.001.001zM203.5 201.5a1.5 1.5 0 11-3.001-.001 1.5 1.5 0 013.001.001zM223.5 201.5a1.5 1.5 0 11-3.001-.001 1.5 1.5 0 013.001.001zM243.5 201.5a1.5 1.5 0 11-3.001-.001 1.5 1.5 0 013.001.001zM263.5 201.5a1.5 1.5 0 11-3.001-.001 1.5 1.5 0 013.001.001zM283.5 201.5a1.5 1.5 0 11-3.001-.001 1.5 1.5 0 013.001.001zM303.5 201.5a1.5 1.5 0 11-3.001-.001 1.5 1.5 0 013.001.001zM323.5 201.5a1.5 1.5 0 11-3.001-.001 1.5 1.5 0 013.001.001zM343.5 201.5a1.5 1.5 0 11-3.001-.001 1.5 1.5 0 013.001.001zM63.5 221.5a1.5 1.5 0 11-3 0 1.5 1.5 0 013 0zM83.5 221.5a1.5 1.5 0 11-3 0 1.5 1.5 0 013 0zM103.5 221.5a1.5 1.5 0 11-3.001-.001 1.5 1.5 0 013.001.001zM123.5 221.5a1.5 1.5 0 11-3.001-.001 1.5 1.5 0 013.001.001zM143.5 221.5a1.5 1.5 0 11-3.001-.001 1.5 1.5 0 013.001.001zM163.5 221.5a1.5 1.5 0 11-3.001-.001 1.5 1.5 0 013.001.001zM183.5 221.5a1.5 1.5 0 11-3.001-.001 1.5 1.5 0 013.001.001zM203.5 221.5a1.5 1.5 0 11-3.001-.001 1.5 1.5 0 013.001.001zM223.5 221.5a1.5 1.5 0 11-3.001-.001 1.5 1.5 0 013.001.001zM243.5 221.5a1.5 1.5 0 11-3.001-.001 1.5 1.5 0 013.001.001zM263.5 221.5a1.5 1.5 0 11-3.001-.001 1.5 1.5 0 013.001.001zM283.5 221.5a1.5 1.5 0 11-3.001-.001 1.5 1.5 0 013.001.001zM303.5 221.5a1.5 1.5 0 11-3.001-.001 1.5 1.5 0 013.001.001zM323.5 221.5a1.5 1.5 0 11-3.001-.001 1.5 1.5 0 013.001.001zM343.5 221.5a1.5 1.5 0 11-3.001-.001 1.5 1.5 0 013.001.001zM63.5 241.5a1.5 1.5 0 11-3 0 1.5 1.5 0 013 0zM83.5 241.5a1.5 1.5 0 11-3 0 1.5 1.5 0 013 0zM103.5 241.5a1.5 1.5 0 11-3.001-.001 1.5 1.5 0 013.001.001zM123.5 241.5a1.5 1.5 0 11-3.001-.001 1.5 1.5 0 013.001.001zM143.5 241.5a1.5 1.5 0 11-3.001-.001 1.5 1.5 0 013.001.001zM163.5 241.5a1.5 1.5 0 11-3.001-.001 1.5 1.5 0 013.001.001zM183.5 241.5a1.5 1.5 0 11-3.001-.001 1.5 1.5 0 013.001.001zM203.5 241.5a1.5 1.5 0 11-3.001-.001 1.5 1.5 0 013.001.001zM223.5 241.5a1.5 1.5 0 11-3.001-.001 1.5 1.5 0 013.001.001zM243.5 241.5a1.5 1.5 0 11-3.001-.001 1.5 1.5 0 013.001.001zM263.5 241.5a1.5 1.5 0 11-3.001-.001 1.5 1.5 0 013.001.001zM283.5 241.5a1.5 1.5 0 11-3.001-.001 1.5 1.5 0 013.001.001zM303.5 241.5a1.5 1.5 0 11-3.001-.001 1.5 1.5 0 013.001.001zM323.5 241.5a1.5 1.5 0 11-3.001-.001 1.5 1.5 0 013.001.001zM343.5 241.5a1.5 1.5 0 11-3.001-.001 1.5 1.5 0 013.001.001zM63.5 261.5a1.5 1.5 0 11-3 0 1.5 1.5 0 013 0zM83.5 261.5a1.5 1.5 0 11-3 0 1.5 1.5 0 013 0zM103.5 261.5a1.5 1.5 0 11-3.001-.001 1.5 1.5 0 013.001.001zM123.5 261.5a1.5 1.5 0 11-3.001-.001 1.5 1.5 0 013.001.001zM143.5 261.5a1.5 1.5 0 11-3.001-.001 1.5 1.5 0 013.001.001zM163.5 261.5a1.5 1.5 0 11-3.001-.001 1.5 1.5 0 013.001.001zM183.5 261.5a1.5 1.5 0 11-3.001-.001 1.5 1.5 0 013.001.001zM203.5 261.5a1.5 1.5 0 11-3.001-.001 1.5 1.5 0 013.001.001zM223.5 261.5a1.5 1.5 0 11-3.001-.001 1.5 1.5 0 013.001.001zM243.5 261.5a1.5 1.5 0 11-3.001-.001 1.5 1.5 0 013.001.001zM263.5 261.5a1.5 1.5 0 11-3.001-.001 1.5 1.5 0 013.001.001zM283.5 261.5a1.5 1.5 0 11-3.001-.001 1.5 1.5 0 013.001.001zM303.5 261.5a1.5 1.5 0 11-3.001-.001 1.5 1.5 0 013.001.001zM323.5 261.5a1.5 1.5 0 11-3.001-.001 1.5 1.5 0 013.001.001zM343.5 261.5a1.5 1.5 0 11-3.001-.001 1.5 1.5 0 013.001.001zM63.5 281.5a1.5 1.5 0 11-3 0 1.5 1.5 0 013 0zM83.5 281.5a1.5 1.5 0 11-3 0 1.5 1.5 0 013 0zM103.5 281.5a1.5 1.5 0 11-3.001-.001 1.5 1.5 0 013.001.001zM123.5 281.5a1.5 1.5 0 11-3.001-.001 1.5 1.5 0 013.001.001zM143.5 281.5a1.5 1.5 0 11-3.001-.001 1.5 1.5 0 013.001.001zM163.5 281.5a1.5 1.5 0 11-3.001-.001 1.5 1.5 0 013.001.001zM183.5 281.5a1.5 1.5 0 11-3.001-.001 1.5 1.5 0 013.001.001zM203.5 281.5a1.5 1.5 0 11-3.001-.001 1.5 1.5 0 013.001.001zM223.5 281.5a1.5 1.5 0 11-3.001-.001 1.5 1.5 0 013.001.001zM243.5 281.5a1.5 1.5 0 11-3.001-.001 1.5 1.5 0 013.001.001zM263.5 281.5a1.5 1.5 0 11-3.001-.001 1.5 1.5 0 013.001.001zM283.5 281.5a1.5 1.5 0 11-3.001-.001 1.5 1.5 0 013.001.001zM303.5 281.5a1.5 1.5 0 11-3.001-.001 1.5 1.5 0 013.001.001zM323.5 281.5a1.5 1.5 0 11-3.001-.001 1.5 1.5 0 013.001.001zM343.5 281.5a1.5 1.5 0 11-3.001-.001 1.5 1.5 0 013.001.001zM63.5 301.5a1.5 1.5 0 11-3 0 1.5 1.5 0 013 0zM83.5 301.5a1.5 1.5 0 11-3 0 1.5 1.5 0 013 0zM103.5 301.5a1.5 1.5 0 11-3.001-.001 1.5 1.5 0 013.001.001zM123.5 301.5a1.5 1.5 0 11-3.001-.001 1.5 1.5 0 013.001.001zM143.5 301.5a1.5 1.5 0 11-3.001-.001 1.5 1.5 0 013.001.001zM163.5 301.5a1.5 1.5 0 11-3.001-.001 1.5 1.5 0 013.001.001zM183.5 301.5a1.5 1.5 0 11-3.001-.001 1.5 1.5 0 013.001.001zM203.5 301.5a1.5 1.5 0 11-3.001-.001 1.5 1.5 0 013.001.001zM223.5 301.5a1.5 1.5 0 11-3.001-.001 1.5 1.5 0 013.001.001zM243.5 301.5a1.5 1.5 0 11-3.001-.001 1.5 1.5 0 013.001.001zM263.5 301.5a1.5 1.5 0 11-3.001-.001 1.5 1.5 0 013.001.001zM283.5 301.5a1.5 1.5 0 11-3.001-.001 1.5 1.5 0 013.001.001zM303.5 301.5a1.5 1.5 0 11-3.001-.001 1.5 1.5 0 013.001.001zM323.5 301.5a1.5 1.5 0 11-3.001-.001 1.5 1.5 0 013.001.001zM343.5 301.5a1.5 1.5 0 11-3.001-.001 1.5 1.5 0 013.001.001zM63.5 321.5a1.5 1.5 0 11-3 0 1.5 1.5 0 013 0zM83.5 321.5a1.5 1.5 0 11-3 0 1.5 1.5 0 013 0zM103.5 321.5a1.5 1.5 0 11-3.001-.001 1.5 1.5 0 013.001.001zM123.5 321.5a1.5 1.5 0 11-3.001-.001 1.5 1.5 0 013.001.001zM143.5 321.5a1.5 1.5 0 11-3.001-.001 1.5 1.5 0 013.001.001zM163.5 321.5a1.5 1.5 0 11-3.001-.001 1.5 1.5 0 013.001.001zM183.5 321.5a1.5 1.5 0 11-3.001-.001 1.5 1.5 0 013.001.001zM203.5 321.5a1.5 1.5 0 11-3.001-.001 1.5 1.5 0 013.001.001zM223.5 321.5a1.5 1.5 0 11-3.001-.001 1.5 1.5 0 013.001.001zM243.5 321.5a1.5 1.5 0 11-3.001-.001 1.5 1.5 0 013.001.001zM263.5 321.5a1.5 1.5 0 11-3.001-.001 1.5 1.5 0 013.001.001zM283.5 321.5a1.5 1.5 0 11-3.001-.001 1.5 1.5 0 013.001.001zM303.5 321.5a1.5 1.5 0 11-3.001-.001 1.5 1.5 0 013.001.001zM323.5 321.5a1.5 1.5 0 11-3.001-.001 1.5 1.5 0 013.001.001zM343.5 321.5a1.5 1.5 0 11-3.001-.001 1.5 1.5 0 013.001.001zM63.5 341.5a1.5 1.5 0 11-3 0 1.5 1.5 0 013 0zM83.5 341.5a1.5 1.5 0 11-3 0 1.5 1.5 0 013 0zM103.5 341.5a1.5 1.5 0 11-3.001-.001 1.5 1.5 0 013.001.001zM123.5 341.5a1.5 1.5 0 11-3.001-.001 1.5 1.5 0 013.001.001zM143.5 341.5a1.5 1.5 0 11-3.001-.001 1.5 1.5 0 013.001.001zM163.5 341.5a1.5 1.5 0 11-3.001-.001 1.5 1.5 0 013.001.001zM183.5 341.5a1.5 1.5 0 11-3.001-.001 1.5 1.5 0 013.001.001zM203.5 341.5a1.5 1.5 0 11-3.001-.001 1.5 1.5 0 013.001.001zM223.5 341.5a1.5 1.5 0 11-3.001-.001 1.5 1.5 0 013.001.001zM243.5 341.5a1.5 1.5 0 11-3.001-.001 1.5 1.5 0 013.001.001zM263.5 341.5a1.5 1.5 0 11-3.001-.001 1.5 1.5 0 013.001.001zM283.5 341.5a1.5 1.5 0 11-3.001-.001 1.5 1.5 0 013.001.001zM303.5 341.5a1.5 1.5 0 11-3.001-.001 1.5 1.5 0 013.001.001zM323.5 341.5a1.5 1.5 0 11-3.001-.001 1.5 1.5 0 013.001.001zM343.5 341.5a1.5 1.5 0 11-3.001-.001 1.5 1.5 0 013.001.001zM63.5 361.5a1.5 1.5 0 11-3 0 1.5 1.5 0 013 0zM83.5 361.5a1.5 1.5 0 11-3 0 1.5 1.5 0 013 0zM103.5 361.5a1.5 1.5 0 11-3.001-.001 1.5 1.5 0 013.001.001zM123.5 361.5a1.5 1.5 0 11-3.001-.001 1.5 1.5 0 013.001.001zM143.5 361.5a1.5 1.5 0 11-3.001-.001 1.5 1.5 0 013.001.001zM163.5 361.5a1.5 1.5 0 11-3.001-.001 1.5 1.5 0 013.001.001zM183.5 361.5a1.5 1.5 0 11-3.001-.001 1.5 1.5 0 013.001.001zM203.5 361.5a1.5 1.5 0 11-3.001-.001 1.5 1.5 0 013.001.001zM223.5 361.5a1.5 1.5 0 11-3.001-.001 1.5 1.5 0 013.001.001zM243.5 361.5a1.5 1.5 0 11-3.001-.001 1.5 1.5 0 013.001.001zM263.5 361.5a1.5 1.5 0 11-3.001-.001 1.5 1.5 0 013.001.001zM283.5 361.5a1.5 1.5 0 11-3.001-.001 1.5 1.5 0 013.001.001zM303.5 361.5a1.5 1.5 0 11-3.001-.001 1.5 1.5 0 013.001.001zM323.5 361.5a1.5 1.5 0 11-3.001-.001 1.5 1.5 0 013.001.001zM343.5 361.5a1.5 1.5 0 11-3.001-.001 1.5 1.5 0 013.001.001zM63.5 381.5a1.5 1.5 0 11-3 0 1.5 1.5 0 013 0zM83.5 381.5a1.5 1.5 0 11-3 0 1.5 1.5 0 013 0zM103.5 381.5a1.5 1.5 0 11-3.001-.001 1.5 1.5 0 013.001.001zM123.5 381.5a1.5 1.5 0 11-3.001-.001 1.5 1.5 0 013.001.001zM143.5 381.5a1.5 1.5 0 11-3.001-.001 1.5 1.5 0 013.001.001zM163.5 381.5a1.5 1.5 0 11-3.001-.001 1.5 1.5 0 013.001.001zM183.5 381.5a1.5 1.5 0 11-3.001-.001 1.5 1.5 0 013.001.001zM203.5 381.5a1.5 1.5 0 11-3.001-.001 1.5 1.5 0 013.001.001zM223.5 381.5a1.5 1.5 0 11-3.001-.001 1.5 1.5 0 013.001.001zM243.5 381.5a1.5 1.5 0 11-3.001-.001 1.5 1.5 0 013.001.001zM263.5 381.5a1.5 1.5 0 11-3.001-.001 1.5 1.5 0 013.001.001zM283.5 381.5a1.5 1.5 0 11-3.001-.001 1.5 1.5 0 013.001.001zM303.5 381.5a1.5 1.5 0 11-3.001-.001 1.5 1.5 0 013.001.001zM323.5 381.5a1.5 1.5 0 11-3.001-.001 1.5 1.5 0 013.001.001zM343.5 381.5a1.5 1.5 0 11-3.001-.001 1.5 1.5 0 013.001.001zM63.5 401.5a1.5 1.5 0 11-3 0 1.5 1.5 0 013 0zM83.5 401.5a1.5 1.5 0 11-3 0 1.5 1.5 0 013 0zM103.5 401.5a1.5 1.5 0 11-3.001-.001 1.5 1.5 0 013.001.001zM123.5 401.5a1.5 1.5 0 11-3.001-.001 1.5 1.5 0 013.001.001zM143.5 401.5a1.5 1.5 0 11-3.001-.001 1.5 1.5 0 013.001.001zM163.5 401.5a1.5 1.5 0 11-3.001-.001 1.5 1.5 0 013.001.001zM183.5 401.5a1.5 1.5 0 11-3.001-.001 1.5 1.5 0 013.001.001zM203.5 401.5a1.5 1.5 0 11-3.001-.001 1.5 1.5 0 013.001.001zM223.5 401.5a1.5 1.5 0 11-3.001-.001 1.5 1.5 0 013.001.001zM243.5 401.5a1.5 1.5 0 11-3.001-.001 1.5 1.5 0 013.001.001zM263.5 401.5a1.5 1.5 0 11-3.001-.001 1.5 1.5 0 013.001.001zM283.5 401.5a1.5 1.5 0 11-3.001-.001 1.5 1.5 0 013.001.001zM303.5 401.5a1.5 1.5 0 11-3.001-.001 1.5 1.5 0 013.001.001zM323.5 401.5a1.5 1.5 0 11-3.001-.001 1.5 1.5 0 013.001.001zM343.5 401.5a1.5 1.5 0 11-3.001-.001 1.5 1.5 0 013.001.001zM63.5 421.5a1.5 1.5 0 11-3 0 1.5 1.5 0 013 0zM83.5 421.5a1.5 1.5 0 11-3 0 1.5 1.5 0 013 0zM103.5 421.5a1.5 1.5 0 11-3.001-.001 1.5 1.5 0 013.001.001zM123.5 421.5a1.5 1.5 0 11-3.001-.001 1.5 1.5 0 013.001.001zM143.5 421.5a1.5 1.5 0 11-3.001-.001 1.5 1.5 0 013.001.001zM163.5 421.5a1.5 1.5 0 11-3.001-.001 1.5 1.5 0 013.001.001zM183.5 421.5a1.5 1.5 0 11-3.001-.001 1.5 1.5 0 013.001.001zM203.5 421.5a1.5 1.5 0 11-3.001-.001 1.5 1.5 0 013.001.001zM223.5 421.5a1.5 1.5 0 11-3.001-.001 1.5 1.5 0 013.001.001zM243.5 421.5a1.5 1.5 0 11-3.001-.001 1.5 1.5 0 013.001.001zM263.5 421.5a1.5 1.5 0 11-3.001-.001 1.5 1.5 0 013.001.001zM283.5 421.5a1.5 1.5 0 11-3.001-.001 1.5 1.5 0 013.001.001zM303.5 421.5a1.5 1.5 0 11-3.001-.001 1.5 1.5 0 013.001.001zM323.5 421.5a1.5 1.5 0 11-3.001-.001 1.5 1.5 0 013.001.001zM343.5 421.5a1.5 1.5 0 11-3.001-.001 1.5 1.5 0 013.001.001zM363.5 201.5a1.5 1.5 0 11-3.001-.001 1.5 1.5 0 013.001.001zM383.5 201.5a1.5 1.5 0 11-3.001-.001 1.5 1.5 0 013.001.001zM403.5 201.5a1.5 1.5 0 11-3.001-.001 1.5 1.5 0 013.001.001zM423.5 201.5a1.5 1.5 0 11-3.001-.001 1.5 1.5 0 013.001.001zM443.5 201.5a1.5 1.5 0 11-3.001-.001 1.5 1.5 0 013.001.001zM463.5 201.5a1.5 1.5 0 11-3.001-.001 1.5 1.5 0 013.001.001zM483.5 201.5a1.5 1.5 0 11-3.001-.001 1.5 1.5 0 013.001.001zM503.5 201.5a1.5 1.5 0 11-3.001-.001 1.5 1.5 0 013.001.001zM523.5 201.5a1.5 1.5 0 11-3.001-.001 1.5 1.5 0 013.001.001zM543.5 201.5a1.5 1.5 0 11-3.001-.001 1.5 1.5 0 013.001.001zM563.5 201.5a1.5 1.5 0 11-3.001-.001 1.5 1.5 0 013.001.001zM583.5 201.5a1.5 1.5 0 11-3.001-.001 1.5 1.5 0 013.001.001zM603.5 201.5a1.5 1.5 0 11-3.001-.001 1.5 1.5 0 013.001.001zM623.5 201.5a1.5 1.5 0 11-3.001-.001 1.5 1.5 0 013.001.001zM643.5 201.5a1.5 1.5 0 11-3.001-.001 1.5 1.5 0 013.001.001zM363.5 221.5a1.5 1.5 0 11-3.001-.001 1.5 1.5 0 013.001.001zM383.5 221.5a1.5 1.5 0 11-3.001-.001 1.5 1.5 0 013.001.001zM403.5 221.5a1.5 1.5 0 11-3.001-.001 1.5 1.5 0 013.001.001zM423.5 221.5a1.5 1.5 0 11-3.001-.001 1.5 1.5 0 013.001.001zM443.5 221.5a1.5 1.5 0 11-3.001-.001 1.5 1.5 0 013.001.001zM463.5 221.5a1.5 1.5 0 11-3.001-.001 1.5 1.5 0 013.001.001zM483.5 221.5a1.5 1.5 0 11-3.001-.001 1.5 1.5 0 013.001.001zM503.5 221.5a1.5 1.5 0 11-3.001-.001 1.5 1.5 0 013.001.001zM523.5 221.5a1.5 1.5 0 11-3.001-.001 1.5 1.5 0 013.001.001zM543.5 221.5a1.5 1.5 0 11-3.001-.001 1.5 1.5 0 013.001.001zM563.5 221.5a1.5 1.5 0 11-3.001-.001 1.5 1.5 0 013.001.001zM583.5 221.5a1.5 1.5 0 11-3.001-.001 1.5 1.5 0 013.001.001zM603.5 221.5a1.5 1.5 0 11-3.001-.001 1.5 1.5 0 013.001.001zM623.5 221.5a1.5 1.5 0 11-3.001-.001 1.5 1.5 0 013.001.001zM643.5 221.5a1.5 1.5 0 11-3.001-.001 1.5 1.5 0 013.001.001zM363.5 241.5a1.5 1.5 0 11-3.001-.001 1.5 1.5 0 013.001.001zM383.5 241.5a1.5 1.5 0 11-3.001-.001 1.5 1.5 0 013.001.001zM403.5 241.5a1.5 1.5 0 11-3.001-.001 1.5 1.5 0 013.001.001zM423.5 241.5a1.5 1.5 0 11-3.001-.001 1.5 1.5 0 013.001.001zM443.5 241.5a1.5 1.5 0 11-3.001-.001 1.5 1.5 0 013.001.001zM463.5 241.5a1.5 1.5 0 11-3.001-.001 1.5 1.5 0 013.001.001zM483.5 241.5a1.5 1.5 0 11-3.001-.001 1.5 1.5 0 013.001.001zM503.5 241.5a1.5 1.5 0 11-3.001-.001 1.5 1.5 0 013.001.001zM523.5 241.5a1.5 1.5 0 11-3.001-.001 1.5 1.5 0 013.001.001zM543.5 241.5a1.5 1.5 0 11-3.001-.001 1.5 1.5 0 013.001.001zM563.5 241.5a1.5 1.5 0 11-3.001-.001 1.5 1.5 0 013.001.001zM583.5 241.5a1.5 1.5 0 11-3.001-.001 1.5 1.5 0 013.001.001zM603.5 241.5a1.5 1.5 0 11-3.001-.001 1.5 1.5 0 013.001.001zM623.5 241.5a1.5 1.5 0 11-3.001-.001 1.5 1.5 0 013.001.001zM643.5 241.5a1.5 1.5 0 11-3.001-.001 1.5 1.5 0 013.001.001zM363.5 261.5a1.5 1.5 0 11-3.001-.001 1.5 1.5 0 013.001.001zM383.5 261.5a1.5 1.5 0 11-3.001-.001 1.5 1.5 0 013.001.001zM403.5 261.5a1.5 1.5 0 11-3.001-.001 1.5 1.5 0 013.001.001zM423.5 261.5a1.5 1.5 0 11-3.001-.001 1.5 1.5 0 013.001.001zM443.5 261.5a1.5 1.5 0 11-3.001-.001 1.5 1.5 0 013.001.001zM463.5 261.5a1.5 1.5 0 11-3.001-.001 1.5 1.5 0 013.001.001zM483.5 261.5a1.5 1.5 0 11-3.001-.001 1.5 1.5 0 013.001.001zM503.5 261.5a1.5 1.5 0 11-3.001-.001 1.5 1.5 0 013.001.001zM523.5 261.5a1.5 1.5 0 11-3.001-.001 1.5 1.5 0 013.001.001zM543.5 261.5a1.5 1.5 0 11-3.001-.001 1.5 1.5 0 013.001.001zM563.5 261.5a1.5 1.5 0 11-3.001-.001 1.5 1.5 0 013.001.001zM583.5 261.5a1.5 1.5 0 11-3.001-.001 1.5 1.5 0 013.001.001zM603.5 261.5a1.5 1.5 0 11-3.001-.001 1.5 1.5 0 013.001.001zM623.5 261.5a1.5 1.5 0 11-3.001-.001 1.5 1.5 0 013.001.001zM643.5 261.5a1.5 1.5 0 11-3.001-.001 1.5 1.5 0 013.001.001zM363.5 281.5a1.5 1.5 0 11-3.001-.001 1.5 1.5 0 013.001.001zM383.5 281.5a1.5 1.5 0 11-3.001-.001 1.5 1.5 0 013.001.001zM403.5 281.5a1.5 1.5 0 11-3.001-.001 1.5 1.5 0 013.001.001zM423.5 281.5a1.5 1.5 0 11-3.001-.001 1.5 1.5 0 013.001.001zM443.5 281.5a1.5 1.5 0 11-3.001-.001 1.5 1.5 0 013.001.001zM463.5 281.5a1.5 1.5 0 11-3.001-.001 1.5 1.5 0 013.001.001zM483.5 281.5a1.5 1.5 0 11-3.001-.001 1.5 1.5 0 013.001.001zM503.5 281.5a1.5 1.5 0 11-3.001-.001 1.5 1.5 0 013.001.001zM523.5 281.5a1.5 1.5 0 11-3.001-.001 1.5 1.5 0 013.001.001zM543.5 281.5a1.5 1.5 0 11-3.001-.001 1.5 1.5 0 013.001.001zM563.5 281.5a1.5 1.5 0 11-3.001-.001 1.5 1.5 0 013.001.001zM583.5 281.5a1.5 1.5 0 11-3.001-.001 1.5 1.5 0 013.001.001zM603.5 281.5a1.5 1.5 0 11-3.001-.001 1.5 1.5 0 013.001.001zM623.5 281.5a1.5 1.5 0 11-3.001-.001 1.5 1.5 0 013.001.001zM643.5 281.5a1.5 1.5 0 11-3.001-.001 1.5 1.5 0 013.001.001zM363.5 301.5a1.5 1.5 0 11-3.001-.001 1.5 1.5 0 013.001.001zM383.5 301.5a1.5 1.5 0 11-3.001-.001 1.5 1.5 0 013.001.001zM403.5 301.5a1.5 1.5 0 11-3.001-.001 1.5 1.5 0 013.001.001zM423.5 301.5a1.5 1.5 0 11-3.001-.001 1.5 1.5 0 013.001.001zM443.5 301.5a1.5 1.5 0 11-3.001-.001 1.5 1.5 0 013.001.001zM463.5 301.5a1.5 1.5 0 11-3.001-.001 1.5 1.5 0 013.001.001zM483.5 301.5a1.5 1.5 0 11-3.001-.001 1.5 1.5 0 013.001.001zM503.5 301.5a1.5 1.5 0 11-3.001-.001 1.5 1.5 0 013.001.001zM523.5 301.5a1.5 1.5 0 11-3.001-.001 1.5 1.5 0 013.001.001zM543.5 301.5a1.5 1.5 0 11-3.001-.001 1.5 1.5 0 013.001.001zM563.5 301.5a1.5 1.5 0 11-3.001-.001 1.5 1.5 0 013.001.001zM583.5 301.5a1.5 1.5 0 11-3.001-.001 1.5 1.5 0 013.001.001zM603.5 301.5a1.5 1.5 0 11-3.001-.001 1.5 1.5 0 013.001.001zM623.5 301.5a1.5 1.5 0 11-3.001-.001 1.5 1.5 0 013.001.001zM643.5 301.5a1.5 1.5 0 11-3.001-.001 1.5 1.5 0 013.001.001zM363.5 321.5a1.5 1.5 0 11-3.001-.001 1.5 1.5 0 013.001.001zM383.5 321.5a1.5 1.5 0 11-3.001-.001 1.5 1.5 0 013.001.001zM403.5 321.5a1.5 1.5 0 11-3.001-.001 1.5 1.5 0 013.001.001zM423.5 321.5a1.5 1.5 0 11-3.001-.001 1.5 1.5 0 013.001.001zM443.5 321.5a1.5 1.5 0 11-3.001-.001 1.5 1.5 0 013.001.001zM463.5 321.5a1.5 1.5 0 11-3.001-.001 1.5 1.5 0 013.001.001zM483.5 321.5a1.5 1.5 0 11-3.001-.001 1.5 1.5 0 013.001.001zM503.5 321.5a1.5 1.5 0 11-3.001-.001 1.5 1.5 0 013.001.001zM523.5 321.5a1.5 1.5 0 11-3.001-.001 1.5 1.5 0 013.001.001zM543.5 321.5a1.5 1.5 0 11-3.001-.001 1.5 1.5 0 013.001.001zM563.5 321.5a1.5 1.5 0 11-3.001-.001 1.5 1.5 0 013.001.001zM583.5 321.5a1.5 1.5 0 11-3.001-.001 1.5 1.5 0 013.001.001zM603.5 321.5a1.5 1.5 0 11-3.001-.001 1.5 1.5 0 013.001.001zM623.5 321.5a1.5 1.5 0 11-3.001-.001 1.5 1.5 0 013.001.001zM643.5 321.5a1.5 1.5 0 11-3.001-.001 1.5 1.5 0 013.001.001zM363.5 341.5a1.5 1.5 0 11-3.001-.001 1.5 1.5 0 013.001.001zM383.5 341.5a1.5 1.5 0 11-3.001-.001 1.5 1.5 0 013.001.001zM403.5 341.5a1.5 1.5 0 11-3.001-.001 1.5 1.5 0 013.001.001zM423.5 341.5a1.5 1.5 0 11-3.001-.001 1.5 1.5 0 013.001.001zM443.5 341.5a1.5 1.5 0 11-3.001-.001 1.5 1.5 0 013.001.001zM463.5 341.5a1.5 1.5 0 11-3.001-.001 1.5 1.5 0 013.001.001zM483.5 341.5a1.5 1.5 0 11-3.001-.001 1.5 1.5 0 013.001.001zM503.5 341.5a1.5 1.5 0 11-3.001-.001 1.5 1.5 0 013.001.001zM523.5 341.5a1.5 1.5 0 11-3.001-.001 1.5 1.5 0 013.001.001zM543.5 341.5a1.5 1.5 0 11-3.001-.001 1.5 1.5 0 013.001.001zM563.5 341.5a1.5 1.5 0 11-3.001-.001 1.5 1.5 0 013.001.001zM583.5 341.5a1.5 1.5 0 11-3.001-.001 1.5 1.5 0 013.001.001zM603.5 341.5a1.5 1.5 0 11-3.001-.001 1.5 1.5 0 013.001.001zM623.5 341.5a1.5 1.5 0 11-3.001-.001 1.5 1.5 0 013.001.001zM643.5 341.5a1.5 1.5 0 11-3.001-.001 1.5 1.5 0 013.001.001zM363.5 361.5a1.5 1.5 0 11-3.001-.001 1.5 1.5 0 013.001.001zM383.5 361.5a1.5 1.5 0 11-3.001-.001 1.5 1.5 0 013.001.001zM403.5 361.5a1.5 1.5 0 11-3.001-.001 1.5 1.5 0 013.001.001zM423.5 361.5a1.5 1.5 0 11-3.001-.001 1.5 1.5 0 013.001.001zM443.5 361.5a1.5 1.5 0 11-3.001-.001 1.5 1.5 0 013.001.001zM463.5 361.5a1.5 1.5 0 11-3.001-.001 1.5 1.5 0 013.001.001zM483.5 361.5a1.5 1.5 0 11-3.001-.001 1.5 1.5 0 013.001.001zM503.5 361.5a1.5 1.5 0 11-3.001-.001 1.5 1.5 0 013.001.001zM523.5 361.5a1.5 1.5 0 11-3.001-.001 1.5 1.5 0 013.001.001zM543.5 361.5a1.5 1.5 0 11-3.001-.001 1.5 1.5 0 013.001.001zM563.5 361.5a1.5 1.5 0 11-3.001-.001 1.5 1.5 0 013.001.001zM583.5 361.5a1.5 1.5 0 11-3.001-.001 1.5 1.5 0 013.001.001zM603.5 361.5a1.5 1.5 0 11-3.001-.001 1.5 1.5 0 013.001.001zM623.5 361.5a1.5 1.5 0 11-3.001-.001 1.5 1.5 0 013.001.001zM643.5 361.5a1.5 1.5 0 11-3.001-.001 1.5 1.5 0 013.001.001zM363.5 381.5a1.5 1.5 0 11-3.001-.001 1.5 1.5 0 013.001.001zM383.5 381.5a1.5 1.5 0 11-3.001-.001 1.5 1.5 0 013.001.001zM403.5 381.5a1.5 1.5 0 11-3.001-.001 1.5 1.5 0 013.001.001zM423.5 381.5a1.5 1.5 0 11-3.001-.001 1.5 1.5 0 013.001.001zM443.5 381.5a1.5 1.5 0 11-3.001-.001 1.5 1.5 0 013.001.001zM463.5 381.5a1.5 1.5 0 11-3.001-.001 1.5 1.5 0 013.001.001zM483.5 381.5a1.5 1.5 0 11-3.001-.001 1.5 1.5 0 013.001.001zM503.5 381.5a1.5 1.5 0 11-3.001-.001 1.5 1.5 0 013.001.001zM523.5 381.5a1.5 1.5 0 11-3.001-.001 1.5 1.5 0 013.001.001zM543.5 381.5a1.5 1.5 0 11-3.001-.001 1.5 1.5 0 013.001.001zM563.5 381.5a1.5 1.5 0 11-3.001-.001 1.5 1.5 0 013.001.001zM583.5 381.5a1.5 1.5 0 11-3.001-.001 1.5 1.5 0 013.001.001zM603.5 381.5a1.5 1.5 0 11-3.001-.001 1.5 1.5 0 013.001.001zM623.5 381.5a1.5 1.5 0 11-3.001-.001 1.5 1.5 0 013.001.001zM643.5 381.5a1.5 1.5 0 11-3.001-.001 1.5 1.5 0 013.001.001zM363.5 401.5a1.5 1.5 0 11-3.001-.001 1.5 1.5 0 013.001.001zM383.5 401.5a1.5 1.5 0 11-3.001-.001 1.5 1.5 0 013.001.001zM403.5 401.5a1.5 1.5 0 11-3.001-.001 1.5 1.5 0 013.001.001zM423.5 401.5a1.5 1.5 0 11-3.001-.001 1.5 1.5 0 013.001.001zM443.5 401.5a1.5 1.5 0 11-3.001-.001 1.5 1.5 0 013.001.001zM463.5 401.5a1.5 1.5 0 11-3.001-.001 1.5 1.5 0 013.001.001zM483.5 401.5a1.5 1.5 0 11-3.001-.001 1.5 1.5 0 013.001.001zM503.5 401.5a1.5 1.5 0 11-3.001-.001 1.5 1.5 0 013.001.001zM523.5 401.5a1.5 1.5 0 11-3.001-.001 1.5 1.5 0 013.001.001zM543.5 401.5a1.5 1.5 0 11-3.001-.001 1.5 1.5 0 013.001.001zM563.5 401.5a1.5 1.5 0 11-3.001-.001 1.5 1.5 0 013.001.001zM583.5 401.5a1.5 1.5 0 11-3.001-.001 1.5 1.5 0 013.001.001zM603.5 401.5a1.5 1.5 0 11-3.001-.001 1.5 1.5 0 013.001.001zM623.5 401.5a1.5 1.5 0 11-3.001-.001 1.5 1.5 0 013.001.001zM643.5 401.5a1.5 1.5 0 11-3.001-.001 1.5 1.5 0 013.001.001zM363.5 421.5a1.5 1.5 0 11-3.001-.001 1.5 1.5 0 013.001.001zM383.5 421.5a1.5 1.5 0 11-3.001-.001 1.5 1.5 0 013.001.001zM403.5 421.5a1.5 1.5 0 11-3.001-.001 1.5 1.5 0 013.001.001zM423.5 421.5a1.5 1.5 0 11-3.001-.001 1.5 1.5 0 013.001.001zM443.5 421.5a1.5 1.5 0 11-3.001-.001 1.5 1.5 0 013.001.001zM463.5 421.5a1.5 1.5 0 11-3.001-.001 1.5 1.5 0 013.001.001zM483.5 421.5a1.5 1.5 0 11-3.001-.001 1.5 1.5 0 013.001.001zM503.5 421.5a1.5 1.5 0 11-3.001-.001 1.5 1.5 0 013.001.001zM523.5 421.5a1.5 1.5 0 11-3.001-.001 1.5 1.5 0 013.001.001zM543.5 421.5a1.5 1.5 0 11-3.001-.001 1.5 1.5 0 013.001.001zM563.5 421.5a1.5 1.5 0 11-3.001-.001 1.5 1.5 0 013.001.001zM583.5 421.5a1.5 1.5 0 11-3.001-.001 1.5 1.5 0 013.001.001zM603.5 421.5a1.5 1.5 0 11-3.001-.001 1.5 1.5 0 013.001.001zM623.5 421.5a1.5 1.5 0 11-3.001-.001 1.5 1.5 0 013.001.001zM643.5 421.5a1.5 1.5 0 11-3.001-.001 1.5 1.5 0 013.001.001zM663.5 201.5a1.5 1.5 0 11-3.001-.001 1.5 1.5 0 013.001.001zM683.5 201.5a1.5 1.5 0 11-3.001-.001 1.5 1.5 0 013.001.001zM703.5 201.5a1.5 1.5 0 11-3.001-.001 1.5 1.5 0 013.001.001zM723.5 201.5a1.5 1.5 0 11-3.001-.001 1.5 1.5 0 013.001.001zM743.5 201.5a1.5 1.5 0 11-3.001-.001 1.5 1.5 0 013.001.001zM763.5 201.5a1.5 1.5 0 11-3.001-.001 1.5 1.5 0 013.001.001zM783.5 201.5a1.5 1.5 0 11-3.001-.001 1.5 1.5 0 013.001.001zM803.5 201.5a1.5 1.5 0 11-3.001-.001 1.5 1.5 0 013.001.001zM823.5 201.5a1.5 1.5 0 11-3.001-.001 1.5 1.5 0 013.001.001zM663.5 221.5a1.5 1.5 0 11-3.001-.001 1.5 1.5 0 013.001.001zM683.5 221.5a1.5 1.5 0 11-3.001-.001 1.5 1.5 0 013.001.001zM703.5 221.5a1.5 1.5 0 11-3.001-.001 1.5 1.5 0 013.001.001zM723.5 221.5a1.5 1.5 0 11-3.001-.001 1.5 1.5 0 013.001.001zM743.5 221.5a1.5 1.5 0 11-3.001-.001 1.5 1.5 0 013.001.001zM763.5 221.5a1.5 1.5 0 11-3.001-.001 1.5 1.5 0 013.001.001zM783.5 221.5a1.5 1.5 0 11-3.001-.001 1.5 1.5 0 013.001.001zM803.5 221.5a1.5 1.5 0 11-3.001-.001 1.5 1.5 0 013.001.001zM823.5 221.5a1.5 1.5 0 11-3.001-.001 1.5 1.5 0 013.001.001zM663.5 241.5a1.5 1.5 0 11-3.001-.001 1.5 1.5 0 013.001.001zM683.5 241.5a1.5 1.5 0 11-3.001-.001 1.5 1.5 0 013.001.001zM703.5 241.5a1.5 1.5 0 11-3.001-.001 1.5 1.5 0 013.001.001zM723.5 241.5a1.5 1.5 0 11-3.001-.001 1.5 1.5 0 013.001.001zM743.5 241.5a1.5 1.5 0 11-3.001-.001 1.5 1.5 0 013.001.001zM763.5 241.5a1.5 1.5 0 11-3.001-.001 1.5 1.5 0 013.001.001zM783.5 241.5a1.5 1.5 0 11-3.001-.001 1.5 1.5 0 013.001.001zM803.5 241.5a1.5 1.5 0 11-3.001-.001 1.5 1.5 0 013.001.001zM823.5 241.5a1.5 1.5 0 11-3.001-.001 1.5 1.5 0 013.001.001zM663.5 261.5a1.5 1.5 0 11-3.001-.001 1.5 1.5 0 013.001.001zM683.5 261.5a1.5 1.5 0 11-3.001-.001 1.5 1.5 0 013.001.001zM703.5 261.5a1.5 1.5 0 11-3.001-.001 1.5 1.5 0 013.001.001zM723.5 261.5a1.5 1.5 0 11-3.001-.001 1.5 1.5 0 013.001.001zM743.5 261.5a1.5 1.5 0 11-3.001-.001 1.5 1.5 0 013.001.001zM763.5 261.5a1.5 1.5 0 11-3.001-.001 1.5 1.5 0 013.001.001zM783.5 261.5a1.5 1.5 0 11-3.001-.001 1.5 1.5 0 013.001.001zM803.5 261.5a1.5 1.5 0 11-3.001-.001 1.5 1.5 0 013.001.001zM823.5 261.5a1.5 1.5 0 11-3.001-.001 1.5 1.5 0 013.001.001zM663.5 281.5a1.5 1.5 0 11-3.001-.001 1.5 1.5 0 013.001.001zM683.5 281.5a1.5 1.5 0 11-3.001-.001 1.5 1.5 0 013.001.001zM703.5 281.5a1.5 1.5 0 11-3.001-.001 1.5 1.5 0 013.001.001zM723.5 281.5a1.5 1.5 0 11-3.001-.001 1.5 1.5 0 013.001.001zM743.5 281.5a1.5 1.5 0 11-3.001-.001 1.5 1.5 0 013.001.001zM763.5 281.5a1.5 1.5 0 11-3.001-.001 1.5 1.5 0 013.001.001zM783.5 281.5a1.5 1.5 0 11-3.001-.001 1.5 1.5 0 013.001.001zM803.5 281.5a1.5 1.5 0 11-3.001-.001 1.5 1.5 0 013.001.001zM823.5 281.5a1.5 1.5 0 11-3.001-.001 1.5 1.5 0 013.001.001zM663.5 301.5a1.5 1.5 0 11-3.001-.001 1.5 1.5 0 013.001.001zM683.5 301.5a1.5 1.5 0 11-3.001-.001 1.5 1.5 0 013.001.001zM703.5 301.5a1.5 1.5 0 11-3.001-.001 1.5 1.5 0 013.001.001zM723.5 301.5a1.5 1.5 0 11-3.001-.001 1.5 1.5 0 013.001.001zM743.5 301.5a1.5 1.5 0 11-3.001-.001 1.5 1.5 0 013.001.001zM763.5 301.5a1.5 1.5 0 11-3.001-.001 1.5 1.5 0 013.001.001zM783.5 301.5a1.5 1.5 0 11-3.001-.001 1.5 1.5 0 013.001.001zM803.5 301.5a1.5 1.5 0 11-3.001-.001 1.5 1.5 0 013.001.001zM823.5 301.5a1.5 1.5 0 11-3.001-.001 1.5 1.5 0 013.001.001zM663.5 321.5a1.5 1.5 0 11-3.001-.001 1.5 1.5 0 013.001.001zM683.5 321.5a1.5 1.5 0 11-3.001-.001 1.5 1.5 0 013.001.001zM703.5 321.5a1.5 1.5 0 11-3.001-.001 1.5 1.5 0 013.001.001zM723.5 321.5a1.5 1.5 0 11-3.001-.001 1.5 1.5 0 013.001.001zM743.5 321.5a1.5 1.5 0 11-3.001-.001 1.5 1.5 0 013.001.001zM763.5 321.5a1.5 1.5 0 11-3.001-.001 1.5 1.5 0 013.001.001zM783.5 321.5a1.5 1.5 0 11-3.001-.001 1.5 1.5 0 013.001.001zM803.5 321.5a1.5 1.5 0 11-3.001-.001 1.5 1.5 0 013.001.001zM823.5 321.5a1.5 1.5 0 11-3.001-.001 1.5 1.5 0 013.001.001zM663.5 341.5a1.5 1.5 0 11-3.001-.001 1.5 1.5 0 013.001.001zM683.5 341.5a1.5 1.5 0 11-3.001-.001 1.5 1.5 0 013.001.001zM703.5 341.5a1.5 1.5 0 11-3.001-.001 1.5 1.5 0 013.001.001zM723.5 341.5a1.5 1.5 0 11-3.001-.001 1.5 1.5 0 013.001.001zM743.5 341.5a1.5 1.5 0 11-3.001-.001 1.5 1.5 0 013.001.001zM763.5 341.5a1.5 1.5 0 11-3.001-.001 1.5 1.5 0 013.001.001zM783.5 341.5a1.5 1.5 0 11-3.001-.001 1.5 1.5 0 013.001.001zM803.5 341.5a1.5 1.5 0 11-3.001-.001 1.5 1.5 0 013.001.001zM823.5 341.5a1.5 1.5 0 11-3.001-.001 1.5 1.5 0 013.001.001zM663.5 361.5a1.5 1.5 0 11-3.001-.001 1.5 1.5 0 013.001.001zM683.5 361.5a1.5 1.5 0 11-3.001-.001 1.5 1.5 0 013.001.001zM703.5 361.5a1.5 1.5 0 11-3.001-.001 1.5 1.5 0 013.001.001zM723.5 361.5a1.5 1.5 0 11-3.001-.001 1.5 1.5 0 013.001.001zM743.5 361.5a1.5 1.5 0 11-3.001-.001 1.5 1.5 0 013.001.001zM763.5 361.5a1.5 1.5 0 11-3.001-.001 1.5 1.5 0 013.001.001zM783.5 361.5a1.5 1.5 0 11-3.001-.001 1.5 1.5 0 013.001.001zM803.5 361.5a1.5 1.5 0 11-3.001-.001 1.5 1.5 0 013.001.001zM823.5 361.5a1.5 1.5 0 11-3.001-.001 1.5 1.5 0 013.001.001zM663.5 381.5a1.5 1.5 0 11-3.001-.001 1.5 1.5 0 013.001.001zM683.5 381.5a1.5 1.5 0 11-3.001-.001 1.5 1.5 0 013.001.001zM703.5 381.5a1.5 1.5 0 11-3.001-.001 1.5 1.5 0 013.001.001zM723.5 381.5a1.5 1.5 0 11-3.001-.001 1.5 1.5 0 013.001.001zM743.5 381.5a1.5 1.5 0 11-3.001-.001 1.5 1.5 0 013.001.001zM763.5 381.5a1.5 1.5 0 11-3.001-.001 1.5 1.5 0 013.001.001zM783.5 381.5a1.5 1.5 0 11-3.001-.001 1.5 1.5 0 013.001.001zM803.5 381.5a1.5 1.5 0 11-3.001-.001 1.5 1.5 0 013.001.001zM823.5 381.5a1.5 1.5 0 11-3.001-.001 1.5 1.5 0 013.001.001zM663.5 401.5a1.5 1.5 0 11-3.001-.001 1.5 1.5 0 013.001.001zM683.5 401.5a1.5 1.5 0 11-3.001-.001 1.5 1.5 0 013.001.001zM703.5 401.5a1.5 1.5 0 11-3.001-.001 1.5 1.5 0 013.001.001zM723.5 401.5a1.5 1.5 0 11-3.001-.001 1.5 1.5 0 013.001.001zM743.5 401.5a1.5 1.5 0 11-3.001-.001 1.5 1.5 0 013.001.001zM763.5 401.5a1.5 1.5 0 11-3.001-.001 1.5 1.5 0 013.001.001zM783.5 401.5a1.5 1.5 0 11-3.001-.001 1.5 1.5 0 013.001.001zM803.5 401.5a1.5 1.5 0 11-3.001-.001 1.5 1.5 0 013.001.001zM823.5 401.5a1.5 1.5 0 11-3.001-.001 1.5 1.5 0 013.001.001zM663.5 421.5a1.5 1.5 0 11-3.001-.001 1.5 1.5 0 013.001.001zM683.5 421.5a1.5 1.5 0 11-3.001-.001 1.5 1.5 0 013.001.001zM703.5 421.5a1.5 1.5 0 11-3.001-.001 1.5 1.5 0 013.001.001zM723.5 421.5a1.5 1.5 0 11-3.001-.001 1.5 1.5 0 013.001.001zM743.5 421.5a1.5 1.5 0 11-3.001-.001 1.5 1.5 0 013.001.001zM763.5 421.5a1.5 1.5 0 11-3.001-.001 1.5 1.5 0 013.001.001zM783.5 421.5a1.5 1.5 0 11-3.001-.001 1.5 1.5 0 013.001.001zM803.5 421.5a1.5 1.5 0 11-3.001-.001 1.5 1.5 0 013.001.001zM823.5 421.5a1.5 1.5 0 11-3.001-.001 1.5 1.5 0 013.001.001zM23.5 441.5a1.5 1.5 0 11-3 0 1.5 1.5 0 013 0zM43.5 441.5a1.5 1.5 0 11-3 0 1.5 1.5 0 013 0zM23.5 461.5a1.5 1.5 0 11-3 0 1.5 1.5 0 013 0zM43.5 461.5a1.5 1.5 0 11-3 0 1.5 1.5 0 013 0zM23.5 481.5a1.5 1.5 0 11-3 0 1.5 1.5 0 013 0zM43.5 481.5a1.5 1.5 0 11-3 0 1.5 1.5 0 013 0zM23.5 501.5a1.5 1.5 0 11-3 0 1.5 1.5 0 013 0zM43.5 501.5a1.5 1.5 0 11-3 0 1.5 1.5 0 013 0zM23.5 521.5a1.5 1.5 0 11-3 0 1.5 1.5 0 013 0zM43.5 521.5a1.5 1.5 0 11-3 0 1.5 1.5 0 013 0zM43.5 541.5a1.5 1.5 0 11-3 0 1.5 1.5 0 013 0zM63.5 441.5a1.5 1.5 0 11-3 0 1.5 1.5 0 013 0zM83.5 441.5a1.5 1.5 0 11-3 0 1.5 1.5 0 013 0zM103.5 441.5a1.5 1.5 0 11-3.001-.001 1.5 1.5 0 013.001.001zM123.5 441.5a1.5 1.5 0 11-3.001-.001 1.5 1.5 0 013.001.001zM143.5 441.5a1.5 1.5 0 11-3.001-.001 1.5 1.5 0 013.001.001zM163.5 441.5a1.5 1.5 0 11-3.001-.001 1.5 1.5 0 013.001.001zM183.5 441.5a1.5 1.5 0 11-3.001-.001 1.5 1.5 0 013.001.001zM203.5 441.5a1.5 1.5 0 11-3.001-.001 1.5 1.5 0 013.001.001zM223.5 441.5a1.5 1.5 0 11-3.001-.001 1.5 1.5 0 013.001.001zM243.5 441.5a1.5 1.5 0 11-3.001-.001 1.5 1.5 0 013.001.001zM263.5 441.5a1.5 1.5 0 11-3.001-.001 1.5 1.5 0 013.001.001zM283.5 441.5a1.5 1.5 0 11-3.001-.001 1.5 1.5 0 013.001.001zM303.5 441.5a1.5 1.5 0 11-3.001-.001 1.5 1.5 0 013.001.001zM323.5 441.5a1.5 1.5 0 11-3.001-.001 1.5 1.5 0 013.001.001zM343.5 441.5a1.5 1.5 0 11-3.001-.001 1.5 1.5 0 013.001.001zM63.5 461.5a1.5 1.5 0 11-3 0 1.5 1.5 0 013 0zM83.5 461.5a1.5 1.5 0 11-3 0 1.5 1.5 0 013 0zM103.5 461.5a1.5 1.5 0 11-3.001-.001 1.5 1.5 0 013.001.001zM123.5 461.5a1.5 1.5 0 11-3.001-.001 1.5 1.5 0 013.001.001zM143.5 461.5a1.5 1.5 0 11-3.001-.001 1.5 1.5 0 013.001.001zM163.5 461.5a1.5 1.5 0 11-3.001-.001 1.5 1.5 0 013.001.001zM183.5 461.5a1.5 1.5 0 11-3.001-.001 1.5 1.5 0 013.001.001zM203.5 461.5a1.5 1.5 0 11-3.001-.001 1.5 1.5 0 013.001.001zM223.5 461.5a1.5 1.5 0 11-3.001-.001 1.5 1.5 0 013.001.001zM243.5 461.5a1.5 1.5 0 11-3.001-.001 1.5 1.5 0 013.001.001zM263.5 461.5a1.5 1.5 0 11-3.001-.001 1.5 1.5 0 013.001.001zM283.5 461.5a1.5 1.5 0 11-3.001-.001 1.5 1.5 0 013.001.001zM303.5 461.5a1.5 1.5 0 11-3.001-.001 1.5 1.5 0 013.001.001zM323.5 461.5a1.5 1.5 0 11-3.001-.001 1.5 1.5 0 013.001.001zM343.5 461.5a1.5 1.5 0 11-3.001-.001 1.5 1.5 0 013.001.001zM63.5 481.5a1.5 1.5 0 11-3 0 1.5 1.5 0 013 0zM83.5 481.5a1.5 1.5 0 11-3 0 1.5 1.5 0 013 0zM103.5 481.5a1.5 1.5 0 11-3.001-.001 1.5 1.5 0 013.001.001zM123.5 481.5a1.5 1.5 0 11-3.001-.001 1.5 1.5 0 013.001.001zM143.5 481.5a1.5 1.5 0 11-3.001-.001 1.5 1.5 0 013.001.001zM163.5 481.5a1.5 1.5 0 11-3.001-.001 1.5 1.5 0 013.001.001zM183.5 481.5a1.5 1.5 0 11-3.001-.001 1.5 1.5 0 013.001.001zM203.5 481.5a1.5 1.5 0 11-3.001-.001 1.5 1.5 0 013.001.001zM223.5 481.5a1.5 1.5 0 11-3.001-.001 1.5 1.5 0 013.001.001zM243.5 481.5a1.5 1.5 0 11-3.001-.001 1.5 1.5 0 013.001.001zM263.5 481.5a1.5 1.5 0 11-3.001-.001 1.5 1.5 0 013.001.001zM283.5 481.5a1.5 1.5 0 11-3.001-.001 1.5 1.5 0 013.001.001zM303.5 481.5a1.5 1.5 0 11-3.001-.001 1.5 1.5 0 013.001.001zM323.5 481.5a1.5 1.5 0 11-3.001-.001 1.5 1.5 0 013.001.001zM343.5 481.5a1.5 1.5 0 11-3.001-.001 1.5 1.5 0 013.001.001zM63.5 501.5a1.5 1.5 0 11-3 0 1.5 1.5 0 013 0zM83.5 501.5a1.5 1.5 0 11-3 0 1.5 1.5 0 013 0zM103.5 501.5a1.5 1.5 0 11-3.001-.001 1.5 1.5 0 013.001.001zM123.5 501.5a1.5 1.5 0 11-3.001-.001 1.5 1.5 0 013.001.001zM143.5 501.5a1.5 1.5 0 11-3.001-.001 1.5 1.5 0 013.001.001zM163.5 501.5a1.5 1.5 0 11-3.001-.001 1.5 1.5 0 013.001.001zM183.5 501.5a1.5 1.5 0 11-3.001-.001 1.5 1.5 0 013.001.001zM203.5 501.5a1.5 1.5 0 11-3.001-.001 1.5 1.5 0 013.001.001zM223.5 501.5a1.5 1.5 0 11-3.001-.001 1.5 1.5 0 013.001.001zM243.5 501.5a1.5 1.5 0 11-3.001-.001 1.5 1.5 0 013.001.001zM263.5 501.5a1.5 1.5 0 11-3.001-.001 1.5 1.5 0 013.001.001zM283.5 501.5a1.5 1.5 0 11-3.001-.001 1.5 1.5 0 013.001.001zM303.5 501.5a1.5 1.5 0 11-3.001-.001 1.5 1.5 0 013.001.001zM323.5 501.5a1.5 1.5 0 11-3.001-.001 1.5 1.5 0 013.001.001zM343.5 501.5a1.5 1.5 0 11-3.001-.001 1.5 1.5 0 013.001.001zM63.5 521.5a1.5 1.5 0 11-3 0 1.5 1.5 0 013 0zM83.5 521.5a1.5 1.5 0 11-3 0 1.5 1.5 0 013 0zM103.5 521.5a1.5 1.5 0 11-3.001-.001 1.5 1.5 0 013.001.001zM123.5 521.5a1.5 1.5 0 11-3.001-.001 1.5 1.5 0 013.001.001zM143.5 521.5a1.5 1.5 0 11-3.001-.001 1.5 1.5 0 013.001.001zM163.5 521.5a1.5 1.5 0 11-3.001-.001 1.5 1.5 0 013.001.001zM183.5 521.5a1.5 1.5 0 11-3.001-.001 1.5 1.5 0 013.001.001zM203.5 521.5a1.5 1.5 0 11-3.001-.001 1.5 1.5 0 013.001.001zM223.5 521.5a1.5 1.5 0 11-3.001-.001 1.5 1.5 0 013.001.001zM243.5 521.5a1.5 1.5 0 11-3.001-.001 1.5 1.5 0 013.001.001zM263.5 521.5a1.5 1.5 0 11-3.001-.001 1.5 1.5 0 013.001.001zM283.5 521.5a1.5 1.5 0 11-3.001-.001 1.5 1.5 0 013.001.001zM303.5 521.5a1.5 1.5 0 11-3.001-.001 1.5 1.5 0 013.001.001zM323.5 521.5a1.5 1.5 0 11-3.001-.001 1.5 1.5 0 013.001.001zM343.5 521.5a1.5 1.5 0 11-3.001-.001 1.5 1.5 0 013.001.001zM63.5 541.5a1.5 1.5 0 11-3 0 1.5 1.5 0 013 0zM83.5 541.5a1.5 1.5 0 11-3 0 1.5 1.5 0 013 0zM103.5 541.5a1.5 1.5 0 11-3.001-.001 1.5 1.5 0 013.001.001zM123.5 541.5a1.5 1.5 0 11-3.001-.001 1.5 1.5 0 013.001.001zM143.5 541.5a1.5 1.5 0 11-3.001-.001 1.5 1.5 0 013.001.001zM163.5 541.5a1.5 1.5 0 11-3.001-.001 1.5 1.5 0 013.001.001zM183.5 541.5a1.5 1.5 0 11-3.001-.001 1.5 1.5 0 013.001.001zM203.5 541.5a1.5 1.5 0 11-3.001-.001 1.5 1.5 0 013.001.001zM223.5 541.5a1.5 1.5 0 11-3.001-.001 1.5 1.5 0 013.001.001zM243.5 541.5a1.5 1.5 0 11-3.001-.001 1.5 1.5 0 013.001.001zM263.5 541.5a1.5 1.5 0 11-3.001-.001 1.5 1.5 0 013.001.001zM283.5 541.5a1.5 1.5 0 11-3.001-.001 1.5 1.5 0 013.001.001zM303.5 541.5a1.5 1.5 0 11-3.001-.001 1.5 1.5 0 013.001.001zM323.5 541.5a1.5 1.5 0 11-3.001-.001 1.5 1.5 0 013.001.001zM343.5 541.5a1.5 1.5 0 11-3.001-.001 1.5 1.5 0 013.001.001zM63.5 561.5a1.5 1.5 0 11-3 0 1.5 1.5 0 013 0zM83.5 561.5a1.5 1.5 0 11-3 0 1.5 1.5 0 013 0zM103.5 561.5a1.5 1.5 0 11-3.001-.001 1.5 1.5 0 013.001.001zM123.5 561.5a1.5 1.5 0 11-3.001-.001 1.5 1.5 0 013.001.001zM143.5 561.5a1.5 1.5 0 11-3.001-.001 1.5 1.5 0 013.001.001zM163.5 561.5a1.5 1.5 0 11-3.001-.001 1.5 1.5 0 013.001.001zM183.5 561.5a1.5 1.5 0 11-3.001-.001 1.5 1.5 0 013.001.001zM203.5 561.5a1.5 1.5 0 11-3.001-.001 1.5 1.5 0 013.001.001zM223.5 561.5a1.5 1.5 0 11-3.001-.001 1.5 1.5 0 013.001.001zM243.5 561.5a1.5 1.5 0 11-3.001-.001 1.5 1.5 0 013.001.001zM263.5 561.5a1.5 1.5 0 11-3.001-.001 1.5 1.5 0 013.001.001zM283.5 561.5a1.5 1.5 0 11-3.001-.001 1.5 1.5 0 013.001.001zM303.5 561.5a1.5 1.5 0 11-3.001-.001 1.5 1.5 0 013.001.001zM323.5 561.5a1.5 1.5 0 11-3.001-.001 1.5 1.5 0 013.001.001zM343.5 561.5a1.5 1.5 0 11-3.001-.001 1.5 1.5 0 013.001.001zM83.5 581.5a1.5 1.5 0 11-3 0 1.5 1.5 0 013 0zM103.5 581.5a1.5 1.5 0 11-3.001-.001 1.5 1.5 0 013.001.001zM123.5 581.5a1.5 1.5 0 11-3.001-.001 1.5 1.5 0 013.001.001zM143.5 581.5a1.5 1.5 0 11-3.001-.001 1.5 1.5 0 013.001.001zM163.5 581.5a1.5 1.5 0 11-3.001-.001 1.5 1.5 0 013.001.001zM183.5 581.5a1.5 1.5 0 11-3.001-.001 1.5 1.5 0 013.001.001zM203.5 581.5a1.5 1.5 0 11-3.001-.001 1.5 1.5 0 013.001.001zM223.5 581.5a1.5 1.5 0 11-3.001-.001 1.5 1.5 0 013.001.001zM243.5 581.5a1.5 1.5 0 11-3.001-.001 1.5 1.5 0 013.001.001zM263.5 581.5a1.5 1.5 0 11-3.001-.001 1.5 1.5 0 013.001.001zM283.5 581.5a1.5 1.5 0 11-3.001-.001 1.5 1.5 0 013.001.001zM303.5 581.5a1.5 1.5 0 11-3.001-.001 1.5 1.5 0 013.001.001zM323.5 581.5a1.5 1.5 0 11-3.001-.001 1.5 1.5 0 013.001.001zM343.5 581.5a1.5 1.5 0 11-3.001-.001 1.5 1.5 0 013.001.001zM83.5 601.5a1.5 1.5 0 11-3 0 1.5 1.5 0 013 0zM103.5 601.5a1.5 1.5 0 11-3.001-.001 1.5 1.5 0 013.001.001zM123.5 601.5a1.5 1.5 0 11-3.001-.001 1.5 1.5 0 013.001.001zM143.5 601.5a1.5 1.5 0 11-3.001-.001 1.5 1.5 0 013.001.001zM163.5 601.5a1.5 1.5 0 11-3.001-.001 1.5 1.5 0 013.001.001zM183.5 601.5a1.5 1.5 0 11-3.001-.001 1.5 1.5 0 013.001.001zM203.5 601.5a1.5 1.5 0 11-3.001-.001 1.5 1.5 0 013.001.001zM223.5 601.5a1.5 1.5 0 11-3.001-.001 1.5 1.5 0 013.001.001zM243.5 601.5a1.5 1.5 0 11-3.001-.001 1.5 1.5 0 013.001.001zM263.5 601.5a1.5 1.5 0 11-3.001-.001 1.5 1.5 0 013.001.001zM283.5 601.5a1.5 1.5 0 11-3.001-.001 1.5 1.5 0 013.001.001zM303.5 601.5a1.5 1.5 0 11-3.001-.001 1.5 1.5 0 013.001.001zM323.5 601.5a1.5 1.5 0 11-3.001-.001 1.5 1.5 0 013.001.001zM343.5 601.5a1.5 1.5 0 11-3.001-.001 1.5 1.5 0 013.001.001zM83.5 621.5a1.5 1.5 0 11-3 0 1.5 1.5 0 013 0zM103.5 621.5a1.5 1.5 0 11-3.001-.001 1.5 1.5 0 013.001.001zM123.5 621.5a1.5 1.5 0 11-3.001-.001 1.5 1.5 0 013.001.001zM143.5 621.5a1.5 1.5 0 11-3.001-.001 1.5 1.5 0 013.001.001zM163.5 621.5a1.5 1.5 0 11-3.001-.001 1.5 1.5 0 013.001.001zM183.5 621.5a1.5 1.5 0 11-3.001-.001 1.5 1.5 0 013.001.001zM203.5 621.5a1.5 1.5 0 11-3.001-.001 1.5 1.5 0 013.001.001zM223.5 621.5a1.5 1.5 0 11-3.001-.001 1.5 1.5 0 013.001.001zM243.5 621.5a1.5 1.5 0 11-3.001-.001 1.5 1.5 0 013.001.001zM263.5 621.5a1.5 1.5 0 11-3.001-.001 1.5 1.5 0 013.001.001zM283.5 621.5a1.5 1.5 0 11-3.001-.001 1.5 1.5 0 013.001.001zM303.5 621.5a1.5 1.5 0 11-3.001-.001 1.5 1.5 0 013.001.001zM323.5 621.5a1.5 1.5 0 11-3.001-.001 1.5 1.5 0 013.001.001zM343.5 621.5a1.5 1.5 0 11-3.001-.001 1.5 1.5 0 013.001.001zM103.5 641.5a1.5 1.5 0 11-3.001-.001 1.5 1.5 0 013.001.001zM123.5 641.5a1.5 1.5 0 11-3.001-.001 1.5 1.5 0 013.001.001zM143.5 641.5a1.5 1.5 0 11-3.001-.001 1.5 1.5 0 013.001.001zM163.5 641.5a1.5 1.5 0 11-3.001-.001 1.5 1.5 0 013.001.001zM183.5 641.5a1.5 1.5 0 11-3.001-.001 1.5 1.5 0 013.001.001zM203.5 641.5a1.5 1.5 0 11-3.001-.001 1.5 1.5 0 013.001.001zM223.5 641.5a1.5 1.5 0 11-3.001-.001 1.5 1.5 0 013.001.001zM243.5 641.5a1.5 1.5 0 11-3.001-.001 1.5 1.5 0 013.001.001zM263.5 641.5a1.5 1.5 0 11-3.001-.001 1.5 1.5 0 013.001.001zM283.5 641.5a1.5 1.5 0 11-3.001-.001 1.5 1.5 0 013.001.001zM303.5 641.5a1.5 1.5 0 11-3.001-.001 1.5 1.5 0 013.001.001zM323.5 641.5a1.5 1.5 0 11-3.001-.001 1.5 1.5 0 013.001.001zM343.5 641.5a1.5 1.5 0 11-3.001-.001 1.5 1.5 0 013.001.001zM123.5 661.5a1.5 1.5 0 11-3.001-.001 1.5 1.5 0 013.001.001zM143.5 661.5a1.5 1.5 0 11-3.001-.001 1.5 1.5 0 013.001.001zM163.5 661.5a1.5 1.5 0 11-3.001-.001 1.5 1.5 0 013.001.001zM183.5 661.5a1.5 1.5 0 11-3.001-.001 1.5 1.5 0 013.001.001zM203.5 661.5a1.5 1.5 0 11-3.001-.001 1.5 1.5 0 013.001.001zM223.5 661.5a1.5 1.5 0 11-3.001-.001 1.5 1.5 0 013.001.001zM243.5 661.5a1.5 1.5 0 11-3.001-.001 1.5 1.5 0 013.001.001zM263.5 661.5a1.5 1.5 0 11-3.001-.001 1.5 1.5 0 013.001.001zM283.5 661.5a1.5 1.5 0 11-3.001-.001 1.5 1.5 0 013.001.001zM303.5 661.5a1.5 1.5 0 11-3.001-.001 1.5 1.5 0 013.001.001zM323.5 661.5a1.5 1.5 0 11-3.001-.001 1.5 1.5 0 013.001.001zM343.5 661.5a1.5 1.5 0 11-3.001-.001 1.5 1.5 0 013.001.001zM363.5 441.5a1.5 1.5 0 11-3.001-.001 1.5 1.5 0 013.001.001zM383.5 441.5a1.5 1.5 0 11-3.001-.001 1.5 1.5 0 013.001.001zM403.5 441.5a1.5 1.5 0 11-3.001-.001 1.5 1.5 0 013.001.001zM423.5 441.5a1.5 1.5 0 11-3.001-.001 1.5 1.5 0 013.001.001zM443.5 441.5a1.5 1.5 0 11-3.001-.001 1.5 1.5 0 013.001.001zM463.5 441.5a1.5 1.5 0 11-3.001-.001 1.5 1.5 0 013.001.001zM483.5 441.5a1.5 1.5 0 11-3.001-.001 1.5 1.5 0 013.001.001zM503.5 441.5a1.5 1.5 0 11-3.001-.001 1.5 1.5 0 013.001.001zM523.5 441.5a1.5 1.5 0 11-3.001-.001 1.5 1.5 0 013.001.001zM543.5 441.5a1.5 1.5 0 11-3.001-.001 1.5 1.5 0 013.001.001zM563.5 441.5a1.5 1.5 0 11-3.001-.001 1.5 1.5 0 013.001.001zM583.5 441.5a1.5 1.5 0 11-3.001-.001 1.5 1.5 0 013.001.001zM603.5 441.5a1.5 1.5 0 11-3.001-.001 1.5 1.5 0 013.001.001zM623.5 441.5a1.5 1.5 0 11-3.001-.001 1.5 1.5 0 013.001.001zM643.5 441.5a1.5 1.5 0 11-3.001-.001 1.5 1.5 0 013.001.001zM363.5 461.5a1.5 1.5 0 11-3.001-.001 1.5 1.5 0 013.001.001zM383.5 461.5a1.5 1.5 0 11-3.001-.001 1.5 1.5 0 013.001.001zM403.5 461.5a1.5 1.5 0 11-3.001-.001 1.5 1.5 0 013.001.001zM423.5 461.5a1.5 1.5 0 11-3.001-.001 1.5 1.5 0 013.001.001zM443.5 461.5a1.5 1.5 0 11-3.001-.001 1.5 1.5 0 013.001.001zM463.5 461.5a1.5 1.5 0 11-3.001-.001 1.5 1.5 0 013.001.001zM483.5 461.5a1.5 1.5 0 11-3.001-.001 1.5 1.5 0 013.001.001zM503.5 461.5a1.5 1.5 0 11-3.001-.001 1.5 1.5 0 013.001.001zM523.5 461.5a1.5 1.5 0 11-3.001-.001 1.5 1.5 0 013.001.001zM543.5 461.5a1.5 1.5 0 11-3.001-.001 1.5 1.5 0 013.001.001zM563.5 461.5a1.5 1.5 0 11-3.001-.001 1.5 1.5 0 013.001.001zM583.5 461.5a1.5 1.5 0 11-3.001-.001 1.5 1.5 0 013.001.001zM603.5 461.5a1.5 1.5 0 11-3.001-.001 1.5 1.5 0 013.001.001zM623.5 461.5a1.5 1.5 0 11-3.001-.001 1.5 1.5 0 013.001.001zM643.5 461.5a1.5 1.5 0 11-3.001-.001 1.5 1.5 0 013.001.001zM363.5 481.5a1.5 1.5 0 11-3.001-.001 1.5 1.5 0 013.001.001zM383.5 481.5a1.5 1.5 0 11-3.001-.001 1.5 1.5 0 013.001.001zM403.5 481.5a1.5 1.5 0 11-3.001-.001 1.5 1.5 0 013.001.001zM423.5 481.5a1.5 1.5 0 11-3.001-.001 1.5 1.5 0 013.001.001zM443.5 481.5a1.5 1.5 0 11-3.001-.001 1.5 1.5 0 013.001.001zM463.5 481.5a1.5 1.5 0 11-3.001-.001 1.5 1.5 0 013.001.001zM483.5 481.5a1.5 1.5 0 11-3.001-.001 1.5 1.5 0 013.001.001zM503.5 481.5a1.5 1.5 0 11-3.001-.001 1.5 1.5 0 013.001.001zM523.5 481.5a1.5 1.5 0 11-3.001-.001 1.5 1.5 0 013.001.001zM543.5 481.5a1.5 1.5 0 11-3.001-.001 1.5 1.5 0 013.001.001zM563.5 481.5a1.5 1.5 0 11-3.001-.001 1.5 1.5 0 013.001.001zM583.5 481.5a1.5 1.5 0 11-3.001-.001 1.5 1.5 0 013.001.001zM603.5 481.5a1.5 1.5 0 11-3.001-.001 1.5 1.5 0 013.001.001zM623.5 481.5a1.5 1.5 0 11-3.001-.001 1.5 1.5 0 013.001.001zM643.5 481.5a1.5 1.5 0 11-3.001-.001 1.5 1.5 0 013.001.001zM363.5 501.5a1.5 1.5 0 11-3.001-.001 1.5 1.5 0 013.001.001zM383.5 501.5a1.5 1.5 0 11-3.001-.001 1.5 1.5 0 013.001.001zM403.5 501.5a1.5 1.5 0 11-3.001-.001 1.5 1.5 0 013.001.001zM423.5 501.5a1.5 1.5 0 11-3.001-.001 1.5 1.5 0 013.001.001zM443.5 501.5a1.5 1.5 0 11-3.001-.001 1.5 1.5 0 013.001.001zM463.5 501.5a1.5 1.5 0 11-3.001-.001 1.5 1.5 0 013.001.001zM483.5 501.5a1.5 1.5 0 11-3.001-.001 1.5 1.5 0 013.001.001zM503.5 501.5a1.5 1.5 0 11-3.001-.001 1.5 1.5 0 013.001.001zM523.5 501.5a1.5 1.5 0 11-3.001-.001 1.5 1.5 0 013.001.001zM543.5 501.5a1.5 1.5 0 11-3.001-.001 1.5 1.5 0 013.001.001zM563.5 501.5a1.5 1.5 0 11-3.001-.001 1.5 1.5 0 013.001.001zM583.5 501.5a1.5 1.5 0 11-3.001-.001 1.5 1.5 0 013.001.001zM603.5 501.5a1.5 1.5 0 11-3.001-.001 1.5 1.5 0 013.001.001zM623.5 501.5a1.5 1.5 0 11-3.001-.001 1.5 1.5 0 013.001.001zM643.5 501.5a1.5 1.5 0 11-3.001-.001 1.5 1.5 0 013.001.001zM363.5 521.5a1.5 1.5 0 11-3.001-.001 1.5 1.5 0 013.001.001zM383.5 521.5a1.5 1.5 0 11-3.001-.001 1.5 1.5 0 013.001.001zM403.5 521.5a1.5 1.5 0 11-3.001-.001 1.5 1.5 0 013.001.001zM423.5 521.5a1.5 1.5 0 11-3.001-.001 1.5 1.5 0 013.001.001zM443.5 521.5a1.5 1.5 0 11-3.001-.001 1.5 1.5 0 013.001.001zM463.5 521.5a1.5 1.5 0 11-3.001-.001 1.5 1.5 0 013.001.001zM483.5 521.5a1.5 1.5 0 11-3.001-.001 1.5 1.5 0 013.001.001zM503.5 521.5a1.5 1.5 0 11-3.001-.001 1.5 1.5 0 013.001.001zM523.5 521.5a1.5 1.5 0 11-3.001-.001 1.5 1.5 0 013.001.001zM543.5 521.5a1.5 1.5 0 11-3.001-.001 1.5 1.5 0 013.001.001zM563.5 521.5a1.5 1.5 0 11-3.001-.001 1.5 1.5 0 013.001.001zM583.5 521.5a1.5 1.5 0 11-3.001-.001 1.5 1.5 0 013.001.001zM603.5 521.5a1.5 1.5 0 11-3.001-.001 1.5 1.5 0 013.001.001zM623.5 521.5a1.5 1.5 0 11-3.001-.001 1.5 1.5 0 013.001.001zM643.5 521.5a1.5 1.5 0 11-3.001-.001 1.5 1.5 0 013.001.001zM363.5 541.5a1.5 1.5 0 11-3.001-.001 1.5 1.5 0 013.001.001zM383.5 541.5a1.5 1.5 0 11-3.001-.001 1.5 1.5 0 013.001.001zM403.5 541.5a1.5 1.5 0 11-3.001-.001 1.5 1.5 0 013.001.001zM423.5 541.5a1.5 1.5 0 11-3.001-.001 1.5 1.5 0 013.001.001zM443.5 541.5a1.5 1.5 0 11-3.001-.001 1.5 1.5 0 013.001.001zM463.5 541.5a1.5 1.5 0 11-3.001-.001 1.5 1.5 0 013.001.001zM483.5 541.5a1.5 1.5 0 11-3.001-.001 1.5 1.5 0 013.001.001zM503.5 541.5a1.5 1.5 0 11-3.001-.001 1.5 1.5 0 013.001.001zM523.5 541.5a1.5 1.5 0 11-3.001-.001 1.5 1.5 0 013.001.001zM543.5 541.5a1.5 1.5 0 11-3.001-.001 1.5 1.5 0 013.001.001zM563.5 541.5a1.5 1.5 0 11-3.001-.001 1.5 1.5 0 013.001.001zM583.5 541.5a1.5 1.5 0 11-3.001-.001 1.5 1.5 0 013.001.001zM603.5 541.5a1.5 1.5 0 11-3.001-.001 1.5 1.5 0 013.001.001zM623.5 541.5a1.5 1.5 0 11-3.001-.001 1.5 1.5 0 013.001.001zM643.5 541.5a1.5 1.5 0 11-3.001-.001 1.5 1.5 0 013.001.001zM363.5 561.5a1.5 1.5 0 11-3.001-.001 1.5 1.5 0 013.001.001zM383.5 561.5a1.5 1.5 0 11-3.001-.001 1.5 1.5 0 013.001.001zM403.5 561.5a1.5 1.5 0 11-3.001-.001 1.5 1.5 0 013.001.001zM423.5 561.5a1.5 1.5 0 11-3.001-.001 1.5 1.5 0 013.001.001zM443.5 561.5a1.5 1.5 0 11-3.001-.001 1.5 1.5 0 013.001.001zM463.5 561.5a1.5 1.5 0 11-3.001-.001 1.5 1.5 0 013.001.001zM483.5 561.5a1.5 1.5 0 11-3.001-.001 1.5 1.5 0 013.001.001zM503.5 561.5a1.5 1.5 0 11-3.001-.001 1.5 1.5 0 013.001.001zM523.5 561.5a1.5 1.5 0 11-3.001-.001 1.5 1.5 0 013.001.001zM543.5 561.5a1.5 1.5 0 11-3.001-.001 1.5 1.5 0 013.001.001zM563.5 561.5a1.5 1.5 0 11-3.001-.001 1.5 1.5 0 013.001.001zM583.5 561.5a1.5 1.5 0 11-3.001-.001 1.5 1.5 0 013.001.001zM603.5 561.5a1.5 1.5 0 11-3.001-.001 1.5 1.5 0 013.001.001zM623.5 561.5a1.5 1.5 0 11-3.001-.001 1.5 1.5 0 013.001.001zM643.5 561.5a1.5 1.5 0 11-3.001-.001 1.5 1.5 0 013.001.001zM363.5 581.5a1.5 1.5 0 11-3.001-.001 1.5 1.5 0 013.001.001zM383.5 581.5a1.5 1.5 0 11-3.001-.001 1.5 1.5 0 013.001.001zM403.5 581.5a1.5 1.5 0 11-3.001-.001 1.5 1.5 0 013.001.001zM423.5 581.5a1.5 1.5 0 11-3.001-.001 1.5 1.5 0 013.001.001zM443.5 581.5a1.5 1.5 0 11-3.001-.001 1.5 1.5 0 013.001.001zM463.5 581.5a1.5 1.5 0 11-3.001-.001 1.5 1.5 0 013.001.001zM483.5 581.5a1.5 1.5 0 11-3.001-.001 1.5 1.5 0 013.001.001zM503.5 581.5a1.5 1.5 0 11-3.001-.001 1.5 1.5 0 013.001.001zM523.5 581.5a1.5 1.5 0 11-3.001-.001 1.5 1.5 0 013.001.001zM543.5 581.5a1.5 1.5 0 11-3.001-.001 1.5 1.5 0 013.001.001zM563.5 581.5a1.5 1.5 0 11-3.001-.001 1.5 1.5 0 013.001.001zM583.5 581.5a1.5 1.5 0 11-3.001-.001 1.5 1.5 0 013.001.001zM603.5 581.5a1.5 1.5 0 11-3.001-.001 1.5 1.5 0 013.001.001zM623.5 581.5a1.5 1.5 0 11-3.001-.001 1.5 1.5 0 013.001.001zM643.5 581.5a1.5 1.5 0 11-3.001-.001 1.5 1.5 0 013.001.001zM363.5 601.5a1.5 1.5 0 11-3.001-.001 1.5 1.5 0 013.001.001zM383.5 601.5a1.5 1.5 0 11-3.001-.001 1.5 1.5 0 013.001.001zM403.5 601.5a1.5 1.5 0 11-3.001-.001 1.5 1.5 0 013.001.001zM423.5 601.5a1.5 1.5 0 11-3.001-.001 1.5 1.5 0 013.001.001zM443.5 601.5a1.5 1.5 0 11-3.001-.001 1.5 1.5 0 013.001.001zM463.5 601.5a1.5 1.5 0 11-3.001-.001 1.5 1.5 0 013.001.001zM483.5 601.5a1.5 1.5 0 11-3.001-.001 1.5 1.5 0 013.001.001zM503.5 601.5a1.5 1.5 0 11-3.001-.001 1.5 1.5 0 013.001.001zM523.5 601.5a1.5 1.5 0 11-3.001-.001 1.5 1.5 0 013.001.001zM543.5 601.5a1.5 1.5 0 11-3.001-.001 1.5 1.5 0 013.001.001zM563.5 601.5a1.5 1.5 0 11-3.001-.001 1.5 1.5 0 013.001.001zM583.5 601.5a1.5 1.5 0 11-3.001-.001 1.5 1.5 0 013.001.001zM603.5 601.5a1.5 1.5 0 11-3.001-.001 1.5 1.5 0 013.001.001zM623.5 601.5a1.5 1.5 0 11-3.001-.001 1.5 1.5 0 013.001.001zM643.5 601.5a1.5 1.5 0 11-3.001-.001 1.5 1.5 0 013.001.001zM363.5 621.5a1.5 1.5 0 11-3.001-.001 1.5 1.5 0 013.001.001zM383.5 621.5a1.5 1.5 0 11-3.001-.001 1.5 1.5 0 013.001.001zM403.5 621.5a1.5 1.5 0 11-3.001-.001 1.5 1.5 0 013.001.001zM423.5 621.5a1.5 1.5 0 11-3.001-.001 1.5 1.5 0 013.001.001zM443.5 621.5a1.5 1.5 0 11-3.001-.001 1.5 1.5 0 013.001.001zM463.5 621.5a1.5 1.5 0 11-3.001-.001 1.5 1.5 0 013.001.001zM483.5 621.5a1.5 1.5 0 11-3.001-.001 1.5 1.5 0 013.001.001zM503.5 621.5a1.5 1.5 0 11-3.001-.001 1.5 1.5 0 013.001.001zM523.5 621.5a1.5 1.5 0 11-3.001-.001 1.5 1.5 0 013.001.001zM543.5 621.5a1.5 1.5 0 11-3.001-.001 1.5 1.5 0 013.001.001zM563.5 621.5a1.5 1.5 0 11-3.001-.001 1.5 1.5 0 013.001.001zM583.5 621.5a1.5 1.5 0 11-3.001-.001 1.5 1.5 0 013.001.001zM603.5 621.5a1.5 1.5 0 11-3.001-.001 1.5 1.5 0 013.001.001zM623.5 621.5a1.5 1.5 0 11-3.001-.001 1.5 1.5 0 013.001.001zM643.5 621.5a1.5 1.5 0 11-3.001-.001 1.5 1.5 0 013.001.001zM363.5 641.5a1.5 1.5 0 11-3.001-.001 1.5 1.5 0 013.001.001zM383.5 641.5a1.5 1.5 0 11-3.001-.001 1.5 1.5 0 013.001.001zM403.5 641.5a1.5 1.5 0 11-3.001-.001 1.5 1.5 0 013.001.001zM423.5 641.5a1.5 1.5 0 11-3.001-.001 1.5 1.5 0 013.001.001zM443.5 641.5a1.5 1.5 0 11-3.001-.001 1.5 1.5 0 013.001.001zM463.5 641.5a1.5 1.5 0 11-3.001-.001 1.5 1.5 0 013.001.001zM483.5 641.5a1.5 1.5 0 11-3.001-.001 1.5 1.5 0 013.001.001zM503.5 641.5a1.5 1.5 0 11-3.001-.001 1.5 1.5 0 013.001.001zM523.5 641.5a1.5 1.5 0 11-3.001-.001 1.5 1.5 0 013.001.001zM543.5 641.5a1.5 1.5 0 11-3.001-.001 1.5 1.5 0 013.001.001zM563.5 641.5a1.5 1.5 0 11-3.001-.001 1.5 1.5 0 013.001.001zM583.5 641.5a1.5 1.5 0 11-3.001-.001 1.5 1.5 0 013.001.001zM603.5 641.5a1.5 1.5 0 11-3.001-.001 1.5 1.5 0 013.001.001zM623.5 641.5a1.5 1.5 0 11-3.001-.001 1.5 1.5 0 013.001.001zM643.5 641.5a1.5 1.5 0 11-3.001-.001 1.5 1.5 0 013.001.001zM363.5 661.5a1.5 1.5 0 11-3.001-.001 1.5 1.5 0 013.001.001zM383.5 661.5a1.5 1.5 0 11-3.001-.001 1.5 1.5 0 013.001.001zM403.5 661.5a1.5 1.5 0 11-3.001-.001 1.5 1.5 0 013.001.001zM423.5 661.5a1.5 1.5 0 11-3.001-.001 1.5 1.5 0 013.001.001zM443.5 661.5a1.5 1.5 0 11-3.001-.001 1.5 1.5 0 013.001.001zM463.5 661.5a1.5 1.5 0 11-3.001-.001 1.5 1.5 0 013.001.001zM483.5 661.5a1.5 1.5 0 11-3.001-.001 1.5 1.5 0 013.001.001zM503.5 661.5a1.5 1.5 0 11-3.001-.001 1.5 1.5 0 013.001.001zM523.5 661.5a1.5 1.5 0 11-3.001-.001 1.5 1.5 0 013.001.001zM543.5 661.5a1.5 1.5 0 11-3.001-.001 1.5 1.5 0 013.001.001zM563.5 661.5a1.5 1.5 0 11-3.001-.001 1.5 1.5 0 013.001.001zM583.5 661.5a1.5 1.5 0 11-3.001-.001 1.5 1.5 0 013.001.001zM603.5 661.5a1.5 1.5 0 11-3.001-.001 1.5 1.5 0 013.001.001zM623.5 661.5a1.5 1.5 0 11-3.001-.001 1.5 1.5 0 013.001.001zM643.5 661.5a1.5 1.5 0 11-3.001-.001 1.5 1.5 0 013.001.001zM663.5 441.5a1.5 1.5 0 11-3.001-.001 1.5 1.5 0 013.001.001zM683.5 441.5a1.5 1.5 0 11-3.001-.001 1.5 1.5 0 013.001.001zM703.5 441.5a1.5 1.5 0 11-3.001-.001 1.5 1.5 0 013.001.001zM723.5 441.5a1.5 1.5 0 11-3.001-.001 1.5 1.5 0 013.001.001zM743.5 441.5a1.5 1.5 0 11-3.001-.001 1.5 1.5 0 013.001.001zM763.5 441.5a1.5 1.5 0 11-3.001-.001 1.5 1.5 0 013.001.001zM783.5 441.5a1.5 1.5 0 11-3.001-.001 1.5 1.5 0 013.001.001zM803.5 441.5a1.5 1.5 0 11-3.001-.001 1.5 1.5 0 013.001.001zM823.5 441.5a1.5 1.5 0 11-3.001-.001 1.5 1.5 0 013.001.001zM663.5 461.5a1.5 1.5 0 11-3.001-.001 1.5 1.5 0 013.001.001zM683.5 461.5a1.5 1.5 0 11-3.001-.001 1.5 1.5 0 013.001.001zM703.5 461.5a1.5 1.5 0 11-3.001-.001 1.5 1.5 0 013.001.001zM723.5 461.5a1.5 1.5 0 11-3.001-.001 1.5 1.5 0 013.001.001zM743.5 461.5a1.5 1.5 0 11-3.001-.001 1.5 1.5 0 013.001.001zM763.5 461.5a1.5 1.5 0 11-3.001-.001 1.5 1.5 0 013.001.001zM783.5 461.5a1.5 1.5 0 11-3.001-.001 1.5 1.5 0 013.001.001zM803.5 461.5a1.5 1.5 0 11-3.001-.001 1.5 1.5 0 013.001.001zM823.5 461.5a1.5 1.5 0 11-3.001-.001 1.5 1.5 0 013.001.001zM663.5 481.5a1.5 1.5 0 11-3.001-.001 1.5 1.5 0 013.001.001zM683.5 481.5a1.5 1.5 0 11-3.001-.001 1.5 1.5 0 013.001.001zM703.5 481.5a1.5 1.5 0 11-3.001-.001 1.5 1.5 0 013.001.001zM723.5 481.5a1.5 1.5 0 11-3.001-.001 1.5 1.5 0 013.001.001zM743.5 481.5a1.5 1.5 0 11-3.001-.001 1.5 1.5 0 013.001.001zM763.5 481.5a1.5 1.5 0 11-3.001-.001 1.5 1.5 0 013.001.001zM783.5 481.5a1.5 1.5 0 11-3.001-.001 1.5 1.5 0 013.001.001zM803.5 481.5a1.5 1.5 0 11-3.001-.001 1.5 1.5 0 013.001.001zM823.5 481.5a1.5 1.5 0 11-3.001-.001 1.5 1.5 0 013.001.001zM663.5 501.5a1.5 1.5 0 11-3.001-.001 1.5 1.5 0 013.001.001zM683.5 501.5a1.5 1.5 0 11-3.001-.001 1.5 1.5 0 013.001.001zM703.5 501.5a1.5 1.5 0 11-3.001-.001 1.5 1.5 0 013.001.001zM723.5 501.5a1.5 1.5 0 11-3.001-.001 1.5 1.5 0 013.001.001zM743.5 501.5a1.5 1.5 0 11-3.001-.001 1.5 1.5 0 013.001.001zM763.5 501.5a1.5 1.5 0 11-3.001-.001 1.5 1.5 0 013.001.001zM783.5 501.5a1.5 1.5 0 11-3.001-.001 1.5 1.5 0 013.001.001zM803.5 501.5a1.5 1.5 0 11-3.001-.001 1.5 1.5 0 013.001.001zM823.5 501.5a1.5 1.5 0 11-3.001-.001 1.5 1.5 0 013.001.001zM663.5 521.5a1.5 1.5 0 11-3.001-.001 1.5 1.5 0 013.001.001zM683.5 521.5a1.5 1.5 0 11-3.001-.001 1.5 1.5 0 013.001.001zM703.5 521.5a1.5 1.5 0 11-3.001-.001 1.5 1.5 0 013.001.001zM723.5 521.5a1.5 1.5 0 11-3.001-.001 1.5 1.5 0 013.001.001zM743.5 521.5a1.5 1.5 0 11-3.001-.001 1.5 1.5 0 013.001.001zM763.5 521.5a1.5 1.5 0 11-3.001-.001 1.5 1.5 0 013.001.001zM783.5 521.5a1.5 1.5 0 11-3.001-.001 1.5 1.5 0 013.001.001zM803.5 521.5a1.5 1.5 0 11-3.001-.001 1.5 1.5 0 013.001.001zM823.5 521.5a1.5 1.5 0 11-3.001-.001 1.5 1.5 0 013.001.001zM663.5 541.5a1.5 1.5 0 11-3.001-.001 1.5 1.5 0 013.001.001zM683.5 541.5a1.5 1.5 0 11-3.001-.001 1.5 1.5 0 013.001.001zM703.5 541.5a1.5 1.5 0 11-3.001-.001 1.5 1.5 0 013.001.001zM723.5 541.5a1.5 1.5 0 11-3.001-.001 1.5 1.5 0 013.001.001zM743.5 541.5a1.5 1.5 0 11-3.001-.001 1.5 1.5 0 013.001.001zM763.5 541.5a1.5 1.5 0 11-3.001-.001 1.5 1.5 0 013.001.001zM783.5 541.5a1.5 1.5 0 11-3.001-.001 1.5 1.5 0 013.001.001zM803.5 541.5a1.5 1.5 0 11-3.001-.001 1.5 1.5 0 013.001.001zM823.5 541.5a1.5 1.5 0 11-3.001-.001 1.5 1.5 0 013.001.001zM663.5 561.5a1.5 1.5 0 11-3.001-.001 1.5 1.5 0 013.001.001zM683.5 561.5a1.5 1.5 0 11-3.001-.001 1.5 1.5 0 013.001.001zM703.5 561.5a1.5 1.5 0 11-3.001-.001 1.5 1.5 0 013.001.001zM723.5 561.5a1.5 1.5 0 11-3.001-.001 1.5 1.5 0 013.001.001zM743.5 561.5a1.5 1.5 0 11-3.001-.001 1.5 1.5 0 013.001.001zM763.5 561.5a1.5 1.5 0 11-3.001-.001 1.5 1.5 0 013.001.001zM783.5 561.5a1.5 1.5 0 11-3.001-.001 1.5 1.5 0 013.001.001zM803.5 561.5a1.5 1.5 0 11-3.001-.001 1.5 1.5 0 013.001.001zM823.5 561.5a1.5 1.5 0 11-3.001-.001 1.5 1.5 0 013.001.001zM663.5 581.5a1.5 1.5 0 11-3.001-.001 1.5 1.5 0 013.001.001zM683.5 581.5a1.5 1.5 0 11-3.001-.001 1.5 1.5 0 013.001.001zM703.5 581.5a1.5 1.5 0 11-3.001-.001 1.5 1.5 0 013.001.001zM723.5 581.5a1.5 1.5 0 11-3.001-.001 1.5 1.5 0 013.001.001zM743.5 581.5a1.5 1.5 0 11-3.001-.001 1.5 1.5 0 013.001.001zM763.5 581.5a1.5 1.5 0 11-3.001-.001 1.5 1.5 0 013.001.001zM783.5 581.5a1.5 1.5 0 11-3.001-.001 1.5 1.5 0 013.001.001zM803.5 581.5a1.5 1.5 0 11-3.001-.001 1.5 1.5 0 013.001.001zM663.5 601.5a1.5 1.5 0 11-3.001-.001 1.5 1.5 0 013.001.001zM683.5 601.5a1.5 1.5 0 11-3.001-.001 1.5 1.5 0 013.001.001zM703.5 601.5a1.5 1.5 0 11-3.001-.001 1.5 1.5 0 013.001.001zM723.5 601.5a1.5 1.5 0 11-3.001-.001 1.5 1.5 0 013.001.001zM743.5 601.5a1.5 1.5 0 11-3.001-.001 1.5 1.5 0 013.001.001zM763.5 601.5a1.5 1.5 0 11-3.001-.001 1.5 1.5 0 013.001.001zM663.5 621.5a1.5 1.5 0 11-3.001-.001 1.5 1.5 0 013.001.001zM683.5 621.5a1.5 1.5 0 11-3.001-.001 1.5 1.5 0 013.001.001zM703.5 621.5a1.5 1.5 0 11-3.001-.001 1.5 1.5 0 013.001.001zM723.5 621.5a1.5 1.5 0 11-3.001-.001 1.5 1.5 0 013.001.001zM663.5 641.5a1.5 1.5 0 11-3.001-.001 1.5 1.5 0 013.001.001zM683.5 641.5a1.5 1.5 0 11-3.001-.001 1.5 1.5 0 013.001.001zM143.5 681.5a1.5 1.5 0 11-3.001-.001 1.5 1.5 0 013.001.001zM163.5 681.5a1.5 1.5 0 11-3.001-.001 1.5 1.5 0 013.001.001zM183.5 681.5a1.5 1.5 0 11-3.001-.001 1.5 1.5 0 013.001.001zM203.5 681.5a1.5 1.5 0 11-3.001-.001 1.5 1.5 0 013.001.001zM223.5 681.5a1.5 1.5 0 11-3.001-.001 1.5 1.5 0 013.001.001zM243.5 681.5a1.5 1.5 0 11-3.001-.001 1.5 1.5 0 013.001.001zM263.5 681.5a1.5 1.5 0 11-3.001-.001 1.5 1.5 0 013.001.001zM283.5 681.5a1.5 1.5 0 11-3.001-.001 1.5 1.5 0 013.001.001zM303.5 681.5a1.5 1.5 0 11-3.001-.001 1.5 1.5 0 013.001.001zM323.5 681.5a1.5 1.5 0 11-3.001-.001 1.5 1.5 0 013.001.001zM343.5 681.5a1.5 1.5 0 11-3.001-.001 1.5 1.5 0 013.001.001zM363.5 681.5a1.5 1.5 0 11-3.001-.001 1.5 1.5 0 013.001.001zM383.5 681.5a1.5 1.5 0 11-3.001-.001 1.5 1.5 0 013.001.001zM403.5 681.5a1.5 1.5 0 11-3.001-.001 1.5 1.5 0 013.001.001zM423.5 681.5a1.5 1.5 0 11-3.001-.001 1.5 1.5 0 013.001.001zM443.5 681.5a1.5 1.5 0 11-3.001-.001 1.5 1.5 0 013.001.001zM463.5 681.5a1.5 1.5 0 11-3.001-.001 1.5 1.5 0 013.001.001zM483.5 681.5a1.5 1.5 0 11-3.001-.001 1.5 1.5 0 013.001.001zM503.5 681.5a1.5 1.5 0 11-3.001-.001 1.5 1.5 0 013.001.001zM523.5 681.5a1.5 1.5 0 11-3.001-.001 1.5 1.5 0 013.001.001zM543.5 681.5a1.5 1.5 0 11-3.001-.001 1.5 1.5 0 013.001.001zM563.5 681.5a1.5 1.5 0 11-3.001-.001 1.5 1.5 0 013.001.001zM583.5 681.5a1.5 1.5 0 11-3.001-.001 1.5 1.5 0 013.001.001zM43.5 121.5a1.5 1.5 0 11-3 0 1.5 1.5 0 013 0zM23.5 141.5a1.5 1.5 0 11-3 0 1.5 1.5 0 013 0zM43.5 141.5a1.5 1.5 0 11-3 0 1.5 1.5 0 013 0zM23.5 161.5a1.5 1.5 0 11-3 0 1.5 1.5 0 013 0zM43.5 161.5a1.5 1.5 0 11-3 0 1.5 1.5 0 013 0zM23.5 181.5a1.5 1.5 0 11-3 0 1.5 1.5 0 013 0zM43.5 181.5a1.5 1.5 0 11-3 0 1.5 1.5 0 013 0zM243.5 1.5a1.5 1.5 0 11-3 0 1.5 1.5 0 013 0zM263.5 1.5a1.5 1.5 0 11-3 0 1.5 1.5 0 013 0zM283.5 1.5a1.5 1.5 0 11-3 0 1.5 1.5 0 013 0zM303.5 1.5a1.5 1.5 0 11-3 0 1.5 1.5 0 013 0zM323.5 1.5a1.5 1.5 0 11-3 0 1.5 1.5 0 013 0zM343.5 1.5a1.5 1.5 0 11-3 0 1.5 1.5 0 013 0zM123.5 21.5a1.5 1.5 0 11-3 0 1.5 1.5 0 013 0zM143.5 21.5a1.5 1.5 0 11-3 0 1.5 1.5 0 013 0zM163.5 21.5a1.5 1.5 0 11-3 0 1.5 1.5 0 013 0zM183.5 21.5a1.5 1.5 0 11-3 0 1.5 1.5 0 013 0zM203.5 21.5a1.5 1.5 0 11-3 0 1.5 1.5 0 013 0zM223.5 21.5a1.5 1.5 0 11-3 0 1.5 1.5 0 013 0zM243.5 21.5a1.5 1.5 0 11-3 0 1.5 1.5 0 013 0zM263.5 21.5a1.5 1.5 0 11-3 0 1.5 1.5 0 013 0zM283.5 21.5a1.5 1.5 0 11-3 0 1.5 1.5 0 013 0zM303.5 21.5a1.5 1.5 0 11-3 0 1.5 1.5 0 013 0zM323.5 21.5a1.5 1.5 0 11-3 0 1.5 1.5 0 013 0zM343.5 21.5a1.5 1.5 0 11-3 0 1.5 1.5 0 013 0zM103.5 41.5a1.5 1.5 0 11-3 0 1.5 1.5 0 013 0zM123.5 41.5a1.5 1.5 0 11-3 0 1.5 1.5 0 013 0zM143.5 41.5a1.5 1.5 0 11-3 0 1.5 1.5 0 013 0zM163.5 41.5a1.5 1.5 0 11-3 0 1.5 1.5 0 013 0zM183.5 41.5a1.5 1.5 0 11-3 0 1.5 1.5 0 013 0zM203.5 41.5a1.5 1.5 0 11-3 0 1.5 1.5 0 013 0zM223.5 41.5a1.5 1.5 0 11-3 0 1.5 1.5 0 013 0zM243.5 41.5a1.5 1.5 0 11-3 0 1.5 1.5 0 013 0zM263.5 41.5a1.5 1.5 0 11-3 0 1.5 1.5 0 013 0zM283.5 41.5a1.5 1.5 0 11-3 0 1.5 1.5 0 013 0zM303.5 41.5a1.5 1.5 0 11-3 0 1.5 1.5 0 013 0zM323.5 41.5a1.5 1.5 0 11-3 0 1.5 1.5 0 013 0zM343.5 41.5a1.5 1.5 0 11-3 0 1.5 1.5 0 013 0zM83.5 61.5a1.5 1.5 0 11-3 0 1.5 1.5 0 013 0zM103.5 61.5a1.5 1.5 0 11-3 0 1.5 1.5 0 013 0zM123.5 61.5a1.5 1.5 0 11-3 0 1.5 1.5 0 013 0zM143.5 61.5a1.5 1.5 0 11-3 0 1.5 1.5 0 013 0zM163.5 61.5a1.5 1.5 0 11-3 0 1.5 1.5 0 013 0zM183.5 61.5a1.5 1.5 0 11-3 0 1.5 1.5 0 013 0zM203.5 61.5a1.5 1.5 0 11-3 0 1.5 1.5 0 013 0zM223.5 61.5a1.5 1.5 0 11-3 0 1.5 1.5 0 013 0zM243.5 61.5a1.5 1.5 0 11-3 0 1.5 1.5 0 013 0zM263.5 61.5a1.5 1.5 0 11-3 0 1.5 1.5 0 013 0zM283.5 61.5a1.5 1.5 0 11-3 0 1.5 1.5 0 013 0zM303.5 61.5a1.5 1.5 0 11-3 0 1.5 1.5 0 013 0zM323.5 61.5a1.5 1.5 0 11-3 0 1.5 1.5 0 013 0zM343.5 61.5a1.5 1.5 0 11-3 0 1.5 1.5 0 013 0zM83.5 81.5a1.5 1.5 0 11-3 0 1.5 1.5 0 013 0zM103.5 81.5a1.5 1.5 0 11-3 0 1.5 1.5 0 013 0zM123.5 81.5a1.5 1.5 0 11-3 0 1.5 1.5 0 013 0zM143.5 81.5a1.5 1.5 0 11-3 0 1.5 1.5 0 013 0zM163.5 81.5a1.5 1.5 0 11-3 0 1.5 1.5 0 013 0zM183.5 81.5a1.5 1.5 0 11-3 0 1.5 1.5 0 013 0zM203.5 81.5a1.5 1.5 0 11-3 0 1.5 1.5 0 013 0zM223.5 81.5a1.5 1.5 0 11-3 0 1.5 1.5 0 013 0zM243.5 81.5a1.5 1.5 0 11-3 0 1.5 1.5 0 013 0zM263.5 81.5a1.5 1.5 0 11-3 0 1.5 1.5 0 013 0zM283.5 81.5a1.5 1.5 0 11-3 0 1.5 1.5 0 013 0zM303.5 81.5a1.5 1.5 0 11-3 0 1.5 1.5 0 013 0zM323.5 81.5a1.5 1.5 0 11-3 0 1.5 1.5 0 013 0zM343.5 81.5a1.5 1.5 0 11-3 0 1.5 1.5 0 013 0zM63.5 101.5a1.5 1.5 0 11-3 0 1.5 1.5 0 013 0zM83.5 101.5a1.5 1.5 0 11-3 0 1.5 1.5 0 013 0zM103.5 101.5a1.5 1.5 0 11-3.001-.001 1.5 1.5 0 013.001.001zM123.5 101.5a1.5 1.5 0 11-3.001-.001 1.5 1.5 0 013.001.001zM143.5 101.5a1.5 1.5 0 11-3.001-.001 1.5 1.5 0 013.001.001zM163.5 101.5a1.5 1.5 0 11-3.001-.001 1.5 1.5 0 013.001.001zM183.5 101.5a1.5 1.5 0 11-3.001-.001 1.5 1.5 0 013.001.001zM203.5 101.5a1.5 1.5 0 11-3.001-.001 1.5 1.5 0 013.001.001zM223.5 101.5a1.5 1.5 0 11-3.001-.001 1.5 1.5 0 013.001.001zM243.5 101.5a1.5 1.5 0 11-3.001-.001 1.5 1.5 0 013.001.001zM263.5 101.5a1.5 1.5 0 11-3.001-.001 1.5 1.5 0 013.001.001zM283.5 101.5a1.5 1.5 0 11-3.001-.001 1.5 1.5 0 013.001.001zM303.5 101.5a1.5 1.5 0 11-3.001-.001 1.5 1.5 0 013.001.001zM323.5 101.5a1.5 1.5 0 11-3.001-.001 1.5 1.5 0 013.001.001zM343.5 101.5a1.5 1.5 0 11-3.001-.001 1.5 1.5 0 013.001.001zM63.5 121.5a1.5 1.5 0 11-3 0 1.5 1.5 0 013 0zM83.5 121.5a1.5 1.5 0 11-3 0 1.5 1.5 0 013 0zM103.5 121.5a1.5 1.5 0 11-3.001-.001 1.5 1.5 0 013.001.001zM123.5 121.5a1.5 1.5 0 11-3.001-.001 1.5 1.5 0 013.001.001zM143.5 121.5a1.5 1.5 0 11-3.001-.001 1.5 1.5 0 013.001.001zM163.5 121.5a1.5 1.5 0 11-3.001-.001 1.5 1.5 0 013.001.001zM183.5 121.5a1.5 1.5 0 11-3.001-.001 1.5 1.5 0 013.001.001zM203.5 121.5a1.5 1.5 0 11-3.001-.001 1.5 1.5 0 013.001.001zM223.5 121.5a1.5 1.5 0 11-3.001-.001 1.5 1.5 0 013.001.001zM243.5 121.5a1.5 1.5 0 11-3.001-.001 1.5 1.5 0 013.001.001zM263.5 121.5a1.5 1.5 0 11-3.001-.001 1.5 1.5 0 013.001.001zM283.5 121.5a1.5 1.5 0 11-3.001-.001 1.5 1.5 0 013.001.001zM303.5 121.5a1.5 1.5 0 11-3.001-.001 1.5 1.5 0 013.001.001zM323.5 121.5a1.5 1.5 0 11-3.001-.001 1.5 1.5 0 013.001.001zM343.5 121.5a1.5 1.5 0 11-3.001-.001 1.5 1.5 0 013.001.001zM63.5 141.5a1.5 1.5 0 11-3 0 1.5 1.5 0 013 0zM83.5 141.5a1.5 1.5 0 11-3 0 1.5 1.5 0 013 0zM103.5 141.5a1.5 1.5 0 11-3.001-.001 1.5 1.5 0 013.001.001zM123.5 141.5a1.5 1.5 0 11-3.001-.001 1.5 1.5 0 013.001.001zM143.5 141.5a1.5 1.5 0 11-3.001-.001 1.5 1.5 0 013.001.001zM163.5 141.5a1.5 1.5 0 11-3.001-.001 1.5 1.5 0 013.001.001zM183.5 141.5a1.5 1.5 0 11-3.001-.001 1.5 1.5 0 013.001.001zM203.5 141.5a1.5 1.5 0 11-3.001-.001 1.5 1.5 0 013.001.001zM223.5 141.5a1.5 1.5 0 11-3.001-.001 1.5 1.5 0 013.001.001zM243.5 141.5a1.5 1.5 0 11-3.001-.001 1.5 1.5 0 013.001.001zM263.5 141.5a1.5 1.5 0 11-3.001-.001 1.5 1.5 0 013.001.001zM283.5 141.5a1.5 1.5 0 11-3.001-.001 1.5 1.5 0 013.001.001zM303.5 141.5a1.5 1.5 0 11-3.001-.001 1.5 1.5 0 013.001.001zM323.5 141.5a1.5 1.5 0 11-3.001-.001 1.5 1.5 0 013.001.001zM343.5 141.5a1.5 1.5 0 11-3.001-.001 1.5 1.5 0 013.001.001zM63.5 161.5a1.5 1.5 0 11-3 0 1.5 1.5 0 013 0zM83.5 161.5a1.5 1.5 0 11-3 0 1.5 1.5 0 013 0zM103.5 161.5a1.5 1.5 0 11-3.001-.001 1.5 1.5 0 013.001.001zM123.5 161.5a1.5 1.5 0 11-3.001-.001 1.5 1.5 0 013.001.001zM143.5 161.5a1.5 1.5 0 11-3.001-.001 1.5 1.5 0 013.001.001zM163.5 161.5a1.5 1.5 0 11-3.001-.001 1.5 1.5 0 013.001.001zM183.5 161.5a1.5 1.5 0 11-3.001-.001 1.5 1.5 0 013.001.001zM203.5 161.5a1.5 1.5 0 11-3.001-.001 1.5 1.5 0 013.001.001zM223.5 161.5a1.5 1.5 0 11-3.001-.001 1.5 1.5 0 013.001.001zM243.5 161.5a1.5 1.5 0 11-3.001-.001 1.5 1.5 0 013.001.001zM263.5 161.5a1.5 1.5 0 11-3.001-.001 1.5 1.5 0 013.001.001zM283.5 161.5a1.5 1.5 0 11-3.001-.001 1.5 1.5 0 013.001.001zM303.5 161.5a1.5 1.5 0 11-3.001-.001 1.5 1.5 0 013.001.001zM323.5 161.5a1.5 1.5 0 11-3.001-.001 1.5 1.5 0 013.001.001zM343.5 161.5a1.5 1.5 0 11-3.001-.001 1.5 1.5 0 013.001.001zM63.5 181.5a1.5 1.5 0 11-3 0 1.5 1.5 0 013 0zM83.5 181.5a1.5 1.5 0 11-3 0 1.5 1.5 0 013 0zM103.5 181.5a1.5 1.5 0 11-3.001-.001 1.5 1.5 0 013.001.001zM123.5 181.5a1.5 1.5 0 11-3.001-.001 1.5 1.5 0 013.001.001zM143.5 181.5a1.5 1.5 0 11-3.001-.001 1.5 1.5 0 013.001.001zM163.5 181.5a1.5 1.5 0 11-3.001-.001 1.5 1.5 0 013.001.001zM183.5 181.5a1.5 1.5 0 11-3.001-.001 1.5 1.5 0 013.001.001zM203.5 181.5a1.5 1.5 0 11-3.001-.001 1.5 1.5 0 013.001.001zM223.5 181.5a1.5 1.5 0 11-3.001-.001 1.5 1.5 0 013.001.001zM243.5 181.5a1.5 1.5 0 11-3.001-.001 1.5 1.5 0 013.001.001zM263.5 181.5a1.5 1.5 0 11-3.001-.001 1.5 1.5 0 013.001.001zM283.5 181.5a1.5 1.5 0 11-3.001-.001 1.5 1.5 0 013.001.001zM303.5 181.5a1.5 1.5 0 11-3.001-.001 1.5 1.5 0 013.001.001zM323.5 181.5a1.5 1.5 0 11-3.001-.001 1.5 1.5 0 013.001.001zM343.5 181.5a1.5 1.5 0 11-3.001-.001 1.5 1.5 0 013.001.001zM363.5 1.5a1.5 1.5 0 11-3 0 1.5 1.5 0 013 0zM383.5 1.5a1.5 1.5 0 11-3 0 1.5 1.5 0 013 0zM403.5 1.5a1.5 1.5 0 11-3 0 1.5 1.5 0 013 0zM423.5 1.5a1.5 1.5 0 11-3 0 1.5 1.5 0 013 0zM443.5 1.5a1.5 1.5 0 11-3 0 1.5 1.5 0 013 0zM463.5 1.5a1.5 1.5 0 11-3 0 1.5 1.5 0 013 0zM483.5 1.5a1.5 1.5 0 11-3 0 1.5 1.5 0 013 0zM503.5 1.5a1.5 1.5 0 11-3 0 1.5 1.5 0 013 0zM523.5 1.5a1.5 1.5 0 11-3 0 1.5 1.5 0 013 0zM543.5 1.5a1.5 1.5 0 11-3 0 1.5 1.5 0 013 0zM563.5 1.5a1.5 1.5 0 11-3 0 1.5 1.5 0 013 0zM583.5 1.5a1.5 1.5 0 11-3 0 1.5 1.5 0 013 0zM603.5 1.5a1.5 1.5 0 11-3 0 1.5 1.5 0 013 0zM623.5 1.5a1.5 1.5 0 11-3 0 1.5 1.5 0 013 0zM643.5 1.5a1.5 1.5 0 11-3 0 1.5 1.5 0 013 0zM363.5 21.5a1.5 1.5 0 11-3 0 1.5 1.5 0 013 0zM383.5 21.5a1.5 1.5 0 11-3 0 1.5 1.5 0 013 0zM403.5 21.5a1.5 1.5 0 11-3 0 1.5 1.5 0 013 0zM423.5 21.5a1.5 1.5 0 11-3 0 1.5 1.5 0 013 0zM443.5 21.5a1.5 1.5 0 11-3 0 1.5 1.5 0 013 0zM463.5 21.5a1.5 1.5 0 11-3 0 1.5 1.5 0 013 0zM483.5 21.5a1.5 1.5 0 11-3 0 1.5 1.5 0 013 0zM503.5 21.5a1.5 1.5 0 11-3 0 1.5 1.5 0 013 0zM523.5 21.5a1.5 1.5 0 11-3 0 1.5 1.5 0 013 0zM543.5 21.5a1.5 1.5 0 11-3 0 1.5 1.5 0 013 0zM563.5 21.5a1.5 1.5 0 11-3 0 1.5 1.5 0 013 0zM583.5 21.5a1.5 1.5 0 11-3 0 1.5 1.5 0 013 0zM603.5 21.5a1.5 1.5 0 11-3 0 1.5 1.5 0 013 0zM623.5 21.5a1.5 1.5 0 11-3 0 1.5 1.5 0 013 0zM643.5 21.5a1.5 1.5 0 11-3 0 1.5 1.5 0 013 0zM363.5 41.5a1.5 1.5 0 11-3 0 1.5 1.5 0 013 0zM383.5 41.5a1.5 1.5 0 11-3 0 1.5 1.5 0 013 0zM403.5 41.5a1.5 1.5 0 11-3 0 1.5 1.5 0 013 0zM423.5 41.5a1.5 1.5 0 11-3 0 1.5 1.5 0 013 0zM443.5 41.5a1.5 1.5 0 11-3 0 1.5 1.5 0 013 0zM463.5 41.5a1.5 1.5 0 11-3 0 1.5 1.5 0 013 0zM483.5 41.5a1.5 1.5 0 11-3 0 1.5 1.5 0 013 0zM503.5 41.5a1.5 1.5 0 11-3 0 1.5 1.5 0 013 0zM523.5 41.5a1.5 1.5 0 11-3 0 1.5 1.5 0 013 0zM543.5 41.5a1.5 1.5 0 11-3 0 1.5 1.5 0 013 0zM563.5 41.5a1.5 1.5 0 11-3 0 1.5 1.5 0 013 0zM583.5 41.5a1.5 1.5 0 11-3 0 1.5 1.5 0 013 0zM603.5 41.5a1.5 1.5 0 11-3 0 1.5 1.5 0 013 0zM623.5 41.5a1.5 1.5 0 11-3 0 1.5 1.5 0 013 0zM643.5 41.5a1.5 1.5 0 11-3 0 1.5 1.5 0 013 0zM363.5 61.5a1.5 1.5 0 11-3 0 1.5 1.5 0 013 0zM383.5 61.5a1.5 1.5 0 11-3 0 1.5 1.5 0 013 0zM403.5 61.5a1.5 1.5 0 11-3 0 1.5 1.5 0 013 0zM423.5 61.5a1.5 1.5 0 11-3 0 1.5 1.5 0 013 0zM443.5 61.5a1.5 1.5 0 11-3 0 1.5 1.5 0 013 0zM463.5 61.5a1.5 1.5 0 11-3 0 1.5 1.5 0 013 0zM483.5 61.5a1.5 1.5 0 11-3 0 1.5 1.5 0 013 0zM503.5 61.5a1.5 1.5 0 11-3 0 1.5 1.5 0 013 0zM523.5 61.5a1.5 1.5 0 11-3 0 1.5 1.5 0 013 0zM543.5 61.5a1.5 1.5 0 11-3 0 1.5 1.5 0 013 0zM563.5 61.5a1.5 1.5 0 11-3 0 1.5 1.5 0 013 0zM583.5 61.5a1.5 1.5 0 11-3 0 1.5 1.5 0 013 0zM603.5 61.5a1.5 1.5 0 11-3 0 1.5 1.5 0 013 0zM623.5 61.5a1.5 1.5 0 11-3 0 1.5 1.5 0 013 0zM643.5 61.5a1.5 1.5 0 11-3 0 1.5 1.5 0 013 0zM363.5 81.5a1.5 1.5 0 11-3 0 1.5 1.5 0 013 0zM383.5 81.5a1.5 1.5 0 11-3 0 1.5 1.5 0 013 0zM403.5 81.5a1.5 1.5 0 11-3 0 1.5 1.5 0 013 0zM423.5 81.5a1.5 1.5 0 11-3 0 1.5 1.5 0 013 0zM443.5 81.5a1.5 1.5 0 11-3 0 1.5 1.5 0 013 0zM463.5 81.5a1.5 1.5 0 11-3 0 1.5 1.5 0 013 0zM483.5 81.5a1.5 1.5 0 11-3 0 1.5 1.5 0 013 0zM503.5 81.5a1.5 1.5 0 11-3 0 1.5 1.5 0 013 0zM523.5 81.5a1.5 1.5 0 11-3 0 1.5 1.5 0 013 0zM543.5 81.5a1.5 1.5 0 11-3 0 1.5 1.5 0 013 0zM563.5 81.5a1.5 1.5 0 11-3 0 1.5 1.5 0 013 0zM583.5 81.5a1.5 1.5 0 11-3 0 1.5 1.5 0 013 0zM603.5 81.5a1.5 1.5 0 11-3 0 1.5 1.5 0 013 0zM623.5 81.5a1.5 1.5 0 11-3 0 1.5 1.5 0 013 0zM643.5 81.5a1.5 1.5 0 11-3 0 1.5 1.5 0 013 0zM363.5 101.5a1.5 1.5 0 11-3.001-.001 1.5 1.5 0 013.001.001zM383.5 101.5a1.5 1.5 0 11-3.001-.001 1.5 1.5 0 013.001.001zM403.5 101.5a1.5 1.5 0 11-3.001-.001 1.5 1.5 0 013.001.001zM423.5 101.5a1.5 1.5 0 11-3.001-.001 1.5 1.5 0 013.001.001zM443.5 101.5a1.5 1.5 0 11-3.001-.001 1.5 1.5 0 013.001.001zM463.5 101.5a1.5 1.5 0 11-3.001-.001 1.5 1.5 0 013.001.001zM483.5 101.5a1.5 1.5 0 11-3.001-.001 1.5 1.5 0 013.001.001zM503.5 101.5a1.5 1.5 0 11-3.001-.001 1.5 1.5 0 013.001.001zM523.5 101.5a1.5 1.5 0 11-3.001-.001 1.5 1.5 0 013.001.001zM543.5 101.5a1.5 1.5 0 11-3.001-.001 1.5 1.5 0 013.001.001zM563.5 101.5a1.5 1.5 0 11-3.001-.001 1.5 1.5 0 013.001.001zM583.5 101.5a1.5 1.5 0 11-3.001-.001 1.5 1.5 0 013.001.001zM603.5 101.5a1.5 1.5 0 11-3.001-.001 1.5 1.5 0 013.001.001zM623.5 101.5a1.5 1.5 0 11-3.001-.001 1.5 1.5 0 013.001.001zM643.5 101.5a1.5 1.5 0 11-3.001-.001 1.5 1.5 0 013.001.001zM363.5 121.5a1.5 1.5 0 11-3.001-.001 1.5 1.5 0 013.001.001zM383.5 121.5a1.5 1.5 0 11-3.001-.001 1.5 1.5 0 013.001.001zM403.5 121.5a1.5 1.5 0 11-3.001-.001 1.5 1.5 0 013.001.001zM423.5 121.5a1.5 1.5 0 11-3.001-.001 1.5 1.5 0 013.001.001zM443.5 121.5a1.5 1.5 0 11-3.001-.001 1.5 1.5 0 013.001.001zM463.5 121.5a1.5 1.5 0 11-3.001-.001 1.5 1.5 0 013.001.001zM483.5 121.5a1.5 1.5 0 11-3.001-.001 1.5 1.5 0 013.001.001zM503.5 121.5a1.5 1.5 0 11-3.001-.001 1.5 1.5 0 013.001.001zM523.5 121.5a1.5 1.5 0 11-3.001-.001 1.5 1.5 0 013.001.001zM543.5 121.5a1.5 1.5 0 11-3.001-.001 1.5 1.5 0 013.001.001zM563.5 121.5a1.5 1.5 0 11-3.001-.001 1.5 1.5 0 013.001.001zM583.5 121.5a1.5 1.5 0 11-3.001-.001 1.5 1.5 0 013.001.001zM603.5 121.5a1.5 1.5 0 11-3.001-.001 1.5 1.5 0 013.001.001zM623.5 121.5a1.5 1.5 0 11-3.001-.001 1.5 1.5 0 013.001.001zM643.5 121.5a1.5 1.5 0 11-3.001-.001 1.5 1.5 0 013.001.001zM363.5 141.5a1.5 1.5 0 11-3.001-.001 1.5 1.5 0 013.001.001zM383.5 141.5a1.5 1.5 0 11-3.001-.001 1.5 1.5 0 013.001.001zM403.5 141.5a1.5 1.5 0 11-3.001-.001 1.5 1.5 0 013.001.001zM423.5 141.5a1.5 1.5 0 11-3.001-.001 1.5 1.5 0 013.001.001zM443.5 141.5a1.5 1.5 0 11-3.001-.001 1.5 1.5 0 013.001.001zM463.5 141.5a1.5 1.5 0 11-3.001-.001 1.5 1.5 0 013.001.001zM483.5 141.5a1.5 1.5 0 11-3.001-.001 1.5 1.5 0 013.001.001zM503.5 141.5a1.5 1.5 0 11-3.001-.001 1.5 1.5 0 013.001.001zM523.5 141.5a1.5 1.5 0 11-3.001-.001 1.5 1.5 0 013.001.001zM543.5 141.5a1.5 1.5 0 11-3.001-.001 1.5 1.5 0 013.001.001zM563.5 141.5a1.5 1.5 0 11-3.001-.001 1.5 1.5 0 013.001.001zM583.5 141.5a1.5 1.5 0 11-3.001-.001 1.5 1.5 0 013.001.001zM603.5 141.5a1.5 1.5 0 11-3.001-.001 1.5 1.5 0 013.001.001zM623.5 141.5a1.5 1.5 0 11-3.001-.001 1.5 1.5 0 013.001.001zM643.5 141.5a1.5 1.5 0 11-3.001-.001 1.5 1.5 0 013.001.001zM363.5 161.5a1.5 1.5 0 11-3.001-.001 1.5 1.5 0 013.001.001zM383.5 161.5a1.5 1.5 0 11-3.001-.001 1.5 1.5 0 013.001.001zM403.5 161.5a1.5 1.5 0 11-3.001-.001 1.5 1.5 0 013.001.001zM423.5 161.5a1.5 1.5 0 11-3.001-.001 1.5 1.5 0 013.001.001zM443.5 161.5a1.5 1.5 0 11-3.001-.001 1.5 1.5 0 013.001.001zM463.5 161.5a1.5 1.5 0 11-3.001-.001 1.5 1.5 0 013.001.001zM483.5 161.5a1.5 1.5 0 11-3.001-.001 1.5 1.5 0 013.001.001zM503.5 161.5a1.5 1.5 0 11-3.001-.001 1.5 1.5 0 013.001.001zM523.5 161.5a1.5 1.5 0 11-3.001-.001 1.5 1.5 0 013.001.001zM543.5 161.5a1.5 1.5 0 11-3.001-.001 1.5 1.5 0 013.001.001zM563.5 161.5a1.5 1.5 0 11-3.001-.001 1.5 1.5 0 013.001.001zM583.5 161.5a1.5 1.5 0 11-3.001-.001 1.5 1.5 0 013.001.001zM603.5 161.5a1.5 1.5 0 11-3.001-.001 1.5 1.5 0 013.001.001zM623.5 161.5a1.5 1.5 0 11-3.001-.001 1.5 1.5 0 013.001.001zM643.5 161.5a1.5 1.5 0 11-3.001-.001 1.5 1.5 0 013.001.001zM363.5 181.5a1.5 1.5 0 11-3.001-.001 1.5 1.5 0 013.001.001zM383.5 181.5a1.5 1.5 0 11-3.001-.001 1.5 1.5 0 013.001.001zM403.5 181.5a1.5 1.5 0 11-3.001-.001 1.5 1.5 0 013.001.001zM423.5 181.5a1.5 1.5 0 11-3.001-.001 1.5 1.5 0 013.001.001zM443.5 181.5a1.5 1.5 0 11-3.001-.001 1.5 1.5 0 013.001.001zM463.5 181.5a1.5 1.5 0 11-3.001-.001 1.5 1.5 0 013.001.001zM483.5 181.5a1.5 1.5 0 11-3.001-.001 1.5 1.5 0 013.001.001zM503.5 181.5a1.5 1.5 0 11-3.001-.001 1.5 1.5 0 013.001.001zM523.5 181.5a1.5 1.5 0 11-3.001-.001 1.5 1.5 0 013.001.001zM543.5 181.5a1.5 1.5 0 11-3.001-.001 1.5 1.5 0 013.001.001zM563.5 181.5a1.5 1.5 0 11-3.001-.001 1.5 1.5 0 013.001.001zM583.5 181.5a1.5 1.5 0 11-3.001-.001 1.5 1.5 0 013.001.001zM603.5 181.5a1.5 1.5 0 11-3.001-.001 1.5 1.5 0 013.001.001zM623.5 181.5a1.5 1.5 0 11-3.001-.001 1.5 1.5 0 013.001.001zM643.5 181.5a1.5 1.5 0 11-3.001-.001 1.5 1.5 0 013.001.001zM663.5 1.5a1.5 1.5 0 11-3 0 1.5 1.5 0 013 0zM683.5 1.5a1.5 1.5 0 11-3 0 1.5 1.5 0 013 0zM703.5 1.5a1.5 1.5 0 11-3 0 1.5 1.5 0 013 0zM723.5 1.5a1.5 1.5 0 11-3 0 1.5 1.5 0 013 0zM743.5 1.5a1.5 1.5 0 11-3 0 1.5 1.5 0 013 0zM763.5 1.5a1.5 1.5 0 11-3 0 1.5 1.5 0 013 0zM783.5 1.5a1.5 1.5 0 11-3 0 1.5 1.5 0 013 0zM663.5 21.5a1.5 1.5 0 11-3 0 1.5 1.5 0 013 0zM683.5 21.5a1.5 1.5 0 11-3 0 1.5 1.5 0 013 0zM703.5 21.5a1.5 1.5 0 11-3 0 1.5 1.5 0 013 0zM723.5 21.5a1.5 1.5 0 11-3 0 1.5 1.5 0 013 0zM743.5 21.5a1.5 1.5 0 11-3 0 1.5 1.5 0 013 0zM763.5 21.5a1.5 1.5 0 11-3 0 1.5 1.5 0 013 0zM783.5 21.5a1.5 1.5 0 11-3 0 1.5 1.5 0 013 0zM803.5 21.5a1.5 1.5 0 11-3 0 1.5 1.5 0 013 0zM663.5 41.5a1.5 1.5 0 11-3 0 1.5 1.5 0 013 0zM683.5 41.5a1.5 1.5 0 11-3 0 1.5 1.5 0 013 0zM703.5 41.5a1.5 1.5 0 11-3 0 1.5 1.5 0 013 0zM723.5 41.5a1.5 1.5 0 11-3 0 1.5 1.5 0 013 0zM743.5 41.5a1.5 1.5 0 11-3 0 1.5 1.5 0 013 0zM763.5 41.5a1.5 1.5 0 11-3 0 1.5 1.5 0 013 0zM783.5 41.5a1.5 1.5 0 11-3 0 1.5 1.5 0 013 0zM803.5 41.5a1.5 1.5 0 11-3 0 1.5 1.5 0 013 0zM823.5 41.5a1.5 1.5 0 11-3 0 1.5 1.5 0 013 0zM663.5 61.5a1.5 1.5 0 11-3 0 1.5 1.5 0 013 0zM683.5 61.5a1.5 1.5 0 11-3 0 1.5 1.5 0 013 0zM703.5 61.5a1.5 1.5 0 11-3 0 1.5 1.5 0 013 0zM723.5 61.5a1.5 1.5 0 11-3 0 1.5 1.5 0 013 0zM743.5 61.5a1.5 1.5 0 11-3 0 1.5 1.5 0 013 0zM763.5 61.5a1.5 1.5 0 11-3 0 1.5 1.5 0 013 0zM783.5 61.5a1.5 1.5 0 11-3 0 1.5 1.5 0 013 0zM803.5 61.5a1.5 1.5 0 11-3 0 1.5 1.5 0 013 0zM823.5 61.5a1.5 1.5 0 11-3 0 1.5 1.5 0 013 0zM663.5 81.5a1.5 1.5 0 11-3 0 1.5 1.5 0 013 0zM683.5 81.5a1.5 1.5 0 11-3 0 1.5 1.5 0 013 0zM703.5 81.5a1.5 1.5 0 11-3 0 1.5 1.5 0 013 0zM723.5 81.5a1.5 1.5 0 11-3 0 1.5 1.5 0 013 0zM743.5 81.5a1.5 1.5 0 11-3 0 1.5 1.5 0 013 0zM763.5 81.5a1.5 1.5 0 11-3 0 1.5 1.5 0 013 0zM783.5 81.5a1.5 1.5 0 11-3 0 1.5 1.5 0 013 0zM803.5 81.5a1.5 1.5 0 11-3 0 1.5 1.5 0 013 0zM823.5 81.5a1.5 1.5 0 11-3 0 1.5 1.5 0 013 0zM663.5 101.5a1.5 1.5 0 11-3.001-.001 1.5 1.5 0 013.001.001zM683.5 101.5a1.5 1.5 0 11-3.001-.001 1.5 1.5 0 013.001.001zM703.5 101.5a1.5 1.5 0 11-3.001-.001 1.5 1.5 0 013.001.001zM723.5 101.5a1.5 1.5 0 11-3.001-.001 1.5 1.5 0 013.001.001zM743.5 101.5a1.5 1.5 0 11-3.001-.001 1.5 1.5 0 013.001.001zM763.5 101.5a1.5 1.5 0 11-3.001-.001 1.5 1.5 0 013.001.001zM783.5 101.5a1.5 1.5 0 11-3.001-.001 1.5 1.5 0 013.001.001zM803.5 101.5a1.5 1.5 0 11-3.001-.001 1.5 1.5 0 013.001.001zM823.5 101.5a1.5 1.5 0 11-3.001-.001 1.5 1.5 0 013.001.001zM663.5 121.5a1.5 1.5 0 11-3.001-.001 1.5 1.5 0 013.001.001zM683.5 121.5a1.5 1.5 0 11-3.001-.001 1.5 1.5 0 013.001.001zM703.5 121.5a1.5 1.5 0 11-3.001-.001 1.5 1.5 0 013.001.001zM723.5 121.5a1.5 1.5 0 11-3.001-.001 1.5 1.5 0 013.001.001zM743.5 121.5a1.5 1.5 0 11-3.001-.001 1.5 1.5 0 013.001.001zM763.5 121.5a1.5 1.5 0 11-3.001-.001 1.5 1.5 0 013.001.001zM783.5 121.5a1.5 1.5 0 11-3.001-.001 1.5 1.5 0 013.001.001zM803.5 121.5a1.5 1.5 0 11-3.001-.001 1.5 1.5 0 013.001.001zM823.5 121.5a1.5 1.5 0 11-3.001-.001 1.5 1.5 0 013.001.001zM663.5 141.5a1.5 1.5 0 11-3.001-.001 1.5 1.5 0 013.001.001zM683.5 141.5a1.5 1.5 0 11-3.001-.001 1.5 1.5 0 013.001.001zM703.5 141.5a1.5 1.5 0 11-3.001-.001 1.5 1.5 0 013.001.001zM723.5 141.5a1.5 1.5 0 11-3.001-.001 1.5 1.5 0 013.001.001zM743.5 141.5a1.5 1.5 0 11-3.001-.001 1.5 1.5 0 013.001.001zM763.5 141.5a1.5 1.5 0 11-3.001-.001 1.5 1.5 0 013.001.001zM783.5 141.5a1.5 1.5 0 11-3.001-.001 1.5 1.5 0 013.001.001zM803.5 141.5a1.5 1.5 0 11-3.001-.001 1.5 1.5 0 013.001.001zM823.5 141.5a1.5 1.5 0 11-3.001-.001 1.5 1.5 0 013.001.001zM663.5 161.5a1.5 1.5 0 11-3.001-.001 1.5 1.5 0 013.001.001zM683.5 161.5a1.5 1.5 0 11-3.001-.001 1.5 1.5 0 013.001.001zM703.5 161.5a1.5 1.5 0 11-3.001-.001 1.5 1.5 0 013.001.001zM723.5 161.5a1.5 1.5 0 11-3.001-.001 1.5 1.5 0 013.001.001zM743.5 161.5a1.5 1.5 0 11-3.001-.001 1.5 1.5 0 013.001.001zM763.5 161.5a1.5 1.5 0 11-3.001-.001 1.5 1.5 0 013.001.001zM783.5 161.5a1.5 1.5 0 11-3.001-.001 1.5 1.5 0 013.001.001zM803.5 161.5a1.5 1.5 0 11-3.001-.001 1.5 1.5 0 013.001.001zM823.5 161.5a1.5 1.5 0 11-3.001-.001 1.5 1.5 0 013.001.001zM663.5 181.5a1.5 1.5 0 11-3.001-.001 1.5 1.5 0 013.001.001zM683.5 181.5a1.5 1.5 0 11-3.001-.001 1.5 1.5 0 013.001.001zM703.5 181.5a1.5 1.5 0 11-3.001-.001 1.5 1.5 0 013.001.001zM723.5 181.5a1.5 1.5 0 11-3.001-.001 1.5 1.5 0 013.001.001zM743.5 181.5a1.5 1.5 0 11-3.001-.001 1.5 1.5 0 013.001.001zM763.5 181.5a1.5 1.5 0 11-3.001-.001 1.5 1.5 0 013.001.001zM783.5 181.5a1.5 1.5 0 11-3.001-.001 1.5 1.5 0 013.001.001zM803.5 181.5a1.5 1.5 0 11-3.001-.001 1.5 1.5 0 013.001.001zM823.5 181.5a1.5 1.5 0 11-3.001-.001 1.5 1.5 0 013.001.001zM3.5 201.5a1.5 1.5 0 11-3 0 1.5 1.5 0 013 0zM3.5 221.5a1.5 1.5 0 11-3 0 1.5 1.5 0 013 0zM3.5 241.5a1.5 1.5 0 11-3 0 1.5 1.5 0 013 0zM3.5 261.5a1.5 1.5 0 11-3 0 1.5 1.5 0 013 0zM3.5 281.5a1.5 1.5 0 11-3 0 1.5 1.5 0 013 0zM3.5 301.5a1.5 1.5 0 11-3 0 1.5 1.5 0 013 0zM3.5 321.5a1.5 1.5 0 11-3 0 1.5 1.5 0 013 0zM3.5 341.5a1.5 1.5 0 11-3 0 1.5 1.5 0 013 0zM3.5 361.5a1.5 1.5 0 11-3 0 1.5 1.5 0 013 0zM3.5 381.5a1.5 1.5 0 11-3 0 1.5 1.5 0 013 0zM3.5 401.5a1.5 1.5 0 11-3 0 1.5 1.5 0 013 0zM3.5 421.5a1.5 1.5 0 11-3 0 1.5 1.5 0 013 0zM3.5 441.5a1.5 1.5 0 11-3 0 1.5 1.5 0 013 0zM3.5 461.5a1.5 1.5 0 11-3 0 1.5 1.5 0 013 0zM3.5 481.5a1.5 1.5 0 11-3 0 1.5 1.5 0 013 0zM3.5 501.5a1.5 1.5 0 11-3 0 1.5 1.5 0 013 0zM3.5 161.5a1.5 1.5 0 11-3 0 1.5 1.5 0 013 0zM3.5 181.5a1.5 1.5 0 11-3 0 1.5 1.5 0 013 0z"/></g><g filter="url(#filter0_di)"><path d="M119.06 144.488c10.043-26.979 37.832-43.023 66.218-38.231l179.107 30.237c24.491 4.134 43.902 22.93 48.823 47.274l32.276 159.664c5.107 25.262-6.49 50.963-28.811 63.85l-152.616 88.113c-22.32 12.887-50.377 10.079-69.701-6.974L72.221 380.637c-18.622-16.434-25.194-42.643-16.53-65.919l63.369-170.23z" fill="url(#paint0_linear)"/></g><g filter="url(#filter1_di)"><path d="M273.587 457.688a20.001 20.001 0 0122.073-12.744l59.702 10.079a20 20 0 0116.275 15.758l10.758 53.221a20 20 0 01-9.603 21.283l-50.872 29.371a20 20 0 01-23.234-2.324l-40.712-35.928a20.001 20.001 0 01-5.51-21.973l21.123-56.743z" fill="url(#paint1_linear)"/></g><g filter="url(#filter2_di)"><path d="M532.353 522.496a20.001 20.001 0 0122.073-12.744l59.702 10.079a20.002 20.002 0 0116.275 15.758l10.758 53.222a19.999 19.999 0 01-9.603 21.283l-50.872 29.371a19.999 19.999 0 01-23.234-2.325l-40.712-35.928a19.999 19.999 0 01-5.509-21.973l21.122-56.743z" fill="url(#paint2_linear)"/></g><g filter="url(#filter3_di)"><path d="M581.207 364.992c6.695-17.986 25.221-28.682 44.145-25.487l119.405 20.157a40 40 0 0132.548 31.517l21.518 106.442c3.404 16.842-4.327 33.976-19.207 42.567L677.871 598.93c-14.88 8.591-33.584 6.719-46.467-4.65l-81.423-71.855a40 40 0 01-11.02-43.946l42.246-113.487z" fill="url(#paint3_linear)"/></g><g filter="url(#filter4_di)"><path d="M665.794 103.852a20 20 0 0122.073-12.744l59.702 10.079a20 20 0 0116.275 15.758l10.758 53.221a20 20 0 01-9.603 21.283l-50.872 29.371a20 20 0 01-23.234-2.324l-40.712-35.928a20.001 20.001 0 01-5.51-21.973l21.123-56.743z" fill="url(#paint4_linear)"/></g><g filter="url(#filter5_di)"><path d="M734.926 173.249a10 10 0 0111.037-6.372l29.851 5.039a10 10 0 018.137 7.879l5.379 26.611a9.997 9.997 0 01-4.801 10.641l-25.436 14.686a10 10 0 01-11.617-1.162l-20.356-17.964a10 10 0 01-2.755-10.987l10.561-28.371z" fill="url(#paint5_linear)"/></g><defs><linearGradient id="paint0_linear" x1="90.312" y1="131.3" x2="347.15" y2="446.259" gradientUnits="userSpaceOnUse"><stop stop-color="#84DFFF"/><stop offset="1" stop-color="#49CCF9"/></linearGradient><linearGradient id="paint1_linear" x1="264.005" y1="453.291" x2="349.617" y2="558.278" gradientUnits="userSpaceOnUse"><stop stop-color="#84DFFF"/><stop offset="1" stop-color="#49CCF9"/></linearGradient><linearGradient id="paint2_linear" x1="522.771" y1="518.1" x2="608.383" y2="623.086" gradientUnits="userSpaceOnUse"><stop stop-color="#84DFFF"/><stop offset="1" stop-color="#49CCF9"/></linearGradient><linearGradient id="paint3_linear" x1="562.041" y1="356.2" x2="733.267" y2="566.172" gradientUnits="userSpaceOnUse"><stop stop-color="#84DFFF"/><stop offset="1" stop-color="#49CCF9"/></linearGradient><linearGradient id="paint4_linear" x1="656.212" y1="99.455" x2="741.824" y2="204.442" gradientUnits="userSpaceOnUse"><stop stop-color="#84DFFF"/><stop offset="1" stop-color="#49CCF9"/></linearGradient><linearGradient id="paint5_linear" x1="730.135" y1="171.05" x2="772.941" y2="223.544" gradientUnits="userSpaceOnUse"><stop stop-color="#84DFFF"/><stop offset="1" stop-color="#49CCF9"/></linearGradient><filter id="filter0_di" x="6.919" y="75.415" width="484.758" height="488.019" filterUnits="userSpaceOnUse" color-interpolation-filters="sRGB"><feFlood flood-opacity="0" result="BackgroundImageFix"/><feColorMatrix in="SourceAlpha" values="0 0 0 0 0 0 0 0 0 0 0 0 0 0 0 0 0 0 127 0"/><feOffset dy="15"/><feGaussianBlur stdDeviation="22.5"/><feColorMatrix values="0 0 0 0 0.286275 0 0 0 0 0.8 0 0 0 0 0.976471 0 0 0 0.5 0"/><feBlend in2="BackgroundImageFix" result="effect1_dropShadow"/><feBlend in="SourceGraphic" in2="effect1_dropShadow" result="shape"/><feColorMatrix in="SourceAlpha" values="0 0 0 0 0 0 0 0 0 0 0 0 0 0 0 0 0 0 127 0" result="hardAlpha"/><feOffset/><feGaussianBlur stdDeviation="5"/><feComposite in2="hardAlpha" operator="arithmetic" k2="-1" k3="1"/><feColorMatrix values="0 0 0 0 1 0 0 0 0 1 0 0 0 0 1 0 0 0 0.25 0"/><feBlend in2="shape" result="effect2_innerShadow"/></filter><filter id="filter1_di" x="206.207" y="414.663" width="221.586" height="222.673" filterUnits="userSpaceOnUse" color-interpolation-filters="sRGB"><feFlood flood-opacity="0" result="BackgroundImageFix"/><feColorMatrix in="SourceAlpha" values="0 0 0 0 0 0 0 0 0 0 0 0 0 0 0 0 0 0 127 0"/><feOffset dy="15"/><feGaussianBlur stdDeviation="22.5"/><feColorMatrix values="0 0 0 0 0.286275 0 0 0 0 0.8 0 0 0 0 0.976471 0 0 0 0.5 0"/><feBlend in2="BackgroundImageFix" result="effect1_dropShadow"/><feBlend in="SourceGraphic" in2="effect1_dropShadow" result="shape"/><feColorMatrix in="SourceAlpha" values="0 0 0 0 0 0 0 0 0 0 0 0 0 0 0 0 0 0 127 0" result="hardAlpha"/><feOffset/><feGaussianBlur stdDeviation="5"/><feComposite in2="hardAlpha" operator="arithmetic" k2="-1" k3="1"/><feColorMatrix values="0 0 0 0 1 0 0 0 0 1 0 0 0 0 1 0 0 0 0.25 0"/><feBlend in2="shape" result="effect2_innerShadow"/></filter><filter id="filter2_di" x="464.973" y="479.472" width="221.586" height="222.673" filterUnits="userSpaceOnUse" color-interpolation-filters="sRGB"><feFlood flood-opacity="0" result="BackgroundImageFix"/><feColorMatrix in="SourceAlpha" values="0 0 0 0 0 0 0 0 0 0 0 0 0 0 0 0 0 0 127 0"/><feOffset dy="15"/><feGaussianBlur stdDeviation="22.5"/><feColorMatrix values="0 0 0 0 0.286275 0 0 0 0 0.8 0 0 0 0 0.976471 0 0 0 0.5 0"/><feBlend in2="BackgroundImageFix" result="effect1_dropShadow"/><feBlend in="SourceGraphic" in2="effect1_dropShadow" result="shape"/><feColorMatrix in="SourceAlpha" values="0 0 0 0 0 0 0 0 0 0 0 0 0 0 0 0 0 0 127 0" result="hardAlpha"/><feOffset/><feGaussianBlur stdDeviation="5"/><feComposite in2="hardAlpha" operator="arithmetic" k2="-1" k3="1"/><feColorMatrix values="0 0 0 0 1 0 0 0 0 1 0 0 0 0 1 0 0 0 0.25 0"/><feBlend in2="shape" result="effect2_innerShadow"/></filter><filter id="filter3_di" x="491.446" y="308.943" width="353.172" height="355.346" filterUnits="userSpaceOnUse" color-interpolation-filters="sRGB"><feFlood flood-opacity="0" result="BackgroundImageFix"/><feColorMatrix in="SourceAlpha" values="0 0 0 0 0 0 0 0 0 0 0 0 0 0 0 0 0 0 127 0"/><feOffset dy="15"/><feGaussianBlur stdDeviation="22.5"/><feColorMatrix values="0 0 0 0 0.286275 0 0 0 0 0.8 0 0 0 0 0.976471 0 0 0 0.5 0"/><feBlend in2="BackgroundImageFix" result="effect1_dropShadow"/><feBlend in="SourceGraphic" in2="effect1_dropShadow" result="shape"/><feColorMatrix in="SourceAlpha" values="0 0 0 0 0 0 0 0 0 0 0 0 0 0 0 0 0 0 127 0" result="hardAlpha"/><feOffset/><feGaussianBlur stdDeviation="5"/><feComposite in2="hardAlpha" operator="arithmetic" k2="-1" k3="1"/><feColorMatrix values="0 0 0 0 1 0 0 0 0 1 0 0 0 0 1 0 0 0 0.25 0"/><feBlend in2="shape" result="effect2_innerShadow"/></filter><filter id="filter4_di" x="598.414" y="60.827" width="221.586" height="222.673" filterUnits="userSpaceOnUse" color-interpolation-filters="sRGB"><feFlood flood-opacity="0" result="BackgroundImageFix"/><feColorMatrix in="SourceAlpha" values="0 0 0 0 0 0 0 0 0 0 0 0 0 0 0 0 0 0 127 0"/><feOffset dy="15"/><feGaussianBlur stdDeviation="22.5"/><feColorMatrix values="0 0 0 0 0.286275 0 0 0 0 0.8 0 0 0 0 0.976471 0 0 0 0.5 0"/><feBlend in2="BackgroundImageFix" result="effect1_dropShadow"/><feBlend in="SourceGraphic" in2="effect1_dropShadow" result="shape"/><feColorMatrix in="SourceAlpha" values="0 0 0 0 0 0 0 0 0 0 0 0 0 0 0 0 0 0 127 0" result="hardAlpha"/><feOffset/><feGaussianBlur stdDeviation="5"/><feComposite in2="hardAlpha" operator="arithmetic" k2="-1" k3="1"/><feColorMatrix values="0 0 0 0 1 0 0 0 0 1 0 0 0 0 1 0 0 0 0.25 0"/><feBlend in2="shape" result="effect2_innerShadow"/></filter><filter id="filter5_di" x="678.736" y="136.736" width="155.793" height="156.337" filterUnits="userSpaceOnUse" color-interpolation-filters="sRGB"><feFlood flood-opacity="0" result="BackgroundImageFix"/><feColorMatrix in="SourceAlpha" values="0 0 0 0 0 0 0 0 0 0 0 0 0 0 0 0 0 0 127 0"/><feOffset dy="15"/><feGaussianBlur stdDeviation="22.5"/><feColorMatrix values="0 0 0 0 0.286275 0 0 0 0 0.8 0 0 0 0 0.976471 0 0 0 0.5 0"/><feBlend in2="BackgroundImageFix" result="effect1_dropShadow"/><feBlend in="SourceGraphic" in2="effect1_dropShadow" result="shape"/><feColorMatrix in="SourceAlpha" values="0 0 0 0 0 0 0 0 0 0 0 0 0 0 0 0 0 0 127 0" result="hardAlpha"/><feOffset/><feGaussianBlur stdDeviation="5"/><feComposite in2="hardAlpha" operator="arithmetic" k2="-1" k3="1"/><feColorMatrix values="0 0 0 0 1 0 0 0 0 1 0 0 0 0 1 0 0 0 0.25 0"/><feBlend in2="shape" result="effect2_innerShadow"/></filter></defs></svg>