<svg width="188" height="384" fill="none" xmlns="http://www.w3.org/2000/svg"><path fill-rule="evenodd" clip-rule="evenodd" d="M85.388 205.509c-.313-.093-.468-.58-.096-.774.861-.447 1.803-.719 2.727-1.001a.382.382 0 01.231-.006c.334.1.395.69-.032.821-.859.262-1.73.511-2.528.926a.394.394 0 01-.302.034zM87.445 206.416c-.364-.11-.444-.719.012-.808.785-.152 1.517-.537 2.278-.775a.383.383 0 01.23-.007c.332.099.394.689-.034.822-.761.239-1.493.624-2.278.776a.423.423 0 01-.208-.008zM68.36 253.837c-.139-.042-.237-.223-.153-.502l.67-2.227c.167-.557.39-.793.53-.751.138.041.194.362.026.918l-.669 2.228c-.084.278-.265.376-.404.334zM71.214 255.454l-1.114-.335.837-2.784c.083-.278.404-.334.682-.25.278.083.515.306.43.585l-.835 2.784z" fill="#C7CACE"/><path fill-rule="evenodd" clip-rule="evenodd" d="M85.212 44.97c-.088-.166-.197-.321-.17-.516.072-.535-.768-.55-.84-.019-.046.337.117.643.271.932.254.478.993.081.74-.397z" fill="#E0E0DB"/><path fill-rule="evenodd" clip-rule="evenodd" d="M102.072 282.06l-.168.558c.558.167.726-.39.168-.558z" fill="#FFFFFE"/><path fill-rule="evenodd" clip-rule="evenodd" d="M49.584 216.872c1.798-1.9 4.797-4.925 8.05-7.602-8.743-1.935-16.886-1.617-22.174 3.337l14.188 4.024-.065.241zM80.523 227.884c.493-1.858.801-3.063.888-3.492.307-1.501 1.516-3.23 2.97-4.419a165.073 165.073 0 00-4.899-2.524c1.201 1.736 1.705 5.149 1.041 10.435zM76.648 216.086a129.643 129.643 0 00-4.025-1.805 58.26 58.26 0 01-.63 4.767c1.646-1.79 3.264-2.808 4.655-2.962zM92.13 224.377c-.443-.266-.899-.537-1.37-.815.032.78.012 1.665-.067 2.663.475-.667.955-1.283 1.436-1.848z" fill="#fff"/><path fill-rule="evenodd" clip-rule="evenodd" d="M50.182 218.945s-1.685-.924-.597-2.074l.065-.242-14.189-4.024c-1.957 1.834-3.523 4.302-4.585 7.527 0 0-11.426 55.995-17.743 90.789 1.47-1.737 2.308-2.926 4.142-4.277 1.403-1.036 1.83-.901 1.319-.282-1.944 2.357-3.95 4.661-5.903 7.005-.149.826-.293 1.638-.435 2.436a49.644 49.644 0 012.666-2.948c1.252-1.272 2.18-1.968 1.727-1.302-1.095 1.606-3.54 5.211-4.818 6.66-2.015 11.503-3.175 19.37-2.653 19.752 2.043 1.492 12.866-15.798 12.866-15.798l28.138-103.222z" fill="#ef4136"/><path fill-rule="evenodd" clip-rule="evenodd" d="M72.623 214.281c1.33-15.477-7.504-11.167-14.989-5.01 4.941 1.094 10.072 2.907 14.99 5.01z" fill="#EB97A3"/><path fill-rule="evenodd" clip-rule="evenodd" d="M71.993 219.047c.302-1.764.51-3.348.63-4.767-4.916-2.103-10.047-3.916-14.989-5.01-3.252 2.677-6.252 5.701-8.05 7.602L21.986 321.27l-2.413 19.461c1.53-2.937 3.214-5.149 5.103-7.83 1.058-1.502 2.37-2.411 1.971-1.713-2.137 3.745-5.41 9.129-7.494 12.929l-.236 1.899c1.075-1.571 2.175-2.294 3.426-3.741.525-.607 4.378-4.874 3.23-2.671-1.22 2.344-5.582 6.937-6.997 9.167l-2.647 21.353s-1.994 13.835 7.616-8.535c6-13.966 12.483-24.661 14.578-28.094 12.086-40.209 28.411-86.122 32.705-100.406 1.975-6.574-1.493-11.152 1.165-14.042z" fill="#FD71AF"/><path fill-rule="evenodd" clip-rule="evenodd" d="M76.65 216.085c.958.448 1.904.905 2.833 1.364-.726-1.05-1.705-1.49-2.834-1.364z" fill="#FBF5AD"/><path fill-rule="evenodd" clip-rule="evenodd" d="M80.524 227.885c.664-5.286.16-8.699-1.041-10.436-.928-.459-1.874-.916-2.833-1.364-1.391.155-3.01 1.172-4.656 2.963-.697 4.082-1.897 9.123-3.712 15.305-9.511 32.372-21.072 70.033-30.24 98.216.153.171-.618 1.644-.845 2.813-.44 2.25-1.528 7.451-2.54 12.836 2.947-4.298 5.978-8.54 8.919-12.844.45-.661 4.683-5.823 3.458-3.764-3.156 5.302-9.493 14.53-12.935 19.65a184.107 184.107 0 00-1.042 6.383 471.101 471.101 0 015.345-8.286c1.375-2.085 3.106-2.975 2.656-2.306-2.327 3.458-6.13 9.969-8.357 13.492-.437 4.439.099 5.852 2.828-.404 5.108-11.708 13.83-22.005 18.203-29.35 10.9-39.576 25.533-91.556 26.792-102.904z" fill="#49CCF9"/><path fill-rule="evenodd" clip-rule="evenodd" d="M84.382 219.974a184.605 184.605 0 016.378 3.588c-.256-6.126-3.723-5.762-6.378-3.588z" fill="#fff"/><path fill-rule="evenodd" clip-rule="evenodd" d="M84.781 238.396c1.795-5.271 3.817-9.231 5.912-12.171a22.13 22.13 0 00.066-2.663 185.519 185.519 0 00-6.377-3.587c-1.454 1.189-2.663 2.918-2.97 4.419-.087.429-.395 1.634-.888 3.492-.417 3.314-1.29 7.356-2.744 12.194-.407 1.356-19.837 74.072-25.106 93.793a44.875 44.875 0 01-.56 2.408c-1.608 6.204-3.05 13.533-4.057 20.037 3.076-4.153 6.214-8.218 8.713-12.677 1.048-1.869 2.107-2.513 1.86-1.747-1.852 5.753-7.399 12.135-10.96 17.035a164.684 164.684 0 00-.482 3.672 206.121 206.121 0 003.235-4.776c.44-.67 1.498-.011 1.056.664a215.7 215.7 0 01-4.57 6.668c-.669 6.811-.365 10.546 1.512 6.818 6.073-12.054 12.102-27.692 14.14-33.102 7.261-34.546 22.22-100.477 22.22-100.477z" fill="#FFC800"/><path fill-rule="evenodd" clip-rule="evenodd" d="M66.331 330.007c-.533.602 1.14-2.384 1.67-2.983 2.628-2.975 5.071-6.112 7.583-9.185 10.427-36.251 24.489-88.408 24.489-88.408s-3.075-2.136-7.943-5.055a27.395 27.395 0 00-1.437 1.849c-.232 2.911-4.073 3.909-5.534 9.008 0 0-13.568 60.15-22.427 102.231 0 0-.12 4.506.18 8.49 2.972-4.286 5.701-8.722 8.321-13.224a1461.75 1461.75 0 003.474-11.849c-1.92 2.38-6.353 6.835-8.376 9.126z" fill="#8930FD"/><path fill-rule="evenodd" clip-rule="evenodd" d="M134.991 47.398c.53-1.568.88-3.47 1.604-4.678-3.171.82-5.974 2.324-9.996 1.56-1.447 1.852-2.711 4.039-3.9 6.37 4.946.494 8.815-1.014 12.292-3.252z" fill="#FCE4B7"/><path d="M110.318 157.616c42.6 0 77.134-34.534 77.134-77.134S152.918 3.35 110.318 3.35 33.185 37.883 33.185 80.482c0 42.6 34.534 77.134 77.133 77.134z" fill="#E9EBF0"/><path fill-rule="evenodd" clip-rule="evenodd" d="M138.182 35.455c-1.788.836-3.762 1.327-6.226.908-1.633 2.165-3.291 4.285-4.665 6.933 4.801.128 11.613-.646 10.891-7.84z" fill="#FCE4B7"/><path fill-rule="evenodd" clip-rule="evenodd" d="M120.26 51.504c1.487-2.343 2.782-5.042 4.355-7.225a29.956 29.956 0 00-9.594-1.098c.902 2.364 1.704 4.781 1.434 7.775 1.386.401 2.242-.184 3.805.548z" fill="#fff"/><path fill-rule="evenodd" clip-rule="evenodd" d="M115.201 51.173c-.122-2.809.557-6.98-1.982-7.938-2.003-.756-4.696.735-6.827.925 4.658.941 6.172 4.517 8.809 7.013z" fill="#C4ADBE"/><path fill-rule="evenodd" clip-rule="evenodd" d="M122.191 51.687c-.992 1.562-1.819 3.427-2.734 5.133 1.054.512 2.523 1.139 3.768 1.33 2.493.384 7.757-.702 8.831-2.307 1.139-1.702 1.301-4.588 2.206-6.68-3.431 1.942-7.336 3.005-12.071 2.524z" fill="#FCE4B7"/><path fill-rule="evenodd" clip-rule="evenodd" d="M119.565 58.439c1.746 2.265 3.904 4.31 7.206 5.738 1.871-.885 4.204-3.894 4.264-6.26-3.035 1.545-7.309 1.98-11.47.522zM139.039 33.928c.76-3.054 2.389-6.576 2.135-9.084a87.297 87.297 0 00-8.58 10.719c2.48.073 4.602-.523 6.445-1.635z" fill="#FCE4B7"/><path fill-rule="evenodd" clip-rule="evenodd" d="M73.891 87.583c3.271-6.687 6.938-12.638 10.95-17.945.047-.228.076-.448-.253-.473-9.444 5.897-18.735 12.078-25.026 23.836 3.94-2.224 9.252-4.359 14.33-5.418z" fill="#8930FD"/><path fill-rule="evenodd" clip-rule="evenodd" d="M86.462 67.542c.595-1.26 1.677-1.612 2.26-2.893-7.157-2.697-13.063-.655-17.988 1.74-3.468 4.713-6.38 11.971-8.22 18.764 6.962-7.767 14.487-14.49 23.948-17.61z" fill="#FFC800"/><path fill-rule="evenodd" clip-rule="evenodd" d="M52.142 112.406c3.47-4.243 7.889-8.61 12.785-10.844 1.27-.58 2.968-.687 3.68-1.673.838-1.168 1.31-3.612 2.06-5.534.773-1.988 1.936-4.305 2.186-5.297-7.995 3.009-13.896 9.913-18.742 18.779-.188.596-.91.202-1.057.873-.229 1.191-1.079 2.716-.913 3.696z" fill="#49CCF9"/><path fill-rule="evenodd" clip-rule="evenodd" d="M82.573 56.055c-3.858 2.002-7.354 4.676-10.272 8.424 4.574-1.993 9.58-3.184 16.003-1.74-2.49-1.916-4.07-4.322-5.73-6.684z" fill="#FFC800"/><path fill-rule="evenodd" clip-rule="evenodd" d="M91.125 62.594c1.282-.998 2.21-2.067 3.752-3.239 1.084-.823 3.688-1.746 4.062-2.947.348-1.117-1.129-3.371-1.69-4.279-.68-1.1-1.827-2.91-2.876-3.643-4.824-3.368-10.769-1.29-10.616 4.947.091 3.74 4.347 6.802 7.368 9.161z" fill="#8930FD"/><path fill-rule="evenodd" clip-rule="evenodd" d="M104.092 51.806c.844.3 1.765 1.05 2.44 1.13 2.386.28 4.626-2.13 6.391-1.453-1.715-6.647-13.18-8.469-17.312-3.814 1.407.387 1.457 2.622 2.984 3.279.603.258 1.539.305 2.559.376.976.068 2.029.159 2.938.482z" fill="#49CCF9"/><path fill-rule="evenodd" clip-rule="evenodd" d="M139.96 85.013c3.357-.738 2.873 6.8.252 6.428-2.171-.312-2.814-5.864-.252-6.428zm-35.811.947c-1.793-.415-1.895-2.6-1.082-4.508.849-1.993 2.696-3.685 4.655-2.755 1.476 2.37-.993 7.86-3.573 7.263zm23.861-20.615c-3.838 1.269-10.842-5.606-10.3-8.653.248-1.399 2.039-2.763 1.676-4.26-6.072-.228-12.161 1.31-17.078 3.997-10.476 5.725-17.79 15.688-25.012 28.407-7.251 12.773-10.991 28.88-15.551 45.142 10.34 6.378 23.194 14.449 38.422 18.097 12.728 3.05 25.088 4.171 33.317-1.894-.039-.843-.474-1.474-.253-2.458-8.82 1.994-19.826 2.562-31.204-1.837-7.85-3.034-12.446-7.889-17.051-13.262-3.62-4.221-5.531-7.963-7.185-13.075-.467-1.443-1.562-3.224-.562-4.734 2.31 5.32 3.525 11.228 7.857 15.461 4.508-10.604 11.014-17.91 20.438-20.453 10.155-2.742 27.734-3.618 39.376 3.697-.66-10.22.854-21.586-.639-31.55-1.175-7.838-4.327-16.328-10.895-20.542-1.322 3.718-2.758 7.057-5.356 7.917z" fill="#FDFDFD"/><path fill-rule="evenodd" clip-rule="evenodd" d="M104.749 53.59c-1.066-.601-2.19-.842-3.364-1.1-.74-.161-1.5-.329-2.279-.596-.137 1.013.888 2.659 1.199 3.933 1.324-1.038 3.015-1.393 4.444-2.237z" fill="#C4ADBE"/><path fill-rule="evenodd" clip-rule="evenodd" d="M136.301 48.982c-.947 2.481-1.386 4.553-2.497 6.99 1.978 1.992 5.323 4.05 6.787 5.81.934-5.537.21-10.184-4.29-12.8z" fill="#F7CCAA"/><path fill-rule="evenodd" clip-rule="evenodd" d="M141.725 120.076c-.764 1.374-2.5-.506-3.275-.984.342-1.96 3.602-.154 3.275.984zm-31.602-5.132c.447-2.041 3.605-2.823 4.661-.98-1.023 1.314-2.805 1.217-4.661.98zm23.199-8.508c-10.667-2.369-25.208-1.302-33.282 3.096-6.423 3.499-10.222 10.227-14.027 17.616 2.052 2.313 3.893 4.971 6.405 7.085 10.902 9.183 31 11.083 42.542 7.031 1.982-.695 5.318-2.322 6.683-3.747 5.947-6.2 4.628-19.017 3.692-25.486-2.718-2.681-7.278-4.543-12.013-5.595z" fill="#E9EBF0"/><path fill-rule="evenodd" clip-rule="evenodd" d="M153.77 68.124c.86-1.733 1.314-4.339-.107-5.59-5.105-2.491-8.845.012-11.58 2.871 1.137 2.34 1.818 4.922 2.982 7.247 2.998.07 7.169-1.437 8.705-4.528z" fill="#FDFDFD"/><path fill-rule="evenodd" clip-rule="evenodd" d="M86.808 176.014c9.452 1.111 19.376 4.29 28.071 3.674.449-1.084 1.606-3.468 1.259-4.187-9.118-.683-19.604-3.914-29.273-5.622-.063 2.069-.441 4.307-.057 6.135z" fill="#F8F7F5"/><path fill-rule="evenodd" clip-rule="evenodd" d="M159.14 189.498c-.916 2.7-2.891 4.573-5.464 4.312-7.94-.803-12.529-7.057-16.781-10.203 1.471-12.288.622-23.328-1.366-33.754 1.698 2.025 3.117 4.577 4.784 7.194 3.05 4.781 7.558 9.339 11.481 13.969 4.305 5.083 10.282 9.844 7.346 18.482zm-33.951 31.077c-1.282 3.431-2.234 7.962-3.956 10.521-1.238 1.842-4.288 2.68-5.846 3.603 12.469-28.357 18.081-60.795 13.916-83.94 1.404-.796 3.534-1.748 4.752-1.945.892 5.763 1.737 11.883 1.993 18.462.246 6.326-.169 12.762-1.503 20.189-1.878 10.452-5.18 21.926-9.356 33.11zm-18.259 35.001c-4.989 6.484-9.755 12.513-15.23 15.667-1.244.719-3.302 1.691-4.57 2.001-1.793.437-4.44.756-5.971-.605 5.767-7.911 9.229-20.104 13.579-30.651 9.371-.358 17.651-2.742 24.546-7.706.165.013.149.123.127.236-2.962 6.871-8.136 15.409-12.481 21.058zm-20.64-14.539c2.522.715 4.957 1.271 6.882.879-3.68 9.897-7.633 21.748-13.013 29.431-5.62-7.605 4.13-20.407 6.132-30.31zm-3.46 4.914c-6.08-1.717-10.55-3.092-15.854-5.361 2.678-4.782 7.002-12.514 12.348-11.372 6.368 1.363 6.352 9.44 3.506 16.733zm-14.413-11.476c-2.66-2.844-5.533-5.57-9.372-7.779 8.765-8.58 16.603-18.88 24.19-29.645 6.028 3.302 15.728 6.832 21.191 4.782-1.336 13.231-.8 25.457 1.456 36.757-5.647 1.796-11.84 2.579-19.335.937.302-5.071-1.318-11.205-7.094-12.056-1.596-.235-4.231.708-5.61 1.49-2.164 1.231-3.992 3.423-5.426 5.514zm-9.186 18.674c-3.226 5.607-7.776 12.63-14.46 9.15-.932-5.559 1.12-11.682 2.23-17.986 1.08-6.123 2.022-12.575 3.597-18.567.062-.265.125-.527.345-.492 7.434 2.665 12.99 6.341 16.034 11.368-3.005 4.191-4.562 10.994-7.746 16.527zm-17.617-12.042c.776-5.64 1.71-11.494 3.049-16.749 1.434-.076 3.153.376 4.642.404-1.978 11.715-5.504 24.35-6.572 35.734-3.918-3.702-2.018-12.852-1.12-19.389zm6.165-57.491c.812-1.382 2.358-1.854 3.516-3.113 8.405-9.152 12.413-29.812 10.252-41.375-.267-1.434-.92-2.69-1.436-3.805.552-.866.847-2.208 1.22-3.404-.042-.338.6-.683.475-.255 2.236 1.29 4.407 2.615 6.079 4.209 2.884 24.416-.577 59.231-15.302 87.888-2.836-.922-5.187-.944-7.61-1.096 2.114-13.65 4.194-27.283 2.806-39.049zM31.01 220.255c4.359.357 8.677-3.555 12.343.535-.601 3.223-.963 6.317-1.698 9.611-4.127-3.07-8.296-6.119-10.645-10.146zm4.397-52.267c2.455.715 4.51 2.967 6.388 4.501-2.28 15.774-3.55 31.004-1.68 44.548-2.992.679-6.045 1.244-8.96 2.072 1.048-16.842 3.763-34.579 4.252-51.121zm10.634 29.992c-.23 6.876-1.742 14.029-2.504 20.879-.534-.579-1.571-.885-1.912-1.566-2.105-12.703-.306-27.509 1.625-42.382 3.604 5.516 3.06 14.986 2.79 23.069zM28.62 162.178c-.041-4.862 1.816-10.743 1.464-15.438 10.575-1.617 21.462-2.656 28.988-9.943 3.712 11.598-.706 36.246-11.42 44.598-.763-1.565-.656-3.025-1.034-4.479-1.893-7.267-9.937-10.783-17.998-14.738zm-1.634-.511l-.728-.218c.044-.465.474-.635.693-.983.267.263.205.775.035 1.201zm-6.247-2.328c-1.822-4.34 3.511-11.874 7.236-12.187l.365.109c-.456 2.73.253 4.256-.314 6.988-.818 3.936-5.098 10.302-7.287 5.09zm23.023-23.77c-.033 2.255-.561 4.778-.987 7.246-1.43-.107-2.404.636-3.77.653 1.61-2.588 3.095-5.409 4.757-7.899zm7.91-19.057c3.896-7.039 10.575-11.657 16.158-14.793.483 1.418-1.032 3.912-1.332 5.752-8.611 5.011-16.267 14.827-19.987 29.52-.46 1.811-.44 3.634-1.35 5.151-.44-1.962.119-4.139.476-6.208 1.026-5.935 2.99-13.918 6.036-19.422zm7.202 17.645c-2.304 4.712-7.977 5.756-11.638 7.021 3.189-14.791 9.58-26.07 18.24-31.632-.104 2.687-2.044 8.127-3.41 12.67-1.343 4.467-1.853 9.2-3.192 11.941zm-5.686-25.327c.147-.672.869-.277 1.057-.873 4.846-8.866 10.747-15.77 18.743-18.78-.251.992-1.413 3.309-2.188 5.298-.75 1.922-1.22 4.365-2.06 5.534-.71.986-2.41 1.093-3.678 1.672-4.898 2.235-9.316 6.602-12.786 10.844-.166-.979.684-2.504.912-3.695zm12.297-17.143c.469.13.182.2.073.418-3.827 2.72-7.082 6.507-10.018 10.882.993-6.95 5.749-9.362 9.945-11.3zm19.237-22.402c.33.026.3.245.254.474-4.012 5.307-7.68 11.258-10.95 17.944-5.078 1.059-10.39 3.195-14.33 5.419 6.292-11.76 15.583-17.94 25.026-23.837zM70.869 66.51c4.925-2.394 10.83-4.436 17.988-1.74-.583 1.282-1.665 1.634-2.26 2.894-9.461 3.12-16.985 9.844-23.948 17.61 1.84-6.792 4.753-14.05 8.22-18.764zm11.839-10.336c1.66 2.363 3.24 4.769 5.732 6.685-6.424-1.444-11.43-.254-16.004 1.74 2.919-3.75 6.415-6.422 10.272-8.425zm11.8-7.567c1.05.733 2.197 2.544 2.876 3.643.562.908 2.039 3.162 1.69 4.28-.373 1.2-2.977 2.123-4.061 2.946-1.543 1.173-2.47 2.242-3.752 3.239-3.021-2.36-7.277-5.42-7.368-9.161-.153-6.236 5.792-8.315 10.616-4.947zm18.551 2.995c-1.764-.677-4.005 1.733-6.391 1.454-.675-.08-1.596-.832-2.439-1.131-.91-.323-1.963-.414-2.939-.482-1.019-.07-1.955-.117-2.558-.376-1.528-.657-1.578-2.891-2.985-3.279 4.13-4.654 15.597-2.833 17.312 3.814zm.295-8.247c2.539.958 1.859 5.13 1.982 7.939-2.637-2.496-4.151-6.072-8.81-7.014 2.131-.189 4.825-1.68 6.828-.925zm11.397 1.044c-1.573 2.183-2.868 4.882-4.355 7.225-1.563-.731-2.419-.146-3.805-.548.27-2.994-.532-5.41-1.434-7.774a29.961 29.961 0 019.594 1.097zm1.984.001c4.023.763 6.826-.74 9.997-1.56-.724 1.208-1.075 3.11-1.605 4.678-3.477 2.238-7.346 3.745-12.291 3.252 1.188-2.332 2.452-4.519 3.899-6.37zm5.357-7.917c2.464.42 4.438-.071 6.226-.907.722 7.195-6.09 7.969-10.891 7.841 1.374-2.648 3.032-4.768 4.665-6.934zm9.218-11.52c.254 2.509-1.375 6.031-2.135 9.084-1.843 1.113-3.965 1.709-6.445 1.636a87.405 87.405 0 018.58-10.72zM126.907 64.3c-3.302-1.428-5.46-3.473-7.206-5.738 4.161 1.458 8.435 1.023 11.47-.523-.06 2.367-2.393 5.376-4.264 6.26zm5.284-8.336c-1.074 1.606-6.338 2.691-8.831 2.308-1.245-.192-2.714-.819-3.768-1.33.915-1.706 1.742-3.572 2.734-5.134 4.735.482 8.64-.582 12.071-2.524-.905 2.093-1.068 4.979-2.206 6.68zm-31.751-.016c-.312-1.274-1.337-2.92-1.2-3.934.78.268 1.54.436 2.28.597 1.174.257 2.298.499 3.364 1.1-1.429.844-3.12 1.199-4.444 2.237zm16.121 125.317c1.015-2.906 2.149-5.826 3.265-9.537.871-2.898 2.576-7.811 2.061-9.502-.787-2.586-6.855-4.831-10.701-5.995-6.514-1.971-15.5-2.931-22.046-3.252-2.301-.114-5.561-.943-6.61.196-1.6 1.742-.672 8.511-.77 10.486-.52 10.708-.953 21.17-1.58 31.677-.001.566.489.682.95.789.29.068.57.132.705.304-7.445 10.938-15.302 21.109-24.138 29.463-1.32-.409-2.02-1.151-3.531-1.458 14.574-27.91 18.494-62.793 15.138-87.343 2.895.719 5.282 3.136 8.372 4.501 15.994 7.068 37.377 14.407 50.37 9.384 3.402 21.485-1.168 52.527-12.894 79.88-.725 1.691-1.167 3.977-1.896 4.987-1.146 1.586-3.795 1.396-5.517 2.509-2.814-11.102-3.097-23.566-2.057-36.74 4.992-3.016 8.07-12.304 10.879-20.349zm-30.92 11.747c.8-5.416.179-9.946 1.057-15.403 9.388 1.488 18.802 4.311 27.373 4.02l.363.109c-1.946 4.672-3.811 10.847-6.353 15.199-6.657.281-15.386-.877-22.44-3.925zm-.982 1.291c7.076 3.061 14.78 4.084 21.17 4.182.341.045.322.283.127.235-5.003 4.343-15.811-.294-22.955-3.526.402-.577 1.233-.357 1.658-.891zm-.235-3.843c-.147 1.539-.243 3.716-2.368 3.259.812-13.409 1.227-26.604 1.403-39.669.636-.236 1.547.04 2.22-.126.165.012.152.122.128.236-.015 11.059-.24 24.222-1.383 36.3zm27.179-32.318c3.459 1.294 7.006 2.54 8.918 4.666-.733 3.584-2.17 8.237-3.501 11.649-3.073-.605-5.855-.67-9.065-1.534.641-4.618 1.99-9.616 3.648-14.781zm4.67 17.48c.347.719-.81 3.103-1.259 4.187-8.695.615-18.62-2.564-28.071-3.674-.384-1.828-.006-4.067.058-6.135 9.668 1.707 20.154 4.938 29.272 5.622zm-9.702-2.718c-6.6-1.584-13.067-2.922-19.551-4.288.033-4.85.134-9.737-.011-14.491 7.25.238 15.01 1.425 23.32 3.634-1.748 5.314-2.977 10.35-3.758 15.145zm26.93-115.355c6.568 4.214 9.72 12.704 10.895 20.542 1.493 9.963-.021 21.33.639 31.55-11.642-7.315-29.221-6.439-39.376-3.697-9.424 2.543-15.93 9.849-20.438 20.452-4.332-4.232-5.547-10.141-7.857-15.46-1 1.509.095 3.29.562 4.734 1.654 5.112 3.566 8.853 7.185 13.075 4.605 5.373 9.2 10.227 17.051 13.262 11.378 4.398 22.384 3.831 31.204 1.836-.221.984.214 1.615.253 2.459-8.229 6.065-20.589 4.944-33.317 1.894-15.228-3.648-28.082-11.719-38.422-18.098 4.56-16.261 8.3-32.37 15.55-45.141 7.223-12.72 14.537-22.682 25.013-28.407 4.917-2.687 11.006-4.225 17.078-3.997.363 1.496-1.428 2.86-1.676 4.26-.542 3.047 6.462 9.922 10.3 8.653 2.598-.86 4.034-4.2 5.356-7.917zm2.935-8.446c4.501 2.616 5.224 7.263 4.291 12.8-1.465-1.761-4.81-3.818-6.788-5.81 1.112-2.437 1.551-4.509 2.497-6.99zm17.362 13.554c1.421 1.25.966 3.857.107 5.59-1.536 3.09-5.707 4.598-8.706 4.528-1.163-2.325-1.845-4.908-2.981-7.247 2.735-2.86 6.475-5.363 11.58-2.871zM141.78 137.64c-1.366 1.424-4.701 3.051-6.683 3.747-11.542 4.052-31.641 2.152-42.543-7.031-2.511-2.115-4.353-4.772-6.405-7.085 3.805-7.39 7.605-14.118 14.027-17.616 8.074-4.399 22.615-5.465 33.282-3.096 4.735 1.051 9.295 2.913 12.013 5.595.936 6.469 2.255 19.286-3.691 25.486zm17.148 38.696c-1.869-2.56-4.447-5.179-6.786-7.796-2.339-2.615-4.73-5.151-6.969-7.85-4.773-5.752-8.367-11.652-11.334-17.101 4.027-1.05 8.675-3.423 10.8-6.876 2.491-4.048 2.996-9.085 3.211-13.325.222-4.388-.725-8.151-1.014-11.816-1.008-12.82 1.11-26.455-1.346-37.122 3.828-.137 8.341-1.831 10.107-5.894 1.023-2.353 1.267-5.377-.324-6.845-4.395-4.056-11.548.024-13.819 2.396-.507-1.21.591-2.76.84-4.114.954-5.228-1.293-9.764-5.42-12.346 1.366-4.025 2.167-7.438 3.538-12.433.867-3.156 4.098-10.592 1.518-11.652-.636-.26-2.791 1.606-3.187 2.02-4.594 4.785-9.176 12.063-13.481 17.78-7.769-2.406-15.344-1.514-21.228-.028-2.221.56-4.526.793-6.392 1.452-1.12.396-2.588 1.905-3.733 1.856-.654-.029-1.283-.334-1.877-.629-.473-.235-.923-.463-1.345-.538-5.45-.98-8.952 3.353-8.251 9.626-8.322 3.532-14.96 11.257-18.945 22.093-1.414 3.84-2.171 8.042-3.848 12.14-1.44 3.518-3.508 6.73-4.921 10.43-1.505 3.944-3.204 8.044-4.03 12.086-.26 1.273.026 2.668-.366 3.86-.552 1.68-1.99 3.696-2.825 6.098-1.243 3.582-1.697 8.055-3.046 10.793-.878 1.785-2.64 3.219-3.698 5.042-1.201 2.068-1.927 4.16-3.062 6.225-2.692.102-4.98.958-7.538 1.306-1.294.175 0 0-1.675.291-4.453.107-11.65 8.053-9.62 14.178.795 2.397 2.926 2.747 5.277 3.164.954.169 1.944.348 2.896.68.922.294.717.294 1.765.73 1.703 1.069 3.649 2.005 5.442 3.024-1.75 17.779-3.561 35.591-5.325 53.378 3.107 4.534 7.703 8.268 12.265 12.02-.73 8.485-5.278 22.515-1.271 28.001.684.935 2.435 2.703 3.712 3.497 5.73 3.553 10.864-.829 13.584-4.254 3.779-4.754 6.302-11.926 9.276-17.654 4.81 2.295 10.743 4.155 15.562 5.669-4.601 9.43-10.006 23.608.223 27.656 4.178.056 7.839-.926 10.98-2.854 5.278-3.237 10.945-9.928 14.882-15.174 13.054-17.405 24.026-46.024 28.637-72.172 2.415 2.557 6.413 6.527 10.955 8.453 1.931.818 4.217 1.794 6.191 1.861 5.144.173 8.286-6.121 7.816-12.141-.182-2.321-1.397-5.269-2.801-7.191z" fill="#8E697D"/><path fill-rule="evenodd" clip-rule="evenodd" d="M98.92 166.754c-2.409-.417-1.858-5.542.986-5.261 2.945.291.965 5.598-.987 5.261zm-8.392-1.133c-2.965.078-2.723-5.994.548-5.789 2.87.179 1.462 5.735-.548 5.789zm-3.654-11.617c.145 4.754.044 9.642.01 14.492 6.484 1.365 12.953 2.704 19.552 4.288.782-4.795 2.011-9.831 3.758-15.146-8.31-2.209-16.07-3.396-23.32-3.634z" fill="#fff"/><path fill-rule="evenodd" clip-rule="evenodd" d="M113.12 235.724c.729-1.01 1.171-3.295 1.895-4.987 11.727-27.353 16.296-58.394 12.895-79.88-12.993 5.023-34.376-2.315-50.37-9.383-3.09-1.366-5.477-3.782-8.373-4.501 3.357 24.55-.563 59.432-15.137 87.342 1.511.307 2.212 1.049 3.531 1.458 8.836-8.354 16.693-18.525 24.138-29.462-.135-.172-.415-.237-.705-.305-.46-.107-.95-.223-.95-.789.626-10.507 1.06-20.969 1.581-31.676.096-1.975-.83-8.744.77-10.486 1.047-1.14 4.308-.311 6.61-.197 6.546.322 15.531 1.282 22.044 3.252 3.846 1.164 9.915 3.41 10.701 5.995.515 1.691-1.19 6.604-2.061 9.502-1.115 3.711-2.25 6.632-3.264 9.538-2.809 8.044-5.887 17.332-10.879 20.349-1.04 13.174-.758 25.638 2.057 36.74 1.722-1.113 4.371-.924 5.517-2.51z" fill="#FAFBFC"/><path fill-rule="evenodd" clip-rule="evenodd" d="M120.385 162.686c-1.912-2.126-5.459-3.371-8.918-4.666-1.658 5.165-3.007 10.164-3.648 14.781 3.21.865 5.992.93 9.065 1.534 1.331-3.411 2.768-8.064 3.501-11.649zM105.821 198.598c.195.048.213-.19-.128-.235-6.39-.098-14.094-1.121-21.17-4.182-.425.534-1.256.314-1.657.891 7.144 3.232 17.952 7.869 22.955 3.526zM85.544 153.802c-.673.166-1.584-.11-2.22.126-.176 13.065-.592 26.261-1.404 39.669 2.125.458 2.222-1.72 2.368-3.258 1.144-12.079 1.37-25.242 1.384-36.301.023-.114.037-.223-.128-.236zM86.156 240.916c-2 9.903-11.75 22.705-6.132 30.31 5.38-7.683 9.333-19.534 13.013-29.432-1.925.393-4.36-.163-6.88-.878z" fill="#fff"/><path fill-rule="evenodd" clip-rule="evenodd" d="M79.187 229.096c-5.346-1.143-9.67 6.59-12.349 11.372 5.306 2.269 9.775 3.643 15.855 5.36 2.846-7.292 2.862-15.37-3.506-16.732z" fill="#DADCDF"/><path fill-rule="evenodd" clip-rule="evenodd" d="M79.317 227.348c5.776.852 7.396 6.986 7.094 12.056 7.496 1.643 13.688.86 19.334-.936-2.255-11.3-2.791-23.526-1.456-36.757-5.462 2.05-15.163-1.481-21.189-4.782-7.588 10.765-15.427 21.065-24.19 29.645 3.838 2.209 6.712 4.935 9.371 7.779 1.434-2.091 3.261-4.283 5.427-5.515 1.378-.781 4.013-1.724 5.61-1.49zM44.528 224.236c-1.338 5.255-2.273 11.109-3.049 16.749-.899 6.537-2.799 15.687 1.12 19.389 1.067-11.384 4.593-24.018 6.572-35.734-1.49-.028-3.209-.48-4.643-.404z" fill="#fff"/><path fill-rule="evenodd" clip-rule="evenodd" d="M50.827 260.068c-.283 1.855-4.47 1.69-3.804-.548 1.21.204 2.512-.242 3.804.548zm-.453-3.114c.253.467-.197 1.075-.438 1.456-.414.19-1.727.173-2.057-.42-.055-.95 1.504-1.11 2.495-1.036zm.089-31.331c-1.575 5.993-2.517 12.444-3.596 18.568-1.111 6.304-3.163 12.427-2.231 17.986 6.684 3.48 11.234-3.543 14.46-9.15 3.184-5.533 4.742-12.337 7.746-16.527-3.043-5.027-8.6-8.704-16.033-11.368-.221-.035-.284.226-.346.491z" fill="#E9EBF0"/><path fill-rule="evenodd" clip-rule="evenodd" d="M135.914 167.154c-.256-6.579-1.101-12.699-1.994-18.462-1.217.198-3.348 1.15-4.752 1.946 4.166 23.144-1.447 55.582-13.916 83.939 1.558-.923 4.608-1.76 5.846-3.602 1.722-2.56 2.675-7.091 3.957-10.521 4.176-11.184 7.478-22.659 9.355-33.111 1.334-7.427 1.75-13.862 1.504-20.189z" fill="#fff"/><path fill-rule="evenodd" clip-rule="evenodd" d="M119.149 234.16c-6.894 4.963-15.175 7.348-24.546 7.706-4.349 10.546-7.812 22.739-13.579 30.651 1.532 1.361 4.18 1.042 5.972.604 1.268-.31 3.325-1.281 4.57-2.001 5.474-3.154 10.24-9.182 15.229-15.667 4.345-5.648 9.519-14.186 12.482-21.057.022-.114.037-.224-.128-.236zM148.811 188.296c.739.447 1.829.674 2.877.887 1.236.252 2.415.486 2.893 1.046-1.111 1.864-5.979.249-5.77-1.933zm2.641-2.182c.712-.111 2.376.399 1.729 1.511-.876.196-2.175-.508-1.729-1.511zm.207-15.22c-3.923-4.63-8.431-9.189-11.48-13.97-1.667-2.616-3.087-5.169-4.785-7.194 1.988 10.427 2.837 21.466 1.367 33.754 4.252 3.146 8.84 9.4 16.78 10.203 2.573.261 4.548-1.612 5.464-4.311 2.936-8.639-3.04-13.4-7.346-18.482z" fill="#E9EBF0"/><path fill-rule="evenodd" clip-rule="evenodd" d="M52.447 223.638c14.726-28.656 18.186-63.471 15.302-87.888-1.672-1.593-3.843-2.918-6.078-4.209.126-.428-.517-.082-.474.255-.374 1.197-.669 2.538-1.222 3.404.518 1.116 1.17 2.372 1.437 3.806 2.161 11.562-1.847 32.223-10.253 41.375-1.157 1.259-2.704 1.73-3.516 3.112 1.388 11.767-.692 25.399-2.805 39.05 2.422.151 4.773.174 7.61 1.095z" fill="#fff"/><path fill-rule="evenodd" clip-rule="evenodd" d="M45.291 142.145c.912-1.517.892-3.34 1.35-5.151 3.721-14.693 11.376-24.509 19.987-29.52.3-1.84 1.815-4.334 1.332-5.752-5.582 3.136-12.26 7.753-16.156 14.793-3.047 5.504-5.01 13.487-6.036 19.422-.358 2.069-.916 4.246-.477 6.208z" fill="#FD71AF"/><path fill-rule="evenodd" clip-rule="evenodd" d="M26.817 160.345c-.22.349-.648.519-.693.983l.729.219c.17-.427.232-.939-.036-1.202z" fill="#D2E9E3"/><path fill-rule="evenodd" clip-rule="evenodd" d="M65.545 109.69c-8.66 5.561-15.052 16.841-18.24 31.632 3.66-1.265 9.333-2.309 11.637-7.021 1.34-2.741 1.85-7.474 3.192-11.941 1.366-4.544 3.306-9.983 3.411-12.67z" fill="#FD71AF"/><path fill-rule="evenodd" clip-rule="evenodd" d="M30.875 220.133c2.35 4.028 6.52 7.077 10.647 10.147.733-3.295 1.096-6.388 1.697-9.611-3.666-4.09-7.983-.178-12.344-.536z" fill="#E9EBF0"/><path fill-rule="evenodd" clip-rule="evenodd" d="M43.628 135.447c-1.662 2.49-3.146 5.311-4.755 7.899 1.364-.017 2.338-.76 3.768-.653.426-2.468.954-4.991.987-7.246z" fill="#D2E9E3"/><path fill-rule="evenodd" clip-rule="evenodd" d="M42.628 166.505c1.97.429 3.85 2.192 3.912 4.153-1.906.085-3.214-2.59-3.912-4.153zm5.697 1.514c-.21.083-.375.248-.528.437-1.322-.663-1.972-1.686-1.837-3.132 1.714.4 2.637 1.226 2.365 2.695zm-1.843 8.775c.379 1.454.272 2.915 1.036 4.479 10.712-8.352 15.13-33 11.419-44.598-7.527 7.287-18.413 8.327-28.988 9.944.35 4.694-1.506 10.576-1.465 15.437 8.062 3.955 16.106 7.471 17.998 14.738z" fill="#E9EBF0"/><path fill-rule="evenodd" clip-rule="evenodd" d="M43.116 174.79c-1.93 14.873-3.73 29.678-1.625 42.381.341.681 1.38.989 1.913 1.567.761-6.851 2.274-14.003 2.503-20.88.27-8.082.813-17.552-2.79-23.068z" fill="#fff"/><path fill-rule="evenodd" clip-rule="evenodd" d="M41.66 172.366c-1.877-1.533-3.931-3.785-6.387-4.5-.489 16.541-3.204 34.279-4.25 51.12 2.912-.827 5.966-1.392 8.958-2.071-1.87-13.544-.599-28.774 1.68-44.549z" fill="#E9EBF0"/><path fill-rule="evenodd" clip-rule="evenodd" d="M140.212 91.439c2.621.374 3.105-7.165-.252-6.427-2.562.564-1.92 6.116.252 6.427zM107.721 78.696c-3.836-1.822-7.238 6.415-3.572 7.263 2.58.597 5.049-4.892 3.572-7.263zM141.727 120.078c.326-1.139-2.934-2.945-3.276-.985.775.478 2.511 2.358 3.276.985zM110.124 114.944c1.857.237 3.638.334 4.662-.98-1.057-1.844-4.215-1.061-4.662.98zM153.181 187.626c.647-1.113-1.017-1.622-1.729-1.512-.446 1.003.853 1.708 1.729 1.512zM148.81 188.297c-.208 2.182 4.66 3.797 5.77 1.933-.883-1.036-4.159-.957-5.77-1.933zM47.797 168.456c.154-.189.32-.354.53-.437.27-1.469-.653-2.295-2.367-2.696-.135 1.447.515 2.469 1.837 3.133zM42.627 166.506c.7 1.562 2.006 4.238 3.912 4.153-.06-1.961-1.94-3.724-3.912-4.153zM49.936 258.41c.241-.381.691-.989.438-1.456-.99-.074-2.55.086-2.496 1.036.331.593 1.644.61 2.058.42zM50.826 260.069c-1.292-.789-2.595-.344-3.804-.548-.665 2.238 3.521 2.403 3.804.548z" fill="#8E697D"/><path fill-rule="evenodd" clip-rule="evenodd" d="M122.699 50.65c1.189-2.331 2.453-4.518 3.9-6.37 1.816.345 3.385.227 4.85-.081a431.822 431.822 0 00-2.856 6.065c-1.799.437-3.744.6-5.894.386zm11.111-2.531c.53-1.573 1.114-3.318 1.698-5.092.359-.108.72-.212 1.087-.307-.348.58-.61 1.321-.846 2.108-.19.633-.365 1.297-.555 1.93-.066.218-.133.432-.203.64-.389.25-.782.491-1.181.721zM127.291 43.296c1.374-2.648 3.032-4.768 4.665-6.933a9.915 9.915 0 003.304.027 740.568 740.568 0 00-3.232 6.605c-1.584.294-3.256.34-4.737.301zm8.764-1.946a256.47 256.47 0 001.804-5.749c.109-.047.216-.096.323-.146.123 1.216.029 2.248-.233 3.123a5.418 5.418 0 01-1.894 2.772z" fill="#FFC800"/><path fill-rule="evenodd" clip-rule="evenodd" d="M116.455 50.956c.27-2.994-.532-5.411-1.434-7.775a29.956 29.956 0 019.594 1.098c-1.573 2.183-2.868 4.882-4.355 7.225l-.038-.018h-.002a4.28 4.28 0 00-.553-.21l-.001-.001-.003-.001c-.81-.243-1.437-.146-2.124-.162a4.114 4.114 0 01-1.084-.156z" fill="#ef4136"/><path fill-rule="evenodd" clip-rule="evenodd" d="M115.201 51.173a14.744 14.744 0 01-.197-.19l-.051-.05a3.587 3.587 0 00-.048-.048c-2.288-2.302-3.806-5.354-7.609-6.499l-.006-.002h-.001a9.943 9.943 0 00-.897-.224l.177-.018.01-.002.093-.012h.001a7.07 7.07 0 00.147-.022h.006c.383-.061.781-.154 1.186-.26 1.687-.442 3.511-1.12 4.996-.682a.534.534 0 00.017.005h.001c.065.02.13.042.194.066 2.539.957 1.859 5.13 1.981 7.938z" fill="#FD71AF"/><path fill-rule="evenodd" clip-rule="evenodd" d="M122.108 57.89l-.008-.003c-.923-.279-1.866-.691-2.609-1.051l-.034-.017c.915-1.705 1.742-3.57 2.734-5.133 2.104.215 4.044.124 5.852-.214-1.198 2.638-2.218 5.01-2.852 6.728-.74.048-1.419.034-1.966-.05l-.045-.007-.013-.002a8.538 8.538 0 01-1.059-.252zm8.049-.773a21.198 21.198 0 002.167-4.595l.958-2.836c.331-.166.658-.341.98-.524-.162.376-.301.778-.426 1.194-.342 1.139-.578 2.383-.914 3.499-.224.744-.492 1.43-.866 1.988-.321.48-1.016.913-1.899 1.274z" fill="#FFC800"/><path fill-rule="evenodd" clip-rule="evenodd" d="M28.203 147.139l-.363-.11c-.529.045-1.09.235-1.658.541-3.437 1.848-7.141 7.923-5.577 11.647 2.187 5.212 6.468-1.154 7.285-5.09.567-2.732-.142-4.258.313-6.988z" fill="#E9EBF0"/><path d="M25.866 147.791c2.635-1.772 7.938-1.764 7.938-1.764-.862 6.371-4.41 9.624-5.272 15.996 0 0-3.528-.628-5.562-.719-2.034-.091-2.766-2.016-2.766-4.031 0-4.851 2.648-7.456 5.662-9.482z" fill="#E9EBF0"/><path fill-rule="evenodd" clip-rule="evenodd" d="M126.771 64.177c-3.302-1.428-5.46-3.473-7.206-5.738.228.08.456.154.684.223h.001l.005.002c1.532.46 3.069.67 4.544.669-.264.839-.367 1.401-.26 1.6a.79.79 0 00.477.397c.846.254 2.415-.684 3.981-2.602a12.405 12.405 0 001.914-.75l.012-.005.015-.008a.523.523 0 00.026-.013l.008-.004.026-.013a1.29 1.29 0 01.037-.018 4.825 4.825 0 01-.214 1.248c-.625 2.08-2.497 4.277-4.05 5.012zM132.594 35.563a87.297 87.297 0 018.58-10.72c.129 1.275-.228 2.81-.71 4.413-.333 1.109-.727 2.25-1.061 3.36-.133.444-.257.882-.364 1.312-.268.161-.542.312-.822.452.818-2.849 1.267-4.864.929-4.966-.144-.043-.431.262-.894.998 0 0-.983 1.936-2.424 4.834-1.006.24-2.082.351-3.234.317z" fill="#FFC800"/><path fill-rule="evenodd" clip-rule="evenodd" d="M99.924 51.228a50.117 50.117 0 01-2.972-4.699c2.504-1.616 6.262-1.85 9.527-.87l.005.001.004.002c3.059.92 5.684 2.907 6.436 5.82a1.653 1.653 0 00-.124-.042l-.005-.002c-1.014-.3-2.178.345-3.431.886-.863.373-1.769.695-2.696.625l-.02-.002-.016-.002c-.009 0-.018 0-.026-.002l-.018-.002-.055-.006a1.42 1.42 0 01-.24-.052h-.001l-.03-.009a2.477 2.477 0 01-.218-.081c-.565-.24-1.222-.703-1.845-.949a4.207 4.207 0 00-.367-.125h-.001a.096.096 0 00-.01-.003c-.78-.233-1.646-.32-2.468-.38-.02 0-.039-.002-.059-.004-.018 0-.037-.002-.055-.004h-.002l-.036-.002a1.424 1.424 0 00-.046-.003l-.07-.005c-.018 0-.035-.002-.052-.003l-.047-.004-.095-.006-.01-.001a2.447 2.447 0 01-.07-.005h-.021l-.004-.002a7.927 7.927 0 01-.129-.008c-.254-.018-.5-.037-.733-.061z" fill="#49CCF9"/><path fill-rule="evenodd" clip-rule="evenodd" d="M139.442 78.585c-12.715-3.823-26.489-12.046-35.902-22.794 4.683-2.29 10.272-3.569 15.847-3.36.083.346.052.683-.048 1.016-.307 1.024-1.269 2.001-1.568 2.99a2.106 2.106 0 00-.061.254l-.006.039a.802.802 0 00-.007.049c-.317 2.475 4.055 7.29 7.761 8.46l.088.026.001.001c.887.266 1.732.32 2.463.077 2.599-.859 4.034-4.198 5.357-7.916 6.567 4.214 9.72 12.703 10.894 20.542.095.633.178 1.272.25 1.917a62.995 62.995 0 01-5.069-1.3z" fill="#FDFDFD"/><path fill-rule="evenodd" clip-rule="evenodd" d="M102.536 54.615a57.548 57.548 0 01-1.793-2.267c.216.05.43.096.642.142.372.081.737.161 1.098.25l.042.011.039.01c.133.034.265.07.397.107l.166.049a7.697 7.697 0 011.623.673c-.7.413-1.462.709-2.214 1.025z" fill="#E3DADF"/><path fill-rule="evenodd" clip-rule="evenodd" d="M140.591 61.783c-1.464-1.762-4.809-3.819-6.787-5.811 1.111-2.437 1.55-4.509 2.497-6.99 4.5 2.616 5.224 7.263 4.29 12.8z" fill="#FD71AF"/><path fill-rule="evenodd" clip-rule="evenodd" d="M145.065 72.653c-1.164-2.325-1.845-4.91-2.982-7.247l.051-.054.025-.025c2.423-2.51 5.628-4.711 9.858-3.442l.004.001a10.713 10.713 0 011.642.649c1.101.97 1.076 2.755.608 4.315a8.12 8.12 0 01-.501 1.274c-1.536 3.092-5.706 4.599-8.705 4.529z" fill="#FDFDFD"/><path fill-rule="evenodd" clip-rule="evenodd" d="M144.512 79.887a53.617 53.617 0 00-.249-1.917c-1.175-7.838-4.327-16.328-10.895-20.541-1.323 3.717-2.758 7.056-5.357 7.916-.73.241-1.576.188-2.462-.078h-.002l-.088-.028c-3.706-1.169-8.078-5.984-7.761-8.46l.007-.048.007-.039c.014-.085.035-.169.061-.253.298-.99 1.26-1.967 1.568-2.99.1-.334.131-.671.047-1.016-5.575-.21-11.164 1.07-15.847 3.36-.341-.39-.674-.78-1.004-1.177.752-.316 1.514-.613 2.214-1.026a7.677 7.677 0 00-1.623-.673l-.166-.048a14.694 14.694 0 00-.397-.107l-.039-.01a3.841 3.841 0 01-.041-.01c-.361-.09-.727-.17-1.099-.251a63.887 63.887 0 01-.642-.143c-.277-.369-.552-.745-.818-1.12a21.81 21.81 0 00.757.063l.104.007.005.001h.021l.069.006h.011l.095.007.047.004.051.003.071.005.046.003.036.003h.002a6.005 6.005 0 00.114.008c.822.06 1.687.146 2.468.38l.01.002h.001c.088.027.176.056.261.086l.021.007.085.032c.623.246 1.28.71 1.844.949.075.031.148.059.219.081l.03.01h.001a1.41 1.41 0 00.312.059l.027.002.016.002c.006 0 .013 0 .019.002.928.07 1.834-.253 2.697-.625 1.253-.54 2.417-1.187 3.431-.886l.005.002a1.73 1.73 0 01.124.042c-.752-2.914-3.377-4.9-6.436-5.82l-.004-.002a.028.028 0 01-.005-.001c-3.266-.98-7.023-.746-9.527.87-.101-.181-.2-.362-.298-.544-.118-.22-.235-.442-.35-.659.424-.278.832-.53 1.203-.66 1.865-.66 4.17-.894 6.391-1.454 5.82-1.469 13.292-2.357 20.971-.05l.257.079c4.306-5.718 8.888-12.996 13.481-17.78.391-.409 2.492-2.23 3.16-2.029l.027.01c2.581 1.058-.651 8.494-1.517 11.65-1.371 4.995-2.172 8.408-3.538 12.433 4.127 2.583 6.374 7.119 5.419 12.347-.248 1.354-1.347 2.904-.84 4.113 1.88-1.962 7.099-5.093 11.335-3.82a6.302 6.302 0 012.485 1.424c1.59 1.468 1.347 4.492.323 6.845-1.765 4.063-6.278 5.757-10.106 5.894.433 1.881.723 3.855.914 5.9a56.645 56.645 0 01-1.759-.342zm-2.428-14.48c1.137 2.338 1.819 4.922 2.982 7.247 2.999.07 7.169-1.437 8.706-4.528a8.27 8.27 0 00.5-1.275c.468-1.56.494-3.345-.608-4.315a10.767 10.767 0 00-1.642-.649h-.004c-4.229-1.27-7.434.931-9.858 3.441l-.024.025-.052.054zm-22.517-6.966c1.747 2.265 3.904 4.31 7.206 5.738 1.554-.735 3.426-2.933 4.051-5.012a4.78 4.78 0 00.213-1.248l-.037.018a.267.267 0 01-.025.013l-.008.004-.026.013-.016.008c-.004.002-.008.003-.011.006-.596.294-1.237.546-1.914.75.39-.478.779-1.016 1.158-1.613.884-.36 1.579-.794 1.899-1.274.374-.559.643-1.244.867-1.988.336-1.115.572-2.36.914-3.499.125-.416.263-.818.426-1.194-.322.183-.649.358-.98.524l.529-1.568c.399-.23.792-.47 1.181-.72.07-.209.137-.423.203-.64.19-.634.365-1.297.555-1.93.236-.787.498-1.528.846-2.11-.367.096-.728.2-1.087.309.183-.557.366-1.118.547-1.676a5.417 5.417 0 001.894-2.772c.262-.876.355-1.908.233-3.123-.107.05-.215.098-.323.146.125-.421.245-.83.358-1.223.28-.14.554-.29.822-.452.107-.43.231-.868.364-1.312.334-1.11.728-2.25 1.061-3.36.482-1.603.839-3.137.71-4.412a87.305 87.305 0 00-8.58 10.72 12.291 12.291 0 003.233-.317l-.567 1.144a9.91 9.91 0 01-3.304-.027c-1.633 2.165-3.291 4.286-4.665 6.934 1.481.04 3.153-.007 4.737-.301-.193.399-.386.799-.579 1.202-1.465.308-3.034.426-4.851.082-1.446 1.85-2.71 4.038-3.899 6.37 2.149.214 4.095.05 5.894-.387-.187.409-.372.811-.552 1.21-1.807.337-3.748.428-5.851.214-.992 1.562-1.82 3.427-2.734 5.133l.034.016c.743.36 1.685.772 2.608 1.051l.008.003h.002c.36.108.717.196 1.058.251l.012.002.046.008c.546.083 1.226.097 1.966.05-.155.418-.286.797-.391 1.133-1.475 0-3.012-.21-4.544-.67h-.005l-.001-.001a16.687 16.687 0 01-.685-.223zm14.239-2.469c1.978 1.993 5.323 4.05 6.787 5.811.934-5.538.21-10.185-4.29-12.8-.947 2.48-1.386 4.553-2.497 6.99zm-18.604-4.797c-.122-2.81.558-6.982-1.981-7.94a3.051 3.051 0 00-.194-.065h-.001l-.017-.005c-1.485-.437-3.309.24-4.995.682-.406.106-.804.199-1.187.26h-.006a7.71 7.71 0 01-.146.022h-.002l-.093.012a7.075 7.075 0 01-.187.02c.313.063.611.138.897.224h.001l.006.002c3.802 1.145 5.322 4.198 7.61 6.499l.047.048.051.05c.065.064.131.128.197.19zm-.178-7.993c.902 2.364 1.704 4.781 1.434 7.775.395.114.746.148 1.083.156.688.016 1.315-.08 2.124.162h.003l.001.001c.176.053.359.121.554.21l.001.001a.553.553 0 01.038.018c1.488-2.343 2.783-5.042 4.355-7.226a29.952 29.952 0 00-9.593-1.097z" fill="#C5B7BC"/><path fill-rule="evenodd" clip-rule="evenodd" d="M59.562 93.001a48.333 48.333 0 015.773-8.502 78.602 78.602 0 002.195 4.899c-2.91 1.041-5.672 2.307-7.968 3.603z" fill="#8930FD"/><path fill-rule="evenodd" clip-rule="evenodd" d="M62.514 85.154a83.369 83.369 0 011.37-4.533c.248.724.51 1.453.787 2.184a134.9 134.9 0 00-2.157 2.35z" fill="#FCF8C2"/><path fill-rule="evenodd" clip-rule="evenodd" d="M52.141 112.404c-.066-.391.03-.868.182-1.375.17-.568.413-1.174.584-1.742.06-.198.111-.392.146-.579l.016-.06c.176-.587.86-.236 1.041-.813 3.911-7.155 8.51-13.032 14.341-16.616a82.416 82.416 0 002.024 3.648c-.644 1.825-1.104 3.954-1.869 5.02-.71.986-2.409 1.093-3.679 1.673-4.898 2.234-9.316 6.601-12.786 10.844z" fill="#49CCF9"/><path fill-rule="evenodd" clip-rule="evenodd" d="M95.855 146.909a.019.019 0 00-.007-.002c-13.103-3.94-24.327-10.897-33.575-16.605a2.407 2.407 0 01-.108-.066 7.86 7.86 0 00-.121-.074l-.3-.185c1.987-7.083 3.819-14.136 5.85-20.898 1.263-4.198 2.604-8.283 4.107-12.193l.23.364c4.345 6.858 10.976 13.478 18.469 19.43-2.025 2.781-3.784 5.998-5.313 9.595-4.332-4.233-5.548-10.141-7.857-15.461a2.386 2.386 0 00-.303.642c-.406 1.355.463 2.849.865 4.092 1.654 5.113 3.566 8.854 7.185 13.076 4.605 5.372 9.2 10.227 17.051 13.262a48.88 48.88 0 003.592 1.232c9.925 2.981 19.414 2.407 27.231.689l.328-.073.052-.012c-.22.984.215 1.615.254 2.458-8.23 6.065-20.589 4.944-33.317 1.894a77.433 77.433 0 01-4.312-1.165h-.001z" fill="#FDFDFD"/><path fill-rule="evenodd" clip-rule="evenodd" d="M88.66 151.1c-1.365-.41-2.715-.846-4.032-1.302-4.233-1.467-8.944-2.703-14.793-6.71-.174-2.1-.397-4.14-.667-6.115.122.03.244.064.364.1h.002l.007.003c1.663.502 3.172 1.539 4.766 2.569.984.637 2.001 1.27 3.108 1.772l.042.02.084.037.308.135c6.016 2.65 12.775 5.325 19.556 7.363l.004.001.004.001c11.172 3.358 22.399 4.983 30.436 1.906l.061-.023c.283 1.788.511 3.64.684 5.552-6.396.237-13.719-.185-21.165-1.243-2.555-.575-5.31-1.032-8.05-1.388A121.876 121.876 0 0188.66 151.1z" fill="#E9EBF0"/><path fill-rule="evenodd" clip-rule="evenodd" d="M129.98 156.346a80.486 80.486 0 00-.812-5.708c1.404-.796 3.535-1.748 4.752-1.946.364 2.346.719 4.751 1.03 7.221-1.569.196-3.231.34-4.97.433z" fill="#fff"/><path fill-rule="evenodd" clip-rule="evenodd" d="M136.391 155.714c-.286-2.02-.621-4.013-.997-5.984 1.327 1.582 2.484 3.487 3.721 5.492-.865.184-1.775.349-2.724.492z" fill="#F3F4F1"/><path fill-rule="evenodd" clip-rule="evenodd" d="M68.332 142.013c-2.483-1.846-5.17-4.204-8.102-7.279.207-.438.377-.948.536-1.477.12-.398.233-.807.352-1.205.026-.086.051-.171.078-.255v-.009l-.002-.006v-.007-.014c.002-.198.222-.388.367-.414a.146.146 0 01.066 0l.002.001c.052.017.076.076.04.194 2.237 1.291 4.407 2.616 6.08 4.209.239 2.02.434 4.11.583 6.262z" fill="#fff"/><path fill-rule="evenodd" clip-rule="evenodd" d="M51.227 123.935a168.487 168.487 0 01-1.923-2.632c.668-1.759 1.412-3.426 2.234-4.912 3.895-7.039 10.574-11.657 16.156-14.793.194.568.067 1.309-.174 2.11-.267.888-.674 1.851-.94 2.739-.095.313-.17.616-.218.904-5.774 3.36-11.119 8.881-15.135 16.584z" fill="#FD71AF"/><path fill-rule="evenodd" clip-rule="evenodd" d="M59.244 133.62c-2.106-2.3-4.338-4.966-6.71-8.073 3.374-7.085 7.791-12.559 13.043-15.931-.057 1.438-.639 3.664-1.377 6.119-.64 2.133-1.4 4.438-2.034 6.55-1.047 3.482-1.587 7.125-2.409 9.86a16.52 16.52 0 01-.513 1.475z" fill="#FD71AF"/><path fill-rule="evenodd" clip-rule="evenodd" d="M99.503 154.044c2.74.355 5.495.813 8.05 1.388a137.271 137.271 0 01-8.05-1.388zm-29.544-10.69a50.188 50.188 0 01-1.503-1.074 129.321 129.321 0 00-.583-6.262c-1.672-1.594-3.843-2.919-6.079-4.209.035-.119.011-.178-.04-.195h-.002a.132.132 0 00-.066-.001c-.145.026-.365.217-.367.415V132.049l.001.005.001.01c-.027.084-.052.169-.078.254-.12.398-.233.807-.353 1.205-.159.529-.329 1.039-.536 1.478a84.906 84.906 0 01-1.22-1.306c.184-.453.353-.947.511-1.474.823-2.736 1.363-6.379 2.41-9.86.634-2.112 1.393-4.418 2.034-6.55.738-2.455 1.32-4.682 1.376-6.12-5.25 3.372-9.668 8.847-13.043 15.931-.353-.463-.712-.939-1.072-1.421 4.017-7.704 9.362-13.225 15.136-16.585.047-.288.123-.591.217-.904.267-.887.674-1.85.94-2.738.241-.802.37-1.543.175-2.11-5.582 3.136-12.26 7.753-16.156 14.793-.823 1.486-1.566 3.152-2.234 4.911-.368-.514-.74-1.038-1.114-1.573.757-1.564 1.606-2.938 2.001-4.14.392-1.192.106-2.587.365-3.86.826-4.042 2.525-8.142 4.031-12.086 1.412-3.7 3.481-6.912 4.92-10.429 1.546-3.776 2.31-7.64 3.526-11.229.263.872.546 1.753.85 2.638a82.19 82.19 0 00-1.37 4.532c.713-.794 1.432-1.578 2.158-2.349.213.562.434 1.127.664 1.693a48.353 48.353 0 00-5.775 8.502c2.297-1.296 5.06-2.562 7.97-3.603.296.606.603 1.213.92 1.821-5.832 3.584-10.43 9.461-14.34 16.617-.183.577-.866.225-1.042.813l-.016.06c-.035.186-.086.38-.146.579-.17.567-.413 1.174-.584 1.741-.153.508-.248.985-.182 1.375 3.471-4.242 7.89-8.609 12.786-10.844 1.27-.579 2.97-.686 3.68-1.672.765-1.067 1.225-3.196 1.868-5.02.395.671.804 1.344 1.226 2.018-1.504 3.91-2.844 7.995-4.106 12.194-2.033 6.762-3.864 13.815-5.85 20.897l.3.185.12.074.023.015.084.052c9.25 5.708 20.472 12.665 33.576 16.604a.019.019 0 00.007.002l.001.001c1.415.425 2.853.815 4.312 1.165 12.727 3.05 25.087 4.171 33.317-1.894-.039-.844-.474-1.475-.254-2.459l-.052.013-.329.073c-7.816 1.717-17.305 2.292-27.231-.69l-.006-.002h-.001a48.871 48.871 0 01-3.584-1.23c-7.85-3.035-12.447-7.889-17.052-13.262-3.619-4.222-5.53-7.963-7.184-13.075-.402-1.244-1.27-2.737-.865-4.092.065-.219.164-.433.302-.642 2.31 5.319 3.526 11.228 7.858 15.46 1.53-3.597 3.288-6.814 5.313-9.595.38.302.762.603 1.147.901-2.016 2.879-3.774 6.153-5.533 9.569 2.052 2.313 3.894 4.97 6.405 7.085l.064.053.025.021c3.585 2.993 8.149 5.206 13.072 6.685l.002.001.008.002c10.072 3.026 21.642 2.982 29.372.269l.253-.091c1.065.293 2.04.518 2.909.668a24.489 24.489 0 01-4.419 1.625c1.988 3.653 4.259 7.508 6.978 11.386-.505.132-1.027.255-1.568.37-1.237-2.006-2.394-3.911-3.721-5.493.376 1.972.712 3.965.998 5.985a56.53 56.53 0 01-1.442.198 252.894 252.894 0 00-1.03-7.221c-1.217.197-3.348 1.149-4.752 1.945.333 1.847.602 3.75.812 5.708-.456.024-.918.045-1.385.063a83.742 83.742 0 00-.683-5.552l-.061.023c-8.037 3.076-19.264 1.451-30.436-1.906l-.005-.002-.003-.001c-6.78-2.038-13.54-4.714-19.558-7.362l-.307-.136a2.085 2.085 0 01-.083-.037l-.043-.019c-1.106-.502-2.123-1.136-3.108-1.772-1.594-1.03-3.102-2.068-4.765-2.57l-.009-.002a8.933 8.933 0 00-.365-.101c.27 1.976.493 4.016.667 6.116zm-13.955-42.415a14.932 14.932 0 00-.476 2.193c2.937-4.376 6.192-8.161 10.018-10.882a.075.075 0 00.007-.012l.008-.015c.114-.19.346-.261-.047-.38l-.002-.001-.017-.004-.02-.007c-3.722 1.72-7.884 3.81-9.47 9.108zm-9.669 16.175a26.818 26.818 0 01-.187-.277 31.6 31.6 0 002.312-4.608c-.117.388-.245.777-.383 1.168a22.497 22.497 0 01-1.742 3.717z" fill="#A68C99"/><path fill-rule="evenodd" clip-rule="evenodd" d="M35.623 147.029c-1.068.048-2.06.397-2.897 1.064-.15.12.053.337.202.218.775-.616 1.702-.94 2.688-.984.19-.009.2-.306.007-.298zM35.81 148.345c-1.143.215-2.179.691-3.198 1.238-.169.091-.028.353.141.262.996-.536 2.01-1 3.127-1.21.19-.036.12-.324-.07-.29zM106.945 158.988c-.385 1.232-.911 2.598-1.896 3.478-.55.492.231 1.324.777.835 1.135-1.013 1.767-2.563 2.212-3.984.219-.702-.873-1.03-1.093-.329zM104.152 158.974l-.395 1.315c-.132.438 1.183.833 1.314.395l.396-1.315c.131-.438-1.183-.834-1.315-.395zM99.165 204.217c-.692.016-1.403-.133-1.842-.264-.875-.263-1.203.828-.327 1.091.438.132 1.404.345 2.187.327.731-.017.718-1.172-.019-1.154zM98.478 206.337c-.584.294-1.138.103-1.73-.074-.705-.212-1.034.882-.328 1.092.901.271 1.722.428 2.6-.014.656-.332.114-1.336-.542-1.004zM66.296 144.311c-.635-.173-1.18-.031-1.745.272-.649.348-.108 1.352.541 1.004a3.03 3.03 0 01.414-.192.778.778 0 01.462.009c.708.194 1.038-.897.328-1.093zM66.054 146.184c-.614.107-1.255.196-1.819.479-.657.33-.115 1.334.541 1.004.466-.234 1.037-.286 1.545-.374.725-.126.455-1.235-.267-1.109z" fill="#FFFFFE"/><path fill-rule="evenodd" clip-rule="evenodd" d="M49.948 218.367c-.692.113-1.458.085-2.1.393-.666.318-.123 1.321.54 1.004.217-.105.5-.119.738-.151.364-.047.73-.079 1.09-.137.727-.119.455-1.227-.268-1.109zM50.814 216.859c-.152-.284-.492-.367-.773-.232.086-.042-.155.03-.07.022a1.57 1.57 0 01-.322-.017c.063.009-.13-.032-.152-.037-.083-.021-.164-.046-.246-.07-.704-.211-1.033.881-.328 1.092.546.164 1.123.27 1.66.013.28-.133.373-.507.231-.771zM81.39 265.627c-.485-.175-.764-1.169-.789-1.663-.039-.729-1.179-.763-1.14-.026.052 1.033.535 2.398 1.6 2.781.693.251 1.018-.844.33-1.092zM82.3 262.969a6.855 6.855 0 01-.217-.428.394.394 0 01-.015-.039l-.03-.113-.004-.018.002-.031c.053-.29-.09-.584-.387-.673-.287-.086-.637.079-.71.382-.129.529.111 1.003.356 1.46a.577.577 0 00.772.232.576.576 0 00.232-.772zM92.251 237.387c-1.097.537-2.334.291-3.386-.239-.653-.329-1.262.635-.607.967 1.434.72 3.044 1.004 4.533.277.663-.324.12-1.327-.54-1.005zM91.995 234.982c-.874.041-1.805.33-2.67.108-.71-.183-1.04.91-.328 1.093.996.257 1.97-.013 2.971-.06.73-.034.764-1.175.027-1.141z" fill="#fff"/><path fill-rule="evenodd" clip-rule="evenodd" d="M96.013 58.538s-2.462-6.89-4.806-6.623c-2.346.266-3.832 3.056-2.022 4.57 1.81 1.516 4.511 3.299 4.511 3.299l2.317-1.246z" fill="#8930FD"/><path fill-rule="evenodd" clip-rule="evenodd" d="M144.314 70.141s6.235-1.363 5.286-3.59c-.948-2.227-2.819-2.466-4.452-1.338-1.634 1.127-2.288 2.225-2.288 2.225l1.454 2.703z" fill="#fff"/><path fill-rule="evenodd" clip-rule="evenodd" d="M3.431 350.999c-1.314-.395-1.827 1.311-.513 1.707.877.263 1.39-1.444.513-1.707zM2.2 370.819c-.185-.409-.66-.556-1.053-.674a.899.899 0 00-1.11.596.9.9 0 00.406 1.024.899.899 0 00.63.902.9.9 0 001.11-.597c.13-.431.213-.823.018-1.251zM31.075 325.799c-1.316-.395-1.828 1.312-.514 1.707.877.264 1.39-1.444.514-1.707zM29.992 319.592c-.31-.607-.59-1.58-.432-2.207.28-1.111-1.426-1.629-1.707-.513-.292 1.153.04 2.527.57 3.565.521 1.026 2.09.18 1.57-.845zM50.677 324.168c-.465-.14-.993.125-1.133.591l-.189.627c-.14.465.155.977.62 1.117.466.14.994-.125 1.134-.59l.188-.627c.14-.466-.155-.978-.62-1.118zM103.562 61.332c-2.523 1.359-5.036 2.781-6.608 5.264-.616.973.896 1.918 1.51.948 1.402-2.213 3.698-3.433 5.943-4.641 1.013-.546.168-2.116-.845-1.571zM104.69 64.406c-2.52 1.383-4.867 3.075-7.088 4.896-.892.73.331 2.03 1.215 1.305 2.107-1.727 4.326-3.32 6.717-4.631 1.008-.553.165-2.124-.844-1.57z" fill="#FFFFFE"/><path fill-rule="evenodd" clip-rule="evenodd" d="M74.157 99.786l.438.132 1.318-4.383-.439-.13-1.317 4.381zM76.915 98.113c.08-.289-.365-.423-.447-.134-.199.712-.136 1.46-.327 2.166-.078.29.367.424.445.134.192-.709.129-1.454.329-2.166zM91.84 129.902a7.326 7.326 0 01-1.901-3.074c-.09-.285-.543-.178-.452.109a7.811 7.811 0 002.013 3.282c.216.208.556-.108.34-.317zM92.743 128.856c-.632-.462-1.084-1.102-1.233-1.878-.056-.294-.508-.184-.452.11.172.894.71 1.63 1.438 2.162.242.177.488-.218.248-.394zM39.163 163.892c-.792-.535-1.7-.862-2.492-1.397-.25-.168-.495.227-.248.394.794.535 1.7.862 2.493 1.397.25.168.495-.227.248-.394zM40.797 162.767c-.704-.497-1.425-.982-2.06-1.567-.22-.202-.562.115-.34.317.664.611 1.416 1.124 2.153 1.643.246.173.491-.222.247-.393zM66.41 226.525c-.41-.765-.789-1.527-.833-2.409-.015-.298-.48-.312-.465-.011.05.967.436 1.798.888 2.639.142.264.551.044.41-.219zM68.042 225.396c-.167-.33-.312-.819-.219-1.189.073-.29-.372-.425-.445-.134-.125.496.028 1.097.254 1.542.136.268.545.047.41-.219zM16.66 313.636c.045-.295-.42-.302-.465-.011-.325 2.134-.668 4.277-1.27 6.352-.084.288.361.421.445.133.614-2.115.958-4.299 1.29-6.474zM17.97 314.657c-.001-.299-.463-.323-.46-.022.016 2.27-.7 4.446-1.357 6.638l.445.134c.658-2.192 1.39-4.439 1.373-6.75zM61.879 313.992l-.446-.134c-.658 2.192-1.138 3.827-1.412 5.805-.041.296.426.297.467.003.268-1.935.733-3.482 1.39-5.674zM60.7 281.265c.067-1.138.271-1.951.666-3.265l-.445-.134c-.395 1.314-.62 2.222-.69 3.401-.017.3.452.297.47-.002zM62.274 279.229l-.263.877c-.132.438.306.57.438.132l.263-.877c.132-.438-.306-.57-.438-.132zM50.667 351.239l-.79 2.63.438.132.79-2.63c.132-.438-.306-.57-.438-.132zM51.805 350.625l-.527 1.753.44.132.526-1.753c.132-.438-.307-.57-.439-.132zM28.849 245.768l.438.132.79-2.63-.438-.132-.79 2.63zM28.29 253.433c.08-.289-.365-.424-.444-.134-.25.905-.256 1.855-.506 2.761-.08.288.366.423.445.134.25-.907.256-1.856.506-2.761zM21.497 357.883c.081-.289-.363-.423-.445-.134-.426 1.496-.616 3.046-1.043 4.542-.081.288.364.423.447.134.425-1.497.615-3.046 1.04-4.542zM19.538 365.776l-.263.877c-.132.437.306.569.438.132l.263-.877c.132-.438-.306-.57-.438-.132zM16.172 383.025c-.079-.476-.035-.982-.258-1.422-.136-.267-.545-.047-.41.221.197.389.147.887.216 1.31.049.296.5.185.452-.109zM21.634 380.581l-.09.297c-.086.287.36.421.446.134l.09-.297c.086-.288-.36-.422-.446-.134z" fill="#fff"/><path fill-rule="evenodd" clip-rule="evenodd" d="M124.799 59.335c.106-.336.237-.715.391-1.134 1.626-.103 3.541-.5 4.966-1.083a16.624 16.624 0 01-1.159 1.612 14.644 14.644 0 01-4.198.605zm3.243-7.862c.18-.398.364-.8.552-1.209 1.878-.457 3.596-1.211 5.217-2.145l-.53 1.568a19.618 19.618 0 01-5.239 1.786zm3.408-7.274l.578-1.203c1.503-.28 2.925-.781 4.028-1.645-.182.559-.365 1.12-.548 1.676-1.345.406-2.654.877-4.058 1.172zm3.811-7.808l.567-1.145a11.114 11.114 0 002.389-.866c-.112.392-.232.801-.358 1.223-.816.357-1.673.636-2.598.788z" fill="#E4DFE0"/><path d="M44.209 122.876s-6.175-13.227-8.82-25.133c-2.646-11.906 2.442-2.345 4.41-3.086 3.736-1.41 7.319-1.505 10.142 1.32 2.273 2.277 1.788 4.748 2.204 7.938 1.155 8.867-6.174 22.048-6.174 22.048l-1.762-3.087z" fill="#E9EBF0"/><path d="M94.918 195.635l-8.82-3.087.883-19.843v-18.52l21.166 2.646 12.347 5.291-4.851 17.197-7.937 17.639-12.788-1.323z" fill="#fff"/><path d="M89.557 179.443l4.333-2.305c1.565 3.035 3.507 4.646 5.907 5.061 2.387.413 4.694-.447 7.093-2.775l3.373 3.565c-3.46 3.356-7.286 4.784-11.31 4.088-4.011-.694-7.171-3.317-9.396-7.634z" fill="url(#paint0_linear)"/><path d="M102.181 168.35l-7.827 4.761-2.503-4.238 11.46-6.972 8.373 10.411-3.795 3.134-5.708-7.096z" fill="url(#paint1_linear)"/><path d="M11.876 317.961l18.75-94.812 10.5 9.5-23.5 92-5.75-6.688z" fill="#ef4136"/><path d="M21.626 322.649l17-64.5 2.5 7.5 16.5 5-20 63.5-18 33.5-4 5.5 6-50.5z" fill="#FD71AF"/><path d="M36.627 335.649c9.5-30.833 29.5-92.7 29.5-93.5l10 4-23 85.5-21.5 35 5-31z" fill="#49CCF9"/><path d="M52.627 332.149l23.5-86-2 21 3 3.5-19.5 77-5 12-5.5 5.5.5-6.5 5-26.5z" fill="#FFC800"/><path d="M62.627 338.149l15-68v8.5l10-2.5-16 56.5-8.5 13-.5-7.5z" fill="#8930FD"/><path opacity=".7" d="M117.012 67.67c21.242 12.36 44.362 12.243 51.639-.263 7.278-12.506-4.043-32.665-25.285-45.026-21.242-12.36-44.362-12.243-51.639.263C84.45 35.15 95.77 55.31 117.012 67.67zM76.023 138.629c31.91 18.982 65.365 8.158 72.008-2.785 3.232-5.322-29.4 2.785-64.4-20.747-42.13-28.326-37.125-60.614-39-57.5-3.65 6.062-8.167 57.5 31.392 81.032z" fill="#fff"/><defs><linearGradient id="paint0_linear" x1="89.035" y1="182.257" x2="109.276" y2="185.76" gradientUnits="userSpaceOnUse"><stop stop-color="#8930FD"/><stop offset="1" stop-color="#49CCF9"/></linearGradient><linearGradient id="paint1_linear" x1="91.897" y1="168.641" x2="111.423" y2="172.02" gradientUnits="userSpaceOnUse"><stop stop-color="#FF02F0"/><stop offset="1" stop-color="#FFC800"/></linearGradient></defs></svg>