<svg width="28" height="28" viewBox="0 0 28 28" fill="none" xmlns="http://www.w3.org/2000/svg">
<path fill-rule="evenodd" clip-rule="evenodd" d="M0 4C0 1.79077 1.79089 0 4 0H8C10.2091 0 12 1.79077 12 4V8C12 10.2092 10.2091 12 8 12H4C1.79089 12 0 10.2092 0 8V4ZM4 4H8V8H4V4Z" fill="#49CCF9"/>
<path fill-rule="evenodd" clip-rule="evenodd" d="M16 4C16 1.79086 17.7909 0 20 0H24C26.2091 0 28 1.79086 28 4V8C28 10.2091 26.2091 12 24 12H20C17.7909 12 16 10.2091 16 8V4ZM20 4H24V8H20V4Z" fill="#49CCF9"/>
<path fill-rule="evenodd" clip-rule="evenodd" d="M4 16C1.79086 16 0 17.7909 0 20V24C0 26.2091 1.79086 28 4 28H8C10.2091 28 12 26.2091 12 24V20C12 17.7909 10.2091 16 8 16H4ZM8 20H4V24H8V20Z" fill="#49CCF9"/>
<path fill-rule="evenodd" clip-rule="evenodd" d="M16 20C16 17.7909 17.7909 16 20 16H24C26.2091 16 28 17.7909 28 20V24C28 26.2091 26.2091 28 24 28H20C17.7909 28 16 26.2091 16 24V20ZM20 20H24V24H20V20Z" fill="#49CCF9"/>
</svg>
