<svg width="20" height="21" viewBox="0 0 20 21" fill="none" xmlns="http://www.w3.org/2000/svg">
<path fill-rule="evenodd" clip-rule="evenodd" d="M9.88854 14.83C9.63368 14.83 9.40431 14.7459 9.21741 14.5803C9.02202 14.4129 8.92857 14.1801 8.92857 13.8811C8.92857 13.6152 9.02202 13.3926 9.20892 13.2108C9.39581 13.0299 9.61669 12.939 9.88854 12.939C10.1519 12.939 10.3813 13.0299 10.5597 13.2108C10.7381 13.3926 10.8315 13.6152 10.8315 13.8811C10.8315 14.1768 10.7381 14.4078 10.5512 14.5769C10.3558 14.7451 10.1349 14.83 9.88854 14.83ZM6.80475 7.90045C6.80475 7.50032 6.93218 7.0951 7.18704 6.68393C7.45039 6.27275 7.82418 5.93209 8.31691 5.66279C8.80963 5.39349 9.38731 5.25757 10.0414 5.25757C10.6531 5.25757 11.1883 5.37056 11.6556 5.59653C12.1228 5.82165 12.4881 6.12833 12.7429 6.51572C12.9978 6.90395 13.1252 7.32532 13.1252 7.78067C13.1252 8.13917 13.0573 8.45264 12.9044 8.72279C12.7599 8.99209 12.59 9.22486 12.3861 9.4211C12.1908 9.61734 11.8255 9.94696 11.3157 10.41C11.1713 10.5408 11.0524 10.6555 10.9674 10.7549C10.8825 10.8543 10.8145 10.9443 10.772 11.0267C10.7296 11.1091 10.6956 11.1915 10.6786 11.2739C10.6531 11.3555 10.6191 11.4999 10.5682 11.7063C10.4917 12.1447 10.2453 12.3639 9.82057 12.3639C9.59969 12.3639 9.4128 12.2925 9.26838 12.1489C9.11546 12.0054 9.03901 11.793 9.03901 11.5101C9.03901 11.1567 9.09847 10.85 9.20891 10.5909C9.31935 10.3318 9.46377 10.1041 9.64217 9.90788C9.82057 9.71164 10.0669 9.47887 10.3728 9.20957C10.6446 8.9734 10.84 8.795 10.9589 8.67522C11.0779 8.55458 11.1798 8.42121 11.2648 8.27339C11.3497 8.12642 11.3922 7.96586 11.3922 7.79341C11.3922 7.45615 11.2648 7.17155 11.0099 6.93963C10.7635 6.70856 10.4407 6.59218 10.0414 6.59218C9.57421 6.59218 9.2344 6.70856 9.01352 6.94303C8.80114 7.17665 8.61424 7.52156 8.46133 7.97691C8.31691 8.45264 8.04506 8.69051 7.64578 8.69051C7.40791 8.69051 7.21252 8.60726 7.05111 8.4416C6.88121 8.27509 6.80475 8.09414 6.80475 7.90045Z" fill="#7C828D"/>
<path fill-rule="evenodd" clip-rule="evenodd" d="M9.99893 1.69899C7.78166 1.69899 5.70032 2.56296 4.12869 4.13033C2.55707 5.69941 1.69904 7.785 1.69904 10.004C1.69904 12.2238 2.55707 14.3094 4.12869 15.8776C5.70032 17.4458 7.78166 18.3089 9.99893 18.3089C12.2162 18.3089 14.306 17.445 15.8777 15.8759C19.1144 12.6384 19.1144 7.36873 15.8777 4.13033C14.306 2.56296 12.2247 1.69899 9.99893 1.69899ZM9.99894 20.0081C7.33142 20.0081 4.81682 18.9682 2.93087 17.0797C1.03642 15.1896 0 12.6775 0 10.004C0 7.33142 1.03642 4.81852 2.93087 2.92917C4.81682 1.04067 7.33142 0 9.99894 0C12.675 0 15.1896 1.04067 17.0755 2.92917C20.9748 6.8302 20.9748 13.177 17.0755 17.0781C15.1896 18.9674 12.675 20.0081 9.99894 20.0081Z" fill="#7C828D"/>
</svg>
