<svg width="31" height="25" viewBox="0 0 31 25" fill="none" xmlns="http://www.w3.org/2000/svg">
<path d="M0.5 3C0.5 1.61929 1.61929 0.5 3 0.5H28C29.3807 0.5 30.5 1.61929 30.5 3V19C30.5 20.3807 29.3807 21.5 28 21.5H3C1.61929 21.5 0.5 20.3807 0.5 19V3Z" stroke="white"/>
<path d="M0 0H29.0172" transform="translate(0.5 16.5)" stroke="white" stroke-linecap="square"/>
<path fill-rule="evenodd" clip-rule="evenodd" d="M0 0.5C0 0.223858 0.223858 0 0.5 0H9.5C9.77614 0 10 0.223858 10 0.5C10 0.776142 9.77614 1 9.5 1H0.5C0.223858 1 0 0.776142 0 0.5Z" transform="translate(10 24)" fill="white"/>
<path fill-rule="evenodd" clip-rule="evenodd" d="M0 0.5C0 0.223858 0.223858 0 0.5 0H3C3.27614 0 3.5 0.223858 3.5 0.5C3.5 0.776142 3.27614 1 3 1H0.5C0.223858 1 0 0.776142 0 0.5Z" transform="translate(13.4355 21.189) rotate(105)" fill="white"/>
<path fill-rule="evenodd" clip-rule="evenodd" d="M0 0.5C0 0.223858 0.223858 0 0.5 0H3C3.27614 0 3.5 0.223858 3.5 0.5C3.5 0.776142 3.27614 1 3 1H0.5C0.223858 1 0 0.776142 0 0.5Z" transform="translate(17.5293 20.9302) rotate(75)" fill="white"/>
</svg>
