<svg width="273" height="60" xmlns="http://www.w3.org/2000/svg"><g fill="none" fill-rule="evenodd"><path d="M59.411 29.8c0 16.457-13.3 29.798-29.705 29.798C13.3 59.598 0 46.257 0 29.8 0 13.342 13.3 0 29.706 0 46.11 0 59.41 13.34 59.41 29.797c0 11.396-9.207 20.632-20.565 20.632S18.28 41.193 18.28 29.8c0-11.394 9.208-20.63 20.566-20.63 11.357 0 20.564 9.235 20.565 20.628z" fill="#2296E1"/><path d="M38.846 50.43c11.358 0 20.565-9.237 20.565-20.63 0-11.395-9.207-20.631-20.565-20.631S18.28 18.405 18.28 29.799c0 11.394 9.208 20.63 20.566 20.63zm-9.14-9.17c6.31 0 11.425-5.131 11.425-11.46 0-6.33-5.115-11.462-11.425-11.462-6.31 0-11.426 5.131-11.426 11.461S23.396 41.26 29.706 41.26z" fill="#00D069"/><g fill="#34495E"><path d="M91.035 19.267L86.39 33.056l-3.95-13.79h-6.078l6.815 21.47h5.86l4.906-14.662 4.992 14.662h5.774l6.685-21.47h-5.73l-3.95 13.833-4.602-13.832h-6.077zm32.99 16.843c-2.82 0-5.425-2.094-5.425-6.109 0-4.058 2.604-6.109 5.426-6.109s5.426 2.051 5.426 6.11c0 4.057-2.604 6.108-5.426 6.108zm0-17.498c-6.38 0-11.199 4.756-11.199 11.39 0 6.588 4.819 11.388 11.2 11.388 6.381 0 11.2-4.8 11.2-11.389 0-6.633-4.819-11.389-11.2-11.389zm28.781.567c-.434-.043-.868-.087-1.345-.087-1.823 0-4.775.524-6.078 3.36v-3.185h-5.6v21.469h5.774v-9.818c0-4.626 2.561-6.066 5.513-6.066.521 0 1.085.044 1.736.175v-5.848zm24.787.088h-7.553l-7.38 7.985V9.142h-5.773v31.594h5.773v-5.673l2.388-2.53 5.643 8.203h7.076l-8.725-12.437 8.551-9.032zm19.839 21.469v-5.062H186.84l10.418-11.564v-4.843h-17.234v5.018h9.854L179.764 35.63v5.106h17.668zm14.151-4.626c-2.822 0-5.426-2.094-5.426-6.109 0-4.058 2.604-6.109 5.426-6.109s5.426 2.051 5.426 6.11c0 4.057-2.604 6.108-5.426 6.108zm0-17.498c-6.381 0-11.2 4.756-11.2 11.39 0 6.588 4.819 11.388 11.2 11.388 6.381 0 11.2-4.8 11.2-11.389 0-6.633-4.819-11.389-11.2-11.389zm21.531 9.775c0-2.488 1.476-4.451 3.994-4.451 2.778 0 3.95 1.876 3.95 4.276v12.524h5.774V27.208c0-4.712-2.431-8.509-7.727-8.509-2.3 0-4.862 1.004-6.164 3.23v-2.662h-5.6v21.469h5.773v-12.35zm23.789-.83c.13-1.963 1.78-4.232 4.775-4.232 3.299 0 4.688 2.094 4.775 4.233h-9.55zm10.114 5.586c-.694 1.92-2.17 3.273-4.862 3.273-2.865 0-5.252-2.051-5.382-4.888h15.28c0-.087.087-.96.087-1.789 0-6.894-3.95-11.127-10.549-11.127-5.47 0-10.505 4.45-10.505 11.302 0 7.244 5.166 11.476 11.026 11.476 5.252 0 8.638-3.098 9.724-6.807l-4.819-1.44z"/></g></g></svg>