<svg width="17" height="9" viewBox="0 0 17 9" fill="none" xmlns="http://www.w3.org/2000/svg">
<mask id="path-1-inside-1_4956_21452" fill="white">
<path fill-rule="evenodd" clip-rule="evenodd" d="M15.9187 5.12824L3.48716 5.12824L5.36388 7.00496C5.68411 7.32519 5.68411 7.84438 5.36388 8.16461C5.04365 8.48484 4.52445 8.48484 4.20422 8.16461L0.930454 4.89084C0.783319 4.74371 0.703787 4.55457 0.69186 4.36203C0.690708 4.34425 0.690124 4.32631 0.690124 4.30824C0.690124 4.07852 0.784587 3.87086 0.936788 3.72199L4.21043 0.448353C4.53066 0.128123 5.04985 0.128122 5.37008 0.448352C5.69031 0.768582 5.69031 1.28778 5.37008 1.60801L3.48985 3.48824L15.9187 3.48824C16.3716 3.48824 16.7387 3.85537 16.7387 4.30824C16.7387 4.76111 16.3716 5.12824 15.9187 5.12824Z"/>
</mask>
<path fill-rule="evenodd" clip-rule="evenodd" d="M15.9187 5.12824L3.48716 5.12824L5.36388 7.00496C5.68411 7.32519 5.68411 7.84438 5.36388 8.16461C5.04365 8.48484 4.52445 8.48484 4.20422 8.16461L0.930454 4.89084C0.783319 4.74371 0.703787 4.55457 0.69186 4.36203C0.690708 4.34425 0.690124 4.32631 0.690124 4.30824C0.690124 4.07852 0.784587 3.87086 0.936788 3.72199L4.21043 0.448353C4.53066 0.128123 5.04985 0.128122 5.37008 0.448352C5.69031 0.768582 5.69031 1.28778 5.37008 1.60801L3.48985 3.48824L15.9187 3.48824C16.3716 3.48824 16.7387 3.85537 16.7387 4.30824C16.7387 4.76111 16.3716 5.12824 15.9187 5.12824Z" fill="#E9EBF0"/>
<path d="M3.48716 5.12824L2.89319 5.72221L1.45922 4.28824L3.48716 4.28824L3.48716 5.12824ZM5.36388 7.00496L5.95785 6.41099L5.95785 6.41099L5.36388 7.00496ZM5.36388 8.16461L5.95785 8.75858L5.95785 8.75858L5.36388 8.16461ZM4.20422 8.16461L4.79819 7.57064L4.79819 7.57064L4.20422 8.16461ZM0.930454 4.89084L1.52442 4.29687L1.52442 4.29687L0.930454 4.89084ZM0.69186 4.36203L1.53011 4.30775L1.53025 4.31009L0.69186 4.36203ZM0.936788 3.72199L1.53079 4.316L1.52415 4.3225L0.936788 3.72199ZM4.21043 0.448353L3.61646 -0.145617L3.61646 -0.145617L4.21043 0.448353ZM5.37008 0.448352L4.77611 1.04232L4.77611 1.04232L5.37008 0.448352ZM3.48985 3.48824L3.48985 4.32824L1.46191 4.32824L2.89588 2.89427L3.48985 3.48824ZM3.48716 4.28824L15.9187 4.28824L15.9187 5.96824L3.48716 5.96824L3.48716 4.28824ZM4.76991 7.59893L2.89319 5.72221L4.08113 4.53427L5.95785 6.41099L4.76991 7.59893ZM4.76991 7.57064C4.76905 7.5715 4.76703 7.5741 4.76558 7.57769C4.76435 7.5807 4.76405 7.58309 4.76405 7.58478C4.76405 7.58648 4.76435 7.58887 4.76558 7.59188C4.76703 7.59547 4.76905 7.59807 4.76991 7.59893L5.95785 6.41099C6.60612 7.05926 6.60612 8.11031 5.95785 8.75858L4.76991 7.57064ZM4.79819 7.57064C4.79734 7.56979 4.79473 7.56776 4.79115 7.56631C4.78813 7.56509 4.78575 7.56478 4.78405 7.56478C4.78236 7.56478 4.77997 7.56509 4.77695 7.56631C4.77337 7.56776 4.77077 7.56979 4.76991 7.57064L5.95785 8.75858C5.30958 9.40685 4.25852 9.40685 3.61025 8.75858L4.79819 7.57064ZM1.52442 4.29687L4.79819 7.57064L3.61025 8.75858L0.336484 5.48481L1.52442 4.29687ZM1.53025 4.31009C1.53015 4.30842 1.52972 4.30605 1.52844 4.30317C1.52697 4.29986 1.52513 4.29758 1.52442 4.29687L0.336484 5.48481C0.03903 5.18736 -0.122429 4.80307 -0.146533 4.41396L1.53025 4.31009ZM1.53012 4.30824L1.5301 4.30775L-0.146385 4.4163C-0.148705 4.38047 -0.149876 4.34443 -0.149876 4.30824L1.53012 4.30824ZM1.52415 4.3225C1.52537 4.3213 1.52686 4.31942 1.52815 4.31642C1.52969 4.31283 1.53012 4.30949 1.53012 4.30824L-0.149876 4.30824C-0.149876 3.84337 0.0423177 3.42187 0.349428 3.12149L1.52415 4.3225ZM0.342818 3.12802L3.61646 -0.145617L4.8044 1.04232L1.53076 4.31596L0.342818 3.12802ZM3.61646 -0.145617C4.26473 -0.793886 5.31578 -0.79389 5.96405 -0.145617L4.77611 1.04232C4.77697 1.04318 4.77957 1.0452 4.78316 1.04665C4.78618 1.04788 4.78856 1.04818 4.79026 1.04818C4.79195 1.04818 4.79434 1.04788 4.79736 1.04665C4.80094 1.0452 4.80354 1.04318 4.8044 1.04232L3.61646 -0.145617ZM5.96405 -0.145617C6.61232 0.502652 6.61232 1.55371 5.96405 2.20198L4.77611 1.01404C4.77526 1.01489 4.77323 1.0175 4.77178 1.02108C4.77056 1.0241 4.77026 1.02648 4.77026 1.02818C4.77026 1.02988 4.77056 1.03226 4.77178 1.03528C4.77323 1.03886 4.77526 1.04147 4.77611 1.04232L5.96405 -0.145617ZM5.96405 2.20198L4.08382 4.08221L2.89588 2.89427L4.77611 1.01404L5.96405 2.20198ZM15.9187 4.32824L3.48985 4.32824L3.48985 2.64824L15.9187 2.64824L15.9187 4.32824ZM15.8987 4.30824C15.8987 4.30945 15.8991 4.31272 15.9006 4.31628C15.9019 4.31928 15.9034 4.32118 15.9046 4.32238C15.9057 4.32358 15.9076 4.32505 15.9106 4.32632C15.9142 4.32783 15.9175 4.32824 15.9187 4.32824L15.9187 2.64824C16.8355 2.64824 17.5787 3.39145 17.5787 4.30824L15.8987 4.30824ZM15.9187 4.28824C15.9175 4.28824 15.9142 4.28865 15.9107 4.29016C15.9076 4.29143 15.9057 4.2929 15.9046 4.2941C15.9034 4.2953 15.9019 4.2972 15.9006 4.3002C15.8991 4.30376 15.8987 4.30703 15.8987 4.30824L17.5787 4.30824C17.5787 5.22503 16.8355 5.96824 15.9187 5.96824L15.9187 4.28824Z" fill="#292D34" mask="url(#path-1-inside-1_4956_21452)"/>
</svg>
