<svg width="31" height="32" viewBox="0 0 31 32" fill="none" xmlns="http://www.w3.org/2000/svg">
<path d="M6.95718 0C6.12001 0 5.44141 0.706882 5.44141 1.57894V29.9998C5.44141 30.8718 6.12001 31.5787 6.95718 31.5787H29.1886C30.0258 31.5787 30.7044 30.8718 30.7044 29.9998V5.52627L25.1781 0H6.95718Z" fill="#E0E4EC"/>
<path d="M26.8366 5.52627H30.705L25.1787 0V3.86839C25.1787 4.78405 25.9209 5.52627 26.8366 5.52627Z" fill="#D1D9E0"/>
<path d="M27.479 16.8418H4.91504V28.4207H27.479C27.8069 28.4207 28.0728 28.1326 28.0728 27.7774V17.485C28.0728 17.1298 27.8069 16.8418 27.479 16.8418Z" fill="#C3CDD6"/>
<path d="M26.4541 27.3679H1.27281C0.768057 27.3679 0.515215 26.6751 0.872168 26.2698L5.00421 21.5785L0.872168 16.8872C0.515215 16.4819 0.768057 15.7891 1.27281 15.7891H26.4541C26.767 15.7891 27.0207 16.0771 27.0207 16.4323V26.7246C27.0207 27.0799 26.767 27.3679 26.4541 27.3679Z" fill="#B9BEC7"/>
<path d="M10.6704 25.1925H7.9337C7.42986 25.1925 7.02148 24.784 7.02148 24.2803V18.8067C7.02148 18.3029 7.42997 17.8945 7.9337 17.8945H10.6704C11.1743 17.8945 11.5827 18.303 11.5827 18.8067C11.5827 19.3105 11.1742 19.719 10.6704 19.719H8.84591V23.3679H10.6704C11.1743 23.3679 11.5827 23.7764 11.5827 24.2801C11.5827 24.7839 11.1742 25.1925 10.6704 25.1925Z" fill="white"/>
<path d="M16.9849 25.1923H14.2481C13.7443 25.1923 13.3359 24.7839 13.3359 24.2801C13.3359 23.7764 13.7444 23.3679 14.2481 23.3679H16.0727V22.4557H14.2481C13.7443 22.4557 13.3359 22.0472 13.3359 21.5435V18.8067C13.3359 18.3029 13.7444 17.8945 14.2481 17.8945H16.9849C17.4887 17.8945 17.8971 18.303 17.8971 18.8067C17.8971 19.3105 17.4886 19.719 16.9849 19.719H15.1604V20.6312H16.9849C17.4887 20.6312 17.8971 21.0397 17.8971 21.5434V24.2801C17.8971 24.7839 17.4886 25.1923 16.9849 25.1923Z" fill="white"/>
<path d="M22.1833 25.1928C21.7907 25.1928 21.442 24.9415 21.3178 24.5691L19.4933 19.0956C19.3341 18.6177 19.5923 18.1011 20.0703 17.9417C20.5489 17.7822 21.0648 18.0407 21.2243 18.5186L22.1833 21.3957L23.1423 18.5186C23.3017 18.0408 23.8182 17.7825 24.2964 17.9417C24.7742 18.1009 25.0325 18.6176 24.8733 19.0956L23.0488 24.5691C22.9247 24.9415 22.5761 25.1928 22.1833 25.1928Z" fill="white"/>
</svg>
