<svg width="63" height="48" viewBox="0 0 63 48" fill="none" xmlns="http://www.w3.org/2000/svg">
<path opacity="0.15" d="M59.1 0.638188L62.3 4.63818C52.9667 12.1048 48.3 17.5715 48.3 21.0382C48.3 22.9049 49.9667 24.3049 53.3 25.2382C58.7667 26.7049 61.5 30.2382 61.5 35.8382C61.5 39.1715 60.3 41.9715 57.9 44.2382C55.1 46.3715 52.1667 47.4382 49.1 47.4382C46.5667 47.4382 43.8333 46.4382 40.9 44.4382C37.9667 41.5049 36.5 37.5715 36.5 32.6382C36.5 26.7715 38.0333 21.3715 41.1 16.4382C44.5667 10.5715 50.5667 5.30486 59.1 0.638188ZM23.3 0.638188L26.3 4.63818C16.9667 12.1048 12.3 17.5715 12.3 21.0382C12.3 22.9049 13.9667 24.3049 17.3 25.2382C22.7667 26.7049 25.5 30.2382 25.5 35.8382C25.5 39.1715 24.3667 41.9715 22.1 44.2382C19.3 46.3715 16.3 47.4382 13.1 47.4382C10.5667 47.4382 7.83334 46.4382 4.90001 44.4382C1.96668 41.5049 0.500009 37.5715 0.500009 32.6382C0.500009 26.7715 2.03334 21.3715 5.10001 16.4382C8.56667 10.5715 14.6333 5.30486 23.3 0.638188Z" fill="white"/>
</svg>
