<svg width="16" height="10" viewBox="0 0 16 10" fill="none" xmlns="http://www.w3.org/2000/svg">
<mask id="path-1-inside-1_1112_8605" fill="white">
<path fill-rule="evenodd" clip-rule="evenodd" d="M1.00003 3.99582H12.5893L10.3006 1.70711C9.91009 1.31658 9.91009 0.683417 10.3006 0.292893C10.6911 -0.0976314 11.3243 -0.0976307 11.7148 0.292894L15.7072 4.2853C15.9029 4.481 16.0006 4.73763 16.0001 4.99413C16.0006 5.25061 15.9029 5.50723 15.7072 5.70293L11.7073 9.7029C11.3167 10.0934 10.6836 10.0934 10.293 9.7029C9.90252 9.31237 9.90252 8.67921 10.293 8.28868L12.5859 5.99582H1.00003C0.447744 5.99582 2.86102e-05 5.5481 2.86102e-05 4.99582C2.86102e-05 4.44354 0.447744 3.99582 1.00003 3.99582Z"/>
</mask>
<path fill-rule="evenodd" clip-rule="evenodd" d="M1.00003 3.99582H12.5893L10.3006 1.70711C9.91009 1.31658 9.91009 0.683417 10.3006 0.292893C10.6911 -0.0976314 11.3243 -0.0976307 11.7148 0.292894L15.7072 4.2853C15.9029 4.481 16.0006 4.73763 16.0001 4.99413C16.0006 5.25061 15.9029 5.50723 15.7072 5.70293L11.7073 9.7029C11.3167 10.0934 10.6836 10.0934 10.293 9.7029C9.90252 9.31237 9.90252 8.67921 10.293 8.28868L12.5859 5.99582H1.00003C0.447744 5.99582 2.86102e-05 5.5481 2.86102e-05 4.99582C2.86102e-05 4.44354 0.447744 3.99582 1.00003 3.99582Z" fill="#E9EBF0"/>
<path d="M12.5893 3.99582L13.2964 3.28871L15.0035 4.99582H12.5893V3.99582ZM10.3006 1.70711L11.0077 0.999999V1L10.3006 1.70711ZM10.3006 0.292893L11.0077 1L10.3006 0.292893ZM11.7148 0.292894L11.0077 1L11.0077 1L11.7148 0.292894ZM15.7072 4.2853L16.4143 3.57819L16.4143 3.57819L15.7072 4.2853ZM16.0001 4.99413L15.0001 4.99581L15.0001 4.99241L16.0001 4.99413ZM15.7072 5.70293L15.0001 4.99582H15.0001L15.7072 5.70293ZM11.7073 9.7029L12.4144 10.41L12.4144 10.41L11.7073 9.7029ZM10.293 9.7029L9.58594 10.41L9.58594 10.41L10.293 9.7029ZM10.293 8.28868L9.58594 7.58158L9.58594 7.58158L10.293 8.28868ZM12.5859 5.99582V4.99582H15.0001L13.293 6.70293L12.5859 5.99582ZM12.5893 4.99582H1.00003V2.99582H12.5893V4.99582ZM11.0077 1L13.2964 3.28871L11.8822 4.70293L9.59351 2.41421L11.0077 1ZM11.0077 1V0.999999L9.59351 2.41421C8.81246 1.63316 8.81246 0.366835 9.59351 -0.414214L11.0077 1ZM11.0077 1L11.0077 1L9.59351 -0.414214C10.3746 -1.19526 11.6409 -1.19526 12.4219 -0.414213L11.0077 1ZM15.0001 4.9924L11.0077 1L12.4219 -0.414213L16.4143 3.57819L15.0001 4.9924ZM15.0001 4.99241L15.0001 4.9924L16.4143 3.57819C16.8056 3.9694 17.001 4.48442 17.0001 4.99585L15.0001 4.99241ZM17.0001 4.99245C17.001 5.50385 16.8055 6.01884 16.4143 6.41003L15.0001 4.99582L15.0001 4.99581L17.0001 4.99245ZM16.4143 6.41003L12.4144 10.41L11.0002 8.99579L15.0001 4.99582L16.4143 6.41003ZM12.4144 10.41C11.6333 11.1911 10.367 11.1911 9.58594 10.41L11.0002 8.99579H11.0002L12.4144 10.41ZM9.58594 10.41C8.80489 9.62896 8.80489 8.36263 9.58594 7.58158L11.0002 8.99579L11.0002 8.99579L9.58594 10.41ZM9.58594 7.58158L11.8788 5.28871L13.293 6.70293L11.0002 8.99579L9.58594 7.58158ZM1.00003 4.99582H12.5859V6.99582H1.00003V4.99582ZM1.00003 4.99582V6.99582C-0.10454 6.99582 -0.999971 6.10039 -0.999971 4.99582H1.00003ZM1.00003 4.99582H-0.999971C-0.999971 3.89125 -0.10454 2.99582 1.00003 2.99582V4.99582Z" fill="#B9BEC7" mask="url(#path-1-inside-1_1112_8605)"/>
</svg>
