<svg xmlns="http://www.w3.org/2000/svg" width="35" height="43"><path fill-rule="evenodd" fill="#CECAD5" d="M34.265 33.515a23.622 23.622 0 0 1-2.234 4.157c-1.174 1.734-2.136 2.934-2.878 3.6-1.149 1.093-2.38 1.654-3.698 1.685-.947 0-2.088-.278-3.417-.844-1.333-.562-2.558-.841-3.678-.841-1.175 0-2.435.279-3.782.841-1.35.566-2.437.861-3.269.89-1.264.055-2.524-.521-3.782-1.731-.803-.725-1.807-1.967-3.01-3.727-1.291-1.88-2.352-4.059-3.183-6.544-.89-2.684-1.337-5.283-1.337-7.799 0-2.882.602-5.368 1.807-7.451.948-1.673 2.208-2.993 3.785-3.962a9.917 9.917 0 0 1 5.117-1.494c1.004 0 2.321.321 3.957.953 1.632.634 2.68.955 3.139.955.344 0 1.508-.376 3.481-1.125 1.866-.695 3.441-.983 4.731-.869 3.496.292 6.123 1.718 7.869 4.288-3.126 1.96-4.673 4.707-4.642 8.23.028 2.744.99 5.027 2.88 6.84a9.446 9.446 0 0 0 2.878 1.954 32.989 32.989 0 0 1-.734 1.994zM26.247.86c0 2.151-.759 4.159-2.272 6.018-1.827 2.21-4.035 3.487-6.431 3.285a7.047 7.047 0 0 1-.048-.815c0-2.065.868-4.275 2.411-6.081.77-.915 1.749-1.676 2.937-2.283C24.029.387 25.15.056 26.204 0c.03.287.043.575.043.86z"/></svg>