<svg fill="#B7AFED" xmlns="http://www.w3.org/2000/svg" viewBox="0 0 200 200"><path d="M40.59 99.998h-6.353c0-36.26 29.5-65.76 65.763-65.76h3.175v11.978L121.86 27.53 103.175 8.847v11.98H100c-43.657 0-79.174 35.516-79.174 79.171h-6.353c0-46.095 36.655-83.791 82.351-85.466V4.587A4.577 4.577 0 0 1 99.65.35a4.584 4.584 0 0 1 5.005.993l26.188 26.187-26.188 26.189a4.572 4.572 0 0 1-4.992.998 4.58 4.58 0 0 1-2.84-4.242v-9.801C65.535 42.331 40.59 68.307 40.59 99.998zM98.583 200a4.581 4.581 0 0 1-3.24-1.346l-26.188-26.188 26.188-26.186a4.575 4.575 0 0 1 5.003-.995 4.57 4.57 0 0 1 2.831 4.237v9.803c31.286-1.657 56.23-27.634 56.23-59.327h6.353c0 36.263-29.499 65.762-65.76 65.762h-3.176v-11.977l-18.685 18.683 18.685 18.683V179.17H100c43.656 0 79.174-35.517 79.174-79.171h6.353c0 46.095-36.654 83.792-82.35 85.466v9.945a4.578 4.578 0 0 1-2.828 4.237 4.615 4.615 0 0 1-1.766.353z"/><path d="M100 136.349c-20.045 0-36.352-16.306-36.352-36.351 0-20.042 16.307-36.349 36.352-36.349 20.044 0 36.352 16.306 36.352 36.349 0 20.045-16.308 36.351-36.352 36.351zm0-66.347c-16.541 0-29.999 13.457-29.999 29.996 0 16.543 13.458 29.998 29.999 29.998 16.541 0 29.999-13.455 29.999-29.998 0-16.539-13.458-29.996-29.999-29.996z"/><path d="M96.586 113.641L82.872 99.928l4.492-4.492 9.221 9.221 16.053-16.056 4.491 4.492zM60.936 165.195a76.522 76.522 0 0 1-6.198-4.147l4.208-5.669a69.47 69.47 0 0 0 5.625 3.764l-3.635 6.052zm-11.961-8.882a76.623 76.623 0 0 1-5.272-5.269l5.228-4.745a70.157 70.157 0 0 0 4.786 4.786l-4.742 5.228zm-10.006-11.028a76.858 76.858 0 0 1-4.15-6.195l6.049-3.637a68.831 68.831 0 0 0 3.767 5.621l-5.666 4.211zm-7.674-12.766a75.845 75.845 0 0 1-2.857-6.887l6.645-2.38a69.3 69.3 0 0 0 2.589 6.242l-6.377 3.025zm-5.024-14.026a76.207 76.207 0 0 1-1.45-7.318l6.984-1.028c.328 2.22.77 4.453 1.315 6.634l-6.849 1.712z"/><g><path d="M168.197 89.849a68.783 68.783 0 0 0-1.315-6.631l6.847-1.715a76.532 76.532 0 0 1 1.453 7.318l-6.985 1.028zm-3.278-13.105a69.69 69.69 0 0 0-2.592-6.243l6.378-3.024a76.094 76.094 0 0 1 2.859 6.885l-6.645 2.382zm-5.787-12.201a70.154 70.154 0 0 0-3.767-5.622l5.666-4.21a76.682 76.682 0 0 1 4.149 6.196l-6.048 3.636zm-8.066-10.85a69.814 69.814 0 0 0-4.783-4.781l4.739-5.23a76.473 76.473 0 0 1 5.274 5.272l-5.23 4.739zm-10.016-9.077a69.641 69.641 0 0 0-5.625-3.764l3.634-6.052a75.944 75.944 0 0 1 6.198 4.15l-4.207 5.666z"/></g></svg>