<svg width="106" height="107" viewBox="0 0 106 107" fill="none" xmlns="http://www.w3.org/2000/svg">
<path fill-rule="evenodd" clip-rule="evenodd" d="M0 0L24 2V20H0V0Z" fill="#367C24"/>
<path fill-rule="evenodd" clip-rule="evenodd" d="M87 87H103L106 107H87V87Z" fill="#367C24"/>
<path fill-rule="evenodd" clip-rule="evenodd" d="M0 0H51L106 52V107L0 0Z" fill="#5EC244"/>
<path d="M48.5405 31.076L52.7228 21.1985L51.3418 19.7684L41.3244 23.6035L42.8512 25.1846L45.0548 24.3023L47.9334 27.2832L46.9747 29.4546L48.5405 31.076ZM48.7682 25.4067L46.9593 23.5335L50.1498 22.2625L48.7682 25.4067ZM58.833 34.6804L58.8531 34.6609C60.8371 32.7451 60.8795 29.7458 58.74 27.5302L56.085 24.7809L49.0355 31.5886L51.6904 34.3379C53.83 36.5534 56.8491 36.5962 58.833 34.6804ZM57.2471 33.0784C55.9983 34.2844 54.3157 34.255 53.0903 32.9861L51.933 31.7877L56.1828 27.6836L57.3401 28.882C58.5655 30.1509 58.516 31.8531 57.2672 33.059L57.2471 33.0784ZM65.8846 41.9825L65.9047 41.9631C67.8887 40.0472 67.9311 37.0479 65.7916 34.8324L63.1366 32.083L56.0871 38.8907L58.742 41.64C60.8816 43.8556 63.9006 43.8984 65.8846 41.9825ZM64.2987 40.3806C63.0499 41.5865 61.3673 41.5571 60.1419 40.2882L58.9846 39.0898L63.2344 34.9858L64.3917 36.1842C65.6171 37.4531 65.5676 39.1552 64.3188 40.3611L64.2987 40.3806ZM75.9574 52.4133L75.9776 52.3938C77.9817 50.4585 78.0956 47.3318 75.995 45.1565C73.8943 42.9812 70.726 42.9853 68.7219 44.9206L68.7017 44.9401C66.6977 46.8754 66.5837 50.0021 68.6843 52.1774C70.785 54.3527 73.9534 54.3486 75.9574 52.4133ZM74.3715 50.8113C73.163 51.9783 71.3397 52.0653 70.1338 50.8166C68.9279 49.5678 69.0791 47.709 70.2876 46.542L70.3078 46.5226C71.5163 45.3555 73.3396 45.2685 74.5455 46.5173C75.7514 47.7661 75.6002 49.6248 74.3917 50.7919L74.3715 50.8113ZM79.2546 62.8814L86.3041 56.0737L84.8259 54.543L80.4854 58.7345L81.636 51.2398L80.255 49.8097L73.2055 56.6174L74.6837 58.1481L79.1652 53.8204L77.9806 61.5621L79.2546 62.8814Z" fill="white"/>
</svg>
