<svg width="121" height="77" viewBox="0 0 121 77" fill="none" xmlns="http://www.w3.org/2000/svg">
<path d="M28.2483 27.8037C34.1202 27.8037 36.8835 28.8399 41.1148 33.1575L63.8254 55.9545C64.5162 56.6453 64.6025 56.9044 64.7752 57.3361C64.8616 57.5088 64.8616 57.6816 64.8616 57.7679C64.8616 57.9406 64.8616 58.1133 64.7752 58.1997C64.6025 58.6314 64.5162 58.8905 63.8254 59.5813L48.282 75.211C47.5912 75.9019 47.3321 75.9882 46.9003 76.1609C46.7276 76.2473 46.5549 76.2473 46.4686 76.2473C46.2959 76.2473 46.1232 76.2473 46.0368 76.1609C45.6051 75.9882 45.346 75.9019 44.6552 75.211L0.701976 31.0851C-0.593305 29.7898 -0.0751938 27.8901 2.08361 27.8901H28.2483V27.8037Z" fill="#48B862"/>
<path d="M92.3217 0C86.4498 0 83.6865 1.03622 79.4553 5.35383L56.7447 28.1508C56.0538 28.8416 55.9675 29.1007 55.7948 29.5324C55.7084 29.7051 55.7084 29.8778 55.7084 29.9642C55.7084 30.1369 55.7084 30.3096 55.7948 30.396C55.9675 30.8277 56.0538 31.0868 56.7447 31.7776L72.288 47.321C72.9789 48.0118 73.2379 48.0981 73.6697 48.2709C73.8424 48.3572 74.0151 48.3572 74.1014 48.3572C74.2741 48.3572 74.4468 48.3572 74.5332 48.2709C74.9649 48.0981 75.224 48.0118 75.9148 47.321L119.868 3.19503C121.163 1.89974 120.645 0 118.486 0H92.3217Z" fill="#48B862"/>
</svg>
