<svg xmlns="http://www.w3.org/2000/svg" viewBox="0 0 62.1 62.1"><g data-name="Layer 2"><path d="M58.65 0H3.45A3.45 3.45 0 0 0 0 3.45v55.2a3.45 3.45 0 0 0 3.45 3.45h55.2a3.45 3.45 0 0 0 3.45-3.45V3.45A3.45 3.45 0 0 0 58.65 0zM29 55.2a2.07 2.07 0 0 1-2.07 2.07H6.9a2.07 2.07 0 0 1-2.07-2.07V44.13a2.07 2.07 0 0 1 2.07-2.07h20a2.07 2.07 0 0 1 2.1 2.07zm0-18.63a2.07 2.07 0 0 1-2.07 2.07H6.9a2.07 2.07 0 0 1-2.07-2.07V14.49a2.07 2.07 0 0 1 2.07-2.07h20a2.07 2.07 0 0 1 2.1 2.07zm28.27 18.64a2.07 2.07 0 0 1-2.07 2.07h-20a2.07 2.07 0 0 1-2.07-2.07V14.49a2.07 2.07 0 0 1 2.07-2.07h20a2.07 2.07 0 0 1 2.07 2.07z" fill="#a297e9" data-name="Layer 1"/></g></svg>