<svg width="135" height="26" xmlns="http://www.w3.org/2000/svg"><path d="M14.818 10.622l-.034-2.516V1.51c.68-.136 1.547-.204 2.601-.204s1.921.068 2.601.204v23.222c-.703.136-1.57.204-2.601.204s-1.898-.068-2.601-.204v-7.31l.034-2.516-1.734.034H8.902l-1.734-.034.034 2.516v7.31c-.68.136-1.553.204-2.618.204S2.657 24.868 2 24.732V1.51c.657-.136 1.519-.204 2.584-.204 1.065 0 1.938.068 2.618.204v6.596l-.034 2.516 1.734-.034h4.182l1.734.034zm20.725-3.06l2.414-6.052c.567-.136 1.309-.204 2.227-.204.918 0 1.728.125 2.43.374l.205.306-6.562 15.572v7.174c-.68.136-1.553.204-2.618.204s-1.927-.068-2.584-.204v-7.31l-6.562-15.3c1.065-.59 2.04-.884 2.924-.884.884 0 1.53.159 1.938.476.408.317.76.85 1.054 1.598l1.768 4.42c.544 1.405 1.054 3.003 1.53 4.794h.204c.363-1.473.907-3.128 1.632-4.964zm20.759 4.114l5.304-.034h.068c2.266 0 3.4 1.088 3.4 3.264v8.908c-2.81.952-5.848 1.428-9.112 1.428-3.264 0-5.746-1.065-7.446-3.196-1.7-2.13-2.55-5.055-2.55-8.772 0-1.995.3-3.791.9-5.389.601-1.598 1.412-2.896 2.432-3.893C51.338 1.997 53.83 1 56.778 1c2.946 0 5.69.816 8.228 2.448-.068.703-.335 1.411-.8 2.125-.464.714-.98 1.252-1.546 1.615-1.859-1.247-3.729-1.87-5.61-1.87-3.854 0-5.78 2.635-5.78 7.905 0 5.27 1.926 7.905 5.78 7.905.974 0 2.017-.102 3.128-.306V18.34c0-1.02.022-1.802.068-2.346h-1.87c-.862 0-1.485-.164-1.87-.493-.386-.329-.578-.89-.578-1.683s.124-1.507.374-2.142zm24.09 0l5.305-.034h.068c2.266 0 3.4 1.088 3.4 3.264v8.908c-2.811.952-5.848 1.428-9.112 1.428-3.264 0-5.746-1.065-7.446-3.196-1.7-2.13-2.55-5.055-2.55-8.772 0-1.995.3-3.791.9-5.389.601-1.598 1.412-2.896 2.432-3.893C75.429 1.997 77.922 1 80.869 1c2.946 0 5.689.816 8.228 2.448-.068.703-.335 1.411-.8 2.125-.464.714-.98 1.252-1.546 1.615-1.859-1.247-3.729-1.87-5.61-1.87-3.854 0-5.78 2.635-5.78 7.905 0 5.27 1.926 7.905 5.78 7.905.974 0 2.017-.102 3.128-.306V18.34c0-1.02.022-1.802.068-2.346h-1.87c-.862 0-1.485-.164-1.87-.493-.386-.329-.578-.89-.578-1.683s.124-1.507.374-2.142zm20.216 6.494l-.034 2.346v.034a56.476 56.476 0 0 1 2.482-.068h8.024c0 .816-.034 1.428-.102 1.836-.318 1.677-1.428 2.516-3.332 2.516h-9.18c-.93 0-1.66-.272-2.193-.816-.533-.544-.8-1.292-.8-2.244V1.748l.239-.238h14.518c.113.521.17 1.179.17 1.972 0 .793-.136 1.587-.408 2.38h-9.418l.034 2.414v2.686a61.6 61.6 0 0 1 2.278-.034h5.338c.204.544.306 1.241.306 2.091 0 .85-.102 1.57-.306 2.159h-7.616v2.992zM133.3 8.65c0 1.519-.413 2.833-1.24 3.944-.828 1.11-1.797 1.87-2.908 2.278 1.156.408 2.018 1.44 2.584 3.094l1.088 3.026c.386 1.088.941 1.915 1.666 2.482-.34.453-.827.827-1.462 1.122-.634.295-1.348.442-2.142.442-.793 0-1.405-.227-1.836-.68-.43-.453-.838-1.235-1.224-2.346l-1.292-3.706c-.226-.703-.56-1.247-1.003-1.632-.442-.385-1.093-.578-1.955-.578h-1.598v8.636c-.68.136-1.54.204-2.584.204-1.042 0-1.892-.068-2.55-.204V1.68l.238-.238c3.808-.09 6.483-.136 8.024-.136 2.471 0 4.454.618 5.95 1.853 1.496 1.235 2.244 3.066 2.244 5.491zm-11.322-3.434v6.902c1.496-.045 2.403-.068 2.72-.068 2.2 0 3.298-1.133 3.298-3.4s-1.099-3.4-3.298-3.4c-1.133 0-2.04-.011-2.72-.034z" fill="#2B8ADE" fill-rule="evenodd"/></svg>