<svg width="11" height="8" viewBox="0 0 11 8" fill="none" xmlns="http://www.w3.org/2000/svg">
<path d="M6.53624 6.46534C6.17926 6.81967 5.59806 6.82207 5.24108 6.46775L1.5731 2.827C1.21612 2.47267 1.21854 1.89579 1.57552 1.54146C1.9325 1.18713 2.5137 1.18473 2.87068 1.53905L6.53866 5.1798C6.89564 5.53413 6.89322 6.11101 6.53624 6.46534Z" fill="#C4C4C4"/>
<path d="M10.2093 1.53457C9.85228 1.18024 9.27108 1.17783 8.9141 1.53216L5.23917 5.1798C4.88219 5.53413 4.88461 6.11101 5.24159 6.46534C5.59857 6.81967 6.17977 6.82207 6.53675 6.46775L10.2117 2.82011C10.5687 2.46578 10.5662 1.88889 10.2093 1.53457Z" fill="#C4C4C4"/>
</svg>
