<svg width="700" height="270" viewBox="0 0 700 270" fill="none" xmlns="http://www.w3.org/2000/svg">
<path d="M658.623 184.68C658.623 225.288 620.071 258.48 600.795 270H36.9733H0C38.7417 249.289 115 212.76 115 163.08C115 116.64 58.908 115.56 58.908 69.12C58.908 28.512 102.445 11.52 121.721 0H700C674.326 17.01 600.795 23.22 600.795 82.62C600.795 135 658.623 123.12 658.623 184.68Z" fill="white"/>
<mask id="mask0" mask-type="alpha" maskUnits="userSpaceOnUse" x="0" y="0" width="700" height="270">
<path d="M658.623 184.68C658.623 225.288 620.071 258.48 600.795 270H36.9733H0C38.7417 249.289 115 212.76 115 163.08C115 116.64 58.908 115.56 58.908 69.12C58.908 28.512 102.445 11.52 121.721 0H700C674.326 17.01 600.795 23.22 600.795 82.62C600.795 135 658.623 123.12 658.623 184.68Z" fill="white"/>
</mask>
<g mask="url(#mask0)">
<g opacity="0.1">
<path d="M11 4.5C11 5.32843 10.3284 6 9.5 6C8.67157 6 8 5.32843 8 4.5C8 3.67157 8.67157 3 9.5 3C10.3284 3 11 3.67157 11 4.5Z" fill="black"/>
<path d="M31 4.5C31 5.32843 30.3284 6 29.5 6C28.6716 6 28 5.32843 28 4.5C28 3.67157 28.6716 3 29.5 3C30.3284 3 31 3.67157 31 4.5Z" fill="black"/>
<path d="M51 4.5C51 5.32843 50.3284 6 49.5 6C48.6716 6 48 5.32843 48 4.5C48 3.67157 48.6716 3 49.5 3C50.3284 3 51 3.67157 51 4.5Z" fill="black"/>
<path d="M71 4.5C71 5.32843 70.3284 6 69.5 6C68.6716 6 68 5.32843 68 4.5C68 3.67157 68.6716 3 69.5 3C70.3284 3 71 3.67157 71 4.5Z" fill="black"/>
<path d="M91 4.5C91 5.32843 90.3284 6 89.5 6C88.6716 6 88 5.32843 88 4.5C88 3.67157 88.6716 3 89.5 3C90.3284 3 91 3.67157 91 4.5Z" fill="black"/>
<path d="M111 4.5C111 5.32843 110.328 6 109.5 6C108.672 6 108 5.32843 108 4.5C108 3.67157 108.672 3 109.5 3C110.328 3 111 3.67157 111 4.5Z" fill="black"/>
<path d="M131 4.5C131 5.32843 130.328 6 129.5 6C128.672 6 128 5.32843 128 4.5C128 3.67157 128.672 3 129.5 3C130.328 3 131 3.67157 131 4.5Z" fill="black"/>
<path d="M151 4.5C151 5.32843 150.328 6 149.5 6C148.672 6 148 5.32843 148 4.5C148 3.67157 148.672 3 149.5 3C150.328 3 151 3.67157 151 4.5Z" fill="black"/>
<path d="M171 4.5C171 5.32843 170.328 6 169.5 6C168.672 6 168 5.32843 168 4.5C168 3.67157 168.672 3 169.5 3C170.328 3 171 3.67157 171 4.5Z" fill="black"/>
<path d="M11 24.5C11 25.3284 10.3284 26 9.5 26C8.67157 26 8 25.3284 8 24.5C8 23.6716 8.67157 23 9.5 23C10.3284 23 11 23.6716 11 24.5Z" fill="black"/>
<path d="M31 24.5C31 25.3284 30.3284 26 29.5 26C28.6716 26 28 25.3284 28 24.5C28 23.6716 28.6716 23 29.5 23C30.3284 23 31 23.6716 31 24.5Z" fill="black"/>
<path d="M51 24.5C51 25.3284 50.3284 26 49.5 26C48.6716 26 48 25.3284 48 24.5C48 23.6716 48.6716 23 49.5 23C50.3284 23 51 23.6716 51 24.5Z" fill="black"/>
<path d="M71 24.5C71 25.3284 70.3284 26 69.5 26C68.6716 26 68 25.3284 68 24.5C68 23.6716 68.6716 23 69.5 23C70.3284 23 71 23.6716 71 24.5Z" fill="black"/>
<path d="M91 24.5C91 25.3284 90.3284 26 89.5 26C88.6716 26 88 25.3284 88 24.5C88 23.6716 88.6716 23 89.5 23C90.3284 23 91 23.6716 91 24.5Z" fill="black"/>
<path d="M111 24.5C111 25.3284 110.328 26 109.5 26C108.672 26 108 25.3284 108 24.5C108 23.6716 108.672 23 109.5 23C110.328 23 111 23.6716 111 24.5Z" fill="black"/>
<path d="M131 24.5C131 25.3284 130.328 26 129.5 26C128.672 26 128 25.3284 128 24.5C128 23.6716 128.672 23 129.5 23C130.328 23 131 23.6716 131 24.5Z" fill="black"/>
<path d="M151 24.5C151 25.3284 150.328 26 149.5 26C148.672 26 148 25.3284 148 24.5C148 23.6716 148.672 23 149.5 23C150.328 23 151 23.6716 151 24.5Z" fill="black"/>
<path d="M171 24.5C171 25.3284 170.328 26 169.5 26C168.672 26 168 25.3284 168 24.5C168 23.6716 168.672 23 169.5 23C170.328 23 171 23.6716 171 24.5Z" fill="black"/>
<path d="M11 44.5C11 45.3284 10.3284 46 9.5 46C8.67157 46 8 45.3284 8 44.5C8 43.6716 8.67157 43 9.5 43C10.3284 43 11 43.6716 11 44.5Z" fill="black"/>
<path d="M31 44.5C31 45.3284 30.3284 46 29.5 46C28.6716 46 28 45.3284 28 44.5C28 43.6716 28.6716 43 29.5 43C30.3284 43 31 43.6716 31 44.5Z" fill="black"/>
<path d="M51 44.5C51 45.3284 50.3284 46 49.5 46C48.6716 46 48 45.3284 48 44.5C48 43.6716 48.6716 43 49.5 43C50.3284 43 51 43.6716 51 44.5Z" fill="black"/>
<path d="M71 44.5C71 45.3284 70.3284 46 69.5 46C68.6716 46 68 45.3284 68 44.5C68 43.6716 68.6716 43 69.5 43C70.3284 43 71 43.6716 71 44.5Z" fill="black"/>
<path d="M91 44.5C91 45.3284 90.3284 46 89.5 46C88.6716 46 88 45.3284 88 44.5C88 43.6716 88.6716 43 89.5 43C90.3284 43 91 43.6716 91 44.5Z" fill="black"/>
<path d="M111 44.5C111 45.3284 110.328 46 109.5 46C108.672 46 108 45.3284 108 44.5C108 43.6716 108.672 43 109.5 43C110.328 43 111 43.6716 111 44.5Z" fill="black"/>
<path d="M131 44.5C131 45.3284 130.328 46 129.5 46C128.672 46 128 45.3284 128 44.5C128 43.6716 128.672 43 129.5 43C130.328 43 131 43.6716 131 44.5Z" fill="black"/>
<path d="M151 44.5C151 45.3284 150.328 46 149.5 46C148.672 46 148 45.3284 148 44.5C148 43.6716 148.672 43 149.5 43C150.328 43 151 43.6716 151 44.5Z" fill="black"/>
<path d="M171 44.5C171 45.3284 170.328 46 169.5 46C168.672 46 168 45.3284 168 44.5C168 43.6716 168.672 43 169.5 43C170.328 43 171 43.6716 171 44.5Z" fill="black"/>
<path d="M11 64.5C11 65.3284 10.3284 66 9.5 66C8.67157 66 8 65.3284 8 64.5C8 63.6716 8.67157 63 9.5 63C10.3284 63 11 63.6716 11 64.5Z" fill="black"/>
<path d="M31 64.5C31 65.3284 30.3284 66 29.5 66C28.6716 66 28 65.3284 28 64.5C28 63.6716 28.6716 63 29.5 63C30.3284 63 31 63.6716 31 64.5Z" fill="black"/>
<path d="M51 64.5C51 65.3284 50.3284 66 49.5 66C48.6716 66 48 65.3284 48 64.5C48 63.6716 48.6716 63 49.5 63C50.3284 63 51 63.6716 51 64.5Z" fill="black"/>
<path d="M71 64.5C71 65.3284 70.3284 66 69.5 66C68.6716 66 68 65.3284 68 64.5C68 63.6716 68.6716 63 69.5 63C70.3284 63 71 63.6716 71 64.5Z" fill="black"/>
<path d="M91 64.5C91 65.3284 90.3284 66 89.5 66C88.6716 66 88 65.3284 88 64.5C88 63.6716 88.6716 63 89.5 63C90.3284 63 91 63.6716 91 64.5Z" fill="black"/>
<path d="M111 64.5C111 65.3284 110.328 66 109.5 66C108.672 66 108 65.3284 108 64.5C108 63.6716 108.672 63 109.5 63C110.328 63 111 63.6716 111 64.5Z" fill="black"/>
<path d="M131 64.5C131 65.3284 130.328 66 129.5 66C128.672 66 128 65.3284 128 64.5C128 63.6716 128.672 63 129.5 63C130.328 63 131 63.6716 131 64.5Z" fill="black"/>
<path d="M151 64.5C151 65.3284 150.328 66 149.5 66C148.672 66 148 65.3284 148 64.5C148 63.6716 148.672 63 149.5 63C150.328 63 151 63.6716 151 64.5Z" fill="black"/>
<path d="M171 64.5C171 65.3284 170.328 66 169.5 66C168.672 66 168 65.3284 168 64.5C168 63.6716 168.672 63 169.5 63C170.328 63 171 63.6716 171 64.5Z" fill="black"/>
<path d="M191 4.5C191 5.32843 190.328 6 189.5 6C188.672 6 188 5.32843 188 4.5C188 3.67157 188.672 3 189.5 3C190.328 3 191 3.67157 191 4.5Z" fill="black"/>
<path d="M211 4.5C211 5.32843 210.328 6 209.5 6C208.672 6 208 5.32843 208 4.5C208 3.67157 208.672 3 209.5 3C210.328 3 211 3.67157 211 4.5Z" fill="black"/>
<path d="M231 4.5C231 5.32843 230.328 6 229.5 6C228.672 6 228 5.32843 228 4.5C228 3.67157 228.672 3 229.5 3C230.328 3 231 3.67157 231 4.5Z" fill="black"/>
<path d="M251 4.5C251 5.32843 250.328 6 249.5 6C248.672 6 248 5.32843 248 4.5C248 3.67157 248.672 3 249.5 3C250.328 3 251 3.67157 251 4.5Z" fill="black"/>
<path d="M271 4.5C271 5.32843 270.328 6 269.5 6C268.672 6 268 5.32843 268 4.5C268 3.67157 268.672 3 269.5 3C270.328 3 271 3.67157 271 4.5Z" fill="black"/>
<path d="M291 4.5C291 5.32843 290.328 6 289.5 6C288.672 6 288 5.32843 288 4.5C288 3.67157 288.672 3 289.5 3C290.328 3 291 3.67157 291 4.5Z" fill="black"/>
<path d="M311 4.5C311 5.32843 310.328 6 309.5 6C308.672 6 308 5.32843 308 4.5C308 3.67157 308.672 3 309.5 3C310.328 3 311 3.67157 311 4.5Z" fill="black"/>
<path d="M331 4.5C331 5.32843 330.328 6 329.5 6C328.672 6 328 5.32843 328 4.5C328 3.67157 328.672 3 329.5 3C330.328 3 331 3.67157 331 4.5Z" fill="black"/>
<path d="M351 4.5C351 5.32843 350.328 6 349.5 6C348.672 6 348 5.32843 348 4.5C348 3.67157 348.672 3 349.5 3C350.328 3 351 3.67157 351 4.5Z" fill="black"/>
<path d="M371 4.5C371 5.32843 370.328 6 369.5 6C368.672 6 368 5.32843 368 4.5C368 3.67157 368.672 3 369.5 3C370.328 3 371 3.67157 371 4.5Z" fill="black"/>
<path d="M391 4.5C391 5.32843 390.328 6 389.5 6C388.672 6 388 5.32843 388 4.5C388 3.67157 388.672 3 389.5 3C390.328 3 391 3.67157 391 4.5Z" fill="black"/>
<path d="M411 4.5C411 5.32843 410.328 6 409.5 6C408.672 6 408 5.32843 408 4.5C408 3.67157 408.672 3 409.5 3C410.328 3 411 3.67157 411 4.5Z" fill="black"/>
<path d="M191 24.5C191 25.3284 190.328 26 189.5 26C188.672 26 188 25.3284 188 24.5C188 23.6716 188.672 23 189.5 23C190.328 23 191 23.6716 191 24.5Z" fill="black"/>
<path d="M211 24.5C211 25.3284 210.328 26 209.5 26C208.672 26 208 25.3284 208 24.5C208 23.6716 208.672 23 209.5 23C210.328 23 211 23.6716 211 24.5Z" fill="black"/>
<path d="M231 24.5C231 25.3284 230.328 26 229.5 26C228.672 26 228 25.3284 228 24.5C228 23.6716 228.672 23 229.5 23C230.328 23 231 23.6716 231 24.5Z" fill="black"/>
<path d="M251 24.5C251 25.3284 250.328 26 249.5 26C248.672 26 248 25.3284 248 24.5C248 23.6716 248.672 23 249.5 23C250.328 23 251 23.6716 251 24.5Z" fill="black"/>
<path d="M271 24.5C271 25.3284 270.328 26 269.5 26C268.672 26 268 25.3284 268 24.5C268 23.6716 268.672 23 269.5 23C270.328 23 271 23.6716 271 24.5Z" fill="black"/>
<path d="M291 24.5C291 25.3284 290.328 26 289.5 26C288.672 26 288 25.3284 288 24.5C288 23.6716 288.672 23 289.5 23C290.328 23 291 23.6716 291 24.5Z" fill="black"/>
<path d="M311 24.5C311 25.3284 310.328 26 309.5 26C308.672 26 308 25.3284 308 24.5C308 23.6716 308.672 23 309.5 23C310.328 23 311 23.6716 311 24.5Z" fill="black"/>
<path d="M331 24.5C331 25.3284 330.328 26 329.5 26C328.672 26 328 25.3284 328 24.5C328 23.6716 328.672 23 329.5 23C330.328 23 331 23.6716 331 24.5Z" fill="black"/>
<path d="M351 24.5C351 25.3284 350.328 26 349.5 26C348.672 26 348 25.3284 348 24.5C348 23.6716 348.672 23 349.5 23C350.328 23 351 23.6716 351 24.5Z" fill="black"/>
<path d="M371 24.5C371 25.3284 370.328 26 369.5 26C368.672 26 368 25.3284 368 24.5C368 23.6716 368.672 23 369.5 23C370.328 23 371 23.6716 371 24.5Z" fill="black"/>
<path d="M391 24.5C391 25.3284 390.328 26 389.5 26C388.672 26 388 25.3284 388 24.5C388 23.6716 388.672 23 389.5 23C390.328 23 391 23.6716 391 24.5Z" fill="black"/>
<path d="M411 24.5C411 25.3284 410.328 26 409.5 26C408.672 26 408 25.3284 408 24.5C408 23.6716 408.672 23 409.5 23C410.328 23 411 23.6716 411 24.5Z" fill="black"/>
<path d="M191 44.5C191 45.3284 190.328 46 189.5 46C188.672 46 188 45.3284 188 44.5C188 43.6716 188.672 43 189.5 43C190.328 43 191 43.6716 191 44.5Z" fill="black"/>
<path d="M211 44.5C211 45.3284 210.328 46 209.5 46C208.672 46 208 45.3284 208 44.5C208 43.6716 208.672 43 209.5 43C210.328 43 211 43.6716 211 44.5Z" fill="black"/>
<path d="M231 44.5C231 45.3284 230.328 46 229.5 46C228.672 46 228 45.3284 228 44.5C228 43.6716 228.672 43 229.5 43C230.328 43 231 43.6716 231 44.5Z" fill="black"/>
<path d="M251 44.5C251 45.3284 250.328 46 249.5 46C248.672 46 248 45.3284 248 44.5C248 43.6716 248.672 43 249.5 43C250.328 43 251 43.6716 251 44.5Z" fill="black"/>
<path d="M271 44.5C271 45.3284 270.328 46 269.5 46C268.672 46 268 45.3284 268 44.5C268 43.6716 268.672 43 269.5 43C270.328 43 271 43.6716 271 44.5Z" fill="black"/>
<path d="M291 44.5C291 45.3284 290.328 46 289.5 46C288.672 46 288 45.3284 288 44.5C288 43.6716 288.672 43 289.5 43C290.328 43 291 43.6716 291 44.5Z" fill="black"/>
<path d="M311 44.5C311 45.3284 310.328 46 309.5 46C308.672 46 308 45.3284 308 44.5C308 43.6716 308.672 43 309.5 43C310.328 43 311 43.6716 311 44.5Z" fill="black"/>
<path d="M331 44.5C331 45.3284 330.328 46 329.5 46C328.672 46 328 45.3284 328 44.5C328 43.6716 328.672 43 329.5 43C330.328 43 331 43.6716 331 44.5Z" fill="black"/>
<path d="M351 44.5C351 45.3284 350.328 46 349.5 46C348.672 46 348 45.3284 348 44.5C348 43.6716 348.672 43 349.5 43C350.328 43 351 43.6716 351 44.5Z" fill="black"/>
<path d="M371 44.5C371 45.3284 370.328 46 369.5 46C368.672 46 368 45.3284 368 44.5C368 43.6716 368.672 43 369.5 43C370.328 43 371 43.6716 371 44.5Z" fill="black"/>
<path d="M391 44.5C391 45.3284 390.328 46 389.5 46C388.672 46 388 45.3284 388 44.5C388 43.6716 388.672 43 389.5 43C390.328 43 391 43.6716 391 44.5Z" fill="black"/>
<path d="M191 64.5C191 65.3284 190.328 66 189.5 66C188.672 66 188 65.3284 188 64.5C188 63.6716 188.672 63 189.5 63C190.328 63 191 63.6716 191 64.5Z" fill="black"/>
<path d="M211 64.5C211 65.3284 210.328 66 209.5 66C208.672 66 208 65.3284 208 64.5C208 63.6716 208.672 63 209.5 63C210.328 63 211 63.6716 211 64.5Z" fill="black"/>
<path d="M231 64.5C231 65.3284 230.328 66 229.5 66C228.672 66 228 65.3284 228 64.5C228 63.6716 228.672 63 229.5 63C230.328 63 231 63.6716 231 64.5Z" fill="black"/>
<path d="M251 64.5C251 65.3284 250.328 66 249.5 66C248.672 66 248 65.3284 248 64.5C248 63.6716 248.672 63 249.5 63C250.328 63 251 63.6716 251 64.5Z" fill="black"/>
<path d="M271 64.5C271 65.3284 270.328 66 269.5 66C268.672 66 268 65.3284 268 64.5C268 63.6716 268.672 63 269.5 63C270.328 63 271 63.6716 271 64.5Z" fill="black"/>
<path d="M291 64.5C291 65.3284 290.328 66 289.5 66C288.672 66 288 65.3284 288 64.5C288 63.6716 288.672 63 289.5 63C290.328 63 291 63.6716 291 64.5Z" fill="black"/>
<path d="M311 64.5C311 65.3284 310.328 66 309.5 66C308.672 66 308 65.3284 308 64.5C308 63.6716 308.672 63 309.5 63C310.328 63 311 63.6716 311 64.5Z" fill="black"/>
<path d="M331 64.5C331 65.3284 330.328 66 329.5 66C328.672 66 328 65.3284 328 64.5C328 63.6716 328.672 63 329.5 63C330.328 63 331 63.6716 331 64.5Z" fill="black"/>
<path d="M351 64.5C351 65.3284 350.328 66 349.5 66C348.672 66 348 65.3284 348 64.5C348 63.6716 348.672 63 349.5 63C350.328 63 351 63.6716 351 64.5Z" fill="black"/>
<path d="M371 64.5C371 65.3284 370.328 66 369.5 66C368.672 66 368 65.3284 368 64.5C368 63.6716 368.672 63 369.5 63C370.328 63 371 63.6716 371 64.5Z" fill="black"/>
<path d="M431 4.5C431 5.32843 430.328 6 429.5 6C428.672 6 428 5.32843 428 4.5C428 3.67157 428.672 3 429.5 3C430.328 3 431 3.67157 431 4.5Z" fill="black"/>
<path d="M391 64.5C391 65.3284 390.328 66 389.5 66C388.672 66 388 65.3284 388 64.5C388 63.6716 388.672 63 389.5 63C390.328 63 391 63.6716 391 64.5Z" fill="black"/>
<path d="M411 64.5C411 65.3284 410.328 66 409.5 66C408.672 66 408 65.3284 408 64.5C408 63.6716 408.672 63 409.5 63C410.328 63 411 63.6716 411 64.5Z" fill="black"/>
<path d="M411 44.5C411 45.3284 410.328 46 409.5 46C408.672 46 408 45.3284 408 44.5C408 43.6716 408.672 43 409.5 43C410.328 43 411 43.6716 411 44.5Z" fill="black"/>
<path d="M431 44.5C431 45.3284 430.328 46 429.5 46C428.672 46 428 45.3284 428 44.5C428 43.6716 428.672 43 429.5 43C430.328 43 431 43.6716 431 44.5Z" fill="black"/>
<path d="M431 24.5C431 25.3284 430.328 26 429.5 26C428.672 26 428 25.3284 428 24.5C428 23.6716 428.672 23 429.5 23C430.328 23 431 23.6716 431 24.5Z" fill="black"/>
<path d="M431 64.5C431 65.3284 430.328 66 429.5 66C428.672 66 428 65.3284 428 64.5C428 63.6716 428.672 63 429.5 63C430.328 63 431 63.6716 431 64.5Z" fill="black"/>
<path d="M11 84.5C11 85.3284 10.3284 86 9.5 86C8.67157 86 8 85.3284 8 84.5C8 83.6716 8.67157 83 9.5 83C10.3284 83 11 83.6716 11 84.5Z" fill="black"/>
<path d="M31 84.5C31 85.3284 30.3284 86 29.5 86C28.6716 86 28 85.3284 28 84.5C28 83.6716 28.6716 83 29.5 83C30.3284 83 31 83.6716 31 84.5Z" fill="black"/>
<path d="M51 84.5C51 85.3284 50.3284 86 49.5 86C48.6716 86 48 85.3284 48 84.5C48 83.6716 48.6716 83 49.5 83C50.3284 83 51 83.6716 51 84.5Z" fill="black"/>
<path d="M71 84.5C71 85.3284 70.3284 86 69.5 86C68.6716 86 68 85.3284 68 84.5C68 83.6716 68.6716 83 69.5 83C70.3284 83 71 83.6716 71 84.5Z" fill="black"/>
<path d="M91 84.5C91 85.3284 90.3284 86 89.5 86C88.6716 86 88 85.3284 88 84.5C88 83.6716 88.6716 83 89.5 83C90.3284 83 91 83.6716 91 84.5Z" fill="black"/>
<path d="M111 84.5C111 85.3284 110.328 86 109.5 86C108.672 86 108 85.3284 108 84.5C108 83.6716 108.672 83 109.5 83C110.328 83 111 83.6716 111 84.5Z" fill="black"/>
<path d="M131 84.5C131 85.3284 130.328 86 129.5 86C128.672 86 128 85.3284 128 84.5C128 83.6716 128.672 83 129.5 83C130.328 83 131 83.6716 131 84.5Z" fill="black"/>
<path d="M151 84.5C151 85.3284 150.328 86 149.5 86C148.672 86 148 85.3284 148 84.5C148 83.6716 148.672 83 149.5 83C150.328 83 151 83.6716 151 84.5Z" fill="black"/>
<path d="M171 84.5C171 85.3284 170.328 86 169.5 86C168.672 86 168 85.3284 168 84.5C168 83.6716 168.672 83 169.5 83C170.328 83 171 83.6716 171 84.5Z" fill="black"/>
<path d="M191 84.5C191 85.3284 190.328 86 189.5 86C188.672 86 188 85.3284 188 84.5C188 83.6716 188.672 83 189.5 83C190.328 83 191 83.6716 191 84.5Z" fill="black"/>
<path d="M211 84.5C211 85.3284 210.328 86 209.5 86C208.672 86 208 85.3284 208 84.5C208 83.6716 208.672 83 209.5 83C210.328 83 211 83.6716 211 84.5Z" fill="black"/>
<path d="M231 84.5C231 85.3284 230.328 86 229.5 86C228.672 86 228 85.3284 228 84.5C228 83.6716 228.672 83 229.5 83C230.328 83 231 83.6716 231 84.5Z" fill="black"/>
<path d="M251 84.5C251 85.3284 250.328 86 249.5 86C248.672 86 248 85.3284 248 84.5C248 83.6716 248.672 83 249.5 83C250.328 83 251 83.6716 251 84.5Z" fill="black"/>
<path d="M271 84.5C271 85.3284 270.328 86 269.5 86C268.672 86 268 85.3284 268 84.5C268 83.6716 268.672 83 269.5 83C270.328 83 271 83.6716 271 84.5Z" fill="black"/>
<path d="M291 84.5C291 85.3284 290.328 86 289.5 86C288.672 86 288 85.3284 288 84.5C288 83.6716 288.672 83 289.5 83C290.328 83 291 83.6716 291 84.5Z" fill="black"/>
<path d="M311 84.5C311 85.3284 310.328 86 309.5 86C308.672 86 308 85.3284 308 84.5C308 83.6716 308.672 83 309.5 83C310.328 83 311 83.6716 311 84.5Z" fill="black"/>
<path d="M331 84.5C331 85.3284 330.328 86 329.5 86C328.672 86 328 85.3284 328 84.5C328 83.6716 328.672 83 329.5 83C330.328 83 331 83.6716 331 84.5Z" fill="black"/>
<path d="M351 84.5C351 85.3284 350.328 86 349.5 86C348.672 86 348 85.3284 348 84.5C348 83.6716 348.672 83 349.5 83C350.328 83 351 83.6716 351 84.5Z" fill="black"/>
<path d="M371 84.5C371 85.3284 370.328 86 369.5 86C368.672 86 368 85.3284 368 84.5C368 83.6716 368.672 83 369.5 83C370.328 83 371 83.6716 371 84.5Z" fill="black"/>
<path d="M391 84.5C391 85.3284 390.328 86 389.5 86C388.672 86 388 85.3284 388 84.5C388 83.6716 388.672 83 389.5 83C390.328 83 391 83.6716 391 84.5Z" fill="black"/>
<path d="M411 84.5C411 85.3284 410.328 86 409.5 86C408.672 86 408 85.3284 408 84.5C408 83.6716 408.672 83 409.5 83C410.328 83 411 83.6716 411 84.5Z" fill="black"/>
<path d="M431 84.5C431 85.3284 430.328 86 429.5 86C428.672 86 428 85.3284 428 84.5C428 83.6716 428.672 83 429.5 83C430.328 83 431 83.6716 431 84.5Z" fill="black"/>
<path d="M451 4.5C451 5.32843 450.328 6 449.5 6C448.672 6 448 5.32843 448 4.5C448 3.67157 448.672 3 449.5 3C450.328 3 451 3.67157 451 4.5Z" fill="black"/>
<path d="M471 4.5C471 5.32843 470.328 6 469.5 6C468.672 6 468 5.32843 468 4.5C468 3.67157 468.672 3 469.5 3C470.328 3 471 3.67157 471 4.5Z" fill="black"/>
<path d="M491 4.5C491 5.32843 490.328 6 489.5 6C488.672 6 488 5.32843 488 4.5C488 3.67157 488.672 3 489.5 3C490.328 3 491 3.67157 491 4.5Z" fill="black"/>
<path d="M511 4.5C511 5.32843 510.328 6 509.5 6C508.672 6 508 5.32843 508 4.5C508 3.67157 508.672 3 509.5 3C510.328 3 511 3.67157 511 4.5Z" fill="black"/>
<path d="M531 4.5C531 5.32843 530.328 6 529.5 6C528.672 6 528 5.32843 528 4.5C528 3.67157 528.672 3 529.5 3C530.328 3 531 3.67157 531 4.5Z" fill="black"/>
<path d="M551 4.5C551 5.32843 550.328 6 549.5 6C548.672 6 548 5.32843 548 4.5C548 3.67157 548.672 3 549.5 3C550.328 3 551 3.67157 551 4.5Z" fill="black"/>
<path d="M571 4.5C571 5.32843 570.328 6 569.5 6C568.672 6 568 5.32843 568 4.5C568 3.67157 568.672 3 569.5 3C570.328 3 571 3.67157 571 4.5Z" fill="black"/>
<path d="M591 4.5C591 5.32843 590.328 6 589.5 6C588.672 6 588 5.32843 588 4.5C588 3.67157 588.672 3 589.5 3C590.328 3 591 3.67157 591 4.5Z" fill="black"/>
<path d="M611 4.5C611 5.32843 610.328 6 609.5 6C608.672 6 608 5.32843 608 4.5C608 3.67157 608.672 3 609.5 3C610.328 3 611 3.67157 611 4.5Z" fill="black"/>
<path d="M631 4.5C631 5.32843 630.328 6 629.5 6C628.672 6 628 5.32843 628 4.5C628 3.67157 628.672 3 629.5 3C630.328 3 631 3.67157 631 4.5Z" fill="black"/>
<path d="M651 4.5C651 5.32843 650.328 6 649.5 6C648.672 6 648 5.32843 648 4.5C648 3.67157 648.672 3 649.5 3C650.328 3 651 3.67157 651 4.5Z" fill="black"/>
<path d="M451 24.5C451 25.3284 450.328 26 449.5 26C448.672 26 448 25.3284 448 24.5C448 23.6716 448.672 23 449.5 23C450.328 23 451 23.6716 451 24.5Z" fill="black"/>
<path d="M471 24.5C471 25.3284 470.328 26 469.5 26C468.672 26 468 25.3284 468 24.5C468 23.6716 468.672 23 469.5 23C470.328 23 471 23.6716 471 24.5Z" fill="black"/>
<path d="M491 24.5C491 25.3284 490.328 26 489.5 26C488.672 26 488 25.3284 488 24.5C488 23.6716 488.672 23 489.5 23C490.328 23 491 23.6716 491 24.5Z" fill="black"/>
<path d="M511 24.5C511 25.3284 510.328 26 509.5 26C508.672 26 508 25.3284 508 24.5C508 23.6716 508.672 23 509.5 23C510.328 23 511 23.6716 511 24.5Z" fill="black"/>
<path d="M531 24.5C531 25.3284 530.328 26 529.5 26C528.672 26 528 25.3284 528 24.5C528 23.6716 528.672 23 529.5 23C530.328 23 531 23.6716 531 24.5Z" fill="black"/>
<path d="M551 24.5C551 25.3284 550.328 26 549.5 26C548.672 26 548 25.3284 548 24.5C548 23.6716 548.672 23 549.5 23C550.328 23 551 23.6716 551 24.5Z" fill="black"/>
<path d="M571 24.5C571 25.3284 570.328 26 569.5 26C568.672 26 568 25.3284 568 24.5C568 23.6716 568.672 23 569.5 23C570.328 23 571 23.6716 571 24.5Z" fill="black"/>
<path d="M591 24.5C591 25.3284 590.328 26 589.5 26C588.672 26 588 25.3284 588 24.5C588 23.6716 588.672 23 589.5 23C590.328 23 591 23.6716 591 24.5Z" fill="black"/>
<path d="M611 24.5C611 25.3284 610.328 26 609.5 26C608.672 26 608 25.3284 608 24.5C608 23.6716 608.672 23 609.5 23C610.328 23 611 23.6716 611 24.5Z" fill="black"/>
<path d="M631 24.5C631 25.3284 630.328 26 629.5 26C628.672 26 628 25.3284 628 24.5C628 23.6716 628.672 23 629.5 23C630.328 23 631 23.6716 631 24.5Z" fill="black"/>
<path d="M651 24.5C651 25.3284 650.328 26 649.5 26C648.672 26 648 25.3284 648 24.5C648 23.6716 648.672 23 649.5 23C650.328 23 651 23.6716 651 24.5Z" fill="black"/>
<path d="M451 44.5C451 45.3284 450.328 46 449.5 46C448.672 46 448 45.3284 448 44.5C448 43.6716 448.672 43 449.5 43C450.328 43 451 43.6716 451 44.5Z" fill="black"/>
<path d="M471 44.5C471 45.3284 470.328 46 469.5 46C468.672 46 468 45.3284 468 44.5C468 43.6716 468.672 43 469.5 43C470.328 43 471 43.6716 471 44.5Z" fill="black"/>
<path d="M491 44.5C491 45.3284 490.328 46 489.5 46C488.672 46 488 45.3284 488 44.5C488 43.6716 488.672 43 489.5 43C490.328 43 491 43.6716 491 44.5Z" fill="black"/>
<path d="M511 44.5C511 45.3284 510.328 46 509.5 46C508.672 46 508 45.3284 508 44.5C508 43.6716 508.672 43 509.5 43C510.328 43 511 43.6716 511 44.5Z" fill="black"/>
<path d="M531 44.5C531 45.3284 530.328 46 529.5 46C528.672 46 528 45.3284 528 44.5C528 43.6716 528.672 43 529.5 43C530.328 43 531 43.6716 531 44.5Z" fill="black"/>
<path d="M551 44.5C551 45.3284 550.328 46 549.5 46C548.672 46 548 45.3284 548 44.5C548 43.6716 548.672 43 549.5 43C550.328 43 551 43.6716 551 44.5Z" fill="black"/>
<path d="M571 44.5C571 45.3284 570.328 46 569.5 46C568.672 46 568 45.3284 568 44.5C568 43.6716 568.672 43 569.5 43C570.328 43 571 43.6716 571 44.5Z" fill="black"/>
<path d="M591 44.5C591 45.3284 590.328 46 589.5 46C588.672 46 588 45.3284 588 44.5C588 43.6716 588.672 43 589.5 43C590.328 43 591 43.6716 591 44.5Z" fill="black"/>
<path d="M611 44.5C611 45.3284 610.328 46 609.5 46C608.672 46 608 45.3284 608 44.5C608 43.6716 608.672 43 609.5 43C610.328 43 611 43.6716 611 44.5Z" fill="black"/>
<path d="M631 44.5C631 45.3284 630.328 46 629.5 46C628.672 46 628 45.3284 628 44.5C628 43.6716 628.672 43 629.5 43C630.328 43 631 43.6716 631 44.5Z" fill="black"/>
<path d="M451 64.5C451 65.3284 450.328 66 449.5 66C448.672 66 448 65.3284 448 64.5C448 63.6716 448.672 63 449.5 63C450.328 63 451 63.6716 451 64.5Z" fill="black"/>
<path d="M471 64.5C471 65.3284 470.328 66 469.5 66C468.672 66 468 65.3284 468 64.5C468 63.6716 468.672 63 469.5 63C470.328 63 471 63.6716 471 64.5Z" fill="black"/>
<path d="M491 64.5C491 65.3284 490.328 66 489.5 66C488.672 66 488 65.3284 488 64.5C488 63.6716 488.672 63 489.5 63C490.328 63 491 63.6716 491 64.5Z" fill="black"/>
<path d="M511 64.5C511 65.3284 510.328 66 509.5 66C508.672 66 508 65.3284 508 64.5C508 63.6716 508.672 63 509.5 63C510.328 63 511 63.6716 511 64.5Z" fill="black"/>
<path d="M531 64.5C531 65.3284 530.328 66 529.5 66C528.672 66 528 65.3284 528 64.5C528 63.6716 528.672 63 529.5 63C530.328 63 531 63.6716 531 64.5Z" fill="black"/>
<path d="M551 64.5C551 65.3284 550.328 66 549.5 66C548.672 66 548 65.3284 548 64.5C548 63.6716 548.672 63 549.5 63C550.328 63 551 63.6716 551 64.5Z" fill="black"/>
<path d="M571 64.5C571 65.3284 570.328 66 569.5 66C568.672 66 568 65.3284 568 64.5C568 63.6716 568.672 63 569.5 63C570.328 63 571 63.6716 571 64.5Z" fill="black"/>
<path d="M591 64.5C591 65.3284 590.328 66 589.5 66C588.672 66 588 65.3284 588 64.5C588 63.6716 588.672 63 589.5 63C590.328 63 591 63.6716 591 64.5Z" fill="black"/>
<path d="M611 64.5C611 65.3284 610.328 66 609.5 66C608.672 66 608 65.3284 608 64.5C608 63.6716 608.672 63 609.5 63C610.328 63 611 63.6716 611 64.5Z" fill="black"/>
<path d="M671 4.5C671 5.32843 670.328 6 669.5 6C668.672 6 668 5.32843 668 4.5C668 3.67157 668.672 3 669.5 3C670.328 3 671 3.67157 671 4.5Z" fill="black"/>
<path d="M631 64.5C631 65.3284 630.328 66 629.5 66C628.672 66 628 65.3284 628 64.5C628 63.6716 628.672 63 629.5 63C630.328 63 631 63.6716 631 64.5Z" fill="black"/>
<path d="M651 64.5C651 65.3284 650.328 66 649.5 66C648.672 66 648 65.3284 648 64.5C648 63.6716 648.672 63 649.5 63C650.328 63 651 63.6716 651 64.5Z" fill="black"/>
<path d="M651 44.5C651 45.3284 650.328 46 649.5 46C648.672 46 648 45.3284 648 44.5C648 43.6716 648.672 43 649.5 43C650.328 43 651 43.6716 651 44.5Z" fill="black"/>
<path d="M671 44.5C671 45.3284 670.328 46 669.5 46C668.672 46 668 45.3284 668 44.5C668 43.6716 668.672 43 669.5 43C670.328 43 671 43.6716 671 44.5Z" fill="black"/>
<path d="M671 24.5C671 25.3284 670.328 26 669.5 26C668.672 26 668 25.3284 668 24.5C668 23.6716 668.672 23 669.5 23C670.328 23 671 23.6716 671 24.5Z" fill="black"/>
<path d="M671 64.5C671 65.3284 670.328 66 669.5 66C668.672 66 668 65.3284 668 64.5C668 63.6716 668.672 63 669.5 63C670.328 63 671 63.6716 671 64.5Z" fill="black"/>
<path d="M451 84.5C451 85.3284 450.328 86 449.5 86C448.672 86 448 85.3284 448 84.5C448 83.6716 448.672 83 449.5 83C450.328 83 451 83.6716 451 84.5Z" fill="black"/>
<path d="M471 84.5C471 85.3284 470.328 86 469.5 86C468.672 86 468 85.3284 468 84.5C468 83.6716 468.672 83 469.5 83C470.328 83 471 83.6716 471 84.5Z" fill="black"/>
<path d="M491 84.5C491 85.3284 490.328 86 489.5 86C488.672 86 488 85.3284 488 84.5C488 83.6716 488.672 83 489.5 83C490.328 83 491 83.6716 491 84.5Z" fill="black"/>
<path d="M511 84.5C511 85.3284 510.328 86 509.5 86C508.672 86 508 85.3284 508 84.5C508 83.6716 508.672 83 509.5 83C510.328 83 511 83.6716 511 84.5Z" fill="black"/>
<path d="M531 84.5C531 85.3284 530.328 86 529.5 86C528.672 86 528 85.3284 528 84.5C528 83.6716 528.672 83 529.5 83C530.328 83 531 83.6716 531 84.5Z" fill="black"/>
<path d="M551 84.5C551 85.3284 550.328 86 549.5 86C548.672 86 548 85.3284 548 84.5C548 83.6716 548.672 83 549.5 83C550.328 83 551 83.6716 551 84.5Z" fill="black"/>
<path d="M571 84.5C571 85.3284 570.328 86 569.5 86C568.672 86 568 85.3284 568 84.5C568 83.6716 568.672 83 569.5 83C570.328 83 571 83.6716 571 84.5Z" fill="black"/>
<path d="M591 84.5C591 85.3284 590.328 86 589.5 86C588.672 86 588 85.3284 588 84.5C588 83.6716 588.672 83 589.5 83C590.328 83 591 83.6716 591 84.5Z" fill="black"/>
<path d="M611 84.5C611 85.3284 610.328 86 609.5 86C608.672 86 608 85.3284 608 84.5C608 83.6716 608.672 83 609.5 83C610.328 83 611 83.6716 611 84.5Z" fill="black"/>
<path d="M631 84.5C631 85.3284 630.328 86 629.5 86C628.672 86 628 85.3284 628 84.5C628 83.6716 628.672 83 629.5 83C630.328 83 631 83.6716 631 84.5Z" fill="black"/>
<path d="M651 84.5C651 85.3284 650.328 86 649.5 86C648.672 86 648 85.3284 648 84.5C648 83.6716 648.672 83 649.5 83C650.328 83 651 83.6716 651 84.5Z" fill="black"/>
<path d="M671 84.5C671 85.3284 670.328 86 669.5 86C668.672 86 668 85.3284 668 84.5C668 83.6716 668.672 83 669.5 83C670.328 83 671 83.6716 671 84.5Z" fill="black"/>
<path d="M691 4.5C691 5.32843 690.328 6 689.5 6C688.672 6 688 5.32843 688 4.5C688 3.67157 688.672 3 689.5 3C690.328 3 691 3.67157 691 4.5Z" fill="black"/>
<path d="M691 44.5C691 45.3284 690.328 46 689.5 46C688.672 46 688 45.3284 688 44.5C688 43.6716 688.672 43 689.5 43C690.328 43 691 43.6716 691 44.5Z" fill="black"/>
<path d="M691 24.5C691 25.3284 690.328 26 689.5 26C688.672 26 688 25.3284 688 24.5C688 23.6716 688.672 23 689.5 23C690.328 23 691 23.6716 691 24.5Z" fill="black"/>
<path d="M691 64.5C691 65.3284 690.328 66 689.5 66C688.672 66 688 65.3284 688 64.5C688 63.6716 688.672 63 689.5 63C690.328 63 691 63.6716 691 64.5Z" fill="black"/>
<path d="M691 84.5C691 85.3284 690.328 86 689.5 86C688.672 86 688 85.3284 688 84.5C688 83.6716 688.672 83 689.5 83C690.328 83 691 83.6716 691 84.5Z" fill="black"/>
<path d="M11 104.5C11 105.328 10.3284 106 9.5 106C8.67157 106 8 105.328 8 104.5C8 103.672 8.67157 103 9.5 103C10.3284 103 11 103.672 11 104.5Z" fill="black"/>
<path d="M31 104.5C31 105.328 30.3284 106 29.5 106C28.6716 106 28 105.328 28 104.5C28 103.672 28.6716 103 29.5 103C30.3284 103 31 103.672 31 104.5Z" fill="black"/>
<path d="M51 104.5C51 105.328 50.3284 106 49.5 106C48.6716 106 48 105.328 48 104.5C48 103.672 48.6716 103 49.5 103C50.3284 103 51 103.672 51 104.5Z" fill="black"/>
<path d="M71 104.5C71 105.328 70.3284 106 69.5 106C68.6716 106 68 105.328 68 104.5C68 103.672 68.6716 103 69.5 103C70.3284 103 71 103.672 71 104.5Z" fill="black"/>
<path d="M91 104.5C91 105.328 90.3284 106 89.5 106C88.6716 106 88 105.328 88 104.5C88 103.672 88.6716 103 89.5 103C90.3284 103 91 103.672 91 104.5Z" fill="black"/>
<path d="M111 104.5C111 105.328 110.328 106 109.5 106C108.672 106 108 105.328 108 104.5C108 103.672 108.672 103 109.5 103C110.328 103 111 103.672 111 104.5Z" fill="black"/>
<path d="M131 104.5C131 105.328 130.328 106 129.5 106C128.672 106 128 105.328 128 104.5C128 103.672 128.672 103 129.5 103C130.328 103 131 103.672 131 104.5Z" fill="black"/>
<path d="M151 104.5C151 105.328 150.328 106 149.5 106C148.672 106 148 105.328 148 104.5C148 103.672 148.672 103 149.5 103C150.328 103 151 103.672 151 104.5Z" fill="black"/>
<path d="M171 104.5C171 105.328 170.328 106 169.5 106C168.672 106 168 105.328 168 104.5C168 103.672 168.672 103 169.5 103C170.328 103 171 103.672 171 104.5Z" fill="black"/>
<path d="M11 124.5C11 125.328 10.3284 126 9.5 126C8.67157 126 8 125.328 8 124.5C8 123.672 8.67157 123 9.5 123C10.3284 123 11 123.672 11 124.5Z" fill="black"/>
<path d="M31 124.5C31 125.328 30.3284 126 29.5 126C28.6716 126 28 125.328 28 124.5C28 123.672 28.6716 123 29.5 123C30.3284 123 31 123.672 31 124.5Z" fill="black"/>
<path d="M51 124.5C51 125.328 50.3284 126 49.5 126C48.6716 126 48 125.328 48 124.5C48 123.672 48.6716 123 49.5 123C50.3284 123 51 123.672 51 124.5Z" fill="black"/>
<path d="M71 124.5C71 125.328 70.3284 126 69.5 126C68.6716 126 68 125.328 68 124.5C68 123.672 68.6716 123 69.5 123C70.3284 123 71 123.672 71 124.5Z" fill="black"/>
<path d="M91 124.5C91 125.328 90.3284 126 89.5 126C88.6716 126 88 125.328 88 124.5C88 123.672 88.6716 123 89.5 123C90.3284 123 91 123.672 91 124.5Z" fill="black"/>
<path d="M111 124.5C111 125.328 110.328 126 109.5 126C108.672 126 108 125.328 108 124.5C108 123.672 108.672 123 109.5 123C110.328 123 111 123.672 111 124.5Z" fill="black"/>
<path d="M131 124.5C131 125.328 130.328 126 129.5 126C128.672 126 128 125.328 128 124.5C128 123.672 128.672 123 129.5 123C130.328 123 131 123.672 131 124.5Z" fill="black"/>
<path d="M151 124.5C151 125.328 150.328 126 149.5 126C148.672 126 148 125.328 148 124.5C148 123.672 148.672 123 149.5 123C150.328 123 151 123.672 151 124.5Z" fill="black"/>
<path d="M171 124.5C171 125.328 170.328 126 169.5 126C168.672 126 168 125.328 168 124.5C168 123.672 168.672 123 169.5 123C170.328 123 171 123.672 171 124.5Z" fill="black"/>
<path d="M11 144.5C11 145.328 10.3284 146 9.5 146C8.67157 146 8 145.328 8 144.5C8 143.672 8.67157 143 9.5 143C10.3284 143 11 143.672 11 144.5Z" fill="black"/>
<path d="M31 144.5C31 145.328 30.3284 146 29.5 146C28.6716 146 28 145.328 28 144.5C28 143.672 28.6716 143 29.5 143C30.3284 143 31 143.672 31 144.5Z" fill="black"/>
<path d="M51 144.5C51 145.328 50.3284 146 49.5 146C48.6716 146 48 145.328 48 144.5C48 143.672 48.6716 143 49.5 143C50.3284 143 51 143.672 51 144.5Z" fill="black"/>
<path d="M71 144.5C71 145.328 70.3284 146 69.5 146C68.6716 146 68 145.328 68 144.5C68 143.672 68.6716 143 69.5 143C70.3284 143 71 143.672 71 144.5Z" fill="black"/>
<path d="M91 144.5C91 145.328 90.3284 146 89.5 146C88.6716 146 88 145.328 88 144.5C88 143.672 88.6716 143 89.5 143C90.3284 143 91 143.672 91 144.5Z" fill="black"/>
<path d="M111 144.5C111 145.328 110.328 146 109.5 146C108.672 146 108 145.328 108 144.5C108 143.672 108.672 143 109.5 143C110.328 143 111 143.672 111 144.5Z" fill="black"/>
<path d="M131 144.5C131 145.328 130.328 146 129.5 146C128.672 146 128 145.328 128 144.5C128 143.672 128.672 143 129.5 143C130.328 143 131 143.672 131 144.5Z" fill="black"/>
<path d="M151 144.5C151 145.328 150.328 146 149.5 146C148.672 146 148 145.328 148 144.5C148 143.672 148.672 143 149.5 143C150.328 143 151 143.672 151 144.5Z" fill="black"/>
<path d="M171 144.5C171 145.328 170.328 146 169.5 146C168.672 146 168 145.328 168 144.5C168 143.672 168.672 143 169.5 143C170.328 143 171 143.672 171 144.5Z" fill="black"/>
<path d="M11 164.5C11 165.328 10.3284 166 9.5 166C8.67157 166 8 165.328 8 164.5C8 163.672 8.67157 163 9.5 163C10.3284 163 11 163.672 11 164.5Z" fill="black"/>
<path d="M31 164.5C31 165.328 30.3284 166 29.5 166C28.6716 166 28 165.328 28 164.5C28 163.672 28.6716 163 29.5 163C30.3284 163 31 163.672 31 164.5Z" fill="black"/>
<path d="M51 164.5C51 165.328 50.3284 166 49.5 166C48.6716 166 48 165.328 48 164.5C48 163.672 48.6716 163 49.5 163C50.3284 163 51 163.672 51 164.5Z" fill="black"/>
<path d="M71 164.5C71 165.328 70.3284 166 69.5 166C68.6716 166 68 165.328 68 164.5C68 163.672 68.6716 163 69.5 163C70.3284 163 71 163.672 71 164.5Z" fill="black"/>
<path d="M91 164.5C91 165.328 90.3284 166 89.5 166C88.6716 166 88 165.328 88 164.5C88 163.672 88.6716 163 89.5 163C90.3284 163 91 163.672 91 164.5Z" fill="black"/>
<path d="M111 164.5C111 165.328 110.328 166 109.5 166C108.672 166 108 165.328 108 164.5C108 163.672 108.672 163 109.5 163C110.328 163 111 163.672 111 164.5Z" fill="black"/>
<path d="M131 164.5C131 165.328 130.328 166 129.5 166C128.672 166 128 165.328 128 164.5C128 163.672 128.672 163 129.5 163C130.328 163 131 163.672 131 164.5Z" fill="black"/>
<path d="M151 164.5C151 165.328 150.328 166 149.5 166C148.672 166 148 165.328 148 164.5C148 163.672 148.672 163 149.5 163C150.328 163 151 163.672 151 164.5Z" fill="black"/>
<path d="M171 164.5C171 165.328 170.328 166 169.5 166C168.672 166 168 165.328 168 164.5C168 163.672 168.672 163 169.5 163C170.328 163 171 163.672 171 164.5Z" fill="black"/>
<path d="M191 104.5C191 105.328 190.328 106 189.5 106C188.672 106 188 105.328 188 104.5C188 103.672 188.672 103 189.5 103C190.328 103 191 103.672 191 104.5Z" fill="black"/>
<path d="M211 104.5C211 105.328 210.328 106 209.5 106C208.672 106 208 105.328 208 104.5C208 103.672 208.672 103 209.5 103C210.328 103 211 103.672 211 104.5Z" fill="black"/>
<path d="M231 104.5C231 105.328 230.328 106 229.5 106C228.672 106 228 105.328 228 104.5C228 103.672 228.672 103 229.5 103C230.328 103 231 103.672 231 104.5Z" fill="black"/>
<path d="M251 104.5C251 105.328 250.328 106 249.5 106C248.672 106 248 105.328 248 104.5C248 103.672 248.672 103 249.5 103C250.328 103 251 103.672 251 104.5Z" fill="black"/>
<path d="M271 104.5C271 105.328 270.328 106 269.5 106C268.672 106 268 105.328 268 104.5C268 103.672 268.672 103 269.5 103C270.328 103 271 103.672 271 104.5Z" fill="black"/>
<path d="M291 104.5C291 105.328 290.328 106 289.5 106C288.672 106 288 105.328 288 104.5C288 103.672 288.672 103 289.5 103C290.328 103 291 103.672 291 104.5Z" fill="black"/>
<path d="M311 104.5C311 105.328 310.328 106 309.5 106C308.672 106 308 105.328 308 104.5C308 103.672 308.672 103 309.5 103C310.328 103 311 103.672 311 104.5Z" fill="black"/>
<path d="M331 104.5C331 105.328 330.328 106 329.5 106C328.672 106 328 105.328 328 104.5C328 103.672 328.672 103 329.5 103C330.328 103 331 103.672 331 104.5Z" fill="black"/>
<path d="M351 104.5C351 105.328 350.328 106 349.5 106C348.672 106 348 105.328 348 104.5C348 103.672 348.672 103 349.5 103C350.328 103 351 103.672 351 104.5Z" fill="black"/>
<path d="M371 104.5C371 105.328 370.328 106 369.5 106C368.672 106 368 105.328 368 104.5C368 103.672 368.672 103 369.5 103C370.328 103 371 103.672 371 104.5Z" fill="black"/>
<path d="M391 104.5C391 105.328 390.328 106 389.5 106C388.672 106 388 105.328 388 104.5C388 103.672 388.672 103 389.5 103C390.328 103 391 103.672 391 104.5Z" fill="black"/>
<path d="M411 104.5C411 105.328 410.328 106 409.5 106C408.672 106 408 105.328 408 104.5C408 103.672 408.672 103 409.5 103C410.328 103 411 103.672 411 104.5Z" fill="black"/>
<path d="M191 124.5C191 125.328 190.328 126 189.5 126C188.672 126 188 125.328 188 124.5C188 123.672 188.672 123 189.5 123C190.328 123 191 123.672 191 124.5Z" fill="black"/>
<path d="M211 124.5C211 125.328 210.328 126 209.5 126C208.672 126 208 125.328 208 124.5C208 123.672 208.672 123 209.5 123C210.328 123 211 123.672 211 124.5Z" fill="black"/>
<path d="M231 124.5C231 125.328 230.328 126 229.5 126C228.672 126 228 125.328 228 124.5C228 123.672 228.672 123 229.5 123C230.328 123 231 123.672 231 124.5Z" fill="black"/>
<path d="M251 124.5C251 125.328 250.328 126 249.5 126C248.672 126 248 125.328 248 124.5C248 123.672 248.672 123 249.5 123C250.328 123 251 123.672 251 124.5Z" fill="black"/>
<path d="M271 124.5C271 125.328 270.328 126 269.5 126C268.672 126 268 125.328 268 124.5C268 123.672 268.672 123 269.5 123C270.328 123 271 123.672 271 124.5Z" fill="black"/>
<path d="M291 124.5C291 125.328 290.328 126 289.5 126C288.672 126 288 125.328 288 124.5C288 123.672 288.672 123 289.5 123C290.328 123 291 123.672 291 124.5Z" fill="black"/>
<path d="M311 124.5C311 125.328 310.328 126 309.5 126C308.672 126 308 125.328 308 124.5C308 123.672 308.672 123 309.5 123C310.328 123 311 123.672 311 124.5Z" fill="black"/>
<path d="M331 124.5C331 125.328 330.328 126 329.5 126C328.672 126 328 125.328 328 124.5C328 123.672 328.672 123 329.5 123C330.328 123 331 123.672 331 124.5Z" fill="black"/>
<path d="M351 124.5C351 125.328 350.328 126 349.5 126C348.672 126 348 125.328 348 124.5C348 123.672 348.672 123 349.5 123C350.328 123 351 123.672 351 124.5Z" fill="black"/>
<path d="M371 124.5C371 125.328 370.328 126 369.5 126C368.672 126 368 125.328 368 124.5C368 123.672 368.672 123 369.5 123C370.328 123 371 123.672 371 124.5Z" fill="black"/>
<path d="M391 124.5C391 125.328 390.328 126 389.5 126C388.672 126 388 125.328 388 124.5C388 123.672 388.672 123 389.5 123C390.328 123 391 123.672 391 124.5Z" fill="black"/>
<path d="M411 124.5C411 125.328 410.328 126 409.5 126C408.672 126 408 125.328 408 124.5C408 123.672 408.672 123 409.5 123C410.328 123 411 123.672 411 124.5Z" fill="black"/>
<path d="M191 144.5C191 145.328 190.328 146 189.5 146C188.672 146 188 145.328 188 144.5C188 143.672 188.672 143 189.5 143C190.328 143 191 143.672 191 144.5Z" fill="black"/>
<path d="M211 144.5C211 145.328 210.328 146 209.5 146C208.672 146 208 145.328 208 144.5C208 143.672 208.672 143 209.5 143C210.328 143 211 143.672 211 144.5Z" fill="black"/>
<path d="M231 144.5C231 145.328 230.328 146 229.5 146C228.672 146 228 145.328 228 144.5C228 143.672 228.672 143 229.5 143C230.328 143 231 143.672 231 144.5Z" fill="black"/>
<path d="M251 144.5C251 145.328 250.328 146 249.5 146C248.672 146 248 145.328 248 144.5C248 143.672 248.672 143 249.5 143C250.328 143 251 143.672 251 144.5Z" fill="black"/>
<path d="M271 144.5C271 145.328 270.328 146 269.5 146C268.672 146 268 145.328 268 144.5C268 143.672 268.672 143 269.5 143C270.328 143 271 143.672 271 144.5Z" fill="black"/>
<path d="M291 144.5C291 145.328 290.328 146 289.5 146C288.672 146 288 145.328 288 144.5C288 143.672 288.672 143 289.5 143C290.328 143 291 143.672 291 144.5Z" fill="black"/>
<path d="M311 144.5C311 145.328 310.328 146 309.5 146C308.672 146 308 145.328 308 144.5C308 143.672 308.672 143 309.5 143C310.328 143 311 143.672 311 144.5Z" fill="black"/>
<path d="M331 144.5C331 145.328 330.328 146 329.5 146C328.672 146 328 145.328 328 144.5C328 143.672 328.672 143 329.5 143C330.328 143 331 143.672 331 144.5Z" fill="black"/>
<path d="M351 144.5C351 145.328 350.328 146 349.5 146C348.672 146 348 145.328 348 144.5C348 143.672 348.672 143 349.5 143C350.328 143 351 143.672 351 144.5Z" fill="black"/>
<path d="M371 144.5C371 145.328 370.328 146 369.5 146C368.672 146 368 145.328 368 144.5C368 143.672 368.672 143 369.5 143C370.328 143 371 143.672 371 144.5Z" fill="black"/>
<path d="M391 144.5C391 145.328 390.328 146 389.5 146C388.672 146 388 145.328 388 144.5C388 143.672 388.672 143 389.5 143C390.328 143 391 143.672 391 144.5Z" fill="black"/>
<path d="M191 164.5C191 165.328 190.328 166 189.5 166C188.672 166 188 165.328 188 164.5C188 163.672 188.672 163 189.5 163C190.328 163 191 163.672 191 164.5Z" fill="black"/>
<path d="M211 164.5C211 165.328 210.328 166 209.5 166C208.672 166 208 165.328 208 164.5C208 163.672 208.672 163 209.5 163C210.328 163 211 163.672 211 164.5Z" fill="black"/>
<path d="M231 164.5C231 165.328 230.328 166 229.5 166C228.672 166 228 165.328 228 164.5C228 163.672 228.672 163 229.5 163C230.328 163 231 163.672 231 164.5Z" fill="black"/>
<path d="M251 164.5C251 165.328 250.328 166 249.5 166C248.672 166 248 165.328 248 164.5C248 163.672 248.672 163 249.5 163C250.328 163 251 163.672 251 164.5Z" fill="black"/>
<path d="M271 164.5C271 165.328 270.328 166 269.5 166C268.672 166 268 165.328 268 164.5C268 163.672 268.672 163 269.5 163C270.328 163 271 163.672 271 164.5Z" fill="black"/>
<path d="M291 164.5C291 165.328 290.328 166 289.5 166C288.672 166 288 165.328 288 164.5C288 163.672 288.672 163 289.5 163C290.328 163 291 163.672 291 164.5Z" fill="black"/>
<path d="M311 164.5C311 165.328 310.328 166 309.5 166C308.672 166 308 165.328 308 164.5C308 163.672 308.672 163 309.5 163C310.328 163 311 163.672 311 164.5Z" fill="black"/>
<path d="M331 164.5C331 165.328 330.328 166 329.5 166C328.672 166 328 165.328 328 164.5C328 163.672 328.672 163 329.5 163C330.328 163 331 163.672 331 164.5Z" fill="black"/>
<path d="M351 164.5C351 165.328 350.328 166 349.5 166C348.672 166 348 165.328 348 164.5C348 163.672 348.672 163 349.5 163C350.328 163 351 163.672 351 164.5Z" fill="black"/>
<path d="M371 164.5C371 165.328 370.328 166 369.5 166C368.672 166 368 165.328 368 164.5C368 163.672 368.672 163 369.5 163C370.328 163 371 163.672 371 164.5Z" fill="black"/>
<path d="M431 104.5C431 105.328 430.328 106 429.5 106C428.672 106 428 105.328 428 104.5C428 103.672 428.672 103 429.5 103C430.328 103 431 103.672 431 104.5Z" fill="black"/>
<path d="M391 164.5C391 165.328 390.328 166 389.5 166C388.672 166 388 165.328 388 164.5C388 163.672 388.672 163 389.5 163C390.328 163 391 163.672 391 164.5Z" fill="black"/>
<path d="M411 164.5C411 165.328 410.328 166 409.5 166C408.672 166 408 165.328 408 164.5C408 163.672 408.672 163 409.5 163C410.328 163 411 163.672 411 164.5Z" fill="black"/>
<path d="M411 144.5C411 145.328 410.328 146 409.5 146C408.672 146 408 145.328 408 144.5C408 143.672 408.672 143 409.5 143C410.328 143 411 143.672 411 144.5Z" fill="black"/>
<path d="M431 144.5C431 145.328 430.328 146 429.5 146C428.672 146 428 145.328 428 144.5C428 143.672 428.672 143 429.5 143C430.328 143 431 143.672 431 144.5Z" fill="black"/>
<path d="M431 124.5C431 125.328 430.328 126 429.5 126C428.672 126 428 125.328 428 124.5C428 123.672 428.672 123 429.5 123C430.328 123 431 123.672 431 124.5Z" fill="black"/>
<path d="M431 164.5C431 165.328 430.328 166 429.5 166C428.672 166 428 165.328 428 164.5C428 163.672 428.672 163 429.5 163C430.328 163 431 163.672 431 164.5Z" fill="black"/>
<path d="M11 184.5C11 185.328 10.3284 186 9.5 186C8.67157 186 8 185.328 8 184.5C8 183.672 8.67157 183 9.5 183C10.3284 183 11 183.672 11 184.5Z" fill="black"/>
<path d="M31 184.5C31 185.328 30.3284 186 29.5 186C28.6716 186 28 185.328 28 184.5C28 183.672 28.6716 183 29.5 183C30.3284 183 31 183.672 31 184.5Z" fill="black"/>
<path d="M51 184.5C51 185.328 50.3284 186 49.5 186C48.6716 186 48 185.328 48 184.5C48 183.672 48.6716 183 49.5 183C50.3284 183 51 183.672 51 184.5Z" fill="black"/>
<path d="M71 184.5C71 185.328 70.3284 186 69.5 186C68.6716 186 68 185.328 68 184.5C68 183.672 68.6716 183 69.5 183C70.3284 183 71 183.672 71 184.5Z" fill="black"/>
<path d="M91 184.5C91 185.328 90.3284 186 89.5 186C88.6716 186 88 185.328 88 184.5C88 183.672 88.6716 183 89.5 183C90.3284 183 91 183.672 91 184.5Z" fill="black"/>
<path d="M111 184.5C111 185.328 110.328 186 109.5 186C108.672 186 108 185.328 108 184.5C108 183.672 108.672 183 109.5 183C110.328 183 111 183.672 111 184.5Z" fill="black"/>
<path d="M131 184.5C131 185.328 130.328 186 129.5 186C128.672 186 128 185.328 128 184.5C128 183.672 128.672 183 129.5 183C130.328 183 131 183.672 131 184.5Z" fill="black"/>
<path d="M151 184.5C151 185.328 150.328 186 149.5 186C148.672 186 148 185.328 148 184.5C148 183.672 148.672 183 149.5 183C150.328 183 151 183.672 151 184.5Z" fill="black"/>
<path d="M171 184.5C171 185.328 170.328 186 169.5 186C168.672 186 168 185.328 168 184.5C168 183.672 168.672 183 169.5 183C170.328 183 171 183.672 171 184.5Z" fill="black"/>
<path d="M191 184.5C191 185.328 190.328 186 189.5 186C188.672 186 188 185.328 188 184.5C188 183.672 188.672 183 189.5 183C190.328 183 191 183.672 191 184.5Z" fill="black"/>
<path d="M211 184.5C211 185.328 210.328 186 209.5 186C208.672 186 208 185.328 208 184.5C208 183.672 208.672 183 209.5 183C210.328 183 211 183.672 211 184.5Z" fill="black"/>
<path d="M231 184.5C231 185.328 230.328 186 229.5 186C228.672 186 228 185.328 228 184.5C228 183.672 228.672 183 229.5 183C230.328 183 231 183.672 231 184.5Z" fill="black"/>
<path d="M251 184.5C251 185.328 250.328 186 249.5 186C248.672 186 248 185.328 248 184.5C248 183.672 248.672 183 249.5 183C250.328 183 251 183.672 251 184.5Z" fill="black"/>
<path d="M271 184.5C271 185.328 270.328 186 269.5 186C268.672 186 268 185.328 268 184.5C268 183.672 268.672 183 269.5 183C270.328 183 271 183.672 271 184.5Z" fill="black"/>
<path d="M291 184.5C291 185.328 290.328 186 289.5 186C288.672 186 288 185.328 288 184.5C288 183.672 288.672 183 289.5 183C290.328 183 291 183.672 291 184.5Z" fill="black"/>
<path d="M311 184.5C311 185.328 310.328 186 309.5 186C308.672 186 308 185.328 308 184.5C308 183.672 308.672 183 309.5 183C310.328 183 311 183.672 311 184.5Z" fill="black"/>
<path d="M331 184.5C331 185.328 330.328 186 329.5 186C328.672 186 328 185.328 328 184.5C328 183.672 328.672 183 329.5 183C330.328 183 331 183.672 331 184.5Z" fill="black"/>
<path d="M351 184.5C351 185.328 350.328 186 349.5 186C348.672 186 348 185.328 348 184.5C348 183.672 348.672 183 349.5 183C350.328 183 351 183.672 351 184.5Z" fill="black"/>
<path d="M371 184.5C371 185.328 370.328 186 369.5 186C368.672 186 368 185.328 368 184.5C368 183.672 368.672 183 369.5 183C370.328 183 371 183.672 371 184.5Z" fill="black"/>
<path d="M391 184.5C391 185.328 390.328 186 389.5 186C388.672 186 388 185.328 388 184.5C388 183.672 388.672 183 389.5 183C390.328 183 391 183.672 391 184.5Z" fill="black"/>
<path d="M411 184.5C411 185.328 410.328 186 409.5 186C408.672 186 408 185.328 408 184.5C408 183.672 408.672 183 409.5 183C410.328 183 411 183.672 411 184.5Z" fill="black"/>
<path d="M431 184.5C431 185.328 430.328 186 429.5 186C428.672 186 428 185.328 428 184.5C428 183.672 428.672 183 429.5 183C430.328 183 431 183.672 431 184.5Z" fill="black"/>
<path d="M451 104.5C451 105.328 450.328 106 449.5 106C448.672 106 448 105.328 448 104.5C448 103.672 448.672 103 449.5 103C450.328 103 451 103.672 451 104.5Z" fill="black"/>
<path d="M471 104.5C471 105.328 470.328 106 469.5 106C468.672 106 468 105.328 468 104.5C468 103.672 468.672 103 469.5 103C470.328 103 471 103.672 471 104.5Z" fill="black"/>
<path d="M491 104.5C491 105.328 490.328 106 489.5 106C488.672 106 488 105.328 488 104.5C488 103.672 488.672 103 489.5 103C490.328 103 491 103.672 491 104.5Z" fill="black"/>
<path d="M511 104.5C511 105.328 510.328 106 509.5 106C508.672 106 508 105.328 508 104.5C508 103.672 508.672 103 509.5 103C510.328 103 511 103.672 511 104.5Z" fill="black"/>
<path d="M531 104.5C531 105.328 530.328 106 529.5 106C528.672 106 528 105.328 528 104.5C528 103.672 528.672 103 529.5 103C530.328 103 531 103.672 531 104.5Z" fill="black"/>
<path d="M551 104.5C551 105.328 550.328 106 549.5 106C548.672 106 548 105.328 548 104.5C548 103.672 548.672 103 549.5 103C550.328 103 551 103.672 551 104.5Z" fill="black"/>
<path d="M571 104.5C571 105.328 570.328 106 569.5 106C568.672 106 568 105.328 568 104.5C568 103.672 568.672 103 569.5 103C570.328 103 571 103.672 571 104.5Z" fill="black"/>
<path d="M591 104.5C591 105.328 590.328 106 589.5 106C588.672 106 588 105.328 588 104.5C588 103.672 588.672 103 589.5 103C590.328 103 591 103.672 591 104.5Z" fill="black"/>
<path d="M611 104.5C611 105.328 610.328 106 609.5 106C608.672 106 608 105.328 608 104.5C608 103.672 608.672 103 609.5 103C610.328 103 611 103.672 611 104.5Z" fill="black"/>
<path d="M631 104.5C631 105.328 630.328 106 629.5 106C628.672 106 628 105.328 628 104.5C628 103.672 628.672 103 629.5 103C630.328 103 631 103.672 631 104.5Z" fill="black"/>
<path d="M651 104.5C651 105.328 650.328 106 649.5 106C648.672 106 648 105.328 648 104.5C648 103.672 648.672 103 649.5 103C650.328 103 651 103.672 651 104.5Z" fill="black"/>
<path d="M451 124.5C451 125.328 450.328 126 449.5 126C448.672 126 448 125.328 448 124.5C448 123.672 448.672 123 449.5 123C450.328 123 451 123.672 451 124.5Z" fill="black"/>
<path d="M471 124.5C471 125.328 470.328 126 469.5 126C468.672 126 468 125.328 468 124.5C468 123.672 468.672 123 469.5 123C470.328 123 471 123.672 471 124.5Z" fill="black"/>
<path d="M491 124.5C491 125.328 490.328 126 489.5 126C488.672 126 488 125.328 488 124.5C488 123.672 488.672 123 489.5 123C490.328 123 491 123.672 491 124.5Z" fill="black"/>
<path d="M511 124.5C511 125.328 510.328 126 509.5 126C508.672 126 508 125.328 508 124.5C508 123.672 508.672 123 509.5 123C510.328 123 511 123.672 511 124.5Z" fill="black"/>
<path d="M531 124.5C531 125.328 530.328 126 529.5 126C528.672 126 528 125.328 528 124.5C528 123.672 528.672 123 529.5 123C530.328 123 531 123.672 531 124.5Z" fill="black"/>
<path d="M551 124.5C551 125.328 550.328 126 549.5 126C548.672 126 548 125.328 548 124.5C548 123.672 548.672 123 549.5 123C550.328 123 551 123.672 551 124.5Z" fill="black"/>
<path d="M571 124.5C571 125.328 570.328 126 569.5 126C568.672 126 568 125.328 568 124.5C568 123.672 568.672 123 569.5 123C570.328 123 571 123.672 571 124.5Z" fill="black"/>
<path d="M591 124.5C591 125.328 590.328 126 589.5 126C588.672 126 588 125.328 588 124.5C588 123.672 588.672 123 589.5 123C590.328 123 591 123.672 591 124.5Z" fill="black"/>
<path d="M611 124.5C611 125.328 610.328 126 609.5 126C608.672 126 608 125.328 608 124.5C608 123.672 608.672 123 609.5 123C610.328 123 611 123.672 611 124.5Z" fill="black"/>
<path d="M631 124.5C631 125.328 630.328 126 629.5 126C628.672 126 628 125.328 628 124.5C628 123.672 628.672 123 629.5 123C630.328 123 631 123.672 631 124.5Z" fill="black"/>
<path d="M651 124.5C651 125.328 650.328 126 649.5 126C648.672 126 648 125.328 648 124.5C648 123.672 648.672 123 649.5 123C650.328 123 651 123.672 651 124.5Z" fill="black"/>
<path d="M451 144.5C451 145.328 450.328 146 449.5 146C448.672 146 448 145.328 448 144.5C448 143.672 448.672 143 449.5 143C450.328 143 451 143.672 451 144.5Z" fill="black"/>
<path d="M471 144.5C471 145.328 470.328 146 469.5 146C468.672 146 468 145.328 468 144.5C468 143.672 468.672 143 469.5 143C470.328 143 471 143.672 471 144.5Z" fill="black"/>
<path d="M491 144.5C491 145.328 490.328 146 489.5 146C488.672 146 488 145.328 488 144.5C488 143.672 488.672 143 489.5 143C490.328 143 491 143.672 491 144.5Z" fill="black"/>
<path d="M511 144.5C511 145.328 510.328 146 509.5 146C508.672 146 508 145.328 508 144.5C508 143.672 508.672 143 509.5 143C510.328 143 511 143.672 511 144.5Z" fill="black"/>
<path d="M531 144.5C531 145.328 530.328 146 529.5 146C528.672 146 528 145.328 528 144.5C528 143.672 528.672 143 529.5 143C530.328 143 531 143.672 531 144.5Z" fill="black"/>
<path d="M551 144.5C551 145.328 550.328 146 549.5 146C548.672 146 548 145.328 548 144.5C548 143.672 548.672 143 549.5 143C550.328 143 551 143.672 551 144.5Z" fill="black"/>
<path d="M571 144.5C571 145.328 570.328 146 569.5 146C568.672 146 568 145.328 568 144.5C568 143.672 568.672 143 569.5 143C570.328 143 571 143.672 571 144.5Z" fill="black"/>
<path d="M591 144.5C591 145.328 590.328 146 589.5 146C588.672 146 588 145.328 588 144.5C588 143.672 588.672 143 589.5 143C590.328 143 591 143.672 591 144.5Z" fill="black"/>
<path d="M611 144.5C611 145.328 610.328 146 609.5 146C608.672 146 608 145.328 608 144.5C608 143.672 608.672 143 609.5 143C610.328 143 611 143.672 611 144.5Z" fill="black"/>
<path d="M631 144.5C631 145.328 630.328 146 629.5 146C628.672 146 628 145.328 628 144.5C628 143.672 628.672 143 629.5 143C630.328 143 631 143.672 631 144.5Z" fill="black"/>
<path d="M451 164.5C451 165.328 450.328 166 449.5 166C448.672 166 448 165.328 448 164.5C448 163.672 448.672 163 449.5 163C450.328 163 451 163.672 451 164.5Z" fill="black"/>
<path d="M471 164.5C471 165.328 470.328 166 469.5 166C468.672 166 468 165.328 468 164.5C468 163.672 468.672 163 469.5 163C470.328 163 471 163.672 471 164.5Z" fill="black"/>
<path d="M491 164.5C491 165.328 490.328 166 489.5 166C488.672 166 488 165.328 488 164.5C488 163.672 488.672 163 489.5 163C490.328 163 491 163.672 491 164.5Z" fill="black"/>
<path d="M511 164.5C511 165.328 510.328 166 509.5 166C508.672 166 508 165.328 508 164.5C508 163.672 508.672 163 509.5 163C510.328 163 511 163.672 511 164.5Z" fill="black"/>
<path d="M531 164.5C531 165.328 530.328 166 529.5 166C528.672 166 528 165.328 528 164.5C528 163.672 528.672 163 529.5 163C530.328 163 531 163.672 531 164.5Z" fill="black"/>
<path d="M551 164.5C551 165.328 550.328 166 549.5 166C548.672 166 548 165.328 548 164.5C548 163.672 548.672 163 549.5 163C550.328 163 551 163.672 551 164.5Z" fill="black"/>
<path d="M571 164.5C571 165.328 570.328 166 569.5 166C568.672 166 568 165.328 568 164.5C568 163.672 568.672 163 569.5 163C570.328 163 571 163.672 571 164.5Z" fill="black"/>
<path d="M591 164.5C591 165.328 590.328 166 589.5 166C588.672 166 588 165.328 588 164.5C588 163.672 588.672 163 589.5 163C590.328 163 591 163.672 591 164.5Z" fill="black"/>
<path d="M611 164.5C611 165.328 610.328 166 609.5 166C608.672 166 608 165.328 608 164.5C608 163.672 608.672 163 609.5 163C610.328 163 611 163.672 611 164.5Z" fill="black"/>
<path d="M671 104.5C671 105.328 670.328 106 669.5 106C668.672 106 668 105.328 668 104.5C668 103.672 668.672 103 669.5 103C670.328 103 671 103.672 671 104.5Z" fill="black"/>
<path d="M631 164.5C631 165.328 630.328 166 629.5 166C628.672 166 628 165.328 628 164.5C628 163.672 628.672 163 629.5 163C630.328 163 631 163.672 631 164.5Z" fill="black"/>
<path d="M651 164.5C651 165.328 650.328 166 649.5 166C648.672 166 648 165.328 648 164.5C648 163.672 648.672 163 649.5 163C650.328 163 651 163.672 651 164.5Z" fill="black"/>
<path d="M651 144.5C651 145.328 650.328 146 649.5 146C648.672 146 648 145.328 648 144.5C648 143.672 648.672 143 649.5 143C650.328 143 651 143.672 651 144.5Z" fill="black"/>
<path d="M671 144.5C671 145.328 670.328 146 669.5 146C668.672 146 668 145.328 668 144.5C668 143.672 668.672 143 669.5 143C670.328 143 671 143.672 671 144.5Z" fill="black"/>
<path d="M671 124.5C671 125.328 670.328 126 669.5 126C668.672 126 668 125.328 668 124.5C668 123.672 668.672 123 669.5 123C670.328 123 671 123.672 671 124.5Z" fill="black"/>
<path d="M671 164.5C671 165.328 670.328 166 669.5 166C668.672 166 668 165.328 668 164.5C668 163.672 668.672 163 669.5 163C670.328 163 671 163.672 671 164.5Z" fill="black"/>
<path d="M451 184.5C451 185.328 450.328 186 449.5 186C448.672 186 448 185.328 448 184.5C448 183.672 448.672 183 449.5 183C450.328 183 451 183.672 451 184.5Z" fill="black"/>
<path d="M471 184.5C471 185.328 470.328 186 469.5 186C468.672 186 468 185.328 468 184.5C468 183.672 468.672 183 469.5 183C470.328 183 471 183.672 471 184.5Z" fill="black"/>
<path d="M491 184.5C491 185.328 490.328 186 489.5 186C488.672 186 488 185.328 488 184.5C488 183.672 488.672 183 489.5 183C490.328 183 491 183.672 491 184.5Z" fill="black"/>
<path d="M511 184.5C511 185.328 510.328 186 509.5 186C508.672 186 508 185.328 508 184.5C508 183.672 508.672 183 509.5 183C510.328 183 511 183.672 511 184.5Z" fill="black"/>
<path d="M531 184.5C531 185.328 530.328 186 529.5 186C528.672 186 528 185.328 528 184.5C528 183.672 528.672 183 529.5 183C530.328 183 531 183.672 531 184.5Z" fill="black"/>
<path d="M551 184.5C551 185.328 550.328 186 549.5 186C548.672 186 548 185.328 548 184.5C548 183.672 548.672 183 549.5 183C550.328 183 551 183.672 551 184.5Z" fill="black"/>
<path d="M571 184.5C571 185.328 570.328 186 569.5 186C568.672 186 568 185.328 568 184.5C568 183.672 568.672 183 569.5 183C570.328 183 571 183.672 571 184.5Z" fill="black"/>
<path d="M591 184.5C591 185.328 590.328 186 589.5 186C588.672 186 588 185.328 588 184.5C588 183.672 588.672 183 589.5 183C590.328 183 591 183.672 591 184.5Z" fill="black"/>
<path d="M611 184.5C611 185.328 610.328 186 609.5 186C608.672 186 608 185.328 608 184.5C608 183.672 608.672 183 609.5 183C610.328 183 611 183.672 611 184.5Z" fill="black"/>
<path d="M631 184.5C631 185.328 630.328 186 629.5 186C628.672 186 628 185.328 628 184.5C628 183.672 628.672 183 629.5 183C630.328 183 631 183.672 631 184.5Z" fill="black"/>
<path d="M651 184.5C651 185.328 650.328 186 649.5 186C648.672 186 648 185.328 648 184.5C648 183.672 648.672 183 649.5 183C650.328 183 651 183.672 651 184.5Z" fill="black"/>
<path d="M671 184.5C671 185.328 670.328 186 669.5 186C668.672 186 668 185.328 668 184.5C668 183.672 668.672 183 669.5 183C670.328 183 671 183.672 671 184.5Z" fill="black"/>
<path d="M691 104.5C691 105.328 690.328 106 689.5 106C688.672 106 688 105.328 688 104.5C688 103.672 688.672 103 689.5 103C690.328 103 691 103.672 691 104.5Z" fill="black"/>
<path d="M691 144.5C691 145.328 690.328 146 689.5 146C688.672 146 688 145.328 688 144.5C688 143.672 688.672 143 689.5 143C690.328 143 691 143.672 691 144.5Z" fill="black"/>
<path d="M691 124.5C691 125.328 690.328 126 689.5 126C688.672 126 688 125.328 688 124.5C688 123.672 688.672 123 689.5 123C690.328 123 691 123.672 691 124.5Z" fill="black"/>
<path d="M691 164.5C691 165.328 690.328 166 689.5 166C688.672 166 688 165.328 688 164.5C688 163.672 688.672 163 689.5 163C690.328 163 691 163.672 691 164.5Z" fill="black"/>
<path d="M691 184.5C691 185.328 690.328 186 689.5 186C688.672 186 688 185.328 688 184.5C688 183.672 688.672 183 689.5 183C690.328 183 691 183.672 691 184.5Z" fill="black"/>
<path d="M11 204.5C11 205.328 10.3284 206 9.5 206C8.67157 206 8 205.328 8 204.5C8 203.672 8.67157 203 9.5 203C10.3284 203 11 203.672 11 204.5Z" fill="black"/>
<path d="M31 204.5C31 205.328 30.3284 206 29.5 206C28.6716 206 28 205.328 28 204.5C28 203.672 28.6716 203 29.5 203C30.3284 203 31 203.672 31 204.5Z" fill="black"/>
<path d="M51 204.5C51 205.328 50.3284 206 49.5 206C48.6716 206 48 205.328 48 204.5C48 203.672 48.6716 203 49.5 203C50.3284 203 51 203.672 51 204.5Z" fill="black"/>
<path d="M71 204.5C71 205.328 70.3284 206 69.5 206C68.6716 206 68 205.328 68 204.5C68 203.672 68.6716 203 69.5 203C70.3284 203 71 203.672 71 204.5Z" fill="black"/>
<path d="M91 204.5C91 205.328 90.3284 206 89.5 206C88.6716 206 88 205.328 88 204.5C88 203.672 88.6716 203 89.5 203C90.3284 203 91 203.672 91 204.5Z" fill="black"/>
<path d="M111 204.5C111 205.328 110.328 206 109.5 206C108.672 206 108 205.328 108 204.5C108 203.672 108.672 203 109.5 203C110.328 203 111 203.672 111 204.5Z" fill="black"/>
<path d="M131 204.5C131 205.328 130.328 206 129.5 206C128.672 206 128 205.328 128 204.5C128 203.672 128.672 203 129.5 203C130.328 203 131 203.672 131 204.5Z" fill="black"/>
<path d="M151 204.5C151 205.328 150.328 206 149.5 206C148.672 206 148 205.328 148 204.5C148 203.672 148.672 203 149.5 203C150.328 203 151 203.672 151 204.5Z" fill="black"/>
<path d="M171 204.5C171 205.328 170.328 206 169.5 206C168.672 206 168 205.328 168 204.5C168 203.672 168.672 203 169.5 203C170.328 203 171 203.672 171 204.5Z" fill="black"/>
<path d="M11 224.5C11 225.328 10.3284 226 9.5 226C8.67157 226 8 225.328 8 224.5C8 223.672 8.67157 223 9.5 223C10.3284 223 11 223.672 11 224.5Z" fill="black"/>
<path d="M31 224.5C31 225.328 30.3284 226 29.5 226C28.6716 226 28 225.328 28 224.5C28 223.672 28.6716 223 29.5 223C30.3284 223 31 223.672 31 224.5Z" fill="black"/>
<path d="M51 224.5C51 225.328 50.3284 226 49.5 226C48.6716 226 48 225.328 48 224.5C48 223.672 48.6716 223 49.5 223C50.3284 223 51 223.672 51 224.5Z" fill="black"/>
<path d="M71 224.5C71 225.328 70.3284 226 69.5 226C68.6716 226 68 225.328 68 224.5C68 223.672 68.6716 223 69.5 223C70.3284 223 71 223.672 71 224.5Z" fill="black"/>
<path d="M91 224.5C91 225.328 90.3284 226 89.5 226C88.6716 226 88 225.328 88 224.5C88 223.672 88.6716 223 89.5 223C90.3284 223 91 223.672 91 224.5Z" fill="black"/>
<path d="M111 224.5C111 225.328 110.328 226 109.5 226C108.672 226 108 225.328 108 224.5C108 223.672 108.672 223 109.5 223C110.328 223 111 223.672 111 224.5Z" fill="black"/>
<path d="M131 224.5C131 225.328 130.328 226 129.5 226C128.672 226 128 225.328 128 224.5C128 223.672 128.672 223 129.5 223C130.328 223 131 223.672 131 224.5Z" fill="black"/>
<path d="M151 224.5C151 225.328 150.328 226 149.5 226C148.672 226 148 225.328 148 224.5C148 223.672 148.672 223 149.5 223C150.328 223 151 223.672 151 224.5Z" fill="black"/>
<path d="M171 224.5C171 225.328 170.328 226 169.5 226C168.672 226 168 225.328 168 224.5C168 223.672 168.672 223 169.5 223C170.328 223 171 223.672 171 224.5Z" fill="black"/>
<path d="M191 204.5C191 205.328 190.328 206 189.5 206C188.672 206 188 205.328 188 204.5C188 203.672 188.672 203 189.5 203C190.328 203 191 203.672 191 204.5Z" fill="black"/>
<path d="M211 204.5C211 205.328 210.328 206 209.5 206C208.672 206 208 205.328 208 204.5C208 203.672 208.672 203 209.5 203C210.328 203 211 203.672 211 204.5Z" fill="black"/>
<path d="M231 204.5C231 205.328 230.328 206 229.5 206C228.672 206 228 205.328 228 204.5C228 203.672 228.672 203 229.5 203C230.328 203 231 203.672 231 204.5Z" fill="black"/>
<path d="M251 204.5C251 205.328 250.328 206 249.5 206C248.672 206 248 205.328 248 204.5C248 203.672 248.672 203 249.5 203C250.328 203 251 203.672 251 204.5Z" fill="black"/>
<path d="M271 204.5C271 205.328 270.328 206 269.5 206C268.672 206 268 205.328 268 204.5C268 203.672 268.672 203 269.5 203C270.328 203 271 203.672 271 204.5Z" fill="black"/>
<path d="M291 204.5C291 205.328 290.328 206 289.5 206C288.672 206 288 205.328 288 204.5C288 203.672 288.672 203 289.5 203C290.328 203 291 203.672 291 204.5Z" fill="black"/>
<path d="M311 204.5C311 205.328 310.328 206 309.5 206C308.672 206 308 205.328 308 204.5C308 203.672 308.672 203 309.5 203C310.328 203 311 203.672 311 204.5Z" fill="black"/>
<path d="M331 204.5C331 205.328 330.328 206 329.5 206C328.672 206 328 205.328 328 204.5C328 203.672 328.672 203 329.5 203C330.328 203 331 203.672 331 204.5Z" fill="black"/>
<path d="M351 204.5C351 205.328 350.328 206 349.5 206C348.672 206 348 205.328 348 204.5C348 203.672 348.672 203 349.5 203C350.328 203 351 203.672 351 204.5Z" fill="black"/>
<path d="M371 204.5C371 205.328 370.328 206 369.5 206C368.672 206 368 205.328 368 204.5C368 203.672 368.672 203 369.5 203C370.328 203 371 203.672 371 204.5Z" fill="black"/>
<path d="M391 204.5C391 205.328 390.328 206 389.5 206C388.672 206 388 205.328 388 204.5C388 203.672 388.672 203 389.5 203C390.328 203 391 203.672 391 204.5Z" fill="black"/>
<path d="M191 224.5C191 225.328 190.328 226 189.5 226C188.672 226 188 225.328 188 224.5C188 223.672 188.672 223 189.5 223C190.328 223 191 223.672 191 224.5Z" fill="black"/>
<path d="M211 224.5C211 225.328 210.328 226 209.5 226C208.672 226 208 225.328 208 224.5C208 223.672 208.672 223 209.5 223C210.328 223 211 223.672 211 224.5Z" fill="black"/>
<path d="M231 224.5C231 225.328 230.328 226 229.5 226C228.672 226 228 225.328 228 224.5C228 223.672 228.672 223 229.5 223C230.328 223 231 223.672 231 224.5Z" fill="black"/>
<path d="M251 224.5C251 225.328 250.328 226 249.5 226C248.672 226 248 225.328 248 224.5C248 223.672 248.672 223 249.5 223C250.328 223 251 223.672 251 224.5Z" fill="black"/>
<path d="M271 224.5C271 225.328 270.328 226 269.5 226C268.672 226 268 225.328 268 224.5C268 223.672 268.672 223 269.5 223C270.328 223 271 223.672 271 224.5Z" fill="black"/>
<path d="M291 224.5C291 225.328 290.328 226 289.5 226C288.672 226 288 225.328 288 224.5C288 223.672 288.672 223 289.5 223C290.328 223 291 223.672 291 224.5Z" fill="black"/>
<path d="M311 224.5C311 225.328 310.328 226 309.5 226C308.672 226 308 225.328 308 224.5C308 223.672 308.672 223 309.5 223C310.328 223 311 223.672 311 224.5Z" fill="black"/>
<path d="M331 224.5C331 225.328 330.328 226 329.5 226C328.672 226 328 225.328 328 224.5C328 223.672 328.672 223 329.5 223C330.328 223 331 223.672 331 224.5Z" fill="black"/>
<path d="M351 224.5C351 225.328 350.328 226 349.5 226C348.672 226 348 225.328 348 224.5C348 223.672 348.672 223 349.5 223C350.328 223 351 223.672 351 224.5Z" fill="black"/>
<path d="M371 224.5C371 225.328 370.328 226 369.5 226C368.672 226 368 225.328 368 224.5C368 223.672 368.672 223 369.5 223C370.328 223 371 223.672 371 224.5Z" fill="black"/>
<path d="M391 224.5C391 225.328 390.328 226 389.5 226C388.672 226 388 225.328 388 224.5C388 223.672 388.672 223 389.5 223C390.328 223 391 223.672 391 224.5Z" fill="black"/>
<path d="M411 224.5C411 225.328 410.328 226 409.5 226C408.672 226 408 225.328 408 224.5C408 223.672 408.672 223 409.5 223C410.328 223 411 223.672 411 224.5Z" fill="black"/>
<path d="M411 204.5C411 205.328 410.328 206 409.5 206C408.672 206 408 205.328 408 204.5C408 203.672 408.672 203 409.5 203C410.328 203 411 203.672 411 204.5Z" fill="black"/>
<path d="M431 204.5C431 205.328 430.328 206 429.5 206C428.672 206 428 205.328 428 204.5C428 203.672 428.672 203 429.5 203C430.328 203 431 203.672 431 204.5Z" fill="black"/>
<path d="M431 224.5C431 225.328 430.328 226 429.5 226C428.672 226 428 225.328 428 224.5C428 223.672 428.672 223 429.5 223C430.328 223 431 223.672 431 224.5Z" fill="black"/>
<path d="M11 244.5C11 245.328 10.3284 246 9.5 246C8.67157 246 8 245.328 8 244.5C8 243.672 8.67157 243 9.5 243C10.3284 243 11 243.672 11 244.5Z" fill="black"/>
<path d="M31 244.5C31 245.328 30.3284 246 29.5 246C28.6716 246 28 245.328 28 244.5C28 243.672 28.6716 243 29.5 243C30.3284 243 31 243.672 31 244.5Z" fill="black"/>
<path d="M51 244.5C51 245.328 50.3284 246 49.5 246C48.6716 246 48 245.328 48 244.5C48 243.672 48.6716 243 49.5 243C50.3284 243 51 243.672 51 244.5Z" fill="black"/>
<path d="M71 244.5C71 245.328 70.3284 246 69.5 246C68.6716 246 68 245.328 68 244.5C68 243.672 68.6716 243 69.5 243C70.3284 243 71 243.672 71 244.5Z" fill="black"/>
<path d="M91 244.5C91 245.328 90.3284 246 89.5 246C88.6716 246 88 245.328 88 244.5C88 243.672 88.6716 243 89.5 243C90.3284 243 91 243.672 91 244.5Z" fill="black"/>
<path d="M111 244.5C111 245.328 110.328 246 109.5 246C108.672 246 108 245.328 108 244.5C108 243.672 108.672 243 109.5 243C110.328 243 111 243.672 111 244.5Z" fill="black"/>
<path d="M131 244.5C131 245.328 130.328 246 129.5 246C128.672 246 128 245.328 128 244.5C128 243.672 128.672 243 129.5 243C130.328 243 131 243.672 131 244.5Z" fill="black"/>
<path d="M151 244.5C151 245.328 150.328 246 149.5 246C148.672 246 148 245.328 148 244.5C148 243.672 148.672 243 149.5 243C150.328 243 151 243.672 151 244.5Z" fill="black"/>
<path d="M171 244.5C171 245.328 170.328 246 169.5 246C168.672 246 168 245.328 168 244.5C168 243.672 168.672 243 169.5 243C170.328 243 171 243.672 171 244.5Z" fill="black"/>
<path d="M191 244.5C191 245.328 190.328 246 189.5 246C188.672 246 188 245.328 188 244.5C188 243.672 188.672 243 189.5 243C190.328 243 191 243.672 191 244.5Z" fill="black"/>
<path d="M211 244.5C211 245.328 210.328 246 209.5 246C208.672 246 208 245.328 208 244.5C208 243.672 208.672 243 209.5 243C210.328 243 211 243.672 211 244.5Z" fill="black"/>
<path d="M231 244.5C231 245.328 230.328 246 229.5 246C228.672 246 228 245.328 228 244.5C228 243.672 228.672 243 229.5 243C230.328 243 231 243.672 231 244.5Z" fill="black"/>
<path d="M251 244.5C251 245.328 250.328 246 249.5 246C248.672 246 248 245.328 248 244.5C248 243.672 248.672 243 249.5 243C250.328 243 251 243.672 251 244.5Z" fill="black"/>
<path d="M271 244.5C271 245.328 270.328 246 269.5 246C268.672 246 268 245.328 268 244.5C268 243.672 268.672 243 269.5 243C270.328 243 271 243.672 271 244.5Z" fill="black"/>
<path d="M291 244.5C291 245.328 290.328 246 289.5 246C288.672 246 288 245.328 288 244.5C288 243.672 288.672 243 289.5 243C290.328 243 291 243.672 291 244.5Z" fill="black"/>
<path d="M311 244.5C311 245.328 310.328 246 309.5 246C308.672 246 308 245.328 308 244.5C308 243.672 308.672 243 309.5 243C310.328 243 311 243.672 311 244.5Z" fill="black"/>
<path d="M331 244.5C331 245.328 330.328 246 329.5 246C328.672 246 328 245.328 328 244.5C328 243.672 328.672 243 329.5 243C330.328 243 331 243.672 331 244.5Z" fill="black"/>
<path d="M351 244.5C351 245.328 350.328 246 349.5 246C348.672 246 348 245.328 348 244.5C348 243.672 348.672 243 349.5 243C350.328 243 351 243.672 351 244.5Z" fill="black"/>
<path d="M371 244.5C371 245.328 370.328 246 369.5 246C368.672 246 368 245.328 368 244.5C368 243.672 368.672 243 369.5 243C370.328 243 371 243.672 371 244.5Z" fill="black"/>
<path d="M391 244.5C391 245.328 390.328 246 389.5 246C388.672 246 388 245.328 388 244.5C388 243.672 388.672 243 389.5 243C390.328 243 391 243.672 391 244.5Z" fill="black"/>
<path d="M411 244.5C411 245.328 410.328 246 409.5 246C408.672 246 408 245.328 408 244.5C408 243.672 408.672 243 409.5 243C410.328 243 411 243.672 411 244.5Z" fill="black"/>
<path d="M431 244.5C431 245.328 430.328 246 429.5 246C428.672 246 428 245.328 428 244.5C428 243.672 428.672 243 429.5 243C430.328 243 431 243.672 431 244.5Z" fill="black"/>
<path d="M451 204.5C451 205.328 450.328 206 449.5 206C448.672 206 448 205.328 448 204.5C448 203.672 448.672 203 449.5 203C450.328 203 451 203.672 451 204.5Z" fill="black"/>
<path d="M471 204.5C471 205.328 470.328 206 469.5 206C468.672 206 468 205.328 468 204.5C468 203.672 468.672 203 469.5 203C470.328 203 471 203.672 471 204.5Z" fill="black"/>
<path d="M491 204.5C491 205.328 490.328 206 489.5 206C488.672 206 488 205.328 488 204.5C488 203.672 488.672 203 489.5 203C490.328 203 491 203.672 491 204.5Z" fill="black"/>
<path d="M511 204.5C511 205.328 510.328 206 509.5 206C508.672 206 508 205.328 508 204.5C508 203.672 508.672 203 509.5 203C510.328 203 511 203.672 511 204.5Z" fill="black"/>
<path d="M531 204.5C531 205.328 530.328 206 529.5 206C528.672 206 528 205.328 528 204.5C528 203.672 528.672 203 529.5 203C530.328 203 531 203.672 531 204.5Z" fill="black"/>
<path d="M551 204.5C551 205.328 550.328 206 549.5 206C548.672 206 548 205.328 548 204.5C548 203.672 548.672 203 549.5 203C550.328 203 551 203.672 551 204.5Z" fill="black"/>
<path d="M571 204.5C571 205.328 570.328 206 569.5 206C568.672 206 568 205.328 568 204.5C568 203.672 568.672 203 569.5 203C570.328 203 571 203.672 571 204.5Z" fill="black"/>
<path d="M591 204.5C591 205.328 590.328 206 589.5 206C588.672 206 588 205.328 588 204.5C588 203.672 588.672 203 589.5 203C590.328 203 591 203.672 591 204.5Z" fill="black"/>
<path d="M611 204.5C611 205.328 610.328 206 609.5 206C608.672 206 608 205.328 608 204.5C608 203.672 608.672 203 609.5 203C610.328 203 611 203.672 611 204.5Z" fill="black"/>
<path d="M631 204.5C631 205.328 630.328 206 629.5 206C628.672 206 628 205.328 628 204.5C628 203.672 628.672 203 629.5 203C630.328 203 631 203.672 631 204.5Z" fill="black"/>
<path d="M451 224.5C451 225.328 450.328 226 449.5 226C448.672 226 448 225.328 448 224.5C448 223.672 448.672 223 449.5 223C450.328 223 451 223.672 451 224.5Z" fill="black"/>
<path d="M471 224.5C471 225.328 470.328 226 469.5 226C468.672 226 468 225.328 468 224.5C468 223.672 468.672 223 469.5 223C470.328 223 471 223.672 471 224.5Z" fill="black"/>
<path d="M491 224.5C491 225.328 490.328 226 489.5 226C488.672 226 488 225.328 488 224.5C488 223.672 488.672 223 489.5 223C490.328 223 491 223.672 491 224.5Z" fill="black"/>
<path d="M511 224.5C511 225.328 510.328 226 509.5 226C508.672 226 508 225.328 508 224.5C508 223.672 508.672 223 509.5 223C510.328 223 511 223.672 511 224.5Z" fill="black"/>
<path d="M531 224.5C531 225.328 530.328 226 529.5 226C528.672 226 528 225.328 528 224.5C528 223.672 528.672 223 529.5 223C530.328 223 531 223.672 531 224.5Z" fill="black"/>
<path d="M551 224.5C551 225.328 550.328 226 549.5 226C548.672 226 548 225.328 548 224.5C548 223.672 548.672 223 549.5 223C550.328 223 551 223.672 551 224.5Z" fill="black"/>
<path d="M571 224.5C571 225.328 570.328 226 569.5 226C568.672 226 568 225.328 568 224.5C568 223.672 568.672 223 569.5 223C570.328 223 571 223.672 571 224.5Z" fill="black"/>
<path d="M591 224.5C591 225.328 590.328 226 589.5 226C588.672 226 588 225.328 588 224.5C588 223.672 588.672 223 589.5 223C590.328 223 591 223.672 591 224.5Z" fill="black"/>
<path d="M611 224.5C611 225.328 610.328 226 609.5 226C608.672 226 608 225.328 608 224.5C608 223.672 608.672 223 609.5 223C610.328 223 611 223.672 611 224.5Z" fill="black"/>
<path d="M631 224.5C631 225.328 630.328 226 629.5 226C628.672 226 628 225.328 628 224.5C628 223.672 628.672 223 629.5 223C630.328 223 631 223.672 631 224.5Z" fill="black"/>
<path d="M651 224.5C651 225.328 650.328 226 649.5 226C648.672 226 648 225.328 648 224.5C648 223.672 648.672 223 649.5 223C650.328 223 651 223.672 651 224.5Z" fill="black"/>
<path d="M651 204.5C651 205.328 650.328 206 649.5 206C648.672 206 648 205.328 648 204.5C648 203.672 648.672 203 649.5 203C650.328 203 651 203.672 651 204.5Z" fill="black"/>
<path d="M671 204.5C671 205.328 670.328 206 669.5 206C668.672 206 668 205.328 668 204.5C668 203.672 668.672 203 669.5 203C670.328 203 671 203.672 671 204.5Z" fill="black"/>
<path d="M671 224.5C671 225.328 670.328 226 669.5 226C668.672 226 668 225.328 668 224.5C668 223.672 668.672 223 669.5 223C670.328 223 671 223.672 671 224.5Z" fill="black"/>
<path d="M451 244.5C451 245.328 450.328 246 449.5 246C448.672 246 448 245.328 448 244.5C448 243.672 448.672 243 449.5 243C450.328 243 451 243.672 451 244.5Z" fill="black"/>
<path d="M471 244.5C471 245.328 470.328 246 469.5 246C468.672 246 468 245.328 468 244.5C468 243.672 468.672 243 469.5 243C470.328 243 471 243.672 471 244.5Z" fill="black"/>
<path d="M491 244.5C491 245.328 490.328 246 489.5 246C488.672 246 488 245.328 488 244.5C488 243.672 488.672 243 489.5 243C490.328 243 491 243.672 491 244.5Z" fill="black"/>
<path d="M511 244.5C511 245.328 510.328 246 509.5 246C508.672 246 508 245.328 508 244.5C508 243.672 508.672 243 509.5 243C510.328 243 511 243.672 511 244.5Z" fill="black"/>
<path d="M531 244.5C531 245.328 530.328 246 529.5 246C528.672 246 528 245.328 528 244.5C528 243.672 528.672 243 529.5 243C530.328 243 531 243.672 531 244.5Z" fill="black"/>
<path d="M551 244.5C551 245.328 550.328 246 549.5 246C548.672 246 548 245.328 548 244.5C548 243.672 548.672 243 549.5 243C550.328 243 551 243.672 551 244.5Z" fill="black"/>
<path d="M571 244.5C571 245.328 570.328 246 569.5 246C568.672 246 568 245.328 568 244.5C568 243.672 568.672 243 569.5 243C570.328 243 571 243.672 571 244.5Z" fill="black"/>
<path d="M591 244.5C591 245.328 590.328 246 589.5 246C588.672 246 588 245.328 588 244.5C588 243.672 588.672 243 589.5 243C590.328 243 591 243.672 591 244.5Z" fill="black"/>
<path d="M611 244.5C611 245.328 610.328 246 609.5 246C608.672 246 608 245.328 608 244.5C608 243.672 608.672 243 609.5 243C610.328 243 611 243.672 611 244.5Z" fill="black"/>
<path d="M631 244.5C631 245.328 630.328 246 629.5 246C628.672 246 628 245.328 628 244.5C628 243.672 628.672 243 629.5 243C630.328 243 631 243.672 631 244.5Z" fill="black"/>
<path d="M651 244.5C651 245.328 650.328 246 649.5 246C648.672 246 648 245.328 648 244.5C648 243.672 648.672 243 649.5 243C650.328 243 651 243.672 651 244.5Z" fill="black"/>
<path d="M671 244.5C671 245.328 670.328 246 669.5 246C668.672 246 668 245.328 668 244.5C668 243.672 668.672 243 669.5 243C670.328 243 671 243.672 671 244.5Z" fill="black"/>
<path d="M691 204.5C691 205.328 690.328 206 689.5 206C688.672 206 688 205.328 688 204.5C688 203.672 688.672 203 689.5 203C690.328 203 691 203.672 691 204.5Z" fill="black"/>
<path d="M691 224.5C691 225.328 690.328 226 689.5 226C688.672 226 688 225.328 688 224.5C688 223.672 688.672 223 689.5 223C690.328 223 691 223.672 691 224.5Z" fill="black"/>
<path d="M691 244.5C691 245.328 690.328 246 689.5 246C688.672 246 688 245.328 688 244.5C688 243.672 688.672 243 689.5 243C690.328 243 691 243.672 691 244.5Z" fill="black"/>
<path d="M11 264.5C11 265.328 10.3284 266 9.5 266C8.67157 266 8 265.328 8 264.5C8 263.672 8.67157 263 9.5 263C10.3284 263 11 263.672 11 264.5Z" fill="black"/>
<path d="M31 264.5C31 265.328 30.3284 266 29.5 266C28.6716 266 28 265.328 28 264.5C28 263.672 28.6716 263 29.5 263C30.3284 263 31 263.672 31 264.5Z" fill="black"/>
<path d="M51 264.5C51 265.328 50.3284 266 49.5 266C48.6716 266 48 265.328 48 264.5C48 263.672 48.6716 263 49.5 263C50.3284 263 51 263.672 51 264.5Z" fill="black"/>
<path d="M71 264.5C71 265.328 70.3284 266 69.5 266C68.6716 266 68 265.328 68 264.5C68 263.672 68.6716 263 69.5 263C70.3284 263 71 263.672 71 264.5Z" fill="black"/>
<path d="M91 264.5C91 265.328 90.3284 266 89.5 266C88.6716 266 88 265.328 88 264.5C88 263.672 88.6716 263 89.5 263C90.3284 263 91 263.672 91 264.5Z" fill="black"/>
<path d="M111 264.5C111 265.328 110.328 266 109.5 266C108.672 266 108 265.328 108 264.5C108 263.672 108.672 263 109.5 263C110.328 263 111 263.672 111 264.5Z" fill="black"/>
<path d="M131 264.5C131 265.328 130.328 266 129.5 266C128.672 266 128 265.328 128 264.5C128 263.672 128.672 263 129.5 263C130.328 263 131 263.672 131 264.5Z" fill="black"/>
<path d="M151 264.5C151 265.328 150.328 266 149.5 266C148.672 266 148 265.328 148 264.5C148 263.672 148.672 263 149.5 263C150.328 263 151 263.672 151 264.5Z" fill="black"/>
<path d="M171 264.5C171 265.328 170.328 266 169.5 266C168.672 266 168 265.328 168 264.5C168 263.672 168.672 263 169.5 263C170.328 263 171 263.672 171 264.5Z" fill="black"/>
<path d="M191 264.5C191 265.328 190.328 266 189.5 266C188.672 266 188 265.328 188 264.5C188 263.672 188.672 263 189.5 263C190.328 263 191 263.672 191 264.5Z" fill="black"/>
<path d="M211 264.5C211 265.328 210.328 266 209.5 266C208.672 266 208 265.328 208 264.5C208 263.672 208.672 263 209.5 263C210.328 263 211 263.672 211 264.5Z" fill="black"/>
<path d="M231 264.5C231 265.328 230.328 266 229.5 266C228.672 266 228 265.328 228 264.5C228 263.672 228.672 263 229.5 263C230.328 263 231 263.672 231 264.5Z" fill="black"/>
<path d="M251 264.5C251 265.328 250.328 266 249.5 266C248.672 266 248 265.328 248 264.5C248 263.672 248.672 263 249.5 263C250.328 263 251 263.672 251 264.5Z" fill="black"/>
<path d="M271 264.5C271 265.328 270.328 266 269.5 266C268.672 266 268 265.328 268 264.5C268 263.672 268.672 263 269.5 263C270.328 263 271 263.672 271 264.5Z" fill="black"/>
<path d="M291 264.5C291 265.328 290.328 266 289.5 266C288.672 266 288 265.328 288 264.5C288 263.672 288.672 263 289.5 263C290.328 263 291 263.672 291 264.5Z" fill="black"/>
<path d="M311 264.5C311 265.328 310.328 266 309.5 266C308.672 266 308 265.328 308 264.5C308 263.672 308.672 263 309.5 263C310.328 263 311 263.672 311 264.5Z" fill="black"/>
<path d="M331 264.5C331 265.328 330.328 266 329.5 266C328.672 266 328 265.328 328 264.5C328 263.672 328.672 263 329.5 263C330.328 263 331 263.672 331 264.5Z" fill="black"/>
<path d="M351 264.5C351 265.328 350.328 266 349.5 266C348.672 266 348 265.328 348 264.5C348 263.672 348.672 263 349.5 263C350.328 263 351 263.672 351 264.5Z" fill="black"/>
<path d="M371 264.5C371 265.328 370.328 266 369.5 266C368.672 266 368 265.328 368 264.5C368 263.672 368.672 263 369.5 263C370.328 263 371 263.672 371 264.5Z" fill="black"/>
<path d="M391 264.5C391 265.328 390.328 266 389.5 266C388.672 266 388 265.328 388 264.5C388 263.672 388.672 263 389.5 263C390.328 263 391 263.672 391 264.5Z" fill="black"/>
<path d="M411 264.5C411 265.328 410.328 266 409.5 266C408.672 266 408 265.328 408 264.5C408 263.672 408.672 263 409.5 263C410.328 263 411 263.672 411 264.5Z" fill="black"/>
<path d="M431 264.5C431 265.328 430.328 266 429.5 266C428.672 266 428 265.328 428 264.5C428 263.672 428.672 263 429.5 263C430.328 263 431 263.672 431 264.5Z" fill="black"/>
<path d="M451 264.5C451 265.328 450.328 266 449.5 266C448.672 266 448 265.328 448 264.5C448 263.672 448.672 263 449.5 263C450.328 263 451 263.672 451 264.5Z" fill="black"/>
<path d="M471 264.5C471 265.328 470.328 266 469.5 266C468.672 266 468 265.328 468 264.5C468 263.672 468.672 263 469.5 263C470.328 263 471 263.672 471 264.5Z" fill="black"/>
<path d="M491 264.5C491 265.328 490.328 266 489.5 266C488.672 266 488 265.328 488 264.5C488 263.672 488.672 263 489.5 263C490.328 263 491 263.672 491 264.5Z" fill="black"/>
<path d="M511 264.5C511 265.328 510.328 266 509.5 266C508.672 266 508 265.328 508 264.5C508 263.672 508.672 263 509.5 263C510.328 263 511 263.672 511 264.5Z" fill="black"/>
<path d="M531 264.5C531 265.328 530.328 266 529.5 266C528.672 266 528 265.328 528 264.5C528 263.672 528.672 263 529.5 263C530.328 263 531 263.672 531 264.5Z" fill="black"/>
<path d="M551 264.5C551 265.328 550.328 266 549.5 266C548.672 266 548 265.328 548 264.5C548 263.672 548.672 263 549.5 263C550.328 263 551 263.672 551 264.5Z" fill="black"/>
<path d="M571 264.5C571 265.328 570.328 266 569.5 266C568.672 266 568 265.328 568 264.5C568 263.672 568.672 263 569.5 263C570.328 263 571 263.672 571 264.5Z" fill="black"/>
<path d="M591 264.5C591 265.328 590.328 266 589.5 266C588.672 266 588 265.328 588 264.5C588 263.672 588.672 263 589.5 263C590.328 263 591 263.672 591 264.5Z" fill="black"/>
<path d="M611 264.5C611 265.328 610.328 266 609.5 266C608.672 266 608 265.328 608 264.5C608 263.672 608.672 263 609.5 263C610.328 263 611 263.672 611 264.5Z" fill="black"/>
<path d="M631 264.5C631 265.328 630.328 266 629.5 266C628.672 266 628 265.328 628 264.5C628 263.672 628.672 263 629.5 263C630.328 263 631 263.672 631 264.5Z" fill="black"/>
<path d="M651 264.5C651 265.328 650.328 266 649.5 266C648.672 266 648 265.328 648 264.5C648 263.672 648.672 263 649.5 263C650.328 263 651 263.672 651 264.5Z" fill="black"/>
<path d="M671 264.5C671 265.328 670.328 266 669.5 266C668.672 266 668 265.328 668 264.5C668 263.672 668.672 263 669.5 263C670.328 263 671 263.672 671 264.5Z" fill="black"/>
<path d="M691 264.5C691 265.328 690.328 266 689.5 266C688.672 266 688 265.328 688 264.5C688 263.672 688.672 263 689.5 263C690.328 263 691 263.672 691 264.5Z" fill="black"/>
</g>
</g>
</svg>
