<svg width="52" height="44" viewBox="0 0 52 44" fill="none" xmlns="http://www.w3.org/2000/svg">
<path fill-rule="evenodd" clip-rule="evenodd" d="M17.7942 31.5665L18.3536 33.7052C18.8665 35.6662 20.8708 36.8398 22.8303 36.3265C24.7899 35.8132 25.9627 33.8075 25.4498 31.8466L22.7194 21.4076L22.7147 21.3824C22.6975 21.2911 22.6768 21.1996 22.6523 21.1082C22.4148 20.2192 21.872 19.4954 21.1658 19.0173L21.1646 19.0165L21.1635 19.0157C20.316 18.4373 19.2352 18.2165 18.1668 18.4963C18.069 18.5219 17.9734 18.5512 17.8799 18.5839L17.8538 18.593L7.4553 21.3754C5.49847 21.899 4.33631 23.9109 4.85955 25.8691C5.38278 27.8273 7.39327 28.9903 9.3501 28.4667L11.4343 27.909L7.98945 33.8798C6.97667 35.6353 7.5777 37.8799 9.3319 38.8934C11.0861 39.9069 13.3292 39.3055 14.342 37.5501L17.7942 31.5665ZM17.5365 33.4821L14.9776 37.9173C13.7621 40.024 11.0702 40.7459 8.96491 39.5295C6.85965 38.3132 6.13834 35.6193 7.35381 33.5126L9.91329 29.0763L9.5397 29.1763C9.34008 29.2297 9.13999 29.2685 8.94057 29.2933C6.79397 29.5605 4.72505 28.2092 4.15048 26.0589C3.52253 23.7088 4.91726 21.2942 7.2657 20.6659L17.6375 17.8906C17.7496 17.8514 17.8641 17.8163 17.9809 17.7857C19.2633 17.4498 20.5617 17.7159 21.5771 18.4089C22.4241 18.9823 23.0765 19.8522 23.3614 20.9184C23.3906 21.0277 23.4154 21.1372 23.436 21.2466L26.1598 31.6606C26.7754 34.014 25.3679 36.4211 23.0162 37.0371C20.8556 37.603 18.6497 36.4602 17.8281 34.4457C17.7554 34.2675 17.6935 34.0825 17.6435 33.8912L17.5365 33.4821Z" fill="#BB4CFC"/>
<g filter="url(#filter0_f)">
<path fill-rule="evenodd" clip-rule="evenodd" d="M17.7942 31.5665L18.3536 33.7052C18.8665 35.6662 20.8708 36.8398 22.8303 36.3265C24.7899 35.8132 25.9627 33.8075 25.4498 31.8466L22.7194 21.4076L22.7147 21.3824C22.6975 21.2911 22.6768 21.1996 22.6523 21.1082C22.4148 20.2192 21.872 19.4954 21.1658 19.0173L21.1646 19.0165L21.1635 19.0157C20.316 18.4373 19.2352 18.2165 18.1668 18.4963C18.069 18.5219 17.9734 18.5512 17.8799 18.5839L17.8538 18.593L7.4553 21.3754C5.49847 21.899 4.33631 23.9109 4.85955 25.8691C5.38278 27.8273 7.39327 28.9903 9.3501 28.4667L11.4343 27.909L7.98945 33.8798C6.97667 35.6353 7.5777 37.8799 9.3319 38.8934C11.0861 39.9069 13.3292 39.3055 14.342 37.5501L17.7942 31.5665ZM17.5365 33.4821L14.9776 37.9173C13.7621 40.024 11.0702 40.7459 8.96491 39.5295C6.85965 38.3132 6.13834 35.6193 7.35381 33.5126L9.91329 29.0763L9.5397 29.1763C9.34008 29.2297 9.13999 29.2685 8.94057 29.2933C6.79397 29.5605 4.72505 28.2092 4.15048 26.0589C3.52253 23.7088 4.91726 21.2942 7.2657 20.6659L17.6375 17.8906C17.7496 17.8514 17.8641 17.8163 17.9809 17.7857C19.2633 17.4498 20.5617 17.7159 21.5771 18.4089C22.4241 18.9823 23.0765 19.8522 23.3614 20.9184C23.3906 21.0277 23.4154 21.1372 23.436 21.2466L26.1598 31.6606C26.7754 34.014 25.3679 36.4211 23.0162 37.0371C20.8556 37.603 18.6497 36.4602 17.8281 34.4457C17.7554 34.2675 17.6935 34.0825 17.6435 33.8912L17.5365 33.4821Z" fill="#BB4CFC"/>
</g>
<path fill-rule="evenodd" clip-rule="evenodd" d="M17.7942 31.5665L18.3536 33.7052C18.8665 35.6662 20.8708 36.8398 22.8303 36.3265C24.7899 35.8132 25.9627 33.8075 25.4498 31.8466L22.7194 21.4076L22.7147 21.3824C22.6975 21.2911 22.6768 21.1996 22.6523 21.1082C22.4148 20.2192 21.872 19.4954 21.1658 19.0173L21.1646 19.0165L21.1635 19.0157C20.316 18.4373 19.2352 18.2165 18.1668 18.4963C18.069 18.5219 17.9734 18.5512 17.8799 18.5839L17.8538 18.593L7.4553 21.3754C5.49847 21.899 4.33631 23.9109 4.85955 25.8691C5.38278 27.8273 7.39327 28.9903 9.3501 28.4667L11.4343 27.909L7.98945 33.8798C6.97667 35.6353 7.5777 37.8799 9.3319 38.8934C11.0861 39.9069 13.3292 39.3055 14.342 37.5501L17.7942 31.5665ZM17.5365 33.4821L14.9776 37.9173C13.7621 40.024 11.0702 40.7459 8.96491 39.5295C6.85965 38.3132 6.13834 35.6193 7.35381 33.5126L9.91329 29.0763L9.5397 29.1763C9.34008 29.2297 9.13999 29.2685 8.94057 29.2933C6.79397 29.5605 4.72505 28.2092 4.15048 26.0589C3.52253 23.7088 4.91726 21.2942 7.2657 20.6659L17.6375 17.8906C17.7496 17.8514 17.8641 17.8163 17.9809 17.7857C19.2633 17.4498 20.5617 17.7159 21.5771 18.4089C22.4241 18.9823 23.0765 19.8522 23.3614 20.9184C23.3906 21.0277 23.4154 21.1372 23.436 21.2466L26.1598 31.6606C26.7754 34.014 25.3679 36.4211 23.0162 37.0371C20.8556 37.603 18.6497 36.4602 17.8281 34.4457C17.7554 34.2675 17.6935 34.0825 17.6435 33.8912L17.5365 33.4821Z" fill="#BB4CFC"/>
<g filter="url(#filter1_f)">
<path fill-rule="evenodd" clip-rule="evenodd" d="M17.7942 31.5665L18.3536 33.7052C18.8665 35.6662 20.8708 36.8398 22.8303 36.3265C24.7899 35.8132 25.9627 33.8075 25.4498 31.8466L22.7194 21.4076L22.7147 21.3824C22.6975 21.2911 22.6768 21.1996 22.6523 21.1082C22.4148 20.2192 21.872 19.4954 21.1658 19.0173L21.1646 19.0165L21.1635 19.0157C20.316 18.4373 19.2352 18.2165 18.1668 18.4963C18.069 18.5219 17.9734 18.5512 17.8799 18.5839L17.8538 18.593L7.4553 21.3754C5.49847 21.899 4.33631 23.9109 4.85955 25.8691C5.38278 27.8273 7.39327 28.9903 9.3501 28.4667L11.4343 27.909L7.98945 33.8798C6.97667 35.6353 7.5777 37.8799 9.3319 38.8934C11.0861 39.9069 13.3292 39.3055 14.342 37.5501L17.7942 31.5665ZM17.5365 33.4821L14.9776 37.9173C13.7621 40.024 11.0702 40.7459 8.96491 39.5295C6.85965 38.3132 6.13834 35.6193 7.35381 33.5126L9.91329 29.0763L9.5397 29.1763C9.34008 29.2297 9.13999 29.2685 8.94057 29.2933C6.79397 29.5605 4.72505 28.2092 4.15048 26.0589C3.52253 23.7088 4.91726 21.2942 7.2657 20.6659L17.6375 17.8906C17.7496 17.8514 17.8641 17.8163 17.9809 17.7857C19.2633 17.4498 20.5617 17.7159 21.5771 18.4089C22.4241 18.9823 23.0765 19.8522 23.3614 20.9184C23.3906 21.0277 23.4154 21.1372 23.436 21.2466L26.1598 31.6606C26.7754 34.014 25.3679 36.4211 23.0162 37.0371C20.8556 37.603 18.6497 36.4602 17.8281 34.4457C17.7554 34.2675 17.6935 34.0825 17.6435 33.8912L17.5365 33.4821Z" fill="#BB4CFC"/>
</g>
<path fill-rule="evenodd" clip-rule="evenodd" d="M17.6101 32.9348L17.8464 33.8381C18.4326 36.0793 20.7234 37.4207 22.9631 36.834C25.2028 36.2474 26.5432 33.955 25.957 31.7137L23.2313 21.2926L23.2299 21.2854C23.2103 21.1811 23.1867 21.0769 23.1588 20.9727C22.8874 19.957 22.2664 19.1289 21.4596 18.5827L21.4592 18.5825L21.4589 18.5823C20.4915 17.922 19.2553 17.6689 18.034 17.9887L17.9809 17.7857C19.2633 17.4498 20.5617 17.7159 21.5771 18.4089C22.4241 18.9823 23.0765 19.8522 23.3614 20.9184C23.3906 21.0277 23.4154 21.1372 23.436 21.2466L26.1598 31.6606C26.7754 34.014 25.3679 36.4211 23.0162 37.0371C20.6645 37.653 18.259 36.2446 17.6435 33.8912L17.5365 33.4821L14.9776 37.9173C13.7621 40.024 11.0702 40.7459 8.96491 39.5295C6.85965 38.3132 6.13834 35.6193 7.35381 33.5126L9.91329 29.0763L9.5397 29.1763C7.19126 29.8047 4.77843 28.409 4.15048 26.0589C3.52253 23.7088 4.91726 21.2942 7.2657 20.6659L17.6375 17.8906C17.7496 17.8514 17.8641 17.8163 17.9809 17.7857L18.034 17.9887C17.9226 18.0179 17.8135 18.0513 17.7068 18.0887L17.6993 18.0913L7.31987 20.8686C5.08332 21.467 3.75504 23.7665 4.35307 26.0047C4.9511 28.2428 7.24898 29.572 9.48553 28.9735L10.3479 28.7428L7.53542 33.6175C6.37786 35.6239 7.06481 38.1894 9.06976 39.3478C11.0747 40.5062 13.6384 39.8187 14.796 37.8124L17.6101 32.9348Z" fill="#BB4CFC"/>
<g filter="url(#filter2_f)">
<path fill-rule="evenodd" clip-rule="evenodd" d="M17.6469 32.6611L17.9478 33.8115C18.5194 35.9967 20.7529 37.3045 22.9365 36.7325C25.1202 36.1606 26.4271 33.9255 25.8555 31.7403L23.1289 21.3156L23.1269 21.3048C23.1078 21.2031 23.0847 21.1014 23.0575 20.9998C22.7929 20.0094 22.1875 19.2022 21.4008 18.6696L21.4003 18.6693L21.3998 18.669C20.4564 18.0251 19.2513 17.7784 18.0606 18.0903C17.9519 18.1187 17.8455 18.1513 17.7414 18.1877L17.7302 18.1916L7.34695 20.97C5.16635 21.5534 3.87129 23.7954 4.45437 25.9776C5.03744 28.1597 7.27784 29.4557 9.45844 28.8722L10.5651 28.5761L7.62623 33.67C6.49762 35.6262 7.16739 38.1275 9.12219 39.2569C11.077 40.3863 13.5766 39.7161 14.7052 37.7599L17.6469 32.6611ZM14.9776 37.9173C13.7621 40.024 11.0702 40.7459 8.96491 39.5295C6.85965 38.3132 6.13834 35.6193 7.35381 33.5126L9.91329 29.0763L9.5397 29.1763C9.52114 29.1812 9.50258 29.1861 9.48402 29.1908C7.15324 29.7826 4.77346 28.3904 4.15048 26.0589C3.52253 23.7088 4.91726 21.2942 7.2657 20.6659L17.6375 17.8906C17.7496 17.8514 17.8641 17.8163 17.9809 17.7857C19.2633 17.4498 20.5617 17.7159 21.5771 18.4089C22.4241 18.9823 23.0765 19.8522 23.3614 20.9184C23.3906 21.0277 23.4154 21.1372 23.436 21.2466L26.1598 31.6606C26.7754 34.014 25.3679 36.4211 23.0162 37.0371C20.6725 37.6509 18.2754 36.2541 17.6498 33.9152C17.6477 33.9072 17.6456 33.8992 17.6435 33.8912L17.5365 33.4821L14.9776 37.9173Z" fill="#BB4CFC"/>
</g>
<path fill-rule="evenodd" clip-rule="evenodd" d="M17.6101 32.9348L17.8464 33.8381C18.4326 36.0793 20.7234 37.4207 22.9631 36.834C25.2028 36.2474 26.5432 33.955 25.957 31.7137L23.2313 21.2926L23.2299 21.2854C23.2103 21.1811 23.1867 21.0769 23.1588 20.9727C22.8874 19.957 22.2664 19.1289 21.4596 18.5827L21.4592 18.5825L21.4589 18.5823C20.4915 17.922 19.2553 17.6689 18.034 17.9887L17.9809 17.7857C19.2633 17.4498 20.5617 17.7159 21.5771 18.4089C22.4241 18.9823 23.0765 19.8522 23.3614 20.9184C23.3906 21.0277 23.4154 21.1372 23.436 21.2466L26.1598 31.6606C26.7754 34.014 25.3679 36.4211 23.0162 37.0371C20.6645 37.653 18.259 36.2446 17.6435 33.8912L17.5365 33.4821L14.9776 37.9173C13.7621 40.024 11.0702 40.7459 8.96491 39.5295C6.85965 38.3132 6.13834 35.6193 7.35381 33.5126L9.91329 29.0763L9.5397 29.1763C7.19126 29.8047 4.77843 28.409 4.15048 26.0589C3.52253 23.7088 4.91726 21.2942 7.2657 20.6659L17.6375 17.8906C17.7496 17.8514 17.8641 17.8163 17.9809 17.7857L18.034 17.9887C17.9226 18.0179 17.8135 18.0513 17.7068 18.0887L17.6993 18.0913L7.31987 20.8686C5.08332 21.467 3.75504 23.7665 4.35307 26.0047C4.9511 28.2428 7.24898 29.572 9.48553 28.9735L10.3479 28.7428L7.53542 33.6175C6.37786 35.6239 7.06481 38.1894 9.06976 39.3478C11.0747 40.5062 13.6384 39.8187 14.796 37.8124L17.6101 32.9348Z" fill="#BB4CFC"/>
<g filter="url(#filter3_f)">
<path fill-rule="evenodd" clip-rule="evenodd" d="M17.6469 32.6611L17.9478 33.8115C18.5194 35.9967 20.7529 37.3045 22.9365 36.7325C25.1202 36.1606 26.4271 33.9255 25.8555 31.7403L23.1289 21.3156L23.1269 21.3048C23.1078 21.2031 23.0847 21.1014 23.0575 20.9998C22.7929 20.0094 22.1875 19.2022 21.4008 18.6696L21.4003 18.6693L21.3998 18.669C20.4564 18.0251 19.2513 17.7784 18.0606 18.0903C17.9519 18.1187 17.8455 18.1513 17.7414 18.1877L17.7302 18.1916L7.34695 20.97C5.16635 21.5534 3.87129 23.7954 4.45437 25.9776C5.03744 28.1597 7.27784 29.4557 9.45844 28.8722L10.5651 28.5761L7.62623 33.67C6.49762 35.6262 7.16739 38.1275 9.12219 39.2569C11.077 40.3863 13.5766 39.7161 14.7052 37.7599L17.6469 32.6611ZM14.9776 37.9173C13.7621 40.024 11.0702 40.7459 8.96491 39.5295C6.85965 38.3132 6.13834 35.6193 7.35381 33.5126L9.91329 29.0763L9.5397 29.1763C9.52114 29.1812 9.50258 29.1861 9.48402 29.1908C7.15324 29.7826 4.77346 28.3904 4.15048 26.0589C3.52253 23.7088 4.91726 21.2942 7.2657 20.6659L17.6375 17.8906C17.7496 17.8514 17.8641 17.8163 17.9809 17.7857C19.2633 17.4498 20.5617 17.7159 21.5771 18.4089C22.4241 18.9823 23.0765 19.8522 23.3614 20.9184C23.3906 21.0277 23.4154 21.1372 23.436 21.2466L26.1598 31.6606C26.7754 34.014 25.3679 36.4211 23.0162 37.0371C20.6725 37.6509 18.2754 36.2541 17.6498 33.9152C17.6477 33.9072 17.6456 33.8992 17.6435 33.8912L17.5365 33.4821L14.9776 37.9173Z" fill="#BB4CFC"/>
</g>
<path fill-rule="evenodd" clip-rule="evenodd" d="M17.6101 32.9348L17.8464 33.8381C18.4326 36.0793 20.7234 37.4207 22.9631 36.834C25.2028 36.2474 26.5432 33.955 25.957 31.7137L23.2313 21.2926L23.2299 21.2854C23.2103 21.1811 23.1867 21.0769 23.1588 20.9727C22.8874 19.957 22.2664 19.1289 21.4596 18.5827L21.4592 18.5825L21.4589 18.5823C20.4915 17.922 19.2553 17.6689 18.034 17.9887L17.9809 17.7857C19.2633 17.4498 20.5617 17.7159 21.5771 18.4089C22.4241 18.9823 23.0765 19.8522 23.3614 20.9184C23.3906 21.0277 23.4154 21.1372 23.436 21.2466L26.1598 31.6606C26.7754 34.014 25.3679 36.4211 23.0162 37.0371C20.6645 37.653 18.259 36.2446 17.6435 33.8912L17.5365 33.4821L14.9776 37.9173C13.7621 40.024 11.0702 40.7459 8.96491 39.5295C6.85965 38.3132 6.13834 35.6193 7.35381 33.5126L9.91329 29.0763L9.5397 29.1763C7.19126 29.8047 4.77843 28.409 4.15048 26.0589C3.52253 23.7088 4.91726 21.2942 7.2657 20.6659L17.6375 17.8906C17.7496 17.8514 17.8641 17.8163 17.9809 17.7857L18.034 17.9887C17.9226 18.0179 17.8135 18.0513 17.7068 18.0887L17.6993 18.0913L7.31987 20.8686C5.08332 21.467 3.75504 23.7665 4.35307 26.0047C4.9511 28.2428 7.24898 29.572 9.48553 28.9735L10.3479 28.7428L7.53542 33.6175C6.37786 35.6239 7.06481 38.1894 9.06976 39.3478C11.0747 40.5062 13.6384 39.8187 14.796 37.8124L17.6101 32.9348Z" fill="#BB4CFC"/>
<g filter="url(#filter4_f)">
<path fill-rule="evenodd" clip-rule="evenodd" d="M17.6469 32.6611L17.9478 33.8115C18.5194 35.9967 20.7529 37.3045 22.9365 36.7325C25.1202 36.1606 26.4271 33.9255 25.8555 31.7403L23.1289 21.3156L23.1269 21.3048C23.1078 21.2031 23.0847 21.1014 23.0575 20.9998C22.7929 20.0094 22.1875 19.2022 21.4008 18.6696L21.4003 18.6693L21.3998 18.669C20.4564 18.0251 19.2513 17.7784 18.0606 18.0903C17.9519 18.1187 17.8455 18.1513 17.7414 18.1877L17.7302 18.1916L7.34695 20.97C5.16635 21.5534 3.87129 23.7954 4.45437 25.9776C5.03744 28.1597 7.27784 29.4557 9.45844 28.8722L10.5651 28.5761L7.62623 33.67C6.49762 35.6262 7.16739 38.1275 9.12219 39.2569C11.077 40.3863 13.5766 39.7161 14.7052 37.7599L17.6469 32.6611ZM14.9776 37.9173C13.7621 40.024 11.0702 40.7459 8.96491 39.5295C6.85965 38.3132 6.13834 35.6193 7.35381 33.5126L9.91329 29.0763L9.5397 29.1763C9.52114 29.1812 9.50258 29.1861 9.48402 29.1908C7.15324 29.7826 4.77346 28.3904 4.15048 26.0589C3.52253 23.7088 4.91726 21.2942 7.2657 20.6659L17.6375 17.8906C17.7496 17.8514 17.8641 17.8163 17.9809 17.7857C19.2633 17.4498 20.5617 17.7159 21.5771 18.4089C22.4241 18.9823 23.0765 19.8522 23.3614 20.9184C23.3906 21.0277 23.4154 21.1372 23.436 21.2466L26.1598 31.6606C26.7754 34.014 25.3679 36.4211 23.0162 37.0371C20.6725 37.6509 18.2754 36.2541 17.6498 33.9152C17.6477 33.9072 17.6456 33.8992 17.6435 33.8912L17.5365 33.4821L14.9776 37.9173Z" fill="#BB4CFC"/>
</g>
<path fill-rule="evenodd" clip-rule="evenodd" d="M39.7942 17.9802L40.3536 20.1274C40.8665 22.096 42.8708 23.2742 44.8303 22.759C46.7899 22.2437 47.9627 20.2301 47.4498 18.2614L44.7194 7.78134L44.7147 7.75594C44.6975 7.66431 44.6768 7.57252 44.6523 7.48071C44.4148 6.58825 43.8721 5.86164 43.1659 5.38166L43.1648 5.38087L43.1636 5.38009C42.3161 4.79938 41.2352 4.57759 40.1668 4.85855C40.069 4.88425 39.9734 4.91363 39.8799 4.94648L39.8538 4.95564L29.4553 7.74901C27.4985 8.27468 26.3363 10.2945 26.8595 12.2604C27.3828 14.2263 29.3933 15.3939 31.3501 14.8682L33.4343 14.3083L29.9895 20.3027C28.9767 22.065 29.5777 24.3185 31.3319 25.336C33.0861 26.3535 35.3292 25.7497 36.342 23.9873L39.7942 17.9802ZM39.5365 19.9033L36.9776 24.356C35.7621 26.4711 33.0702 27.1957 30.9649 25.9746C28.8597 24.7535 28.1383 22.049 29.3538 19.934L31.9133 15.4802L31.5397 15.5806C31.3401 15.6342 31.14 15.6732 30.9406 15.6981C28.794 15.9663 26.725 14.6097 26.1505 12.4509C25.5225 10.0916 26.9173 7.66751 29.2657 7.03665L39.6376 4.25044C39.7496 4.21107 39.8641 4.17591 39.9809 4.14519C41.2634 3.80797 42.5618 4.07512 43.5772 4.7709C44.4242 5.34659 45.0765 6.2198 45.3614 7.29023C45.3906 7.39995 45.4154 7.50981 45.436 7.61963L48.1598 18.0747C48.7754 20.4373 47.3679 22.8539 45.0162 23.4723C42.8556 24.0405 40.6497 22.8931 39.8281 20.8708C39.7554 20.6919 39.6935 20.5061 39.6435 20.3141L39.5365 19.9033Z" fill="#27D1DD"/>
<g filter="url(#filter5_f)">
<path fill-rule="evenodd" clip-rule="evenodd" d="M39.7942 17.9802L40.3536 20.1274C40.8665 22.096 42.8708 23.2742 44.8303 22.759C46.7899 22.2437 47.9627 20.2301 47.4498 18.2614L44.7194 7.78134L44.7147 7.75594C44.6975 7.66431 44.6768 7.57252 44.6523 7.48071C44.4148 6.58825 43.8721 5.86164 43.1659 5.38166L43.1648 5.38087L43.1636 5.38009C42.3161 4.79938 41.2352 4.57759 40.1668 4.85855C40.069 4.88425 39.9734 4.91363 39.8799 4.94648L39.8538 4.95564L29.4553 7.74901C27.4985 8.27468 26.3363 10.2945 26.8595 12.2604C27.3828 14.2263 29.3933 15.3939 31.3501 14.8682L33.4343 14.3083L29.9895 20.3027C28.9767 22.065 29.5777 24.3185 31.3319 25.336C33.0861 26.3535 35.3292 25.7497 36.342 23.9873L39.7942 17.9802ZM39.5365 19.9033L36.9776 24.356C35.7621 26.4711 33.0702 27.1957 30.9649 25.9746C28.8597 24.7535 28.1383 22.049 29.3538 19.934L31.9133 15.4802L31.5397 15.5806C31.3401 15.6342 31.14 15.6732 30.9406 15.6981C28.794 15.9663 26.725 14.6097 26.1505 12.4509C25.5225 10.0916 26.9173 7.66751 29.2657 7.03665L39.6376 4.25044C39.7496 4.21107 39.8641 4.17591 39.9809 4.14519C41.2634 3.80797 42.5618 4.07512 43.5772 4.7709C44.4242 5.34659 45.0765 6.2198 45.3614 7.29023C45.3906 7.39995 45.4154 7.50981 45.436 7.61963L48.1598 18.0747C48.7754 20.4373 47.3679 22.8539 45.0162 23.4723C42.8556 24.0405 40.6497 22.8931 39.8281 20.8708C39.7554 20.6919 39.6935 20.5061 39.6435 20.3141L39.5365 19.9033Z" fill="#27D1DD"/>
</g>
<path fill-rule="evenodd" clip-rule="evenodd" d="M39.6101 19.3539L39.8464 20.2607C40.4326 22.5108 42.7234 23.8574 44.9631 23.2685C47.2028 22.6796 48.5432 20.3781 47.957 18.128L45.2313 7.66583L45.2299 7.65858C45.2103 7.55396 45.1866 7.44926 45.1588 7.34466C44.8874 6.32507 44.2664 5.49375 43.4597 4.9454L43.4593 4.94518L43.459 4.94496C42.4916 4.28205 41.2553 4.02786 40.034 4.34901C39.9226 4.37829 39.8135 4.4118 39.7068 4.44931L39.6993 4.45192L29.3199 7.24018C27.0833 7.84099 25.755 10.1495 26.3531 12.3965C26.9511 14.6434 29.249 15.9779 31.4855 15.3771L32.3479 15.1454L29.5354 20.0393C28.3779 22.0536 29.0648 24.6292 31.0698 25.7921C33.0747 26.9551 35.6384 26.2649 36.796 24.2507L39.6101 19.3539ZM36.9776 24.356C35.7621 26.4711 33.0702 27.1957 30.9649 25.9746C28.8597 24.7535 28.1383 22.049 29.3538 19.934L31.9133 15.4802L31.5397 15.5806C29.1913 16.2114 26.7784 14.8102 26.1505 12.4509C25.5225 10.0916 26.9173 7.66751 29.2657 7.03665L39.6376 4.25044C39.7496 4.21107 39.8641 4.17591 39.9809 4.14519C41.2634 3.80797 42.5618 4.07512 43.5772 4.7709C44.4242 5.34659 45.0765 6.2198 45.3614 7.29023C45.3906 7.39995 45.4154 7.50981 45.436 7.61963L48.1598 18.0747C48.7754 20.4373 47.3679 22.8539 45.0162 23.4723C42.6645 24.0907 40.259 22.6767 39.6435 20.3141L39.5365 19.9033L36.9776 24.356Z" fill="#27D1DD"/>
<g filter="url(#filter6_f)">
<path fill-rule="evenodd" clip-rule="evenodd" d="M39.6469 19.0791L39.9478 20.2341C40.5194 22.4279 42.7529 23.7408 44.9365 23.1666C47.1202 22.5924 48.4271 20.3485 47.8555 18.1547L45.1289 7.68893L45.1269 7.67805C45.1077 7.57603 45.0847 7.47391 45.0575 7.37187C44.7929 6.37771 44.1876 5.56732 43.4009 5.03265L43.4004 5.03232L43.3999 5.03198C42.4565 4.38552 41.2513 4.13781 40.0606 4.45091C39.9519 4.47949 39.8455 4.51217 39.7414 4.54874L39.7302 4.55266L29.347 7.34195C27.1664 7.92773 25.8713 10.1785 26.4544 12.3693C27.0374 14.56 29.2778 15.8611 31.4584 15.2753L32.5651 14.978L29.6262 20.092C28.4976 22.0559 29.1674 24.5671 31.1222 25.7009C33.077 26.8348 35.5766 26.1619 36.7052 24.198L39.6469 19.0791ZM36.9776 24.356C35.7621 26.4711 33.0702 27.1957 30.9649 25.9746C28.8597 24.7535 28.1383 22.049 29.3538 19.934L31.9133 15.4802L31.5397 15.5806C31.5211 15.5856 31.5026 15.5904 31.484 15.5952C29.1532 16.1892 26.7735 14.7916 26.1505 12.4509C25.5225 10.0916 26.9173 7.66751 29.2657 7.03665L39.6376 4.25044C39.7496 4.21107 39.8641 4.17591 39.9809 4.14519C41.2634 3.80797 42.5618 4.07512 43.5772 4.7709C44.4242 5.34659 45.0765 6.2198 45.3614 7.29023C45.3906 7.39995 45.4154 7.50981 45.436 7.61963L48.1598 18.0747C48.7754 20.4373 47.3679 22.8539 45.0162 23.4723C42.6725 24.0886 40.2754 22.6863 39.6498 20.3381C39.6477 20.3301 39.6456 20.3221 39.6435 20.3141L39.5365 19.9033L36.9776 24.356Z" fill="#27D1DD"/>
</g>
<path fill-rule="evenodd" clip-rule="evenodd" d="M39.7942 17.9802L40.3536 20.1274C40.8665 22.096 42.8708 23.2742 44.8303 22.759C46.7899 22.2437 47.9627 20.2301 47.4498 18.2614L44.7194 7.78134L44.7147 7.75594C44.6975 7.66431 44.6768 7.57252 44.6523 7.48071C44.4148 6.58825 43.8721 5.86164 43.1659 5.38166L43.1648 5.38087L43.1636 5.38009C42.3161 4.79938 41.2352 4.57759 40.1668 4.85855C40.069 4.88425 39.9734 4.91363 39.8799 4.94648L39.8538 4.95564L29.4553 7.74901C27.4985 8.27468 26.3363 10.2945 26.8595 12.2604C27.3828 14.2263 29.3933 15.3939 31.3501 14.8682L33.4343 14.3083L29.9895 20.3027C28.9767 22.065 29.5777 24.3185 31.3319 25.336C33.0861 26.3535 35.3292 25.7497 36.342 23.9873L39.7942 17.9802ZM39.5365 19.9033L36.9776 24.356C35.7621 26.4711 33.0702 27.1957 30.9649 25.9746C28.8597 24.7535 28.1383 22.049 29.3538 19.934L31.9133 15.4802L31.5397 15.5806C31.3401 15.6342 31.14 15.6732 30.9406 15.6981C28.794 15.9663 26.725 14.6097 26.1505 12.4509C25.5225 10.0916 26.9173 7.66751 29.2657 7.03665L39.6376 4.25044C39.7496 4.21107 39.8641 4.17591 39.9809 4.14519C41.2634 3.80797 42.5618 4.07512 43.5772 4.7709C44.4242 5.34659 45.0765 6.2198 45.3614 7.29023C45.3906 7.39995 45.4154 7.50981 45.436 7.61963L48.1598 18.0747C48.7754 20.4373 47.3679 22.8539 45.0162 23.4723C42.8556 24.0405 40.6497 22.8931 39.8281 20.8708C39.7554 20.6919 39.6935 20.5061 39.6435 20.3141L39.5365 19.9033Z" fill="#27D1DD"/>
<g filter="url(#filter7_f)">
<path fill-rule="evenodd" clip-rule="evenodd" d="M39.7942 17.9802L40.3536 20.1274C40.8665 22.096 42.8708 23.2742 44.8303 22.759C46.7899 22.2437 47.9627 20.2301 47.4498 18.2614L44.7194 7.78134L44.7147 7.75594C44.6975 7.66431 44.6768 7.57252 44.6523 7.48071C44.4148 6.58825 43.8721 5.86164 43.1659 5.38166L43.1648 5.38087L43.1636 5.38009C42.3161 4.79938 41.2352 4.57759 40.1668 4.85855C40.069 4.88425 39.9734 4.91363 39.8799 4.94648L39.8538 4.95564L29.4553 7.74901C27.4985 8.27468 26.3363 10.2945 26.8595 12.2604C27.3828 14.2263 29.3933 15.3939 31.3501 14.8682L33.4343 14.3083L29.9895 20.3027C28.9767 22.065 29.5777 24.3185 31.3319 25.336C33.0861 26.3535 35.3292 25.7497 36.342 23.9873L39.7942 17.9802ZM39.5365 19.9033L36.9776 24.356C35.7621 26.4711 33.0702 27.1957 30.9649 25.9746C28.8597 24.7535 28.1383 22.049 29.3538 19.934L31.9133 15.4802L31.5397 15.5806C31.3401 15.6342 31.14 15.6732 30.9406 15.6981C28.794 15.9663 26.725 14.6097 26.1505 12.4509C25.5225 10.0916 26.9173 7.66751 29.2657 7.03665L39.6376 4.25044C39.7496 4.21107 39.8641 4.17591 39.9809 4.14519C41.2634 3.80797 42.5618 4.07512 43.5772 4.7709C44.4242 5.34659 45.0765 6.2198 45.3614 7.29023C45.3906 7.39995 45.4154 7.50981 45.436 7.61963L48.1598 18.0747C48.7754 20.4373 47.3679 22.8539 45.0162 23.4723C42.8556 24.0405 40.6497 22.8931 39.8281 20.8708C39.7554 20.6919 39.6935 20.5061 39.6435 20.3141L39.5365 19.9033Z" fill="#27D1DD"/>
</g>
<path fill-rule="evenodd" clip-rule="evenodd" d="M39.6101 19.3539L39.8464 20.2607C40.4326 22.5108 42.7234 23.8574 44.9631 23.2685C47.2028 22.6796 48.5432 20.3781 47.957 18.128L45.2313 7.66583L45.2299 7.65858C45.2103 7.55396 45.1866 7.44926 45.1588 7.34466C44.8874 6.32507 44.2664 5.49375 43.4597 4.9454L43.4593 4.94518L43.459 4.94496C42.4916 4.28205 41.2553 4.02786 40.034 4.34901C39.9226 4.37829 39.8135 4.4118 39.7068 4.44931L39.6993 4.45192L29.3199 7.24018C27.0833 7.84099 25.755 10.1495 26.3531 12.3965C26.9511 14.6434 29.249 15.9779 31.4855 15.3771L32.3479 15.1454L29.5354 20.0393C28.3779 22.0536 29.0648 24.6292 31.0698 25.7921C33.0747 26.9551 35.6384 26.2649 36.796 24.2507L39.6101 19.3539ZM36.9776 24.356C35.7621 26.4711 33.0702 27.1957 30.9649 25.9746C28.8597 24.7535 28.1383 22.049 29.3538 19.934L31.9133 15.4802L31.5397 15.5806C29.1913 16.2114 26.7784 14.8102 26.1505 12.4509C25.5225 10.0916 26.9173 7.66751 29.2657 7.03665L39.6376 4.25044C39.7496 4.21107 39.8641 4.17591 39.9809 4.14519C41.2634 3.80797 42.5618 4.07512 43.5772 4.7709C44.4242 5.34659 45.0765 6.2198 45.3614 7.29023C45.3906 7.39995 45.4154 7.50981 45.436 7.61963L48.1598 18.0747C48.7754 20.4373 47.3679 22.8539 45.0162 23.4723C42.6645 24.0907 40.259 22.6767 39.6435 20.3141L39.5365 19.9033L36.9776 24.356Z" fill="#27D1DD"/>
<g filter="url(#filter8_f)">
<path fill-rule="evenodd" clip-rule="evenodd" d="M39.6469 19.0791L39.9478 20.2341C40.5194 22.4279 42.7529 23.7408 44.9365 23.1666C47.1202 22.5924 48.4271 20.3485 47.8555 18.1547L45.1289 7.68893L45.1269 7.67805C45.1077 7.57603 45.0847 7.47391 45.0575 7.37187C44.7929 6.37771 44.1876 5.56732 43.4009 5.03265L43.4004 5.03232L43.3999 5.03198C42.4565 4.38552 41.2513 4.13781 40.0606 4.45091C39.9519 4.47949 39.8455 4.51217 39.7414 4.54874L39.7302 4.55266L29.347 7.34195C27.1664 7.92773 25.8713 10.1785 26.4544 12.3693C27.0374 14.56 29.2778 15.8611 31.4584 15.2753L32.5651 14.978L29.6262 20.092C28.4976 22.0559 29.1674 24.5671 31.1222 25.7009C33.077 26.8348 35.5766 26.1619 36.7052 24.198L39.6469 19.0791ZM36.9776 24.356C35.7621 26.4711 33.0702 27.1957 30.9649 25.9746C28.8597 24.7535 28.1383 22.049 29.3538 19.934L31.9133 15.4802L31.5397 15.5806C31.5211 15.5856 31.5026 15.5904 31.484 15.5952C29.1532 16.1892 26.7735 14.7916 26.1505 12.4509C25.5225 10.0916 26.9173 7.66751 29.2657 7.03665L39.6376 4.25044C39.7496 4.21107 39.8641 4.17591 39.9809 4.14519C41.2634 3.80797 42.5618 4.07512 43.5772 4.7709C44.4242 5.34659 45.0765 6.2198 45.3614 7.29023C45.3906 7.39995 45.4154 7.50981 45.436 7.61963L48.1598 18.0747C48.7754 20.4373 47.3679 22.8539 45.0162 23.4723C42.6725 24.0886 40.2754 22.6863 39.6498 20.3381C39.6477 20.3301 39.6456 20.3221 39.6435 20.3141L39.5365 19.9033L36.9776 24.356Z" fill="#27D1DD"/>
</g>
<path fill-rule="evenodd" clip-rule="evenodd" d="M39.6101 19.3539L39.8464 20.2607C40.4326 22.5108 42.7234 23.8574 44.9631 23.2685C47.2028 22.6796 48.5432 20.3781 47.957 18.128L45.2313 7.66583L45.2299 7.65858C45.2103 7.55396 45.1866 7.44926 45.1588 7.34466C44.8874 6.32507 44.2664 5.49375 43.4597 4.9454L43.4593 4.94518L43.459 4.94496C42.4916 4.28205 41.2553 4.02786 40.034 4.34901C39.9226 4.37829 39.8135 4.4118 39.7068 4.44931L39.6993 4.45192L29.3199 7.24018C27.0833 7.84099 25.755 10.1495 26.3531 12.3965C26.9511 14.6434 29.249 15.9779 31.4855 15.3771L32.3479 15.1454L29.5354 20.0393C28.3779 22.0536 29.0648 24.6292 31.0698 25.7921C33.0747 26.9551 35.6384 26.2649 36.796 24.2507L39.6101 19.3539ZM36.9776 24.356C35.7621 26.4711 33.0702 27.1957 30.9649 25.9746C28.8597 24.7535 28.1383 22.049 29.3538 19.934L31.9133 15.4802L31.5397 15.5806C29.1913 16.2114 26.7784 14.8102 26.1505 12.4509C25.5225 10.0916 26.9173 7.66751 29.2657 7.03665L39.6376 4.25044C39.7496 4.21107 39.8641 4.17591 39.9809 4.14519C41.2634 3.80797 42.5618 4.07512 43.5772 4.7709C44.4242 5.34659 45.0765 6.2198 45.3614 7.29023C45.3906 7.39995 45.4154 7.50981 45.436 7.61963L48.1598 18.0747C48.7754 20.4373 47.3679 22.8539 45.0162 23.4723C42.6645 24.0907 40.259 22.6767 39.6435 20.3141L39.5365 19.9033L36.9776 24.356Z" fill="#27D1DD"/>
<g filter="url(#filter9_f)">
<path fill-rule="evenodd" clip-rule="evenodd" d="M39.6469 19.0791L39.9478 20.2341C40.5194 22.4279 42.7529 23.7408 44.9365 23.1666C47.1202 22.5924 48.4271 20.3485 47.8555 18.1547L45.1289 7.68893L45.1269 7.67805C45.1077 7.57603 45.0847 7.47391 45.0575 7.37187C44.7929 6.37771 44.1876 5.56732 43.4009 5.03265L43.4004 5.03232L43.3999 5.03198C42.4565 4.38552 41.2513 4.13781 40.0606 4.45091C39.9519 4.47949 39.8455 4.51217 39.7414 4.54874L39.7302 4.55266L29.347 7.34195C27.1664 7.92773 25.8713 10.1785 26.4544 12.3693C27.0374 14.56 29.2778 15.8611 31.4584 15.2753L32.5651 14.978L29.6262 20.092C28.4976 22.0559 29.1674 24.5671 31.1222 25.7009C33.077 26.8348 35.5766 26.1619 36.7052 24.198L39.6469 19.0791ZM36.9776 24.356C35.7621 26.4711 33.0702 27.1957 30.9649 25.9746C28.8597 24.7535 28.1383 22.049 29.3538 19.934L31.9133 15.4802L31.5397 15.5806C31.5211 15.5856 31.5026 15.5904 31.484 15.5952C29.1532 16.1892 26.7735 14.7916 26.1505 12.4509C25.5225 10.0916 26.9173 7.66751 29.2657 7.03665L39.6376 4.25044C39.7496 4.21107 39.8641 4.17591 39.9809 4.14519C41.2634 3.80797 42.5618 4.07512 43.5772 4.7709C44.4242 5.34659 45.0765 6.2198 45.3614 7.29023C45.3906 7.39995 45.4154 7.50981 45.436 7.61963L48.1598 18.0747C48.7754 20.4373 47.3679 22.8539 45.0162 23.4723C42.6725 24.0886 40.2754 22.6863 39.6498 20.3381C39.6477 20.3301 39.6456 20.3221 39.6435 20.3141L39.5365 19.9033L36.9776 24.356Z" fill="#27D1DD"/>
</g>
<defs>
<filter id="filter0_f" x="0.778321" y="14.4194" width="28.7477" height="28.9226" filterUnits="userSpaceOnUse" color-interpolation-filters="sRGB">
<feFlood flood-opacity="0" result="BackgroundImageFix"/>
<feBlend mode="normal" in="SourceGraphic" in2="BackgroundImageFix" result="shape"/>
<feGaussianBlur stdDeviation="1.61084" result="effect1_foregroundBlur"/>
</filter>
<filter id="filter1_f" x="0.778321" y="14.4194" width="28.7477" height="28.9226" filterUnits="userSpaceOnUse" color-interpolation-filters="sRGB">
<feFlood flood-opacity="0" result="BackgroundImageFix"/>
<feBlend mode="normal" in="SourceGraphic" in2="BackgroundImageFix" result="shape"/>
<feGaussianBlur stdDeviation="1.61084" result="effect1_foregroundBlur"/>
</filter>
<filter id="filter2_f" x="0.778321" y="14.4194" width="28.7477" height="28.9226" filterUnits="userSpaceOnUse" color-interpolation-filters="sRGB">
<feFlood flood-opacity="0" result="BackgroundImageFix"/>
<feBlend mode="normal" in="SourceGraphic" in2="BackgroundImageFix" result="shape"/>
<feGaussianBlur stdDeviation="1.61084" result="effect1_foregroundBlur"/>
</filter>
<filter id="filter3_f" x="0.778321" y="14.4194" width="28.7477" height="28.9226" filterUnits="userSpaceOnUse" color-interpolation-filters="sRGB">
<feFlood flood-opacity="0" result="BackgroundImageFix"/>
<feBlend mode="normal" in="SourceGraphic" in2="BackgroundImageFix" result="shape"/>
<feGaussianBlur stdDeviation="1.61084" result="effect1_foregroundBlur"/>
</filter>
<filter id="filter4_f" x="0.778321" y="14.4194" width="28.7477" height="28.9226" filterUnits="userSpaceOnUse" color-interpolation-filters="sRGB">
<feFlood flood-opacity="0" result="BackgroundImageFix"/>
<feBlend mode="normal" in="SourceGraphic" in2="BackgroundImageFix" result="shape"/>
<feGaussianBlur stdDeviation="1.61084" result="effect1_foregroundBlur"/>
</filter>
<filter id="filter5_f" x="22.7656" y="0.765638" width="28.7731" height="29.0365" filterUnits="userSpaceOnUse" color-interpolation-filters="sRGB">
<feFlood flood-opacity="0" result="BackgroundImageFix"/>
<feBlend mode="normal" in="SourceGraphic" in2="BackgroundImageFix" result="shape"/>
<feGaussianBlur stdDeviation="1.61718" result="effect1_foregroundBlur"/>
</filter>
<filter id="filter6_f" x="22.7656" y="0.765638" width="28.7731" height="29.0365" filterUnits="userSpaceOnUse" color-interpolation-filters="sRGB">
<feFlood flood-opacity="0" result="BackgroundImageFix"/>
<feBlend mode="normal" in="SourceGraphic" in2="BackgroundImageFix" result="shape"/>
<feGaussianBlur stdDeviation="1.61718" result="effect1_foregroundBlur"/>
</filter>
<filter id="filter7_f" x="22.7656" y="0.765638" width="28.7731" height="29.0365" filterUnits="userSpaceOnUse" color-interpolation-filters="sRGB">
<feFlood flood-opacity="0" result="BackgroundImageFix"/>
<feBlend mode="normal" in="SourceGraphic" in2="BackgroundImageFix" result="shape"/>
<feGaussianBlur stdDeviation="1.61718" result="effect1_foregroundBlur"/>
</filter>
<filter id="filter8_f" x="22.7656" y="0.765638" width="28.7731" height="29.0365" filterUnits="userSpaceOnUse" color-interpolation-filters="sRGB">
<feFlood flood-opacity="0" result="BackgroundImageFix"/>
<feBlend mode="normal" in="SourceGraphic" in2="BackgroundImageFix" result="shape"/>
<feGaussianBlur stdDeviation="1.61718" result="effect1_foregroundBlur"/>
</filter>
<filter id="filter9_f" x="22.7656" y="0.765638" width="28.7731" height="29.0365" filterUnits="userSpaceOnUse" color-interpolation-filters="sRGB">
<feFlood flood-opacity="0" result="BackgroundImageFix"/>
<feBlend mode="normal" in="SourceGraphic" in2="BackgroundImageFix" result="shape"/>
<feGaussianBlur stdDeviation="1.61718" result="effect1_foregroundBlur"/>
</filter>
</defs>
</svg>
