<svg width="20" height="21" viewBox="0 0 20 21" fill="none" xmlns="http://www.w3.org/2000/svg">
<path d="M17.455 12.7663L4.77077 19.7217C4.72996 19.7441 4.68884 19.7655 4.64745 19.786C4.20788 20.0042 3.70787 20.1276 3.17752 20.1276C1.42262 20.1276 0 18.7764 0 17.1097V3.02598C0 2.44063 0.175461 1.8942 0.479155 1.43155C1.37826 0.0484407 3.27863 -0.41337 4.77073 0.40483L17.4544 7.36C17.9937 7.61518 18.4627 8.01864 18.7865 8.55132C19.0783 9.03131 19.2154 9.5558 19.2127 10.0727C19.212 10.5835 19.0747 11.1011 18.7864 11.5752C18.4627 12.1077 17.994 12.5111 17.455 12.7663Z" fill="#FD71AF"/>
</svg>
