<svg width="843" height="698" fill="none" xmlns="http://www.w3.org/2000/svg"><path d="M23.5 216a1.5 1.5 0 11-3 0 1.5 1.5 0 013 0zm20 0a1.5 1.5 0 11-3 0 1.5 1.5 0 013 0zm-20 20a1.5 1.5 0 11-3 0 1.5 1.5 0 013 0zm20 0a1.5 1.5 0 11-3 0 1.5 1.5 0 013 0zm-20 20a1.5 1.5 0 11-3 0 1.5 1.5 0 013 0zm20 0a1.5 1.5 0 11-3 0 1.5 1.5 0 013 0zm-20 20a1.5 1.5 0 11-3 0 1.5 1.5 0 013 0zm20 0a1.5 1.5 0 11-3 0 1.5 1.5 0 013 0zm-20 20a1.5 1.5 0 11-3 0 1.5 1.5 0 013 0zm20 0a1.5 1.5 0 11-3 0 1.5 1.5 0 013 0zm-20 20a1.5 1.5 0 11-3 0 1.5 1.5 0 013 0zm20 0a1.5 1.5 0 11-3 0 1.5 1.5 0 013 0zm-20 20a1.5 1.5 0 11-3 0 1.5 1.5 0 013 0zm20 0a1.5 1.5 0 11-3 0 1.5 1.5 0 013 0zm-20 20a1.5 1.5 0 11-3 0 1.5 1.5 0 013 0zm20 0a1.5 1.5 0 11-3 0 1.5 1.5 0 013 0zm-20 20a1.5 1.5 0 11-3 0 1.5 1.5 0 013 0zm20 0a1.5 1.5 0 11-3 0 1.5 1.5 0 013 0zm-20 20a1.5 1.5 0 11-3 0 1.5 1.5 0 013 0zm20 0a1.5 1.5 0 11-3 0 1.5 1.5 0 013 0zm-20 20a1.5 1.5 0 11-3 0 1.5 1.5 0 013 0zm20 0a1.5 1.5 0 11-3 0 1.5 1.5 0 013 0zm-20 20a1.5 1.5 0 11-3 0 1.5 1.5 0 013 0zm20 0a1.5 1.5 0 11-3 0 1.5 1.5 0 013 0zm20-220a1.5 1.5 0 11-3 0 1.5 1.5 0 013 0zm20 0a1.5 1.5 0 11-3 0 1.5 1.5 0 013 0zm20 0a1.5 1.5 0 11-3.001-.001 1.5 1.5 0 013.001.001zm20 0a1.5 1.5 0 11-3.001-.001 1.5 1.5 0 013.001.001zm20 0a1.5 1.5 0 11-3.001-.001 1.5 1.5 0 013.001.001zm20 0a1.5 1.5 0 11-3.001-.001 1.5 1.5 0 013.001.001zm20 0a1.5 1.5 0 11-3.001-.001 1.5 1.5 0 013.001.001zm20 0a1.5 1.5 0 11-3.001-.001 1.5 1.5 0 013.001.001zm20 0a1.5 1.5 0 11-3.001-.001 1.5 1.5 0 013.001.001zm20 0a1.5 1.5 0 11-3.001-.001 1.5 1.5 0 013.001.001zm20 0a1.5 1.5 0 11-3.001-.001 1.5 1.5 0 013.001.001zm20 0a1.5 1.5 0 11-3.001-.001 1.5 1.5 0 013.001.001zm20 0a1.5 1.5 0 11-3.001-.001 1.5 1.5 0 013.001.001zm20 0a1.5 1.5 0 11-3.001-.001 1.5 1.5 0 013.001.001zm20 0a1.5 1.5 0 11-3.001-.001 1.5 1.5 0 013.001.001zm-280 20a1.5 1.5 0 11-3 0 1.5 1.5 0 013 0zm20 0a1.5 1.5 0 11-3 0 1.5 1.5 0 013 0zm20 0a1.5 1.5 0 11-3.001-.001 1.5 1.5 0 013.001.001zm20 0a1.5 1.5 0 11-3.001-.001 1.5 1.5 0 013.001.001zm20 0a1.5 1.5 0 11-3.001-.001 1.5 1.5 0 013.001.001zm20 0a1.5 1.5 0 11-3.001-.001 1.5 1.5 0 013.001.001zm20 0a1.5 1.5 0 11-3.001-.001 1.5 1.5 0 013.001.001zm20 0a1.5 1.5 0 11-3.001-.001 1.5 1.5 0 013.001.001zm20 0a1.5 1.5 0 11-3.001-.001 1.5 1.5 0 013.001.001zm20 0a1.5 1.5 0 11-3.001-.001 1.5 1.5 0 013.001.001zm20 0a1.5 1.5 0 11-3.001-.001 1.5 1.5 0 013.001.001zm20 0a1.5 1.5 0 11-3.001-.001 1.5 1.5 0 013.001.001zm20 0a1.5 1.5 0 11-3.001-.001 1.5 1.5 0 013.001.001zm20 0a1.5 1.5 0 11-3.001-.001 1.5 1.5 0 013.001.001zm20 0a1.5 1.5 0 11-3.001-.001 1.5 1.5 0 013.001.001zm-280 20a1.5 1.5 0 11-3 0 1.5 1.5 0 013 0zm20 0a1.5 1.5 0 11-3 0 1.5 1.5 0 013 0zm20 0a1.5 1.5 0 11-3.001-.001 1.5 1.5 0 013.001.001zm20 0a1.5 1.5 0 11-3.001-.001 1.5 1.5 0 013.001.001zm20 0a1.5 1.5 0 11-3.001-.001 1.5 1.5 0 013.001.001zm20 0a1.5 1.5 0 11-3.001-.001 1.5 1.5 0 013.001.001zm20 0a1.5 1.5 0 11-3.001-.001 1.5 1.5 0 013.001.001zm20 0a1.5 1.5 0 11-3.001-.001 1.5 1.5 0 013.001.001zm20 0a1.5 1.5 0 11-3.001-.001 1.5 1.5 0 013.001.001zm20 0a1.5 1.5 0 11-3.001-.001 1.5 1.5 0 013.001.001zm20 0a1.5 1.5 0 11-3.001-.001 1.5 1.5 0 013.001.001zm20 0a1.5 1.5 0 11-3.001-.001 1.5 1.5 0 013.001.001zm20 0a1.5 1.5 0 11-3.001-.001 1.5 1.5 0 013.001.001zm20 0a1.5 1.5 0 11-3.001-.001 1.5 1.5 0 013.001.001zm20 0a1.5 1.5 0 11-3.001-.001 1.5 1.5 0 013.001.001zm-280 20a1.5 1.5 0 11-3 0 1.5 1.5 0 013 0zm20 0a1.5 1.5 0 11-3 0 1.5 1.5 0 013 0zm20 0a1.5 1.5 0 11-3.001-.001 1.5 1.5 0 013.001.001zm20 0a1.5 1.5 0 11-3.001-.001 1.5 1.5 0 013.001.001zm20 0a1.5 1.5 0 11-3.001-.001 1.5 1.5 0 013.001.001zm20 0a1.5 1.5 0 11-3.001-.001 1.5 1.5 0 013.001.001zm20 0a1.5 1.5 0 11-3.001-.001 1.5 1.5 0 013.001.001zm20 0a1.5 1.5 0 11-3.001-.001 1.5 1.5 0 013.001.001zm20 0a1.5 1.5 0 11-3.001-.001 1.5 1.5 0 013.001.001zm20 0a1.5 1.5 0 11-3.001-.001 1.5 1.5 0 013.001.001zm20 0a1.5 1.5 0 11-3.001-.001 1.5 1.5 0 013.001.001zm20 0a1.5 1.5 0 11-3.001-.001 1.5 1.5 0 013.001.001zm20 0a1.5 1.5 0 11-3.001-.001 1.5 1.5 0 013.001.001zm20 0a1.5 1.5 0 11-3.001-.001 1.5 1.5 0 013.001.001zm20 0a1.5 1.5 0 11-3.001-.001 1.5 1.5 0 013.001.001zm-280 20a1.5 1.5 0 11-3 0 1.5 1.5 0 013 0zm20 0a1.5 1.5 0 11-3 0 1.5 1.5 0 013 0zm20 0a1.5 1.5 0 11-3.001-.001 1.5 1.5 0 013.001.001zm20 0a1.5 1.5 0 11-3.001-.001 1.5 1.5 0 013.001.001zm20 0a1.5 1.5 0 11-3.001-.001 1.5 1.5 0 013.001.001zm20 0a1.5 1.5 0 11-3.001-.001 1.5 1.5 0 013.001.001zm20 0a1.5 1.5 0 11-3.001-.001 1.5 1.5 0 013.001.001zm20 0a1.5 1.5 0 11-3.001-.001 1.5 1.5 0 013.001.001zm20 0a1.5 1.5 0 11-3.001-.001 1.5 1.5 0 013.001.001zm20 0a1.5 1.5 0 11-3.001-.001 1.5 1.5 0 013.001.001zm20 0a1.5 1.5 0 11-3.001-.001 1.5 1.5 0 013.001.001zm20 0a1.5 1.5 0 11-3.001-.001 1.5 1.5 0 013.001.001zm20 0a1.5 1.5 0 11-3.001-.001 1.5 1.5 0 013.001.001zm20 0a1.5 1.5 0 11-3.001-.001 1.5 1.5 0 013.001.001zm20 0a1.5 1.5 0 11-3.001-.001 1.5 1.5 0 013.001.001zm-280 20a1.5 1.5 0 11-3 0 1.5 1.5 0 013 0zm20 0a1.5 1.5 0 11-3 0 1.5 1.5 0 013 0zm20 0a1.5 1.5 0 11-3.001-.001 1.5 1.5 0 013.001.001zm20 0a1.5 1.5 0 11-3.001-.001 1.5 1.5 0 013.001.001zm20 0a1.5 1.5 0 11-3.001-.001 1.5 1.5 0 013.001.001zm20 0a1.5 1.5 0 11-3.001-.001 1.5 1.5 0 013.001.001zm20 0a1.5 1.5 0 11-3.001-.001 1.5 1.5 0 013.001.001zm20 0a1.5 1.5 0 11-3.001-.001 1.5 1.5 0 013.001.001zm20 0a1.5 1.5 0 11-3.001-.001 1.5 1.5 0 013.001.001zm20 0a1.5 1.5 0 11-3.001-.001 1.5 1.5 0 013.001.001zm20 0a1.5 1.5 0 11-3.001-.001 1.5 1.5 0 013.001.001zm20 0a1.5 1.5 0 11-3.001-.001 1.5 1.5 0 013.001.001zm20 0a1.5 1.5 0 11-3.001-.001 1.5 1.5 0 013.001.001zm20 0a1.5 1.5 0 11-3.001-.001 1.5 1.5 0 013.001.001zm20 0a1.5 1.5 0 11-3.001-.001 1.5 1.5 0 013.001.001zm-280 20a1.5 1.5 0 11-3 0 1.5 1.5 0 013 0zm20 0a1.5 1.5 0 11-3 0 1.5 1.5 0 013 0zm20 0a1.5 1.5 0 11-3.001-.001 1.5 1.5 0 013.001.001zm20 0a1.5 1.5 0 11-3.001-.001 1.5 1.5 0 013.001.001zm20 0a1.5 1.5 0 11-3.001-.001 1.5 1.5 0 013.001.001zm20 0a1.5 1.5 0 11-3.001-.001 1.5 1.5 0 013.001.001zm20 0a1.5 1.5 0 11-3.001-.001 1.5 1.5 0 013.001.001zm20 0a1.5 1.5 0 11-3.001-.001 1.5 1.5 0 013.001.001zm20 0a1.5 1.5 0 11-3.001-.001 1.5 1.5 0 013.001.001zm20 0a1.5 1.5 0 11-3.001-.001 1.5 1.5 0 013.001.001zm20 0a1.5 1.5 0 11-3.001-.001 1.5 1.5 0 013.001.001zm20 0a1.5 1.5 0 11-3.001-.001 1.5 1.5 0 013.001.001zm20 0a1.5 1.5 0 11-3.001-.001 1.5 1.5 0 013.001.001zm20 0a1.5 1.5 0 11-3.001-.001 1.5 1.5 0 013.001.001zm20 0a1.5 1.5 0 11-3.001-.001 1.5 1.5 0 013.001.001zm-280 20a1.5 1.5 0 11-3 0 1.5 1.5 0 013 0zm20 0a1.5 1.5 0 11-3 0 1.5 1.5 0 013 0zm20 0a1.5 1.5 0 11-3.001-.001 1.5 1.5 0 013.001.001zm20 0a1.5 1.5 0 11-3.001-.001 1.5 1.5 0 013.001.001zm20 0a1.5 1.5 0 11-3.001-.001 1.5 1.5 0 013.001.001zm20 0a1.5 1.5 0 11-3.001-.001 1.5 1.5 0 013.001.001zm20 0a1.5 1.5 0 11-3.001-.001 1.5 1.5 0 013.001.001zm20 0a1.5 1.5 0 11-3.001-.001 1.5 1.5 0 013.001.001zm20 0a1.5 1.5 0 11-3.001-.001 1.5 1.5 0 013.001.001zm20 0a1.5 1.5 0 11-3.001-.001 1.5 1.5 0 013.001.001zm20 0a1.5 1.5 0 11-3.001-.001 1.5 1.5 0 013.001.001zm20 0a1.5 1.5 0 11-3.001-.001 1.5 1.5 0 013.001.001zm20 0a1.5 1.5 0 11-3.001-.001 1.5 1.5 0 013.001.001zm20 0a1.5 1.5 0 11-3.001-.001 1.5 1.5 0 013.001.001zm20 0a1.5 1.5 0 11-3.001-.001 1.5 1.5 0 013.001.001zm-280 20a1.5 1.5 0 11-3 0 1.5 1.5 0 013 0zm20 0a1.5 1.5 0 11-3 0 1.5 1.5 0 013 0zm20 0a1.5 1.5 0 11-3.001-.001 1.5 1.5 0 013.001.001zm20 0a1.5 1.5 0 11-3.001-.001 1.5 1.5 0 013.001.001zm20 0a1.5 1.5 0 11-3.001-.001 1.5 1.5 0 013.001.001zm20 0a1.5 1.5 0 11-3.001-.001 1.5 1.5 0 013.001.001zm20 0a1.5 1.5 0 11-3.001-.001 1.5 1.5 0 013.001.001zm20 0a1.5 1.5 0 11-3.001-.001 1.5 1.5 0 013.001.001zm20 0a1.5 1.5 0 11-3.001-.001 1.5 1.5 0 013.001.001zm20 0a1.5 1.5 0 11-3.001-.001 1.5 1.5 0 013.001.001zm20 0a1.5 1.5 0 11-3.001-.001 1.5 1.5 0 013.001.001zm20 0a1.5 1.5 0 11-3.001-.001 1.5 1.5 0 013.001.001zm20 0a1.5 1.5 0 11-3.001-.001 1.5 1.5 0 013.001.001zm20 0a1.5 1.5 0 11-3.001-.001 1.5 1.5 0 013.001.001zm20 0a1.5 1.5 0 11-3.001-.001 1.5 1.5 0 013.001.001zm-280 20a1.5 1.5 0 11-3 0 1.5 1.5 0 013 0zm20 0a1.5 1.5 0 11-3 0 1.5 1.5 0 013 0zm20 0a1.5 1.5 0 11-3.001-.001 1.5 1.5 0 013.001.001zm20 0a1.5 1.5 0 11-3.001-.001 1.5 1.5 0 013.001.001zm20 0a1.5 1.5 0 11-3.001-.001 1.5 1.5 0 013.001.001zm20 0a1.5 1.5 0 11-3.001-.001 1.5 1.5 0 013.001.001zm20 0a1.5 1.5 0 11-3.001-.001 1.5 1.5 0 013.001.001zm20 0a1.5 1.5 0 11-3.001-.001 1.5 1.5 0 013.001.001zm20 0a1.5 1.5 0 11-3.001-.001 1.5 1.5 0 013.001.001zm20 0a1.5 1.5 0 11-3.001-.001 1.5 1.5 0 013.001.001zm20 0a1.5 1.5 0 11-3.001-.001 1.5 1.5 0 013.001.001zm20 0a1.5 1.5 0 11-3.001-.001 1.5 1.5 0 013.001.001zm20 0a1.5 1.5 0 11-3.001-.001 1.5 1.5 0 013.001.001zm20 0a1.5 1.5 0 11-3.001-.001 1.5 1.5 0 013.001.001zm20 0a1.5 1.5 0 11-3.001-.001 1.5 1.5 0 013.001.001zm-280 20a1.5 1.5 0 11-3 0 1.5 1.5 0 013 0zm20 0a1.5 1.5 0 11-3 0 1.5 1.5 0 013 0zm20 0a1.5 1.5 0 11-3.001-.001 1.5 1.5 0 013.001.001zm20 0a1.5 1.5 0 11-3.001-.001 1.5 1.5 0 013.001.001zm20 0a1.5 1.5 0 11-3.001-.001 1.5 1.5 0 013.001.001zm20 0a1.5 1.5 0 11-3.001-.001 1.5 1.5 0 013.001.001zm20 0a1.5 1.5 0 11-3.001-.001 1.5 1.5 0 013.001.001zm20 0a1.5 1.5 0 11-3.001-.001 1.5 1.5 0 013.001.001zm20 0a1.5 1.5 0 11-3.001-.001 1.5 1.5 0 013.001.001zm20 0a1.5 1.5 0 11-3.001-.001 1.5 1.5 0 013.001.001zm20 0a1.5 1.5 0 11-3.001-.001 1.5 1.5 0 013.001.001zm20 0a1.5 1.5 0 11-3.001-.001 1.5 1.5 0 013.001.001zm20 0a1.5 1.5 0 11-3.001-.001 1.5 1.5 0 013.001.001zm20 0a1.5 1.5 0 11-3.001-.001 1.5 1.5 0 013.001.001zm20 0a1.5 1.5 0 11-3.001-.001 1.5 1.5 0 013.001.001zm-280 20a1.5 1.5 0 11-3 0 1.5 1.5 0 013 0zm20 0a1.5 1.5 0 11-3 0 1.5 1.5 0 013 0zm20 0a1.5 1.5 0 11-3.001-.001 1.5 1.5 0 013.001.001zm20 0a1.5 1.5 0 11-3.001-.001 1.5 1.5 0 013.001.001zm20 0a1.5 1.5 0 11-3.001-.001 1.5 1.5 0 013.001.001zm20 0a1.5 1.5 0 11-3.001-.001 1.5 1.5 0 013.001.001zm20 0a1.5 1.5 0 11-3.001-.001 1.5 1.5 0 013.001.001zm20 0a1.5 1.5 0 11-3.001-.001 1.5 1.5 0 013.001.001zm20 0a1.5 1.5 0 11-3.001-.001 1.5 1.5 0 013.001.001zm20 0a1.5 1.5 0 11-3.001-.001 1.5 1.5 0 013.001.001zm20 0a1.5 1.5 0 11-3.001-.001 1.5 1.5 0 013.001.001zm20 0a1.5 1.5 0 11-3.001-.001 1.5 1.5 0 013.001.001zm20 0a1.5 1.5 0 11-3.001-.001 1.5 1.5 0 013.001.001zm20 0a1.5 1.5 0 11-3.001-.001 1.5 1.5 0 013.001.001zm20 0a1.5 1.5 0 11-3.001-.001 1.5 1.5 0 013.001.001zm20-220a1.5 1.5 0 11-3.001-.001 1.5 1.5 0 013.001.001zm20 0a1.5 1.5 0 11-3.001-.001 1.5 1.5 0 013.001.001zm20 0a1.5 1.5 0 11-3.001-.001 1.5 1.5 0 013.001.001zm20 0a1.5 1.5 0 11-3.001-.001 1.5 1.5 0 013.001.001zm20 0a1.5 1.5 0 11-3.001-.001 1.5 1.5 0 013.001.001zm20 0a1.5 1.5 0 11-3.001-.001 1.5 1.5 0 013.001.001zm20 0a1.5 1.5 0 11-3.001-.001 1.5 1.5 0 013.001.001zm20 0a1.5 1.5 0 11-3.001-.001 1.5 1.5 0 013.001.001zm20 0a1.5 1.5 0 11-3.001-.001 1.5 1.5 0 013.001.001zm20 0a1.5 1.5 0 11-3.001-.001 1.5 1.5 0 013.001.001zm20 0a1.5 1.5 0 11-3.001-.001 1.5 1.5 0 013.001.001zm20 0a1.5 1.5 0 11-3.001-.001 1.5 1.5 0 013.001.001zm20 0a1.5 1.5 0 11-3.001-.001 1.5 1.5 0 013.001.001zm20 0a1.5 1.5 0 11-3.001-.001 1.5 1.5 0 013.001.001zm20 0a1.5 1.5 0 11-3.001-.001 1.5 1.5 0 013.001.001zm-280 20a1.5 1.5 0 11-3.001-.001 1.5 1.5 0 013.001.001zm20 0a1.5 1.5 0 11-3.001-.001 1.5 1.5 0 013.001.001zm20 0a1.5 1.5 0 11-3.001-.001 1.5 1.5 0 013.001.001zm20 0a1.5 1.5 0 11-3.001-.001 1.5 1.5 0 013.001.001zm20 0a1.5 1.5 0 11-3.001-.001 1.5 1.5 0 013.001.001zm20 0a1.5 1.5 0 11-3.001-.001 1.5 1.5 0 013.001.001zm20 0a1.5 1.5 0 11-3.001-.001 1.5 1.5 0 013.001.001zm20 0a1.5 1.5 0 11-3.001-.001 1.5 1.5 0 013.001.001zm20 0a1.5 1.5 0 11-3.001-.001 1.5 1.5 0 013.001.001zm20 0a1.5 1.5 0 11-3.001-.001 1.5 1.5 0 013.001.001zm20 0a1.5 1.5 0 11-3.001-.001 1.5 1.5 0 013.001.001zm20 0a1.5 1.5 0 11-3.001-.001 1.5 1.5 0 013.001.001zm20 0a1.5 1.5 0 11-3.001-.001 1.5 1.5 0 013.001.001zm20 0a1.5 1.5 0 11-3.001-.001 1.5 1.5 0 013.001.001zm20 0a1.5 1.5 0 11-3.001-.001 1.5 1.5 0 013.001.001zm-280 20a1.5 1.5 0 11-3.001-.001 1.5 1.5 0 013.001.001zm20 0a1.5 1.5 0 11-3.001-.001 1.5 1.5 0 013.001.001zm20 0a1.5 1.5 0 11-3.001-.001 1.5 1.5 0 013.001.001zm20 0a1.5 1.5 0 11-3.001-.001 1.5 1.5 0 013.001.001zm20 0a1.5 1.5 0 11-3.001-.001 1.5 1.5 0 013.001.001zm20 0a1.5 1.5 0 11-3.001-.001 1.5 1.5 0 013.001.001zm20 0a1.5 1.5 0 11-3.001-.001 1.5 1.5 0 013.001.001zm20 0a1.5 1.5 0 11-3.001-.001 1.5 1.5 0 013.001.001zm20 0a1.5 1.5 0 11-3.001-.001 1.5 1.5 0 013.001.001zm20 0a1.5 1.5 0 11-3.001-.001 1.5 1.5 0 013.001.001zm20 0a1.5 1.5 0 11-3.001-.001 1.5 1.5 0 013.001.001zm20 0a1.5 1.5 0 11-3.001-.001 1.5 1.5 0 013.001.001zm20 0a1.5 1.5 0 11-3.001-.001 1.5 1.5 0 013.001.001zm20 0a1.5 1.5 0 11-3.001-.001 1.5 1.5 0 013.001.001zm20 0a1.5 1.5 0 11-3.001-.001 1.5 1.5 0 013.001.001zm-280 20a1.5 1.5 0 11-3.001-.001 1.5 1.5 0 013.001.001zm20 0a1.5 1.5 0 11-3.001-.001 1.5 1.5 0 013.001.001zm20 0a1.5 1.5 0 11-3.001-.001 1.5 1.5 0 013.001.001zm20 0a1.5 1.5 0 11-3.001-.001 1.5 1.5 0 013.001.001zm20 0a1.5 1.5 0 11-3.001-.001 1.5 1.5 0 013.001.001zm20 0a1.5 1.5 0 11-3.001-.001 1.5 1.5 0 013.001.001zm20 0a1.5 1.5 0 11-3.001-.001 1.5 1.5 0 013.001.001zm20 0a1.5 1.5 0 11-3.001-.001 1.5 1.5 0 013.001.001zm20 0a1.5 1.5 0 11-3.001-.001 1.5 1.5 0 013.001.001zm20 0a1.5 1.5 0 11-3.001-.001 1.5 1.5 0 013.001.001zm20 0a1.5 1.5 0 11-3.001-.001 1.5 1.5 0 013.001.001zm20 0a1.5 1.5 0 11-3.001-.001 1.5 1.5 0 013.001.001zm20 0a1.5 1.5 0 11-3.001-.001 1.5 1.5 0 013.001.001zm20 0a1.5 1.5 0 11-3.001-.001 1.5 1.5 0 013.001.001zm20 0a1.5 1.5 0 11-3.001-.001 1.5 1.5 0 013.001.001zm-280 20a1.5 1.5 0 11-3.001-.001 1.5 1.5 0 013.001.001zm20 0a1.5 1.5 0 11-3.001-.001 1.5 1.5 0 013.001.001zm20 0a1.5 1.5 0 11-3.001-.001 1.5 1.5 0 013.001.001zm20 0a1.5 1.5 0 11-3.001-.001 1.5 1.5 0 013.001.001zm20 0a1.5 1.5 0 11-3.001-.001 1.5 1.5 0 013.001.001zm20 0a1.5 1.5 0 11-3.001-.001 1.5 1.5 0 013.001.001zm20 0a1.5 1.5 0 11-3.001-.001 1.5 1.5 0 013.001.001zm20 0a1.5 1.5 0 11-3.001-.001 1.5 1.5 0 013.001.001zm20 0a1.5 1.5 0 11-3.001-.001 1.5 1.5 0 013.001.001zm20 0a1.5 1.5 0 11-3.001-.001 1.5 1.5 0 013.001.001zm20 0a1.5 1.5 0 11-3.001-.001 1.5 1.5 0 013.001.001zm20 0a1.5 1.5 0 11-3.001-.001 1.5 1.5 0 013.001.001zm20 0a1.5 1.5 0 11-3.001-.001 1.5 1.5 0 013.001.001zm20 0a1.5 1.5 0 11-3.001-.001 1.5 1.5 0 013.001.001zm20 0a1.5 1.5 0 11-3.001-.001 1.5 1.5 0 013.001.001zm-280 20a1.5 1.5 0 11-3.001-.001 1.5 1.5 0 013.001.001zm20 0a1.5 1.5 0 11-3.001-.001 1.5 1.5 0 013.001.001zm20 0a1.5 1.5 0 11-3.001-.001 1.5 1.5 0 013.001.001zm20 0a1.5 1.5 0 11-3.001-.001 1.5 1.5 0 013.001.001zm20 0a1.5 1.5 0 11-3.001-.001 1.5 1.5 0 013.001.001zm20 0a1.5 1.5 0 11-3.001-.001 1.5 1.5 0 013.001.001zm20 0a1.5 1.5 0 11-3.001-.001 1.5 1.5 0 013.001.001zm20 0a1.5 1.5 0 11-3.001-.001 1.5 1.5 0 013.001.001zm20 0a1.5 1.5 0 11-3.001-.001 1.5 1.5 0 013.001.001zm20 0a1.5 1.5 0 11-3.001-.001 1.5 1.5 0 013.001.001zm20 0a1.5 1.5 0 11-3.001-.001 1.5 1.5 0 013.001.001zm20 0a1.5 1.5 0 11-3.001-.001 1.5 1.5 0 013.001.001zm20 0a1.5 1.5 0 11-3.001-.001 1.5 1.5 0 013.001.001zm20 0a1.5 1.5 0 11-3.001-.001 1.5 1.5 0 013.001.001zm20 0a1.5 1.5 0 11-3.001-.001 1.5 1.5 0 013.001.001zm-280 20a1.5 1.5 0 11-3.001-.001 1.5 1.5 0 013.001.001zm20 0a1.5 1.5 0 11-3.001-.001 1.5 1.5 0 013.001.001zm20 0a1.5 1.5 0 11-3.001-.001 1.5 1.5 0 013.001.001zm20 0a1.5 1.5 0 11-3.001-.001 1.5 1.5 0 013.001.001zm20 0a1.5 1.5 0 11-3.001-.001 1.5 1.5 0 013.001.001zm20 0a1.5 1.5 0 11-3.001-.001 1.5 1.5 0 013.001.001zm20 0a1.5 1.5 0 11-3.001-.001 1.5 1.5 0 013.001.001zm20 0a1.5 1.5 0 11-3.001-.001 1.5 1.5 0 013.001.001zm20 0a1.5 1.5 0 11-3.001-.001 1.5 1.5 0 013.001.001zm20 0a1.5 1.5 0 11-3.001-.001 1.5 1.5 0 013.001.001zm20 0a1.5 1.5 0 11-3.001-.001 1.5 1.5 0 013.001.001zm20 0a1.5 1.5 0 11-3.001-.001 1.5 1.5 0 013.001.001zm20 0a1.5 1.5 0 11-3.001-.001 1.5 1.5 0 013.001.001zm20 0a1.5 1.5 0 11-3.001-.001 1.5 1.5 0 013.001.001zm20 0a1.5 1.5 0 11-3.001-.001 1.5 1.5 0 013.001.001zm-280 20a1.5 1.5 0 11-3.001-.001 1.5 1.5 0 013.001.001zm20 0a1.5 1.5 0 11-3.001-.001 1.5 1.5 0 013.001.001zm20 0a1.5 1.5 0 11-3.001-.001 1.5 1.5 0 013.001.001zm20 0a1.5 1.5 0 11-3.001-.001 1.5 1.5 0 013.001.001zm20 0a1.5 1.5 0 11-3.001-.001 1.5 1.5 0 013.001.001zm20 0a1.5 1.5 0 11-3.001-.001 1.5 1.5 0 013.001.001zm20 0a1.5 1.5 0 11-3.001-.001 1.5 1.5 0 013.001.001zm20 0a1.5 1.5 0 11-3.001-.001 1.5 1.5 0 013.001.001zm20 0a1.5 1.5 0 11-3.001-.001 1.5 1.5 0 013.001.001zm20 0a1.5 1.5 0 11-3.001-.001 1.5 1.5 0 013.001.001zm20 0a1.5 1.5 0 11-3.001-.001 1.5 1.5 0 013.001.001zm20 0a1.5 1.5 0 11-3.001-.001 1.5 1.5 0 013.001.001zm20 0a1.5 1.5 0 11-3.001-.001 1.5 1.5 0 013.001.001zm20 0a1.5 1.5 0 11-3.001-.001 1.5 1.5 0 013.001.001zm20 0a1.5 1.5 0 11-3.001-.001 1.5 1.5 0 013.001.001zm-280 20a1.5 1.5 0 11-3.001-.001 1.5 1.5 0 013.001.001zm20 0a1.5 1.5 0 11-3.001-.001 1.5 1.5 0 013.001.001zm20 0a1.5 1.5 0 11-3.001-.001 1.5 1.5 0 013.001.001zm20 0a1.5 1.5 0 11-3.001-.001 1.5 1.5 0 013.001.001zm20 0a1.5 1.5 0 11-3.001-.001 1.5 1.5 0 013.001.001zm20 0a1.5 1.5 0 11-3.001-.001 1.5 1.5 0 013.001.001zm20 0a1.5 1.5 0 11-3.001-.001 1.5 1.5 0 013.001.001zm20 0a1.5 1.5 0 11-3.001-.001 1.5 1.5 0 013.001.001zm20 0a1.5 1.5 0 11-3.001-.001 1.5 1.5 0 013.001.001zm20 0a1.5 1.5 0 11-3.001-.001 1.5 1.5 0 013.001.001zm20 0a1.5 1.5 0 11-3.001-.001 1.5 1.5 0 013.001.001zm20 0a1.5 1.5 0 11-3.001-.001 1.5 1.5 0 013.001.001zm20 0a1.5 1.5 0 11-3.001-.001 1.5 1.5 0 013.001.001zm20 0a1.5 1.5 0 11-3.001-.001 1.5 1.5 0 013.001.001zm20 0a1.5 1.5 0 11-3.001-.001 1.5 1.5 0 013.001.001zm-280 20a1.5 1.5 0 11-3.001-.001 1.5 1.5 0 013.001.001zm20 0a1.5 1.5 0 11-3.001-.001 1.5 1.5 0 013.001.001zm20 0a1.5 1.5 0 11-3.001-.001 1.5 1.5 0 013.001.001zm20 0a1.5 1.5 0 11-3.001-.001 1.5 1.5 0 013.001.001zm20 0a1.5 1.5 0 11-3.001-.001 1.5 1.5 0 013.001.001zm20 0a1.5 1.5 0 11-3.001-.001 1.5 1.5 0 013.001.001zm20 0a1.5 1.5 0 11-3.001-.001 1.5 1.5 0 013.001.001zm20 0a1.5 1.5 0 11-3.001-.001 1.5 1.5 0 013.001.001zm20 0a1.5 1.5 0 11-3.001-.001 1.5 1.5 0 013.001.001zm20 0a1.5 1.5 0 11-3.001-.001 1.5 1.5 0 013.001.001zm20 0a1.5 1.5 0 11-3.001-.001 1.5 1.5 0 013.001.001zm20 0a1.5 1.5 0 11-3.001-.001 1.5 1.5 0 013.001.001zm20 0a1.5 1.5 0 11-3.001-.001 1.5 1.5 0 013.001.001zm20 0a1.5 1.5 0 11-3.001-.001 1.5 1.5 0 013.001.001zm20 0a1.5 1.5 0 11-3.001-.001 1.5 1.5 0 013.001.001zm-280 20a1.5 1.5 0 11-3.001-.001 1.5 1.5 0 013.001.001zm20 0a1.5 1.5 0 11-3.001-.001 1.5 1.5 0 013.001.001zm20 0a1.5 1.5 0 11-3.001-.001 1.5 1.5 0 013.001.001zm20 0a1.5 1.5 0 11-3.001-.001 1.5 1.5 0 013.001.001zm20 0a1.5 1.5 0 11-3.001-.001 1.5 1.5 0 013.001.001zm20 0a1.5 1.5 0 11-3.001-.001 1.5 1.5 0 013.001.001zm20 0a1.5 1.5 0 11-3.001-.001 1.5 1.5 0 013.001.001zm20 0a1.5 1.5 0 11-3.001-.001 1.5 1.5 0 013.001.001zm20 0a1.5 1.5 0 11-3.001-.001 1.5 1.5 0 013.001.001zm20 0a1.5 1.5 0 11-3.001-.001 1.5 1.5 0 013.001.001zm20 0a1.5 1.5 0 11-3.001-.001 1.5 1.5 0 013.001.001zm20 0a1.5 1.5 0 11-3.001-.001 1.5 1.5 0 013.001.001zm20 0a1.5 1.5 0 11-3.001-.001 1.5 1.5 0 013.001.001zm20 0a1.5 1.5 0 11-3.001-.001 1.5 1.5 0 013.001.001zm20 0a1.5 1.5 0 11-3.001-.001 1.5 1.5 0 013.001.001zm-280 20a1.5 1.5 0 11-3.001-.001 1.5 1.5 0 013.001.001zm20 0a1.5 1.5 0 11-3.001-.001 1.5 1.5 0 013.001.001zm20 0a1.5 1.5 0 11-3.001-.001 1.5 1.5 0 013.001.001zm20 0a1.5 1.5 0 11-3.001-.001 1.5 1.5 0 013.001.001zm20 0a1.5 1.5 0 11-3.001-.001 1.5 1.5 0 013.001.001zm20 0a1.5 1.5 0 11-3.001-.001 1.5 1.5 0 013.001.001zm20 0a1.5 1.5 0 11-3.001-.001 1.5 1.5 0 013.001.001zm20 0a1.5 1.5 0 11-3.001-.001 1.5 1.5 0 013.001.001zm20 0a1.5 1.5 0 11-3.001-.001 1.5 1.5 0 013.001.001zm20 0a1.5 1.5 0 11-3.001-.001 1.5 1.5 0 013.001.001zm20 0a1.5 1.5 0 11-3.001-.001 1.5 1.5 0 013.001.001zm20 0a1.5 1.5 0 11-3.001-.001 1.5 1.5 0 013.001.001zm20 0a1.5 1.5 0 11-3.001-.001 1.5 1.5 0 013.001.001zm20 0a1.5 1.5 0 11-3.001-.001 1.5 1.5 0 013.001.001zm20 0a1.5 1.5 0 11-3.001-.001 1.5 1.5 0 013.001.001zm20-220a1.5 1.5 0 11-3.001-.001 1.5 1.5 0 013.001.001zm20 0a1.5 1.5 0 11-3.001-.001 1.5 1.5 0 013.001.001zm20 0a1.5 1.5 0 11-3.001-.001 1.5 1.5 0 013.001.001zm20 0a1.5 1.5 0 11-3.001-.001 1.5 1.5 0 013.001.001zm20 0a1.5 1.5 0 11-3.001-.001 1.5 1.5 0 013.001.001zm20 0a1.5 1.5 0 11-3.001-.001 1.5 1.5 0 013.001.001zm20 0a1.5 1.5 0 11-3.001-.001 1.5 1.5 0 013.001.001zm20 0a1.5 1.5 0 11-3.001-.001 1.5 1.5 0 013.001.001zm20 0a1.5 1.5 0 11-3.001-.001 1.5 1.5 0 013.001.001zm-160 20a1.5 1.5 0 11-3.001-.001 1.5 1.5 0 013.001.001zm20 0a1.5 1.5 0 11-3.001-.001 1.5 1.5 0 013.001.001zm20 0a1.5 1.5 0 11-3.001-.001 1.5 1.5 0 013.001.001zm20 0a1.5 1.5 0 11-3.001-.001 1.5 1.5 0 013.001.001zm20 0a1.5 1.5 0 11-3.001-.001 1.5 1.5 0 013.001.001zm20 0a1.5 1.5 0 11-3.001-.001 1.5 1.5 0 013.001.001zm20 0a1.5 1.5 0 11-3.001-.001 1.5 1.5 0 013.001.001zm20 0a1.5 1.5 0 11-3.001-.001 1.5 1.5 0 013.001.001zm20 0a1.5 1.5 0 11-3.001-.001 1.5 1.5 0 013.001.001zm-160 20a1.5 1.5 0 11-3.001-.001 1.5 1.5 0 013.001.001zm20 0a1.5 1.5 0 11-3.001-.001 1.5 1.5 0 013.001.001zm20 0a1.5 1.5 0 11-3.001-.001 1.5 1.5 0 013.001.001zm20 0a1.5 1.5 0 11-3.001-.001 1.5 1.5 0 013.001.001zm20 0a1.5 1.5 0 11-3.001-.001 1.5 1.5 0 013.001.001zm20 0a1.5 1.5 0 11-3.001-.001 1.5 1.5 0 013.001.001zm20 0a1.5 1.5 0 11-3.001-.001 1.5 1.5 0 013.001.001zm20 0a1.5 1.5 0 11-3.001-.001 1.5 1.5 0 013.001.001zm20 0a1.5 1.5 0 11-3.001-.001 1.5 1.5 0 013.001.001zm-160 20a1.5 1.5 0 11-3.001-.001 1.5 1.5 0 013.001.001zm20 0a1.5 1.5 0 11-3.001-.001 1.5 1.5 0 013.001.001zm20 0a1.5 1.5 0 11-3.001-.001 1.5 1.5 0 013.001.001zm20 0a1.5 1.5 0 11-3.001-.001 1.5 1.5 0 013.001.001zm20 0a1.5 1.5 0 11-3.001-.001 1.5 1.5 0 013.001.001zm20 0a1.5 1.5 0 11-3.001-.001 1.5 1.5 0 013.001.001zm20 0a1.5 1.5 0 11-3.001-.001 1.5 1.5 0 013.001.001zm20 0a1.5 1.5 0 11-3.001-.001 1.5 1.5 0 013.001.001zm20 0a1.5 1.5 0 11-3.001-.001 1.5 1.5 0 013.001.001zm-160 20a1.5 1.5 0 11-3.001-.001 1.5 1.5 0 013.001.001zm20 0a1.5 1.5 0 11-3.001-.001 1.5 1.5 0 013.001.001zm20 0a1.5 1.5 0 11-3.001-.001 1.5 1.5 0 013.001.001zm20 0a1.5 1.5 0 11-3.001-.001 1.5 1.5 0 013.001.001zm20 0a1.5 1.5 0 11-3.001-.001 1.5 1.5 0 013.001.001zm20 0a1.5 1.5 0 11-3.001-.001 1.5 1.5 0 013.001.001zm20 0a1.5 1.5 0 11-3.001-.001 1.5 1.5 0 013.001.001zm20 0a1.5 1.5 0 11-3.001-.001 1.5 1.5 0 013.001.001zm20 0a1.5 1.5 0 11-3.001-.001 1.5 1.5 0 013.001.001zm-160 20a1.5 1.5 0 11-3.001-.001 1.5 1.5 0 013.001.001zm20 0a1.5 1.5 0 11-3.001-.001 1.5 1.5 0 013.001.001zm20 0a1.5 1.5 0 11-3.001-.001 1.5 1.5 0 013.001.001zm20 0a1.5 1.5 0 11-3.001-.001 1.5 1.5 0 013.001.001zm20 0a1.5 1.5 0 11-3.001-.001 1.5 1.5 0 013.001.001zm20 0a1.5 1.5 0 11-3.001-.001 1.5 1.5 0 013.001.001zm20 0a1.5 1.5 0 11-3.001-.001 1.5 1.5 0 013.001.001zm20 0a1.5 1.5 0 11-3.001-.001 1.5 1.5 0 013.001.001zm20 0a1.5 1.5 0 11-3.001-.001 1.5 1.5 0 013.001.001zm-160 20a1.5 1.5 0 11-3.001-.001 1.5 1.5 0 013.001.001zm20 0a1.5 1.5 0 11-3.001-.001 1.5 1.5 0 013.001.001zm20 0a1.5 1.5 0 11-3.001-.001 1.5 1.5 0 013.001.001zm20 0a1.5 1.5 0 11-3.001-.001 1.5 1.5 0 013.001.001zm20 0a1.5 1.5 0 11-3.001-.001 1.5 1.5 0 013.001.001zm20 0a1.5 1.5 0 11-3.001-.001 1.5 1.5 0 013.001.001zm20 0a1.5 1.5 0 11-3.001-.001 1.5 1.5 0 013.001.001zm20 0a1.5 1.5 0 11-3.001-.001 1.5 1.5 0 013.001.001zm20 0a1.5 1.5 0 11-3.001-.001 1.5 1.5 0 013.001.001zm-160 20a1.5 1.5 0 11-3.001-.001 1.5 1.5 0 013.001.001zm20 0a1.5 1.5 0 11-3.001-.001 1.5 1.5 0 013.001.001zm20 0a1.5 1.5 0 11-3.001-.001 1.5 1.5 0 013.001.001zm20 0a1.5 1.5 0 11-3.001-.001 1.5 1.5 0 013.001.001zm20 0a1.5 1.5 0 11-3.001-.001 1.5 1.5 0 013.001.001zm20 0a1.5 1.5 0 11-3.001-.001 1.5 1.5 0 013.001.001zm20 0a1.5 1.5 0 11-3.001-.001 1.5 1.5 0 013.001.001zm20 0a1.5 1.5 0 11-3.001-.001 1.5 1.5 0 013.001.001zm20 0a1.5 1.5 0 11-3.001-.001 1.5 1.5 0 013.001.001zm-160 20a1.5 1.5 0 11-3.001-.001 1.5 1.5 0 013.001.001zm20 0a1.5 1.5 0 11-3.001-.001 1.5 1.5 0 013.001.001zm20 0a1.5 1.5 0 11-3.001-.001 1.5 1.5 0 013.001.001zm20 0a1.5 1.5 0 11-3.001-.001 1.5 1.5 0 013.001.001zm20 0a1.5 1.5 0 11-3.001-.001 1.5 1.5 0 013.001.001zm20 0a1.5 1.5 0 11-3.001-.001 1.5 1.5 0 013.001.001zm20 0a1.5 1.5 0 11-3.001-.001 1.5 1.5 0 013.001.001zm20 0a1.5 1.5 0 11-3.001-.001 1.5 1.5 0 013.001.001zm20 0a1.5 1.5 0 11-3.001-.001 1.5 1.5 0 013.001.001zm-160 20a1.5 1.5 0 11-3.001-.001 1.5 1.5 0 013.001.001zm20 0a1.5 1.5 0 11-3.001-.001 1.5 1.5 0 013.001.001zm20 0a1.5 1.5 0 11-3.001-.001 1.5 1.5 0 013.001.001zm20 0a1.5 1.5 0 11-3.001-.001 1.5 1.5 0 013.001.001zm20 0a1.5 1.5 0 11-3.001-.001 1.5 1.5 0 013.001.001zm20 0a1.5 1.5 0 11-3.001-.001 1.5 1.5 0 013.001.001zm20 0a1.5 1.5 0 11-3.001-.001 1.5 1.5 0 013.001.001zm20 0a1.5 1.5 0 11-3.001-.001 1.5 1.5 0 013.001.001zm20 0a1.5 1.5 0 11-3.001-.001 1.5 1.5 0 013.001.001zm-160 20a1.5 1.5 0 11-3.001-.001 1.5 1.5 0 013.001.001zm20 0a1.5 1.5 0 11-3.001-.001 1.5 1.5 0 013.001.001zm20 0a1.5 1.5 0 11-3.001-.001 1.5 1.5 0 013.001.001zm20 0a1.5 1.5 0 11-3.001-.001 1.5 1.5 0 013.001.001zm20 0a1.5 1.5 0 11-3.001-.001 1.5 1.5 0 013.001.001zm20 0a1.5 1.5 0 11-3.001-.001 1.5 1.5 0 013.001.001zm20 0a1.5 1.5 0 11-3.001-.001 1.5 1.5 0 013.001.001zm20 0a1.5 1.5 0 11-3.001-.001 1.5 1.5 0 013.001.001zm20 0a1.5 1.5 0 11-3.001-.001 1.5 1.5 0 013.001.001zm-160 20a1.5 1.5 0 11-3.001-.001 1.5 1.5 0 013.001.001zm20 0a1.5 1.5 0 11-3.001-.001 1.5 1.5 0 013.001.001zm20 0a1.5 1.5 0 11-3.001-.001 1.5 1.5 0 013.001.001zm20 0a1.5 1.5 0 11-3.001-.001 1.5 1.5 0 013.001.001zm20 0a1.5 1.5 0 11-3.001-.001 1.5 1.5 0 013.001.001zm20 0a1.5 1.5 0 11-3.001-.001 1.5 1.5 0 013.001.001zm20 0a1.5 1.5 0 11-3.001-.001 1.5 1.5 0 013.001.001zm20 0a1.5 1.5 0 11-3.001-.001 1.5 1.5 0 013.001.001zm20 0a1.5 1.5 0 11-3.001-.001 1.5 1.5 0 013.001.001zm-800 20a1.5 1.5 0 11-3 0 1.5 1.5 0 013 0zm20 0a1.5 1.5 0 11-3 0 1.5 1.5 0 013 0zm-20 20a1.5 1.5 0 11-3 0 1.5 1.5 0 013 0zm20 0a1.5 1.5 0 11-3 0 1.5 1.5 0 013 0zm-20 20a1.5 1.5 0 11-3 0 1.5 1.5 0 013 0zm20 0a1.5 1.5 0 11-3 0 1.5 1.5 0 013 0zm-20 20a1.5 1.5 0 11-3 0 1.5 1.5 0 013 0zm20 0a1.5 1.5 0 11-3 0 1.5 1.5 0 013 0zm-20 20a1.5 1.5 0 11-3 0 1.5 1.5 0 013 0zm20 0a1.5 1.5 0 11-3 0 1.5 1.5 0 013 0zm0 20a1.5 1.5 0 11-3 0 1.5 1.5 0 013 0zm20-100a1.5 1.5 0 11-3 0 1.5 1.5 0 013 0zm20 0a1.5 1.5 0 11-3 0 1.5 1.5 0 013 0zm20 0a1.5 1.5 0 11-3.001-.001 1.5 1.5 0 013.001.001zm20 0a1.5 1.5 0 11-3.001-.001 1.5 1.5 0 013.001.001zm20 0a1.5 1.5 0 11-3.001-.001 1.5 1.5 0 013.001.001zm20 0a1.5 1.5 0 11-3.001-.001 1.5 1.5 0 013.001.001zm20 0a1.5 1.5 0 11-3.001-.001 1.5 1.5 0 013.001.001zm20 0a1.5 1.5 0 11-3.001-.001 1.5 1.5 0 013.001.001zm20 0a1.5 1.5 0 11-3.001-.001 1.5 1.5 0 013.001.001zm20 0a1.5 1.5 0 11-3.001-.001 1.5 1.5 0 013.001.001zm20 0a1.5 1.5 0 11-3.001-.001 1.5 1.5 0 013.001.001zm20 0a1.5 1.5 0 11-3.001-.001 1.5 1.5 0 013.001.001zm20 0a1.5 1.5 0 11-3.001-.001 1.5 1.5 0 013.001.001zm20 0a1.5 1.5 0 11-3.001-.001 1.5 1.5 0 013.001.001zm20 0a1.5 1.5 0 11-3.001-.001 1.5 1.5 0 013.001.001zm-280 20a1.5 1.5 0 11-3 0 1.5 1.5 0 013 0zm20 0a1.5 1.5 0 11-3 0 1.5 1.5 0 013 0zm20 0a1.5 1.5 0 11-3.001-.001 1.5 1.5 0 013.001.001zm20 0a1.5 1.5 0 11-3.001-.001 1.5 1.5 0 013.001.001zm20 0a1.5 1.5 0 11-3.001-.001 1.5 1.5 0 013.001.001zm20 0a1.5 1.5 0 11-3.001-.001 1.5 1.5 0 013.001.001zm20 0a1.5 1.5 0 11-3.001-.001 1.5 1.5 0 013.001.001zm20 0a1.5 1.5 0 11-3.001-.001 1.5 1.5 0 013.001.001zm20 0a1.5 1.5 0 11-3.001-.001 1.5 1.5 0 013.001.001zm20 0a1.5 1.5 0 11-3.001-.001 1.5 1.5 0 013.001.001zm20 0a1.5 1.5 0 11-3.001-.001 1.5 1.5 0 013.001.001zm20 0a1.5 1.5 0 11-3.001-.001 1.5 1.5 0 013.001.001zm20 0a1.5 1.5 0 11-3.001-.001 1.5 1.5 0 013.001.001zm20 0a1.5 1.5 0 11-3.001-.001 1.5 1.5 0 013.001.001zm20 0a1.5 1.5 0 11-3.001-.001 1.5 1.5 0 013.001.001zm-280 20a1.5 1.5 0 11-3 0 1.5 1.5 0 013 0zm20 0a1.5 1.5 0 11-3 0 1.5 1.5 0 013 0zm20 0a1.5 1.5 0 11-3.001-.001 1.5 1.5 0 013.001.001zm20 0a1.5 1.5 0 11-3.001-.001 1.5 1.5 0 013.001.001zm20 0a1.5 1.5 0 11-3.001-.001 1.5 1.5 0 013.001.001zm20 0a1.5 1.5 0 11-3.001-.001 1.5 1.5 0 013.001.001zm20 0a1.5 1.5 0 11-3.001-.001 1.5 1.5 0 013.001.001zm20 0a1.5 1.5 0 11-3.001-.001 1.5 1.5 0 013.001.001zm20 0a1.5 1.5 0 11-3.001-.001 1.5 1.5 0 013.001.001zm20 0a1.5 1.5 0 11-3.001-.001 1.5 1.5 0 013.001.001zm20 0a1.5 1.5 0 11-3.001-.001 1.5 1.5 0 013.001.001zm20 0a1.5 1.5 0 11-3.001-.001 1.5 1.5 0 013.001.001zm20 0a1.5 1.5 0 11-3.001-.001 1.5 1.5 0 013.001.001zm20 0a1.5 1.5 0 11-3.001-.001 1.5 1.5 0 013.001.001zm20 0a1.5 1.5 0 11-3.001-.001 1.5 1.5 0 013.001.001zm-280 20a1.5 1.5 0 11-3 0 1.5 1.5 0 013 0zm20 0a1.5 1.5 0 11-3 0 1.5 1.5 0 013 0zm20 0a1.5 1.5 0 11-3.001-.001 1.5 1.5 0 013.001.001zm20 0a1.5 1.5 0 11-3.001-.001 1.5 1.5 0 013.001.001zm20 0a1.5 1.5 0 11-3.001-.001 1.5 1.5 0 013.001.001zm20 0a1.5 1.5 0 11-3.001-.001 1.5 1.5 0 013.001.001zm20 0a1.5 1.5 0 11-3.001-.001 1.5 1.5 0 013.001.001zm20 0a1.5 1.5 0 11-3.001-.001 1.5 1.5 0 013.001.001zm20 0a1.5 1.5 0 11-3.001-.001 1.5 1.5 0 013.001.001zm20 0a1.5 1.5 0 11-3.001-.001 1.5 1.5 0 013.001.001zm20 0a1.5 1.5 0 11-3.001-.001 1.5 1.5 0 013.001.001zm20 0a1.5 1.5 0 11-3.001-.001 1.5 1.5 0 013.001.001zm20 0a1.5 1.5 0 11-3.001-.001 1.5 1.5 0 013.001.001zm20 0a1.5 1.5 0 11-3.001-.001 1.5 1.5 0 013.001.001zm20 0a1.5 1.5 0 11-3.001-.001 1.5 1.5 0 013.001.001zm-280 20a1.5 1.5 0 11-3 0 1.5 1.5 0 013 0zm20 0a1.5 1.5 0 11-3 0 1.5 1.5 0 013 0zm20 0a1.5 1.5 0 11-3.001-.001 1.5 1.5 0 013.001.001zm20 0a1.5 1.5 0 11-3.001-.001 1.5 1.5 0 013.001.001zm20 0a1.5 1.5 0 11-3.001-.001 1.5 1.5 0 013.001.001zm20 0a1.5 1.5 0 11-3.001-.001 1.5 1.5 0 013.001.001zm20 0a1.5 1.5 0 11-3.001-.001 1.5 1.5 0 013.001.001zm20 0a1.5 1.5 0 11-3.001-.001 1.5 1.5 0 013.001.001zm20 0a1.5 1.5 0 11-3.001-.001 1.5 1.5 0 013.001.001zm20 0a1.5 1.5 0 11-3.001-.001 1.5 1.5 0 013.001.001zm20 0a1.5 1.5 0 11-3.001-.001 1.5 1.5 0 013.001.001zm20 0a1.5 1.5 0 11-3.001-.001 1.5 1.5 0 013.001.001zm20 0a1.5 1.5 0 11-3.001-.001 1.5 1.5 0 013.001.001zm20 0a1.5 1.5 0 11-3.001-.001 1.5 1.5 0 013.001.001zm20 0a1.5 1.5 0 11-3.001-.001 1.5 1.5 0 013.001.001zm-280 20a1.5 1.5 0 11-3 0 1.5 1.5 0 013 0zm20 0a1.5 1.5 0 11-3 0 1.5 1.5 0 013 0zm20 0a1.5 1.5 0 11-3.001-.001 1.5 1.5 0 013.001.001zm20 0a1.5 1.5 0 11-3.001-.001 1.5 1.5 0 013.001.001zm20 0a1.5 1.5 0 11-3.001-.001 1.5 1.5 0 013.001.001zm20 0a1.5 1.5 0 11-3.001-.001 1.5 1.5 0 013.001.001zm20 0a1.5 1.5 0 11-3.001-.001 1.5 1.5 0 013.001.001zm20 0a1.5 1.5 0 11-3.001-.001 1.5 1.5 0 013.001.001zm20 0a1.5 1.5 0 11-3.001-.001 1.5 1.5 0 013.001.001zm20 0a1.5 1.5 0 11-3.001-.001 1.5 1.5 0 013.001.001zm20 0a1.5 1.5 0 11-3.001-.001 1.5 1.5 0 013.001.001zm20 0a1.5 1.5 0 11-3.001-.001 1.5 1.5 0 013.001.001zm20 0a1.5 1.5 0 11-3.001-.001 1.5 1.5 0 013.001.001zm20 0a1.5 1.5 0 11-3.001-.001 1.5 1.5 0 013.001.001zm20 0a1.5 1.5 0 11-3.001-.001 1.5 1.5 0 013.001.001zm-280 20a1.5 1.5 0 11-3 0 1.5 1.5 0 013 0zm20 0a1.5 1.5 0 11-3 0 1.5 1.5 0 013 0zm20 0a1.5 1.5 0 11-3.001-.001 1.5 1.5 0 013.001.001zm20 0a1.5 1.5 0 11-3.001-.001 1.5 1.5 0 013.001.001zm20 0a1.5 1.5 0 11-3.001-.001 1.5 1.5 0 013.001.001zm20 0a1.5 1.5 0 11-3.001-.001 1.5 1.5 0 013.001.001zm20 0a1.5 1.5 0 11-3.001-.001 1.5 1.5 0 013.001.001zm20 0a1.5 1.5 0 11-3.001-.001 1.5 1.5 0 013.001.001zm20 0a1.5 1.5 0 11-3.001-.001 1.5 1.5 0 013.001.001zm20 0a1.5 1.5 0 11-3.001-.001 1.5 1.5 0 013.001.001zm20 0a1.5 1.5 0 11-3.001-.001 1.5 1.5 0 013.001.001zm20 0a1.5 1.5 0 11-3.001-.001 1.5 1.5 0 013.001.001zm20 0a1.5 1.5 0 11-3.001-.001 1.5 1.5 0 013.001.001zm20 0a1.5 1.5 0 11-3.001-.001 1.5 1.5 0 013.001.001zm20 0a1.5 1.5 0 11-3.001-.001 1.5 1.5 0 013.001.001zm-260 20a1.5 1.5 0 11-3 0 1.5 1.5 0 013 0zm20 0a1.5 1.5 0 11-3.001-.001 1.5 1.5 0 013.001.001zm20 0a1.5 1.5 0 11-3.001-.001 1.5 1.5 0 013.001.001zm20 0a1.5 1.5 0 11-3.001-.001 1.5 1.5 0 013.001.001zm20 0a1.5 1.5 0 11-3.001-.001 1.5 1.5 0 013.001.001zm20 0a1.5 1.5 0 11-3.001-.001 1.5 1.5 0 013.001.001zm20 0a1.5 1.5 0 11-3.001-.001 1.5 1.5 0 013.001.001zm20 0a1.5 1.5 0 11-3.001-.001 1.5 1.5 0 013.001.001zm20 0a1.5 1.5 0 11-3.001-.001 1.5 1.5 0 013.001.001zm20 0a1.5 1.5 0 11-3.001-.001 1.5 1.5 0 013.001.001zm20 0a1.5 1.5 0 11-3.001-.001 1.5 1.5 0 013.001.001zm20 0a1.5 1.5 0 11-3.001-.001 1.5 1.5 0 013.001.001zm20 0a1.5 1.5 0 11-3.001-.001 1.5 1.5 0 013.001.001zm20 0a1.5 1.5 0 11-3.001-.001 1.5 1.5 0 013.001.001zm-260 20a1.5 1.5 0 11-3 0 1.5 1.5 0 013 0zm20 0a1.5 1.5 0 11-3.001-.001 1.5 1.5 0 013.001.001zm20 0a1.5 1.5 0 11-3.001-.001 1.5 1.5 0 013.001.001zm20 0a1.5 1.5 0 11-3.001-.001 1.5 1.5 0 013.001.001zm20 0a1.5 1.5 0 11-3.001-.001 1.5 1.5 0 013.001.001zm20 0a1.5 1.5 0 11-3.001-.001 1.5 1.5 0 013.001.001zm20 0a1.5 1.5 0 11-3.001-.001 1.5 1.5 0 013.001.001zm20 0a1.5 1.5 0 11-3.001-.001 1.5 1.5 0 013.001.001zm20 0a1.5 1.5 0 11-3.001-.001 1.5 1.5 0 013.001.001zm20 0a1.5 1.5 0 11-3.001-.001 1.5 1.5 0 013.001.001zm20 0a1.5 1.5 0 11-3.001-.001 1.5 1.5 0 013.001.001zm20 0a1.5 1.5 0 11-3.001-.001 1.5 1.5 0 013.001.001zm20 0a1.5 1.5 0 11-3.001-.001 1.5 1.5 0 013.001.001zm20 0a1.5 1.5 0 11-3.001-.001 1.5 1.5 0 013.001.001zm-260 20a1.5 1.5 0 11-3 0 1.5 1.5 0 013 0zm20 0a1.5 1.5 0 11-3.001-.001 1.5 1.5 0 013.001.001zm20 0a1.5 1.5 0 11-3.001-.001 1.5 1.5 0 013.001.001zm20 0a1.5 1.5 0 11-3.001-.001 1.5 1.5 0 013.001.001zm20 0a1.5 1.5 0 11-3.001-.001 1.5 1.5 0 013.001.001zm20 0a1.5 1.5 0 11-3.001-.001 1.5 1.5 0 013.001.001zm20 0a1.5 1.5 0 11-3.001-.001 1.5 1.5 0 013.001.001zm20 0a1.5 1.5 0 11-3.001-.001 1.5 1.5 0 013.001.001zm20 0a1.5 1.5 0 11-3.001-.001 1.5 1.5 0 013.001.001zm20 0a1.5 1.5 0 11-3.001-.001 1.5 1.5 0 013.001.001zm20 0a1.5 1.5 0 11-3.001-.001 1.5 1.5 0 013.001.001zm20 0a1.5 1.5 0 11-3.001-.001 1.5 1.5 0 013.001.001zm20 0a1.5 1.5 0 11-3.001-.001 1.5 1.5 0 013.001.001zm20 0a1.5 1.5 0 11-3.001-.001 1.5 1.5 0 013.001.001zm-240 20a1.5 1.5 0 11-3.001-.001 1.5 1.5 0 013.001.001zm20 0a1.5 1.5 0 11-3.001-.001 1.5 1.5 0 013.001.001zm20 0a1.5 1.5 0 11-3.001-.001 1.5 1.5 0 013.001.001zm20 0a1.5 1.5 0 11-3.001-.001 1.5 1.5 0 013.001.001zm20 0a1.5 1.5 0 11-3.001-.001 1.5 1.5 0 013.001.001zm20 0a1.5 1.5 0 11-3.001-.001 1.5 1.5 0 013.001.001zm20 0a1.5 1.5 0 11-3.001-.001 1.5 1.5 0 013.001.001zm20 0a1.5 1.5 0 11-3.001-.001 1.5 1.5 0 013.001.001zm20 0a1.5 1.5 0 11-3.001-.001 1.5 1.5 0 013.001.001zm20 0a1.5 1.5 0 11-3.001-.001 1.5 1.5 0 013.001.001zm20 0a1.5 1.5 0 11-3.001-.001 1.5 1.5 0 013.001.001zm20 0a1.5 1.5 0 11-3.001-.001 1.5 1.5 0 013.001.001zm20 0a1.5 1.5 0 11-3.001-.001 1.5 1.5 0 013.001.001zm-220 20a1.5 1.5 0 11-3.001-.001 1.5 1.5 0 013.001.001zm20 0a1.5 1.5 0 11-3.001-.001 1.5 1.5 0 013.001.001zm20 0a1.5 1.5 0 11-3.001-.001 1.5 1.5 0 013.001.001zm20 0a1.5 1.5 0 11-3.001-.001 1.5 1.5 0 013.001.001zm20 0a1.5 1.5 0 11-3.001-.001 1.5 1.5 0 013.001.001zm20 0a1.5 1.5 0 11-3.001-.001 1.5 1.5 0 013.001.001zm20 0a1.5 1.5 0 11-3.001-.001 1.5 1.5 0 013.001.001zm20 0a1.5 1.5 0 11-3.001-.001 1.5 1.5 0 013.001.001zm20 0a1.5 1.5 0 11-3.001-.001 1.5 1.5 0 013.001.001zm20 0a1.5 1.5 0 11-3.001-.001 1.5 1.5 0 013.001.001zm20 0a1.5 1.5 0 11-3.001-.001 1.5 1.5 0 013.001.001zm20 0a1.5 1.5 0 11-3.001-.001 1.5 1.5 0 013.001.001zm20-220a1.5 1.5 0 11-3.001-.001 1.5 1.5 0 013.001.001zm20 0a1.5 1.5 0 11-3.001-.001 1.5 1.5 0 013.001.001zm20 0a1.5 1.5 0 11-3.001-.001 1.5 1.5 0 013.001.001zm20 0a1.5 1.5 0 11-3.001-.001 1.5 1.5 0 013.001.001zm20 0a1.5 1.5 0 11-3.001-.001 1.5 1.5 0 013.001.001zm20 0a1.5 1.5 0 11-3.001-.001 1.5 1.5 0 013.001.001zm20 0a1.5 1.5 0 11-3.001-.001 1.5 1.5 0 013.001.001zm20 0a1.5 1.5 0 11-3.001-.001 1.5 1.5 0 013.001.001zm20 0a1.5 1.5 0 11-3.001-.001 1.5 1.5 0 013.001.001zm20 0a1.5 1.5 0 11-3.001-.001 1.5 1.5 0 013.001.001zm20 0a1.5 1.5 0 11-3.001-.001 1.5 1.5 0 013.001.001zm20 0a1.5 1.5 0 11-3.001-.001 1.5 1.5 0 013.001.001zm20 0a1.5 1.5 0 11-3.001-.001 1.5 1.5 0 013.001.001zm20 0a1.5 1.5 0 11-3.001-.001 1.5 1.5 0 013.001.001zm20 0a1.5 1.5 0 11-3.001-.001 1.5 1.5 0 013.001.001zm-280 20a1.5 1.5 0 11-3.001-.001 1.5 1.5 0 013.001.001zm20 0a1.5 1.5 0 11-3.001-.001 1.5 1.5 0 013.001.001zm20 0a1.5 1.5 0 11-3.001-.001 1.5 1.5 0 013.001.001zm20 0a1.5 1.5 0 11-3.001-.001 1.5 1.5 0 013.001.001zm20 0a1.5 1.5 0 11-3.001-.001 1.5 1.5 0 013.001.001zm20 0a1.5 1.5 0 11-3.001-.001 1.5 1.5 0 013.001.001zm20 0a1.5 1.5 0 11-3.001-.001 1.5 1.5 0 013.001.001zm20 0a1.5 1.5 0 11-3.001-.001 1.5 1.5 0 013.001.001zm20 0a1.5 1.5 0 11-3.001-.001 1.5 1.5 0 013.001.001zm20 0a1.5 1.5 0 11-3.001-.001 1.5 1.5 0 013.001.001zm20 0a1.5 1.5 0 11-3.001-.001 1.5 1.5 0 013.001.001zm20 0a1.5 1.5 0 11-3.001-.001 1.5 1.5 0 013.001.001zm20 0a1.5 1.5 0 11-3.001-.001 1.5 1.5 0 013.001.001zm20 0a1.5 1.5 0 11-3.001-.001 1.5 1.5 0 013.001.001zm20 0a1.5 1.5 0 11-3.001-.001 1.5 1.5 0 013.001.001zm-280 20a1.5 1.5 0 11-3.001-.001 1.5 1.5 0 013.001.001zm20 0a1.5 1.5 0 11-3.001-.001 1.5 1.5 0 013.001.001zm20 0a1.5 1.5 0 11-3.001-.001 1.5 1.5 0 013.001.001zm20 0a1.5 1.5 0 11-3.001-.001 1.5 1.5 0 013.001.001zm20 0a1.5 1.5 0 11-3.001-.001 1.5 1.5 0 013.001.001zm20 0a1.5 1.5 0 11-3.001-.001 1.5 1.5 0 013.001.001zm20 0a1.5 1.5 0 11-3.001-.001 1.5 1.5 0 013.001.001zm20 0a1.5 1.5 0 11-3.001-.001 1.5 1.5 0 013.001.001zm20 0a1.5 1.5 0 11-3.001-.001 1.5 1.5 0 013.001.001zm20 0a1.5 1.5 0 11-3.001-.001 1.5 1.5 0 013.001.001zm20 0a1.5 1.5 0 11-3.001-.001 1.5 1.5 0 013.001.001zm20 0a1.5 1.5 0 11-3.001-.001 1.5 1.5 0 013.001.001zm20 0a1.5 1.5 0 11-3.001-.001 1.5 1.5 0 013.001.001zm20 0a1.5 1.5 0 11-3.001-.001 1.5 1.5 0 013.001.001zm20 0a1.5 1.5 0 11-3.001-.001 1.5 1.5 0 013.001.001zm-280 20a1.5 1.5 0 11-3.001-.001 1.5 1.5 0 013.001.001zm20 0a1.5 1.5 0 11-3.001-.001 1.5 1.5 0 013.001.001zm20 0a1.5 1.5 0 11-3.001-.001 1.5 1.5 0 013.001.001zm20 0a1.5 1.5 0 11-3.001-.001 1.5 1.5 0 013.001.001zm20 0a1.5 1.5 0 11-3.001-.001 1.5 1.5 0 013.001.001zm20 0a1.5 1.5 0 11-3.001-.001 1.5 1.5 0 013.001.001zm20 0a1.5 1.5 0 11-3.001-.001 1.5 1.5 0 013.001.001zm20 0a1.5 1.5 0 11-3.001-.001 1.5 1.5 0 013.001.001zm20 0a1.5 1.5 0 11-3.001-.001 1.5 1.5 0 013.001.001zm20 0a1.5 1.5 0 11-3.001-.001 1.5 1.5 0 013.001.001zm20 0a1.5 1.5 0 11-3.001-.001 1.5 1.5 0 013.001.001zm20 0a1.5 1.5 0 11-3.001-.001 1.5 1.5 0 013.001.001zm20 0a1.5 1.5 0 11-3.001-.001 1.5 1.5 0 013.001.001zm20 0a1.5 1.5 0 11-3.001-.001 1.5 1.5 0 013.001.001zm20 0a1.5 1.5 0 11-3.001-.001 1.5 1.5 0 013.001.001zm-280 20a1.5 1.5 0 11-3.001-.001 1.5 1.5 0 013.001.001zm20 0a1.5 1.5 0 11-3.001-.001 1.5 1.5 0 013.001.001zm20 0a1.5 1.5 0 11-3.001-.001 1.5 1.5 0 013.001.001zm20 0a1.5 1.5 0 11-3.001-.001 1.5 1.5 0 013.001.001zm20 0a1.5 1.5 0 11-3.001-.001 1.5 1.5 0 013.001.001zm20 0a1.5 1.5 0 11-3.001-.001 1.5 1.5 0 013.001.001zm20 0a1.5 1.5 0 11-3.001-.001 1.5 1.5 0 013.001.001zm20 0a1.5 1.5 0 11-3.001-.001 1.5 1.5 0 013.001.001zm20 0a1.5 1.5 0 11-3.001-.001 1.5 1.5 0 013.001.001zm20 0a1.5 1.5 0 11-3.001-.001 1.5 1.5 0 013.001.001zm20 0a1.5 1.5 0 11-3.001-.001 1.5 1.5 0 013.001.001zm20 0a1.5 1.5 0 11-3.001-.001 1.5 1.5 0 013.001.001zm20 0a1.5 1.5 0 11-3.001-.001 1.5 1.5 0 013.001.001zm20 0a1.5 1.5 0 11-3.001-.001 1.5 1.5 0 013.001.001zm20 0a1.5 1.5 0 11-3.001-.001 1.5 1.5 0 013.001.001zm-280 20a1.5 1.5 0 11-3.001-.001 1.5 1.5 0 013.001.001zm20 0a1.5 1.5 0 11-3.001-.001 1.5 1.5 0 013.001.001zm20 0a1.5 1.5 0 11-3.001-.001 1.5 1.5 0 013.001.001zm20 0a1.5 1.5 0 11-3.001-.001 1.5 1.5 0 013.001.001zm20 0a1.5 1.5 0 11-3.001-.001 1.5 1.5 0 013.001.001zm20 0a1.5 1.5 0 11-3.001-.001 1.5 1.5 0 013.001.001zm20 0a1.5 1.5 0 11-3.001-.001 1.5 1.5 0 013.001.001zm20 0a1.5 1.5 0 11-3.001-.001 1.5 1.5 0 013.001.001zm20 0a1.5 1.5 0 11-3.001-.001 1.5 1.5 0 013.001.001zm20 0a1.5 1.5 0 11-3.001-.001 1.5 1.5 0 013.001.001zm20 0a1.5 1.5 0 11-3.001-.001 1.5 1.5 0 013.001.001zm20 0a1.5 1.5 0 11-3.001-.001 1.5 1.5 0 013.001.001zm20 0a1.5 1.5 0 11-3.001-.001 1.5 1.5 0 013.001.001zm20 0a1.5 1.5 0 11-3.001-.001 1.5 1.5 0 013.001.001zm20 0a1.5 1.5 0 11-3.001-.001 1.5 1.5 0 013.001.001zm-280 20a1.5 1.5 0 11-3.001-.001 1.5 1.5 0 013.001.001zm20 0a1.5 1.5 0 11-3.001-.001 1.5 1.5 0 013.001.001zm20 0a1.5 1.5 0 11-3.001-.001 1.5 1.5 0 013.001.001zm20 0a1.5 1.5 0 11-3.001-.001 1.5 1.5 0 013.001.001zm20 0a1.5 1.5 0 11-3.001-.001 1.5 1.5 0 013.001.001zm20 0a1.5 1.5 0 11-3.001-.001 1.5 1.5 0 013.001.001zm20 0a1.5 1.5 0 11-3.001-.001 1.5 1.5 0 013.001.001zm20 0a1.5 1.5 0 11-3.001-.001 1.5 1.5 0 013.001.001zm20 0a1.5 1.5 0 11-3.001-.001 1.5 1.5 0 013.001.001zm20 0a1.5 1.5 0 11-3.001-.001 1.5 1.5 0 013.001.001zm20 0a1.5 1.5 0 11-3.001-.001 1.5 1.5 0 013.001.001zm20 0a1.5 1.5 0 11-3.001-.001 1.5 1.5 0 013.001.001zm20 0a1.5 1.5 0 11-3.001-.001 1.5 1.5 0 013.001.001zm20 0a1.5 1.5 0 11-3.001-.001 1.5 1.5 0 013.001.001zm20 0a1.5 1.5 0 11-3.001-.001 1.5 1.5 0 013.001.001zm-280 20a1.5 1.5 0 11-3.001-.001 1.5 1.5 0 013.001.001zm20 0a1.5 1.5 0 11-3.001-.001 1.5 1.5 0 013.001.001zm20 0a1.5 1.5 0 11-3.001-.001 1.5 1.5 0 013.001.001zm20 0a1.5 1.5 0 11-3.001-.001 1.5 1.5 0 013.001.001zm20 0a1.5 1.5 0 11-3.001-.001 1.5 1.5 0 013.001.001zm20 0a1.5 1.5 0 11-3.001-.001 1.5 1.5 0 013.001.001zm20 0a1.5 1.5 0 11-3.001-.001 1.5 1.5 0 013.001.001zm20 0a1.5 1.5 0 11-3.001-.001 1.5 1.5 0 013.001.001zm20 0a1.5 1.5 0 11-3.001-.001 1.5 1.5 0 013.001.001zm20 0a1.5 1.5 0 11-3.001-.001 1.5 1.5 0 013.001.001zm20 0a1.5 1.5 0 11-3.001-.001 1.5 1.5 0 013.001.001zm20 0a1.5 1.5 0 11-3.001-.001 1.5 1.5 0 013.001.001zm20 0a1.5 1.5 0 11-3.001-.001 1.5 1.5 0 013.001.001zm20 0a1.5 1.5 0 11-3.001-.001 1.5 1.5 0 013.001.001zm20 0a1.5 1.5 0 11-3.001-.001 1.5 1.5 0 013.001.001zm-280 20a1.5 1.5 0 11-3.001-.001 1.5 1.5 0 013.001.001zm20 0a1.5 1.5 0 11-3.001-.001 1.5 1.5 0 013.001.001zm20 0a1.5 1.5 0 11-3.001-.001 1.5 1.5 0 013.001.001zm20 0a1.5 1.5 0 11-3.001-.001 1.5 1.5 0 013.001.001zm20 0a1.5 1.5 0 11-3.001-.001 1.5 1.5 0 013.001.001zm20 0a1.5 1.5 0 11-3.001-.001 1.5 1.5 0 013.001.001zm20 0a1.5 1.5 0 11-3.001-.001 1.5 1.5 0 013.001.001zm20 0a1.5 1.5 0 11-3.001-.001 1.5 1.5 0 013.001.001zm20 0a1.5 1.5 0 11-3.001-.001 1.5 1.5 0 013.001.001zm20 0a1.5 1.5 0 11-3.001-.001 1.5 1.5 0 013.001.001zm20 0a1.5 1.5 0 11-3.001-.001 1.5 1.5 0 013.001.001zm20 0a1.5 1.5 0 11-3.001-.001 1.5 1.5 0 013.001.001zm20 0a1.5 1.5 0 11-3.001-.001 1.5 1.5 0 013.001.001zm20 0a1.5 1.5 0 11-3.001-.001 1.5 1.5 0 013.001.001zm20 0a1.5 1.5 0 11-3.001-.001 1.5 1.5 0 013.001.001zm-280 20a1.5 1.5 0 11-3.001-.001 1.5 1.5 0 013.001.001zm20 0a1.5 1.5 0 11-3.001-.001 1.5 1.5 0 013.001.001zm20 0a1.5 1.5 0 11-3.001-.001 1.5 1.5 0 013.001.001zm20 0a1.5 1.5 0 11-3.001-.001 1.5 1.5 0 013.001.001zm20 0a1.5 1.5 0 11-3.001-.001 1.5 1.5 0 013.001.001zm20 0a1.5 1.5 0 11-3.001-.001 1.5 1.5 0 013.001.001zm20 0a1.5 1.5 0 11-3.001-.001 1.5 1.5 0 013.001.001zm20 0a1.5 1.5 0 11-3.001-.001 1.5 1.5 0 013.001.001zm20 0a1.5 1.5 0 11-3.001-.001 1.5 1.5 0 013.001.001zm20 0a1.5 1.5 0 11-3.001-.001 1.5 1.5 0 013.001.001zm20 0a1.5 1.5 0 11-3.001-.001 1.5 1.5 0 013.001.001zm20 0a1.5 1.5 0 11-3.001-.001 1.5 1.5 0 013.001.001zm20 0a1.5 1.5 0 11-3.001-.001 1.5 1.5 0 013.001.001zm20 0a1.5 1.5 0 11-3.001-.001 1.5 1.5 0 013.001.001zm20 0a1.5 1.5 0 11-3.001-.001 1.5 1.5 0 013.001.001zm-280 20a1.5 1.5 0 11-3.001-.001 1.5 1.5 0 013.001.001zm20 0a1.5 1.5 0 11-3.001-.001 1.5 1.5 0 013.001.001zm20 0a1.5 1.5 0 11-3.001-.001 1.5 1.5 0 013.001.001zm20 0a1.5 1.5 0 11-3.001-.001 1.5 1.5 0 013.001.001zm20 0a1.5 1.5 0 11-3.001-.001 1.5 1.5 0 013.001.001zm20 0a1.5 1.5 0 11-3.001-.001 1.5 1.5 0 013.001.001zm20 0a1.5 1.5 0 11-3.001-.001 1.5 1.5 0 013.001.001zm20 0a1.5 1.5 0 11-3.001-.001 1.5 1.5 0 013.001.001zm20 0a1.5 1.5 0 11-3.001-.001 1.5 1.5 0 013.001.001zm20 0a1.5 1.5 0 11-3.001-.001 1.5 1.5 0 013.001.001zm20 0a1.5 1.5 0 11-3.001-.001 1.5 1.5 0 013.001.001zm20 0a1.5 1.5 0 11-3.001-.001 1.5 1.5 0 013.001.001zm20 0a1.5 1.5 0 11-3.001-.001 1.5 1.5 0 013.001.001zm20 0a1.5 1.5 0 11-3.001-.001 1.5 1.5 0 013.001.001zm20 0a1.5 1.5 0 11-3.001-.001 1.5 1.5 0 013.001.001zm-280 20a1.5 1.5 0 11-3.001-.001 1.5 1.5 0 013.001.001zm20 0a1.5 1.5 0 11-3.001-.001 1.5 1.5 0 013.001.001zm20 0a1.5 1.5 0 11-3.001-.001 1.5 1.5 0 013.001.001zm20 0a1.5 1.5 0 11-3.001-.001 1.5 1.5 0 013.001.001zm20 0a1.5 1.5 0 11-3.001-.001 1.5 1.5 0 013.001.001zm20 0a1.5 1.5 0 11-3.001-.001 1.5 1.5 0 013.001.001zm20 0a1.5 1.5 0 11-3.001-.001 1.5 1.5 0 013.001.001zm20 0a1.5 1.5 0 11-3.001-.001 1.5 1.5 0 013.001.001zm20 0a1.5 1.5 0 11-3.001-.001 1.5 1.5 0 013.001.001zm20 0a1.5 1.5 0 11-3.001-.001 1.5 1.5 0 013.001.001zm20 0a1.5 1.5 0 11-3.001-.001 1.5 1.5 0 013.001.001zm20 0a1.5 1.5 0 11-3.001-.001 1.5 1.5 0 013.001.001zm20 0a1.5 1.5 0 11-3.001-.001 1.5 1.5 0 013.001.001zm20 0a1.5 1.5 0 11-3.001-.001 1.5 1.5 0 013.001.001zm20 0a1.5 1.5 0 11-3.001-.001 1.5 1.5 0 013.001.001zm20-220a1.5 1.5 0 11-3.001-.001 1.5 1.5 0 013.001.001zm20 0a1.5 1.5 0 11-3.001-.001 1.5 1.5 0 013.001.001zm20 0a1.5 1.5 0 11-3.001-.001 1.5 1.5 0 013.001.001zm20 0a1.5 1.5 0 11-3.001-.001 1.5 1.5 0 013.001.001zm20 0a1.5 1.5 0 11-3.001-.001 1.5 1.5 0 013.001.001zm20 0a1.5 1.5 0 11-3.001-.001 1.5 1.5 0 013.001.001zm20 0a1.5 1.5 0 11-3.001-.001 1.5 1.5 0 013.001.001zm20 0a1.5 1.5 0 11-3.001-.001 1.5 1.5 0 013.001.001zm20 0a1.5 1.5 0 11-3.001-.001 1.5 1.5 0 013.001.001zm-160 20a1.5 1.5 0 11-3.001-.001 1.5 1.5 0 013.001.001zm20 0a1.5 1.5 0 11-3.001-.001 1.5 1.5 0 013.001.001zm20 0a1.5 1.5 0 11-3.001-.001 1.5 1.5 0 013.001.001zm20 0a1.5 1.5 0 11-3.001-.001 1.5 1.5 0 013.001.001zm20 0a1.5 1.5 0 11-3.001-.001 1.5 1.5 0 013.001.001zm20 0a1.5 1.5 0 11-3.001-.001 1.5 1.5 0 013.001.001zm20 0a1.5 1.5 0 11-3.001-.001 1.5 1.5 0 013.001.001zm20 0a1.5 1.5 0 11-3.001-.001 1.5 1.5 0 013.001.001zm20 0a1.5 1.5 0 11-3.001-.001 1.5 1.5 0 013.001.001zm-160 20a1.5 1.5 0 11-3.001-.001 1.5 1.5 0 013.001.001zm20 0a1.5 1.5 0 11-3.001-.001 1.5 1.5 0 013.001.001zm20 0a1.5 1.5 0 11-3.001-.001 1.5 1.5 0 013.001.001zm20 0a1.5 1.5 0 11-3.001-.001 1.5 1.5 0 013.001.001zm20 0a1.5 1.5 0 11-3.001-.001 1.5 1.5 0 013.001.001zm20 0a1.5 1.5 0 11-3.001-.001 1.5 1.5 0 013.001.001zm20 0a1.5 1.5 0 11-3.001-.001 1.5 1.5 0 013.001.001zm20 0a1.5 1.5 0 11-3.001-.001 1.5 1.5 0 013.001.001zm20 0a1.5 1.5 0 11-3.001-.001 1.5 1.5 0 013.001.001zm-160 20a1.5 1.5 0 11-3.001-.001 1.5 1.5 0 013.001.001zm20 0a1.5 1.5 0 11-3.001-.001 1.5 1.5 0 013.001.001zm20 0a1.5 1.5 0 11-3.001-.001 1.5 1.5 0 013.001.001zm20 0a1.5 1.5 0 11-3.001-.001 1.5 1.5 0 013.001.001zm20 0a1.5 1.5 0 11-3.001-.001 1.5 1.5 0 013.001.001zm20 0a1.5 1.5 0 11-3.001-.001 1.5 1.5 0 013.001.001zm20 0a1.5 1.5 0 11-3.001-.001 1.5 1.5 0 013.001.001zm20 0a1.5 1.5 0 11-3.001-.001 1.5 1.5 0 013.001.001zm20 0a1.5 1.5 0 11-3.001-.001 1.5 1.5 0 013.001.001zm-160 20a1.5 1.5 0 11-3.001-.001 1.5 1.5 0 013.001.001zm20 0a1.5 1.5 0 11-3.001-.001 1.5 1.5 0 013.001.001zm20 0a1.5 1.5 0 11-3.001-.001 1.5 1.5 0 013.001.001zm20 0a1.5 1.5 0 11-3.001-.001 1.5 1.5 0 013.001.001zm20 0a1.5 1.5 0 11-3.001-.001 1.5 1.5 0 013.001.001zm20 0a1.5 1.5 0 11-3.001-.001 1.5 1.5 0 013.001.001zm20 0a1.5 1.5 0 11-3.001-.001 1.5 1.5 0 013.001.001zm20 0a1.5 1.5 0 11-3.001-.001 1.5 1.5 0 013.001.001zm20 0a1.5 1.5 0 11-3.001-.001 1.5 1.5 0 013.001.001zm-160 20a1.5 1.5 0 11-3.001-.001 1.5 1.5 0 013.001.001zm20 0a1.5 1.5 0 11-3.001-.001 1.5 1.5 0 013.001.001zm20 0a1.5 1.5 0 11-3.001-.001 1.5 1.5 0 013.001.001zm20 0a1.5 1.5 0 11-3.001-.001 1.5 1.5 0 013.001.001zm20 0a1.5 1.5 0 11-3.001-.001 1.5 1.5 0 013.001.001zm20 0a1.5 1.5 0 11-3.001-.001 1.5 1.5 0 013.001.001zm20 0a1.5 1.5 0 11-3.001-.001 1.5 1.5 0 013.001.001zm20 0a1.5 1.5 0 11-3.001-.001 1.5 1.5 0 013.001.001zm20 0a1.5 1.5 0 11-3.001-.001 1.5 1.5 0 013.001.001zm-160 20a1.5 1.5 0 11-3.001-.001 1.5 1.5 0 013.001.001zm20 0a1.5 1.5 0 11-3.001-.001 1.5 1.5 0 013.001.001zm20 0a1.5 1.5 0 11-3.001-.001 1.5 1.5 0 013.001.001zm20 0a1.5 1.5 0 11-3.001-.001 1.5 1.5 0 013.001.001zm20 0a1.5 1.5 0 11-3.001-.001 1.5 1.5 0 013.001.001zm20 0a1.5 1.5 0 11-3.001-.001 1.5 1.5 0 013.001.001zm20 0a1.5 1.5 0 11-3.001-.001 1.5 1.5 0 013.001.001zm20 0a1.5 1.5 0 11-3.001-.001 1.5 1.5 0 013.001.001zm20 0a1.5 1.5 0 11-3.001-.001 1.5 1.5 0 013.001.001zm-160 20a1.5 1.5 0 11-3.001-.001 1.5 1.5 0 013.001.001zm20 0a1.5 1.5 0 11-3.001-.001 1.5 1.5 0 013.001.001zm20 0a1.5 1.5 0 11-3.001-.001 1.5 1.5 0 013.001.001zm20 0a1.5 1.5 0 11-3.001-.001 1.5 1.5 0 013.001.001zm20 0a1.5 1.5 0 11-3.001-.001 1.5 1.5 0 013.001.001zm20 0a1.5 1.5 0 11-3.001-.001 1.5 1.5 0 013.001.001zm20 0a1.5 1.5 0 11-3.001-.001 1.5 1.5 0 013.001.001zm20 0a1.5 1.5 0 11-3.001-.001 1.5 1.5 0 013.001.001zm-140 20a1.5 1.5 0 11-3.001-.001 1.5 1.5 0 013.001.001zm20 0a1.5 1.5 0 11-3.001-.001 1.5 1.5 0 013.001.001zm20 0a1.5 1.5 0 11-3.001-.001 1.5 1.5 0 013.001.001zm20 0a1.5 1.5 0 11-3.001-.001 1.5 1.5 0 013.001.001zm20 0a1.5 1.5 0 11-3.001-.001 1.5 1.5 0 013.001.001zm20 0a1.5 1.5 0 11-3.001-.001 1.5 1.5 0 013.001.001zm-100 20a1.5 1.5 0 11-3.001-.001 1.5 1.5 0 013.001.001zm20 0a1.5 1.5 0 11-3.001-.001 1.5 1.5 0 013.001.001zm20 0a1.5 1.5 0 11-3.001-.001 1.5 1.5 0 013.001.001zm20 0a1.5 1.5 0 11-3.001-.001 1.5 1.5 0 013.001.001zm-60 20a1.5 1.5 0 11-3.001-.001 1.5 1.5 0 013.001.001zm20 0a1.5 1.5 0 11-3.001-.001 1.5 1.5 0 013.001.001zm-540 40a1.5 1.5 0 11-3.001-.001 1.5 1.5 0 013.001.001zm20 0a1.5 1.5 0 11-3.001-.001 1.5 1.5 0 013.001.001zm20 0a1.5 1.5 0 11-3.001-.001 1.5 1.5 0 013.001.001zm20 0a1.5 1.5 0 11-3.001-.001 1.5 1.5 0 013.001.001zm20 0a1.5 1.5 0 11-3.001-.001 1.5 1.5 0 013.001.001zm20 0a1.5 1.5 0 11-3.001-.001 1.5 1.5 0 013.001.001zm20 0a1.5 1.5 0 11-3.001-.001 1.5 1.5 0 013.001.001zm20 0a1.5 1.5 0 11-3.001-.001 1.5 1.5 0 013.001.001zm20 0a1.5 1.5 0 11-3.001-.001 1.5 1.5 0 013.001.001zm20 0a1.5 1.5 0 11-3.001-.001 1.5 1.5 0 013.001.001zm20 0a1.5 1.5 0 11-3.001-.001 1.5 1.5 0 013.001.001zm20 0a1.5 1.5 0 11-3.001-.001 1.5 1.5 0 013.001.001zm20 0a1.5 1.5 0 11-3.001-.001 1.5 1.5 0 013.001.001zm20 0a1.5 1.5 0 11-3.001-.001 1.5 1.5 0 013.001.001zm20 0a1.5 1.5 0 11-3.001-.001 1.5 1.5 0 013.001.001zm20 0a1.5 1.5 0 11-3.001-.001 1.5 1.5 0 013.001.001zm20 0a1.5 1.5 0 11-3.001-.001 1.5 1.5 0 013.001.001zm20 0a1.5 1.5 0 11-3.001-.001 1.5 1.5 0 013.001.001zm20 0a1.5 1.5 0 11-3.001-.001 1.5 1.5 0 013.001.001zm20 0a1.5 1.5 0 11-3.001-.001 1.5 1.5 0 013.001.001zm20 0a1.5 1.5 0 11-3.001-.001 1.5 1.5 0 013.001.001zm20 0a1.5 1.5 0 11-3.001-.001 1.5 1.5 0 013.001.001zm20 0a1.5 1.5 0 11-3.001-.001 1.5 1.5 0 013.001.001zm-540-560a1.5 1.5 0 11-3 0 1.5 1.5 0 013 0zm-20 20a1.5 1.5 0 11-3 0 1.5 1.5 0 013 0zm20 0a1.5 1.5 0 11-3 0 1.5 1.5 0 013 0zm-20 20a1.5 1.5 0 11-3 0 1.5 1.5 0 013 0zm20 0a1.5 1.5 0 11-3 0 1.5 1.5 0 013 0zm-20 20a1.5 1.5 0 11-3 0 1.5 1.5 0 013 0zm20 0a1.5 1.5 0 11-3 0 1.5 1.5 0 013 0zm200-180a1.5 1.5 0 11-3 0 1.5 1.5 0 013 0zm20 0a1.5 1.5 0 11-3 0 1.5 1.5 0 013 0zm20 0a1.5 1.5 0 11-3 0 1.5 1.5 0 013 0zm20 0a1.5 1.5 0 11-3 0 1.5 1.5 0 013 0zm20 0a1.5 1.5 0 11-3 0 1.5 1.5 0 013 0zm20 0a1.5 1.5 0 11-3 0 1.5 1.5 0 013 0zm-220 20a1.5 1.5 0 11-3 0 1.5 1.5 0 013 0zm20 0a1.5 1.5 0 11-3 0 1.5 1.5 0 013 0zm20 0a1.5 1.5 0 11-3 0 1.5 1.5 0 013 0zm20 0a1.5 1.5 0 11-3 0 1.5 1.5 0 013 0zm20 0a1.5 1.5 0 11-3 0 1.5 1.5 0 013 0zm20 0a1.5 1.5 0 11-3 0 1.5 1.5 0 013 0zm20 0a1.5 1.5 0 11-3 0 1.5 1.5 0 013 0zm20 0a1.5 1.5 0 11-3 0 1.5 1.5 0 013 0zm20 0a1.5 1.5 0 11-3 0 1.5 1.5 0 013 0zm20 0a1.5 1.5 0 11-3 0 1.5 1.5 0 013 0zm20 0a1.5 1.5 0 11-3 0 1.5 1.5 0 013 0zm20 0a1.5 1.5 0 11-3 0 1.5 1.5 0 013 0zm-240 20a1.5 1.5 0 11-3 0 1.5 1.5 0 013 0zm20 0a1.5 1.5 0 11-3 0 1.5 1.5 0 013 0zm20 0a1.5 1.5 0 11-3 0 1.5 1.5 0 013 0zm20 0a1.5 1.5 0 11-3 0 1.5 1.5 0 013 0zm20 0a1.5 1.5 0 11-3 0 1.5 1.5 0 013 0zm20 0a1.5 1.5 0 11-3 0 1.5 1.5 0 013 0zm20 0a1.5 1.5 0 11-3 0 1.5 1.5 0 013 0zm20 0a1.5 1.5 0 11-3 0 1.5 1.5 0 013 0zm20 0a1.5 1.5 0 11-3 0 1.5 1.5 0 013 0zm20 0a1.5 1.5 0 11-3 0 1.5 1.5 0 013 0zm20 0a1.5 1.5 0 11-3 0 1.5 1.5 0 013 0zm20 0a1.5 1.5 0 11-3 0 1.5 1.5 0 013 0zm20 0a1.5 1.5 0 11-3 0 1.5 1.5 0 013 0zm-260 20a1.5 1.5 0 11-3 0 1.5 1.5 0 013 0zm20 0a1.5 1.5 0 11-3 0 1.5 1.5 0 013 0zm20 0a1.5 1.5 0 11-3 0 1.5 1.5 0 013 0zm20 0a1.5 1.5 0 11-3 0 1.5 1.5 0 013 0zm20 0a1.5 1.5 0 11-3 0 1.5 1.5 0 013 0zm20 0a1.5 1.5 0 11-3 0 1.5 1.5 0 013 0zm20 0a1.5 1.5 0 11-3 0 1.5 1.5 0 013 0zm20 0a1.5 1.5 0 11-3 0 1.5 1.5 0 013 0zm20 0a1.5 1.5 0 11-3 0 1.5 1.5 0 013 0zm20 0a1.5 1.5 0 11-3 0 1.5 1.5 0 013 0zm20 0a1.5 1.5 0 11-3 0 1.5 1.5 0 013 0zm20 0a1.5 1.5 0 11-3 0 1.5 1.5 0 013 0zm20 0a1.5 1.5 0 11-3 0 1.5 1.5 0 013 0zm20 0a1.5 1.5 0 11-3 0 1.5 1.5 0 013 0zm-260 20a1.5 1.5 0 11-3 0 1.5 1.5 0 013 0zm20 0a1.5 1.5 0 11-3 0 1.5 1.5 0 013 0zm20 0a1.5 1.5 0 11-3 0 1.5 1.5 0 013 0zm20 0a1.5 1.5 0 11-3 0 1.5 1.5 0 013 0zm20 0a1.5 1.5 0 11-3 0 1.5 1.5 0 013 0zm20 0a1.5 1.5 0 11-3 0 1.5 1.5 0 013 0zm20 0a1.5 1.5 0 11-3 0 1.5 1.5 0 013 0zm20 0a1.5 1.5 0 11-3 0 1.5 1.5 0 013 0zm20 0a1.5 1.5 0 11-3 0 1.5 1.5 0 013 0zm20 0a1.5 1.5 0 11-3 0 1.5 1.5 0 013 0zm20 0a1.5 1.5 0 11-3 0 1.5 1.5 0 013 0zm20 0a1.5 1.5 0 11-3 0 1.5 1.5 0 013 0zm20 0a1.5 1.5 0 11-3 0 1.5 1.5 0 013 0zm20 0a1.5 1.5 0 11-3 0 1.5 1.5 0 013 0zm-280 20a1.5 1.5 0 11-3 0 1.5 1.5 0 013 0zm20 0a1.5 1.5 0 11-3 0 1.5 1.5 0 013 0zm20 0a1.5 1.5 0 11-3.001-.001 1.5 1.5 0 013.001.001zm20 0a1.5 1.5 0 11-3.001-.001 1.5 1.5 0 013.001.001zm20 0a1.5 1.5 0 11-3.001-.001 1.5 1.5 0 013.001.001zm20 0a1.5 1.5 0 11-3.001-.001 1.5 1.5 0 013.001.001zm20 0a1.5 1.5 0 11-3.001-.001 1.5 1.5 0 013.001.001zm20 0a1.5 1.5 0 11-3.001-.001 1.5 1.5 0 013.001.001zm20 0a1.5 1.5 0 11-3.001-.001 1.5 1.5 0 013.001.001zm20 0a1.5 1.5 0 11-3.001-.001 1.5 1.5 0 013.001.001zm20 0a1.5 1.5 0 11-3.001-.001 1.5 1.5 0 013.001.001zm20 0a1.5 1.5 0 11-3.001-.001 1.5 1.5 0 013.001.001zm20 0a1.5 1.5 0 11-3.001-.001 1.5 1.5 0 013.001.001zm20 0a1.5 1.5 0 11-3.001-.001 1.5 1.5 0 013.001.001zm20 0a1.5 1.5 0 11-3.001-.001 1.5 1.5 0 013.001.001zm-280 20a1.5 1.5 0 11-3 0 1.5 1.5 0 013 0zm20 0a1.5 1.5 0 11-3 0 1.5 1.5 0 013 0zm20 0a1.5 1.5 0 11-3.001-.001 1.5 1.5 0 013.001.001zm20 0a1.5 1.5 0 11-3.001-.001 1.5 1.5 0 013.001.001zm20 0a1.5 1.5 0 11-3.001-.001 1.5 1.5 0 013.001.001zm20 0a1.5 1.5 0 11-3.001-.001 1.5 1.5 0 013.001.001zm20 0a1.5 1.5 0 11-3.001-.001 1.5 1.5 0 013.001.001zm20 0a1.5 1.5 0 11-3.001-.001 1.5 1.5 0 013.001.001zm20 0a1.5 1.5 0 11-3.001-.001 1.5 1.5 0 013.001.001zm20 0a1.5 1.5 0 11-3.001-.001 1.5 1.5 0 013.001.001zm20 0a1.5 1.5 0 11-3.001-.001 1.5 1.5 0 013.001.001zm20 0a1.5 1.5 0 11-3.001-.001 1.5 1.5 0 013.001.001zm20 0a1.5 1.5 0 11-3.001-.001 1.5 1.5 0 013.001.001zm20 0a1.5 1.5 0 11-3.001-.001 1.5 1.5 0 013.001.001zm20 0a1.5 1.5 0 11-3.001-.001 1.5 1.5 0 013.001.001zm-280 20a1.5 1.5 0 11-3 0 1.5 1.5 0 013 0zm20 0a1.5 1.5 0 11-3 0 1.5 1.5 0 013 0zm20 0a1.5 1.5 0 11-3.001-.001 1.5 1.5 0 013.001.001zm20 0a1.5 1.5 0 11-3.001-.001 1.5 1.5 0 013.001.001zm20 0a1.5 1.5 0 11-3.001-.001 1.5 1.5 0 013.001.001zm20 0a1.5 1.5 0 11-3.001-.001 1.5 1.5 0 013.001.001zm20 0a1.5 1.5 0 11-3.001-.001 1.5 1.5 0 013.001.001zm20 0a1.5 1.5 0 11-3.001-.001 1.5 1.5 0 013.001.001zm20 0a1.5 1.5 0 11-3.001-.001 1.5 1.5 0 013.001.001zm20 0a1.5 1.5 0 11-3.001-.001 1.5 1.5 0 013.001.001zm20 0a1.5 1.5 0 11-3.001-.001 1.5 1.5 0 013.001.001zm20 0a1.5 1.5 0 11-3.001-.001 1.5 1.5 0 013.001.001zm20 0a1.5 1.5 0 11-3.001-.001 1.5 1.5 0 013.001.001zm20 0a1.5 1.5 0 11-3.001-.001 1.5 1.5 0 013.001.001zm20 0a1.5 1.5 0 11-3.001-.001 1.5 1.5 0 013.001.001zm-280 20a1.5 1.5 0 11-3 0 1.5 1.5 0 013 0zm20 0a1.5 1.5 0 11-3 0 1.5 1.5 0 013 0zm20 0a1.5 1.5 0 11-3.001-.001 1.5 1.5 0 013.001.001zm20 0a1.5 1.5 0 11-3.001-.001 1.5 1.5 0 013.001.001zm20 0a1.5 1.5 0 11-3.001-.001 1.5 1.5 0 013.001.001zm20 0a1.5 1.5 0 11-3.001-.001 1.5 1.5 0 013.001.001zm20 0a1.5 1.5 0 11-3.001-.001 1.5 1.5 0 013.001.001zm20 0a1.5 1.5 0 11-3.001-.001 1.5 1.5 0 013.001.001zm20 0a1.5 1.5 0 11-3.001-.001 1.5 1.5 0 013.001.001zm20 0a1.5 1.5 0 11-3.001-.001 1.5 1.5 0 013.001.001zm20 0a1.5 1.5 0 11-3.001-.001 1.5 1.5 0 013.001.001zm20 0a1.5 1.5 0 11-3.001-.001 1.5 1.5 0 013.001.001zm20 0a1.5 1.5 0 11-3.001-.001 1.5 1.5 0 013.001.001zm20 0a1.5 1.5 0 11-3.001-.001 1.5 1.5 0 013.001.001zm20 0a1.5 1.5 0 11-3.001-.001 1.5 1.5 0 013.001.001zm-280 20a1.5 1.5 0 11-3 0 1.5 1.5 0 013 0zm20 0a1.5 1.5 0 11-3 0 1.5 1.5 0 013 0zm20 0a1.5 1.5 0 11-3.001-.001 1.5 1.5 0 013.001.001zm20 0a1.5 1.5 0 11-3.001-.001 1.5 1.5 0 013.001.001zm20 0a1.5 1.5 0 11-3.001-.001 1.5 1.5 0 013.001.001zm20 0a1.5 1.5 0 11-3.001-.001 1.5 1.5 0 013.001.001zm20 0a1.5 1.5 0 11-3.001-.001 1.5 1.5 0 013.001.001zm20 0a1.5 1.5 0 11-3.001-.001 1.5 1.5 0 013.001.001zm20 0a1.5 1.5 0 11-3.001-.001 1.5 1.5 0 013.001.001zm20 0a1.5 1.5 0 11-3.001-.001 1.5 1.5 0 013.001.001zm20 0a1.5 1.5 0 11-3.001-.001 1.5 1.5 0 013.001.001zm20 0a1.5 1.5 0 11-3.001-.001 1.5 1.5 0 013.001.001zm20 0a1.5 1.5 0 11-3.001-.001 1.5 1.5 0 013.001.001zm20 0a1.5 1.5 0 11-3.001-.001 1.5 1.5 0 013.001.001zm20 0a1.5 1.5 0 11-3.001-.001 1.5 1.5 0 013.001.001zm20-180a1.5 1.5 0 11-3 0 1.5 1.5 0 013 0zm20 0a1.5 1.5 0 11-3 0 1.5 1.5 0 013 0zm20 0a1.5 1.5 0 11-3 0 1.5 1.5 0 013 0zm20 0a1.5 1.5 0 11-3 0 1.5 1.5 0 013 0zm20 0a1.5 1.5 0 11-3 0 1.5 1.5 0 013 0zm20 0a1.5 1.5 0 11-3 0 1.5 1.5 0 013 0zm20 0a1.5 1.5 0 11-3 0 1.5 1.5 0 013 0zm20 0a1.5 1.5 0 11-3 0 1.5 1.5 0 013 0zm20 0a1.5 1.5 0 11-3 0 1.5 1.5 0 013 0zm20 0a1.5 1.5 0 11-3 0 1.5 1.5 0 013 0zm20 0a1.5 1.5 0 11-3 0 1.5 1.5 0 013 0zm20 0a1.5 1.5 0 11-3 0 1.5 1.5 0 013 0zm20 0a1.5 1.5 0 11-3 0 1.5 1.5 0 013 0zm20 0a1.5 1.5 0 11-3 0 1.5 1.5 0 013 0zm20 0a1.5 1.5 0 11-3 0 1.5 1.5 0 013 0zm-280 20a1.5 1.5 0 11-3 0 1.5 1.5 0 013 0zm20 0a1.5 1.5 0 11-3 0 1.5 1.5 0 013 0zm20 0a1.5 1.5 0 11-3 0 1.5 1.5 0 013 0zm20 0a1.5 1.5 0 11-3 0 1.5 1.5 0 013 0zm20 0a1.5 1.5 0 11-3 0 1.5 1.5 0 013 0zm20 0a1.5 1.5 0 11-3 0 1.5 1.5 0 013 0zm20 0a1.5 1.5 0 11-3 0 1.5 1.5 0 013 0zm20 0a1.5 1.5 0 11-3 0 1.5 1.5 0 013 0zm20 0a1.5 1.5 0 11-3 0 1.5 1.5 0 013 0zm20 0a1.5 1.5 0 11-3 0 1.5 1.5 0 013 0zm20 0a1.5 1.5 0 11-3 0 1.5 1.5 0 013 0zm20 0a1.5 1.5 0 11-3 0 1.5 1.5 0 013 0zm20 0a1.5 1.5 0 11-3 0 1.5 1.5 0 013 0zm20 0a1.5 1.5 0 11-3 0 1.5 1.5 0 013 0zm20 0a1.5 1.5 0 11-3 0 1.5 1.5 0 013 0zm-280 20a1.5 1.5 0 11-3 0 1.5 1.5 0 013 0zm20 0a1.5 1.5 0 11-3 0 1.5 1.5 0 013 0zm20 0a1.5 1.5 0 11-3 0 1.5 1.5 0 013 0zm20 0a1.5 1.5 0 11-3 0 1.5 1.5 0 013 0zm20 0a1.5 1.5 0 11-3 0 1.5 1.5 0 013 0zm20 0a1.5 1.5 0 11-3 0 1.5 1.5 0 013 0zm20 0a1.5 1.5 0 11-3 0 1.5 1.5 0 013 0zm20 0a1.5 1.5 0 11-3 0 1.5 1.5 0 013 0zm20 0a1.5 1.5 0 11-3 0 1.5 1.5 0 013 0zm20 0a1.5 1.5 0 11-3 0 1.5 1.5 0 013 0zm20 0a1.5 1.5 0 11-3 0 1.5 1.5 0 013 0zm20 0a1.5 1.5 0 11-3 0 1.5 1.5 0 013 0zm20 0a1.5 1.5 0 11-3 0 1.5 1.5 0 013 0zm20 0a1.5 1.5 0 11-3 0 1.5 1.5 0 013 0zm20 0a1.5 1.5 0 11-3 0 1.5 1.5 0 013 0zm-280 20a1.5 1.5 0 11-3 0 1.5 1.5 0 013 0zm20 0a1.5 1.5 0 11-3 0 1.5 1.5 0 013 0zm20 0a1.5 1.5 0 11-3 0 1.5 1.5 0 013 0zm20 0a1.5 1.5 0 11-3 0 1.5 1.5 0 013 0zm20 0a1.5 1.5 0 11-3 0 1.5 1.5 0 013 0zm20 0a1.5 1.5 0 11-3 0 1.5 1.5 0 013 0zm20 0a1.5 1.5 0 11-3 0 1.5 1.5 0 013 0zm20 0a1.5 1.5 0 11-3 0 1.5 1.5 0 013 0zm20 0a1.5 1.5 0 11-3 0 1.5 1.5 0 013 0zm20 0a1.5 1.5 0 11-3 0 1.5 1.5 0 013 0zm20 0a1.5 1.5 0 11-3 0 1.5 1.5 0 013 0zm20 0a1.5 1.5 0 11-3 0 1.5 1.5 0 013 0zm20 0a1.5 1.5 0 11-3 0 1.5 1.5 0 013 0zm20 0a1.5 1.5 0 11-3 0 1.5 1.5 0 013 0zm20 0a1.5 1.5 0 11-3 0 1.5 1.5 0 013 0zm-280 20a1.5 1.5 0 11-3 0 1.5 1.5 0 013 0zm20 0a1.5 1.5 0 11-3 0 1.5 1.5 0 013 0zm20 0a1.5 1.5 0 11-3 0 1.5 1.5 0 013 0zm20 0a1.5 1.5 0 11-3 0 1.5 1.5 0 013 0zm20 0a1.5 1.5 0 11-3 0 1.5 1.5 0 013 0zm20 0a1.5 1.5 0 11-3 0 1.5 1.5 0 013 0zm20 0a1.5 1.5 0 11-3 0 1.5 1.5 0 013 0zm20 0a1.5 1.5 0 11-3 0 1.5 1.5 0 013 0zm20 0a1.5 1.5 0 11-3 0 1.5 1.5 0 013 0zm20 0a1.5 1.5 0 11-3 0 1.5 1.5 0 013 0zm20 0a1.5 1.5 0 11-3 0 1.5 1.5 0 013 0zm20 0a1.5 1.5 0 11-3 0 1.5 1.5 0 013 0zm20 0a1.5 1.5 0 11-3 0 1.5 1.5 0 013 0zm20 0a1.5 1.5 0 11-3 0 1.5 1.5 0 013 0zm20 0a1.5 1.5 0 11-3 0 1.5 1.5 0 013 0zm-280 20a1.5 1.5 0 11-3.001-.001 1.5 1.5 0 013.001.001zm20 0a1.5 1.5 0 11-3.001-.001 1.5 1.5 0 013.001.001zm20 0a1.5 1.5 0 11-3.001-.001 1.5 1.5 0 013.001.001zm20 0a1.5 1.5 0 11-3.001-.001 1.5 1.5 0 013.001.001zm20 0a1.5 1.5 0 11-3.001-.001 1.5 1.5 0 013.001.001zm20 0a1.5 1.5 0 11-3.001-.001 1.5 1.5 0 013.001.001zm20 0a1.5 1.5 0 11-3.001-.001 1.5 1.5 0 013.001.001zm20 0a1.5 1.5 0 11-3.001-.001 1.5 1.5 0 013.001.001zm20 0a1.5 1.5 0 11-3.001-.001 1.5 1.5 0 013.001.001zm20 0a1.5 1.5 0 11-3.001-.001 1.5 1.5 0 013.001.001zm20 0a1.5 1.5 0 11-3.001-.001 1.5 1.5 0 013.001.001zm20 0a1.5 1.5 0 11-3.001-.001 1.5 1.5 0 013.001.001zm20 0a1.5 1.5 0 11-3.001-.001 1.5 1.5 0 013.001.001zm20 0a1.5 1.5 0 11-3.001-.001 1.5 1.5 0 013.001.001zm20 0a1.5 1.5 0 11-3.001-.001 1.5 1.5 0 013.001.001zm-280 20a1.5 1.5 0 11-3.001-.001 1.5 1.5 0 013.001.001zm20 0a1.5 1.5 0 11-3.001-.001 1.5 1.5 0 013.001.001zm20 0a1.5 1.5 0 11-3.001-.001 1.5 1.5 0 013.001.001zm20 0a1.5 1.5 0 11-3.001-.001 1.5 1.5 0 013.001.001zm20 0a1.5 1.5 0 11-3.001-.001 1.5 1.5 0 013.001.001zm20 0a1.5 1.5 0 11-3.001-.001 1.5 1.5 0 013.001.001zm20 0a1.5 1.5 0 11-3.001-.001 1.5 1.5 0 013.001.001zm20 0a1.5 1.5 0 11-3.001-.001 1.5 1.5 0 013.001.001zm20 0a1.5 1.5 0 11-3.001-.001 1.5 1.5 0 013.001.001zm20 0a1.5 1.5 0 11-3.001-.001 1.5 1.5 0 013.001.001zm20 0a1.5 1.5 0 11-3.001-.001 1.5 1.5 0 013.001.001zm20 0a1.5 1.5 0 11-3.001-.001 1.5 1.5 0 013.001.001zm20 0a1.5 1.5 0 11-3.001-.001 1.5 1.5 0 013.001.001zm20 0a1.5 1.5 0 11-3.001-.001 1.5 1.5 0 013.001.001zm20 0a1.5 1.5 0 11-3.001-.001 1.5 1.5 0 013.001.001zm-280 20a1.5 1.5 0 11-3.001-.001 1.5 1.5 0 013.001.001zm20 0a1.5 1.5 0 11-3.001-.001 1.5 1.5 0 013.001.001zm20 0a1.5 1.5 0 11-3.001-.001 1.5 1.5 0 013.001.001zm20 0a1.5 1.5 0 11-3.001-.001 1.5 1.5 0 013.001.001zm20 0a1.5 1.5 0 11-3.001-.001 1.5 1.5 0 013.001.001zm20 0a1.5 1.5 0 11-3.001-.001 1.5 1.5 0 013.001.001zm20 0a1.5 1.5 0 11-3.001-.001 1.5 1.5 0 013.001.001zm20 0a1.5 1.5 0 11-3.001-.001 1.5 1.5 0 013.001.001zm20 0a1.5 1.5 0 11-3.001-.001 1.5 1.5 0 013.001.001zm20 0a1.5 1.5 0 11-3.001-.001 1.5 1.5 0 013.001.001zm20 0a1.5 1.5 0 11-3.001-.001 1.5 1.5 0 013.001.001zm20 0a1.5 1.5 0 11-3.001-.001 1.5 1.5 0 013.001.001zm20 0a1.5 1.5 0 11-3.001-.001 1.5 1.5 0 013.001.001zm20 0a1.5 1.5 0 11-3.001-.001 1.5 1.5 0 013.001.001zm20 0a1.5 1.5 0 11-3.001-.001 1.5 1.5 0 013.001.001zm-280 20a1.5 1.5 0 11-3.001-.001 1.5 1.5 0 013.001.001zm20 0a1.5 1.5 0 11-3.001-.001 1.5 1.5 0 013.001.001zm20 0a1.5 1.5 0 11-3.001-.001 1.5 1.5 0 013.001.001zm20 0a1.5 1.5 0 11-3.001-.001 1.5 1.5 0 013.001.001zm20 0a1.5 1.5 0 11-3.001-.001 1.5 1.5 0 013.001.001zm20 0a1.5 1.5 0 11-3.001-.001 1.5 1.5 0 013.001.001zm20 0a1.5 1.5 0 11-3.001-.001 1.5 1.5 0 013.001.001zm20 0a1.5 1.5 0 11-3.001-.001 1.5 1.5 0 013.001.001zm20 0a1.5 1.5 0 11-3.001-.001 1.5 1.5 0 013.001.001zm20 0a1.5 1.5 0 11-3.001-.001 1.5 1.5 0 013.001.001zm20 0a1.5 1.5 0 11-3.001-.001 1.5 1.5 0 013.001.001zm20 0a1.5 1.5 0 11-3.001-.001 1.5 1.5 0 013.001.001zm20 0a1.5 1.5 0 11-3.001-.001 1.5 1.5 0 013.001.001zm20 0a1.5 1.5 0 11-3.001-.001 1.5 1.5 0 013.001.001zm20 0a1.5 1.5 0 11-3.001-.001 1.5 1.5 0 013.001.001zm-280 20a1.5 1.5 0 11-3.001-.001 1.5 1.5 0 013.001.001zm20 0a1.5 1.5 0 11-3.001-.001 1.5 1.5 0 013.001.001zm20 0a1.5 1.5 0 11-3.001-.001 1.5 1.5 0 013.001.001zm20 0a1.5 1.5 0 11-3.001-.001 1.5 1.5 0 013.001.001zm20 0a1.5 1.5 0 11-3.001-.001 1.5 1.5 0 013.001.001zm20 0a1.5 1.5 0 11-3.001-.001 1.5 1.5 0 013.001.001zm20 0a1.5 1.5 0 11-3.001-.001 1.5 1.5 0 013.001.001zm20 0a1.5 1.5 0 11-3.001-.001 1.5 1.5 0 013.001.001zm20 0a1.5 1.5 0 11-3.001-.001 1.5 1.5 0 013.001.001zm20 0a1.5 1.5 0 11-3.001-.001 1.5 1.5 0 013.001.001zm20 0a1.5 1.5 0 11-3.001-.001 1.5 1.5 0 013.001.001zm20 0a1.5 1.5 0 11-3.001-.001 1.5 1.5 0 013.001.001zm20 0a1.5 1.5 0 11-3.001-.001 1.5 1.5 0 013.001.001zm20 0a1.5 1.5 0 11-3.001-.001 1.5 1.5 0 013.001.001zm20 0a1.5 1.5 0 11-3.001-.001 1.5 1.5 0 013.001.001zm20-180a1.5 1.5 0 11-3 0 1.5 1.5 0 013 0zm20 0a1.5 1.5 0 11-3 0 1.5 1.5 0 013 0zm20 0a1.5 1.5 0 11-3 0 1.5 1.5 0 013 0zm20 0a1.5 1.5 0 11-3 0 1.5 1.5 0 013 0zm20 0a1.5 1.5 0 11-3 0 1.5 1.5 0 013 0zm20 0a1.5 1.5 0 11-3 0 1.5 1.5 0 013 0zm20 0a1.5 1.5 0 11-3 0 1.5 1.5 0 013 0zm-120 20a1.5 1.5 0 11-3 0 1.5 1.5 0 013 0zm20 0a1.5 1.5 0 11-3 0 1.5 1.5 0 013 0zm20 0a1.5 1.5 0 11-3 0 1.5 1.5 0 013 0zm20 0a1.5 1.5 0 11-3 0 1.5 1.5 0 013 0zm20 0a1.5 1.5 0 11-3 0 1.5 1.5 0 013 0zm20 0a1.5 1.5 0 11-3 0 1.5 1.5 0 013 0zm20 0a1.5 1.5 0 11-3 0 1.5 1.5 0 013 0zm20 0a1.5 1.5 0 11-3 0 1.5 1.5 0 013 0zm-140 20a1.5 1.5 0 11-3 0 1.5 1.5 0 013 0zm20 0a1.5 1.5 0 11-3 0 1.5 1.5 0 013 0zm20 0a1.5 1.5 0 11-3 0 1.5 1.5 0 013 0zm20 0a1.5 1.5 0 11-3 0 1.5 1.5 0 013 0zm20 0a1.5 1.5 0 11-3 0 1.5 1.5 0 013 0zm20 0a1.5 1.5 0 11-3 0 1.5 1.5 0 013 0zm20 0a1.5 1.5 0 11-3 0 1.5 1.5 0 013 0zm20 0a1.5 1.5 0 11-3 0 1.5 1.5 0 013 0zm20 0a1.5 1.5 0 11-3 0 1.5 1.5 0 013 0zm-160 20a1.5 1.5 0 11-3 0 1.5 1.5 0 013 0zm20 0a1.5 1.5 0 11-3 0 1.5 1.5 0 013 0zm20 0a1.5 1.5 0 11-3 0 1.5 1.5 0 013 0zm20 0a1.5 1.5 0 11-3 0 1.5 1.5 0 013 0zm20 0a1.5 1.5 0 11-3 0 1.5 1.5 0 013 0zm20 0a1.5 1.5 0 11-3 0 1.5 1.5 0 013 0zm20 0a1.5 1.5 0 11-3 0 1.5 1.5 0 013 0zm20 0a1.5 1.5 0 11-3 0 1.5 1.5 0 013 0zm20 0a1.5 1.5 0 11-3 0 1.5 1.5 0 013 0zm-160 20a1.5 1.5 0 11-3 0 1.5 1.5 0 013 0zm20 0a1.5 1.5 0 11-3 0 1.5 1.5 0 013 0zm20 0a1.5 1.5 0 11-3 0 1.5 1.5 0 013 0zm20 0a1.5 1.5 0 11-3 0 1.5 1.5 0 013 0zm20 0a1.5 1.5 0 11-3 0 1.5 1.5 0 013 0zm20 0a1.5 1.5 0 11-3 0 1.5 1.5 0 013 0zm20 0a1.5 1.5 0 11-3 0 1.5 1.5 0 013 0zm20 0a1.5 1.5 0 11-3 0 1.5 1.5 0 013 0zm20 0a1.5 1.5 0 11-3 0 1.5 1.5 0 013 0zm-160 20a1.5 1.5 0 11-3.001-.001 1.5 1.5 0 013.001.001zm20 0a1.5 1.5 0 11-3.001-.001 1.5 1.5 0 013.001.001zm20 0a1.5 1.5 0 11-3.001-.001 1.5 1.5 0 013.001.001zm20 0a1.5 1.5 0 11-3.001-.001 1.5 1.5 0 013.001.001zm20 0a1.5 1.5 0 11-3.001-.001 1.5 1.5 0 013.001.001zm20 0a1.5 1.5 0 11-3.001-.001 1.5 1.5 0 013.001.001zm20 0a1.5 1.5 0 11-3.001-.001 1.5 1.5 0 013.001.001zm20 0a1.5 1.5 0 11-3.001-.001 1.5 1.5 0 013.001.001zm20 0a1.5 1.5 0 11-3.001-.001 1.5 1.5 0 013.001.001zm-160 20a1.5 1.5 0 11-3.001-.001 1.5 1.5 0 013.001.001zm20 0a1.5 1.5 0 11-3.001-.001 1.5 1.5 0 013.001.001zm20 0a1.5 1.5 0 11-3.001-.001 1.5 1.5 0 013.001.001zm20 0a1.5 1.5 0 11-3.001-.001 1.5 1.5 0 013.001.001zm20 0a1.5 1.5 0 11-3.001-.001 1.5 1.5 0 013.001.001zm20 0a1.5 1.5 0 11-3.001-.001 1.5 1.5 0 013.001.001zm20 0a1.5 1.5 0 11-3.001-.001 1.5 1.5 0 013.001.001zm20 0a1.5 1.5 0 11-3.001-.001 1.5 1.5 0 013.001.001zm20 0a1.5 1.5 0 11-3.001-.001 1.5 1.5 0 013.001.001zm-160 20a1.5 1.5 0 11-3.001-.001 1.5 1.5 0 013.001.001zm20 0a1.5 1.5 0 11-3.001-.001 1.5 1.5 0 013.001.001zm20 0a1.5 1.5 0 11-3.001-.001 1.5 1.5 0 013.001.001zm20 0a1.5 1.5 0 11-3.001-.001 1.5 1.5 0 013.001.001zm20 0a1.5 1.5 0 11-3.001-.001 1.5 1.5 0 013.001.001zm20 0a1.5 1.5 0 11-3.001-.001 1.5 1.5 0 013.001.001zm20 0a1.5 1.5 0 11-3.001-.001 1.5 1.5 0 013.001.001zm20 0a1.5 1.5 0 11-3.001-.001 1.5 1.5 0 013.001.001zm20 0a1.5 1.5 0 11-3.001-.001 1.5 1.5 0 013.001.001zm-160 20a1.5 1.5 0 11-3.001-.001 1.5 1.5 0 013.001.001zm20 0a1.5 1.5 0 11-3.001-.001 1.5 1.5 0 013.001.001zm20 0a1.5 1.5 0 11-3.001-.001 1.5 1.5 0 013.001.001zm20 0a1.5 1.5 0 11-3.001-.001 1.5 1.5 0 013.001.001zm20 0a1.5 1.5 0 11-3.001-.001 1.5 1.5 0 013.001.001zm20 0a1.5 1.5 0 11-3.001-.001 1.5 1.5 0 013.001.001zm20 0a1.5 1.5 0 11-3.001-.001 1.5 1.5 0 013.001.001zm20 0a1.5 1.5 0 11-3.001-.001 1.5 1.5 0 013.001.001zm20 0a1.5 1.5 0 11-3.001-.001 1.5 1.5 0 013.001.001zm-160 20a1.5 1.5 0 11-3.001-.001 1.5 1.5 0 013.001.001zm20 0a1.5 1.5 0 11-3.001-.001 1.5 1.5 0 013.001.001zm20 0a1.5 1.5 0 11-3.001-.001 1.5 1.5 0 013.001.001zm20 0a1.5 1.5 0 11-3.001-.001 1.5 1.5 0 013.001.001zm20 0a1.5 1.5 0 11-3.001-.001 1.5 1.5 0 013.001.001zm20 0a1.5 1.5 0 11-3.001-.001 1.5 1.5 0 013.001.001zm20 0a1.5 1.5 0 11-3.001-.001 1.5 1.5 0 013.001.001zm20 0a1.5 1.5 0 11-3.001-.001 1.5 1.5 0 013.001.001zm20 0a1.5 1.5 0 11-3.001-.001 1.5 1.5 0 013.001.001zm-820 20a1.5 1.5 0 11-3 0 1.5 1.5 0 013 0zm0 20a1.5 1.5 0 11-3 0 1.5 1.5 0 013 0zm0 20a1.5 1.5 0 11-3 0 1.5 1.5 0 013 0zm0 20a1.5 1.5 0 11-3 0 1.5 1.5 0 013 0zm0 20a1.5 1.5 0 11-3 0 1.5 1.5 0 013 0zm0 20a1.5 1.5 0 11-3 0 1.5 1.5 0 013 0zm0 20a1.5 1.5 0 11-3 0 1.5 1.5 0 013 0zm0 20a1.5 1.5 0 11-3 0 1.5 1.5 0 013 0zm0 20a1.5 1.5 0 11-3 0 1.5 1.5 0 013 0zm0 20a1.5 1.5 0 11-3 0 1.5 1.5 0 013 0zm0 20a1.5 1.5 0 11-3 0 1.5 1.5 0 013 0zm0 20a1.5 1.5 0 11-3 0 1.5 1.5 0 013 0zm0 20a1.5 1.5 0 11-3 0 1.5 1.5 0 013 0zm0 20a1.5 1.5 0 11-3 0 1.5 1.5 0 013 0zm0 20a1.5 1.5 0 11-3 0 1.5 1.5 0 013 0zm0 20a1.5 1.5 0 11-3 0 1.5 1.5 0 013 0zm0-340a1.5 1.5 0 11-3 0 1.5 1.5 0 013 0zm0 20a1.5 1.5 0 11-3 0 1.5 1.5 0 013 0z" opacity=".1" fill="#000"/><g filter="url(#filter0_d)"><path d="M144.784 398.784c15.621-15.621 40.948-15.621 56.569 0l70.71 70.711c15.621 15.621 15.621 40.947 0 56.568-15.621 15.621-40.947 15.621-56.568 0l-70.711-70.71c-15.621-15.621-15.621-40.948 0-56.569z" fill="url(#paint0_linear)"/></g><g filter="url(#filter1_d)"><path d="M433.925 91.925c41.655-41.656 109.193-41.656 150.849 0l168.562 168.561c41.656 41.656 41.656 109.194 0 150.85-41.656 41.656-109.194 41.656-150.85 0L433.925 242.774c-41.656-41.656-41.656-109.194 0-150.85z" fill="url(#paint1_linear)"/></g><g filter="url(#filter2_d)"><path d="M140.496 66.496c48.598-48.599 127.392-48.599 175.991 0l219.989 219.989c48.598 48.598 48.598 127.392 0 175.991-48.599 48.598-127.393 48.598-175.991 0L140.496 242.487c-48.599-48.599-48.599-127.393 0-175.991z" fill="url(#paint2_linear)"/></g><g filter="url(#filter3_d)"><path d="M215.642 520.642c7.811-7.81 20.474-7.81 28.284 0l35.356 35.355c7.81 7.811 7.81 20.474 0 28.285-7.811 7.81-20.474 7.81-28.285 0l-35.355-35.356c-7.81-7.81-7.81-20.473 0-28.284z" fill="url(#paint3_linear)"/></g><g filter="url(#filter4_d)"><path d="M727.642 89.642c7.811-7.81 20.474-7.81 28.284 0l35.356 35.355c7.81 7.811 7.81 20.474 0 28.285-7.811 7.81-20.474 7.81-28.285 0l-35.355-35.356c-7.81-7.81-7.81-20.474 0-28.284z" fill="url(#paint4_linear)"/></g><g filter="url(#filter5_d)"><path d="M717.642 407.642c7.811-7.81 20.474-7.81 28.284 0l35.356 35.355c7.81 7.811 7.81 20.474 0 28.285-7.811 7.81-20.474 7.81-28.285 0l-35.355-35.356c-7.81-7.81-7.81-20.473 0-28.284z" fill="url(#paint5_linear)"/></g><g filter="url(#filter6_d)"><path d="M327.352 335.144c31.242-31.242 81.895-31.242 113.137 0l141.422 141.422c31.242 31.242 31.242 81.895 0 113.137-31.242 31.242-81.895 31.242-113.137 0L327.352 448.281c-31.242-31.242-31.242-81.895 0-113.137z" fill="url(#paint6_linear)"/></g><g filter="url(#filter7_d)"><path d="M640.166 435.285c15.621-15.621 40.947-15.621 56.568 0l70.711 70.711c15.621 15.621 15.621 40.947 0 56.568-15.621 15.621-40.947 15.621-56.568 0l-70.711-70.71c-15.621-15.621-15.621-40.948 0-56.569z" fill="url(#paint7_linear)"/></g><defs><linearGradient id="paint0_linear" x1="269.853" y1="523.348" x2="147.706" y2="400.494" gradientUnits="userSpaceOnUse"><stop stop-color="#4FD3A4"/><stop offset="1" stop-color="#68EEBE"/></linearGradient><linearGradient id="paint1_linear" x1="767.442" y1="424.095" x2="441.716" y2="96.485" gradientUnits="userSpaceOnUse"><stop stop-color="#4FD3A4"/><stop offset="1" stop-color="#68EEBE"/></linearGradient><linearGradient id="paint2_linear" x1="529.6" y1="454.027" x2="149.586" y2="71.817" gradientUnits="userSpaceOnUse"><stop stop-color="#4FD3A4"/><stop offset="1" stop-color="#68EEBE"/></linearGradient><linearGradient id="paint3_linear" x1="278.177" y1="582.924" x2="217.103" y2="521.497" gradientUnits="userSpaceOnUse"><stop stop-color="#4FD3A4"/><stop offset="1" stop-color="#68EEBE"/></linearGradient><linearGradient id="paint4_linear" x1="790.177" y1="151.924" x2="729.103" y2="90.497" gradientUnits="userSpaceOnUse"><stop stop-color="#4FD3A4"/><stop offset="1" stop-color="#68EEBE"/></linearGradient><linearGradient id="paint5_linear" x1="780.177" y1="469.924" x2="719.103" y2="408.497" gradientUnits="userSpaceOnUse"><stop stop-color="#4FD3A4"/><stop offset="1" stop-color="#68EEBE"/></linearGradient><linearGradient id="paint6_linear" x1="577.491" y1="584.272" x2="333.196" y2="338.565" gradientUnits="userSpaceOnUse"><stop stop-color="#4FD3A4"/><stop offset="1" stop-color="#68EEBE"/></linearGradient><linearGradient id="paint7_linear" x1="765.235" y1="559.849" x2="643.088" y2="436.995" gradientUnits="userSpaceOnUse"><stop stop-color="#4FD3A4"/><stop offset="1" stop-color="#68EEBE"/></linearGradient><filter id="filter0_d" x="88.068" y="357.068" width="240.711" height="240.711" filterUnits="userSpaceOnUse" color-interpolation-filters="sRGB"><feFlood flood-opacity="0" result="BackgroundImageFix"/><feColorMatrix in="SourceAlpha" values="0 0 0 0 0 0 0 0 0 0 0 0 0 0 0 0 0 0 127 0"/><feOffset dy="15"/><feGaussianBlur stdDeviation="22.5"/><feColorMatrix values="0 0 0 0 0.309804 0 0 0 0 0.831373 0 0 0 0 0.643137 0 0 0 0.5 0"/><feBlend in2="BackgroundImageFix" result="effect1_dropShadow"/><feBlend in="SourceGraphic" in2="effect1_dropShadow" result="shape"/></filter><filter id="filter1_d" x="357.683" y="30.683" width="471.895" height="471.895" filterUnits="userSpaceOnUse" color-interpolation-filters="sRGB"><feFlood flood-opacity="0" result="BackgroundImageFix"/><feColorMatrix in="SourceAlpha" values="0 0 0 0 0 0 0 0 0 0 0 0 0 0 0 0 0 0 127 0"/><feOffset dy="15"/><feGaussianBlur stdDeviation="22.5"/><feColorMatrix values="0 0 0 0 0.309804 0 0 0 0 0.831373 0 0 0 0 0.643137 0 0 0 0.5 0"/><feBlend in2="BackgroundImageFix" result="effect1_dropShadow"/><feBlend in="SourceGraphic" in2="effect1_dropShadow" result="shape"/></filter><filter id="filter2_d" x="59.047" y=".047" width="558.878" height="558.878" filterUnits="userSpaceOnUse" color-interpolation-filters="sRGB"><feFlood flood-opacity="0" result="BackgroundImageFix"/><feColorMatrix in="SourceAlpha" values="0 0 0 0 0 0 0 0 0 0 0 0 0 0 0 0 0 0 127 0"/><feOffset dy="15"/><feGaussianBlur stdDeviation="22.5"/><feColorMatrix values="0 0 0 0 0.309804 0 0 0 0 0.831373 0 0 0 0 0.643137 0 0 0 0.5 0"/><feBlend in2="BackgroundImageFix" result="effect1_dropShadow"/><feBlend in="SourceGraphic" in2="effect1_dropShadow" result="shape"/></filter><filter id="filter3_d" x="164.784" y="484.784" width="165.355" height="165.355" filterUnits="userSpaceOnUse" color-interpolation-filters="sRGB"><feFlood flood-opacity="0" result="BackgroundImageFix"/><feColorMatrix in="SourceAlpha" values="0 0 0 0 0 0 0 0 0 0 0 0 0 0 0 0 0 0 127 0"/><feOffset dy="15"/><feGaussianBlur stdDeviation="22.5"/><feColorMatrix values="0 0 0 0 0.309804 0 0 0 0 0.831373 0 0 0 0 0.643137 0 0 0 0.5 0"/><feBlend in2="BackgroundImageFix" result="effect1_dropShadow"/><feBlend in="SourceGraphic" in2="effect1_dropShadow" result="shape"/></filter><filter id="filter4_d" x="676.784" y="53.784" width="165.355" height="165.355" filterUnits="userSpaceOnUse" color-interpolation-filters="sRGB"><feFlood flood-opacity="0" result="BackgroundImageFix"/><feColorMatrix in="SourceAlpha" values="0 0 0 0 0 0 0 0 0 0 0 0 0 0 0 0 0 0 127 0"/><feOffset dy="15"/><feGaussianBlur stdDeviation="22.5"/><feColorMatrix values="0 0 0 0 0.309804 0 0 0 0 0.831373 0 0 0 0 0.643137 0 0 0 0.5 0"/><feBlend in2="BackgroundImageFix" result="effect1_dropShadow"/><feBlend in="SourceGraphic" in2="effect1_dropShadow" result="shape"/></filter><filter id="filter5_d" x="666.784" y="371.784" width="165.355" height="165.355" filterUnits="userSpaceOnUse" color-interpolation-filters="sRGB"><feFlood flood-opacity="0" result="BackgroundImageFix"/><feColorMatrix in="SourceAlpha" values="0 0 0 0 0 0 0 0 0 0 0 0 0 0 0 0 0 0 127 0"/><feOffset dy="15"/><feGaussianBlur stdDeviation="22.5"/><feColorMatrix values="0 0 0 0 0.309804 0 0 0 0 0.831373 0 0 0 0 0.643137 0 0 0 0.5 0"/><feBlend in2="BackgroundImageFix" result="effect1_dropShadow"/><feBlend in="SourceGraphic" in2="effect1_dropShadow" result="shape"/></filter><filter id="filter6_d" x="258.921" y="281.713" width="391.421" height="391.421" filterUnits="userSpaceOnUse" color-interpolation-filters="sRGB"><feFlood flood-opacity="0" result="BackgroundImageFix"/><feColorMatrix in="SourceAlpha" values="0 0 0 0 0 0 0 0 0 0 0 0 0 0 0 0 0 0 127 0"/><feOffset dy="15"/><feGaussianBlur stdDeviation="22.5"/><feColorMatrix values="0 0 0 0 0.309804 0 0 0 0 0.831373 0 0 0 0 0.643137 0 0 0 0.5 0"/><feBlend in2="BackgroundImageFix" result="effect1_dropShadow"/><feBlend in="SourceGraphic" in2="effect1_dropShadow" result="shape"/></filter><filter id="filter7_d" x="583.45" y="393.569" width="240.711" height="240.711" filterUnits="userSpaceOnUse" color-interpolation-filters="sRGB"><feFlood flood-opacity="0" result="BackgroundImageFix"/><feColorMatrix in="SourceAlpha" values="0 0 0 0 0 0 0 0 0 0 0 0 0 0 0 0 0 0 127 0"/><feOffset dy="15"/><feGaussianBlur stdDeviation="22.5"/><feColorMatrix values="0 0 0 0 0.309804 0 0 0 0 0.831373 0 0 0 0 0.643137 0 0 0 0.5 0"/><feBlend in2="BackgroundImageFix" result="effect1_dropShadow"/><feBlend in="SourceGraphic" in2="effect1_dropShadow" result="shape"/></filter></defs></svg>