<svg width="28" height="41" xmlns="http://www.w3.org/2000/svg"><g fill="#FFF" fill-rule="evenodd"><path d="M22.87 18.745l-6.414 1.347c-1.093.23-2.157-.768-2.372-2.223l-.046-.307c-.215-1.456.498-2.827 1.591-3.057l6.414-1.347c1.093-.23 2.158.768 2.373 2.224l.046.306c.215 1.456-.499 2.827-1.592 3.057M17.54 35.255c-.227-1.32.527-2.563 1.682-2.771l5.298-.954c1.156-.208 2.28.697 2.509 2.017l.055.322c.228 1.32-.526 2.564-1.681 2.772l-5.299.954c-1.155.208-2.28-.697-2.508-2.017l-.055-.323M17.352 32.345c-1.098.211-2.169-.709-2.385-2.052l-.053-.33c-.217-1.344.501-2.609 1.6-2.82l9.01-1.738c1.098-.211 2.168.71 2.384 2.052l.053.331c.217 1.343-.5 2.608-1.599 2.82l-9.01 1.737M26.342 24.368l-9.844 1.852c-1.111.209-2.193-.7-2.413-2.026l-.046-.279c-.22-1.326.507-2.574 1.618-2.783l9.844-1.852c1.112-.21 2.195.7 2.414 2.025l.046.279c.22 1.326-.507 2.575-1.62 2.784"/><path d="M0 22.727c.001-2.176.954-4.175 2.549-5.347 1.64-1.204 2.588-3.553 2.776-5.226.26-2.321.096-6.698.043-8.136C5.311 2.474 6.628.404 8.414.048l.06-.012c1.574-.278 3.494 1.097 3.953 2.83.679 2.555.561 8.538-.033 10.822-.216.828 1.475 1.422 1.492 1.427a.176.176 0 0 1 .11.123.204.204 0 0 1-.028.171 3.32 3.32 0 0 0-.545 2.405l.046.295c.138.892.62 1.658 1.318 2.103.057.036.09.107.083.18a.182.182 0 0 1-.114.16c-1.263.454-2.043 1.911-1.814 3.39l.046.294.002.02c.175 1.075.852 1.96 1.77 2.312a.18.18 0 0 1 .11.144.2.2 0 0 1-.06.178c-.76.69-1.13 1.793-.96 2.876l.054.345c.255 1.636 1.64 2.732 3.085 2.444l.417-.083c.068-.014.135.021.17.088.035.066.03.15-.012.21a3.314 3.314 0 0 0-.539 2.395l.054.344c.13.839.575 1.58 1.218 2.033.058.04.088.118.075.194-.013.075-.066.134-.133.147L6.565 40.212l-.01.001c-1.785.246-2.873-.727-3.756-3.36C1.648 33.421 0 25.103 0 22.727"/><path d="M0 22.727c.001-2.176.954-4.175 2.549-5.347 1.64-1.204 2.588-3.553 2.776-5.226.26-2.322.096-6.698.043-8.136C5.311 2.474 6.628.404 8.414.048l.06-.012c1.574-.278 3.494 1.097 3.953 2.83.679 2.555.561 8.538-.033 10.822-.216.828 1.475 1.422 1.493 1.427a.177.177 0 0 1 .11.123.205.205 0 0 1-.029.171 3.32 3.32 0 0 0-.545 2.405l.046.295c.139.891.62 1.658 1.318 2.103.057.036.09.108.083.18a.183.183 0 0 1-.114.16c-1.263.454-2.043 1.911-1.814 3.389l.046.296.002.018c.175 1.076.852 1.961 1.77 2.314a.18.18 0 0 1 .11.143.2.2 0 0 1-.06.177c-.76.692-1.13 1.794-.96 2.876l.054.346c.255 1.636 1.64 2.732 3.085 2.444l.417-.083a.158.158 0 0 1 .17.087c.035.066.03.15-.012.21a3.315 3.315 0 0 0-.539 2.396l.054.343c.13.84.575 1.58 1.219 2.034.057.04.087.117.074.193a.177.177 0 0 1-.133.148l-11.675 2.33h-.008c-1.785.246-2.874-.727-3.756-3.36C1.649 33.421 0 25.103 0 22.727"/><path d="M2.52 17.512c1.656-1.207 2.69-3.545 2.9-5.409.246-2.177.127-6.074.045-8.244C5.408 2.333 6.738.34 8.488.034c1.51-.266 3.396 1.07 3.838 2.725.662 2.472.585 8.458-.034 10.815-.274 1.041 1.632 1.674 1.632 1.674-.497.7-.739 1.624-.589 2.577l.047.298c.156.991.699 1.795 1.425 2.253-1.354.484-2.214 2.022-1.961 3.633l.046.298c.19 1.204.952 2.132 1.916 2.499-.794.715-1.227 1.88-1.038 3.082l.055.349c.277 1.755 1.768 2.928 3.335 2.618l.425-.084a3.511 3.511 0 0 0-.582 2.567l.054.346c.149.942.646 1.712 1.318 2.18l-11.887 2.35c-1.637.224-2.738-.582-3.648-3.271C1.653 33.436 0 25.117 0 22.75c0-2.325 1.083-4.194 2.52-5.24"/></g></svg>