<svg width="163" height="22" viewBox="0 0 163 22" fill="none" xmlns="http://www.w3.org/2000/svg">
<path d="M30.5179 2.51807H32.7296V13.7658C32.7296 16.7457 31.4283 18.8022 28.3787 18.8022C27.4769 18.8158 26.5794 18.6739 25.7257 18.3825V16.228C26.454 16.5109 27.229 16.6533 28.0101 16.6477C29.8783 16.6477 30.5234 15.5286 30.5234 13.9141L30.5179 2.51807Z" fill="#253858"/>
<path d="M36.7594 1.65367C36.9567 1.63953 37.1546 1.66804 37.3399 1.73729C37.5252 1.80653 37.6935 1.91487 37.8334 2.05498C37.9732 2.19509 38.0813 2.36368 38.1504 2.54934C38.2196 2.73499 38.248 2.93335 38.2339 3.13099C38.2339 3.5228 38.0786 3.89856 37.802 4.17562C37.5255 4.45267 37.1505 4.60831 36.7594 4.60831C36.3683 4.60831 35.9933 4.45267 35.7168 4.17562C35.4402 3.89856 35.2849 3.5228 35.2849 3.13099C35.2708 2.93335 35.2992 2.73499 35.3683 2.54934C35.4375 2.36368 35.5456 2.19509 35.6854 2.05498C35.8253 1.91487 35.9935 1.80653 36.1788 1.73729C36.3641 1.66804 36.5621 1.63953 36.7594 1.65367ZM35.6787 6.38222H37.7927V18.6932H35.6787V6.38222Z" fill="#253858"/>
<path d="M40.9846 6.3795H43.0484V8.54512C43.7605 7.09298 45.0032 6.05773 47.3993 6.20602V8.27371C44.696 7.99392 43.0484 8.81652 43.0484 11.4242V18.6989H40.9846V6.3795Z" fill="#253858"/>
<path d="M57.302 16.4745C56.5145 18.1002 55.04 18.9367 53.1494 18.9367C49.882 18.9367 48.2344 16.1556 48.2344 12.535C48.2344 9.06276 49.9546 6.1333 53.3951 6.1333C55.188 6.1333 56.5648 6.94471 57.3048 8.54514V6.37952H59.4188V18.6905H57.3048L57.302 16.4745ZM53.7135 16.967C55.6069 16.967 57.302 15.7611 57.302 13.0275V12.0314C57.302 9.29779 55.7549 8.09187 53.9509 8.09187C51.566 8.09187 50.3372 9.66712 50.3372 12.5238C50.3484 15.4897 51.5269 16.967 53.7163 16.967H53.7135Z" fill="#253858"/>
<path d="M71.9242 18.9365C68.802 18.9365 67.3526 18.3209 66.0988 17.6802V15.4166C67.5984 16.2057 69.9079 16.7708 72.0442 16.7708C74.4766 16.7708 75.3954 15.8111 75.3954 14.3814C75.3954 12.9516 74.5101 12.1906 71.4382 11.4519C67.8078 10.565 66.1797 9.3087 66.1797 6.65064C66.1797 4.13248 68.0955 2.26904 71.8571 2.26904C74.1918 2.26904 75.6914 2.82863 76.7973 3.44978V5.66576C75.2599 4.81702 73.5253 4.3922 71.7706 4.43466C69.6565 4.43466 68.4027 5.17332 68.4027 6.65064C68.4027 7.97967 69.4359 8.64558 72.2844 9.35906C75.6998 10.2208 77.6183 11.3176 77.6183 14.2331C77.6015 17.0394 75.9316 18.9365 71.9242 18.9365Z" fill="#253858"/>
<path d="M79.4698 12.5098C79.4698 8.81654 81.6313 6.1333 85.3176 6.1333C89.0039 6.1333 91.1179 8.81654 91.1179 12.5098C91.1179 16.2031 88.9787 18.9451 85.3176 18.9451C81.6565 18.9451 79.4698 16.2031 79.4698 12.5098ZM81.5336 12.5098C81.5336 14.8489 82.6897 16.967 85.3176 16.967C87.9455 16.967 89.0541 14.8489 89.0541 12.5098C89.0541 10.1708 87.9231 8.11425 85.3176 8.11425C82.7121 8.11425 81.5448 10.1708 81.5448 12.5098H81.5336Z" fill="#253858"/>
<path d="M96.4993 6.37927H99.6689V8.33784H96.4993V18.6903H94.4356V8.33784H92.436V6.37927H94.4272V5.03625C94.4272 2.74752 95.7062 1.19466 98.3368 1.19466C98.8185 1.19197 99.298 1.25791 99.7611 1.39052V3.34908C99.3238 3.26578 98.8797 3.22455 98.4346 3.22597C97.1332 3.22597 96.4798 3.98982 96.4798 5.09781L96.4993 6.37927Z" fill="#253858"/>
<path d="M106.821 16.6226C107.268 16.6093 107.712 16.5511 108.147 16.4491V18.4916C107.684 18.6244 107.205 18.6903 106.723 18.6875C104.092 18.6875 102.813 17.1374 102.813 14.8459V8.34905H100.814V6.39048H102.805V3.7688H104.869V6.37929H108.136V8.33786H104.869V14.8011C104.88 15.8839 105.52 16.6226 106.821 16.6226Z" fill="#253858"/>
<path d="M108.739 6.37939H111.074L114.612 16.8186L118.198 6.37939H120.214L123.803 16.8186L127.344 6.37939H129.678L125.157 18.6904H122.454L120.34 12.7336L119.223 8.94232L118.106 12.7336L115.964 18.6904H113.261L108.739 6.37939Z" fill="#253858"/>
<path d="M139.333 16.4745C138.545 18.1002 137.071 18.9367 135.18 18.9367C131.913 18.9367 130.265 16.1556 130.265 12.535C130.265 9.06276 131.985 6.1333 135.426 6.1333C137.219 6.1333 138.595 6.94471 139.335 8.54514V6.37952H141.449V18.6905H139.335L139.333 16.4745ZM135.744 16.967C137.637 16.967 139.333 15.7611 139.333 13.0275V12.0314C139.333 9.29779 137.785 8.09187 135.981 8.09187C133.608 8.11425 132.371 9.67831 132.371 12.535C132.371 15.4897 133.557 16.967 135.747 16.967H135.744Z" fill="#253858"/>
<path d="M144.641 6.3795H146.705V8.54512C147.417 7.09298 148.66 6.05773 151.056 6.20602V8.27371C148.353 7.99392 146.705 8.81652 146.705 11.4242V18.6989H144.641V6.3795Z" fill="#253858"/>
<path d="M158.501 18.9366C153.904 18.9366 151.891 16.2785 151.891 12.5013C151.891 8.78281 153.955 6.12476 157.691 6.12476C161.475 6.12476 162.997 8.76043 162.997 12.5013V13.461H154.03C154.326 15.5539 155.678 16.9081 158.577 16.9081C159.851 16.9069 161.116 16.6815 162.313 16.2422V18.2007C161.305 18.7463 159.755 18.9366 158.501 18.9366ZM154.005 11.6619H160.855C160.732 9.37318 159.699 8.06654 157.588 8.06654C155.357 8.05535 154.226 9.51308 154.005 11.6479V11.6619Z" fill="#253858"/>
<path d="M20.2193 10.0055L11.1154 0.884154L10.2329 0L3.37981 6.86618L0.246479 10.0055C0.0895885 10.1629 0.00146484 10.3762 0.00146484 10.5987C0.00146484 10.8211 0.0895885 11.0344 0.246479 11.1918L6.50755 17.4648L10.2329 21.1973L17.086 14.3311L17.1921 14.2248L20.2193 11.1918C20.3762 11.0344 20.4644 10.8211 20.4644 10.5987C20.4644 10.3762 20.3762 10.1629 20.2193 10.0055ZM10.2329 13.7324L7.10517 10.5987L10.2329 7.46494L13.3607 10.5987L10.2329 13.7324Z" fill="#2684FF"/>
<path d="M10.2323 7.46491C9.24858 6.4792 8.69409 5.14356 8.68991 3.74964C8.68572 2.35573 9.23218 1.01677 10.21 0.0251465L3.36523 6.88014L7.0906 10.6126L10.2323 7.46491Z" fill="url(#paint0_linear)"/>
<path d="M13.3684 10.5901L10.2323 13.7322C10.7217 14.2222 11.1099 14.8041 11.3748 15.4445C11.6397 16.085 11.776 16.7714 11.776 17.4647C11.776 18.1579 11.6397 18.8444 11.3748 19.4848C11.1099 20.1252 10.7217 20.7071 10.2323 21.1971L17.0938 14.3226L13.3684 10.5901Z" fill="url(#paint1_linear)"/>
<defs>
<linearGradient id="paint0_linear" x1="9.67378" y1="4.29483" x2="5.29778" y2="8.66249" gradientUnits="userSpaceOnUse">
<stop offset="0.18" stop-color="#0052CC"/>
<stop offset="1" stop-color="#2684FF"/>
</linearGradient>
<linearGradient id="paint1_linear" x1="276.321" y1="649.983" x2="427.341" y2="552.291" gradientUnits="userSpaceOnUse">
<stop offset="0.18" stop-color="#0052CC"/>
<stop offset="1" stop-color="#2684FF"/>
</linearGradient>
</defs>
</svg>
