<svg width="73" height="74" fill="none" xmlns="http://www.w3.org/2000/svg"><path d="M51 73.043h5.538L51 63.63v9.414zM0 15.241h7.753v6.634H0z" fill="#3C9765"/><path d="M29.35 15.24l27.133 26.58.044 31.223L0 15.241h29.35z" fill="#C4C4C4"/><path d="M29.35 15.24l27.133 26.58.044 31.223L0 15.241h29.35z" fill="url(#paint0_linear)"/><path d="M24.296 29.152l-1.277-1.307 5.851-5.722 3.926 4.014-1.235 1.209-2.648-2.709-1.156 1.131 2.33 2.383-1.227 1.2-2.33-2.383-2.234 2.184zm7.993 8.173l-1.486-1.52.92-3.146-.627-.641-2.043 1.998-1.278-1.307 5.852-5.722 2.276 2.328c.656.67.974 1.36.956 2.07-.008.7-.284 1.315-.827 1.847-.39.382-.835.625-1.332.73-.492.109-.995.053-1.51-.166l-.9 3.53zm2.403-6.841L33.7 29.47l-1.45 1.417.907.927c.258.264.523.397.794.4a.984.984 0 00.74-.305.96.96 0 00.313-.693c.013-.261-.091-.505-.313-.732zm2.38 11.731l-3.989-4.078 5.852-5.722 3.996 4.086-1.22 1.192-2.71-2.77-1.085 1.06 2.51 2.565-1.212 1.185-2.51-2.565-1.116 1.091 2.703 2.764-1.22 1.192zm5.013 5.127l-3.988-4.078 5.852-5.722 3.995 4.086-1.22 1.192-2.71-2.771-1.084 1.06 2.508 2.566-1.211 1.185-2.509-2.566-1.116 1.092 2.702 2.764-1.22 1.192z" fill="#fff"/><defs><linearGradient id="paint0_linear" x1="63.266" y1="60.745" x2="5.993" y2="2.4" gradientUnits="userSpaceOnUse"><stop stop-color="#5DDD93"/><stop offset="1" stop-color="#00B884"/></linearGradient></defs></svg>