<svg width="205" height="205" xmlns="http://www.w3.org/2000/svg" xmlns:xlink="http://www.w3.org/1999/xlink"><defs><path d="M207 103.5c0 57.162-46.339 103.5-103.5 103.5S0 160.662 0 103.5C0 46.34 46.339 0 103.5 0S207 46.339 207 103.5z" id="a"/><path d="M96.943 42c-1.312 0-2.573-1.172-1.596-2.37 1.596-1.95 3.31-4.24 4.085-6.482.277-.802.993-1.148 1.71-1.148 1.09 0 2.188.802 1.765 2.027-.909 2.633-2.654 5.08-4.446 7.27a1.916 1.916 0 0 1-1.518.703z" id="c"/></defs><g transform="translate(-1 -2)" fill="none" fill-rule="evenodd"><mask id="b" fill="#fff"><use xlink:href="#a"/></mask><g mask="url(#b)"><g transform="translate(1 2)"><circle fill="#FFF" cx="102.5" cy="102.5" r="102.5"/><path d="M95 178c.327.005.665.01 1 .02-.335-.01-.673-.015-1-.02m-5 .045c.075-.015.165-.03.245-.045-.08.015-.17.03-.245.045m1 .005c.115-.02.24-.035.36-.05-.12.015-.245.03-.36.05m3-.045c.327-.005.664-.005 1-.005-.336 0-.673 0-1 .005m-2 .025l.5-.03-.5.03M72.864 212c-1.242-4.678-3.109-9.264-5.937-13.083a66.895 66.895 0 0 1 1.56-2.137 58.856 58.856 0 0 1 1.983-2.489c.125-.148.255-.293.383-.441.445-.517.896-1.025 1.359-1.528.184-.2.366-.4.55-.598a56.224 56.224 0 0 1 1.643-1.667c.224-.224.453-.439.683-.656.423-.401.851-.793 1.285-1.182A56.943 56.943 0 0 1 79 186c-8.507 6.726-15.108 15.868-19 26h12.864" fill="#BA8854"/><path d="M94 178.02c.163-.01.332-.015.5-.02-.168.005-.337.01-.5.02m8 .48c-1.797-.252-3.922-.424-6-.5 2.074.076 4.203.248 6 .5m0 0c1.796-.252 3.927-.424 6-.5-2.077.076-4.204.248-6 .5m5-.48c.339-.01.673-.015 1-.02-.327.005-.661.01-1 .02m2-.02l.5.03-.5-.03m0 0c.168.005.337.01.5.02-.163-.01-.332-.015-.5-.02m18.777 11.452a65.71 65.71 0 0 1 2.363 2.336c.163.174.324.351.488.529.46.494.911.993 1.354 1.502.152.177.308.351.46.528a60.609 60.609 0 0 1 1.59 1.947c.123.157.244.317.365.474.54.706 1.072 1.417 1.584 2.144-2.866 3.82-4.758 8.408-6.017 13.088H143c-3.748-9.64-9.983-18.382-18-25 .385.317.765.64 1.141.967a62.03 62.03 0 0 1 1.636 1.485M108 178c.336 0 .673 0 1 .005-.327-.005-.664-.005-1-.005m4 0c.12.015.25.03.365.05-.115-.02-.245-.035-.365-.05m2 0c.08.015.18.03.255.045-.075-.015-.175-.03-.255-.045" fill="#BA8854"/><path d="M109 178c.13 0 .255.01.385.015-.13-.005-.255-.015-.385-.015m-1 0h.21-.21" fill="#BA8854"/><path d="M109 178c.105 0 .205.005.31.005-.105 0-.205-.005-.31-.005m-13 0h.125H96m-6 .1c.162-.035.32-.07.5-.1-.18.03-.338.065-.5.1m1-.045c.164-.02.323-.04.5-.055-.177.015-.336.035-.5.055m0 .02c.165-.025.321-.05.5-.075-.179.025-.335.05-.5.075m-11 5.34c.168-.14.336-.275.5-.415-.164.14-.332.275-.5.415M107 178h.125H107m-11 0h.015H96m-4 .035c.16-.015.315-.025.48-.035-.165.01-.32.025-.48.035m3-.035h.21H95m12 0h.015H107m-13 .005c.105 0 .205-.005.31-.005-.105 0-.205.005-.31.005m0 .01c.13-.005.255-.015.385-.015-.13 0-.255.01-.385.015M122 183l.5.415-.5-.415m-11-5c.165.01.32.02.48.035-.16-.01-.315-.025-.48-.035m14 7c.165.125.325.25.49.375-.165-.125-.325-.25-.49-.375m-22.99-7H102h.01m8.99 0c.175.015.333.035.5.055-.167-.02-.325-.04-.5-.055m1 0c.18.03.335.065.5.1-.165-.035-.32-.07-.5-.1m0 0c.176.025.338.05.5.075-.162-.025-.324-.05-.5-.075m-42 16.5c.163-.168.333-.332.5-.5-.167.168-.337.332-.5.5m-2 2c.165-.169.335-.334.5-.5-.17.166-.335.331-.5.5m3-2.5c.168-.335.332-.67.5-1-.168.33-.332.665-.5 1m3-4a74.1 74.1 0 0 1 1-1c-.336.332-.672.66-1 1m57 3c.168.165.332.332.5.5-.168-.168-.332-.335-.5-.5m2 1c.166.168.334.332.5.5-.166-.168-.334-.332-.5-.5m-56-6.5c.33-.166.665-.327 1-.49l-.004-.01c-.34.163-.666.334-.996.5" fill="#BA8854"/><path d="M124.29 184.745a53.592 53.592 0 0 0-2.205-1.616c-.12-.082-.24-.162-.356-.244a56.133 56.133 0 0 0-2.342-1.53 42.383 42.383 0 0 0-6.257-2.948 4.397 4.397 0 0 0-.374-.103c-.044-.01-.102-.018-.15-.027-.101-.02-.198-.041-.309-.059-.067-.012-.143-.02-.213-.03l-.325-.044a7.784 7.784 0 0 0-.272-.023c-.11-.012-.216-.024-.333-.033a14.627 14.627 0 0 0-.38-.023 8.37 8.37 0 0 0-.28-.02 34.352 34.352 0 0 0-.486-.018c-.076-.003-.15-.01-.225-.01-.187-.005-.38-.008-.573-.011-.062 0-.12-.003-.182-.003-.216-.003-.438-.003-.66-.003h-.123c-.24.003-.485.006-.734.012h-.073c-.269.006-.54.015-.813.026h-.009c-1.66.062-3.368.204-4.806.41h-.006a47.746 47.746 0 0 0-4.812-.41h-.009c-.272-.011-.544-.02-.813-.026h-.073a45.85 45.85 0 0 0-.734-.012h-.122c-.223 0-.445 0-.661.003-.062 0-.12.003-.181.003-.193.003-.386.006-.573.012-.076 0-.15.006-.226.009l-.485.017a8.37 8.37 0 0 0-.28.02c-.13.007-.258.016-.38.024-.118.01-.223.021-.331.033-.09.006-.187.015-.275.023-.117.015-.22.03-.327.045-.07.009-.144.017-.21.03a5.678 5.678 0 0 0-.317.058l-.143.027a4.05 4.05 0 0 0-.374.103 42.383 42.383 0 0 0-6.257 2.948 56.133 56.133 0 0 0-2.341 1.53l-.357.244a56.481 56.481 0 0 0-2.205 1.616l-.286.22A55.424 55.424 0 0 0 77 186.644c3.614 10.457 12.917 18.24 24.675 18.351.085.003.173.006.258.006 6.806 0 13.951-2.983 18.764-7.836 2.646-2.664 4.908-6.314 6.303-10.196a60.82 60.82 0 0 0-2.424-2.002l-.286-.221M126 187l.015.01L126 187" fill="#BA8854"/><path d="M131.83 212c1.292-4.802 3.231-9.508 6.17-13.427a65.684 65.684 0 0 0-1.624-2.197c-.124-.163-.248-.327-.374-.488a62.173 62.173 0 0 0-1.63-1.997c-.157-.182-.316-.36-.472-.543a62.16 62.16 0 0 0-1.391-1.54c-.165-.182-.33-.364-.498-.543a67.397 67.397 0 0 0-4.1-3.92l-.01-.005c-1.405 3.925-3.687 7.615-6.354 10.31-4.852 4.905-12.055 7.921-18.917 7.921a7.53 7.53 0 0 1-.26-.006c-11.86-.113-21.243-7.987-24.88-18.565-.23.194-.45.396-.675.596a57.09 57.09 0 0 0-2.045 1.884 58.56 58.56 0 0 0-1.707 1.71c-.192.203-.38.409-.572.614a64.195 64.195 0 0 0-1.412 1.568c-.132.152-.268.301-.398.453a63.715 63.715 0 0 0-1.659 2.033c-.136.173-.268.349-.4.521-.555.722-1.1 1.452-1.622 2.194 2.939 3.92 4.878 8.625 6.17 13.427h58.66" fill="#9685FF"/><path d="M102.001 125H102c-6.601 0-12 5.333-12 11.847v42.309C90 185.67 95.4 191 101.999 191H102c6.6 0 11.999-5.33 11.999-11.844v-42.309c0-6.514-5.4-11.847-11.999-11.847" fill="#BA8854"/><path d="M102.001 193H102c-6.601 0-12-5.35-12-11.888v-14.068a57.128 57.128 0 0 0 11.897 1.242A57.24 57.24 0 0 0 114 167v14.112c0 6.538-5.4 11.888-11.999 11.888" fill="#A37447"/><path d="M62 99.999C62 106.626 56.626 112 49.999 112 43.374 112 38 106.626 38 99.999 38 93.37 43.374 88 49.999 88 56.626 88 62 93.37 62 99.999m79 0c0 6.627 5.374 12.001 12.001 12.001C159.63 112 165 106.626 165 99.999 165 93.37 159.63 88 153.001 88 146.374 88 141 93.37 141 99.999" fill="#BA8854"/><path d="M59 102.5c0 3.036-3.135 5.5-7.001 5.5-3.864 0-6.999-2.464-6.999-5.5 0-3.04 3.135-5.5 6.999-5.5C55.865 97 59 99.46 59 102.5m85 0c0 3.036 3.134 5.5 7 5.5s7-2.464 7-5.5c0-3.04-3.134-5.5-7-5.5s-7 2.46-7 5.5" fill="#835833"/><path d="M111.057 21c1.354 8.045 2.949 16.266.41 23.83-2.224 6.624-8.185 8.635-14.503 9.366-5.583.65-12.663.39-15.11 6.586-2.582 6.537-1.14 14.104-5.87 19.855-2.755 3.35-7.016 4.863-10.999 6.202-4.2 1.412-8.569 2.28-12.985 2.497v33.035C52 147.466 74.724 168 102.5 168c27.773 0 50.5-20.534 50.5-45.63V65.955c0-22.46-18.208-41.253-41.943-44.954" fill="#BA8854"/><path d="M102.5 21C74.724 21 52 41.44 52 66.42v56.16C52 147.56 74.724 168 102.5 168c27.773 0 50.5-20.44 50.5-45.42V66.42C153 41.44 130.273 21 102.5 21m-.603 154.234A60.01 60.01 0 0 1 90 174.039v5.665C90 185.917 95.4 191 101.999 191H102c6.6 0 11.999-5.083 11.999-11.296V174a60.137 60.137 0 0 1-12.103 1.234" fill="#BA8854"/><path d="M118.562 80.343a49.392 49.392 0 0 1 19.23 1.519c1.594.447 2.534 2.244 2.104 3.878-.427 1.637-1.923 2.567-3.345 2.168a44.794 44.794 0 0 0-17.453-1.377c-1.455.17-2.833-.989-3.067-2.678-.237-1.686.898-3.316 2.53-3.51M77.88 99h-2.757C72.855 99 71 101.025 71 103.502c0 2.473 1.855 4.498 4.123 4.498h2.757c2.265 0 4.12-2.025 4.12-4.498C82 101.025 80.145 99 77.88 99m50.999 0h-2.758c-2.266 0-4.121 2.025-4.121 4.502 0 2.473 1.855 4.498 4.121 4.498h2.758c2.266 0 4.121-2.025 4.121-4.498 0-2.477-1.855-4.502-4.121-4.502" fill="#202323"/><path d="M105.432 135h-2.377c-1.294 0-2.428.85-3.056 2.114-.626-1.264-1.76-2.114-3.054-2.114h-2.377c-1.964 0-3.568 1.952-3.568 4.341 0 2.389 1.604 4.341 3.568 4.341h.756c.01 2.376 1.613 4.318 3.568 4.318h2.38c1.955 0 3.554-1.942 3.565-4.318h.595c1.964 0 3.568-1.952 3.568-4.34 0-2.39-1.604-4.342-3.568-4.342" fill="#862224"/><mask id="d" fill="#fff"><use xlink:href="#c"/></mask><path fill="#8A8D89" mask="url(#d)" d="M95 42h8V32h-8zM52.37 64c-1.883 0-1.817-4.103.152-4.32a76.926 76.926 0 0 0 9.49-1.641c.108-.027.214-.039.315-.039 1.768 0 2.424 3.74.527 4.196a83.191 83.191 0 0 1-10.332 1.796 2.04 2.04 0 0 1-.152.008m12.74 26c-.54 0-1.09-.221-1.51-.628-.835-.8-.764-2.27 0-3.086.68-.73 1.44-1.445 2.266-1.986.316-.21.662-.3 1-.3.726 0 1.44.422 1.846 1.082.62 1.014.177 2.384-.744 2.992-.124.079-.406.32-.41.32l.004-.005c-.35.316-.692.636-1.019.983a1.939 1.939 0 0 1-1.432.628"/><path d="M62.55 98c-.604 0-1.28-.502-1.372-1.306-.248-2.164-.26-4.263.113-6.408.155-.897.673-1.286 1.213-1.286.819 0 1.692.888 1.457 2.242-.255 1.474-.283 3-.113 4.497.11.962-.172 1.924-.966 2.206a.956.956 0 0 1-.333.055m76.403-8c-.559 0-1.118-.217-1.503-.632a18.955 18.955 0 0 0-1.027-.982c-.004 0-.276-.233-.405-.316-.993-.648-1.291-1.919-.751-2.992.347-.687 1.099-1.078 1.835-1.078.363 0 .718.095 1.024.296.835.54 1.594 1.255 2.277 1.986.82.872.774 2.21 0 3.086-.374.427-.91.632-1.45.632m-2.78-1.84c.053.052.099.091.133.123-.042-.04-.087-.08-.133-.122" fill="#8A8D89" mask="url(#d)"/><path d="M141.448 98a.928.928 0 0 1-.328-.055c-.783-.279-1.079-1.248-.968-2.207.17-1.494.142-3.024-.113-4.499-.235-1.357.638-2.239 1.456-2.239.544 0 1.059.386 1.217 1.283.37 2.143.358 4.246.11 6.41-.09.811-.771 1.307-1.374 1.307" fill="#8A8D89" mask="url(#d)"/><path d="M37 113.5c0-3.591 2.909-6.5 6.5-6.5s6.5 2.909 6.5 6.5-2.909 6.5-6.5 6.5a6.498 6.498 0 0 1-6.5-6.5m115 0a6.5 6.5 0 1 1 13 0 6.5 6.5 0 0 1-13 0" fill="#862224" mask="url(#d)"/><path d="M102 89V16c-6.045 0-15.157.088-21.83.956C80.047 17.72 77.072 60.93 102 89" fill="#CDD5D6"/><path d="M102 89V16c6.045 0 15.158.088 21.83.956.122.764 3.098 43.974-21.83 72.044" fill="#9CA6A9"/><path d="M102 88.597C83.853 66.621 80.307 27.175 81.827 17c-17.732 2.483-33.623 11.403-41.225 43.257-4.068 17.043-9.2 46.598 3.162 87.579L53.787 152s-4.77-25.8 1.295-30.638l13.575 2.347a44.25 44.25 0 0 0 27.62-4.155 11.78 11.78 0 0 1 5.352-1.274H102V88.597zm-43.252 14.899a8.476 8.476 0 0 1-2.167-7.688c.609-2.756 2.558-5.043 5.215-6.119 10.139-4.103 22.835 4.114 35.008 12-7.453 6.428-20.568 20.132-38.056 1.807z" fill="#008BB0"/><path d="M100.193 97.024C89.452 90.13 78.344 83 67.484 83c-2.902 0-5.666.519-8.217 1.542-4.548 1.824-7.886 5.704-8.927 10.38-1.041 4.672.344 9.548 3.707 13.039C61.1 115.285 68.552 118.999 76.196 119c10.425 0 18.183-6.771 23.314-11.251.473-.413.926-.809 1.36-1.18l1.13-.966v-7.42l-1.807-1.159zm-41.627 6.822c-1.973-2.048-2.787-4.907-2.176-7.65.611-2.742 2.569-5.019 5.237-6.089 10.181-4.083 22.93 4.094 35.155 11.941-7.484 6.397-20.654 20.035-38.216 1.798z" fill="#CDD5D6"/><path d="M163.398 60.257C155.797 28.403 139.905 19.483 122.174 17c1.52 10.175-2.026 49.621-20.173 71.597L102 118.28h.372c1.93 0 3.749.46 5.352 1.274a44.248 44.248 0 0 0 27.62 4.155l13.574-2.347c6.065 4.838 1.295 30.638 1.295 30.638l10.023-4.164c12.363-40.981 7.23-70.536 3.162-87.579zm-18.146 43.239c-17.488 18.325-30.602 4.621-38.055-1.807 12.173-7.886 24.869-16.103 35.007-12 2.657 1.076 4.606 3.363 5.215 6.12a8.476 8.476 0 0 1-2.167 7.687z" fill="#00769D"/><path d="M153.66 94.922c-1.041-4.676-4.379-8.556-8.927-10.38-2.55-1.023-5.315-1.542-8.217-1.542-10.86 0-21.967 7.13-32.708 14.024L102 98.184v7.42l1.13.966c.434.37.887.765 1.36 1.179 5.133 4.48 12.888 11.251 23.314 11.251 7.644 0 15.096-3.714 22.15-11.04 3.361-3.491 4.748-8.366 3.707-13.038zm-8.226 8.924c-17.561 18.237-30.731 4.6-38.216-1.798 12.225-7.847 24.974-16.024 35.155-11.941 2.668 1.07 4.625 3.347 5.237 6.09.611 2.742-.203 5.601-2.176 7.65z" fill="#9CA6A9"/><path d="M59.619 39.826c1.167-.98 3.141.568 2.156 2.023-4.352 6.434-7.695 13.512-8.75 21.258a1.46 1.46 0 0 1-.5.947c-.909.762-2.671.28-2.471-1.205 1.125-8.261 4.622-15.823 9.268-22.69.088-.134.19-.243.297-.333" fill="#FFF" opacity=".287"/></g></g></g></svg>