<svg fill="none" height="28" viewBox="0 0 28 28" width="28" xmlns="http://www.w3.org/2000/svg"><g clip-rule="evenodd" fill="#ef4136" fill-rule="evenodd"><path d="m0 6c0-3.31371 2.68629-6 6-6h16c3.3137 0 6 2.68629 6 6s-2.6863 6-6 6h-16c-3.31371 0-6-2.68629-6-6zm4 0c0-1.10457.89543-2 2-2h16c1.1046 0 2 .89543 2 2s-.8954 2-2 2h-16c-1.10457 0-2-.89543-2-2z"/><path d="m0 22c0-3.3137 2.68629-6 6-6h16c3.3137 0 6 2.6863 6 6s-2.6863 6-6 6h-16c-3.31371 0-6-2.6863-6-6zm4 0c0-1.1046.89543-2 2-2h16c1.1046 0 2 .8954 2 2s-.8954 2-2 2h-16c-1.10457 0-2-.8954-2-2z"/></g></svg>