<svg width="20" height="20" viewBox="0 0 20 20" fill="none" xmlns="http://www.w3.org/2000/svg">
<path d="M16.6666 9.99984C16.6666 9.08067 15.9191 8.33317 15 8.33317H14.1666V5.83317C14.1666 3.53567 12.2975 1.6665 9.99998 1.6665C7.70248 1.6665 5.83331 3.53567 5.83331 5.83317V8.33317H4.99998C4.08081 8.33317 3.33331 9.08067 3.33331 9.99984V16.6665C3.33331 17.5857 4.08081 18.3332 4.99998 18.3332H15C15.9191 18.3332 16.6666 17.5857 16.6666 16.6665V9.99984ZM7.49998 5.83317C7.49998 4.45484 8.62164 3.33317 9.99998 3.33317C11.3783 3.33317 12.5 4.45484 12.5 5.83317V8.33317H7.49998V5.83317Z" fill="white"/>
</svg>
