<svg width="8" height="7" viewBox="0 0 8 7" fill="none" xmlns="http://www.w3.org/2000/svg">
<path d="M7.07289 0.746086C7.07302 0.553832 6.9992 0.368922 6.85881 0.220938C6.57062 -0.06764 6.09738 -0.0679632 5.8088 0.220221L3.55938 2.45919L1.31302 0.217151C1.02483 -0.0714274 0.551591 -0.0717506 0.263013 0.216434C-0.0255649 0.504618 -0.0258881 0.977859 0.262296 1.26644L3.0333 4.04123C3.1737 4.18182 3.3585 4.25589 3.55815 4.25602C3.7578 4.25616 3.94272 4.17495 4.0833 4.04194L6.85809 1.27094C6.99868 1.12315 7.07276 0.930946 7.07289 0.746086Z" fill="#231F20"/>
<path d="M7.1096 6.13865C7.10947 6.33316 7.03453 6.52014 6.89228 6.66967C6.60031 6.96124 6.12151 6.96091 5.82994 6.66894L3.55718 4.40056L1.28132 6.66584C0.98935 6.95741 0.510548 6.95708 0.218977 6.66511C-0.0725938 6.37314 -0.0722668 5.89434 0.219703 5.60277L3.0271 2.7992C3.16934 2.65715 3.35643 2.58247 3.55842 2.58261C3.76042 2.58275 3.94739 2.66517 4.08944 2.79993L6.89301 5.60733C7.03505 5.75705 7.10973 5.95161 7.1096 6.13865Z" fill="#231F20"/>
</svg>
