<svg width="15" height="19" viewBox="0 0 15 19" fill="none" xmlns="http://www.w3.org/2000/svg">
<path d="M14.8096 7.03125C14.8096 7.1582 14.7607 7.27051 14.6631 7.36816L7.83691 14.1943C7.73926 14.292 7.62695 14.3408 7.5 14.3408C7.37305 14.3408 7.26074 14.292 7.16309 14.1943L0.336914 7.36816C0.239258 7.27051 0.19043 7.1582 0.19043 7.03125C0.19043 6.9043 0.239258 6.79199 0.336914 6.69434L1.06934 5.96191C1.16699 5.86426 1.2793 5.81543 1.40625 5.81543C1.5332 5.81543 1.64551 5.86426 1.74316 5.96191L7.5 11.7188L13.2568 5.96191C13.3545 5.86426 13.4668 5.81543 13.5938 5.81543C13.7207 5.81543 13.833 5.86426 13.9307 5.96191L14.6631 6.69434C14.7607 6.79199 14.8096 6.9043 14.8096 7.03125Z" fill="white" fill-opacity="0.5"/>
</svg>
