<svg width="44" height="39" viewBox="0 0 44 39" fill="none" xmlns="http://www.w3.org/2000/svg">
<path d="M21.9163 16.0837C20.3692 14.5372 18.2712 13.6684 16.0837 13.6684C13.8961 13.6684 11.7981 14.5372 10.251 16.0837L4.41637 21.9164C2.86919 23.4636 2 25.562 2 27.75C2 29.9381 2.86919 32.0365 4.41637 33.5837C5.96355 35.1309 8.06197 36.0001 10.25 36.0001C12.4381 36.0001 14.5365 35.1309 16.0837 33.5837L19 30.6673" stroke="#FBC275" stroke-width="4" stroke-linecap="round" stroke-linejoin="round"/>
<path d="M16.0836 21.9163C17.6308 23.4629 19.7288 24.3316 21.9163 24.3316C24.1039 24.3316 26.2019 23.4629 27.749 21.9163L33.5836 16.0837C35.1308 14.5365 36 12.4381 36 10.25C36 8.06197 35.1308 5.96355 33.5836 4.41637C32.0364 2.86919 29.938 2 27.75 2C25.5619 2 23.4635 2.86919 21.9163 4.41637L19 7.33272" stroke="#FBC275" stroke-width="4" stroke-linecap="round" stroke-linejoin="round"/>
<rect x="15.9998" y="11" width="27" height="27" rx="13.5" fill="#625242"/>
<path d="M43.3894 35.444L38.1011 30.1557C39.1932 28.5085 39.8332 26.5367 39.8332 24.4167C39.8332 18.6728 35.1603 14 29.4165 14C23.6728 14 18.9998 18.6731 18.9998 24.4167C18.9998 30.1606 23.6726 34.8334 29.4165 34.8334C31.5363 34.8334 33.5082 34.1935 35.1555 33.1014L40.4438 38.3896C41.2566 39.2035 42.5768 39.2035 43.3897 38.3896C44.2035 37.5766 44.2035 36.257 43.3895 35.444L43.3894 35.444ZM22.1251 24.4166C22.1251 20.3957 25.396 17.1249 29.4168 17.1249C33.4375 17.1249 36.7085 20.3959 36.7085 24.4166C36.7085 28.4374 33.4375 31.7083 29.4168 31.7083C25.3957 31.7083 22.1251 28.4373 22.1251 24.4166Z" fill="#FBC275"/>
</svg>
