<svg width="330" height="278" viewBox="0 0 330 278" fill="none" xmlns="http://www.w3.org/2000/svg">
<path opacity="0.3" d="M81.9911 70.7296C76.14 54.8069 58.0713 45.9572 46.1846 49.5773C34.2979 53.1974 25.7156 70.1636 31.5667 86.0864C36.912 100.633 52.9677 109.111 64.2391 107.869C64.4164 107.85 64.5526 108.057 64.5252 108.233L64.18 110.854C64.1537 111.054 64.1839 111.257 64.2678 111.443C64.3517 111.629 64.4865 111.793 64.6593 111.918C64.8322 112.043 65.0374 112.126 65.2555 112.159C65.4736 112.192 65.6973 112.174 65.9054 112.106L71.7208 110.208C71.9289 110.14 72.1144 110.025 72.2598 109.873C72.4053 109.721 72.5057 109.539 72.5517 109.342C72.5976 109.145 72.5875 108.941 72.5223 108.748C72.4572 108.556 72.3391 108.382 72.1793 108.243L70.083 106.419C69.9904 106.341 69.9917 106.182 70.0991 106.127C80.0363 101.044 87.3718 85.3721 81.9911 70.7296Z" fill="url(#paint0_linear_201_325)"/>
<path d="M59.8284 58.4693C64.7004 60.7257 68.4211 64.5745 70.2225 69.2214C72.0239 73.8682 71.7684 78.9584 69.5089 83.4411C69.0043 84.4718 70.8597 85.0139 71.361 83.9899C73.7334 79.1395 73.9747 73.6637 72.0365 68.6604C70.0983 63.6571 66.124 59.4963 60.9105 57.0125C59.8101 56.4892 58.7199 57.9421 59.8284 58.4693Z" fill="#2F2E30"/>
<path opacity="0.3" d="M312.468 47.9695C306.617 32.0468 288.548 23.1971 276.661 26.8172C264.775 30.4373 256.192 47.4035 262.043 63.3263C267.389 77.8727 283.444 86.3504 294.716 85.1092C294.893 85.0896 295.029 85.2966 295.002 85.4729L294.657 88.094C294.63 88.2939 294.66 88.4965 294.744 88.6826C294.828 88.8688 294.963 89.0324 295.136 89.1578C295.309 89.2833 295.514 89.3664 295.732 89.3993C295.95 89.4322 296.174 89.4138 296.382 89.3459L302.197 87.4476C302.405 87.3797 302.591 87.2645 302.736 87.1129C302.882 86.9613 302.982 86.7784 303.028 86.5816C303.074 86.3847 303.064 86.1804 302.999 85.9881C302.934 85.7958 302.816 85.6219 302.656 85.4828L300.56 83.6586C300.467 83.5814 300.468 83.4221 300.576 83.3672C310.513 78.2839 317.848 62.612 312.468 47.9695Z" fill="url(#paint1_linear_201_325)"/>
<path d="M290.305 35.7091C295.177 37.9655 298.897 41.8143 300.699 46.4612C302.5 51.108 302.244 56.1982 299.985 60.6809C299.48 61.7116 301.336 62.2537 301.837 61.2297C304.209 56.3794 304.451 50.9035 302.513 45.9002C300.574 40.8969 296.6 36.7361 291.387 34.2523C290.286 33.729 289.196 35.1819 290.305 35.7091Z" fill="#2F2E30"/>
<path d="M178.082 21.9578C172.42 6.03508 154.934 -2.81454 143.431 0.80555C131.927 4.42564 123.622 21.3918 129.284 37.3146C134.455 51.8555 149.983 60.3323 160.89 59.0989C161.068 59.0788 161.206 59.2842 161.18 59.4612L160.845 62.0824C160.82 62.2822 160.849 62.4848 160.93 62.671C161.012 62.8571 161.142 63.0207 161.309 63.1461C161.477 63.2716 161.675 63.3547 161.886 63.3876C162.097 63.4205 162.314 63.4021 162.515 63.3342L168.143 61.4359C168.344 61.368 168.524 61.2528 168.665 61.1012C168.805 60.9496 168.903 60.7667 168.947 60.5699C168.992 60.373 168.982 60.1687 168.919 59.9764C168.856 59.7841 168.741 59.6102 168.587 59.4711L166.558 57.6469C166.467 57.5686 166.468 57.4113 166.574 57.3551C176.191 52.2714 183.289 36.5999 178.082 21.9578Z" fill="url(#paint2_linear_201_325)"/>
<path d="M157.606 9.78954C162.478 12.1787 166.198 16.2539 168 21.1741C169.801 26.0943 169.546 31.4839 167.286 36.2303C166.782 37.3216 168.637 37.8956 169.138 36.8114C171.511 31.6757 171.752 25.8777 169.814 20.5801C167.876 15.2825 163.901 10.877 158.688 8.24704C157.587 7.69298 156.497 9.23137 157.606 9.78954Z" fill="#2F2E30"/>
<path d="M149.285 99.1696C149.767 99.1696 150.158 98.4417 150.158 97.5438C150.158 96.646 149.767 95.9181 149.285 95.9181C148.803 95.9181 148.412 96.646 148.412 97.5438C148.412 98.4417 148.803 99.1696 149.285 99.1696Z" fill="#CCCCCC"/>
<path d="M145.794 149.567C147.241 149.567 148.413 148.476 148.413 147.129C148.413 145.782 147.241 144.69 145.794 144.69C144.348 144.69 143.175 145.782 143.175 147.129C143.175 148.476 144.348 149.567 145.794 149.567Z" fill="#CCCCCC"/>
<path d="M101.269 139.813C102.233 139.813 103.015 139.085 103.015 138.187C103.015 137.289 102.233 136.561 101.269 136.561C100.305 136.561 99.5229 137.289 99.5229 138.187C99.5229 139.085 100.305 139.813 101.269 139.813Z" fill="#CCCCCC"/>
<path d="M125.714 115.427C126.679 115.427 127.46 114.699 127.46 113.801C127.46 112.903 126.679 112.175 125.714 112.175C124.75 112.175 123.968 112.903 123.968 113.801C123.968 114.699 124.75 115.427 125.714 115.427Z" fill="#CCCCCC"/>
<path d="M207.778 206.468C208.743 206.468 209.524 206.104 209.524 205.655C209.524 205.206 208.743 204.842 207.778 204.842C206.814 204.842 206.032 205.206 206.032 205.655C206.032 206.104 206.814 206.468 207.778 206.468Z" fill="#CCCCCC"/>
<path d="M163.254 180.456C164.7 180.456 165.873 179.364 165.873 178.018C165.873 176.671 164.7 175.579 163.254 175.579C161.807 175.579 160.635 176.671 160.635 178.018C160.635 179.364 161.807 180.456 163.254 180.456Z" fill="#CCCCCC"/>
<path d="M193.809 147.941C194.774 147.941 195.556 147.577 195.556 147.128C195.556 146.68 194.774 146.316 193.809 146.316C192.845 146.316 192.063 146.68 192.063 147.128C192.063 147.577 192.845 147.941 193.809 147.941Z" fill="#CCCCCC"/>
<path d="M204.286 178.83C205.25 178.83 206.032 178.103 206.032 177.205C206.032 176.307 205.25 175.579 204.286 175.579C203.321 175.579 202.54 176.307 202.54 177.205C202.54 178.103 203.321 178.83 204.286 178.83Z" fill="#CCCCCC"/>
<path d="M294.126 259.795C295.605 258.642 293.606 254.15 289.661 249.763C285.715 245.375 281.318 242.753 279.839 243.907C278.359 245.06 280.358 249.551 284.304 253.939C288.249 258.326 292.646 260.948 294.126 259.795Z" fill="#747374"/>
<path d="M263.651 268.246C276.187 268.246 286.349 259.147 286.349 247.924C286.349 236.701 276.187 227.602 263.651 227.602C251.115 227.602 240.952 236.701 240.952 247.924C240.952 259.147 251.115 268.246 263.651 268.246Z" fill="#747374"/>
<path d="M272.381 264.994H265.397V276.374H272.381V264.994Z" fill="#747374"/>
<path d="M258.412 264.994H253.174V276.374H258.412V264.994Z" fill="#747374"/>
<path d="M267.143 278C270.036 278 272.381 277.272 272.381 276.374C272.381 275.476 270.036 274.749 267.143 274.749C264.25 274.749 261.905 275.476 261.905 276.374C261.905 277.272 264.25 278 267.143 278Z" fill="#747374"/>
<path d="M253.175 278C256.068 278 258.413 276.908 258.413 275.561C258.413 274.215 256.068 273.123 253.175 273.123C250.282 273.123 247.937 274.215 247.937 275.561C247.937 276.908 250.282 278 253.175 278Z" fill="#747374"/>
<path d="M256.969 221.685C258.878 214.201 267.308 209.797 275.796 211.848C284.284 213.899 289.617 221.629 287.708 229.113C285.798 236.597 279.463 236.621 270.974 234.57C262.486 232.519 255.059 229.169 256.969 221.685Z" fill="#F15738"/>
<path d="M248.3 243.077C249.126 241.454 245.295 238.151 239.742 235.699C234.19 233.247 229.018 232.574 228.191 234.198C227.365 235.821 231.196 239.124 236.748 241.576C242.301 244.028 247.473 244.701 248.3 243.077Z" fill="#747374"/>
<path d="M260.158 250.363C264.016 250.363 267.143 247.451 267.143 243.86C267.143 240.268 264.016 237.357 260.158 237.357C256.301 237.357 253.174 240.268 253.174 243.86C253.174 247.451 256.301 250.363 260.158 250.363Z" fill="#2F2E30"/>
<path d="M257.54 243.86C258.986 243.86 260.159 242.768 260.159 241.421C260.159 240.074 258.986 238.983 257.54 238.983C256.093 238.983 254.921 240.074 254.921 241.421C254.921 242.768 256.093 243.86 257.54 243.86Z" fill="#747374"/>
<path d="M265.312 257.732C265.436 258.35 265.424 258.983 265.279 259.597C265.134 260.211 264.857 260.792 264.466 261.308C264.074 261.825 263.575 262.265 262.996 262.606C262.418 262.946 261.771 263.179 261.094 263.291C260.417 263.404 259.722 263.393 259.049 263.261C258.376 263.128 257.738 262.876 257.172 262.519C256.606 262.162 256.123 261.707 255.75 261.179C255.377 260.651 255.121 260.062 254.998 259.444L254.996 259.435C254.48 256.837 256.683 255.918 259.532 255.448C262.38 254.978 264.797 255.134 265.312 257.732Z" fill="#2F2E30"/>
<path d="M80.3418 233.766C82.5359 228.421 82.8537 223.568 81.0516 222.927C79.2494 222.285 76.0098 226.098 73.8156 231.443C71.6215 236.788 71.3037 241.641 73.1058 242.283C74.908 242.924 78.1476 239.111 80.3418 233.766Z" fill="#747374"/>
<path d="M56.7458 268.246C68.7996 268.246 78.5712 259.147 78.5712 247.924C78.5712 236.701 68.7996 227.602 56.7458 227.602C44.692 227.602 34.9204 236.701 34.9204 247.924C34.9204 259.147 44.692 268.246 56.7458 268.246Z" fill="#747374"/>
<path d="M52.3812 264.994H47.1431V276.374H52.3812V264.994Z" fill="#747374"/>
<path d="M66.3494 264.994H59.3652V276.374H66.3494V264.994Z" fill="#747374"/>
<path d="M52.3812 278C55.2741 278 57.6193 277.272 57.6193 276.374C57.6193 275.476 55.2741 274.749 52.3812 274.749C49.4882 274.749 47.1431 275.476 47.1431 276.374C47.1431 277.272 49.4882 278 52.3812 278Z" fill="#747374"/>
<path d="M65.4763 278C68.8514 278 71.5875 276.908 71.5875 275.561C71.5875 274.215 68.8514 273.123 65.4763 273.123C62.1013 273.123 59.3652 274.215 59.3652 275.561C59.3652 276.908 62.1013 278 65.4763 278Z" fill="#747374"/>
<path d="M56.7458 250.363C61.0852 250.363 64.603 247.087 64.603 243.047C64.603 239.006 61.0852 235.731 56.7458 235.731C52.4064 235.731 48.8887 239.006 48.8887 243.047C48.8887 247.087 52.4064 250.363 56.7458 250.363Z" fill="#2F2E30"/>
<path d="M56.746 245.485C58.1925 245.485 59.365 244.394 59.365 243.047C59.365 241.7 58.1925 240.608 56.746 240.608C55.2995 240.608 54.127 241.7 54.127 243.047C54.127 244.394 55.2995 245.485 56.746 245.485Z" fill="#747374"/>
<path d="M35.253 229.077C33.4366 221.406 39.2429 213.655 48.2218 211.764C57.2007 209.873 65.952 214.559 67.7684 222.231C69.5848 229.902 63.6342 232.731 54.6553 234.622C45.6764 236.512 37.0694 236.749 35.253 229.077Z" fill="#F15738"/>
<path d="M41.4958 243.077C42.3226 241.454 38.4914 238.151 32.9387 235.699C27.386 233.247 22.2144 232.574 21.3876 234.198C20.5608 235.821 24.392 239.124 29.9447 241.576C35.4975 244.028 40.669 244.701 41.4958 243.077Z" fill="#747374"/>
<path d="M45.397 256.005C45.397 257.934 51.1355 261.743 57.5032 261.743C63.871 261.743 69.8414 256.313 69.8414 254.384C69.8414 252.455 63.8709 254.758 57.5032 254.758C51.1356 254.758 45.397 254.077 45.397 256.005Z" fill="#2F2E30"/>
<path d="M163.254 248.737C175.308 248.737 185.079 239.639 185.079 228.415C185.079 217.192 175.308 208.094 163.254 208.094C151.2 208.094 141.429 217.192 141.429 228.415C141.429 239.639 151.2 248.737 163.254 248.737Z" fill="#747374"/>
<path d="M158.889 245.485H151.905V256.865H158.889V245.485Z" fill="#747374"/>
<path d="M172.857 245.485H165.873V256.865H172.857V245.485Z" fill="#747374"/>
<path d="M158.016 258.491C161.391 258.491 164.127 257.399 164.127 256.053C164.127 254.706 161.391 253.614 158.016 253.614C154.641 253.614 151.905 254.706 151.905 256.053C151.905 257.399 154.641 258.491 158.016 258.491Z" fill="#747374"/>
<path d="M171.984 258.491C175.359 258.491 178.095 257.399 178.095 256.053C178.095 254.706 175.359 253.614 171.984 253.614C168.609 253.614 165.873 254.706 165.873 256.053C165.873 257.399 168.609 258.491 171.984 258.491Z" fill="#747374"/>
<path d="M141.744 209.569C140.023 201.897 145.524 194.146 154.03 192.255C162.536 190.365 170.827 195.051 172.548 202.722C174.269 210.393 168.631 213.222 160.125 215.113C151.619 217.004 143.465 217.24 141.744 209.569Z" fill="#F15738"/>
<path d="M186.796 219.47C191.616 214.979 194.295 210.196 192.781 208.788C191.267 207.379 186.132 209.877 181.312 214.369C176.493 218.86 173.813 223.643 175.327 225.051C176.841 226.46 181.976 223.961 186.796 219.47Z" fill="#747374"/>
<path d="M144.876 226.495C146.391 225.086 143.711 220.303 138.891 215.812C134.071 211.321 128.937 208.822 127.422 210.231C125.908 211.64 128.588 216.423 133.408 220.914C138.227 225.405 143.362 227.904 144.876 226.495Z" fill="#747374"/>
<path opacity="0.3" d="M298.544 97.6249C297.808 76.3778 282.232 59.6067 263.756 60.1656C223.653 61.2759 221.705 128.314 258.458 136.327C260.021 136.668 261.158 138.112 260.944 139.697C260.707 141.46 262.109 143.015 263.887 142.962L269.326 142.797C271.115 142.743 272.423 141.088 272.062 139.335C271.741 137.777 272.751 136.267 274.27 135.794C288.8 131.274 299.172 115.749 298.544 97.6249Z" fill="url(#paint3_linear_201_325)"/>
<path d="M242.698 108.785L237.52 108.924C235.49 100.95 235.169 92.7427 236.57 84.6765L241.748 84.538C239.836 92.9816 240.153 101.064 242.698 108.785Z" fill="#2F2E30"/>
<path d="M272.838 135.805L258.893 136.225L258.993 139.11L272.938 138.69L272.838 135.805Z" fill="#747374"/>
<path d="M231.909 245.485L230.476 244.877L265.71 136.561L267.143 137.17L231.909 245.485Z" fill="#747374"/>
<path d="M326.436 114.531C334.921 94.7251 327.736 73.4851 310.386 67.0903C272.804 53.127 242.096 113.914 272.549 135.069C273.869 135.986 274.34 137.787 273.474 139.141C272.51 140.646 273.186 142.657 274.863 143.276L279.882 145.126C281.601 145.759 283.489 144.752 283.92 142.971C284.302 141.393 285.848 140.403 287.466 140.539C302.878 141.831 319.194 131.435 326.436 114.531Z" fill="url(#paint4_linear_201_325)"/>
<path d="M271.438 105.672L267.142 104.074C268.918 96.0074 272.192 88.2946 276.815 81.2865L281.11 82.8845C275.907 90.0719 272.683 97.6679 271.438 105.672Z" fill="#2F2E30"/>
<path d="M273.917 136.355L272.772 139.038L285.738 143.835L286.883 141.152L273.917 136.355Z" fill="#747374"/>
<path d="M231.853 243.86L230.476 243.139L279.734 139.813L281.111 140.533L231.853 243.86Z" fill="#747374"/>
<path d="M64.0325 98.4084C55.1174 78.684 34.4175 68.3566 17.798 75.3414C-18.2877 90.3941 5.88735 154.039 42.442 148.831C44.0577 148.601 45.6698 149.534 46.0933 151.11C46.5672 152.874 48.4882 153.814 50.1718 153.107L54.7805 151.17C56.4618 150.463 57.0858 148.402 56.0785 146.881C55.1875 145.537 55.5729 143.734 56.8204 142.712C68.2294 133.358 71.6156 115.186 64.0325 98.4084Z" fill="url(#paint5_linear_201_325)"/>
<path d="M17.4604 128.317L13.4347 130.058C8.81224 123.145 5.44707 115.481 3.49219 107.414L7.51787 105.672C9.21332 114.255 12.5275 121.804 17.4604 128.317Z" fill="#2F2E30"/>
<path d="M56.6048 143.13L43.8145 148.321L45.0532 150.967L57.8436 145.777L56.6048 143.13Z" fill="#747374"/>
<path d="M86.718 247.09C86.5202 247.136 86.311 247.106 86.1365 247.007C85.9619 246.908 85.8363 246.747 85.7873 246.56L52.3809 146.665L53.8725 146.316L87.2789 246.211C87.3032 246.304 87.3079 246.4 87.2929 246.494C87.2779 246.588 87.2433 246.678 87.1912 246.76C87.1392 246.842 87.0706 246.913 86.9894 246.969C86.9082 247.026 86.816 247.067 86.718 247.09Z" fill="#747374"/>
<path d="M95.5156 278H14.4844C14.3475 278 14.2162 277.914 14.1194 277.762C14.0226 277.609 13.9683 277.403 13.9683 277.187C13.9683 276.972 14.0226 276.765 14.1194 276.612C14.2162 276.46 14.3475 276.374 14.4844 276.374H95.5156C95.6525 276.374 95.7838 276.46 95.8806 276.612C95.9773 276.765 96.0317 276.972 96.0317 277.187C96.0317 277.403 95.9773 277.609 95.8806 277.762C95.7838 277.914 95.6525 278 95.5156 278Z" fill="#CCCCCC"/>
<path d="M301.547 278H220.516C220.379 278 220.248 277.914 220.151 277.762C220.054 277.609 220 277.403 220 277.187C220 276.972 220.054 276.765 220.151 276.612C220.248 276.46 220.379 276.374 220.516 276.374H301.547C301.684 276.374 301.815 276.46 301.912 276.612C302.009 276.765 302.063 276.972 302.063 277.187C302.063 277.403 302.009 277.609 301.912 277.762C301.815 277.914 301.684 278 301.547 278Z" fill="#CCCCCC"/>
<path d="M205.516 258.491H124.484C124.347 258.491 124.216 258.405 124.119 258.253C124.023 258.101 123.968 257.894 123.968 257.678C123.968 257.463 124.023 257.256 124.119 257.103C124.216 256.951 124.347 256.865 124.484 256.865H205.516C205.652 256.865 205.784 256.951 205.881 257.103C205.977 257.256 206.032 257.463 206.032 257.678C206.032 257.894 205.977 258.101 205.881 258.253C205.784 258.405 205.652 258.491 205.516 258.491Z" fill="#CCCCCC"/>
<path d="M161.508 232.48C165.847 232.48 169.365 229.204 169.365 225.164C169.365 221.123 165.847 217.848 161.508 217.848C157.168 217.848 153.65 221.123 153.65 225.164C153.65 229.204 157.168 232.48 161.508 232.48Z" fill="#2F2E30"/>
<path d="M161.508 227.602C162.954 227.602 164.127 226.511 164.127 225.164C164.127 223.817 162.954 222.725 161.508 222.725C160.061 222.725 158.889 223.817 158.889 225.164C158.889 226.511 160.061 227.602 161.508 227.602Z" fill="#747374"/>
<path d="M167.548 238.223C167.756 239.471 167.502 240.757 166.843 241.799C166.183 242.842 165.173 243.555 164.033 243.782C162.893 244.009 161.718 243.732 160.765 243.01C159.812 242.289 159.16 241.183 158.953 239.936L158.951 239.926C158.522 237.329 160.357 236.409 162.731 235.939C165.105 235.469 167.118 235.626 167.548 238.223Z" fill="#2F2E30"/>
<defs>
<linearGradient id="paint0_linear_201_325" x1="29.6821" y1="80.8962" x2="83.8091" y2="80.8962" gradientUnits="userSpaceOnUse">
<stop stop-color="#FBAF3F"/>
<stop offset="1" stop-color="#EF4339"/>
</linearGradient>
<linearGradient id="paint1_linear_201_325" x1="260.159" y1="58.1361" x2="314.286" y2="58.1361" gradientUnits="userSpaceOnUse">
<stop stop-color="#FBAF3F"/>
<stop offset="1" stop-color="#EF4339"/>
</linearGradient>
<linearGradient id="paint2_linear_201_325" x1="127.46" y1="32.1244" x2="179.841" y2="32.1244" gradientUnits="userSpaceOnUse">
<stop stop-color="#FBAF3F"/>
<stop offset="1" stop-color="#EF4339"/>
</linearGradient>
<linearGradient id="paint3_linear_201_325" x1="232.222" y1="102.161" x2="298.571" y2="102.161" gradientUnits="userSpaceOnUse">
<stop stop-color="#FBAF3F"/>
<stop offset="1" stop-color="#EF4339"/>
</linearGradient>
<linearGradient id="paint4_linear_201_325" x1="260.159" y1="106.214" x2="330" y2="106.214" gradientUnits="userSpaceOnUse">
<stop stop-color="#FBAF3F"/>
<stop offset="1" stop-color="#EF4339"/>
</linearGradient>
<linearGradient id="paint5_linear_201_325" x1="0" y1="114.343" x2="68.0952" y2="114.343" gradientUnits="userSpaceOnUse">
<stop stop-color="#FBAF3F"/>
<stop offset="1" stop-color="#EF4339"/>
</linearGradient>
</defs>
</svg>
