<svg width="31" height="40" viewBox="0 0 31 40" fill="none" xmlns="http://www.w3.org/2000/svg">
<path d="M28.2275 7.80957L23.4653 2.91604C22.3045 1.74 20.7367 1.05423 19.0857 1H6.3975C4.96563 1 3.59326 1.56894 2.58078 2.58078C1.56892 3.59341 1 4.96567 1 6.3975V33.6031C1 35.0342 1.56894 36.4073 2.58078 37.4192C3.5934 38.4318 4.96567 39 6.3975 39H24.6582C26.0901 39 27.4625 38.4318 28.475 37.4192C29.4868 36.4074 30.0557 35.0343 30.0557 33.6031V12.3309C30.0725 10.6401 29.4143 9.01269 28.2275 7.8092L28.2275 7.80957ZM26.6619 9.33156C26.8468 9.5179 27.0117 9.72332 27.1545 9.94478H23.3223C22.4686 9.94478 21.6499 9.60495 21.0465 9.00166C20.4433 8.39837 20.1034 7.57972 20.1034 6.72586V3.38635C20.7854 3.59407 21.4032 3.97056 21.8996 4.48146L26.6619 9.33156ZM27.8663 33.6027C27.8663 34.4534 27.5279 35.269 26.9262 35.8709C26.3252 36.4727 25.5088 36.8102 24.658 36.8102H6.39727C5.54653 36.8102 4.73019 36.4727 4.12909 35.8709C3.52732 35.2691 3.18901 34.4535 3.18901 33.6027V6.3854C3.18901 5.53467 3.52732 4.71909 4.12909 4.11723C4.73009 3.51546 5.54646 3.17791 6.39727 3.17791H17.9141V6.72524C17.9317 8.15406 18.5067 9.5195 19.517 10.5306C20.5281 11.541 21.8935 12.116 23.3224 12.1335H27.8548V12.287L27.8663 33.6027Z" fill="#FBC275" stroke="#FBC275" stroke-width="0.5"/>
<path d="M19.9071 19.995H16.6233V16.7104C16.6233 16.1056 16.133 15.6161 15.5282 15.6161C14.9234 15.6161 14.4331 16.1056 14.4331 16.7104V19.995H11.1493C10.5445 19.995 10.0542 20.4853 10.0542 21.0901C10.0542 21.6942 10.5445 22.1845 11.1493 22.1845H14.4339V25.469H14.4331C14.4331 26.0739 14.9234 26.5641 15.5282 26.5641C16.1331 26.5641 16.6233 26.0739 16.6233 25.469V22.1845H19.9079H19.9071C20.512 22.1845 21.0022 21.6942 21.0022 21.0901C21.0022 20.4853 20.512 19.995 19.9071 19.995H19.9071Z" fill="#FBC275" stroke="#FBC275" stroke-width="0.5"/>
</svg>
