<svg width="625" height="713" viewBox="0 0 625 713" fill="none" xmlns="http://www.w3.org/2000/svg">
<path opacity="0.1" fill-rule="evenodd" clip-rule="evenodd" d="M198.174 17.9939C198.174 17.9939 295.63 -20.2147 386.174 25.0803C386.174 25.0803 426.397 46.317 408.174 95.9441L288.174 378.218C288.174 378.218 275.715 409.967 247.174 410.107C247.174 410.107 218.137 409.473 207.174 379.4C204.184 372.447 202.625 364.758 202.625 356.959C202.625 349.161 204.184 341.472 207.174 334.519L305.174 108.936C305.174 108.936 306.786 105.497 302.174 105.393C302.174 105.393 233.968 95.3099 181.174 139.643C181.174 139.643 98.5273 189.063 89.1743 321.527C89.1743 321.527 77.9553 435.5 167.174 516.403C167.174 516.403 200.615 537.929 199.174 570.732C199.174 570.732 198.644 589.816 190.174 601.44C190.174 601.44 176.111 622.992 155.174 622.699C155.174 622.699 145.244 623.838 133.174 614.431C133.174 614.431 5.1613 524.241 2.1743 343.968C2.1743 343.968 -11.2777 112.938 198.174 17.9939ZM456.554 695.974C456.554 695.974 358.96 733.688 268.582 687.935C268.582 687.935 228.437 666.494 246.84 616.96L367.865 335.296C367.865 335.296 380.439 303.612 408.98 303.617C408.98 303.617 438.014 304.397 448.868 334.526C451.833 341.494 453.364 349.191 453.336 356.989C453.307 364.788 451.721 372.469 448.705 379.407L349.886 604.49C349.886 604.49 348.261 607.921 352.873 608.049C352.873 608.049 421.042 618.478 473.996 574.412C473.996 574.412 556.822 525.412 566.657 393.001C566.657 393.001 578.29 279.081 489.366 197.732C489.366 197.732 456.003 176.037 457.566 143.241C457.566 143.241 458.166 124.161 466.677 112.579C466.677 112.579 480.819 91.0994 501.754 91.4974C501.754 91.4974 511.688 90.4085 523.724 99.8771C523.724 99.8771 651.406 190.715 653.736 371.002C653.734 370.997 666.354 602.093 456.554 695.974Z" stroke="url(#paint0_linear_3_2286)" stroke-width="4"/>
<defs>
<linearGradient id="paint0_linear_3_2286" x1="327.94" y1="710.577" x2="327.94" y2="2.93533" gradientUnits="userSpaceOnUse">
<stop stop-color="#FBAC3F"/>
<stop offset="1" stop-color="#F0463A"/>
</linearGradient>
</defs>
</svg>
