<svg width="656" height="624" viewBox="0 0 656 624" fill="none" xmlns="http://www.w3.org/2000/svg">
<path opacity="0.1" fill-rule="evenodd" clip-rule="evenodd" d="M198.188 15.9971C198.188 15.9971 295.644 -17.4211 386.188 22.1951C386.188 22.1951 426.411 40.7693 408.188 84.1744L288.188 331.059C288.188 331.059 275.729 358.827 247.188 358.95C247.188 358.95 218.151 358.395 207.188 332.092C204.198 326.011 202.639 319.286 202.639 312.465C202.639 305.644 204.198 298.92 207.188 292.838L305.188 95.5373C305.188 95.5373 306.8 92.5293 302.188 92.4384C302.188 92.4384 233.982 83.6197 181.188 122.395C181.188 122.395 98.541 165.618 89.188 281.475C89.188 281.475 77.969 381.159 167.188 451.919C167.188 451.919 200.629 470.746 199.188 499.436C199.188 499.436 198.658 516.127 190.188 526.294C190.188 526.294 176.125 545.144 155.188 544.888C155.188 544.888 145.258 545.885 133.188 537.657C133.188 537.657 5.17497 458.774 2.18797 301.102C2.18797 301.102 -11.264 99.0381 198.188 15.9971ZM456.568 608.977C456.568 608.977 358.974 641.962 268.596 601.945C268.596 601.945 228.451 583.192 246.854 539.869L367.879 293.518C367.879 293.518 380.453 265.806 408.994 265.81C408.994 265.81 438.028 266.493 448.882 292.845C451.847 298.939 453.378 305.671 453.349 312.491C453.321 319.312 451.735 326.03 448.719 332.098L349.9 528.962C349.9 528.962 348.275 531.963 352.887 532.075C352.887 532.075 421.056 541.196 474.01 502.655C474.01 502.655 556.836 459.798 566.671 343.988C566.671 343.988 578.304 244.351 489.38 173.201C489.38 173.201 456.017 154.226 457.58 125.542C457.58 125.542 458.18 108.854 466.691 98.7241C466.691 98.7241 480.833 79.9371 501.768 80.2852C501.768 80.2852 511.702 79.3328 523.738 87.6143C523.738 87.6143 651.42 167.064 653.75 324.747C653.748 324.743 666.368 526.865 456.568 608.977Z" stroke="url(#paint0_linear_2_1107)" stroke-width="4"/>
<defs>
<linearGradient id="paint0_linear_2_1107" x1="327.954" y1="621.749" x2="327.954" y2="2.82653" gradientUnits="userSpaceOnUse">
<stop stop-color="#FBAC3F"/>
<stop offset="1" stop-color="#F0463A"/>
</linearGradient>
</defs>
</svg>
