<svg width="656" height="678" viewBox="0 0 656 678" fill="none" xmlns="http://www.w3.org/2000/svg">
<path opacity="0.1" fill-rule="evenodd" clip-rule="evenodd" d="M198.188 16.8578C198.188 16.8578 295.644 -19.4517 386.188 23.592C386.188 23.592 426.411 43.7731 408.188 90.9336L288.188 359.178C288.188 359.178 275.729 389.348 247.188 389.482C247.188 389.482 218.151 388.879 207.188 360.3C204.198 353.693 202.639 346.386 202.639 338.975C202.639 331.564 204.198 324.258 207.188 317.65L305.188 103.28C305.188 103.28 306.8 100.011 302.188 99.9125C302.188 99.9125 233.982 90.3309 181.188 132.461C181.188 132.461 98.541 179.424 89.188 305.304C89.188 305.304 77.969 413.612 167.188 490.494C167.188 490.494 200.629 510.95 199.188 542.123C199.188 542.123 198.658 560.258 190.188 571.304C190.188 571.304 176.125 591.785 155.188 591.506C155.188 591.506 145.258 592.59 133.188 583.65C133.188 583.65 5.17497 497.942 2.18797 326.629C2.18797 326.629 -11.264 107.083 198.188 16.8578ZM456.568 661.14C456.568 661.14 358.974 696.979 268.596 653.5C268.596 653.5 228.451 633.125 246.854 586.053L367.879 318.389C367.879 318.389 380.453 288.279 408.994 288.284C408.994 288.284 438.028 289.026 448.882 317.657C451.847 324.279 453.378 331.593 453.349 339.004C453.321 346.415 451.735 353.714 448.719 360.307L349.9 574.203C349.9 574.203 348.275 577.464 352.887 577.585C352.887 577.585 421.056 587.495 474.01 545.62C474.01 545.62 556.836 499.055 566.671 373.225C566.671 373.225 578.304 264.968 489.38 187.662C489.38 187.662 456.017 167.045 457.58 135.88C457.58 135.88 458.18 117.748 466.691 106.742C466.691 106.742 480.833 86.3297 501.768 86.7079C501.768 86.7079 511.702 85.6731 523.738 94.6711C523.738 94.6711 651.42 180.994 653.75 352.32C653.748 352.316 666.368 571.925 456.568 661.14Z" stroke="url(#paint0_linear_2_1300)" stroke-width="4"/>
<defs>
<linearGradient id="paint0_linear_2_1300" x1="327.954" y1="675.017" x2="327.954" y2="2.54772" gradientUnits="userSpaceOnUse">
<stop stop-color="#FBAC3F"/>
<stop offset="1" stop-color="#F0463A"/>
</linearGradient>
</defs>
</svg>
