<svg width="645" height="604" viewBox="0 0 645 604" fill="none" xmlns="http://www.w3.org/2000/svg">
<path opacity="0.1" fill-rule="evenodd" clip-rule="evenodd" d="M198.174 14.7527C198.174 14.7527 295.63 -17.5983 386.174 20.7527C386.174 20.7527 426.397 38.7337 408.174 80.7527L288.174 319.753C288.174 319.753 275.715 346.634 247.174 346.753C247.174 346.753 218.137 346.216 207.174 320.753C204.184 314.866 202.625 308.356 202.625 301.753C202.625 295.15 204.184 288.64 207.174 282.753L305.174 91.7527C305.174 91.7527 306.786 88.8407 302.174 88.7527C302.174 88.7527 233.968 80.2157 181.174 117.753C181.174 117.753 98.5273 159.596 89.1743 271.753C89.1743 271.753 77.9553 368.253 167.174 436.753C167.174 436.753 200.615 454.979 199.174 482.753C199.174 482.753 198.644 498.911 190.174 508.753C190.174 508.753 176.111 527.001 155.174 526.753C155.174 526.753 145.244 527.718 133.174 519.753C133.174 519.753 5.1613 443.389 2.1743 290.753C2.1743 290.753 -11.2777 95.1417 198.174 14.7527ZM456.554 588.795C456.554 588.795 358.96 620.727 268.582 581.988C268.582 581.988 228.437 563.834 246.84 521.894L367.865 283.411C367.865 283.411 380.439 256.584 408.98 256.588C408.98 256.588 438.014 257.249 448.868 282.759C451.833 288.659 453.364 295.175 453.336 301.778C453.307 308.381 451.721 314.884 448.705 320.759L349.886 511.336C349.886 511.336 348.261 514.241 352.873 514.349C352.873 514.349 421.042 523.179 473.996 485.869C473.996 485.869 556.822 444.381 566.657 332.269C566.657 332.269 578.29 235.814 489.366 166.936C489.366 166.936 456.003 148.567 457.566 120.799C457.566 120.799 458.166 104.644 466.677 94.8377C466.677 94.8377 480.819 76.6507 501.754 76.9877C501.754 76.9877 511.688 76.0657 523.724 84.0827C523.724 84.0827 651.406 160.995 653.736 313.643C653.734 313.639 666.354 509.306 456.554 588.795Z" stroke="url(#paint0_linear_113_632)" stroke-width="4"/>
<defs>
<linearGradient id="paint0_linear_113_632" x1="327.94" y1="601.159" x2="327.94" y2="2.00271" gradientUnits="userSpaceOnUse">
<stop stop-color="#FBAC3F"/>
<stop offset="1" stop-color="#F0463A"/>
</linearGradient>
</defs>
</svg>
