<svg width="656" height="605" viewBox="0 0 656 605" fill="none" xmlns="http://www.w3.org/2000/svg">
<path opacity="0.1" fill-rule="evenodd" clip-rule="evenodd" d="M198.188 15.7498C198.188 15.7498 295.644 -16.6012 386.188 21.7498C386.188 21.7498 426.411 39.7308 408.188 81.7498L288.188 320.75C288.188 320.75 275.729 347.631 247.188 347.75C247.188 347.75 218.151 347.213 207.188 321.75C204.198 315.863 202.639 309.353 202.639 302.75C202.639 296.147 204.198 289.637 207.188 283.75L305.188 92.7498C305.188 92.7498 306.8 89.8378 302.188 89.7498C302.188 89.7498 233.982 81.2128 181.188 118.75C181.188 118.75 98.541 160.593 89.188 272.75C89.188 272.75 77.969 369.25 167.188 437.75C167.188 437.75 200.629 455.976 199.188 483.75C199.188 483.75 198.658 499.908 190.188 509.75C190.188 509.75 176.125 527.998 155.188 527.75C155.188 527.75 145.258 528.715 133.188 520.75C133.188 520.75 5.17497 444.386 2.18797 291.75C2.18797 291.75 -11.264 96.1388 198.188 15.7498ZM456.568 589.792C456.568 589.792 358.974 621.724 268.596 582.985C268.596 582.985 228.451 564.831 246.854 522.891L367.879 284.408C367.879 284.408 380.453 257.581 408.994 257.585C408.994 257.585 438.028 258.246 448.882 283.756C451.847 289.656 453.378 296.172 453.349 302.775C453.321 309.378 451.735 315.881 448.719 321.756L349.9 512.333C349.9 512.333 348.275 515.238 352.887 515.346C352.887 515.346 421.056 524.176 474.01 486.866C474.01 486.866 556.836 445.378 566.671 333.266C566.671 333.266 578.304 236.811 489.38 167.933C489.38 167.933 456.017 149.564 457.58 121.796C457.58 121.796 458.18 105.641 466.691 95.8348C466.691 95.8348 480.833 77.6478 501.768 77.9848C501.768 77.9848 511.702 77.0628 523.738 85.0798C523.738 85.0798 651.42 161.992 653.75 314.64C653.748 314.636 666.368 510.303 456.568 589.792Z" stroke="url(#paint0_linear_2_697)" stroke-width="4"/>
<defs>
<linearGradient id="paint0_linear_2_697" x1="327.954" y1="602.156" x2="327.954" y2="2.99978" gradientUnits="userSpaceOnUse">
<stop stop-color="#FBAC3F"/>
<stop offset="1" stop-color="#F0463A"/>
</linearGradient>
</defs>
</svg>
