<svg width="1129" height="2107" viewBox="0 0 1129 2107" fill="none" xmlns="http://www.w3.org/2000/svg">
<mask id="path-1-inside-1_2_509" fill="white">
<path fill-rule="evenodd" clip-rule="evenodd" d="M12 0C5.37258 0 0 5.37259 0 12V102.821C0 107.784 0.755357 113.27 0.155164 118.198C0.0527303 119.038 0 119.895 0 120.763V2086C0 2097.6 9.40201 2107 21 2107H1108C1119.6 2107 1129 2097.6 1129 2086V120.763C1129 109.165 1119.6 99.7633 1108 99.7633H290C278.954 99.7633 270 90.8089 270 79.7632V12C270 5.37258 264.627 0 258 0H12Z"/>
</mask>
<path fill-rule="evenodd" clip-rule="evenodd" d="M12 0C5.37258 0 0 5.37259 0 12V102.821C0 107.784 0.755357 113.27 0.155164 118.198C0.0527303 119.038 0 119.895 0 120.763V2086C0 2097.6 9.40201 2107 21 2107H1108C1119.6 2107 1129 2097.6 1129 2086V120.763C1129 109.165 1119.6 99.7633 1108 99.7633H290C278.954 99.7633 270 90.8089 270 79.7632V12C270 5.37258 264.627 0 258 0H12Z" fill="#2F2E30"/>
<path d="M2 12C2 6.47715 6.47715 2 12 2V-2C4.26801 -2 -2 4.26802 -2 12H2ZM2 102.821V12H-2V102.821H2ZM2 120.763C2 119.976 2.04781 119.2 2.14049 118.439L-1.83016 117.956C-1.94235 118.877 -2 119.814 -2 120.763H2ZM2 2086V120.763H-2V2086H2ZM21 2105C10.5066 2105 2 2096.49 2 2086H-2C-2 2098.7 8.29744 2109 21 2109V2105ZM1108 2105H21V2109H1108V2105ZM1127 2086C1127 2096.49 1118.49 2105 1108 2105V2109C1120.7 2109 1131 2098.7 1131 2086H1127ZM1127 120.763V2086H1131V120.763H1127ZM1108 101.763C1118.49 101.763 1127 110.27 1127 120.763H1131C1131 108.061 1120.7 97.7633 1108 97.7633V101.763ZM290 101.763H1108V97.7633H290V101.763ZM268 12V79.7632H272V12H268ZM258 2C263.523 2 268 6.47715 268 12H272C272 4.26801 265.732 -2 258 -2V2ZM12 2H258V-2H12V2ZM290 97.7633C280.059 97.7633 272 89.7044 272 79.7632H268C268 91.9135 277.85 101.763 290 101.763V97.7633ZM-2 102.821C-2 105.36 -1.80575 108.083 -1.69544 110.61C-1.58257 113.196 -1.55093 115.663 -1.83016 117.956L2.14049 118.439C2.46145 115.805 2.41551 113.065 2.30075 110.436C2.18343 107.747 2 105.245 2 102.821H-2Z" fill="#665442" mask="url(#path-1-inside-1_2_509)"/>
</svg>
