<svg width="1129" height="2039" viewBox="0 0 1129 2039" fill="none" xmlns="http://www.w3.org/2000/svg">
<mask id="path-1-inside-1_2_698" fill="white">
<path fill-rule="evenodd" clip-rule="evenodd" d="M12 0C5.37258 0 0 5.37258 0 12V99.1152C0 104.198 0.796495 109.861 0.164203 114.905C0.0558336 115.769 0 116.65 0 117.544V2018C0 2029.6 9.40201 2039 21 2039H1108C1119.6 2039 1129 2029.6 1129 2018V117.544C1129 105.946 1119.6 96.5436 1108 96.5436H290C278.954 96.5436 270 87.5892 270 76.5435V12C270 5.37258 264.627 0 258 0H12Z"/>
</mask>
<path fill-rule="evenodd" clip-rule="evenodd" d="M12 0C5.37258 0 0 5.37258 0 12V99.1152C0 104.198 0.796495 109.861 0.164203 114.905C0.0558336 115.769 0 116.65 0 117.544V2018C0 2029.6 9.40201 2039 21 2039H1108C1119.6 2039 1129 2029.6 1129 2018V117.544C1129 105.946 1119.6 96.5436 1108 96.5436H290C278.954 96.5436 270 87.5892 270 76.5435V12C270 5.37258 264.627 0 258 0H12Z" fill="#2F2E30"/>
<path d="M0.164203 114.905L-1.82026 114.656L0.164203 114.905ZM2 12C2 6.47715 6.47715 2 12 2V-2C4.26802 -2 -2 4.26801 -2 12H2ZM2 99.1152V12H-2V99.1152H2ZM2 117.544C2 116.733 2.05062 115.936 2.14867 115.153L-1.82026 114.656C-1.93895 115.603 -2 116.566 -2 117.544H2ZM2 2018V117.544H-2V2018H2ZM21 2037C10.5066 2037 2 2028.49 2 2018H-2C-2 2030.7 8.29744 2041 21 2041V2037ZM1108 2037H21V2041H1108V2037ZM1127 2018C1127 2028.49 1118.49 2037 1108 2037V2041C1120.7 2041 1131 2030.7 1131 2018H1127ZM1127 117.544V2018H1131V117.544H1127ZM1108 98.5436C1118.49 98.5436 1127 107.05 1127 117.544H1131C1131 104.841 1120.7 94.5436 1108 94.5436V98.5436ZM290 98.5436H1108V94.5436H290V98.5436ZM268 12V76.5435H272V12H268ZM258 2C263.523 2 268 6.47715 268 12H272C272 4.26801 265.732 -2 258 -2V2ZM12 2H258V-2H12V2ZM290 94.5436C280.059 94.5436 272 86.4847 272 76.5435H268C268 88.6938 277.85 98.5436 290 98.5436V94.5436ZM-2 99.1152C-2 101.715 -1.79517 104.515 -1.67879 107.114C-1.55966 109.774 -1.52623 112.311 -1.82026 114.656L2.14867 115.153C2.48692 112.455 2.43826 109.638 2.31721 106.935C2.19342 104.171 2 101.598 2 99.1152H-2Z" fill="#665442" mask="url(#path-1-inside-1_2_698)"/>
</svg>
