<svg width="1129" height="2113" viewBox="0 0 1129 2113" fill="none" xmlns="http://www.w3.org/2000/svg">
<mask id="path-1-inside-1_2_898" fill="white">
<path fill-rule="evenodd" clip-rule="evenodd" d="M12 0C5.37258 0 0 5.37258 0 12V99.1152C0 104.765 1.01888 111.393 0.214819 116.985C0.0732584 117.97 0 118.976 0 120V2092C0 2103.6 9.40201 2113 21 2113H1108C1119.6 2113 1129 2103.6 1129 2092V120C1129 108.402 1119.6 99 1108 99H290C278.954 99 270 90.0457 270 79V12C270 5.37258 264.627 0 258 0H12Z"/>
</mask>
<path fill-rule="evenodd" clip-rule="evenodd" d="M12 0C5.37258 0 0 5.37258 0 12V99.1152C0 104.765 1.01888 111.393 0.214819 116.985C0.0732584 117.97 0 118.976 0 120V2092C0 2103.6 9.40201 2113 21 2113H1108C1119.6 2113 1129 2103.6 1129 2092V120C1129 108.402 1119.6 99 1108 99H290C278.954 99 270 90.0457 270 79V12C270 5.37258 264.627 0 258 0H12Z" fill="#2F2E30"/>
<path d="M2 12C2 6.47715 6.47715 2 12 2V-2C4.26802 -2 -2 4.26801 -2 12H2ZM2 99.1152V12H-2V99.1152H2ZM2 120C2 119.072 2.06641 118.16 2.19446 117.27L-1.76482 116.7C-1.9199 117.779 -2 118.881 -2 120H2ZM2 2092V120H-2V2092H2ZM21 2111C10.5066 2111 2 2102.49 2 2092H-2C-2 2104.7 8.29744 2115 21 2115V2111ZM1108 2111H21V2115H1108V2111ZM1127 2092C1127 2102.49 1118.49 2111 1108 2111V2115C1120.7 2115 1131 2104.7 1131 2092H1127ZM1127 120V2092H1131V120H1127ZM1108 101C1118.49 101 1127 109.507 1127 120H1131C1131 107.297 1120.7 97 1108 97V101ZM290 101H1108V97H290V101ZM268 12V79H272V12H268ZM258 2C263.523 2 268 6.47715 268 12H272C272 4.26801 265.732 -2 258 -2V2ZM12 2H258V-2H12V2ZM290 97C280.059 97 272 88.9411 272 79H268C268 91.1503 277.85 101 290 101V97ZM-2 99.1152C-2 102.006 -1.73802 105.204 -1.58854 108.172C-1.43533 111.214 -1.39194 114.107 -1.76482 116.7L2.19446 117.27C2.62564 114.271 2.56162 111.053 2.4064 107.971C2.24746 104.815 2 101.874 2 99.1152H-2Z" fill="#665442" mask="url(#path-1-inside-1_2_898)"/>
</svg>
