<svg width="40" height="40" viewBox="0 0 40 40" fill="none" xmlns="http://www.w3.org/2000/svg">
<path d="M20.7789 0C20.4491 0.00139505 20.1333 0.132812 19.9 0.366066C19.6667 0.59932 19.535 0.915166 19.5339 1.24527V21.25C19.5337 21.5873 19.6698 21.9104 19.9112 22.1459C20.1528 22.3814 20.479 22.5092 20.8163 22.5005C21.1534 22.4919 21.4729 22.3474 21.7019 22.0996L25.9377 17.5051H38.745C39.0784 17.5062 39.3982 17.3745 39.6339 17.1387C39.8694 16.9032 40.0014 16.5832 40 16.2501V1.24531C39.9986 0.913566 39.8658 0.596327 39.6303 0.362824C39.3951 0.129291 39.0767 -0.00129284 38.7449 0.000107141L20.7789 0ZM22.0265 2.49997H37.5002V15.0048H25.3929C25.0436 15.0017 24.7088 15.1451 24.4699 15.4002L22.026 18.0491L22.0265 2.49997ZM29.7244 3.39367C29.3622 3.40511 29.0226 3.57363 28.7942 3.85488L27.2439 5.72513L24.9833 6.63584C24.6418 6.77618 24.3801 7.06049 24.2679 7.41233C24.1557 7.76389 24.2051 8.14724 24.4021 8.45945L25.706 10.52L25.8745 12.9368C25.9002 13.3062 26.088 13.6452 26.3879 13.8623C26.6876 14.0797 27.0682 14.1528 27.427 14.0624L29.7808 13.4569L32.1438 14.0478C32.5035 14.1366 32.8838 14.0618 33.1826 13.8431C33.4814 13.6243 33.6678 13.2845 33.6918 12.9151L33.8456 10.4835L35.1346 8.42291C35.33 8.1079 35.3754 7.72286 35.2591 7.37128C35.1425 7.01945 34.8763 6.73764 34.5317 6.60151L32.2685 5.71031L30.7107 3.84283C30.5229 3.61739 30.262 3.46532 29.9735 3.41315C29.8912 3.39809 29.8078 3.39167 29.7244 3.39362L29.7244 3.39367ZM29.7587 6.59898L30.5642 7.55597C30.6976 7.71389 30.8678 7.83638 31.0597 7.91255L32.2219 8.37403L31.5531 9.42616C31.444 9.60389 31.3809 9.80618 31.3701 10.0146L31.2894 11.2548L30.0832 10.9543C29.8801 10.9052 29.6677 10.9077 29.4657 10.9618L28.262 11.2693L28.1741 10.0243C28.1596 9.81786 28.0943 9.61809 27.9838 9.44314L27.3172 8.38845L28.4721 7.92222H28.4718C28.6646 7.84465 28.8348 7.72049 28.9676 7.56089L29.7587 6.59898ZM9.66067 11.6918C5.48063 11.6918 2.0656 15.1044 2.0656 19.2846C2.0656 21.8219 3.3279 24.0733 5.2517 25.4539C2.13703 27.0613 1.10645e-05 30.3059 1.10645e-05 34.048V38.7452C-0.00138402 39.0767 0.129198 39.3951 0.362736 39.6303C0.596274 39.8658 0.913519 39.9986 1.24503 40H18.0766C18.4081 39.9986 18.7256 39.8658 18.9591 39.6303C19.1924 39.3951 19.323 39.0767 19.3216 38.7452V34.048C19.3216 30.3054 17.186 27.0587 14.0701 25.4517C15.9931 24.0712 17.2562 21.8218 17.2562 19.2847C17.2562 15.1047 13.841 11.6919 9.66112 11.6919L9.66067 11.6918ZM9.66067 14.1918C12.4896 14.1918 14.7536 16.4557 14.7536 19.2844C14.7536 22.1133 12.4897 24.3794 9.66067 24.3794C6.83164 24.3794 4.56769 22.1133 4.56769 19.2844C4.56769 16.4555 6.83164 14.1918 9.66067 14.1918ZM9.66067 26.8795C13.6506 26.8795 16.8214 30.0574 16.8214 34.0472L16.8212 37.4992H2.49961V34.0472C2.49961 30.0574 5.67042 26.8795 9.66039 26.8795H9.66067Z" fill="#FBC275"/>
</svg>
