<svg width="15" height="9" viewBox="0 0 15 9" fill="none" xmlns="http://www.w3.org/2000/svg">
<path d="M14.9094 4.15781C13.4971 1.67789 10.7013 0 7.5 0C4.29869 0 1.50207 1.67906 0.0906109 4.15805C0.0310384 4.2641 0 4.38128 0 4.50012C0 4.61896 0.0310384 4.73613 0.0906109 4.84219C1.50285 7.32211 4.29869 9 7.5 9C10.7013 9 13.4979 7.32094 14.9094 4.84195C14.969 4.7359 15 4.61872 15 4.49988C15 4.38104 14.969 4.26387 14.9094 4.15781ZM7.5 7.875C6.75832 7.875 6.03329 7.67706 5.41661 7.30621C4.79992 6.93536 4.31927 6.40826 4.03545 5.79156C3.75162 5.17486 3.67735 4.49626 3.82205 3.84157C3.96674 3.18688 4.3239 2.58552 4.84834 2.11351C5.37279 1.64151 6.04098 1.32007 6.76841 1.18985C7.49584 1.05962 8.24984 1.12646 8.93507 1.38191C9.62029 1.63735 10.206 2.06993 10.618 2.62495C11.0301 3.17997 11.25 3.83249 11.25 4.5C11.2502 4.94327 11.1534 5.38224 10.965 5.79181C10.7767 6.20138 10.5005 6.57353 10.1522 6.88697C9.80392 7.20041 9.39043 7.449 8.93535 7.61853C8.48027 7.78807 7.99253 7.87522 7.5 7.875ZM7.5 2.25C7.27686 2.25281 7.05515 2.28269 6.84088 2.33883C7.0175 2.55485 7.10226 2.82068 7.07978 3.08811C7.0573 3.35555 6.92908 3.60688 6.71836 3.79652C6.50764 3.98617 6.22838 4.10157 5.93123 4.1218C5.63408 4.14203 5.33871 4.06575 5.09869 3.9068C4.96202 4.35998 4.98669 4.84033 5.16924 5.28023C5.35178 5.72014 5.68301 6.09745 6.1163 6.35905C6.54959 6.62066 7.06313 6.75339 7.58463 6.73856C8.10613 6.72374 8.60933 6.5621 9.02341 6.2764C9.43749 5.9907 9.7416 5.59533 9.89293 5.14593C10.0443 4.69654 10.0352 4.21574 9.86701 3.77123C9.69882 3.32671 9.37999 2.94085 8.95538 2.66796C8.53076 2.39507 8.02176 2.24889 7.5 2.25Z" fill="#545254"/>
</svg>
