<svg width="26" height="27" viewBox="0 0 26 27" fill="none" xmlns="http://www.w3.org/2000/svg">
<path d="M26 1.55769V19.7308C26 20.2716 25.8082 20.753 25.4245 21.1749C25.0408 21.5968 24.5556 21.924 23.9688 22.1566C23.3819 22.3891 22.798 22.5622 22.2168 22.6758C21.6356 22.7894 21.0911 22.8462 20.5833 22.8462C20.0755 22.8462 19.531 22.7894 18.9499 22.6758C18.3687 22.5622 17.7847 22.3891 17.1979 22.1566C16.6111 21.924 16.1259 21.5968 15.7422 21.1749C15.3585 20.753 15.1667 20.2716 15.1667 19.7308C15.1667 19.1899 15.3585 18.7085 15.7422 18.2867C16.1259 17.8648 16.6111 17.5376 17.1979 17.305C17.7847 17.0724 18.3687 16.8993 18.9499 16.7858C19.531 16.6722 20.0755 16.6154 20.5833 16.6154C21.7682 16.6154 22.8516 16.8263 23.8333 17.2482V8.53486L10.8333 12.3804V23.8846C10.8333 24.4255 10.6415 24.9069 10.2578 25.3287C9.87413 25.7506 9.38889 26.0778 8.80208 26.3104C8.21528 26.543 7.63129 26.716 7.05013 26.8296C6.46897 26.9432 5.92448 27 5.41667 27C4.90885 27 4.36437 26.9432 3.7832 26.8296C3.20204 26.716 2.61806 26.543 2.03125 26.3104C1.44444 26.0778 0.959201 25.7506 0.575521 25.3287C0.19184 24.9069 0 24.4255 0 23.8846C0 23.3438 0.19184 22.8624 0.575521 22.4405C0.959201 22.0186 1.44444 21.6914 2.03125 21.4588C2.61806 21.2263 3.20204 21.0532 3.7832 20.9396C4.36437 20.826 4.90885 20.7692 5.41667 20.7692C6.60156 20.7692 7.6849 20.9802 8.66667 21.402V5.71154C8.66667 5.3762 8.77387 5.07061 8.98828 4.79477C9.20269 4.51893 9.47917 4.32692 9.81771 4.21875L23.901 0.0649038C24.0365 0.0216346 24.1944 0 24.375 0C24.8264 0 25.2101 0.151442 25.526 0.454327C25.842 0.757212 26 1.125 26 1.55769Z" fill="url(#paint0_linear_2_1053)"/>
<defs>
<linearGradient id="paint0_linear_2_1053" x1="0" y1="13.68" x2="26" y2="13.68" gradientUnits="userSpaceOnUse">
<stop stop-color="#FBAF3F"/>
<stop offset="1" stop-color="#EF4339"/>
</linearGradient>
</defs>
</svg>
