<svg width="24" height="24" viewBox="0 0 24 24" fill="none" xmlns="http://www.w3.org/2000/svg">
<path d="M8.78851 19.0394L7.57351 20.2469C7.06452 20.7479 6.37896 21.0287 5.66476 21.0287C4.95057 21.0287 4.26501 20.7479 3.75601 20.2469C3.50785 20.0012 3.31085 19.7087 3.1764 19.3863C3.04196 19.064 2.97274 18.7182 2.97274 18.3689C2.97274 18.0196 3.04196 17.6738 3.1764 17.3515C3.31085 17.0291 3.50785 16.7366 3.75601 16.4909L8.22601 12.0583C9.15151 11.1388 10.8945 9.78576 12.165 11.0458C12.3017 11.1916 12.4664 11.3083 12.6493 11.3891C12.8321 11.4698 13.0293 11.5129 13.2292 11.5157C13.429 11.5186 13.6274 11.4812 13.8125 11.4057C13.9975 11.3302 14.1655 11.2181 14.3063 11.0763C14.4471 10.9345 14.5579 10.7657 14.6321 10.5801C14.7063 10.3945 14.7423 10.1959 14.738 9.99605C14.7338 9.79623 14.6893 9.59931 14.6072 9.41705C14.5252 9.23479 14.4073 9.07093 14.2605 8.93525C12.1035 6.79321 8.91151 7.18922 6.13201 9.94777L1.66202 14.3818C1.13385 14.9026 0.714832 15.5234 0.429459 16.208C0.144086 16.8926 -0.00190766 17.6272 1.88199e-05 18.3689C-0.00182391 19.1106 0.144208 19.8452 0.429576 20.5298C0.714944 21.2144 1.13392 21.8352 1.66202 22.356C2.72656 23.4119 4.1661 24.0031 5.66551 24C7.11601 24 8.56651 23.4525 9.66901 22.356L10.8855 21.1484C11.0242 21.0112 11.1345 20.848 11.21 20.6681C11.2855 20.4882 11.3247 20.2951 11.3254 20.1C11.3261 19.9049 11.2883 19.7115 11.2141 19.5311C11.1399 19.3506 11.0308 19.1866 10.893 19.0484C10.6146 18.7692 10.2369 18.6115 9.84261 18.6099C9.4483 18.6082 9.06934 18.7626 8.78851 19.0394ZM22.3365 1.81314C20.016 -0.487902 16.773 -0.612404 14.628 1.51763L13.1145 3.02065C12.8348 3.29834 12.6769 3.67575 12.6755 4.06987C12.6741 4.46398 12.8293 4.84251 13.107 5.12219C13.3847 5.40186 13.7621 5.55977 14.1562 5.56118C14.5503 5.56259 14.9288 5.40737 15.2085 5.12969L16.7235 3.62816C17.8335 2.52415 19.29 2.98165 20.2425 3.92367C20.7465 4.42618 21.0255 5.09219 21.0255 5.8017C21.0255 6.51121 20.7465 7.17722 20.2425 7.67823L15.4725 12.4093C13.2915 14.5708 12.2685 13.5583 11.832 13.1248C11.6935 12.9873 11.5293 12.8784 11.3488 12.8044C11.1682 12.7304 10.9748 12.6926 10.7797 12.6933C10.5846 12.694 10.3915 12.7331 10.2114 12.8085C10.0314 12.8838 9.868 12.9938 9.73051 13.1323C9.59301 13.2708 9.48414 13.435 9.41011 13.6156C9.33607 13.7961 9.29833 13.9895 9.29902 14.1846C9.29972 14.3798 9.33885 14.5729 9.41417 14.7529C9.48949 14.9329 9.59953 15.0964 9.73801 15.2339C10.74 16.2269 11.883 16.7189 13.08 16.7189C14.5455 16.7189 16.095 15.9809 17.5695 14.5183L22.3395 9.78876C22.8665 9.26726 23.2847 8.64626 23.5697 7.96182C23.8548 7.27738 24.001 6.54313 24 5.8017C24.0013 5.05973 23.8549 4.32492 23.5693 3.64013C23.2837 2.95534 22.8646 2.33426 22.3365 1.81314Z" fill="url(#paint0_linear_2_1048)"/>
<defs>
<linearGradient id="paint0_linear_2_1048" x1="0" y1="12.16" x2="24" y2="12.16" gradientUnits="userSpaceOnUse">
<stop stop-color="#FBAF3F"/>
<stop offset="1" stop-color="#EF4339"/>
</linearGradient>
</defs>
</svg>
