<svg width="6" height="6" viewBox="0 0 6 6" fill="none" xmlns="http://www.w3.org/2000/svg">
<path d="M5.96706 0.649816C5.96717 0.48237 5.90489 0.321319 5.78645 0.19243C5.54332 -0.058912 5.14407 -0.0591935 4.90061 0.191805L3.00288 2.14187L1.10773 0.189131C0.864606 -0.0622109 0.465356 -0.0624924 0.221896 0.188506C-0.0215633 0.439505 -0.0218359 0.851682 0.221291 1.10302L2.55905 3.51977C2.6775 3.64222 2.83341 3.70674 3.00185 3.70685C3.17028 3.70697 3.32628 3.63624 3.44489 3.5204L5.78584 1.10695C5.90446 0.978226 5.96695 0.810823 5.96706 0.649816Z" fill="#4B3E33"/>
<path d="M5.99802 5.34681C5.99791 5.51622 5.93469 5.67908 5.81468 5.80931C5.56837 6.06325 5.16443 6.06296 4.91844 5.80866L3.00098 3.83292L1.08098 5.80586C0.834668 6.0598 0.430726 6.05951 0.184736 5.80521C-0.0612531 5.55091 -0.0609859 5.13389 0.185329 4.87994L2.55375 2.43818C2.67374 2.31447 2.83158 2.24942 3.00199 2.24955C3.1724 2.24967 3.33015 2.32146 3.44999 2.43884L5.81528 4.88404C5.93511 5.01445 5.99812 5.18391 5.99802 5.34681Z" fill="#4B3E33"/>
</svg>
