<svg width="221" height="215" viewBox="0 0 221 215" fill="none" xmlns="http://www.w3.org/2000/svg">
<path d="M218.35 176.964C216.346 190.399 207.318 200.802 197.706 209.893C196.363 211.163 195.018 212.408 193.67 213.628C193.66 213.634 193.651 213.646 193.642 213.652C193.577 213.71 193.512 213.769 193.452 213.827C193.173 214.078 192.895 214.33 192.619 214.578L192.792 214.637L193.332 214.818C193.146 214.763 192.964 214.71 192.778 214.654C192.723 214.637 192.666 214.623 192.611 214.606C186.238 212.73 179.735 210.671 174.525 206.277C169.12 201.713 165.398 193.932 167.262 186.762C167.507 185.823 167.848 184.917 168.278 184.06C168.454 183.701 168.647 183.354 168.851 183.012C170.083 180.904 171.808 179.191 173.848 178.05C175.889 176.909 178.172 176.38 180.462 176.519C182.752 176.658 184.967 177.459 186.879 178.84C188.791 180.221 190.331 182.131 191.341 184.376C191.25 176.476 184.628 170.716 178.417 166.639C172.204 162.565 165.169 158.163 163.216 150.551C162.126 146.317 163.043 141.955 165.181 138.269C165.248 138.157 165.314 138.045 165.383 137.935C168.006 133.626 172.024 130.553 176.635 129.331C185.239 127.204 194.256 131.121 201.313 136.894C212.671 146.181 220.628 161.688 218.35 176.964Z" fill="#747374"/>
<path d="M200.101 162.121C202.086 164.737 203.71 167.655 204.922 170.781C205.964 173.581 206.616 176.535 206.856 179.545C207.379 185.728 206.303 191.978 204.156 197.7C202.486 202.045 200.319 206.141 197.706 209.893C196.364 211.163 195.018 212.408 193.67 213.628C193.66 213.634 193.651 213.645 193.642 213.652C193.577 213.71 193.512 213.769 193.452 213.827C193.173 214.078 192.895 214.33 192.619 214.578L192.792 214.637L193.332 214.818C193.146 214.762 192.964 214.71 192.779 214.654C192.723 214.637 192.666 214.623 192.611 214.606C192.619 209.667 191.541 204.799 189.467 200.408C187.393 196.017 184.383 192.232 180.69 189.37C176.995 186.559 172.742 184.739 168.278 184.06C168.454 183.701 168.647 183.354 168.851 183.012C170.578 183.304 172.278 183.762 173.932 184.38C179.839 186.572 184.942 190.777 188.485 196.375C191.672 201.462 193.46 207.434 193.64 213.59C193.863 213.311 194.085 213.026 194.3 212.745C198.402 207.448 201.911 201.525 204.002 194.945C205.831 189.366 206.372 183.382 205.579 177.521C204.645 171.14 201.646 165.508 197.682 160.782C193.436 155.725 188.338 151.426 183.002 147.822C177.537 144.123 171.676 141.167 165.551 139.019C165.413 138.97 165.298 138.865 165.229 138.725C165.16 138.585 165.143 138.422 165.181 138.269C165.206 138.133 165.278 138.013 165.383 137.935C165.438 137.901 165.499 137.88 165.562 137.875C165.625 137.869 165.688 137.88 165.747 137.905C166.503 138.17 167.255 138.442 168.003 138.729C174.232 141.127 180.163 144.358 185.661 148.349C190.971 152.192 196.068 156.711 200.101 162.121Z" fill="white"/>
<path d="M91.7717 131.441C91.1592 131.44 90.5699 131.185 90.1231 130.728C89.6764 130.272 89.4056 129.647 89.3655 128.981L89.0071 123.018C88.9653 122.322 89.179 121.636 89.6013 121.111C90.0237 120.587 90.62 120.266 91.2592 120.221L134.13 117.161C134.806 117.113 135.485 117.21 136.126 117.447C136.768 117.684 137.36 118.056 137.87 118.543C138.379 119.029 138.795 119.621 139.095 120.283C139.395 120.945 139.572 121.665 139.616 122.401C139.66 123.138 139.571 123.877 139.353 124.576C139.135 125.275 138.793 125.92 138.346 126.475C137.899 127.03 137.357 127.483 136.749 127.809C136.141 128.135 135.48 128.328 134.804 128.376L91.9332 131.435C91.8792 131.439 91.8254 131.441 91.7717 131.441Z" fill="url(#paint0_linear_908_261)"/>
<path d="M141.538 214.305H136.054C135.414 214.304 134.8 214.026 134.347 213.533C133.894 213.04 133.64 212.371 133.639 211.673V161.871C133.64 161.173 133.894 160.505 134.347 160.011C134.8 159.518 135.414 159.24 136.054 159.24H141.538C142.178 159.24 142.792 159.518 143.245 160.011C143.697 160.505 143.952 161.173 143.953 161.871V211.673C143.952 212.371 143.697 213.04 143.245 213.533C142.792 214.026 142.178 214.304 141.538 214.305Z" fill="url(#paint1_linear_908_261)"/>
<path d="M133.209 107.266C143.674 107.266 152.157 98.0219 152.157 86.6187C152.157 75.2156 143.674 65.9716 133.209 65.9716C122.744 65.9716 114.26 75.2156 114.26 86.6187C114.26 98.0219 122.744 107.266 133.209 107.266Z" fill="url(#paint2_linear_908_261)"/>
<path d="M122.952 93.6684C122.343 93.4502 121.783 93.0923 121.311 92.6188C120.998 92.2807 120.757 91.8721 120.605 91.4219C120.452 90.9715 120.392 90.4903 120.428 90.0119C120.448 89.6711 120.54 89.3398 120.696 89.0441C120.853 88.7483 121.071 88.4961 121.332 88.3071C122.009 87.8335 122.916 87.8321 123.838 88.2752L123.803 80.2148L124.546 80.2109L124.588 89.6868L124.015 89.2943C123.351 88.84 122.403 88.5203 121.733 88.9887C121.567 89.1124 121.43 89.2761 121.332 89.467C121.234 89.6579 121.178 89.8709 121.168 90.0894C121.143 90.4458 121.188 90.8038 121.302 91.1392C121.415 91.4746 121.593 91.7795 121.824 92.033C122.645 92.8871 123.842 93.1542 125.207 93.3928L125.089 94.1922C124.364 94.0875 123.649 93.9122 122.952 93.6684Z" fill="white"/>
<path d="M116.143 79.8076L116.046 80.6102L120.013 81.1812L120.111 80.3786L116.143 79.8076Z" fill="white"/>
<path d="M128.667 81.6093L128.57 82.4119L132.538 82.9828L132.635 82.1802L128.667 81.6093Z" fill="white"/>
<path d="M146.76 161.073H122.836C122.21 161.072 121.609 160.797 121.165 160.308C120.722 159.819 120.473 159.157 120.472 158.466L125.48 116.119C125.484 115.431 125.735 114.772 126.178 114.288C126.621 113.803 127.22 113.531 127.844 113.531H136.334C139.725 113.536 142.976 115.023 145.374 117.667C147.772 120.311 149.121 123.895 149.125 127.634V158.466C149.124 159.157 148.875 159.819 148.431 160.308C147.988 160.797 147.387 161.072 146.76 161.073Z" fill="#656565"/>
<path d="M133.563 74.3729C131.03 72.0889 127.644 74.2491 124.78 73.9425C122.039 73.6492 119.833 71.0212 119.232 68.1932C118.531 64.8938 120.051 61.5424 122.341 59.4288C124.849 57.114 128.216 56.3946 131.425 56.7469C135.102 57.1506 138.491 58.9448 141.541 61.1367C144.484 63.1851 156.317 98.2379 158.751 100.967C160.932 103.493 162.796 106.52 163.434 109.968C164.014 113.101 163.674 116.594 162.015 119.292C161.134 120.676 159.941 121.789 158.55 122.525C157.101 123.338 155.551 123.929 154.149 124.843C152.03 126.226 149.996 129.043 150.717 131.916C150.872 132.544 151.166 133.12 151.574 133.595C152.063 134.165 152.915 133.381 152.424 132.809C151.562 131.805 151.571 130.443 152 129.214C152.511 127.829 153.439 126.674 154.631 125.939C156.098 124.984 157.726 124.38 159.231 123.506C160.673 122.707 161.916 121.541 162.855 120.105C164.627 117.312 165.109 113.715 164.638 110.407C164.129 106.826 162.379 103.599 160.21 100.91C157.849 97.9827 145.852 62.883 142.915 60.6808C139.763 58.3178 136.292 56.3367 132.478 55.6732C129.172 55.098 125.607 55.5681 122.76 57.5843C120.102 59.4664 118.094 62.6508 117.95 66.1656C117.905 67.7644 118.251 69.3477 118.953 70.7524C119.655 72.1571 120.688 73.3326 121.946 74.1578C123.235 74.9629 124.724 75.3065 126.203 75.14C127.784 74.9968 129.359 74.4358 130.955 74.5495C131.677 74.5822 132.369 74.8705 132.927 75.3705C133.48 75.8696 134.112 74.8679 133.563 74.3729Z" fill="white"/>
<path d="M152.264 97.6825C149.861 95.1265 140.308 63.6514 137.403 61.7327L139.01 62.065C141.909 64.1279 151.373 94.8874 153.704 97.6293C155.845 100.149 157.572 103.172 158.074 106.526C158.538 109.625 158.063 112.994 156.315 115.611C155.388 116.955 154.161 118.048 152.738 118.797C151.252 119.614 149.645 120.181 148.197 121.075C147.021 121.764 146.105 122.846 145.601 124.143C145.177 125.294 145.168 126.57 146.019 127.511C146.503 128.046 145.663 128.781 145.18 128.247C144.778 127.802 144.487 127.262 144.335 126.674C143.622 123.983 145.63 121.344 147.722 120.049C149.105 119.193 150.635 118.638 152.065 117.877C153.438 117.188 154.615 116.145 155.485 114.849C157.122 112.321 157.458 109.05 156.886 106.115C156.256 102.885 154.417 100.049 152.264 97.6825Z" fill="white"/>
<path d="M140.421 96.6691C138.734 93.6933 135.598 62.4872 133.268 59.8853L134.737 60.7048C137.025 63.4273 140.253 93.9954 141.824 97.1051C143.268 99.9625 144.186 103.109 143.84 106.129C143.521 108.918 142.227 111.624 139.89 113.264C138.662 114.097 137.206 114.616 135.647 114.777C134.009 114.976 132.317 114.92 130.697 115.196C129.39 115.389 128.238 116.002 127.43 116.937C126.736 117.774 126.411 118.856 126.999 119.94C127.334 120.557 126.341 120.9 126.007 120.285C125.728 119.772 125.582 119.216 125.58 118.665C125.559 116.14 128.152 114.567 130.492 114.165C132.04 113.9 133.656 113.94 135.225 113.77C136.721 113.644 138.117 113.151 139.277 112.339C141.485 110.737 142.62 108.068 142.795 105.382C142.987 102.426 141.913 99.4007 140.421 96.6691Z" fill="white"/>
<path fill-rule="evenodd" clip-rule="evenodd" d="M111.358 181.632C111.375 181.268 111.474 180.91 111.649 180.592L131.625 144.409C131.906 143.903 132.358 143.539 132.882 143.398C133.406 143.257 133.96 143.35 134.422 143.656L138.377 146.288C138.838 146.595 139.169 147.092 139.298 147.667C139.427 148.243 139.342 148.851 139.063 149.358L121.903 180.44L134.52 201.756C134.867 202.342 134.986 203.055 134.851 203.737C134.716 204.42 134.338 205.015 133.8 205.394L129.191 208.632C128.653 209.01 127.999 209.139 127.373 208.992C126.747 208.845 126.201 208.433 125.853 207.847L111.637 183.832C111.312 183.287 111.186 182.629 111.282 181.987C111.289 181.942 111.297 181.896 111.306 181.851C111.321 181.777 111.338 181.704 111.358 181.632Z" fill="url(#paint3_linear_908_261)"/>
<path d="M94.0233 23.7136C93.6693 22.7976 93.0765 22.0148 92.3183 21.462C91.5602 20.9093 90.6699 20.611 89.7577 20.6039H4.61539C3.39152 20.6046 2.21795 21.1347 1.35254 22.0777C0.487131 23.0206 0.000657623 24.2994 0 25.633V143.001C0.000657623 144.335 0.487131 145.613 1.35254 146.556C2.21795 147.499 3.39152 148.029 4.61539 148.03H89.7608C90.9844 148.028 92.1574 147.498 93.0226 146.555C93.8878 145.613 94.3746 144.334 94.3762 143.001V25.633C94.3783 24.9742 94.2593 24.3216 94.0264 23.7136H94.0233ZM93.3482 143.001C93.3471 144.038 92.9684 145.033 92.2953 145.766C91.6223 146.5 90.7097 146.912 89.7578 146.913H4.61539C3.6633 146.913 2.75024 146.501 2.07696 145.768C1.40367 145.034 1.02527 144.039 1.02494 143.002V25.6337C1.02624 24.5965 1.40494 23.6022 2.078 22.8688C2.75105 22.1354 3.66355 21.7228 4.61539 21.7214H89.7608C90.4779 21.7243 91.1778 21.96 91.7714 22.3984C92.365 22.8367 92.8253 23.4578 93.0935 24.1824C93.1457 24.3268 93.1908 24.4741 93.2285 24.6238C93.31 24.9531 93.3512 25.2926 93.3512 25.6336L93.3482 143.001Z" fill="white"/>
<path d="M76.2552 48.3143H50.6091C50.065 48.3143 49.5431 48.0787 49.1583 47.6594C48.7735 47.2402 48.5574 46.6715 48.5574 46.0786C48.5574 45.4856 48.7735 44.917 49.1583 44.4977C49.5431 44.0784 50.065 43.8429 50.6091 43.8429H76.2552C76.7994 43.8429 77.3213 44.0784 77.7061 44.4977C78.0908 44.917 78.307 45.4856 78.307 46.0786C78.307 46.6715 78.0908 47.2402 77.7061 47.6594C77.3213 48.0787 76.7994 48.3143 76.2552 48.3143Z" fill="white"/>
<path d="M109.135 175.73C108.511 175.705 107.917 175.508 107.478 175.179C107.038 174.85 106.788 174.414 106.778 173.964L120.635 147.132C120.631 146.904 120.689 146.678 120.806 146.468C120.923 146.258 121.097 146.069 121.318 145.909C121.539 145.75 121.803 145.625 122.094 145.541C122.385 145.457 122.698 145.415 123.015 145.419L146.569 146.129C147.209 146.136 147.827 146.326 148.286 146.658C148.745 146.989 149.008 147.435 149.017 147.897L160.539 174.586C160.543 174.815 160.485 175.041 160.368 175.251C160.251 175.46 160.077 175.65 159.856 175.809C159.635 175.969 159.372 176.094 159.08 176.178C158.789 176.262 158.476 176.304 158.159 176.3L109.226 175.732C109.196 175.732 109.165 175.731 109.135 175.73Z" fill="#747374"/>
<path d="M76.2553 60.0511H50.6092C50.3395 60.0515 50.0724 59.9939 49.8232 59.8817C49.5739 59.7696 49.3474 59.6049 49.1566 59.3973C48.9658 59.1897 48.8144 58.9431 48.7111 58.6716C48.6079 58.4002 48.5547 58.1092 48.5547 57.8154C48.5547 57.5215 48.6079 57.2306 48.7111 56.9591C48.8144 56.6877 48.9658 56.4411 49.1566 56.2335C49.3474 56.0258 49.5739 55.8612 49.8232 55.749C50.0724 55.6369 50.3395 55.5793 50.6092 55.5797H76.2553C76.525 55.5793 76.7921 55.6369 77.0413 55.749C77.2906 55.8612 77.5171 56.0258 77.7079 56.2335C77.8987 56.4411 78.0501 56.6877 78.1533 56.9591C78.2566 57.2306 78.3098 57.5215 78.3098 57.8154C78.3098 58.1092 78.2566 58.4002 78.1533 58.6716C78.0501 58.9431 77.8987 59.1897 77.7079 59.3973C77.5171 59.6049 77.2906 59.7696 77.0413 59.8817C76.7921 59.9939 76.525 60.0515 76.2553 60.0511Z" fill="white"/>
<path d="M37.4503 66.734H18.7082C18.0962 66.7333 17.5095 66.4681 17.0767 65.9966C16.644 65.525 16.4005 64.8857 16.3999 64.2188V40.1192C16.4005 39.4524 16.644 38.813 17.0767 38.3415C17.5095 37.8699 18.0962 37.6047 18.7082 37.604H37.4503C38.0623 37.6047 38.649 37.8699 39.0818 38.3415C39.5145 38.813 39.7579 39.4524 39.7586 40.1192V64.2188C39.7579 64.8857 39.5145 65.525 39.0818 65.9966C38.649 66.4681 38.0623 66.7333 37.4503 66.734Z" fill="url(#paint4_linear_908_261)"/>
<path d="M76.0772 84.0838H18.1172C17.573 84.0838 17.0512 83.8482 16.6664 83.429C16.2816 83.0097 16.0654 82.441 16.0654 81.8481C16.0654 81.2552 16.2816 80.6865 16.6664 80.2672C17.0512 79.848 17.573 79.6124 18.1172 79.6124H76.0772C76.6214 79.6124 77.1433 79.848 77.528 80.2672C77.9128 80.6865 78.129 81.2552 78.129 81.8481C78.129 82.441 77.9128 83.0097 77.528 83.429C77.1433 83.8482 76.6214 84.0838 76.0772 84.0838Z" fill="#747374"/>
<path d="M76.0772 95.8205H18.1172C17.573 95.8205 17.0512 95.5849 16.6664 95.1657C16.2816 94.7464 16.0654 94.1777 16.0654 93.5848C16.0654 92.9919 16.2816 92.4232 16.6664 92.0039C17.0512 91.5847 17.573 91.3491 18.1172 91.3491H76.0772C76.6214 91.3491 77.1433 91.5847 77.528 92.0039C77.9128 92.4232 78.129 92.9919 78.129 93.5848C78.129 94.1777 77.9128 94.7464 77.528 95.1657C77.1433 95.5849 76.6214 95.8205 76.0772 95.8205Z" fill="#747374"/>
<path d="M76.0772 107.557H18.1171C17.5734 107.557 17.0523 107.321 16.6681 106.902C16.2839 106.482 16.0681 105.914 16.0681 105.322C16.0681 104.729 16.2839 104.161 16.6681 103.742C17.0523 103.323 17.5734 103.087 18.1171 103.086H76.0772C76.3468 103.086 76.6139 103.143 76.8632 103.255C77.1124 103.368 77.3389 103.532 77.5298 103.74C77.7206 103.947 77.8719 104.194 77.9752 104.465C78.0785 104.737 78.1317 105.028 78.1317 105.322C78.1317 105.616 78.0785 105.907 77.9752 106.178C77.8719 106.449 77.7206 106.696 77.5298 106.904C77.3389 107.111 77.1124 107.276 76.8632 107.388C76.6139 107.5 76.3468 107.558 76.0772 107.557Z" fill="#747374"/>
<path d="M76.0772 119.294H18.1172C17.573 119.294 17.0512 119.059 16.6664 118.639C16.2816 118.22 16.0654 117.651 16.0654 117.059C16.0654 116.466 16.2816 115.897 16.6664 115.478C17.0512 115.058 17.573 114.823 18.1172 114.823H76.0772C76.6214 114.823 77.1433 115.058 77.528 115.478C77.9128 115.897 78.129 116.466 78.129 117.059C78.129 117.651 77.9128 118.22 77.528 118.639C77.1433 119.059 76.6214 119.294 76.0772 119.294Z" fill="#747374"/>
<path d="M76.0772 131.031H18.1172C17.573 131.031 17.0512 130.795 16.6664 130.376C16.2816 129.957 16.0654 129.388 16.0654 128.795C16.0654 128.202 16.2816 127.634 16.6664 127.214C17.0512 126.795 17.573 126.56 18.1172 126.56H76.0772C76.6214 126.56 77.1433 126.795 77.528 127.214C77.9128 127.634 78.129 128.202 78.129 128.795C78.129 129.388 77.9128 129.957 77.528 130.376C77.1433 130.795 76.6214 131.031 76.0772 131.031Z" fill="#747374"/>
<path d="M94.6597 43.1513C105.595 43.1513 114.46 33.4916 114.46 21.5757C114.46 9.65976 105.595 0 94.6597 0C83.724 0 74.8589 9.65976 74.8589 21.5757C74.8589 33.4916 83.724 43.1513 94.6597 43.1513Z" fill="url(#paint5_linear_908_261)"/>
<path d="M92.6976 29.8061C92.2522 29.8069 91.8185 29.6499 91.4621 29.3587L91.44 29.3406L86.7866 25.4618C86.5711 25.2817 86.3902 25.0572 86.2543 24.801C86.1184 24.5448 86.0302 24.2619 85.9946 23.9686C85.959 23.6752 85.9769 23.3771 86.0471 23.0912C86.1172 22.8054 86.2384 22.5374 86.4036 22.3025C86.5688 22.0677 86.7749 21.8706 87.01 21.7226C87.2452 21.5745 87.5047 21.4783 87.774 21.4396C88.0432 21.4008 88.3168 21.4203 88.5792 21.4967C88.8415 21.5732 89.0874 21.7052 89.303 21.8852L92.3171 24.4038L99.4397 14.2787C99.6048 14.044 99.8108 13.847 100.046 13.699C100.281 13.551 100.54 13.4549 100.809 13.4161C101.079 13.3774 101.352 13.3968 101.614 13.4732C101.877 13.5497 102.122 13.6816 102.338 13.8616L102.338 13.8621L102.294 13.929L102.34 13.8621C102.774 14.2261 103.059 14.763 103.13 15.3552C103.202 15.9474 103.055 16.5463 102.722 17.0207L94.3443 28.9246C94.1505 29.1989 93.9013 29.4209 93.616 29.5733C93.3308 29.7256 93.0171 29.8044 92.6994 29.8034L92.6976 29.8061Z" fill="white"/>
<path d="M219.936 215H85.2211C85.124 215 85.0308 214.958 84.9622 214.883C84.8935 214.808 84.855 214.707 84.855 214.601C84.855 214.495 84.8935 214.394 84.9622 214.319C85.0308 214.244 85.124 214.202 85.2211 214.202H219.936C220.033 214.202 220.126 214.244 220.195 214.319C220.263 214.394 220.302 214.495 220.302 214.601C220.302 214.707 220.263 214.808 220.195 214.883C220.126 214.958 220.033 215 219.936 215Z" fill="white"/>
<path d="M120.263 144.953C120.576 143.59 121.789 142.624 123.187 142.624H146.488C148.253 142.624 149.637 144.14 149.475 145.898L149.375 146.994C149.233 148.538 147.938 149.719 146.387 149.719H122.936C121.008 149.719 119.581 147.927 120.012 146.049L120.263 144.953Z" fill="#C4C4C4"/>
<path d="M140.734 165.403C140.545 165.807 140.24 166.149 139.856 166.388C139.473 166.627 139.027 166.752 138.572 166.749L133.225 166.704C132.916 166.701 132.61 166.639 132.326 166.521C132.041 166.402 131.783 166.23 131.566 166.014C131.35 165.799 131.178 165.543 131.063 165.262C130.947 164.982 130.888 164.682 130.891 164.379L131.254 123.377C131.26 122.731 131.396 122.092 131.654 121.497C131.912 120.902 132.287 120.363 132.758 119.91C133.229 119.457 133.786 119.099 134.398 118.857C135.011 118.615 135.666 118.493 136.326 118.498C136.986 118.504 137.639 118.637 138.247 118.889C138.854 119.142 139.405 119.509 139.868 119.97C140.331 120.431 140.697 120.977 140.944 121.576C141.191 122.175 141.316 122.816 141.31 123.463L140.947 164.464C140.945 164.788 140.872 165.108 140.734 165.403Z" fill="url(#paint6_linear_908_261)"/>
<defs>
<linearGradient id="paint0_linear_908_261" x1="114.315" y1="117.149" x2="114.315" y2="131.441" gradientUnits="userSpaceOnUse">
<stop stop-color="#F04A3A"/>
<stop offset="1" stop-color="#FBAF3F"/>
</linearGradient>
<linearGradient id="paint1_linear_908_261" x1="138.796" y1="159.24" x2="138.796" y2="214.305" gradientUnits="userSpaceOnUse">
<stop stop-color="#F04A3A"/>
<stop offset="1" stop-color="#FBAF3F"/>
</linearGradient>
<linearGradient id="paint2_linear_908_261" x1="133.209" y1="65.9716" x2="133.209" y2="107.266" gradientUnits="userSpaceOnUse">
<stop stop-color="#F04A3A"/>
<stop offset="1" stop-color="#FBAF3F"/>
</linearGradient>
<linearGradient id="paint3_linear_908_261" x1="123.078" y1="176.537" x2="123.078" y2="209.051" gradientUnits="userSpaceOnUse">
<stop stop-color="#F04A3A"/>
<stop offset="1" stop-color="#FBAF3F"/>
</linearGradient>
<linearGradient id="paint4_linear_908_261" x1="28.0792" y1="37.604" x2="28.0792" y2="66.734" gradientUnits="userSpaceOnUse">
<stop stop-color="#F04A3A"/>
<stop offset="1" stop-color="#FBAF3F"/>
</linearGradient>
<linearGradient id="paint5_linear_908_261" x1="94.6597" y1="0" x2="94.6597" y2="43.1513" gradientUnits="userSpaceOnUse">
<stop stop-color="#F04A3A"/>
<stop offset="1" stop-color="#FBAF3F"/>
</linearGradient>
<linearGradient id="paint6_linear_908_261" x1="136.101" y1="118.498" x2="136.101" y2="166.749" gradientUnits="userSpaceOnUse">
<stop stop-color="#F04A3A"/>
<stop offset="1" stop-color="#FBAF3F"/>
</linearGradient>
</defs>
</svg>
