<svg width="19" height="19" viewBox="0 0 19 19" fill="none" xmlns="http://www.w3.org/2000/svg">
<path d="M18.3841 7.73168C18.5025 8.36588 18.5669 9.02895 18.5669 9.72089C18.5669 15.1332 14.9446 18.9817 9.47354 18.9817C8.22935 18.9821 6.99728 18.7373 5.84772 18.2614C4.69817 17.7854 3.65366 17.0876 2.77389 16.2078C1.89411 15.3281 1.19631 14.2836 0.720358 13.134C0.244402 11.9845 -0.000378905 10.7524 4.40237e-07 9.5082C-0.000378905 8.26402 0.244402 7.03194 0.720358 5.88239C1.19631 4.73284 1.89411 3.68833 2.77389 2.80856C3.65366 1.92878 4.69817 1.23098 5.84772 0.755026C6.99728 0.27907 8.22935 0.0342891 9.47354 0.0346684C12.0315 0.0346684 14.1689 0.975863 15.8088 2.5041L13.1382 5.17467V5.16793C12.1441 4.22096 10.8824 3.73497 9.47354 3.73497C6.34777 3.73497 3.80712 6.3757 3.80712 9.50243C3.80712 12.6282 6.34777 15.2747 9.47354 15.2747C12.3096 15.2747 14.2401 13.6531 14.6366 11.4262H9.47354V7.73168H18.3851H18.3841Z" fill="#F4723B"/>
</svg>
