<svg width="1006" height="133" viewBox="0 0 1006 133" fill="none" xmlns="http://www.w3.org/2000/svg">
<path opacity="0.1" fill-rule="evenodd" clip-rule="evenodd" d="M0 114.511C0 107.396 4.08263 100.912 10.4988 97.8373L41.9167 82.781C83.8333 62.6935 167.667 22.5183 251.5 7.4526C335.333 -7.61309 419.167 2.4307 503 17.4964C586.833 32.5621 670.667 52.6497 754.5 62.6935C838.333 72.7372 922.167 72.7372 964.083 72.7372H975.869C992.51 72.7372 1006 86.2275 1006 102.869C1006 119.51 992.51 133 975.869 133H964.083C922.167 133 838.333 133 754.5 133C670.667 133 586.833 133 503 133C419.167 133 335.333 133 251.5 133C167.667 133 83.8333 133 41.9167 133H18.4892C8.27792 133 0 124.722 0 114.511Z" fill="url(#paint0_linear_908_298)"/>
<defs>
<linearGradient id="paint0_linear_908_298" x1="0" y1="67.3867" x2="1006" y2="67.3867" gradientUnits="userSpaceOnUse">
<stop stop-color="#FBAF3F"/>
<stop offset="1" stop-color="#EF4339"/>
</linearGradient>
</defs>
</svg>
