<svg width="21" height="27" viewBox="0 0 21 27" fill="none" xmlns="http://www.w3.org/2000/svg">
<path d="M9.94766 13.5053C9.67422 12.6615 9.67969 11.032 9.83828 11.032C10.2977 11.032 10.2539 12.9779 9.94766 13.5053ZM9.85469 15.9943C9.43359 17.0596 8.90859 18.2777 8.30156 19.3008C9.30234 18.9316 10.4344 18.3938 11.7414 18.1459C11.0469 17.6396 10.3797 16.9119 9.85469 15.9943ZM4.70859 22.5756C4.70859 22.6178 5.43047 22.2908 6.61719 20.4557C6.25078 20.7879 5.02578 21.7477 4.70859 22.5756ZM13.5625 8.4375H21V25.7344C21 26.4357 20.4148 27 19.6875 27H1.3125C0.585156 27 0 26.4357 0 25.7344V1.26562C0 0.564258 0.585156 0 1.3125 0H12.25V7.17188C12.25 7.86797 12.8406 8.4375 13.5625 8.4375ZM13.125 17.4973C12.0312 16.8539 11.3039 15.968 10.7898 14.6602C11.0359 13.6846 11.4242 12.2027 11.1289 11.2746C10.8719 9.72422 8.81016 9.87715 8.51484 10.916C8.24141 11.8811 8.49297 13.2416 8.95781 14.9766C8.32344 16.432 7.38828 18.3832 6.72656 19.5012C6.72109 19.5012 6.72109 19.5064 6.71563 19.5064C5.23359 20.2395 2.69063 21.8531 3.73516 23.0924C4.04141 23.4562 4.61016 23.6197 4.91094 23.6197C5.88984 23.6197 6.86328 22.6705 8.25234 20.3607C9.66328 19.9125 11.2109 19.3535 12.5727 19.1373C13.7594 19.7596 15.1484 20.1656 16.0727 20.1656C17.6695 20.1656 17.7789 18.4781 17.15 17.877C16.3898 17.1598 14.1805 17.3654 13.125 17.4973ZM20.6172 5.53711L15.2578 0.369141C15.0117 0.131836 14.6781 0 14.3281 0H14V6.75H21V6.42832C21 6.09609 20.8633 5.77441 20.6172 5.53711ZM16.5648 19.0002C16.7891 18.8578 16.4281 18.3727 14.2242 18.5256C16.2531 19.3588 16.5648 19.0002 16.5648 19.0002Z" fill="url(#paint0_linear_2_1036)"/>
<defs>
<linearGradient id="paint0_linear_2_1036" x1="0" y1="13.68" x2="21" y2="13.68" gradientUnits="userSpaceOnUse">
<stop stop-color="#FBAF3F"/>
<stop offset="1" stop-color="#EF4339"/>
</linearGradient>
</defs>
</svg>
