<svg width="34" height="26" viewBox="0 0 34 26" fill="none" xmlns="http://www.w3.org/2000/svg">
<path fill-rule="evenodd" clip-rule="evenodd" d="M8.48258 9.08878C9.06283 5.468 12.5828 2.54902 17 2.54902C21.4172 2.54902 24.9372 5.468 25.5174 9.08878C25.595 9.57304 25.9507 9.97104 26.4322 10.1124C29.2949 10.953 31.3846 13.556 31.3846 16.6389C31.3846 20.1579 28.6633 23.0478 25.1812 23.4121L22.6778 23.4511C21.9557 23.4624 21.3797 24.0421 21.3913 24.7459C21.4028 25.4496 21.9976 26.0111 22.7197 25.9998L25.28 25.9599C25.3164 25.9594 25.3527 25.9573 25.3889 25.9537C30.2293 25.4832 34 21.4888 34 16.6389C34 12.6838 31.493 9.30019 27.9457 7.92933C26.8076 3.32754 22.2749 0 17 0C11.7251 0 7.19236 3.32754 6.0543 7.92933C2.50695 9.30019 0 12.6838 0 16.6389C0 21.4888 3.7707 25.4832 8.6111 25.9537C8.6473 25.9573 8.6836 25.9594 8.71996 25.9599L11.2803 25.9998C12.0024 26.0111 12.5972 25.4496 12.6087 24.7459C12.6203 24.0421 12.0443 23.4624 11.3222 23.4511L8.81876 23.4121C5.3368 23.0478 2.61538 20.1579 2.61538 16.6389C2.61538 13.556 4.70508 10.953 7.56777 10.1124C8.04926 9.97104 8.40496 9.57304 8.48258 9.08878ZM20.125 19.0799L18.3077 21.2052V9.43137C18.3077 8.72748 17.7222 8.15686 17 8.15686C16.2778 8.15686 15.6923 8.72748 15.6923 9.43137V21.2052L13.875 19.0799C13.4127 18.5391 12.5881 18.4661 12.0333 18.9167C11.4785 19.3673 11.4035 20.1709 11.8658 20.7117L15.9954 25.5414C16.2438 25.832 16.6119 26 17 26C17.3881 26 17.7561 25.832 18.0046 25.5414L22.1342 20.7117C22.5965 20.1709 22.5215 19.3673 21.9667 18.9167C21.4119 18.4661 20.5873 18.5391 20.125 19.0799Z" fill="#E4B26F"/>
</svg>
