<svg width="26" height="26" viewBox="0 0 26 26" fill="none" xmlns="http://www.w3.org/2000/svg">
<path d="M22.0516 1.00022C21.8639 0.999828 21.6837 1.07427 21.5512 1.207L18.3724 4.38993C18.2143 4.54885 18.1411 4.77354 18.1753 4.99509L18.4221 6.57619L17.4737 7.52457C13.5661 4.13312 7.62308 4.29046 3.90969 8.00428C0.0273152 11.8867 0.0314491 18.2059 3.91402 22.0882C7.7964 25.9706 14.1115 25.9706 17.9938 22.0882C21.7095 18.3724 21.8688 12.4285 18.4721 8.52101L19.4163 7.57677L21.0043 7.82352H21.0041C21.2253 7.85719 21.4494 7.78394 21.6079 7.62639L24.7922 4.4476C24.981 4.25953 25.0478 3.98127 24.9651 3.72805C24.8824 3.475 24.664 3.28989 24.4007 3.24972L22.9685 3.02502L22.7493 1.59828C22.7087 1.33479 22.5232 1.1166 22.2696 1.03446C22.1993 1.01162 22.1258 1 22.0518 1L22.0516 1.00022ZM21.5664 3.19203L21.6546 3.75444C21.7019 4.05771 21.9397 4.29578 22.2432 4.34306L22.807 4.43266L20.8634 6.37493L19.7895 6.20813L19.6227 5.13015L21.5664 3.19203ZM10.952 6.49626C12.9171 6.49705 14.8814 7.17447 16.4727 8.52539L15.0928 9.90661C12.5045 7.82036 8.68792 7.97714 6.28576 10.3794C3.71432 12.9509 3.71432 17.1444 6.28576 19.7159C8.85721 22.2874 13.0451 22.2833 15.6166 19.7116C18.0205 17.3077 18.181 13.4896 16.0908 10.9019L17.4707 9.52205C20.3292 12.8834 20.1711 17.9143 16.9951 21.0904C13.6521 24.4333 8.25456 24.4333 4.91119 21.0904C1.56783 17.7474 1.56405 12.3457 4.90686 9.00229C6.57834 7.3308 8.76539 6.49525 10.9513 6.49621L10.952 6.49626ZM10.9534 9.85423C12.0583 9.85423 13.1639 10.2065 14.0894 10.9115L12.6075 12.3948C11.4016 11.6445 9.78341 11.7892 8.73951 12.8332C7.52432 14.0484 7.52704 16.0429 8.74227 17.2581C9.95747 18.4733 11.9478 18.4733 13.163 17.2581C14.2073 16.2138 14.3548 14.5954 13.6041 13.39L15.0846 11.9081C16.6391 13.9446 16.4824 16.85 14.6187 18.7139C12.5866 20.746 9.31575 20.7487 7.28362 18.7168C5.25154 16.6847 5.25154 13.4114 7.28362 11.3792C8.29954 10.3633 9.62645 9.85462 10.9531 9.85462L10.9534 9.85423ZM10.952 13.3266C11.159 13.327 11.365 13.3652 11.5613 13.441L10.4433 14.5604C10.1696 14.8357 10.1696 15.2803 10.4433 15.5556C10.7186 15.8294 11.1633 15.8294 11.4386 15.5556L12.5579 14.4363C12.794 15.0478 12.6633 15.7618 12.165 16.26C11.4892 16.9359 10.4175 16.9359 9.7417 16.26C9.06587 15.5842 9.06173 14.5084 9.73737 13.8326C10.0753 13.4946 10.5138 13.3256 10.9518 13.3267L10.952 13.3266Z" fill="#E9B56F" stroke="#2F2E30" stroke-width="0.5"/>
</svg>
