<svg width="14" height="14" viewBox="0 0 14 14" fill="none" xmlns="http://www.w3.org/2000/svg">
<path d="M5.12663 11.1063L4.41788 11.8107C4.12097 12.103 3.72106 12.2668 3.30445 12.2668C2.88783 12.2668 2.48792 12.103 2.19101 11.8107C2.04624 11.6674 1.93133 11.4967 1.8529 11.3087C1.77448 11.1206 1.7341 10.9189 1.7341 10.7152C1.7341 10.5115 1.77448 10.3097 1.8529 10.1217C1.93133 9.93366 2.04624 9.76303 2.19101 9.61967L4.79851 7.03401C5.33838 6.49762 6.35513 5.70836 7.09625 6.44337C7.17601 6.52842 7.27208 6.59652 7.37873 6.64363C7.48539 6.69073 7.60044 6.71586 7.71702 6.71752C7.83359 6.71918 7.94931 6.69734 8.05727 6.6533C8.16522 6.60926 8.26319 6.54392 8.34534 6.46118C8.42749 6.37844 8.49213 6.28 8.5354 6.17174C8.57867 6.06347 8.59968 5.9476 8.59719 5.83103C8.5947 5.71447 8.56874 5.5996 8.52088 5.49328C8.47302 5.38696 8.40424 5.29138 8.31863 5.21223C7.06038 3.96271 5.19838 4.19371 3.57701 5.80286L0.96951 8.38941C0.661415 8.69316 0.416985 9.0553 0.250518 9.45465C0.0840501 9.854 -0.0011128 10.2825 1.09783e-05 10.7152C-0.00106395 11.1478 0.0841211 11.5764 0.250586 11.9757C0.417051 12.375 0.661455 12.7372 0.96951 13.041C1.59049 13.6569 2.43023 14.0018 3.30488 14C4.15101 14 4.99713 13.6806 5.64025 13.041L6.34988 12.3366C6.4308 12.2566 6.49513 12.1613 6.53917 12.0564C6.5832 11.9514 6.60608 11.8388 6.60648 11.725C6.60689 11.6112 6.58482 11.4984 6.54153 11.3931C6.49825 11.2879 6.43461 11.1922 6.35425 11.1116C6.19182 10.9487 5.97154 10.8567 5.74152 10.8557C5.51151 10.8548 5.29045 10.9448 5.12663 11.1063ZM13.0296 1.05766C11.676 -0.284609 9.78425 -0.357235 8.533 0.885284L7.65013 1.76205C7.48699 1.92403 7.39487 2.14419 7.39405 2.37409C7.39323 2.60399 7.48377 2.8248 7.64575 2.98794C7.80773 3.15109 8.02789 3.2432 8.25778 3.24402C8.48768 3.24484 8.70848 3.1543 8.87163 2.99232L9.75537 2.11643C10.4029 1.47242 11.2525 1.7393 11.8081 2.28881C12.1021 2.58194 12.2649 2.97044 12.2649 3.38432C12.2649 3.79821 12.1021 4.18671 11.8081 4.47897L9.02563 7.23876C7.75338 8.49966 7.15663 7.90902 6.902 7.65614C6.82122 7.57594 6.72544 7.51243 6.62011 7.46924C6.51479 7.42605 6.40199 7.40403 6.28816 7.40444C6.17433 7.40485 6.06169 7.42767 5.95668 7.47161C5.85166 7.51555 5.75633 7.57974 5.67613 7.66052C5.59592 7.7413 5.53242 7.83709 5.48923 7.94241C5.44604 8.04774 5.42402 8.16054 5.42443 8.27437C5.42484 8.38821 5.44766 8.50085 5.4916 8.60586C5.53553 8.71087 5.59972 8.80621 5.6805 8.88641C6.265 9.46567 6.93175 9.75268 7.63 9.75268C8.48488 9.75268 9.38875 9.32217 10.2489 8.46903L13.0314 5.71011C13.3388 5.4059 13.5827 5.04365 13.749 4.64439C13.9153 4.24514 14.0006 3.81682 14 3.38432C14.0008 2.95151 13.9154 2.52287 13.7488 2.12341C13.5822 1.72395 13.3377 1.36165 13.0296 1.05766Z" fill="#E4B26F"/>
</svg>
