<svg width="12" height="11" viewBox="0 0 12 11" fill="none" xmlns="http://www.w3.org/2000/svg">
<path d="M11.2896 0.174599C11.131 0.0861668 10.9565 0.0299295 10.7761 0.00910303C10.5958 -0.0117234 10.4131 0.00326943 10.2385 0.0532244C10.064 0.103179 9.90096 0.187117 9.75881 0.300236C9.61665 0.413355 9.49815 0.553437 9.41008 0.712471L3.84441 7.33804L2.37604 5.86702C2.24856 5.73479 2.09606 5.62931 1.92745 5.55676C1.75885 5.4842 1.5775 5.446 1.394 5.44441C1.2105 5.44281 1.02852 5.47784 0.858679 5.54745C0.688837 5.61706 0.534535 5.71987 0.404776 5.84986C0.275017 5.97985 0.1724 6.13443 0.102912 6.30458C0.0334244 6.47473 -0.00154239 6.65704 5.21795e-05 6.84087C0.00164674 7.0247 0.0397708 7.20637 0.1122 7.37529C0.184628 7.5442 0.289912 7.69697 0.421906 7.82468L3.18589 10.5937C3.44709 10.856 3.79949 11 4.16296 11L4.35436 10.9862C4.56619 10.9565 4.76825 10.8779 4.94463 10.7567C5.12101 10.6355 5.2669 10.475 5.37082 10.2877L11.8258 2.0575C11.914 1.8986 11.9701 1.72384 11.9909 1.54322C12.0117 1.36259 11.9968 1.17963 11.947 1.00479C11.8972 0.829944 11.8135 0.666637 11.7007 0.524192C11.5879 0.381747 11.4482 0.262955 11.2896 0.174599Z" fill="#E5C9A6"/>
</svg>
