<svg width="17" height="17" viewBox="0 0 17 17" fill="none" xmlns="http://www.w3.org/2000/svg">
<path d="M6.22519 13.4862L5.36457 14.3416C5.00403 14.6965 4.51843 14.8954 4.01254 14.8954C3.50665 14.8954 3.02105 14.6965 2.66051 14.3416C2.48472 14.1675 2.34518 13.9603 2.24995 13.732C2.15472 13.5036 2.10569 13.2587 2.10569 13.0113C2.10569 12.7639 2.15472 12.519 2.24995 12.2906C2.34518 12.0623 2.48472 11.8551 2.66051 11.681L5.82676 8.54129C6.48232 7.88997 7.71694 6.93158 8.61688 7.8241C8.71372 7.92737 8.83038 8.01006 8.95989 8.06726C9.0894 8.12445 9.2291 8.15497 9.37066 8.15699C9.51222 8.15901 9.65274 8.13248 9.78382 8.079C9.91491 8.02552 10.0339 7.94618 10.1336 7.84572C10.2334 7.74525 10.3119 7.62572 10.3644 7.49425C10.417 7.36279 10.4425 7.22208 10.4394 7.08054C10.4364 6.93899 10.4049 6.79951 10.3468 6.67041C10.2887 6.54131 10.2051 6.42524 10.1012 6.32913C8.57331 4.81186 6.31232 5.09236 4.34351 7.04633L1.17726 10.1871C0.803147 10.556 0.506339 10.9957 0.3042 11.4806C0.102061 11.9656 -0.00135126 12.4859 1.33308e-05 13.0113C-0.00129194 13.5367 0.102147 14.057 0.304283 14.5419C0.506419 15.0268 0.803195 15.4666 1.17726 15.8355C1.93131 16.5834 2.95099 17.0022 4.01307 17C5.04051 17 6.06794 16.6122 6.84888 15.8355L7.71057 14.9801C7.80883 14.883 7.88694 14.7673 7.94041 14.6399C7.99388 14.5124 8.02166 14.3757 8.02216 14.2375C8.02265 14.0993 7.99585 13.9623 7.94329 13.8345C7.89073 13.7067 7.81345 13.5905 7.71588 13.4926C7.51864 13.2949 7.25116 13.1832 6.97185 13.182C6.69254 13.1808 6.42411 13.2902 6.22519 13.4862ZM15.8217 1.2843C14.178 -0.345597 11.8809 -0.433786 10.3615 1.07499L9.28944 2.13963C9.09134 2.33632 8.97949 2.60366 8.97849 2.88282C8.9775 3.16199 9.08744 3.43011 9.28413 3.62822C9.48082 3.82632 9.74815 3.93817 10.0273 3.93917C10.3065 3.94017 10.5746 3.83022 10.7727 3.63353L11.8458 2.56995C12.6321 1.78794 13.6637 2.112 14.3384 2.77927C14.6954 3.13521 14.8931 3.60697 14.8931 4.10954C14.8931 4.61211 14.6954 5.08386 14.3384 5.43875L10.9597 8.78992C9.41481 10.321 8.69019 9.60381 8.381 9.29674C8.28291 9.19935 8.1666 9.12223 8.03871 9.06979C7.91082 9.01735 7.77385 8.99061 7.63562 8.9911C7.4974 8.9916 7.36062 9.01931 7.23311 9.07267C7.10559 9.12602 6.98983 9.20397 6.89244 9.30206C6.79505 9.40015 6.71793 9.51646 6.66549 9.64436C6.61305 9.77225 6.58631 9.90922 6.58681 10.0475C6.5873 10.1857 6.61502 10.3225 6.66837 10.45C6.72172 10.5775 6.79966 10.6933 6.89775 10.7906C7.6075 11.494 8.41713 11.8425 9.265 11.8425C10.3031 11.8425 11.4006 11.3198 12.4451 10.2838L15.8238 6.93371C16.1971 6.56431 16.4933 6.12443 16.6952 5.63962C16.8971 5.15481 17.0007 4.63472 17 4.10954C17.0009 3.58398 16.8972 3.06349 16.6949 2.57843C16.4926 2.09336 16.1958 1.65344 15.8217 1.2843Z" fill="#E4B26F"/>
</svg>
